<?xml version="1.0" encoding="utf-8"?>
<!-- Generator: Adobe Illustrator 16.0.0, SVG Export Plug-In . SVG Version: 6.00 Build 0)  -->
<!DOCTYPE svg PUBLIC "-//W3C//DTD SVG 1.1//EN" "http://www.w3.org/Graphics/SVG/1.1/DTD/svg11.dtd">
<svg version="1.1" id="Layer_1" xmlns="http://www.w3.org/2000/svg" xmlns:xlink="http://www.w3.org/1999/xlink" x="0px" y="0px"
	 width="441.986px" height="374.817px" viewBox="125.665 424 441.986 374.817" enable-background="new 125.665 424 441.986 374.817"
	 xml:space="preserve">
<g>
	
		<linearGradient id="SVGID_1_" gradientUnits="userSpaceOnUse" x1="-3193.5938" y1="-753.9045" x2="-2934.8682" y2="-753.9045" gradientTransform="matrix(-4.371139e-008 -1 -1 4.371139e-008 -374.7571 -2453.4382)">
		<stop  offset="0" style="stop-color:#706DCB;stop-opacity:0"/>
		<stop  offset="1" style="stop-color:#706DCB;stop-opacity:0.7"/>
	</linearGradient>
	<circle fill="url(#SVGID_1_)" cx="379.147" cy="610.793" r="129.363"/>
	<g>
		<g>
			<path fill="#FFFFFF" d="M505.549,667.188c-2.853,0-5.535,0.789-7.836,2.124L463.29,610.43l34.288-59.687
				c2.336,1.397,5.062,2.209,7.971,2.216c8.65-0.007,15.65-7.013,15.65-15.658c0-8.645-7-15.645-15.65-15.645
				c-8.515,0-15.429,6.804-15.624,15.28h-68.642l-21.066-36.488L386.971,477.5c4.676-2.702,7.836-7.749,7.836-13.542
				c0-8.644-7.017-15.645-15.658-15.645c-8.645,0-15.651,7.001-15.651,15.645c0,5.793,3.16,10.84,7.835,13.542l-13.25,22.949
				l-21.071,36.488h-68.613c-0.036-8.616-7.029-15.595-15.651-15.595c-8.646,0-15.645,7.008-15.651,15.651
				c0,8.646,7.005,15.64,15.651,15.64c2.852,0,5.534-0.773,7.844-2.111l34.42,59.908l-34.284,58.66
				c-2.346-1.398-5.061-2.209-7.98-2.209c-8.646,0-15.651,6.997-15.651,15.646c0,8.652,7.005,15.654,15.651,15.654
				c8.523,0,15.444-6.811,15.631-15.292h26.497l42.136,0.005l21.071,36.493l13.25,22.941c-4.675,2.708-7.835,7.755-7.835,13.54
				c0,8.646,7.007,15.652,15.651,15.652c8.642,0,15.658-7.007,15.658-15.652c0-5.785-3.162-10.832-7.836-13.54l13.241-22.941
				l21.072-36.498l42.135,0.005l26.486-0.005c0.027,8.615,7.022,15.602,15.645,15.602c8.65,0,15.65-7.005,15.65-15.65
				C521.2,674.196,514.2,667.188,505.549,667.188z M416.628,674.819l-2.323,4.035l-21.071,36.498l-13.257,22.938l-0.828,1.443
				l-0.829-1.443l-13.259-22.938l-21.063-36.498l-2.325-4.035h-74.938l0.978-1.704l12.406-21.496l25.354-41.19l-25.354-42.22
				l-12.535-21.72l-0.859-1.483h74.948l2.325-4.035l21.063-36.488l13.259-22.95l0.834-1.439l0.823,1.439l13.257,22.95l21.071,36.488
				l2.323,4.035h74.949l-0.995,1.713l-12.403,21.49l-24.305,42.22l24.305,41.19l12.546,21.725l0.853,1.476H416.628z"/>
			<path fill="#FFFFFF" d="M352.8,664.528l4.025,6.976l21.071,36.49l1.321,2.296l1.323-2.296l21.079-36.49l4.024-6.976
				c-7.971,3.932-16.938,6.146-26.427,6.146C369.738,670.675,360.771,668.46,352.8,664.528z"/>
			<path fill="#FFFFFF" d="M319.443,613.102l-4.753,8.221l-21.06,36.487l-1.33,2.301h2.652h42.137h8.188
				C330.21,649.715,320.166,632.604,319.443,613.102z"/>
			<path fill="#FFFFFF" d="M294.954,559.744h-2.652l1.33,2.292l21.06,36.49l4.839,8.372c1.294-19.985,12.391-37.292,28.543-47.155
				h-10.982L294.954,559.744L294.954,559.744z"/>
			<path fill="#FFFFFF" d="M443.756,621.323l-4.754-8.226c-0.721,19.502-10.782,36.617-25.833,47.013h8.188h42.138h2.652
				l-1.332-2.301L443.756,621.323z"/>
			<path fill="#FFFFFF" d="M380.542,511.854l-1.323-2.295l-1.32,2.295l-21.072,36.492l-5.522,9.565
				c8.331-4.405,17.833-6.91,27.916-6.91c10.09,0,19.585,2.505,27.923,6.91l-5.521-9.565L380.542,511.854z"/>
			<path fill="#FFFFFF" d="M438.916,606.907l4.84-8.38l21.057-36.49l1.332-2.292h-2.651h-42.138h-10.981
				C426.516,569.607,437.623,586.921,438.916,606.907z"/>
		</g>
		<g>
			<g>
				<path fill="#FFFFFF" d="M394.353,599.26c0-2.604-1.733-4.486-4.42-4.486h-21.784v8.984h21.784
					C392.542,603.758,394.353,601.876,394.353,599.26z"/>
				<path fill="#FFFFFF" d="M391.385,614.044h-23.237v9.716h23.237c2.896,0,4.783-2.032,4.783-4.858
					C396.168,616.074,394.281,614.044,391.385,614.044z"/>
				<path fill="#FFFFFF" d="M379.151,560.958c-26.999,0-48.959,21.967-48.959,48.957c0,26.998,21.961,48.959,48.959,48.959
					c26.991,0,48.952-21.962,48.952-48.959C428.104,582.925,406.143,560.958,379.151,560.958z M391.385,634.623h-1.752v9.418h-8.56
					v-9.418h-4.324v9.418h-8.556v-9.41h-17.071v-10.82h5.431v-29.063h-5.431V583.93v-0.03h17.071v-9.41h8.556v9.41h4.324v-9.41h8.56
					v9.41h0.299c8.842,0,16.019,5.725,16.019,14.498c0,4.196-1.667,7.533-4.42,9.927c3.771,2.39,6.234,6.3,6.234,11.445
					C407.765,628.763,400.445,634.623,391.385,634.623z"/>
			</g>
		</g>
	</g>
	
		<linearGradient id="SVGID_2_" gradientUnits="userSpaceOnUse" x1="226.4258" y1="-94.1057" x2="356.124" y2="-94.1057" gradientTransform="matrix(1 0 0 -1 0 375.8179)">
		<stop  offset="0" style="stop-color:#FFFFFF;stop-opacity:0"/>
		<stop  offset="1" style="stop-color:#FFFFFF"/>
	</linearGradient>
	<path fill="url(#SVGID_2_)" d="M355.988,435.216c-0.335-1.127-1.245-1.99-2.389-2.267l-36.706-8.856
		c-1.77-0.427-3.552,0.662-3.979,2.433s0.662,3.552,2.432,3.979l23.628,5.701c-47.336,10.388-87.654,39.722-112.549,79.643h7.829
		c24.517-37.278,63.224-64.428,108.375-73.697l-18.456,19.542c-1.25,1.323-1.189,3.411,0.134,4.661
		c0.638,0.602,1.451,0.899,2.264,0.899c0.876,0,1.75-0.347,2.397-1.034l26.254-27.801
		C356.032,437.563,356.322,436.343,355.988,435.216z"/>
	
		<linearGradient id="SVGID_3_" gradientUnits="userSpaceOnUse" x1="558.4902" y1="2432.4187" x2="688.1865" y2="2432.4187" gradientTransform="matrix(0.4755 0.8797 0.8797 -0.4755 -1977.2728 1076.1628)">
		<stop  offset="0" style="stop-color:#FFFFFF;stop-opacity:0"/>
		<stop  offset="1" style="stop-color:#FFFFFF"/>
	</linearGradient>
	<path fill="url(#SVGID_3_)" d="M520.231,508.319c0.831-0.831,1.158-2.042,0.858-3.18l-9.666-36.5
		c-0.466-1.761-2.271-2.811-4.031-2.345c-1.76,0.466-2.81,2.271-2.344,4.032l6.22,23.496
		c-31.647-36.701-76.626-58.218-123.581-61.135l3.722,6.888c44.452,3.84,86.741,24.977,116.368,60.291l-25.968-6.942
		c-1.759-0.47-3.566,0.574-4.035,2.334c-0.229,0.847-0.103,1.704,0.282,2.418c0.417,0.771,1.139,1.373,2.051,1.619l36.941,9.875
		C518.188,509.473,519.398,509.149,520.231,508.319z"/>
	
		<linearGradient id="SVGID_4_" gradientUnits="userSpaceOnUse" x1="-1416.6992" y1="3812.9167" x2="-1287.0083" y2="3812.9167" gradientTransform="matrix(-0.5296 0.8483 0.8483 0.5296 -3409.0837 -260.9727)">
		<stop  offset="0" style="stop-color:#FFFFFF;stop-opacity:0"/>
		<stop  offset="1" style="stop-color:#FFFFFF"/>
	</linearGradient>
	<path fill="url(#SVGID_4_)" d="M536.527,684.843c1.133,0.313,2.347,0,3.186-0.823l26.951-26.445
		c1.299-1.278,1.32-3.363,0.043-4.666c-1.274-1.297-3.362-1.317-4.662-0.042l-17.348,17.024
		c16.255-45.656,12.724-95.391-7.955-137.648l-4.146,6.641c18.639,40.537,21.171,87.747,5.122,130.958l-6.804-26.004
		c-0.461-1.762-2.262-2.816-4.024-2.354c-0.848,0.222-1.532,0.753-1.961,1.443c-0.465,0.742-0.633,1.665-0.395,2.579l9.679,36.996
		C534.511,683.636,535.393,684.531,536.527,684.843z"/>
	
		<linearGradient id="SVGID_5_" gradientUnits="userSpaceOnUse" x1="-3731.3047" y1="2572.8796" x2="-3601.6118" y2="2572.8796" gradientTransform="matrix(-0.999 -0.0456 -0.0456 0.999 -3089.1577 -1983.4172)">
		<stop  offset="0" style="stop-color:#FFFFFF;stop-opacity:0"/>
		<stop  offset="1" style="stop-color:#FFFFFF"/>
	</linearGradient>
	<path fill="url(#SVGID_5_)" d="M389.906,785.792c0.283,1.141,1.151,2.045,2.281,2.373l36.264,10.521
		c1.749,0.507,3.578-0.499,4.085-2.248c0.507-1.75-0.499-3.579-2.248-4.086l-23.343-6.773
		c47.761-8.217,89.375-35.682,116.064-74.425l-7.82-0.355c-26.192,36.118-66.097,61.477-111.624,68.676l19.326-18.682
		c1.31-1.264,1.346-3.354,0.079-4.663c-0.607-0.629-1.407-0.964-2.219-1.001c-0.875-0.04-1.763,0.267-2.441,0.923l-27.496,26.574
		C389.969,783.445,389.623,784.651,389.906,785.792z"/>
	
		<linearGradient id="SVGID_6_" gradientUnits="userSpaceOnUse" x1="-3863.79" y1="211.9285" x2="-3734.0996" y2="211.9285" gradientTransform="matrix(-0.4681 -0.8837 -0.8837 0.4681 -1297.6277 -2705.7058)">
		<stop  offset="0" style="stop-color:#FFFFFF;stop-opacity:0"/>
		<stop  offset="1" style="stop-color:#FFFFFF"/>
	</linearGradient>
	<path fill="url(#SVGID_6_)" d="M232.413,709.691c-0.84,0.824-1.177,2.032-0.885,3.172l9.356,36.58
		c0.452,1.765,2.248,2.829,4.013,2.378c1.763-0.451,2.828-2.247,2.377-4.012l-6.024-23.549
		c31.342,36.968,76.136,58.861,123.065,62.172l-3.665-6.917c-44.417-4.214-86.527-25.705-115.857-61.268l25.91,7.158
		c1.754,0.486,3.571-0.544,4.055-2.299c0.234-0.844,0.116-1.704-0.263-2.42c-0.411-0.774-1.125-1.386-2.037-1.639l-36.856-10.185
		C234.467,708.555,233.253,708.867,232.413,709.691z"/>
	
		<linearGradient id="SVGID_7_" gradientUnits="userSpaceOnUse" x1="-3931.2969" y1="297.8376" x2="-3801.5933" y2="297.8376" gradientTransform="matrix(-0.9648 -0.2628 0.2628 -0.9648 -3629.3164 -96.8359)">
		<stop  offset="0" style="stop-color:#FFFFFF;stop-opacity:0"/>
		<stop  offset="1" style="stop-color:#FFFFFF"/>
	</linearGradient>
	<path fill="url(#SVGID_7_)" d="M126.159,581.463c0.619-0.998,1.724-1.592,2.899-1.559l37.744,1.102
		c1.819,0.056,3.252,1.571,3.2,3.393c-0.054,1.82-1.572,3.253-3.393,3.199l-24.295-0.708
		c42.942,22.464,74.133,61.362,87.661,106.421l-7.553-2.057c-13.858-42.41-44.067-78.779-85.197-99.59l12.67,23.706
		c0.858,1.606,0.252,3.606-1.354,4.463c-0.772,0.412-1.636,0.486-2.42,0.273c-0.844-0.23-1.597-0.795-2.042-1.626l-18.026-33.727
		C125.5,583.717,125.541,582.464,126.159,581.463z"/>
</g>
</svg>
