<?xml version="1.0" encoding="utf-8"?>
<!-- Generator: Adobe Illustrator 16.0.0, SVG Export Plug-In . SVG Version: 6.00 Build 0)  -->
<!DOCTYPE svg PUBLIC "-//W3C//DTD SVG 1.1//EN" "http://www.w3.org/Graphics/SVG/1.1/DTD/svg11.dtd">
<svg version="1.1" id="Layer_1" xmlns="http://www.w3.org/2000/svg" xmlns:xlink="http://www.w3.org/1999/xlink" x="0px" y="0px"
	 width="230px" height="179.494px" viewBox="0.351 304.128 230 179.494" enable-background="new 0.351 304.128 230 179.494"
	 xml:space="preserve">
<g>
	<g>
		<g>
			
				<linearGradient id="SVGID_1_" gradientUnits="userSpaceOnUse" x1="-5160.9424" y1="1971.8987" x2="-5067.3711" y2="1971.8987" gradientTransform="matrix(-4.371139e-008 -1 1 -4.371139e-008 -1833.26 -4724.0918)">
				<stop  offset="0" style="stop-color:#706DCB;stop-opacity:0"/>
				<stop  offset="1" style="stop-color:#706DCB;stop-opacity:0.7"/>
			</linearGradient>
			<circle fill="url(#SVGID_1_)" cx="138.638" cy="390.065" r="46.786"/>
			<g>
				<g>
					<path fill="#FFFFFF" d="M197.561,416.758c-1.331,0-2.581,0.367-3.654,0.987l-16.048-27.447l15.985-27.821
						c1.088,0.65,2.357,1.028,3.715,1.033c4.032-0.005,7.295-3.271,7.295-7.299c0-4.033-3.265-7.294-7.295-7.294
						c-3.971,0-7.193,3.172-7.284,7.122h-31.996l-9.82-17.006l-6.173-10.698c2.179-1.259,3.65-3.612,3.65-6.313
						c0-4.029-3.269-7.291-7.296-7.291c-4.029,0-7.296,3.263-7.296,7.291c0,2.701,1.473,5.054,3.652,6.313l-6.176,10.698
						L119,356.041H87.015c-0.017-4.017-3.277-7.269-7.295-7.269c-4.031,0-7.292,3.267-7.295,7.294c0,4.033,3.263,7.291,7.295,7.291
						c1.328,0,2.582-0.36,3.657-0.983l16.046,27.925l-15.983,27.346c-1.093-0.651-2.36-1.028-3.72-1.028
						c-4.032,0-7.296,3.263-7.296,7.293c0,4.032,3.265,7.296,7.296,7.296c3.97,0,7.197-3.175,7.287-7.129h12.35l19.643,0.004
						l9.821,17.01l6.177,10.695c-2.182,1.261-3.653,3.615-3.653,6.313c0,4.029,3.267,7.293,7.296,7.293
						c4.028,0,7.297-3.266,7.297-7.293c0-2.698-1.474-5.051-3.651-6.313l6.17-10.695l9.825-17.014l19.64,0.004l12.348-0.004
						c0.013,4.017,3.271,7.273,7.291,7.273c4.032,0,7.295-3.265,7.295-7.293C204.855,420.025,201.591,416.758,197.561,416.758z
						 M156.109,420.314l-1.085,1.881l-9.821,17.014l-6.182,10.694l-0.385,0.674l-0.385-0.674l-6.182-10.694l-9.818-17.013
						l-1.083-1.88H86.234l0.457-0.795l5.781-10.021l11.819-19.2l-11.817-19.68l-5.844-10.126l-0.399-0.69h34.936l1.083-1.882
						l9.819-17.008l6.181-10.698l0.389-0.672l0.384,0.672l6.178,10.698l9.825,17.008l1.083,1.882h34.936l-0.461,0.798l-5.783,10.017
						l-11.33,19.681l11.33,19.201l5.848,10.125l0.396,0.689L156.109,420.314L156.109,420.314z"/>
					<path fill="#FFFFFF" d="M126.357,415.516l1.875,3.254l9.823,17.01l0.614,1.071l0.619-1.071l9.825-17.01l1.876-3.254
						c-3.715,1.835-7.894,2.865-12.318,2.865C134.252,418.382,130.071,417.352,126.357,415.516z"/>
					<path fill="#FFFFFF" d="M110.807,391.545l-2.216,3.834l-9.817,17.008l-0.619,1.071h1.235h19.642h3.818
						C115.826,408.614,111.143,400.637,110.807,391.545z"/>
					<path fill="#FFFFFF" d="M99.392,366.673h-1.234l0.618,1.069l9.816,17.01l2.257,3.901c0.605-9.315,5.776-17.383,13.308-21.98
						h-5.122H99.392L99.392,366.673z"/>
					<path fill="#FFFFFF" d="M168.754,395.379l-2.216-3.836c-0.336,9.092-5.025,17.069-12.042,21.915h3.817h19.644h1.236
						l-0.621-1.073L168.754,395.379z"/>
					<path fill="#FFFFFF" d="M139.289,344.351l-0.619-1.071l-0.615,1.071l-9.822,17.009l-2.573,4.459
						c3.884-2.055,8.313-3.221,13.011-3.221c4.706,0,9.131,1.167,13.018,3.221l-2.574-4.459L139.289,344.351z"/>
					<path fill="#FFFFFF" d="M166.5,388.657l2.255-3.903l9.815-17.012l0.62-1.069h-1.235h-19.644h-5.12
						C160.717,371.272,165.896,379.341,166.5,388.657z"/>
				</g>
				<g>
					<g>
						<path fill="#FFFFFF" d="M145.727,385.093c0-1.214-0.808-2.092-2.063-2.092h-10.153v4.188h10.153
							C144.882,387.19,145.727,386.313,145.727,385.093z"/>
						<path fill="#FFFFFF" d="M144.343,391.986h-10.832v4.529h10.832c1.352,0,2.229-0.948,2.229-2.264
							C146.572,392.935,145.694,391.986,144.343,391.986z"/>
						<path fill="#FFFFFF" d="M138.64,367.239c-12.583,0-22.821,10.238-22.821,22.822s10.236,22.821,22.821,22.821
							c12.582,0,22.819-10.237,22.819-22.821C161.458,377.479,151.223,367.239,138.64,367.239z M144.343,401.577h-0.817v4.392
							h-3.991v-4.392h-2.016v4.392h-3.988v-4.388h-7.957v-5.043h2.53V382.99h-2.53v-5.043v-0.014h7.957v-4.387h3.988v4.387h2.016
							v-4.387h3.991v4.387h0.139c4.123,0,7.467,2.67,7.467,6.759c0,1.957-0.777,3.512-2.061,4.628
							c1.759,1.114,2.905,2.936,2.905,5.335C151.978,398.846,148.565,401.577,144.343,401.577z"/>
					</g>
				</g>
			</g>
			
				<linearGradient id="SVGID_2_" gradientUnits="userSpaceOnUse" x1="89.7202" y1="1892.1565" x2="131.2832" y2="1892.1565" gradientTransform="matrix(1 0 0 1 0 -1552.5762)">
				<stop  offset="0" style="stop-color:#FFFFFF;stop-opacity:0"/>
				<stop  offset="1" style="stop-color:#FFFFFF"/>
			</linearGradient>
			<path fill="url(#SVGID_2_)" d="M131.239,328.456c-0.106-0.362-0.398-0.639-0.765-0.726l-11.764-2.837
				c-0.567-0.138-1.139,0.211-1.274,0.778c-0.137,0.568,0.214,1.139,0.778,1.274l7.573,1.827
				c-15.17,3.329-28.091,12.73-36.068,25.523h2.508c7.856-11.947,20.261-20.648,34.731-23.617l-5.915,6.262
				c-0.4,0.423-0.382,1.093,0.043,1.492c0.204,0.192,0.465,0.289,0.725,0.289c0.282,0,0.563-0.112,0.769-0.332l8.413-8.909
				C131.254,329.207,131.346,328.818,131.239,328.456z"/>
			
				<linearGradient id="SVGID_3_" gradientUnits="userSpaceOnUse" x1="1085.7666" y1="-1819.7664" x2="1127.3291" y2="-1819.7664" gradientTransform="matrix(0.4755 0.8797 -0.8797 0.4755 -1958.5436 232.5679)">
				<stop  offset="0" style="stop-color:#FFFFFF;stop-opacity:0"/>
				<stop  offset="1" style="stop-color:#FFFFFF"/>
			</linearGradient>
			<path fill="url(#SVGID_3_)" d="M188.114,353.652c0.267-0.268,0.373-0.653,0.274-1.02l-3.097-11.696
				c-0.151-0.565-0.727-0.9-1.29-0.752c-0.564,0.152-0.9,0.729-0.751,1.293l1.992,7.529c-10.143-11.761-24.555-18.655-39.603-19.591
				l1.193,2.207c14.243,1.229,27.795,8.004,37.291,19.319l-8.321-2.223c-0.563-0.149-1.144,0.185-1.291,0.748
				c-0.075,0.271-0.033,0.547,0.09,0.776c0.134,0.247,0.361,0.439,0.656,0.518l11.842,3.166
				C187.459,354.023,187.849,353.919,188.114,353.652z"/>
			
				<linearGradient id="SVGID_4_" gradientUnits="userSpaceOnUse" x1="-1591.8496" y1="-4335.3701" x2="-1550.2881" y2="-4335.3701" gradientTransform="matrix(-0.5296 0.8483 -0.8483 -0.5296 -4312.853 -571.873)">
				<stop  offset="0" style="stop-color:#FFFFFF;stop-opacity:0"/>
				<stop  offset="1" style="stop-color:#FFFFFF"/>
			</linearGradient>
			<path fill="url(#SVGID_4_)" d="M195.331,414.882c0.362,0.101,0.752,0,1.022-0.263l8.638-8.475
				c0.413-0.41,0.421-1.079,0.011-1.495c-0.407-0.416-1.075-0.422-1.493-0.015l-5.559,5.457c5.21-14.632,4.079-30.571-2.549-44.112
				l-1.327,2.13c5.97,12.99,6.783,28.119,1.641,41.965l-2.18-8.331c-0.151-0.564-0.725-0.901-1.292-0.755
				c-0.271,0.072-0.487,0.243-0.628,0.463c-0.148,0.239-0.205,0.535-0.125,0.826l3.1,11.855
				C194.685,414.496,194.968,414.782,195.331,414.882z"/>
			
				<linearGradient id="SVGID_5_" gradientUnits="userSpaceOnUse" x1="-5246.2393" y1="-3043.0193" x2="-5204.6792" y2="-3043.0193" gradientTransform="matrix(-0.999 -0.0456 0.0456 -0.999 -4914.4692 -2837.1846)">
				<stop  offset="0" style="stop-color:#FFFFFF;stop-opacity:0"/>
				<stop  offset="1" style="stop-color:#FFFFFF"/>
			</linearGradient>
			<path fill="url(#SVGID_5_)" d="M145.721,451.238c0.091,0.365,0.371,0.654,0.73,0.76l11.62,3.37
				c0.562,0.162,1.147-0.157,1.31-0.719c0.163-0.561-0.156-1.147-0.719-1.311l-7.482-2.17c15.307-2.634,28.64-11.435,37.195-23.852
				l-2.506-0.113c-8.394,11.572-21.18,19.7-35.771,22.008l6.194-5.988c0.419-0.403,0.432-1.072,0.025-1.494
				c-0.196-0.202-0.453-0.308-0.711-0.318c-0.282-0.016-0.564,0.083-0.784,0.297l-8.812,8.516
				C145.741,450.486,145.631,450.871,145.721,451.238z"/>
			
				<linearGradient id="SVGID_6_" gradientUnits="userSpaceOnUse" x1="-5991.3613" y1="483.0608" x2="-5949.8003" y2="483.0608" gradientTransform="matrix(-0.4681 -0.8837 0.8837 -0.4681 -3112.6885 -4610.3896)">
				<stop  offset="0" style="stop-color:#FFFFFF;stop-opacity:0"/>
				<stop  offset="1" style="stop-color:#FFFFFF"/>
			</linearGradient>
			<path fill="url(#SVGID_6_)" d="M89.484,426.575c-0.269,0.263-0.378,0.651-0.283,1.017l2.998,11.722
				c0.145,0.564,0.721,0.906,1.286,0.762c0.566-0.145,0.906-0.721,0.762-1.288l-1.929-7.544
				c10.04,11.847,24.399,18.862,39.437,19.924l-1.175-2.216c-14.232-1.353-27.728-8.237-37.128-19.634l8.303,2.294
				c0.563,0.154,1.145-0.175,1.3-0.736c0.074-0.271,0.037-0.547-0.083-0.776c-0.131-0.249-0.36-0.444-0.654-0.526l-11.811-3.262
				C90.144,426.211,89.753,426.311,89.484,426.575z"/>
			
				<linearGradient id="SVGID_7_" gradientUnits="userSpaceOnUse" x1="-5846.1226" y1="1148.7278" x2="-5804.5571" y2="1148.7278" gradientTransform="matrix(-0.9648 -0.2628 -0.2628 0.9648 -5251.7104 -2242.2036)">
				<stop  offset="0" style="stop-color:#FFFFFF;stop-opacity:0"/>
				<stop  offset="1" style="stop-color:#FFFFFF"/>
			</linearGradient>
			<path fill="url(#SVGID_7_)" d="M49.661,380.821c0.198-0.318,0.554-0.511,0.93-0.5l12.095,0.354
				c0.58,0.017,1.041,0.504,1.024,1.088c-0.017,0.584-0.504,1.043-1.088,1.024l-7.785-0.227
				c13.757,7.198,23.753,19.665,28.093,34.104l-2.422-0.659c-4.439-13.589-14.122-25.245-27.301-31.914l4.06,7.597
				c0.277,0.516,0.082,1.155-0.435,1.429c-0.246,0.132-0.521,0.156-0.774,0.088c-0.273-0.074-0.514-0.254-0.654-0.521l-5.778-10.806
				C49.449,381.544,49.462,381.142,49.661,380.821z"/>
		</g>
		<g>
			<path fill="#FFFFFF" d="M128.398,305.493v1.097h2.114v1.251h-2.114v2.088H127.1v-5.687h3.453v1.252L128.398,305.493
				L128.398,305.493z"/>
			<path fill="#FFFFFF" d="M134.413,309.034h-2.112l-0.285,0.895h-1.422l1.934-5.687h1.658l1.934,5.687h-1.424L134.413,309.034z
				 M134.023,307.817l-0.667-2.088l-0.664,2.088H134.023z"/>
			<path fill="#FFFFFF" d="M136.163,307.085c0-1.674,1.242-2.957,2.959-2.957c1.028,0,1.939,0.512,2.436,1.316l-1.121,0.651
				c-0.254-0.439-0.739-0.7-1.316-0.7c-1.01,0-1.659,0.675-1.659,1.69s0.65,1.69,1.659,1.69c0.577,0,1.07-0.26,1.316-0.698
				l1.121,0.649c-0.486,0.805-1.396,1.317-2.436,1.317C137.405,310.043,136.163,308.758,136.163,307.085z"/>
			<path fill="#FFFFFF" d="M145.989,305.493h-1.462v4.436h-1.301v-4.436h-1.462v-1.251h4.226L145.989,305.493L145.989,305.493z"/>
			<path fill="#FFFFFF" d="M146.112,308.638l1.122-0.651c0.204,0.47,0.554,0.787,1.194,0.787c0.618,0,0.771-0.243,0.771-0.463
				c0-0.349-0.323-0.487-1.177-0.723c-0.847-0.235-1.675-0.642-1.675-1.729c0-1.096,0.926-1.73,1.909-1.73
				c0.935,0,1.667,0.445,2.081,1.283l-1.096,0.644c-0.195-0.408-0.464-0.658-0.985-0.658c-0.406,0-0.61,0.202-0.61,0.432
				c0,0.26,0.14,0.438,1.024,0.706c0.86,0.26,1.827,0.562,1.827,1.763c0,1.096-0.878,1.747-2.112,1.747
				C147.192,310.043,146.43,309.475,146.112,308.638z"/>
		</g>
		<g>
			<path fill="#FFFFFF" d="M193.882,342.155c0-1.675,1.324-2.957,2.957-2.957c1.634,0,2.959,1.284,2.959,2.957
				c0,1.674-1.324,2.958-2.959,2.958C195.206,345.113,193.882,343.828,193.882,342.155z M198.496,342.155
				c0-1.015-0.731-1.69-1.659-1.69c-0.925,0-1.657,0.674-1.657,1.69c0,1.016,0.732,1.69,1.657,1.69
				C197.765,343.845,198.496,343.17,198.496,342.155z"/>
			<path fill="#FFFFFF" d="M201.829,340.564v1.094h2.113v1.253h-2.113v2.089h-1.298v-5.688h3.451v1.252H201.829L201.829,340.564z"/>
			<path fill="#FFFFFF" d="M206.057,340.564v1.094h2.113v1.253h-2.113v2.089h-1.299v-5.688h3.453v1.252H206.057L206.057,340.564z"/>
			<path fill="#FFFFFF" d="M210.284,339.312v5.688h-1.3v-5.688H210.284z"/>
			<path fill="#FFFFFF" d="M211.017,342.155c0-1.675,1.244-2.957,2.958-2.957c1.032,0,1.941,0.511,2.436,1.315l-1.121,0.652
				c-0.252-0.44-0.739-0.699-1.316-0.699c-1.006,0-1.657,0.674-1.657,1.69s0.651,1.69,1.657,1.69c0.577,0,1.073-0.26,1.316-0.697
				l1.121,0.648c-0.486,0.804-1.396,1.316-2.436,1.316C212.26,345.113,211.017,343.828,211.017,342.155z"/>
			<path fill="#FFFFFF" d="M220.599,343.747v1.252h-3.574v-5.688h3.534v1.252h-2.232v0.942h2.028v1.234h-2.028v1.007H220.599
				L220.599,343.747z"/>
			<path fill="#FFFFFF" d="M223.249,343.13h-0.619v1.869h-1.299v-5.688h2.274c1.082,0,1.949,0.868,1.949,1.949
				c0,0.698-0.42,1.332-1.047,1.65l1.21,2.088h-1.396L223.249,343.13z M222.631,341.991h0.976c0.357,0,0.65-0.316,0.65-0.73
				c0-0.413-0.292-0.729-0.65-0.729h-0.976V341.991z"/>
			<path fill="#FFFFFF" d="M225.965,343.706l1.121-0.65c0.205,0.472,0.555,0.788,1.196,0.788c0.616,0,0.771-0.245,0.771-0.464
				c0-0.35-0.325-0.487-1.177-0.724c-0.848-0.235-1.675-0.641-1.675-1.729c0-1.096,0.925-1.729,1.909-1.729
				c0.934,0,1.664,0.447,2.08,1.284l-1.097,0.641c-0.195-0.405-0.462-0.656-0.983-0.656c-0.406,0-0.611,0.202-0.611,0.432
				c0,0.258,0.141,0.438,1.023,0.707c0.862,0.258,1.828,0.559,1.828,1.761c0,1.097-0.879,1.747-2.112,1.747
				C227.046,345.113,226.281,344.543,225.965,343.706z"/>
		</g>
		<g>
			<path fill="#FFFFFF" d="M193.639,436.529h1.421l1.26,4.183l1.258-4.183h1.422l-1.853,5.687h-1.658L193.639,436.529z"/>
			<path fill="#FFFFFF" d="M203.064,440.964v1.252h-3.575v-5.687h3.535v1.25h-2.233v0.942h2.029v1.234h-2.029v1.009L203.064,440.964
				L203.064,440.964z"/>
			<path fill="#FFFFFF" d="M205.714,440.348h-0.616v1.867h-1.301v-5.687h2.275c1.08,0,1.949,0.87,1.949,1.948
				c0,0.699-0.422,1.332-1.048,1.649l1.212,2.09h-1.398L205.714,440.348z M205.098,439.208h0.975c0.358,0,0.651-0.315,0.651-0.73
				c0-0.413-0.291-0.73-0.651-0.73h-0.975V439.208z"/>
			<path fill="#FFFFFF" d="M213.835,439.372c0,1.608-1.194,2.843-2.764,2.843h-2.275v-5.687h2.275
				C212.641,436.529,213.835,437.764,213.835,439.372z M212.583,439.372c0-0.976-0.617-1.593-1.511-1.593h-0.976v3.186h0.976
				C211.966,440.964,212.583,440.348,212.583,439.372z"/>
			<path fill="#FFFFFF" d="M215.867,436.529v5.687h-1.299v-5.687H215.867z"/>
			<path fill="#FFFFFF" d="M216.601,439.372c0-1.674,1.242-2.957,2.957-2.957c1.033,0,1.942,0.512,2.437,1.315l-1.12,0.65
				c-0.252-0.439-0.74-0.699-1.318-0.699c-1.007,0-1.656,0.676-1.656,1.692c0,1.014,0.649,1.688,1.656,1.688
				c0.578,0,1.074-0.259,1.318-0.697l1.12,0.65c-0.485,0.805-1.396,1.316-2.437,1.316
				C217.843,442.329,216.601,441.046,216.601,439.372z"/>
			<path fill="#FFFFFF" d="M226.425,437.78h-1.46v4.437h-1.3v-4.437h-1.462v-1.251h4.224L226.425,437.78L226.425,437.78z"/>
		</g>
		<g>
			<path fill="#FFFFFF" d="M46.713,332.9v5.688h-1.3V332.9H46.713z"/>
			<path fill="#FFFFFF" d="M52.157,332.9v5.688h-0.974l-2.195-3.089v3.089h-1.3V332.9h0.975l2.195,3.086V332.9H52.157z"/>
			<path fill="#FFFFFF" d="M56.953,334.15h-1.46v4.438h-1.301v-4.438h-1.46v-1.25h4.224L56.953,334.15L56.953,334.15z"/>
			<path fill="#FFFFFF" d="M61.1,337.334v1.253h-3.575V332.9h3.534v1.251h-2.232v0.942h2.03v1.235h-2.03v1.007L61.1,337.334
				L61.1,337.334z"/>
			<path fill="#FFFFFF" d="M63.751,336.718h-0.619v1.869h-1.299V332.9h2.274c1.082,0,1.95,0.868,1.95,1.949
				c0,0.698-0.422,1.333-1.049,1.649l1.21,2.089h-1.396L63.751,336.718z M63.132,335.579h0.975c0.358,0,0.652-0.318,0.652-0.73
				c0-0.413-0.291-0.731-0.652-0.731h-0.975V335.579z"/>
			<path fill="#FFFFFF" d="M71.3,332.9v5.688h-0.975l-2.194-3.089v3.089h-1.298V332.9h0.975L70,335.986V332.9H71.3z"/>
			<path fill="#FFFFFF" d="M75.853,337.334v1.253h-3.574V332.9h3.535v1.251h-2.233v0.942h2.031v1.235h-2.031v1.007L75.853,337.334
				L75.853,337.334z"/>
			<path fill="#FFFFFF" d="M80.405,334.15h-1.461v4.438h-1.3v-4.438h-1.461v-1.25h4.225L80.405,334.15L80.405,334.15z"/>
			<path fill="#FFFFFF" d="M56.955,343.212v-3.852h1.3v3.735c0,0.432,0.204,0.796,0.895,0.796c0.688,0,0.892-0.364,0.892-0.796
				v-3.735h1.299v3.852c0,1.219-0.942,1.948-2.194,1.948C57.898,345.16,56.955,344.431,56.955,343.212z"/>
			<path fill="#FFFFFF" d="M61.995,343.756l1.122-0.65c0.203,0.471,0.552,0.786,1.193,0.786c0.619,0,0.773-0.243,0.773-0.463
				c0-0.35-0.324-0.486-1.178-0.722c-0.845-0.234-1.674-0.643-1.674-1.73c0-1.097,0.926-1.73,1.91-1.73
				c0.935,0,1.664,0.449,2.079,1.285l-1.095,0.642c-0.195-0.406-0.463-0.658-0.984-0.658c-0.407,0-0.609,0.202-0.609,0.431
				c0,0.26,0.138,0.438,1.023,0.706c0.86,0.261,1.826,0.562,1.826,1.763c0,1.096-0.876,1.746-2.112,1.746
				C63.076,345.16,62.313,344.592,61.995,343.756z"/>
			<path fill="#FFFFFF" d="M70.568,343.796v1.252h-3.574v-5.686h3.535v1.251h-2.231v0.942h2.029v1.235h-2.029v1.007h2.271V343.796z"
				/>
			<path fill="#FFFFFF" d="M73.22,343.18h-0.618v1.866h-1.298v-5.686h2.273c1.082,0,1.951,0.87,1.951,1.949
				c0,0.699-0.422,1.333-1.05,1.649l1.211,2.087h-1.397L73.22,343.18z M72.603,342.042h0.975c0.358,0,0.65-0.318,0.65-0.732
				c0-0.413-0.291-0.73-0.65-0.73h-0.975V342.042z"/>
			<path fill="#FFFFFF" d="M75.937,343.756l1.122-0.65c0.202,0.471,0.552,0.786,1.192,0.786c0.619,0,0.773-0.243,0.773-0.463
				c0-0.35-0.325-0.486-1.178-0.722c-0.845-0.234-1.674-0.643-1.674-1.73c0-1.097,0.926-1.73,1.91-1.73
				c0.934,0,1.665,0.449,2.079,1.285l-1.095,0.642c-0.196-0.406-0.463-0.658-0.984-0.658c-0.407,0-0.609,0.202-0.609,0.431
				c0,0.26,0.138,0.438,1.022,0.706c0.86,0.261,1.826,0.562,1.826,1.763c0,1.096-0.876,1.746-2.112,1.746
				C77.018,345.16,76.253,344.592,75.937,343.756z"/>
		</g>
		<g>
			<path fill="#FFFFFF" d="M50.784,441.323h-2.112l-0.285,0.892h-1.422l1.934-5.687h1.657l1.933,5.687h-1.421L50.784,441.323z
				 M50.394,440.104l-0.667-2.09l-0.666,2.09H50.394z"/>
			<path fill="#FFFFFF" d="M54.898,440.348h-0.62v1.867H52.98v-5.687h2.274c1.081,0,1.951,0.87,1.951,1.948
				c0,0.699-0.422,1.332-1.05,1.649l1.213,2.09h-1.399L54.898,440.348z M54.279,439.208h0.975c0.358,0,0.652-0.315,0.652-0.73
				c0-0.413-0.292-0.73-0.652-0.73h-0.975V439.208z"/>
			<path fill="#FFFFFF" d="M57.655,439.372c0-1.674,1.242-2.957,2.957-2.957c1.032,0,1.941,0.512,2.437,1.315l-1.122,0.65
				c-0.251-0.439-0.738-0.699-1.316-0.699c-1.007,0-1.657,0.676-1.657,1.692c0,1.014,0.649,1.688,1.657,1.688
				c0.579,0,1.073-0.259,1.316-0.697l1.122,0.65c-0.487,0.805-1.396,1.316-2.437,1.316
				C58.896,442.329,57.655,441.046,57.655,439.372z"/>
			<path fill="#FFFFFF" d="M68.048,436.529v5.687h-1.299v-2.26h-1.788v2.26h-1.3v-5.687h1.3v2.177h1.788v-2.177H68.048z"/>
			<path fill="#FFFFFF" d="M70.327,436.529v5.687h-1.3v-5.687H70.327z"/>
			<path fill="#FFFFFF" d="M70.816,436.529h1.421l1.259,4.183l1.259-4.183h1.422l-1.852,5.687h-1.66L70.816,436.529z"/>
			<path fill="#FFFFFF" d="M80.241,440.964v1.252h-3.575v-5.687h3.535v1.25h-2.234v0.942h2.03v1.234h-2.03v1.009L80.241,440.964
				L80.241,440.964z"/>
		</g>
		<g>
			<path fill="#FFFFFF" d="M113.349,476.178h-2.122l-0.286,0.897h-1.427l1.941-5.711h1.664l1.942,5.711h-1.427L113.349,476.178z
				 M112.957,474.952l-0.669-2.096l-0.669,2.096H112.957z"/>
			<path fill="#FFFFFF" d="M118.9,475.819v1.257h-3.347v-5.711h1.306v4.454H118.9z"/>
			<path fill="#FFFFFF" d="M124.8,474.382c0,1.747-1.216,2.806-2.814,2.806c-1.794,0-3.084-1.322-3.084-2.961
				c0-1.657,1.314-2.979,2.995-2.979c1.092,0,2.016,0.538,2.496,1.306l-1.11,0.637c-0.236-0.376-0.75-0.67-1.394-0.67
				c-0.963,0-1.682,0.71-1.682,1.714c0,0.972,0.686,1.682,1.794,1.682c0.759,0,1.257-0.335,1.461-0.883h-1.525v-1.141h2.863V474.382
				z"/>
			<path fill="#FFFFFF" d="M125.294,474.219c0-1.681,1.33-2.97,2.97-2.97c1.639,0,2.969,1.29,2.969,2.97
				c0,1.681-1.33,2.969-2.969,2.969C126.624,477.188,125.294,475.9,125.294,474.219z M129.929,474.219
				c0-1.021-0.734-1.697-1.664-1.697s-1.664,0.677-1.664,1.697c0,1.019,0.734,1.697,1.664,1.697S129.929,475.239,129.929,474.219z"
				/>
			<path fill="#FFFFFF" d="M133.898,475.198h-0.621v1.877h-1.306v-5.711h2.285c1.086,0,1.96,0.872,1.96,1.956
				c0,0.702-0.426,1.339-1.055,1.658l1.217,2.097h-1.403L133.898,475.198z M133.277,474.055h0.979c0.359,0,0.653-0.317,0.653-0.734
				c0-0.414-0.293-0.733-0.653-0.733h-0.979V474.055z"/>
			<path fill="#FFFFFF" d="M138.299,471.365v5.711h-1.307v-5.711H138.299z"/>
			<path fill="#FFFFFF" d="M143.113,472.62h-1.468v4.455h-1.306v-4.455h-1.469v-1.256h4.242V472.62L143.113,472.62z"/>
			<path fill="#FFFFFF" d="M148.094,471.365v5.711h-1.306v-2.27h-1.795v2.27h-1.306v-5.711h1.306v2.186h1.795v-2.186H148.094z"/>
			<path fill="#FFFFFF" d="M154.787,477.075h-1.306v-3.321l-1.477,2.424h-0.146l-1.478-2.424v3.321h-1.307v-5.711h1.307l1.551,2.536
				l1.55-2.536h1.306V477.075z"/>
			<path fill="#FFFFFF" d="M157.566,474.219c0-1.681,1.329-2.97,2.97-2.97c1.64,0,2.969,1.29,2.969,2.97
				c0,1.681-1.329,2.969-2.969,2.969C158.896,477.188,157.566,475.9,157.566,474.219z M162.2,474.219
				c0-1.021-0.734-1.697-1.663-1.697c-0.931,0-1.665,0.677-1.665,1.697c0,1.019,0.734,1.697,1.665,1.697
				C161.466,475.916,162.2,475.239,162.2,474.219z"/>
			<path fill="#FFFFFF" d="M165.55,472.62v1.101h2.121v1.257h-2.121v2.097h-1.307v-5.711h3.469v1.256L165.55,472.62L165.55,472.62z"
				/>
			<path fill="#FFFFFF" d="M93.394,483.508h-1.306v-3.321l-1.476,2.423h-0.147l-1.478-2.423v3.321h-1.306v-5.712h1.306l1.55,2.536
				l1.551-2.536h1.306V483.508z"/>
			<path fill="#FFFFFF" d="M94.335,481.663v-3.867h1.306v3.753c0,0.433,0.204,0.8,0.897,0.8c0.692,0,0.897-0.367,0.897-0.8v-3.753
				h1.305v3.867c0,1.224-0.946,1.959-2.202,1.959C95.282,483.622,94.335,482.887,94.335,481.663z"/>
			<path fill="#FFFFFF" d="M103.029,482.25v1.258h-3.346v-5.712h1.306v4.454H103.029z"/>
			<path fill="#FFFFFF" d="M106.865,479.053h-1.468v4.455h-1.306v-4.455h-1.468v-1.257h4.242V479.053L106.865,479.053z"/>
			<path fill="#FFFFFF" d="M108.744,477.796v5.712h-1.305v-5.712H108.744z"/>
			<path fill="#FFFFFF" d="M109.724,480.48h3.101v1.175h-3.101V480.48z"/>
			<path fill="#FFFFFF" d="M117.152,482.25v1.258h-3.345v-5.712h1.305v4.454H117.152z"/>
			<path fill="#FFFFFF" d="M121.315,482.25v1.258h-3.59v-5.712h3.549v1.257h-2.244v0.946h2.041v1.24h-2.041v1.012L121.315,482.25
				L121.315,482.25z"/>
			<path fill="#FFFFFF" d="M121.563,477.796h1.428l1.265,4.202l1.265-4.202h1.428l-1.859,5.712h-1.665L121.563,477.796z"/>
			<path fill="#FFFFFF" d="M131.03,482.25v1.258h-3.59v-5.712h3.549v1.257h-2.243v0.946h2.04v1.24h-2.04v1.012L131.03,482.25
				L131.03,482.25z"/>
			<path fill="#FFFFFF" d="M135.113,482.25v1.258h-3.345v-5.712h1.306v4.454H135.113z"/>
			<path fill="#FFFFFF" d="M137.238,477.796h1.427l1.266,4.202l1.263-4.202h1.429l-1.86,5.712h-1.663L137.238,477.796z"/>
			<path fill="#FFFFFF" d="M146.705,482.25v1.258h-3.59v-5.712h3.549v1.257h-2.243v0.946h2.041v1.24h-2.041v1.012L146.705,482.25
				L146.705,482.25z"/>
			<path fill="#FFFFFF" d="M149.369,481.63h-0.619v1.878h-1.307v-5.712h2.285c1.086,0,1.959,0.873,1.959,1.957
				c0,0.703-0.424,1.339-1.053,1.658l1.215,2.097h-1.402L149.369,481.63z M148.749,480.489h0.979c0.358,0,0.653-0.318,0.653-0.735
				c0-0.414-0.294-0.733-0.653-0.733h-0.979V480.489z"/>
			<path fill="#FFFFFF" d="M153.769,477.796v5.712h-1.306v-5.712H153.769z"/>
			<path fill="#FFFFFF" d="M156.056,479.053v1.101h2.121v1.257h-2.121v2.097h-1.306v-5.712h3.467v1.256h-2.161V479.053z"/>
			<path fill="#FFFFFF" d="M160.3,477.796v5.712h-1.306v-5.712H160.3z"/>
			<path fill="#FFFFFF" d="M161.036,480.651c0-1.68,1.247-2.969,2.969-2.969c1.037,0,1.95,0.515,2.447,1.322l-1.124,0.653
				c-0.254-0.44-0.743-0.702-1.323-0.702c-1.012,0-1.664,0.678-1.664,1.697c0,1.019,0.652,1.697,1.664,1.697
				c0.58,0,1.076-0.262,1.323-0.702l1.124,0.652c-0.487,0.809-1.403,1.322-2.447,1.322
				C162.283,483.621,161.036,482.332,161.036,480.651z"/>
			<path fill="#FFFFFF" d="M170.414,482.61h-2.123l-0.284,0.898h-1.428l1.942-5.712h1.664l1.941,5.712h-1.428L170.414,482.61z
				 M170.022,481.385l-0.669-2.096l-0.669,2.096H170.022z"/>
			<path fill="#FFFFFF" d="M176.047,479.053h-1.469v4.455h-1.306v-4.455h-1.469v-1.257h4.243V479.053L176.047,479.053z"/>
			<path fill="#FFFFFF" d="M177.927,477.796v5.712h-1.307v-5.712H177.927z"/>
			<path fill="#FFFFFF" d="M178.662,480.651c0-1.68,1.329-2.969,2.97-2.969c1.64,0,2.969,1.29,2.969,2.969
				c0,1.682-1.329,2.971-2.969,2.971S178.662,482.332,178.662,480.651z M183.296,480.651c0-1.02-0.733-1.696-1.663-1.696
				s-1.664,0.678-1.664,1.696c0,1.02,0.734,1.698,1.664,1.698S183.296,481.671,183.296,480.651z"/>
			<path fill="#FFFFFF" d="M189.827,477.796v5.712h-0.979l-2.202-3.101v3.101h-1.307v-5.712h0.979l2.203,3.1v-3.1H189.827z"/>
		</g>
	</g>
	<g>
		<path fill-rule="evenodd" clip-rule="evenodd" fill="#FFFFFF" d="M43.863,372.77c-0.177,6.913-1.203,13.667-3.791,20.132
			c-3.599,8.99-9.699,15.812-17.96,20.755c-8.261-4.943-14.36-11.765-17.961-20.755c-2.588-6.465-3.612-13.219-3.788-20.132
			c-0.047-1.781-0.03-1.782,1.767-1.898c5.419-0.353,10.533-1.79,15.333-4.336c1.614-0.857,3.158-1.829,4.65-2.882
			c1.494,1.053,3.033,2.024,4.65,2.882c4.798,2.546,9.912,3.983,15.331,4.336C43.89,370.988,43.907,370.989,43.863,372.77z"/>
		<g>
			<path fill="#8F8DCE" d="M7.711,380.558H9.12l1.013,4.105l1.132-4.105h1.088l1.132,4.105l1.013-4.105h1.409l-1.618,5.865h-1.524
				l-0.955-3.461l-0.957,3.461H9.328L7.711,380.558z"/>
			<path fill="#8F8DCE" d="M19.594,385.501h-2.178l-0.294,0.922h-1.467l1.994-5.865h1.711l1.994,5.865h-1.467L19.594,385.501z
				 M19.192,384.245l-0.687-2.155l-0.688,2.155H19.192z"/>
			<path fill="#8F8DCE" d="M25.378,381.847h-1.509v4.576h-1.341v-4.576h-1.508v-1.289h4.358V381.847z"/>
			<path fill="#8F8DCE" d="M25.378,383.49c0-1.727,1.282-3.051,3.05-3.051c1.065,0,2.004,0.527,2.515,1.357l-1.156,0.671
				c-0.26-0.453-0.763-0.722-1.358-0.722c-1.038,0-1.708,0.696-1.708,1.744c0,1.047,0.67,1.742,1.708,1.742
				c0.595,0,1.107-0.269,1.358-0.721l1.156,0.671c-0.503,0.829-1.442,1.358-2.515,1.358C26.66,386.541,25.378,385.215,25.378,383.49
				z"/>
			<path fill="#8F8DCE" d="M36.097,380.558v5.865h-1.34v-2.33h-1.844v2.33h-1.341v-5.865h1.341v2.246h1.844v-2.246H36.097z"/>
			<path fill="#8F8DCE" d="M18.253,391.172c0,1.66-1.231,2.934-2.849,2.934h-2.346v-5.865h2.346
				C17.022,388.24,18.253,389.514,18.253,391.172z M16.964,391.172c0-1.004-0.637-1.642-1.56-1.642h-1.005v3.284h1.005
				C16.327,392.815,16.964,392.179,16.964,391.172z"/>
			<path fill="#8F8DCE" d="M18.757,391.172c0-1.726,1.366-3.05,3.05-3.05c1.686,0,3.051,1.324,3.051,3.05
				c0,1.727-1.366,3.052-3.051,3.052C20.124,394.224,18.757,392.899,18.757,391.172z M23.518,391.172
				c0-1.047-0.754-1.743-1.71-1.743c-0.955,0-1.708,0.696-1.708,1.743c0,1.048,0.753,1.743,1.708,1.743
				C22.764,392.915,23.518,392.22,23.518,391.172z"/>
			<path fill="#8F8DCE" d="M31.42,391.34c0,1.794-1.248,2.884-2.891,2.884c-1.844,0-3.167-1.358-3.167-3.042
				c0-1.702,1.349-3.06,3.075-3.06c1.125,0,2.07,0.553,2.564,1.342l-1.139,0.653c-0.244-0.385-0.771-0.688-1.434-0.688
				c-0.988,0-1.726,0.73-1.726,1.761c0,0.997,0.703,1.726,1.843,1.726c0.779,0,1.291-0.344,1.5-0.904h-1.567v-1.173h2.941V391.34z"
				/>
		</g>
	</g>
</g>
</svg>
