<?xml version="1.0" encoding="utf-8"?>
<!-- Generator: Adobe Illustrator 16.0.0, SVG Export Plug-In . SVG Version: 6.00 Build 0)  -->
<!DOCTYPE svg PUBLIC "-//W3C//DTD SVG 1.1//EN" "http://www.w3.org/Graphics/SVG/1.1/DTD/svg11.dtd">
<svg version="1.1" id="Layer_1" xmlns="http://www.w3.org/2000/svg" xmlns:xlink="http://www.w3.org/1999/xlink" x="0px" y="0px"
	 width="230px" height="223.196px" viewBox="258.899 -53.402 230 223.196" enable-background="new 258.899 -53.402 230 223.196"
	 xml:space="preserve">
<g>
	<g>
		
			<linearGradient id="SVGID_1_" gradientUnits="userSpaceOnUse" x1="-3886.9614" y1="1827.082" x2="-3770.5928" y2="1827.082" gradientTransform="matrix(-4.371139e-008 -1 1 -4.371139e-008 -1452.2437 -3775.3037)">
			<stop  offset="0" style="stop-color:#706DCB;stop-opacity:0"/>
			<stop  offset="1" style="stop-color:#706DCB;stop-opacity:0.7"/>
		</linearGradient>
		<circle fill="url(#SVGID_1_)" cx="374.838" cy="53.473" r="58.184"/>
		<g>
			<g>
				<path fill="#FFFFFF" d="M448.116,86.67c-1.654,0-3.209,0.457-4.544,1.23l-19.957-34.135l19.88-34.601
					c1.353,0.81,2.932,1.28,4.619,1.285c5.015-0.004,9.074-4.066,9.074-9.078s-4.06-9.07-9.074-9.07
					c-4.936,0-8.945,3.944-9.057,8.858h-39.792L387.052-9.991l-7.677-13.304c2.709-1.566,4.54-4.492,4.54-7.851
					c0-5.011-4.066-9.07-9.074-9.07c-5.011,0-9.073,4.059-9.073,9.07c0,3.359,1.832,6.284,4.542,7.851l-7.681,13.304L350.415,11.16
					h-39.777c-0.021-4.995-4.075-9.039-9.074-9.039c-5.012,0-9.07,4.062-9.074,9.072c0,5.013,4.059,9.067,9.074,9.067
					c1.652,0,3.211-0.448,4.547-1.223l19.955,34.73l-19.876,34.006c-1.359-0.811-2.933-1.28-4.626-1.28
					c-5.012,0-9.074,4.057-9.074,9.071s4.061,9.074,9.074,9.074c4.939,0,8.953-3.948,9.063-8.865h15.358l24.428,0.003l12.215,21.155
					l7.682,13.301c-2.712,1.568-4.543,4.496-4.543,7.85c0,5.012,4.061,9.072,9.074,9.072c5.009,0,9.074-4.061,9.074-9.072
					c0-3.354-1.833-6.281-4.541-7.85l7.674-13.301l12.218-21.158l24.424,0.003l15.357-0.003c0.016,4.994,4.068,9.044,9.067,9.044
					c5.015,0,9.074-4.06,9.074-9.072C457.189,90.733,453.129,86.67,448.116,86.67z M396.566,91.093l-1.348,2.339l-12.214,21.159
					l-7.688,13.299l-0.477,0.838l-0.48-0.838l-7.688-13.299l-12.211-21.158l-1.348-2.338h-43.445l0.568-0.989l7.191-12.461
					l14.699-23.879L317.428,29.29l-7.268-12.592l-0.496-0.86h43.447l1.348-2.338L366.67-7.653l7.686-13.305l0.485-0.834l0.475,0.834
					L383-7.653L395.22,13.5l1.346,2.338h43.449l-0.576,0.993l-7.192,12.458l-14.09,24.476l14.09,23.879l7.274,12.593l0.494,0.857
					L396.566,91.093L396.566,91.093z"/>
				<path fill="#FFFFFF" d="M359.565,85.126l2.332,4.046l12.216,21.154l0.765,1.331l0.768-1.331l12.22-21.154l2.333-4.046
					c-4.62,2.281-9.816,3.564-15.32,3.564C369.383,88.691,364.184,87.408,359.565,85.126z"/>
				<path fill="#FFFFFF" d="M340.227,55.315l-2.756,4.767l-12.209,21.153l-0.77,1.332h1.536h24.428h4.747
					C346.468,76.541,340.645,66.621,340.227,55.315z"/>
				<path fill="#FFFFFF" d="M326.029,24.382h-1.535l0.769,1.33l12.209,21.153l2.805,4.854c0.753-11.585,7.184-21.619,16.55-27.336
					h-6.369H326.029L326.029,24.382z"/>
				<path fill="#FFFFFF" d="M412.292,60.082l-2.756-4.769c-0.418,11.305-6.251,21.227-14.975,27.254h4.747h24.429h1.537
					l-0.771-1.334L412.292,60.082z"/>
				<path fill="#FFFFFF" d="M375.647-3.38l-0.768-1.331l-0.766,1.331l-12.215,21.156l-3.201,5.544
					c4.83-2.554,10.338-4.005,16.182-4.005c5.852,0,11.356,1.452,16.189,4.005l-3.201-5.544L375.647-3.38z"/>
				<path fill="#FFFFFF" d="M409.488,51.724l2.805-4.857L424.5,25.712l0.771-1.329h-1.536h-24.429h-6.368
					C402.297,30.101,408.738,40.137,409.488,51.724z"/>
			</g>
			<g>
				<g>
					<path fill="#FFFFFF" d="M383.653,47.29c0-1.51-1.004-2.6-2.563-2.6h-12.628v5.208h12.628
						C382.603,49.898,383.653,48.807,383.653,47.29z"/>
					<path fill="#FFFFFF" d="M381.934,55.862h-13.472v5.631h13.472c1.678,0,2.772-1.177,2.772-2.815S383.614,55.862,381.934,55.862z
						"/>
					<path fill="#FFFFFF" d="M374.841,25.086c-15.652,0-28.383,12.734-28.383,28.382c0,15.65,12.73,28.381,28.383,28.381
						c15.646,0,28.379-12.732,28.379-28.381C403.218,37.821,390.488,25.086,374.841,25.086z M381.934,67.791h-1.018v5.461h-4.963
						v-5.461h-2.508v5.461h-4.959v-5.456h-9.896v-6.272h3.147V44.674h-3.147v-6.27v-0.018h9.896v-5.455h4.959v5.455h2.508v-5.455
						h4.963v5.455h0.173c5.127,0,9.286,3.32,9.286,8.406c0,2.433-0.966,4.367-2.563,5.756c2.189,1.385,3.615,3.65,3.615,6.634
						C391.429,64.395,387.185,67.791,381.934,67.791z"/>
				</g>
			</g>
		</g>
		
			<linearGradient id="SVGID_2_" gradientUnits="userSpaceOnUse" x1="314.0024" y1="975.459" x2="365.6909" y2="975.459" gradientTransform="matrix(1 0 0 1 0 -984.7715)">
			<stop  offset="0" style="stop-color:#FFFFFF;stop-opacity:0"/>
			<stop  offset="1" style="stop-color:#FFFFFF"/>
		</linearGradient>
		<path fill="url(#SVGID_2_)" d="M365.637-23.146c-0.133-0.45-0.496-0.794-0.951-0.904l-14.629-3.528
			c-0.706-0.17-1.417,0.263-1.585,0.969c-0.171,0.706,0.264,1.416,0.966,1.585l9.418,2.271
			C339.991-18.611,323.922-6.92,314.002,8.99h3.119c9.771-14.857,25.197-25.677,43.193-29.371l-7.355,7.788
			c-0.498,0.527-0.475,1.36,0.053,1.857c0.255,0.239,0.578,0.358,0.901,0.358c0.351,0,0.699-0.138,0.956-0.412l10.463-11.08
			C365.655-22.211,365.77-22.697,365.637-23.146z"/>
		
			<linearGradient id="SVGID_3_" gradientUnits="userSpaceOnUse" x1="590.1196" y1="-2134.5562" x2="641.8071" y2="-2134.5562" gradientTransform="matrix(0.4755 0.8797 -0.8797 0.4755 -1758.723 465.1985)">
			<stop  offset="0" style="stop-color:#FFFFFF;stop-opacity:0"/>
			<stop  offset="1" style="stop-color:#FFFFFF"/>
		</linearGradient>
		<path fill="url(#SVGID_3_)" d="M436.37,8.188c0.331-0.332,0.463-0.814,0.341-1.267l-3.852-14.547
			c-0.187-0.702-0.903-1.12-1.604-0.933c-0.702,0.186-1.12,0.906-0.935,1.606l2.479,9.365
			c-12.614-14.627-30.537-23.202-49.252-24.365l1.483,2.745c17.715,1.53,34.569,9.954,46.377,24.028L421.06,2.054
			c-0.703-0.187-1.422,0.229-1.608,0.93c-0.093,0.337-0.041,0.679,0.112,0.963c0.166,0.308,0.452,0.548,0.817,0.646l14.726,3.936
			C435.555,8.649,436.039,8.521,436.37,8.188z"/>
		
			<linearGradient id="SVGID_4_" gradientUnits="userSpaceOnUse" x1="-1913.5879" y1="-3745.8545" x2="-1861.9009" y2="-3745.8545" gradientTransform="matrix(-0.5296 0.8483 -0.8483 -0.5296 -3730.0886 -327.2945)">
			<stop  offset="0" style="stop-color:#FFFFFF;stop-opacity:0"/>
			<stop  offset="1" style="stop-color:#FFFFFF"/>
		</linearGradient>
		<path fill="url(#SVGID_4_)" d="M445.344,84.337c0.451,0.125,0.935,0,1.271-0.326l10.742-10.54c0.515-0.51,0.526-1.342,0.015-1.859
			c-0.507-0.518-1.338-0.526-1.857-0.018l-6.913,6.786c6.479-18.196,5.073-38.018-3.171-54.859l-1.651,2.647
			c7.425,16.155,8.437,34.971,2.04,52.192l-2.71-10.363c-0.187-0.701-0.902-1.121-1.606-0.938c-0.337,0.089-0.609,0.302-0.781,0.575
			c-0.186,0.297-0.255,0.665-0.158,1.027l3.857,14.744C444.54,83.859,444.893,84.213,445.344,84.337z"/>
		
			<linearGradient id="SVGID_5_" gradientUnits="userSpaceOnUse" x1="-4691.8916" y1="-2158.3359" x2="-4640.2036" y2="-2158.3359" gradientTransform="matrix(-0.999 -0.0456 0.0456 -0.999 -4152.8501 -2252.0381)">
			<stop  offset="0" style="stop-color:#FFFFFF;stop-opacity:0"/>
			<stop  offset="1" style="stop-color:#FFFFFF"/>
		</linearGradient>
		<path fill="url(#SVGID_5_)" d="M383.646,129.55c0.114,0.455,0.461,0.814,0.91,0.945l14.452,4.193
			c0.697,0.201,1.427-0.197,1.629-0.895c0.201-0.697-0.197-1.426-0.896-1.629l-9.303-2.699
			c19.036-3.275,35.618-14.221,46.256-29.662l-3.116-0.142c-10.439,14.393-26.341,24.5-44.486,27.37l7.702-7.447
			c0.521-0.502,0.537-1.334,0.032-1.857c-0.243-0.252-0.563-0.383-0.885-0.398c-0.349-0.018-0.701,0.105-0.973,0.369l-10.958,10.59
			C383.672,128.614,383.535,129.095,383.646,129.55z"/>
		
			<linearGradient id="SVGID_6_" gradientUnits="userSpaceOnUse" x1="-4755.7886" y1="766.376" x2="-4704.1025" y2="766.376" gradientTransform="matrix(-0.4681 -0.8837 0.8837 -0.4681 -2553.3286 -3705.9185)">
			<stop  offset="0" style="stop-color:#FFFFFF;stop-opacity:0"/>
			<stop  offset="1" style="stop-color:#FFFFFF"/>
		</linearGradient>
		<path fill="url(#SVGID_6_)" d="M313.708,98.879c-0.335,0.327-0.471,0.81-0.353,1.264l3.729,14.579
			c0.181,0.701,0.896,1.127,1.6,0.947c0.703-0.18,1.127-0.895,0.947-1.6l-2.4-9.383c12.488,14.733,30.343,23.458,49.045,24.778
			l-1.46-2.756c-17.701-1.68-34.484-10.244-46.173-24.417l10.326,2.853c0.699,0.192,1.424-0.217,1.616-0.916
			c0.093-0.337,0.046-0.68-0.105-0.966c-0.163-0.309-0.448-0.552-0.812-0.653L314.98,98.55
			C314.528,98.427,314.043,98.55,313.708,98.879z"/>
		
			<linearGradient id="SVGID_7_" gradientUnits="userSpaceOnUse" x1="-5076.3032" y1="320.373" x2="-5024.6113" y2="320.373" gradientTransform="matrix(-0.9648 -0.2628 -0.2628 0.9648 -4503.125 -1574.2729)">
			<stop  offset="0" style="stop-color:#FFFFFF;stop-opacity:0"/>
			<stop  offset="1" style="stop-color:#FFFFFF"/>
		</linearGradient>
		<path fill="url(#SVGID_7_)" d="M264.182,41.977c0.246-0.398,0.688-0.635,1.156-0.621l15.042,0.439
			c0.722,0.021,1.295,0.626,1.274,1.353c-0.021,0.724-0.627,1.297-1.352,1.273l-9.682-0.281
			c17.111,8.952,29.541,24.456,34.936,42.413l-3.01-0.819c-5.521-16.901-17.562-31.397-33.953-39.691l5.048,9.447
			c0.343,0.642,0.101,1.438-0.541,1.779c-0.306,0.164-0.649,0.194-0.964,0.109c-0.338-0.092-0.637-0.316-0.813-0.647l-7.186-13.441
			C263.919,42.876,263.936,42.376,264.182,41.977z"/>
	</g>
	<g>
		<path fill="#FFFFFF" d="M362.104-51.704v1.364h2.627v1.556h-2.627v2.597h-1.616v-7.073h4.294v1.556H362.104z"/>
		<path fill="#FFFFFF" d="M369.584-47.299h-2.627l-0.354,1.112h-1.768l2.404-7.073h2.062l2.404,7.073h-1.768L369.584-47.299z
			 M369.099-48.814l-0.829-2.597l-0.828,2.597H369.099z"/>
		<path fill="#FFFFFF" d="M371.76-49.724c0-2.082,1.545-3.678,3.678-3.678c1.282,0,2.414,0.637,3.031,1.637l-1.395,0.809
			c-0.314-0.546-0.919-0.87-1.637-0.87c-1.254,0-2.063,0.839-2.063,2.102s0.809,2.102,2.063,2.102c0.718,0,1.333-0.323,1.637-0.869
			l1.395,0.809c-0.606,1-1.738,1.637-3.031,1.637C373.305-46.046,371.76-47.643,371.76-49.724z"/>
		<path fill="#FFFFFF" d="M383.98-51.704h-1.818v5.517h-1.617v-5.517h-1.818v-1.556h5.254V-51.704z"/>
		<path fill="#FFFFFF" d="M384.134-47.794l1.394-0.808c0.253,0.585,0.688,0.979,1.486,0.979c0.767,0,0.959-0.303,0.959-0.576
			c0-0.434-0.404-0.606-1.464-0.898c-1.053-0.293-2.082-0.798-2.082-2.152c0-1.364,1.151-2.153,2.374-2.153
			c1.162,0,2.072,0.556,2.587,1.597l-1.364,0.798c-0.243-0.505-0.575-0.818-1.223-0.818c-0.505,0-0.759,0.252-0.759,0.536
			c0,0.323,0.173,0.545,1.273,0.879c1.072,0.323,2.274,0.697,2.274,2.192c0,1.364-1.092,2.173-2.628,2.173
			C385.478-46.046,384.528-46.753,384.134-47.794z"/>
	</g>
	<g>
		<path fill="#FFFFFF" d="M443.542-6.11c0-2.082,1.647-3.678,3.678-3.678s3.678,1.597,3.678,3.678c0,2.081-1.647,3.678-3.678,3.678
			S443.542-4.029,443.542-6.11z M449.28-6.11c0-1.263-0.909-2.102-2.061-2.102s-2.062,0.838-2.062,2.102
			c0,1.263,0.91,2.101,2.062,2.101S449.28-4.847,449.28-6.11z"/>
		<path fill="#FFFFFF" d="M453.427-8.09v1.364h2.627v1.556h-2.627v2.597h-1.616v-7.073h4.293v1.556H453.427z"/>
		<path fill="#FFFFFF" d="M458.684-8.09v1.364h2.627v1.556h-2.627v2.597h-1.617v-7.073h4.295v1.556H458.684z"/>
		<path fill="#FFFFFF" d="M463.94-9.646v7.073h-1.616v-7.073H463.94z"/>
		<path fill="#FFFFFF" d="M464.851-6.11c0-2.082,1.546-3.678,3.678-3.678c1.284,0,2.415,0.637,3.03,1.637l-1.394,0.809
			c-0.313-0.546-0.92-0.869-1.637-0.869c-1.252,0-2.061,0.838-2.061,2.102c0,1.263,0.809,2.101,2.061,2.101
			c0.717,0,1.335-0.323,1.637-0.868l1.394,0.808c-0.605,1-1.736,1.637-3.03,1.637C466.397-2.432,464.851-4.029,464.851-6.11z"/>
		<path fill="#FFFFFF" d="M476.768-4.13v1.557h-4.446v-7.073h4.395v1.556h-2.777v1.172h2.525v1.536h-2.525v1.252H476.768z"/>
		<path fill="#FFFFFF" d="M480.065-4.897h-0.769v2.324h-1.615v-7.073h2.828c1.345,0,2.425,1.081,2.425,2.425
			c0,0.869-0.525,1.657-1.303,2.051l1.505,2.597h-1.737L480.065-4.897z M479.296-6.312h1.213c0.444,0,0.808-0.394,0.808-0.909
			s-0.363-0.909-0.808-0.909h-1.213V-6.312z"/>
		<path fill="#FFFFFF" d="M483.442-4.18l1.395-0.809c0.254,0.586,0.688,0.979,1.486,0.979c0.767,0,0.959-0.303,0.959-0.576
			c0-0.434-0.404-0.606-1.464-0.899c-1.053-0.293-2.082-0.798-2.082-2.152c0-1.364,1.152-2.152,2.374-2.152
			c1.162,0,2.071,0.556,2.587,1.597l-1.364,0.798c-0.243-0.505-0.575-0.818-1.223-0.818c-0.505,0-0.758,0.252-0.758,0.536
			c0,0.323,0.172,0.545,1.272,0.879c1.072,0.323,2.274,0.697,2.274,2.192c0,1.364-1.092,2.172-2.627,2.172
			C484.786-2.432,483.835-3.139,483.442-4.18z"/>
	</g>
	<g>
		<path fill="#FFFFFF" d="M443.239,111.257h1.767l1.567,5.203l1.566-5.203h1.767l-2.303,7.072h-2.062L443.239,111.257z"/>
		<path fill="#FFFFFF" d="M454.962,116.774v1.555h-4.446v-7.072h4.396v1.556h-2.778v1.172h2.525v1.535h-2.525v1.254H454.962z"/>
		<path fill="#FFFFFF" d="M458.258,116.007h-0.768v2.322h-1.617v-7.072h2.829c1.344,0,2.425,1.082,2.425,2.425
			c0,0.869-0.524,1.656-1.303,2.051l1.506,2.596h-1.738L458.258,116.007z M457.491,114.591h1.212c0.445,0,0.81-0.393,0.81-0.908
			s-0.364-0.91-0.81-0.91h-1.212V114.591z"/>
		<path fill="#FFFFFF" d="M468.356,114.794c0,2-1.485,3.535-3.436,3.535h-2.829v-7.072h2.829
			C466.871,111.257,468.356,112.794,468.356,114.794z M466.8,114.794c0-1.213-0.769-1.98-1.88-1.98h-1.213v3.961h1.213
			C466.032,116.774,466.8,116.007,466.8,114.794z"/>
		<path fill="#FFFFFF" d="M470.885,111.257v7.072h-1.616v-7.072H470.885z"/>
		<path fill="#FFFFFF" d="M471.796,114.794c0-2.082,1.546-3.677,3.678-3.677c1.284,0,2.415,0.636,3.03,1.636l-1.394,0.809
			c-0.313-0.547-0.92-0.869-1.637-0.869c-1.252,0-2.061,0.838-2.061,2.102c0,1.262,0.809,2.102,2.061,2.102
			c0.717,0,1.335-0.324,1.637-0.869l1.394,0.809c-0.605,1-1.736,1.637-3.03,1.637C473.342,118.472,471.796,116.876,471.796,114.794z
			"/>
		<path fill="#FFFFFF" d="M484.015,112.813h-1.818v5.516h-1.616v-5.516h-1.819v-1.556h5.254V112.813z"/>
	</g>
	<g>
		<path fill="#FFFFFF" d="M260.516-17.621v7.073h-1.617v-7.073H260.516z"/>
		<path fill="#FFFFFF" d="M267.287-17.621v7.073h-1.212l-2.729-3.839v3.839h-1.617v-7.073h1.213l2.729,3.839v-3.839H267.287z"/>
		<path fill="#FFFFFF" d="M273.251-16.065h-1.818v5.517h-1.616v-5.517h-1.818v-1.556h5.253V-16.065z"/>
		<path fill="#FFFFFF" d="M278.408-12.105v1.557h-4.446v-7.073h4.396v1.556h-2.778v1.172h2.525v1.536h-2.525v1.252H278.408z"/>
		<path fill="#FFFFFF" d="M281.705-12.872h-0.769v2.324h-1.615v-7.073h2.828c1.344,0,2.425,1.081,2.425,2.425
			c0,0.869-0.525,1.657-1.304,2.051l1.506,2.597h-1.738L281.705-12.872z M280.936-14.287h1.213c0.445,0,0.809-0.394,0.809-0.909
			s-0.363-0.909-0.809-0.909h-1.213V-14.287z"/>
		<path fill="#FFFFFF" d="M291.094-17.621v7.073h-1.213l-2.728-3.839v3.839h-1.616v-7.073h1.212l2.728,3.839v-3.839H291.094z"/>
		<path fill="#FFFFFF" d="M296.756-12.105v1.557h-4.445v-7.073h4.395v1.556h-2.778v1.172h2.526v1.536h-2.526v1.252H296.756z"/>
		<path fill="#FFFFFF" d="M302.417-16.065h-1.818v5.517h-1.617v-5.517h-1.818v-1.556h5.254V-16.065z"/>
		<path fill="#FFFFFF" d="M273.254-4.795v-4.79h1.616v4.647c0,0.536,0.253,0.99,1.112,0.99c0.857,0,1.111-0.454,1.111-0.99v-4.647
			h1.615v4.79c0,1.515-1.172,2.424-2.727,2.424C274.426-2.371,273.254-3.28,273.254-4.795z"/>
		<path fill="#FFFFFF" d="M279.522-4.119l1.395-0.809c0.252,0.586,0.687,0.98,1.484,0.98c0.769,0,0.961-0.303,0.961-0.576
			c0-0.435-0.404-0.606-1.465-0.899c-1.051-0.292-2.082-0.798-2.082-2.152c0-1.364,1.152-2.152,2.375-2.152
			c1.161,0,2.07,0.556,2.586,1.597l-1.363,0.798c-0.243-0.505-0.576-0.818-1.223-0.818c-0.506,0-0.758,0.252-0.758,0.535
			c0,0.323,0.171,0.545,1.272,0.879c1.071,0.323,2.273,0.697,2.273,2.192c0,1.364-1.091,2.172-2.627,2.172
			C280.866-2.371,279.917-3.078,279.522-4.119z"/>
		<path fill="#FFFFFF" d="M290.184-4.068v1.556h-4.445v-7.072h4.395v1.556h-2.777v1.172h2.525v1.536h-2.525v1.252H290.184z"/>
		<path fill="#FFFFFF" d="M293.481-4.836h-0.768v2.323h-1.616v-7.072h2.829c1.344,0,2.425,1.081,2.425,2.425
			c0,0.869-0.525,1.657-1.304,2.051l1.506,2.596h-1.738L293.481-4.836z M292.713-6.25h1.213c0.445,0,0.809-0.394,0.809-0.91
			c0-0.515-0.363-0.909-0.809-0.909h-1.213V-6.25z"/>
		<path fill="#FFFFFF" d="M296.86-4.119l1.395-0.809c0.252,0.586,0.687,0.98,1.484,0.98c0.769,0,0.961-0.303,0.961-0.576
			c0-0.435-0.404-0.606-1.466-0.899c-1.05-0.292-2.081-0.798-2.081-2.152c0-1.364,1.151-2.152,2.375-2.152
			c1.161,0,2.07,0.556,2.586,1.597l-1.363,0.798c-0.243-0.505-0.576-0.818-1.223-0.818c-0.506,0-0.759,0.252-0.759,0.535
			c0,0.323,0.172,0.545,1.273,0.879c1.071,0.323,2.272,0.697,2.272,2.192c0,1.364-1.09,2.172-2.626,2.172
			C298.204-2.371,297.254-3.078,296.86-4.119z"/>
	</g>
	<g>
		<path fill="#FFFFFF" d="M265.579,117.22h-2.627l-0.354,1.109h-1.769l2.405-7.072h2.061l2.404,7.072h-1.768L265.579,117.22z
			 M265.094,115.704l-0.83-2.598l-0.828,2.598H265.094z"/>
		<path fill="#FFFFFF" d="M270.695,116.007h-0.769v2.322h-1.615v-7.072h2.828c1.344,0,2.426,1.082,2.426,2.425
			c0,0.869-0.525,1.656-1.305,2.051l1.507,2.596h-1.739L270.695,116.007z M269.926,114.591h1.213c0.445,0,0.809-0.393,0.809-0.908
			s-0.363-0.91-0.809-0.91h-1.213V114.591z"/>
		<path fill="#FFFFFF" d="M274.124,114.794c0-2.082,1.545-3.677,3.678-3.677c1.283,0,2.414,0.636,3.031,1.636l-1.395,0.809
			c-0.313-0.547-0.919-0.869-1.637-0.869c-1.253,0-2.061,0.838-2.061,2.102c0,1.262,0.808,2.102,2.061,2.102
			c0.718,0,1.334-0.324,1.637-0.869l1.395,0.809c-0.606,1-1.738,1.637-3.031,1.637C275.668,118.472,274.124,116.876,274.124,114.794
			z"/>
		<path fill="#FFFFFF" d="M287.049,111.257v7.072h-1.616v-2.809h-2.223v2.809h-1.616v-7.072h1.616v2.708h2.223v-2.708H287.049z"/>
		<path fill="#FFFFFF" d="M289.883,111.257v7.072h-1.617v-7.072H289.883z"/>
		<path fill="#FFFFFF" d="M290.491,111.257h1.768l1.566,5.203l1.566-5.203h1.768l-2.304,7.072h-2.062L290.491,111.257z"/>
		<path fill="#FFFFFF" d="M302.213,116.774v1.555h-4.445v-7.072h4.396v1.556h-2.778v1.172h2.525v1.535h-2.525v1.254H302.213z"/>
	</g>
	<g>
		<g>
			<path fill="#FFFFFF" d="M340.489,160.505h-2.627l-0.354,1.113h-1.768l2.405-7.074h2.061l2.404,7.074h-1.768L340.489,160.505z
				 M340.003,158.989l-0.829-2.596l-0.828,2.596H340.003z"/>
			<path fill="#FFFFFF" d="M347.364,160.06v1.559h-4.143v-7.074h1.616v5.516H347.364z"/>
			<path fill="#FFFFFF" d="M354.67,158.282c0,2.162-1.506,3.477-3.486,3.477c-2.223,0-3.818-1.639-3.818-3.668
				c0-2.051,1.627-3.689,3.707-3.689c1.354,0,2.496,0.67,3.092,1.619l-1.373,0.787c-0.293-0.465-0.93-0.828-1.729-0.828
				c-1.192,0-2.08,0.879-2.08,2.121c0,1.203,0.848,2.082,2.223,2.082c0.939,0,1.555-0.414,1.808-1.092h-1.89v-1.414h3.547V158.282z"
				/>
			<path fill="#FFFFFF" d="M355.282,158.081c0-2.082,1.646-3.68,3.678-3.68c2.03,0,3.678,1.598,3.678,3.68s-1.647,3.678-3.678,3.678
				C356.928,161.759,355.282,160.163,355.282,158.081z M361.02,158.081c0-1.264-0.909-2.102-2.061-2.102
				c-1.152,0-2.063,0.838-2.063,2.102c0,1.262,0.91,2.102,2.063,2.102C360.111,160.183,361.02,159.343,361.02,158.081z"/>
			<path fill="#FFFFFF" d="M365.934,159.294h-0.767v2.324h-1.616v-7.074h2.828c1.344,0,2.425,1.08,2.425,2.426
				c0,0.869-0.525,1.656-1.304,2.051l1.506,2.598h-1.738L365.934,159.294z M365.167,157.88h1.212c0.445,0,0.809-0.396,0.809-0.91
				c0-0.516-0.363-0.91-0.809-0.91h-1.212V157.88z"/>
			<path fill="#FFFFFF" d="M372.95,158.899v2.719h-1.616v-2.719l-2.374-4.355h1.838l1.344,2.729l1.344-2.729h1.839L372.95,158.899z"
				/>
			<path fill="#FFFFFF" d="M380.682,156.101h-1.818v5.518h-1.616v-5.518h-1.818v-1.557h5.253V156.101z"/>
			<path fill="#FFFFFF" d="M386.849,154.544v7.074h-1.616v-2.809h-2.223v2.809h-1.617v-7.074h1.617v2.707h2.223v-2.707H386.849z"/>
			<path fill="#FFFFFF" d="M395.139,161.618h-1.618v-4.113l-1.828,3h-0.183l-1.828-3v4.113h-1.617v-7.074h1.617l1.919,3.143
				l1.92-3.143h1.618V161.618z"/>
			<path fill="#FFFFFF" d="M398.58,158.081c0-2.082,1.646-3.68,3.678-3.68c2.03,0,3.677,1.598,3.677,3.68s-1.646,3.678-3.677,3.678
				C400.226,161.759,398.58,160.163,398.58,158.081z M404.318,158.081c0-1.264-0.909-2.102-2.061-2.102
				c-1.152,0-2.062,0.838-2.062,2.102c0,1.262,0.909,2.102,2.062,2.102C403.409,160.183,404.318,159.343,404.318,158.081z"/>
			<path fill="#FFFFFF" d="M408.464,156.101v1.363h2.628v1.557h-2.628v2.598h-1.616v-7.074h4.295v1.557H408.464z"/>
			<path fill="#FFFFFF" d="M318.711,169.653h-1.617v-4.113l-1.828,3.002h-0.182l-1.829-3.002v4.113h-1.616v-7.074h1.616l1.919,3.145
				l1.92-3.145h1.617V169.653z"/>
			<path fill="#FFFFFF" d="M319.877,167.37v-4.791h1.617v4.648c0,0.537,0.252,0.99,1.111,0.99c0.858,0,1.111-0.453,1.111-0.99
				v-4.648h1.616v4.791c0,1.514-1.173,2.424-2.728,2.424C321.049,169.794,319.877,168.884,319.877,167.37z"/>
			<path fill="#FFFFFF" d="M330.641,168.097v1.557h-4.143v-7.074h1.617v5.518H330.641z"/>
			<path fill="#FFFFFF" d="M335.393,164.136h-1.818v5.518h-1.617v-5.518h-1.818v-1.557h5.254V164.136z"/>
			<path fill="#FFFFFF" d="M337.719,162.579v7.074h-1.616v-7.074H337.719z"/>
			<path fill="#FFFFFF" d="M338.934,165.903h3.839v1.457h-3.839V165.903z"/>
			<path fill="#FFFFFF" d="M348.131,168.097v1.557h-4.143v-7.074h1.616v5.518H348.131z"/>
			<path fill="#FFFFFF" d="M353.287,168.097v1.557h-4.446v-7.074h4.395v1.557h-2.777v1.172h2.525v1.537h-2.525v1.252H353.287z"/>
			<path fill="#FFFFFF" d="M353.592,162.579h1.768l1.566,5.205l1.566-5.205h1.768l-2.303,7.074h-2.062L353.592,162.579z"/>
			<path fill="#FFFFFF" d="M365.317,168.097v1.557h-4.446v-7.074h4.396v1.557h-2.779v1.172h2.526v1.537h-2.526v1.252H365.317z"/>
			<path fill="#FFFFFF" d="M370.372,168.097v1.557h-4.143v-7.074h1.617v5.518H370.372z"/>
			<path fill="#FFFFFF" d="M373.002,162.579h1.769l1.566,5.205l1.565-5.205h1.769l-2.304,7.074h-2.062L373.002,162.579z"/>
			<path fill="#FFFFFF" d="M384.727,168.097v1.557h-4.445v-7.074h4.395v1.557h-2.778v1.172h2.525v1.537h-2.525v1.252H384.727z"/>
			<path fill="#FFFFFF" d="M388.024,167.329h-0.769v2.324h-1.616v-7.074h2.829c1.344,0,2.424,1.082,2.424,2.426
				c0,0.869-0.525,1.658-1.303,2.051l1.505,2.598h-1.737L388.024,167.329z M387.255,165.915h1.213c0.444,0,0.808-0.395,0.808-0.91
				s-0.363-0.908-0.808-0.908h-1.213V165.915z"/>
			<path fill="#FFFFFF" d="M393.473,162.579v7.074h-1.617v-7.074H393.473z"/>
			<path fill="#FFFFFF" d="M396.303,164.136v1.365h2.626v1.555h-2.626v2.598h-1.617v-7.074h4.294v1.557H396.303z"/>
			<path fill="#FFFFFF" d="M401.561,162.579v7.074h-1.617v-7.074H401.561z"/>
			<path fill="#FFFFFF" d="M402.47,166.116c0-2.082,1.547-3.678,3.679-3.678c1.282,0,2.415,0.637,3.03,1.637l-1.395,0.809
				c-0.313-0.545-0.919-0.869-1.636-0.869c-1.253,0-2.062,0.84-2.062,2.102c0,1.264,0.809,2.102,2.062,2.102
				c0.717,0,1.333-0.324,1.636-0.867l1.395,0.807c-0.605,1.002-1.737,1.637-3.03,1.637
				C404.017,169.794,402.47,168.198,402.47,166.116z"/>
			<path fill="#FFFFFF" d="M414.084,168.542h-2.628l-0.354,1.111h-1.768l2.405-7.074h2.06l2.406,7.074h-1.77L414.084,168.542z
				 M413.599,167.024l-0.828-2.596l-0.83,2.596H413.599z"/>
			<path fill="#FFFFFF" d="M421.059,164.136h-1.818v5.518h-1.617v-5.518h-1.818v-1.557h5.254V164.136z"/>
			<path fill="#FFFFFF" d="M423.386,162.579v7.074h-1.616v-7.074H423.386z"/>
			<path fill="#FFFFFF" d="M424.297,166.116c0-2.082,1.646-3.678,3.678-3.678c2.03,0,3.677,1.596,3.677,3.678
				s-1.646,3.678-3.677,3.678C425.944,169.794,424.297,168.198,424.297,166.116z M430.037,166.116c0-1.262-0.91-2.102-2.062-2.102
				c-1.152,0-2.062,0.84-2.062,2.102c0,1.264,0.909,2.102,2.062,2.102C429.126,168.218,430.037,167.38,430.037,166.116z"/>
			<path fill="#FFFFFF" d="M438.124,162.579v7.074h-1.213l-2.728-3.84v3.84h-1.616v-7.074h1.212l2.729,3.842v-3.842H438.124z"/>
		</g>
	</g>
</g>
</svg>
