<?xml version="1.0" encoding="utf-8"?>
<!-- Generator: Adobe Illustrator 16.0.0, SVG Export Plug-In . SVG Version: 6.00 Build 0)  -->
<!DOCTYPE svg PUBLIC "-//W3C//DTD SVG 1.1//EN" "http://www.w3.org/Graphics/SVG/1.1/DTD/svg11.dtd">
<svg version="1.1" id="Layer_1" xmlns="http://www.w3.org/2000/svg" xmlns:xlink="http://www.w3.org/1999/xlink" x="0px" y="0px"
	 width="229.702px" height="194.793px" viewBox="65.308 294.159 229.702 194.793"
	 enable-background="new 65.308 294.159 229.702 194.793" xml:space="preserve">
<g>
	
		<linearGradient id="SVGID_1_" gradientUnits="userSpaceOnUse" x1="-3368.0005" y1="1223.6938" x2="-3233.5405" y2="1223.6938" gradientTransform="matrix(-4.371139e-008 -1 1 -4.371139e-008 -1026.6494 -2909.5356)">
		<stop  offset="0" style="stop-color:#706DCB;stop-opacity:0"/>
		<stop  offset="1" style="stop-color:#706DCB;stop-opacity:0.7"/>
	</linearGradient>
	<circle fill="url(#SVGID_1_)" cx="197.044" cy="391.235" r="67.23"/>
	<g>
		<g>
			<path fill="#FFFFFF" d="M262.735,420.543c-1.481,0-2.876,0.41-4.071,1.104l-17.891-30.602l17.82-31.02
				c1.214,0.727,2.63,1.148,4.142,1.152c4.496-0.004,8.134-3.646,8.134-8.139c0-4.493-3.638-8.13-8.134-8.13
				c-4.425,0-8.019,3.536-8.12,7.94h-35.673l-10.948-18.963l-6.884-11.927c2.431-1.403,4.073-4.026,4.073-7.038
				c0-4.492-3.646-8.131-8.139-8.131s-8.133,3.639-8.133,8.131c0,3.01,1.643,5.633,4.071,7.038l-6.886,11.927l-10.951,18.963
				h-35.658c-0.019-4.478-3.653-8.104-8.134-8.104c-4.493,0-8.131,3.642-8.134,8.134c0,4.493,3.641,8.128,8.134,8.128
				c1.482,0,2.876-0.401,4.077-1.097l17.888,31.134L135.5,421.532c-1.22-0.727-2.63-1.146-4.147-1.146
				c-4.493,0-8.134,3.637-8.134,8.131c0,4.496,3.641,8.135,8.134,8.135c4.429,0,8.026-3.539,8.124-7.946h13.771l21.898,0.003
				l10.951,18.965l6.886,11.924c-2.429,1.407-4.071,4.029-4.071,7.036c0,4.494,3.641,8.136,8.133,8.136s8.139-3.643,8.139-8.136
				c0-3.007-1.645-5.629-4.073-7.036l6.882-11.924l10.951-18.968l21.896,0.003l13.766-0.003c0.014,4.478,3.648,8.108,8.13,8.108
				c4.496,0,8.134-3.642,8.134-8.135C270.869,424.186,267.231,420.543,262.735,420.543z M216.522,424.51l-1.208,2.098
				l-10.951,18.968l-6.89,11.921l-0.431,0.751l-0.431-0.751l-6.891-11.921l-10.947-18.968l-1.208-2.098h-38.945l0.508-0.887
				l6.448-11.171l13.176-21.407l-13.176-21.941l-6.515-11.287l-0.446-0.771h38.95l1.208-2.098l10.947-18.963l6.891-11.926
				l0.435-0.748l0.428,0.748l6.89,11.926l10.951,18.963l1.208,2.098h38.952l-0.519,0.891l-6.445,11.168l-12.631,21.941
				l12.631,21.407l6.52,11.29l0.443,0.768H216.522z"/>
			<path fill="#FFFFFF" d="M183.351,419.162l2.092,3.625l10.951,18.964l0.688,1.193l0.688-1.193l10.955-18.964l2.091-3.625
				c-4.144,2.043-8.803,3.194-13.733,3.194C192.154,422.356,187.494,421.205,183.351,419.162z"/>
			<path fill="#FFFFFF" d="M166.015,392.436l-2.471,4.271L152.6,415.67l-0.69,1.195h1.377h21.899h4.255
				C171.611,411.462,166.391,402.571,166.015,392.436z"/>
			<path fill="#FFFFFF" d="M153.289,364.705h-1.379l0.691,1.19l10.945,18.965l2.515,4.351c0.672-10.388,6.438-19.381,14.834-24.507
				h-5.708L153.289,364.705L153.289,364.705z"/>
			<path fill="#FFFFFF" d="M230.621,396.708l-2.471-4.275c-0.375,10.137-5.604,19.03-13.425,24.434h4.255h21.898h1.379l-0.692-1.195
				L230.621,396.708z"/>
			<path fill="#FFFFFF" d="M197.769,339.817l-0.688-1.192l-0.688,1.192l-10.951,18.965l-2.869,4.971
				c4.329-2.29,9.268-3.591,14.508-3.591c5.244,0,10.178,1.302,14.51,3.591l-2.868-4.971L197.769,339.817z"/>
			<path fill="#FFFFFF" d="M228.106,389.215l2.515-4.355l10.943-18.963l0.691-1.191h-1.377h-21.899h-5.707
				C221.662,369.831,227.434,378.829,228.106,389.215z"/>
		</g>
		<g>
			<g>
				<path fill="#FFFFFF" d="M204.946,385.241c0-1.354-0.901-2.332-2.297-2.332h-11.321v4.669h11.321
					C204.005,387.579,204.946,386.6,204.946,385.241z"/>
				<path fill="#FFFFFF" d="M203.403,392.924h-12.075v5.051h12.075c1.505,0,2.486-1.058,2.486-2.525
					C205.89,393.979,204.91,392.924,203.403,392.924z"/>
				<path fill="#FFFFFF" d="M197.046,365.335c-14.032,0-25.444,11.416-25.444,25.442c0,14.031,11.413,25.445,25.444,25.445
					c14.027,0,25.439-11.414,25.439-25.445C222.486,376.751,211.074,365.335,197.046,365.335z M203.403,403.62h-0.909v4.895h-4.449
					v-4.895h-2.248v4.895h-4.445v-4.891h-8.872V398h2.821v-15.105h-2.821v-5.621v-0.016h8.872v-4.891h4.445v4.891h2.248v-4.891
					h4.449v4.891h0.154c4.596,0,8.325,2.975,8.325,7.535c0,2.182-0.866,3.915-2.298,5.159c1.959,1.241,3.24,3.274,3.24,5.948
					C211.916,400.575,208.112,403.62,203.403,403.62z"/>
			</g>
		</g>
	</g>
	
		<linearGradient id="SVGID_2_" gradientUnits="userSpaceOnUse" x1="117.6738" y1="734.2065" x2="185.0786" y2="734.2065" gradientTransform="matrix(1 0 0 1 0 -416.1816)">
		<stop  offset="0" style="stop-color:#FFFFFF;stop-opacity:0"/>
		<stop  offset="1" style="stop-color:#FFFFFF"/>
	</linearGradient>
	<path fill="url(#SVGID_2_)" d="M185.007,299.987c-0.174-0.586-0.646-1.033-1.24-1.178l-19.077-4.603
		c-0.92-0.222-1.846,0.344-2.067,1.265c-0.223,0.92,0.344,1.846,1.264,2.067l12.279,2.963c-24.601,5.397-45.554,20.644-58.492,41.39
		h4.069c12.742-19.373,32.857-33.482,56.323-38.3l-9.592,10.156c-0.648,0.688-0.618,1.772,0.07,2.422
		c0.332,0.313,0.754,0.468,1.176,0.468c0.455,0,0.91-0.18,1.246-0.537l13.644-14.449
		C185.031,301.207,185.182,300.573,185.007,299.987z"/>
	
		<linearGradient id="SVGID_3_" gradientUnits="userSpaceOnUse" x1="531.4331" y1="-1813.6206" x2="598.8374" y2="-1813.6206" gradientTransform="matrix(0.4755 0.8797 -0.8797 0.4755 -1625.6599 682.2)">
		<stop  offset="0" style="stop-color:#FFFFFF;stop-opacity:0"/>
		<stop  offset="1" style="stop-color:#FFFFFF"/>
	</linearGradient>
	<path fill="url(#SVGID_3_)" d="M270.367,337.979c0.432-0.432,0.602-1.062,0.445-1.651l-5.023-18.97
		c-0.242-0.916-1.18-1.461-2.095-1.219s-1.46,1.182-1.218,2.096l3.232,12.211c-16.447-19.073-39.824-30.256-64.227-31.771
		l1.934,3.58c23.103,1.996,45.08,12.98,60.478,31.333l-13.496-3.608c-0.914-0.244-1.854,0.299-2.097,1.213
		c-0.119,0.44-0.055,0.886,0.146,1.256c0.218,0.4,0.593,0.715,1.066,0.843l19.198,5.132
		C269.303,338.579,269.933,338.411,270.367,337.979z"/>
	
		<linearGradient id="SVGID_4_" gradientUnits="userSpaceOnUse" x1="-1423.2173" y1="-3273.8823" x2="-1355.8174" y2="-3273.8823" gradientTransform="matrix(-0.5296 0.8483 -0.8483 -0.5296 -3231.7798 -163.481)">
		<stop  offset="0" style="stop-color:#FFFFFF;stop-opacity:0"/>
		<stop  offset="1" style="stop-color:#FFFFFF"/>
	</linearGradient>
	<path fill="url(#SVGID_4_)" d="M278.833,429.719c0.59,0.162,1.221,0,1.656-0.429l14.008-13.743
		c0.674-0.664,0.686-1.748,0.021-2.425c-0.663-0.675-1.748-0.685-2.423-0.022l-9.017,8.848c8.448-23.727,6.613-49.574-4.134-71.535
		l-2.155,3.451c9.687,21.066,11.002,45.603,2.662,68.06l-3.535-13.515c-0.24-0.915-1.176-1.465-2.092-1.225
		c-0.441,0.115-0.796,0.393-1.02,0.75c-0.241,0.387-0.329,0.865-0.205,1.342l5.029,19.227
		C277.787,429.092,278.246,429.557,278.833,429.719z"/>
	
		<linearGradient id="SVGID_5_" gradientUnits="userSpaceOnUse" x1="-3797.4937" y1="-2091.4849" x2="-3730.0913" y2="-2091.4849" gradientTransform="matrix(-0.999 -0.0456 0.0456 -0.999 -3427.5107 -1795.3215)">
		<stop  offset="0" style="stop-color:#FFFFFF;stop-opacity:0"/>
		<stop  offset="1" style="stop-color:#FFFFFF"/>
	</linearGradient>
	<path fill="url(#SVGID_5_)" d="M202.634,482.182c0.148,0.594,0.599,1.063,1.187,1.233l18.847,5.468
		c0.908,0.264,1.859-0.259,2.123-1.168c0.264-0.908-0.26-1.859-1.168-2.123l-12.131-3.521c24.821-4.27,46.448-18.543,60.318-38.678
		l-4.064-0.186c-13.611,18.771-34.351,31.949-58.011,35.689l10.044-9.709c0.682-0.656,0.699-1.742,0.041-2.422
		c-0.314-0.328-0.73-0.502-1.152-0.521c-0.455-0.021-0.918,0.139-1.27,0.479l-14.29,13.812
		C202.667,480.962,202.488,481.589,202.634,482.182z"/>
	
		<linearGradient id="SVGID_6_" gradientUnits="userSpaceOnUse" x1="-4008.6987" y1="291.7388" x2="-3941.2979" y2="291.7388" gradientTransform="matrix(-0.4681 -0.8837 0.8837 -0.4681 -1966.0369 -2912.2358)">
		<stop  offset="0" style="stop-color:#FFFFFF;stop-opacity:0"/>
		<stop  offset="1" style="stop-color:#FFFFFF"/>
	</linearGradient>
	<path fill="url(#SVGID_6_)" d="M120.786,442.632c-0.437,0.429-0.612,1.058-0.46,1.647l4.862,19.012
		c0.235,0.918,1.168,1.471,2.086,1.236c0.916-0.234,1.47-1.168,1.235-2.086l-3.131-12.237c16.289,19.212,39.568,30.59,63.958,32.312
		l-1.904-3.596c-23.083-2.189-44.968-13.359-60.211-31.841l13.466,3.72c0.911,0.254,1.855-0.281,2.107-1.193
		c0.122-0.438,0.061-0.887-0.136-1.258c-0.214-0.402-0.585-0.721-1.059-0.853l-19.154-5.293
		C121.853,442.042,121.222,442.205,120.786,442.632z"/>
	
		<linearGradient id="SVGID_7_" gradientUnits="userSpaceOnUse" x1="-4145.4736" y1="243.1685" x2="-4078.0657" y2="243.1685" gradientTransform="matrix(-0.9648 -0.2628 -0.2628 0.9648 -3809.9482 -912.9717)">
		<stop  offset="0" style="stop-color:#FFFFFF;stop-opacity:0"/>
		<stop  offset="1" style="stop-color:#FFFFFF"/>
	</linearGradient>
	<path fill="url(#SVGID_7_)" d="M65.565,375.991c0.321-0.518,0.896-0.826,1.506-0.809l19.616,0.572
		c0.945,0.029,1.69,0.816,1.663,1.764c-0.028,0.945-0.817,1.689-1.763,1.662l-12.626-0.367
		c22.317,11.674,38.527,31.891,45.558,55.308l-3.926-1.069c-7.202-22.039-22.901-40.941-44.277-51.757l6.584,12.319
		c0.446,0.836,0.131,1.875-0.704,2.32c-0.401,0.213-0.85,0.252-1.258,0.141c-0.438-0.118-0.83-0.412-1.061-0.844l-9.368-17.528
		C65.222,377.164,65.244,376.512,65.565,375.991z"/>
</g>
</svg>
