<?xml version="1.0" encoding="utf-8"?>
<!-- Generator: Adobe Illustrator 16.0.0, SVG Export Plug-In . SVG Version: 6.00 Build 0)  -->
<!DOCTYPE svg PUBLIC "-//W3C//DTD SVG 1.1//EN" "http://www.w3.org/Graphics/SVG/1.1/DTD/svg11.dtd">
<svg version="1.1" id="Layer_1" xmlns="http://www.w3.org/2000/svg" xmlns:xlink="http://www.w3.org/1999/xlink" x="0px" y="0px"
	 width="898.446px" height="508.512px" viewBox="20.483 -566.95 898.446 508.512"
	 enable-background="new 20.483 -566.95 898.446 508.512" xml:space="preserve">
<g>
	<g>
		<g>
			<g>
				<g>
					<g>
						<g>
							
								<linearGradient id="SVGID_1_" gradientUnits="userSpaceOnUse" x1="2992.7227" y1="-3617.2192" x2="3140.8711" y2="-3617.2192" gradientTransform="matrix(0 1 1 0 3884.5645 -3208.9316)">
								<stop  offset="0" style="stop-color:#706DCB;stop-opacity:0"/>
								<stop  offset="1" style="stop-color:#706DCB;stop-opacity:0.7"/>
							</linearGradient>
							<path fill="url(#SVGID_1_)" d="M202.77-68.062h-0.025c-8.211,0-15.841-1.804-22.679-5.369
								c-9.313-4.865-16.414-12.072-21.104-21.438c-2.865-5.73-4.523-11.858-4.912-18.204l-0.121-1.244l0.029-4.498
								c0.23-2.723,0.631-6.297,1.629-9.91c1.942-7.023,5.379-13.357,10.208-18.838c4.147-4.708,9.167-8.564,14.923-11.441
								c0.384-0.188,0.756-0.365,1.124-0.53c0.919-5.285,2.974-10.21,6.102-14.677c4.971-7.079,11.64-11.868,19.859-14.231
								c5.154-1.485,10.358-1.796,15.412-0.948c2.849,0.489,5.639,1.358,8.454,2.631c7.393-11.623,17.471-20.027,30.042-25.061
								c12.688-5.083,26.162-5.755,39.598-1.988c14.117,3.945,25.635,12.019,34.251,23.996
								c7.354,10.227,11.298,21.613,11.773,33.929c8.315,2.174,15.517,6.444,21.451,12.728c7.054,7.466,11.043,16.424,11.836,26.616
								c0.627,7.979-0.821,15.674-4.289,22.869c-3.508,7.294-8.69,13.306-15.411,17.871c-5.798,3.939-12.143,6.377-18.907,7.26
								c-2.272,0.3-4.674,0.449-7.122,0.449c-27.527,0.022-55.046,0.026-82.579,0.026L202.77-68.062z"/>
						</g>
					</g>
				</g>
				<g>
					<g>
						<g>
							<g>
								<path fill="#FFFFFF" d="M202.562-58.438L202.562-58.438h-0.017c-8.558,0-16.523-1.89-23.672-5.617
									c-9.723-5.078-17.135-12.607-22.031-22.376c-2.996-5.989-4.72-12.395-5.125-19.029l-0.122-1.154
									c-0.008-0.081-0.013-0.157-0.011-0.238l0.033-4.498c0.219-2.709,0.624-6.55,1.701-10.465
									c2.03-7.327,5.619-13.946,10.665-19.679c4.345-4.928,9.585-8.947,15.576-11.944c0.062-0.026,0.122-0.058,0.183-0.087
									c1.06-5.178,3.161-10.031,6.252-14.438c5.255-7.483,12.322-12.55,21.01-15.059c5.431-1.559,11.003-1.897,16.358-0.999
									c2.466,0.424,4.867,1.104,7.296,2.074c7.529-11.209,17.63-19.404,30.05-24.378c13.072-5.235,27.143-5.942,40.971-2.067
									c14.591,4.084,26.504,12.43,35.412,24.812c7.271,10.112,11.339,21.386,12.098,33.529
									c8.063,2.387,15.104,6.724,20.945,12.905c7.401,7.823,11.579,17.218,12.417,27.912c0.652,8.374-0.861,16.439-4.5,23.973
									c-3.674,7.636-9.104,13.932-16.135,18.709c-6.074,4.127-12.746,6.688-19.823,7.612c-2.35,0.312-4.843,0.467-7.407,0.467
									c-27.518,0.023-55.042,0.027-82.579,0.027L202.562-58.438z M155.859-106.942l0.116,1.127
									c0.378,6.15,1.954,11.998,4.69,17.471c4.484,8.945,11.276,15.845,20.186,20.497c6.531,3.405,13.831,5.134,21.693,5.134
									l0.017,2.138v-2.138l49.542-0.011c27.535,0,55.059-0.004,82.577-0.026c2.381,0,4.685-0.146,6.852-0.431
									c6.413-0.84,12.46-3.163,17.978-6.91c6.4-4.351,11.342-10.076,14.685-17.028c3.307-6.846,4.682-14.175,4.089-21.782
									c-0.759-9.695-4.548-18.21-11.262-25.307c-5.647-5.979-12.522-10.06-20.436-12.13c-0.91-0.237-1.559-1.044-1.595-1.984
									c-0.464-11.888-4.292-22.91-11.377-32.764c-8.323-11.571-19.458-19.373-33.092-23.188
									c-12.926-3.621-26.023-2.964-38.227,1.919c-12.125,4.855-21.89,13.006-29.024,24.223c-0.572,0.896-1.712,1.238-2.683,0.803
									c-2.679-1.207-5.278-2.016-7.944-2.473c-4.708-0.795-9.645-0.49-14.46,0.891c-7.722,2.23-14.012,6.74-18.691,13.405
									c-2.946,4.199-4.88,8.851-5.75,13.818c-0.121,0.695-0.577,1.286-1.22,1.578c-0.356,0.163-0.709,0.332-1.078,0.511
									c-5.472,2.738-10.275,6.42-14.254,10.934c-4.615,5.242-7.896,11.295-9.751,17.99c-0.982,3.566-1.357,7.142-1.554,9.519
									L155.859-106.942z"/>
							</g>
						</g>
					</g>
				</g>
				<g>
					<g>
						<path fill="#FFFFFF" d="M220.86-126.419v16.467h-3.763v-16.467H220.86z"/>
						<path fill="#FFFFFF" d="M236.623-126.419v16.467h-2.824l-6.352-8.938v8.938h-3.763v-16.467h2.823l6.353,8.938v-8.938H236.623z
							"/>
						<path fill="#FFFFFF" d="M250.501-122.796h-4.234v12.844h-3.766v-12.844h-4.233v-3.623h12.233V-122.796z"/>
						<path fill="#FFFFFF" d="M262.497-113.574v3.621h-10.352v-16.467h10.233v3.623h-6.471v2.729h5.883v3.574h-5.883v2.919
							L262.497-113.574L262.497-113.574z"/>
						<path fill="#FFFFFF" d="M270.165-115.362h-1.79v5.409h-3.763v-16.467h6.587c3.129,0,5.646,2.516,5.646,5.646
							c0,2.023-1.223,3.856-3.034,4.775l3.504,6.045h-4.044L270.165-115.362z M268.375-118.655h2.824
							c1.035,0,1.883-0.919,1.883-2.118c0-1.201-0.848-2.118-1.883-2.118h-2.824V-118.655z"/>
						<path fill="#FFFFFF" d="M292.017-126.419v16.467h-2.823l-6.353-8.938v8.938h-3.763v-16.467h2.823l6.353,8.938v-8.938H292.017z
							"/>
						<path fill="#FFFFFF" d="M305.189-113.574v3.621h-10.352v-16.467h10.232v3.623h-6.469v2.729h5.883v3.574h-5.883v2.919
							L305.189-113.574L305.189-113.574z"/>
						<path fill="#FFFFFF" d="M318.361-122.796h-4.235v12.844h-3.765v-12.844h-4.233v-3.623h12.233V-122.796z"/>
					</g>
				</g>
			</g>
			<g>
				<g>
					<g>
						<g>
							<path fill="#FFFFFF" d="M599.702-60.584c0-0.275,0-0.493,0-0.705c0-5.748-0.024-11.489,0.005-17.236
								c0.021-5.233,3.289-9.264,8.334-10.344c4.277-0.908,8.964,1.317,11.02,5.205c0.864,1.634,1.226,3.366,1.211,5.213
								c-0.028,5.688-0.012,11.376-0.005,17.064c0,0.251,0,0.497,0,0.803C613.409-60.584,606.613-60.584,599.702-60.584z"/>
							<path fill="#FFFFFF" d="M616.55-97.326c-0.021,3.584-3.004,6.507-6.612,6.479c-3.604-0.026-6.486-2.969-6.46-6.602
								c0.032-3.632,2.99-6.583,6.545-6.534C613.68-103.934,616.563-100.989,616.55-97.326z"/>
						</g>
					</g>
				</g>
				<g>
					<g>
						<g>
							<path fill="#FFFFFF" d="M628.416-60.584c0-0.275,0-0.493,0-0.705c0-5.748-0.018-11.489,0.009-17.236
								c0.021-5.233,3.291-9.264,8.336-10.344c4.276-0.908,8.964,1.317,11.019,5.205c0.864,1.634,1.219,3.366,1.206,5.213
								c-0.025,5.688-0.004,11.376,0,17.064c0,0.251,0,0.497,0,0.803C642.128-60.584,635.337-60.584,628.416-60.584z"/>
							<path fill="#FFFFFF" d="M645.264-97.326c-0.017,3.584-2.999,6.507-6.607,6.479c-3.608-0.026-6.485-2.969-6.465-6.602
								c0.033-3.632,2.994-6.583,6.553-6.534C642.398-103.934,645.28-100.989,645.264-97.326z"/>
						</g>
					</g>
				</g>
				<g>
					<g>
						<g>
							<path fill="#FFFFFF" d="M570.983-60.584c0-0.275,0-0.493,0-0.705c0-5.748-0.021-11.489,0.005-17.236
								c0.021-5.233,3.295-9.264,8.336-10.344c4.281-0.908,8.967,1.317,11.021,5.205c0.86,1.634,1.221,3.366,1.211,5.213
								c-0.033,5.688-0.013,11.376-0.008,17.064c0,0.251,0,0.497,0,0.803C584.69-60.584,577.899-60.584,570.983-60.584z"/>
							<path fill="#FFFFFF" d="M587.831-97.326c-0.021,3.584-3.003,6.507-6.605,6.479c-3.608-0.026-6.49-2.969-6.466-6.602
								c0.033-3.632,2.99-6.583,6.55-6.534C584.967-103.934,587.845-100.989,587.831-97.326z"/>
						</g>
					</g>
				</g>
				<g>
					<g>
						<g>
							<path fill="#FFFFFF" d="M617.193-78.606c0-0.191,0-0.348,0-0.497c0-4.006-0.013-8.012,0.004-12.018
								c0.019-3.65,2.298-6.459,5.818-7.211c2.98-0.638,6.247,0.915,7.68,3.629c0.604,1.139,0.854,2.346,0.844,3.633
								c-0.017,3.969-0.008,7.937,0,11.904c0,0.171,0,0.342,0,0.56C626.753-78.606,622.018-78.606,617.193-78.606z"/>
							<path fill="#FFFFFF" d="M628.946-104.229c-0.017,2.5-2.097,4.535-4.611,4.517s-4.527-2.072-4.507-4.604
								c0.021-2.529,2.09-4.589,4.566-4.556C626.945-108.841,628.949-106.786,628.946-104.229z"/>
						</g>
					</g>
				</g>
				<g>
					<g>
						<g>
							<path fill="#FFFFFF" d="M588.371-78.606c0-0.191,0-0.348,0-0.497c0-4.006-0.012-8.012,0.004-12.018
								c0.018-3.65,2.299-6.459,5.813-7.211c2.982-0.638,6.251,0.915,7.685,3.629c0.599,1.139,0.849,2.346,0.841,3.633
								c-0.017,3.969-0.009,7.937,0,11.904c0,0.171,0,0.342,0,0.56C597.93-78.606,593.194-78.606,588.371-78.606z"/>
							<path fill="#FFFFFF" d="M600.119-104.229c-0.017,2.5-2.097,4.535-4.61,4.517c-2.515-0.019-4.521-2.072-4.507-4.604
								c0.021-2.529,2.089-4.589,4.57-4.556C598.119-108.841,600.13-106.786,600.119-104.229z"/>
						</g>
					</g>
				</g>
			</g>
			<g>
				<g>
					<path fill="#FFFFFF" d="M286.509-176.953c-1.18,0-2.138-0.957-2.138-2.14l-0.008-67.777c0-1.182,0.957-2.141,2.138-2.141
						s2.138,0.959,2.138,2.141l0.008,67.777C288.647-177.91,287.69-176.953,286.509-176.953z"/>
				</g>
				<g>
					<path fill="#FFFFFF" d="M286.439-175.8l-8.681-10.621c-0.748-0.916-0.612-2.264,0.303-3.01c0.914-0.746,2.26-0.611,3.009,0.303
						l5.51,6.742l5.797-6.504c0.785-0.883,2.137-0.961,3.018-0.176c0.883,0.785,0.961,2.137,0.175,3.02L286.439-175.8z"/>
				</g>
				<g>
					<path fill="#FFFFFF" d="M293.66-236.077c-0.619,0-1.234-0.27-1.657-0.785l-5.514-6.744l-5.793,6.506
						c-0.787,0.879-2.137,0.959-3.018,0.174c-0.883-0.785-0.961-2.138-0.175-3.019l9.126-10.248l8.686,10.624
						c0.746,0.915,0.611,2.264-0.303,3.01C294.616-236.235,294.136-236.077,293.66-236.077z"/>
				</g>
			</g>
			<g>
				
					<linearGradient id="SVGID_2_" gradientUnits="userSpaceOnUse" x1="-1833.1055" y1="4876.5693" x2="-1779.0059" y2="4876.5693" gradientTransform="matrix(0 1 1 0 -4354.8691 1620.2334)">
					<stop  offset="0" style="stop-color:#706DCB;stop-opacity:0"/>
					<stop  offset="1" style="stop-color:#706DCB;stop-opacity:0.7"/>
				</linearGradient>
				<path fill="url(#SVGID_2_)" d="M655.896-180.415c0,11.955-9.689,21.643-21.644,21.643H409.146
					c-11.953,0-21.645-9.688-21.645-21.643v-10.818c0-11.951,9.69-21.639,21.645-21.639h225.108
					c11.952,0,21.643,9.688,21.643,21.639L655.896-180.415L655.896-180.415z"/>
				<g>
					<path fill="#FFFFFF" d="M634.037-151.856H408.925c-13.111,0-23.777-10.668-23.777-23.779v-10.818
						c0-13.113,10.666-23.78,23.777-23.78h225.112c13.111,0,23.776,10.667,23.776,23.78v10.818
						C657.813-162.524,647.148-151.856,634.037-151.856z M408.925-205.958c-10.752,0-19.5,8.75-19.5,19.504v10.818
						c0,10.754,8.749,19.503,19.5,19.503h225.112c10.752,0,19.5-8.749,19.5-19.503v-10.818c0-10.754-8.748-19.504-19.5-19.504
						H408.925z"/>
				</g>
				<g>
					<g>
						<path fill="#FFFFFF" d="M468.852-176.944l3.246-1.882c0.589,1.364,1.6,2.28,3.458,2.28c1.79,0,2.236-0.704,2.236-1.34
							c0-1.012-0.941-1.412-3.412-2.096c-2.447-0.681-4.848-1.855-4.848-5.009c0-3.178,2.685-5.013,5.53-5.013
							c2.704,0,4.821,1.296,6.021,3.718l-3.176,1.858c-0.563-1.176-1.341-1.904-2.847-1.904c-1.178,0-1.764,0.587-1.764,1.247
							c0,0.751,0.398,1.271,2.962,2.045c2.493,0.752,5.294,1.623,5.294,5.106c0,3.174-2.541,5.059-6.116,5.059
							C471.98-172.872,469.769-174.522,468.852-176.944z"/>
						<path fill="#FFFFFF" d="M492.847-175.789h-6.116l-0.825,2.587h-4.116l5.599-16.469h4.799l5.601,16.469h-4.118L492.847-175.789
							z M491.717-179.321l-1.931-6.045l-1.927,6.045H491.717z"/>
						<path fill="#FFFFFF" d="M512.134-189.671v16.469h-2.824l-6.353-8.939v8.939h-3.763v-16.469h2.823l6.353,8.938v-8.938H512.134z
							"/>
						<path fill="#FFFFFF" d="M529.541-181.437c0,4.657-3.457,8.233-8,8.233h-6.586v-16.47h6.586
							C526.084-189.671,529.541-186.095,529.541-181.437z M525.918-181.437c0-2.824-1.786-4.611-4.377-4.611h-2.822v9.223h2.822
							C524.131-176.825,525.918-178.614,525.918-181.437z"/>
						<path fill="#FFFFFF" d="M543.888-178.025c0,2.914-2.376,4.822-5.317,4.822h-6.916v-16.47h6.447
							c2.869,0,5.197,1.858,5.197,4.705c0,1.365-0.541,2.447-1.435,3.225C543.087-180.968,543.888-179.695,543.888-178.025z
							 M535.418-186.144v2.918h2.685c0.846,0,1.435-0.61,1.435-1.459c0-0.847-0.563-1.459-1.435-1.459H535.418L535.418-186.144z
							 M540.125-178.31c0-0.916-0.61-1.574-1.555-1.574h-3.151v3.151h3.151C539.514-176.732,540.125-177.39,540.125-178.31z"/>
						<path fill="#FFFFFF" d="M545.063-181.437c0-4.848,3.834-8.564,8.563-8.564c4.729,0,8.563,3.718,8.563,8.564
							c0,4.846-3.834,8.563-8.563,8.563C548.897-172.872,545.063-176.591,545.063-181.437z M558.426-181.437
							c0-2.941-2.117-4.894-4.8-4.894c-2.682,0-4.801,1.95-4.801,4.894c0,2.938,2.119,4.891,4.801,4.891
							C556.309-176.546,558.426-178.497,558.426-181.437z"/>
						<path fill="#FFFFFF" d="M572.021-173.202l-2.778-4.754l-2.773,4.754h-4.281l4.916-8.445l-4.682-8.023h4.281l2.539,4.354
							l2.542-4.354h4.281l-4.68,8.023l4.916,8.445H572.021z"/>
					</g>
				</g>
			</g>
			<g>
				<g>
					<path fill="#FFFFFF" d="M425.438-176.94c-1.181,0-2.138-0.957-2.138-2.137l-0.013-67.78c0-1.182,0.957-2.138,2.139-2.138
						c1.181,0,2.139,0.956,2.139,2.138l0.012,67.78C427.577-177.897,426.619-176.94,425.438-176.94z"/>
				</g>
				<g>
					<path fill="#FFFFFF" d="M425.37-175.783l-8.686-10.624c-0.749-0.913-0.613-2.261,0.301-3.009
						c0.911-0.75,2.262-0.614,3.008,0.303l5.515,6.743l5.794-6.506c0.782-0.883,2.136-0.963,3.019-0.174
						c0.882,0.785,0.96,2.136,0.174,3.02L425.37-175.783z"/>
				</g>
				<g>
					<path fill="#FFFFFF" d="M432.591-236.062c-0.619,0-1.233-0.268-1.656-0.785l-5.519-6.746l-5.795,6.504
						c-0.784,0.882-2.139,0.963-3.018,0.176c-0.883-0.785-0.961-2.137-0.175-3.02l9.126-10.248l8.688,10.625
						c0.748,0.914,0.613,2.264-0.301,3.008C433.546-236.222,433.066-236.062,432.591-236.062z"/>
				</g>
			</g>
			<g>
				<g>
					<path fill="#FFFFFF" d="M610.109-120.592c-1.181,0-2.139-0.958-2.139-2.141l-0.009-67.78c0-1.179,0.957-2.137,2.14-2.137
						c1.181,0,2.139,0.958,2.139,2.137l0.008,67.78C612.248-121.55,611.291-120.592,610.109-120.592z"/>
				</g>
				<g>
					<path fill="#FFFFFF" d="M610.039-119.438l-8.682-10.624c-0.747-0.915-0.611-2.262,0.303-3.009
						c0.913-0.746,2.263-0.611,3.011,0.302l5.51,6.744l5.796-6.505c0.786-0.883,2.138-0.962,3.02-0.175
						c0.884,0.785,0.961,2.138,0.176,3.019L610.039-119.438z"/>
				</g>
				<g>
					<path fill="#FFFFFF" d="M617.261-179.718c-0.619,0-1.233-0.269-1.657-0.784l-5.514-6.743l-5.794,6.504
						c-0.782,0.88-2.139,0.96-3.02,0.173c-0.881-0.782-0.959-2.135-0.173-3.017l9.124-10.247l8.688,10.624
						c0.746,0.915,0.612,2.261-0.303,3.009C618.217-179.873,617.736-179.718,617.261-179.718z"/>
				</g>
			</g>
			<g>
				<g>
					<path fill="#FFFFFF" d="M673.273-100.56v16.468h-3.763v-16.468H673.273z"/>
					<path fill="#FFFFFF" d="M689.036-100.56v16.468h-2.822l-6.353-8.939v8.939h-3.764v-16.468h2.823l6.353,8.94v-8.94H689.036z"/>
					<path fill="#FFFFFF" d="M702.916-96.937h-4.235v12.845h-3.766v-12.845h-4.232v-3.623h12.233V-96.937z"/>
					<path fill="#FFFFFF" d="M714.91-87.715v3.623h-10.352v-16.468h10.23v3.623h-6.468v2.73h5.882v3.574h-5.882v2.916L714.91-87.715
						L714.91-87.715z"/>
					<path fill="#FFFFFF" d="M722.579-89.501h-1.79v5.409h-3.764v-16.468h6.587c3.131,0,5.646,2.52,5.646,5.646
						c0,2.021-1.224,3.859-3.033,4.774l3.504,6.046h-4.046L722.579-89.501z M720.789-92.796h2.823c1.034,0,1.884-0.917,1.884-2.116
						s-0.85-2.117-1.884-2.117h-2.823V-92.796z"/>
					<path fill="#FFFFFF" d="M744.43-100.56v16.468h-2.823l-6.354-8.939v8.939h-3.764v-16.468h2.824l6.352,8.94v-8.94H744.43z"/>
					<path fill="#FFFFFF" d="M757.604-87.715v3.623H747.25v-16.468h10.233v3.623h-6.471v2.73h5.883v3.574h-5.883v2.916
						L757.604-87.715L757.604-87.715z"/>
					<path fill="#FFFFFF" d="M770.775-96.937h-4.234v12.845h-3.766v-12.845h-4.233v-3.623h12.233V-96.937z"/>
				</g>
			</g>
		</g>
		<g>
			<g>
				<path fill="#FFFFFF" d="M384.366-380.793c-1.181,0-2.138-0.959-2.138-2.14l-0.008-46.396c0-1.181,0.958-2.138,2.139-2.138
					s2.138,0.958,2.138,2.138l0.009,46.396C386.505-381.752,385.548-380.793,384.366-380.793z"/>
			</g>
			<g>
				<path fill="#FFFFFF" d="M384.296-379.639l-8.683-10.625c-0.747-0.913-0.611-2.261,0.303-3.009
					c0.914-0.745,2.262-0.611,3.011,0.304l5.51,6.743l5.797-6.505c0.785-0.883,2.135-0.96,3.02-0.174
					c0.882,0.786,0.958,2.138,0.174,3.02L384.296-379.639z"/>
			</g>
			<g>
				<path fill="#FFFFFF" d="M391.518-418.534c-0.619,0-1.233-0.268-1.657-0.785l-5.513-6.745l-5.793,6.505
					c-0.784,0.881-2.139,0.96-3.02,0.174c-0.882-0.785-0.96-2.137-0.174-3.018l9.125-10.248l8.688,10.625
					c0.746,0.914,0.611,2.262-0.304,3.009C392.474-418.691,391.993-418.534,391.518-418.534z"/>
			</g>
		</g>
		<g>
			<g>
				<path fill="#FFFFFF" d="M716.036-429.201h-6.117l-0.823,2.588h-4.117l5.6-16.468h4.798l5.602,16.468h-4.117L716.036-429.201z
					 M714.907-432.73l-1.931-6.046l-1.929,6.046H714.907z"/>
				<path fill="#FFFFFF" d="M732.03-430.237v3.624h-9.646v-16.468h3.763v12.844H732.03z"/>
				<path fill="#FFFFFF" d="M749.039-434.376c0,5.033-3.507,8.092-8.116,8.092c-5.176,0-8.893-3.812-8.893-8.539
					c0-4.776,3.787-8.587,8.632-8.587c3.154,0,5.813,1.552,7.2,3.764l-3.199,1.835c-0.683-1.082-2.165-1.929-4.022-1.929
					c-2.775,0-4.847,2.047-4.847,4.94c0,2.799,1.979,4.847,5.177,4.847c2.188,0,3.623-0.964,4.21-2.541h-4.398v-3.293h8.258
					L749.039-434.376L749.039-434.376z"/>
				<path fill="#FFFFFF" d="M750.446-434.847c0-4.846,3.834-8.563,8.564-8.563c4.728,0,8.563,3.717,8.563,8.563
					s-3.835,8.563-8.563,8.563C754.28-426.284,750.446-430.002,750.446-434.847z M763.81-434.847c0-2.94-2.118-4.893-4.799-4.893
					c-2.684,0-4.803,1.953-4.803,4.893s2.119,4.894,4.803,4.894C761.691-429.954,763.81-431.908,763.81-434.847z"/>
				<path fill="#FFFFFF" d="M775.24-432.025h-1.789v5.412h-3.764v-16.468h6.586c3.131,0,5.646,2.517,5.646,5.646
					c0,2.023-1.224,3.859-3.033,4.775l3.505,6.047h-4.045L775.24-432.025z M773.451-435.319h2.822c1.037,0,1.884-0.917,1.884-2.117
					c0-1.199-0.847-2.117-1.884-2.117h-2.822V-435.319z"/>
				<path fill="#FFFFFF" d="M787.915-443.081v16.468h-3.762v-16.468H787.915z"/>
				<path fill="#FFFFFF" d="M801.798-439.459h-4.236v12.846h-3.766v-12.846h-4.231v-3.623h12.233V-439.459L801.798-439.459z"/>
				<path fill="#FFFFFF" d="M816.146-443.081v16.468h-3.762v-6.541h-5.179v6.541h-3.764v-16.468h3.764v6.305h5.179v-6.305H816.146z"
					/>
				<path fill="#FFFFFF" d="M835.435-426.613h-3.766v-9.575l-4.258,6.987h-0.422l-4.261-6.987v9.575h-3.763v-16.468h3.763
					l4.472,7.316l4.469-7.316h3.766V-426.613z"/>
				<path fill="#FFFFFF" d="M843.43-434.847c0-4.846,3.834-8.563,8.563-8.563c4.728,0,8.561,3.717,8.561,8.563
					s-3.833,8.563-8.561,8.563C847.264-426.284,843.43-430.002,843.43-434.847z M856.792-434.847c0-2.94-2.116-4.893-4.798-4.893
					c-2.686,0-4.802,1.953-4.802,4.893s2.116,4.894,4.802,4.894C854.675-429.954,856.792-431.908,856.792-434.847z"/>
				<path fill="#FFFFFF" d="M866.435-439.459v3.177h6.117v3.622h-6.117v6.047h-3.764v-16.468h9.997v3.623L866.435-439.459
					L866.435-439.459z"/>
				<path fill="#FFFFFF" d="M746.779-403.091h-3.766v-9.575l-4.257,6.987h-0.423l-4.261-6.987v9.575h-3.763v-16.468h3.763
					l4.473,7.316l4.468-7.316h3.766V-403.091z"/>
				<path fill="#FFFFFF" d="M749.481-408.408v-11.152h3.764v10.822c0,1.247,0.588,2.306,2.587,2.306c2,0,2.589-1.059,2.589-2.306
					v-10.822h3.765v11.152c0,3.529-2.73,5.646-6.354,5.646S749.481-404.878,749.481-408.408z"/>
				<path fill="#FFFFFF" d="M774.533-406.715v3.624h-9.646v-16.468h3.764v12.844H774.533z"/>
				<path fill="#FFFFFF" d="M785.59-415.936h-4.234v12.845h-3.767v-12.845h-4.232v-3.623h12.232L785.59-415.936L785.59-415.936z"/>
				<path fill="#FFFFFF" d="M790.998-419.559v16.468h-3.763v-16.468H790.998z"/>
				<path fill="#FFFFFF" d="M803.468-406.715v3.624h-9.646v-16.468h3.764v12.844H803.468z"/>
				<path fill="#FFFFFF" d="M815.462-406.715v3.624h-10.351v-16.468h10.231v3.623h-6.469v2.73h5.884v3.574h-5.884v2.917H815.462z"/>
				<path fill="#FFFFFF" d="M816.166-419.559h4.117l3.646,12.116l3.646-12.116h4.115l-5.363,16.468h-4.798L816.166-419.559z"/>
				<path fill="#FFFFFF" d="M843.453-406.715v3.624h-10.351v-16.468h10.23v3.623h-6.468v2.73h5.882v3.574h-5.882v2.917H843.453z"/>
				<path fill="#FFFFFF" d="M855.216-406.715v3.624h-9.646v-16.468h3.763v12.844H855.216z"/>
				<path fill="#FFFFFF" d="M715.704-396.036h4.114l3.648,12.116l3.647-12.116h4.115l-5.363,16.468h-4.8L715.704-396.036z"/>
				<path fill="#FFFFFF" d="M742.991-383.192v3.623H732.64v-16.468h10.231v3.622h-6.469v2.729h5.882v3.576h-5.882v2.917
					L742.991-383.192L742.991-383.192z"/>
				<path fill="#FFFFFF" d="M750.658-384.98h-1.789v5.411h-3.764v-16.468h6.588c3.131,0,5.646,2.517,5.646,5.646
					c0,2.022-1.224,3.857-3.034,4.774l3.504,6.047h-4.044L750.658-384.98z M748.869-388.274h2.824c1.035,0,1.884-0.916,1.884-2.116
					c0-1.2-0.849-2.117-1.884-2.117h-2.824V-388.274z"/>
				<path fill="#FFFFFF" d="M763.337-396.036v16.468h-3.765v-16.468H763.337z"/>
				<path fill="#FFFFFF" d="M769.921-392.414v3.178h6.118v3.621h-6.118v6.047h-3.764v-16.468h9.999v3.622H769.921z"/>
				<path fill="#FFFFFF" d="M782.152-396.036v16.468h-3.763v-16.468H782.152z"/>
				<path fill="#FFFFFF" d="M784.27-387.802c0-4.847,3.601-8.563,8.563-8.563c2.986,0,5.622,1.481,7.058,3.811l-3.245,1.881
					c-0.73-1.269-2.141-2.021-3.813-2.021c-2.918,0-4.801,1.952-4.801,4.894c0,2.939,1.883,4.893,4.801,4.893
					c1.672,0,3.105-0.752,3.813-2.023l3.245,1.882c-1.412,2.33-4.045,3.813-7.058,3.813
					C787.87-379.239,784.27-382.956,784.27-387.802z"/>
				<path fill="#FFFFFF" d="M811.299-382.156h-6.116l-0.825,2.587h-4.116l5.6-16.468h4.799l5.602,16.468h-4.119L811.299-382.156z
					 M810.169-385.686l-1.93-6.046l-1.927,6.046H810.169z"/>
				<path fill="#FFFFFF" d="M827.53-392.414h-4.234v12.846h-3.765v-12.846h-4.232v-3.622h12.231V-392.414z"/>
				<path fill="#FFFFFF" d="M832.937-396.036v16.468h-3.762v-16.468H832.937z"/>
				<path fill="#FFFFFF" d="M835.055-387.802c0-4.847,3.834-8.563,8.563-8.563c4.728,0,8.563,3.717,8.563,8.563
					s-3.836,8.563-8.563,8.563C838.889-379.239,835.055-382.956,835.055-387.802z M848.419-387.802c0-2.941-2.117-4.894-4.8-4.894
					c-2.684,0-4.801,1.952-4.801,4.894c0,2.939,2.117,4.893,4.801,4.893C846.301-382.909,848.419-384.863,848.419-387.802z"/>
				<path fill="#FFFFFF" d="M867.235-396.036v16.468h-2.822l-6.354-8.94v8.94h-3.764v-16.468h2.822l6.354,8.938v-8.938H867.235z"/>
			</g>
		</g>
		<g>
			
				<line fill="none" stroke="#FFFFFF" stroke-width="2" stroke-linecap="round" stroke-miterlimit="10" x1="664.092" y1="-313.658" x2="740.562" y2="-313.669"/>
			<polyline fill="none" stroke="#FFFFFF" stroke-width="2" stroke-linecap="round" stroke-miterlimit="10" points="
				732.22,-321.071 740.594,-313.607 731.907,-306.511 			"/>
		</g>
		<g>
			<g>
				<g>
					<g>
						<path fill="#FFFFFF" d="M781.866-292.863c0-0.274,0-0.492,0-0.704c0-5.747-0.023-11.49,0.004-17.236
							c0.021-5.234,3.292-9.265,8.333-10.341c4.28-0.911,8.969,1.314,11.022,5.203c0.864,1.633,1.223,3.368,1.206,5.213
							c-0.025,5.688-0.007,11.379,0,17.065c0,0.249,0,0.497,0,0.801C795.575-292.863,788.779-292.863,781.866-292.863z"/>
						<path fill="#FFFFFF" d="M798.712-329.602c-0.021,3.583-3,6.504-6.607,6.477c-3.609-0.027-6.491-2.97-6.466-6.603
							c0.033-3.629,2.989-6.583,6.549-6.532C795.846-336.211,798.723-333.267,798.712-329.602z"/>
					</g>
				</g>
			</g>
			<g>
				<g>
					<g>
						<path fill="#FFFFFF" d="M810.58-292.863c0-0.274,0-0.492,0-0.704c0-5.747-0.021-11.49,0.011-17.236
							c0.021-5.234,3.289-9.265,8.336-10.341c4.276-0.911,8.959,1.314,11.013,5.203c0.865,1.633,1.219,3.368,1.212,5.213
							c-0.03,5.688-0.01,11.379,0,17.065c0,0.249,0,0.497,0,0.801C824.288-292.863,817.496-292.863,810.58-292.863z"/>
						<path fill="#FFFFFF" d="M827.425-329.602c-0.018,3.583-2.999,6.504-6.604,6.477c-3.608-0.027-6.49-2.97-6.464-6.603
							c0.032-3.629,2.992-6.583,6.548-6.532C824.563-336.211,827.441-333.267,827.425-329.602z"/>
					</g>
				</g>
			</g>
			<g>
				<g>
					<g>
						<path fill="#FFFFFF" d="M753.145-292.863c0-0.274,0-0.492,0-0.704c0-5.747-0.021-11.49,0.009-17.236
							c0.021-5.234,3.294-9.265,8.332-10.341c4.284-0.911,8.971,1.314,11.025,5.203c0.855,1.633,1.216,3.368,1.206,5.213
							c-0.028,5.688-0.013,11.379-0.003,17.065c0,0.249,0,0.497,0,0.801C766.852-292.863,760.061-292.863,753.145-292.863z"/>
						<path fill="#FFFFFF" d="M769.997-329.602c-0.024,3.583-3.003,6.504-6.611,6.477c-3.607-0.027-6.49-2.97-6.46-6.603
							c0.028-3.629,2.988-6.583,6.547-6.532C767.132-336.211,770.005-333.267,769.997-329.602z"/>
					</g>
				</g>
			</g>
			<g>
				<g>
					<g>
						<path fill="#FFFFFF" d="M799.359-310.884c0-0.19,0-0.346,0-0.496c0-4.006-0.014-8.01,0.003-12.02
							c0.014-3.65,2.292-6.459,5.814-7.211c2.985-0.638,6.252,0.915,7.684,3.63c0.597,1.138,0.849,2.345,0.839,3.635
							c-0.016,3.967-0.004,7.935,0,11.901c0,0.171,0,0.344,0,0.561C808.918-310.884,804.183-310.884,799.359-310.884z"/>
						<path fill="#FFFFFF" d="M811.107-336.507c-0.014,2.501-2.093,4.536-4.611,4.519c-2.514-0.02-4.522-2.075-4.507-4.604
							c0.021-2.532,2.087-4.591,4.569-4.558C809.106-341.117,811.114-339.063,811.107-336.507z"/>
					</g>
				</g>
			</g>
			<g>
				<g>
					<g>
						<path fill="#FFFFFF" d="M770.536-310.884c0-0.19,0-0.346,0-0.496c0-4.006-0.018-8.01,0-12.02
							c0.018-3.65,2.296-6.459,5.818-7.211c2.98-0.638,6.251,0.915,7.68,3.63c0.604,1.138,0.849,2.345,0.843,3.635
							c-0.017,3.967-0.008,7.935,0,11.901c0,0.171,0,0.344,0,0.561C780.091-310.884,775.355-310.884,770.536-310.884z"/>
						<path fill="#FFFFFF" d="M782.284-336.507c-0.017,2.501-2.097,4.536-4.61,4.519c-2.515-0.02-4.527-2.075-4.507-4.604
							c0.021-2.532,2.084-4.591,4.565-4.558C780.284-341.117,782.292-339.063,782.284-336.507z"/>
					</g>
				</g>
			</g>
		</g>
		<g>
			<g>
				<path fill="#FFFFFF" d="M739.488-265.021c0-4.846,3.836-8.563,8.564-8.563c4.728,0,8.563,3.718,8.563,8.563
					c0,4.846-3.834,8.563-8.563,8.563C743.323-256.457,739.488-260.175,739.488-265.021z M752.852-265.021
					c0-2.938-2.117-4.893-4.799-4.893c-2.684,0-4.803,1.953-4.803,4.893c0,2.94,2.119,4.896,4.803,4.896
					C750.734-260.124,752.852-262.079,752.852-265.021z"/>
				<path fill="#FFFFFF" d="M762.493-269.63v3.176h6.119v3.623h-6.119v6.045h-3.763v-16.467h10v3.623H762.493L762.493-269.63z"/>
				<path fill="#FFFFFF" d="M774.725-269.63v3.176h6.117v3.623h-6.117v6.045h-3.765v-16.467h10v3.623H774.725L774.725-269.63z"/>
				<path fill="#FFFFFF" d="M786.957-273.253v16.467h-3.764v-16.467H786.957z"/>
				<path fill="#FFFFFF" d="M789.072-265.021c0-4.846,3.602-8.563,8.564-8.563c2.986,0,5.622,1.482,7.056,3.813l-3.244,1.883
					c-0.73-1.271-2.142-2.023-3.812-2.023c-2.917,0-4.802,1.953-4.802,4.893c0,2.94,1.885,4.896,4.802,4.896
					c1.67,0,3.104-0.754,3.812-2.025l3.244,1.883c-1.411,2.33-4.044,3.812-7.056,3.812
					C792.673-256.456,789.072-260.175,789.072-265.021z"/>
				<path fill="#FFFFFF" d="M816.808-260.409v3.623h-10.354v-16.467h10.233v3.623h-6.47v2.729h5.882v3.576h-5.882v2.916H816.808
					L816.808-260.409z"/>
				<path fill="#FFFFFF" d="M824.476-262.196h-1.79v5.409h-3.763v-16.468h6.586c3.131,0,5.646,2.52,5.646,5.646
					c0,2.021-1.224,3.859-3.034,4.775l3.505,6.045h-4.045L824.476-262.196z M822.686-265.491h2.823c1.035,0,1.885-0.917,1.885-2.116
					c0-1.198-0.85-2.116-1.885-2.116h-2.823V-265.491z"/>
				<path fill="#FFFFFF" d="M832.331-260.525l3.247-1.885c0.588,1.366,1.6,2.285,3.457,2.285c1.79,0,2.237-0.707,2.237-1.343
					c0-1.014-0.942-1.412-3.412-2.094c-2.448-0.683-4.848-1.857-4.848-5.013c0-3.175,2.684-5.011,5.528-5.011
					c2.705,0,4.822,1.294,6.022,3.718l-3.176,1.858c-0.563-1.178-1.342-1.905-2.848-1.905c-1.177,0-1.763,0.589-1.763,1.246
					c0,0.754,0.397,1.27,2.962,2.047c2.494,0.754,5.294,1.623,5.294,5.104c0,3.176-2.541,5.059-6.116,5.059
					C835.46-256.456,833.249-258.103,832.331-260.525z"/>
			</g>
		</g>
		
			<linearGradient id="SVGID_3_" gradientUnits="userSpaceOnUse" x1="-3661.9189" y1="-1354.9214" x2="-3553.3994" y2="-1354.9214" gradientTransform="matrix(0 -1 -1 0 -973.2852 -3927.2559)">
			<stop  offset="0" style="stop-color:#706DCB;stop-opacity:0.3"/>
			<stop  offset="1" style="stop-color:#706DCB"/>
		</linearGradient>
		<path fill="url(#SVGID_3_)" d="M101.324-358.472c0-8.494,6.883-15.384,15.382-15.384h529.859c8.496,0,15.383,6.89,15.383,15.384
			v77.75c0,8.496-6.887,15.385-15.383,15.385H116.708c-8.5,0-15.382-6.889-15.382-15.385L101.324-358.472L101.324-358.472z"/>
		<g>
			<path fill="#FFFFFF" d="M646.566-259.354H116.711c-9.664,0-17.525-7.859-17.525-17.523v-77.747
				c0-9.662,7.861-17.522,17.525-17.522h529.855c9.664,0,17.525,7.86,17.525,17.522v77.747
				C664.092-267.214,656.23-259.354,646.566-259.354z M116.711-367.871c-7.305,0-13.248,5.943-13.248,13.246v77.747
				c0,7.305,5.943,13.248,13.248,13.248h529.855c7.305,0,13.248-5.943,13.248-13.248v-77.747c0-7.303-5.943-13.246-13.248-13.246
				H116.711z"/>
		</g>
		<g>
			<g>
				<path fill="#FFFFFF" d="M305.32-324.441H295.31l-1.348,4.235h-6.738l9.163-26.951h7.854l9.163,26.951h-6.737L305.32-324.441z
					 M303.473-330.217l-3.158-9.894l-3.158,9.894H303.473z"/>
				<path fill="#FFFFFF" d="M324.794-329.063h-2.926v8.857h-6.16v-26.951h10.782c5.12,0,9.24,4.119,9.24,9.24
					c0,3.309-2.003,6.316-4.968,7.815l5.738,9.896h-6.623L324.794-329.063z M321.868-334.452h4.622c1.693,0,3.08-1.501,3.08-3.464
					c0-1.965-1.387-3.466-3.08-3.466h-4.622V-334.452z"/>
				<path fill="#FFFFFF" d="M356.899-341.228h-6.931v21.022h-6.16v-21.022h-6.933v-5.929h20.023V-341.228z"/>
				<path fill="#FFFFFF" d="M365.747-347.157v26.951h-6.16v-26.951H365.747z"/>
				<path fill="#FFFFFF" d="M376.525-341.228v5.197h10.012v5.93h-10.012v9.896h-6.161v-26.951h16.364v5.929L376.525-341.228
					L376.525-341.228z"/>
				<path fill="#FFFFFF" d="M396.539-347.157v26.951h-6.161v-26.951H396.539z"/>
				<path fill="#FFFFFF" d="M400.001-333.681c0-7.931,5.892-14.016,14.016-14.016c4.891,0,9.203,2.426,11.552,6.239l-5.315,3.078
					c-1.191-2.079-3.504-3.312-6.236-3.312c-4.774,0-7.854,3.195-7.854,8.01c0,4.813,3.081,8.008,7.854,8.008
					c2.732,0,5.083-1.232,6.236-3.311l5.315,3.079c-2.312,3.813-6.625,6.237-11.552,6.237
					C405.893-319.667,400.001-325.749,400.001-333.681z"/>
				<path fill="#FFFFFF" d="M434.606-347.157v26.951h-6.16v-26.951H434.606z"/>
				<path fill="#FFFFFF" d="M455.011-324.441h-10.012l-1.347,4.235h-6.739l9.164-26.951h7.854l9.166,26.951h-6.739L455.011-324.441z
					 M453.162-330.217l-3.157-9.894l-3.157,9.894H453.162z"/>
				<path fill="#FFFFFF" d="M481.186-326.134v5.929h-15.787v-26.951h6.16v21.022H481.186z"/>
				<path fill="#FFFFFF" d="M268.114-312.943v26.951h-6.161v-26.951H268.114z"/>
				<path fill="#FFFFFF" d="M293.908-312.943v26.951h-4.621l-10.396-14.63v14.63h-6.16v-26.951h4.621l10.396,14.63v-14.63H293.908
					L293.908-312.943z"/>
				<path fill="#FFFFFF" d="M316.616-307.015h-6.931v21.022h-6.16v-21.022h-6.931v-5.929h20.022V-307.015z"/>
				<path fill="#FFFFFF" d="M336.248-291.92v5.929h-16.941v-26.951h16.75v5.93h-10.589v4.467h9.627v5.852h-9.627v4.775
					L336.248-291.92L336.248-291.92z"/>
				<path fill="#FFFFFF" d="M355.491-291.92v5.929h-15.787v-26.951h6.16v21.021L355.491-291.92L355.491-291.92z"/>
				<path fill="#FFFFFF" d="M373.969-291.92v5.929h-15.787v-26.951h6.161v21.021L373.969-291.92L373.969-291.92z"/>
				<path fill="#FFFFFF" d="M382.816-312.943v26.951h-6.16v-26.951H382.816z"/>
				<path fill="#FFFFFF" d="M414.116-298.696c0,8.237-5.735,13.244-13.284,13.244c-8.469,0-14.552-6.237-14.552-13.979
					c0-7.813,6.2-14.052,14.131-14.052c5.158,0,9.511,2.542,11.782,6.161l-5.237,3.001c-1.117-1.771-3.542-3.155-6.585-3.155
					c-4.542,0-7.931,3.351-7.931,8.086c0,4.58,3.235,7.93,8.471,7.93c3.581,0,5.931-1.578,6.894-4.157h-7.201v-5.392h13.514
					L414.116-298.696L414.116-298.696z"/>
				<path fill="#FFFFFF" d="M434.515-291.92v5.929h-16.942v-26.951h16.75v5.93h-10.589v4.467h9.627v5.852h-9.627v4.775
					L434.515-291.92L434.515-291.92z"/>
				<path fill="#FFFFFF" d="M459.149-312.943v26.951h-4.621l-10.396-14.63v14.63h-6.159v-26.951h4.621l10.396,14.63v-14.63H459.149
					L459.149-312.943z"/>
				<path fill="#FFFFFF" d="M462.606-299.468c0-7.932,5.891-14.014,14.015-14.014c4.892,0,9.203,2.424,11.553,6.237l-5.315,3.078
					c-1.192-2.079-3.504-3.31-6.237-3.31c-4.773,0-7.854,3.194-7.854,8.008s3.08,8.008,7.854,8.008c2.733,0,5.083-1.23,6.237-3.312
					l5.315,3.081c-2.313,3.813-6.624,6.237-11.553,6.237C468.497-285.451,462.606-291.535,462.606-299.468z"/>
				<path fill="#FFFFFF" d="M507.994-291.92v5.929h-16.941v-26.951h16.75v5.93h-10.591v4.467h9.628v5.852h-9.628v4.775
					L507.994-291.92L507.994-291.92z"/>
			</g>
		</g>
		<g>
			
				<linearGradient id="SVGID_4_" gradientUnits="userSpaceOnUse" x1="-3481.6538" y1="-1354.9219" x2="-3360.3057" y2="-1354.9219" gradientTransform="matrix(0 -1 -1 0 -973.2852 -3927.2559)">
				<stop  offset="0" style="stop-color:#706DCB;stop-opacity:0"/>
				<stop  offset="1" style="stop-color:#706DCB;stop-opacity:0.7"/>
			</linearGradient>
			<path fill="url(#SVGID_4_)" d="M101.324-551.566c0-8.495,6.883-15.384,15.383-15.384h529.859c8.496,0,15.383,6.889,15.383,15.384
				v90.579c0,8.498-6.887,15.385-15.383,15.385H116.708c-8.5,0-15.382-6.887-15.382-15.385L101.324-551.566L101.324-551.566z"/>
			<g>
				<path fill="#FFFFFF" d="M646.566-439.617H116.711c-9.664,0-17.525-7.862-17.525-17.526v-90.576
					c0-9.663,7.861-17.523,17.525-17.523h529.855c9.664,0,17.525,7.86,17.525,17.523v90.576
					C664.092-447.479,656.23-439.617,646.566-439.617z M116.711-560.965c-7.305,0-13.248,5.942-13.248,13.246v90.576
					c0,7.306,5.943,13.249,13.248,13.249h529.855c7.305,0,13.248-5.943,13.248-13.249v-90.576c0-7.304-5.943-13.246-13.248-13.246
					H116.711z"/>
			</g>
		</g>
		<g>
			<g>
				<defs>
					<rect id="SVGID_5_" x="520.845" y="-370.008" width="138.736" height="107.779"/>
				</defs>
				<clipPath id="SVGID_6_">
					<use xlink:href="#SVGID_5_"  overflow="visible"/>
				</clipPath>
				<g opacity="0.4" clip-path="url(#SVGID_6_)">
					<g>
						<path fill="#FFFFFF" d="M579.421-276.647c2.121,0.453,4.242,0.896,6.356,1.383l6.348,1.431
							c4.228,0.933,8.434,1.961,12.65,2.95c4.211,1.025,8.422,2.024,12.623,3.08c4.201,1.063,8.412,2.1,12.597,3.181l-1.106,2.093
							l-7.255-6.328c-2.418-2.1-4.816-4.238-7.224-6.361l-7.203-6.395l-7.153-6.434l-7.13-6.473
							c-2.381-2.156-4.729-4.347-7.089-6.527c-2.371-2.168-4.687-4.395-7.023-6.59c-2.344-2.192-4.674-4.4-6.972-6.647
							c2.522,1.996,5,4.031,7.489,6.063c2.478,2.041,4.981,4.055,7.431,6.123c2.468,2.053,4.939,4.104,7.388,6.181l7.34,6.239
							l7.305,6.271l7.252,6.324c2.421,2.107,4.851,4.21,7.239,6.344l7.213,6.377l0.01,0.008c0.497,0.439,0.547,1.211,0.108,1.719
							c-0.317,0.354-0.803,0.478-1.232,0.369c-4.186-1.115-8.354-2.281-12.528-3.431c-4.178-1.146-8.346-2.336-12.521-3.508
							c-4.151-1.215-8.319-2.39-12.48-3.656l-6.214-1.864C583.555-275.341,581.492-275.997,579.421-276.647z"/>
					</g>
					<g>
						<path fill="#FFFFFF" d="M650.271-328.538c-0.747,2.748-1.492,5.501-2.281,8.226l-2.319,8.219
							c-0.767,2.742-1.589,5.463-2.383,8.199l-2.408,8.187c-1.625,5.45-3.271,10.899-4.941,16.333
							c-1.643,5.451-3.362,10.874-5.063,16.307l-1.964-1.345c5.06-4.14,10.18-8.202,15.278-12.304l7.669-6.1l7.696-6.078
							l7.727-6.039l7.764-5.996l7.815-5.93c2.593-1.979,5.215-3.941,7.854-5.874c-2.457,2.163-4.916,4.311-7.406,6.437l-7.438,6.395
							l-7.488,6.324l-7.526,6.29l-7.564,6.249l-7.569,6.218c-5.082,4.116-10.133,8.272-15.24,12.351l-0.008,0.004
							c-0.535,0.428-1.324,0.34-1.75-0.2c-0.265-0.334-0.33-0.771-0.213-1.154c1.735-5.419,3.44-10.84,5.231-16.239
							c1.755-5.414,3.543-10.819,5.352-16.209l2.727-8.093c0.923-2.69,1.805-5.396,2.761-8.073l2.816-8.066
							C648.334-323.188,649.298-325.867,650.271-328.538z"/>
					</g>
					<g>
						<path fill="#FFFFFF" d="M602.032-374.033c-2.005,2.675-4.025,5.341-6.081,7.979c-2.039,2.649-4.103,5.275-6.174,7.896
							c-2.055,2.634-4.168,5.221-6.247,7.833c-2.089,2.612-4.21,5.188-6.314,7.782l-0.697-1.879
							c3.111,0.448,6.229,0.915,9.352,1.397l9.359,1.447l9.342,1.509c3.113,0.503,6.217,1.044,9.327,1.57
							c3.103,0.519,6.223,1.063,9.318,1.621c3.109,0.558,6.214,1.111,9.316,1.698c6.207,1.155,12.396,2.371,18.578,3.693
							c-6.29-0.642-12.556-1.388-18.812-2.21c-3.138-0.395-6.266-0.822-9.387-1.25c-3.127-0.424-6.246-0.862-9.367-1.329
							c-3.128-0.461-6.247-0.889-9.358-1.376l-9.36-1.435l-9.343-1.505c-3.111-0.497-6.223-1.017-9.334-1.553l-0.025-0.006
							c-0.631-0.11-1.049-0.705-0.938-1.321c0.032-0.208,0.133-0.402,0.258-0.55c2.178-2.537,4.332-5.087,6.537-7.591
							c2.205-2.511,4.378-5.055,6.6-7.551c2.213-2.508,4.426-4.995,6.674-7.479C597.488-369.129,599.742-371.591,602.032-374.033z"
							/>
					</g>
					<g>
						<path fill="#FFFFFF" d="M541.99-309.363c1.586,1.234,3.162,2.481,4.724,3.746l4.67,3.827l4.614,3.869l4.578,3.904
							c1.537,1.305,3.035,2.635,4.548,3.949l4.544,3.969c2.986,2.68,6.015,5.321,8.968,8.033l-2.039,1.246
							c-0.89-3.447-1.813-6.881-2.65-10.345l-1.299-5.179l-1.241-5.2c-0.405-1.735-0.831-3.462-1.212-5.199l-1.182-5.213
							c-0.751-3.479-1.5-6.96-2.162-10.476c1.173,3.376,2.236,6.777,3.303,10.176l1.57,5.109c0.525,1.697,1.022,3.405,1.523,5.118
							l1.487,5.121l1.449,5.144c0.989,3.429,1.888,6.871,2.828,10.301c0.184,0.668-0.21,1.352-0.875,1.539
							c-0.416,0.109-0.839,0-1.156-0.27l-0.008-0.016c-3.012-2.663-5.947-5.396-8.935-8.086l-4.428-4.09
							c-1.465-1.373-2.943-2.719-4.395-4.11l-4.367-4.151l-4.336-4.189l-4.289-4.235C544.801-306.49,543.393-307.92,541.99-309.363z
							"/>
					</g>
					<g>
						<path fill="#FFFFFF" d="M556.524-343.912c-1.065,2.937-2.197,5.845-3.313,8.773c-1.106,2.916-2.256,5.819-3.403,8.728
							c-1.166,2.896-2.314,5.808-3.496,8.695c-1.188,2.889-2.353,5.786-3.566,8.668l-0.998-1.099
							c4.177-1.368,8.36-2.717,12.556-4.029c2.096-0.676,4.192-1.333,6.297-1.973l6.307-1.939l-0.425,0.909
							c-1.47-3.982-2.919-7.973-4.335-11.969l-2.088-6.008c-0.706-2.01-1.387-4.01-2.057-6.023c0.849,1.937,1.684,3.892,2.506,5.853
							l2.457,5.864c1.61,3.92,3.207,7.847,4.791,11.786c0.141,0.346-0.025,0.748-0.377,0.878l-0.041,0.018l-0.011,0.004
							l-6.264,2.092c-2.08,0.701-4.168,1.39-6.265,2.066c-4.179,1.368-8.362,2.709-12.557,4.032h-0.008
							c-0.431,0.133-0.89-0.11-1.023-0.538c-0.065-0.188-0.041-0.392,0.025-0.562c1.207-2.877,2.463-5.742,3.704-8.606
							c1.241-2.869,2.511-5.72,3.768-8.587c1.274-2.844,2.539-5.701,3.858-8.534C553.885-338.246,555.166-341.1,556.524-343.912z"/>
					</g>
					<g>
						<path fill="#FFFFFF" d="M599.08-372.843c-1.668,1.239-3.346,2.462-5.024,3.669l-5.051,3.639
							c-3.387,2.414-6.781,4.797-10.187,7.166l-10.249,7.048c-3.445,2.332-6.862,4.681-10.315,6.974l-0.344-1.514l9.261,1.384
							l9.256,1.446h0.017c0.354,0.056,0.604,0.393,0.556,0.764c-0.018,0.041-0.024,0.093-0.051,0.132
							c-1.449,3.705-2.936,7.399-4.436,11.077c-1.535,3.671-3.021,7.364-4.605,11.017c1.215-3.79,2.543-7.54,3.809-11.311
							c1.315-3.761,2.64-7.514,3.983-11.254l0.534,0.9l-9.283-1.225l-9.268-1.286c-0.46-0.061-0.777-0.482-0.711-0.936
							c0.024-0.239,0.149-0.447,0.344-0.573l0.016-0.004c3.421-2.338,6.888-4.626,10.325-6.935l10.399-6.844
							c3.479-2.267,6.963-4.518,10.467-6.746l5.272-3.315C595.541-370.677,597.301-371.77,599.08-372.843z"/>
					</g>
					<g>
						<path fill="#FFFFFF" d="M571.839-318.429c6.648-1.232,13.311-2.428,19.97-3.613l19.983-3.552l39.99-6.886
							c0.191-0.029,0.368-0.008,0.543,0.053l0.018,0.01c6.913,2.785,13.787,5.669,20.682,8.503l20.667,8.54
							c0.509,0.212,0.789,0.72,0.722,1.232v0.002l-2.885,23.324c-0.949,7.771-1.988,15.537-2.987,23.308v0.007
							c-0.05,0.403-0.31,0.739-0.639,0.915l-14.986,7.75l0.46-1.635l11.424,18.787l5.697,9.396l5.65,9.427l0.007,0.021
							c0.275,0.436,0.127,1.019-0.315,1.278c-0.325,0.192-0.697,0.171-0.99-0.008l-30.693-19.676l-15.29-9.927
							c-5.107-3.291-10.2-6.617-15.272-9.961c5.217,3.129,10.415,6.261,15.615,9.42l15.582,9.465l31.058,19.085l-1.299,1.288
							l-5.822-9.327l-5.784-9.349l-11.535-18.707c-0.343-0.543-0.168-1.256,0.37-1.59l0.067-0.037l0.008-0.008l14.937-7.837
							l-0.643,0.918c0.973-7.771,1.898-15.552,2.905-23.313l3.021-23.306l0.714,1.23l-20.614-8.651
							c-6.866-2.904-13.755-5.757-20.6-8.702l0.547,0.063l-40.118,6.169l-20.074,2.983
							C585.225-320.34,578.539-319.372,571.839-318.429z"/>
					</g>
					<g>
						<path fill="#FFFFFF" d="M582.022-346.441l11.297-7.87l11.327-7.837c7.568-5.213,15.104-10.463,22.695-15.625
							c0.313-0.217,0.748-0.134,0.957,0.179l0.032,0.059l0.017,0.008l23.703,43.009l-1.384-0.469l44.196-19.918
							c0.597-0.267,1.299,0,1.565,0.595c0.072,0.188,0.122,0.373,0.105,0.565v0.004l-1.111,18.329l-0.561,9.168l-0.589,9.16
							l-0.476-1.058l32.589,25.997l-1.836,1.058l-3.831-27.609l-3.692-27.623l0.614,0.707l-21.025-6.476l0.836-0.972
							c3.884,8.307,7.693,16.654,11.523,24.987l5.738,12.501l5.7,12.523l-6.103-12.335l-6.058-12.35
							c-4.025-8.241-8.084-16.465-12.067-24.727c-0.16-0.345-0.018-0.766,0.33-0.937c0.158-0.071,0.332-0.085,0.492-0.034h0.007
							l21.118,6.155c0.32,0.103,0.563,0.381,0.604,0.693v0.023l4.109,27.554l3.959,27.59c0.094,0.628-0.338,1.207-0.966,1.296
							c-0.319,0.049-0.631-0.052-0.863-0.235l-0.008-0.004l-32.721-25.827c-0.325-0.264-0.492-0.658-0.468-1.041v-0.016l0.572-9.166
							l0.603-9.159l1.206-18.32l1.671,1.162l-44.285,19.682l-0.016,0.004c-0.51,0.23-1.098,0.018-1.367-0.469l-23.054-43.362
							l0.999,0.246c-7.646,5.091-15.341,10.095-23.021,15.13l-11.522,7.549L582.022-346.441z"/>
					</g>
					<g>
						<polygon fill="#FFFFFF" points="603.986,-373.617 603.845,-374.458 623.023,-377.611 623.166,-376.783 						"/>
					</g>
					<g>
						<path fill="#FFFFFF" d="M690.714-355.082c-0.043,0-0.094-0.004-0.144-0.021l-57.114-20.119l0.275-0.794l55.631,19.597
							l-13.814-16.024l-44.071-4.334l0.084-0.836l44.242,4.346c0.101,0.009,0.209,0.063,0.274,0.147l14.96,17.347
							c0.118,0.139,0.136,0.353,0.025,0.516C690.979-355.145,690.847-355.082,690.714-355.082z"/>
					</g>
					<g>
						<path fill="#FFFFFF" d="M669.016-259.022c-0.018,0-0.018,0-0.025,0l-34.135-2.531l0.065-0.832l33.811,2.5l20.532-49.645
							l0.784,0.323l-20.645,49.924C669.351-259.121,669.183-259.022,669.016-259.022z"/>
					</g>
					<g>
						<path fill="#FFFFFF" d="M694.94-227.345l-7.59-37.278c-0.032-0.173,0.033-0.345,0.175-0.435l36.037-24.16l0.455,0.709
							l-35.786,23.994l7.531,37.006L694.94-227.345z"/>
					</g>
					<g>
						<polygon fill="#FFFFFF" points="713.659,-348.822 681.637,-369.258 682.094,-369.969 714.11,-349.535 						"/>
					</g>
					
						<radialGradient id="SVGID_7_" cx="696.2871" cy="733.3232" r="12.145" gradientTransform="matrix(1 0 0 -1 0 509.5117)" gradientUnits="userSpaceOnUse">
						<stop  offset="0.3172" style="stop-color:#FFFFFF;stop-opacity:0.7"/>
						<stop  offset="0.3215" style="stop-color:#FFFFFF;stop-opacity:0.6955"/>
						<stop  offset="1" style="stop-color:#FFFFFF;stop-opacity:0"/>
					</radialGradient>
					<path fill="url(#SVGID_7_)" d="M708.435-223.808c0,6.703-5.442,12.139-12.146,12.139c-6.707,0-12.148-5.436-12.148-12.139
						c0-6.709,5.441-12.146,12.148-12.146C702.992-235.954,708.435-230.517,708.435-223.808z"/>
					
						<radialGradient id="SVGID_8_" cx="629.4307" cy="775.3008" r="11.1699" gradientTransform="matrix(1 0 0 -1 0 509.5117)" gradientUnits="userSpaceOnUse">
						<stop  offset="0.3172" style="stop-color:#FFFFFF;stop-opacity:0.7"/>
						<stop  offset="0.3215" style="stop-color:#FFFFFF;stop-opacity:0.6955"/>
						<stop  offset="1" style="stop-color:#FFFFFF;stop-opacity:0"/>
					</radialGradient>
					<path fill="url(#SVGID_8_)" d="M640.604-265.789c0,6.161-5.01,11.166-11.174,11.166s-11.172-5.005-11.172-11.166
						c0-6.172,5.008-11.167,11.172-11.167S640.604-271.961,640.604-265.789z"/>
					
						<radialGradient id="SVGID_9_" cx="647.459" cy="842.0088" r="24.2925" gradientTransform="matrix(1 0 0 -1 0 509.5117)" gradientUnits="userSpaceOnUse">
						<stop  offset="0.3172" style="stop-color:#FFFFFF;stop-opacity:0.7"/>
						<stop  offset="0.3215" style="stop-color:#FFFFFF;stop-opacity:0.6955"/>
						<stop  offset="1" style="stop-color:#FFFFFF;stop-opacity:0"/>
					</radialGradient>
					<path fill="url(#SVGID_9_)" d="M671.752-332.497c0,13.419-10.872,24.292-24.299,24.292c-13.416,0-24.287-10.873-24.287-24.292
						s10.871-24.292,24.287-24.292C660.88-356.789,671.752-345.916,671.752-332.497z"/>
					
						<radialGradient id="SVGID_10_" cx="693.2178" cy="823.792" r="8.3696" gradientTransform="matrix(1 0 0 -1 0 509.5117)" gradientUnits="userSpaceOnUse">
						<stop  offset="0.3172" style="stop-color:#FFFFFF;stop-opacity:0.7"/>
						<stop  offset="0.3215" style="stop-color:#FFFFFF;stop-opacity:0.6955"/>
						<stop  offset="1" style="stop-color:#FFFFFF;stop-opacity:0"/>
					</radialGradient>
					<path fill="url(#SVGID_10_)" d="M701.587-314.285c0,4.626-3.744,8.375-8.359,8.375c-4.636,0-8.379-3.749-8.379-8.375
						c0-4.618,3.743-8.365,8.379-8.365C697.843-322.651,701.587-318.904,701.587-314.285z"/>
					
						<radialGradient id="SVGID_11_" cx="725.3477" cy="801.7695" r="16.29" gradientTransform="matrix(1 0 0 -1 0 509.5117)" gradientUnits="userSpaceOnUse">
						<stop  offset="0.3172" style="stop-color:#FFFFFF;stop-opacity:0.7"/>
						<stop  offset="0.3215" style="stop-color:#FFFFFF;stop-opacity:0.6955"/>
						<stop  offset="1" style="stop-color:#FFFFFF;stop-opacity:0"/>
					</radialGradient>
					<path fill="url(#SVGID_11_)" d="M741.638-292.263c0,9-7.297,16.295-16.288,16.295c-8.997,0-16.293-7.295-16.293-16.295
						c0-8.99,7.296-16.285,16.293-16.285C734.341-308.548,741.638-301.253,741.638-292.263z"/>
					
						<radialGradient id="SVGID_12_" cx="576.8164" cy="787.3525" r="16.293" gradientTransform="matrix(1 0 0 -1 0 509.5117)" gradientUnits="userSpaceOnUse">
						<stop  offset="0.3172" style="stop-color:#FFFFFF;stop-opacity:0.7"/>
						<stop  offset="0.3215" style="stop-color:#FFFFFF;stop-opacity:0.6955"/>
						<stop  offset="1" style="stop-color:#FFFFFF;stop-opacity:0"/>
					</radialGradient>
					<path fill="url(#SVGID_12_)" d="M593.107-277.845c0,9.002-7.289,16.299-16.285,16.299c-9,0-16.297-7.297-16.297-16.299
						c0-8.994,7.297-16.291,16.297-16.291C585.818-294.136,593.107-286.839,593.107-277.845z"/>
					
						<radialGradient id="SVGID_13_" cx="578.0166" cy="853.4258" r="8.5991" gradientTransform="matrix(1 0 0 -1 0 509.5117)" gradientUnits="userSpaceOnUse">
						<stop  offset="0.3172" style="stop-color:#FFFFFF;stop-opacity:0.7"/>
						<stop  offset="0.3215" style="stop-color:#FFFFFF;stop-opacity:0.6955"/>
						<stop  offset="1" style="stop-color:#FFFFFF;stop-opacity:0"/>
					</radialGradient>
					<path fill="url(#SVGID_13_)" d="M586.617-343.912c0,4.744-3.852,8.595-8.596,8.595c-4.74,0-8.605-3.851-8.605-8.595
						c0-4.75,3.865-8.599,8.605-8.599C582.766-352.511,586.617-348.662,586.617-343.912z"/>
					
						<radialGradient id="SVGID_14_" cx="627.457" cy="886.0801" r="16.2896" gradientTransform="matrix(1 0 0 -1 0 509.5117)" gradientUnits="userSpaceOnUse">
						<stop  offset="0.3172" style="stop-color:#FFFFFF;stop-opacity:0.7"/>
						<stop  offset="0.3215" style="stop-color:#FFFFFF;stop-opacity:0.6955"/>
						<stop  offset="1" style="stop-color:#FFFFFF;stop-opacity:0"/>
					</radialGradient>
					<path fill="url(#SVGID_14_)" d="M643.747-376.568c0,8.999-7.288,16.29-16.279,16.29c-8.996,0-16.302-7.291-16.302-16.29
						c0-8.992,7.306-16.289,16.302-16.289C636.459-392.857,643.747-385.56,643.747-376.568z"/>
					
						<radialGradient id="SVGID_15_" cx="696.291" cy="862.2754" r="11.2368" gradientTransform="matrix(1 0 0 -1 0 509.5117)" gradientUnits="userSpaceOnUse">
						<stop  offset="0.3172" style="stop-color:#FFFFFF;stop-opacity:0.7"/>
						<stop  offset="0.3215" style="stop-color:#FFFFFF;stop-opacity:0.6955"/>
						<stop  offset="1" style="stop-color:#FFFFFF;stop-opacity:0"/>
					</radialGradient>
					<path fill="url(#SVGID_15_)" d="M707.528-352.764c0,6.206-5.023,11.236-11.239,11.236c-6.196,0-11.235-5.03-11.235-11.236
						c0-6.202,5.039-11.236,11.235-11.236C702.505-364,707.528-358.966,707.528-352.764z"/>
					
						<radialGradient id="SVGID_16_" cx="554.4922" cy="855.9551" r="16.2915" gradientTransform="matrix(1 0 0 -1 0 509.5117)" gradientUnits="userSpaceOnUse">
						<stop  offset="0.3172" style="stop-color:#FFFFFF;stop-opacity:0.7"/>
						<stop  offset="0.3215" style="stop-color:#FFFFFF;stop-opacity:0.6955"/>
						<stop  offset="1" style="stop-color:#FFFFFF;stop-opacity:0"/>
					</radialGradient>
					<path fill="url(#SVGID_16_)" d="M570.783-346.441c0,8.995-7.297,16.291-16.297,16.291c-8.988,0-16.285-7.296-16.285-16.291
						c0-8.999,7.297-16.294,16.285-16.294C563.486-362.735,570.783-355.44,570.783-346.441z"/>
				</g>
			</g>
		</g>
		<g>
			<g>
				<defs>
					<rect id="SVGID_17_" x="102.542" y="-370.008" width="138.736" height="107.779"/>
				</defs>
				<clipPath id="SVGID_18_">
					<use xlink:href="#SVGID_17_"  overflow="visible"/>
				</clipPath>
				<g opacity="0.4" clip-path="url(#SVGID_18_)">
					<g>
						<path fill="#FFFFFF" d="M182.701-276.647c-2.122,0.453-4.243,0.896-6.356,1.383l-6.349,1.431
							c-4.227,0.933-8.433,1.961-12.651,2.95c-4.21,1.025-8.42,2.024-12.622,3.08c-4.201,1.063-8.412,2.1-12.597,3.181l1.107,2.093
							l7.255-6.328c2.418-2.1,4.816-4.238,7.221-6.361l7.205-6.395l7.154-6.434l7.129-6.473c2.38-2.156,4.728-4.347,7.087-6.527
							c2.373-2.168,4.687-4.395,7.025-6.59c2.342-2.192,4.673-4.4,6.97-6.647c-2.522,1.996-4.999,4.031-7.488,6.063
							c-2.477,2.041-4.982,4.055-7.43,6.123c-2.468,2.053-4.941,4.104-7.388,6.181l-7.338,6.239l-7.305,6.271l-7.255,6.324
							c-2.418,2.107-4.849,4.21-7.238,6.344l-7.213,6.377l-0.008,0.008c-0.497,0.439-0.547,1.211-0.108,1.719
							c0.317,0.354,0.801,0.478,1.231,0.369c4.185-1.115,8.354-2.281,12.53-3.431c4.176-1.146,8.345-2.336,12.521-3.508
							c4.152-1.215,8.32-2.39,12.479-3.656l6.215-1.864C178.566-275.341,180.629-275.997,182.701-276.647z"/>
					</g>
					<g>
						<path fill="#FFFFFF" d="M111.85-328.538c0.748,2.748,1.491,5.501,2.281,8.226l2.322,8.219
							c0.764,2.742,1.587,5.463,2.381,8.199l2.409,8.187c1.625,5.45,3.271,10.899,4.941,16.333
							c1.641,5.451,3.361,10.874,5.062,16.307l1.963-1.345c-5.058-4.14-10.178-8.202-15.277-12.304l-7.668-6.1l-7.697-6.078
							l-7.726-6.039l-7.765-5.996l-7.814-5.93c-2.593-1.979-5.217-3.941-7.853-5.874c2.457,2.163,4.917,4.311,7.406,6.437
							l7.438,6.395l7.489,6.324l7.526,6.29l7.563,6.249l7.572,6.218c5.084,4.116,10.132,8.272,15.241,12.351l0.008,0.004
							c0.535,0.428,1.324,0.34,1.75-0.2c0.264-0.334,0.33-0.771,0.213-1.154c-1.737-5.419-3.441-10.84-5.233-16.239
							c-1.754-5.414-3.542-10.819-5.35-16.209l-2.728-8.093c-0.922-2.69-1.804-5.396-2.761-8.073l-2.814-8.066
							C113.788-323.188,112.822-325.867,111.85-328.538z"/>
					</g>
					<g>
						<path fill="#FFFFFF" d="M160.089-374.033c2.004,2.675,4.026,5.341,6.081,7.979c2.039,2.649,4.101,5.275,6.173,7.896
							c2.055,2.634,4.168,5.221,6.249,7.833c2.087,2.612,4.209,5.188,6.315,7.782l0.697-1.879c-3.112,0.448-6.231,0.915-9.352,1.397
							l-9.36,1.447l-9.343,1.509c-3.111,0.503-6.215,1.044-9.326,1.57c-3.103,0.519-6.223,1.063-9.317,1.621
							c-3.111,0.558-6.214,1.111-9.318,1.698c-6.207,1.155-12.396,2.371-18.578,3.693c6.291-0.642,12.555-1.388,18.811-2.21
							c3.138-0.395,6.266-0.822,9.385-1.25c3.128-0.424,6.248-0.862,9.368-1.329c3.128-0.461,6.249-0.889,9.36-1.376l9.359-1.435
							l9.343-1.505c3.112-0.497,6.223-1.017,9.334-1.553l0.025-0.006c0.63-0.11,1.048-0.705,0.94-1.321
							c-0.034-0.208-0.134-0.402-0.26-0.55c-2.175-2.537-4.331-5.087-6.536-7.591c-2.205-2.511-4.377-5.055-6.599-7.551
							c-2.214-2.508-4.427-4.995-6.675-7.479C164.633-369.129,162.378-371.591,160.089-374.033z"/>
					</g>
					<g>
						<path fill="#FFFFFF" d="M220.131-309.363c-1.587,1.234-3.161,2.481-4.724,3.746l-4.669,3.827l-4.616,3.869l-4.577,3.904
							c-1.537,1.305-3.036,2.635-4.548,3.949l-4.544,3.969c-2.987,2.68-6.015,5.321-8.967,8.033l2.039,1.246
							c0.89-3.447,1.812-6.881,2.652-10.345l1.298-5.179l1.241-5.2c0.405-1.735,0.831-3.462,1.211-5.199l1.182-5.213
							c0.751-3.479,1.5-6.96,2.164-10.476c-1.174,3.376-2.239,6.777-3.305,10.176l-1.57,5.109c-0.526,1.697-1.023,3.405-1.524,5.118
							l-1.487,5.121l-1.449,5.144c-0.991,3.429-1.889,6.871-2.828,10.301c-0.184,0.668,0.208,1.352,0.872,1.539
							c0.418,0.109,0.84,0,1.157-0.27l0.009-0.016c3.011-2.663,5.948-5.396,8.933-8.086l4.428-4.09
							c1.465-1.373,2.944-2.719,4.393-4.11l4.369-4.151l4.335-4.189l4.29-4.235C217.32-306.49,218.729-307.92,220.131-309.363z"/>
					</g>
					<g>
						<path fill="#FFFFFF" d="M205.597-343.912c1.065,2.937,2.196,5.845,3.312,8.773c1.106,2.916,2.255,5.819,3.403,8.728
							c1.166,2.896,2.314,5.808,3.496,8.695c1.187,2.889,2.352,5.786,3.568,8.668l0.998-1.099
							c-4.176-1.368-8.361-2.717-12.554-4.029c-2.097-0.676-4.194-1.333-6.298-1.973l-6.307-1.939l0.426,0.909
							c1.47-3.982,2.918-7.973,4.334-11.969l2.089-6.008c0.706-2.01,1.387-4.01,2.055-6.023c-0.848,1.937-1.683,3.892-2.506,5.853
							l-2.457,5.864c-1.612,3.92-3.207,7.847-4.791,11.786c-0.141,0.346,0.026,0.748,0.376,0.878l0.042,0.018l0.008,0.004
							l6.265,2.092c2.081,0.701,4.168,1.39,6.266,2.066c4.176,1.368,8.361,2.709,12.554,4.032h0.008
							c0.431,0.133,0.89-0.11,1.023-0.538c0.066-0.188,0.042-0.392-0.025-0.562c-1.207-2.877-2.463-5.742-3.704-8.606
							c-1.241-2.869-2.511-5.72-3.768-8.587c-1.273-2.844-2.539-5.701-3.859-8.534C208.236-338.246,206.955-341.1,205.597-343.912z"
							/>
					</g>
					<g>
						<path fill="#FFFFFF" d="M163.042-372.843c1.666,1.239,3.346,2.462,5.024,3.669l5.049,3.639
							c3.387,2.414,6.783,4.797,10.187,7.166l10.249,7.048c3.446,2.332,6.862,4.681,10.316,6.974l0.343-1.514l-9.26,1.384
							l-9.256,1.446h-0.016c-0.355,0.056-0.606,0.393-0.556,0.764c0.016,0.041,0.025,0.093,0.05,0.132
							c1.45,3.705,2.937,7.399,4.436,11.077c1.537,3.671,3.02,7.364,4.607,11.017c-1.216-3.79-2.544-7.54-3.809-11.311
							c-1.316-3.761-2.64-7.514-3.984-11.254l-0.535,0.9l9.284-1.225l9.269-1.286c0.459-0.061,0.776-0.482,0.709-0.936
							c-0.025-0.239-0.15-0.447-0.342-0.573l-0.017-0.004c-3.421-2.338-6.887-4.626-10.325-6.935l-10.4-6.844
							c-3.479-2.267-6.962-4.518-10.466-6.746l-5.275-3.315C166.58-370.677,164.821-371.77,163.042-372.843z"/>
					</g>
					<g>
						<path fill="#FFFFFF" d="M190.281-318.429c-6.648-1.232-13.311-2.428-19.968-3.613l-19.985-3.552l-39.991-6.886
							c-0.192-0.029-0.367-0.008-0.543,0.053l-0.017,0.01c-6.912,2.785-13.787,5.669-20.683,8.503l-20.665,8.54
							c-0.51,0.212-0.79,0.72-0.723,1.232v0.002l2.886,23.324c0.948,7.771,1.988,15.537,2.986,23.308v0.007
							c0.05,0.403,0.309,0.739,0.639,0.915l14.986,7.75l-0.459-1.635l-11.423,18.787l-5.696,9.396l-5.652,9.427l-0.008,0.021
							c-0.276,0.436-0.125,1.019,0.318,1.278c0.325,0.192,0.697,0.171,0.99-0.008l30.694-19.676l15.29-9.927
							c5.108-3.291,10.2-6.617,15.273-9.961c-5.216,3.129-10.416,6.261-15.616,9.42l-15.583,9.465l-31.057,19.085l1.299,1.288
							l5.822-9.327l5.785-9.349l11.535-18.707c0.342-0.543,0.167-1.256-0.372-1.59l-0.066-0.037l-0.009-0.008l-14.935-7.837
							l0.643,0.918c-0.973-7.771-1.9-15.552-2.907-23.313l-3.02-23.306l-0.714,1.23l20.615-8.651
							c6.866-2.904,13.753-5.757,20.599-8.702l-0.548,0.063l40.12,6.169l20.073,2.983
							C176.896-320.34,183.583-319.372,190.281-318.429z"/>
					</g>
					<g>
						<path fill="#FFFFFF" d="M180.1-346.441l-11.298-7.87l-11.327-7.837c-7.568-5.213-15.106-10.463-22.695-15.625
							c-0.313-0.217-0.748-0.134-0.957,0.179l-0.033,0.059l-0.017,0.008l-23.702,43.009l1.383-0.469l-44.197-19.918
							c-0.597-0.267-1.299,0-1.567,0.595c-0.071,0.188-0.12,0.373-0.104,0.565v0.004l1.111,18.329l0.56,9.168l0.589,9.16
							l0.476-1.058l-32.59,25.997l1.837,1.058l3.83-27.609l3.692-27.623l-0.615,0.707l21.025-6.476l-0.835-0.972
							c-3.885,8.307-7.693,16.654-11.523,24.987l-5.739,12.501l-5.7,12.523l6.102-12.335l6.056-12.35
							c4.026-8.241,8.086-16.465,12.071-24.727c0.159-0.345,0.016-0.766-0.331-0.937c-0.159-0.071-0.334-0.085-0.492-0.034h-0.009
							l-21.117,6.155c-0.321,0.103-0.563,0.381-0.605,0.693v0.023l-4.109,27.554l-3.959,27.59c-0.092,0.628,0.338,1.207,0.965,1.296
							c0.322,0.049,0.63-0.052,0.865-0.235l0.008-0.004l32.719-25.827c0.326-0.264,0.494-0.658,0.468-1.041v-0.016l-0.572-9.166
							l-0.602-9.159l-1.207-18.32l-1.671,1.162l44.284,19.682l0.017,0.004c0.51,0.23,1.099,0.018,1.366-0.469l23.055-43.362
							l-0.999,0.246c7.647,5.091,15.34,10.095,23.021,15.13l11.523,7.549L180.1-346.441z"/>
					</g>
					<g>
						<polygon fill="#FFFFFF" points="158.134,-373.617 158.276,-374.458 139.099,-377.611 138.956,-376.783 						"/>
					</g>
					<g>
						<path fill="#FFFFFF" d="M71.407-355.082c0.042,0,0.092-0.004,0.143-0.021l57.114-20.119l-0.276-0.794L72.756-356.42
							l13.816-16.024l44.071-4.334l-0.083-0.836l-44.243,4.346c-0.1,0.009-0.208,0.063-0.275,0.147l-14.96,17.347
							c-0.117,0.139-0.134,0.353-0.025,0.516C71.142-355.145,71.274-355.082,71.407-355.082z"/>
					</g>
					<g>
						<path fill="#FFFFFF" d="M93.106-259.022c0.016,0,0.016,0,0.024,0l34.136-2.531l-0.067-0.832l-33.809,2.5L72.858-309.53
							l-0.786,0.323l20.645,49.924C92.771-259.121,92.939-259.022,93.106-259.022z"/>
					</g>
					<g>
						<path fill="#FFFFFF" d="M67.182-227.345l7.589-37.278c0.033-0.173-0.033-0.345-0.176-0.435l-36.035-24.16l-0.455,0.709
							l35.785,23.994l-7.53,37.006L67.182-227.345z"/>
					</g>
					<g>
						<polygon fill="#FFFFFF" points="48.462,-348.822 80.483,-369.258 80.028,-369.969 48.011,-349.535 						"/>
					</g>
					
						<radialGradient id="SVGID_19_" cx="2816.7607" cy="733.3232" r="12.145" gradientTransform="matrix(-1 0 0 -1 2882.5957 509.5117)" gradientUnits="userSpaceOnUse">
						<stop  offset="0.3172" style="stop-color:#FFFFFF;stop-opacity:0.7"/>
						<stop  offset="0.3215" style="stop-color:#FFFFFF;stop-opacity:0.6955"/>
						<stop  offset="1" style="stop-color:#FFFFFF;stop-opacity:0"/>
					</radialGradient>
					<path fill="url(#SVGID_19_)" d="M53.688-223.808c0,6.703,5.442,12.139,12.146,12.139c6.708,0,12.149-5.436,12.149-12.139
						c0-6.709-5.442-12.146-12.149-12.146C59.129-235.954,53.688-230.517,53.688-223.808z"/>
					
						<radialGradient id="SVGID_20_" cx="2749.9043" cy="775.3008" r="11.1699" gradientTransform="matrix(-1 0 0 -1 2882.5957 509.5117)" gradientUnits="userSpaceOnUse">
						<stop  offset="0.3172" style="stop-color:#FFFFFF;stop-opacity:0.7"/>
						<stop  offset="0.3215" style="stop-color:#FFFFFF;stop-opacity:0.6955"/>
						<stop  offset="1" style="stop-color:#FFFFFF;stop-opacity:0"/>
					</radialGradient>
					<path fill="url(#SVGID_20_)" d="M121.519-265.789c0,6.161,5.007,11.166,11.173,11.166c6.164,0,11.172-5.005,11.172-11.166
						c0-6.172-5.008-11.167-11.172-11.167C126.525-276.956,121.519-271.961,121.519-265.789z"/>
					
						<radialGradient id="SVGID_21_" cx="2767.9316" cy="842.0088" r="24.2925" gradientTransform="matrix(-1 0 0 -1 2882.5957 509.5117)" gradientUnits="userSpaceOnUse">
						<stop  offset="0.3172" style="stop-color:#FFFFFF;stop-opacity:0.7"/>
						<stop  offset="0.3215" style="stop-color:#FFFFFF;stop-opacity:0.6955"/>
						<stop  offset="1" style="stop-color:#FFFFFF;stop-opacity:0"/>
					</radialGradient>
					<path fill="url(#SVGID_21_)" d="M90.371-332.497c0,13.419,10.872,24.292,24.299,24.292c13.416,0,24.287-10.873,24.287-24.292
						s-10.871-24.292-24.287-24.292C101.241-356.789,90.371-345.916,90.371-332.497z"/>
					
						<radialGradient id="SVGID_22_" cx="2813.6934" cy="823.792" r="8.3701" gradientTransform="matrix(-1 0 0 -1 2882.5957 509.5117)" gradientUnits="userSpaceOnUse">
						<stop  offset="0.3172" style="stop-color:#FFFFFF;stop-opacity:0.7"/>
						<stop  offset="0.3215" style="stop-color:#FFFFFF;stop-opacity:0.6955"/>
						<stop  offset="1" style="stop-color:#FFFFFF;stop-opacity:0"/>
					</radialGradient>
					<path fill="url(#SVGID_22_)" d="M60.532-314.285c0,4.626,3.747,8.375,8.361,8.375c4.636,0,8.379-3.749,8.379-8.375
						c0-4.618-3.743-8.365-8.379-8.365C64.278-322.651,60.532-318.904,60.532-314.285z"/>
					
						<radialGradient id="SVGID_23_" cx="2845.8213" cy="801.7695" r="16.2905" gradientTransform="matrix(-1 0 0 -1 2882.5957 509.5117)" gradientUnits="userSpaceOnUse">
						<stop  offset="0.3172" style="stop-color:#FFFFFF;stop-opacity:0.7"/>
						<stop  offset="0.3215" style="stop-color:#FFFFFF;stop-opacity:0.6955"/>
						<stop  offset="1" style="stop-color:#FFFFFF;stop-opacity:0"/>
					</radialGradient>
					<path fill="url(#SVGID_23_)" d="M20.483-292.263c0,9,7.296,16.295,16.289,16.295c8.997,0,16.293-7.295,16.293-16.295
						c0-8.99-7.296-16.285-16.293-16.285C27.779-308.548,20.483-301.253,20.483-292.263z"/>
					
						<radialGradient id="SVGID_24_" cx="2697.291" cy="787.3525" r="16.2925" gradientTransform="matrix(-1 0 0 -1 2882.5957 509.5117)" gradientUnits="userSpaceOnUse">
						<stop  offset="0.3172" style="stop-color:#FFFFFF;stop-opacity:0.7"/>
						<stop  offset="0.3215" style="stop-color:#FFFFFF;stop-opacity:0.6955"/>
						<stop  offset="1" style="stop-color:#FFFFFF;stop-opacity:0"/>
					</radialGradient>
					<path fill="url(#SVGID_24_)" d="M169.015-277.845c0,9.002,7.289,16.299,16.285,16.299c9.001,0,16.297-7.297,16.297-16.299
						c0-8.994-7.296-16.291-16.297-16.291C176.302-294.136,169.015-286.839,169.015-277.845z"/>
					
						<radialGradient id="SVGID_25_" cx="2698.4922" cy="853.4258" r="8.5986" gradientTransform="matrix(-1 0 0 -1 2882.5957 509.5117)" gradientUnits="userSpaceOnUse">
						<stop  offset="0.3172" style="stop-color:#FFFFFF;stop-opacity:0.7"/>
						<stop  offset="0.3215" style="stop-color:#FFFFFF;stop-opacity:0.6955"/>
						<stop  offset="1" style="stop-color:#FFFFFF;stop-opacity:0"/>
					</radialGradient>
					<path fill="url(#SVGID_25_)" d="M175.504-343.912c0,4.744,3.851,8.595,8.596,8.595c4.74,0,8.603-3.851,8.603-8.595
						c0-4.75-3.863-8.599-8.603-8.599C179.356-352.511,175.504-348.662,175.504-343.912z"/>
					
						<radialGradient id="SVGID_26_" cx="2747.9307" cy="886.0801" r="16.2896" gradientTransform="matrix(-1 0 0 -1 2882.5957 509.5117)" gradientUnits="userSpaceOnUse">
						<stop  offset="0.3172" style="stop-color:#FFFFFF;stop-opacity:0.7"/>
						<stop  offset="0.3215" style="stop-color:#FFFFFF;stop-opacity:0.6955"/>
						<stop  offset="1" style="stop-color:#FFFFFF;stop-opacity:0"/>
					</radialGradient>
					<path fill="url(#SVGID_26_)" d="M118.375-376.568c0,8.999,7.288,16.29,16.28,16.29c8.997,0,16.301-7.291,16.301-16.29
						c0-8.992-7.305-16.289-16.301-16.289C125.663-392.857,118.375-385.56,118.375-376.568z"/>
					
						<radialGradient id="SVGID_27_" cx="2816.7656" cy="862.2754" r="11.2373" gradientTransform="matrix(-1 0 0 -1 2882.5957 509.5117)" gradientUnits="userSpaceOnUse">
						<stop  offset="0.3172" style="stop-color:#FFFFFF;stop-opacity:0.7"/>
						<stop  offset="0.3215" style="stop-color:#FFFFFF;stop-opacity:0.6955"/>
						<stop  offset="1" style="stop-color:#FFFFFF;stop-opacity:0"/>
					</radialGradient>
					<path fill="url(#SVGID_27_)" d="M54.592-352.764c0,6.206,5.025,11.236,11.24,11.236c6.198,0,11.235-5.03,11.235-11.236
						c0-6.202-5.037-11.236-11.235-11.236C59.618-364,54.592-358.966,54.592-352.764z"/>
					
						<radialGradient id="SVGID_28_" cx="2674.9678" cy="855.9551" r="16.291" gradientTransform="matrix(-1 0 0 -1 2882.5957 509.5117)" gradientUnits="userSpaceOnUse">
						<stop  offset="0.3172" style="stop-color:#FFFFFF;stop-opacity:0.7"/>
						<stop  offset="0.3215" style="stop-color:#FFFFFF;stop-opacity:0.6955"/>
						<stop  offset="1" style="stop-color:#FFFFFF;stop-opacity:0"/>
					</radialGradient>
					<path fill="url(#SVGID_28_)" d="M191.337-346.441c0,8.995,7.297,16.291,16.298,16.291c8.987,0,16.283-7.296,16.283-16.291
						c0-8.999-7.296-16.294-16.283-16.294C198.634-362.735,191.337-355.44,191.337-346.441z"/>
				</g>
			</g>
		</g>
		<g>
			<g>
				<path fill="#FFFFFF" d="M226.218-528.831c0-4.846,3.6-8.563,8.564-8.563c2.987,0,5.621,1.482,7.057,3.812l-3.245,1.881
					c-0.731-1.269-2.141-2.022-3.812-2.022c-2.917,0-4.801,1.952-4.801,4.893s1.884,4.894,4.801,4.894
					c1.671,0,3.105-0.753,3.812-2.023l3.245,1.881c-1.412,2.329-4.045,3.811-7.057,3.811
					C229.818-520.268,226.218-523.985,226.218-528.831z"/>
				<path fill="#FFFFFF" d="M249.154-526.008h-1.79v5.411h-3.763v-16.468h6.587c3.13,0,5.646,2.517,5.646,5.646
					c0,2.021-1.223,3.858-3.034,4.775l3.504,6.047h-4.044L249.154-526.008z M247.364-529.302h2.824c1.036,0,1.883-0.917,1.883-2.117
					c0-1.2-0.847-2.117-1.883-2.117h-2.824V-529.302z"/>
				<path fill="#FFFFFF" d="M265.479-526.925v6.329h-3.765v-6.329l-5.528-10.14h4.281l3.13,6.353l3.128-6.353h4.281L265.479-526.925
					z"/>
				<path fill="#FFFFFF" d="M284.414-531.418c0,3.128-2.517,5.646-5.764,5.646h-2.47v5.176h-3.764v-16.469h6.234
					C281.896-537.065,284.414-534.548,284.414-531.418z M280.65-531.418c0-1.2-0.848-2.117-2-2.117h-2.47v4.234h2.47
					C279.801-529.302,280.65-530.218,280.65-531.418z"/>
				<path fill="#FFFFFF" d="M297.118-533.442h-4.235v12.845h-3.766v-12.845h-4.233v-3.623h12.233L297.118-533.442L297.118-533.442z"
					/>
				<path fill="#FFFFFF" d="M297.116-528.831c0-4.846,3.833-8.563,8.564-8.563c4.728,0,8.562,3.718,8.562,8.563
					c0,4.846-3.833,8.563-8.562,8.563C300.949-520.268,297.116-523.985,297.116-528.831z M310.479-528.831
					c0-2.94-2.118-4.893-4.799-4.893c-2.684,0-4.801,1.952-4.801,4.893c0,2.941,2.117,4.894,4.801,4.894
					C308.361-523.937,310.479-525.89,310.479-528.831z"/>
				<path fill="#FFFFFF" d="M328.354-531.418c0,3.128-2.516,5.646-5.763,5.646h-2.471v5.176h-3.763v-16.469h6.234
					C325.838-537.065,328.354-534.548,328.354-531.418z M324.591-531.418c0-1.2-0.848-2.117-2-2.117h-2.471v4.234h2.471
					C323.743-529.302,324.591-530.218,324.591-531.418z"/>
				<path fill="#FFFFFF" d="M329.411-528.831c0-4.846,3.834-8.563,8.564-8.563c4.728,0,8.562,3.718,8.562,8.563
					c0,4.846-3.834,8.563-8.562,8.563C333.245-520.268,329.411-523.985,329.411-528.831z M342.773-528.831
					c0-2.94-2.117-4.893-4.798-4.893c-2.684,0-4.801,1.952-4.801,4.893c0,2.941,2.118,4.894,4.801,4.894
					C340.656-523.937,342.773-525.89,342.773-528.831z"/>
				<path fill="#FFFFFF" d="M358.299-524.22v3.623h-9.646v-16.468h3.763v12.845H358.299z"/>
				<path fill="#FFFFFF" d="M363.707-537.065v16.468h-3.763v-16.468H363.707z"/>
				<path fill="#FFFFFF" d="M365.824-528.831c0-4.846,3.601-8.563,8.564-8.563c2.985,0,5.622,1.482,7.056,3.812l-3.245,1.881
					c-0.73-1.269-2.141-2.022-3.811-2.022c-2.917,0-4.802,1.952-4.802,4.893s1.885,4.894,4.802,4.894
					c1.67,0,3.104-0.753,3.811-2.023l3.245,1.881c-1.412,2.329-4.045,3.811-7.056,3.811
					C369.425-520.268,365.824-523.985,365.824-528.831z"/>
				<path fill="#FFFFFF" d="M393.559-524.22v3.623h-10.353v-16.468h10.233v3.623h-6.47v2.729h5.883v3.575h-5.883v2.918H393.559z"/>
				<path fill="#FFFFFF" d="M410.589-520.596l-5.271-7.623v7.623h-3.763v-16.469h3.763v7.152l5.036-7.152h4.282l-5.554,8.021
					l5.787,8.447L410.589-520.596L410.589-520.596z"/>
				<path fill="#FFFFFF" d="M429.219-537.065v16.468h-2.823l-6.354-8.94v8.94h-3.763v-16.468h2.823l6.353,8.94v-8.94H429.219z"/>
				<path fill="#FFFFFF" d="M431.334-528.831c0-4.846,3.834-8.563,8.564-8.563c4.728,0,8.562,3.718,8.562,8.563
					c0,4.846-3.833,8.563-8.562,8.563C435.168-520.268,431.334-523.985,431.334-528.831z M444.696-528.831
					c0-2.94-2.117-4.893-4.799-4.893c-2.684,0-4.801,1.952-4.801,4.893c0,2.941,2.117,4.894,4.801,4.894
					C442.579-523.937,444.696-525.89,444.696-528.831z"/>
				<path fill="#FFFFFF" d="M448.694-537.065h3.95l2.847,11.527l3.176-11.527h3.061l3.176,11.527l2.846-11.527h3.952l-4.54,16.468
					h-4.281l-2.682-9.716l-2.683,9.716h-4.281L448.694-537.065z"/>
				<path fill="#FFFFFF" d="M482.989-524.22v3.623h-9.646v-16.468h3.763v12.845H482.989z"/>
				<path fill="#FFFFFF" d="M494.986-524.22v3.623h-10.352v-16.468h10.231v3.623h-6.469v2.729h5.882v3.575h-5.882v2.918H494.986z"/>
				<path fill="#FFFFFF" d="M511.688-528.831c0,4.658-3.458,8.234-8,8.234h-6.586v-16.468h6.586
					C508.231-537.065,511.688-533.489,511.688-528.831z M508.065-528.831c0-2.823-1.787-4.611-4.377-4.611h-2.823v9.222h2.823
					C506.278-524.22,508.065-526.008,508.065-528.831z"/>
				<path fill="#FFFFFF" d="M530.105-528.36c0,5.034-3.506,8.092-8.117,8.092c-5.174,0-8.892-3.811-8.892-8.539
					c0-4.775,3.788-8.587,8.632-8.587c3.154,0,5.813,1.554,7.201,3.765l-3.199,1.833c-0.683-1.081-2.166-1.928-4.024-1.928
					c-2.774,0-4.847,2.046-4.847,4.94c0,2.799,1.978,4.847,5.178,4.847c2.188,0,3.622-0.965,4.209-2.542h-4.397v-3.293h8.258
					L530.105-528.36L530.105-528.36z"/>
				<path fill="#FFFFFF" d="M542.572-524.22v3.623h-10.352v-16.468h10.232v3.623h-6.47v2.729h5.884v3.575h-5.884v2.918H542.572z"/>
			</g>
		</g>
		<g>
			<g>
				<path fill="#FFFFFF" d="M292.89-383.14c-0.791,0-1.553-0.44-1.923-1.2l-20.37-41.684c-0.519-1.061-0.078-2.341,0.983-2.859
					c1.061-0.517,2.343-0.08,2.859,0.982l20.369,41.685c0.519,1.06,0.079,2.341-0.982,2.859
					C293.524-383.209,293.205-383.14,292.89-383.14z"/>
			</g>
			<g>
				<path fill="#FFFFFF" d="M294.271-382.289l-12.468-5.732c-1.072-0.495-1.542-1.763-1.049-2.837
					c0.494-1.073,1.766-1.543,2.837-1.05l7.915,3.641l2.352-8.387c0.319-1.138,1.496-1.804,2.637-1.482
					c1.137,0.319,1.8,1.5,1.481,2.637L294.271-382.289z"/>
			</g>
			<g>
				<path fill="#FFFFFF" d="M269.528-414.074c-0.191,0-0.386-0.026-0.578-0.081c-1.138-0.318-1.8-1.5-1.482-2.636l3.705-13.211
					l12.47,5.733c1.074,0.494,1.543,1.764,1.051,2.836c-0.494,1.074-1.767,1.542-2.835,1.05l-7.92-3.642l-2.352,8.388
					C271.321-414.693,270.463-414.074,269.528-414.074z"/>
			</g>
		</g>
		<g>
			<g>
				<path fill="#FFFFFF" d="M475.898-383.14c-0.315,0-0.636-0.069-0.938-0.217c-1.06-0.519-1.501-1.8-0.981-2.859l20.37-41.685
					c0.517-1.062,1.8-1.499,2.859-0.982c1.062,0.519,1.501,1.798,0.982,2.859l-20.369,41.684
					C477.45-383.58,476.69-383.14,475.898-383.14z"/>
			</g>
			<g>
				<path fill="#FFFFFF" d="M474.52-382.289l-3.71-13.21c-0.318-1.137,0.343-2.317,1.48-2.638c1.136-0.318,2.317,0.346,2.639,1.48
					l2.354,8.389l7.912-3.64c1.075-0.494,2.343-0.024,2.836,1.049c0.494,1.072,0.024,2.342-1.049,2.837L474.52-382.289z"/>
			</g>
			<g>
				<path fill="#FFFFFF" d="M499.255-414.074c-0.936,0-1.794-0.619-2.059-1.563l-2.352-8.388l-7.914,3.642
					c-1.072,0.493-2.344,0.024-2.837-1.049c-0.493-1.073-0.023-2.343,1.049-2.837l12.468-5.733l3.705,13.211
					c0.317,1.136-0.345,2.317-1.482,2.636C499.64-414.1,499.445-414.074,499.255-414.074z"/>
			</g>
		</g>
		<g>
			<g>
				<g>
					<path fill="#FFFFFF" d="M595.161-527.134h-3.207c-1.181,0-2.139-0.958-2.139-2.138c0-1.181,0.958-2.14,2.139-2.14h3.207
						c1.182,0,2.141,0.958,2.141,2.14C597.301-528.092,596.342-527.134,595.161-527.134z"/>
				</g>
				<g>
					<path fill="#FFFFFF" d="M853.05-311.535c-1.181,0-2.138-0.956-2.14-2.134c-0.003-1.182,0.954-2.142,2.134-2.145l6.473-0.012
						c0.003,0,0.003,0,0.004,0c1.18,0,2.137,0.954,2.14,2.136c0.002,1.18-0.955,2.14-2.135,2.142l-6.472,0.013
						C853.053-311.535,853.053-311.535,853.05-311.535z M865.992-311.56c-1.179,0-2.136-0.954-2.137-2.134
						c-0.003-1.182,0.952-2.142,2.133-2.144l6.475-0.012c0.003,0,0.003,0,0.006,0c1.18,0,2.136,0.954,2.138,2.134
						c0.002,1.182-0.952,2.142-2.135,2.144l-6.474,0.012C865.996-311.56,865.996-311.56,865.992-311.56z M878.938-311.582
						c-1.18,0-2.137-0.954-2.139-2.134c0-1.182,0.953-2.142,2.136-2.144l6.472-0.012c0.002,0,0.002,0,0.002,0
						c1.183,0,2.14,0.954,2.141,2.134c0.002,1.182-0.955,2.142-2.135,2.144l-6.473,0.013
						C878.94-311.582,878.94-311.582,878.938-311.582z M891.884-311.607c-1.181,0-2.138-0.955-2.141-2.135
						c-0.001-1.18,0.955-2.14,2.135-2.142l3.523-0.006c0.883-0.002,1.773-0.064,2.646-0.188c1.17-0.163,2.25,0.651,2.415,1.817
						c0.166,1.17-0.649,2.252-1.818,2.418c-1.065,0.15-2.156,0.228-3.235,0.229l-3.52,0.006
						C891.886-311.607,891.886-311.607,891.884-311.607z M904.516-313.681c-0.802,0-1.567-0.449-1.936-1.219
						c-0.506-1.065-0.055-2.342,1.015-2.85c1.752-0.834,3.369-1.93,4.808-3.257c0.872-0.799,2.223-0.743,3.023,0.124
						c0.799,0.867,0.744,2.222-0.124,3.022c-1.755,1.617-3.729,2.954-5.869,3.971C905.136-313.747,904.823-313.681,904.516-313.681z
						 M913.89-322.317c-0.366,0-0.735-0.095-1.073-0.291c-1.021-0.594-1.365-1.903-0.771-2.924c0.981-1.69,1.697-3.506,2.131-5.396
						c0.261-1.152,1.398-1.876,2.56-1.611c1.151,0.263,1.871,1.409,1.608,2.562c-0.527,2.312-1.403,4.531-2.604,6.597
						C915.344-322.698,914.627-322.317,913.89-322.317z M916.789-334.744c-1.181,0-2.137-0.958-2.137-2.14v-6.471
						c0-1.182,0.956-2.14,2.137-2.14c1.184,0,2.141,0.958,2.141,2.14v6.471C918.929-335.702,917.972-334.744,916.789-334.744z
						 M916.789-347.689c-1.181,0-2.137-0.958-2.137-2.14v-6.473c0-1.18,0.956-2.138,2.137-2.138c1.184,0,2.141,0.958,2.141,2.138
						v6.473C918.929-348.647,917.972-347.689,916.789-347.689z M916.789-360.635c-1.181,0-2.137-0.957-2.137-2.138v-6.473
						c0-1.181,0.956-2.138,2.137-2.138c1.184,0,2.141,0.957,2.141,2.138v6.473C918.929-361.592,917.972-360.635,916.789-360.635z
						 M916.789-373.578c-1.181,0-2.137-0.958-2.137-2.139v-6.473c0-1.181,0.956-2.138,2.137-2.138c1.184,0,2.141,0.957,2.141,2.138
						v6.473C918.929-374.536,917.972-373.578,916.789-373.578z M916.789-386.525c-1.181,0-2.137-0.957-2.137-2.138v-6.472
						c0-1.181,0.956-2.139,2.137-2.139c1.184,0,2.141,0.958,2.141,2.139v6.472C918.929-387.482,917.972-386.525,916.789-386.525z
						 M916.789-399.469c-1.181,0-2.137-0.956-2.137-2.137v-6.473c0-1.181,0.956-2.139,2.137-2.139c1.184,0,2.141,0.958,2.141,2.139
						v6.473C918.929-400.425,917.972-399.469,916.789-399.469z M916.789-412.414c-1.181,0-2.137-0.957-2.137-2.138v-6.472
						c0-1.18,0.956-2.138,2.137-2.138c1.184,0,2.141,0.958,2.141,2.138v6.472C918.929-413.371,917.972-412.414,916.789-412.414z
						 M916.789-425.358c-1.181,0-2.137-0.957-2.137-2.138v-6.472c0-1.182,0.956-2.139,2.137-2.139c1.184,0,2.141,0.957,2.141,2.139
						v6.472C918.929-426.315,917.972-425.358,916.789-425.358z M916.789-438.303c-1.181,0-2.137-0.958-2.137-2.139v-6.471
						c0-1.181,0.956-2.139,2.137-2.139c1.184,0,2.141,0.958,2.141,2.139v6.471C918.929-439.261,917.972-438.303,916.789-438.303z
						 M916.789-451.247c-1.181,0-2.137-0.957-2.137-2.138v-6.473c0-1.181,0.956-2.138,2.137-2.138c1.184,0,2.141,0.957,2.141,2.138
						v6.473C918.929-452.204,917.972-451.247,916.789-451.247z M916.789-464.191c-1.181,0-2.137-0.958-2.137-2.138v-6.473
						c0-1.181,0.956-2.138,2.137-2.138c1.184,0,2.141,0.957,2.141,2.138v6.473C918.929-465.149,917.972-464.191,916.789-464.191z
						 M916.789-477.137c-1.181,0-2.137-0.958-2.137-2.139v-6.472c0-1.181,0.956-2.139,2.137-2.139c1.184,0,2.141,0.958,2.141,2.139
						v6.472C918.929-478.094,917.972-477.137,916.789-477.137z M916.789-490.081c-1.181,0-2.137-0.957-2.137-2.138v-6.473
						c0-1.181,0.956-2.138,2.137-2.138c1.184,0,2.141,0.957,2.141,2.138v6.473C918.929-491.038,917.972-490.081,916.789-490.081z
						 M916.789-503.025c-1.181,0-2.137-0.958-2.137-2.139v-2.734c-0.002-1.127-0.102-2.253-0.293-3.347
						c-0.206-1.163,0.569-2.271,1.733-2.478s2.271,0.572,2.478,1.734c0.234,1.336,0.356,2.711,0.358,4.087v2.737
						C918.929-503.984,917.972-503.025,916.789-503.025z M914.388-515.579c-0.772,0-1.519-0.419-1.897-1.151
						c-0.896-1.722-2.048-3.298-3.424-4.688c-0.831-0.838-0.822-2.193,0.014-3.023c0.843-0.833,2.193-0.824,3.026,0.014
						c1.676,1.695,3.085,3.622,4.177,5.725c0.545,1.047,0.138,2.339-0.911,2.883C915.059-515.657,914.722-515.579,914.388-515.579z
						 M905.416-524.638c-0.34,0-0.686-0.081-1.008-0.253c-1.717-0.919-3.558-1.566-5.467-1.924c-1.16-0.218-1.926-1.335-1.705-2.497
						c0.217-1.16,1.336-1.922,2.494-1.708c2.34,0.44,4.59,1.232,6.695,2.357c1.041,0.556,1.436,1.852,0.878,2.893
						C906.919-525.049,906.18-524.638,905.416-524.638z M614.578-527.134c-1.182,0-2.139-0.958-2.139-2.138
						c0-1.181,0.957-2.14,2.139-2.14h6.472c1.182,0,2.141,0.958,2.141,2.139c0,1.181-0.959,2.138-2.141,2.138L614.578-527.134z
						 M608.106-527.134h-6.474c-1.182,0-2.14-0.958-2.14-2.138c0-1.181,0.958-2.14,2.14-2.14h6.474c1.181,0,2.138,0.958,2.138,2.14
						C610.244-528.092,609.287-527.134,608.106-527.134z M646.939-527.135h-6.473c-1.182,0-2.14-0.958-2.14-2.138
						c0-1.181,0.958-2.139,2.14-2.139h6.473c1.182,0,2.139,0.958,2.139,2.139C649.078-528.093,648.121-527.135,646.939-527.135z
						 M633.996-527.135h-6.473c-1.182,0-2.14-0.958-2.14-2.138c0-1.181,0.958-2.139,2.14-2.139h6.473
						c1.182,0,2.139,0.958,2.139,2.139C636.134-528.093,635.177-527.135,633.996-527.135z M679.303-527.136
						c-1.183,0-2.141-0.958-2.141-2.138c0-1.181,0.958-2.139,2.141-2.139l6.471-0.001c1.182,0,2.138,0.958,2.138,2.139
						c0,1.181-0.956,2.138-2.138,2.138L679.303-527.136z M672.828-527.136h-6.471c-1.182,0-2.14-0.958-2.14-2.138
						c0-1.181,0.958-2.139,2.14-2.139h6.471c1.183,0,2.141,0.958,2.141,2.139C674.968-528.094,674.01-527.136,672.828-527.136z
						 M659.886-527.136h-6.475c-1.181,0-2.139-0.958-2.139-2.138c0-1.181,0.958-2.139,2.139-2.139h6.475
						c1.18,0,2.137,0.958,2.137,2.139C662.022-528.094,661.065-527.136,659.886-527.136z M711.663-527.137h-6.472
						c-1.181,0-2.14-0.958-2.14-2.138c0-1.18,0.959-2.139,2.14-2.139h6.472c1.182,0,2.139,0.958,2.139,2.139
						C713.801-528.095,712.844-527.137,711.663-527.137z M698.719-527.137h-6.475c-1.18,0-2.138-0.958-2.138-2.138
						c0-1.18,0.958-2.139,2.138-2.139h6.475c1.181,0,2.139,0.958,2.139,2.139C700.857-528.095,699.899-527.137,698.719-527.137z
						 M744.024-527.138c-1.182,0-2.138-0.958-2.138-2.138c0-1.181,0.956-2.139,2.138-2.139l6.471-0.001
						c1.181,0,2.141,0.958,2.141,2.139c0,1.18-0.957,2.138-2.141,2.138L744.024-527.138z M737.553-527.138h-6.475
						c-1.181,0-2.139-0.958-2.139-2.138c0-1.181,0.958-2.139,2.139-2.139h6.475c1.182,0,2.137,0.958,2.137,2.139
						C739.689-528.096,738.734-527.138,737.553-527.138z M724.607-527.138h-6.473c-1.182,0-2.139-0.958-2.139-2.138
						c0-1.181,0.957-2.139,2.139-2.139h6.473c1.182,0,2.14,0.958,2.14,2.139C726.747-528.096,725.789-527.138,724.607-527.138z
						 M776.388-527.139h-6.476c-1.182,0-2.138-0.958-2.138-2.138c0-1.181,0.956-2.139,2.138-2.139h6.476
						c1.181,0,2.138,0.958,2.138,2.139C778.525-528.097,777.568-527.139,776.388-527.139z M763.442-527.139h-6.472
						c-1.184,0-2.141-0.958-2.141-2.138c0-1.181,0.957-2.139,2.141-2.139h6.472c1.181,0,2.138,0.958,2.138,2.139
						C765.58-528.097,764.623-527.139,763.442-527.139z M808.748-527.14c-1.179,0-2.138-0.958-2.138-2.138
						c0-1.181,0.957-2.139,2.138-2.139l6.473-0.001c1.182,0,2.14,0.958,2.14,2.139c0,1.181-0.957,2.139-2.14,2.139H808.748z
						 M802.275-527.14h-6.472c-1.183,0-2.139-0.958-2.139-2.138c0-1.181,0.956-2.139,2.139-2.139h6.472
						c1.183,0,2.139,0.958,2.139,2.139C804.414-528.098,803.458-527.14,802.275-527.14z M789.331-527.14h-6.473
						c-1.183,0-2.14-0.958-2.14-2.138c0-1.181,0.957-2.139,2.14-2.139h6.473c1.184,0,2.141,0.958,2.141,2.139
						C791.471-528.098,790.514-527.14,789.331-527.14z M841.109-527.141h-6.472c-1.184,0-2.141-0.958-2.141-2.139
						c0-1.181,0.957-2.139,2.141-2.139h6.472c1.181,0,2.138,0.958,2.138,2.139C843.247-528.099,842.29-527.141,841.109-527.141z
						 M828.166-527.141h-6.475c-1.182,0-2.137-0.958-2.137-2.139c0-1.181,0.955-2.139,2.137-2.139h6.475
						c1.182,0,2.139,0.958,2.139,2.139C830.305-528.099,829.347-527.141,828.166-527.141z M873.471-527.142
						c-1.181,0-2.139-0.958-2.139-2.139c0-1.18,0.956-2.139,2.139-2.139h6.475c1.18,0,2.138,0.958,2.138,2.139
						s-0.957,2.138-2.138,2.138L873.471-527.142z M866.999-527.142h-6.472c-1.182,0-2.137-0.958-2.137-2.139
						c0-1.18,0.955-2.139,2.137-2.139h6.472c1.183,0,2.14,0.958,2.14,2.139C869.138-528.1,868.181-527.142,866.999-527.142z
						 M854.055-527.142h-6.472c-1.183,0-2.138-0.958-2.138-2.139c0-1.18,0.955-2.139,2.138-2.139h6.473
						c1.183,0,2.138,0.958,2.138,2.139C856.192-528.1,855.237-527.142,854.055-527.142z M892.889-527.143h-6.473
						c-1.183,0-2.139-0.958-2.139-2.138c0-1.181,0.956-2.139,2.139-2.139h6.473c1.181,0,2.138,0.958,2.138,2.139
						C895.026-528.101,894.069-527.143,892.889-527.143z"/>
				</g>
				<g>
					<path fill="#FFFFFF" d="M843.323-311.519c-1.18,0-2.135-0.954-2.137-2.136c-0.001-1.18,0.951-2.14,2.134-2.142l3.207-0.006
						c0.002,0,0.002,0,0.005,0c1.18,0,2.137,0.954,2.138,2.134c0.003,1.182-0.951,2.142-2.133,2.144l-3.209,0.006
						C843.326-311.519,843.326-311.519,843.323-311.519z"/>
				</g>
			</g>
			<g>
				<path fill="#FFFFFF" d="M598.159-519.734c-0.505,0-1.014-0.179-1.421-0.542l-10.25-9.129l10.624-8.678
					c0.915-0.748,2.261-0.613,3.009,0.303c0.748,0.914,0.613,2.262-0.303,3.009l-6.742,5.508l6.507,5.796
					c0.882,0.785,0.961,2.137,0.174,3.019C599.334-519.977,598.748-519.734,598.159-519.734z"/>
			</g>
		</g>
		
			<linearGradient id="SVGID_29_" gradientUnits="userSpaceOnUse" x1="-2121.4434" y1="4739.4209" x2="-2081.9097" y2="4739.4209" gradientTransform="matrix(0 1 1 0 -4354.8691 1620.2334)">
			<stop  offset="0" style="stop-color:#706DCB;stop-opacity:0.3"/>
			<stop  offset="1" style="stop-color:#706DCB"/>
		</linearGradient>
		<path fill="url(#SVGID_29_)" d="M467.595-473.433c0,6.492-5.266,11.757-11.76,11.757H313.262c-6.491,0-11.755-5.265-11.755-11.757
			v-16.023c0-6.493,5.265-11.754,11.755-11.754h142.573c6.495,0,11.76,5.261,11.76,11.754V-473.433z"/>
		<g>
			<g>
				<path fill="#FFFFFF" d="M322.887-475.015l-3.831-5.54v5.54h-2.735v-11.97h2.735v5.198l3.659-5.198h3.112l-4.035,5.831
					l4.206,6.139H322.887z"/>
				<path fill="#FFFFFF" d="M335.579-486.985v11.97h-2.05l-4.617-6.498v6.498h-2.736v-11.97h2.053l4.615,6.498v-6.498H335.579z"/>
				<path fill="#FFFFFF" d="M336.271-481c0-3.523,2.786-6.224,6.223-6.224c3.438,0,6.225,2.701,6.225,6.224
					c0,3.522-2.787,6.223-6.225,6.223S336.271-477.478,336.271-481z M345.981-481c0-2.137-1.539-3.556-3.487-3.556
					s-3.486,1.419-3.486,3.556c0,2.137,1.538,3.557,3.486,3.557S345.981-478.863,345.981-481z"/>
				<path fill="#FFFFFF" d="M348.038-486.985h2.872l2.069,8.379l2.307-8.379h2.226l2.307,8.379l2.07-8.379h2.871l-3.3,11.97h-3.111
					l-1.949-7.062l-1.951,7.062h-3.11L348.038-486.985z"/>
				<path fill="#FFFFFF" d="M372.12-477.649v2.633h-7.01v-11.97h2.736v9.336L372.12-477.649L372.12-477.649z"/>
				<path fill="#FFFFFF" d="M379.991-477.649v2.633h-7.523v-11.97h7.438v2.634h-4.703v1.983h4.275v2.6h-4.275v2.12H379.991z"/>
				<path fill="#FFFFFF" d="M391.278-481c0,3.385-2.512,5.984-5.812,5.984h-4.788v-11.97h4.788
					C388.767-486.985,391.278-484.385,391.278-481z M388.648-481c0-2.052-1.302-3.352-3.181-3.352h-2.054v6.703h2.054
					C387.347-477.649,388.648-478.948,388.648-481z"/>
				<path fill="#FFFFFF" d="M403.818-480.658c0,3.659-2.548,5.881-5.9,5.881c-3.761,0-6.461-2.768-6.461-6.206
					c0-3.47,2.752-6.24,6.273-6.24c2.292,0,4.225,1.128,5.233,2.735l-2.327,1.333c-0.495-0.787-1.572-1.401-2.923-1.401
					c-2.019,0-3.521,1.487-3.521,3.59c0,2.035,1.435,3.523,3.762,3.523c1.589,0,2.633-0.702,3.06-1.847h-3.196v-2.394h6.001
					V-480.658z"/>
				<path fill="#FFFFFF" d="M412.031-477.649v2.633h-7.522v-11.97h7.438v2.634h-4.702v1.983h4.274v2.6h-4.274v2.12H412.031z"/>
				<path fill="#FFFFFF" d="M425.033-478.521c0,2.121-1.727,3.505-3.865,3.505h-5.026v-11.97h4.687c2.083,0,3.777,1.352,3.777,3.421
					c0,0.991-0.394,1.777-1.042,2.342C424.451-480.658,425.033-479.734,425.033-478.521z M418.877-484.419v2.119h1.951
					c0.614,0,1.042-0.443,1.042-1.06c0-0.615-0.409-1.059-1.042-1.059H418.877z M422.298-478.725c0-0.667-0.444-1.147-1.131-1.147
					h-2.291v2.292h2.291C421.854-477.58,422.298-478.059,422.298-478.725z"/>
				<path fill="#FFFFFF" d="M432.56-476.896h-4.446l-0.597,1.881h-2.993l4.07-11.97h3.486l4.07,11.97h-2.992L432.56-476.896z
					 M431.739-479.461l-1.402-4.396l-1.402,4.396H431.739z"/>
				<path fill="#FFFFFF" d="M435.474-477.735l2.358-1.368c0.426,0.992,1.161,1.659,2.513,1.659c1.299,0,1.625-0.514,1.625-0.976
					c0-0.735-0.686-1.025-2.479-1.521c-1.779-0.496-3.522-1.351-3.522-3.642c0-2.309,1.95-3.642,4.018-3.642
					c1.967,0,3.506,0.94,4.377,2.701l-2.307,1.351c-0.411-0.854-0.976-1.384-2.07-1.384c-0.854,0-1.282,0.427-1.282,0.906
					c0,0.547,0.29,0.923,2.155,1.487c1.813,0.547,3.847,1.18,3.847,3.711c0,2.307-1.846,3.674-4.444,3.674
					C437.746-474.777,436.139-475.973,435.474-477.735z"/>
				<path fill="#FFFFFF" d="M452.661-477.649v2.633h-7.523v-11.97h7.438v2.634h-4.703v1.983h4.274v2.6h-4.274v2.12H452.661z"/>
			</g>
		</g>
		
			<linearGradient id="SVGID_30_" gradientUnits="userSpaceOnUse" x1="-2121.4434" y1="4914.0625" x2="-2081.9097" y2="4914.0625" gradientTransform="matrix(0 1 1 0 -4354.8691 1620.2334)">
			<stop  offset="0" style="stop-color:#706DCB;stop-opacity:0.3"/>
			<stop  offset="1" style="stop-color:#706DCB"/>
		</linearGradient>
		<path fill="url(#SVGID_30_)" d="M642.238-473.433c0,6.493-5.266,11.757-11.76,11.757H487.905c-6.49,0-11.757-5.264-11.757-11.757
			v-16.022c0-6.494,5.268-11.755,11.757-11.755h142.573c6.494,0,11.76,5.261,11.76,11.755V-473.433z"/>
		
			<linearGradient id="SVGID_31_" gradientUnits="userSpaceOnUse" x1="-2121.4585" y1="4564.7793" x2="-2081.9258" y2="4564.7793" gradientTransform="matrix(0 1 1 0 -4354.8691 1620.2334)">
			<stop  offset="0" style="stop-color:#706DCB;stop-opacity:0.3"/>
			<stop  offset="1" style="stop-color:#706DCB"/>
		</linearGradient>
		<path fill="url(#SVGID_31_)" d="M292.954-473.449c0,6.491-5.266,11.757-11.761,11.757h-142.57
			c-6.491,0-11.757-5.266-11.757-11.757v-16.023c0-6.492,5.266-11.753,11.757-11.753h142.571c6.495,0,11.761,5.262,11.761,11.753
			L292.954-473.449L292.954-473.449z"/>
		<g>
			<g>
				<path fill="#FFFFFF" d="M494.654-477.735l2.36-1.368c0.426,0.992,1.161,1.659,2.512,1.659c1.299,0,1.625-0.514,1.625-0.976
					c0-0.735-0.685-1.025-2.479-1.521c-1.779-0.496-3.523-1.351-3.523-3.642c0-2.309,1.948-3.642,4.018-3.642
					c1.969,0,3.508,0.94,4.378,2.701l-2.308,1.351c-0.412-0.854-0.976-1.384-2.07-1.384c-0.853,0-1.281,0.427-1.281,0.906
					c0,0.547,0.291,0.923,2.154,1.487c1.813,0.547,3.848,1.18,3.848,3.711c0,2.307-1.847,3.674-4.445,3.674
					C496.929-474.777,495.321-475.973,494.654-477.735z"/>
				<path fill="#FFFFFF" d="M503.809-481c0-3.523,2.614-6.224,6.223-6.224c2.171,0,4.087,1.078,5.129,2.77l-2.359,1.368
					c-0.53-0.923-1.556-1.47-2.77-1.47c-2.119,0-3.487,1.419-3.487,3.556c0,2.137,1.368,3.557,3.487,3.557
					c1.213,0,2.257-0.548,2.77-1.47l2.359,1.368c-1.024,1.692-2.939,2.768-5.129,2.768C506.423-474.777,503.809-477.478,503.809-481
					z"/>
				<path fill="#FFFFFF" d="M522.602-476.896h-4.445l-0.598,1.881h-2.993l4.07-11.97h3.487l4.067,11.97h-2.99L522.602-476.896z
					 M521.781-479.461l-1.4-4.396l-1.403,4.396H521.781z"/>
				<path fill="#FFFFFF" d="M538.337-475.015h-2.735v-6.959l-3.093,5.079h-0.31l-3.095-5.079v6.959h-2.736v-11.97h2.736l3.249,5.318
					l3.247-5.318h2.735L538.337-475.015L538.337-475.015z"/>
				<path fill="#FFFFFF" d="M553.565-481c0,3.385-2.515,5.984-5.813,5.984h-4.788v-11.97h4.788
					C551.051-486.985,553.565-484.385,553.565-481z M550.932-481c0-2.052-1.302-3.352-3.181-3.352h-2.053v6.703h2.053
					C549.63-477.649,550.932-478.948,550.932-481z"/>
				<path fill="#FFFFFF" d="M560.837-476.896h-4.445l-0.599,1.881h-2.991l4.069-11.97h3.487l4.069,11.97h-2.992L560.837-476.896z
					 M560.016-479.461l-1.4-4.396l-1.404,4.396H560.016z"/>
				<path fill="#FFFFFF" d="M571.785-484.351h-3.075v9.336h-2.735v-9.336h-3.078v-2.634h8.89L571.785-484.351L571.785-484.351z"/>
				<path fill="#FFFFFF" d="M578.287-476.896h-4.445l-0.6,1.881h-2.989l4.067-11.97h3.487l4.07,11.97h-2.991L578.287-476.896z
					 M577.466-479.461l-1.401-4.396l-1.404,4.396H577.466z"/>
				<path fill="#FFFFFF" d="M590.945-478.521c0,2.121-1.727,3.505-3.865,3.505h-5.025v-11.97h4.685c2.086,0,3.779,1.352,3.779,3.421
					c0,0.991-0.395,1.777-1.043,2.342C590.362-480.658,590.945-479.734,590.945-478.521z M584.79-484.419v2.119h1.948
					c0.615,0,1.043-0.443,1.043-1.06c0-0.615-0.409-1.059-1.043-1.059H584.79z M588.209-478.725c0-0.667-0.442-1.147-1.129-1.147
					h-2.29v2.292h2.29C587.766-477.58,588.209-478.059,588.209-478.725z"/>
				<path fill="#FFFFFF" d="M598.475-476.896h-4.447l-0.597,1.881h-2.993l4.07-11.97h3.486l4.069,11.97h-2.992L598.475-476.896z
					 M597.652-479.461l-1.4-4.396l-1.403,4.396H597.652z"/>
				<path fill="#FFFFFF" d="M601.387-477.735l2.358-1.368c0.429,0.992,1.162,1.659,2.515,1.659c1.298,0,1.624-0.514,1.624-0.976
					c0-0.735-0.687-1.025-2.479-1.521c-1.78-0.496-3.522-1.351-3.522-3.642c0-2.309,1.947-3.642,4.018-3.642
					c1.968,0,3.507,0.94,4.378,2.701l-2.308,1.351c-0.412-0.854-0.978-1.384-2.07-1.384c-0.854,0-1.282,0.427-1.282,0.906
					c0,0.547,0.291,0.923,2.156,1.487c1.813,0.547,3.846,1.18,3.846,3.711c0,2.307-1.846,3.674-4.444,3.674
					C603.66-474.777,602.053-475.973,601.387-477.735z"/>
				<path fill="#FFFFFF" d="M618.573-477.649v2.633h-7.522v-11.97h7.438v2.634h-4.702v1.983h4.273v2.6h-4.273v2.12H618.573z"/>
			</g>
		</g>
		<g>
			<path fill="#FFFFFF" d="M145.915-482.882c0,2.275-1.83,4.104-4.189,4.104h-1.796v3.763h-2.735v-11.97h4.532
				C144.084-486.985,145.915-485.155,145.915-482.882z M143.178-482.882c0-0.872-0.616-1.538-1.453-1.538h-1.796v3.078h1.796
				C142.563-481.342,143.178-482.009,143.178-482.882z"/>
			<path fill="#FFFFFF" d="M150.468-478.948h-1.301v3.933h-2.735v-11.97h4.788c2.274,0,4.104,1.831,4.104,4.104
				c0,1.472-0.89,2.805-2.206,3.473l2.546,4.394h-2.94L150.468-478.948z M149.167-481.342h2.053c0.751,0,1.368-0.667,1.368-1.54
				c0-0.872-0.617-1.538-1.368-1.538h-2.053V-481.342z"/>
			<path fill="#FFFFFF" d="M155.414-481c0-3.523,2.786-6.224,6.223-6.224c3.438,0,6.223,2.701,6.223,6.224
				c0,3.522-2.786,6.223-6.223,6.223S155.414-477.478,155.414-481z M165.125-481c0-2.137-1.539-3.556-3.488-3.556
				c-1.95,0-3.487,1.419-3.487,3.556c0,2.137,1.538,3.557,3.487,3.557C163.585-477.443,165.125-478.863,165.125-481z"/>
			<path fill="#FFFFFF" d="M166.84-477.102l2.376-1.368c0.376,0.667,0.77,1.027,1.692,1.027c1.197,0,1.555-0.684,1.555-1.419v-8.123
				h2.736v8.123c0,2.633-1.846,4.085-4.308,4.085C168.995-474.777,167.626-475.58,166.84-477.102z"/>
			<path fill="#FFFFFF" d="M183.841-477.649v2.633h-7.524v-11.97h7.438v2.634h-4.702v1.983h4.274v2.6h-4.274v2.12H183.841z"/>
			<path fill="#FFFFFF" d="M183.932-481c0-3.523,2.614-6.224,6.223-6.224c2.172,0,4.087,1.078,5.129,2.77l-2.36,1.368
				c-0.531-0.923-1.556-1.47-2.769-1.47c-2.119,0-3.487,1.419-3.487,3.556c0,2.137,1.368,3.557,3.487,3.557
				c1.213,0,2.258-0.548,2.769-1.47l2.36,1.368c-1.025,1.692-2.94,2.768-5.129,2.768C186.545-474.777,183.932-477.478,183.932-481z"
				/>
			<path fill="#FFFFFF" d="M203.753-484.351h-3.076v9.336h-2.736v-9.336h-3.078v-2.634h8.89V-484.351z"/>
			<path fill="#FFFFFF" d="M218.121-481c0,3.385-2.513,5.984-5.813,5.984h-4.788v-11.97h4.788
				C215.608-486.985,218.121-484.385,218.121-481z M215.489-481c0-2.052-1.301-3.352-3.181-3.352h-2.052v6.703h2.052
				C214.188-477.649,215.489-478.948,215.489-481z"/>
			<path fill="#FFFFFF" d="M225.395-476.896h-4.446l-0.597,1.881h-2.993l4.071-11.97h3.487l4.068,11.97h-2.99L225.395-476.896z
				 M224.572-479.461l-1.401-4.396l-1.403,4.396H224.572z"/>
			<path fill="#FFFFFF" d="M236.34-484.351h-3.076v9.336h-2.736v-9.336h-3.078v-2.634h8.89V-484.351L236.34-484.351z"/>
			<path fill="#FFFFFF" d="M242.843-476.896h-4.446l-0.597,1.881h-2.993l4.07-11.97h3.488l4.068,11.97h-2.991L242.843-476.896z
				 M242.022-479.461l-1.401-4.396l-1.403,4.396H242.022z"/>
			<path fill="#FFFFFF" d="M255.503-478.521c0,2.121-1.727,3.505-3.865,3.505h-5.027v-11.97h4.687c2.086,0,3.778,1.352,3.778,3.421
				c0,0.991-0.393,1.777-1.042,2.342C254.92-480.658,255.503-479.734,255.503-478.521z M249.346-484.419v2.119h1.95
				c0.614,0,1.042-0.443,1.042-1.06c0-0.615-0.409-1.059-1.042-1.059H249.346z M252.768-478.725c0-0.667-0.445-1.147-1.13-1.147
				h-2.291v2.292h2.291C252.322-477.58,252.768-478.059,252.768-478.725z"/>
			<path fill="#FFFFFF" d="M263.028-476.896h-4.445l-0.597,1.881h-2.993l4.07-11.97h3.488l4.067,11.97h-2.99L263.028-476.896z
				 M262.208-479.461l-1.401-4.396l-1.403,4.396H262.208z"/>
			<path fill="#FFFFFF" d="M265.941-477.735l2.36-1.368c0.426,0.992,1.162,1.659,2.512,1.659c1.299,0,1.625-0.514,1.625-0.976
				c0-0.735-0.684-1.025-2.478-1.521c-1.779-0.496-3.523-1.351-3.523-3.642c0-2.309,1.949-3.642,4.019-3.642
				c1.966,0,3.506,0.94,4.376,2.701l-2.308,1.351c-0.411-0.854-0.975-1.384-2.068-1.384c-0.854,0-1.283,0.427-1.283,0.906
				c0,0.547,0.291,0.923,2.155,1.487c1.813,0.547,3.847,1.18,3.847,3.711c0,2.307-1.847,3.674-4.446,3.674
				C268.215-474.777,266.608-475.973,265.941-477.735z"/>
			<path fill="#FFFFFF" d="M283.13-477.649v2.633h-7.524v-11.97h7.438v2.634h-4.703v1.983h4.275v2.6h-4.275v2.12H283.13z"/>
		</g>
	</g>
	<g>
		<path fill="#FFFFFF" d="M669.511-65.881v-11.152h3.763v10.822c0,1.246,0.59,2.307,2.588,2.307c2,0,2.589-1.061,2.589-2.307
			v-10.822h3.765v11.152c0,3.528-2.729,5.645-6.354,5.645S669.511-62.352,669.511-65.881z"/>
		<path fill="#FFFFFF" d="M684.095-64.304l3.244-1.883c0.589,1.363,1.601,2.282,3.457,2.282c1.79,0,2.236-0.707,2.236-1.343
			c0-1.013-0.94-1.411-3.412-2.095c-2.447-0.681-4.848-1.856-4.848-5.011c0-3.175,2.686-5.012,5.53-5.012
			c2.704,0,4.822,1.297,6.021,3.719l-3.175,1.857c-0.564-1.178-1.342-1.904-2.848-1.904c-1.178,0-1.765,0.589-1.765,1.247
			c0,0.753,0.399,1.269,2.964,2.046c2.492,0.754,5.293,1.623,5.293,5.104c0,3.175-2.541,5.059-6.115,5.059
			C687.222-60.237,685.01-61.882,684.095-64.304z"/>
		<path fill="#FFFFFF" d="M708.911-64.189v3.623h-10.353v-16.468h10.233v3.623h-6.471v2.73h5.882v3.574h-5.882v2.916L708.911-64.189
			L708.911-64.189z"/>
		<path fill="#FFFFFF" d="M716.579-65.975h-1.789v5.409h-3.764v-16.468h6.586c3.131,0,5.647,2.52,5.647,5.646
			c0,2.021-1.226,3.859-3.035,4.774l3.504,6.046h-4.045L716.579-65.975z M714.788-69.27h2.823c1.036,0,1.886-0.917,1.886-2.116
			s-0.85-2.117-1.886-2.117h-2.823V-69.27z"/>
		<path fill="#FFFFFF" d="M724.435-64.304l3.245-1.883c0.589,1.363,1.6,2.282,3.459,2.282c1.79,0,2.237-0.707,2.237-1.343
			c0-1.013-0.943-1.411-3.414-2.095c-2.446-0.681-4.847-1.856-4.847-5.011c0-3.175,2.684-5.012,5.529-5.012
			c2.705,0,4.82,1.297,6.022,3.719l-3.178,1.857c-0.563-1.178-1.34-1.904-2.846-1.904c-1.178,0-1.766,0.589-1.766,1.247
			c0,0.753,0.398,1.269,2.964,2.046c2.495,0.754,5.295,1.623,5.295,5.104c0,3.175-2.543,5.059-6.118,5.059
			C727.563-60.237,725.353-61.882,724.435-64.304z"/>
	</g>
</g>
</svg>
