<?xml version="1.0" encoding="utf-8"?>
<!-- Generator: Adobe Illustrator 16.0.0, SVG Export Plug-In . SVG Version: 6.00 Build 0)  -->
<!DOCTYPE svg PUBLIC "-//W3C//DTD SVG 1.1//EN" "http://www.w3.org/Graphics/SVG/1.1/DTD/svg11.dtd">
<svg version="1.1" id="Layer_1" xmlns="http://www.w3.org/2000/svg" xmlns:xlink="http://www.w3.org/1999/xlink" x="0px" y="0px"
	 width="898.445px" height="508.512px" viewBox="0 0 898.445 508.512" enable-background="new 0 0 898.445 508.512"
	 xml:space="preserve">
<g>
	<g>
		<g>
			<g>
				<g>
					<g>
						
							<linearGradient id="SVGID_1_" gradientUnits="userSpaceOnUse" x1="3274.7051" y1="4144.7349" x2="3422.8545" y2="4144.7349" gradientTransform="matrix(0 1 -1 0 4391.5972 -2923.9653)">
							<stop  offset="0" style="stop-color:#706DCB;stop-opacity:0"/>
							<stop  offset="1" style="stop-color:#706DCB;stop-opacity:0.7"/>
						</linearGradient>
						<path fill="url(#SVGID_1_)" d="M182.286,498.889h-0.025c-8.211,0-15.841-1.804-22.679-5.369
							c-9.313-4.866-16.414-12.073-21.104-21.439c-2.865-5.73-4.523-11.858-4.912-18.204l-0.121-1.244l0.029-4.498
							c0.23-2.723,0.631-6.297,1.629-9.91c1.942-7.024,5.379-13.358,10.208-18.838c4.147-4.708,9.167-8.565,14.923-11.442
							c0.384-0.187,0.756-0.365,1.124-0.53c0.919-5.285,2.974-10.21,6.102-14.677c4.971-7.079,11.64-11.868,19.859-14.231
							c5.154-1.486,10.358-1.796,15.412-0.948c2.849,0.489,5.639,1.358,8.454,2.63c7.393-11.623,17.471-20.027,30.042-25.06
							c12.688-5.083,26.162-5.755,39.598-1.988c14.117,3.945,25.635,12.018,34.251,23.996c7.355,10.226,11.298,21.613,11.774,33.928
							c8.315,2.174,15.516,6.445,21.451,12.728c7.054,7.466,11.043,16.424,11.836,26.616c0.627,7.98-0.822,15.674-4.289,22.869
							c-3.508,7.294-8.691,13.306-15.411,17.871c-5.798,3.94-12.143,6.377-18.908,7.26c-2.272,0.3-4.673,0.449-7.122,0.449
							c-27.527,0.023-55.046,0.027-82.579,0.027L182.286,498.889z"/>
					</g>
				</g>
			</g>
			<g>
				<g>
					<g>
						<g>
							<path fill="#FFFFFF" d="M182.078,508.512L182.078,508.512h-0.017c-8.558,0-16.523-1.89-23.672-5.617
								c-9.723-5.079-17.135-12.608-22.031-22.376c-2.996-5.99-4.72-12.395-5.125-19.03l-0.122-1.154
								c-0.008-0.081-0.013-0.157-0.011-0.238l0.033-4.498c0.219-2.709,0.624-6.55,1.701-10.465
								c2.03-7.327,5.619-13.947,10.665-19.679c4.345-4.928,9.585-8.947,15.576-11.944c0.062-0.027,0.122-0.058,0.183-0.087
								c1.06-5.178,3.161-10.031,6.252-14.439c5.255-7.483,12.322-12.55,21.01-15.058c5.431-1.559,11.003-1.898,16.358-0.999
								c2.466,0.424,4.867,1.104,7.296,2.074c7.529-11.209,17.63-19.405,30.05-24.378c13.072-5.235,27.143-5.943,40.971-2.067
								c14.591,4.083,26.504,12.43,35.411,24.811c7.272,10.112,11.339,21.386,12.098,33.529c8.064,2.387,15.104,6.724,20.945,12.906
								c7.402,7.823,11.58,17.217,12.417,27.912c0.653,8.374-0.861,16.439-4.5,23.972c-3.673,7.636-9.103,13.932-16.134,18.709
								c-6.075,4.127-12.746,6.688-19.824,7.613c-2.349,0.311-4.842,0.467-7.407,0.467c-27.518,0.023-55.042,0.027-82.579,0.027
								L182.078,508.512z M135.376,460.008l0.116,1.127c0.378,6.15,1.954,11.998,4.69,17.47
								c4.484,8.946,11.276,15.845,20.186,20.498c6.531,3.405,13.831,5.133,21.693,5.133l0.017,2.138v-2.138l49.542-0.01
								c27.535,0,55.059-0.004,82.577-0.027c2.381,0,4.685-0.146,6.852-0.43c6.413-0.84,12.46-3.164,17.977-6.911
								c6.401-4.35,11.342-10.076,14.685-17.028c3.307-6.846,4.682-14.175,4.089-21.782c-0.759-9.695-4.548-18.21-11.262-25.307
								c-5.647-5.979-12.522-10.059-20.435-12.13c-0.911-0.237-1.559-1.044-1.595-1.984c-0.464-11.888-4.292-22.91-11.377-32.763
								c-8.323-11.572-19.458-19.374-33.092-23.189c-12.926-3.621-26.023-2.964-38.227,1.919
								c-12.125,4.856-21.89,13.005-29.024,24.222c-0.572,0.897-1.712,1.239-2.683,0.803c-2.679-1.207-5.278-2.016-7.944-2.473
								c-4.708-0.795-9.645-0.49-14.46,0.891c-7.722,2.23-14.012,6.74-18.691,13.405c-2.946,4.2-4.88,8.851-5.75,13.819
								c-0.121,0.695-0.577,1.286-1.22,1.578c-0.356,0.163-0.709,0.332-1.078,0.511c-5.472,2.738-10.275,6.42-14.254,10.933
								c-4.615,5.242-7.896,11.295-9.751,17.991c-0.982,3.566-1.357,7.141-1.554,9.518L135.376,460.008z"/>
						</g>
					</g>
				</g>
			</g>
			<g>
				<g>
					<path fill="#FFFFFF" d="M200.377,440.531v16.467h-3.763v-16.467H200.377z"/>
					<path fill="#FFFFFF" d="M216.139,440.531v16.467h-2.824l-6.352-8.938v8.938H203.2v-16.467h2.823l6.353,8.939v-8.939H216.139z"
						/>
					<path fill="#FFFFFF" d="M230.018,444.154h-4.234v12.844h-3.766v-12.844h-4.233v-3.623h12.233V444.154z"/>
					<path fill="#FFFFFF" d="M242.013,453.376v3.621h-10.352v-16.467h10.233v3.623h-6.471v2.729h5.883v3.574h-5.883v2.919H242.013z"
						/>
					<path fill="#FFFFFF" d="M249.681,451.588h-1.79v5.409h-3.763v-16.467h6.587c3.129,0,5.646,2.516,5.646,5.646
						c0,2.023-1.223,3.856-3.034,4.775l3.504,6.045h-4.044L249.681,451.588z M247.892,448.295h2.824
						c1.035,0,1.883-0.919,1.883-2.118c0-1.201-0.848-2.118-1.883-2.118h-2.824V448.295z"/>
					<path fill="#FFFFFF" d="M271.533,440.531v16.467h-2.823l-6.353-8.938v8.938h-3.763v-16.467h2.823l6.353,8.939v-8.939H271.533z"
						/>
					<path fill="#FFFFFF" d="M284.706,453.376v3.621h-10.352v-16.467h10.232v3.623h-6.469v2.729H284v3.574h-5.883v2.919H284.706z"/>
					<path fill="#FFFFFF" d="M297.878,444.154h-4.235v12.844h-3.765v-12.844h-4.233v-3.623h12.233V444.154z"/>
				</g>
			</g>
		</g>
		<g>
			<g>
				<g>
					<g>
						<path fill-rule="evenodd" clip-rule="evenodd" fill="#FFFFFF" d="M579.219,506.366c0-0.275,0-0.493,0-0.705
							c0-5.748-0.025-11.489,0.005-17.236c0.02-5.234,3.289-9.264,8.334-10.344c4.277-0.908,8.964,1.317,11.019,5.205
							c0.864,1.634,1.226,3.366,1.211,5.213c-0.028,5.688-0.012,11.376-0.005,17.064c0,0.251,0,0.498,0,0.803
							C592.926,506.366,586.13,506.366,579.219,506.366z"/>
						<path fill-rule="evenodd" clip-rule="evenodd" fill="#FFFFFF" d="M596.066,469.624c-0.021,3.584-3.003,6.507-6.612,6.479
							c-3.604-0.027-6.486-2.969-6.46-6.602c0.032-3.632,2.99-6.583,6.545-6.534C593.196,463.017,596.079,465.961,596.066,469.624z"
							/>
					</g>
				</g>
			</g>
			<g>
				<g>
					<g>
						<path fill-rule="evenodd" clip-rule="evenodd" fill="#FFFFFF" d="M607.933,506.366c0-0.275,0-0.493,0-0.705
							c0-5.748-0.018-11.489,0.008-17.236c0.021-5.234,3.291-9.264,8.336-10.344c4.277-0.908,8.964,1.317,11.019,5.205
							c0.864,1.634,1.219,3.366,1.206,5.213c-0.025,5.688-0.004,11.376,0,17.064c0,0.251,0,0.498,0,0.803
							C621.645,506.366,614.854,506.366,607.933,506.366z"/>
						<path fill-rule="evenodd" clip-rule="evenodd" fill="#FFFFFF" d="M624.78,469.624c-0.016,3.584-2.999,6.507-6.607,6.479
							c-3.609-0.027-6.486-2.969-6.465-6.602c0.033-3.632,2.994-6.583,6.553-6.534C621.915,463.017,624.797,465.961,624.78,469.624z
							"/>
					</g>
				</g>
			</g>
			<g>
				<g>
					<g>
						<path fill-rule="evenodd" clip-rule="evenodd" fill="#FFFFFF" d="M550.5,506.366c0-0.275,0-0.493,0-0.705
							c0-5.748-0.021-11.489,0.005-17.236c0.021-5.234,3.295-9.264,8.336-10.344c4.281-0.908,8.967,1.317,11.021,5.205
							c0.861,1.634,1.221,3.366,1.211,5.213c-0.033,5.688-0.012,11.376-0.008,17.064c0,0.251,0,0.498,0,0.803
							C564.207,506.366,557.416,506.366,550.5,506.366z"/>
						<path fill-rule="evenodd" clip-rule="evenodd" fill="#FFFFFF" d="M567.348,469.624c-0.021,3.584-3.003,6.507-6.606,6.479
							c-3.608-0.027-6.49-2.969-6.466-6.602c0.034-3.632,2.991-6.583,6.55-6.534C564.483,463.017,567.361,465.961,567.348,469.624z"
							/>
					</g>
				</g>
			</g>
			<g>
				<g>
					<g>
						<path fill-rule="evenodd" clip-rule="evenodd" fill="#FFFFFF" d="M596.71,488.344c0-0.192,0-0.348,0-0.497
							c0-4.006-0.013-8.012,0.004-12.018c0.018-3.65,2.298-6.459,5.818-7.211c2.981-0.638,6.247,0.915,7.68,3.629
							c0.603,1.139,0.853,2.346,0.844,3.633c-0.017,3.969-0.008,7.936,0,11.904c0,0.171,0,0.342,0,0.56
							C606.27,488.344,601.534,488.344,596.71,488.344z"/>
						<path fill-rule="evenodd" clip-rule="evenodd" fill="#FFFFFF" d="M608.463,462.721c-0.017,2.5-2.097,4.535-4.611,4.516
							c-2.515-0.018-4.528-2.072-4.507-4.604c0.021-2.529,2.09-4.589,4.566-4.556C606.462,458.109,608.466,460.164,608.463,462.721z
							"/>
					</g>
				</g>
			</g>
			<g>
				<g>
					<g>
						<path fill-rule="evenodd" clip-rule="evenodd" fill="#FFFFFF" d="M567.888,488.344c0-0.192,0-0.348,0-0.497
							c0-4.006-0.012-8.012,0.004-12.018c0.017-3.65,2.298-6.459,5.813-7.211c2.983-0.638,6.251,0.915,7.685,3.629
							c0.598,1.139,0.848,2.346,0.84,3.633c-0.016,3.969-0.008,7.936,0,11.904c0,0.171,0,0.342,0,0.56
							C577.446,488.344,572.711,488.344,567.888,488.344z"/>
						<path fill-rule="evenodd" clip-rule="evenodd" fill="#FFFFFF" d="M579.636,462.721c-0.017,2.5-2.097,4.535-4.611,4.516
							c-2.514-0.018-4.521-2.072-4.506-4.604c0.021-2.529,2.088-4.589,4.57-4.556C577.636,458.109,579.646,460.164,579.636,462.721z
							"/>
					</g>
				</g>
			</g>
		</g>
		<g>
			<g>
				<path fill="#FFFFFF" d="M266.026,389.997c-1.18,0-2.138-0.957-2.138-2.139l-0.008-67.778c0-1.182,0.957-2.14,2.138-2.14
					s2.138,0.958,2.138,2.14l0.008,67.778C268.164,389.04,267.207,389.997,266.026,389.997z"/>
			</g>
			<g>
				<path fill="#FFFFFF" d="M265.956,391.151l-8.681-10.622c-0.748-0.915-0.612-2.263,0.303-3.009
					c0.914-0.746,2.26-0.612,3.009,0.302l5.51,6.742l5.797-6.504c0.785-0.882,2.137-0.96,3.018-0.175
					c0.883,0.785,0.961,2.137,0.175,3.019L265.956,391.151z"/>
			</g>
			<g>
				<path fill="#FFFFFF" d="M273.177,330.873c-0.619,0-1.234-0.269-1.657-0.785l-5.514-6.744l-5.793,6.505
					c-0.787,0.879-2.137,0.959-3.018,0.175c-0.883-0.785-0.961-2.138-0.175-3.019l9.126-10.248l8.686,10.624
					c0.746,0.915,0.611,2.264-0.303,3.009C274.133,330.715,273.653,330.873,273.177,330.873z"/>
			</g>
		</g>
		<g>
			
				<linearGradient id="SVGID_2_" gradientUnits="userSpaceOnUse" x1="-1551.1226" y1="-4349.0522" x2="-1497.0229" y2="-4349.0522" gradientTransform="matrix(0 1 -1 0 -3847.8364 1905.2002)">
				<stop  offset="0" style="stop-color:#706DCB;stop-opacity:0"/>
				<stop  offset="1" style="stop-color:#706DCB;stop-opacity:0.7"/>
			</linearGradient>
			<path fill-rule="evenodd" clip-rule="evenodd" fill="url(#SVGID_2_)" d="M635.413,386.535c0,11.955-9.689,21.643-21.643,21.643
				H388.663c-11.953,0-21.644-9.688-21.644-21.643v-10.818c0-11.951,9.69-21.639,21.644-21.639h225.108
				c11.953,0,21.643,9.688,21.643,21.639V386.535z"/>
			<g>
				<path fill="#FFFFFF" d="M613.554,415.094H388.441c-13.111,0-23.777-10.668-23.777-23.78v-10.818
					c0-13.113,10.666-23.78,23.777-23.78h225.113c13.111,0,23.776,10.667,23.776,23.78v10.818
					C637.33,404.426,626.665,415.094,613.554,415.094z M388.441,360.992c-10.752,0-19.5,8.75-19.5,19.504v10.818
					c0,10.754,8.749,19.503,19.5,19.503h225.113c10.752,0,19.5-8.749,19.5-19.503v-10.818c0-10.754-8.748-19.504-19.5-19.504
					H388.441z"/>
			</g>
			<g>
				<g>
					<path fill="#FFFFFF" d="M448.368,390.006l3.246-1.882c0.589,1.364,1.6,2.28,3.458,2.28c1.79,0,2.237-0.704,2.237-1.34
						c0-1.011-0.942-1.411-3.413-2.095c-2.447-0.681-4.847-1.856-4.847-5.009c0-3.178,2.684-5.013,5.53-5.013
						c2.704,0,4.821,1.296,6.022,3.718l-3.176,1.858c-0.564-1.176-1.341-1.904-2.847-1.904c-1.178,0-1.764,0.587-1.764,1.247
						c0,0.751,0.399,1.27,2.962,2.045c2.493,0.752,5.294,1.623,5.294,5.106c0,3.174-2.541,5.059-6.116,5.059
						C451.497,394.078,449.285,392.428,448.368,390.006z"/>
					<path fill="#FFFFFF" d="M472.363,391.161h-6.116l-0.825,2.587h-4.116l5.598-16.469h4.799l5.601,16.469h-4.118L472.363,391.161z
						 M471.233,387.629l-1.93-6.045l-1.927,6.045H471.233z"/>
					<path fill="#FFFFFF" d="M491.65,377.279v16.469h-2.824l-6.352-8.94v8.94h-3.763v-16.469h2.823l6.353,8.939v-8.939H491.65z"/>
					<path fill="#FFFFFF" d="M509.058,385.514c0,4.657-3.457,8.233-8,8.233h-6.586v-16.469h6.586
						C505.601,377.279,509.058,380.855,509.058,385.514z M505.435,385.514c0-2.824-1.787-4.612-4.377-4.612h-2.823v9.223h2.823
						C503.647,390.125,505.435,388.336,505.435,385.514z"/>
					<path fill="#FFFFFF" d="M523.404,388.925c0,2.914-2.376,4.822-5.317,4.822h-6.916v-16.469h6.447
						c2.869,0,5.197,1.858,5.197,4.704c0,1.366-0.541,2.447-1.434,3.225C522.604,385.983,523.404,387.255,523.404,388.925z
						 M514.935,380.807v2.917h2.684c0.846,0,1.435-0.61,1.435-1.458c0-0.847-0.563-1.459-1.435-1.459H514.935z M519.642,388.641
						c0-0.917-0.611-1.574-1.555-1.574h-3.152v3.151h3.152C519.03,390.218,519.642,389.561,519.642,388.641z"/>
					<path fill="#FFFFFF" d="M524.58,385.514c0-4.848,3.834-8.565,8.563-8.565c4.729,0,8.563,3.718,8.563,8.565
						c0,4.846-3.834,8.563-8.563,8.563C528.414,394.078,524.58,390.36,524.58,385.514z M537.942,385.514
						c0-2.942-2.117-4.894-4.799-4.894s-4.801,1.951-4.801,4.894c0,2.938,2.119,4.891,4.801,4.891S537.942,388.453,537.942,385.514z
						"/>
					<path fill="#FFFFFF" d="M551.538,393.748l-2.778-4.754l-2.774,4.754h-4.281l4.916-8.445l-4.682-8.023h4.282l2.539,4.353
						l2.542-4.353h4.281l-4.68,8.023l4.916,8.445H551.538z"/>
				</g>
			</g>
		</g>
		<g>
			<g>
				<path fill="#FFFFFF" d="M404.955,390.01c-1.181,0-2.138-0.957-2.138-2.137l-0.012-67.78c0-1.182,0.957-2.138,2.138-2.138
					c1.181,0,2.139,0.956,2.139,2.138l0.012,67.78C407.094,389.053,406.136,390.01,404.955,390.01z"/>
			</g>
			<g>
				<path fill="#FFFFFF" d="M404.887,391.167l-8.686-10.624c-0.749-0.913-0.613-2.261,0.301-3.009
					c0.911-0.75,2.262-0.614,3.008,0.303l5.514,6.743l5.794-6.506c0.783-0.882,2.136-0.962,3.019-0.173
					c0.882,0.785,0.96,2.135,0.174,3.019L404.887,391.167z"/>
			</g>
			<g>
				<path fill="#FFFFFF" d="M412.107,330.888c-0.619,0-1.233-0.267-1.656-0.785l-5.518-6.746l-5.795,6.505
					c-0.784,0.881-2.139,0.962-3.018,0.175c-0.883-0.785-0.961-2.136-0.175-3.019l9.126-10.248l8.689,10.624
					c0.748,0.915,0.613,2.264-0.301,3.009C413.062,330.729,412.583,330.888,412.107,330.888z"/>
			</g>
		</g>
		<g>
			<g>
				<path fill="#FFFFFF" d="M589.626,446.358c-1.181,0-2.139-0.958-2.139-2.14l-0.008-67.78c0-1.179,0.957-2.137,2.139-2.137
					c1.181,0,2.139,0.958,2.139,2.137l0.008,67.78C591.765,445.4,590.808,446.358,589.626,446.358z"/>
			</g>
			<g>
				<path fill="#FFFFFF" d="M589.556,447.512l-8.682-10.624c-0.747-0.915-0.611-2.262,0.303-3.009
					c0.913-0.746,2.262-0.611,3.01,0.302l5.51,6.744l5.796-6.505c0.786-0.883,2.138-0.962,3.02-0.175
					c0.883,0.785,0.961,2.138,0.175,3.019L589.556,447.512z"/>
			</g>
			<g>
				<path fill="#FFFFFF" d="M596.777,387.233c-0.619,0-1.233-0.269-1.657-0.785l-5.514-6.743l-5.793,6.504
					c-0.783,0.88-2.139,0.96-3.02,0.173c-0.881-0.783-0.959-2.135-0.173-3.017l9.124-10.247l8.688,10.624
					c0.746,0.915,0.612,2.261-0.303,3.009C597.733,387.077,597.253,387.233,596.777,387.233z"/>
			</g>
		</g>
		<g>
			<g>
				<path fill="#FFFFFF" d="M652.79,466.391v16.467h-3.763v-16.467H652.79z"/>
				<path fill="#FFFFFF" d="M668.553,466.391v16.467h-2.823l-6.352-8.939v8.939h-3.764v-16.467h2.823l6.353,8.94v-8.94H668.553z"/>
				<path fill="#FFFFFF" d="M682.433,470.014h-4.236v12.844h-3.765v-12.844h-4.233v-3.623h12.234V470.014z"/>
				<path fill="#FFFFFF" d="M694.427,479.235v3.623h-10.352v-16.467h10.231v3.623h-6.468v2.73h5.882v3.574h-5.882v2.916H694.427z"/>
				<path fill="#FFFFFF" d="M702.096,477.449h-1.79v5.409h-3.764v-16.467h6.587c3.131,0,5.646,2.519,5.646,5.646
					c0,2.021-1.223,3.859-3.033,4.775l3.504,6.045h-4.046L702.096,477.449z M700.306,474.154h2.823c1.034,0,1.884-0.917,1.884-2.116
					s-0.85-2.117-1.884-2.117h-2.823V474.154z"/>
				<path fill="#FFFFFF" d="M723.946,466.391v16.467h-2.823l-6.353-8.939v8.939h-3.764v-16.467h2.824l6.352,8.94v-8.94H723.946z"/>
				<path fill="#FFFFFF" d="M737.12,479.235v3.623h-10.353v-16.467h10.233v3.623h-6.471v2.73h5.883v3.574h-5.883v2.916H737.12z"/>
				<path fill="#FFFFFF" d="M750.292,470.014h-4.234v12.844h-3.766v-12.844h-4.233v-3.623h12.233V470.014z"/>
				<path fill="#FFFFFF" d="M757.701,477.543v-11.152h3.763v10.822c0,1.246,0.59,2.307,2.588,2.307c2,0,2.589-1.061,2.589-2.307
					v-10.822h3.764v11.152c0,3.528-2.729,5.645-6.353,5.645S757.701,481.072,757.701,477.543z"/>
				<path fill="#FFFFFF" d="M772.285,479.12l3.244-1.883c0.589,1.364,1.601,2.283,3.457,2.283c1.79,0,2.237-0.707,2.237-1.343
					c0-1.013-0.941-1.411-3.412-2.095c-2.448-0.681-4.848-1.856-4.848-5.011c0-3.175,2.685-5.011,5.53-5.011
					c2.704,0,4.822,1.296,6.022,3.718l-3.175,1.858c-0.565-1.178-1.342-1.905-2.848-1.905c-1.178,0-1.764,0.589-1.764,1.248
					c0,0.752,0.399,1.268,2.963,2.045c2.493,0.754,5.293,1.623,5.293,5.105c0,3.175-2.541,5.058-6.115,5.058
					C775.412,483.188,773.2,481.542,772.285,479.12z"/>
				<path fill="#FFFFFF" d="M797.102,479.235v3.623h-10.353v-16.467h10.233v3.623h-6.47v2.73h5.882v3.574h-5.882v2.916H797.102z"/>
				<path fill="#FFFFFF" d="M804.77,477.449h-1.79v5.409h-3.763v-16.467h6.586c3.131,0,5.647,2.519,5.647,5.646
					c0,2.021-1.225,3.859-3.035,4.775l3.504,6.045h-4.045L804.77,477.449z M802.979,474.154h2.823c1.036,0,1.885-0.917,1.885-2.116
					s-0.849-2.117-1.885-2.117h-2.823V474.154z"/>
				<path fill="#FFFFFF" d="M812.625,479.12l3.245-1.883c0.589,1.364,1.6,2.283,3.459,2.283c1.79,0,2.237-0.707,2.237-1.343
					c0-1.013-0.943-1.411-3.414-2.095c-2.446-0.681-4.846-1.856-4.846-5.011c0-3.175,2.683-5.011,5.529-5.011
					c2.705,0,4.82,1.296,6.022,3.718l-3.177,1.858c-0.563-1.178-1.34-1.905-2.846-1.905c-1.178,0-1.766,0.589-1.766,1.248
					c0,0.752,0.399,1.268,2.964,2.045c2.495,0.754,5.295,1.623,5.295,5.105c0,3.175-2.543,5.058-6.118,5.058
					C815.754,483.188,813.543,481.542,812.625,479.12z"/>
				<path fill="#FFFFFF" d="M832.382,485.211l9.411-21.174h1.411l-9.41,21.174H832.382z"/>
				<path fill="#FFFFFF" d="M648.321,498.148c0-4.847,3.834-8.563,8.564-8.563c4.728,0,8.562,3.717,8.562,8.563
					c0,4.846-3.834,8.563-8.562,8.563C652.155,506.71,648.321,502.994,648.321,498.148z M661.684,498.148
					c0-2.94-2.117-4.894-4.798-4.894c-2.684,0-4.801,1.953-4.801,4.894c0,2.939,2.117,4.893,4.801,4.893
					C659.566,503.041,661.684,501.087,661.684,498.148z"/>
				<path fill="#FFFFFF" d="M671.326,493.538v3.176h6.118v3.621h-6.118v6.047h-3.764v-16.467h9.999v3.623H671.326z"/>
				<path fill="#FFFFFF" d="M683.557,493.538v3.176h6.117v3.621h-6.117v6.047h-3.763v-16.467h9.998v3.623H683.557z"/>
				<path fill="#FFFFFF" d="M695.787,489.915v16.467h-3.762v-16.467H695.787z"/>
				<path fill="#FFFFFF" d="M697.906,498.148c0-4.847,3.6-8.563,8.563-8.563c2.986,0,5.622,1.481,7.057,3.812l-3.245,1.88
					c-0.732-1.27-2.141-2.021-3.812-2.021c-2.918,0-4.801,1.953-4.801,4.894c0,2.939,1.883,4.893,4.801,4.893
					c1.671,0,3.104-0.752,3.812-2.023l3.245,1.882c-1.412,2.33-4.045,3.812-7.057,3.812
					C701.506,506.71,697.906,502.994,697.906,498.148z"/>
				<path fill="#FFFFFF" d="M725.64,502.758v3.623h-10.351v-16.467h10.231v3.623h-6.469v2.728h5.883v3.576h-5.883v2.917H725.64z"/>
				<path fill="#FFFFFF" d="M733.309,500.97h-1.789v5.411h-3.764v-16.467h6.586c3.131,0,5.646,2.516,5.646,5.646
					c0,2.021-1.224,3.856-3.034,4.773l3.505,6.047h-4.046L733.309,500.97z M731.52,497.676h2.822c1.035,0,1.883-0.916,1.883-2.115
					c0-1.201-0.848-2.118-1.883-2.118h-2.822V497.676z"/>
				<path fill="#FFFFFF" d="M741.164,502.64l3.245-1.882c0.589,1.365,1.6,2.282,3.46,2.282c1.789,0,2.235-0.704,2.235-1.341
					c0-1.013-0.942-1.411-3.412-2.094c-2.449-0.681-4.847-1.858-4.847-5.011c0-3.176,2.683-5.011,5.528-5.011
					c2.706,0,4.822,1.293,6.022,3.717l-3.176,1.859c-0.563-1.178-1.34-1.906-2.847-1.906c-1.177,0-1.765,0.587-1.765,1.246
					c0,0.754,0.399,1.271,2.964,2.048c2.493,0.753,5.294,1.623,5.294,5.104c0,3.176-2.542,5.058-6.116,5.058
					C744.292,506.71,742.081,505.064,741.164,502.64z"/>
			</g>
		</g>
	</g>
	<g>
		<g>
			<path fill="#FFFFFF" d="M363.883,186.157c-1.181,0-2.138-0.959-2.138-2.14l-0.008-46.396c0-1.181,0.958-2.138,2.139-2.138
				s2.138,0.958,2.138,2.138l0.008,46.396C366.021,185.198,365.064,186.157,363.883,186.157z"/>
		</g>
		<g>
			<path fill="#FFFFFF" d="M363.813,187.311l-8.683-10.625c-0.747-0.913-0.611-2.261,0.303-3.009
				c0.914-0.745,2.261-0.611,3.01,0.304l5.51,6.743l5.797-6.505c0.785-0.883,2.135-0.96,3.02-0.174
				c0.881,0.786,0.958,2.138,0.173,3.02L363.813,187.311z"/>
		</g>
		<g>
			<path fill="#FFFFFF" d="M371.034,148.416c-0.619,0-1.233-0.268-1.657-0.785l-5.513-6.745l-5.793,6.505
				c-0.784,0.881-2.138,0.96-3.019,0.174c-0.882-0.785-0.96-2.137-0.174-3.018l9.125-10.248l8.687,10.625
				c0.747,0.914,0.612,2.262-0.303,3.009C371.99,148.259,371.51,148.416,371.034,148.416z"/>
		</g>
	</g>
	<g>
		<g>
			<path fill="#FFFFFF" d="M695.553,137.749h-6.117l-0.824,2.588h-4.117l5.6-16.468h4.798l5.601,16.468h-4.117L695.553,137.749z
				 M694.424,134.22l-1.931-6.046l-1.929,6.046H694.424z"/>
			<path fill="#FFFFFF" d="M711.547,136.713v3.624h-9.646v-16.468h3.763v12.844H711.547z"/>
			<path fill="#FFFFFF" d="M728.556,132.574c0,5.033-3.507,8.092-8.117,8.092c-5.175,0-8.892-3.812-8.892-8.539
				c0-4.776,3.787-8.587,8.632-8.587c3.154,0,5.812,1.552,7.2,3.764l-3.199,1.835c-0.683-1.082-2.165-1.929-4.023-1.929
				c-2.775,0-4.847,2.047-4.847,4.94c0,2.799,1.979,4.847,5.177,4.847c2.188,0,3.623-0.964,4.21-2.541h-4.398v-3.293h8.258V132.574z
				"/>
			<path fill="#FFFFFF" d="M729.963,132.103c0-4.846,3.834-8.563,8.564-8.563c4.728,0,8.563,3.717,8.563,8.563
				s-3.835,8.563-8.563,8.563C733.797,140.666,729.963,136.948,729.963,132.103z M743.326,132.103c0-2.94-2.118-4.893-4.799-4.893
				c-2.683,0-4.802,1.953-4.802,4.893c0,2.94,2.119,4.894,4.802,4.894C741.208,136.996,743.326,135.042,743.326,132.103z"/>
			<path fill="#FFFFFF" d="M754.757,134.925h-1.789v5.412h-3.764v-16.468h6.586c3.131,0,5.646,2.517,5.646,5.646
				c0,2.023-1.224,3.859-3.034,4.775l3.505,6.047h-4.045L754.757,134.925z M752.968,131.631h2.822c1.037,0,1.884-0.917,1.884-2.117
				c0-1.199-0.847-2.117-1.884-2.117h-2.822V131.631z"/>
			<path fill="#FFFFFF" d="M767.432,123.869v16.468h-3.762v-16.468H767.432z"/>
			<path fill="#FFFFFF" d="M781.314,127.491h-4.236v12.846h-3.765v-12.846h-4.232v-3.623h12.233V127.491z"/>
			<path fill="#FFFFFF" d="M795.662,123.869v16.468H791.9v-6.541h-5.178v6.541h-3.764v-16.468h3.764v6.305h5.178v-6.305H795.662z"/>
			<path fill="#FFFFFF" d="M814.951,140.337h-3.765v-9.575l-4.258,6.987h-0.422l-4.261-6.987v9.575h-3.763v-16.468h3.763
				l4.472,7.316l4.469-7.316h3.765V140.337z"/>
			<path fill="#FFFFFF" d="M822.946,132.103c0-4.846,3.834-8.563,8.564-8.563c4.727,0,8.56,3.717,8.56,8.563
				s-3.833,8.563-8.56,8.563C826.78,140.666,822.946,136.948,822.946,132.103z M836.309,132.103c0-2.94-2.117-4.893-4.798-4.893
				c-2.686,0-4.802,1.953-4.802,4.893c0,2.94,2.116,4.894,4.802,4.894C834.191,136.996,836.309,135.042,836.309,132.103z"/>
			<path fill="#FFFFFF" d="M845.951,127.491v3.177h6.117v3.622h-6.117v6.047h-3.764v-16.468h9.998v3.623H845.951z"/>
			<path fill="#FFFFFF" d="M726.296,163.859h-3.766v-9.575l-4.257,6.987h-0.422l-4.261-6.987v9.575h-3.763v-16.468h3.763
				l4.472,7.316l4.468-7.316h3.766V163.859z"/>
			<path fill="#FFFFFF" d="M728.998,158.542v-11.152h3.764v10.822c0,1.247,0.588,2.306,2.587,2.306c2,0,2.589-1.059,2.589-2.306
				v-10.822h3.764v11.152c0,3.529-2.73,5.646-6.353,5.646C731.726,164.188,728.998,162.072,728.998,158.542z"/>
			<path fill="#FFFFFF" d="M754.05,160.235v3.624h-9.646v-16.468h3.764v12.844H754.05z"/>
			<path fill="#FFFFFF" d="M765.106,151.014h-4.234v12.845h-3.767v-12.845h-4.232v-3.623h12.233V151.014z"/>
			<path fill="#FFFFFF" d="M770.515,147.391v16.468h-3.763v-16.468H770.515z"/>
			<path fill="#FFFFFF" d="M782.984,160.235v3.624h-9.646v-16.468h3.764v12.844H782.984z"/>
			<path fill="#FFFFFF" d="M794.979,160.235v3.624h-10.351v-16.468h10.231v3.623h-6.468v2.73h5.883v3.574h-5.883v2.917H794.979z"/>
			<path fill="#FFFFFF" d="M795.683,147.391h4.117l3.646,12.116l3.647-12.116h4.115l-5.363,16.468h-4.798L795.683,147.391z"/>
			<path fill="#FFFFFF" d="M822.97,160.235v3.624h-10.351v-16.468h10.231v3.623h-6.468v2.73h5.882v3.574h-5.882v2.917H822.97z"/>
			<path fill="#FFFFFF" d="M834.732,160.235v3.624h-9.646v-16.468h3.763v12.844H834.732z"/>
			<path fill="#FFFFFF" d="M695.221,170.914h4.114l3.648,12.116l3.648-12.116h4.115l-5.363,16.468h-4.8L695.221,170.914z"/>
			<path fill="#FFFFFF" d="M722.508,183.758v3.623h-10.352v-16.468h10.232v3.622h-6.469v2.729h5.882v3.576h-5.882v2.917H722.508z"/>
			<path fill="#FFFFFF" d="M730.175,181.97h-1.789v5.411h-3.764v-16.468h6.588c3.131,0,5.646,2.517,5.646,5.646
				c0,2.022-1.223,3.857-3.034,4.774l3.504,6.047h-4.044L730.175,181.97z M728.386,178.676h2.824c1.035,0,1.884-0.916,1.884-2.116
				s-0.849-2.117-1.884-2.117h-2.824V178.676z"/>
			<path fill="#FFFFFF" d="M742.853,170.914v16.468h-3.764v-16.468H742.853z"/>
			<path fill="#FFFFFF" d="M749.438,174.536v3.178h6.118v3.621h-6.118v6.047h-3.764v-16.468h9.999v3.622H749.438z"/>
			<path fill="#FFFFFF" d="M761.669,170.914v16.468h-3.763v-16.468H761.669z"/>
			<path fill="#FFFFFF" d="M763.786,179.148c0-4.847,3.601-8.563,8.564-8.563c2.986,0,5.622,1.481,7.057,3.811l-3.245,1.881
				c-0.73-1.269-2.141-2.021-3.812-2.021c-2.918,0-4.801,1.952-4.801,4.894c0,2.939,1.883,4.893,4.801,4.893
				c1.671,0,3.105-0.752,3.812-2.023l3.245,1.882c-1.412,2.33-4.045,3.813-7.057,3.813
				C767.387,187.711,763.786,183.994,763.786,179.148z"/>
			<path fill="#FFFFFF" d="M790.815,184.794h-6.116l-0.825,2.587h-4.116l5.599-16.468h4.799l5.602,16.468h-4.119L790.815,184.794z
				 M789.686,181.264l-1.93-6.046l-1.927,6.046H789.686z"/>
			<path fill="#FFFFFF" d="M807.047,174.536h-4.234v12.846h-3.765v-12.846h-4.233v-3.622h12.232V174.536z"/>
			<path fill="#FFFFFF" d="M812.453,170.914v16.468h-3.762v-16.468H812.453z"/>
			<path fill="#FFFFFF" d="M814.571,179.148c0-4.847,3.834-8.563,8.564-8.563c4.727,0,8.563,3.717,8.563,8.563
				c0,4.846-3.836,8.563-8.563,8.563C818.405,187.711,814.571,183.994,814.571,179.148z M827.936,179.148
				c0-2.941-2.118-4.894-4.8-4.894c-2.684,0-4.801,1.952-4.801,4.894c0,2.939,2.117,4.893,4.801,4.893
				C825.817,184.041,827.936,182.087,827.936,179.148z"/>
			<path fill="#FFFFFF" d="M846.752,170.914v16.468h-2.822l-6.354-8.94v8.94h-3.763v-16.468h2.822l6.354,8.938v-8.938H846.752z"/>
		</g>
	</g>
	<g>
		
			<line fill-rule="evenodd" clip-rule="evenodd" fill="none" stroke="#FFFFFF" stroke-width="2" stroke-linecap="round" stroke-miterlimit="10" x1="643.608" y1="253.292" x2="720.078" y2="253.281"/>
		
			<polyline fill-rule="evenodd" clip-rule="evenodd" fill="none" stroke="#FFFFFF" stroke-width="2" stroke-linecap="round" stroke-miterlimit="10" points="
			711.736,245.879 720.11,253.343 711.424,260.439 		"/>
	</g>
	<g>
		<g>
			<g>
				<g>
					<path fill-rule="evenodd" clip-rule="evenodd" fill="#FFFFFF" d="M761.383,274.087c0-0.274,0-0.492,0-0.704
						c0-5.747-0.024-11.49,0.004-17.237c0.021-5.234,3.292-9.264,8.333-10.341c4.28-0.911,8.968,1.314,11.022,5.203
						c0.864,1.633,1.223,3.368,1.206,5.213c-0.025,5.688-0.007,11.378,0,17.065c0,0.249,0,0.497,0,0.801
						C775.092,274.087,768.296,274.087,761.383,274.087z"/>
					<path fill-rule="evenodd" clip-rule="evenodd" fill="#FFFFFF" d="M778.228,237.348c-0.021,3.583-3,6.504-6.607,6.477
						c-3.609-0.027-6.491-2.97-6.466-6.603c0.033-3.629,2.99-6.583,6.549-6.532C775.362,230.739,778.239,233.683,778.228,237.348z"
						/>
				</g>
			</g>
		</g>
		<g>
			<g>
				<g>
					<path fill-rule="evenodd" clip-rule="evenodd" fill="#FFFFFF" d="M790.097,274.087c0-0.274,0-0.492,0-0.704
						c0-5.747-0.021-11.49,0.01-17.237c0.021-5.234,3.289-9.264,8.336-10.341c4.277-0.911,8.959,1.314,11.013,5.203
						c0.865,1.633,1.219,3.368,1.212,5.213c-0.03,5.688-0.01,11.378,0,17.065c0,0.249,0,0.497,0,0.801
						C803.805,274.087,797.013,274.087,790.097,274.087z"/>
					<path fill-rule="evenodd" clip-rule="evenodd" fill="#FFFFFF" d="M806.941,237.348c-0.017,3.583-2.999,6.504-6.604,6.477
						c-3.608-0.027-6.49-2.97-6.464-6.603c0.032-3.629,2.992-6.583,6.548-6.532C804.079,230.739,806.958,233.683,806.941,237.348z"
						/>
				</g>
			</g>
		</g>
		<g>
			<g>
				<g>
					<path fill-rule="evenodd" clip-rule="evenodd" fill="#FFFFFF" d="M732.661,274.087c0-0.274,0-0.492,0-0.704
						c0-5.747-0.021-11.49,0.009-17.237c0.02-5.234,3.294-9.264,8.332-10.341c4.284-0.911,8.971,1.314,11.025,5.203
						c0.856,1.633,1.216,3.368,1.206,5.213c-0.028,5.688-0.012,11.378-0.003,17.065c0,0.249,0,0.497,0,0.801
						C746.368,274.087,739.577,274.087,732.661,274.087z"/>
					<path fill-rule="evenodd" clip-rule="evenodd" fill="#FFFFFF" d="M749.514,237.348c-0.025,3.583-3.003,6.504-6.612,6.477
						c-3.607-0.027-6.49-2.97-6.46-6.603c0.029-3.629,2.989-6.583,6.547-6.532C746.648,230.739,749.522,233.683,749.514,237.348z"/>
				</g>
			</g>
		</g>
		<g>
			<g>
				<g>
					<path fill-rule="evenodd" clip-rule="evenodd" fill="#FFFFFF" d="M778.876,256.066c0-0.19,0-0.346,0-0.496
						c0-4.006-0.014-8.01,0.003-12.019c0.014-3.65,2.292-6.459,5.814-7.211c2.986-0.638,6.252,0.915,7.684,3.63
						c0.597,1.138,0.849,2.345,0.839,3.635c-0.016,3.967-0.004,7.935,0,11.901c0,0.171,0,0.344,0,0.56
						C788.435,256.066,783.699,256.066,778.876,256.066z"/>
					<path fill-rule="evenodd" clip-rule="evenodd" fill="#FFFFFF" d="M790.624,230.443c-0.014,2.501-2.093,4.536-4.611,4.519
						c-2.514-0.02-4.523-2.075-4.507-4.604c0.021-2.532,2.087-4.591,4.569-4.558C788.623,225.833,790.631,227.887,790.624,230.443z"
						/>
				</g>
			</g>
		</g>
		<g>
			<g>
				<g>
					<path fill-rule="evenodd" clip-rule="evenodd" fill="#FFFFFF" d="M750.053,256.066c0-0.19,0-0.346,0-0.496
						c0-4.006-0.018-8.01,0-12.019c0.017-3.65,2.296-6.459,5.818-7.211c2.981-0.638,6.251,0.915,7.68,3.63
						c0.603,1.138,0.848,2.345,0.843,3.635c-0.017,3.967-0.008,7.935,0,11.901c0,0.171,0,0.344,0,0.56
						C759.607,256.066,754.872,256.066,750.053,256.066z"/>
					<path fill-rule="evenodd" clip-rule="evenodd" fill="#FFFFFF" d="M761.801,230.443c-0.017,2.501-2.097,4.536-4.611,4.519
						c-2.514-0.02-4.527-2.075-4.506-4.604c0.021-2.532,2.084-4.591,4.565-4.558C759.801,225.833,761.809,227.887,761.801,230.443z"
						/>
				</g>
			</g>
		</g>
	</g>
	<g>
		<g>
			<path fill="#FFFFFF" d="M719.005,301.93c0-4.846,3.836-8.563,8.564-8.563s8.563,3.718,8.563,8.563s-3.834,8.563-8.563,8.563
				S719.005,306.776,719.005,301.93z M732.368,301.93c0-2.939-2.117-4.893-4.799-4.893c-2.683,0-4.802,1.953-4.802,4.893
				c0,2.94,2.119,4.896,4.802,4.896C730.251,306.826,732.368,304.871,732.368,301.93z"/>
			<path fill="#FFFFFF" d="M742.01,297.32v3.176h6.119v3.623h-6.119v6.045h-3.763v-16.467h10v3.623H742.01z"/>
			<path fill="#FFFFFF" d="M754.241,297.32v3.176h6.117v3.623h-6.117v6.045h-3.764v-16.467h10v3.623H754.241z"/>
			<path fill="#FFFFFF" d="M766.474,293.697v16.467h-3.764v-16.467H766.474z"/>
			<path fill="#FFFFFF" d="M768.589,301.93c0-4.846,3.601-8.563,8.564-8.563c2.987,0,5.622,1.482,7.056,3.812l-3.244,1.883
				c-0.731-1.27-2.142-2.023-3.812-2.023c-2.917,0-4.801,1.953-4.801,4.893c0,2.94,1.884,4.896,4.801,4.896
				c1.67,0,3.105-0.754,3.812-2.025l3.244,1.882c-1.411,2.33-4.044,3.812-7.056,3.812
				C772.189,310.494,768.589,306.776,768.589,301.93z"/>
			<path fill="#FFFFFF" d="M796.324,306.541v3.623h-10.353v-16.467h10.233v3.623h-6.47v2.729h5.882v3.576h-5.882v2.916H796.324z"/>
			<path fill="#FFFFFF" d="M803.992,304.754h-1.79v5.409h-3.763v-16.467h6.586c3.131,0,5.647,2.519,5.647,5.646
				c0,2.021-1.224,3.859-3.034,4.775l3.505,6.045h-4.045L803.992,304.754z M802.202,301.459h2.823c1.036,0,1.885-0.917,1.885-2.116
				s-0.849-2.117-1.885-2.117h-2.823V301.459z"/>
			<path fill="#FFFFFF" d="M811.848,306.425l3.247-1.885c0.588,1.366,1.599,2.285,3.457,2.285c1.79,0,2.237-0.707,2.237-1.343
				c0-1.013-0.942-1.411-3.412-2.094c-2.448-0.682-4.848-1.857-4.848-5.012c0-3.175,2.684-5.011,5.529-5.011
				c2.705,0,4.822,1.294,6.022,3.718l-3.176,1.858c-0.563-1.178-1.341-1.905-2.847-1.905c-1.177,0-1.763,0.589-1.763,1.246
				c0,0.754,0.397,1.27,2.962,2.047c2.494,0.754,5.294,1.623,5.294,5.105c0,3.176-2.541,5.058-6.116,5.058
				C814.977,310.494,812.766,308.847,811.848,306.425z"/>
		</g>
	</g>
	
		<linearGradient id="SVGID_3_" gradientUnits="userSpaceOnUse" x1="-4231.3477" y1="2128.9165" x2="-4122.8291" y2="2128.9165" gradientTransform="matrix(0 -1 1 0 -1767.7632 -3929.7349)">
		<stop  offset="0" style="stop-color:#706DCB;stop-opacity:0.3"/>
		<stop  offset="1" style="stop-color:#706DCB"/>
	</linearGradient>
	<path fill-rule="evenodd" clip-rule="evenodd" fill="url(#SVGID_3_)" d="M80.841,208.478c0-8.494,6.883-15.384,15.382-15.384
		h529.859c8.496,0,15.383,6.89,15.383,15.384v77.751c0,8.496-6.887,15.384-15.383,15.384H96.224c-8.5,0-15.382-6.888-15.382-15.384
		V208.478z"/>
	<g>
		<path fill="#FFFFFF" d="M626.083,307.596H96.228c-9.664,0-17.525-7.86-17.525-17.524v-77.747c0-9.662,7.861-17.522,17.525-17.522
			h529.855c9.664,0,17.525,7.86,17.525,17.522v77.747C643.608,299.736,635.747,307.596,626.083,307.596z M96.228,199.079
			c-7.305,0-13.248,5.943-13.248,13.246v77.747c0,7.305,5.943,13.248,13.248,13.248h529.855c7.305,0,13.248-5.943,13.248-13.248
			v-77.747c0-7.303-5.943-13.246-13.248-13.246H96.228z"/>
	</g>
	<g>
		<g>
			<path fill="#FFFFFF" d="M284.837,242.509h-10.011l-1.348,4.235h-6.738l9.163-26.951h7.854l9.163,26.951h-6.737L284.837,242.509z
				 M282.989,236.733l-3.158-9.894l-3.158,9.894H282.989z"/>
			<path fill="#FFFFFF" d="M304.311,237.887h-2.926v8.857h-6.16v-26.951h10.782c5.12,0,9.24,4.119,9.24,9.24
				c0,3.309-2.003,6.316-4.968,7.815l5.739,9.896h-6.624L304.311,237.887z M301.385,232.498h4.622c1.693,0,3.08-1.501,3.08-3.464
				c0-1.965-1.387-3.466-3.08-3.466h-4.622V232.498z"/>
			<path fill="#FFFFFF" d="M336.416,225.722h-6.931v21.022h-6.16v-21.022h-6.932v-5.929h20.023V225.722z"/>
			<path fill="#FFFFFF" d="M345.264,219.793v26.951h-6.16v-26.951H345.264z"/>
			<path fill="#FFFFFF" d="M356.042,225.722v5.197h10.012v5.93h-10.012v9.896h-6.161v-26.951h16.364v5.929H356.042z"/>
			<path fill="#FFFFFF" d="M376.056,219.793v26.951h-6.161v-26.951H376.056z"/>
			<path fill="#FFFFFF" d="M379.518,233.269c0-7.931,5.891-14.016,14.015-14.016c4.891,0,9.203,2.426,11.552,6.239l-5.315,3.078
				c-1.192-2.079-3.504-3.312-6.237-3.312c-4.774,0-7.854,3.195-7.854,8.01c0,4.813,3.081,8.008,7.854,8.008
				c2.733,0,5.083-1.232,6.237-3.311l5.315,3.079c-2.312,3.813-6.625,6.237-11.552,6.237
				C385.409,247.283,379.518,241.201,379.518,233.269z"/>
			<path fill="#FFFFFF" d="M414.123,219.793v26.951h-6.16v-26.951H414.123z"/>
			<path fill="#FFFFFF" d="M434.527,242.509h-10.011l-1.347,4.235h-6.739l9.164-26.951h7.854l9.166,26.951h-6.739L434.527,242.509z
				 M432.679,236.733l-3.157-9.894l-3.158,9.894H432.679z"/>
			<path fill="#FFFFFF" d="M460.702,240.816v5.929h-15.787v-26.951h6.16v21.022H460.702z"/>
			<path fill="#FFFFFF" d="M247.631,254.007v26.951h-6.161v-26.951H247.631z"/>
			<path fill="#FFFFFF" d="M273.425,254.007v26.951h-4.621l-10.396-14.63v14.63h-6.16v-26.951h4.621l10.396,14.63v-14.63H273.425z"
				/>
			<path fill="#FFFFFF" d="M296.133,259.936h-6.931v21.022h-6.16v-21.022h-6.931v-5.929h20.022V259.936z"/>
			<path fill="#FFFFFF" d="M315.765,275.03v5.929h-16.942v-26.951h16.75v5.929h-10.589v4.468h9.627v5.851h-9.627v4.775H315.765z"/>
			<path fill="#FFFFFF" d="M335.008,275.03v5.929h-15.787v-26.951h6.16v21.022H335.008z"/>
			<path fill="#FFFFFF" d="M353.485,275.03v5.929h-15.787v-26.951h6.161v21.022H353.485z"/>
			<path fill="#FFFFFF" d="M362.333,254.007v26.951h-6.16v-26.951H362.333z"/>
			<path fill="#FFFFFF" d="M393.633,268.254c0,8.237-5.736,13.244-13.284,13.244c-8.469,0-14.552-6.237-14.552-13.979
				c0-7.813,6.2-14.051,14.131-14.051c5.158,0,9.51,2.542,11.782,6.161l-5.237,3.001c-1.118-1.771-3.542-3.156-6.585-3.156
				c-4.542,0-7.931,3.351-7.931,8.086c0,4.581,3.235,7.93,8.471,7.93c3.581,0,5.93-1.578,6.893-4.157h-7.201v-5.392h13.514V268.254z
				"/>
			<path fill="#FFFFFF" d="M414.031,275.03v5.929h-16.942v-26.951h16.75v5.929h-10.589v4.468h9.627v5.851h-9.627v4.775H414.031z"/>
			<path fill="#FFFFFF" d="M438.666,254.007v26.951h-4.621l-10.396-14.63v14.63h-6.159v-26.951h4.621l10.396,14.63v-14.63H438.666z"
				/>
			<path fill="#FFFFFF" d="M442.123,267.483c0-7.932,5.891-14.014,14.015-14.014c4.891,0,9.203,2.424,11.552,6.237l-5.315,3.078
				c-1.192-2.079-3.504-3.31-6.237-3.31c-4.774,0-7.854,3.195-7.854,8.008c0,4.814,3.08,8.008,7.854,8.008
				c2.733,0,5.083-1.23,6.237-3.311l5.315,3.081c-2.312,3.812-6.624,6.237-11.552,6.237
				C448.014,281.499,442.123,275.415,442.123,267.483z"/>
			<path fill="#FFFFFF" d="M487.511,275.03v5.929h-16.942v-26.951h16.75v5.929h-10.59v4.468h9.627v5.851h-9.627v4.775H487.511z"/>
		</g>
	</g>
	<g>
		
			<linearGradient id="SVGID_4_" gradientUnits="userSpaceOnUse" x1="-4051.0825" y1="2128.9165" x2="-3929.7349" y2="2128.9165" gradientTransform="matrix(0 -1 1 0 -1767.7632 -3929.7349)">
			<stop  offset="0" style="stop-color:#706DCB;stop-opacity:0"/>
			<stop  offset="1" style="stop-color:#706DCB;stop-opacity:0.7"/>
		</linearGradient>
		<path fill-rule="evenodd" clip-rule="evenodd" fill="url(#SVGID_4_)" d="M80.841,15.384C80.841,6.889,87.724,0,96.224,0h529.859
			c8.496,0,15.383,6.889,15.383,15.384v90.579c0,8.498-6.887,15.385-15.383,15.385H96.224c-8.5,0-15.382-6.887-15.382-15.385V15.384
			z"/>
		<g>
			<path fill="#FFFFFF" d="M626.083,127.333H96.228c-9.664,0-17.525-7.862-17.525-17.526V19.231c0-9.663,7.861-17.523,17.525-17.523
				h529.855c9.664,0,17.525,7.86,17.525,17.523v90.576C643.608,119.471,635.747,127.333,626.083,127.333z M96.228,5.985
				c-7.305,0-13.248,5.942-13.248,13.246v90.576c0,7.306,5.943,13.249,13.248,13.249h529.855c7.305,0,13.248-5.943,13.248-13.249
				V19.231c0-7.304-5.943-13.246-13.248-13.246H96.228z"/>
		</g>
	</g>
	<g>
		<defs>
			<rect id="SVGID_5_" x="500.361" y="196.942" width="138.737" height="107.779"/>
		</defs>
		<clipPath id="SVGID_6_">
			<use xlink:href="#SVGID_5_"  overflow="visible"/>
		</clipPath>
		<g opacity="0.4" clip-path="url(#SVGID_6_)">
			<g>
				<path fill="#FFFFFF" d="M558.938,290.303c2.121,0.453,4.242,0.896,6.356,1.382l6.348,1.431c4.227,0.933,8.433,1.961,12.65,2.95
					c4.211,1.026,8.422,2.025,12.623,3.081c4.201,1.063,8.412,2.099,12.597,3.18l-1.107,2.093l-7.255-6.328
					c-2.418-2.1-4.816-4.239-7.223-6.361l-7.203-6.395l-7.154-6.434l-7.13-6.473c-2.38-2.155-4.728-4.346-7.088-6.526
					c-2.372-2.169-4.687-4.395-7.024-6.591c-2.344-2.192-4.674-4.4-6.972-6.647c2.523,1.996,5,4.031,7.49,6.064
					c2.477,2.04,4.981,4.054,7.43,6.122c2.468,2.053,4.94,4.104,7.388,6.181l7.34,6.239l7.305,6.272l7.252,6.324
					c2.42,2.107,4.85,4.21,7.239,6.344l7.213,6.377l0.009,0.008c0.498,0.439,0.547,1.211,0.109,1.719
					c-0.318,0.354-0.803,0.477-1.233,0.369c-4.185-1.115-8.353-2.282-12.528-3.431c-4.178-1.145-8.346-2.336-12.521-3.508
					c-4.152-1.215-8.32-2.389-12.481-3.656l-6.214-1.864C563.071,291.609,561.009,290.953,558.938,290.303z"/>
			</g>
			<g>
				<path fill="#FFFFFF" d="M629.788,238.412c-0.747,2.748-1.492,5.501-2.281,8.226l-2.32,8.22
					c-0.766,2.742-1.588,5.462-2.382,8.198l-2.409,8.187c-1.625,5.45-3.271,10.9-4.941,16.333
					c-1.642,5.451-3.362,10.874-5.062,16.307l-1.964-1.345c5.059-4.139,10.179-8.202,15.278-12.304l7.669-6.099l7.696-6.078
					l7.727-6.039l7.764-5.996l7.815-5.93c2.593-1.98,5.215-3.941,7.853-5.874c-2.457,2.163-4.916,4.31-7.406,6.436l-7.438,6.395
					l-7.489,6.324l-7.526,6.29l-7.564,6.249l-7.57,6.218c-5.082,4.116-10.132,8.273-15.24,12.35l-0.008,0.004
					c-0.535,0.428-1.324,0.34-1.75-0.2c-0.264-0.334-0.33-0.77-0.213-1.154c1.736-5.419,3.441-10.84,5.232-16.239
					c1.755-5.415,3.543-10.82,5.351-16.21l2.727-8.092c0.923-2.691,1.805-5.396,2.761-8.073l2.816-8.066
					C627.851,243.762,628.814,241.083,629.788,238.412z"/>
			</g>
			<g>
				<path fill="#FFFFFF" d="M581.549,192.917c-2.005,2.675-4.026,5.341-6.081,7.979c-2.039,2.649-4.103,5.275-6.174,7.896
					c-2.055,2.634-4.168,5.221-6.247,7.833c-2.089,2.612-4.21,5.188-6.315,7.782l-0.697-1.879c3.111,0.448,6.23,0.915,9.352,1.397
					l9.359,1.447l9.342,1.509c3.113,0.503,6.217,1.044,9.327,1.57c3.103,0.519,6.223,1.063,9.318,1.621
					c3.11,0.558,6.214,1.111,9.317,1.698c6.207,1.155,12.396,2.371,18.578,3.693c-6.29-0.642-12.556-1.388-18.812-2.21
					c-3.137-0.395-6.265-0.822-9.386-1.25c-3.127-0.424-6.246-0.862-9.367-1.329c-3.128-0.461-6.248-0.889-9.359-1.376l-9.36-1.435
					l-9.343-1.505c-3.111-0.497-6.223-1.017-9.334-1.553l-0.025-0.006c-0.631-0.11-1.049-0.705-0.939-1.321
					c0.032-0.208,0.133-0.402,0.258-0.55c2.178-2.537,4.332-5.087,6.537-7.591c2.205-2.511,4.378-5.055,6.6-7.551
					c2.213-2.508,4.426-4.995,6.674-7.479C577.005,197.821,579.259,195.359,581.549,192.917z"/>
			</g>
			<g>
				<path fill="#FFFFFF" d="M521.507,257.587c1.586,1.234,3.162,2.482,4.723,3.746l4.67,3.827l4.615,3.869l4.578,3.905
					c1.537,1.304,3.035,2.634,4.548,3.949l4.544,3.969c2.986,2.679,6.014,5.321,8.967,8.033l-2.039,1.246
					c-0.889-3.448-1.812-6.881-2.65-10.345l-1.299-5.178l-1.241-5.201c-0.405-1.735-0.831-3.461-1.212-5.199l-1.182-5.213
					c-0.751-3.48-1.5-6.96-2.162-10.476c1.173,3.376,2.237,6.777,3.303,10.177l1.57,5.109c0.526,1.697,1.023,3.405,1.524,5.118
					l1.487,5.121l1.449,5.143c0.99,3.429,1.888,6.871,2.828,10.302c0.184,0.667-0.21,1.351-0.875,1.539
					c-0.416,0.109-0.838,0-1.156-0.27l-0.008-0.016c-3.011-2.663-5.947-5.396-8.934-8.086l-4.428-4.09
					c-1.465-1.372-2.943-2.719-4.394-4.11l-4.368-4.151l-4.336-4.19l-4.289-4.235C524.317,260.46,522.909,259.03,521.507,257.587z"
					/>
			</g>
			<g>
				<path fill="#FFFFFF" d="M536.041,223.038c-1.065,2.937-2.197,5.845-3.313,8.773c-1.106,2.916-2.255,5.819-3.403,8.728
					c-1.166,2.896-2.314,5.808-3.496,8.695c-1.187,2.889-2.352,5.786-3.566,8.669l-0.998-1.099c4.176-1.368,8.36-2.717,12.555-4.029
					c2.096-0.676,4.193-1.333,6.297-1.973l6.307-1.939l-0.425,0.909c-1.47-3.982-2.919-7.973-4.335-11.969l-2.088-6.008
					c-0.706-2.01-1.387-4.01-2.057-6.023c0.849,1.937,1.684,3.892,2.506,5.853l2.457,5.864c1.611,3.92,3.207,7.847,4.791,11.786
					c0.141,0.346-0.025,0.748-0.377,0.878l-0.041,0.018l-0.01,0.004l-6.264,2.092c-2.08,0.701-4.168,1.39-6.265,2.066
					c-4.178,1.368-8.362,2.709-12.556,4.032h-0.008c-0.431,0.133-0.89-0.11-1.023-0.538c-0.066-0.188-0.042-0.391,0.025-0.562
					c1.207-2.877,2.463-5.741,3.704-8.606c1.241-2.869,2.511-5.72,3.768-8.587c1.274-2.844,2.539-5.701,3.858-8.534
					C533.401,228.704,534.683,225.85,536.041,223.038z"/>
			</g>
			<g>
				<path fill="#FFFFFF" d="M578.597,194.107c-1.668,1.239-3.346,2.462-5.025,3.669l-5.05,3.639
					c-3.387,2.414-6.782,4.797-10.187,7.166l-10.249,7.048c-3.445,2.332-6.862,4.681-10.315,6.974l-0.344-1.514l9.261,1.384
					l9.255,1.446h0.017c0.354,0.056,0.605,0.393,0.556,0.764c-0.018,0.041-0.025,0.093-0.051,0.132
					c-1.449,3.705-2.936,7.399-4.436,11.077c-1.535,3.671-3.02,7.364-4.605,11.017c1.215-3.79,2.543-7.54,3.808-11.311
					c1.316-3.761,2.64-7.514,3.984-11.254l0.534,0.9l-9.283-1.225l-9.268-1.286c-0.46-0.061-0.777-0.482-0.711-0.936
					c0.025-0.239,0.15-0.447,0.344-0.573l0.016-0.004c3.421-2.338,6.887-4.626,10.325-6.935l10.399-6.844
					c3.479-2.267,6.963-4.518,10.467-6.746l5.273-3.315C575.058,196.273,576.817,195.18,578.597,194.107z"/>
			</g>
			<g>
				<path fill="#FFFFFF" d="M551.355,248.521c6.649-1.232,13.311-2.428,19.97-3.613l19.984-3.552l39.99-6.886
					c0.191-0.029,0.368-0.008,0.543,0.053l0.017,0.01c6.913,2.785,13.787,5.669,20.682,8.503l20.667,8.54
					c0.509,0.212,0.789,0.72,0.722,1.232v0.002l-2.885,23.324c-0.949,7.771-1.988,15.537-2.987,23.308v0.006
					c-0.05,0.404-0.31,0.74-0.639,0.916l-14.986,7.749l0.46-1.635l11.423,18.787l5.698,9.396l5.65,9.427l0.007,0.021
					c0.275,0.436,0.127,1.019-0.316,1.279c-0.325,0.192-0.697,0.171-0.99-0.008l-30.693-19.676l-15.29-9.926
					c-5.108-3.291-10.2-6.618-15.273-9.962c5.217,3.13,10.415,6.261,15.616,9.421l15.582,9.464l31.057,19.085l-1.299,1.288
					l-5.822-9.327l-5.784-9.349l-11.535-18.706c-0.343-0.544-0.168-1.256,0.37-1.59l0.067-0.037l0.008-0.008l14.937-7.837
					l-0.643,0.918c0.973-7.771,1.898-15.552,2.905-23.314l3.021-23.306l0.714,1.23l-20.615-8.651
					c-6.866-2.904-13.754-5.757-20.599-8.702l0.547,0.063l-40.119,6.169l-20.074,2.983
					C564.741,246.61,558.056,247.578,551.355,248.521z"/>
			</g>
			<g>
				<path fill="#FFFFFF" d="M561.539,220.509l11.297-7.87l11.327-7.837c7.568-5.213,15.105-10.463,22.695-15.625
					c0.313-0.217,0.748-0.134,0.957,0.179l0.033,0.059l0.016,0.008l23.703,43.009l-1.383-0.469l44.196-19.918
					c0.597-0.267,1.299,0,1.565,0.595c0.073,0.188,0.122,0.373,0.106,0.565v0.004l-1.112,18.329l-0.56,9.168l-0.589,9.16
					l-0.476-1.058l32.589,25.996l-1.836,1.058l-3.831-27.609l-3.692-27.623l0.614,0.707l-21.025-6.476l0.836-0.972
					c3.884,8.307,7.693,16.654,11.523,24.987l5.738,12.501l5.701,12.523l-6.103-12.335l-6.057-12.35
					c-4.026-8.241-8.084-16.465-12.068-24.727c-0.16-0.345-0.017-0.766,0.33-0.936c0.158-0.071,0.332-0.085,0.492-0.034h0.007
					l21.118,6.155c0.321,0.103,0.563,0.381,0.605,0.693v0.023l4.109,27.554l3.959,27.59c0.094,0.628-0.338,1.207-0.965,1.296
					c-0.32,0.049-0.631-0.051-0.864-0.235l-0.008-0.004l-32.72-25.827c-0.325-0.264-0.492-0.658-0.468-1.041v-0.016l0.572-9.166
					l0.603-9.159l1.206-18.32l1.671,1.162l-44.285,19.682l-0.016,0.004c-0.51,0.23-1.098,0.018-1.367-0.469l-23.054-43.362
					l0.999,0.246c-7.647,5.091-15.341,10.095-23.021,15.13l-11.523,7.549L561.539,220.509z"/>
			</g>
			<g>
				<polygon fill="#FFFFFF" points="583.503,193.333 583.361,192.492 602.54,189.339 602.683,190.167 				"/>
			</g>
			<g>
				<path fill="#FFFFFF" d="M670.23,211.868c-0.042,0-0.093-0.004-0.143-0.021l-57.114-20.119l0.275-0.794l55.631,19.597
					l-13.815-16.024l-44.071-4.334l0.084-0.836l44.242,4.346c0.101,0.009,0.209,0.063,0.275,0.147l14.96,17.347
					c0.118,0.139,0.135,0.353,0.025,0.516C670.496,211.805,670.363,211.868,670.23,211.868z"/>
			</g>
			<g>
				<path fill="#FFFFFF" d="M648.532,307.928c-0.017,0-0.017,0-0.025,0l-34.135-2.531l0.066-0.833l33.81,2.501l20.532-49.645
					l0.785,0.323l-20.645,49.924C648.867,307.829,648.699,307.928,648.532,307.928z"/>
			</g>
			<g>
				<path fill="#FFFFFF" d="M674.457,339.606l-7.59-37.279c-0.032-0.173,0.033-0.344,0.175-0.434l36.037-24.161l0.455,0.709
					l-35.786,23.994l7.531,37.007L674.457,339.606z"/>
			</g>
			<g>
				<polygon fill="#FFFFFF" points="693.176,218.128 661.153,197.692 661.61,196.981 693.627,217.415 				"/>
			</g>
			<radialGradient id="SVGID_7_" cx="675.8037" cy="343.1382" r="12.145" gradientUnits="userSpaceOnUse">
				<stop  offset="0.3172" style="stop-color:#FFFFFF;stop-opacity:0.7"/>
				<stop  offset="0.3215" style="stop-color:#FFFFFF;stop-opacity:0.6955"/>
				<stop  offset="1" style="stop-color:#FFFFFF;stop-opacity:0"/>
			</radialGradient>
			<path fill="url(#SVGID_7_)" d="M687.951,343.143c0,6.703-5.442,12.138-12.146,12.138c-6.707,0-12.149-5.435-12.149-12.138
				c0-6.71,5.442-12.147,12.149-12.147C682.509,330.996,687.951,336.433,687.951,343.143z"/>
			<radialGradient id="SVGID_8_" cx="608.9473" cy="301.1602" r="11.1697" gradientUnits="userSpaceOnUse">
				<stop  offset="0.3172" style="stop-color:#FFFFFF;stop-opacity:0.7"/>
				<stop  offset="0.3215" style="stop-color:#FFFFFF;stop-opacity:0.6955"/>
				<stop  offset="1" style="stop-color:#FFFFFF;stop-opacity:0"/>
			</radialGradient>
			<path fill="url(#SVGID_8_)" d="M620.12,301.161c0,6.161-5.01,11.166-11.174,11.166s-11.172-5.005-11.172-11.166
				c0-6.172,5.008-11.167,11.172-11.167S620.12,294.989,620.12,301.161z"/>
			<radialGradient id="SVGID_9_" cx="626.9756" cy="234.4526" r="24.2925" gradientUnits="userSpaceOnUse">
				<stop  offset="0.3172" style="stop-color:#FFFFFF;stop-opacity:0.7"/>
				<stop  offset="0.3215" style="stop-color:#FFFFFF;stop-opacity:0.6955"/>
				<stop  offset="1" style="stop-color:#FFFFFF;stop-opacity:0"/>
			</radialGradient>
			<path fill="url(#SVGID_9_)" d="M651.269,234.453c0,13.419-10.872,24.292-24.299,24.292c-13.416,0-24.287-10.873-24.287-24.292
				s10.871-24.292,24.287-24.292C640.396,210.161,651.269,221.034,651.269,234.453z"/>
			<radialGradient id="SVGID_10_" cx="672.7354" cy="252.6694" r="8.3696" gradientUnits="userSpaceOnUse">
				<stop  offset="0.3172" style="stop-color:#FFFFFF;stop-opacity:0.7"/>
				<stop  offset="0.3215" style="stop-color:#FFFFFF;stop-opacity:0.6955"/>
				<stop  offset="1" style="stop-color:#FFFFFF;stop-opacity:0"/>
			</radialGradient>
			<path fill="url(#SVGID_10_)" d="M681.104,252.665c0,4.626-3.745,8.375-8.36,8.375c-4.636,0-8.379-3.749-8.379-8.375
				c0-4.618,3.743-8.365,8.379-8.365C677.359,244.299,681.104,248.046,681.104,252.665z"/>
			<radialGradient id="SVGID_11_" cx="704.8643" cy="274.6924" r="16.2903" gradientUnits="userSpaceOnUse">
				<stop  offset="0.3172" style="stop-color:#FFFFFF;stop-opacity:0.7"/>
				<stop  offset="0.3215" style="stop-color:#FFFFFF;stop-opacity:0.6955"/>
				<stop  offset="1" style="stop-color:#FFFFFF;stop-opacity:0"/>
			</radialGradient>
			<path fill="url(#SVGID_11_)" d="M721.154,274.688c0,8.999-7.297,16.295-16.288,16.295c-8.997,0-16.293-7.296-16.293-16.295
				c0-8.991,7.296-16.286,16.293-16.286C713.857,258.402,721.154,265.697,721.154,274.688z"/>
			<radialGradient id="SVGID_12_" cx="556.333" cy="289.1094" r="16.2932" gradientUnits="userSpaceOnUse">
				<stop  offset="0.3172" style="stop-color:#FFFFFF;stop-opacity:0.7"/>
				<stop  offset="0.3215" style="stop-color:#FFFFFF;stop-opacity:0.6955"/>
				<stop  offset="1" style="stop-color:#FFFFFF;stop-opacity:0"/>
			</radialGradient>
			<path fill="url(#SVGID_12_)" d="M572.624,289.106c0,9.001-7.289,16.299-16.285,16.299c-9,0-16.297-7.298-16.297-16.299
				c0-8.995,7.297-16.292,16.297-16.292C565.335,272.814,572.624,280.111,572.624,289.106z"/>
			<radialGradient id="SVGID_13_" cx="557.5332" cy="223.0356" r="8.5986" gradientUnits="userSpaceOnUse">
				<stop  offset="0.3172" style="stop-color:#FFFFFF;stop-opacity:0.7"/>
				<stop  offset="0.3215" style="stop-color:#FFFFFF;stop-opacity:0.6955"/>
				<stop  offset="1" style="stop-color:#FFFFFF;stop-opacity:0"/>
			</radialGradient>
			<path fill="url(#SVGID_13_)" d="M566.134,223.038c0,4.744-3.852,8.595-8.596,8.595c-4.74,0-8.605-3.851-8.605-8.595
				c0-4.75,3.865-8.599,8.605-8.599C562.282,214.439,566.134,218.288,566.134,223.038z"/>
			<radialGradient id="SVGID_14_" cx="606.9736" cy="190.3828" r="16.2898" gradientUnits="userSpaceOnUse">
				<stop  offset="0.3172" style="stop-color:#FFFFFF;stop-opacity:0.7"/>
				<stop  offset="0.3215" style="stop-color:#FFFFFF;stop-opacity:0.6955"/>
				<stop  offset="1" style="stop-color:#FFFFFF;stop-opacity:0"/>
			</radialGradient>
			<path fill="url(#SVGID_14_)" d="M623.264,190.382c0,8.999-7.288,16.29-16.28,16.29c-8.996,0-16.301-7.291-16.301-16.29
				c0-8.992,7.305-16.289,16.301-16.289C615.976,174.093,623.264,181.39,623.264,190.382z"/>
			<radialGradient id="SVGID_15_" cx="675.8076" cy="214.186" r="11.2368" gradientUnits="userSpaceOnUse">
				<stop  offset="0.3172" style="stop-color:#FFFFFF;stop-opacity:0.7"/>
				<stop  offset="0.3215" style="stop-color:#FFFFFF;stop-opacity:0.6955"/>
				<stop  offset="1" style="stop-color:#FFFFFF;stop-opacity:0"/>
			</radialGradient>
			<path fill="url(#SVGID_15_)" d="M687.045,214.186c0,6.206-5.024,11.236-11.239,11.236c-6.197,0-11.236-5.03-11.236-11.236
				c0-6.202,5.039-11.236,11.236-11.236C682.021,202.95,687.045,207.984,687.045,214.186z"/>
			<radialGradient id="SVGID_16_" cx="534.0088" cy="220.5078" r="16.2917" gradientUnits="userSpaceOnUse">
				<stop  offset="0.3172" style="stop-color:#FFFFFF;stop-opacity:0.7"/>
				<stop  offset="0.3215" style="stop-color:#FFFFFF;stop-opacity:0.6955"/>
				<stop  offset="1" style="stop-color:#FFFFFF;stop-opacity:0"/>
			</radialGradient>
			<path fill="url(#SVGID_16_)" d="M550.3,220.509c0,8.995-7.297,16.291-16.297,16.291c-8.988,0-16.285-7.296-16.285-16.291
				c0-8.999,7.297-16.294,16.285-16.294C543.003,204.215,550.3,211.51,550.3,220.509z"/>
		</g>
	</g>
	<g>
		<defs>
			<rect id="SVGID_17_" x="82.058" y="196.942" width="138.736" height="107.779"/>
		</defs>
		<clipPath id="SVGID_18_">
			<use xlink:href="#SVGID_17_"  overflow="visible"/>
		</clipPath>
		<g opacity="0.4" clip-path="url(#SVGID_18_)">
			<g>
				<path fill="#FFFFFF" d="M162.218,290.303c-2.122,0.453-4.243,0.896-6.356,1.382l-6.349,1.431
					c-4.227,0.933-8.433,1.961-12.651,2.95c-4.21,1.026-8.42,2.025-12.622,3.081c-4.201,1.063-8.412,2.099-12.597,3.18l1.107,2.093
					l7.255-6.328c2.418-2.1,4.816-4.239,7.221-6.361l7.205-6.395l7.154-6.434l7.129-6.473c2.38-2.155,4.728-4.346,7.087-6.526
					c2.373-2.169,4.687-4.395,7.025-6.591c2.342-2.192,4.673-4.4,6.97-6.647c-2.522,1.996-4.999,4.031-7.488,6.064
					c-2.477,2.04-4.982,4.054-7.43,6.122c-2.468,2.053-4.941,4.104-7.388,6.181l-7.338,6.239l-7.305,6.272l-7.255,6.324
					c-2.418,2.107-4.849,4.21-7.238,6.344l-7.213,6.377l-0.008,0.008c-0.497,0.439-0.547,1.211-0.108,1.719
					c0.317,0.354,0.801,0.477,1.231,0.369c4.185-1.115,8.354-2.282,12.53-3.431c4.176-1.145,8.345-2.336,12.521-3.508
					c4.152-1.215,8.32-2.389,12.479-3.656l6.215-1.864C158.083,291.609,160.146,290.953,162.218,290.303z"/>
			</g>
			<g>
				<path fill="#FFFFFF" d="M91.366,238.412c0.748,2.748,1.491,5.501,2.281,8.226l2.322,8.22c0.764,2.742,1.587,5.462,2.381,8.198
					l2.409,8.187c1.625,5.45,3.271,10.9,4.941,16.333c1.641,5.451,3.361,10.874,5.062,16.307l1.963-1.345
					c-5.058-4.139-10.178-8.202-15.277-12.304l-7.668-6.099l-7.697-6.078l-7.726-6.039l-7.765-5.996l-7.814-5.93
					c-2.593-1.98-5.217-3.941-7.853-5.874c2.457,2.163,4.917,4.31,7.406,6.436l7.438,6.395l7.489,6.324l7.526,6.29l7.563,6.249
					l7.572,6.218c5.084,4.116,10.132,8.273,15.241,12.35l0.008,0.004c0.535,0.428,1.324,0.34,1.75-0.2
					c0.264-0.334,0.33-0.77,0.213-1.154c-1.737-5.419-3.441-10.84-5.233-16.239c-1.754-5.415-3.542-10.82-5.35-16.21l-2.728-8.092
					c-0.922-2.691-1.804-5.396-2.761-8.073l-2.814-8.066C93.304,243.762,92.339,241.083,91.366,238.412z"/>
			</g>
			<g>
				<path fill="#FFFFFF" d="M139.606,192.917c2.004,2.675,4.026,5.341,6.081,7.979c2.039,2.649,4.101,5.275,6.173,7.896
					c2.055,2.634,4.168,5.221,6.249,7.833c2.087,2.612,4.209,5.188,6.315,7.782l0.697-1.879c-3.112,0.448-6.231,0.915-9.352,1.397
					l-9.36,1.447l-9.343,1.509c-3.111,0.503-6.215,1.044-9.326,1.57c-3.103,0.519-6.223,1.063-9.317,1.621
					c-3.111,0.558-6.214,1.111-9.318,1.698c-6.207,1.155-12.396,2.371-18.578,3.693c6.291-0.642,12.555-1.388,18.811-2.21
					c3.138-0.395,6.266-0.822,9.385-1.25c3.128-0.424,6.248-0.862,9.368-1.329c3.128-0.461,6.249-0.889,9.36-1.376l9.359-1.435
					l9.343-1.505c3.112-0.497,6.223-1.017,9.334-1.553l0.025-0.006c0.63-0.11,1.048-0.705,0.94-1.321
					c-0.034-0.208-0.134-0.402-0.26-0.55c-2.175-2.537-4.331-5.087-6.536-7.591c-2.205-2.511-4.377-5.055-6.599-7.551
					c-2.214-2.508-4.427-4.995-6.675-7.479C144.15,197.821,141.895,195.359,139.606,192.917z"/>
			</g>
			<g>
				<path fill="#FFFFFF" d="M199.648,257.587c-1.587,1.234-3.161,2.482-4.724,3.746l-4.669,3.827l-4.616,3.869l-4.577,3.905
					c-1.537,1.304-3.036,2.634-4.548,3.949l-4.544,3.969c-2.987,2.679-6.015,5.321-8.967,8.033l2.039,1.246
					c0.89-3.448,1.812-6.881,2.652-10.345l1.298-5.178l1.241-5.201c0.405-1.735,0.831-3.461,1.211-5.199l1.182-5.213
					c0.751-3.48,1.5-6.96,2.164-10.476c-1.174,3.376-2.239,6.777-3.305,10.177l-1.57,5.109c-0.526,1.697-1.023,3.405-1.524,5.118
					l-1.487,5.121l-1.449,5.143c-0.991,3.429-1.889,6.871-2.828,10.302c-0.184,0.667,0.208,1.351,0.872,1.539
					c0.418,0.109,0.84,0,1.157-0.27l0.009-0.016c3.011-2.663,5.948-5.396,8.933-8.086l4.428-4.09
					c1.465-1.372,2.944-2.719,4.393-4.11l4.369-4.151l4.335-4.19l4.29-4.235C196.837,260.46,198.245,259.03,199.648,257.587z"/>
			</g>
			<g>
				<path fill="#FFFFFF" d="M185.114,223.038c1.065,2.937,2.196,5.845,3.312,8.773c1.106,2.916,2.255,5.819,3.403,8.728
					c1.166,2.896,2.314,5.808,3.496,8.695c1.187,2.889,2.352,5.786,3.568,8.669l0.998-1.099c-4.176-1.368-8.361-2.717-12.554-4.029
					c-2.097-0.676-4.194-1.333-6.298-1.973l-6.307-1.939l0.426,0.909c1.47-3.982,2.918-7.973,4.334-11.969l2.089-6.008
					c0.706-2.01,1.387-4.01,2.055-6.023c-0.848,1.937-1.683,3.892-2.506,5.853l-2.457,5.864c-1.612,3.92-3.207,7.847-4.791,11.786
					c-0.141,0.346,0.026,0.748,0.376,0.878l0.042,0.018l0.008,0.004l6.265,2.092c2.081,0.701,4.168,1.39,6.266,2.066
					c4.176,1.368,8.361,2.709,12.554,4.032h0.008c0.431,0.133,0.89-0.11,1.023-0.538c0.066-0.188,0.042-0.391-0.025-0.562
					c-1.207-2.877-2.463-5.741-3.704-8.606c-1.241-2.869-2.511-5.72-3.768-8.587c-1.273-2.844-2.539-5.701-3.859-8.534
					C187.753,228.704,186.471,225.85,185.114,223.038z"/>
			</g>
			<g>
				<path fill="#FFFFFF" d="M142.559,194.107c1.666,1.239,3.346,2.462,5.024,3.669l5.049,3.639
					c3.387,2.414,6.783,4.797,10.187,7.166l10.249,7.048c3.446,2.332,6.862,4.681,10.316,6.974l0.343-1.514l-9.26,1.384
					l-9.256,1.446h-0.016c-0.355,0.056-0.606,0.393-0.556,0.764c0.016,0.041,0.025,0.093,0.05,0.132
					c1.45,3.705,2.937,7.399,4.436,11.077c1.537,3.671,3.02,7.364,4.607,11.017c-1.216-3.79-2.544-7.54-3.809-11.311
					c-1.316-3.761-2.64-7.514-3.984-11.254l-0.535,0.9l9.284-1.225l9.269-1.286c0.459-0.061,0.776-0.482,0.709-0.936
					c-0.025-0.239-0.15-0.447-0.342-0.573l-0.017-0.004c-3.421-2.338-6.887-4.626-10.325-6.935l-10.4-6.844
					c-3.479-2.267-6.962-4.518-10.466-6.746l-5.275-3.315C146.096,196.273,144.338,195.18,142.559,194.107z"/>
			</g>
			<g>
				<path fill="#FFFFFF" d="M169.798,248.521c-6.648-1.232-13.311-2.428-19.968-3.613l-19.985-3.552l-39.991-6.886
					c-0.192-0.029-0.367-0.008-0.543,0.053l-0.017,0.01c-6.912,2.785-13.787,5.669-20.683,8.503l-20.665,8.54
					c-0.51,0.212-0.79,0.72-0.723,1.232v0.002l2.886,23.324c0.948,7.771,1.988,15.537,2.986,23.308v0.006
					c0.05,0.404,0.309,0.74,0.639,0.916l14.986,7.749l-0.459-1.635l-11.423,18.787l-5.696,9.396l-5.652,9.427l-0.008,0.021
					c-0.276,0.436-0.125,1.019,0.318,1.279c0.325,0.192,0.697,0.171,0.99-0.008l30.694-19.676l15.29-9.926
					c5.108-3.291,10.2-6.618,15.273-9.962c-5.216,3.13-10.416,6.261-15.616,9.421l-15.583,9.464l-31.057,19.085l1.299,1.288
					l5.822-9.327l5.785-9.349l11.535-18.706c0.342-0.544,0.167-1.256-0.372-1.59l-0.066-0.037l-0.009-0.008l-14.935-7.837
					l0.643,0.918c-0.973-7.771-1.9-15.552-2.907-23.314l-3.02-23.306l-0.714,1.23l20.615-8.651
					c6.866-2.904,13.753-5.757,20.599-8.702l-0.548,0.063l40.12,6.169l20.073,2.983C156.413,246.61,163.099,247.578,169.798,248.521
					z"/>
			</g>
			<g>
				<path fill="#FFFFFF" d="M159.616,220.509l-11.298-7.87l-11.327-7.837c-7.568-5.213-15.106-10.463-22.695-15.625
					c-0.313-0.217-0.748-0.134-0.957,0.179l-0.033,0.059l-0.017,0.008l-23.702,43.009l1.383-0.469l-44.197-19.918
					c-0.597-0.267-1.299,0-1.567,0.595c-0.071,0.188-0.12,0.373-0.104,0.565v0.004l1.111,18.329l0.56,9.168l0.589,9.16l0.476-1.058
					l-32.59,25.996l1.837,1.058l3.83-27.609l3.692-27.623l-0.615,0.707l21.025-6.476l-0.835-0.972
					c-3.885,8.307-7.693,16.654-11.523,24.987l-5.739,12.501l-5.7,12.523l6.102-12.335l6.056-12.35
					c4.026-8.241,8.086-16.465,12.071-24.727c0.159-0.345,0.016-0.766-0.331-0.936c-0.159-0.071-0.334-0.085-0.492-0.034h-0.009
					l-21.117,6.155c-0.321,0.103-0.563,0.381-0.605,0.693v0.023l-4.109,27.554l-3.959,27.59c-0.092,0.628,0.338,1.207,0.965,1.296
					c0.322,0.049,0.63-0.051,0.865-0.235l0.008-0.004l32.719-25.827c0.326-0.264,0.494-0.658,0.468-1.041v-0.016l-0.572-9.166
					l-0.602-9.159l-1.207-18.32l-1.671,1.162l44.284,19.682l0.017,0.004c0.51,0.23,1.099,0.018,1.366-0.469l23.055-43.362
					l-0.999,0.246c7.647,5.091,15.34,10.095,23.021,15.13l11.523,7.549L159.616,220.509z"/>
			</g>
			<g>
				<polygon fill="#FFFFFF" points="137.651,193.333 137.793,192.492 118.615,189.339 118.472,190.167 				"/>
			</g>
			<g>
				<path fill="#FFFFFF" d="M50.924,211.868c0.042,0,0.092-0.004,0.143-0.021l57.114-20.119l-0.276-0.794L52.273,210.53
					l13.816-16.024l44.071-4.334l-0.083-0.836l-44.243,4.346c-0.1,0.009-0.208,0.063-0.275,0.147l-14.96,17.347
					c-0.117,0.139-0.134,0.353-0.025,0.516C50.658,211.805,50.791,211.868,50.924,211.868z"/>
			</g>
			<g>
				<path fill="#FFFFFF" d="M72.623,307.928c0.016,0,0.016,0,0.024,0l34.136-2.531l-0.067-0.833l-33.809,2.501L52.375,257.42
					l-0.786,0.323l20.645,49.924C72.288,307.829,72.456,307.928,72.623,307.928z"/>
			</g>
			<g>
				<path fill="#FFFFFF" d="M46.698,339.606l7.589-37.279c0.033-0.173-0.033-0.344-0.176-0.434l-36.035-24.161l-0.455,0.709
					l35.785,23.994l-7.53,37.007L46.698,339.606z"/>
			</g>
			<g>
				<polygon fill="#FFFFFF" points="27.979,218.128 60,197.692 59.545,196.981 27.528,217.415 				"/>
			</g>
			
				<radialGradient id="SVGID_19_" cx="2549.7988" cy="343.1382" r="12.145" gradientTransform="matrix(-1 0 0 1 2595.1504 0)" gradientUnits="userSpaceOnUse">
				<stop  offset="0.3172" style="stop-color:#FFFFFF;stop-opacity:0.7"/>
				<stop  offset="0.3215" style="stop-color:#FFFFFF;stop-opacity:0.6955"/>
				<stop  offset="1" style="stop-color:#FFFFFF;stop-opacity:0"/>
			</radialGradient>
			<path fill="url(#SVGID_19_)" d="M33.204,343.143c0,6.703,5.442,12.138,12.146,12.138c6.708,0,12.149-5.435,12.149-12.138
				c0-6.71-5.442-12.147-12.149-12.147C38.646,330.996,33.204,336.433,33.204,343.143z"/>
			
				<radialGradient id="SVGID_20_" cx="2482.9424" cy="301.1602" r="11.1697" gradientTransform="matrix(-1 0 0 1 2595.1504 0)" gradientUnits="userSpaceOnUse">
				<stop  offset="0.3172" style="stop-color:#FFFFFF;stop-opacity:0.7"/>
				<stop  offset="0.3215" style="stop-color:#FFFFFF;stop-opacity:0.6955"/>
				<stop  offset="1" style="stop-color:#FFFFFF;stop-opacity:0"/>
			</radialGradient>
			<path fill="url(#SVGID_20_)" d="M101.035,301.161c0,6.161,5.007,11.166,11.173,11.166c6.164,0,11.172-5.005,11.172-11.166
				c0-6.172-5.008-11.167-11.172-11.167C106.042,289.994,101.035,294.989,101.035,301.161z"/>
			
				<radialGradient id="SVGID_21_" cx="2500.9717" cy="234.4526" r="24.292" gradientTransform="matrix(-1 0 0 1 2595.1504 0)" gradientUnits="userSpaceOnUse">
				<stop  offset="0.3172" style="stop-color:#FFFFFF;stop-opacity:0.7"/>
				<stop  offset="0.3215" style="stop-color:#FFFFFF;stop-opacity:0.6955"/>
				<stop  offset="1" style="stop-color:#FFFFFF;stop-opacity:0"/>
			</radialGradient>
			<path fill="url(#SVGID_21_)" d="M69.887,234.453c0,13.419,10.872,24.292,24.299,24.292c13.416,0,24.287-10.873,24.287-24.292
				s-10.871-24.292-24.287-24.292C80.758,210.161,69.887,221.034,69.887,234.453z"/>
			
				<radialGradient id="SVGID_22_" cx="2546.7314" cy="252.6694" r="8.3701" gradientTransform="matrix(-1 0 0 1 2595.1504 0)" gradientUnits="userSpaceOnUse">
				<stop  offset="0.3172" style="stop-color:#FFFFFF;stop-opacity:0.7"/>
				<stop  offset="0.3215" style="stop-color:#FFFFFF;stop-opacity:0.6955"/>
				<stop  offset="1" style="stop-color:#FFFFFF;stop-opacity:0"/>
			</radialGradient>
			<path fill="url(#SVGID_22_)" d="M40.049,252.665c0,4.626,3.747,8.375,8.361,8.375c4.636,0,8.379-3.749,8.379-8.375
				c0-4.618-3.743-8.365-8.379-8.365C43.795,244.299,40.049,248.046,40.049,252.665z"/>
			
				<radialGradient id="SVGID_23_" cx="2578.8604" cy="274.6924" r="16.2903" gradientTransform="matrix(-1 0 0 1 2595.1504 0)" gradientUnits="userSpaceOnUse">
				<stop  offset="0.3172" style="stop-color:#FFFFFF;stop-opacity:0.7"/>
				<stop  offset="0.3215" style="stop-color:#FFFFFF;stop-opacity:0.6955"/>
				<stop  offset="1" style="stop-color:#FFFFFF;stop-opacity:0"/>
			</radialGradient>
			<path fill="url(#SVGID_23_)" d="M0,274.688c0,8.999,7.296,16.295,16.289,16.295c8.997,0,16.293-7.296,16.293-16.295
				c0-8.991-7.296-16.286-16.293-16.286C7.296,258.402,0,265.697,0,274.688z"/>
			
				<radialGradient id="SVGID_24_" cx="2430.3291" cy="289.1094" r="16.2932" gradientTransform="matrix(-1 0 0 1 2595.1504 0)" gradientUnits="userSpaceOnUse">
				<stop  offset="0.3172" style="stop-color:#FFFFFF;stop-opacity:0.7"/>
				<stop  offset="0.3215" style="stop-color:#FFFFFF;stop-opacity:0.6955"/>
				<stop  offset="1" style="stop-color:#FFFFFF;stop-opacity:0"/>
			</radialGradient>
			<path fill="url(#SVGID_24_)" d="M148.531,289.106c0,9.001,7.289,16.299,16.285,16.299c9.001,0,16.297-7.298,16.297-16.299
				c0-8.995-7.296-16.292-16.297-16.292C155.819,272.814,148.531,280.111,148.531,289.106z"/>
			
				<radialGradient id="SVGID_25_" cx="2431.5303" cy="223.0356" r="8.5977" gradientTransform="matrix(-1 0 0 1 2595.1504 0)" gradientUnits="userSpaceOnUse">
				<stop  offset="0.3172" style="stop-color:#FFFFFF;stop-opacity:0.7"/>
				<stop  offset="0.3215" style="stop-color:#FFFFFF;stop-opacity:0.6955"/>
				<stop  offset="1" style="stop-color:#FFFFFF;stop-opacity:0"/>
			</radialGradient>
			<path fill="url(#SVGID_25_)" d="M155.021,223.038c0,4.744,3.851,8.595,8.596,8.595c4.74,0,8.603-3.851,8.603-8.595
				c0-4.75-3.863-8.599-8.603-8.599C158.873,214.439,155.021,218.288,155.021,223.038z"/>
			
				<radialGradient id="SVGID_26_" cx="2480.9697" cy="190.3828" r="16.2898" gradientTransform="matrix(-1 0 0 1 2595.1504 0)" gradientUnits="userSpaceOnUse">
				<stop  offset="0.3172" style="stop-color:#FFFFFF;stop-opacity:0.7"/>
				<stop  offset="0.3215" style="stop-color:#FFFFFF;stop-opacity:0.6955"/>
				<stop  offset="1" style="stop-color:#FFFFFF;stop-opacity:0"/>
			</radialGradient>
			<path fill="url(#SVGID_26_)" d="M97.891,190.382c0,8.999,7.288,16.29,16.28,16.29c8.997,0,16.301-7.291,16.301-16.29
				c0-8.992-7.305-16.289-16.301-16.289C105.179,174.093,97.891,181.39,97.891,190.382z"/>
			
				<radialGradient id="SVGID_27_" cx="2549.8037" cy="214.186" r="11.2368" gradientTransform="matrix(-1 0 0 1 2595.1504 0)" gradientUnits="userSpaceOnUse">
				<stop  offset="0.3172" style="stop-color:#FFFFFF;stop-opacity:0.7"/>
				<stop  offset="0.3215" style="stop-color:#FFFFFF;stop-opacity:0.6955"/>
				<stop  offset="1" style="stop-color:#FFFFFF;stop-opacity:0"/>
			</radialGradient>
			<path fill="url(#SVGID_27_)" d="M34.109,214.186c0,6.206,5.025,11.236,11.24,11.236c6.198,0,11.235-5.03,11.235-11.236
				c0-6.202-5.037-11.236-11.235-11.236C39.135,202.95,34.109,207.984,34.109,214.186z"/>
			
				<radialGradient id="SVGID_28_" cx="2408.0049" cy="220.5078" r="16.2917" gradientTransform="matrix(-1 0 0 1 2595.1504 0)" gradientUnits="userSpaceOnUse">
				<stop  offset="0.3172" style="stop-color:#FFFFFF;stop-opacity:0.7"/>
				<stop  offset="0.3215" style="stop-color:#FFFFFF;stop-opacity:0.6955"/>
				<stop  offset="1" style="stop-color:#FFFFFF;stop-opacity:0"/>
			</radialGradient>
			<path fill="url(#SVGID_28_)" d="M170.854,220.509c0,8.995,7.297,16.291,16.298,16.291c8.987,0,16.283-7.296,16.283-16.291
				c0-8.999-7.296-16.294-16.283-16.294C178.151,204.215,170.854,211.51,170.854,220.509z"/>
		</g>
	</g>
	<g>
		<g>
			<path fill="#FFFFFF" d="M205.735,38.119c0-4.846,3.6-8.563,8.564-8.563c2.987,0,5.621,1.482,7.057,3.812l-3.245,1.881
				c-0.731-1.269-2.141-2.022-3.812-2.022c-2.917,0-4.801,1.952-4.801,4.893s1.884,4.894,4.801,4.894
				c1.671,0,3.105-0.753,3.812-2.023l3.245,1.881c-1.412,2.329-4.045,3.811-7.057,3.811
				C209.335,46.682,205.735,42.965,205.735,38.119z"/>
			<path fill="#FFFFFF" d="M228.671,40.942h-1.79v5.411h-3.763V29.885h6.587c3.13,0,5.646,2.517,5.646,5.646
				c0,2.022-1.223,3.858-3.034,4.775l3.504,6.047h-4.044L228.671,40.942z M226.881,37.648h2.824c1.036,0,1.883-0.917,1.883-2.117
				c0-1.2-0.847-2.117-1.883-2.117h-2.824V37.648z"/>
			<path fill="#FFFFFF" d="M244.995,40.025v6.329h-3.765v-6.329l-5.528-10.14h4.281l3.13,6.353l3.128-6.353h4.281L244.995,40.025z"
				/>
			<path fill="#FFFFFF" d="M263.93,35.532c0,3.128-2.517,5.646-5.764,5.646h-2.47v5.176h-3.764V29.885h6.234
				C261.413,29.885,263.93,32.402,263.93,35.532z M260.167,35.532c0-1.2-0.848-2.117-2-2.117h-2.47v4.234h2.47
				C259.318,37.648,260.167,36.732,260.167,35.532z"/>
			<path fill="#FFFFFF" d="M276.635,33.508H272.4v12.845h-3.766V33.508h-4.233v-3.623h12.233V33.508z"/>
			<path fill="#FFFFFF" d="M276.633,38.119c0-4.846,3.833-8.563,8.564-8.563c4.728,0,8.562,3.718,8.562,8.563
				c0,4.846-3.833,8.563-8.562,8.563C280.466,46.682,276.633,42.965,276.633,38.119z M289.996,38.119
				c0-2.94-2.118-4.893-4.799-4.893c-2.684,0-4.801,1.952-4.801,4.893s2.117,4.894,4.801,4.894
				C287.878,43.013,289.996,41.06,289.996,38.119z"/>
			<path fill="#FFFFFF" d="M307.871,35.532c0,3.128-2.516,5.646-5.763,5.646h-2.471v5.176h-3.763V29.885h6.234
				C305.355,29.885,307.871,32.402,307.871,35.532z M304.108,35.532c0-1.2-0.848-2.117-2-2.117h-2.471v4.234h2.471
				C303.26,37.648,304.108,36.732,304.108,35.532z"/>
			<path fill="#FFFFFF" d="M308.928,38.119c0-4.846,3.834-8.563,8.564-8.563c4.728,0,8.562,3.718,8.562,8.563
				c0,4.846-3.834,8.563-8.562,8.563C312.762,46.682,308.928,42.965,308.928,38.119z M322.29,38.119c0-2.94-2.117-4.893-4.798-4.893
				c-2.683,0-4.801,1.952-4.801,4.893s2.119,4.894,4.801,4.894C320.173,43.013,322.29,41.06,322.29,38.119z"/>
			<path fill="#FFFFFF" d="M337.815,42.73v3.623h-9.646V29.885h3.763V42.73H337.815z"/>
			<path fill="#FFFFFF" d="M343.224,29.885v16.468h-3.763V29.885H343.224z"/>
			<path fill="#FFFFFF" d="M345.341,38.119c0-4.846,3.6-8.563,8.564-8.563c2.986,0,5.622,1.482,7.056,3.812l-3.245,1.881
				c-0.731-1.269-2.141-2.022-3.811-2.022c-2.917,0-4.801,1.952-4.801,4.893s1.884,4.894,4.801,4.894
				c1.67,0,3.105-0.753,3.811-2.023l3.245,1.881c-1.412,2.329-4.045,3.811-7.056,3.811
				C348.941,46.682,345.341,42.965,345.341,38.119z"/>
			<path fill="#FFFFFF" d="M373.075,42.73v3.623h-10.352V29.885h10.233v3.623h-6.47v2.729h5.883v3.575h-5.883v2.918H373.075z"/>
			<path fill="#FFFFFF" d="M390.105,46.354l-5.271-7.623v7.623h-3.763V29.885h3.763v7.152l5.036-7.152h4.282l-5.553,8.021
				l5.787,8.447H390.105z"/>
			<path fill="#FFFFFF" d="M408.735,29.885v16.468h-2.823l-6.353-8.94v8.94h-3.763V29.885h2.823l6.353,8.94v-8.94H408.735z"/>
			<path fill="#FFFFFF" d="M410.851,38.119c0-4.846,3.834-8.563,8.564-8.563c4.728,0,8.562,3.718,8.562,8.563
				c0,4.846-3.833,8.563-8.562,8.563C414.685,46.682,410.851,42.965,410.851,38.119z M424.213,38.119
				c0-2.94-2.117-4.893-4.799-4.893c-2.684,0-4.801,1.952-4.801,4.893s2.117,4.894,4.801,4.894
				C422.096,43.013,424.213,41.06,424.213,38.119z"/>
			<path fill="#FFFFFF" d="M428.211,29.885h3.95l2.847,11.527l3.176-11.527h3.06l3.176,11.527l2.846-11.527h3.952l-4.54,16.468
				h-4.281l-2.682-9.716l-2.683,9.716h-4.281L428.211,29.885z"/>
			<path fill="#FFFFFF" d="M462.506,42.73v3.623h-9.646V29.885h3.763V42.73H462.506z"/>
			<path fill="#FFFFFF" d="M474.503,42.73v3.623h-10.352V29.885h10.232v3.623h-6.469v2.729h5.882v3.575h-5.882v2.918H474.503z"/>
			<path fill="#FFFFFF" d="M491.205,38.119c0,4.658-3.458,8.234-8,8.234h-6.586V29.885h6.586
				C487.748,29.885,491.205,33.461,491.205,38.119z M487.582,38.119c0-2.823-1.787-4.611-4.377-4.611h-2.823v9.222h2.823
				C485.795,42.73,487.582,40.942,487.582,38.119z"/>
			<path fill="#FFFFFF" d="M509.622,38.59c0,5.034-3.506,8.092-8.117,8.092c-5.174,0-8.892-3.811-8.892-8.539
				c0-4.775,3.788-8.587,8.632-8.587c3.154,0,5.813,1.554,7.201,3.765l-3.199,1.833c-0.683-1.081-2.166-1.928-4.024-1.928
				c-2.775,0-4.847,2.046-4.847,4.94c0,2.799,1.978,4.847,5.178,4.847c2.188,0,3.622-0.965,4.209-2.542h-4.398v-3.293h8.258V38.59z"
				/>
			<path fill="#FFFFFF" d="M522.089,42.73v3.623h-10.352V29.885h10.233v3.623H515.5v2.729h5.884v3.575H515.5v2.918H522.089z"/>
		</g>
	</g>
	<g>
		<g>
			<path fill="#FFFFFF" d="M272.406,183.81c-0.791,0-1.553-0.44-1.923-1.2l-20.37-41.684c-0.519-1.061-0.078-2.341,0.983-2.859
				c1.061-0.517,2.343-0.08,2.859,0.982l20.369,41.685c0.519,1.06,0.079,2.341-0.982,2.859
				C273.041,183.741,272.721,183.81,272.406,183.81z"/>
		</g>
		<g>
			<path fill="#FFFFFF" d="M273.787,184.661l-12.468-5.732c-1.072-0.495-1.542-1.763-1.049-2.837
				c0.494-1.073,1.766-1.543,2.837-1.05l7.915,3.641l2.352-8.387c0.319-1.138,1.496-1.804,2.637-1.482
				c1.137,0.319,1.8,1.5,1.481,2.637L273.787,184.661z"/>
		</g>
		<g>
			<path fill="#FFFFFF" d="M249.045,152.876c-0.191,0-0.386-0.026-0.578-0.081c-1.138-0.318-1.8-1.5-1.482-2.636l3.705-13.211
				l12.47,5.733c1.074,0.494,1.543,1.764,1.051,2.836c-0.494,1.074-1.767,1.542-2.835,1.05l-7.92-3.642l-2.352,8.388
				C250.838,152.257,249.98,152.876,249.045,152.876z"/>
		</g>
	</g>
	<g>
		<g>
			<path fill="#FFFFFF" d="M455.415,183.81c-0.315,0-0.636-0.069-0.938-0.217c-1.06-0.519-1.501-1.8-0.982-2.859l20.37-41.685
				c0.517-1.062,1.8-1.499,2.86-0.982c1.061,0.519,1.501,1.798,0.982,2.859l-20.369,41.684
				C456.967,183.37,456.207,183.81,455.415,183.81z"/>
		</g>
		<g>
			<path fill="#FFFFFF" d="M454.036,184.661l-3.71-13.21c-0.318-1.137,0.343-2.317,1.481-2.638c1.135-0.318,2.317,0.346,2.638,1.48
				l2.354,8.389l7.912-3.64c1.075-0.494,2.343-0.024,2.836,1.049c0.494,1.072,0.024,2.342-1.049,2.837L454.036,184.661z"/>
		</g>
		<g>
			<path fill="#FFFFFF" d="M478.771,152.876c-0.935,0-1.793-0.619-2.058-1.563l-2.352-8.388l-7.914,3.642
				c-1.072,0.493-2.343,0.024-2.837-1.049c-0.493-1.073-0.023-2.343,1.049-2.837l12.468-5.733l3.705,13.211
				c0.317,1.136-0.345,2.317-1.482,2.636C479.156,152.85,478.962,152.876,478.771,152.876z"/>
		</g>
	</g>
	<g>
		<g>
			<g>
				<path fill="#FFFFFF" d="M574.678,39.816h-3.207c-1.181,0-2.139-0.958-2.139-2.138c0-1.181,0.958-2.14,2.139-2.14h3.207
					c1.181,0,2.14,0.958,2.14,2.14C576.817,38.858,575.858,39.816,574.678,39.816z"/>
			</g>
			<g>
				<path fill="#FFFFFF" d="M832.566,255.415c-1.18,0-2.137-0.956-2.139-2.134c-0.003-1.182,0.954-2.142,2.134-2.144l6.472-0.012
					c0.003,0,0.003,0,0.004,0c1.18,0,2.137,0.954,2.14,2.136c0.002,1.18-0.955,2.14-2.135,2.142l-6.472,0.012
					C832.569,255.415,832.569,255.415,832.566,255.415z M845.509,255.391c-1.179,0-2.136-0.954-2.137-2.134
					c-0.003-1.182,0.952-2.142,2.133-2.144l6.475-0.012c0.002,0,0.002,0,0.005,0c1.18,0,2.136,0.954,2.138,2.134
					c0.002,1.182-0.952,2.142-2.135,2.144l-6.473,0.012C845.513,255.391,845.513,255.391,845.509,255.391z M858.454,255.368
					c-1.18,0-2.137-0.954-2.139-2.134c0-1.182,0.954-2.142,2.136-2.144l6.472-0.012c0.002,0,0.002,0,0.002,0
					c1.182,0,2.139,0.954,2.14,2.134c0.002,1.182-0.955,2.141-2.134,2.144l-6.473,0.012
					C858.457,255.368,858.457,255.368,858.454,255.368z M871.4,255.343c-1.18,0-2.137-0.955-2.14-2.135
					c-0.001-1.18,0.955-2.14,2.135-2.142l3.523-0.006c0.883-0.002,1.773-0.064,2.645-0.188c1.17-0.163,2.25,0.651,2.415,1.817
					c0.166,1.17-0.649,2.253-1.818,2.418c-1.065,0.151-2.156,0.228-3.235,0.229l-3.52,0.006
					C871.402,255.343,871.402,255.343,871.4,255.343z M884.032,253.269c-0.801,0-1.567-0.449-1.935-1.219
					c-0.506-1.065-0.055-2.342,1.014-2.85c1.752-0.834,3.37-1.93,4.808-3.257c0.872-0.799,2.223-0.743,3.023,0.124
					c0.799,0.867,0.745,2.222-0.124,3.022c-1.754,1.617-3.729,2.954-5.869,3.971C884.652,253.203,884.34,253.269,884.032,253.269z
					 M893.406,244.633c-0.366,0-0.735-0.095-1.073-0.291c-1.021-0.594-1.365-1.903-0.771-2.924c0.982-1.69,1.698-3.506,2.131-5.396
					c0.261-1.152,1.399-1.876,2.56-1.611c1.151,0.263,1.871,1.409,1.608,2.562c-0.527,2.312-1.403,4.531-2.604,6.597
					C894.86,244.252,894.144,244.633,893.406,244.633z M896.306,232.206c-1.181,0-2.137-0.958-2.137-2.14v-6.471
					c0-1.182,0.956-2.14,2.137-2.14c1.183,0,2.14,0.958,2.14,2.14v6.471C898.445,231.248,897.488,232.206,896.306,232.206z
					 M896.306,219.261c-1.181,0-2.137-0.958-2.137-2.14v-6.473c0-1.18,0.956-2.138,2.137-2.138c1.183,0,2.14,0.958,2.14,2.138v6.473
					C898.445,218.303,897.488,219.261,896.306,219.261z M896.306,206.315c-1.181,0-2.137-0.957-2.137-2.138v-6.473
					c0-1.181,0.956-2.138,2.137-2.138c1.183,0,2.14,0.957,2.14,2.138v6.473C898.445,205.358,897.488,206.315,896.306,206.315z
					 M896.306,193.372c-1.181,0-2.137-0.958-2.137-2.139v-6.473c0-1.181,0.956-2.138,2.137-2.138c1.183,0,2.14,0.957,2.14,2.138
					v6.473C898.445,192.414,897.488,193.372,896.306,193.372z M896.306,180.425c-1.181,0-2.137-0.957-2.137-2.138v-6.472
					c0-1.181,0.956-2.139,2.137-2.139c1.183,0,2.14,0.958,2.14,2.139v6.472C898.445,179.468,897.488,180.425,896.306,180.425z
					 M896.306,167.481c-1.181,0-2.137-0.956-2.137-2.137v-6.473c0-1.181,0.956-2.139,2.137-2.139c1.183,0,2.14,0.958,2.14,2.139
					v6.473C898.445,166.525,897.488,167.481,896.306,167.481z M896.306,154.536c-1.181,0-2.137-0.957-2.137-2.138v-6.472
					c0-1.18,0.956-2.138,2.137-2.138c1.183,0,2.14,0.958,2.14,2.138v6.472C898.445,153.579,897.488,154.536,896.306,154.536z
					 M896.306,141.592c-1.181,0-2.137-0.957-2.137-2.138v-6.472c0-1.182,0.956-2.139,2.137-2.139c1.183,0,2.14,0.957,2.14,2.139
					v6.472C898.445,140.635,897.488,141.592,896.306,141.592z M896.306,128.647c-1.181,0-2.137-0.958-2.137-2.139v-6.471
					c0-1.181,0.956-2.139,2.137-2.139c1.183,0,2.14,0.958,2.14,2.139v6.471C898.445,127.689,897.488,128.647,896.306,128.647z
					 M896.306,115.703c-1.181,0-2.137-0.957-2.137-2.138v-6.473c0-1.181,0.956-2.138,2.137-2.138c1.183,0,2.14,0.957,2.14,2.138
					v6.473C898.445,114.746,897.488,115.703,896.306,115.703z M896.306,102.759c-1.181,0-2.137-0.958-2.137-2.138v-6.473
					c0-1.181,0.956-2.138,2.137-2.138c1.183,0,2.14,0.957,2.14,2.138v6.473C898.445,101.801,897.488,102.759,896.306,102.759z
					 M896.306,89.813c-1.181,0-2.137-0.958-2.137-2.139v-6.472c0-1.181,0.956-2.139,2.137-2.139c1.183,0,2.14,0.958,2.14,2.139
					v6.472C898.445,88.856,897.488,89.813,896.306,89.813z M896.306,76.869c-1.181,0-2.137-0.957-2.137-2.138v-6.473
					c0-1.181,0.956-2.138,2.137-2.138c1.183,0,2.14,0.957,2.14,2.138v6.473C898.445,75.912,897.488,76.869,896.306,76.869z
					 M896.306,63.925c-1.181,0-2.137-0.958-2.137-2.139v-2.734c-0.002-1.127-0.102-2.253-0.293-3.347
					c-0.206-1.163,0.569-2.271,1.733-2.478c1.164-0.207,2.272,0.572,2.478,1.734c0.234,1.336,0.356,2.711,0.358,4.087v2.737
					C898.445,62.966,897.488,63.925,896.306,63.925z M893.904,51.371c-0.772,0-1.518-0.419-1.897-1.151
					c-0.896-1.722-2.048-3.298-3.424-4.689c-0.831-0.838-0.822-2.193,0.014-3.023c0.842-0.833,2.193-0.824,3.026,0.014
					c1.676,1.695,3.085,3.622,4.177,5.725c0.545,1.047,0.137,2.339-0.911,2.883C894.575,51.293,894.238,51.371,893.904,51.371z
					 M884.933,42.312c-0.34,0-0.686-0.081-1.008-0.253c-1.717-0.919-3.558-1.566-5.467-1.924c-1.16-0.218-1.926-1.335-1.705-2.497
					c0.217-1.16,1.336-1.922,2.494-1.708c2.34,0.44,4.59,1.232,6.695,2.357c1.041,0.556,1.436,1.852,0.878,2.893
					C886.436,41.901,885.696,42.312,884.933,42.312z M594.095,39.816c-1.182,0-2.139-0.958-2.139-2.138
					c0-1.181,0.957-2.14,2.139-2.14l6.471,0c1.182,0,2.141,0.958,2.141,2.139c0,1.181-0.959,2.138-2.141,2.138L594.095,39.816z
					 M587.623,39.816h-6.474c-1.181,0-2.139-0.958-2.139-2.138c0-1.181,0.958-2.14,2.139-2.14h6.474c1.181,0,2.138,0.958,2.138,2.14
					C589.761,38.858,588.804,39.816,587.623,39.816z M626.456,39.815h-6.473c-1.181,0-2.139-0.958-2.139-2.138
					c0-1.181,0.958-2.139,2.139-2.139h6.473c1.182,0,2.139,0.958,2.139,2.139C628.595,38.857,627.638,39.815,626.456,39.815z
					 M613.513,39.815h-6.473c-1.182,0-2.14-0.958-2.14-2.138c0-1.181,0.958-2.139,2.14-2.139h6.473c1.181,0,2.138,0.958,2.138,2.139
					C615.65,38.857,614.693,39.815,613.513,39.815z M658.819,39.814c-1.182,0-2.14-0.958-2.14-2.138c0-1.181,0.958-2.139,2.14-2.139
					l6.471-0.001c1.182,0,2.138,0.958,2.138,2.139c0,1.181-0.956,2.138-2.138,2.138L658.819,39.814z M652.345,39.814h-6.471
					c-1.182,0-2.14-0.958-2.14-2.138c0-1.181,0.958-2.139,2.14-2.139h6.471c1.182,0,2.14,0.958,2.14,2.139
					C654.484,38.856,653.526,39.814,652.345,39.814z M639.402,39.814h-6.474c-1.181,0-2.139-0.958-2.139-2.138
					c0-1.181,0.958-2.139,2.139-2.139h6.474c1.18,0,2.137,0.958,2.137,2.139C641.539,38.856,640.582,39.814,639.402,39.814z
					 M691.18,39.813h-6.472c-1.181,0-2.14-0.958-2.14-2.138c0-1.18,0.959-2.139,2.14-2.139h6.472c1.181,0,2.138,0.958,2.138,2.139
					C693.317,38.855,692.36,39.813,691.18,39.813z M678.235,39.813h-6.474c-1.18,0-2.138-0.958-2.138-2.138
					c0-1.18,0.958-2.139,2.138-2.139h6.474c1.181,0,2.139,0.958,2.139,2.139C680.374,38.855,679.416,39.813,678.235,39.813z
					 M723.541,39.812c-1.182,0-2.138-0.958-2.138-2.138c0-1.181,0.956-2.139,2.138-2.139l6.471-0.001c1.18,0,2.14,0.958,2.14,2.139
					c0,1.18-0.957,2.138-2.14,2.138L723.541,39.812z M717.069,39.812h-6.474c-1.181,0-2.139-0.958-2.139-2.138
					c0-1.181,0.958-2.139,2.139-2.139h6.474c1.182,0,2.137,0.958,2.137,2.139C719.206,38.854,718.251,39.812,717.069,39.812z
					 M704.124,39.812h-6.473c-1.181,0-2.138-0.958-2.138-2.138c0-1.181,0.957-2.139,2.138-2.139h6.473
					c1.182,0,2.14,0.958,2.14,2.139C706.264,38.854,705.306,39.812,704.124,39.812z M755.904,39.811h-6.475
					c-1.182,0-2.138-0.958-2.138-2.138c0-1.181,0.956-2.139,2.138-2.139h6.475c1.181,0,2.138,0.958,2.138,2.139
					C758.042,38.853,757.085,39.811,755.904,39.811z M742.959,39.811h-6.472c-1.183,0-2.14-0.958-2.14-2.138
					c0-1.181,0.957-2.139,2.14-2.139h6.472c1.181,0,2.138,0.958,2.138,2.139C745.097,38.853,744.14,39.811,742.959,39.811z
					 M788.265,39.81c-1.179,0-2.138-0.958-2.138-2.138c0-1.181,0.957-2.139,2.138-2.139l6.472-0.001c1.182,0,2.14,0.958,2.14,2.139
					s-0.957,2.139-2.14,2.139L788.265,39.81z M781.792,39.81h-6.472c-1.182,0-2.138-0.958-2.138-2.138
					c0-1.181,0.956-2.139,2.138-2.139h6.472c1.183,0,2.139,0.958,2.139,2.139C783.931,38.852,782.975,39.81,781.792,39.81z
					 M768.848,39.81h-6.473c-1.183,0-2.14-0.958-2.14-2.138c0-1.181,0.957-2.139,2.14-2.139h6.473c1.183,0,2.14,0.958,2.14,2.139
					C770.987,38.852,770.03,39.81,768.848,39.81z M820.626,39.809h-6.472c-1.183,0-2.14-0.958-2.14-2.139s0.957-2.139,2.14-2.139
					h6.472c1.181,0,2.138,0.958,2.138,2.139S821.807,39.809,820.626,39.809z M807.683,39.809h-6.475
					c-1.182,0-2.137-0.958-2.137-2.139s0.955-2.139,2.137-2.139h6.475c1.181,0,2.138,0.958,2.138,2.139
					S808.863,39.809,807.683,39.809z M852.987,39.808c-1.18,0-2.138-0.958-2.138-2.139c0-1.18,0.956-2.139,2.138-2.139l6.475,0
					c1.18,0,2.138,0.958,2.138,2.139c0,1.181-0.957,2.138-2.138,2.138L852.987,39.808z M846.516,39.808h-6.472
					c-1.182,0-2.137-0.958-2.137-2.139c0-1.18,0.955-2.139,2.137-2.139h6.472c1.182,0,2.139,0.958,2.139,2.139
					C848.654,38.85,847.697,39.808,846.516,39.808z M833.571,39.808H827.1c-1.183,0-2.138-0.958-2.138-2.139
					c0-1.18,0.955-2.139,2.138-2.139h6.472c1.183,0,2.138,0.958,2.138,2.139C835.709,38.85,834.754,39.808,833.571,39.808z
					 M872.405,39.807h-6.472c-1.183,0-2.139-0.958-2.139-2.138c0-1.181,0.956-2.139,2.139-2.139h6.472
					c1.181,0,2.138,0.958,2.138,2.139C874.543,38.849,873.586,39.807,872.405,39.807z"/>
			</g>
			<g>
				<path fill="#FFFFFF" d="M822.84,255.432c-1.18,0-2.135-0.954-2.137-2.136c-0.001-1.18,0.951-2.14,2.134-2.142l3.207-0.006
					c0.002,0,0.002,0,0.005,0c1.18,0,2.137,0.954,2.138,2.134c0.003,1.182-0.952,2.142-2.133,2.144l-3.209,0.006
					C822.843,255.432,822.843,255.432,822.84,255.432z"/>
			</g>
		</g>
		<g>
			<path fill="#FFFFFF" d="M577.676,47.216c-0.505,0-1.014-0.179-1.421-0.542l-10.25-9.129l10.624-8.678
				c0.915-0.748,2.261-0.613,3.009,0.303c0.748,0.914,0.613,2.262-0.303,3.009l-6.742,5.508l6.507,5.796
				c0.881,0.785,0.96,2.137,0.173,3.019C578.851,46.973,578.265,47.216,577.676,47.216z"/>
		</g>
	</g>
	
		<linearGradient id="SVGID_29_" gradientUnits="userSpaceOnUse" x1="-1839.4604" y1="-4211.9038" x2="-1799.9263" y2="-4211.9038" gradientTransform="matrix(0 1 -1 0 -3847.8364 1905.2002)">
		<stop  offset="0" style="stop-color:#706DCB;stop-opacity:0.3"/>
		<stop  offset="1" style="stop-color:#706DCB"/>
	</linearGradient>
	<path fill-rule="evenodd" clip-rule="evenodd" fill="url(#SVGID_29_)" d="M447.111,93.517c0,6.492-5.265,11.757-11.759,11.757
		H292.779c-6.491,0-11.755-5.265-11.755-11.757V77.494c0-6.493,5.265-11.754,11.755-11.754h142.573
		c6.495,0,11.759,5.261,11.759,11.754V93.517z"/>
	<g>
		<g>
			<path fill="#FFFFFF" d="M302.404,91.935l-3.831-5.54v5.54h-2.735v-11.97h2.735v5.198l3.659-5.198h3.112l-4.035,5.831l4.206,6.139
				H302.404z"/>
			<path fill="#FFFFFF" d="M315.096,79.965v11.97h-2.05l-4.617-6.498v6.498h-2.736v-11.97h2.053l4.615,6.498v-6.498H315.096z"/>
			<path fill="#FFFFFF" d="M315.788,85.95c0-3.523,2.786-6.224,6.223-6.224c3.437,0,6.224,2.701,6.224,6.224
				c0,3.522-2.787,6.223-6.224,6.223C318.573,92.173,315.788,89.472,315.788,85.95z M325.498,85.95c0-2.137-1.539-3.556-3.487-3.556
				c-1.948,0-3.487,1.419-3.487,3.556c0,2.137,1.539,3.557,3.487,3.557C323.959,89.507,325.498,88.087,325.498,85.95z"/>
			<path fill="#FFFFFF" d="M327.555,79.965h2.872l2.069,8.379l2.307-8.379h2.225l2.307,8.379l2.07-8.379h2.871l-3.299,11.97h-3.112
				l-1.949-7.062l-1.951,7.062h-3.111L327.555,79.965z"/>
			<path fill="#FFFFFF" d="M351.637,89.301v2.633h-7.01v-11.97h2.736v9.336H351.637z"/>
			<path fill="#FFFFFF" d="M359.508,89.301v2.633h-7.524v-11.97h7.438v2.634h-4.703v1.983h4.275v2.6h-4.275v2.12H359.508z"/>
			<path fill="#FFFFFF" d="M370.795,85.95c0,3.385-2.512,5.984-5.812,5.984h-4.788v-11.97h4.788
				C368.283,79.965,370.795,82.565,370.795,85.95z M368.165,85.95c0-2.052-1.302-3.352-3.181-3.352h-2.053v6.703h2.053
				C366.863,89.301,368.165,88.002,368.165,85.95z"/>
			<path fill="#FFFFFF" d="M383.335,86.292c0,3.659-2.548,5.881-5.9,5.881c-3.761,0-6.461-2.768-6.461-6.206
				c0-3.47,2.752-6.24,6.273-6.24c2.292,0,4.225,1.128,5.233,2.735l-2.327,1.333c-0.495-0.787-1.572-1.401-2.923-1.401
				c-2.018,0-3.521,1.487-3.521,3.59c0,2.035,1.435,3.523,3.762,3.523c1.589,0,2.633-0.702,3.059-1.847h-3.196v-2.394h6.001V86.292z
				"/>
			<path fill="#FFFFFF" d="M391.548,89.301v2.633h-7.523v-11.97h7.438v2.634h-4.702v1.983h4.274v2.6h-4.274v2.12H391.548z"/>
			<path fill="#FFFFFF" d="M404.55,88.429c0,2.121-1.727,3.505-3.865,3.505h-5.027v-11.97h4.687c2.083,0,3.777,1.352,3.777,3.421
				c0,0.991-0.393,1.777-1.042,2.342C403.968,86.292,404.55,87.216,404.55,88.429z M398.394,82.531v2.119h1.951
				c0.614,0,1.042-0.443,1.042-1.06c0-0.615-0.409-1.059-1.042-1.059H398.394z M401.814,88.225c0-0.667-0.444-1.147-1.13-1.147
				h-2.291v2.292h2.291C401.37,89.37,401.814,88.891,401.814,88.225z"/>
			<path fill="#FFFFFF" d="M412.076,90.054h-4.446l-0.597,1.881h-2.993l4.07-11.97h3.487l4.07,11.97h-2.992L412.076,90.054z
				 M411.256,87.489l-1.402-4.395l-1.403,4.395H411.256z"/>
			<path fill="#FFFFFF" d="M414.99,89.215l2.359-1.368c0.425,0.992,1.161,1.659,2.512,1.659c1.299,0,1.625-0.514,1.625-0.976
				c0-0.735-0.685-1.025-2.479-1.521c-1.779-0.496-3.523-1.351-3.523-3.642c0-2.309,1.951-3.642,4.018-3.642
				c1.967,0,3.506,0.94,4.377,2.701l-2.307,1.351c-0.411-0.854-0.975-1.384-2.07-1.384c-0.854,0-1.282,0.427-1.282,0.906
				c0,0.547,0.29,0.923,2.155,1.487c1.813,0.547,3.847,1.18,3.847,3.711c0,2.307-1.846,3.674-4.445,3.674
				C417.263,92.173,415.655,90.977,414.99,89.215z"/>
			<path fill="#FFFFFF" d="M432.178,89.301v2.633h-7.524v-11.97h7.439v2.634h-4.703v1.983h4.274v2.6h-4.274v2.12H432.178z"/>
		</g>
	</g>
	
		<linearGradient id="SVGID_30_" gradientUnits="userSpaceOnUse" x1="-1839.4604" y1="-4386.5464" x2="-1799.9263" y2="-4386.5464" gradientTransform="matrix(0 1 -1 0 -3847.8364 1905.2002)">
		<stop  offset="0" style="stop-color:#706DCB;stop-opacity:0.3"/>
		<stop  offset="1" style="stop-color:#706DCB"/>
	</linearGradient>
	<path fill-rule="evenodd" clip-rule="evenodd" fill="url(#SVGID_30_)" d="M621.755,93.517c0,6.493-5.266,11.757-11.76,11.757
		H467.422c-6.49,0-11.757-5.264-11.757-11.757V77.495c0-6.494,5.268-11.755,11.757-11.755h142.573c6.494,0,11.76,5.261,11.76,11.755
		V93.517z"/>
	
		<linearGradient id="SVGID_31_" gradientUnits="userSpaceOnUse" x1="-1839.4761" y1="-4037.2622" x2="-1799.9414" y2="-4037.2622" gradientTransform="matrix(0 1 -1 0 -3847.8364 1905.2002)">
		<stop  offset="0" style="stop-color:#706DCB;stop-opacity:0.3"/>
		<stop  offset="1" style="stop-color:#706DCB"/>
	</linearGradient>
	<path fill-rule="evenodd" clip-rule="evenodd" fill="url(#SVGID_31_)" d="M272.47,93.501c0,6.491-5.266,11.757-11.761,11.757
		H118.139c-6.491,0-11.757-5.266-11.757-11.757V77.478c0-6.492,5.266-11.753,11.757-11.753h142.571
		c6.495,0,11.761,5.262,11.761,11.753V93.501z"/>
	<g>
		<g>
			<path fill="#FFFFFF" d="M474.171,89.215l2.36-1.368c0.426,0.992,1.161,1.659,2.512,1.659c1.299,0,1.625-0.514,1.625-0.976
				c0-0.735-0.685-1.025-2.479-1.521c-1.779-0.496-3.523-1.351-3.523-3.642c0-2.309,1.948-3.642,4.018-3.642
				c1.968,0,3.507,0.94,4.378,2.701l-2.308,1.351c-0.412-0.854-0.976-1.384-2.07-1.384c-0.853,0-1.282,0.427-1.282,0.906
				c0,0.547,0.291,0.923,2.155,1.487c1.813,0.547,3.847,1.18,3.847,3.711c0,2.307-1.846,3.674-4.445,3.674
				C476.445,92.173,474.838,90.977,474.171,89.215z"/>
			<path fill="#FFFFFF" d="M483.325,85.95c0-3.523,2.614-6.224,6.223-6.224c2.171,0,4.087,1.078,5.129,2.77l-2.36,1.368
				c-0.53-0.923-1.555-1.47-2.769-1.47c-2.119,0-3.487,1.419-3.487,3.556c0,2.137,1.368,3.557,3.487,3.557
				c1.213,0,2.257-0.548,2.769-1.47l2.36,1.368c-1.025,1.692-2.94,2.768-5.129,2.768C485.939,92.173,483.325,89.472,483.325,85.95z"
				/>
			<path fill="#FFFFFF" d="M502.118,90.054h-4.445l-0.598,1.881h-2.993l4.07-11.97h3.488l4.067,11.97h-2.99L502.118,90.054z
				 M501.298,87.489l-1.401-4.395l-1.403,4.395H501.298z"/>
			<path fill="#FFFFFF" d="M517.854,91.935h-2.736v-6.959l-3.093,5.079h-0.309l-3.095-5.079v6.959h-2.736v-11.97h2.736l3.249,5.318
				l3.247-5.318h2.736V91.935z"/>
			<path fill="#FFFFFF" d="M533.082,85.95c0,3.385-2.515,5.984-5.813,5.984h-4.789v-11.97h4.789
				C530.567,79.965,533.082,82.565,533.082,85.95z M530.448,85.95c0-2.052-1.301-3.352-3.18-3.352h-2.053v6.703h2.053
				C529.147,89.301,530.448,88.002,530.448,85.95z"/>
			<path fill="#FFFFFF" d="M540.353,90.054h-4.445l-0.598,1.881h-2.992l4.07-11.97h3.487l4.069,11.97h-2.992L540.353,90.054z
				 M539.532,87.489l-1.4-4.395l-1.404,4.395H539.532z"/>
			<path fill="#FFFFFF" d="M551.302,82.599h-3.075v9.336h-2.736v-9.336h-3.078v-2.634h8.89V82.599z"/>
			<path fill="#FFFFFF" d="M557.804,90.054h-4.446l-0.599,1.881h-2.99l4.068-11.97h3.487l4.07,11.97h-2.991L557.804,90.054z
				 M556.982,87.489l-1.401-4.395l-1.404,4.395H556.982z"/>
			<path fill="#FFFFFF" d="M570.462,88.429c0,2.121-1.727,3.505-3.865,3.505h-5.026v-11.97h4.685c2.086,0,3.779,1.352,3.779,3.421
				c0,0.991-0.394,1.777-1.043,2.342C569.879,86.292,570.462,87.216,570.462,88.429z M564.307,82.531v2.119h1.948
				c0.615,0,1.043-0.443,1.043-1.06c0-0.615-0.409-1.059-1.043-1.059H564.307z M567.726,88.225c0-0.667-0.443-1.147-1.129-1.147
				h-2.29v2.292h2.29C567.282,89.37,567.726,88.891,567.726,88.225z"/>
			<path fill="#FFFFFF" d="M577.991,90.054h-4.447l-0.597,1.881h-2.993l4.07-11.97h3.487l4.069,11.97h-2.992L577.991,90.054z
				 M577.169,87.489l-1.4-4.395l-1.404,4.395H577.169z"/>
			<path fill="#FFFFFF" d="M580.903,89.215l2.359-1.368c0.428,0.992,1.162,1.659,2.514,1.659c1.298,0,1.624-0.514,1.624-0.976
				c0-0.735-0.686-1.025-2.479-1.521c-1.78-0.496-3.523-1.351-3.523-3.642c0-2.309,1.948-3.642,4.018-3.642
				c1.968,0,3.507,0.94,4.378,2.701l-2.308,1.351c-0.412-0.854-0.977-1.384-2.07-1.384c-0.854,0-1.282,0.427-1.282,0.906
				c0,0.547,0.291,0.923,2.156,1.487c1.813,0.547,3.846,1.18,3.846,3.711c0,2.307-1.846,3.674-4.445,3.674
				C583.177,92.173,581.569,90.977,580.903,89.215z"/>
			<path fill="#FFFFFF" d="M598.09,89.301v2.633h-7.523v-11.97h7.438v2.634h-4.702v1.983h4.273v2.6h-4.273v2.12H598.09z"/>
		</g>
	</g>
	<g>
		<path fill="#FFFFFF" d="M125.431,84.068c0,2.275-1.83,4.104-4.189,4.104h-1.796v3.763h-2.735v-11.97h4.532
			C123.601,79.965,125.431,81.795,125.431,84.068z M122.695,84.068c0-0.872-0.616-1.538-1.453-1.538h-1.796v3.078h1.796
			C122.079,85.608,122.695,84.941,122.695,84.068z"/>
		<path fill="#FFFFFF" d="M129.985,88.002h-1.301v3.933h-2.735v-11.97h4.788c2.274,0,4.104,1.831,4.104,4.104
			c0,1.472-0.89,2.805-2.206,3.473l2.546,4.394h-2.94L129.985,88.002z M128.684,85.608h2.053c0.751,0,1.368-0.667,1.368-1.54
			c0-0.872-0.617-1.538-1.368-1.538h-2.053V85.608z"/>
		<path fill="#FFFFFF" d="M134.93,85.95c0-3.523,2.786-6.224,6.223-6.224c3.438,0,6.223,2.701,6.223,6.224
			c0,3.522-2.786,6.223-6.223,6.223C137.716,92.173,134.93,89.472,134.93,85.95z M144.641,85.95c0-2.137-1.539-3.556-3.488-3.556
			c-1.95,0-3.487,1.419-3.487,3.556c0,2.137,1.538,3.557,3.487,3.557C143.102,89.507,144.641,88.087,144.641,85.95z"/>
		<path fill="#FFFFFF" d="M146.357,89.848l2.376-1.368c0.376,0.667,0.77,1.027,1.692,1.027c1.197,0,1.555-0.684,1.555-1.419v-8.123
			h2.736v8.123c0,2.633-1.846,4.085-4.308,4.085C148.511,92.173,147.143,91.37,146.357,89.848z"/>
		<path fill="#FFFFFF" d="M163.358,89.301v2.633h-7.524v-11.97h7.438v2.634h-4.702v1.983h4.274v2.6h-4.274v2.12H163.358z"/>
		<path fill="#FFFFFF" d="M163.448,85.95c0-3.523,2.614-6.224,6.223-6.224c2.172,0,4.087,1.078,5.129,2.77l-2.36,1.368
			c-0.531-0.923-1.556-1.47-2.769-1.47c-2.119,0-3.487,1.419-3.487,3.556c0,2.137,1.368,3.557,3.487,3.557
			c1.213,0,2.258-0.548,2.769-1.47l2.36,1.368c-1.025,1.692-2.94,2.768-5.129,2.768C166.062,92.173,163.448,89.472,163.448,85.95z"
			/>
		<path fill="#FFFFFF" d="M183.27,82.599h-3.076v9.336h-2.736v-9.336h-3.078v-2.634h8.89V82.599z"/>
		<path fill="#FFFFFF" d="M197.637,85.95c0,3.385-2.513,5.984-5.813,5.984h-4.788v-11.97h4.788
			C195.125,79.965,197.637,82.565,197.637,85.95z M195.006,85.95c0-2.052-1.301-3.352-3.181-3.352h-2.052v6.703h2.052
			C193.705,89.301,195.006,88.002,195.006,85.95z"/>
		<path fill="#FFFFFF" d="M204.911,90.054h-4.446l-0.597,1.881h-2.993l4.071-11.97h3.487l4.068,11.97h-2.99L204.911,90.054z
			 M204.089,87.489l-1.401-4.395l-1.403,4.395H204.089z"/>
		<path fill="#FFFFFF" d="M215.857,82.599h-3.076v9.336h-2.736v-9.336h-3.078v-2.634h8.89V82.599z"/>
		<path fill="#FFFFFF" d="M222.36,90.054h-4.446l-0.597,1.881h-2.993l4.07-11.97h3.488l4.068,11.97h-2.991L222.36,90.054z
			 M221.539,87.489l-1.401-4.395l-1.403,4.395H221.539z"/>
		<path fill="#FFFFFF" d="M235.02,88.429c0,2.121-1.727,3.505-3.865,3.505h-5.027v-11.97h4.687c2.086,0,3.778,1.352,3.778,3.421
			c0,0.991-0.393,1.777-1.042,2.342C234.437,86.292,235.02,87.216,235.02,88.429z M228.863,82.531v2.119h1.95
			c0.614,0,1.042-0.443,1.042-1.06c0-0.615-0.409-1.059-1.042-1.059H228.863z M232.284,88.225c0-0.667-0.445-1.147-1.13-1.147
			h-2.291v2.292h2.291C231.839,89.37,232.284,88.891,232.284,88.225z"/>
		<path fill="#FFFFFF" d="M242.545,90.054H238.1l-0.597,1.881h-2.993l4.07-11.97h3.488l4.067,11.97h-2.99L242.545,90.054z
			 M241.725,87.489l-1.401-4.395l-1.403,4.395H241.725z"/>
		<path fill="#FFFFFF" d="M245.458,89.215l2.36-1.368c0.426,0.992,1.162,1.659,2.512,1.659c1.299,0,1.625-0.514,1.625-0.976
			c0-0.735-0.684-1.025-2.478-1.521c-1.779-0.496-3.523-1.351-3.523-3.642c0-2.309,1.949-3.642,4.019-3.642
			c1.966,0,3.506,0.94,4.376,2.701l-2.308,1.351c-0.411-0.854-0.975-1.384-2.068-1.384c-0.854,0-1.283,0.427-1.283,0.906
			c0,0.547,0.291,0.923,2.155,1.487c1.813,0.547,3.847,1.18,3.847,3.711c0,2.307-1.847,3.674-4.446,3.674
			C247.732,92.173,246.125,90.977,245.458,89.215z"/>
		<path fill="#FFFFFF" d="M262.647,89.301v2.633h-7.524v-11.97h7.438v2.634h-4.703v1.983h4.275v2.6h-4.275v2.12H262.647z"/>
	</g>
</g>
</svg>
