<?xml version="1.0" encoding="utf-8"?>
<!-- Generator: Adobe Illustrator 16.0.0, SVG Export Plug-In . SVG Version: 6.00 Build 0)  -->
<!DOCTYPE svg PUBLIC "-//W3C//DTD SVG 1.1//EN" "http://www.w3.org/Graphics/SVG/1.1/DTD/svg11.dtd">
<svg version="1.1" id="Layer_1" xmlns="http://www.w3.org/2000/svg" xmlns:xlink="http://www.w3.org/1999/xlink" x="0px" y="0px"
	 width="803.41px" height="181.477px" viewBox="216.896 -360.311 803.41 181.477"
	 enable-background="new 216.896 -360.311 803.41 181.477" xml:space="preserve">
<g id="Layer_1_1_">
</g>
<g id="Capa_1">
	<g>
		<g>
			<g>
				<path fill="#FFFFFF" d="M350.923-345.055h-3.418v-8.695l-3.868,6.346h-0.385l-3.867-6.346v8.696h-3.418v-14.958h3.418
					l4.06,6.646l4.061-6.646h3.418V-345.055z"/>
				<path fill="#FFFFFF" d="M356.906-360.012v14.958h-3.419v-14.958H356.906z"/>
				<path fill="#FFFFFF" d="M371.223-360.012v14.958h-2.564l-5.769-8.12v8.12h-3.419v-14.958h2.563l5.77,8.12v-8.12H371.223z"/>
				<path fill="#FFFFFF" d="M378.487-352.533c0-4.401,3.27-7.777,7.777-7.777c2.713,0,5.105,1.347,6.41,3.462l-2.949,1.708
					c-0.663-1.153-1.945-1.837-3.461-1.837c-2.649,0-4.358,1.773-4.358,4.444s1.709,4.444,4.358,4.444
					c1.517,0,2.82-0.685,3.461-1.838l2.949,1.709c-1.282,2.114-3.675,3.461-6.41,3.461
					C381.757-344.755,378.487-348.132,378.487-352.533z"/>
				<path fill="#FFFFFF" d="M403.252-347.404h-5.557l-0.747,2.351h-3.738l5.085-14.958h4.358l5.085,14.958h-3.74L403.252-347.404z
					 M402.227-350.608l-1.752-5.492l-1.752,5.492H402.227z"/>
				<path fill="#FFFFFF" d="M419.918-354.882c0,2.84-2.286,5.127-5.234,5.127h-2.244v4.701h-3.418v-14.958h5.663
					C417.632-360.012,419.918-357.725,419.918-354.882z M416.5-354.882c0-1.091-0.77-1.924-1.816-1.924h-2.244v3.846h2.244
					C415.73-352.96,416.5-353.794,416.5-354.882z"/>
			</g>
		</g>
		<g>
			<g>
				<path fill="#FFFFFF" d="M498.117-348.45l2.949-1.71c0.534,1.238,1.453,2.072,3.141,2.072c1.624,0,2.03-0.642,2.03-1.219
					c0-0.918-0.854-1.281-3.098-1.902c-2.222-0.618-4.401-1.688-4.401-4.55c0-2.886,2.437-4.552,5.021-4.552
					c2.457,0,4.38,1.175,5.47,3.376l-2.885,1.689c-0.513-1.068-1.218-1.731-2.585-1.731c-1.069,0-1.604,0.534-1.604,1.134
					c0,0.684,0.363,1.153,2.692,1.858c2.265,0.684,4.808,1.475,4.808,4.637c0,2.884-2.308,4.594-5.555,4.594
					C500.96-344.755,498.951-346.251,498.117-348.45z"/>
				<path fill="#FFFFFF" d="M510.725-352.533c0-4.401,3.481-7.777,7.777-7.777c4.295,0,7.777,3.376,7.777,7.777
					s-3.481,7.777-7.777,7.777C514.207-344.755,510.725-348.132,510.725-352.533z M522.86-352.533c0-2.67-1.923-4.444-4.358-4.444
					c-2.437,0-4.358,1.773-4.358,4.444s1.922,4.444,4.358,4.444C520.938-348.088,522.86-349.861,522.86-352.533z"/>
				<path fill="#FFFFFF" d="M531.621-356.72v2.884h5.556v3.291h-5.556v5.491h-3.419v-14.958h9.081v3.292H531.621z"/>
				<path fill="#FFFFFF" d="M549.355-356.72h-3.846v11.666h-3.419v-11.666h-3.847v-3.292h11.111V-356.72L549.355-356.72z"/>
				<path fill="#FFFFFF" d="M555.554-352.533c0-4.401,3.269-7.777,7.776-7.777c2.714,0,5.107,1.347,6.41,3.462l-2.949,1.708
					c-0.661-1.153-1.943-1.837-3.461-1.837c-2.648,0-4.357,1.773-4.357,4.444s1.709,4.444,4.357,4.444
					c1.518,0,2.82-0.685,3.461-1.838l2.949,1.709c-1.281,2.114-3.675,3.461-6.41,3.461
					C558.822-344.755,555.554-348.132,555.554-352.533z"/>
				<path fill="#FFFFFF" d="M580.316-347.404h-5.555l-0.748,2.351h-3.739l5.085-14.958h4.359l5.085,14.958h-3.739L580.316-347.404z
					 M579.291-350.608l-1.753-5.492l-1.751,5.492H579.291z"/>
				<path fill="#FFFFFF" d="M596.983-354.882c0,2.84-2.286,5.127-5.235,5.127h-2.243v4.701h-3.418v-14.958h5.661
					C594.697-360.012,596.983-357.725,596.983-354.882z M593.564-354.882c0-1.091-0.77-1.924-1.816-1.924h-2.243v3.846h2.243
					C592.796-352.96,593.564-353.794,593.564-354.882z"/>
			</g>
		</g>
		<g>
			<g>
				<path fill="#FFFFFF" d="M846.163-360.012v14.958h-3.419v-5.939h-4.7v5.939h-3.419v-14.958h3.419v5.729h4.7v-5.729H846.163z"/>
				<path fill="#FFFFFF" d="M857.489-347.404h-5.557l-0.748,2.351h-3.739l5.086-14.958h4.359l5.085,14.958h-3.739L857.489-347.404z
					 M856.464-350.608l-1.755-5.492l-1.75,5.492H856.464z"/>
				<path fill="#FFFFFF" d="M868.302-349.969h-1.625v4.915h-3.419v-14.958h5.981c2.843,0,5.13,2.288,5.13,5.13
					c0,1.837-1.112,3.503-2.757,4.337l3.183,5.491h-3.675L868.302-349.969z M866.677-352.96h2.563c0.94,0,1.71-0.833,1.71-1.922
					c0-1.091-0.77-1.924-1.71-1.924h-2.563V-352.96z"/>
				<path fill="#FFFFFF" d="M889.646-352.533c0,4.229-3.142,7.479-7.264,7.479h-5.983v-14.957h5.983
					C886.505-360.012,889.646-356.763,889.646-352.533z M886.354-352.533c0-2.563-1.623-4.188-3.973-4.188h-2.566v8.376h2.566
					C884.731-348.344,886.354-349.969,886.354-352.533z"/>
				<path fill="#FFFFFF" d="M896.271-352.533c0-4.401,3.269-7.777,7.776-7.777c2.714,0,5.107,1.347,6.408,3.462l-2.946,1.708
					c-0.663-1.153-1.944-1.837-3.462-1.837c-2.649,0-4.357,1.773-4.357,4.444s1.708,4.444,4.357,4.444
					c1.518,0,2.819-0.685,3.462-1.838l2.946,1.709c-1.279,2.114-3.675,3.461-6.408,3.461
					C899.539-344.755,896.271-348.132,896.271-352.533z"/>
				<path fill="#FFFFFF" d="M921.034-347.404h-5.555l-0.749,2.351h-3.739l5.086-14.958h4.359l5.085,14.958h-3.739L921.034-347.404z
					 M920.009-350.608l-1.753-5.492l-1.751,5.492H920.009z"/>
				<path fill="#FFFFFF" d="M937.699-354.882c0,2.84-2.283,5.127-5.231,5.127h-2.245v4.701h-3.417v-14.958h5.662
					C935.416-360.012,937.699-357.725,937.699-354.882z M934.282-354.882c0-1.091-0.769-1.924-1.814-1.924h-2.245v3.846h2.245
					C933.515-352.96,934.282-353.794,934.282-354.882z"/>
			</g>
		</g>
		<g>
			<g>
				<path fill="#FFFFFF" d="M667.329-354.882c0,2.84-2.285,5.127-5.233,5.127h-2.244v4.701h-3.418v-14.958h5.663
					C665.043-360.012,667.329-357.725,667.329-354.882z M663.91-354.882c0-1.091-0.769-1.924-1.815-1.924h-2.244v3.846h2.244
					C663.142-352.96,663.91-353.794,663.91-354.882z"/>
				<path fill="#FFFFFF" d="M668.398-352.533c0-4.401,3.483-7.777,7.777-7.777s7.776,3.376,7.776,7.777s-3.482,7.777-7.776,7.777
					S668.398-348.132,668.398-352.533z M680.534-352.533c0-2.67-1.923-4.444-4.358-4.444c-2.438,0-4.359,1.773-4.359,4.444
					s1.922,4.444,4.359,4.444C678.611-348.088,680.534-349.861,680.534-352.533z"/>
				<path fill="#FFFFFF" d="M684.809-360.012h3.59l2.585,10.471l2.885-10.471h2.776l2.885,10.471l2.584-10.471h3.592l-4.125,14.958
					h-3.889l-2.436-8.824l-2.437,8.824h-3.889L684.809-360.012z"/>
				<path fill="#FFFFFF" d="M716.602-348.344v3.29h-9.4v-14.958h9.294v3.292h-5.876v2.479h5.343v3.248h-5.343v2.649H716.602z"/>
				<path fill="#FFFFFF" d="M723.567-349.969h-1.623v4.915h-3.419v-14.958h5.982c2.842,0,5.128,2.288,5.128,5.13
					c0,1.837-1.111,3.503-2.757,4.337l3.184,5.491h-3.674L723.567-349.969z M721.944-352.96h2.563c0.938,0,1.71-0.833,1.71-1.922
					c0-1.091-0.771-1.924-1.71-1.924h-2.563V-352.96z"/>
				<path fill="#FFFFFF" d="M736.367-352.533c0-4.401,3.27-7.777,7.776-7.777c2.714,0,5.106,1.347,6.41,3.462l-2.949,1.708
					c-0.662-1.153-1.944-1.837-3.461-1.837c-2.649,0-4.358,1.773-4.358,4.444s1.709,4.444,4.358,4.444
					c1.517,0,2.82-0.685,3.461-1.838l2.949,1.709c-1.282,2.114-3.675,3.461-6.41,3.461
					C739.637-344.755,736.367-348.132,736.367-352.533z"/>
				<path fill="#FFFFFF" d="M761.132-347.404h-5.557l-0.747,2.351h-3.737l5.083-14.958h4.359l5.085,14.958h-3.738L761.132-347.404z
					 M760.105-350.608l-1.752-5.492l-1.753,5.492H760.105z"/>
				<path fill="#FFFFFF" d="M777.799-354.882c0,2.84-2.286,5.127-5.234,5.127h-2.245v4.701H766.9v-14.958h5.664
					C775.513-360.012,777.799-357.725,777.799-354.882z M774.38-354.882c0-1.091-0.771-1.924-1.815-1.924h-2.245v3.846h2.245
					C773.609-352.96,774.38-353.794,774.38-354.882z"/>
			</g>
		</g>
		
			<linearGradient id="SVGID_1_" gradientUnits="userSpaceOnUse" x1="-3107.0698" y1="1102.3765" x2="-3057.9253" y2="1102.3765" gradientTransform="matrix(0 -1 -1 0 1370.4302 -3285.9038)">
			<stop  offset="0" style="stop-color:#706DCB;stop-opacity:0"/>
			<stop  offset="1" style="stop-color:#706DCB;stop-opacity:0.7"/>
		</linearGradient>
		<path opacity="0.2" fill="url(#SVGID_1_)" enable-background="new    " d="M294.794-227.979h-36.388
			c-9.441,0-17.094,7.654-17.094,17.093v14.958c0,9.441,7.653,17.094,17.094,17.094h36.388V-227.979z"/>
		
			<linearGradient id="SVGID_2_" gradientUnits="userSpaceOnUse" x1="-3107.0698" y1="991.8286" x2="-3057.9253" y2="991.8286" gradientTransform="matrix(0 -1 -1 0 1370.4302 -3285.9038)">
			<stop  offset="0" style="stop-color:#706DCB;stop-opacity:0"/>
			<stop  offset="1" style="stop-color:#706DCB;stop-opacity:0.7"/>
		</linearGradient>
		
			<rect x="296.219" y="-227.979" opacity="0.4" fill="url(#SVGID_2_)" enable-background="new    " width="164.767" height="49.145"/>
		
			<linearGradient id="SVGID_3_" gradientUnits="userSpaceOnUse" x1="-3107.0698" y1="825.4009" x2="-3057.9253" y2="825.4009" gradientTransform="matrix(0 -1 -1 0 1370.4302 -3285.9038)">
			<stop  offset="0" style="stop-color:#706DCB;stop-opacity:0"/>
			<stop  offset="1" style="stop-color:#706DCB;stop-opacity:0.7"/>
		</linearGradient>
		
			<rect x="462.409" y="-227.979" opacity="0.6" fill="url(#SVGID_3_)" enable-background="new    " width="165.241" height="49.145"/>
		
			<linearGradient id="SVGID_4_" gradientUnits="userSpaceOnUse" x1="-3107.0698" y1="374.562" x2="-3057.9253" y2="374.562" gradientTransform="matrix(0 -1 -1 0 1370.4302 -3285.9038)">
			<stop  offset="0" style="stop-color:#706DCB;stop-opacity:0"/>
			<stop  offset="1" style="stop-color:#706DCB;stop-opacity:0.7"/>
		</linearGradient>
		<path opacity="0.2" fill="url(#SVGID_4_)" enable-background="new    " d="M1003.214-227.979H971.43v49.145h31.784
			c9.439,0,17.093-7.651,17.093-17.094v-14.958C1020.307-220.324,1012.653-227.979,1003.214-227.979z"/>
		
			<linearGradient id="SVGID_5_" gradientUnits="userSpaceOnUse" x1="-3107.0698" y1="484.7095" x2="-3057.9253" y2="484.7095" gradientTransform="matrix(0 -1 -1 0 1370.4302 -3285.9038)">
			<stop  offset="0" style="stop-color:#706DCB;stop-opacity:0"/>
			<stop  offset="1" style="stop-color:#706DCB;stop-opacity:0.7"/>
		</linearGradient>
		<rect x="801.438" y="-227.979" fill="url(#SVGID_5_)" width="168.567" height="49.145"/>
		
			<linearGradient id="SVGID_6_" gradientUnits="userSpaceOnUse" x1="-3107.0698" y1="655.8853" x2="-3057.9253" y2="655.8853" gradientTransform="matrix(0 -1 -1 0 1370.4302 -3285.9038)">
			<stop  offset="0" style="stop-color:#706DCB;stop-opacity:0"/>
			<stop  offset="1" style="stop-color:#706DCB;stop-opacity:0.7"/>
		</linearGradient>
		
			<rect x="629.075" y="-227.979" opacity="0.8" fill="url(#SVGID_6_)" enable-background="new    " width="170.938" height="49.145"/>
		<g>
			<g>
				<path fill="#FFFFFF" d="M216.896-284.975c0-3.991,3.013-7.203,7.264-7.203c2.574,0,4.829,1.316,5.986,3.352l-0.938,0.54
					c-0.917-1.718-2.854-2.874-5.048-2.874c-3.671,0-6.205,2.754-6.205,6.186c0,3.433,2.534,6.187,6.205,6.187
					c2.215,0,4.17-1.178,5.088-2.934l0.938,0.538c-1.137,2.055-3.412,3.413-6.026,3.413
					C219.911-277.771,216.896-280.983,216.896-284.975z"/>
				<path fill="#FFFFFF" d="M239.458-281.542h-7.003l-1.357,3.552h-1.118l5.427-13.969h1.118l5.407,13.969h-1.117L239.458-281.542z
					 M239.079-282.539l-3.112-8.122l-3.114,8.122H239.079z"/>
				<path fill="#FFFFFF" d="M251.803-287.628c0,2.453-1.835,4.31-4.35,4.31h-3.691v5.328h-1.058v-13.969h4.749
					C249.966-291.959,251.803-290.103,251.803-287.628z M250.746-287.628c0-1.936-1.378-3.332-3.293-3.332h-3.691v6.645h3.691
					C249.368-284.315,250.746-285.713,250.746-287.628z"/>
				<path fill="#FFFFFF" d="M252.315-281.063l0.918-0.539c0.479,1.677,1.896,2.813,4.189,2.813c2.335,0,3.512-1.197,3.512-2.794
					c0-1.676-1.477-2.314-3.611-2.991c-2.335-0.759-4.43-1.417-4.43-3.854c0-2.294,1.856-3.75,4.23-3.75
					c2.294,0,3.811,1.316,4.489,2.934l-0.898,0.499c-0.519-1.258-1.596-2.415-3.591-2.415c-1.936,0-3.153,1.138-3.153,2.694
					c0,1.674,1.417,2.193,3.412,2.854c2.475,0.817,4.629,1.596,4.629,4.01c0,2.315-1.816,3.832-4.589,3.832
					C254.81-277.771,252.955-279.088,252.315-281.063z"/>
			</g>
		</g>
		<g>
			<g>
				<path fill="#FFFFFF" d="M498.266-323.014c0,2.853-2.222,4.334-4.722,4.334c-2.057,0-3.834-0.87-4.631-2.777l2.557-1.482
					c0.296,0.853,0.851,1.372,2.074,1.372c1.222,0,1.759-0.648,1.759-1.445c0-0.795-0.537-1.444-1.667-1.444h-4.057l0.538-7.444h7.5
					v2.776h-4.723l-0.129,1.778h1.055C496.229-327.347,498.266-325.865,498.266-323.014z"/>
				<path fill="#FFFFFF" d="M503.729-331.902v12.963h-2.963v-9.833l-2.296,0.63l-0.724-2.538l3.391-1.223L503.729-331.902
					L503.729-331.902z"/>
				<path fill="#FFFFFF" d="M507.876-325.42c0-4.001,1.926-6.74,5.277-6.74c3.353,0,5.278,2.739,5.278,6.74
					c0,4-1.926,6.74-5.278,6.74C509.802-318.68,507.876-321.421,507.876-325.42z M515.469-325.42c0-2.501-0.76-3.852-2.315-3.852
					s-2.313,1.351-2.313,3.852c0,2.5,0.759,3.853,2.313,3.853C514.709-321.568,515.469-322.921,515.469-325.42z"/>
				<path fill="#FFFFFF" d="M518.376-325.42c0-4.001,1.926-6.74,5.277-6.74c3.353,0,5.278,2.739,5.278,6.74
					c0,4-1.926,6.74-5.278,6.74C520.302-318.68,518.376-321.421,518.376-325.42z M525.969-325.42c0-2.501-0.76-3.852-2.314-3.852
					c-1.556,0-2.314,1.351-2.314,3.852c0,2.5,0.759,3.853,2.314,3.853C525.209-321.568,525.969-322.921,525.969-325.42z"/>
				<path fill="#FFFFFF" d="M528.875-325.42c0-4.001,1.926-6.74,5.277-6.74c3.353,0,5.278,2.739,5.278,6.74
					c0,4-1.926,6.74-5.278,6.74C530.801-318.68,528.875-321.421,528.875-325.42z M536.468-325.42c0-2.501-0.759-3.852-2.315-3.852
					c-1.556,0-2.314,1.351-2.314,3.852c0,2.5,0.759,3.853,2.314,3.853C535.709-321.568,536.468-322.921,536.468-325.42z"/>
				<path fill="#FFFFFF" d="M542.839-325.42c0-4.001,1.926-6.74,5.277-6.74c3.353,0,5.278,2.739,5.278,6.74
					c0,4-1.926,6.74-5.278,6.74C544.765-318.68,542.839-321.421,542.839-325.42z M550.432-325.42c0-2.501-0.76-3.852-2.315-3.852
					s-2.313,1.351-2.313,3.852c0,2.5,0.759,3.853,2.313,3.853C549.672-321.568,550.432-322.921,550.432-325.42z"/>
				<path fill="#FFFFFF" d="M553.338-325.42c0-4.001,1.926-6.74,5.277-6.74c3.353,0,5.278,2.739,5.278,6.74
					c0,4-1.926,6.74-5.278,6.74C555.265-318.68,553.338-321.421,553.338-325.42z M560.931-325.42c0-2.501-0.76-3.852-2.315-3.852
					s-2.313,1.351-2.313,3.852c0,2.5,0.758,3.853,2.313,3.853C560.171-321.568,560.931-322.921,560.931-325.42z"/>
				<path fill="#FFFFFF" d="M563.838-325.42c0-4.001,1.926-6.74,5.277-6.74c3.353,0,5.278,2.739,5.278,6.74
					c0,4-1.926,6.74-5.278,6.74C565.764-318.68,563.838-321.421,563.838-325.42z M571.431-325.42c0-2.501-0.76-3.852-2.314-3.852
					c-1.556,0-2.314,1.351-2.314,3.852c0,2.5,0.759,3.853,2.314,3.853C570.671-321.568,571.431-322.921,571.431-325.42z"/>
				<path fill="#FFFFFF" d="M581.939-323.428c0-2.563,2.039-4.629,4.629-4.629c2.591,0,4.63,2.065,4.63,4.629
					c0,2.565-2.039,4.629-4.63,4.629C583.979-318.799,581.939-320.862,581.939-323.428z M590.52-323.428
					c0-2.205-1.73-3.975-3.951-3.975c-2.218,0-3.949,1.77-3.949,3.975c0,2.206,1.731,3.976,3.949,3.976
					C588.789-319.452,590.52-321.222,590.52-323.428z"/>
				<path fill="#FFFFFF" d="M592.785-327.274v3.59h4.145v0.641h-4.145v4.104h-0.679v-8.978h4.976v0.643H592.785z"/>
				<path fill="#FFFFFF" d="M597.427-323.428c0-2.563,1.937-4.629,4.668-4.629c1.653,0,3.104,0.847,3.847,2.154l-0.603,0.347
					c-0.591-1.104-1.834-1.846-3.245-1.846c-2.36,0-3.988,1.77-3.988,3.975c0,2.206,1.628,3.976,3.988,3.976
					c1.423,0,2.68-0.757,3.27-1.885l0.604,0.347c-0.731,1.32-2.193,2.191-3.873,2.191
					C599.363-318.799,597.427-320.862,597.427-323.428z"/>
			</g>
		</g>
		<g>
			<g>
				<path fill="#FFFFFF" d="M651.409-321.087l4.353-4.519c0.759-0.779,1.313-1.537,1.313-2.296c0-0.815-0.519-1.37-1.388-1.37
					c-0.908,0-1.556,0.593-1.907,1.407l-2.5-1.462c0.833-1.928,2.574-2.833,4.37-2.833c2.315,0,4.389,1.518,4.389,4.13
					c0,1.555-0.832,2.887-2.018,4.072l-2.148,2.168h4.353v2.852h-8.815L651.409-321.087L651.409-321.087z"/>
				<path fill="#FFFFFF" d="M660.262-325.42c0-4.001,1.926-6.74,5.277-6.74c3.353,0,5.278,2.739,5.278,6.74
					c0,4-1.926,6.74-5.278,6.74C662.188-318.68,660.262-321.421,660.262-325.42z M667.854-325.42c0-2.501-0.76-3.852-2.314-3.852
					c-1.557,0-2.315,1.351-2.315,3.852c0,2.5,0.759,3.853,2.315,3.853C667.095-321.568,667.854-322.921,667.854-325.42z"/>
				<path fill="#FFFFFF" d="M680.761-321.014h-1.296v2.074h-3v-2.074h-5.891v-2.74l4.13-8.148h3.186l-4.13,8.148h2.704v-2.777h3
					v2.777h1.296L680.761-321.014L680.761-321.014z"/>
				<path fill="#FFFFFF" d="M683.798-325.42c0-4.001,1.926-6.74,5.276-6.74c3.354,0,5.277,2.739,5.277,6.74
					c0,4-1.925,6.74-5.277,6.74C685.724-318.68,683.798-321.421,683.798-325.42z M691.391-325.42c0-2.501-0.76-3.852-2.315-3.852
					c-1.555,0-2.313,1.351-2.313,3.852c0,2.5,0.759,3.853,2.313,3.853C690.631-321.567,691.391-322.921,691.391-325.42z"/>
				<path fill="#FFFFFF" d="M694.298-325.42c0-4.001,1.926-6.74,5.276-6.74c3.352,0,5.277,2.739,5.277,6.74
					c0,4-1.926,6.74-5.277,6.74C696.224-318.68,694.298-321.421,694.298-325.42z M701.891-325.42c0-2.501-0.76-3.852-2.315-3.852
					c-1.555,0-2.313,1.351-2.313,3.852c0,2.5,0.759,3.853,2.313,3.853C701.131-321.567,701.891-322.921,701.891-325.42z"/>
				<path fill="#FFFFFF" d="M704.797-325.42c0-4.001,1.927-6.74,5.277-6.74c3.352,0,5.277,2.739,5.277,6.74
					c0,4-1.926,6.74-5.277,6.74C706.724-318.68,704.797-321.421,704.797-325.42z M712.391-325.42c0-2.501-0.76-3.852-2.315-3.852
					c-1.555,0-2.313,1.351-2.313,3.852c0,2.5,0.76,3.853,2.313,3.853C711.631-321.568,712.391-322.921,712.391-325.42z"/>
				<path fill="#FFFFFF" d="M718.76-325.42c0-4.001,1.927-6.74,5.278-6.74s5.277,2.739,5.277,6.74c0,4-1.927,6.74-5.277,6.74
					C720.687-318.68,718.76-321.421,718.76-325.42z M726.353-325.42c0-2.501-0.76-3.852-2.314-3.852
					c-1.558,0-2.315,1.351-2.315,3.852c0,2.5,0.759,3.853,2.315,3.853C725.594-321.568,726.353-322.921,726.353-325.42z"/>
				<path fill="#FFFFFF" d="M729.26-325.42c0-4.001,1.926-6.74,5.276-6.74c3.354,0,5.278,2.739,5.278,6.74
					c0,4-1.926,6.74-5.278,6.74C731.186-318.68,729.26-321.421,729.26-325.42z M736.852-325.42c0-2.501-0.759-3.852-2.314-3.852
					c-1.555,0-2.313,1.351-2.313,3.852c0,2.5,0.759,3.853,2.313,3.853C736.093-321.567,736.852-322.921,736.852-325.42z"/>
				<path fill="#FFFFFF" d="M739.76-325.42c0-4.001,1.926-6.74,5.276-6.74c3.354,0,5.278,2.739,5.278,6.74
					c0,4-1.926,6.74-5.278,6.74C741.686-318.68,739.76-321.421,739.76-325.42z M747.352-325.42c0-2.501-0.759-3.852-2.314-3.852
					c-1.555,0-2.313,1.351-2.313,3.852c0,2.5,0.76,3.853,2.313,3.853C746.593-321.568,747.352-322.921,747.352-325.42z"/>
				<path fill="#FFFFFF" d="M757.861-323.428c0-2.563,2.039-4.629,4.629-4.629c2.592,0,4.629,2.065,4.629,4.629
					c0,2.565-2.037,4.629-4.629,4.629C759.9-318.799,757.861-320.862,757.861-323.428z M766.44-323.428
					c0-2.205-1.73-3.975-3.95-3.975c-2.218,0-3.948,1.77-3.948,3.975c0,2.206,1.73,3.976,3.948,3.976
					C764.71-319.452,766.44-321.222,766.44-323.428z"/>
				<path fill="#FFFFFF" d="M768.709-327.274v3.59h4.142v0.641h-4.142v4.104h-0.682v-8.978h4.977v0.643H768.709z"/>
				<path fill="#FFFFFF" d="M773.35-323.428c0-2.563,1.936-4.629,4.667-4.629c1.654,0,3.104,0.847,3.847,2.154l-0.603,0.347
					c-0.59-1.104-1.833-1.846-3.244-1.846c-2.359,0-3.988,1.77-3.988,3.975c0,2.206,1.629,3.976,3.988,3.976
					c1.424,0,2.68-0.757,3.27-1.885l0.604,0.347c-0.729,1.32-2.191,2.191-3.872,2.191
					C775.284-318.799,773.35-320.862,773.35-323.428z"/>
			</g>
		</g>
		<g>
			<g>
				<path fill="#FFFFFF" d="M831.396-323.014c0,2.853-2.222,4.334-4.724,4.334c-2.058,0-3.833-0.87-4.63-2.777l2.557-1.482
					c0.296,0.853,0.853,1.372,2.073,1.372c1.223,0,1.76-0.648,1.76-1.445c0-0.795-0.537-1.444-1.666-1.444h-4.056l0.536-7.444h7.499
					v2.776h-4.722l-0.129,1.778h1.056C829.358-327.347,831.396-325.865,831.396-323.014z"/>
				<path fill="#FFFFFF" d="M836.858-331.902v12.963h-2.963v-9.833l-2.295,0.63l-0.723-2.538l3.388-1.223L836.858-331.902
					L836.858-331.902z"/>
				<path fill="#FFFFFF" d="M837.545-325.42c0-4.001,1.927-6.74,5.276-6.74c3.354,0,5.278,2.739,5.278,6.74
					c0,4-1.926,6.74-5.278,6.74C839.472-318.68,837.545-321.421,837.545-325.42z M845.137-325.42c0-2.501-0.76-3.852-2.314-3.852
					c-1.556,0-2.314,1.351-2.314,3.852c0,2.5,0.76,3.853,2.314,3.853C844.377-321.568,845.137-322.921,845.137-325.42z"/>
				<path fill="#FFFFFF" d="M851.508-325.42c0-4.001,1.926-6.74,5.276-6.74c3.354,0,5.278,2.739,5.278,6.74
					c0,4-1.926,6.74-5.278,6.74C853.434-318.68,851.508-321.421,851.508-325.42z M859.101-325.42c0-2.501-0.76-3.852-2.315-3.852
					c-1.555,0-2.313,1.351-2.313,3.852c0,2.5,0.759,3.853,2.313,3.853C858.341-321.567,859.101-322.921,859.101-325.42z"/>
				<path fill="#FFFFFF" d="M862.007-325.42c0-4.001,1.927-6.74,5.277-6.74c3.352,0,5.277,2.739,5.277,6.74
					c0,4-1.927,6.74-5.277,6.74S862.007-321.421,862.007-325.42z M869.6-325.42c0-2.501-0.76-3.852-2.314-3.852
					c-1.557,0-2.313,1.351-2.313,3.852c0,2.5,0.758,3.853,2.313,3.853C868.84-321.568,869.6-322.921,869.6-325.42z"/>
				<path fill="#FFFFFF" d="M872.507-325.42c0-4.001,1.927-6.74,5.277-6.74c3.352,0,5.277,2.739,5.277,6.74
					c0,4-1.927,6.74-5.277,6.74S872.507-321.421,872.507-325.42z M880.1-325.42c0-2.501-0.76-3.852-2.314-3.852
					c-1.557,0-2.313,1.351-2.313,3.852c0,2.5,0.758,3.853,2.313,3.853C879.34-321.568,880.1-322.921,880.1-325.42z"/>
				<path fill="#FFFFFF" d="M886.469-325.42c0-4.001,1.926-6.74,5.277-6.74c3.353,0,5.277,2.739,5.277,6.74
					c0,4-1.925,6.74-5.277,6.74C888.395-318.68,886.469-321.421,886.469-325.42z M894.062-325.42c0-2.501-0.76-3.852-2.315-3.852
					c-1.555,0-2.313,1.351-2.313,3.852c0,2.5,0.76,3.853,2.313,3.853C893.303-321.568,894.062-322.921,894.062-325.42z"/>
				<path fill="#FFFFFF" d="M896.97-325.42c0-4.001,1.925-6.74,5.275-6.74c3.354,0,5.278,2.739,5.278,6.74
					c0,4-1.925,6.74-5.278,6.74C898.895-318.68,896.97-321.421,896.97-325.42z M904.562-325.42c0-2.501-0.76-3.852-2.316-3.852
					c-1.554,0-2.313,1.351-2.313,3.852c0,2.5,0.761,3.853,2.313,3.853C903.803-321.568,904.562-322.921,904.562-325.42z"/>
				<path fill="#FFFFFF" d="M907.471-325.42c0-4.001,1.924-6.74,5.275-6.74c3.353,0,5.278,2.739,5.278,6.74
					c0,4-1.926,6.74-5.278,6.74C909.395-318.68,907.471-321.421,907.471-325.42z M915.062-325.42c0-2.501-0.76-3.852-2.315-3.852
					c-1.557,0-2.313,1.351-2.313,3.852c0,2.5,0.758,3.853,2.313,3.853C914.303-321.568,915.062-322.921,915.062-325.42z"/>
				<path fill="#FFFFFF" d="M925.57-323.428c0-2.563,2.039-4.629,4.629-4.629c2.591,0,4.631,2.065,4.631,4.629
					c0,2.565-2.04,4.629-4.631,4.629C927.609-318.799,925.57-320.862,925.57-323.428z M934.15-323.428
					c0-2.205-1.731-3.975-3.951-3.975c-2.217,0-3.948,1.77-3.948,3.975c0,2.206,1.731,3.976,3.948,3.976
					C932.419-319.452,934.15-321.222,934.15-323.428z"/>
				<path fill="#FFFFFF" d="M936.416-327.274v3.59h4.143v0.641h-4.143v4.104h-0.681v-8.978h4.979v0.643H936.416z"/>
				<path fill="#FFFFFF" d="M941.06-323.428c0-2.563,1.937-4.629,4.667-4.629c1.654,0,3.104,0.847,3.847,2.154l-0.603,0.347
					c-0.591-1.104-1.834-1.846-3.244-1.846c-2.361,0-3.988,1.77-3.988,3.975c0,2.206,1.627,3.976,3.988,3.976
					c1.423,0,2.68-0.757,3.27-1.885l0.604,0.347c-0.73,1.32-2.194,2.191-3.873,2.191C942.995-318.799,941.06-320.862,941.06-323.428
					z"/>
			</g>
		</g>
		<g>
			<g>
				<path fill="#FFFFFF" d="M325.625-331.902v12.963h-2.963v-9.833l-2.296,0.63l-0.722-2.537l3.389-1.223H325.625z"/>
				<path fill="#FFFFFF" d="M326.163-321.087l4.352-4.519c0.759-0.779,1.314-1.537,1.314-2.296c0-0.815-0.518-1.37-1.389-1.37
					c-0.907,0-1.555,0.593-1.907,1.407l-2.5-1.462c0.834-1.928,2.574-2.833,4.371-2.833c2.315,0,4.39,1.518,4.39,4.13
					c0,1.555-0.833,2.887-2.02,4.072l-2.148,2.168h4.353v2.852h-8.814L326.163-321.087L326.163-321.087z"/>
				<path fill="#FFFFFF" d="M347.645-323.014c0,2.853-2.222,4.334-4.722,4.334c-2.058,0-3.834-0.87-4.631-2.777l2.556-1.482
					c0.296,0.853,0.852,1.372,2.075,1.372c1.221,0,1.758-0.648,1.758-1.445c0-0.795-0.537-1.444-1.666-1.444h-4.056l0.536-7.444h7.5
					v2.776h-4.722l-0.13,1.778h1.056C345.606-327.347,347.645-325.865,347.645-323.014z"/>
				<path fill="#FFFFFF" d="M347.494-325.42c0-4.001,1.928-6.74,5.278-6.74s5.278,2.739,5.278,6.74c0,4-1.928,6.74-5.278,6.74
					S347.494-321.421,347.494-325.42z M355.088-325.42c0-2.501-0.761-3.852-2.315-3.852c-1.556,0-2.315,1.351-2.315,3.852
					c0,2.5,0.76,3.853,2.315,3.853C354.328-321.568,355.088-322.921,355.088-325.42z"/>
				<path fill="#FFFFFF" d="M357.995-325.42c0-4.001,1.927-6.74,5.278-6.74c3.353,0,5.278,2.739,5.278,6.74
					c0,4-1.926,6.74-5.278,6.74S357.995-321.421,357.995-325.42z M365.588-325.42c0-2.501-0.76-3.852-2.314-3.852
					c-1.556,0-2.314,1.351-2.314,3.852c0,2.5,0.759,3.853,2.314,3.853C364.828-321.568,365.588-322.921,365.588-325.42z"/>
				<path fill="#FFFFFF" d="M371.957-325.42c0-4.001,1.927-6.74,5.278-6.74c3.353,0,5.277,2.739,5.277,6.74
					c0,4-1.925,6.74-5.277,6.74C373.884-318.68,371.957-321.421,371.957-325.42z M379.551-325.42c0-2.501-0.76-3.852-2.315-3.852
					s-2.314,1.351-2.314,3.852c0,2.5,0.759,3.853,2.314,3.853C378.791-321.568,379.551-322.921,379.551-325.42z"/>
				<path fill="#FFFFFF" d="M382.457-325.42c0-4.001,1.927-6.74,5.278-6.74c3.353,0,5.278,2.739,5.278,6.74
					c0,4-1.926,6.74-5.278,6.74C384.384-318.68,382.457-321.421,382.457-325.42z M390.051-325.42c0-2.501-0.76-3.852-2.315-3.852
					c-1.555,0-2.313,1.351-2.313,3.852c0,2.5,0.759,3.853,2.313,3.853C389.291-321.567,390.051-322.921,390.051-325.42z"/>
				<path fill="#FFFFFF" d="M392.957-325.42c0-4.001,1.927-6.74,5.278-6.74c3.353,0,5.278,2.739,5.278,6.74
					c0,4-1.926,6.74-5.278,6.74C394.884-318.68,392.957-321.421,392.957-325.42z M400.55-325.42c0-2.501-0.761-3.852-2.315-3.852
					c-1.556,0-2.313,1.351-2.313,3.852c0,2.5,0.759,3.853,2.313,3.853C399.791-321.568,400.55-322.921,400.55-325.42z"/>
				<path fill="#FFFFFF" d="M411.06-323.428c0-2.563,2.039-4.629,4.629-4.629c2.591,0,4.629,2.065,4.629,4.629
					c0,2.565-2.038,4.629-4.629,4.629C413.099-318.799,411.06-320.862,411.06-323.428z M419.639-323.428
					c0-2.205-1.731-3.975-3.95-3.975c-2.218,0-3.949,1.77-3.949,3.975c0,2.206,1.731,3.976,3.949,3.976
					C417.907-319.452,419.639-321.222,419.639-323.428z"/>
				<path fill="#FFFFFF" d="M421.905-327.274v3.59h4.144v0.641h-4.144v4.104h-0.679v-8.978h4.976v0.643H421.905z"/>
				<path fill="#FFFFFF" d="M426.547-323.428c0-2.563,1.937-4.629,4.668-4.629c1.653,0,3.104,0.847,3.847,2.154l-0.603,0.347
					c-0.591-1.104-1.834-1.846-3.244-1.846c-2.36,0-3.988,1.77-3.988,3.975c0,2.206,1.628,3.976,3.988,3.976
					c1.423,0,2.68-0.757,3.27-1.885l0.604,0.347c-0.731,1.32-2.193,2.191-3.873,2.191
					C428.483-318.799,426.547-320.862,426.547-323.428z"/>
			</g>
		</g>
		
			<linearGradient id="SVGID_7_" gradientUnits="userSpaceOnUse" x1="203.3057" y1="1365.23" x2="203.3057" y2="1356.3394" gradientTransform="matrix(1 0 0 -1 175 1128.3604)">
			<stop  offset="0" style="stop-color:#706DCB"/>
			<stop  offset="1" style="stop-color:#706DCB;stop-opacity:0.7"/>
		</linearGradient>
		<polygon opacity="0.4" fill="url(#SVGID_7_)" enable-background="new    " points="378.306,-236.869 370.127,-227.979 
			386.484,-227.979 		"/>
		
			<linearGradient id="SVGID_8_" gradientUnits="userSpaceOnUse" x1="372.0283" y1="1365.23" x2="372.0283" y2="1356.3394" gradientTransform="matrix(1 0 0 -1 175 1128.3604)">
			<stop  offset="0" style="stop-color:#706DCB"/>
			<stop  offset="1" style="stop-color:#706DCB;stop-opacity:0.7"/>
		</linearGradient>
		<polygon opacity="0.6" fill="url(#SVGID_8_)" enable-background="new    " points="547.028,-236.869 538.851,-227.979 
			555.207,-227.979 		"/>
		
			<linearGradient id="SVGID_9_" gradientUnits="userSpaceOnUse" x1="541.6875" y1="1365.23" x2="541.6875" y2="1356.3394" gradientTransform="matrix(1 0 0 -1 175 1128.3604)">
			<stop  offset="0" style="stop-color:#706DCB"/>
			<stop  offset="1" style="stop-color:#706DCB;stop-opacity:0.7"/>
		</linearGradient>
		<polygon opacity="0.8" fill="url(#SVGID_9_)" enable-background="new    " points="716.688,-236.869 708.51,-227.979 
			724.866,-227.979 		"/>
		
			<linearGradient id="SVGID_10_" gradientUnits="userSpaceOnUse" x1="710.7354" y1="1365.23" x2="710.7354" y2="1356.3394" gradientTransform="matrix(1 0 0 -1 175 1128.3604)">
			<stop  offset="0" style="stop-color:#706DCB"/>
			<stop  offset="1" style="stop-color:#706DCB;stop-opacity:0.7"/>
		</linearGradient>
		<polygon fill="url(#SVGID_10_)" points="885.735,-236.869 877.559,-227.979 893.914,-227.979 		"/>
		<g>
			<path fill="#FFFFFF" d="M352.108-212.152c0-2.848,2.15-5.141,5.184-5.141c1.836,0,3.444,0.94,4.27,2.394l-0.669,0.384
				c-0.654-1.224-2.036-2.051-3.601-2.051c-2.621,0-4.429,1.966-4.429,4.414c0,2.449,1.809,4.415,4.429,4.415
				c1.579,0,2.976-0.84,3.63-2.094l0.669,0.384c-0.813,1.468-2.436,2.436-4.299,2.436
				C354.259-207.012,352.108-209.305,352.108-212.152z"/>
			<path fill="#FFFFFF" d="M367.276-211.255h-3.146v4.085h-0.754v-9.966h3.929c1.623,0,2.947,1.324,2.947,2.946
				c0,1.354-0.926,2.491-2.192,2.834l2.477,4.186h-0.868L367.276-211.255z M364.131-211.967h3.175c1.21,0,2.191-0.996,2.191-2.222
				c0-1.238-0.981-2.234-2.191-2.234h-3.175V-211.967z"/>
			<path fill="#FFFFFF" d="M374.498-211.271v4.102h-0.754v-4.102l-3.63-5.864h0.854l3.161,5.141l3.146-5.141h0.855L374.498-211.271z
				"/>
			<path fill="#FFFFFF" d="M386.008-214.046c0,1.752-1.311,3.075-3.104,3.075h-2.634v3.802h-0.754v-9.966h3.388
				C384.697-217.135,386.008-215.811,386.008-214.046z M385.253-214.046c0-1.38-0.982-2.376-2.35-2.376h-2.634v4.741h2.634
				C384.271-211.682,385.253-212.68,385.253-214.046z"/>
			<path fill="#FFFFFF" d="M393.998-216.423h-3.132v9.253h-0.769v-9.253h-3.132v-0.712h7.032V-216.423z"/>
			<path fill="#FFFFFF" d="M394.216-212.152c0-2.848,2.265-5.141,5.14-5.141c2.876,0,5.139,2.293,5.139,5.141
				s-2.263,5.141-5.139,5.141C396.48-207.012,394.216-209.305,394.216-212.152z M403.74-212.152c0-2.448-1.922-4.414-4.385-4.414
				s-4.385,1.966-4.385,4.414c0,2.449,1.922,4.415,4.385,4.415S403.74-209.703,403.74-212.152z"/>
			<path fill="#FFFFFF" d="M347.407-202.891v9.966h-0.755v-9.966H347.407z"/>
			<path fill="#FFFFFF" d="M357.189-202.891v9.966h-0.669l-5.88-8.57v8.57h-0.754v-9.966h0.654l5.895,8.571v-8.571H357.189z"/>
			<path fill="#FFFFFF" d="M368.114-197.907c0,2.748-1.95,4.982-4.697,4.982h-3.744v-9.966h3.744
				C366.164-202.891,368.114-200.654,368.114-197.907z M367.373-197.907c0-2.363-1.608-4.271-3.957-4.271h-2.99v8.542h2.99
				C365.765-193.637,367.373-195.543,367.373-197.907z"/>
			<path fill="#FFFFFF" d="M369.886-196.256v-6.634h0.755v6.634c0,1.624,1.011,2.764,2.89,2.764c1.895,0,2.904-1.14,2.904-2.764
				v-6.634h0.755v6.634c0,2.107-1.467,3.489-3.659,3.489C371.339-192.767,369.886-194.148,369.886-196.256z"/>
			<path fill="#FFFFFF" d="M378.931-195.116l0.656-0.385c0.342,1.195,1.352,2.008,2.989,2.008c1.666,0,2.506-0.854,2.506-1.994
				c0-1.196-1.054-1.651-2.576-2.135c-1.666-0.541-3.161-1.012-3.161-2.749c0-1.639,1.324-2.678,3.018-2.678
				c1.638,0,2.721,0.94,3.204,2.095l-0.641,0.355c-0.37-0.897-1.14-1.724-2.563-1.724c-1.38,0-2.249,0.812-2.249,1.922
				c0,1.196,1.01,1.565,2.435,2.035c1.766,0.584,3.304,1.14,3.304,2.862c0,1.651-1.296,2.734-3.275,2.734
				C380.711-192.767,379.387-193.707,378.931-195.116z"/>
			<path fill="#FFFFFF" d="M393.827-202.178h-3.132v9.254h-0.769v-9.254h-3.132v-0.712h7.031L393.827-202.178L393.827-202.178z"/>
			<path fill="#FFFFFF" d="M399.3-197.01h-3.146v4.086h-0.755v-9.966h3.929c1.623,0,2.947,1.325,2.947,2.947
				c0,1.354-0.926,2.492-2.192,2.833l2.478,4.186h-0.869L399.3-197.01z M396.153-197.723h3.174c1.21,0,2.192-0.996,2.192-2.221
				c0-1.238-0.982-2.234-2.192-2.234h-3.174V-197.723z"/>
			<path fill="#FFFFFF" d="M407.42-197.024v4.101h-0.756v-4.101l-3.63-5.865h0.854l3.161,5.14l3.146-5.14h0.855L407.42-197.024z"/>
		</g>
		<text transform="matrix(1 0 0 1 582.2129 -211.4419)" fill="#FFFFFF" font-family="'Gilroy-Light'" font-size="19.9429"> </text>
		<text transform="matrix(1 0 0 1 932.4766 -215.7153)" fill="#FFFFFF" font-family="'Gilroy-Light'" font-size="19.9429"> </text>
		<text transform="matrix(1 0 0 1 730.082 -215.7153)" fill="#FFFFFF" font-family="'Gilroy-Light'" font-size="19.9429"> </text>
		<g>
			<path fill="#FFFFFF" d="M501.992-217.135h0.799l2.576,8.955l2.776-8.955h0.896l2.791,8.955l2.563-8.955h0.798l-2.891,9.966
				h-0.911l-2.791-8.983l-2.805,8.983h-0.911L501.992-217.135z"/>
			<path fill="#FFFFFF" d="M516.338-212.152c0-2.848,2.264-5.141,5.139-5.141c2.876,0,5.14,2.293,5.14,5.141
				s-2.263,5.141-5.14,5.141C518.602-207.012,516.338-209.305,516.338-212.152z M525.862-212.152c0-2.448-1.922-4.414-4.386-4.414
				c-2.463,0-4.384,1.966-4.384,4.414c0,2.449,1.921,4.415,4.384,4.415C523.94-207.737,525.862-209.703,525.862-212.152z"/>
			<path fill="#FFFFFF" d="M532.432-211.255h-3.146v4.085h-0.755v-9.966h3.93c1.622,0,2.946,1.324,2.946,2.946
				c0,1.354-0.926,2.491-2.192,2.834l2.478,4.186h-0.869L532.432-211.255z M529.286-211.967h3.175c1.209,0,2.191-0.996,2.191-2.222
				c0-1.238-0.982-2.234-2.191-2.234h-3.175V-211.967z"/>
			<path fill="#FFFFFF" d="M542.716-207.882v0.712h-5.452v-9.966h0.755v9.253L542.716-207.882L542.716-207.882z"/>
			<path fill="#FFFFFF" d="M552.729-212.152c0,2.748-1.95,4.982-4.698,4.982h-3.745v-9.966h3.745
				C550.778-217.135,552.729-214.898,552.729-212.152z M551.987-212.152c0-2.363-1.608-4.271-3.958-4.271h-2.99v8.541h2.99
				C550.379-207.882,551.987-209.788,551.987-212.152z"/>
			<path fill="#FFFFFF" d="M557.677-217.135h0.797l2.577,8.955l2.775-8.955h0.896l2.791,8.955l2.563-8.955h0.799l-2.892,9.966
				h-0.911l-2.791-8.983l-2.804,8.983h-0.912L557.677-217.135z"/>
			<path fill="#FFFFFF" d="M573.345-217.135v9.966h-0.754v-9.966H573.345z"/>
			<path fill="#FFFFFF" d="M584.267-212.152c0,2.748-1.95,4.982-4.698,4.982h-3.744v-9.966h3.744
				C582.315-217.135,584.267-214.898,584.267-212.152z M583.525-212.152c0-2.363-1.607-4.271-3.958-4.271h-2.99v8.541h2.99
				C581.916-207.882,583.525-209.788,583.525-212.152z"/>
			<path fill="#FFFFFF" d="M591.918-207.882v0.712h-5.738v-9.966h5.666v0.712h-4.911v3.871h4.556v0.712h-4.556v3.958
				L591.918-207.882L591.918-207.882z"/>
			<path fill="#FFFFFF" d="M532.192-202.891h0.798l2.577,8.955l2.776-8.955h0.896l2.791,8.955l2.563-8.955h0.798l-2.891,9.966h-0.91
				l-2.791-8.983l-2.805,8.983h-0.912L532.192-202.891z"/>
			<path fill="#FFFFFF" d="M552.845-193.637v0.712h-5.738v-9.966h5.667v0.712h-4.912v3.872h4.557v0.712h-4.557v3.958H552.845z"/>
			<path fill="#FFFFFF" d="M561.719-195.644c0,1.509-1.211,2.72-2.721,2.72h-4.299v-9.966h3.973c1.451,0,2.619,1.181,2.619,2.62
				c0,0.968-0.513,1.766-1.28,2.179C561.006-197.708,561.719-196.783,561.719-195.644z M555.453-202.178v3.814h3.218
				c1.024,0,1.864-0.854,1.864-1.907s-0.84-1.907-1.864-1.907H555.453z M560.964-195.644c0-1.11-0.884-2.007-1.966-2.007h-3.544
				v4.015h3.544C560.08-193.637,560.964-194.532,560.964-195.644z"/>
		</g>
		<g>
			<path fill="#FFFFFF" d="M692.373-207.882v0.712h-5.738v-9.966h5.666v0.712h-4.911v3.871h4.556v0.712h-4.556v3.958
				L692.373-207.882L692.373-207.882z"/>
			<path fill="#FFFFFF" d="M693.63-209.361l0.653-0.384c0.342,1.194,1.354,2.007,2.99,2.007c1.666,0,2.506-0.854,2.506-1.994
				c0-1.196-1.055-1.651-2.577-2.135c-1.665-0.541-3.161-1.012-3.161-2.749c0-1.639,1.324-2.678,3.02-2.678
				c1.638,0,2.72,0.94,3.203,2.094l-0.641,0.355c-0.37-0.896-1.141-1.724-2.563-1.724c-1.38,0-2.249,0.813-2.249,1.923
				c0,1.197,1.01,1.566,2.434,2.035c1.767,0.584,3.305,1.139,3.305,2.863c0,1.65-1.296,2.732-3.274,2.732
				C695.408-207.012,694.085-207.952,693.63-209.361z"/>
			<path fill="#FFFFFF" d="M701.835-212.152c0-2.848,2.147-5.141,5.182-5.141c1.836,0,3.446,0.94,4.271,2.394l-0.669,0.384
				c-0.654-1.224-2.036-2.051-3.603-2.051c-2.62,0-4.428,1.966-4.428,4.414c0,2.449,1.808,4.415,4.428,4.415
				c1.58,0,2.976-0.84,3.631-2.094l0.669,0.384c-0.812,1.468-2.436,2.436-4.3,2.436
				C703.982-207.012,701.835-209.305,701.835-212.152z"/>
			<path fill="#FFFFFF" d="M717.003-211.255h-3.147v4.085h-0.755v-9.966h3.93c1.624,0,2.946,1.324,2.946,2.946
				c0,1.354-0.924,2.491-2.191,2.834l2.479,4.186h-0.869L717.003-211.255z M713.854-211.967h3.175c1.211,0,2.192-0.996,2.192-2.222
				c0-1.238-0.981-2.234-2.192-2.234h-3.175V-211.967z"/>
			<path fill="#FFFFFF" d="M721.264-212.152c0-2.848,2.265-5.141,5.14-5.141c2.876,0,5.14,2.293,5.14,5.141s-2.264,5.141-5.14,5.141
				S721.264-209.305,721.264-212.152z M730.788-212.152c0-2.448-1.923-4.414-4.386-4.414s-4.385,1.966-4.385,4.414
				c0,2.449,1.922,4.415,4.385,4.415S730.788-209.703,730.788-212.152z"/>
			<path fill="#FFFFFF" d="M732.688-217.135h0.798l2.576,8.955l2.777-8.955h0.896l2.789,8.955l2.563-8.955h0.798l-2.892,9.966
				h-0.911l-2.789-8.983l-2.806,8.983h-0.911L732.688-217.135z"/>
			<path fill="#FFFFFF" d="M674.52-197.907c0-2.849,2.15-5.141,5.182-5.141c1.836,0,3.446,0.94,4.271,2.394l-0.669,0.384
				c-0.655-1.225-2.035-2.05-3.603-2.05c-2.619,0-4.427,1.965-4.427,4.414c0,2.447,1.808,4.414,4.427,4.414
				c1.581,0,2.977-0.841,3.631-2.095l0.67,0.385c-0.812,1.468-2.435,2.437-4.301,2.437
				C676.669-192.767,674.52-195.06,674.52-197.907z"/>
			<path fill="#FFFFFF" d="M685.217-197.907c0-2.849,2.266-5.141,5.141-5.141c2.876,0,5.139,2.292,5.139,5.141
				c0,2.848-2.263,5.141-5.139,5.141S685.217-195.06,685.217-197.907z M694.741-197.907c0-2.449-1.923-4.414-4.385-4.414
				c-2.463,0-4.385,1.965-4.385,4.414c0,2.447,1.922,4.414,4.385,4.414C692.818-193.493,694.741-195.459,694.741-197.907z"/>
			<path fill="#FFFFFF" d="M704.715-202.891v9.966h-0.67l-5.881-8.57v8.57h-0.754v-9.966h0.654l5.895,8.571v-8.571H704.715z"/>
			<path fill="#FFFFFF" d="M713.318-202.178h-3.133v9.254h-0.768v-9.254h-3.134v-0.712h7.033L713.318-202.178L713.318-202.178z"/>
			<path fill="#FFFFFF" d="M718.789-197.01h-3.145v4.086h-0.754v-9.966h3.928c1.624,0,2.948,1.325,2.948,2.947
				c0,1.354-0.926,2.492-2.193,2.833l2.479,4.186h-0.869L718.789-197.01z M715.645-197.723h3.174c1.211,0,2.192-0.996,2.192-2.221
				c0-1.238-0.981-2.234-2.192-2.234h-3.174V-197.723z"/>
			<path fill="#FFFFFF" d="M729.358-195.459h-4.997l-0.969,2.535h-0.797l3.873-9.966h0.797l3.857,9.966h-0.798L729.358-195.459z
				 M729.089-196.17l-2.222-5.795l-2.222,5.795H729.089z"/>
			<path fill="#FFFFFF" d="M732.012-197.907c0-2.849,2.149-5.141,5.184-5.141c1.836,0,3.444,0.94,4.271,2.394l-0.669,0.384
				c-0.653-1.225-2.036-2.05-3.602-2.05c-2.621,0-4.429,1.965-4.429,4.414c0,2.447,1.808,4.414,4.429,4.414
				c1.579,0,2.976-0.841,3.629-2.095l0.67,0.385c-0.813,1.468-2.435,2.437-4.299,2.437
				C734.161-192.767,732.012-195.06,732.012-197.907z"/>
			<path fill="#FFFFFF" d="M749.4-202.178h-3.133v9.254h-0.77v-9.254h-3.132v-0.712h7.033L749.4-202.178L749.4-202.178z"/>
			<path fill="#FFFFFF" d="M750.373-195.116l0.654-0.385c0.341,1.195,1.353,2.008,2.99,2.008c1.666,0,2.506-0.854,2.506-1.994
				c0-1.196-1.054-1.651-2.577-2.135c-1.666-0.541-3.161-1.012-3.161-2.749c0-1.639,1.324-2.678,3.02-2.678
				c1.637,0,2.72,0.94,3.203,2.095l-0.643,0.355c-0.37-0.897-1.138-1.724-2.562-1.724c-1.381,0-2.25,0.812-2.25,1.922
				c0,1.196,1.011,1.565,2.436,2.035c1.765,0.584,3.303,1.14,3.303,2.862c0,1.651-1.297,2.734-3.273,2.734
				C752.152-192.767,750.828-193.707,750.373-195.116z"/>
		</g>
		<g>
			<path fill="#FFFFFF" d="M859.758-209.703h-4.997l-0.968,2.534h-0.8l3.874-9.966h0.797l3.859,9.966h-0.798L859.758-209.703z
				 M859.486-210.414l-2.22-5.796l-2.222,5.796H859.486z"/>
			<path fill="#FFFFFF" d="M866.881-211.255h-3.146v4.085h-0.754v-9.966h3.929c1.623,0,2.946,1.324,2.946,2.946
				c0,1.354-0.924,2.491-2.191,2.834l2.479,4.186h-0.87L866.881-211.255z M863.734-211.967h3.175c1.211,0,2.192-0.996,2.192-2.222
				c0-1.238-0.981-2.234-2.192-2.234h-3.175V-211.967z"/>
			<path fill="#FFFFFF" d="M877.832-216.423h-3.131v9.253h-0.769v-9.253H870.8v-0.712h7.032V-216.423L877.832-216.423z"/>
			<path fill="#FFFFFF" d="M880.158-217.135v9.966h-0.754v-9.966H880.158z"/>
			<path fill="#FFFFFF" d="M883.393-216.423v3.985h4.599v0.712h-4.599v4.556h-0.754v-9.966h5.522v0.712L883.393-216.423
				L883.393-216.423z"/>
			<path fill="#FFFFFF" d="M890.771-217.135v9.966h-0.754v-9.966H890.771z"/>
			<path fill="#FFFFFF" d="M892.682-212.152c0-2.848,2.148-5.141,5.181-5.141c1.837,0,3.446,0.94,4.271,2.394l-0.669,0.384
				c-0.654-1.224-2.035-2.051-3.604-2.051c-2.619,0-4.427,1.966-4.427,4.414c0,2.449,1.808,4.415,4.427,4.415
				c1.581,0,2.979-0.84,3.632-2.094l0.669,0.384c-0.811,1.468-2.436,2.436-4.301,2.436
				C894.83-207.012,892.682-209.305,892.682-212.152z"/>
			<path fill="#FFFFFF" d="M909.686-209.703h-4.998l-0.969,2.534h-0.796l3.873-9.966h0.796l3.858,9.966h-0.797L909.686-209.703z
				 M909.413-210.414l-2.22-5.796l-2.221,5.796H909.413z"/>
			<path fill="#FFFFFF" d="M918.36-207.882v0.712h-5.452v-9.966h0.753v9.253L918.36-207.882L918.36-207.882z"/>
			<path fill="#FFFFFF" d="M841.413-202.891v9.966h-0.755v-9.966H841.413z"/>
			<path fill="#FFFFFF" d="M851.195-202.891v9.966h-0.67l-5.879-8.57v8.57h-0.754v-9.966h0.653l5.895,8.571v-8.571H851.195z"/>
			<path fill="#FFFFFF" d="M859.799-202.178h-3.131v9.254h-0.77v-9.254h-3.132v-0.712h7.031L859.799-202.178L859.799-202.178z"/>
			<path fill="#FFFFFF" d="M867.106-193.637v0.712h-5.736v-9.966h5.667v0.712h-4.913v3.872h4.558v0.712h-4.558v3.958H867.106z"/>
			<path fill="#FFFFFF" d="M874.416-193.637v0.712h-5.451v-9.966h0.753v9.254H874.416z"/>
			<path fill="#FFFFFF" d="M881.438-193.637v0.712h-5.454v-9.966h0.755v9.254H881.438z"/>
			<path fill="#FFFFFF" d="M883.762-202.891v9.966h-0.753v-9.966H883.762z"/>
			<path fill="#FFFFFF" d="M895.723-197.182c0,2.407-1.836,4.415-4.812,4.415c-3.091,0-5.239-2.292-5.239-5.141
				s2.148-5.141,5.183-5.141c1.853,0,3.461,0.969,4.285,2.407l-0.669,0.399c-0.655-1.254-2.051-2.08-3.616-2.08
				c-2.62,0-4.427,1.965-4.427,4.414c0,2.447,1.807,4.414,4.483,4.414c2.42,0,3.889-1.496,4.043-3.361h-4.229v-0.711h4.997V-197.182
				z"/>
			<path fill="#FFFFFF" d="M903.359-193.637v0.712h-5.736v-9.966h5.666v0.712h-4.912v3.872h4.558v0.712h-4.558v3.958H903.359z"/>
			<path fill="#FFFFFF" d="M912.52-202.891v9.966h-0.669l-5.88-8.57v8.57h-0.755v-9.966h0.652l5.896,8.571v-8.571H912.52z"/>
			<path fill="#FFFFFF" d="M914.434-197.907c0-2.849,2.148-5.141,5.182-5.141c1.837,0,3.446,0.94,4.271,2.394l-0.668,0.384
				c-0.655-1.225-2.038-2.05-3.604-2.05c-2.62,0-4.428,1.965-4.428,4.414c0,2.447,1.808,4.414,4.428,4.414
				c1.58,0,2.978-0.841,3.63-2.095l0.671,0.385c-0.813,1.468-2.436,2.437-4.301,2.437
				C916.582-192.767,914.434-195.06,914.434-197.907z"/>
			<path fill="#FFFFFF" d="M931.438-193.637v0.712h-5.738v-9.966h5.665v0.712h-4.909v3.872h4.555v0.712h-4.555v3.958H931.438z"/>
		</g>
		<g>
			<g>
				<path fill="#FFFFFF" d="M977.726-274.916c-0.21,0-0.417-0.092-0.56-0.27c-0.244-0.308-0.192-0.755,0.117-1l12.047-9.546
					l-12.045-9.414c-0.31-0.242-0.363-0.69-0.123-1c0.243-0.31,0.688-0.365,1.002-0.123l12.758,9.972
					c0.172,0.136,0.272,0.342,0.272,0.561c0.001,0.219-0.099,0.425-0.271,0.56l-12.756,10.108
					C978.036-274.966,977.88-274.916,977.726-274.916z"/>
			</g>
			<g>
				<path fill="#FFFFFF" d="M360.675-285.023h-85.46c-0.394,0-0.712-0.319-0.712-0.712c0-0.395,0.318-0.712,0.712-0.712h85.46
					c0.394,0,0.712,0.317,0.712,0.712C361.387-285.343,361.067-285.023,360.675-285.023z"/>
			</g>
			<g>
				<g>
					<path fill="#FFFFFF" d="M378.306-267.396c-10.113,0-18.34-8.229-18.34-18.34c0-10.112,8.227-18.34,18.34-18.34
						s18.34,8.228,18.34,18.34C396.646-275.624,388.418-267.396,378.306-267.396z M378.306-302.651
						c-9.327,0-16.916,7.588-16.916,16.916s7.589,16.916,16.916,16.916c9.328,0,16.917-7.588,16.917-16.916
						S387.633-302.651,378.306-302.651z"/>
				</g>
				
					<linearGradient id="SVGID_11_" gradientUnits="userSpaceOnUse" x1="-3071.4722" y1="751.8647" x2="-3053.1323" y2="751.8647" gradientTransform="matrix(0 -1 -1 0 1130.1704 -3348.0376)">
					<stop  offset="0" style="stop-color:#706DCB;stop-opacity:0"/>
					<stop  offset="1" style="stop-color:#706DCB;stop-opacity:0.7"/>
				</linearGradient>
				<circle fill="url(#SVGID_11_)" cx="378.306" cy="-285.735" r="9.17"/>
			</g>
			<g>
				<g>
					<path fill="#FFFFFF" d="M547.498-267.396c-10.113,0-18.342-8.229-18.342-18.34c0-10.112,8.229-18.34,18.342-18.34
						c10.111,0,18.34,8.228,18.34,18.34C565.838-275.624,557.609-267.396,547.498-267.396z M547.498-302.651
						c-9.328,0-16.918,7.588-16.918,16.916s7.589,16.916,16.918,16.916c9.326,0,16.915-7.588,16.915-16.916
						S556.823-302.651,547.498-302.651z"/>
				</g>
				
					<linearGradient id="SVGID_12_" gradientUnits="userSpaceOnUse" x1="-3071.4722" y1="582.6724" x2="-3053.1323" y2="582.6724" gradientTransform="matrix(0 -1 -1 0 1130.1704 -3348.0376)">
					<stop  offset="0" style="stop-color:#706DCB;stop-opacity:0"/>
					<stop  offset="1" style="stop-color:#706DCB;stop-opacity:0.7"/>
				</linearGradient>
				<circle fill="url(#SVGID_12_)" cx="547.498" cy="-285.735" r="9.17"/>
			</g>
			<g>
				<g>
					<path fill="#FFFFFF" d="M716.688-267.396c-10.113,0-18.34-8.229-18.34-18.34c0-10.112,8.227-18.34,18.34-18.34
						c10.112,0,18.341,8.228,18.341,18.34C735.028-275.624,726.801-267.396,716.688-267.396z M716.688-302.651
						c-9.327,0-16.916,7.588-16.916,16.916s7.589,16.916,16.916,16.916c9.328,0,16.916-7.588,16.916-16.916
						S726.017-302.651,716.688-302.651z"/>
				</g>
				
					<linearGradient id="SVGID_13_" gradientUnits="userSpaceOnUse" x1="-3071.4722" y1="413.4829" x2="-3053.1323" y2="413.4829" gradientTransform="matrix(0 -1 -1 0 1130.1704 -3348.0376)">
					<stop  offset="0" style="stop-color:#706DCB;stop-opacity:0"/>
					<stop  offset="1" style="stop-color:#706DCB;stop-opacity:0.7"/>
				</linearGradient>
				<circle fill="url(#SVGID_13_)" cx="716.688" cy="-285.735" r="9.17"/>
			</g>
			<g>
				<g>
					<path fill="#FFFFFF" d="M885.88-267.396c-10.114,0-18.342-8.229-18.342-18.34c0-10.112,8.228-18.34,18.342-18.34
						c10.112,0,18.34,8.228,18.34,18.34C904.22-275.624,895.992-267.396,885.88-267.396z M885.88-302.651
						c-9.327,0-16.915,7.588-16.915,16.916s7.588,16.916,16.915,16.916c9.326,0,16.915-7.588,16.915-16.916
						S895.207-302.651,885.88-302.651z"/>
				</g>
				
					<linearGradient id="SVGID_14_" gradientUnits="userSpaceOnUse" x1="-3071.4722" y1="244.2905" x2="-3053.1323" y2="244.2905" gradientTransform="matrix(0 -1 -1 0 1130.1704 -3348.0376)">
					<stop  offset="0" style="stop-color:#706DCB;stop-opacity:0"/>
					<stop  offset="1" style="stop-color:#706DCB;stop-opacity:0.7"/>
				</linearGradient>
				<circle fill="url(#SVGID_14_)" cx="885.88" cy="-285.735" r="9.17"/>
			</g>
			<g>
				<path fill="#FFFFFF" d="M988.967-285.023h-85.46c-0.394,0-0.712-0.319-0.712-0.712c0-0.395,0.318-0.712,0.712-0.712h85.46
					c0.395,0,0.713,0.317,0.713,0.712C989.68-285.343,989.36-285.023,988.967-285.023z"/>
			</g>
			<g>
				<path fill="#FFFFFF" d="M529.868-285.023H397.357c-0.394,0-0.712-0.319-0.712-0.712c0-0.395,0.319-0.712,0.712-0.712h132.511
					c0.395,0,0.712,0.317,0.712,0.712C530.58-285.343,530.263-285.023,529.868-285.023z"/>
			</g>
			<g>
				<path fill="#FFFFFF" d="M697.636-285.023H565.125c-0.395,0-0.713-0.319-0.713-0.712c0-0.395,0.319-0.712,0.713-0.712h132.51
					c0.394,0,0.713,0.317,0.713,0.712C698.349-285.343,698.028-285.023,697.636-285.023z"/>
			</g>
			<g>
				<path fill="#FFFFFF" d="M866.827-285.023H734.315c-0.394,0-0.712-0.319-0.712-0.712c0-0.395,0.318-0.712,0.712-0.712h132.512
					c0.395,0,0.711,0.317,0.711,0.712C867.538-285.343,867.222-285.023,866.827-285.023z"/>
			</g>
			<g>
				<g>
					<rect x="377.949" y="-268.701" fill="#D9D9D9" width="0.712" height="25.333"/>
				</g>
				<g>
					<rect x="546.673" y="-268.701" fill="#D9D9D9" width="0.712" height="25.333"/>
				</g>
				<g>
					<rect x="716.332" y="-268.701" fill="#D9D9D9" width="0.712" height="25.333"/>
				</g>
				<g>
					<rect x="885.522" y="-268.701" fill="#D9D9D9" width="0.712" height="25.333"/>
				</g>
			</g>
		</g>
	</g>
</g>
</svg>
