<?xml version="1.0" encoding="utf-8"?>
<!-- Generator: Adobe Illustrator 16.0.0, SVG Export Plug-In . SVG Version: 6.00 Build 0)  -->
<!DOCTYPE svg PUBLIC "-//W3C//DTD SVG 1.1//EN" "http://www.w3.org/Graphics/SVG/1.1/DTD/svg11.dtd">
<svg version="1.1" id="Layer_1" xmlns="http://www.w3.org/2000/svg" xmlns:xlink="http://www.w3.org/1999/xlink" x="0px" y="0px"
	 width="803.411px" height="181.478px" viewBox="216.896 -360.311 803.411 181.478"
	 enable-background="new 216.896 -360.311 803.411 181.478" xml:space="preserve">
<g>
	<path fill="#FFFFFF" d="M350.923-345.055h-3.418v-8.694l-3.868,6.346h-0.385l-3.867-6.346v8.696h-3.418v-14.958h3.418l4.06,6.646
		l4.061-6.646h3.418L350.923-345.055L350.923-345.055z M356.906-360.011v14.958h-3.419v-14.958H356.906z M371.223-360.011v14.958
		h-2.564l-5.769-8.12v8.12h-3.419v-14.958h2.563l5.77,8.119v-8.119H371.223L371.223-360.011z M378.487-352.533
		c0-4.401,3.27-7.777,7.777-7.777c2.713,0,5.105,1.348,6.41,3.462l-2.949,1.708c-0.663-1.152-1.945-1.837-3.461-1.837
		c-2.649,0-4.358,1.773-4.358,4.444s1.709,4.444,4.358,4.444c1.517,0,2.82-0.686,3.461-1.838l2.949,1.709
		c-1.282,2.113-3.675,3.461-6.41,3.461C381.757-344.755,378.487-348.132,378.487-352.533z M403.252-347.404h-5.557l-0.747,2.352
		h-3.738l5.085-14.958h4.358l5.085,14.958h-3.74L403.252-347.404L403.252-347.404z M402.227-350.608l-1.752-5.492l-1.752,5.492
		H402.227L402.227-350.608z M419.918-354.882c0,2.84-2.286,5.127-5.234,5.127h-2.243v4.701h-3.418v-14.958h5.662
		C417.632-360.011,419.918-357.725,419.918-354.882z M416.5-354.882c0-1.092-0.77-1.925-1.816-1.925h-2.243v3.847h2.243
		C415.73-352.96,416.5-353.794,416.5-354.882z M498.117-348.45l2.949-1.71c0.533,1.238,1.453,2.072,3.141,2.072
		c1.624,0,2.03-0.643,2.03-1.22c0-0.918-0.854-1.28-3.099-1.901c-2.222-0.618-4.4-1.688-4.4-4.55c0-2.887,2.437-4.553,5.021-4.553
		c2.457,0,4.38,1.176,5.47,3.376l-2.885,1.689c-0.513-1.068-1.218-1.731-2.585-1.731c-1.068,0-1.604,0.534-1.604,1.135
		c0,0.684,0.362,1.152,2.691,1.857c2.266,0.685,4.809,1.476,4.809,4.637c0,2.885-2.309,4.595-5.556,4.595
		C500.96-344.755,498.951-346.251,498.117-348.45z M510.725-352.533c0-4.401,3.481-7.777,7.777-7.777
		c4.295,0,7.777,3.376,7.777,7.777s-3.481,7.777-7.777,7.777C514.207-344.755,510.725-348.132,510.725-352.533L510.725-352.533z
		 M522.86-352.533c0-2.67-1.923-4.444-4.358-4.444c-2.437,0-4.357,1.773-4.357,4.444s1.922,4.444,4.357,4.444
		C520.938-348.088,522.86-349.861,522.86-352.533z M531.621-356.719v2.884h5.556v3.291h-5.556v5.49h-3.419v-14.958h9.081v3.292
		L531.621-356.719L531.621-356.719z M549.355-356.719h-3.847v11.665h-3.419v-11.666h-3.847v-3.292h11.111L549.355-356.719
		L549.355-356.719L549.355-356.719z M555.554-352.533c0-4.401,3.27-7.777,7.776-7.777c2.714,0,5.107,1.348,6.41,3.462l-2.949,1.708
		c-0.661-1.152-1.943-1.837-3.461-1.837c-2.648,0-4.357,1.773-4.357,4.444s1.709,4.444,4.357,4.444c1.518,0,2.82-0.686,3.461-1.838
		l2.949,1.709c-1.281,2.113-3.675,3.461-6.41,3.461C558.822-344.755,555.554-348.132,555.554-352.533z M580.316-347.404h-5.556
		l-0.748,2.352h-3.738l5.085-14.958h4.358l5.085,14.958h-3.738L580.316-347.404L580.316-347.404z M579.291-350.608l-1.753-5.492
		l-1.751,5.492H579.291L579.291-350.608z M596.983-354.882c0,2.84-2.286,5.127-5.235,5.127h-2.243v4.701h-3.418v-14.958h5.661
		C594.697-360.011,596.983-357.725,596.983-354.882z M593.564-354.882c0-1.092-0.771-1.925-1.816-1.925h-2.243v3.847h2.243
		C592.796-352.96,593.564-353.794,593.564-354.882z M846.163-360.011v14.958h-3.419v-5.939h-4.7v5.939h-3.419v-14.958h3.419v5.729
		h4.7v-5.729H846.163z M857.489-347.404h-5.558l-0.748,2.352h-3.738l5.086-14.958h4.358l5.085,14.958h-3.738L857.489-347.404z
		 M856.464-350.608l-1.755-5.492l-1.75,5.492H856.464z M868.302-349.969h-1.625v4.915h-3.419v-14.958h5.981
		c2.826-0.007,5.123,2.279,5.13,5.105c0,0.008,0,0.016,0,0.024c0,1.837-1.112,3.503-2.757,4.337l3.183,5.491h-3.675L868.302-349.969
		z M866.677-352.96h2.563c0.939,0,1.71-0.833,1.71-1.922c0-1.092-0.771-1.925-1.71-1.925h-2.563V-352.96z M889.646-352.533
		c0,4.229-3.143,7.479-7.265,7.479h-5.982v-14.957h5.982C886.505-360.011,889.646-356.763,889.646-352.533z M886.354-352.533
		c0-2.563-1.622-4.188-3.973-4.188h-2.565v8.376h2.565C884.73-348.344,886.354-349.969,886.354-352.533z M896.271-352.533
		c0-4.401,3.269-7.777,7.775-7.777c2.714,0,5.107,1.348,6.408,3.462l-2.946,1.708c-0.663-1.152-1.943-1.837-3.462-1.837
		c-2.648,0-4.356,1.773-4.356,4.444s1.708,4.444,4.356,4.444c1.519,0,2.819-0.686,3.462-1.838l2.946,1.709
		c-1.279,2.113-3.675,3.461-6.408,3.461C899.539-344.755,896.271-348.132,896.271-352.533z M921.034-347.404h-5.556l-0.748,2.352
		h-3.739l5.086-14.958h4.358l5.086,14.958h-3.739L921.034-347.404z M920.009-350.608l-1.753-5.492l-1.751,5.492H920.009
		L920.009-350.608z M937.699-354.882c0,2.84-2.283,5.127-5.231,5.127h-2.245v4.701h-3.417v-14.958h5.662
		C935.416-360.011,937.699-357.725,937.699-354.882z M934.282-354.882c0-1.092-0.77-1.925-1.814-1.925h-2.245v3.847h2.245
		C933.515-352.96,934.282-353.794,934.282-354.882z M667.329-354.882c0,2.84-2.285,5.127-5.233,5.127h-2.244v4.701h-3.418v-14.958
		h5.663C665.043-360.011,667.329-357.725,667.329-354.882z M663.91-354.882c0-1.092-0.77-1.925-1.815-1.925h-2.244v3.847h2.244
		C663.142-352.96,663.91-353.794,663.91-354.882z M668.398-352.533c0-4.401,3.482-7.777,7.776-7.777s7.776,3.376,7.776,7.777
		s-3.482,7.777-7.776,7.777S668.398-348.132,668.398-352.533z M680.534-352.533c0-2.67-1.923-4.444-4.358-4.444
		c-2.438,0-4.358,1.773-4.358,4.444s1.922,4.444,4.358,4.444C678.611-348.088,680.534-349.861,680.534-352.533z M684.809-360.011
		h3.591l2.585,10.471l2.885-10.471h2.775l2.886,10.471l2.584-10.471h3.592l-4.125,14.958h-3.889l-2.437-8.824l-2.437,8.824h-3.89
		L684.809-360.011L684.809-360.011z M716.602-348.344v3.29h-9.399v-14.958h9.294v3.292h-5.876v2.479h5.343v3.248h-5.343v2.649
		H716.602z M723.567-349.969h-1.623v4.915h-3.419v-14.958h5.981c2.826-0.007,5.122,2.279,5.128,5.105c0,0.008,0,0.016,0,0.024
		c0,1.837-1.111,3.503-2.757,4.337l3.184,5.491h-3.674L723.567-349.969z M721.944-352.96h2.563c0.938,0,1.71-0.833,1.71-1.922
		c0-1.092-0.771-1.925-1.71-1.925h-2.563V-352.96z M736.367-352.533c0-4.401,3.27-7.777,7.775-7.777c2.715,0,5.106,1.348,6.41,3.462
		l-2.949,1.708c-0.661-1.152-1.943-1.837-3.461-1.837c-2.648,0-4.357,1.773-4.357,4.444s1.709,4.444,4.357,4.444
		c1.518,0,2.82-0.686,3.461-1.838l2.949,1.709c-1.282,2.113-3.675,3.461-6.41,3.461
		C739.637-344.755,736.367-348.132,736.367-352.533z M761.132-347.404h-5.557l-0.747,2.352h-3.737l5.083-14.958h4.359l5.085,14.958
		h-3.738L761.132-347.404L761.132-347.404z M760.105-350.608l-1.753-5.492l-1.753,5.492H760.105z M777.799-354.882
		c0,2.84-2.286,5.127-5.234,5.127h-2.244v4.701h-3.42v-14.958h5.664C775.513-360.011,777.799-357.725,777.799-354.882z
		 M774.38-354.882c0-1.092-0.771-1.925-1.815-1.925h-2.244v3.847h2.244C773.609-352.96,774.38-353.794,774.38-354.882z"/>
	
		<linearGradient id="SVGID_1_" gradientUnits="userSpaceOnUse" x1="-3399.627" y1="-737.3435" x2="-3350.4814" y2="-737.3435" gradientTransform="matrix(0 -1 1 0 1005.3962 -3578.4607)">
		<stop  offset="0" style="stop-color:#706DCB;stop-opacity:0"/>
		<stop  offset="1" style="stop-color:#706DCB;stop-opacity:0.7"/>
	</linearGradient>
	<path opacity="0.2" fill="url(#SVGID_1_)" enable-background="new    " d="M294.794-227.979h-36.388
		c-9.441,0-17.094,7.654-17.094,17.094v14.958c0,9.44,7.653,17.094,17.094,17.094h36.388V-227.979z"/>
	
		<linearGradient id="SVGID_2_" gradientUnits="userSpaceOnUse" x1="-3399.627" y1="-626.7937" x2="-3350.4814" y2="-626.7937" gradientTransform="matrix(0 -1 1 0 1005.3962 -3578.4607)">
		<stop  offset="0" style="stop-color:#706DCB;stop-opacity:0"/>
		<stop  offset="1" style="stop-color:#706DCB;stop-opacity:0.7"/>
	</linearGradient>
	<path opacity="0.4" fill="url(#SVGID_2_)" enable-background="new    " d="M296.219-227.979h164.768v49.146H296.219V-227.979z"/>
	
		<linearGradient id="SVGID_3_" gradientUnits="userSpaceOnUse" x1="-3399.627" y1="-460.3665" x2="-3350.4814" y2="-460.3665" gradientTransform="matrix(0 -1 1 0 1005.3962 -3578.4607)">
		<stop  offset="0" style="stop-color:#706DCB;stop-opacity:0"/>
		<stop  offset="1" style="stop-color:#706DCB;stop-opacity:0.7"/>
	</linearGradient>
	<path opacity="0.6" fill="url(#SVGID_3_)" enable-background="new    " d="M462.409-227.979H627.65v49.146H462.409V-227.979z"/>
	
		<linearGradient id="SVGID_4_" gradientUnits="userSpaceOnUse" x1="-3399.627" y1="-9.5281" x2="-3350.4814" y2="-9.5281" gradientTransform="matrix(0 -1 1 0 1005.3962 -3578.4607)">
		<stop  offset="0" style="stop-color:#706DCB;stop-opacity:0"/>
		<stop  offset="1" style="stop-color:#706DCB;stop-opacity:0.7"/>
	</linearGradient>
	<path opacity="0.2" fill="url(#SVGID_4_)" enable-background="new    " d="M1003.214-227.979H971.43v49.146h31.784
		c9.439,0,17.093-7.651,17.093-17.094v-14.958C1020.307-220.324,1012.653-227.979,1003.214-227.979z"/>
	
		<linearGradient id="SVGID_5_" gradientUnits="userSpaceOnUse" x1="-3399.627" y1="-119.675" x2="-3350.4814" y2="-119.675" gradientTransform="matrix(0 -1 1 0 1005.3962 -3578.4607)">
		<stop  offset="0" style="stop-color:#706DCB;stop-opacity:0"/>
		<stop  offset="1" style="stop-color:#706DCB;stop-opacity:0.7"/>
	</linearGradient>
	<path fill="url(#SVGID_5_)" d="M801.438-227.979h168.567v49.146H801.438V-227.979z"/>
	
		<linearGradient id="SVGID_6_" gradientUnits="userSpaceOnUse" x1="-3399.627" y1="-290.8523" x2="-3350.4814" y2="-290.8523" gradientTransform="matrix(0 -1 1 0 1005.3962 -3578.4607)">
		<stop  offset="0" style="stop-color:#706DCB;stop-opacity:0"/>
		<stop  offset="1" style="stop-color:#706DCB;stop-opacity:0.7"/>
	</linearGradient>
	<path opacity="0.8" fill="url(#SVGID_6_)" enable-background="new    " d="M629.075-227.979h170.938v49.146H629.075V-227.979z"/>
	<path fill="#FFFFFF" d="M216.896-284.975c0-3.99,3.013-7.202,7.264-7.202c2.574,0,4.829,1.315,5.986,3.352l-0.938,0.54
		c-0.917-1.718-2.854-2.874-5.048-2.874c-3.671,0-6.205,2.754-6.205,6.186c0,3.434,2.534,6.188,6.205,6.188
		c2.215,0,4.17-1.178,5.088-2.934l0.938,0.537c-1.137,2.056-3.412,3.413-6.026,3.413
		C219.911-277.771,216.896-280.983,216.896-284.975z M239.458-281.542h-7.003l-1.357,3.552h-1.118l5.427-13.969h1.118l5.407,13.969
		h-1.117L239.458-281.542z M239.079-282.539l-3.112-8.122l-3.114,8.122H239.079z M251.803-287.628c0,2.453-1.835,4.31-4.35,4.31
		h-3.691v5.328h-1.058v-13.969h4.749C249.966-291.959,251.803-290.103,251.803-287.628z M250.746-287.628
		c0-1.937-1.378-3.332-3.293-3.332h-3.691v6.645h3.691C249.368-284.315,250.746-285.713,250.746-287.628z M252.315-281.063
		l0.918-0.539c0.479,1.678,1.896,2.813,4.189,2.813c2.335,0,3.512-1.197,3.512-2.794c0-1.676-1.477-2.314-3.611-2.991
		c-2.335-0.759-4.43-1.417-4.43-3.854c0-2.295,1.856-3.75,4.23-3.75c2.294,0,3.811,1.315,4.489,2.934l-0.898,0.499
		c-0.519-1.258-1.596-2.415-3.591-2.415c-1.936,0-3.153,1.138-3.153,2.694c0,1.674,1.417,2.192,3.412,2.854
		c2.475,0.817,4.629,1.596,4.629,4.01c0,2.315-1.816,3.832-4.589,3.832C254.81-277.771,252.955-279.088,252.315-281.063
		L252.315-281.063z"/>
	<g>
		<path fill="#FFFFFF" d="M498.266-323.014c0,2.854-2.222,4.334-4.722,4.334c-2.057,0-3.834-0.869-4.631-2.776l2.557-1.482
			c0.296,0.854,0.852,1.372,2.074,1.372c1.222,0,1.759-0.647,1.759-1.444c0-0.796-0.537-1.444-1.667-1.444h-4.057l0.538-7.444h7.5
			v2.776h-4.723l-0.13,1.778h1.056C496.229-327.347,498.266-325.865,498.266-323.014L498.266-323.014z M503.729-331.902v12.963
			h-2.963v-9.833l-2.296,0.63l-0.724-2.538l3.391-1.223L503.729-331.902z M507.876-325.42c0-4.001,1.926-6.74,5.277-6.74
			c3.353,0,5.277,2.739,5.277,6.74c0,4-1.926,6.739-5.277,6.739S507.876-321.421,507.876-325.42z M515.469-325.42
			c0-2.501-0.76-3.853-2.314-3.853c-1.556,0-2.313,1.352-2.313,3.853c0,2.5,0.759,3.853,2.313,3.853
			C514.709-321.568,515.469-322.921,515.469-325.42z"/>
		<path fill="#FFFFFF" d="M518.376-325.42c0-4.001,1.926-6.74,5.277-6.74c3.353,0,5.277,2.739,5.277,6.74
			c0,4-1.926,6.739-5.277,6.739S518.376-321.421,518.376-325.42z M525.969-325.42c0-2.501-0.76-3.853-2.313-3.853
			c-1.557,0-2.314,1.352-2.314,3.853c0,2.5,0.759,3.853,2.314,3.853C525.209-321.568,525.969-322.921,525.969-325.42z"/>
		<path fill="#FFFFFF" d="M528.875-325.42c0-4.001,1.926-6.74,5.277-6.74c3.353,0,5.277,2.739,5.277,6.74
			c0,4-1.926,6.739-5.277,6.739S528.875-321.421,528.875-325.42z M536.468-325.42c0-2.501-0.759-3.853-2.314-3.853
			c-1.557,0-2.314,1.352-2.314,3.853c0,2.5,0.759,3.853,2.314,3.853C535.709-321.568,536.468-322.921,536.468-325.42z
			 M542.839-325.42c0-4.001,1.926-6.74,5.277-6.74c3.353,0,5.277,2.739,5.277,6.74c0,4-1.926,6.739-5.277,6.739
			S542.839-321.421,542.839-325.42z M550.432-325.42c0-2.501-0.76-3.853-2.314-3.853s-2.313,1.352-2.313,3.853
			c0,2.5,0.759,3.853,2.313,3.853C549.672-321.568,550.432-322.921,550.432-325.42z"/>
		<path fill="#FFFFFF" d="M553.338-325.42c0-4.001,1.926-6.74,5.277-6.74c3.353,0,5.277,2.739,5.277,6.74
			c0,4-1.926,6.739-5.277,6.739C555.265-318.68,553.338-321.421,553.338-325.42z M560.931-325.42c0-2.501-0.76-3.853-2.314-3.853
			c-1.556,0-2.313,1.352-2.313,3.853c0,2.5,0.758,3.853,2.313,3.853C560.171-321.568,560.931-322.921,560.931-325.42z"/>
		<path fill="#FFFFFF" d="M563.838-325.42c0-4.001,1.926-6.74,5.277-6.74c3.353,0,5.277,2.739,5.277,6.74
			c0,4-1.926,6.739-5.277,6.739S563.838-321.421,563.838-325.42z M571.431-325.42c0-2.501-0.76-3.853-2.313-3.853
			c-1.557,0-2.314,1.352-2.314,3.853c0,2.5,0.759,3.853,2.314,3.853C570.671-321.568,571.431-322.921,571.431-325.42z
			 M581.939-323.427c-0.015-2.543,2.036-4.615,4.578-4.63c0.017,0,0.034,0,0.051,0c2.542-0.015,4.615,2.034,4.63,4.576
			c0,0.018,0,0.035,0,0.054c0.015,2.542-2.035,4.614-4.577,4.629c-0.018,0-0.035,0-0.053,0c-2.542,0.015-4.614-2.033-4.629-4.575
			C581.938-323.391,581.938-323.41,581.939-323.427z M590.52-323.427c0-2.205-1.729-3.976-3.95-3.976
			c-2.219,0-3.949,1.771-3.949,3.976s1.731,3.976,3.949,3.976C588.789-319.452,590.52-321.222,590.52-323.427z M592.785-327.274
			v3.59h4.145v0.642h-4.145v4.104h-0.679v-8.978h4.976v0.643H592.785z M597.427-323.427c0-2.563,1.938-4.63,4.668-4.63
			c1.653,0,3.104,0.848,3.848,2.154l-0.604,0.347c-0.591-1.104-1.834-1.846-3.245-1.846c-2.359,0-3.987,1.771-3.987,3.976
			s1.628,3.976,3.987,3.976c1.423,0,2.681-0.757,3.271-1.885l0.604,0.347c-0.73,1.32-2.192,2.191-3.873,2.191
			C599.363-318.799,597.427-320.862,597.427-323.427L597.427-323.427z"/>
	</g>
	<g>
		<path fill="#FFFFFF" d="M651.409-321.087l4.353-4.52c0.76-0.778,1.313-1.537,1.313-2.296c0-0.814-0.52-1.37-1.388-1.37
			c-0.908,0-1.557,0.593-1.907,1.407l-2.5-1.462c0.833-1.928,2.573-2.833,4.37-2.833c2.314,0,4.389,1.518,4.389,4.13
			c0,1.555-0.832,2.887-2.018,4.072l-2.148,2.168h4.353v2.852h-8.814L651.409-321.087z M660.262-325.42
			c0-4.001,1.927-6.74,5.277-6.74c3.353,0,5.278,2.739,5.278,6.74c0,4-1.927,6.739-5.278,6.739S660.262-321.421,660.262-325.42z
			 M667.854-325.42c0-2.501-0.76-3.853-2.313-3.853c-1.557,0-2.315,1.352-2.315,3.853c0,2.5,0.76,3.853,2.315,3.853
			C667.095-321.568,667.854-322.921,667.854-325.42z"/>
		<path fill="#FFFFFF" d="M680.761-321.014h-1.296v2.074h-3v-2.074h-5.891v-2.739l4.13-8.148h3.186l-4.13,8.148h2.704v-2.777h3
			v2.777h1.296L680.761-321.014L680.761-321.014z M683.798-325.42c0-4.001,1.926-6.74,5.276-6.74c3.354,0,5.276,2.739,5.276,6.74
			c0,4-1.925,6.739-5.276,6.739C685.724-318.68,683.798-321.421,683.798-325.42z M691.391-325.42c0-2.501-0.76-3.853-2.314-3.853
			s-2.313,1.352-2.313,3.853c0,2.5,0.759,3.853,2.313,3.853S691.391-322.921,691.391-325.42z"/>
		<path fill="#FFFFFF" d="M694.298-325.42c0-4.001,1.926-6.74,5.276-6.74c3.352,0,5.276,2.739,5.276,6.74
			c0,4-1.926,6.739-5.276,6.739S694.298-321.421,694.298-325.42z M701.891-325.42c0-2.501-0.76-3.853-2.314-3.853
			s-2.313,1.352-2.313,3.853c0,2.5,0.759,3.853,2.313,3.853S701.891-322.921,701.891-325.42z"/>
		<path fill="#FFFFFF" d="M704.797-325.42c0-4.001,1.927-6.74,5.277-6.74c3.352,0,5.276,2.739,5.276,6.74
			c0,4-1.926,6.739-5.276,6.739S704.797-321.421,704.797-325.42z M712.391-325.42c0-2.501-0.76-3.853-2.314-3.853
			s-2.313,1.352-2.313,3.853c0,2.5,0.761,3.853,2.313,3.853C711.631-321.568,712.391-322.921,712.391-325.42z M718.76-325.42
			c0-4.001,1.928-6.74,5.278-6.74s5.277,2.739,5.277,6.74c0,4-1.928,6.739-5.277,6.739C720.688-318.68,718.76-321.421,718.76-325.42
			z M726.354-325.42c0-2.501-0.761-3.853-2.314-3.853c-1.558,0-2.315,1.352-2.315,3.853c0,2.5,0.76,3.853,2.315,3.853
			C725.594-321.568,726.354-322.921,726.354-325.42z"/>
		<path fill="#FFFFFF" d="M729.26-325.42c0-4.001,1.926-6.74,5.276-6.74c3.354,0,5.278,2.739,5.278,6.74
			c0,4-1.927,6.739-5.278,6.739C731.186-318.68,729.26-321.421,729.26-325.42z M736.852-325.42c0-2.501-0.759-3.853-2.313-3.853
			s-2.313,1.352-2.313,3.853c0,2.5,0.76,3.853,2.313,3.853C736.093-321.567,736.852-322.921,736.852-325.42z"/>
		<path fill="#FFFFFF" d="M739.76-325.42c0-4.001,1.926-6.74,5.276-6.74c3.354,0,5.278,2.739,5.278,6.74
			c0,4-1.927,6.739-5.278,6.739C741.686-318.68,739.76-321.421,739.76-325.42z M747.352-325.42c0-2.501-0.759-3.853-2.313-3.853
			s-2.313,1.352-2.313,3.853c0,2.5,0.761,3.853,2.313,3.853C746.593-321.568,747.352-322.921,747.352-325.42z M757.861-323.427
			c-0.015-2.543,2.036-4.615,4.578-4.63c0.018,0,0.034,0,0.051,0c2.541-0.015,4.614,2.033,4.629,4.575c0,0.019,0,0.036,0,0.055
			c0.016,2.541-2.032,4.613-4.573,4.629c-0.019,0-0.037,0-0.056,0c-2.542,0.015-4.614-2.033-4.629-4.575
			C757.861-323.391,757.861-323.41,757.861-323.427z M766.439-323.427c0-2.205-1.729-3.976-3.949-3.976
			c-2.219,0-3.948,1.771-3.948,3.976s1.729,3.976,3.948,3.976C764.71-319.452,766.439-321.222,766.439-323.427z M768.709-327.274
			v3.59h4.142v0.642h-4.142v4.104h-0.682v-8.978h4.977v0.643H768.709z M773.35-323.427c0-2.563,1.937-4.63,4.667-4.63
			c1.654,0,3.104,0.848,3.848,2.154l-0.604,0.347c-0.59-1.104-1.833-1.846-3.244-1.846c-2.358,0-3.987,1.771-3.987,3.976
			s1.629,3.976,3.987,3.976c1.424,0,2.681-0.757,3.271-1.885l0.604,0.347c-0.729,1.32-2.19,2.191-3.872,2.191
			C775.284-318.799,773.35-320.862,773.35-323.427L773.35-323.427z"/>
	</g>
	<g>
		<path fill="#FFFFFF" d="M831.396-323.014c0,2.854-2.223,4.334-4.725,4.334c-2.058,0-3.833-0.869-4.63-2.776l2.557-1.482
			c0.296,0.854,0.854,1.372,2.073,1.372c1.223,0,1.76-0.647,1.76-1.444c0-0.796-0.537-1.444-1.666-1.444h-4.056l0.536-7.444h7.499
			v2.776h-4.722l-0.13,1.778h1.057C829.358-327.347,831.396-325.865,831.396-323.014L831.396-323.014z M836.858-331.902v12.963
			h-2.964v-9.833l-2.295,0.63l-0.723-2.538l3.388-1.223L836.858-331.902z M837.545-325.42c0-4.001,1.927-6.74,5.276-6.74
			c3.354,0,5.277,2.739,5.277,6.74c0,4-1.926,6.739-5.277,6.739C839.472-318.68,837.545-321.421,837.545-325.42z M845.137-325.42
			c0-2.501-0.76-3.853-2.313-3.853c-1.557,0-2.314,1.352-2.314,3.853c0,2.5,0.76,3.853,2.314,3.853
			C844.377-321.568,845.137-322.921,845.137-325.42z M851.508-325.42c0-4.001,1.926-6.74,5.276-6.74c3.354,0,5.277,2.739,5.277,6.74
			c0,4-1.926,6.739-5.277,6.739C853.434-318.68,851.508-321.421,851.508-325.42z M859.101-325.42c0-2.501-0.76-3.853-2.314-3.853
			c-1.556,0-2.313,1.352-2.313,3.853c0,2.5,0.76,3.853,2.313,3.853C858.341-321.567,859.101-322.921,859.101-325.42z"/>
		<path fill="#FFFFFF" d="M862.007-325.42c0-4.001,1.927-6.74,5.277-6.74c3.352,0,5.276,2.739,5.276,6.74
			c0,4-1.927,6.739-5.276,6.739C863.934-318.68,862.007-321.421,862.007-325.42z M869.6-325.42c0-2.501-0.76-3.853-2.313-3.853
			c-1.558,0-2.313,1.352-2.313,3.853c0,2.5,0.759,3.853,2.313,3.853C868.84-321.568,869.6-322.921,869.6-325.42z"/>
		<path fill="#FFFFFF" d="M872.507-325.42c0-4.001,1.927-6.74,5.277-6.74c3.352,0,5.276,2.739,5.276,6.74
			c0,4-1.927,6.739-5.276,6.739C874.434-318.68,872.507-321.421,872.507-325.42z M880.1-325.42c0-2.501-0.76-3.853-2.313-3.853
			c-1.558,0-2.313,1.352-2.313,3.853c0,2.5,0.759,3.853,2.313,3.853C879.34-321.568,880.1-322.921,880.1-325.42z M886.469-325.42
			c0-4.001,1.927-6.74,5.277-6.74c3.353,0,5.277,2.739,5.277,6.74c0,4-1.926,6.739-5.277,6.739S886.469-321.421,886.469-325.42z
			 M894.063-325.42c0-2.501-0.761-3.853-2.315-3.853s-2.313,1.352-2.313,3.853c0,2.5,0.761,3.853,2.313,3.853
			C893.303-321.568,894.063-322.921,894.063-325.42z"/>
		<path fill="#FFFFFF" d="M896.97-325.42c0-4.001,1.925-6.74,5.275-6.74c3.354,0,5.278,2.739,5.278,6.74
			c0,4-1.926,6.739-5.278,6.739C898.895-318.68,896.97-321.421,896.97-325.42z M904.562-325.42c0-2.501-0.76-3.853-2.315-3.853
			c-1.554,0-2.313,1.352-2.313,3.853c0,2.5,0.762,3.853,2.313,3.853C903.803-321.568,904.562-322.921,904.562-325.42z"/>
		<path fill="#FFFFFF" d="M907.471-325.42c0-4.001,1.924-6.74,5.275-6.74c3.353,0,5.278,2.739,5.278,6.74
			c0,4-1.927,6.739-5.278,6.739S907.471-321.421,907.471-325.42z M915.063-325.42c0-2.501-0.761-3.853-2.315-3.853
			c-1.557,0-2.313,1.352-2.313,3.853c0,2.5,0.759,3.853,2.313,3.853C914.303-321.568,915.063-322.921,915.063-325.42z
			 M925.57-323.427c-0.014-2.543,2.036-4.615,4.578-4.63c0.018,0,0.034,0,0.051,0c2.543-0.015,4.616,2.034,4.631,4.577
			c0,0.018,0,0.035,0,0.053c0.015,2.542-2.035,4.614-4.577,4.629c-0.018,0-0.036,0-0.054,0c-2.542,0.015-4.614-2.033-4.629-4.575
			C925.57-323.391,925.57-323.41,925.57-323.427z M934.15-323.427c0-2.205-1.731-3.976-3.951-3.976
			c-2.217,0-3.948,1.771-3.948,3.976s1.731,3.976,3.948,3.976C932.419-319.452,934.15-321.222,934.15-323.427z M936.416-327.274
			v3.59h4.143v0.642h-4.143v4.104h-0.681v-8.978h4.979v0.643H936.416z M941.061-323.427c0-2.563,1.937-4.63,4.666-4.63
			c1.654,0,3.104,0.848,3.848,2.154l-0.604,0.347c-0.591-1.104-1.834-1.846-3.244-1.846c-2.36,0-3.987,1.771-3.987,3.976
			s1.627,3.976,3.987,3.976c1.424,0,2.681-0.757,3.271-1.885l0.604,0.347c-0.729,1.32-2.193,2.191-3.872,2.191
			C942.995-318.799,941.06-320.862,941.061-323.427L941.061-323.427z"/>
	</g>
	<g>
		<path fill="#FFFFFF" d="M325.625-331.902v12.963h-2.963v-9.833l-2.296,0.63l-0.722-2.536l3.389-1.224H325.625L325.625-331.902z
			 M326.163-321.087l4.352-4.52c0.759-0.778,1.314-1.537,1.314-2.296c0-0.814-0.518-1.37-1.389-1.37
			c-0.907,0-1.555,0.593-1.907,1.407l-2.5-1.462c0.834-1.928,2.574-2.833,4.371-2.833c2.315,0,4.39,1.518,4.39,4.13
			c0,1.555-0.833,2.887-2.02,4.072l-2.148,2.168h4.353v2.852h-8.814L326.163-321.087L326.163-321.087z M347.645-323.014
			c0,2.854-2.222,4.334-4.722,4.334c-2.058,0-3.834-0.869-4.631-2.776l2.556-1.482c0.296,0.854,0.852,1.372,2.075,1.372
			c1.221,0,1.758-0.647,1.758-1.444c0-0.796-0.537-1.444-1.666-1.444h-4.056l0.536-7.444h7.5v2.776h-4.722l-0.13,1.778h1.056
			C345.606-327.347,347.645-325.865,347.645-323.014L347.645-323.014z"/>
		<path fill="#FFFFFF" d="M347.494-325.42c0-4.001,1.928-6.74,5.278-6.74s5.278,2.739,5.278,6.74c0,4-1.928,6.739-5.278,6.739
			S347.494-321.421,347.494-325.42L347.494-325.42z M355.088-325.42c0-2.501-0.761-3.853-2.315-3.853
			c-1.556,0-2.315,1.352-2.315,3.853c0,2.5,0.76,3.853,2.315,3.853C354.328-321.568,355.088-322.921,355.088-325.42z"/>
		<path fill="#FFFFFF" d="M357.995-325.42c0-4.001,1.927-6.74,5.278-6.74c3.353,0,5.278,2.739,5.278,6.74
			c0,4-1.926,6.739-5.278,6.739S357.995-321.421,357.995-325.42z M365.588-325.42c0-2.501-0.76-3.853-2.314-3.853
			c-1.556,0-2.314,1.352-2.314,3.853c0,2.5,0.759,3.853,2.314,3.853C364.828-321.568,365.588-322.921,365.588-325.42z
			 M371.957-325.42c0-4.001,1.927-6.74,5.278-6.74c3.353,0,5.277,2.739,5.277,6.74c0,4-1.925,6.739-5.277,6.739
			C373.884-318.68,371.957-321.421,371.957-325.42z M379.551-325.42c0-2.501-0.76-3.853-2.315-3.853
			c-1.555,0-2.314,1.352-2.314,3.853c0,2.5,0.759,3.853,2.314,3.853C378.791-321.568,379.551-322.921,379.551-325.42z"/>
		<path fill="#FFFFFF" d="M382.457-325.42c0-4.001,1.927-6.74,5.278-6.74c3.353,0,5.278,2.739,5.278,6.74
			c0,4-1.926,6.739-5.278,6.739C384.384-318.68,382.457-321.421,382.457-325.42L382.457-325.42z M390.051-325.42
			c0-2.501-0.76-3.853-2.315-3.853c-1.555,0-2.313,1.352-2.313,3.853c0,2.5,0.759,3.853,2.313,3.853
			C389.291-321.567,390.051-322.921,390.051-325.42z"/>
		<path fill="#FFFFFF" d="M392.957-325.42c0-4.001,1.927-6.74,5.278-6.74c3.353,0,5.277,2.739,5.277,6.74
			c0,4-1.926,6.739-5.277,6.739S392.957-321.421,392.957-325.42L392.957-325.42z M400.55-325.42c0-2.501-0.761-3.853-2.314-3.853
			c-1.557,0-2.313,1.352-2.313,3.853c0,2.5,0.759,3.853,2.313,3.853C399.791-321.568,400.55-322.921,400.55-325.42z M411.06-323.427
			c-0.014-2.543,2.036-4.615,4.579-4.63c0.017,0,0.033,0,0.051,0c2.541-0.015,4.613,2.033,4.629,4.575c0,0.019,0,0.036,0,0.055
			c0.015,2.541-2.033,4.613-4.575,4.629c-0.019,0-0.036,0-0.054,0c-2.542,0.015-4.614-2.033-4.63-4.575
			C411.06-323.392,411.06-323.41,411.06-323.427z M419.639-323.427c0-2.205-1.73-3.976-3.949-3.976s-3.949,1.771-3.949,3.976
			s1.73,3.976,3.949,3.976C417.907-319.452,419.639-321.222,419.639-323.427z M421.905-327.274v3.59h4.144v0.642h-4.144v4.104h-0.68
			v-8.978h4.977v0.643H421.905L421.905-327.274z M426.547-323.427c0-2.563,1.938-4.63,4.668-4.63c1.653,0,3.104,0.848,3.848,2.154
			l-0.604,0.347c-0.591-1.104-1.834-1.846-3.244-1.846c-2.359,0-3.988,1.771-3.988,3.976s1.629,3.976,3.988,3.976
			c1.423,0,2.68-0.757,3.271-1.885l0.604,0.347c-0.73,1.32-2.192,2.191-3.873,2.191
			C428.483-318.799,426.547-320.862,426.547-323.427L426.547-323.427z"/>
	</g>
	
		<linearGradient id="SVGID_7_" gradientUnits="userSpaceOnUse" x1="119.3052" y1="-779.2292" x2="119.3052" y2="-770.3396" gradientTransform="matrix(1 0 0 1 259 542.3604)">
		<stop  offset="0" style="stop-color:#706DCB"/>
		<stop  offset="1" style="stop-color:#706DCB;stop-opacity:0.7"/>
	</linearGradient>
	<path opacity="0.4" fill="url(#SVGID_7_)" enable-background="new    " d="M378.306-236.869l-8.179,8.89h16.357L378.306-236.869z"
		/>
	
		<linearGradient id="SVGID_8_" gradientUnits="userSpaceOnUse" x1="288.0283" y1="-779.2292" x2="288.0283" y2="-770.3396" gradientTransform="matrix(1 0 0 1 259 542.3604)">
		<stop  offset="0" style="stop-color:#706DCB"/>
		<stop  offset="1" style="stop-color:#706DCB;stop-opacity:0.7"/>
	</linearGradient>
	<path opacity="0.6" fill="url(#SVGID_8_)" enable-background="new    " d="M547.028-236.869l-8.178,8.89h16.356L547.028-236.869z"
		/>
	
		<linearGradient id="SVGID_9_" gradientUnits="userSpaceOnUse" x1="457.6875" y1="-779.2292" x2="457.6875" y2="-770.3396" gradientTransform="matrix(1 0 0 1 259 542.3604)">
		<stop  offset="0" style="stop-color:#706DCB"/>
		<stop  offset="1" style="stop-color:#706DCB;stop-opacity:0.7"/>
	</linearGradient>
	<path opacity="0.8" fill="url(#SVGID_9_)" enable-background="new    " d="M716.688-236.869l-8.178,8.89h16.356L716.688-236.869z"
		/>
	
		<linearGradient id="SVGID_10_" gradientUnits="userSpaceOnUse" x1="626.7363" y1="-779.2292" x2="626.7363" y2="-770.3396" gradientTransform="matrix(1 0 0 1 259 542.3604)">
		<stop  offset="0" style="stop-color:#706DCB"/>
		<stop  offset="1" style="stop-color:#706DCB;stop-opacity:0.7"/>
	</linearGradient>
	<path fill="url(#SVGID_10_)" d="M885.735-236.869l-8.177,8.89h16.355L885.735-236.869z"/>
	<path fill="#FFFFFF" d="M352.108-212.152c0-2.848,2.15-5.141,5.184-5.141c1.836,0,3.444,0.939,4.27,2.394l-0.669,0.384
		c-0.654-1.224-2.036-2.051-3.601-2.051c-2.621,0-4.429,1.966-4.429,4.414c0,2.449,1.809,4.415,4.429,4.415
		c1.579,0,2.976-0.84,3.63-2.094l0.669,0.384c-0.813,1.468-2.436,2.437-4.299,2.437
		C354.259-207.011,352.108-209.305,352.108-212.152L352.108-212.152z M367.276-211.255h-3.146v4.085h-0.754v-9.966h3.929
		c1.625,0.003,2.943,1.319,2.947,2.945c0,1.354-0.926,2.491-2.192,2.834l2.477,4.187h-0.868L367.276-211.255L367.276-211.255z
		 M364.131-211.967h3.175c1.21,0,2.191-0.996,2.191-2.223c0-1.237-0.981-2.233-2.191-2.233h-3.175V-211.967z M374.498-211.271v4.103
		h-0.754v-4.103l-3.63-5.863h0.854l3.161,5.141l3.146-5.141h0.855L374.498-211.271L374.498-211.271z M386.008-214.046
		c0,1.752-1.311,3.074-3.104,3.074h-2.634v3.803h-0.754v-9.966h3.388C384.697-217.135,386.008-215.811,386.008-214.046z
		 M385.253-214.046c0-1.38-0.982-2.376-2.35-2.376h-2.634v4.74h2.634C384.271-211.682,385.253-212.68,385.253-214.046z
		 M393.998-216.423h-3.132v9.253h-0.769v-9.253h-3.132v-0.712h7.032L393.998-216.423L393.998-216.423z M394.216-212.152
		c-0.016-2.823,2.26-5.125,5.083-5.141c0.02,0,0.038,0,0.058,0c2.876,0,5.139,2.293,5.139,5.141c0,2.849-2.263,5.142-5.139,5.142
		c-2.824,0.015-5.125-2.263-5.141-5.086C394.216-212.115,394.216-212.134,394.216-212.152z M403.74-212.152
		c0-2.448-1.922-4.414-4.385-4.414c-2.464,0-4.386,1.966-4.386,4.414c0,2.449,1.922,4.415,4.386,4.415
		C401.818-207.737,403.74-209.703,403.74-212.152z M347.407-202.891v9.967h-0.755v-9.967H347.407z M357.189-202.891v9.967h-0.669
		l-5.88-8.57v8.57h-0.754v-9.967h0.654l5.895,8.571v-8.571H357.189L357.189-202.891z M368.114-197.907
		c0,2.748-1.95,4.982-4.697,4.982h-3.744v-9.967h3.744C366.164-202.891,368.114-200.654,368.114-197.907z M367.373-197.907
		c0-2.363-1.608-4.271-3.957-4.271h-2.99v8.542h2.99C365.765-193.636,367.373-195.543,367.373-197.907z M369.886-196.256v-6.635
		h0.755v6.635c0,1.624,1.011,2.764,2.89,2.764c1.895,0,2.904-1.14,2.904-2.764v-6.635h0.755v6.635c0,2.106-1.467,3.488-3.659,3.488
		C371.339-192.767,369.886-194.148,369.886-196.256L369.886-196.256z M378.931-195.116l0.656-0.385
		c0.342,1.194,1.352,2.008,2.989,2.008c1.666,0,2.506-0.854,2.506-1.994c0-1.196-1.054-1.651-2.576-2.135
		c-1.666-0.541-3.161-1.012-3.161-2.749c0-1.639,1.324-2.678,3.018-2.678c1.638,0,2.721,0.939,3.204,2.095l-0.641,0.354
		c-0.37-0.896-1.14-1.724-2.563-1.724c-1.38,0-2.249,0.813-2.249,1.922c0,1.196,1.01,1.565,2.435,2.035
		c1.766,0.584,3.304,1.14,3.304,2.862c0,1.65-1.296,2.733-3.275,2.733C380.711-192.767,379.387-193.707,378.931-195.116
		L378.931-195.116z M393.827-202.177h-3.132v9.254h-0.769v-9.254h-3.132v-0.713h7.031L393.827-202.177L393.827-202.177z
		 M399.3-197.01h-3.146v4.086h-0.755v-9.967h3.929c1.626,0.004,2.943,1.321,2.947,2.947c0,1.354-0.927,2.492-2.192,2.833
		l2.478,4.187h-0.868L399.3-197.01z M396.153-197.723h3.174c1.21,0,2.191-0.995,2.191-2.221c0-1.238-0.981-2.233-2.191-2.233h-3.174
		V-197.723L396.153-197.723z M407.42-197.024v4.102h-0.756v-4.102l-3.63-5.865h0.854l3.161,5.141l3.146-5.141h0.854L407.42-197.024z
		 M501.992-217.135h0.799l2.576,8.954l2.775-8.954h0.896l2.791,8.954l2.563-8.954h0.799l-2.892,9.966h-0.911l-2.791-8.983
		l-2.805,8.983h-0.911L501.992-217.135z M516.338-212.152c-0.017-2.822,2.258-5.124,5.081-5.141c0.02,0,0.038,0,0.058,0
		c2.876,0,5.141,2.293,5.141,5.141c0,2.849-2.264,5.142-5.141,5.142c-2.823,0.015-5.124-2.262-5.139-5.085
		C516.338-212.115,516.338-212.134,516.338-212.152z M525.862-212.152c0-2.448-1.923-4.414-4.387-4.414
		c-2.463,0-4.384,1.966-4.384,4.414c0,2.449,1.921,4.415,4.384,4.415C523.939-207.737,525.862-209.703,525.862-212.152z
		 M532.432-211.255h-3.146v4.085h-0.755v-9.966h3.93c1.626,0.003,2.942,1.32,2.946,2.945c0,1.354-0.927,2.491-2.192,2.834
		l2.479,4.187h-0.869L532.432-211.255L532.432-211.255z M529.286-211.967h3.175c1.209,0,2.191-0.996,2.191-2.223
		c0-1.237-0.982-2.233-2.191-2.233h-3.175V-211.967z M542.716-207.882v0.712h-5.452v-9.966h0.755v9.253L542.716-207.882z
		 M552.729-212.152c0,2.748-1.949,4.982-4.697,4.982h-3.745v-9.966h3.745C550.778-217.135,552.729-214.898,552.729-212.152z
		 M551.987-212.152c0-2.363-1.608-4.271-3.958-4.271h-2.99v8.541h2.99C550.379-207.882,551.987-209.788,551.987-212.152z
		 M557.677-217.135h0.797l2.577,8.954l2.775-8.954h0.896l2.791,8.954l2.563-8.954h0.799l-2.892,9.966h-0.911l-2.791-8.983
		l-2.805,8.983h-0.912L557.677-217.135z M573.345-217.135v9.966h-0.754v-9.966H573.345z M584.267-212.152
		c0,2.748-1.949,4.982-4.697,4.982h-3.744v-9.966h3.744C582.314-217.135,584.267-214.898,584.267-212.152z M583.525-212.152
		c0-2.363-1.607-4.271-3.958-4.271h-2.99v8.541h2.99C581.916-207.882,583.525-209.788,583.525-212.152z M591.918-207.882v0.712
		h-5.738v-9.966h5.666v0.712h-4.911v3.871h4.557v0.712h-4.557v3.958L591.918-207.882z M532.192-202.891h0.798l2.577,8.955
		l2.775-8.955h0.896l2.791,8.955l2.563-8.955h0.798l-2.891,9.967h-0.91l-2.791-8.983l-2.805,8.983h-0.912L532.192-202.891z
		 M552.845-193.636v0.712h-5.737v-9.967h5.667v0.713h-4.912v3.871h4.557v0.713h-4.557v3.958H552.845z M561.719-195.644
		c0.005,1.498-1.206,2.716-2.704,2.721c-0.005,0-0.011,0-0.017,0h-4.299v-9.967h3.973c1.446,0.002,2.618,1.174,2.619,2.62
		c0,0.969-0.513,1.767-1.28,2.18C561.006-197.708,561.719-196.783,561.719-195.644z M555.453-202.177v3.813h3.218
		c1.024,0,1.864-0.854,1.864-1.907c0-1.053-0.84-1.906-1.864-1.906H555.453z M560.964-195.644c0-1.109-0.884-2.007-1.966-2.007
		h-3.544v4.016h3.544C560.08-193.636,560.964-194.532,560.964-195.644z M692.373-207.882v0.712h-5.738v-9.966h5.666v0.712h-4.911
		v3.871h4.557v0.712h-4.557v3.958L692.373-207.882z M693.63-209.361l0.653-0.384c0.342,1.194,1.354,2.007,2.99,2.007
		c1.666,0,2.506-0.854,2.506-1.994c0-1.195-1.056-1.65-2.577-2.135c-1.665-0.541-3.161-1.012-3.161-2.749
		c0-1.639,1.324-2.678,3.02-2.678c1.639,0,2.721,0.939,3.203,2.094l-0.641,0.355c-0.37-0.896-1.141-1.725-2.563-1.725
		c-1.38,0-2.249,0.813-2.249,1.923c0,1.197,1.011,1.566,2.435,2.035c1.767,0.584,3.305,1.139,3.305,2.863
		c0,1.649-1.296,2.731-3.273,2.731C695.408-207.011,694.085-207.952,693.63-209.361z M701.835-212.152
		c0-2.848,2.147-5.141,5.182-5.141c1.837,0,3.446,0.939,4.271,2.394l-0.669,0.384c-0.654-1.224-2.036-2.051-3.604-2.051
		c-2.619,0-4.428,1.966-4.428,4.414c0,2.449,1.809,4.415,4.428,4.415c1.58,0,2.977-0.84,3.631-2.094l0.67,0.384
		c-0.813,1.468-2.437,2.437-4.301,2.437C703.982-207.011,701.835-209.305,701.835-212.152L701.835-212.152z M717.003-211.255h-3.146
		v4.085h-0.755v-9.966h3.93c1.626,0.002,2.943,1.319,2.945,2.945c0,1.354-0.924,2.491-2.19,2.834l2.479,4.187h-0.868
		L717.003-211.255z M713.854-211.967h3.175c1.211,0,2.191-0.996,2.191-2.223c0-1.237-0.98-2.233-2.191-2.233h-3.175V-211.967z
		 M721.264-212.152c-0.016-2.823,2.26-5.125,5.083-5.141c0.02,0,0.038,0,0.058,0c2.876,0,5.14,2.293,5.14,5.141
		c0,2.849-2.264,5.142-5.14,5.142S721.264-209.305,721.264-212.152z M730.788-212.152c0-2.448-1.923-4.414-4.386-4.414
		s-4.386,1.966-4.386,4.414c0,2.449,1.923,4.415,4.386,4.415S730.788-209.703,730.788-212.152z M732.688-217.135h0.798l2.576,8.954
		l2.776-8.954h0.896l2.789,8.954l2.563-8.954h0.798l-2.892,9.966h-0.911l-2.789-8.983l-2.806,8.983h-0.911L732.688-217.135
		L732.688-217.135z M674.52-197.907c0-2.849,2.15-5.141,5.183-5.141c1.836,0,3.446,0.939,4.271,2.394l-0.669,0.384
		c-0.654-1.225-2.034-2.05-3.603-2.05c-2.619,0-4.427,1.965-4.427,4.414c0,2.447,1.808,4.414,4.427,4.414
		c1.581,0,2.977-0.841,3.631-2.095l0.67,0.385c-0.813,1.468-2.435,2.437-4.301,2.437C676.669-192.767,674.52-195.06,674.52-197.907
		L674.52-197.907z M685.217-197.907c-0.016-2.823,2.26-5.125,5.083-5.141c0.02,0,0.039,0,0.059,0
		c2.821-0.017,5.122,2.259,5.139,5.08c0,0.021,0,0.04,0,0.061c0,2.848-2.263,5.141-5.139,5.141S685.217-195.06,685.217-197.907z
		 M694.741-197.907c0-2.449-1.923-4.414-4.385-4.414c-2.464,0-4.386,1.965-4.386,4.414c0,2.447,1.922,4.414,4.386,4.414
		C692.818-193.493,694.741-195.459,694.741-197.907z M704.715-202.891v9.967h-0.67l-5.881-8.57v8.57h-0.754v-9.967h0.654
		l5.895,8.571v-8.571H704.715z M713.318-202.177h-3.133v9.254h-0.769v-9.254h-3.134v-0.713h7.033L713.318-202.177L713.318-202.177z
		 M718.789-197.01h-3.145v4.086h-0.755v-9.967h3.929c1.626,0.004,2.943,1.321,2.947,2.947c0,1.354-0.926,2.492-2.192,2.833
		l2.479,4.187h-0.869L718.789-197.01L718.789-197.01z M715.646-197.723h3.174c1.211,0,2.191-0.995,2.191-2.221
		c0-1.238-0.98-2.233-2.191-2.233h-3.174V-197.723L715.646-197.723z M729.358-195.459h-4.997l-0.969,2.535h-0.798l3.873-9.967h0.797
		l3.857,9.967h-0.798L729.358-195.459z M729.089-196.17l-2.222-5.795l-2.222,5.795H729.089z M732.012-197.907
		c0-2.849,2.149-5.141,5.185-5.141c1.836,0,3.443,0.939,4.271,2.394l-0.669,0.384c-0.652-1.225-2.036-2.05-3.602-2.05
		c-2.621,0-4.429,1.965-4.429,4.414c0,2.447,1.808,4.414,4.429,4.414c1.579,0,2.976-0.841,3.629-2.095l0.67,0.385
		c-0.813,1.468-2.435,2.437-4.299,2.437C734.161-192.767,732.012-195.06,732.012-197.907z M749.4-202.177h-3.133v9.254h-0.771
		v-9.254h-3.132v-0.713h7.033L749.4-202.177z M750.373-195.116l0.654-0.385c0.341,1.194,1.353,2.008,2.99,2.008
		c1.666,0,2.506-0.854,2.506-1.994c0-1.196-1.055-1.651-2.577-2.135c-1.666-0.541-3.161-1.012-3.161-2.749
		c0-1.639,1.324-2.678,3.02-2.678c1.638,0,2.721,0.939,3.203,2.095l-0.643,0.354c-0.37-0.896-1.139-1.724-2.563-1.724
		c-1.381,0-2.25,0.813-2.25,1.922c0,1.196,1.012,1.565,2.437,2.035c1.765,0.584,3.303,1.14,3.303,2.862
		c0,1.65-1.297,2.733-3.273,2.733C752.152-192.767,750.828-193.707,750.373-195.116L750.373-195.116z M859.758-209.703h-4.997
		l-0.968,2.534h-0.8l3.874-9.966h0.797l3.859,9.966h-0.798L859.758-209.703L859.758-209.703z M859.486-210.414l-2.22-5.796
		l-2.223,5.796H859.486L859.486-210.414z M866.881-211.255h-3.146v4.085h-0.754v-9.966h3.929c1.626,0.003,2.942,1.32,2.946,2.945
		c0,1.354-0.925,2.491-2.191,2.834l2.479,4.187h-0.87L866.881-211.255z M863.734-211.967h3.175c1.211,0,2.192-0.996,2.192-2.223
		c0-1.237-0.981-2.233-2.192-2.233h-3.175V-211.967z M877.832-216.423h-3.131v9.253h-0.769v-9.253H870.8v-0.712h7.032V-216.423
		L877.832-216.423z M880.158-217.135v9.966h-0.754v-9.966H880.158z M883.394-216.423v3.984h4.599v0.712h-4.599v4.557h-0.755v-9.966
		h5.522v0.712L883.394-216.423L883.394-216.423z M890.771-217.135v9.966h-0.754v-9.966H890.771z M892.683-212.152
		c0-2.848,2.147-5.141,5.181-5.141c1.837,0,3.446,0.939,4.271,2.394l-0.669,0.384c-0.653-1.224-2.034-2.051-3.604-2.051
		c-2.619,0-4.427,1.966-4.427,4.414c0,2.449,1.808,4.415,4.427,4.415c1.581,0,2.979-0.84,3.632-2.094l0.669,0.384
		c-0.811,1.468-2.436,2.437-4.301,2.437C894.83-207.011,892.683-209.305,892.683-212.152z M909.687-209.703h-4.998l-0.97,2.534
		h-0.796l3.873-9.966h0.796l3.858,9.966h-0.797L909.687-209.703z M909.413-210.414l-2.22-5.796l-2.221,5.796H909.413z
		 M918.36-207.882v0.712h-5.452v-9.966h0.753v9.253L918.36-207.882L918.36-207.882z M841.413-202.891v9.967h-0.755v-9.967H841.413z
		 M851.195-202.891v9.967h-0.67l-5.879-8.57v8.57h-0.754v-9.967h0.652l5.896,8.571v-8.571H851.195z M859.799-202.177h-3.131v9.254
		h-0.77v-9.254h-3.132v-0.713h7.03L859.799-202.177z M867.106-193.636v0.712h-5.736v-9.967h5.667v0.713h-4.913v3.871h4.558v0.713
		h-4.558v3.958H867.106L867.106-193.636z M874.416-193.636v0.712h-5.451v-9.967h0.753v9.255H874.416z M881.438-193.636v0.712h-5.454
		v-9.967h0.755v9.255H881.438z M883.762-202.891v9.967h-0.753v-9.967H883.762z M895.723-197.182c0,2.407-1.836,4.415-4.812,4.415
		c-3.091,0-5.239-2.292-5.239-5.141s2.148-5.141,5.184-5.141c1.853,0,3.461,0.969,4.284,2.406l-0.669,0.399
		c-0.654-1.254-2.051-2.08-3.615-2.08c-2.62,0-4.428,1.965-4.428,4.414c0,2.447,1.808,4.414,4.483,4.414
		c2.42,0,3.889-1.496,4.043-3.361h-4.229v-0.711h4.997L895.723-197.182L895.723-197.182z M903.359-193.636v0.712h-5.736v-9.967
		h5.666v0.713h-4.912v3.871h4.559v0.713h-4.559v3.958H903.359z M912.521-202.891v9.967h-0.669l-5.881-8.57v8.57h-0.755v-9.967h0.652
		l5.896,8.571v-8.571H912.521L912.521-202.891z M914.435-197.907c0-2.849,2.147-5.141,5.182-5.141c1.837,0,3.446,0.939,4.271,2.394
		l-0.668,0.384c-0.654-1.225-2.038-2.05-3.604-2.05c-2.62,0-4.428,1.965-4.428,4.414c0,2.447,1.808,4.414,4.428,4.414
		c1.58,0,2.978-0.841,3.63-2.095l0.671,0.385c-0.813,1.468-2.436,2.437-4.301,2.437C916.582-192.767,914.434-195.06,914.435-197.907
		L914.435-197.907z M931.438-193.636v0.712H925.7v-9.967h5.665v0.713h-4.909v3.871h4.555v0.713h-4.555v3.958H931.438
		L931.438-193.636z M977.727-274.916c-0.393,0.002-0.713-0.314-0.715-0.708c-0.001-0.219,0.099-0.427,0.271-0.563l12.047-9.546
		l-12.045-9.414c-0.31-0.242-0.364-0.689-0.123-1c0.243-0.31,0.691-0.364,1.002-0.123l12.758,9.973
		c0.311,0.244,0.363,0.692,0.119,1.002c-0.034,0.044-0.074,0.084-0.118,0.119l-12.756,10.107
		C978.041-274.969,977.886-274.916,977.727-274.916L977.727-274.916z M360.675-285.023h-85.46c-0.394,0-0.712-0.318-0.712-0.712
		c0-0.393,0.319-0.712,0.712-0.712h85.46c0.392-0.001,0.711,0.316,0.712,0.708c0,0.001,0,0.003,0,0.004
		C361.387-285.343,361.067-285.023,360.675-285.023z"/>
	<path fill="#FFFFFF" d="M378.306-267.396c-10.113,0-18.34-8.229-18.34-18.34c0-10.112,8.227-18.34,18.34-18.34
		c10.113,0,18.34,8.228,18.34,18.34S388.418-267.396,378.306-267.396z M378.306-302.651c-9.327,0-16.916,7.588-16.916,16.916
		s7.589,16.916,16.916,16.916c9.328,0,16.917-7.588,16.917-16.916S387.633-302.651,378.306-302.651L378.306-302.651z"/>
	
		<linearGradient id="SVGID_11_" gradientUnits="userSpaceOnUse" x1="-3364.0293" y1="-386.8308" x2="-3345.6895" y2="-386.8308" gradientTransform="matrix(0 -1 1 0 765.1365 -3640.5945)">
		<stop  offset="0" style="stop-color:#706DCB;stop-opacity:0"/>
		<stop  offset="1" style="stop-color:#706DCB;stop-opacity:0.7"/>
	</linearGradient>
	<circle fill="url(#SVGID_11_)" cx="378.306" cy="-285.735" r="9.17"/>
	<path fill="#FFFFFF" d="M547.498-267.396c-10.113,0-18.342-8.229-18.342-18.34c0-10.112,8.229-18.34,18.342-18.34
		c10.111,0,18.34,8.228,18.34,18.34S557.609-267.396,547.498-267.396z M547.498-302.651c-9.328,0-16.918,7.588-16.918,16.916
		s7.589,16.916,16.918,16.916c9.326,0,16.915-7.588,16.915-16.916S556.823-302.651,547.498-302.651L547.498-302.651z"/>
	
		<linearGradient id="SVGID_12_" gradientUnits="userSpaceOnUse" x1="-3364.0293" y1="-217.6384" x2="-3345.6895" y2="-217.6384" gradientTransform="matrix(0 -1 1 0 765.1365 -3640.5945)">
		<stop  offset="0" style="stop-color:#706DCB;stop-opacity:0"/>
		<stop  offset="1" style="stop-color:#706DCB;stop-opacity:0.7"/>
	</linearGradient>
	<circle fill="url(#SVGID_12_)" cx="547.498" cy="-285.735" r="9.17"/>
	<path fill="#FFFFFF" d="M716.688-267.396c-10.112,0-18.34-8.229-18.34-18.34c0-10.112,8.228-18.34,18.34-18.34
		s18.342,8.228,18.342,18.34C735.028-275.624,726.801-267.396,716.688-267.396z M716.688-302.651
		c-9.326,0-16.916,7.588-16.916,16.916s7.59,16.916,16.916,16.916c9.328,0,16.916-7.588,16.916-16.916
		S726.017-302.651,716.688-302.651z"/>
	
		<linearGradient id="SVGID_13_" gradientUnits="userSpaceOnUse" x1="-3364.0293" y1="-48.4485" x2="-3345.6895" y2="-48.4485" gradientTransform="matrix(0 -1 1 0 765.1365 -3640.5945)">
		<stop  offset="0" style="stop-color:#706DCB;stop-opacity:0"/>
		<stop  offset="1" style="stop-color:#706DCB;stop-opacity:0.7"/>
	</linearGradient>
	<circle fill="url(#SVGID_13_)" cx="716.688" cy="-285.735" r="9.17"/>
	<path fill="#FFFFFF" d="M885.88-267.396c-10.114,0-18.342-8.229-18.342-18.34c0-10.112,8.228-18.34,18.342-18.34
		c10.112,0,18.34,8.228,18.34,18.34S895.992-267.396,885.88-267.396z M885.88-302.651c-9.327,0-16.915,7.588-16.915,16.916
		s7.588,16.916,16.915,16.916c9.326,0,16.915-7.588,16.915-16.916S895.207-302.651,885.88-302.651z"/>
	
		<linearGradient id="SVGID_14_" gradientUnits="userSpaceOnUse" x1="-3364.0293" y1="120.7434" x2="-3345.6895" y2="120.7434" gradientTransform="matrix(0 -1 1 0 765.1365 -3640.5945)">
		<stop  offset="0" style="stop-color:#706DCB;stop-opacity:0"/>
		<stop  offset="1" style="stop-color:#706DCB;stop-opacity:0.7"/>
	</linearGradient>
	<circle fill="url(#SVGID_14_)" cx="885.88" cy="-285.735" r="9.17"/>
	<path fill="#FFFFFF" d="M988.967-285.023h-85.46c-0.394,0-0.712-0.318-0.712-0.712s0.318-0.712,0.712-0.712h85.46
		c0.393-0.002,0.712,0.314,0.713,0.707c0,0.002,0,0.003,0,0.005C989.68-285.343,989.36-285.023,988.967-285.023z M529.868-285.023
		H397.357c-0.394,0-0.713-0.318-0.713-0.712s0.319-0.712,0.713-0.712h132.511c0.394,0,0.712,0.318,0.712,0.712
		S530.262-285.023,529.868-285.023z M697.636-285.023H565.125c-0.394,0-0.712-0.318-0.712-0.712s0.318-0.712,0.712-0.712h132.51
		c0.394,0,0.713,0.318,0.713,0.712C698.348-285.343,698.029-285.023,697.636-285.023z M866.827-285.023H734.315
		c-0.394,0-0.712-0.318-0.712-0.712s0.318-0.712,0.712-0.712h132.512c0.395,0,0.711,0.317,0.711,0.712
		c0.001,0.393-0.315,0.711-0.708,0.712C866.829-285.023,866.828-285.023,866.827-285.023L866.827-285.023z"/>
	<path fill="#D9D9D9" d="M377.949-268.701h0.712v25.333h-0.712V-268.701z M546.673-268.701h0.712v25.333h-0.712V-268.701z
		 M716.332-268.701h0.712v25.333h-0.712V-268.701z M885.521-268.701h0.713v25.333h-0.713V-268.701z"/>
	<g>
		<path fill="#FFFFFF" d="M440.287-322.546h-2.866v3.723h-0.688v-9.079h3.581c1.478,0,2.685,1.206,2.685,2.685
			c0,1.232-0.843,2.27-1.998,2.581l2.257,3.813h-0.791L440.287-322.546z M437.421-323.194h2.893c1.102,0,1.997-0.908,1.997-2.023
			c0-1.128-0.896-2.037-1.997-2.037h-2.893V-323.194z"/>
	</g>
	<g>
		<path fill="#FFFFFF" d="M611.204-322.546h-2.866v3.723h-0.688v-9.079h3.581c1.478,0,2.685,1.206,2.685,2.685
			c0,1.232-0.843,2.27-1.998,2.581l2.257,3.813h-0.791L611.204-322.546z M608.338-323.194h2.893c1.102,0,1.997-0.908,1.997-2.023
			c0-1.128-0.896-2.037-1.997-2.037h-2.893V-323.194z"/>
	</g>
	<g>
		<path fill="#FFFFFF" d="M787.162-322.546h-2.866v3.723h-0.688v-9.079h3.581c1.478,0,2.685,1.206,2.685,2.685
			c0,1.232-0.843,2.27-1.998,2.581l2.257,3.813h-0.791L787.162-322.546z M784.296-323.194h2.893c1.102,0,1.997-0.908,1.997-2.023
			c0-1.128-0.896-2.037-1.997-2.037h-2.893V-323.194z"/>
	</g>
	<g>
		<path fill="#FFFFFF" d="M954.846-322.546h-2.866v3.723h-0.688v-9.079h3.581c1.478,0,2.685,1.206,2.685,2.685
			c0,1.232-0.843,2.27-1.998,2.581l2.257,3.813h-0.791L954.846-322.546z M951.979-323.194h2.893c1.102,0,1.997-0.908,1.997-2.023
			c0-1.128-0.896-2.037-1.997-2.037h-2.893V-323.194z"/>
	</g>
</g>
</svg>
