<?xml version="1.0" encoding="iso-8859-1"?>
<!-- Generator: Adobe Illustrator 19.0.0, SVG Export Plug-In . SVG Version: 6.00 Build 0)  -->
<svg version="1.1" id="Layer_1" xmlns="http://www.w3.org/2000/svg" xmlns:xlink="http://www.w3.org/1999/xlink" x="0px" y="0px"
	 viewBox="0 0 508 508" style="enable-background:new 0 0 508 508;" xml:space="preserve">
<circle style="fill:#324A5E;" cx="254" cy="254" r="254"/>
<path style="fill:#2C9984;" d="M420.4,214.4v108c0,21.6-17.6,39.2-39.2,39.2l0,0v50.8l-62-50.8H206c-21.6,0-39.2-17.6-39.2-39.2V300
	l21.6-18H302c21.6,0,39.2-17.6,39.2-39.2v-68h40C402.8,175.2,420.4,192.8,420.4,214.4z"/>
<path style="fill:#FFFFFF;" d="M302,95.6H126.8c-21.6,0-39.2,17.6-39.2,39.2v108c0,21.6,17.6,39.2,39.2,39.2l0,0v50.8l62-50.8H302
	c21.6,0,39.2-17.6,39.2-39.2v-108C341.2,113.2,323.6,95.6,302,95.6z"/>
<g>
	<circle style="fill:#84DBFF;" cx="141.6" cy="190" r="24.4"/>
	<circle style="fill:#84DBFF;" cx="214.4" cy="190" r="24.4"/>
	<circle style="fill:#84DBFF;" cx="286.8" cy="190" r="24.4"/>
</g>
<g>
</g>
<g>
</g>
<g>
</g>
<g>
</g>
<g>
</g>
<g>
</g>
<g>
</g>
<g>
</g>
<g>
</g>
<g>
</g>
<g>
</g>
<g>
</g>
<g>
</g>
<g>
</g>
<g>
</g>
</svg>
