<?xml version="1.0" encoding="utf-8"?>
<!-- Generator: Adobe Illustrator 16.0.0, SVG Export Plug-In . SVG Version: 6.00 Build 0)  -->
<!DOCTYPE svg PUBLIC "-//W3C//DTD SVG 1.1//EN" "http://www.w3.org/Graphics/SVG/1.1/DTD/svg11.dtd">
<svg version="1.1" id="Layer_1" xmlns="http://www.w3.org/2000/svg" xmlns:xlink="http://www.w3.org/1999/xlink" x="0px" y="0px"
	 width="342.473px" height="154.517px" viewBox="0 0 342.473 154.517" enable-background="new 0 0 342.473 154.517"
	 xml:space="preserve">
<g>
	<g>
		
			<linearGradient id="SVGID_1_" gradientUnits="userSpaceOnUse" x1="39.458" y1="-222.6631" x2="310.771" y2="-222.6631" gradientTransform="matrix(0.7071 -0.7071 0.7071 0.7071 204.8571 358.5509)">
			<stop  offset="0" style="stop-color:#6B4C2D"/>
			<stop  offset="0.5618" style="stop-color:#E5D4B5"/>
			<stop  offset="0.8332" style="stop-color:#A1795A"/>
			<stop  offset="0.9551" style="stop-color:#814F2F"/>
		</linearGradient>
		<path fill="url(#SVGID_1_)" d="M171.445,15.192l0.395,0.689l6.337,10.97l10.072,17.444l1.113,1.929h2.224h20.143h12.671h0.793
			l-0.475,0.818l-5.931,10.273l-3.34,5.788h6.681h107.729h6.186v6.186v15.982v6.135h-6.131H222.127h-6.681l3.34,5.785l5.997,10.386
			l0.408,0.706h-0.799h-12.665h-20.143h-2.224l-1.113,1.928l-10.072,17.448l-6.337,10.967l-0.397,0.69l-0.398-0.69l-6.337-10.967
			l-10.068-17.448l-1.113-1.928h-2.227h-20.143h-12.67h-0.786l0.469-0.815l5.932-10.276l3.337-5.785h-6.677H12.562H6.427
			l0.003-6.135V69.291l-0.003-6.186h6.19H120.76h6.68l-3.34-5.788l-5.993-10.383l-0.411-0.709h0.799h12.661h20.143h2.227
			l1.113-1.929l10.068-17.444l6.337-10.97L171.445,15.192 M155.364,49.408h-4.065h-20.14h-1.268h-6.674l3.331,5.781l0.635,1.102
			l10.068,17.444l2.034,3.521l-2.034,3.522l-10.068,17.444l-0.635,1.098l-3.337,5.781h6.68h1.264h20.143h3.915h0.154l0.105,0.187
			l1.925,3.337l10.072,17.448l0.635,1.094l3.337,5.778l3.336-5.778l0.636-1.097l10.075-17.445l1.925-3.337l0.106-0.187h0.151h3.917
			h20.14H213h6.684l-3.344-5.785l-0.636-1.094l-10.071-17.447l-2.034-3.52l2.034-3.521l10.071-17.444l0.636-1.098l3.336-5.785h-6.68
			h-1.268h-20.143h-4.065l-2.031-3.52l-10.072-17.441l-0.632-1.101l-3.343-5.788l-3.34,5.788l-0.632,1.097l-10.068,17.445
			L155.364,49.408 M171.442,0c-4.133,0-7.482,3.346-7.482,7.479c0,2.769,1.511,5.182,3.744,6.475l-6.333,10.97l-10.072,17.445
			h-20.143h-12.661c-0.016-4.12-3.356-7.457-7.482-7.457c-4.132,0-7.479,3.35-7.482,7.482c0,4.133,3.35,7.479,7.482,7.479
			c1.367,0,2.647-0.371,3.751-1.01l5.997,10.386H12.617l2.57-2.573H0v15.186l2.57-2.57v15.982L0,82.703v15.189l15.187-0.004
			l-2.625-2.624l108.198-0.003l-5.933,10.283c-1.12-0.668-2.419-1.056-3.815-1.056c-4.132,0-7.482,3.347-7.482,7.479
			c0,4.135,3.353,7.484,7.482,7.484c4.075,0,7.383-3.256,7.473-7.312h12.67l20.143,0.003l10.072,17.445l6.333,10.97
			c-2.233,1.293-3.744,3.706-3.744,6.472c0,4.133,3.35,7.482,7.482,7.482c4.132,0,7.485-3.35,7.485-7.482
			c0-2.766-1.511-5.179-3.748-6.472l6.333-10.97l10.072-17.448l20.143,0.003l12.665-0.003c0.012,4.12,3.355,7.46,7.479,7.46
			c4.133,0,7.479-3.35,7.479-7.482s-3.346-7.482-7.479-7.482c-1.367,0-2.646,0.375-3.748,1.014l-5.996-10.389h107.784l-2.628,2.631
			l15.189-0.004V82.703l-2.57,2.57L339.9,69.291l2.573,2.57V56.675h-15.189l2.573,2.573H222.127l5.933-10.28
			c1.116,0.668,2.419,1.056,3.812,1.059c4.133-0.003,7.479-3.353,7.479-7.485c0-4.132-3.346-7.479-7.479-7.479
			c-4.072,0-7.379,3.254-7.469,7.307h-12.675h-20.143l-10.068-17.445l-6.337-10.97c2.236-1.293,3.748-3.706,3.748-6.475
			C178.928,3.346,175.575,0,171.442,0L171.442,0z"/>
		
			<linearGradient id="SVGID_2_" gradientUnits="userSpaceOnUse" x1="373.686" y1="284.8696" x2="388.6195" y2="299.8031" gradientTransform="matrix(0.7071 0.7071 -0.7071 0.7071 108.786 -398.681)">
			<stop  offset="0" style="stop-color:#E5D4B5"/>
			<stop  offset="1" style="stop-color:#6B4C2D"/>
		</linearGradient>
		<path fill="url(#SVGID_2_)" d="M238.141,74.554c0,3.797-3.058,6.856-7.001,6.856h-3.003v6.288h-4.572V67.693l7.575,0.002
			C235.083,67.693,238.141,70.751,238.141,74.554z M233.569,74.554c0-1.459-1.029-2.574-2.429-2.575h-3.003v5.146h3.003
			C232.54,77.125,233.569,76.011,233.569,74.554z M241.426,77.697c0-5.888,4.659-10.405,10.406-10.405
			c5.742,0,10.401,4.517,10.401,10.405c0,5.888-4.659,10.404-10.401,10.404C246.085,88.101,241.426,83.584,241.426,77.697z
			 M257.662,77.697c0-3.572-2.573-5.945-5.833-5.947c-3.257,0.002-5.83,2.375-5.83,5.947c0,3.57,2.573,5.945,5.83,5.943
			C255.088,83.642,257.659,81.267,257.662,77.697z M278.524,83.3l-0.004,4.398l-11.717,0.002V67.695h4.572V83.3H278.524z
			 M287.09,67.695v20.006h-4.572V67.693L287.09,67.695z M291.663,77.695c0-5.887,4.377-10.403,10.405-10.403
			c3.632,0,6.831,1.802,8.576,4.632l-3.942,2.287c-0.89-1.545-2.605-2.459-4.634-2.461c-3.546,0-5.83,2.375-5.83,5.947
			c-0.003,3.57,2.288,5.945,5.83,5.945c2.03,0,3.773-0.914,4.634-2.459l3.942,2.285c-1.716,2.834-4.915,4.633-8.576,4.633
			C296.04,88.101,291.663,83.583,291.663,77.695z M327.358,83.298v4.402h-12.574V67.695h12.436v4.401l-7.864-0.001v3.315
			l7.149-0.001v4.344l-7.149-0.002V83.3L327.358,83.298z M15.819,77.388c0-5.889,4.373-10.403,10.402-10.404
			c3.632,0.001,6.834,1.801,8.573,4.631l-3.94,2.285c-0.889-1.542-2.602-2.455-4.63-2.457c-3.545,0-5.833,2.373-5.833,5.945
			c0,3.573,2.288,5.945,5.833,5.945c2.028,0.002,3.773-0.914,4.63-2.457l3.943,2.284c-1.717,2.831-4.916,4.632-8.577,4.63
			C20.192,87.792,15.819,83.277,15.819,77.388z M43.685,80.819H41.51v6.572h-4.572V67.382h8.002c3.802,0.002,6.86,3.061,6.86,6.86
			c0,2.46-1.485,4.689-3.687,5.806l4.258,7.343l-4.916,0.002L43.685,80.819z M41.51,76.814h3.43c1.258,0.002,2.288-1.109,2.288-2.57
			c0-1.455-1.03-2.57-2.288-2.569h-3.43V76.814z M63.517,79.704v7.689l-4.576-0.002l0.003-7.687l-6.719-12.32l5.201-0.002
			l3.802,7.722l3.802-7.722h5.201L63.517,79.704z M86.522,74.243c0,3.802-3.061,6.86-7.004,6.86h-3.003l0.003,6.288l-4.572,0.002
			V67.384l7.572-0.002C83.461,67.382,86.522,70.443,86.522,74.243z M81.95,74.244c0-1.455-1.03-2.57-2.432-2.569h-3v5.14h3
			C80.917,76.814,81.947,75.703,81.95,74.244z M101.952,71.787h-5.143v15.606h-4.575V71.787l-5.144-0.002v-4.4l14.862-0.002V71.787z
			 M101.949,77.388c0-5.889,4.662-10.404,10.405-10.404s10.405,4.516,10.405,10.406c0,5.888-4.662,10.4-10.405,10.4
			C106.611,87.792,101.949,83.277,101.949,77.388z M118.187,77.39c0-3.576-2.573-5.947-5.833-5.945c-3.257,0-5.83,2.371-5.83,5.943
			c0,3.574,2.573,5.947,5.83,5.947C115.61,83.335,118.187,80.961,118.187,77.39z"/>
		
			<linearGradient id="SVGID_3_" gradientUnits="userSpaceOnUse" x1="667.9546" y1="335.8374" x2="693.6968" y2="335.8374" gradientTransform="matrix(0 1 -1 0 467.1533 -603.4375)">
			<stop  offset="0" style="stop-color:#6B4C2D"/>
			<stop  offset="0.5618" style="stop-color:#E5D4B5"/>
			<stop  offset="0.8332" style="stop-color:#A1795A"/>
			<stop  offset="0.9551" style="stop-color:#814F2F"/>
		</linearGradient>
		<polygon fill="url(#SVGID_3_)" points="135.032,77.39 127.601,64.517 132.475,77.39 127.601,90.259 		"/>
		
			<linearGradient id="SVGID_4_" gradientUnits="userSpaceOnUse" x1="667.8257" y1="255.8062" x2="693.5698" y2="255.8062" gradientTransform="matrix(0 1 -1 0 467.1533 -603.4375)">
			<stop  offset="0" style="stop-color:#6B4C2D"/>
			<stop  offset="0.5618" style="stop-color:#E5D4B5"/>
			<stop  offset="0.8332" style="stop-color:#A1795A"/>
			<stop  offset="0.9551" style="stop-color:#814F2F"/>
		</linearGradient>
		<polygon fill="url(#SVGID_4_)" points="207.631,77.26 215.062,90.132 210.185,77.26 215.062,64.389 		"/>
		<g>
			
				<linearGradient id="SVGID_5_" gradientUnits="userSpaceOnUse" x1="657.6714" y1="295.6772" x2="704.5972" y2="295.6772" gradientTransform="matrix(0 1 -1 0 467.1533 -603.4375)">
				<stop  offset="0" style="stop-color:#6B4C2D"/>
				<stop  offset="0.2055" style="stop-color:#6E4F30"/>
				<stop  offset="0.375" style="stop-color:#77593A"/>
				<stop  offset="0.5316" style="stop-color:#876B4C"/>
				<stop  offset="0.6805" style="stop-color:#9C8364"/>
				<stop  offset="0.8239" style="stop-color:#B8A283"/>
				<stop  offset="0.9614" style="stop-color:#DAC8A9"/>
				<stop  offset="1" style="stop-color:#E5D4B5"/>
			</linearGradient>
			<path fill="url(#SVGID_5_)" d="M194.938,77.697c0,12.938-10.524,23.464-23.46,23.464c-12.94,0-23.464-10.525-23.464-23.464
				c0-12.936,10.524-23.463,23.464-23.463C184.414,54.234,194.938,64.761,194.938,77.697z"/>
			
				<linearGradient id="SVGID_6_" gradientUnits="userSpaceOnUse" x1="632.8628" y1="295.8228" x2="728.8257" y2="295.8228" gradientTransform="matrix(0 1 -1 0 467.2998 -603.584)">
				<stop  offset="0" style="stop-color:#6B4C2D"/>
				<stop  offset="0.4328" style="stop-color:#E5D4B5"/>
				<stop  offset="0.7932" style="stop-color:#A1795A"/>
				<stop  offset="0.9551" style="stop-color:#814F2F"/>
			</linearGradient>
			<path fill="url(#SVGID_6_)" d="M170.842,30.376l0.635-1.098l0.632,1.098l10.075,17.445l2.641,4.573
				c-3.985-2.106-8.525-3.305-13.347-3.305s-9.363,1.198-13.348,3.305l2.641-4.573L170.842,30.376z M129.924,53.271l0.635,1.096
				l10.068,17.445l2.313,4.002c0.619-9.555,5.923-17.828,13.646-22.543h-5.252h-20.144H129.924z M151.334,101.251h3.914
				c-7.2-4.971-12.003-13.148-12.35-22.473l-2.271,3.931l-10.068,17.442l-0.635,1.1h1.267H151.334z M182.184,106.699l1.925-3.334
				c-3.812,1.879-8.098,2.938-12.632,2.938s-8.82-1.06-12.632-2.938l1.925,3.334l10.072,17.445l0.635,1.098l0.632-1.098
				L182.184,106.699z M213.031,101.251l-0.635-1.1l-10.068-17.442l-2.271-3.933c-0.347,9.322-5.153,17.504-12.35,22.475h3.915
				h20.143H213.031z M213.031,53.271h-1.268h-20.143h-5.252c7.72,4.715,13.027,12.991,13.646,22.545l2.313-4.004l10.068-17.445
				L213.031,53.271z"/>
		</g>
		<g>
			
				<linearGradient id="SVGID_7_" gradientUnits="userSpaceOnUse" x1="663.2104" y1="294.2544" x2="696.5239" y2="294.2544" gradientTransform="matrix(0 1 -1 0 467.1533 -603.4365)">
				<stop  offset="0" style="stop-color:#E5D4B5"/>
				<stop  offset="0.0517" style="stop-color:#E5D4B5"/>
				<stop  offset="0.0591" style="stop-color:#E5D4B5"/>
			</linearGradient>
			<path fill-rule="evenodd" clip-rule="evenodd" fill="url(#SVGID_7_)" d="M182.178,75.98c1.319-1.146,2.118-2.743,2.118-4.755
				c0-4.2-3.436-6.943-7.671-6.943h-0.147v-4.508h-4.098v4.508h-2.073v-4.508h-4.097v4.508h-5.573v24.295h5.573v4.511h4.097v-4.511
				h2.073v4.511h4.098v-4.511h0.844c4.338,0,7.841-2.808,7.841-7.113C185.162,79,183.981,77.125,182.178,75.98z M166.19,69.49
				h10.434c1.283,0,2.118,0.901,2.118,2.149c0,1.251-0.87,2.153-2.118,2.153H166.19V69.49z M177.32,83.373h-11.13V78.72h11.13
				c1.386,0,2.288,0.973,2.288,2.326S178.706,83.373,177.32,83.373z"/>
		</g>
	</g>
	<g>
		<defs>
			<path id="SVGID_8_" d="M342.473,56.675h-15.189l2.573,2.573H222.127l5.933-10.28c1.116,0.668,2.419,1.056,3.812,1.059
				c4.133-0.003,7.479-3.353,7.479-7.485c0-4.132-3.346-7.479-7.479-7.479c-4.072,0-7.379,3.254-7.469,7.307h-12.675h-20.143
				l-10.068-17.445l-6.337-10.97c2.236-1.293,3.748-3.706,3.748-6.475c0-4.133-3.353-7.479-7.485-7.479
				c-4.133,0-7.482,3.346-7.482,7.479c0,2.769,1.511,5.182,3.744,6.475l-6.333,10.97l-10.072,17.445h-20.143h-12.661
				c-0.016-4.12-3.356-7.457-7.482-7.457c-4.132,0-7.479,3.35-7.482,7.482c0,4.133,3.35,7.479,7.482,7.479
				c1.367,0,2.647-0.371,3.751-1.01l5.997,10.386H12.617l2.57-2.573H0v15.186l2.57-2.57v15.982L0,82.703v15.189l15.187-0.004
				l-2.625-2.624l108.198-0.003l-5.933,10.283c-1.12-0.668-2.419-1.056-3.815-1.056c-4.132,0-7.482,3.347-7.482,7.479
				c0,4.135,3.353,7.484,7.482,7.484c4.075,0,7.383-3.256,7.473-7.312h12.67l20.143,0.003l10.072,17.445l6.333,10.97
				c-2.233,1.293-3.744,3.706-3.744,6.472c0,4.133,3.35,7.482,7.482,7.482c4.132,0,7.485-3.35,7.485-7.482
				c0-2.766-1.511-5.179-3.748-6.472l6.333-10.97l10.072-17.448l20.143,0.003l12.665-0.003c0.012,4.12,3.355,7.46,7.479,7.46
				c4.133,0,7.479-3.35,7.479-7.482s-3.346-7.482-7.479-7.482c-1.367,0-2.646,0.375-3.748,1.014l-5.996-10.389h107.784l-2.628,2.631
				l15.189-0.004V82.703l-2.57,2.57L339.9,69.291l2.573,2.57V56.675z M336.042,69.291v15.982v6.135h-6.131H222.127h-6.681
				l3.34,5.785l5.997,10.386l0.408,0.706h-0.799h-12.665h-20.143h-2.224l-1.113,1.928l-10.072,17.448l-6.337,10.967l-0.397,0.69
				l-0.398-0.69l-6.337-10.967l-10.068-17.448l-1.113-1.928h-2.227h-20.143h-12.67h-0.786l0.469-0.815l5.932-10.276l3.337-5.785
				h-6.677H12.562H6.427l0.003-6.135V69.291l-0.003-6.186h6.19H120.76h6.68l-3.34-5.788l-5.993-10.383l-0.411-0.709h0.799h12.661
				h20.143h2.227l1.113-1.929l10.068-17.444l6.337-10.97l0.401-0.689l0.395,0.689l6.337,10.97l10.072,17.444l1.113,1.929h2.224
				h20.143h12.671h0.793l-0.475,0.818l-5.931,10.273l-3.34,5.788h6.681h107.729h6.186V69.291z M238.141,74.554
				c0,3.797-3.058,6.856-7.001,6.856h-3.003v6.288h-4.572V67.693l7.575,0.002C235.083,67.693,238.141,70.751,238.141,74.554z
				 M233.569,74.554c0-1.459-1.029-2.574-2.429-2.575h-3.003v5.146h3.003C232.54,77.125,233.569,76.011,233.569,74.554z
				 M241.426,77.697c0-5.888,4.659-10.405,10.406-10.405c5.742,0,10.401,4.517,10.401,10.405c0,5.888-4.659,10.404-10.401,10.404
				C246.085,88.101,241.426,83.584,241.426,77.697z M257.662,77.697c0-3.572-2.573-5.945-5.833-5.947
				c-3.257,0.002-5.83,2.375-5.83,5.947c0,3.57,2.573,5.945,5.83,5.943C255.088,83.642,257.659,81.267,257.662,77.697z
				 M278.524,83.3l-0.004,4.398l-11.717,0.002V67.695h4.572V83.3H278.524z M287.09,67.695v20.006h-4.572V67.693L287.09,67.695z
				 M291.663,77.695c0-5.887,4.377-10.403,10.405-10.403c3.632,0,6.831,1.802,8.576,4.632l-3.942,2.287
				c-0.89-1.545-2.605-2.459-4.634-2.461c-3.546,0-5.83,2.375-5.83,5.947c-0.003,3.57,2.288,5.945,5.83,5.945
				c2.03,0,3.773-0.914,4.634-2.459l3.942,2.285c-1.716,2.834-4.915,4.633-8.576,4.633C296.04,88.101,291.663,83.583,291.663,77.695
				z M327.358,83.298v4.402h-12.574V67.695h12.436v4.401l-7.864-0.001v3.315l7.149-0.001v4.344l-7.149-0.002V83.3L327.358,83.298z
				 M15.819,77.388c0-5.889,4.373-10.403,10.402-10.404c3.632,0.001,6.834,1.801,8.573,4.631l-3.94,2.285
				c-0.889-1.542-2.602-2.455-4.63-2.457c-3.545,0-5.833,2.373-5.833,5.945c0,3.573,2.288,5.945,5.833,5.945
				c2.028,0.002,3.773-0.914,4.63-2.457l3.943,2.284c-1.717,2.831-4.916,4.632-8.577,4.63
				C20.192,87.792,15.819,83.277,15.819,77.388z M43.685,80.819H41.51v6.572h-4.572V67.382h8.002c3.802,0.002,6.86,3.061,6.86,6.86
				c0,2.46-1.485,4.689-3.687,5.806l4.258,7.343l-4.916,0.002L43.685,80.819z M41.51,76.814h3.43
				c1.258,0.002,2.288-1.109,2.288-2.57c0-1.455-1.03-2.57-2.288-2.569h-3.43V76.814z M63.517,79.704v7.689l-4.576-0.002
				l0.003-7.687l-6.719-12.32l5.201-0.002l3.802,7.722l3.802-7.722h5.201L63.517,79.704z M86.522,74.243
				c0,3.802-3.061,6.86-7.004,6.86h-3.003l0.003,6.288l-4.572,0.002V67.384l7.572-0.002C83.461,67.382,86.522,70.443,86.522,74.243z
				 M81.95,74.244c0-1.455-1.03-2.57-2.432-2.569h-3v5.14h3C80.917,76.814,81.947,75.703,81.95,74.244z M101.952,71.787h-5.143
				v15.606h-4.575V71.787l-5.144-0.002v-4.4l14.862-0.002V71.787z M101.949,77.388c0-5.889,4.662-10.404,10.405-10.404
				s10.405,4.516,10.405,10.406c0,5.888-4.662,10.4-10.405,10.4C106.611,87.792,101.949,83.277,101.949,77.388z M118.187,77.39
				c0-3.576-2.573-5.947-5.833-5.945c-3.257,0-5.83,2.371-5.83,5.943c0,3.574,2.573,5.947,5.83,5.947
				C115.61,83.335,118.187,80.961,118.187,77.39z M127.601,90.259l4.874-12.869l-4.874-12.873l7.431,12.873L127.601,90.259z
				 M215.062,64.389l-4.877,12.871l4.877,12.872l-7.431-12.872L215.062,64.389z M170.842,30.376l0.635-1.098l0.632,1.098
				l10.075,17.445l2.641,4.573c-3.985-2.106-8.525-3.305-13.347-3.305s-9.363,1.198-13.348,3.305l2.641-4.573L170.842,30.376z
				 M129.924,53.271l0.635,1.096l10.068,17.445l2.313,4.002c0.619-9.555,5.923-17.828,13.646-22.543h-5.252h-20.144H129.924z
				 M151.334,101.251h3.914c-7.2-4.971-12.003-13.148-12.35-22.473l-2.271,3.931l-10.068,17.442l-0.635,1.1h1.267H151.334z
				 M182.184,106.699l1.925-3.334c-3.812,1.879-8.098,2.938-12.632,2.938s-8.82-1.06-12.632-2.938l1.925,3.334l10.072,17.445
				l0.635,1.098l0.632-1.098L182.184,106.699z M213.031,101.251l-0.635-1.1l-10.068-17.442l-2.271-3.933
				c-0.347,9.322-5.153,17.504-12.35,22.475h3.915h20.143H213.031z M213.031,53.271h-1.268h-20.143h-5.252
				c7.72,4.715,13.027,12.991,13.646,22.545l2.313-4.004l10.068-17.445L213.031,53.271z M176.624,73.792H166.19V69.49h10.434
				c1.283,0,2.118,0.901,2.118,2.149C178.742,72.89,177.872,73.792,176.624,73.792z M179.608,81.046
				c0,1.354-0.902,2.326-2.288,2.326h-11.13V78.72h11.13C178.706,78.72,179.608,79.693,179.608,81.046z M171.478,54.234
				c-12.94,0-23.464,10.527-23.464,23.463c0,12.938,10.524,23.464,23.464,23.464c12.937,0,23.46-10.525,23.46-23.464
				C194.938,64.761,184.414,54.234,171.478,54.234z M177.32,88.577h-0.844v4.511h-4.098v-4.511h-2.073v4.511h-4.097v-4.511h-5.573
				V64.282h5.573v-4.508h4.097v4.508h2.073v-4.508h4.098v4.508h0.147c4.235,0,7.671,2.743,7.671,6.943
				c0,2.012-0.799,3.609-2.118,4.755c1.803,1.146,2.984,3.02,2.984,5.483C185.162,85.769,181.658,88.577,177.32,88.577z"/>
		</defs>
		<clipPath id="SVGID_9_">
			<use xlink:href="#SVGID_8_"  overflow="visible"/>
		</clipPath>
		<radialGradient id="SVGID_10_" cx="171.2363" cy="32.8179" r="121.6951" gradientUnits="userSpaceOnUse">
			<stop  offset="0" style="stop-color:#B88C94"/>
			<stop  offset="0.0213" style="stop-color:#B88C94;stop-opacity:0.9787"/>
			<stop  offset="1" style="stop-color:#B88C94;stop-opacity:0"/>
		</radialGradient>
		<circle clip-path="url(#SVGID_9_)" fill="url(#SVGID_10_)" cx="171.236" cy="32.818" r="121.695"/>
	</g>
	
		<linearGradient id="SVGID_11_" gradientUnits="userSpaceOnUse" x1="1083.7017" y1="-952.7578" x2="1155.5825" y2="-952.7578" gradientTransform="matrix(-4.371139e-008 1 -1 -4.371139e-008 -781.2808 -1054.4224)">
		<stop  offset="0" style="stop-color:#020202"/>
		<stop  offset="1" style="stop-color:#000000;stop-opacity:0"/>
	</linearGradient>
	<path opacity="0.5" fill="url(#SVGID_11_)" d="M170.842,30.376l0.636-1.098l0.632,1.098l10.074,17.445l2.641,4.572
		c-3.984-2.105-8.524-3.305-13.347-3.305s-9.362,1.199-13.348,3.305l2.641-4.572L170.842,30.376z M129.924,53.271l0.635,1.096
		l10.068,17.445l2.314,4.002c0.619-9.555,5.922-17.828,13.646-22.543h-5.253h-20.143H129.924z M213.031,53.271h-1.268h-20.142
		h-5.253c7.72,4.715,13.028,12.99,13.647,22.545l2.313-4.004l10.068-17.445L213.031,53.271z M178.742,71.638
		c0-1.248-0.835-2.148-2.118-2.148h-10.435v4.303h10.435C177.872,73.792,178.742,72.89,178.742,71.638z M177.32,78.72h-11.131v4.652
		h11.131c1.386,0,2.287-0.973,2.287-2.326S178.706,78.72,177.32,78.72z M171.478,54.234c-12.94,0-23.464,10.527-23.464,23.463
		c0,12.938,10.523,23.463,23.464,23.463c12.937,0,23.461-10.525,23.461-23.463C194.938,64.761,184.414,54.234,171.478,54.234z
		 M177.32,88.576h-0.844v4.512h-4.098v-4.512h-2.072v4.512h-4.098v-4.512h-5.573V64.281h5.573v-4.508h4.098v4.508h2.072v-4.508
		h4.098v4.508h0.147c4.235,0,7.671,2.744,7.671,6.943c0,2.012-0.799,3.609-2.117,4.756c1.803,1.145,2.984,3.02,2.984,5.482
		C185.162,85.769,181.658,88.576,177.32,88.576z"/>
	
		<linearGradient id="SVGID_12_" gradientUnits="userSpaceOnUse" x1="-469.6714" y1="-665.0449" x2="-315.1592" y2="-665.0449" gradientTransform="matrix(-4.371139e-008 -1 1 -4.371139e-008 836.2813 -315.1548)">
		<stop  offset="0" style="stop-color:#020202"/>
		<stop  offset="0.0074" style="stop-color:#060606"/>
		<stop  offset="0.1261" style="stop-color:#3F3F3F"/>
		<stop  offset="0.2479" style="stop-color:#737373"/>
		<stop  offset="0.3702" style="stop-color:#9E9E9E"/>
		<stop  offset="0.4931" style="stop-color:#C1C1C1"/>
		<stop  offset="0.6167" style="stop-color:#DCDCDC"/>
		<stop  offset="0.7416" style="stop-color:#F0F0F0"/>
		<stop  offset="0.8683" style="stop-color:#FBFBFB"/>
		<stop  offset="1" style="stop-color:#FFFFFF"/>
	</linearGradient>
	<path opacity="0.5" fill="url(#SVGID_12_)" d="M171.442,1.004c3.576,0,6.486,2.906,6.486,6.479c0,2.302-1.246,4.45-3.25,5.609
		l-0.865,0.5l0.5,0.865l6.338,10.971l10.068,17.444l0.289,0.5h0.576h20.145h12.674h0.979l0.021-0.979
		c0.076-3.489,2.979-6.327,6.469-6.327c3.572,0,6.479,2.906,6.479,6.479c0,3.573-2.906,6.483-6.477,6.486
		c-1.16-0.003-2.303-0.32-3.301-0.918l-0.871-0.521l-0.508,0.879l-5.934,10.28l-0.865,1.5h1.732h107.729h2.414l-1.707-1.707
		l-0.865-0.866h11.775v11.774l-0.867-0.866l-1.707-1.705v2.413l0.004,15.981v2.414l1.707-1.707l0.863-0.863v11.772l-11.777,0.003
		l0.924-0.924l1.703-1.707h-2.412H222.127h-1.732l0.865,1.5l5.996,10.39l0.502,0.867l0.867-0.502c0.992-0.575,2.113-0.88,3.246-0.88
		c3.572,0,6.479,2.908,6.479,6.482s-2.906,6.482-6.479,6.482c-3.563,0-6.469-2.899-6.479-6.463l-0.004-0.997h-0.996l-12.664,0.004
		l-20.145-0.004h-0.576l-0.289,0.5l-10.072,17.448l-6.334,10.97l-0.5,0.866l0.865,0.5c2.004,1.158,3.25,3.307,3.25,5.605
		c0,3.574-2.91,6.482-6.486,6.482c-3.574,0-6.482-2.908-6.482-6.482c0-2.299,1.242-4.446,3.244-5.606l0.865-0.5l-0.5-0.865
		l-6.332-10.97l-10.072-17.444l-0.289-0.5h-0.576l-20.145-0.004h-12.67h-0.979l-0.021,0.979c-0.078,3.492-2.98,6.334-6.473,6.334
		c-3.575,0-6.482-2.909-6.482-6.485c0-3.573,2.907-6.479,6.482-6.479c1.156,0,2.299,0.316,3.303,0.915l0.871,0.52l0.508-0.879
		l5.932-10.283l0.865-1.5h-1.73L12.562,94.268h-2.414l1.707,1.707l0.918,0.918L1,96.896V85.122l0.862,0.862l1.707,1.708v-2.415
		V69.295V66.88l-1.707,1.708L1,69.451V57.679h11.774l-0.865,0.867l-1.705,1.706h2.412H120.76h1.732l-0.867-1.5l-5.996-10.386
		l-0.5-0.867L114.262,48c-0.99,0.573-2.115,0.877-3.25,0.877c-3.575,0-6.482-2.906-6.482-6.479c0.003-3.575,2.91-6.483,6.482-6.483
		c3.561,0,6.469,2.898,6.482,6.461l0.004,0.996h0.996h12.66h20.145h0.576l0.289-0.5l10.072-17.444l6.332-10.971l0.5-0.864
		l-0.865-0.501c-2.002-1.159-3.244-3.309-3.244-5.609C164.959,3.911,167.868,1.004,171.442,1.004 M152.948,45.229h-1.648h-20.145
		h-12.66h-0.799h-1.736l0.871,1.502l0.41,0.707l5.992,10.383l2.475,4.288h-4.947H12.616H6.427H5.426l0.001,1.001l0.003,6.186v15.981
		l-0.003,6.135l-0.001,1h1.001h6.135H120.76h4.945l-2.473,4.285l-5.932,10.278l-0.469,0.815l-0.861,1.498h1.729h0.785h12.67h20.145
		h1.648l0.824,1.429l10.068,17.448l6.338,10.965l0.396,0.69l0.865,1.502l0.867-1.501l0.398-0.689l6.336-10.968l10.072-17.447
		l0.824-1.429h1.646h20.145h12.664h0.799h1.732l-0.867-1.5l-0.408-0.706l-5.996-10.386l-2.473-4.285h4.947h107.783h6.131h1v-1
		v-6.135V69.295v-6.187v-1h-1h-6.186H222.127h-4.949l2.475-4.288l5.93-10.271l0.475-0.818l0.871-1.502h-1.736h-0.793h-12.67h-20.145
		h-1.646l-0.824-1.428l-10.072-17.445l-6.334-10.967l-0.395-0.689l-0.859-1.504l-0.873,1.498l-0.402,0.692l-6.338,10.97
		l-10.068,17.445L152.948,45.229 M171.442,0.004c-4.133,0-7.482,3.346-7.482,7.479c0,2.77,1.512,5.182,3.744,6.475l-6.334,10.971
		l-10.07,17.444h-20.145h-12.66c-0.016-4.12-3.355-7.457-7.482-7.457c-4.132,0-7.479,3.351-7.482,7.482
		c0,4.133,3.35,7.479,7.482,7.479c1.367,0,2.646-0.372,3.752-1.011l5.996,10.386H12.616l2.57-2.573H0v15.187l2.569-2.57v15.981
		L0,82.707v15.189l15.187-0.003l-2.625-2.625l108.199-0.003l-5.934,10.283c-1.119-0.667-2.418-1.056-3.814-1.056
		c-4.132,0-7.482,3.347-7.482,7.479c0,4.136,3.353,7.485,7.482,7.485c4.074,0,7.383-3.257,7.473-7.313h12.67l20.145,0.004
		l10.07,17.444l6.334,10.97c-2.232,1.293-3.744,3.706-3.744,6.472c0,4.133,3.35,7.482,7.482,7.482s7.486-3.35,7.486-7.482
		c0-2.766-1.512-5.179-3.748-6.472l6.334-10.97l10.07-17.448l20.145,0.004l12.664-0.004c0.012,4.12,3.355,7.46,7.479,7.46
		c4.133,0,7.479-3.35,7.479-7.482s-3.346-7.482-7.479-7.482c-1.367,0-2.646,0.376-3.748,1.015l-5.996-10.39h107.783l-2.627,2.631
		l15.189-0.003V82.707l-2.57,2.57l-0.004-15.981l2.574,2.57V56.679h-15.189l2.572,2.573H222.127l5.932-10.28
		c1.117,0.668,2.42,1.056,3.813,1.06c4.133-0.004,7.479-3.354,7.479-7.486c0-4.132-3.346-7.479-7.479-7.479
		c-4.072,0-7.379,3.253-7.469,7.306h-12.674h-20.145l-10.068-17.444l-6.336-10.971c2.236-1.293,3.748-3.705,3.748-6.475
		C178.928,3.35,175.575,0.004,171.442,0.004L171.442,0.004z M6.427,91.412l0.003-6.135V69.295l-0.003-6.187h6.189H120.76h6.68
		l-3.34-5.788l-5.994-10.383l-0.41-0.709h0.799h12.66h20.145h2.227l1.113-1.928l10.068-17.445l6.336-10.97l0.402-0.689l0.395,0.689
		l6.336,10.97l10.072,17.445l1.113,1.928h2.223h20.145h12.67h0.793l-0.475,0.818l-5.93,10.273l-3.34,5.788h6.68h107.729h6.186v6.187
		v15.981v6.135h-6.131H222.127h-6.68l3.34,5.785l5.996,10.386l0.408,0.706h-0.799h-12.664h-20.145h-2.223l-1.113,1.929
		l-10.072,17.447l-6.336,10.967l-0.398,0.69l-0.398-0.69l-6.336-10.967l-10.068-17.447l-1.113-1.929h-2.227h-20.145h-12.67H117.7
		l0.469-0.815l5.932-10.276l3.336-5.785h-6.676H12.562H6.427L6.427,91.412z M112.354,67.988c5.273,0,9.404,4.132,9.404,9.406
		c0,5.271-4.131,9.4-9.408,9.4c-5.272,0-9.402-4.13-9.402-9.401C102.948,72.119,107.08,67.988,112.354,67.988 M112.354,84.34
		c3.959,0,6.832-2.921,6.832-6.946c0-4.024-2.871-6.945-6.832-6.945c-3.959,0-6.831,2.921-6.831,6.944
		C105.523,81.418,108.395,84.34,112.354,84.34 M26.221,67.988L26.221,67.988c2.87,0.001,5.465,1.223,7.13,3.313l-2.21,1.281
		c-1.146-1.35-2.918-2.133-4.917-2.134c-4.087,0-6.833,2.791-6.833,6.945s2.746,6.945,6.84,6.945c2.02,0,3.791-0.781,4.92-2.131
		l2.208,1.279c-1.648,2.088-4.245,3.308-7.142,3.308c-5.445,0-9.398-3.954-9.398-9.401C16.818,71.945,20.772,67.989,26.221,67.988
		 M302.067,68.295c2.867,0,5.463,1.222,7.133,3.313l-2.211,1.283c-1.148-1.353-2.92-2.137-4.922-2.139
		c-4.084,0-6.83,2.792-6.83,6.946c-0.002,2.023,0.645,3.757,1.871,5.012c1.234,1.266,2.951,1.935,4.959,1.935
		c2.023,0,3.799-0.781,4.93-2.132l2.209,1.281c-1.648,2.089-4.246,3.31-7.139,3.31c-5.449,0-9.404-3.956-9.404-9.405
		S296.618,68.295,302.067,68.295 M251.833,68.295c5.271,0,9.4,4.132,9.4,9.405s-4.129,9.404-9.4,9.404
		c-5.275,0-9.406-4.131-9.406-9.404S246.557,68.295,251.833,68.295 M251.825,84.645h0.006c3.955,0,6.828-2.92,6.83-6.944
		c0-4.022-2.873-6.944-6.834-6.947c-3.957,0.003-6.828,2.925-6.828,6.947C244.999,81.724,247.87,84.645,251.825,84.645
		 M68.548,68.387l-5.909,10.842l-0.122,0.224v0.255v6.689l-2.575-0.001l0.003-6.687v-0.255l-0.122-0.225L53.91,68.388l2.895-0.001
		l3.527,7.163l0.896,1.821l0.897-1.821l3.527-7.163H68.548 M44.938,68.387c3.231,0.001,5.86,2.63,5.86,5.859
		c0,2.019-1.231,3.947-3.139,4.914l-0.943,0.479l0.53,0.915l3.388,5.842l-2.601,0.001l-3.481-6.071l-0.289-0.503h-0.579H41.51h-1v1
		v5.572h-2.572V68.387H44.938 M40.51,77.819h1h3.432c1.843,0,3.285-1.568,3.285-3.57s-1.442-3.57-3.287-3.57h-3.43h-1v1v5.141
		V77.819 M79.518,68.387L79.518,68.387c3.367,0,6.004,2.573,6.004,5.859s-2.637,5.86-6.004,5.86h-3.003h-1.001l0.001,1l0.002,5.289
		l-2.571,0.001V68.388L79.518,68.387 M75.518,77.819h1h3c1.952,0,3.428-1.534,3.432-3.57c0-2.035-1.474-3.57-3.432-3.57h-3h-1v1
		v5.141V77.819 M100.951,68.387v2.403h-4.143h-1v1v14.606h-2.575V71.791v-0.999l-1-0.001L88.09,70.79v-2.401L100.951,68.387
		 M224.565,68.697l6.578,0.002c3.363,0,5.998,2.573,5.998,5.859c0,3.284-2.637,5.856-6.002,5.856h-3.002h-1v1v5.289h-2.572V68.697
		 M227.137,78.129h1h3.002c1.955,0,3.43-1.535,3.43-3.571s-1.475-3.573-3.43-3.575h-3.002h-1v1v5.146V78.129 M283.518,68.697
		l2.572,0.001v18.007h-2.572V68.697 M326.219,68.699V71.1l-6.865-0.001h-1v1v3.315v1h1l6.15-0.001v2.344l-6.15-0.001h-1v1v3.548v1h1
		l7.004-0.001v2.401h-10.574l-0.001-18.006H326.219 M270.375,68.699v14.605v1h1h6.146l-0.002,2.399l-9.717,0.001V68.699H270.375
		 M112.354,66.988c-5.744,0-10.406,4.516-10.406,10.405c0,5.887,4.66,10.401,10.402,10.401c0,0,0.002,0,0.004,0
		c5.742,0,10.404-4.513,10.404-10.4C122.758,71.503,118.096,66.988,112.354,66.988L112.354,66.988z M112.354,83.34
		c-3.258,0-5.831-2.373-5.831-5.947c0-3.573,2.573-5.944,5.831-5.944h0.002c3.258,0,5.83,2.371,5.83,5.945
		C118.186,80.965,115.61,83.34,112.354,83.34L112.354,83.34z M26.221,66.988c-6.029,0.001-10.402,4.516-10.402,10.405
		c0,5.887,4.371,10.401,10.398,10.401c0.001,0,0.003,0,0.004,0c0.002,0,0.004,0,0.006,0c3.658,0,6.854-1.8,8.57-4.63l-3.943-2.284
		c-0.855,1.542-2.598,2.458-4.623,2.458c-0.002,0-0.005,0-0.007,0c-3.545,0-5.833-2.373-5.833-5.945
		c0-3.573,2.288-5.945,5.833-5.945c2.028,0.001,3.741,0.914,4.63,2.456l3.94-2.285C33.055,68.79,29.853,66.989,26.221,66.988
		L26.221,66.988z M302.067,67.295c-6.027,0-10.404,4.517-10.404,10.404s4.377,10.405,10.404,10.405c3.662,0,6.861-1.799,8.576-4.632
		l-3.941-2.286c-0.861,1.545-2.604,2.459-4.635,2.459c-3.541,0-5.832-2.374-5.83-5.945c0-3.572,2.285-5.947,5.83-5.947
		c2.029,0.002,3.744,0.916,4.635,2.461l3.941-2.287C308.899,69.097,305.7,67.295,302.067,67.295L302.067,67.295z M251.833,67.295
		c-5.748,0-10.406,4.518-10.406,10.405s4.658,10.404,10.406,10.404c5.742,0,10.4-4.517,10.4-10.404
		C262.233,71.812,257.575,67.295,251.833,67.295L251.833,67.295z M251.825,83.645c-3.254,0-5.826-2.375-5.826-5.944
		c0-3.572,2.572-5.945,5.83-5.947c3.26,0.002,5.832,2.375,5.832,5.947c-0.002,3.57-2.57,5.944-5.83,5.944h-0.002
		C251.827,83.645,251.827,83.645,251.825,83.645L251.825,83.645z M101.951,67.387L87.09,67.388v4.401l5.144,0.001v15.606h4.575
		V71.791h5.143V67.387L101.951,67.387z M79.518,67.387l-7.572,0.001v20.009l4.572-0.002l-0.003-6.288h3.003
		c3.943,0,7.004-3.058,7.004-6.86C86.521,70.447,83.461,67.387,79.518,67.387L79.518,67.387z M76.518,76.819v-5.141h3
		c0.001,0,0.002,0,0.003,0c1.4,0,2.429,1.116,2.429,2.57c-0.003,1.458-1.033,2.57-2.432,2.57H76.518L76.518,76.819z M70.232,67.387
		h-5.201l-3.803,7.721l-3.802-7.721l-5.201,0.001l6.719,12.321l-0.003,7.686l4.575,0.002v-7.689L70.232,67.387L70.232,67.387z
		 M44.939,67.387h-8.002v20.008h4.572v-6.572h2.175l3.771,6.574l4.915-0.002l-4.258-7.343c2.201-1.116,3.687-3.346,3.687-5.806
		C51.799,70.447,48.741,67.388,44.939,67.387L44.939,67.387z M41.51,76.819v-5.141h3.43c0.001,0,0.001,0,0.002,0
		c1.257,0,2.285,1.116,2.285,2.57c0,1.459-1.028,2.57-2.285,2.57c-0.001,0-0.001,0-0.002,0H41.51L41.51,76.819z M282.518,67.697
		v20.008h4.572V67.699L282.518,67.697L282.518,67.697z M223.565,67.697v20.007h4.572v-6.289h3.002c3.943,0,7.002-3.06,7.002-6.856
		c0-3.801-3.057-6.859-6.998-6.859c0,0-0.002,0-0.004,0L223.565,67.697L223.565,67.697z M228.137,77.129v-5.146h3.002
		c1.4,0.002,2.43,1.117,2.43,2.575c0,1.457-1.029,2.571-2.43,2.571H228.137L228.137,77.129z M327.219,67.699h-12.437l0.001,20.006
		h12.574v-4.401l-8.004,0.001v-3.548l7.15,0.001v-4.344l-7.15,0.001v-3.315l7.865,0.001V67.699L327.219,67.699z M271.375,67.699
		h-4.572v20.006l11.717-0.001l0.004-4.399h-7.148V67.699L271.375,67.699z M132.909,75.719l0.969,1.675l-0.967,1.674l0.5-1.319
		l0.133-0.354l-0.133-0.354L132.909,75.719 M127.6,64.522l4.875,12.872l-4.875,12.87l7.432-12.87L127.6,64.522L127.6,64.522z
		 M209.745,75.603l-0.496,1.307l-0.133,0.354l0.133,0.354l0.496,1.308l-0.959-1.662L209.745,75.603 M215.061,64.393l-7.43,12.871
		l7.43,12.873l-4.877-12.873L215.061,64.393L215.061,64.393z M171.475,31.283l9.842,17.043l1.07,1.853
		c-3.459-1.369-7.176-2.084-10.91-2.084s-7.451,0.715-10.912,2.084l1.07-1.853L171.475,31.283 M211.295,54.275l-9.834,17.04
		l-0.807,1.396c-1.246-7.303-5.209-13.896-11.076-18.437h2.041H211.295 M153.375,54.275c-5.867,4.54-9.83,11.133-11.076,18.436
		l-0.807-1.395l-9.834-17.041h19.676H153.375 M200.76,82.001l0.701,1.212l9.836,17.042H191.62h-0.975
		C196.1,95.602,199.713,89.075,200.76,82.001 M142.194,82.002c1.045,7.074,4.66,13.601,10.115,18.253h-0.975h-19.678l9.836-17.041
		L142.194,82.002 M161.217,105.479c3.271,1.215,6.711,1.828,10.26,1.828s6.986-0.613,10.258-1.828l-0.418,0.725l-9.842,17.042
		l-9.84-17.042L161.217,105.479 M171.477,29.284l-0.635,1.097L160.77,47.826l-2.641,4.573c3.984-2.106,8.525-3.305,13.348-3.305
		s9.363,1.198,13.348,3.305l-2.641-4.573L172.11,30.38L171.477,29.284L171.477,29.284z M213.032,53.275h-1.268H191.62h-5.252
		c7.721,4.715,13.027,12.991,13.646,22.545l2.313-4.004l10.068-17.445L213.032,53.275L213.032,53.275z M156.586,53.275h-5.252
		H131.19h-1.266l0.635,1.096l10.068,17.445l2.313,4.002C143.559,66.263,148.864,57.99,156.586,53.275L156.586,53.275z
		 M200.055,78.782c-0.346,9.322-5.152,17.504-12.35,22.474h3.914h20.145h1.268l-0.637-1.099l-10.068-17.443L200.055,78.782
		L200.055,78.782z M142.899,78.783l-2.271,3.931l-10.068,17.443l-0.635,1.099h1.266h20.145h3.914
		C148.049,96.286,143.245,88.107,142.899,78.783L142.899,78.783z M184.11,103.369c-3.813,1.88-8.1,2.938-12.633,2.938
		s-8.82-1.059-12.631-2.938l1.924,3.335l10.072,17.444l0.635,1.098l0.633-1.098l10.074-17.444L184.11,103.369L184.11,103.369z
		 M176.624,70.494c0.699,0,1.117,0.43,1.117,1.149c0,0.711-0.428,1.153-1.117,1.153h-9.434v-2.303H176.624 M176.624,69.494H166.19
		v4.303h10.434c1.248,0,2.117-0.902,2.117-2.153C178.741,70.395,177.907,69.494,176.624,69.494L176.624,69.494z M177.321,79.724
		c0.805,0,1.287,0.496,1.287,1.326c0,0.831-0.482,1.326-1.287,1.326H167.19v-2.652H177.321 M177.321,78.724H166.19v4.652h11.131
		c1.385,0,2.287-0.972,2.287-2.326C179.608,79.697,178.706,78.724,177.321,78.724L177.321,78.724z M171.477,55.239
		c12.385,0,22.461,10.076,22.461,22.462c0,12.387-10.076,22.464-22.461,22.464c-12.387,0-22.463-10.077-22.463-22.464
		C149.014,65.315,159.09,55.239,171.477,55.239 M171.379,63.286h-0.074v-3.508v-1h-1h-4.096h-1v1v3.508h-4.574h-1v1v24.295v1h1
		h4.574v3.512v1h1h4.096h1v-1v-3.512h0.074v3.512v1h1h4.098h1v-1V89.58c5.041-0.068,8.684-3.459,8.684-8.112
		c0-2.248-0.869-4.198-2.475-5.602c1.057-1.279,1.609-2.86,1.609-4.637c0-4.338-3.24-7.555-7.818-7.91v-3.541v-1h-1h-4.098h-1v1
		V63.286 M171.477,54.239c-12.939,0-23.463,10.527-23.463,23.462c0,12.938,10.523,23.464,23.463,23.464
		c12.938,0,23.461-10.525,23.461-23.464C194.938,64.766,184.415,54.239,171.477,54.239L171.477,54.239z M170.305,64.286h2.074
		v-4.508h4.098v4.508h0.146c4.236,0,7.672,2.744,7.672,6.943c0,2.012-0.799,3.609-2.117,4.755c1.803,1.146,2.982,3.02,2.982,5.483
		c0,4.307-3.502,7.113-7.84,7.113h-0.844v4.512h-4.098v-4.512h-2.074v4.512h-4.096v-4.512h-5.574V64.286h5.574v-4.508h4.096V64.286
		L170.305,64.286z"/>
</g>
</svg>
