<?xml version="1.0" encoding="utf-8"?>
<!-- Generator: Adobe Illustrator 16.0.0, SVG Export Plug-In . SVG Version: 6.00 Build 0)  -->
<!DOCTYPE svg PUBLIC "-//W3C//DTD SVG 1.1//EN" "http://www.w3.org/Graphics/SVG/1.1/DTD/svg11.dtd">
<svg version="1.1" id="Layer_1" xmlns="http://www.w3.org/2000/svg" xmlns:xlink="http://www.w3.org/1999/xlink" x="0px" y="0px"
	 width="408.141px" height="252.066px" viewBox="10.54 280.893 408.141 252.066"
	 enable-background="new 10.54 280.893 408.141 252.066" xml:space="preserve">
<g>
	
		<linearGradient id="SVGID_1_" gradientUnits="userSpaceOnUse" x1="4340.5596" y1="-2538.3181" x2="4550.001" y2="-2538.3181" gradientTransform="matrix(0 1 1 0 2753.0125 -4059.6667)">
		<stop  offset="0" style="stop-color:#4B48BF"/>
		<stop  offset="1" style="stop-color:#5248BB;stop-opacity:0"/>
	</linearGradient>
	<path fill="url(#SVGID_1_)" d="M10.708,490.334V288.978c0-4.465,3.621-8.085,8.086-8.085h391.803c4.466,0,8.084,3.618,8.084,8.083
		c0,0.001,0,0.002,0,0.002v201.356H10.708L10.708,490.334z"/>
	
		<linearGradient id="SVGID_2_" gradientUnits="userSpaceOnUse" x1="4407.7168" y1="1130.0862" x2="4709.8545" y2="1130.0862" gradientTransform="matrix(-1 0 0 1 4720.3945 -783.9766)">
		<stop  offset="0" style="stop-color:#4B48BF"/>
		<stop  offset="1" style="stop-color:#5248BB;stop-opacity:0"/>
	</linearGradient>
	<path fill="url(#SVGID_2_)" d="M18.625,280.893h294.053L10.54,411.328V288.978C10.54,284.513,14.159,280.893,18.625,280.893z"/>
	<path fill="#FFFFFF" d="M271.794,354.998l2.416-1.401c0.438,1.016,1.19,1.699,2.576,1.699c1.332,0,1.664-0.525,1.664-0.999
		c0-0.753-0.701-1.051-2.541-1.561c-1.82-0.508-3.607-1.384-3.607-3.729c0-2.365,1.996-3.731,4.117-3.731
		c2.015,0,3.59,0.964,4.481,2.77l-2.362,1.384c-0.42-0.876-1-1.419-2.121-1.419c-0.875,0-1.313,0.438-1.313,0.928
		c0,0.563,0.299,0.946,2.207,1.524c1.856,0.561,3.94,1.209,3.94,3.801c0,2.365-1.894,3.766-4.553,3.766
		C274.123,358.027,272.477,356.802,271.794,354.998L271.794,354.998z M282.305,346.677c0-0.858,0.719-1.577,1.577-1.577
		c0.859,0,1.576,0.718,1.576,1.577s-0.717,1.577-1.576,1.577C283.016,348.245,282.314,347.544,282.305,346.677z M282.566,349.023
		h2.627v8.761h-2.627V349.023z M300.259,352.404v5.38h-2.627v-5.15c0-0.876-0.42-1.438-1.26-1.438c-0.877,0-1.367,0.613-1.367,1.646
		v4.938h-2.627v-5.148c0-0.876-0.42-1.438-1.26-1.438c-0.878,0-1.367,0.613-1.367,1.646v4.938h-2.627v-8.759h2.627v0.808
		c0.401-0.598,1.174-1.053,2.349-1.053c1.032,0,1.803,0.42,2.293,1.156c0.491-0.701,1.297-1.156,2.541-1.156
		C298.945,348.778,300.259,350.216,300.259,352.404z M311.49,353.403c0,2.61-1.894,4.625-4.188,4.625
		c-1.174,0-2.032-0.401-2.61-1.066v4.327h-2.627v-12.266h2.627v0.824c0.578-0.666,1.438-1.069,2.61-1.069
		C309.597,348.778,311.49,350.794,311.49,353.403z M308.861,353.403c0-1.313-0.875-2.137-2.084-2.137s-2.084,0.824-2.084,2.137
		c0,1.314,0.875,2.139,2.084,2.139S308.861,354.718,308.861,353.403z M312.978,344.996h2.628v12.788h-2.628V344.996L312.978,344.996
		z M321.982,355.68c0.719,0,1.332-0.28,1.682-0.666l2.102,1.208c-0.856,1.191-2.151,1.804-3.815,1.804
		c-2.996,0-4.854-2.014-4.854-4.625c0-2.608,1.894-4.625,4.66-4.625c2.56,0,4.449,1.979,4.449,4.625c0,0.368-0.035,0.72-0.105,1.053
		h-6.219C320.212,355.366,321.019,355.68,321.982,355.68z M323.593,352.493c-0.278-1.018-1.067-1.386-1.854-1.386
		c-1,0-1.664,0.49-1.91,1.386H323.593z M301.188,363.174v8.759h-2.627v-0.824c-0.474,0.648-1.349,1.068-2.504,1.068
		c-1.771,0-3.277-1.261-3.277-3.626v-5.378h2.629v4.993c0,1.086,0.682,1.594,1.523,1.594c0.963,0,1.629-0.561,1.629-1.805v-4.782
		L301.188,363.174L301.188,363.174z M309.826,369.304c0,2.014-1.754,2.873-3.646,2.873c-1.751,0-3.083-0.666-3.768-2.084
		l2.276-1.296c0.229,0.666,0.72,1.034,1.488,1.034c0.631,0,0.947-0.193,0.947-0.543c0-0.963-4.311-0.456-4.311-3.486
		c0-1.91,1.61-2.873,3.434-2.873c1.42,0,2.68,0.631,3.416,1.875l-2.242,1.208c-0.246-0.455-0.596-0.771-1.174-0.771
		c-0.455,0-0.736,0.175-0.736,0.488C305.516,366.729,309.826,366.063,309.826,369.304L309.826,369.304z M315.501,369.831
		c0.717,0,1.332-0.28,1.682-0.666l2.103,1.208c-0.857,1.189-2.154,1.804-3.818,1.804c-2.996,0-4.854-2.014-4.854-4.625
		c0-2.61,1.893-4.625,4.66-4.625c2.559,0,4.448,1.979,4.448,4.625c0,0.368-0.032,0.718-0.104,1.051h-6.221
		C313.732,369.514,314.539,369.831,315.501,369.831z M317.113,366.642c-0.279-1.016-1.068-1.384-1.857-1.384
		c-0.998,0-1.664,0.49-1.908,1.384H317.113z M326.466,362.999v2.978c-1.086-0.175-2.627,0.264-2.627,1.997v3.959h-2.627v-8.759
		h2.627v1.559C324.191,363.559,325.363,362.999,326.466,362.999z M141.677,378.927l6.58-14.804h0.658l-6.58,14.804H141.677z
		 M159.527,373.17c0,2.435-1.908,4.293-4.26,4.293c-1.597,0-2.862-0.823-3.537-2.089v5.196h-0.822v-11.514h0.822v1.908
		c0.674-1.269,1.94-2.089,3.537-2.089C157.619,368.877,159.527,370.734,159.527,373.17z M158.705,373.17
		c0-1.958-1.53-3.503-3.486-3.503c-1.957,0-3.488,1.546-3.488,3.503s1.531,3.504,3.488,3.504
		C157.174,376.674,158.705,375.127,158.705,373.17z M169.284,373.203c0,0.131-0.017,0.263-0.017,0.395h-7.451
		c0.197,1.859,1.611,3.076,3.486,3.076c1.35,0,2.369-0.625,2.846-1.497l0.725,0.428c-0.674,1.119-1.958,1.859-3.586,1.859
		c-2.533,0-4.326-1.812-4.326-4.293c0-2.418,1.743-4.293,4.26-4.293C167.72,368.877,169.284,370.948,169.284,373.203
		L169.284,373.203z M161.816,372.792h6.613c-0.182-2.007-1.597-3.125-3.209-3.125C163.345,369.667,161.98,370.966,161.816,372.792
		L161.816,372.792z M174.78,368.941v0.79c-1.415,0-2.747,0.872-2.747,2.979v4.572h-0.822v-8.226h0.822v1.612
		C172.591,369.37,173.661,368.941,174.78,368.941z M192.611,372.067v5.214h-0.821v-5.214c0-1.563-0.905-2.399-2.188-2.399
		c-1.381,0-2.467,0.921-2.467,3.024v4.589h-0.822v-5.214c0-1.563-0.838-2.399-2.104-2.399c-1.349,0-2.55,0.921-2.55,3.024v4.589
		h-0.822v-8.225h0.822v1.415c0.609-1.135,1.596-1.595,2.648-1.595c1.2,0,2.137,0.592,2.565,1.678
		c0.592-1.151,1.646-1.678,2.747-1.678C191.361,368.877,192.611,370.011,192.611,372.067L192.611,372.067z M194.375,373.17
		c0-2.437,1.924-4.293,4.326-4.293c2.385,0,4.31,1.856,4.31,4.293c0,2.435-1.925,4.293-4.31,4.293
		C196.299,377.463,194.375,375.603,194.375,373.17z M202.171,373.17c0-1.958-1.513-3.503-3.471-3.503
		c-1.957,0-3.487,1.546-3.487,3.503s1.53,3.504,3.487,3.504C200.659,376.674,202.171,375.127,202.171,373.17z M211.945,372.167
		v5.115h-0.838v-5.115c0-1.515-0.873-2.5-2.418-2.5c-1.612,0-2.879,1.053-2.879,3.271v4.345h-0.822v-8.227h0.822v1.563
		c0.625-1.219,1.678-1.744,2.942-1.744C210.711,368.877,211.945,370.176,211.945,372.167z M216.027,369.863v5.348
		c0,1.447,0.772,1.479,2.451,1.333v0.739c-2.154,0.328-3.291-0.196-3.291-2.072v-5.347h-1.81v-0.807h1.81v-2.056l0.84-0.247v2.303
		h2.451v0.807L216.027,369.863L216.027,369.863z M227.412,372.167v5.115h-0.84v-5.115c0-1.515-0.871-2.5-2.418-2.5
		c-1.611,0-2.879,1.053-2.879,3.271v4.345h-0.822v-11.517h0.822v4.854c0.625-1.219,1.678-1.744,2.942-1.744
		C226.177,368.877,227.412,370.176,227.412,372.167z M232.957,367.938l-1.563-0.033l0.871,1.301l-0.642,0.378l-0.808-1.382
		l-0.791,1.382l-0.655-0.378l0.871-1.301l-1.563,0.033v-0.708l1.563,0.033l-0.871-1.299l0.655-0.378l0.791,1.365l0.808-1.365
		l0.642,0.378l-0.871,1.299l1.563-0.033V367.938L232.957,367.938z"/>
	
		<linearGradient id="SVGID_3_" gradientUnits="userSpaceOnUse" x1="4039.4229" y1="299.1633" x2="4045.5986" y2="299.1633" gradientTransform="matrix(0 1 -1 0 450.8176 -3694.6238)">
		<stop  offset="0" style="stop-color:#FFFFFF"/>
		<stop  offset="0.545" style="stop-color:#EEEEEE"/>
		<stop  offset="1" style="stop-color:#E6E6E6"/>
	</linearGradient>
	<path fill="url(#SVGID_3_)" d="M159.375,346.521c-1.1,4.246-4.156,5.229-7.395,3.86c-3-1.247-3.711-1.515-4.483,0.594l-3.563-1.722
		c1.099-4.246,4.157-5.229,7.395-3.861c2.999,1.248,3.682,1.485,4.482-0.593L159.375,346.521L159.375,346.521z"/>
	
		<linearGradient id="SVGID_4_" gradientUnits="userSpaceOnUse" x1="4032.0596" y1="283.0461" x2="4052.8457" y2="283.0461" gradientTransform="matrix(0 1 -1 0 450.8176 -3694.6238)">
		<stop  offset="0" style="stop-color:#FFFFFF"/>
		<stop  offset="0.545" style="stop-color:#EEEEEE"/>
		<stop  offset="1" style="stop-color:#E6E6E6"/>
	</linearGradient>
	<path fill="url(#SVGID_4_)" d="M172.566,337.436v20.786h-4.75v-15.768l-3.683,1.01l-1.157-4.069l5.434-1.959H172.566z"/>
	
		<linearGradient id="SVGID_5_" gradientUnits="userSpaceOnUse" x1="4031.6436" y1="266.1086" x2="4053.2617" y2="266.1086" gradientTransform="matrix(0 1 -1 0 450.8176 -3694.6238)">
		<stop  offset="0" style="stop-color:#FFFFFF"/>
		<stop  offset="0.545" style="stop-color:#EEEEEE"/>
		<stop  offset="1" style="stop-color:#E6E6E6"/>
	</linearGradient>
	<path fill="url(#SVGID_5_)" d="M176.247,347.83c0-6.414,3.088-10.811,8.462-10.811c5.375,0,8.463,4.396,8.463,10.811
		s-3.087,10.808-8.463,10.808C179.333,358.637,176.247,354.244,176.247,347.83z M188.42,347.83c0-4.011-1.218-6.178-3.712-6.178
		s-3.711,2.167-3.711,6.178c0,4.008,1.217,6.176,3.711,6.176C187.204,354.006,188.42,351.838,188.42,347.83z"/>
	
		<linearGradient id="SVGID_6_" gradientUnits="userSpaceOnUse" x1="4031.6436" y1="247.4026" x2="4053.2617" y2="247.4026" gradientTransform="matrix(0 1 -1 0 450.8176 -3694.6238)">
		<stop  offset="0" style="stop-color:#FFFFFF"/>
		<stop  offset="0.545" style="stop-color:#EEEEEE"/>
		<stop  offset="1" style="stop-color:#E6E6E6"/>
	</linearGradient>
	<path fill="url(#SVGID_6_)" d="M194.952,347.83c0-6.414,3.088-10.811,8.462-10.811c5.375,0,8.464,4.396,8.464,10.811
		s-3.088,10.808-8.464,10.808C198.04,358.637,194.952,354.244,194.952,347.83z M207.126,347.83c0-4.011-1.218-6.178-3.713-6.178
		c-2.493,0-3.71,2.167-3.71,6.178c0,4.008,1.217,6.176,3.71,6.176C205.909,354.006,207.126,351.838,207.126,347.83z"/>
	
		<linearGradient id="SVGID_7_" gradientUnits="userSpaceOnUse" x1="4029.0898" y1="225.6672" x2="4055.8135" y2="225.6672" gradientTransform="matrix(0 1 -1 0 450.8176 -3694.6238)">
		<stop  offset="0" style="stop-color:#FFFFFF"/>
		<stop  offset="0.545" style="stop-color:#EEEEEE"/>
		<stop  offset="1" style="stop-color:#E6E6E6"/>
	</linearGradient>
	<path fill="url(#SVGID_7_)" d="M226.605,358.578v2.611h-2.078v-2.584c-3.355-0.235-5.851-1.959-6.92-4.81l4.098-2.375
		c0.625,1.425,1.484,2.256,2.822,2.494v-4.1c-0.117-0.059-0.269-0.088-0.387-0.146c-2.582-1.04-5.67-2.495-5.67-6.476
		c0-3.858,2.907-5.85,6.057-6.146v-2.583h2.078v2.643c2.555,0.326,4.692,1.692,5.852,4.307l-4.01,2.346
		c-0.385-1.039-0.98-1.633-1.842-1.93v4.009c2.584,1.099,6.088,2.079,6.088,6.414C232.693,355.966,230.139,358.163,226.605,358.578z
		 M224.527,344.859v-3.116c-0.861,0.208-1.307,0.771-1.307,1.482C223.221,343.791,223.488,344.265,224.527,344.859z
		 M227.941,352.312c0-0.743-0.443-1.188-1.336-1.633v3.177C227.615,353.59,227.941,352.935,227.941,352.312z"/>
	<path opacity="0.5" enable-background="new    " d="M348.496,430.682c0-5.329,2.871-9.987,7.146-12.517h-13.516
		c-0.762,3.17-3.236,5.646-6.406,6.406v12.222c3.17,0.761,5.646,3.236,6.406,6.406h13.516
		C351.367,440.67,348.496,436.011,348.496,430.682z M377.563,430.682c0,5.329-2.869,9.988-7.146,12.519h13.516
		c0.761-3.171,3.236-5.646,6.406-6.406v-12.222c-3.17-0.762-5.645-3.236-6.406-6.406h-13.516
		C374.693,420.694,377.563,425.353,377.563,430.682z"/>
	
		<linearGradient id="SVGID_8_" gradientUnits="userSpaceOnUse" x1="1424.6074" y1="-2843.3489" x2="1449.6455" y2="-2843.3489" gradientTransform="matrix(0 -1 1 0 3206.3777 1867.8098)">
		<stop  offset="0" style="stop-color:#4B48BF"/>
		<stop  offset="1" style="stop-color:#A14B8A"/>
	</linearGradient>
	<circle fill="url(#SVGID_8_)" cx="363.029" cy="430.683" r="12.519"/>
	
		<linearGradient id="SVGID_9_" gradientUnits="userSpaceOnUse" x1="1339.0068" y1="-2542.3689" x2="1368.0713" y2="-2542.3689" gradientTransform="matrix(0 -1 1 0 2907.2097 1782.2942)">
		<stop  offset="0" style="stop-color:#4B48BF"/>
		<stop  offset="1" style="stop-color:#A14B8A"/>
	</linearGradient>
	<path fill="url(#SVGID_9_)" d="M335.517,414.223h58.648v29.064h-58.648V414.223z"/>
	<path opacity="0.2" enable-background="new    " d="M350.308,428.756c0-5.329,2.871-9.987,7.148-12.518H343.94
		c-0.763,3.171-3.238,5.646-6.408,6.406v12.224c3.17,0.761,5.646,3.234,6.408,6.405h13.516
		C353.179,438.744,350.308,434.085,350.308,428.756L350.308,428.756z M379.375,428.756c0,5.33-2.869,9.988-7.146,12.519h13.517
		c0.762-3.171,3.236-5.646,6.408-6.405v-12.223c-3.172-0.762-5.646-3.236-6.408-6.407h-13.517
		C376.505,418.768,379.375,423.427,379.375,428.756z"/>
	<path opacity="0.1" fill="#FFFFFF" enable-background="new    " d="M335.517,443.445v-29.222h58.813L335.517,443.445z"/>
	
		<linearGradient id="SVGID_10_" gradientUnits="userSpaceOnUse" x1="1426.5342" y1="-2841.5364" x2="1451.5723" y2="-2841.5364" gradientTransform="matrix(0 -1 1 0 3206.3777 1867.8098)">
		<stop  offset="0" style="stop-color:#4B48BF"/>
		<stop  offset="1" style="stop-color:#A14B8A"/>
	</linearGradient>
	<circle fill="url(#SVGID_10_)" cx="364.841" cy="428.757" r="12.519"/>
	<path fill="#FFFFFF" d="M369.636,431.431c0,2.904-2.264,4.413-4.809,4.413c-2.094,0-3.904-0.886-4.715-2.828l2.602-1.51
		c0.303,0.868,0.869,1.396,2.113,1.396s1.791-0.659,1.791-1.473c0-0.811-0.547-1.471-1.697-1.471h-4.129l0.547-7.582h7.639v2.829
		h-4.811l-0.131,1.811h1.074C367.563,427.018,369.636,428.528,369.636,431.431L369.636,431.431z"/>
	<path opacity="0.7" fill="#FFFFFF" enable-background="new    " d="M344.574,434.375v1.272h-0.664v-1.261
		c-1.558-0.069-2.717-0.792-3.154-2.008l0.65-0.368c0.326,0.991,1.188,1.584,2.504,1.656v-4.202
		c-1.443-0.51-2.689-1.032-2.689-2.716c0-1.472,1.189-2.462,2.689-2.562v-1.271h0.664v1.271c1.119,0.128,2.065,0.723,2.504,1.782
		l-0.637,0.354c-0.324-0.808-0.961-1.287-1.867-1.4v4.019c1.442,0.51,2.746,1.074,2.746,2.759
		C347.32,433.186,346.188,434.219,344.574,434.375z M343.91,428.702v-3.791c-1.16,0.099-1.939,0.849-1.939,1.839
		C341.97,427.868,342.792,428.292,343.91,428.702z M346.554,431.701c0-1.133-0.819-1.6-1.979-2.01v3.946
		C345.847,433.499,346.554,432.719,346.554,431.701z M385.242,434.375v1.272h-0.666v-1.261c-1.555-0.069-2.715-0.792-3.154-2.008
		l0.65-0.368c0.326,0.991,1.188,1.584,2.504,1.656v-4.202c-1.443-0.51-2.688-1.032-2.688-2.716c0-1.472,1.188-2.462,2.688-2.562
		v-1.271h0.666v1.271c1.117,0.128,2.063,0.723,2.504,1.782l-0.637,0.354c-0.326-0.808-0.963-1.287-1.869-1.4v4.019
		c1.442,0.51,2.746,1.074,2.746,2.759C387.986,433.186,386.855,434.219,385.242,434.375z M384.578,428.702v-3.791
		c-1.16,0.099-1.939,0.849-1.939,1.839C382.638,427.868,383.458,428.292,384.578,428.702z M387.222,431.701
		c0-1.133-0.819-1.6-1.979-2.01v3.946C386.515,433.499,387.222,432.719,387.222,431.701z"/>
	<path fill="#4B48BF" d="M235.785,431.378l1.951-1.132c0.354,0.82,0.963,1.372,2.08,1.372c1.074,0,1.344-0.425,1.344-0.808
		c0-0.606-0.564-0.849-2.051-1.259c-1.471-0.41-2.914-1.118-2.914-3.013c0-1.91,1.613-3.014,3.324-3.014
		c1.625,0,2.899,0.777,3.621,2.234l-1.91,1.118c-0.34-0.708-0.808-1.146-1.711-1.146c-0.707,0-1.062,0.354-1.062,0.75
		c0,0.452,0.24,0.765,1.781,1.229c1.5,0.453,3.184,0.977,3.184,3.068c0,1.91-1.526,3.043-3.678,3.043
		C237.666,433.825,236.335,432.835,235.785,431.378L235.785,431.378z M244.346,430.091c0-2.107,1.598-3.733,3.747-3.733
		c1.373,0,2.589,0.722,3.197,1.812l-1.854,1.075c-0.24-0.495-0.75-0.792-1.371-0.792c-0.92,0-1.6,0.664-1.6,1.641
		s0.68,1.642,1.6,1.642c0.621,0,1.146-0.297,1.371-0.792l1.854,1.062c-0.606,1.104-1.812,1.825-3.197,1.825
		C245.943,433.825,244.346,432.198,244.346,430.091z M259.255,426.554v7.072h-2.121v-0.665c-0.467,0.538-1.159,0.863-2.106,0.863
		c-1.854,0-3.381-1.628-3.381-3.734c0-2.107,1.526-3.734,3.381-3.734c0.947,0,1.641,0.325,2.106,0.863v-0.665H259.255
		L259.255,426.554z M257.134,430.091c0-1.062-0.709-1.727-1.684-1.727c-0.978,0-1.685,0.665-1.685,1.727s0.707,1.727,1.685,1.727
		C256.427,431.816,257.134,431.151,257.134,430.091z M271.423,429.285v4.342H269.3v-4.159c0-0.707-0.34-1.16-1.018-1.16
		c-0.71,0-1.105,0.495-1.105,1.33v3.989h-2.12v-4.159c0-0.707-0.341-1.16-1.021-1.16c-0.707,0-1.104,0.495-1.104,1.33v3.989h-2.121
		v-7.072h2.121v0.65c0.326-0.481,0.947-0.85,1.896-0.85c0.834,0,1.457,0.339,1.852,0.935c0.396-0.566,1.047-0.935,2.051-0.935
		C270.361,426.356,271.423,427.516,271.423,429.285L271.423,429.285z M276.208,424.659c0-0.693,0.58-1.273,1.272-1.273
		c0.693,0,1.273,0.58,1.273,1.273c0,0.691-0.58,1.271-1.273,1.271C276.788,425.931,276.208,425.351,276.208,424.659z
		 M276.421,426.554h2.121v7.072h-2.121V426.554z M285.518,431.505c0,1.626-1.414,2.32-2.941,2.32c-1.414,0-2.49-0.538-3.041-1.686
		l1.838-1.046c0.184,0.537,0.58,0.834,1.203,0.834c0.51,0,0.764-0.155,0.764-0.438c0-0.777-3.479-0.367-3.479-2.814
		c0-1.542,1.301-2.319,2.771-2.319c1.146,0,2.164,0.509,2.759,1.515l-1.812,0.976c-0.197-0.367-0.479-0.623-0.947-0.623
		c-0.366,0-0.594,0.143-0.594,0.396C282.039,429.426,285.518,428.887,285.518,431.505L285.518,431.505z M291.714,431.505
		c0,1.626-1.414,2.32-2.94,2.32c-1.416,0-2.49-0.538-3.043-1.686l1.84-1.046c0.184,0.537,0.58,0.834,1.203,0.834
		c0.51,0,0.764-0.155,0.764-0.438c0-0.777-3.479-0.367-3.479-2.814c0-1.542,1.301-2.319,2.771-2.319
		c1.146,0,2.164,0.509,2.758,1.515l-1.812,0.976c-0.196-0.367-0.479-0.623-0.946-0.623c-0.367,0-0.595,0.143-0.595,0.396
		C288.234,429.426,291.714,428.887,291.714,431.505L291.714,431.505z M299.468,426.554v7.072h-2.12v-0.665
		c-0.384,0.522-1.091,0.863-2.021,0.863c-1.43,0-2.646-1.021-2.646-2.93v-4.342h2.121v4.031c0,0.877,0.553,1.287,1.23,1.287
		c0.777,0,1.314-0.453,1.314-1.457v-3.861L299.468,426.554L299.468,426.554z M300.814,424.659c0-0.693,0.58-1.273,1.272-1.273
		c0.693,0,1.272,0.58,1.272,1.273c0,0.691-0.579,1.271-1.272,1.271C301.395,425.931,300.814,425.351,300.814,424.659z
		 M301.027,426.554h2.121v7.072h-2.121V426.554z M311.496,429.285v4.342h-2.123v-4.031c0-0.877-0.551-1.287-1.23-1.287
		c-0.776,0-1.313,0.453-1.313,1.457v3.861h-2.121v-7.072h2.121v0.665c0.383-0.522,1.09-0.862,2.021-0.862
		C310.279,426.356,311.496,427.375,311.496,429.285L311.496,429.285z M320.21,426.554v6.72c0,2.376-1.852,3.38-3.734,3.38
		c-1.471,0-2.7-0.552-3.352-1.711l1.811-1.048c0.271,0.495,0.681,0.893,1.613,0.893c0.99,0,1.601-0.51,1.601-1.514v-0.65
		c-0.47,0.58-1.146,0.919-2.066,0.919c-2.008,0-3.479-1.642-3.479-3.594c0-1.951,1.472-3.593,3.479-3.593
		c0.92,0,1.6,0.339,2.066,0.919v-0.722L320.21,426.554L320.21,426.554z M318.146,429.948c0-0.977-0.707-1.642-1.712-1.642
		c-1.004,0-1.713,0.665-1.713,1.642s0.709,1.642,1.713,1.642C317.439,431.59,318.146,430.925,318.146,429.948z"/>
	<path opacity="0.5" enable-background="new    " d="M349.203,475.44c0-5.329,2.869-9.987,7.146-12.519h-13.516
		c-0.762,3.17-3.236,5.646-6.408,6.407v12.221c3.17,0.762,5.646,3.236,6.408,6.406h13.516
		C351.919,485.344,349.201,480.583,349.203,475.44z M378.267,475.44c0,5.328-2.866,9.988-7.145,12.519h13.516
		c0.763-3.171,3.236-5.646,6.406-6.407V469.33c-3.17-0.762-5.645-3.237-6.406-6.407h-13.516
		C375.4,465.453,378.267,470.111,378.267,475.44z"/>
	
		<linearGradient id="SVGID_11_" gradientUnits="userSpaceOnUse" x1="1379.8496" y1="-2842.6418" x2="1404.8877" y2="-2842.6418" gradientTransform="matrix(0 -1 1 0 3206.3777 1867.8098)">
		<stop  offset="0" style="stop-color:#4B48BF"/>
		<stop  offset="1" style="stop-color:#A14B8A"/>
	</linearGradient>
	<circle fill="url(#SVGID_11_)" cx="363.736" cy="475.441" r="12.519"/>
	
		<linearGradient id="SVGID_12_" gradientUnits="userSpaceOnUse" x1="1294.25" y1="-2541.6619" x2="1323.3135" y2="-2541.6619" gradientTransform="matrix(0 -1 1 0 2907.2097 1782.2942)">
		<stop  offset="0" style="stop-color:#4B48BF"/>
		<stop  offset="1" style="stop-color:#A14B8A"/>
	</linearGradient>
	<path fill="url(#SVGID_12_)" d="M336.224,458.981h58.648v29.063h-58.648V458.981z"/>
	<path opacity="0.2" enable-background="new    " d="M351.015,473.513c0-5.329,2.869-9.986,7.146-12.518h-13.517
		c-0.76,3.17-3.235,5.646-6.405,6.406v12.223c3.17,0.761,5.645,3.235,6.405,6.404h13.517
		C353.884,483.502,351.015,478.843,351.015,473.513L351.015,473.513z M380.082,473.513c0,5.33-2.869,9.988-7.148,12.519h13.519
		c0.762-3.17,3.235-5.646,6.406-6.405v-12.223c-3.171-0.762-5.646-3.236-6.406-6.406h-13.519
		C377.212,463.526,380.082,468.184,380.082,473.513z"/>
	<path opacity="0.1" fill="#FFFFFF" enable-background="new    " d="M336.224,488.204v-29.224h58.813L336.224,488.204z"/>
	
		<linearGradient id="SVGID_13_" gradientUnits="userSpaceOnUse" x1="1381.7764" y1="-2840.8293" x2="1406.8145" y2="-2840.8293" gradientTransform="matrix(0 -1 1 0 3206.3777 1867.8098)">
		<stop  offset="0" style="stop-color:#4B48BF"/>
		<stop  offset="1" style="stop-color:#A14B8A"/>
	</linearGradient>
	<circle fill="url(#SVGID_13_)" cx="365.548" cy="473.514" r="12.519"/>
	<path fill="#FFFFFF" d="M368.111,467.136v13.202h-3.021v-10.016l-2.338,0.643l-0.736-2.584l3.453-1.245H368.111z"/>
	<path opacity="0.7" fill="#FFFFFF" enable-background="new    " d="M345.281,479.133v1.272h-0.666v-1.259
		c-1.558-0.069-2.715-0.793-3.154-2.01l0.65-0.367c0.326,0.99,1.188,1.584,2.504,1.655v-4.202c-1.443-0.509-2.688-1.031-2.688-2.716
		c0-1.472,1.188-2.462,2.688-2.561v-1.272h0.666v1.272c1.117,0.126,2.063,0.722,2.504,1.781l-0.637,0.354
		c-0.326-0.807-0.964-1.287-1.869-1.4v4.02c1.442,0.509,2.746,1.074,2.746,2.758C348.025,477.945,346.894,478.976,345.281,479.133z
		 M344.617,473.459v-3.791c-1.16,0.1-1.939,0.849-1.939,1.839C342.677,472.626,343.498,473.05,344.617,473.459z M347.261,476.459
		c0-1.132-0.819-1.599-1.979-2.009v3.946C346.554,478.256,347.261,477.477,347.261,476.459z M385.949,479.133v1.272h-0.664v-1.259
		c-1.558-0.069-2.717-0.793-3.156-2.01l0.65-0.367c0.326,0.99,1.188,1.584,2.504,1.655v-4.202c-1.443-0.509-2.688-1.031-2.688-2.716
		c0-1.472,1.188-2.462,2.688-2.561v-1.272h0.664v1.272c1.119,0.126,2.065,0.722,2.504,1.781l-0.637,0.354
		c-0.324-0.807-0.964-1.287-1.867-1.4v4.02c1.442,0.509,2.744,1.074,2.744,2.758C388.693,477.945,387.56,478.976,385.949,479.133
		L385.949,479.133z M385.285,473.459v-3.791c-1.162,0.1-1.939,0.849-1.939,1.839C383.345,472.626,384.166,473.05,385.285,473.459z
		 M387.929,476.459c0-1.132-0.819-1.599-1.979-2.009v3.946C387.222,478.256,387.929,477.477,387.929,476.459z"/>
	<path fill="#4B48BF" d="M234.548,471.877c0,1.881-1.514,3.396-3.465,3.396h-1.485v3.111h-2.263v-9.9h3.748
		C233.035,468.483,234.548,469.997,234.548,471.877z M232.285,471.877c0-0.722-0.51-1.273-1.201-1.273h-1.486v2.547h1.486
		C231.775,473.151,232.285,472.598,232.285,471.877z M239.714,471.17v2.405c-0.877-0.144-2.123,0.212-2.123,1.61v3.197h-2.12v-7.072
		h2.12v1.26C237.875,471.623,238.824,471.17,239.714,471.17z M240.141,474.847c0-2.107,1.668-3.733,3.748-3.733
		c2.079,0,3.75,1.626,3.75,3.733s-1.671,3.734-3.75,3.734C241.809,478.583,240.141,476.956,240.141,474.847z M245.516,474.847
		c0-1.004-0.707-1.669-1.627-1.669c-0.918,0-1.627,0.665-1.627,1.669s0.709,1.669,1.627,1.669
		C244.809,476.516,245.516,475.852,245.516,474.847z M248.841,471.311h2.123v7.072c0,2.207-1.021,3.154-3.254,3.027v-2.037
		c0.779,0.042,1.133-0.241,1.133-0.99L248.841,471.311L248.841,471.311z M248.628,469.417c0-0.693,0.58-1.273,1.272-1.273
		c0.693,0,1.273,0.58,1.273,1.273c0,0.692-0.58,1.272-1.273,1.272C249.203,470.682,248.637,470.116,248.628,469.417z
		 M256.113,476.686c0.58,0,1.074-0.227,1.357-0.537l1.698,0.977c-0.692,0.962-1.739,1.457-3.084,1.457
		c-2.418,0-3.918-1.627-3.918-3.734s1.526-3.733,3.763-3.733c2.065,0,3.594,1.6,3.594,3.733c0,0.297-0.027,0.58-0.086,0.85h-5.021
		C254.686,476.431,255.335,476.686,256.113,476.686z M257.414,474.112c-0.227-0.819-0.863-1.116-1.498-1.116
		c-0.807,0-1.346,0.396-1.543,1.116H257.414z M260.302,474.847c0-2.107,1.601-3.733,3.75-3.733c1.371,0,2.589,0.722,3.197,1.812
		L265.396,474c-0.242-0.495-0.75-0.792-1.373-0.792c-0.918,0-1.599,0.665-1.599,1.641c0,0.978,0.679,1.642,1.599,1.642
		c0.623,0,1.146-0.297,1.373-0.792l1.854,1.063c-0.609,1.104-1.813,1.825-3.197,1.825
		C261.9,478.583,260.302,476.956,260.302,474.847L260.302,474.847z M270.787,473.348v2.504c0,0.608,0.521,0.665,1.457,0.608v1.924
		c-2.773,0.283-3.58-0.552-3.58-2.532v-2.504h-1.131v-2.037h1.131v-1.344l2.123-0.637v1.979h1.457v2.037L270.787,473.348z
		 M276.914,469.417c0-0.693,0.58-1.273,1.273-1.273c0.692,0,1.272,0.58,1.272,1.273c0,0.692-0.58,1.272-1.272,1.272
		C277.488,470.682,276.921,470.116,276.914,469.417z M277.125,471.311h2.123v7.072h-2.123V471.311z M286.223,476.262
		c0,1.626-1.416,2.32-2.943,2.32c-1.414,0-2.488-0.538-3.041-1.685l1.84-1.047c0.184,0.537,0.58,0.834,1.201,0.834
		c0.51,0,0.766-0.155,0.766-0.438c0-0.778-3.48-0.368-3.48-2.815c0-1.542,1.304-2.319,2.773-2.319c1.145,0,2.164,0.51,2.758,1.515
		l-1.811,0.977c-0.199-0.368-0.48-0.623-0.947-0.623c-0.369,0-0.594,0.143-0.594,0.396
		C282.744,474.182,286.223,473.645,286.223,476.262L286.223,476.262z M292.419,476.262c0,1.626-1.416,2.32-2.942,2.32
		c-1.414,0-2.49-0.538-3.041-1.685l1.838-1.047c0.186,0.537,0.58,0.834,1.203,0.834c0.51,0,0.766-0.155,0.766-0.438
		c0-0.778-3.48-0.368-3.48-2.815c0-1.542,1.301-2.319,2.773-2.319c1.145,0,2.164,0.51,2.758,1.515l-1.813,0.977
		c-0.197-0.368-0.479-0.623-0.945-0.623c-0.369,0-0.596,0.143-0.596,0.396C288.939,474.182,292.419,473.645,292.419,476.262
		L292.419,476.262z M300.173,471.311v7.072h-2.123v-0.665c-0.381,0.523-1.088,0.863-2.021,0.863c-1.43,0-2.646-1.021-2.646-2.929
		v-4.343h2.121v4.031c0,0.877,0.554,1.287,1.229,1.287c0.777,0,1.314-0.453,1.314-1.457v-3.861L300.173,471.311L300.173,471.311z
		 M301.52,469.417c0-0.693,0.58-1.273,1.272-1.273c0.69,0,1.271,0.58,1.271,1.273c0,0.692-0.58,1.272-1.271,1.272
		C302.091,470.682,301.527,470.116,301.52,469.417z M301.73,471.311h2.123v7.072h-2.123V471.311z M312.201,474.042v4.342h-2.123
		v-4.031c0-0.877-0.553-1.286-1.23-1.286c-0.776,0-1.313,0.452-1.313,1.457v3.86h-2.121v-7.071h2.121v0.664
		c0.383-0.521,1.09-0.862,2.021-0.862C310.982,471.114,312.201,472.132,312.201,474.042L312.201,474.042z M320.916,471.311v6.72
		c0,2.376-1.854,3.381-3.734,3.381c-1.471,0-2.703-0.552-3.354-1.711l1.811-1.048c0.271,0.495,0.681,0.892,1.613,0.892
		c0.99,0,1.598-0.509,1.598-1.514v-0.65c-0.467,0.58-1.145,0.919-2.063,0.919c-2.008,0-3.479-1.641-3.479-3.593
		s1.472-3.594,3.479-3.594c0.92,0,1.6,0.34,2.063,0.919v-0.722L320.916,471.311z M318.851,474.707c0-0.977-0.709-1.642-1.711-1.642
		c-1.004,0-1.713,0.665-1.713,1.642c0,0.976,0.709,1.641,1.713,1.641C318.142,476.347,318.851,475.682,318.851,474.707z"/>
	<path opacity="0.5" enable-background="new    " d="M348.732,520.198c0-5.327,2.868-9.987,7.146-12.519h-13.516
		c-0.763,3.17-3.238,5.646-6.408,6.406v12.223c3.17,0.762,5.645,3.234,6.408,6.404h13.516
		C351.447,530.101,348.73,525.341,348.732,520.198z M377.796,520.198c0,5.328-2.869,9.985-7.145,12.519h13.516
		c0.762-3.17,3.236-5.645,6.406-6.405v-12.224c-3.17-0.761-5.646-3.235-6.406-6.405H370.65
		C375.082,510.293,377.8,515.054,377.796,520.198z"/>
	
		<linearGradient id="SVGID_14_" gradientUnits="userSpaceOnUse" x1="1335.0928" y1="-2843.1125" x2="1360.1309" y2="-2843.1125" gradientTransform="matrix(0 -1 1 0 3206.3777 1867.8098)">
		<stop  offset="0" style="stop-color:#4B48BF"/>
		<stop  offset="1" style="stop-color:#A14B8A"/>
	</linearGradient>
	<circle fill="url(#SVGID_14_)" cx="363.265" cy="520.198" r="12.519"/>
	
		<linearGradient id="SVGID_15_" gradientUnits="userSpaceOnUse" x1="1249.4922" y1="-2542.1326" x2="1278.5557" y2="-2542.1326" gradientTransform="matrix(0 -1 1 0 2907.2097 1782.2942)">
		<stop  offset="0" style="stop-color:#4B48BF"/>
		<stop  offset="1" style="stop-color:#A14B8A"/>
	</linearGradient>
	<path fill="url(#SVGID_15_)" d="M335.753,503.739h58.648v29.063h-58.648V503.739z"/>
	<path opacity="0.2" enable-background="new    " d="M350.544,518.27c0-5.329,2.869-9.985,7.146-12.519h-13.517
		c-0.762,3.17-3.235,5.646-6.408,6.406v12.223c3.173,0.761,5.646,3.235,6.408,6.406h13.517
		C353.261,528.175,350.542,523.414,350.544,518.27z M379.611,518.27c0,5.33-2.871,9.988-7.148,12.521h13.519
		c0.76-3.171,3.233-5.646,6.403-6.408v-12.223c-3.17-0.761-5.645-3.236-6.403-6.406h-13.519
		C376.742,508.284,379.611,512.942,379.611,518.27z"/>
	<path opacity="0.1" fill="#FFFFFF" enable-background="new    " d="M335.753,532.959v-29.221h58.813L335.753,532.959z"/>
	
		<linearGradient id="SVGID_16_" gradientUnits="userSpaceOnUse" x1="1337.0176" y1="-2841.3" x2="1362.0576" y2="-2841.3" gradientTransform="matrix(0 -1 1 0 3206.3777 1867.8098)">
		<stop  offset="0" style="stop-color:#4B48BF"/>
		<stop  offset="1" style="stop-color:#A14B8A"/>
	</linearGradient>
	<circle fill="url(#SVGID_16_)" cx="365.078" cy="518.272" r="12.52"/>
	<path fill="#FFFFFF" d="M370.005,521.381c0,2.414-1.733,3.979-4.848,3.979c-3.111,0-4.847-1.564-4.847-3.979
		c0-1.301,0.604-2.451,1.716-3.168c-0.773-0.604-1.265-1.471-1.265-2.659c0-2.564,1.961-3.923,4.396-3.923
		c2.432,0,4.395,1.356,4.395,3.923c0,1.188-0.49,2.057-1.264,2.659C369.402,518.929,370.005,520.081,370.005,521.381z
		 M366.988,520.948c0-0.999-0.773-1.584-1.83-1.584c-1.058,0-1.828,0.585-1.828,1.584c0,1,0.773,1.586,1.828,1.586
		C366.214,522.533,366.988,521.948,366.988,520.948z M363.783,515.743c0,0.733,0.526,1.281,1.375,1.281
		c0.85,0,1.377-0.548,1.377-1.281c0-0.735-0.527-1.282-1.377-1.282C364.31,514.46,363.783,515.007,363.783,515.743z"/>
	<path opacity="0.7" fill="#FFFFFF" enable-background="new    " d="M344.808,523.891v1.272h-0.664v-1.261
		c-1.557-0.069-2.717-0.793-3.153-2.011l0.649-0.366c0.326,0.989,1.188,1.584,2.504,1.655v-4.203
		c-1.442-0.51-2.688-1.03-2.688-2.715c0-1.473,1.188-2.461,2.688-2.563v-1.271h0.664v1.271c1.119,0.127,2.066,0.723,2.507,1.78
		l-0.64,0.354c-0.324-0.808-0.961-1.286-1.867-1.399v4.021c1.443,0.51,2.744,1.073,2.744,2.758
		C347.554,522.704,346.423,523.733,344.808,523.891z M344.144,518.217v-3.79c-1.159,0.099-1.938,0.849-1.938,1.838
		C342.207,517.383,343.027,517.807,344.144,518.217z M346.791,521.215c0-1.131-0.82-1.598-1.98-2.008v3.944
		C346.083,523.014,346.791,522.235,346.791,521.215L346.791,521.215z M385.478,523.891v1.272h-0.665v-1.261
		c-1.558-0.069-2.718-0.793-3.154-2.011l0.647-0.366c0.326,0.989,1.189,1.584,2.507,1.655v-4.203
		c-1.443-0.51-2.689-1.03-2.689-2.715c0-1.473,1.189-2.461,2.689-2.563v-1.271h0.663v1.271c1.117,0.127,2.066,0.723,2.505,1.78
		l-0.638,0.354c-0.326-0.808-0.963-1.286-1.867-1.399v4.021c1.443,0.51,2.744,1.073,2.744,2.758
		C388.222,522.704,387.089,523.733,385.478,523.891z M384.813,518.217v-3.79c-1.16,0.099-1.938,0.849-1.938,1.838
		C382.875,517.383,383.695,517.807,384.813,518.217z M387.457,521.215c0-1.131-0.82-1.598-1.98-2.008v3.944
		C386.751,523.014,387.457,522.235,387.457,521.215L387.457,521.215z"/>
	<path fill="#4B48BF" d="M205.893,516.635c0,1.881-1.515,3.396-3.466,3.396h-1.486v3.11h-2.262v-9.897h3.748
		C204.378,513.24,205.893,514.754,205.893,516.635z M203.628,516.635c0-0.722-0.509-1.272-1.201-1.272h-1.486v2.547h1.486
		C203.12,517.909,203.628,517.356,203.628,516.635z M213.646,516.069v7.071h-2.123v-0.664c-0.381,0.521-1.088,0.861-2.021,0.861
		c-1.429,0-2.646-1.02-2.646-2.928v-4.344h2.123v4.03c0,0.877,0.553,1.287,1.229,1.287c0.778,0,1.315-0.453,1.315-1.457v-3.86
		L213.646,516.069L213.646,516.069z M222.814,519.606c0,2.104-1.527,3.731-3.381,3.731c-0.947,0-1.642-0.324-2.105-0.861v0.664
		h-2.123v-9.898h2.123v3.493c0.467-0.539,1.158-0.862,2.105-0.862C221.287,515.872,222.814,517.499,222.814,519.606z
		 M220.693,519.606c0-1.063-0.707-1.728-1.685-1.728c-0.975,0-1.682,0.664-1.682,1.728c0,1.062,0.707,1.728,1.682,1.728
		C219.986,521.333,220.693,520.667,220.693,519.606z M224.02,512.815h2.121v10.325h-2.121V512.815z M227.486,514.174
		c0-0.691,0.58-1.271,1.272-1.271c0.693,0,1.273,0.58,1.273,1.271c0,0.693-0.58,1.271-1.273,1.271
		C228.059,515.44,227.492,514.874,227.486,514.174z M227.699,516.069h2.121v7.071h-2.121V516.069z M231.023,519.606
		c0-2.106,1.6-3.733,3.748-3.733c1.373,0,2.588,0.722,3.196,1.812l-1.852,1.075c-0.242-0.495-0.75-0.793-1.373-0.793
		c-0.918,0-1.601,0.666-1.601,1.643c0,0.979,0.68,1.643,1.601,1.643c0.623,0,1.146-0.297,1.373-0.791l1.852,1.062
		c-0.606,1.104-1.811,1.824-3.196,1.824C232.623,523.34,231.023,521.713,231.023,519.606z M245.934,516.069v7.071h-2.121v-0.664
		c-0.467,0.537-1.16,0.861-2.107,0.861c-1.854,0-3.381-1.627-3.381-3.731c0-2.106,1.527-3.733,3.381-3.733
		c0.947,0,1.641,0.323,2.107,0.862v-0.666H245.934L245.934,516.069z M243.813,519.606c0-1.063-0.707-1.728-1.685-1.728
		s-1.685,0.664-1.685,1.728c0,1.062,0.707,1.728,1.685,1.728S243.813,520.667,243.813,519.606z M250.18,518.106v2.504
		c0,0.606,0.522,0.664,1.457,0.606v1.924c-2.771,0.283-3.578-0.553-3.578-2.53v-2.504h-1.132v-2.037h1.132v-1.345l2.121-0.639v1.979
		h1.457v2.036h-1.457V518.106L250.18,518.106z M252.628,514.174c0-0.691,0.58-1.271,1.272-1.271c0.693,0,1.273,0.58,1.273,1.271
		c0,0.693-0.58,1.271-1.273,1.271C253.201,515.44,252.634,514.874,252.628,514.174z M252.841,516.069h2.121v7.071h-2.121V516.069z
		 M256.166,519.606c0-2.106,1.67-3.733,3.75-3.733c2.078,0,3.748,1.627,3.748,3.733c0,2.104-1.67,3.731-3.748,3.731
		C257.835,523.34,256.166,521.713,256.166,519.606z M261.541,519.606c0-1.005-0.707-1.671-1.625-1.671
		c-0.92,0-1.627,0.666-1.627,1.671c0,1.004,0.707,1.668,1.627,1.668C260.833,521.274,261.541,520.61,261.541,519.606z
		 M271.658,518.799v4.343h-2.123v-4.03c0-0.877-0.553-1.287-1.23-1.287c-0.777,0-1.313,0.453-1.313,1.457v3.86h-2.121v-7.071h2.121
		v0.666c0.383-0.521,1.09-0.861,2.021-0.861C270.441,515.872,271.658,516.889,271.658,518.799L271.658,518.799z M276.441,514.174
		c0-0.691,0.58-1.271,1.272-1.271c0.693,0,1.272,0.58,1.272,1.271c0,0.693-0.579,1.271-1.272,1.271
		C277.016,515.44,276.449,514.874,276.441,514.174z M276.654,516.069h2.121v7.071h-2.121V516.069z M285.75,521.02
		c0,1.628-1.414,2.319-2.941,2.319c-1.416,0-2.49-0.536-3.043-1.685l1.84-1.047c0.185,0.536,0.58,0.834,1.203,0.834
		c0.508,0,0.765-0.153,0.765-0.438c0-0.777-3.479-0.367-3.479-2.813c0-1.544,1.301-2.319,2.771-2.319
		c1.146,0,2.164,0.51,2.758,1.515l-1.811,0.978c-0.197-0.367-0.48-0.622-0.947-0.622c-0.367,0-0.594,0.142-0.594,0.396
		C282.271,518.94,285.75,518.403,285.75,521.02L285.75,521.02z M291.949,521.02c0,1.628-1.416,2.319-2.943,2.319
		c-1.414,0-2.49-0.536-3.041-1.685l1.838-1.047c0.187,0.536,0.58,0.834,1.203,0.834c0.51,0,0.764-0.153,0.764-0.438
		c0-0.777-3.479-0.367-3.479-2.813c0-1.544,1.301-2.319,2.771-2.319c1.146,0,2.164,0.51,2.76,1.515l-1.813,0.978
		c-0.197-0.367-0.479-0.622-0.947-0.622c-0.367,0-0.594,0.142-0.594,0.396C288.468,518.94,291.949,518.403,291.949,521.02
		L291.949,521.02z M299.701,516.069v7.071h-2.121v-0.664c-0.383,0.521-1.09,0.861-2.023,0.861c-1.428,0-2.645-1.02-2.645-2.928
		v-4.344h2.123v4.03c0,0.877,0.551,1.287,1.229,1.287c0.779,0,1.316-0.453,1.316-1.457v-3.86L299.701,516.069L299.701,516.069z
		 M301.048,514.174c0-0.691,0.58-1.271,1.272-1.271c0.691,0,1.271,0.58,1.271,1.271c0,0.693-0.58,1.271-1.271,1.271
		C301.621,515.44,301.055,514.874,301.048,514.174z M301.259,516.069h2.123v7.071h-2.123V516.069z M311.728,518.799v4.343h-2.122
		v-4.03c0-0.877-0.552-1.287-1.229-1.287c-0.779,0-1.316,0.453-1.316,1.457v3.86h-2.12v-7.071h2.12v0.666
		c0.384-0.521,1.091-0.861,2.023-0.861C310.511,515.872,311.728,516.889,311.728,518.799L311.728,518.799z M320.445,516.069v6.722
		c0,2.375-1.854,3.379-3.734,3.379c-1.471,0-2.703-0.551-3.354-1.711l1.811-1.047c0.27,0.493,0.68,0.892,1.613,0.892
		c0.99,0,1.598-0.509,1.598-1.513v-0.651c-0.467,0.58-1.145,0.92-2.063,0.92c-2.009,0-3.479-1.642-3.479-3.595
		c0-1.95,1.471-3.592,3.479-3.592c0.92,0,1.6,0.338,2.063,0.918v-0.722H320.445L320.445,516.069z M318.378,519.463
		c0-0.978-0.707-1.642-1.711-1.642s-1.711,0.664-1.711,1.642c0,0.979,0.707,1.643,1.711,1.643
		C317.671,521.104,318.378,520.44,318.378,519.463z"/>
	
		<linearGradient id="SVGID_17_" gradientUnits="userSpaceOnUse" x1="354.2764" y1="1103.4915" x2="708.7617" y2="1103.4915" gradientTransform="matrix(1 0 0 1 -290.2622 -783.9766)">
		<stop  offset="0" style="stop-color:#4B48BF"/>
		<stop  offset="1" style="stop-color:#5248BB;stop-opacity:0"/>
	</linearGradient>
	<path fill="url(#SVGID_17_)" d="M410.416,280.893H64.014L418.5,358.138v-69.16C418.5,284.513,414.88,280.893,410.416,280.893z"/>
	
		<linearGradient id="SVGID_18_" gradientUnits="userSpaceOnUse" x1="3719.2109" y1="853.3079" x2="3784.5771" y2="853.3079" gradientTransform="matrix(0 1 -1 0 1218.3879 -3396.4441)">
		<stop  offset="0" style="stop-color:#FFFFFF"/>
		<stop  offset="1" style="stop-color:#FFFFFF;stop-opacity:0"/>
	</linearGradient>
	<path fill="url(#SVGID_18_)" d="M339.105,387.911c0.006-4.353,0.021-8.701-0.005-13.054c-0.01-1.816,0.605-3.367,1.798-4.708
		c1.266-1.424,2.838-2.428,4.536-3.241c3.773-1.811,7.806-2.667,11.918-3.204c0.142-0.021,0.24,0.01,0.349,0.109
		c1.932,1.82,3.869,3.637,5.809,5.447c0.15,0.138,0.137,0.21-0.002,0.345c-0.938,0.932-1.867,1.874-2.809,2.805
		c-0.297,0.292-0.433,0.618-0.344,1.03c0.106,0.298,0.256,0.562,0.573,0.678c-0.043,0.108,0.058,0.146,0.109,0.199
		c0.307,0.312,0.617,0.616,0.924,0.925l0.73,0.726c0.284,0.192,0.313,0.444,0.225,0.763c-0.107,0.391-0.162,0.791-0.24,1.188
		c-0.043,0.05-0.039,0.107-0.037,0.168c-0.09,0.406-0.186,0.811-0.271,1.218c-0.605,2.888-1.211,5.775-1.803,8.665
		c-0.011,0.047-0.023,0.079-0.037,0.112h2.024c-0.002-0.047,0.004-0.094,0.017-0.14c0.432-2.021,0.852-4.044,1.272-6.065l0.58-2.781
		c0.019-0.192,0.16-0.359,0.117-0.563l0.383-1.854c0.056-0.275,0.16-0.544,0.121-0.833c-0.004-0.196-0.082-0.385-0.221-0.524
		c-0.229-0.25-0.457-0.503-0.729-0.713c-0.18-0.199-0.342-0.421-0.584-0.557c-0.168-0.297-0.453-0.485-0.68-0.728
		c-0.102-0.108-0.102-0.167,0.002-0.271c0.711-0.706,1.422-1.415,2.125-2.128c0.047-0.046,0.084-0.068,0.123-0.074
		c0.039,0.005,0.076,0.027,0.123,0.074c0.705,0.713,1.414,1.422,2.127,2.128c0.104,0.104,0.104,0.16,0.002,0.271
		c-0.229,0.24-0.514,0.431-0.68,0.728c-0.244,0.136-0.406,0.355-0.586,0.557c-0.271,0.21-0.498,0.466-0.729,0.713
		c-0.139,0.141-0.217,0.328-0.219,0.524c-0.041,0.289,0.063,0.558,0.119,0.833l0.383,1.854c-0.043,0.202,0.1,0.369,0.117,0.563
		l0.58,2.781c0.422,2.021,0.84,4.046,1.272,6.065c0.012,0.046,0.017,0.093,0.017,0.14h2.024c-0.016-0.036-0.029-0.073-0.037-0.112
		c-0.594-2.89-1.196-5.777-1.803-8.665c-0.086-0.408-0.182-0.812-0.271-1.218c0.003-0.062,0.007-0.118-0.036-0.168
		c-0.078-0.397-0.134-0.799-0.24-1.188c-0.088-0.317-0.062-0.569,0.227-0.763l0.729-0.726c0.309-0.31,0.617-0.614,0.924-0.925
		c0.053-0.054,0.152-0.091,0.109-0.199c0.317-0.116,0.467-0.38,0.571-0.678c0.091-0.412-0.045-0.737-0.342-1.03
		c-0.94-0.931-1.869-1.873-2.811-2.805c-0.14-0.134-0.15-0.207-0.002-0.345c1.94-1.813,3.877-3.626,5.809-5.447
		c0.09-0.094,0.221-0.136,0.348-0.109c4.115,0.538,8.146,1.395,11.918,3.204c1.699,0.813,3.271,1.817,4.539,3.241
		c1.191,1.341,1.808,2.892,1.795,4.708c-0.018,3.282-0.014,8.863-0.008,13.275h1.967v-13.518c0-0.532-0.045-1.062-0.145-1.586
		c-0.402-2.078-1.521-3.734-3.066-5.134c-1.727-1.564-3.752-2.645-5.897-3.507c-3.469-1.394-7.099-2.157-10.793-2.626
		c-0.226-0.029-0.312-0.083-0.31-0.334c0.019-1.295,0.013-2.59,0.004-3.885c0-0.165,0.052-0.275,0.169-0.387
		c0.977-0.948,1.854-1.991,2.622-3.114c0.23-0.314,0.464-0.631,0.646-0.98c0.34-0.486,0.639-1,0.9-1.535
		c0.444-0.708,0.79-1.466,1.102-2.239c0.072-0.162,0.145-0.321,0.211-0.483c0.926-2.271,1.592-4.614,1.748-7.072
		c0.08-1.25,0.063-2.502,0.043-3.754h0.021c-0.288-8.452-7.032-15.212-15.313-15.212c-8.238,0-14.687,6.688-15.041,15.076h-0.006
		c0,0.036,0,0.072-0.002,0.108v0.026l0,0c-0.021,1.252-0.037,2.504,0.043,3.754c0.158,2.458,0.824,4.8,1.748,7.072
		c0.065,0.162,0.141,0.321,0.211,0.483c0.313,0.772,0.656,1.531,1.102,2.239c0.262,0.535,0.563,1.047,0.902,1.535
		c0.18,0.351,0.412,0.666,0.643,0.98c0.769,1.124,1.648,2.167,2.625,3.113c0.111,0.097,0.174,0.238,0.166,0.388
		c-0.008,1.295-0.008,2.59,0.004,3.885c0.002,0.251-0.084,0.306-0.309,0.334c-3.695,0.469-7.324,1.233-10.793,2.626
		c-2.146,0.862-4.172,1.941-5.898,3.507c-1.543,1.398-2.662,3.056-3.063,5.134c-0.101,0.522-0.146,1.054-0.146,1.585v13.467h1.974
		c-0.011-0.058-0.015-0.114-0.015-0.171h0.004V387.911z M370.707,362.764c-1.83,1.71-3.654,3.424-5.477,5.141
		c-0.06,0.059-0.105,0.081-0.148,0.088c-0.045-0.007-0.092-0.029-0.15-0.088c-1.819-1.718-3.647-3.43-5.477-5.141
		c-0.092-0.077-0.143-0.194-0.135-0.313c0.006-0.54,0-1.08,0-1.621c0-0.561,0.006-1.118,0-1.678
		c-0.002-0.188,0.032-0.231,0.211-0.123c0.354,0.222,0.715,0.438,1.088,0.628c1.418,0.724,2.893,1.122,4.443,1.126v0.003
		l0.018-0.001l0.02,0.001v-0.003c1.55-0.005,3.027-0.403,4.443-1.126c0.371-0.188,0.73-0.406,1.086-0.628
		c0.178-0.108,0.215-0.065,0.213,0.123c-0.006,0.561-0.002,1.117-0.002,1.678c0,0.541-0.004,1.081,0.002,1.621
		C370.849,362.57,370.798,362.687,370.707,362.764L370.707,362.764z M356.458,353.32c-0.6-0.807-1.105-1.674-1.635-2.524
		c-0.037-0.155-0.131-0.28-0.209-0.414c-0.174-0.326-0.297-0.679-0.523-0.978c0.025-0.092-0.035-0.159-0.067-0.232
		c-0.322-0.682-0.611-1.378-0.867-2.087c-0.605-1.669-1.049-3.375-1.213-5.148c-0.123-1.315-0.058-2.637-0.074-3.955l0,0
		c0.291-7.285,5.973-13.124,13.09-13.124c7.115,0,13.047,5.837,13.336,13.123c-0.02,1.319,0.047,2.64-0.076,3.956
		c-0.164,1.773-0.604,3.479-1.211,5.148c-0.256,0.709-0.545,1.405-0.867,2.087c-0.032,0.073-0.096,0.142-0.069,0.232
		c-0.228,0.299-0.351,0.65-0.521,0.978c-0.08,0.133-0.174,0.258-0.209,0.414c-0.531,0.852-1.037,1.719-1.637,2.524
		c-1.23,1.659-2.631,3.142-4.41,4.226c-1.221,0.744-2.531,1.219-3.971,1.271c-0.076,0.002-0.148,0-0.224,0h-0.037
		c-0.071,0-0.146,0.003-0.221,0c-1.44-0.053-2.752-0.526-3.971-1.271C359.091,356.46,357.691,354.979,356.458,353.32L356.458,353.32
		z"/>
	
		<linearGradient id="SVGID_19_" gradientUnits="userSpaceOnUse" x1="3859.2021" y1="-2868.5071" x2="3929.166" y2="-2868.5071" gradientTransform="matrix(0 1 1 0 3122.6453 -3543.2908)">
		<stop  offset="0" style="stop-color:#FFFFFF;stop-opacity:0.048"/>
		<stop  offset="0.489" style="stop-color:#FFFFFF"/>
		<stop  offset="1" style="stop-color:#FFFFFF;stop-opacity:0"/>
	</linearGradient>
	<path fill="url(#SVGID_19_)" d="M253.464,315.911h1.349v69.964h-1.349V315.911z"/>
	
		<linearGradient id="SVGID_20_" gradientUnits="userSpaceOnUse" x1="3739.6582" y1="497.1829" x2="4128.7246" y2="497.1829" gradientTransform="matrix(-1 0 0 1 4149.8281 -215.6133)">
		<stop  offset="0" style="stop-color:#FFFFFF;stop-opacity:0.048"/>
		<stop  offset="0.489" style="stop-color:#FFFFFF"/>
		<stop  offset="1" style="stop-color:#FFFFFF;stop-opacity:0"/>
	</linearGradient>
	<path fill="url(#SVGID_20_)" d="M21.103,280.895H410.17v1.35H21.103V280.895z"/>
	<g enable-background="new    ">
		<path fill="#FFFFFF" d="M121.44,312.815h-2.397v7.082h-0.588v-7.082h-2.397v-0.544h5.382V312.815z"/>
		<path fill="#FFFFFF" d="M126.896,314.449v5.447h-0.556v-1.231c-0.458,0.817-1.297,1.352-2.343,1.352
			c-1.547,0-2.822-1.231-2.822-2.844s1.275-2.844,2.822-2.844c1.046,0,1.885,0.534,2.343,1.352v-1.231H126.896z M126.34,317.173
			c0-1.297-1.002-2.32-2.299-2.32c-1.297,0-2.31,1.023-2.31,2.32s1.013,2.32,2.31,2.32
			C125.337,319.493,126.34,318.47,126.34,317.173z"/>
		<path fill="#FFFFFF" d="M130.933,314.373v0.522c-0.937,0-1.819,0.578-1.819,1.973v3.028h-0.545v-5.447h0.545v1.067
			C129.483,314.656,130.192,314.373,130.933,314.373z"/>
		<path fill="#FFFFFF" d="M137.086,314.449v5.186c0,1.635-1.209,2.561-2.712,2.561c-1.275,0-2.179-0.512-2.571-1.308l0.479-0.272
			c0.283,0.578,0.893,1.057,2.092,1.057c1.362,0,2.168-0.795,2.168-2.037v-1.002c-0.447,0.839-1.286,1.384-2.342,1.384
			c-1.558,0-2.822-1.231-2.822-2.844s1.264-2.844,2.822-2.844c1.057,0,1.896,0.545,2.342,1.384v-1.264H137.086z M136.542,317.173
			c0-1.297-1.013-2.32-2.31-2.32c-1.297,0-2.31,1.023-2.31,2.32s1.013,2.32,2.31,2.32
			C135.528,319.493,136.542,318.47,136.542,317.173z"/>
		<path fill="#FFFFFF" d="M143.902,317.195c0,0.087-0.011,0.175-0.011,0.262h-4.935c0.13,1.231,1.067,2.037,2.31,2.037
			c0.894,0,1.569-0.414,1.885-0.991l0.479,0.283c-0.447,0.741-1.296,1.231-2.375,1.231c-1.678,0-2.866-1.198-2.866-2.844
			c0-1.602,1.155-2.844,2.822-2.844C142.867,314.329,143.902,315.702,143.902,317.195z M138.956,316.922h4.379
			c-0.12-1.329-1.057-2.069-2.125-2.069C139.969,314.853,139.064,315.713,138.956,316.922z"/>
		<path fill="#FFFFFF" d="M146.174,314.984v3.54c0,0.959,0.512,0.98,1.624,0.883v0.49c-1.427,0.218-2.179-0.131-2.179-1.373v-3.54
			h-1.199v-0.534h1.199v-1.362l0.555-0.163v1.525h1.624v0.534H146.174z"/>
		<path fill="#FFFFFF" d="M154.374,314.373v0.522c-0.937,0-1.819,0.578-1.819,1.973v3.028h-0.545v-5.447h0.545v1.067
			C152.924,314.656,153.633,314.373,154.374,314.373z"/>
		<path fill="#FFFFFF" d="M160.287,317.195c0,0.087-0.011,0.175-0.011,0.262h-4.935c0.13,1.231,1.067,2.037,2.31,2.037
			c0.894,0,1.569-0.414,1.885-0.991l0.479,0.283c-0.447,0.741-1.296,1.231-2.375,1.231c-1.678,0-2.866-1.198-2.866-2.844
			c0-1.602,1.155-2.844,2.822-2.844C159.252,314.329,160.287,315.702,160.287,317.195z M155.341,316.922h4.379
			c-0.12-1.329-1.057-2.069-2.125-2.069C156.354,314.853,155.45,315.713,155.341,316.922z"/>
		<path fill="#FFFFFF" d="M168.53,314.449l-1.721,5.447h-0.599l-1.515-4.642l-1.514,4.642h-0.599l-1.722-5.447h0.578l1.449,4.739
			l1.525-4.739h0.566l1.525,4.739l1.449-4.739H168.53z"/>
		<path fill="#FFFFFF" d="M174.855,314.449v5.447H174.3v-1.231c-0.458,0.817-1.297,1.352-2.343,1.352
			c-1.547,0-2.822-1.231-2.822-2.844s1.275-2.844,2.822-2.844c1.046,0,1.885,0.534,2.343,1.352v-1.231H174.855z M174.3,317.173
			c0-1.297-1.002-2.32-2.299-2.32c-1.297,0-2.31,1.023-2.31,2.32s1.013,2.32,2.31,2.32C173.297,319.493,174.3,318.47,174.3,317.173z
			"/>
		<path fill="#FFFFFF" d="M178.893,314.373v0.522c-0.937,0-1.819,0.578-1.819,1.973v3.028h-0.545v-5.447h0.545v1.067
			C177.443,314.656,178.152,314.373,178.893,314.373z"/>
		<path fill="#FFFFFF" d="M185.013,312.271v7.626h-0.544v-1.264c-0.447,0.839-1.286,1.384-2.342,1.384
			c-1.558,0-2.822-1.231-2.822-2.844s1.264-2.844,2.822-2.844c1.057,0,1.896,0.545,2.342,1.384v-3.442H185.013z M184.468,317.173
			c0-1.297-1.013-2.32-2.31-2.32c-1.297,0-2.31,1.023-2.31,2.32s1.013,2.32,2.31,2.32
			C183.455,319.493,184.468,318.47,184.468,317.173z"/>
		<path fill="#FFFFFF" d="M194.942,314.449v5.447h-0.555v-1.231c-0.458,0.817-1.297,1.352-2.343,1.352
			c-1.547,0-2.822-1.231-2.822-2.844s1.275-2.844,2.822-2.844c1.046,0,1.885,0.534,2.343,1.352v-1.231H194.942z M194.387,317.173
			c0-1.297-1.002-2.32-2.299-2.32c-1.297,0-2.31,1.023-2.31,2.32s1.013,2.32,2.31,2.32
			C193.385,319.493,194.387,318.47,194.387,317.173z"/>
		<path fill="#FFFFFF" d="M204.417,316.443v3.454h-0.545v-3.454c0-1.034-0.599-1.59-1.449-1.59c-0.916,0-1.634,0.609-1.634,2.004
			v3.04h-0.545v-3.454c0-1.034-0.556-1.59-1.395-1.59c-0.893,0-1.688,0.609-1.688,2.004v3.04h-0.545v-5.447h0.545v0.937
			c0.403-0.751,1.057-1.057,1.754-1.057c0.795,0,1.417,0.393,1.7,1.111c0.392-0.763,1.089-1.111,1.819-1.111
			C203.588,314.329,204.417,315.081,204.417,316.443z"/>
		<path fill="#FFFFFF" d="M205.576,317.173c0-1.612,1.274-2.844,2.865-2.844c1.58,0,2.854,1.231,2.854,2.844
			s-1.274,2.844-2.854,2.844C206.851,320.017,205.576,318.785,205.576,317.173z M210.74,317.173c0-1.297-1.002-2.32-2.299-2.32
			s-2.311,1.023-2.311,2.32s1.014,2.32,2.311,2.32S210.74,318.47,210.74,317.173z"/>
		<path fill="#FFFFFF" d="M217.065,314.449v5.447h-0.544v-1.035c-0.414,0.807-1.111,1.155-1.951,1.155
			c-1.297,0-2.113-0.861-2.113-2.18v-3.388h0.556v3.388c0,1.003,0.577,1.656,1.602,1.656c1.067,0,1.907-0.697,1.907-2.168v-2.876
			H217.065z"/>
		<path fill="#FFFFFF" d="M223.348,316.508v3.389h-0.556v-3.389c0-1.002-0.577-1.655-1.602-1.655c-1.067,0-1.906,0.697-1.906,2.168
			v2.876h-0.545v-5.447h0.545v1.035c0.414-0.807,1.111-1.155,1.95-1.155C222.531,314.329,223.348,315.19,223.348,316.508z"/>
		<path fill="#FFFFFF" d="M226.046,314.984v3.54c0,0.959,0.512,0.98,1.623,0.883v0.49c-1.427,0.218-2.179-0.131-2.179-1.373v-3.54
			h-1.199v-0.534h1.199v-1.362l0.556-0.163v1.525h1.623v0.534H226.046z"/>
	</g>
	<g>
		<path fill="#A68846" d="M103.408,340.042c-1.086-1.052-3.426-1.78-6.145-1.78c-2.719,0-5.058,0.729-6.146,1.78h-0.813l0.162,1.317
			c0,1.712,3.042,3.1,6.797,3.1c3.755,0,6.797-1.388,6.797-3.1l0.162-1.317H103.408z"/>
		<ellipse fill="#E2C79A" cx="97.263" cy="339.908" rx="6.959" ry="3.173"/>
		
			<linearGradient id="SVGID_21_" gradientUnits="userSpaceOnUse" x1="2849.6738" y1="-4063.8503" x2="2860.6826" y2="-4063.8503" gradientTransform="matrix(-1 0 0 -1 2952.4414 -3724.2556)">
			<stop  offset="0.005" style="stop-color:#A68846"/>
			<stop  offset="1" style="stop-color:#A68846;stop-opacity:0"/>
		</linearGradient>
		<ellipse fill="url(#SVGID_21_)" cx="97.263" cy="339.595" rx="5.504" ry="2.509"/>
		
			<linearGradient id="SVGID_22_" gradientUnits="userSpaceOnUse" x1="-76.6968" y1="1123.0608" x2="-63.7778" y2="1123.0608" gradientTransform="matrix(1 0 0 1 168 -783.9766)">
			<stop  offset="0.005" style="stop-color:#FFFFFF"/>
			<stop  offset="1" style="stop-color:#FFFFFF;stop-opacity:0"/>
		</linearGradient>
		<path opacity="0.7" fill="url(#SVGID_22_)" enable-background="new    " d="M103.386,341.426c0.533-0.449,0.836-0.963,0.836-1.51
			c0-1.753-3.116-3.173-6.959-3.173c-2.533,0-4.743,0.618-5.96,1.542L103.386,341.426z"/>
		<path fill="#A68846" d="M87.314,338.86c-1.305-1.505-4.116-2.549-7.381-2.549c-3.266,0-6.076,1.044-7.381,2.549h-0.977
			l0.194,1.886c0,2.448,3.655,4.435,8.164,4.435c4.508,0,8.164-1.985,8.164-4.435l0.194-1.886H87.314L87.314,338.86z"/>
		<ellipse fill="#E2C79A" cx="79.934" cy="338.669" rx="8.358" ry="4.54"/>
		
			<linearGradient id="SVGID_23_" gradientUnits="userSpaceOnUse" x1="2865.8965" y1="-4062.4763" x2="2879.1182" y2="-4062.4763" gradientTransform="matrix(-1 0 0 -1 2952.4414 -3724.2556)">
			<stop  offset="0.005" style="stop-color:#A68846"/>
			<stop  offset="1" style="stop-color:#A68846;stop-opacity:0"/>
		</linearGradient>
		<ellipse fill="url(#SVGID_23_)" cx="79.934" cy="338.221" rx="6.611" ry="3.59"/>
		
			<linearGradient id="SVGID_24_" gradientUnits="userSpaceOnUse" x1="-95.2251" y1="1121.467" x2="-79.708" y2="1121.467" gradientTransform="matrix(1 0 0 1 168 -783.9766)">
			<stop  offset="0.005" style="stop-color:#FFFFFF"/>
			<stop  offset="1" style="stop-color:#FFFFFF;stop-opacity:0"/>
		</linearGradient>
		<path opacity="0.7" fill="url(#SVGID_24_)" enable-background="new    " d="M87.288,340.84c0.64-0.644,1.004-1.377,1.004-2.158
			c0-2.507-3.742-4.54-8.358-4.54c-3.042,0-5.697,0.886-7.159,2.205L87.288,340.84z"/>
		<path fill="#A68846" d="M84.872,335.292c-1.305-1.265-4.115-2.141-7.38-2.141c-3.266,0-6.075,0.876-7.381,2.141h-0.977
			l0.194,1.582c0,2.057,3.655,3.724,8.164,3.724c4.509,0,8.164-1.667,8.164-3.724l0.194-1.582H84.872z"/>
		<ellipse fill="#E2C79A" cx="77.491" cy="335.131" rx="8.358" ry="3.811"/>
		
			<linearGradient id="SVGID_25_" gradientUnits="userSpaceOnUse" x1="2868.3398" y1="-4059.0115" x2="2881.5596" y2="-4059.0115" gradientTransform="matrix(-1 0 0 -1 2952.4414 -3724.2556)">
			<stop  offset="0.005" style="stop-color:#A68846"/>
			<stop  offset="1" style="stop-color:#A68846;stop-opacity:0"/>
		</linearGradient>
		<ellipse fill="url(#SVGID_25_)" cx="77.492" cy="334.756" rx="6.61" ry="3.014"/>
		
			<linearGradient id="SVGID_26_" gradientUnits="userSpaceOnUse" x1="-97.668" y1="1118.1165" x2="-82.1509" y2="1118.1165" gradientTransform="matrix(1 0 0 1 168 -783.9766)">
			<stop  offset="0.005" style="stop-color:#FFFFFF"/>
			<stop  offset="1" style="stop-color:#FFFFFF;stop-opacity:0"/>
		</linearGradient>
		<path opacity="0.7" fill="url(#SVGID_26_)" enable-background="new    " d="M84.846,336.953c0.64-0.539,1.003-1.155,1.003-1.813
			c0-2.104-3.741-3.812-8.358-3.812c-3.042,0-5.697,0.742-7.159,1.852L84.846,336.953z"/>
		<path fill="#A68846" d="M87.314,332.483c-1.305-1.264-4.116-2.14-7.381-2.14c-3.266,0-6.076,0.876-7.381,2.14h-0.977l0.194,1.583
			c0,2.056,3.655,3.723,8.164,3.723c4.508,0,8.164-1.667,8.164-3.723l0.194-1.583H87.314L87.314,332.483z"/>
		<ellipse fill="#E2C79A" cx="79.934" cy="332.323" rx="8.358" ry="3.811"/>
		
			<linearGradient id="SVGID_27_" gradientUnits="userSpaceOnUse" x1="2865.8965" y1="-4056.2034" x2="2879.1182" y2="-4056.2034" gradientTransform="matrix(-1 0 0 -1 2952.4414 -3724.2556)">
			<stop  offset="0.005" style="stop-color:#A68846"/>
			<stop  offset="1" style="stop-color:#A68846;stop-opacity:0"/>
		</linearGradient>
		<ellipse fill="url(#SVGID_27_)" cx="79.934" cy="331.948" rx="6.611" ry="3.015"/>
		
			<linearGradient id="SVGID_28_" gradientUnits="userSpaceOnUse" x1="-95.2251" y1="1115.3079" x2="-79.708" y2="1115.3079" gradientTransform="matrix(1 0 0 1 168 -783.9766)">
			<stop  offset="0.005" style="stop-color:#FFFFFF"/>
			<stop  offset="1" style="stop-color:#FFFFFF;stop-opacity:0"/>
		</linearGradient>
		<path opacity="0.7" fill="url(#SVGID_28_)" enable-background="new    " d="M87.288,334.144c0.64-0.539,1.004-1.157,1.004-1.813
			c0-2.104-3.742-3.812-8.358-3.812c-3.042,0-5.697,0.744-7.159,1.853L87.288,334.144z"/>
		<path fill="#A68846" d="M87.314,329.675c-1.305-1.264-4.116-2.14-7.381-2.14c-3.266,0-6.076,0.876-7.381,2.14h-0.977l0.194,1.583
			c0,2.056,3.655,3.722,8.164,3.722c4.508,0,8.164-1.666,8.164-3.722l0.194-1.583H87.314L87.314,329.675z"/>
		<ellipse fill="#E2C79A" cx="79.934" cy="329.513" rx="8.358" ry="3.812"/>
		
			<linearGradient id="SVGID_29_" gradientUnits="userSpaceOnUse" x1="2865.8965" y1="-4053.3933" x2="2879.1182" y2="-4053.3933" gradientTransform="matrix(-1 0 0 -1 2952.4414 -3724.2556)">
			<stop  offset="0.005" style="stop-color:#A68846"/>
			<stop  offset="1" style="stop-color:#A68846;stop-opacity:0"/>
		</linearGradient>
		<ellipse fill="url(#SVGID_29_)" cx="79.934" cy="329.138" rx="6.611" ry="3.015"/>
		
			<linearGradient id="SVGID_30_" gradientUnits="userSpaceOnUse" x1="-95.2251" y1="1112.4993" x2="-79.708" y2="1112.4993" gradientTransform="matrix(1 0 0 1 168 -783.9766)">
			<stop  offset="0.005" style="stop-color:#FFFFFF"/>
			<stop  offset="1" style="stop-color:#FFFFFF;stop-opacity:0"/>
		</linearGradient>
		<path opacity="0.7" fill="url(#SVGID_30_)" enable-background="new    " d="M87.288,331.335c0.64-0.538,1.004-1.155,1.004-1.813
			c0-2.104-3.742-3.811-8.358-3.811c-3.042,0-5.697,0.743-7.159,1.852L87.288,331.335z"/>
		<path fill="#A68846" d="M85.471,326.868c-1.305-1.264-4.115-2.141-7.381-2.141c-3.266,0-6.075,0.876-7.38,2.141h-0.978
			l0.194,1.583c0,2.057,3.655,3.723,8.164,3.723c4.509,0,8.164-1.667,8.164-3.723l0.195-1.583H85.471L85.471,326.868z"/>
		<ellipse fill="#E2C79A" cx="78.091" cy="326.707" rx="8.358" ry="3.811"/>
		
			<linearGradient id="SVGID_31_" gradientUnits="userSpaceOnUse" x1="2867.7422" y1="-4050.5872" x2="2880.9629" y2="-4050.5872" gradientTransform="matrix(-1 0 0 -1 2952.4414 -3724.2556)">
			<stop  offset="0.005" style="stop-color:#A68846"/>
			<stop  offset="1" style="stop-color:#A68846;stop-opacity:0"/>
		</linearGradient>
		<ellipse fill="url(#SVGID_31_)" cx="78.089" cy="326.332" rx="6.61" ry="3.015"/>
		
			<linearGradient id="SVGID_32_" gradientUnits="userSpaceOnUse" x1="-97.0688" y1="1109.6936" x2="-81.5508" y2="1109.6936" gradientTransform="matrix(1 0 0 1 168 -783.9766)">
			<stop  offset="0.005" style="stop-color:#FFFFFF"/>
			<stop  offset="1" style="stop-color:#FFFFFF;stop-opacity:0"/>
		</linearGradient>
		<path opacity="0.7" fill="url(#SVGID_32_)" enable-background="new    " d="M85.445,328.529c0.64-0.538,1.004-1.154,1.004-1.812
			c0-2.104-3.742-3.812-8.359-3.812c-3.042,0-5.697,0.743-7.159,1.853L85.445,328.529z"/>
		<path fill="#A68846" d="M95.672,347.233c-1.305-1.525-4.115-2.585-7.381-2.585s-6.075,1.06-7.381,2.585h-0.977l0.194,1.912
			c0,2.484,3.655,4.498,8.164,4.498s8.164-2.014,8.164-4.498l0.195-1.912H95.672z"/>
		<ellipse fill="#E2C79A" cx="88.292" cy="347.038" rx="8.358" ry="4.605"/>
		
			<linearGradient id="SVGID_33_" gradientUnits="userSpaceOnUse" x1="2857.5391" y1="-4070.8401" x2="2870.7598" y2="-4070.8401" gradientTransform="matrix(-1 0 0 -1 2952.4414 -3724.2556)">
			<stop  offset="0.005" style="stop-color:#A68846"/>
			<stop  offset="1" style="stop-color:#A68846;stop-opacity:0"/>
		</linearGradient>
		<ellipse fill="url(#SVGID_33_)" cx="88.292" cy="346.585" rx="6.61" ry="3.642"/>
		
			<linearGradient id="SVGID_34_" gradientUnits="userSpaceOnUse" x1="-86.8672" y1="1129.8196" x2="-71.3501" y2="1129.8196" gradientTransform="matrix(1 0 0 1 168 -783.9766)">
			<stop  offset="0.005" style="stop-color:#FFFFFF"/>
			<stop  offset="1" style="stop-color:#FFFFFF;stop-opacity:0"/>
		</linearGradient>
		<path opacity="0.7" fill="url(#SVGID_34_)" enable-background="new    " d="M95.646,349.24c0.64-0.65,1.004-1.396,1.004-2.188
			c0-2.543-3.742-4.605-8.358-4.605c-3.042,0-5.697,0.898-7.159,2.237L95.646,349.24z"/>
		<path fill="#A68846" d="M95.672,343.596c-1.305-1.264-4.115-2.141-7.381-2.141s-6.075,0.876-7.381,2.141h-0.977l0.194,1.583
			c0,2.056,3.655,3.723,8.164,3.723s8.164-1.667,8.164-3.723l0.195-1.583H95.672z"/>
		<ellipse fill="#E2C79A" cx="88.292" cy="343.436" rx="8.358" ry="3.811"/>
		
			<linearGradient id="SVGID_35_" gradientUnits="userSpaceOnUse" x1="2857.5391" y1="-4067.3157" x2="2870.7598" y2="-4067.3157" gradientTransform="matrix(-1 0 0 -1 2952.4414 -3724.2556)">
			<stop  offset="0.005" style="stop-color:#A68846"/>
			<stop  offset="1" style="stop-color:#A68846;stop-opacity:0"/>
		</linearGradient>
		<ellipse fill="url(#SVGID_35_)" cx="88.292" cy="343.06" rx="6.61" ry="3.013"/>
		
			<linearGradient id="SVGID_36_" gradientUnits="userSpaceOnUse" x1="-86.8672" y1="1126.4221" x2="-71.3501" y2="1126.4221" gradientTransform="matrix(1 0 0 1 168 -783.9766)">
			<stop  offset="0.005" style="stop-color:#FFFFFF"/>
			<stop  offset="1" style="stop-color:#FFFFFF;stop-opacity:0"/>
		</linearGradient>
		<path opacity="0.7" fill="url(#SVGID_36_)" enable-background="new    " d="M95.646,345.258c0.64-0.538,1.004-1.156,1.004-1.813
			c0-2.104-3.742-3.811-8.358-3.811c-3.042,0-5.697,0.742-7.159,1.852L95.646,345.258z"/>
		<path fill="#A68846" d="M103.907,331.186c-1.086-1.051-3.426-1.781-6.146-1.781c-2.718,0-5.058,0.73-6.145,1.781h-0.812
			l0.162,1.318c0,1.712,3.042,3.1,6.796,3.1c3.755,0,6.798-1.388,6.798-3.1l0.162-1.318H103.907z"/>
		<ellipse fill="#E2C79A" cx="97.763" cy="331.052" rx="6.959" ry="3.174"/>
		
			<linearGradient id="SVGID_37_" gradientUnits="userSpaceOnUse" x1="2849.1758" y1="-4054.9954" x2="2860.1836" y2="-4054.9954" gradientTransform="matrix(-1 0 0 -1 2952.4414 -3724.2556)">
			<stop  offset="0.005" style="stop-color:#A68846"/>
			<stop  offset="1" style="stop-color:#A68846;stop-opacity:0"/>
		</linearGradient>
		<ellipse fill="url(#SVGID_37_)" cx="97.762" cy="330.74" rx="5.504" ry="2.509"/>
		
			<linearGradient id="SVGID_38_" gradientUnits="userSpaceOnUse" x1="-76.1992" y1="1114.2053" x2="-63.2788" y2="1114.2053" gradientTransform="matrix(1 0 0 1 168 -783.9766)">
			<stop  offset="0.005" style="stop-color:#FFFFFF"/>
			<stop  offset="1" style="stop-color:#FFFFFF;stop-opacity:0"/>
		</linearGradient>
		<path opacity="0.7" fill="url(#SVGID_38_)" enable-background="new    " d="M103.885,332.57c0.533-0.447,0.836-0.962,0.836-1.509
			c0-1.752-3.116-3.173-6.96-3.173c-2.533,0-4.743,0.619-5.96,1.542L103.885,332.57z"/>
		
			<linearGradient id="SVGID_39_" gradientUnits="userSpaceOnUse" x1="3955.4004" y1="-2434.239" x2="4011.7754" y2="-2434.239" gradientTransform="matrix(0.7071 -0.7071 -0.7071 -0.7071 -4458.1113 1459.7161)">
			<stop  offset="0" style="stop-color:#4B48BF"/>
			<stop  offset="1" style="stop-color:#A14B8A"/>
		</linearGradient>
		<path fill="url(#SVGID_39_)" d="M125.851,370.227L95.42,382.125l-61.404-24.008l30.432-11.897L125.851,370.227z"/>
		<path opacity="0.2" enable-background="new    " d="M74.563,372.319l14.15,5.532c4.102-0.985,9.311-0.985,13.416,0l12.796-5.003
			c-2.523-1.604-2.523-3.642,0-5.245l-14.151-5.532c1.828,2.787-0.045,5.867-5.623,8.051
			C89.572,372.302,81.69,373.035,74.563,372.319z M85.308,356.023l-14.15-5.531c-4.102,0.986-9.311,0.986-13.416,0l-12.795,5.004
			c2.521,1.604,2.521,3.641,0,5.243l14.15,5.533c-1.83-2.787,0.041-5.868,5.623-8.049C70.3,356.042,78.181,355.309,85.308,356.023z"
			/>
		<path opacity="0.1" fill="#FFFFFF" enable-background="new    " d="M64.274,346.153l61.577,24.074l-30.594,11.961L64.274,346.153z
			"/>
		
			<linearGradient id="SVGID_40_" gradientUnits="userSpaceOnUse" x1="4055.0293" y1="-2733.4119" x2="4083.1826" y2="-2733.4119" gradientTransform="matrix(0.7071 -0.7071 -0.7071 -0.7071 -4730.126 1308.6418)">
			<stop  offset="0" style="stop-color:#4B48BF"/>
			<stop  offset="1" style="stop-color:#A14B8A"/>
		</linearGradient>
		<ellipse fill="url(#SVGID_40_)" cx="79.935" cy="364.174" rx="18.535" ry="7.247"/>
		<path opacity="0.2" enable-background="new    " d="M125.851,370.227l-30.433,11.896l-61.402-24.007l30.432-11.897
			L125.851,370.227z"/>
		
			<linearGradient id="SVGID_41_" gradientUnits="userSpaceOnUse" x1="3957.6436" y1="-2431.9963" x2="4014.0176" y2="-2431.9963" gradientTransform="matrix(0.7071 -0.7071 -0.7071 -0.7071 -4458.1113 1459.7161)">
			<stop  offset="0" style="stop-color:#4B48BF"/>
			<stop  offset="1" style="stop-color:#A14B8A"/>
		</linearGradient>
		<path fill="url(#SVGID_41_)" d="M125.851,367.055L95.42,378.953l-61.404-24.009l30.432-11.896L125.851,367.055z"/>
		<path opacity="0.2" enable-background="new    " d="M74.563,369.147l14.15,5.532c4.102-0.986,9.311-0.986,13.416,0l12.796-5.003
			c-2.523-1.604-2.523-3.642,0-5.245l-14.151-5.532c1.828,2.787-0.045,5.867-5.623,8.051
			C89.572,369.131,81.69,369.863,74.563,369.147z M85.308,352.851l-14.15-5.532c-4.102,0.987-9.311,0.987-13.416,0l-12.795,5.005
			c2.521,1.604,2.521,3.641,0,5.243l14.15,5.533c-1.83-2.787,0.041-5.868,5.623-8.049C70.3,352.87,78.181,352.137,85.308,352.851z"
			/>
		<path opacity="0.1" fill="#FFFFFF" enable-background="new    " d="M64.274,342.981l61.577,24.074l-30.594,11.961L64.274,342.981z
			"/>
		
			<linearGradient id="SVGID_42_" gradientUnits="userSpaceOnUse" x1="4057.2725" y1="-2731.1677" x2="4085.4258" y2="-2731.1677" gradientTransform="matrix(0.7071 -0.7071 -0.7071 -0.7071 -4730.126 1308.6418)">
			<stop  offset="0" style="stop-color:#4B48BF"/>
			<stop  offset="1" style="stop-color:#A14B8A"/>
		</linearGradient>
		<ellipse fill="url(#SVGID_42_)" cx="79.935" cy="361.001" rx="18.535" ry="7.247"/>
		<path opacity="0.2" enable-background="new    " d="M125.851,367.055l-30.433,11.896l-61.402-24.008l30.432-11.896
			L125.851,367.055z"/>
		
			<linearGradient id="SVGID_43_" gradientUnits="userSpaceOnUse" x1="3959.8867" y1="-2429.7537" x2="4016.2598" y2="-2429.7537" gradientTransform="matrix(0.7071 -0.7071 -0.7071 -0.7071 -4458.1113 1459.7161)">
			<stop  offset="0" style="stop-color:#4B48BF"/>
			<stop  offset="1" style="stop-color:#A14B8A"/>
		</linearGradient>
		<path fill="url(#SVGID_43_)" d="M125.851,363.884L95.42,375.781l-61.404-24.009l30.432-11.897L125.851,363.884z"/>
		<path opacity="0.2" enable-background="new    " d="M74.563,365.975l14.15,5.532c4.102-0.986,9.311-0.986,13.416,0l12.796-5.003
			c-2.523-1.604-2.523-3.643,0-5.245l-14.151-5.532c1.828,2.787-0.045,5.867-5.623,8.05
			C89.572,365.958,81.69,366.691,74.563,365.975z M85.308,349.679l-14.15-5.532c-4.102,0.987-9.311,0.987-13.416,0l-12.795,5.004
			c2.521,1.604,2.521,3.641,0,5.244l14.15,5.533c-1.83-2.787,0.041-5.868,5.623-8.049C70.3,349.698,78.181,348.966,85.308,349.679z"
			/>
		<path opacity="0.1" fill="#FFFFFF" enable-background="new    " d="M64.274,339.809l61.577,24.074l-30.594,11.961L64.274,339.809z
			"/>
		
			<linearGradient id="SVGID_44_" gradientUnits="userSpaceOnUse" x1="4059.5156" y1="-2728.9255" x2="4087.668" y2="-2728.9255" gradientTransform="matrix(0.7071 -0.7071 -0.7071 -0.7071 -4730.126 1308.6418)">
			<stop  offset="0" style="stop-color:#4B48BF"/>
			<stop  offset="1" style="stop-color:#A14B8A"/>
		</linearGradient>
		<ellipse fill="url(#SVGID_44_)" cx="79.935" cy="357.829" rx="18.535" ry="7.247"/>
	</g>
</g>
</svg>
