<?xml version="1.0" encoding="utf-8"?>
<!-- Generator: Adobe Illustrator 16.0.0, SVG Export Plug-In . SVG Version: 6.00 Build 0)  -->
<!DOCTYPE svg PUBLIC "-//W3C//DTD SVG 1.1//EN" "http://www.w3.org/Graphics/SVG/1.1/DTD/svg11.dtd">
<svg version="1.1" id="Layer_1" xmlns="http://www.w3.org/2000/svg" xmlns:xlink="http://www.w3.org/1999/xlink" x="0px" y="0px"
	 width="408.142px" height="239.98px" viewBox="0 0 408.142 239.98" enable-background="new 0 0 408.142 239.98"
	 xml:space="preserve">
<g>
	
		<linearGradient id="SVGID_1_" gradientUnits="userSpaceOnUse" x1="3717.5474" y1="-2757.7588" x2="3914.9028" y2="-2757.7588" gradientTransform="matrix(4.366649e-008 1 1 -4.366649e-008 2961.9136 -3717.5479)">
		<stop  offset="0" style="stop-color:#4B48BF"/>
		<stop  offset="1" style="stop-color:#5248BB;stop-opacity:0"/>
	</linearGradient>
	<path fill="url(#SVGID_1_)" d="M0.169,197.355V8.085C0.169,3.62,3.79,0,8.255,0h391.802c4.467,0,8.085,3.62,8.085,8.085v189.271
		H0.169L0.169,197.355z"/>
	
		<linearGradient id="SVGID_2_" gradientUnits="userSpaceOnUse" x1="4823.9771" y1="292.1309" x2="5126.1138" y2="292.1309" gradientTransform="matrix(-1 0 0 1 5126.1143 -232.9561)">
		<stop  offset="0" style="stop-color:#4B48BF"/>
		<stop  offset="1" style="stop-color:#5248BB;stop-opacity:0"/>
	</linearGradient>
	<path fill="url(#SVGID_2_)" d="M8.085,0h294.052L0,118.349V8.085C0,3.62,3.62,0,8.085,0z"/>
	<g>
		<g>
			<path fill="#FFFFFF" d="M261.254,62.019l2.417-1.401c0.438,1.016,1.191,1.699,2.575,1.699c1.332,0,1.664-0.525,1.664-0.999
				c0-0.753-0.701-1.051-2.54-1.559c-1.821-0.508-3.608-1.384-3.608-3.731c0-2.365,1.997-3.731,4.117-3.731
				c2.014,0,3.591,0.963,4.484,2.768l-2.365,1.384c-0.42-0.876-0.999-1.419-2.12-1.419c-0.876,0-1.314,0.438-1.314,0.928
				c0,0.561,0.298,0.946,2.207,1.524c1.857,0.561,3.941,1.209,3.941,3.801c0,2.365-1.892,3.766-4.554,3.766
				C263.583,65.049,261.937,63.823,261.254,62.019z"/>
			<path fill="#FFFFFF" d="M271.765,53.698c0-0.858,0.718-1.577,1.577-1.577c0.859,0,1.577,0.718,1.577,1.577
				c0,0.859-0.718,1.577-1.577,1.577C272.483,55.275,271.765,54.557,271.765,53.698z M272.027,56.045h2.627v8.759h-2.627V56.045z"/>
			<path fill="#FFFFFF" d="M289.72,59.426v5.378h-2.627v-5.15c0-0.876-0.42-1.437-1.261-1.437c-0.876,0-1.366,0.613-1.366,1.646
				v4.94h-2.627v-5.15c0-0.876-0.42-1.437-1.261-1.437c-0.876,0-1.367,0.613-1.367,1.646v4.94h-2.627v-8.759h2.627v0.806
				c0.403-0.596,1.174-1.051,2.348-1.051c1.033,0,1.804,0.42,2.294,1.156c0.491-0.701,1.296-1.156,2.54-1.156
				C288.406,55.8,289.72,57.237,289.72,59.426z"/>
			<path fill="#FFFFFF" d="M300.949,60.425c0,2.61-1.892,4.625-4.187,4.625c-1.174,0-2.032-0.403-2.61-1.068v4.327h-2.627V56.045
				h2.627v0.824c0.578-0.666,1.437-1.069,2.61-1.069C299.057,55.8,300.949,57.815,300.949,60.425z M298.322,60.425
				c0-1.313-0.876-2.137-2.084-2.137c-1.209,0-2.085,0.824-2.085,2.137c0,1.314,0.876,2.137,2.085,2.137
				C297.446,62.562,298.322,61.739,298.322,60.425z"/>
			<path fill="#FFFFFF" d="M302.439,52.017h2.627v12.788h-2.627V52.017z"/>
			<path fill="#FFFFFF" d="M311.442,62.702c0.718,0,1.332-0.28,1.682-0.666l2.102,1.208c-0.858,1.191-2.154,1.804-3.818,1.804
				c-2.996,0-4.853-2.014-4.853-4.625c0-2.61,1.892-4.625,4.66-4.625c2.558,0,4.449,1.979,4.449,4.625
				c0,0.368-0.035,0.718-0.105,1.051h-6.219C309.673,62.387,310.479,62.702,311.442,62.702z M313.054,59.514
				c-0.28-1.016-1.069-1.384-1.857-1.384c-0.999,0-1.664,0.49-1.909,1.384H313.054z"/>
			<path fill="#FFFFFF" d="M290.648,70.195v8.759h-2.627V78.13c-0.473,0.648-1.349,1.068-2.505,1.068
				c-1.77,0-3.276-1.261-3.276-3.626v-5.378h2.627v4.993c0,1.086,0.683,1.594,1.524,1.594c0.964,0,1.629-0.561,1.629-1.805v-4.782
				L290.648,70.195L290.648,70.195z"/>
			<path fill="#FFFFFF" d="M299.285,76.326c0,2.014-1.752,2.873-3.644,2.873c-1.752,0-3.083-0.666-3.767-2.084l2.277-1.296
				c0.228,0.666,0.718,1.034,1.489,1.034c0.63,0,0.946-0.193,0.946-0.543c0-0.963-4.309-0.456-4.309-3.486
				c0-1.91,1.611-2.873,3.433-2.873c1.419,0,2.68,0.631,3.416,1.875l-2.242,1.208c-0.246-0.455-0.596-0.771-1.174-0.771
				c-0.456,0-0.736,0.175-0.736,0.49C294.976,73.751,299.285,73.085,299.285,76.326z"/>
			<path fill="#FFFFFF" d="M304.961,76.852c0.718,0,1.332-0.28,1.682-0.666l2.102,1.208c-0.858,1.191-2.154,1.804-3.818,1.804
				c-2.996,0-4.853-2.014-4.853-4.625c0-2.61,1.892-4.625,4.66-4.625c2.558,0,4.449,1.979,4.449,4.625
				c0,0.368-0.035,0.718-0.105,1.051h-6.219C303.192,76.536,303.998,76.852,304.961,76.852z M306.573,73.664
				c-0.28-1.016-1.069-1.384-1.857-1.384c-0.999,0-1.664,0.49-1.909,1.384H306.573z"/>
			<path fill="#FFFFFF" d="M315.927,70.02v2.978c-1.086-0.175-2.628,0.263-2.628,1.997v3.959h-2.627v-8.759h2.627v1.559
				C313.65,70.581,314.823,70.02,315.927,70.02z"/>
		</g>
	</g>
	<g>
		<g>
			<path fill="#FFFFFF" d="M131.138,85.948l6.58-14.804h0.658l-6.58,14.804H131.138z"/>
			<path fill="#FFFFFF" d="M148.987,80.191c0,2.435-1.908,4.293-4.26,4.293c-1.596,0-2.862-0.823-3.537-2.089v5.198h-0.822V76.079
				h0.822v1.908c0.674-1.267,1.941-2.089,3.537-2.089C147.079,75.898,148.987,77.756,148.987,80.191z M148.165,80.191
				c0-1.958-1.53-3.503-3.487-3.503c-1.957,0-3.487,1.546-3.487,3.503s1.53,3.504,3.487,3.504
				C146.635,83.695,148.165,82.148,148.165,80.191z"/>
			<path fill="#FFFFFF" d="M158.744,80.224c0,0.131-0.016,0.263-0.016,0.395h-7.452c0.198,1.859,1.612,3.076,3.487,3.076
				c1.349,0,2.369-0.625,2.846-1.497l0.724,0.428c-0.674,1.119-1.958,1.859-3.586,1.859c-2.533,0-4.326-1.81-4.326-4.293
				c0-2.418,1.743-4.293,4.26-4.293C157.181,75.898,158.744,77.97,158.744,80.224z M151.276,79.813h6.613
				c-0.181-2.007-1.596-3.125-3.208-3.125C152.806,76.688,151.44,77.987,151.276,79.813z"/>
			<path fill="#FFFFFF" d="M164.24,75.963v0.79c-1.415,0-2.747,0.872-2.747,2.978v4.573h-0.822v-8.225h0.822v1.612
				C162.052,76.391,163.121,75.963,164.24,75.963z"/>
			<path fill="#FFFFFF" d="M182.072,79.089v5.214h-0.822v-5.214c0-1.563-0.905-2.401-2.188-2.401c-1.381,0-2.467,0.921-2.467,3.026
				v4.589h-0.822v-5.214c0-1.563-0.839-2.401-2.105-2.401c-1.349,0-2.55,0.921-2.55,3.026v4.589h-0.822v-8.225h0.822v1.415
				c0.609-1.135,1.596-1.595,2.648-1.595c1.201,0,2.138,0.592,2.566,1.678c0.592-1.151,1.645-1.678,2.747-1.678
				C180.822,75.898,182.072,77.033,182.072,79.089z"/>
			<path fill="#FFFFFF" d="M183.836,80.191c0-2.435,1.924-4.293,4.326-4.293c2.385,0,4.31,1.858,4.31,4.293s-1.925,4.293-4.31,4.293
				C185.76,84.484,183.836,82.625,183.836,80.191z M191.632,80.191c0-1.958-1.513-3.503-3.471-3.503
				c-1.957,0-3.487,1.546-3.487,3.503s1.53,3.504,3.487,3.504C190.119,83.695,191.632,82.148,191.632,80.191z"/>
			<path fill="#FFFFFF" d="M201.406,79.188v5.116h-0.839v-5.116c0-1.513-0.872-2.5-2.418-2.5c-1.612,0-2.879,1.053-2.879,3.273
				v4.343h-0.822v-8.225h0.822v1.563c0.625-1.217,1.678-1.744,2.944-1.744C200.172,75.898,201.406,77.197,201.406,79.188z"/>
			<path fill="#FFFFFF" d="M205.487,76.885v5.346c0,1.448,0.773,1.48,2.451,1.333v0.74c-2.155,0.329-3.29-0.197-3.29-2.073v-5.346
				h-1.809v-0.806h1.809v-2.056l0.839-0.247v2.303h2.451v0.806H205.487z"/>
			<path fill="#FFFFFF" d="M216.871,79.188v5.116h-0.839v-5.116c0-1.513-0.872-2.5-2.418-2.5c-1.612,0-2.879,1.053-2.879,3.273
				v4.343h-0.822V72.789h0.822v4.853c0.625-1.217,1.678-1.744,2.944-1.744C215.637,75.898,216.871,77.197,216.871,79.188z"/>
			<path fill="#FFFFFF" d="M222.417,74.96l-1.563-0.033l0.872,1.299l-0.642,0.378l-0.806-1.382l-0.79,1.382l-0.658-0.378
				l0.872-1.299l-1.563,0.033v-0.708l1.563,0.033l-0.872-1.299l0.658-0.378l0.79,1.365l0.806-1.365l0.642,0.378l-0.872,1.299
				l1.563-0.033V74.96z"/>
		</g>
	</g>
	<g>
		<g>
			
				<linearGradient id="SVGID_3_" gradientUnits="userSpaceOnUse" x1="3404.3267" y1="506.5195" x2="3410.5024" y2="506.5195" gradientTransform="matrix(-4.371139e-008 1 -1 -4.371139e-008 647.6353 -3352.5059)">
				<stop  offset="0" style="stop-color:#FFFFFF"/>
				<stop  offset="0.5453" style="stop-color:#EEEEEE"/>
				<stop  offset="1" style="stop-color:#E6E6E6"/>
			</linearGradient>
			<path fill="url(#SVGID_3_)" d="M148.835,53.543c-1.099,4.246-4.157,5.227-7.394,3.86c-3-1.247-3.712-1.515-4.484,0.594
				l-3.563-1.722c1.098-4.246,4.157-5.227,7.394-3.861c2.999,1.248,3.681,1.485,4.483-0.593L148.835,53.543z"/>
			
				<linearGradient id="SVGID_4_" gradientUnits="userSpaceOnUse" x1="3396.9634" y1="490.4043" x2="3417.7495" y2="490.4043" gradientTransform="matrix(-4.371139e-008 1 -1 -4.371139e-008 647.6353 -3352.5059)">
				<stop  offset="0" style="stop-color:#FFFFFF"/>
				<stop  offset="0.5453" style="stop-color:#EEEEEE"/>
				<stop  offset="1" style="stop-color:#E6E6E6"/>
			</linearGradient>
			<path fill="url(#SVGID_4_)" d="M162.026,44.458v20.786h-4.75V49.476l-3.682,1.01l-1.158-4.069l5.434-1.959H162.026z"/>
			
				<linearGradient id="SVGID_5_" gradientUnits="userSpaceOnUse" x1="3396.5474" y1="473.4648" x2="3418.1646" y2="473.4648" gradientTransform="matrix(-4.371139e-008 1 -1 -4.371139e-008 647.6353 -3352.5059)">
				<stop  offset="0" style="stop-color:#FFFFFF"/>
				<stop  offset="0.5453" style="stop-color:#EEEEEE"/>
				<stop  offset="1" style="stop-color:#E6E6E6"/>
			</linearGradient>
			<path fill="url(#SVGID_5_)" d="M165.707,54.851c0-6.414,3.088-10.809,8.462-10.809c5.375,0,8.463,4.395,8.463,10.809
				s-3.087,10.808-8.463,10.808C168.794,65.659,165.707,61.265,165.707,54.851z M177.881,54.851c0-4.009-1.218-6.176-3.712-6.176
				s-3.711,2.167-3.711,6.176c0,4.008,1.217,6.176,3.711,6.176C176.664,61.027,177.881,58.859,177.881,54.851z"/>
			
				<linearGradient id="SVGID_6_" gradientUnits="userSpaceOnUse" x1="3396.5474" y1="454.7598" x2="3418.1646" y2="454.7598" gradientTransform="matrix(-4.371139e-008 1 -1 -4.371139e-008 647.6353 -3352.5059)">
				<stop  offset="0" style="stop-color:#FFFFFF"/>
				<stop  offset="0.5453" style="stop-color:#EEEEEE"/>
				<stop  offset="1" style="stop-color:#E6E6E6"/>
			</linearGradient>
			<path fill="url(#SVGID_6_)" d="M184.412,54.851c0-6.414,3.088-10.809,8.462-10.809c5.375,0,8.464,4.395,8.464,10.809
				s-3.088,10.808-8.464,10.808C187.5,65.659,184.412,61.265,184.412,54.851z M196.587,54.851c0-4.009-1.218-6.176-3.713-6.176
				c-2.493,0-3.71,2.167-3.71,6.176c0,4.008,1.217,6.176,3.71,6.176C195.369,61.027,196.587,58.859,196.587,54.851z"/>
			
				<linearGradient id="SVGID_7_" gradientUnits="userSpaceOnUse" x1="3393.9946" y1="433.0244" x2="3420.7173" y2="433.0244" gradientTransform="matrix(-4.371139e-008 1 -1 -4.371139e-008 647.6353 -3352.5059)">
				<stop  offset="0" style="stop-color:#FFFFFF"/>
				<stop  offset="0.5453" style="stop-color:#EEEEEE"/>
				<stop  offset="1" style="stop-color:#E6E6E6"/>
			</linearGradient>
			<path fill="url(#SVGID_7_)" d="M216.066,65.599v2.613h-2.079v-2.584c-3.355-0.237-5.85-1.959-6.919-4.81l4.097-2.375
				c0.624,1.425,1.485,2.256,2.822,2.494v-4.098c-0.118-0.059-0.267-0.088-0.386-0.147c-2.583-1.04-5.671-2.495-5.671-6.474
				c0-3.86,2.909-5.85,6.057-6.146v-2.583h2.079v2.643c2.554,0.326,4.692,1.692,5.85,4.305l-4.009,2.346
				c-0.385-1.039-0.98-1.633-1.841-1.93v4.009c2.583,1.099,6.087,2.079,6.087,6.414C222.153,62.987,219.599,65.184,216.066,65.599z
				 M213.987,51.881v-3.118c-0.861,0.208-1.306,0.771-1.306,1.484C212.681,50.812,212.948,51.287,213.987,51.881z M217.402,59.334
				c0-0.743-0.445-1.188-1.336-1.633v3.177C217.075,60.611,217.402,59.957,217.402,59.334z"/>
		</g>
	</g>
	<g>
		<g>
			<g>
				<g>
					<g>
						<g>
							<path opacity="0.5" enable-background="new    " d="M337.956,137.704c0-5.329,2.87-9.988,7.147-12.517h-13.516
								c-0.754,3.164-3.244,5.652-6.407,6.407v12.221c3.163,0.754,5.652,3.243,6.407,6.406h13.516
								C340.826,147.691,337.956,143.033,337.956,137.704z"/>
							<path opacity="0.5" enable-background="new    " d="M367.021,137.704c0,5.329-2.869,9.988-7.146,12.517h13.516
								c0.754-3.164,3.243-5.652,6.407-6.406v-12.221c-3.164-0.754-5.652-3.243-6.407-6.407h-13.516
								C364.152,127.715,367.021,132.375,367.021,137.704z"/>
							
								<linearGradient id="SVGID_8_" gradientUnits="userSpaceOnUse" x1="2465.4243" y1="-3062.79" x2="2490.4614" y2="-3062.79" gradientTransform="matrix(0 -1 1 0 3415.2788 2615.647)">
								<stop  offset="0" style="stop-color:#4B48BF"/>
								<stop  offset="1" style="stop-color:#A14B8A"/>
							</linearGradient>
							<circle fill="url(#SVGID_8_)" cx="352.489" cy="137.704" r="12.519"/>
						</g>
					</g>
					<g>
						
							<linearGradient id="SVGID_9_" gradientUnits="userSpaceOnUse" x1="2379.8228" y1="-2761.8096" x2="2408.8862" y2="-2761.8096" gradientTransform="matrix(0 -1 1 0 3116.1108 2530.1313)">
							<stop  offset="0" style="stop-color:#4B48BF"/>
							<stop  offset="1" style="stop-color:#A14B8A"/>
						</linearGradient>
						<rect x="324.978" y="121.245" fill="url(#SVGID_9_)" width="58.647" height="29.064"/>
						<path opacity="0.2" enable-background="new    " d="M339.769,135.777c0-5.329,2.87-9.987,7.147-12.517H333.4
							c-0.755,3.164-3.243,5.652-6.407,6.407v12.222c3.164,0.754,5.652,3.243,6.407,6.406h13.516
							C342.639,145.765,339.769,141.106,339.769,135.777z"/>
						<path opacity="0.2" enable-background="new    " d="M368.834,135.777c0,5.33-2.869,9.988-7.146,12.518h13.516
							c0.754-3.164,3.243-5.652,6.407-6.406v-12.222c-3.164-0.754-5.652-3.243-6.407-6.407h-13.516
							C365.965,125.79,368.834,130.448,368.834,135.777z"/>
						<polygon opacity="0.1" fill="#FFFFFF" enable-background="new    " points="324.978,150.466 324.978,121.245 383.79,121.245 
													"/>
						
							<linearGradient id="SVGID_10_" gradientUnits="userSpaceOnUse" x1="2467.3501" y1="-3060.9766" x2="2492.3882" y2="-3060.9766" gradientTransform="matrix(0 -1 1 0 3415.2788 2615.647)">
							<stop  offset="0" style="stop-color:#4B48BF"/>
							<stop  offset="1" style="stop-color:#A14B8A"/>
						</linearGradient>
						<circle fill="url(#SVGID_10_)" cx="354.302" cy="135.778" r="12.519"/>
					</g>
				</g>
				<g>
					<g enable-background="new    ">
						<path fill="#FFFFFF" d="M359.096,138.453c0,2.904-2.263,4.413-4.809,4.413c-2.094,0-3.904-0.886-4.715-2.828l2.603-1.51
							c0.302,0.868,0.868,1.396,2.112,1.396s1.792-0.66,1.792-1.472c0-0.811-0.547-1.471-1.697-1.471h-4.13l0.547-7.582h7.638v2.829
							h-4.809l-0.132,1.811h1.075C357.021,134.04,359.096,135.549,359.096,138.453z"/>
					</g>
				</g>
				<g opacity="0.7">
					<path fill="#FFFFFF" d="M334.034,141.396v1.273h-0.665v-1.26c-1.556-0.07-2.716-0.792-3.154-2.008l0.65-0.368
						c0.326,0.991,1.188,1.584,2.504,1.656v-4.202c-1.443-0.51-2.688-1.032-2.688-2.716c0-1.471,1.188-2.462,2.688-2.56v-1.273
						h0.665v1.273c1.118,0.127,2.066,0.721,2.504,1.782l-0.637,0.354c-0.325-0.806-0.962-1.287-1.867-1.4v4.018
						c1.443,0.509,2.745,1.075,2.745,2.758C336.779,140.208,335.647,141.24,334.034,141.396z M333.369,135.723v-3.791
						c-1.16,0.099-1.939,0.849-1.939,1.839C331.43,134.889,332.252,135.313,333.369,135.723z M336.014,138.722
						c0-1.132-0.82-1.598-1.98-2.009v3.947C335.308,140.52,336.014,139.741,336.014,138.722z"/>
				</g>
				<g opacity="0.7">
					<path fill="#FFFFFF" d="M374.701,141.396v1.273h-0.665v-1.26c-1.556-0.07-2.716-0.792-3.154-2.008l0.65-0.368
						c0.326,0.991,1.188,1.584,2.504,1.656v-4.202c-1.443-0.51-2.688-1.032-2.688-2.716c0-1.471,1.188-2.462,2.688-2.56v-1.273
						h0.665v1.273c1.118,0.127,2.066,0.721,2.504,1.782l-0.637,0.354c-0.325-0.806-0.962-1.287-1.868-1.4v4.018
						c1.443,0.509,2.745,1.075,2.745,2.758C377.446,140.208,376.315,141.24,374.701,141.396z M374.037,135.723v-3.791
						c-1.16,0.099-1.938,0.849-1.938,1.839C372.098,134.889,372.919,135.313,374.037,135.723z M376.682,138.722
						c0-1.132-0.82-1.598-1.98-2.009v3.947C375.975,140.52,376.682,139.741,376.682,138.722z"/>
				</g>
			</g>
			<g>
				<path fill="#4B48BF" d="M225.245,138.399l1.952-1.132c0.354,0.821,0.962,1.372,2.079,1.372c1.075,0,1.344-0.424,1.344-0.806
					c0-0.608-0.565-0.849-2.051-1.259c-1.471-0.41-2.914-1.118-2.914-3.013c0-1.91,1.613-3.013,3.324-3.013
					c1.626,0,2.9,0.778,3.621,2.235l-1.91,1.118c-0.339-0.708-0.806-1.146-1.711-1.146c-0.707,0-1.061,0.354-1.061,0.75
					c0,0.453,0.241,0.764,1.782,1.23c1.5,0.453,3.183,0.976,3.183,3.069c0,1.91-1.527,3.042-3.678,3.042
					C227.126,140.846,225.796,139.856,225.245,138.399z"/>
				<path fill="#4B48BF" d="M233.805,137.112c0-2.108,1.599-3.734,3.749-3.734c1.372,0,2.588,0.721,3.197,1.811l-1.853,1.075
					c-0.241-0.495-0.75-0.792-1.372-0.792c-0.919,0-1.599,0.665-1.599,1.641c0,0.976,0.679,1.641,1.599,1.641
					c0.622,0,1.146-0.297,1.372-0.792l1.853,1.061c-0.608,1.103-1.811,1.825-3.197,1.825
					C235.403,140.846,233.805,139.219,233.805,137.112z"/>
				<path fill="#4B48BF" d="M248.716,133.576v7.072h-2.122v-0.665c-0.467,0.538-1.16,0.863-2.107,0.863
					c-1.853,0-3.381-1.627-3.381-3.734c0-2.108,1.528-3.734,3.381-3.734c0.948,0,1.641,0.325,2.107,0.863v-0.665H248.716
					L248.716,133.576z M246.594,137.112c0-1.061-0.708-1.726-1.683-1.726c-0.976,0-1.684,0.665-1.684,1.726s0.708,1.726,1.684,1.726
					C245.887,138.837,246.594,138.172,246.594,137.112z"/>
				<path fill="#4B48BF" d="M260.883,136.306v4.342h-2.122v-4.159c0-0.707-0.34-1.16-1.019-1.16c-0.708,0-1.104,0.495-1.104,1.33
					v3.989h-2.122v-4.159c0-0.707-0.339-1.16-1.019-1.16c-0.707,0-1.103,0.495-1.103,1.33v3.989h-2.122v-7.072h2.122v0.65
					c0.325-0.481,0.947-0.849,1.895-0.849c0.835,0,1.457,0.339,1.853,0.934c0.396-0.566,1.047-0.934,2.051-0.934
					C259.822,133.377,260.883,134.538,260.883,136.306z"/>
				<path fill="#4B48BF" d="M265.669,131.68c0-0.693,0.58-1.273,1.273-1.273c0.693,0,1.273,0.58,1.273,1.273
					c0,0.693-0.58,1.273-1.273,1.273C266.249,132.953,265.669,132.373,265.669,131.68z M265.881,133.576h2.122v7.072h-2.122V133.576
					z"/>
				<path fill="#4B48BF" d="M274.978,138.526c0,1.626-1.415,2.32-2.942,2.32c-1.415,0-2.49-0.538-3.042-1.684l1.839-1.046
					c0.184,0.537,0.58,0.834,1.203,0.834c0.509,0,0.764-0.156,0.764-0.438c0-0.778-3.479-0.368-3.479-2.815
					c0-1.542,1.301-2.32,2.772-2.32c1.146,0,2.164,0.509,2.758,1.514l-1.811,0.976c-0.198-0.368-0.481-0.623-0.947-0.623
					c-0.368,0-0.594,0.142-0.594,0.396C271.498,136.447,274.978,135.909,274.978,138.526z"/>
				<path fill="#4B48BF" d="M281.175,138.526c0,1.626-1.415,2.32-2.942,2.32c-1.415,0-2.49-0.538-3.042-1.684l1.839-1.046
					c0.184,0.537,0.58,0.834,1.203,0.834c0.509,0,0.764-0.156,0.764-0.438c0-0.778-3.479-0.368-3.479-2.815
					c0-1.542,1.301-2.32,2.772-2.32c1.146,0,2.164,0.509,2.758,1.514l-1.811,0.976c-0.198-0.368-0.481-0.623-0.947-0.623
					c-0.368,0-0.594,0.142-0.594,0.396C277.695,136.447,281.175,135.909,281.175,138.526z"/>
				<path fill="#4B48BF" d="M288.929,133.576v7.072h-2.122v-0.665c-0.382,0.523-1.089,0.863-2.022,0.863
					c-1.429,0-2.646-1.019-2.646-2.928v-4.342h2.122v4.031c0,0.877,0.552,1.287,1.23,1.287c0.778,0,1.315-0.453,1.315-1.457v-3.861
					H288.929L288.929,133.576z"/>
				<path fill="#4B48BF" d="M290.275,131.68c0-0.693,0.58-1.273,1.273-1.273c0.693,0,1.273,0.58,1.273,1.273
					c0,0.693-0.58,1.273-1.273,1.273C290.854,132.953,290.275,132.373,290.275,131.68z M290.487,133.576h2.122v7.072h-2.122V133.576
					z"/>
				<path fill="#4B48BF" d="M300.955,136.306v4.342h-2.122v-4.031c0-0.877-0.552-1.287-1.23-1.287c-0.778,0-1.315,0.453-1.315,1.457
					v3.861h-2.122v-7.072h2.122v0.665c0.382-0.523,1.089-0.863,2.022-0.863C299.739,133.377,300.955,134.396,300.955,136.306z"/>
				<path fill="#4B48BF" d="M309.671,133.576v6.719c0,2.376-1.853,3.38-3.734,3.38c-1.471,0-2.702-0.551-3.352-1.711l1.811-1.047
					c0.269,0.495,0.679,0.891,1.612,0.891c0.99,0,1.599-0.509,1.599-1.513v-0.651c-0.467,0.58-1.146,0.919-2.065,0.919
					c-2.008,0-3.479-1.641-3.479-3.593c0-1.952,1.471-3.593,3.479-3.593c0.919,0,1.599,0.339,2.065,0.919v-0.721L309.671,133.576
					L309.671,133.576z M307.606,136.97c0-0.976-0.708-1.641-1.711-1.641c-1.004,0-1.712,0.665-1.712,1.641
					c0,0.976,0.708,1.641,1.712,1.641C306.898,138.611,307.606,137.946,307.606,136.97z"/>
			</g>
		</g>
		<g>
			<g>
				<g>
					<g>
						<g>
							<path opacity="0.5" enable-background="new    " d="M338.663,182.461c0-5.329,2.869-9.988,7.146-12.518h-13.516
								c-0.755,3.164-3.244,5.653-6.407,6.407v12.221c3.163,0.755,5.652,3.244,6.407,6.406h13.516
								C341.532,192.45,338.663,187.791,338.663,182.461z"/>
							<path opacity="0.5" enable-background="new    " d="M367.728,182.461c0,5.329-2.869,9.989-7.146,12.518h13.516
								c0.754-3.164,3.243-5.651,6.407-6.407v-12.221c-3.164-0.754-5.653-3.244-6.407-6.407h-13.516
								C364.859,172.474,367.728,177.132,367.728,182.461z"/>
							
								<linearGradient id="SVGID_11_" gradientUnits="userSpaceOnUse" x1="2420.6665" y1="-3062.084" x2="2445.7036" y2="-3062.084" gradientTransform="matrix(0 -1 1 0 3415.2788 2615.647)">
								<stop  offset="0" style="stop-color:#4B48BF"/>
								<stop  offset="1" style="stop-color:#A14B8A"/>
							</linearGradient>
							<circle fill="url(#SVGID_11_)" cx="353.195" cy="182.462" r="12.519"/>
						</g>
					</g>
					<g>
						
							<linearGradient id="SVGID_12_" gradientUnits="userSpaceOnUse" x1="2335.0649" y1="-2761.1025" x2="2364.1294" y2="-2761.1025" gradientTransform="matrix(0 -1 1 0 3116.1108 2530.1313)">
							<stop  offset="0" style="stop-color:#4B48BF"/>
							<stop  offset="1" style="stop-color:#A14B8A"/>
						</linearGradient>
						<rect x="325.685" y="166.002" fill="url(#SVGID_12_)" width="58.647" height="29.064"/>
						<path opacity="0.2" enable-background="new    " d="M340.476,180.535c0-5.329,2.869-9.987,7.146-12.518h-13.516
							c-0.754,3.164-3.243,5.653-6.407,6.407v12.222c3.164,0.754,5.652,3.243,6.407,6.405h13.516
							C343.345,190.523,340.476,185.864,340.476,180.535z"/>
						<path opacity="0.2" enable-background="new    " d="M369.541,180.535c0,5.33-2.869,9.988-7.147,12.518h13.517
							c0.754-3.164,3.243-5.652,6.406-6.406v-12.222c-3.163-0.754-5.652-3.243-6.406-6.407h-13.517
							C366.672,170.547,369.541,175.206,369.541,180.535z"/>
						<polygon opacity="0.1" fill="#FFFFFF" enable-background="new    " points="325.685,195.225 325.685,166.002 384.497,166.002 
													"/>
						
							<linearGradient id="SVGID_13_" gradientUnits="userSpaceOnUse" x1="2422.5923" y1="-3060.2695" x2="2447.6313" y2="-3060.2695" gradientTransform="matrix(0 -1 1 0 3415.2788 2615.647)">
							<stop  offset="0" style="stop-color:#4B48BF"/>
							<stop  offset="1" style="stop-color:#A14B8A"/>
						</linearGradient>
						<circle fill="url(#SVGID_13_)" cx="355.009" cy="180.535" r="12.519"/>
					</g>
				</g>
				<g>
					<g enable-background="new    ">
						<path fill="#FFFFFF" d="M357.57,174.158v13.202h-3.018v-10.015l-2.338,0.642l-0.736-2.584l3.452-1.245H357.57z"/>
					</g>
				</g>
				<g opacity="0.7">
					<path fill="#FFFFFF" d="M334.74,186.154v1.273h-0.665v-1.259c-1.557-0.07-2.716-0.792-3.154-2.009l0.65-0.367
						c0.326,0.99,1.188,1.584,2.504,1.655v-4.202c-1.443-0.509-2.688-1.032-2.688-2.716c0-1.472,1.188-2.462,2.688-2.56v-1.273
						h0.665v1.273c1.118,0.126,2.066,0.721,2.504,1.782l-0.637,0.353c-0.325-0.806-0.962-1.287-1.868-1.4v4.018
						c1.444,0.509,2.745,1.075,2.745,2.758C337.485,184.966,336.354,185.998,334.74,186.154z M334.076,180.48v-3.791
						c-1.16,0.1-1.938,0.849-1.938,1.839C332.137,179.647,332.958,180.071,334.076,180.48z M336.721,183.48
						c0-1.132-0.82-1.598-1.98-2.009v3.947C336.014,185.277,336.721,184.499,336.721,183.48z"/>
				</g>
				<g>
					<g>
						<path opacity="0.7" fill="#FFFFFF" enable-background="new    " d="M375.408,186.154v1.273h-0.664v-1.259
							c-1.556-0.07-2.717-0.792-3.155-2.009l0.65-0.367c0.326,0.99,1.188,1.584,2.504,1.655v-4.202
							c-1.443-0.509-2.688-1.032-2.688-2.716c0-1.472,1.188-2.462,2.688-2.56v-1.273h0.664v1.273
							c1.118,0.126,2.066,0.721,2.504,1.782l-0.637,0.353c-0.325-0.806-0.962-1.287-1.868-1.4v4.018
							c1.444,0.509,2.745,1.075,2.745,2.758C378.153,184.966,377.021,185.998,375.408,186.154z M374.744,180.48v-3.791
							c-1.161,0.1-1.938,0.849-1.938,1.839C372.805,179.647,373.626,180.071,374.744,180.48z M377.389,183.48
							c0-1.132-0.82-1.598-1.981-2.009v3.947C376.682,185.277,377.389,184.499,377.389,183.48z"/>
					</g>
				</g>
			</g>
			<g>
				<path fill="#4B48BF" d="M224.008,178.898c0,1.881-1.513,3.395-3.465,3.395h-1.485v3.112h-2.263v-9.901h3.749
					C222.495,175.504,224.008,177.018,224.008,178.898z M221.745,178.898c0-0.721-0.509-1.273-1.202-1.273h-1.485v2.546h1.485
					C221.236,180.172,221.745,179.62,221.745,178.898z"/>
				<path fill="#4B48BF" d="M229.174,178.191v2.405c-0.877-0.142-2.122,0.212-2.122,1.612v3.197h-2.122v-7.072h2.122v1.259
					C227.335,178.644,228.283,178.191,229.174,178.191z"/>
				<path fill="#4B48BF" d="M229.6,181.869c0-2.108,1.669-3.734,3.749-3.734c2.079,0,3.749,1.626,3.749,3.734
					c0,2.107-1.669,3.734-3.749,3.734C231.269,185.604,229.6,183.977,229.6,181.869z M234.975,181.869
					c0-1.004-0.707-1.669-1.626-1.669s-1.627,0.665-1.627,1.669s0.708,1.669,1.627,1.669S234.975,182.874,234.975,181.869z"/>
				<path fill="#4B48BF" d="M238.302,178.333h2.122v7.072c0,2.207-1.019,3.154-3.253,3.027v-2.037
					c0.778,0.042,1.132-0.241,1.132-0.99L238.302,178.333L238.302,178.333z M238.089,176.438c0-0.693,0.58-1.273,1.273-1.273
					c0.693,0,1.273,0.58,1.273,1.273s-0.58,1.273-1.273,1.273C238.669,177.71,238.089,177.13,238.089,176.438z"/>
				<path fill="#4B48BF" d="M245.573,183.708c0.58,0,1.075-0.227,1.358-0.538l1.698,0.976c-0.693,0.962-1.74,1.457-3.084,1.457
					c-2.418,0-3.918-1.627-3.918-3.734c0-2.108,1.528-3.734,3.763-3.734c2.065,0,3.593,1.599,3.593,3.734
					c0,0.297-0.028,0.58-0.085,0.849h-5.021C244.145,183.453,244.795,183.708,245.573,183.708z M246.874,181.133
					c-0.226-0.82-0.863-1.117-1.499-1.117c-0.806,0-1.344,0.396-1.542,1.117H246.874z"/>
				<path fill="#4B48BF" d="M249.763,181.869c0-2.108,1.599-3.734,3.749-3.734c1.372,0,2.588,0.721,3.197,1.811l-1.853,1.075
					c-0.241-0.495-0.75-0.792-1.372-0.792c-0.919,0-1.599,0.665-1.599,1.641s0.679,1.641,1.599,1.641
					c0.622,0,1.146-0.297,1.372-0.792l1.853,1.063c-0.608,1.103-1.811,1.825-3.197,1.825
					C251.361,185.604,249.763,183.977,249.763,181.869z"/>
				<path fill="#4B48BF" d="M260.246,180.37v2.504c0,0.608,0.523,0.665,1.457,0.608v1.924c-2.772,0.283-3.579-0.552-3.579-2.532
					v-2.504h-1.131v-2.037h1.131v-1.344l2.122-0.637v1.98h1.457v2.037L260.246,180.37L260.246,180.37z"/>
				<path fill="#4B48BF" d="M266.374,176.438c0-0.693,0.58-1.273,1.273-1.273s1.273,0.58,1.273,1.273s-0.58,1.273-1.273,1.273
					C266.953,177.71,266.374,177.13,266.374,176.438z M266.585,178.333h2.122v7.072h-2.122V178.333z"/>
				<path fill="#4B48BF" d="M275.682,183.284c0,1.626-1.415,2.32-2.942,2.32c-1.415,0-2.49-0.538-3.042-1.684l1.839-1.046
					c0.184,0.537,0.58,0.834,1.203,0.834c0.509,0,0.764-0.156,0.764-0.438c0-0.778-3.479-0.368-3.479-2.815
					c0-1.542,1.301-2.32,2.772-2.32c1.146,0,2.164,0.509,2.758,1.514l-1.811,0.976c-0.198-0.368-0.48-0.623-0.947-0.623
					c-0.368,0-0.594,0.142-0.594,0.396C272.203,181.204,275.682,180.667,275.682,183.284z"/>
				<path fill="#4B48BF" d="M281.879,183.284c0,1.626-1.415,2.32-2.942,2.32c-1.415,0-2.49-0.538-3.042-1.684l1.839-1.046
					c0.184,0.537,0.58,0.834,1.203,0.834c0.509,0,0.764-0.156,0.764-0.438c0-0.778-3.479-0.368-3.479-2.815
					c0-1.542,1.301-2.32,2.772-2.32c1.146,0,2.164,0.509,2.758,1.514l-1.811,0.976c-0.198-0.368-0.48-0.623-0.947-0.623
					c-0.368,0-0.594,0.142-0.594,0.396C278.4,181.204,281.879,180.667,281.879,183.284z"/>
				<path fill="#4B48BF" d="M289.633,178.333v7.072h-2.122v-0.665c-0.382,0.523-1.089,0.863-2.022,0.863
					c-1.429,0-2.645-1.019-2.645-2.928v-4.342h2.122v4.031c0,0.877,0.552,1.287,1.23,1.287c0.778,0,1.315-0.453,1.315-1.457v-3.861
					H289.633L289.633,178.333z"/>
				<path fill="#4B48BF" d="M290.979,176.438c0-0.693,0.58-1.273,1.273-1.273s1.273,0.58,1.273,1.273s-0.58,1.273-1.273,1.273
					C291.559,177.71,290.979,177.13,290.979,176.438z M291.191,178.333h2.122v7.072h-2.122V178.333z"/>
				<path fill="#4B48BF" d="M301.66,181.063v4.342h-2.122v-4.031c0-0.877-0.552-1.287-1.23-1.287c-0.778,0-1.315,0.453-1.315,1.457
					v3.861h-2.122v-7.072h2.122v0.665c0.382-0.523,1.089-0.863,2.022-0.863C300.443,178.135,301.66,179.153,301.66,181.063z"/>
				<path fill="#4B48BF" d="M310.375,178.333v6.719c0,2.376-1.853,3.38-3.734,3.38c-1.471,0-2.702-0.551-3.353-1.711l1.811-1.047
					c0.269,0.495,0.679,0.891,1.612,0.891c0.99,0,1.599-0.509,1.599-1.513v-0.651c-0.467,0.58-1.146,0.919-2.065,0.919
					c-2.008,0-3.479-1.641-3.479-3.593s1.471-3.593,3.479-3.593c0.919,0,1.599,0.339,2.065,0.919v-0.721L310.375,178.333
					L310.375,178.333z M308.311,181.728c0-0.976-0.708-1.641-1.711-1.641c-1.004,0-1.712,0.665-1.712,1.641s0.708,1.641,1.712,1.641
					C307.603,183.369,308.311,182.704,308.311,181.728z"/>
			</g>
		</g>
		<g>
			<g>
				<g>
					<g>
						<g>
							<path opacity="0.5" enable-background="new    " d="M338.192,227.219c0-5.328,2.869-9.988,7.146-12.518h-13.516
								c-0.754,3.164-3.244,5.652-6.407,6.406v12.223c3.163,0.754,5.653,3.242,6.407,6.404h13.516
								C341.061,237.208,338.192,232.547,338.192,227.219z"/>
							<path opacity="0.5" enable-background="new    " d="M367.257,227.219c0,5.328-2.869,9.986-7.146,12.518h13.516
								c0.754-3.163,3.243-5.651,6.407-6.405v-12.224c-3.164-0.754-5.652-3.241-6.407-6.405H360.11
								C364.388,217.23,367.257,221.891,367.257,227.219z"/>
							
								<linearGradient id="SVGID_14_" gradientUnits="userSpaceOnUse" x1="2375.9087" y1="-3062.5537" x2="2400.9468" y2="-3062.5537" gradientTransform="matrix(0 -1 1 0 3415.2788 2615.647)">
								<stop  offset="0" style="stop-color:#4B48BF"/>
								<stop  offset="1" style="stop-color:#A14B8A"/>
							</linearGradient>
							<circle fill="url(#SVGID_14_)" cx="352.725" cy="227.219" r="12.519"/>
						</g>
					</g>
					<g>
						
							<linearGradient id="SVGID_15_" gradientUnits="userSpaceOnUse" x1="2290.3071" y1="-2761.5732" x2="2319.3716" y2="-2761.5732" gradientTransform="matrix(0 -1 1 0 3116.1108 2530.1313)">
							<stop  offset="0" style="stop-color:#4B48BF"/>
							<stop  offset="1" style="stop-color:#A14B8A"/>
						</linearGradient>
						<rect x="325.214" y="210.76" fill="url(#SVGID_15_)" width="58.647" height="29.064"/>
						<path opacity="0.2" enable-background="new    " d="M340.004,225.292c0-5.33,2.87-9.987,7.147-12.519h-13.516
							c-0.754,3.164-3.243,5.652-6.407,6.406v12.223c3.164,0.755,5.652,3.242,6.407,6.406h13.516
							C342.875,235.282,340.004,230.622,340.004,225.292z"/>
						<path opacity="0.2" enable-background="new    " d="M369.07,225.292c0,5.33-2.87,9.988-7.147,12.519h13.516
							c0.754-3.164,3.243-5.652,6.406-6.408V219.18c-3.164-0.754-5.652-3.242-6.406-6.406h-13.516
							C366.201,215.305,369.07,219.963,369.07,225.292z"/>
						<polygon opacity="0.1" fill="#FFFFFF" enable-background="new    " points="325.214,239.98 325.214,210.76 384.025,210.76 
													"/>
						
							<linearGradient id="SVGID_16_" gradientUnits="userSpaceOnUse" x1="2377.8345" y1="-3060.7407" x2="2402.8735" y2="-3060.7407" gradientTransform="matrix(0 -1 1 0 3415.2788 2615.647)">
							<stop  offset="0" style="stop-color:#4B48BF"/>
							<stop  offset="1" style="stop-color:#A14B8A"/>
						</linearGradient>
						<circle fill="url(#SVGID_16_)" cx="354.538" cy="225.293" r="12.52"/>
					</g>
				</g>
				<g>
					<g enable-background="new    ">
						<path fill="#FFFFFF" d="M359.465,228.402c0,2.414-1.735,3.979-4.847,3.979s-4.847-1.565-4.847-3.979
							c0-1.301,0.604-2.451,1.716-3.168c-0.773-0.604-1.264-1.471-1.264-2.659c0-2.565,1.961-3.923,4.394-3.923
							c2.433,0,4.395,1.357,4.395,3.923c0,1.188-0.49,2.056-1.264,2.659C358.862,225.951,359.465,227.102,359.465,228.402z
							 M356.448,227.969c0-0.999-0.773-1.584-1.83-1.584s-1.829,0.585-1.829,1.584c0,1,0.773,1.585,1.829,1.585
							S356.448,228.969,356.448,227.969z M353.242,222.764c0,0.735,0.528,1.282,1.376,1.282c0.849,0,1.377-0.547,1.377-1.282
							s-0.528-1.282-1.377-1.282C353.77,221.481,353.242,222.028,353.242,222.764z"/>
					</g>
				</g>
				<g>
					<g>
						<path opacity="0.7" fill="#FFFFFF" enable-background="new    " d="M334.269,230.913v1.272h-0.665v-1.26
							c-1.556-0.07-2.716-0.793-3.154-2.01l0.65-0.367c0.326,0.99,1.188,1.584,2.504,1.656v-4.203
							c-1.443-0.51-2.688-1.031-2.688-2.715c0-1.473,1.188-2.461,2.688-2.563v-1.271h0.665v1.271
							c1.118,0.127,2.066,0.723,2.504,1.782l-0.637,0.354c-0.325-0.807-0.962-1.286-1.868-1.399v4.019
							c1.443,0.51,2.745,1.074,2.745,2.758C337.014,229.725,335.883,230.754,334.269,230.913z M333.604,225.238v-3.79
							c-1.16,0.098-1.938,0.848-1.938,1.838C331.666,224.404,332.487,224.829,333.604,225.238z M336.25,228.236
							c0-1.131-0.82-1.598-1.98-2.008v3.945C335.543,230.036,336.25,229.256,336.25,228.236z"/>
					</g>
				</g>
				<g>
					<g>
						<path opacity="0.7" fill="#FFFFFF" enable-background="new    " d="M374.937,230.913v1.272h-0.665v-1.26
							c-1.556-0.07-2.716-0.793-3.154-2.01l0.649-0.367c0.326,0.99,1.188,1.584,2.504,1.656v-4.203
							c-1.443-0.51-2.688-1.031-2.688-2.715c0-1.473,1.188-2.461,2.688-2.563v-1.271h0.665v1.271
							c1.118,0.127,2.066,0.723,2.504,1.782l-0.637,0.354c-0.325-0.807-0.962-1.286-1.867-1.399v4.019
							c1.443,0.51,2.745,1.074,2.745,2.758C377.682,229.725,376.55,230.754,374.937,230.913z M374.272,225.238v-3.79
							c-1.16,0.098-1.938,0.848-1.938,1.838C372.334,224.404,373.155,224.829,374.272,225.238z M376.917,228.236
							c0-1.131-0.82-1.598-1.98-2.008v3.945C376.211,230.036,376.917,229.256,376.917,228.236z"/>
					</g>
				</g>
			</g>
			<g>
				<path fill="#4B48BF" d="M195.352,223.657c0,1.881-1.513,3.395-3.465,3.395h-1.485v3.111h-2.263v-9.899h3.749
					C193.839,220.262,195.352,221.775,195.352,223.657z M193.089,223.657c0-0.722-0.509-1.273-1.202-1.273h-1.485v2.546h1.485
					C192.58,224.93,193.089,224.377,193.089,223.657z"/>
				<path fill="#4B48BF" d="M203.106,223.09v7.072h-2.122v-0.664c-0.382,0.521-1.089,0.861-2.022,0.861
					c-1.429,0-2.646-1.019-2.646-2.928v-4.343h2.122v4.031c0,0.877,0.552,1.287,1.23,1.287c0.778,0,1.315-0.453,1.315-1.457v-3.861
					L203.106,223.09L203.106,223.09z"/>
				<path fill="#4B48BF" d="M212.274,226.627c0,2.105-1.527,3.732-3.38,3.732c-0.948,0-1.641-0.324-2.107-0.861v0.664h-2.122v-9.9
					h2.122v3.494c0.467-0.539,1.16-0.863,2.107-0.863C210.747,222.893,212.274,224.52,212.274,226.627z M210.153,226.627
					c0-1.063-0.707-1.727-1.683-1.727c-0.976,0-1.683,0.664-1.683,1.727c0,1.061,0.707,1.727,1.683,1.727
					C209.446,228.354,210.153,227.688,210.153,226.627z"/>
				<path fill="#4B48BF" d="M213.479,219.836h2.122v10.326h-2.122V219.836z"/>
				<path fill="#4B48BF" d="M216.946,221.195c0-0.692,0.58-1.272,1.273-1.272c0.693,0,1.273,0.58,1.273,1.272
					c0,0.693-0.58,1.271-1.273,1.271C217.526,222.467,216.946,221.889,216.946,221.195z M217.158,223.09h2.122v7.072h-2.122V223.09z
					"/>
				<path fill="#4B48BF" d="M220.483,226.627c0-2.107,1.599-3.734,3.749-3.734c1.372,0,2.588,0.722,3.197,1.812l-1.853,1.075
					c-0.241-0.495-0.75-0.793-1.372-0.793c-0.919,0-1.599,0.666-1.599,1.642c0,0.978,0.679,1.642,1.599,1.642
					c0.622,0,1.146-0.297,1.372-0.791l1.853,1.061c-0.608,1.104-1.811,1.825-3.197,1.825
					C222.082,230.361,220.483,228.734,220.483,226.627z"/>
				<path fill="#4B48BF" d="M235.394,223.09v7.072h-2.122v-0.664c-0.467,0.537-1.16,0.861-2.107,0.861
					c-1.853,0-3.381-1.627-3.381-3.732c0-2.107,1.528-3.734,3.381-3.734c0.947,0,1.641,0.324,2.107,0.863v-0.666H235.394
					L235.394,223.09z M233.272,226.627c0-1.063-0.707-1.727-1.683-1.727s-1.684,0.664-1.684,1.727c0,1.061,0.708,1.727,1.684,1.727
					S233.272,227.688,233.272,226.627z"/>
				<path fill="#4B48BF" d="M239.64,225.127v2.504c0,0.607,0.523,0.664,1.457,0.607v1.924c-2.772,0.283-3.579-0.553-3.579-2.531
					v-2.504h-1.131v-2.037h1.131v-1.344l2.122-0.639v1.979h1.457v2.037h-1.457V225.127z"/>
				<path fill="#4B48BF" d="M242.089,221.195c0-0.692,0.58-1.272,1.273-1.272c0.693,0,1.273,0.58,1.273,1.272
					c0,0.693-0.58,1.271-1.273,1.271C242.668,222.467,242.089,221.889,242.089,221.195z M242.301,223.09h2.122v7.072h-2.122V223.09z
					"/>
				<path fill="#4B48BF" d="M245.626,226.627c0-2.107,1.669-3.734,3.749-3.734c2.079,0,3.748,1.627,3.748,3.734
					c0,2.105-1.669,3.732-3.748,3.732C247.295,230.361,245.626,228.734,245.626,226.627z M251.001,226.627
					c0-1.004-0.707-1.67-1.626-1.67s-1.627,0.666-1.627,1.67s0.708,1.668,1.627,1.668S251.001,227.631,251.001,226.627z"/>
				<path fill="#4B48BF" d="M261.117,225.82v4.343h-2.122v-4.031c0-0.877-0.552-1.287-1.23-1.287c-0.778,0-1.315,0.453-1.315,1.457
					v3.861h-2.122v-7.072h2.122v0.666c0.382-0.522,1.089-0.862,2.022-0.862C259.901,222.893,261.117,223.911,261.117,225.82z"/>
				<path fill="#4B48BF" d="M265.902,221.195c0-0.692,0.58-1.272,1.273-1.272c0.693,0,1.273,0.58,1.273,1.272
					c0,0.693-0.58,1.271-1.273,1.271C266.482,222.467,265.902,221.889,265.902,221.195z M266.114,223.09h2.122v7.072h-2.122V223.09z
					"/>
				<path fill="#4B48BF" d="M275.21,228.042c0,1.627-1.415,2.319-2.942,2.319c-1.415,0-2.49-0.536-3.042-1.684l1.839-1.047
					c0.184,0.537,0.58,0.834,1.203,0.834c0.509,0,0.764-0.154,0.764-0.438c0-0.777-3.479-0.367-3.479-2.814
					c0-1.543,1.301-2.32,2.772-2.32c1.146,0,2.164,0.51,2.758,1.515l-1.811,0.977c-0.198-0.368-0.48-0.622-0.947-0.622
					c-0.368,0-0.594,0.141-0.594,0.396C271.731,225.961,275.21,225.424,275.21,228.042z"/>
				<path fill="#4B48BF" d="M281.408,228.042c0,1.627-1.415,2.319-2.942,2.319c-1.415,0-2.49-0.536-3.042-1.684l1.839-1.047
					c0.184,0.537,0.58,0.834,1.203,0.834c0.509,0,0.764-0.154,0.764-0.438c0-0.777-3.479-0.367-3.479-2.814
					c0-1.543,1.301-2.32,2.772-2.32c1.146,0,2.164,0.51,2.758,1.515l-1.811,0.977c-0.198-0.368-0.48-0.622-0.947-0.622
					c-0.368,0-0.594,0.141-0.594,0.396C277.928,225.961,281.408,225.424,281.408,228.042z"/>
				<path fill="#4B48BF" d="M289.161,223.09v7.072h-2.122v-0.664c-0.382,0.521-1.089,0.861-2.022,0.861
					c-1.429,0-2.645-1.019-2.645-2.928v-4.343h2.122v4.031c0,0.877,0.552,1.287,1.23,1.287c0.778,0,1.315-0.453,1.315-1.457v-3.861
					L289.161,223.09L289.161,223.09z"/>
				<path fill="#4B48BF" d="M290.508,221.195c0-0.692,0.58-1.272,1.273-1.272c0.693,0,1.273,0.58,1.273,1.272
					c0,0.693-0.58,1.271-1.273,1.271C291.087,222.467,290.508,221.889,290.508,221.195z M290.72,223.09h2.122v7.072h-2.122V223.09z"
					/>
				<path fill="#4B48BF" d="M301.188,225.82v4.343h-2.122v-4.031c0-0.877-0.552-1.287-1.23-1.287c-0.778,0-1.315,0.453-1.315,1.457
					v3.861h-2.122v-7.072h2.122v0.666c0.382-0.522,1.089-0.862,2.022-0.862C299.972,222.893,301.188,223.911,301.188,225.82z"/>
				<path fill="#4B48BF" d="M309.904,223.09v6.721c0,2.375-1.853,3.379-3.734,3.379c-1.471,0-2.702-0.551-3.353-1.711l1.811-1.047
					c0.269,0.494,0.679,0.892,1.612,0.892c0.99,0,1.599-0.509,1.599-1.513v-0.651c-0.467,0.58-1.146,0.92-2.065,0.92
					c-2.008,0-3.479-1.642-3.479-3.595c0-1.95,1.471-3.592,3.479-3.592c0.919,0,1.599,0.338,2.065,0.918v-0.721H309.904
					L309.904,223.09z M307.839,226.484c0-0.977-0.708-1.641-1.711-1.641c-1.004,0-1.712,0.664-1.712,1.641
					c0,0.978,0.708,1.642,1.712,1.642C307.131,228.125,307.839,227.461,307.839,226.484z"/>
			</g>
		</g>
	</g>
	
		<linearGradient id="SVGID_17_" gradientUnits="userSpaceOnUse" x1="343.7358" y1="265.5361" x2="698.2212" y2="265.5361" gradientTransform="matrix(1 0 0 1 -290.2617 -232.9561)">
		<stop  offset="0" style="stop-color:#4B48BF"/>
		<stop  offset="1" style="stop-color:#5248BB;stop-opacity:0"/>
	</linearGradient>
	<path fill="url(#SVGID_17_)" d="M399.875,0H53.474L407.96,65.16V8.085C407.96,3.62,404.34,0,399.875,0z"/>
	
		<linearGradient id="SVGID_18_" gradientUnits="userSpaceOnUse" x1="3084.1128" y1="1060.6641" x2="3149.479" y2="1060.6641" gradientTransform="matrix(-4.371139e-008 1 -1 -4.371139e-008 1415.2056 -3054.3242)">
		<stop  offset="0" style="stop-color:#FFFFFF"/>
		<stop  offset="1" style="stop-color:#FFFFFF;stop-opacity:0"/>
	</linearGradient>
	<path fill="url(#SVGID_18_)" d="M328.564,94.932c0.007-4.351,0.022-8.701-0.002-13.052c-0.011-1.818,0.604-3.368,1.796-4.708
		c1.266-1.424,2.838-2.428,4.538-3.243c3.772-1.809,7.803-2.667,11.917-3.204c0.14-0.019,0.24,0.01,0.348,0.111
		c1.932,1.82,3.868,3.635,5.809,5.447c0.149,0.138,0.136,0.21-0.002,0.345c-0.941,0.93-1.868,1.874-2.81,2.803
		c-0.297,0.292-0.431,0.62-0.343,1.032c0.108,0.298,0.255,0.56,0.575,0.676c-0.043,0.11,0.056,0.146,0.109,0.201
		c0.306,0.31,0.616,0.616,0.924,0.923c0.243,0.242,0.485,0.483,0.729,0.726c0.286,0.192,0.314,0.444,0.225,0.763
		c-0.107,0.389-0.162,0.791-0.24,1.188c-0.042,0.05-0.039,0.109-0.036,0.168c-0.091,0.406-0.187,0.811-0.273,1.218
		c-0.604,2.888-1.21,5.775-1.803,8.665c-0.009,0.047-0.023,0.079-0.036,0.112h2.025c-0.002-0.036,0.003-0.08,0.016-0.138
		c0.432-2.021,0.851-4.044,1.274-6.067c0.193-0.927,0.386-1.854,0.579-2.781c0.018-0.192,0.16-0.359,0.118-0.563
		c0.127-0.617,0.255-1.234,0.382-1.852c0.056-0.275,0.161-0.544,0.121-0.833c0.002-0.207-0.088-0.379-0.22-0.524
		c-0.229-0.25-0.457-0.503-0.728-0.713c-0.18-0.201-0.342-0.421-0.585-0.557c-0.167-0.297-0.453-0.485-0.68-0.728
		c-0.102-0.108-0.102-0.167,0.002-0.269c0.712-0.706,1.422-1.415,2.126-2.128c0.046-0.046,0.084-0.068,0.123-0.074
		c0.038,0.005,0.076,0.027,0.123,0.074c0.705,0.713,1.414,1.422,2.126,2.128c0.104,0.102,0.104,0.16,0.002,0.269
		c-0.228,0.242-0.513,0.431-0.68,0.728c-0.243,0.136-0.405,0.355-0.585,0.557c-0.27,0.21-0.498,0.464-0.728,0.713
		c-0.133,0.145-0.222,0.317-0.22,0.524c-0.04,0.289,0.064,0.558,0.12,0.833c0.127,0.618,0.254,1.234,0.382,1.852
		c-0.042,0.204,0.1,0.371,0.118,0.563c0.193,0.927,0.386,1.854,0.579,2.781c0.423,2.022,0.841,4.046,1.274,6.067
		c0.012,0.058,0.018,0.103,0.016,0.138h2.025c-0.014-0.033-0.027-0.065-0.036-0.112c-0.594-2.89-1.199-5.777-1.804-8.665
		c-0.085-0.408-0.182-0.812-0.272-1.218c0.002-0.06,0.006-0.118-0.036-0.168c-0.078-0.397-0.133-0.799-0.24-1.188
		c-0.089-0.319-0.06-0.571,0.226-0.763c0.243-0.242,0.485-0.484,0.728-0.726c0.309-0.308,0.618-0.614,0.924-0.923
		c0.054-0.054,0.152-0.091,0.109-0.201c0.32-0.116,0.467-0.378,0.574-0.676c0.088-0.412-0.045-0.739-0.342-1.032
		c-0.943-0.929-1.869-1.873-2.811-2.803c-0.138-0.134-0.15-0.207-0.002-0.345c1.941-1.812,3.877-3.626,5.809-5.447
		c0.107-0.102,0.208-0.13,0.348-0.111c4.115,0.538,8.146,1.395,11.917,3.204c1.7,0.815,3.272,1.819,4.539,3.243
		c1.192,1.34,1.807,2.89,1.795,4.708c-0.018,3.282-0.014,8.863-0.008,13.275h1.967V81.637c0-0.532-0.044-1.06-0.145-1.584
		c-0.401-2.08-1.521-3.736-3.065-5.134c-1.728-1.566-3.752-2.645-5.9-3.507c-3.469-1.394-7.097-2.157-10.792-2.626
		c-0.225-0.029-0.311-0.083-0.308-0.334c0.016-1.295,0.01-2.59,0.003-3.885c0-0.165,0.051-0.275,0.167-0.387
		c0.978-0.951,1.854-1.986,2.624-3.114c0.231-0.314,0.463-0.631,0.644-0.98c0.34-0.488,0.64-1,0.901-1.535
		c0.446-0.708,0.791-1.466,1.102-2.241c0.071-0.162,0.145-0.321,0.211-0.483c0.925-2.273,1.591-4.614,1.748-7.072
		c0.079-1.25,0.063-2.502,0.043-3.754h0.021c-0.29-8.452-7.034-15.212-15.315-15.212c-8.237,0-14.686,6.688-15.041,15.076h-0.005
		c-0.001,0.036,0,0.072-0.002,0.108c0,0.009-0.001,0.019-0.001,0.028h0.001c-0.02,1.252-0.037,2.504,0.043,3.754
		c0.157,2.458,0.823,4.799,1.748,7.072c0.066,0.162,0.14,0.321,0.211,0.483c0.312,0.774,0.656,1.533,1.102,2.241
		c0.261,0.535,0.562,1.046,0.901,1.535c0.181,0.349,0.412,0.666,0.644,0.98c0.769,1.128,1.646,2.164,2.624,3.114
		c0.117,0.112,0.168,0.222,0.167,0.387c-0.006,1.295-0.012,2.59,0.003,3.885c0.002,0.251-0.083,0.306-0.308,0.334
		c-3.696,0.469-7.324,1.233-10.793,2.626c-2.147,0.862-4.172,1.941-5.899,3.507c-1.543,1.398-2.663,3.054-3.064,5.134
		c-0.102,0.524-0.145,1.052-0.145,1.584v13.466h1.973C328.567,95.056,328.564,95,328.564,94.932z M360.166,69.786
		c-1.828,1.711-3.655,3.423-5.476,5.141c-0.059,0.057-0.105,0.081-0.149,0.086c-0.045-0.005-0.091-0.029-0.15-0.086
		c-1.821-1.718-3.648-3.43-5.476-5.141c-0.098-0.09-0.138-0.183-0.136-0.315c0.006-0.54,0.001-1.08,0.001-1.621
		c0-0.559,0.006-1.118-0.001-1.676c-0.002-0.19,0.034-0.233,0.212-0.123c0.356,0.22,0.715,0.438,1.088,0.627
		c1.417,0.723,2.893,1.123,4.442,1.126v0.002c0,0,0.012-0.001,0.019-0.001c0.006,0,0.012,0.001,0.019,0.001v-0.002
		c1.549-0.004,3.027-0.404,4.443-1.126c0.372-0.188,0.731-0.407,1.087-0.627c0.178-0.11,0.215-0.067,0.212,0.123
		c-0.006,0.559-0.001,1.117-0.001,1.676c0,0.541-0.004,1.081,0.002,1.621C360.304,69.603,360.265,69.696,360.166,69.786z
		 M345.919,60.342c-0.601-0.807-1.106-1.674-1.636-2.526c-0.036-0.155-0.13-0.28-0.209-0.414c-0.173-0.326-0.296-0.679-0.522-0.976
		c0.024-0.092-0.036-0.161-0.07-0.234c-0.324-0.682-0.608-1.379-0.866-2.087c-0.605-1.669-1.049-3.375-1.213-5.148
		c-0.123-1.317-0.056-2.637-0.075-3.955h0.001c0.29-7.285,5.973-13.124,13.089-13.124s13.047,5.837,13.337,13.123
		c-0.02,1.319,0.046,2.638-0.076,3.956c-0.164,1.773-0.607,3.479-1.212,5.148c-0.258,0.708-0.543,1.405-0.867,2.087
		c-0.034,0.073-0.095,0.142-0.071,0.234c-0.226,0.297-0.349,0.65-0.521,0.976c-0.079,0.133-0.174,0.258-0.209,0.414
		c-0.53,0.852-1.036,1.719-1.636,2.526c-1.231,1.659-2.632,3.14-4.411,4.224c-1.22,0.744-2.53,1.219-3.971,1.271
		c-0.075,0.002-0.147,0-0.221,0h-0.038c-0.073,0-0.146,0.003-0.221,0c-1.441-0.053-2.751-0.528-3.971-1.271
		C348.551,63.481,347.15,62.001,345.919,60.342z"/>
	
		<linearGradient id="SVGID_19_" gradientUnits="userSpaceOnUse" x1="3224.104" y1="-3087.9487" x2="3294.0679" y2="-3087.9487" gradientTransform="matrix(4.366649e-008 1 1 -4.366649e-008 3331.5464 -3201.1719)">
		<stop  offset="0" style="stop-color:#FFFFFF;stop-opacity:0.0481"/>
		<stop  offset="0.4892" style="stop-color:#FFFFFF"/>
		<stop  offset="1" style="stop-color:#FFFFFF;stop-opacity:0"/>
	</linearGradient>
	<rect x="242.925" y="22.932" fill="url(#SVGID_19_)" width="1.347" height="69.964"/>
	
		<linearGradient id="SVGID_20_" gradientUnits="userSpaceOnUse" x1="4155.9146" y1="-334.7314" x2="4544.981" y2="-334.7314" gradientTransform="matrix(-1 0 0 1 4555.5439 335.4072)">
		<stop  offset="0" style="stop-color:#FFFFFF;stop-opacity:0.0481"/>
		<stop  offset="0.4892" style="stop-color:#FFFFFF"/>
		<stop  offset="1" style="stop-color:#FFFFFF;stop-opacity:0"/>
	</linearGradient>
	<rect x="10.563" y="0.002" fill="url(#SVGID_20_)" width="389.067" height="1.348"/>
	<g>
		<g>
			<path fill="#A68846" d="M101.974,38.218c-1.086-1.052-3.426-1.781-6.145-1.781c-2.719,0-5.058,0.729-6.146,1.781H88.87
				l0.162,1.318c0,1.712,3.042,3.099,6.797,3.099s6.797-1.387,6.797-3.099l0.162-1.318H101.974z"/>
			<ellipse fill="#E2C79A" cx="95.829" cy="38.084" rx="6.959" ry="3.173"/>
			
				<linearGradient id="SVGID_21_" gradientUnits="userSpaceOnUse" x1="3256.8286" y1="-3223.0908" x2="3267.8364" y2="-3223.0908" gradientTransform="matrix(-1 0 0 -1 3358.1611 -3185.3193)">
				<stop  offset="0.0054" style="stop-color:#A68846"/>
				<stop  offset="1" style="stop-color:#A68846;stop-opacity:0"/>
			</linearGradient>
			<ellipse fill="url(#SVGID_21_)" cx="95.829" cy="37.771" rx="5.504" ry="2.509"/>
			
				<linearGradient id="SVGID_22_" gradientUnits="userSpaceOnUse" x1="-78.1309" y1="270.2158" x2="-65.2119" y2="270.2158" gradientTransform="matrix(1 0 0 1 168 -232.9561)">
				<stop  offset="0.0054" style="stop-color:#FFFFFF"/>
				<stop  offset="1" style="stop-color:#FFFFFF;stop-opacity:0"/>
			</linearGradient>
			<path opacity="0.7" fill="url(#SVGID_22_)" enable-background="new    " d="M101.952,39.601c0.533-0.449,0.836-0.963,0.836-1.509
				c0-1.753-3.116-3.173-6.959-3.173c-2.533,0-4.743,0.619-5.96,1.542L101.952,39.601z"/>
		</g>
		<g>
			<path fill="#A68846" d="M85.881,37.036c-1.305-1.505-4.116-2.549-7.381-2.549c-3.266,0-6.076,1.044-7.381,2.549h-0.977
				l0.194,1.885c0,2.449,3.655,4.434,8.164,4.434c4.508,0,8.164-1.985,8.164-4.434l0.194-1.885H85.881z"/>
			<ellipse fill="#E2C79A" cx="78.5" cy="36.845" rx="8.358" ry="4.54"/>
			
				<linearGradient id="SVGID_23_" gradientUnits="userSpaceOnUse" x1="3273.0503" y1="-3221.7163" x2="3286.272" y2="-3221.7163" gradientTransform="matrix(-1 0 0 -1 3358.1611 -3185.3193)">
				<stop  offset="0.0054" style="stop-color:#A68846"/>
				<stop  offset="1" style="stop-color:#A68846;stop-opacity:0"/>
			</linearGradient>
			<ellipse fill="url(#SVGID_23_)" cx="78.5" cy="36.397" rx="6.611" ry="3.59"/>
			
				<linearGradient id="SVGID_24_" gradientUnits="userSpaceOnUse" x1="-96.6592" y1="268.6221" x2="-81.1421" y2="268.6221" gradientTransform="matrix(1 0 0 1 168 -232.9561)">
				<stop  offset="0.0054" style="stop-color:#FFFFFF"/>
				<stop  offset="1" style="stop-color:#FFFFFF;stop-opacity:0"/>
			</linearGradient>
			<path opacity="0.7" fill="url(#SVGID_24_)" enable-background="new    " d="M85.854,39.015c0.64-0.642,1.004-1.377,1.004-2.158
				c0-2.507-3.742-4.54-8.358-4.54c-3.042,0-5.697,0.886-7.159,2.205L85.854,39.015z"/>
		</g>
		<g>
			<path fill="#A68846" d="M83.438,33.468c-1.305-1.264-4.115-2.14-7.38-2.14c-3.266,0-6.075,0.876-7.381,2.14H67.7l0.194,1.582
				c0,2.056,3.655,3.723,8.164,3.723c4.509,0,8.164-1.667,8.164-3.723l0.194-1.582H83.438z"/>
			<ellipse fill="#E2C79A" cx="76.057" cy="33.307" rx="8.358" ry="3.811"/>
			
				<linearGradient id="SVGID_25_" gradientUnits="userSpaceOnUse" x1="3275.4927" y1="-3218.251" x2="3288.7134" y2="-3218.251" gradientTransform="matrix(-1 0 0 -1 3358.1611 -3185.3193)">
				<stop  offset="0.0054" style="stop-color:#A68846"/>
				<stop  offset="1" style="stop-color:#A68846;stop-opacity:0"/>
			</linearGradient>
			<ellipse fill="url(#SVGID_25_)" cx="76.058" cy="32.932" rx="6.61" ry="3.014"/>
			
				<linearGradient id="SVGID_26_" gradientUnits="userSpaceOnUse" x1="-99.1021" y1="265.2734" x2="-83.585" y2="265.2734" gradientTransform="matrix(1 0 0 1 168 -232.9561)">
				<stop  offset="0.0054" style="stop-color:#FFFFFF"/>
				<stop  offset="1" style="stop-color:#FFFFFF;stop-opacity:0"/>
			</linearGradient>
			<path opacity="0.7" fill="url(#SVGID_26_)" enable-background="new    " d="M83.412,35.129c0.64-0.539,1.003-1.156,1.003-1.813
				c0-2.104-3.741-3.811-8.358-3.811c-3.042,0-5.697,0.743-7.159,1.851L83.412,35.129z"/>
		</g>
		<g>
			<path fill="#A68846" d="M85.881,30.659c-1.305-1.264-4.116-2.14-7.381-2.14c-3.266,0-6.076,0.876-7.381,2.14h-0.977l0.194,1.583
				c0,2.055,3.655,3.722,8.164,3.722c4.508,0,8.164-1.667,8.164-3.722l0.194-1.583H85.881z"/>
			<ellipse fill="#E2C79A" cx="78.5" cy="30.498" rx="8.358" ry="3.811"/>
			
				<linearGradient id="SVGID_27_" gradientUnits="userSpaceOnUse" x1="3273.0503" y1="-3215.4424" x2="3286.272" y2="-3215.4424" gradientTransform="matrix(-1 0 0 -1 3358.1611 -3185.3193)">
				<stop  offset="0.0054" style="stop-color:#A68846"/>
				<stop  offset="1" style="stop-color:#A68846;stop-opacity:0"/>
			</linearGradient>
			<ellipse fill="url(#SVGID_27_)" cx="78.5" cy="30.123" rx="6.611" ry="3.015"/>
			
				<linearGradient id="SVGID_28_" gradientUnits="userSpaceOnUse" x1="-96.6592" y1="262.4648" x2="-81.1421" y2="262.4648" gradientTransform="matrix(1 0 0 1 168 -232.9561)">
				<stop  offset="0.0054" style="stop-color:#FFFFFF"/>
				<stop  offset="1" style="stop-color:#FFFFFF;stop-opacity:0"/>
			</linearGradient>
			<path opacity="0.7" fill="url(#SVGID_28_)" enable-background="new    " d="M85.854,32.32c0.64-0.539,1.004-1.157,1.004-1.812
				c0-2.105-3.742-3.811-8.358-3.811c-3.042,0-5.697,0.744-7.159,1.852L85.854,32.32z"/>
		</g>
		<g>
			<path fill="#A68846" d="M85.881,27.85c-1.305-1.263-4.116-2.139-7.381-2.139c-3.266,0-6.076,0.876-7.381,2.139h-0.977
				l0.194,1.583c0,2.056,3.655,3.722,8.164,3.722c4.508,0,8.164-1.666,8.164-3.722l0.194-1.583H85.881z"/>
			<ellipse fill="#E2C79A" cx="78.5" cy="27.689" rx="8.358" ry="3.812"/>
			
				<linearGradient id="SVGID_29_" gradientUnits="userSpaceOnUse" x1="3273.0503" y1="-3212.6333" x2="3286.272" y2="-3212.6333" gradientTransform="matrix(-1 0 0 -1 3358.1611 -3185.3193)">
				<stop  offset="0.0054" style="stop-color:#A68846"/>
				<stop  offset="1" style="stop-color:#A68846;stop-opacity:0"/>
			</linearGradient>
			<ellipse fill="url(#SVGID_29_)" cx="78.5" cy="27.314" rx="6.611" ry="3.015"/>
			
				<linearGradient id="SVGID_30_" gradientUnits="userSpaceOnUse" x1="-96.6592" y1="259.6553" x2="-81.1421" y2="259.6553" gradientTransform="matrix(1 0 0 1 168 -232.9561)">
				<stop  offset="0.0054" style="stop-color:#FFFFFF"/>
				<stop  offset="1" style="stop-color:#FFFFFF;stop-opacity:0"/>
			</linearGradient>
			<path opacity="0.7" fill="url(#SVGID_30_)" enable-background="new    " d="M85.854,29.511c0.64-0.539,1.004-1.156,1.004-1.813
				c0-2.104-3.742-3.811-8.358-3.811c-3.042,0-5.697,0.744-7.159,1.852L85.854,29.511z"/>
		</g>
		<g>
			<path fill="#A68846" d="M84.037,25.044c-1.305-1.263-4.115-2.14-7.381-2.14c-3.266,0-6.075,0.876-7.38,2.14h-0.978l0.194,1.583
				c0,2.056,3.655,3.722,8.164,3.722c4.509,0,8.164-1.667,8.164-3.722l0.195-1.583H84.037z"/>
			<ellipse fill="#E2C79A" cx="76.657" cy="24.883" rx="8.358" ry="3.811"/>
			
				<linearGradient id="SVGID_31_" gradientUnits="userSpaceOnUse" x1="3274.895" y1="-3209.8271" x2="3288.1157" y2="-3209.8271" gradientTransform="matrix(-1 0 0 -1 3358.1611 -3185.3193)">
				<stop  offset="0.0054" style="stop-color:#A68846"/>
				<stop  offset="1" style="stop-color:#A68846;stop-opacity:0"/>
			</linearGradient>
			<ellipse fill="url(#SVGID_31_)" cx="76.656" cy="24.508" rx="6.61" ry="3.015"/>
			
				<linearGradient id="SVGID_32_" gradientUnits="userSpaceOnUse" x1="-98.5029" y1="256.8496" x2="-82.9849" y2="256.8496" gradientTransform="matrix(1 0 0 1 168 -232.9561)">
				<stop  offset="0.0054" style="stop-color:#FFFFFF"/>
				<stop  offset="1" style="stop-color:#FFFFFF;stop-opacity:0"/>
			</linearGradient>
			<path opacity="0.7" fill="url(#SVGID_32_)" enable-background="new    " d="M84.011,26.705c0.64-0.539,1.004-1.155,1.004-1.812
				c0-2.104-3.742-3.81-8.359-3.81c-3.042,0-5.697,0.743-7.159,1.851L84.011,26.705z"/>
		</g>
		<g>
			<path fill="#A68846" d="M94.239,45.409c-1.305-1.526-4.115-2.585-7.381-2.585s-6.075,1.059-7.381,2.585H78.5l0.194,1.912
				c0,2.484,3.655,4.498,8.164,4.498c4.509,0,8.164-2.014,8.164-4.498l0.195-1.912H94.239z"/>
			<ellipse fill="#E2C79A" cx="86.858" cy="45.214" rx="8.358" ry="4.605"/>
			
				<linearGradient id="SVGID_33_" gradientUnits="userSpaceOnUse" x1="3264.6938" y1="-3230.0801" x2="3277.9126" y2="-3230.0801" gradientTransform="matrix(-1 0 0 -1 3358.1611 -3185.3193)">
				<stop  offset="0.0054" style="stop-color:#A68846"/>
				<stop  offset="1" style="stop-color:#A68846;stop-opacity:0"/>
			</linearGradient>
			<ellipse fill="url(#SVGID_33_)" cx="86.858" cy="44.761" rx="6.61" ry="3.642"/>
			
				<linearGradient id="SVGID_34_" gradientUnits="userSpaceOnUse" x1="-88.3008" y1="276.9746" x2="-72.7842" y2="276.9746" gradientTransform="matrix(1 0 0 1 168 -232.9561)">
				<stop  offset="0.0054" style="stop-color:#FFFFFF"/>
				<stop  offset="1" style="stop-color:#FFFFFF;stop-opacity:0"/>
			</linearGradient>
			<path opacity="0.7" fill="url(#SVGID_34_)" enable-background="new    " d="M94.212,47.416c0.64-0.651,1.004-1.396,1.004-2.189
				c0-2.543-3.742-4.605-8.358-4.605c-3.042,0-5.697,0.898-7.159,2.237L94.212,47.416z"/>
		</g>
		<g>
			<path fill="#A68846" d="M94.239,41.772c-1.305-1.263-4.115-2.14-7.381-2.14s-6.075,0.876-7.381,2.14H78.5l0.194,1.583
				c0,2.056,3.655,3.723,8.164,3.723c4.509,0,8.164-1.667,8.164-3.723l0.195-1.583H94.239z"/>
			<ellipse fill="#E2C79A" cx="86.858" cy="41.612" rx="8.358" ry="3.811"/>
			
				<linearGradient id="SVGID_35_" gradientUnits="userSpaceOnUse" x1="3264.6938" y1="-3226.5557" x2="3277.9126" y2="-3226.5557" gradientTransform="matrix(-1 0 0 -1 3358.1611 -3185.3193)">
				<stop  offset="0.0054" style="stop-color:#A68846"/>
				<stop  offset="1" style="stop-color:#A68846;stop-opacity:0"/>
			</linearGradient>
			<ellipse fill="url(#SVGID_35_)" cx="86.858" cy="41.236" rx="6.61" ry="3.013"/>
			
				<linearGradient id="SVGID_36_" gradientUnits="userSpaceOnUse" x1="-88.3008" y1="273.5771" x2="-72.7842" y2="273.5771" gradientTransform="matrix(1 0 0 1 168 -232.9561)">
				<stop  offset="0.0054" style="stop-color:#FFFFFF"/>
				<stop  offset="1" style="stop-color:#FFFFFF;stop-opacity:0"/>
			</linearGradient>
			<path opacity="0.7" fill="url(#SVGID_36_)" enable-background="new    " d="M94.212,43.433c0.64-0.538,1.004-1.156,1.004-1.812
				c0-2.104-3.742-3.811-8.358-3.811c-3.042,0-5.697,0.743-7.159,1.852L94.212,43.433z"/>
		</g>
		<g>
			<path fill="#A68846" d="M102.473,29.362c-1.086-1.051-3.426-1.781-6.146-1.781c-2.718,0-5.058,0.73-6.145,1.781H89.37
				l0.162,1.318c0,1.712,3.042,3.1,6.796,3.1c3.755,0,6.798-1.388,6.798-3.1l0.162-1.318H102.473z"/>
			<ellipse fill="#E2C79A" cx="96.329" cy="29.228" rx="6.959" ry="3.174"/>
			
				<linearGradient id="SVGID_37_" gradientUnits="userSpaceOnUse" x1="3256.3286" y1="-3214.2354" x2="3267.3364" y2="-3214.2354" gradientTransform="matrix(-1 0 0 -1 3358.1611 -3185.3193)">
				<stop  offset="0.0054" style="stop-color:#A68846"/>
				<stop  offset="1" style="stop-color:#A68846;stop-opacity:0"/>
			</linearGradient>
			<ellipse fill="url(#SVGID_37_)" cx="96.328" cy="28.916" rx="5.504" ry="2.509"/>
			
				<linearGradient id="SVGID_38_" gradientUnits="userSpaceOnUse" x1="-77.6328" y1="261.3613" x2="-64.7129" y2="261.3613" gradientTransform="matrix(1 0 0 1 168 -232.9561)">
				<stop  offset="0.0054" style="stop-color:#FFFFFF"/>
				<stop  offset="1" style="stop-color:#FFFFFF;stop-opacity:0"/>
			</linearGradient>
			<path opacity="0.7" fill="url(#SVGID_38_)" enable-background="new    " d="M102.451,30.746c0.533-0.448,0.836-0.962,0.836-1.509
				c0-1.752-3.116-3.173-6.96-3.173c-2.533,0-4.743,0.619-5.96,1.542L102.451,30.746z"/>
		</g>
	</g>
	<g>
		<g>
			<g>
				
					<linearGradient id="SVGID_39_" gradientUnits="userSpaceOnUse" x1="4612.4673" y1="-1696.9414" x2="4668.8403" y2="-1696.9414" gradientTransform="matrix(0.7071 -0.7071 -0.7071 -0.7071 -4402.814 2143.8484)">
					<stop  offset="0" style="stop-color:#4B48BF"/>
					<stop  offset="1" style="stop-color:#A14B8A"/>
				</linearGradient>
				<polygon fill="url(#SVGID_39_)" points="124.417,68.403 93.987,80.301 32.583,56.293 63.015,44.395 				"/>
				<path opacity="0.2" enable-background="new    " d="M73.13,70.495l14.15,5.532c4.102-0.986,9.311-0.986,13.416,0l12.795-5.003
					c-2.523-1.603-2.523-3.641,0-5.245l-14.15-5.532c1.828,2.787-0.045,5.867-5.623,8.05C88.138,70.478,80.257,71.211,73.13,70.495z
					"/>
				<path opacity="0.2" enable-background="new    " d="M83.874,54.199l-14.15-5.532c-4.102,0.987-9.311,0.987-13.416,0
					l-12.795,5.004c2.521,1.603,2.521,3.64,0,5.244l14.15,5.533c-1.83-2.787,0.041-5.868,5.623-8.049
					C68.866,54.218,76.747,53.485,83.874,54.199z"/>
				<polygon opacity="0.1" fill="#FFFFFF" enable-background="new    " points="62.841,44.329 124.417,68.403 93.823,80.364 				"/>
				
					<linearGradient id="SVGID_40_" gradientUnits="userSpaceOnUse" x1="4712.0942" y1="-1996.1123" x2="4740.2466" y2="-1996.1123" gradientTransform="matrix(0.7071 -0.7071 -0.7071 -0.7071 -4674.8257 1992.7742)">
					<stop  offset="0" style="stop-color:#4B48BF"/>
					<stop  offset="1" style="stop-color:#A14B8A"/>
				</linearGradient>
				<ellipse fill="url(#SVGID_40_)" cx="78.501" cy="62.349" rx="18.535" ry="7.247"/>
			</g>
			<polygon opacity="0.2" enable-background="new    " points="124.417,68.403 93.985,80.299 32.583,56.292 63.015,44.394 			"/>
		</g>
		<g>
			<g>
				
					<linearGradient id="SVGID_41_" gradientUnits="userSpaceOnUse" x1="4614.7095" y1="-1694.6973" x2="4671.0845" y2="-1694.6973" gradientTransform="matrix(0.7071 -0.7071 -0.7071 -0.7071 -4402.814 2143.8484)">
					<stop  offset="0" style="stop-color:#4B48BF"/>
					<stop  offset="1" style="stop-color:#A14B8A"/>
				</linearGradient>
				<polygon fill="url(#SVGID_41_)" points="124.417,65.231 93.987,77.129 32.583,53.121 63.015,41.223 				"/>
				<path opacity="0.2" enable-background="new    " d="M73.13,67.323l14.15,5.532c4.102-0.986,9.311-0.986,13.416,0l12.795-5.003
					c-2.523-1.603-2.523-3.641,0-5.245l-14.15-5.532c1.828,2.787-0.045,5.867-5.623,8.05C88.138,67.306,80.257,68.039,73.13,67.323z
					"/>
				<path opacity="0.2" enable-background="new    " d="M83.874,51.027l-14.15-5.532c-4.102,0.987-9.311,0.987-13.416,0
					l-12.795,5.004c2.521,1.603,2.521,3.64,0,5.244l14.15,5.533c-1.83-2.787,0.041-5.868,5.623-8.049
					C68.866,51.046,76.747,50.313,83.874,51.027z"/>
				<polygon opacity="0.1" fill="#FFFFFF" enable-background="new    " points="62.841,41.157 124.417,65.231 93.823,77.192 				"/>
				
					<linearGradient id="SVGID_42_" gradientUnits="userSpaceOnUse" x1="4714.3374" y1="-1993.8691" x2="4742.4897" y2="-1993.8691" gradientTransform="matrix(0.7071 -0.7071 -0.7071 -0.7071 -4674.8257 1992.7742)">
					<stop  offset="0" style="stop-color:#4B48BF"/>
					<stop  offset="1" style="stop-color:#A14B8A"/>
				</linearGradient>
				<ellipse fill="url(#SVGID_42_)" cx="78.501" cy="59.177" rx="18.535" ry="7.247"/>
			</g>
			<polygon opacity="0.2" enable-background="new    " points="124.417,65.231 93.985,77.127 32.583,53.12 63.015,41.222 			"/>
		</g>
		<g>
			
				<linearGradient id="SVGID_43_" gradientUnits="userSpaceOnUse" x1="4616.9526" y1="-1692.4551" x2="4673.3267" y2="-1692.4551" gradientTransform="matrix(0.7071 -0.7071 -0.7071 -0.7071 -4402.814 2143.8484)">
				<stop  offset="0" style="stop-color:#4B48BF"/>
				<stop  offset="1" style="stop-color:#A14B8A"/>
			</linearGradient>
			<polygon fill="url(#SVGID_43_)" points="124.417,62.059 93.987,73.957 32.583,49.949 63.015,38.051 			"/>
			<path opacity="0.2" enable-background="new    " d="M73.13,64.151l14.15,5.532c4.102-0.986,9.311-0.986,13.416,0l12.795-5.003
				c-2.523-1.603-2.523-3.641,0-5.245l-14.15-5.532c1.828,2.787-0.045,5.867-5.623,8.05C88.138,64.134,80.257,64.867,73.13,64.151z"
				/>
			<path opacity="0.2" enable-background="new    " d="M83.874,47.855l-14.15-5.532c-4.102,0.987-9.311,0.987-13.416,0
				l-12.795,5.004c2.521,1.603,2.521,3.64,0,5.244l14.15,5.533c-1.83-2.787,0.041-5.868,5.623-8.049
				C68.866,47.874,76.747,47.141,83.874,47.855z"/>
			<polygon opacity="0.1" fill="#FFFFFF" enable-background="new    " points="62.841,37.985 124.417,62.059 93.823,74.02 			"/>
			
				<linearGradient id="SVGID_44_" gradientUnits="userSpaceOnUse" x1="4716.5796" y1="-1991.626" x2="4744.7329" y2="-1991.626" gradientTransform="matrix(0.7071 -0.7071 -0.7071 -0.7071 -4674.8257 1992.7742)">
				<stop  offset="0" style="stop-color:#4B48BF"/>
				<stop  offset="1" style="stop-color:#A14B8A"/>
			</linearGradient>
			<ellipse fill="url(#SVGID_44_)" cx="78.501" cy="56.005" rx="18.535" ry="7.247"/>
		</g>
	</g>
</g>
</svg>
