<?xml version="1.0" encoding="utf-8"?>
<!-- Generator: Adobe Illustrator 16.0.0, SVG Export Plug-In . SVG Version: 6.00 Build 0)  -->
<!DOCTYPE svg PUBLIC "-//W3C//DTD SVG 1.1//EN" "http://www.w3.org/Graphics/SVG/1.1/DTD/svg11.dtd">
<svg version="1.1" id="Layer_1" xmlns="http://www.w3.org/2000/svg" xmlns:xlink="http://www.w3.org/1999/xlink" x="0px" y="0px"
	 width="21.997px" height="21.997px" viewBox="0 0 21.997 21.997" enable-background="new 0 0 21.997 21.997" xml:space="preserve">
<path fill-rule="evenodd" clip-rule="evenodd" fill="#EAEAEA" d="M10.999,0C4.934,0,0,4.934,0,10.999s4.934,10.999,10.999,10.999
	s10.999-4.934,10.999-10.999S17.063,0,10.999,0z M3.755,10.999c0-1.312,0.353-2.543,0.965-3.605l1.134,1.134l8.75,8.75
	c-1.063,0.613-2.293,0.965-3.605,0.965C7.004,18.242,3.755,14.993,3.755,10.999z M17.276,14.604l-0.821-0.821L7.393,4.721
	c1.063-0.613,2.293-0.965,3.605-0.965c3.994,0,7.243,3.249,7.243,7.243C18.242,12.311,17.889,13.542,17.276,14.604z"/>
</svg>
