<?xml version="1.0" encoding="utf-8"?>
<!-- Generator: Adobe Illustrator 16.0.0, SVG Export Plug-In . SVG Version: 6.00 Build 0)  -->
<!DOCTYPE svg PUBLIC "-//W3C//DTD SVG 1.1//EN" "http://www.w3.org/Graphics/SVG/1.1/DTD/svg11.dtd">
<svg version="1.1" id="Layer_1" xmlns="http://www.w3.org/2000/svg" xmlns:xlink="http://www.w3.org/1999/xlink" x="0px" y="0px"
	 width="204.748px" height="184.905px" viewBox="0 0 204.748 184.905" enable-background="new 0 0 204.748 184.905"
	 xml:space="preserve">
<g>
	<g>
		<g>
			<path fill-rule="evenodd" clip-rule="evenodd" fill="#BC81AD" d="M172.105,87.391c-0.439-0.41-0.789-0.94-1.158-1.501
				c-1.164-0.043-2.326-0.046-3.48,0.063c-0.525,0.735-1.002,1.431-1.576,1.966c-1.752,1.629-1.697,3.095-0.311,5.013
				c0.691,0.949,0.885,2.515,0.762,3.747c-0.385,3.954-1.023,7.885-1.582,11.971h8.918c-0.6-4.258-1.23-8.287-1.697-12.337
				c-0.111-0.967-0.008-2.265,0.561-2.949C174.379,91.125,174.131,89.282,172.105,87.391z"/>
			<path fill-rule="evenodd" clip-rule="evenodd" fill="#BC81AD" d="M204.748,108.713c-9.139,0-17.855,0-26.807,0
				c1.688-9.21,3.342-18.245,5.078-27.719c1.736,0.898,3.238,1.516,4.561,2.396c4.686,3.12,9.332,6.304,13.955,9.513
				c2.25,1.558,3.221,3.815,3.213,6.519C204.744,102.42,204.748,105.419,204.748,108.713z"/>
			<path fill-rule="evenodd" clip-rule="evenodd" fill="#BC81AD" d="M133.639,108.713c9.135,0,17.854,0,26.807,0
				c-1.688-9.21-3.346-18.245-5.082-27.719c-1.736,0.898-3.232,1.516-4.561,2.396c-4.684,3.12-9.326,6.304-13.955,9.513
				c-2.25,1.558-3.217,3.815-3.213,6.519C133.639,102.42,133.639,105.419,133.639,108.713z"/>
			<path fill-rule="evenodd" clip-rule="evenodd" fill="#BC81AD" d="M38.469,87.359c-0.543-0.506-0.941-1.191-1.424-1.897H34.16
				c-0.676,0.921-1.211,1.776-1.906,2.426c-1.75,1.63-1.697,3.095-0.311,5.013c0.691,0.952,0.885,2.515,0.764,3.747
				c-0.387,3.954-1.023,7.885-1.584,11.971h8.918c-0.6-4.258-1.23-8.287-1.697-12.334c-0.111-0.97-0.008-2.268,0.561-2.952
				C40.744,91.092,40.494,89.252,38.469,87.359z"/>
			<path fill-rule="evenodd" clip-rule="evenodd" fill="#BC81AD" d="M71.111,108.682c-9.139,0-17.855,0-26.807,0
				c1.688-9.211,3.342-18.246,5.078-27.719c1.736,0.897,3.238,1.514,4.561,2.396c4.686,3.119,9.332,6.304,13.955,9.513
				c2.25,1.558,3.221,3.814,3.213,6.521C71.107,102.388,71.111,105.387,71.111,108.682z"/>
			<path fill-rule="evenodd" clip-rule="evenodd" fill="#BC81AD" d="M0.002,108.682c9.137,0,17.854,0,26.807,0
				c-1.686-9.211-3.346-18.246-5.08-27.719c-1.736,0.897-3.234,1.514-4.561,2.396c-4.686,3.119-9.328,6.304-13.957,9.513
				C0.961,94.429-0.006,96.686,0,99.393C0.002,102.388,0.002,105.387,0.002,108.682z"/>
		</g>
		<g>
			<g>
				<path fill-rule="evenodd" clip-rule="evenodd" fill="#BC81AD" d="M146.553,54.523c0-0.378,0-0.755,0-1.134
					c0.354-1.262,0.682-2.524,1.061-3.776c0.602-1.996,0.813-2.182,2.867-1.868c1.422,0.221,2.541-0.234,3.453-1.23
					c1.459-1.597,2.469-3.287,1.424-5.601c-0.664-1.469-0.469-1.804,0.916-2.668c1.053-0.655,2.133-1.275,3.236-1.843
					c1.582-0.81,1.938-0.738,2.975,0.749c0.688,0.987,1.594,1.437,2.738,1.565c2.863,0.32,4.283-0.45,5.563-3.053
					c0.436-0.88,0.939-1.494,2.1-1.123c1.213,0.389,2.492,0.577,3.713,0.956c2.051,0.626,2.129,0.73,1.846,2.884
					c-0.152,1.188,0.193,2.143,0.932,3.021c1.672,1.988,3.459,2.488,5.984,1.604c0.961-0.335,1.721-0.321,2.271,0.721
					c0.697,1.329,1.471,2.624,2.252,3.908c0.662,1.087,0.215,1.814-0.645,2.506c-0.486,0.393-1.027,0.823-1.291,1.362
					c-1.266,2.567-0.068,5.801,2.506,6.971c0.984,0.446,1.625,1.026,1.199,2.274c-0.436,1.277-0.695,2.617-1.117,3.901
					c-0.559,1.693-0.912,1.937-2.621,1.562c-1.418-0.311-2.512,0.167-3.516,1.055c-1.459,1.302-2.574,3.799-1.232,5.784
					c0.783,1.17,0.563,1.644-0.646,2.413c-1.236,0.785-2.521,1.509-3.836,2.154c-1.494,0.728-1.752,0.652-2.668-0.76
					c-0.623-0.97-1.465-1.479-2.553-1.676c-2.596-0.456-4.682,0.671-5.754,3.156c-0.424,0.987-0.988,1.54-2.162,1.177
					c-1.293-0.4-2.631-0.656-3.918-1.07c-1.727-0.556-1.996-1.009-1.611-2.821c0.256-1.232-0.1-2.234-0.842-3.151
					c-1.615-1.985-3.527-2.467-6.008-1.533c-1.412,0.528-1.729,0.457-2.539-0.767c-0.584-0.877-1.135-1.782-1.637-2.709
					c-1.309-2.414-1.287-2.41,0.91-4.098c1.361-1.044,1.764-2.514,1.572-4.132c-0.189-1.594-0.977-2.796-2.561-3.435
					C148.09,55.468,147.338,54.955,146.553,54.523z M169.701,68.889c6.672-0.092,12.014-5.599,11.906-12.27
					c-0.107-6.646-5.602-11.916-12.346-11.83c-6.496,0.078-11.848,5.59-11.791,12.154C157.529,63.598,163.041,68.982,169.701,68.889
					z"/>
			</g>
		</g>
		<g>
			<g>
				<path fill-rule="evenodd" clip-rule="evenodd" fill="#BC81AD" d="M12.918,54.523c0-0.378,0-0.755,0-1.134
					c0.352-1.262,0.68-2.524,1.059-3.776c0.602-1.996,0.813-2.182,2.867-1.868c1.422,0.221,2.541-0.234,3.453-1.23
					c1.459-1.597,2.465-3.287,1.424-5.601c-0.664-1.469-0.467-1.804,0.916-2.668c1.053-0.655,2.133-1.275,3.238-1.843
					c1.58-0.81,1.936-0.738,2.973,0.749c0.688,0.987,1.596,1.437,2.736,1.565c2.865,0.32,4.285-0.45,5.564-3.053
					c0.432-0.88,0.939-1.494,2.102-1.123c1.211,0.389,2.492,0.577,3.711,0.956c2.051,0.626,2.129,0.73,1.848,2.884
					c-0.154,1.188,0.191,2.143,0.93,3.021c1.672,1.988,3.459,2.488,5.984,1.604c0.963-0.335,1.721-0.321,2.271,0.721
					c0.699,1.329,1.473,2.624,2.254,3.908c0.662,1.087,0.213,1.814-0.646,2.506c-0.484,0.393-1.027,0.823-1.291,1.362
					c-1.266,2.567-0.068,5.801,2.506,6.971c0.984,0.446,1.623,1.026,1.199,2.274c-0.436,1.277-0.695,2.617-1.117,3.901
					c-0.559,1.693-0.912,1.937-2.619,1.562c-1.42-0.311-2.514,0.167-3.518,1.055c-1.457,1.302-2.574,3.799-1.232,5.784
					c0.785,1.17,0.563,1.644-0.646,2.413c-1.236,0.785-2.52,1.509-3.836,2.154c-1.494,0.728-1.752,0.652-2.668-0.76
					c-0.623-0.97-1.465-1.479-2.553-1.676c-2.594-0.456-4.684,0.671-5.754,3.156c-0.424,0.987-0.988,1.54-2.16,1.177
					c-1.295-0.4-2.633-0.656-3.92-1.07c-1.725-0.556-1.996-1.009-1.611-2.821c0.258-1.232-0.1-2.234-0.842-3.151
					c-1.615-1.985-3.527-2.467-6.008-1.533c-1.412,0.528-1.729,0.457-2.539-0.767c-0.584-0.877-1.135-1.782-1.637-2.709
					c-1.309-2.414-1.287-2.41,0.91-4.098c1.361-1.044,1.764-2.514,1.572-4.132c-0.189-1.594-0.977-2.796-2.561-3.435
					C14.455,55.468,13.701,54.955,12.918,54.523z M36.064,68.889c6.672-0.092,12.014-5.599,11.906-12.27
					c-0.105-6.646-5.602-11.916-12.344-11.83c-6.496,0.078-11.85,5.59-11.791,12.154C23.893,63.598,29.404,68.982,36.064,68.889z"/>
			</g>
		</g>
	</g>
	<g>
		<g>
			<path fill-rule="evenodd" clip-rule="evenodd" fill="#A04B8A" d="M101.959,22.037c8.582,0.278,15.221,3.997,19.521,11.442
				c4.133,7.148,3.615,14.217-1.074,20.995c-0.883,1.275-1.572,2.72-2.609,3.847c-3.822,4.146-5.26,8.957-4.588,14.522
				c0.33,2.753-0.379,5.017-3.742,5.202c-1.611,0.09-1.75,1.498-2.432,2.475c-2.787,4.015-6.996,3.973-9.824-0.074
				c-0.438-0.625-0.727-1.83-1.189-1.884c-6.443-0.763-4.953-5.629-4.918-9.569c0.025-2.639-0.688-4.795-2.314-6.843
				c-1.732-2.182-3.244-4.542-4.834-6.835c-4.789-6.893-5.344-14.138-1.32-21.482C86.771,26.288,93.367,22.475,101.959,22.037z
				 M101.295,63.833c6.047,0,6.023-0.015,9.029-4.578c1.533-2.332,3.166-4.6,4.781-6.875c6.977-9.813,3.262-20.784-8.303-24.507
				c-6.543-2.104-14.016,0.549-18.465,6.561c-4.326,5.841-4.23,11.721,0.277,17.957c1.729,2.386,3.73,4.628,5.088,7.209
				C95.551,63.098,98.051,64.65,101.295,63.833z"/>
			<path fill-rule="evenodd" clip-rule="evenodd" fill="#A04B8A" d="M83.416,66.658c-0.148,0.288-0.363,1.072-0.859,1.59
				c-2.428,2.56-4.891,5.091-7.428,7.552c-1.25,1.216-2.809,1.462-4.074,0.089c-1.037-1.123-1.076-2.639-0.018-3.779
				c2.502-2.703,5.105-5.309,7.73-7.894c0.982-0.971,2.268-0.978,3.424-0.34C83.021,64.336,83.473,65.177,83.416,66.658z"/>
			<path fill-rule="evenodd" clip-rule="evenodd" fill="#A04B8A" d="M67.09,41.527c2.332,0.427,6.982-1.401,7.117,2.855
				c0.146,4.661-4.596,2.496-7.299,2.92c-1.648,0.265-3.377,0.086-5.066,0.008c-1.771-0.082-3.535-0.402-3.578-2.692
				c-0.045-2.475,1.73-3.006,3.738-3.08C63.539,41.481,65.078,41.527,67.09,41.527z"/>
			<path fill-rule="evenodd" clip-rule="evenodd" fill="#A04B8A" d="M133.938,73.999c-0.023,0.971-0.268,1.848-1.188,2.344
				c-1.211,0.651-2.438,0.573-3.408-0.379c-2.631-2.588-5.213-5.224-7.754-7.891c-0.945-0.991-1.057-2.192-0.297-3.388
				c0.535-0.852,1.34-1.206,2.338-1.19C125.576,63.523,133.945,72.038,133.938,73.999z"/>
			<path fill-rule="evenodd" clip-rule="evenodd" fill="#A04B8A" d="M137.711,47.423c-1.848-0.082-3.705-0.07-5.539-0.285
				c-1.328-0.156-2.273-0.983-2.338-2.452c-0.072-1.644,0.824-2.839,2.369-2.902c3.846-0.16,7.707-0.16,11.555,0.003
				c1.559,0.067,2.396,1.284,2.314,2.932c-0.07,1.49-1.041,2.317-2.35,2.424c-1.99,0.168-4.006,0.043-6.008,0.043
				C137.715,47.267,137.711,47.345,137.711,47.423z"/>
			<path fill-rule="evenodd" clip-rule="evenodd" fill="#A04B8A" d="M72.873,12.22c1.002-0.039,1.797,0.39,2.479,1.081
				c2.289,2.318,4.607,4.605,6.859,6.96c1.309,1.365,1.939,2.944,0.297,4.464c-1.406,1.298-2.902,0.853-4.137-0.356
				c-2.432-2.393-4.803-4.846-7.191-7.28c-1.002-1.024-0.959-2.248-0.51-3.47C71.033,12.631,71.875,12.27,72.873,12.22z"/>
			<path fill-rule="evenodd" clip-rule="evenodd" fill="#A04B8A" d="M120.875,22.24c0.162-0.303,0.402-1.072,0.9-1.598
				c2.436-2.553,4.906-5.069,7.428-7.537c1.102-1.076,2.521-1.366,3.744-0.331c1.369,1.161,1.465,2.805,0.289,4.093
				c-2.482,2.714-5.113,5.295-7.752,7.858c-0.975,0.948-2.25,1.009-3.402,0.285C121.279,24.511,120.799,23.702,120.875,22.24z"/>
			<path fill-rule="evenodd" clip-rule="evenodd" fill="#A04B8A" d="M99.344,7.977c0-1.544-0.01-3.084,0-4.628
				c0.016-1.953,0.777-3.397,2.924-3.348c1.881,0.043,2.646,1.365,2.658,3.13c0.021,3.391,0.014,6.786-0.008,10.176
				c-0.01,1.776-0.863,3.125-2.664,3.167c-2.09,0.047-2.881-1.473-2.906-3.409C99.326,11.369,99.344,9.675,99.344,7.977z"/>
		</g>
	</g>
	<g>
		<path fill="#A04B8A" d="M69.695,152.622c0,2.908-2.342,5.252-5.363,5.252h-2.299v4.816h-3.504v-15.325h5.803
			C67.354,147.365,69.695,149.708,69.695,152.622z M66.193,152.622c0-1.121-0.789-1.973-1.861-1.973h-2.299v3.939h2.299
			C65.404,154.588,66.193,153.737,66.193,152.622z"/>
		<path fill="#A04B8A" d="M76.623,157.655h-1.664v5.035h-3.504v-15.325h6.131c2.91,0,5.254,2.343,5.254,5.257
			c0,1.883-1.139,3.59-2.824,4.441l3.262,5.627h-3.766L76.623,157.655z M74.959,154.588h2.627c0.965,0,1.752-0.852,1.752-1.967
			c0-1.121-0.787-1.973-1.752-1.973h-2.627V154.588z"/>
		<path fill="#A04B8A" d="M84.051,155.028c0-4.511,3.57-7.969,7.971-7.969s7.969,3.458,7.969,7.969s-3.568,7.969-7.969,7.969
			S84.051,159.539,84.051,155.028z M96.488,155.028c0-2.738-1.971-4.554-4.467-4.554s-4.467,1.815-4.467,4.554
			s1.971,4.554,4.467,4.554S96.488,157.766,96.488,155.028z"/>
		<path fill="#A04B8A" d="M99.781,160.02l3.043-1.75c0.48,0.852,0.984,1.312,2.168,1.312c1.533,0,1.992-0.874,1.992-1.815v-10.401
			h3.502v10.401c0,3.369-2.363,5.23-5.516,5.23C102.539,162.997,100.789,161.969,99.781,160.02z"/>
		<path fill="#A04B8A" d="M122.646,159.321v3.369h-9.635v-15.325h9.523v3.37h-6.018v2.541h5.473v3.327h-5.473v2.718H122.646z"/>
		<path fill="#A04B8A" d="M123.859,155.028c0-4.511,3.348-7.969,7.969-7.969c2.781,0,5.232,1.379,6.568,3.547l-3.021,1.752
			c-0.68-1.185-1.992-1.884-3.547-1.884c-2.717,0-4.469,1.815-4.469,4.554s1.752,4.554,4.469,4.554c1.555,0,2.889-0.699,3.547-1.884
			l3.021,1.751c-1.313,2.169-3.766,3.548-6.568,3.548C127.207,162.997,123.859,159.539,123.859,155.028z"/>
		<path fill="#A04B8A" d="M150.336,150.735h-3.939v11.955h-3.504v-11.955h-3.941v-3.37h11.385V150.735z"/>
		<path fill="#A04B8A" d="M59.131,176.935c0-4.511,3.57-7.97,7.971-7.97c4.402,0,7.969,3.459,7.969,7.97s-3.566,7.97-7.969,7.97
			C62.701,184.905,59.131,181.446,59.131,176.935z M71.568,176.935c0-2.739-1.971-4.554-4.467-4.554
			c-2.494,0-4.465,1.814-4.465,4.554s1.971,4.554,4.465,4.554C69.598,181.489,71.568,179.674,71.568,176.935z"/>
		<path fill="#A04B8A" d="M75.301,169.273h3.676l2.65,10.729l2.955-10.729h2.846l2.955,10.729l2.65-10.729h3.68l-4.225,15.325
			h-3.986l-2.496-9.043l-2.496,9.043h-3.984L75.301,169.273z"/>
		<path fill="#A04B8A" d="M110.301,169.273v15.325h-2.627l-5.912-8.319v8.319h-3.504v-15.325h2.627l5.912,8.317v-8.317H110.301z"/>
		<path fill="#A04B8A" d="M122.57,181.229v3.369h-9.635v-15.325h9.525v3.369h-6.023v2.542h5.475v3.327h-5.475v2.718H122.57z"/>
		<path fill="#A04B8A" d="M129.713,179.563h-1.664v5.035h-3.502v-15.325h6.129c2.912,0,5.256,2.342,5.256,5.255
			c0,1.883-1.137,3.592-2.824,4.443l3.262,5.627h-3.764L129.713,179.563z M128.049,176.497h2.627c0.965,0,1.752-0.853,1.752-1.969
			c0-1.119-0.787-1.972-1.752-1.972h-2.627V176.497z"/>
		<path fill="#A04B8A" d="M137.033,181.118l3.021-1.751c0.549,1.269,1.488,2.122,3.219,2.122c1.664,0,2.08-0.656,2.08-1.249
			c0-0.94-0.875-1.312-3.174-1.946c-2.277-0.635-4.512-1.729-4.512-4.664c0-2.955,2.496-4.664,5.146-4.664
			c2.516,0,4.488,1.206,5.604,3.459l-2.955,1.729c-0.525-1.095-1.248-1.772-2.648-1.772c-1.096,0-1.645,0.545-1.645,1.16
			c0,0.701,0.373,1.183,2.76,1.903c2.32,0.702,4.928,1.512,4.928,4.753c0,2.955-2.365,4.707-5.693,4.707
			C139.947,184.905,137.887,183.372,137.033,181.118z"/>
	</g>
	<g>
		<g>
			<path fill-rule="evenodd" clip-rule="evenodd" fill="#A04B8A" d="M106.559,94.932c-0.932-0.873-1.551-2.082-2.443-3.312
				c0.082-0.062,0.164-0.122,0.246-0.183h-4.279c0.115,0.082,0.223,0.164,0.336,0.246c-1.184,1.541-2.004,2.967-3.152,4.033
				c-2.621,2.432-2.535,4.628-0.459,7.498c1.025,1.42,1.314,3.762,1.137,5.605c-0.578,5.912-1.529,11.785-2.371,17.903h13.342
				c-0.898-6.373-1.84-12.397-2.537-18.452c-0.168-1.444-0.012-3.388,0.83-4.411C109.967,100.512,109.586,97.756,106.559,94.932z"/>
			<path fill-rule="evenodd" clip-rule="evenodd" fill="#A04B8A" d="M155.379,126.817c-13.664,0-26.703,0-40.092,0
				c2.523-13.774,5.002-27.285,7.598-41.458c2.596,1.348,4.84,2.271,6.816,3.587c7.01,4.664,13.957,9.432,20.879,14.228
				c3.361,2.331,4.809,5.704,4.803,9.748C155.375,117.407,155.379,121.892,155.379,126.817z"/>
			<path fill-rule="evenodd" clip-rule="evenodd" fill="#A04B8A" d="M49.029,126.817c13.668,0,26.707,0,40.092,0
				c-2.523-13.774-4.998-27.285-7.594-41.458c-2.596,1.348-4.84,2.271-6.82,3.587c-7.008,4.664-13.953,9.432-20.875,14.228
				c-3.361,2.331-4.809,5.704-4.803,9.748C49.037,117.407,49.029,121.892,49.029,126.817z"/>
		</g>
	</g>
</g>
</svg>
