<?xml version="1.0" encoding="utf-8"?>
<!-- Generator: Adobe Illustrator 16.0.0, SVG Export Plug-In . SVG Version: 6.00 Build 0)  -->
<!DOCTYPE svg PUBLIC "-//W3C//DTD SVG 1.1//EN" "http://www.w3.org/Graphics/SVG/1.1/DTD/svg11.dtd">
<svg version="1.1" id="Layer_1" xmlns="http://www.w3.org/2000/svg" xmlns:xlink="http://www.w3.org/1999/xlink" x="0px" y="0px"
	 width="203.664px" height="91.887px" viewBox="0 0 203.664 91.887" enable-background="new 0 0 203.664 91.887"
	 xml:space="preserve">
<linearGradient id="SVGID_1_" gradientUnits="userSpaceOnUse" x1="-2589.4795" y1="-3739.2266" x2="-2497.5928" y2="-3739.2266" gradientTransform="matrix(0 1 -1 0 -3637.394 2589.4795)">
	<stop  offset="0" style="stop-color:#4B48BF"/>
	<stop  offset="0.2833" style="stop-color:#6E49A9"/>
	<stop  offset="0.5664" style="stop-color:#8A4A98"/>
	<stop  offset="0.8145" style="stop-color:#9B4B8E"/>
	<stop  offset="1" style="stop-color:#A14B8A"/>
</linearGradient>
<path fill="url(#SVGID_1_)" d="M203.665,33.707h-9.033l1.523,1.529h-64.059l3.527-6.111c0.667,0.396,1.434,0.628,2.264,0.63
	c2.457-0.002,4.45-1.996,4.45-4.452c0-2.457-1.993-4.446-4.45-4.446c-2.421,0-4.382,1.932-4.439,4.342h-7.541h-11.978l-5.986-10.371
	l-3.765-6.525c1.33-0.771,2.221-2.204,2.221-3.854c0-2.453-1.989-4.447-4.446-4.447s-4.447,1.994-4.447,4.447
	c0,1.65,0.892,3.084,2.222,3.854l-3.766,6.525l-5.99,10.371H77.995h-7.53c-0.01-2.449-1.996-4.435-4.446-4.435
	c-2.458,0-4.452,1.996-4.452,4.45c0,2.456,1.993,4.445,4.452,4.445c0.809,0,1.573-0.217,2.228-0.598l3.566,6.175H7.502l1.53-1.529H0
	v9.028l1.522-1.527v9.507L0,49.185v9.032l9.033-0.003l-1.561-1.563h64.34l-3.525,6.115c-0.665-0.396-1.442-0.628-2.268-0.628
	c-2.458,0-4.452,1.994-4.452,4.45c0,2.46,1.993,4.446,4.452,4.446c2.42,0,4.387-1.933,4.438-4.347h7.538l11.978,0.007l5.99,10.373
	l3.766,6.524c-1.33,0.767-2.222,2.2-2.222,3.844c0,2.461,1.99,4.45,4.447,4.45s4.446-1.989,4.446-4.45
	c0-1.644-0.892-3.077-2.221-3.844l3.761-6.524l5.99-10.38l11.978,0.007l7.534-0.007c0.007,2.449,1.994,4.439,4.446,4.439
	c2.457,0,4.45-1.993,4.45-4.45c0-2.46-1.993-4.449-4.45-4.449c-0.813,0-1.572,0.224-2.229,0.603l-3.563-6.18h64.094l-1.559,1.565
	l9.033-0.003v-9.029l-1.531,1.53v-9.507l1.531,1.527V33.707z M199.836,41.208v9.507v3.645h-3.646h-64.094h-3.976l1.987,3.439
	l3.564,6.181l0.239,0.416h-0.471h-7.534h-11.978h-1.318l-0.663,1.149l-5.987,10.379l-3.772,6.521l-0.235,0.406l-0.235-0.406
	l-3.769-6.521L91.96,65.545l-0.664-1.149h-1.324H77.995h-7.538h-0.469l0.285-0.485l3.524-6.111l1.986-3.439h-3.971H7.472h-3.65
	l0.003-3.645v-9.507l-0.003-3.679h3.681h64.31h3.975l-1.99-3.441l-3.562-6.172l-0.247-0.425h0.477h7.53h11.978h1.324l0.664-1.145
	l5.988-10.372l3.769-6.528l0.235-0.41l0.235,0.41l3.772,6.528l5.987,10.372l0.663,1.145h1.318h11.978h7.538h0.467l-0.282,0.488
	l-3.521,6.108l-1.987,3.441h3.976h64.059h3.682V41.208z M141.614,44.343c0,2.254-1.815,4.075-4.162,4.075h-1.782v3.737h-2.725V40.26
	h4.507C139.798,40.26,141.614,42.075,141.614,44.343z M138.896,44.343c0-0.869-0.609-1.533-1.444-1.536h-1.782v3.06h1.782
	C138.287,45.866,138.896,45.206,138.896,44.343z M143.567,46.208c0-3.502,2.774-6.187,6.19-6.187s6.187,2.685,6.187,6.187
	c0,3.498-2.771,6.186-6.187,6.186S143.567,49.706,143.567,46.208z M153.227,46.208c0-2.126-1.53-3.537-3.47-3.537
	c-1.936,0-3.466,1.411-3.466,3.537c0,2.121,1.53,3.533,3.466,3.533C151.697,49.741,153.223,48.329,153.227,46.208z M165.627,49.542
	v2.613h-6.963V40.26h2.721v9.282H165.627z M170.727,40.26v11.896h-2.721V40.26H170.727z M173.448,46.208
	c0-3.502,2.6-6.187,6.184-6.187c2.164,0,4.064,1.069,5.102,2.753l-2.346,1.361c-0.523-0.92-1.549-1.465-2.756-1.465
	c-2.104,0-3.467,1.411-3.467,3.537c0,2.121,1.363,3.533,3.467,3.533c1.207,0,2.25-0.545,2.756-1.462l2.346,1.362
	c-1.023,1.683-2.92,2.752-5.102,2.752C176.047,52.394,173.448,49.706,173.448,46.208z M194.67,49.538v2.617h-7.477V40.26h7.398
	v2.618h-4.678v1.971l4.254-0.003v2.589h-4.254v2.107L194.67,49.538z M9.408,46.026c0-3.506,2.597-6.19,6.18-6.19
	c2.164,0,4.07,1.073,5.1,2.756l-2.339,1.355c-0.527-0.917-1.546-1.455-2.761-1.459c-2.104,0-3.465,1.412-3.465,3.538
	c0,2.125,1.361,3.533,3.465,3.533c1.214,0,2.251-0.545,2.761-1.458l2.345,1.357c-1.025,1.684-2.928,2.753-5.106,2.753
	C12.004,52.212,9.408,49.524,9.408,46.026z M25.977,48.066h-1.294v3.907h-2.716V40.075h4.757c2.259,0,4.077,1.818,4.077,4.078
	c0,1.462-0.882,2.792-2.19,3.452l2.53,4.368h-2.921L25.977,48.066z M24.683,45.68h2.041c0.746,0,1.358-0.652,1.358-1.526
	c0-0.866-0.612-1.526-1.358-1.526h-2.041V45.68z M37.769,47.402v4.571H35.05v-4.571l-3.992-7.327h3.09l2.264,4.592l2.259-4.592
	h3.094L37.769,47.402z M51.447,44.153c0,2.261-1.814,4.08-4.159,4.08H45.5l0.001,3.74h-2.715V40.075h4.502
	C49.633,40.075,51.447,41.894,51.447,44.153z M48.732,44.153c0-0.866-0.612-1.526-1.444-1.526h-1.787v3.053h1.787
	C48.121,45.68,48.732,45.021,48.732,44.153z M60.629,42.692h-3.06v9.281h-2.723v-9.281h-3.058v-2.617h8.841V42.692z M60.626,46.026
	c0-3.506,2.771-6.19,6.188-6.19c3.414,0,6.188,2.685,6.188,6.193c0,3.501-2.774,6.183-6.188,6.183
	C63.397,52.212,60.626,49.524,60.626,46.026z M70.284,46.029c0-2.129-1.533-3.541-3.47-3.537c-1.938,0-3.468,1.408-3.468,3.534
	c0,2.125,1.53,3.533,3.468,3.533C68.751,49.56,70.284,48.151,70.284,46.029z M75.882,53.682l2.9-7.652l-2.9-7.659l4.412,7.659
	L75.882,53.682z M127.893,38.292l-2.899,7.659l2.899,7.651l-4.422-7.651L127.893,38.292z M101.596,18.064l0.378-0.649l0.378,0.649
	l5.987,10.38l1.572,2.716c-2.371-1.25-5.071-1.96-7.938-1.96s-5.573,0.71-7.939,1.96l1.573-2.716L101.596,18.064z M77.261,31.682
	l0.377,0.652l5.99,10.376l1.378,2.382c0.364-5.688,3.522-10.607,8.111-13.41h-3.12H78.016H77.261z M89.998,60.218h2.323
	c-4.28-2.956-7.137-7.82-7.345-13.364l-1.348,2.335l-5.99,10.373l-0.377,0.656h0.755H89.998z M108.339,63.459l1.148-1.99
	c-2.268,1.12-4.818,1.751-7.514,1.751s-5.249-0.631-7.516-1.751l1.15,1.99l5.988,10.372l0.378,0.651l0.378-0.651L108.339,63.459z
	 M126.684,60.218l-0.374-0.656l-5.99-10.373l-1.348-2.335c-0.207,5.54-3.07,10.408-7.35,13.364h2.328h11.981H126.684z
	 M126.684,31.682h-0.752h-11.981h-3.119c4.585,2.803,7.744,7.727,8.111,13.41l1.377-2.382l5.99-10.376L126.684,31.682z
	 M105.048,44.454h-6.215v-2.561h6.215c0.763,0,1.258,0.538,1.258,1.279C106.306,43.918,105.79,44.454,105.048,44.454z
	 M106.824,48.769c0,0.805-0.539,1.383-1.362,1.383h-6.628v-2.767h6.628C106.285,47.385,106.824,47.966,106.824,48.769z
	 M101.974,32.256c-7.694,0-13.956,6.261-13.956,13.952c0,7.694,6.262,13.955,13.956,13.955c7.695,0,13.956-6.261,13.956-13.955
	C115.93,38.517,109.669,32.256,101.974,32.256z M105.461,53.25h-0.502v2.685h-2.439V53.25h-1.23v2.685h-2.435v-2.682H93.98v-3.084
	h1.551v-8.283H93.98v-3.084v-0.011h4.875v-2.678h2.435v2.678h1.23v-2.678h2.439v2.678h0.089c2.517,0,4.561,1.634,4.561,4.133
	c0,1.197-0.472,2.15-1.256,2.831c1.069,0.681,1.775,1.794,1.775,3.263C110.128,51.577,108.04,53.25,105.461,53.25z"/>
</svg>
