<?xml version="1.0" encoding="utf-8"?>
<!-- Generator: Adobe Illustrator 16.0.0, SVG Export Plug-In . SVG Version: 6.00 Build 0)  -->
<!DOCTYPE svg PUBLIC "-//W3C//DTD SVG 1.1//EN" "http://www.w3.org/Graphics/SVG/1.1/DTD/svg11.dtd">
<svg version="1.1" id="Layer_1" xmlns="http://www.w3.org/2000/svg" xmlns:xlink="http://www.w3.org/1999/xlink" x="0px" y="0px"
	 width="204.75px" height="145.657px" viewBox="0 0 204.75 145.657" enable-background="new 0 0 204.75 145.657"
	 xml:space="preserve">
<g>
	<g>
		<path fill="#706DCB" d="M50.078,130.025v15.325h-3.503v-15.325H50.078z"/>
		<path fill="#706DCB" d="M64.75,130.025v15.325h-2.626l-5.912-8.318v8.318h-3.503v-15.325h2.627l5.911,8.319v-8.319H64.75z"/>
		<path fill="#706DCB" d="M66.072,130.025h3.831l3.395,11.275l3.394-11.275h3.832l-4.992,15.325h-4.467L66.072,130.025z"/>
		<path fill="#706DCB" d="M91.478,141.981v3.369h-9.634v-15.325h9.524v3.37h-6.021v2.541h5.473v3.327h-5.473v2.718H91.478z"/>
		<path fill="#706DCB" d="M92.688,141.87l3.022-1.75c0.547,1.27,1.489,2.122,3.218,2.122c1.665,0,2.081-0.657,2.081-1.249
			c0-0.941-0.876-1.313-3.175-1.946c-2.276-0.635-4.51-1.729-4.51-4.665c0-2.954,2.496-4.662,5.146-4.662
			c2.518,0,4.488,1.205,5.605,3.458l-2.956,1.729c-0.526-1.095-1.248-1.772-2.649-1.772c-1.096,0-1.643,0.546-1.643,1.159
			c0,0.703,0.373,1.184,2.759,1.903c2.321,0.703,4.927,1.513,4.927,4.755c0,2.954-2.365,4.705-5.692,4.705
			C95.601,145.657,93.542,144.124,92.688,141.87z"/>
		<path fill="#706DCB" d="M116.014,133.395h-3.94v11.955h-3.503v-11.955h-3.941v-3.37h11.385V133.395z"/>
		<path fill="#706DCB" d="M116.02,137.688c0-4.511,3.57-7.969,7.97-7.969c4.401,0,7.969,3.458,7.969,7.969s-3.568,7.969-7.969,7.969
			C119.59,145.657,116.02,142.199,116.02,137.688z M128.457,137.688c0-2.738-1.97-4.554-4.466-4.554
			c-2.496,0-4.466,1.815-4.466,4.554s1.971,4.554,4.466,4.554C126.486,142.242,128.457,140.426,128.457,137.688z"/>
		<path fill="#706DCB" d="M139.107,140.315h-1.663v5.035h-3.503v-15.325h6.13c2.912,0,5.255,2.343,5.255,5.257
			c0,1.883-1.138,3.59-2.824,4.441l3.263,5.627h-3.766L139.107,140.315z M137.444,137.249h2.627c0.963,0,1.751-0.852,1.751-1.967
			c0-1.121-0.788-1.973-1.751-1.973h-2.627V137.249z"/>
		<path fill="#706DCB" d="M146.427,141.87l3.021-1.75c0.548,1.27,1.489,2.122,3.218,2.122c1.664,0,2.081-0.657,2.081-1.249
			c0-0.941-0.876-1.313-3.175-1.946c-2.276-0.635-4.51-1.729-4.51-4.665c0-2.954,2.496-4.662,5.146-4.662
			c2.517,0,4.488,1.205,5.605,3.458l-2.956,1.729c-0.526-1.095-1.249-1.772-2.649-1.772c-1.096,0-1.643,0.546-1.643,1.159
			c0,0.703,0.373,1.184,2.759,1.903c2.321,0.703,4.927,1.513,4.927,4.755c0,2.954-2.365,4.705-5.692,4.705
			C149.339,145.657,147.281,144.124,146.427,141.87z"/>
	</g>
	<g>
		<g>
			<path fill-rule="evenodd" clip-rule="evenodd" fill="#9B99DB" d="M158.609,21.203c-0.384-0.978-0.727-1.852-1.233-3.134
				c1.286,0.057,2.285,0.124,3.287,0.143c2.622,0.035,5.298,0.402,7.854,0.007c4.65-0.725,8.265,0.345,10.651,4.6
				c0.177,0.316,0.47,0.691,0.785,0.788c4.888,1.501,5.233,5.451,5.243,9.605c0.003,2.271-0.092,4.36,0.69,6.768
				c0.778,2.4-0.604,5.879-1.885,8.465c-1.513,3.056-3.017,5.933-3.101,9.445c-0.023,0.959-0.682,2.192-1.447,2.81
				c-2.875,2.304-5.914,4.407-8.984,6.649c0.597,0.824,1.011,1.634,1.635,2.214c2.024,1.891,2.278,3.73,0.435,5.973
				c-0.564,0.685-0.669,1.983-0.559,2.949c0.467,4.05,1.096,8.08,1.699,12.337c-3.03,0-5.88,0-8.92,0
				c0.56-4.086,1.198-8.019,1.583-11.969c0.121-1.234-0.072-2.8-0.76-3.748c-1.388-1.918-1.444-3.388,0.308-5.014
				c0.768-0.717,1.315-1.668,2.107-2.699c-3.061-2.25-6.048-4.374-8.941-6.621c-0.679-0.528-1.482-1.473-1.467-2.214
				c0.079-4.054-1.701-7.328-3.529-10.789c-1.477-2.797-3.462-5.98-0.719-9.464c0.591-0.753,0.048-2.425-0.03-3.67
				C152.977,29.325,153.919,24.522,158.609,21.203z"/>
			<path fill-rule="evenodd" clip-rule="evenodd" fill="#9B99DB" d="M204.748,90.885c-9.138,0-17.856,0-26.807,0
				c1.688-9.21,3.343-18.245,5.08-27.719c1.734,0.898,3.235,1.515,4.56,2.396c4.686,3.12,9.329,6.304,13.957,9.514
				c2.25,1.559,3.218,3.815,3.212,6.518C204.745,84.591,204.748,87.59,204.748,90.885z"/>
			<path fill-rule="evenodd" clip-rule="evenodd" fill="#9B99DB" d="M133.638,90.885c9.137,0,17.855,0,26.807,0
				c-1.688-9.21-3.343-18.245-5.08-27.719c-1.736,0.898-3.234,1.515-4.56,2.396c-4.686,3.12-9.33,6.304-13.957,9.514
				c-2.25,1.559-3.217,3.815-3.213,6.518C133.64,84.591,133.638,87.59,133.638,90.885z"/>
		</g>
	</g>
	<g>
		<g>
			<path fill-rule="evenodd" clip-rule="evenodd" fill="#9B99DB" d="M24.973,21.17c-0.384-0.978-0.727-1.848-1.233-3.135
				c1.286,0.058,2.285,0.125,3.287,0.14c2.622,0.043,5.299,0.406,7.854,0.007c4.65-0.72,8.265,0.35,10.65,4.604
				c0.176,0.313,0.47,0.691,0.786,0.788c4.888,1.501,5.233,5.451,5.242,9.606c0.004,2.27-0.092,4.359,0.69,6.77
				c0.779,2.396-0.603,5.877-1.883,8.463c-1.513,3.055-3.018,5.936-3.102,9.441c-0.024,0.966-0.683,2.196-1.446,2.81
				c-2.876,2.307-5.915,4.407-8.986,6.652c0.599,0.825,1.012,1.634,1.636,2.215c2.024,1.89,2.277,3.729,0.435,5.973
				c-0.564,0.685-0.669,1.982-0.559,2.948c0.467,4.047,1.097,8.077,1.699,12.337c-3.03,0-5.88,0-8.921,0
				c0.561-4.089,1.199-8.015,1.584-11.97c0.12-1.233-0.072-2.799-0.76-3.747c-1.388-1.919-1.444-3.384,0.308-5.013
				c0.769-0.714,1.315-1.669,2.107-2.699c-3.061-2.25-6.049-4.375-8.941-6.621c-0.678-0.528-1.481-1.473-1.466-2.212
				c0.078-4.054-1.701-7.331-3.529-10.793c-1.477-2.795-3.461-5.979-0.72-9.463c0.591-0.749,0.048-2.425-0.03-3.67
				C19.339,29.295,20.283,24.486,24.973,21.17z"/>
			<path fill-rule="evenodd" clip-rule="evenodd" fill="#9B99DB" d="M71.111,90.853c-9.138,0-17.856,0-26.806,0
				c1.687-9.21,3.342-18.245,5.079-27.723c1.735,0.902,3.234,1.52,4.559,2.399c4.686,3.12,9.331,6.305,13.958,9.514
				c2.25,1.559,3.218,3.815,3.212,6.518C71.108,84.56,71.111,87.558,71.111,90.853z"/>
			<path fill-rule="evenodd" clip-rule="evenodd" fill="#9B99DB" d="M0.002,90.853c9.137,0,17.855,0,26.807,0
				c-1.688-9.21-3.343-18.245-5.08-27.723c-1.735,0.902-3.234,1.52-4.56,2.399c-4.686,3.12-9.329,6.305-13.957,9.514
				C0.962,76.602-0.005,78.859,0,81.561C0.003,84.56,0.002,87.558,0.002,90.853z"/>
		</g>
	</g>
	<path fill-rule="evenodd" clip-rule="evenodd" fill="#706DCB" d="M73.136,65.027c-0.203-0.905-0.396-1.811-0.593-2.713
		c-0.047-0.224-0.098-0.446-0.151-0.688c-0.769,0.37-1.556,0.588-2.369,0.72c-1.085,0.178-2.165,0.164-3.226-0.153
		c-1.498-0.453-2.554-1.391-3.067-2.888c-0.081-0.24-0.141-0.482-0.219-0.749c2.712,0,5.39,0,8.066,0c0-0.767,0-1.512,0-2.275
		c-2.841,0-5.667,0-8.484,0c0-0.514,0-1.009,0-1.526c2.852,0,5.67,0,8.484,0c0-0.767,0-1.512,0-2.271c-2.668,0-5.317,0-7.988,0
		c0.038-0.136,0.072-0.253,0.106-0.372c0.253-0.845,0.69-1.575,1.348-2.166c1.039-0.936,2.275-1.306,3.65-1.281
		c1.104,0.021,2.162,0.278,3.189,0.667c0.08,0.032,0.159,0.061,0.249,0.093c0.021-0.071,0.037-0.114,0.048-0.16
		c0.271-1.106,0.537-2.211,0.815-3.316c0.036-0.146,0.008-0.203-0.132-0.26c-1.757-0.692-3.578-0.98-5.464-0.856
		c-1.021,0.071-2.015,0.274-2.957,0.671c-2.957,1.24-4.841,3.443-5.754,6.5c-0.049,0.152-0.046,0.371-0.152,0.452
		c-0.106,0.082-0.316,0.033-0.479,0.033c-0.543,0-1.086,0-1.638,0c0,0.763,0,1.515,0,2.285c0.599,0,1.181,0,1.756,0
		c0,0.505,0,0.998,0,1.508c-0.599,0-1.176,0-1.76,0c0,0.767,0,1.516,0,2.286c0.081,0,0.145,0,0.209,0
		c0.554,0,1.111,0.003,1.666-0.004c0.16-0.007,0.229,0.036,0.252,0.203c0.04,0.25,0.097,0.496,0.165,0.742
		c0.601,2.246,1.878,4.011,3.807,5.298c1.525,1.024,3.234,1.508,5.052,1.598c1.903,0.089,3.726-0.268,5.439-1.119
		C73.126,65.224,73.167,65.164,73.136,65.027z"/>
	<path fill-rule="evenodd" clip-rule="evenodd" fill="#706DCB" d="M143.69,65.027c-0.202-0.905-0.395-1.811-0.593-2.713
		c-0.047-0.224-0.098-0.446-0.151-0.688c-0.769,0.37-1.556,0.588-2.369,0.72c-1.086,0.178-2.166,0.164-3.226-0.153
		c-1.498-0.453-2.554-1.391-3.067-2.888c-0.083-0.24-0.141-0.482-0.22-0.749c2.713,0,5.39,0,8.067,0c0-0.767,0-1.512,0-2.275
		c-2.841,0-5.667,0-8.484,0c0-0.514,0-1.009,0-1.526c2.852,0,5.669,0,8.484,0c0-0.767,0-1.512,0-2.271c-2.668,0-5.318,0-7.988,0
		c0.037-0.136,0.071-0.253,0.106-0.372c0.252-0.845,0.691-1.575,1.348-2.166c1.04-0.936,2.276-1.306,3.651-1.281
		c1.103,0.021,2.161,0.278,3.188,0.667c0.08,0.032,0.159,0.061,0.25,0.093c0.021-0.071,0.037-0.114,0.048-0.16
		c0.271-1.106,0.538-2.211,0.816-3.316c0.036-0.146,0.007-0.203-0.133-0.26c-1.757-0.692-3.578-0.98-5.464-0.856
		c-1.02,0.071-2.015,0.274-2.957,0.671c-2.958,1.24-4.841,3.443-5.754,6.5c-0.048,0.152-0.046,0.371-0.151,0.452
		c-0.107,0.082-0.316,0.033-0.479,0.033c-0.544,0-1.086,0-1.639,0c0,0.763,0,1.515,0,2.285c0.6,0,1.18,0,1.757,0
		c0,0.505,0,0.998,0,1.508c-0.6,0-1.176,0-1.762,0c0,0.767,0,1.516,0,2.286c0.082,0,0.146,0,0.211,0c0.554,0,1.11,0.003,1.665-0.004
		c0.16-0.007,0.229,0.036,0.253,0.203c0.039,0.25,0.097,0.496,0.163,0.742c0.602,2.246,1.88,4.011,3.808,5.298
		c1.525,1.024,3.233,1.508,5.053,1.598c1.903,0.089,3.725-0.268,5.439-1.119C143.682,65.224,143.722,65.164,143.69,65.027z"/>
	<g>
		<g>
			<path fill-rule="evenodd" clip-rule="evenodd" fill="#706DCB" d="M86.378,4.776c-0.574-1.459-1.086-2.768-1.842-4.689
				c1.92,0.086,3.416,0.189,4.912,0.21c3.921,0.061,7.925,0.606,11.748,0.015c6.955-1.08,12.361,0.521,15.927,6.882
				c0.265,0.471,0.702,1.031,1.175,1.177c7.312,2.246,7.828,8.154,7.839,14.366c0.006,3.394-0.137,6.521,1.034,10.122
				c1.164,3.584-0.901,8.794-2.817,12.658c-2.264,4.571-4.512,8.875-4.639,14.123c-0.034,1.441-1.019,3.285-2.163,4.201
				c-4.3,3.447-8.846,6.592-13.437,9.948c0.893,1.233,1.512,2.442,2.444,3.315c3.028,2.824,3.406,5.581,0.649,8.929
				c-0.842,1.022-1,2.963-0.833,4.41c0.699,6.055,1.64,12.081,2.541,18.452c-4.533,0-8.795,0-13.343,0
				c0.839-6.118,1.792-11.995,2.37-17.902c0.181-1.848-0.109-4.187-1.138-5.609c-2.076-2.867-2.159-5.063,0.459-7.495
				c1.15-1.069,1.97-2.492,3.154-4.036c-4.579-3.361-9.046-6.539-13.374-9.901c-1.014-0.784-2.215-2.203-2.193-3.309
				c0.117-6.062-2.543-10.961-5.277-16.136c-2.209-4.182-5.179-8.944-1.078-14.15c0.885-1.128,0.072-3.631-0.044-5.492
				C77.953,16.923,79.363,9.739,86.378,4.776z"/>
			<path fill-rule="evenodd" clip-rule="evenodd" fill="#706DCB" d="M155.379,108.988c-13.666,0-26.703,0-40.091,0
				c2.523-13.773,4.999-27.284,7.597-41.457c2.595,1.347,4.837,2.268,6.818,3.586c7.01,4.665,13.955,9.429,20.874,14.224
				c3.364,2.336,4.812,5.706,4.804,9.753C155.374,99.579,155.379,104.06,155.379,108.988z"/>
			<path fill-rule="evenodd" clip-rule="evenodd" fill="#706DCB" d="M49.031,108.988c13.667,0,26.705,0,40.093,0
				c-2.524-13.773-5-27.284-7.598-41.457c-2.595,1.347-4.836,2.268-6.818,3.586c-7.009,4.665-13.953,9.429-20.874,14.224
				c-3.362,2.336-4.811,5.706-4.804,9.753C49.037,99.579,49.031,104.06,49.031,108.988z"/>
		</g>
	</g>
</g>
</svg>
