<?xml version="1.0" encoding="utf-8"?>
<!-- Generator: Adobe Illustrator 16.0.0, SVG Export Plug-In . SVG Version: 6.00 Build 0)  -->
<!DOCTYPE svg PUBLIC "-//W3C//DTD SVG 1.1//EN" "http://www.w3.org/Graphics/SVG/1.1/DTD/svg11.dtd">
<svg version="1.1" id="Layer_1" xmlns="http://www.w3.org/2000/svg" xmlns:xlink="http://www.w3.org/1999/xlink" x="0px" y="0px"
	 width="181.305px" height="244.982px" viewBox="0 0 181.305 244.982" enable-background="new 0 0 181.305 244.982"
	 xml:space="preserve">
<g>
	<rect x="4.983" y="4.318" fill="#FFFFFF" width="169.346" height="234.098"/>
	<g>
		<path fill="#62688F" d="M58.299,41.813v3.374h-9.633V29.859h9.523v3.372h-6.021v2.539h5.474v3.331h-5.474v2.712H58.299z"/>
		<path fill="#62688F" d="M59.509,41.704l3.021-1.751c0.548,1.271,1.489,2.125,3.218,2.125c1.664,0,2.081-0.655,2.081-1.248
			c0-0.939-0.876-1.315-3.175-1.95c-2.276-0.635-4.51-1.729-4.51-4.664c0-2.956,2.497-4.664,5.146-4.664
			c2.519,0,4.488,1.206,5.605,3.464l-2.956,1.729c-0.526-1.096-1.248-1.775-2.649-1.775c-1.095,0-1.643,0.549-1.643,1.161
			c0,0.699,0.373,1.182,2.759,1.905c2.322,0.698,4.927,1.512,4.927,4.749c0,2.956-2.365,4.71-5.691,4.71
			C62.421,45.494,60.363,43.961,59.509,41.704z"/>
		<path fill="#62688F" d="M72.325,37.525c0-4.511,3.35-7.975,7.971-7.975c2.779,0,5.231,1.381,6.568,3.549l-3.022,1.751
			c-0.679-1.182-1.99-1.883-3.546-1.883c-2.717,0-4.468,1.817-4.468,4.558c0,2.732,1.751,4.553,4.468,4.553
			c1.556,0,2.889-0.702,3.546-1.883l3.022,1.752c-1.314,2.166-3.766,3.547-6.568,3.547C75.675,45.494,72.325,42.035,72.325,37.525z"
			/>
		<path fill="#62688F" d="M93.681,40.149h-1.663v5.038h-3.503V29.859h6.129c2.913,0,5.256,2.343,5.256,5.256
			c0,1.882-1.138,3.59-2.824,4.445l3.263,5.627h-3.766L93.681,40.149z M92.018,37.086h2.626c0.965,0,1.753-0.854,1.753-1.971
			c0-1.117-0.788-1.973-1.753-1.973h-2.626V37.086z"/>
		<path fill="#62688F" d="M101.112,37.525c0-4.511,3.569-7.975,7.969-7.975c4.4,0,7.97,3.464,7.97,7.975
			c0,4.51-3.568,7.969-7.97,7.969C104.681,45.494,101.112,42.035,101.112,37.525z M113.547,37.525c0-2.739-1.97-4.558-4.467-4.558
			c-2.495,0-4.467,1.817-4.467,4.558c0,2.732,1.972,4.553,4.467,4.553C111.578,42.078,113.547,40.259,113.547,37.525z"/>
		<path fill="#62688F" d="M117.279,29.859h3.68l2.649,10.729l2.955-10.729h2.846l2.956,10.729l2.649-10.729h3.68l-4.228,15.328
			h-3.983l-2.497-9.043l-2.495,9.043h-3.986L117.279,29.859z"/>
		<path fill="#62688F" d="M58.414,63.611l3.022-1.751c0.548,1.269,1.488,2.124,3.218,2.124c1.664,0,2.081-0.654,2.081-1.247
			c0-0.94-0.876-1.315-3.175-1.95c-2.276-0.636-4.511-1.729-4.511-4.664c0-2.956,2.497-4.664,5.146-4.664
			c2.517,0,4.488,1.206,5.604,3.463l-2.955,1.729c-0.526-1.096-1.249-1.776-2.649-1.776c-1.095,0-1.643,0.549-1.643,1.162
			c0,0.699,0.372,1.182,2.759,1.904c2.32,0.698,4.927,1.512,4.927,4.75c0,2.956-2.365,4.71-5.692,4.71
			C61.327,67.401,59.269,65.868,58.414,63.611z"/>
		<path fill="#62688F" d="M87.213,67.094H83.71v-8.908l-3.963,6.499h-0.392l-3.965-6.499v8.908h-3.502V51.766h3.502l4.16,6.811
			l4.159-6.811h3.503V67.094L87.213,67.094z"/>
		<path fill="#62688F" d="M98.827,64.684h-5.69l-0.768,2.409h-3.833l5.213-15.327h4.466l5.211,15.327h-3.833L98.827,64.684z
			 M97.777,61.4l-1.796-5.627L94.186,61.4H97.777z"/>
		<path fill="#62688F" d="M109.917,62.057h-1.666v5.036h-3.501V51.766h6.129c2.913,0,5.256,2.344,5.256,5.256
			c0,1.883-1.14,3.591-2.823,4.445l3.261,5.626h-3.766L109.917,62.057z M108.25,58.994h2.628c0.963,0,1.751-0.855,1.751-1.973
			c0-1.115-0.788-1.973-1.751-1.973h-2.628V58.994z"/>
		<path fill="#62688F" d="M128.183,55.14h-3.941v11.953h-3.504V55.14h-3.94v-3.374h11.387L128.183,55.14L128.183,55.14z"/>
		<path fill="#62688F" d="M36.661,81.339c0-4.511,3.351-7.973,7.97-7.973c2.78,0,5.232,1.381,6.567,3.548l-3.021,1.751
			c-0.679-1.181-1.991-1.883-3.546-1.883c-2.715,0-4.467,1.819-4.467,4.557c0,2.735,1.752,4.555,4.467,4.555
			c1.555,0,2.891-0.703,3.546-1.884l3.021,1.751c-1.313,2.169-3.765,3.549-6.567,3.549C40.011,89.309,36.661,85.85,36.661,81.339z"
			/>
		<path fill="#62688F" d="M51.974,81.339c0-4.511,3.568-7.973,7.97-7.973s7.969,3.462,7.969,7.973c0,4.512-3.567,7.971-7.969,7.971
			S51.974,85.85,51.974,81.339z M64.41,81.339c0-2.736-1.97-4.557-4.466-4.557c-2.497,0-4.466,1.819-4.466,4.557
			c0,2.735,1.97,4.555,4.466,4.555S64.41,84.074,64.41,81.339z"/>
		<path fill="#62688F" d="M81.936,73.673v15.328h-2.628l-5.912-8.32v8.32h-3.503V73.673h2.626l5.912,8.322v-8.322H81.936z"/>
		<path fill="#62688F" d="M94.861,77.047h-3.94v11.954h-3.505V77.047h-3.939v-3.374h11.385V77.047z"/>
		<path fill="#62688F" d="M101.569,83.964h-1.666v5.037h-3.501V73.673h6.13c2.913,0,5.256,2.344,5.256,5.257
			c0,1.883-1.14,3.591-2.824,4.445l3.261,5.626h-3.766L101.569,83.964z M99.903,80.901h2.629c0.962,0,1.75-0.856,1.75-1.973
			c0-1.115-0.788-1.973-1.75-1.973h-2.629V80.901z"/>
		<path fill="#62688F" d="M118.851,86.592h-5.694l-0.767,2.409h-3.829l5.21-15.328h4.467l5.211,15.328h-3.831L118.851,86.592z
			 M117.799,83.308l-1.795-5.626l-1.796,5.626H117.799z"/>
		<path fill="#62688F" d="M123.564,81.339c0-4.511,3.353-7.973,7.972-7.973c2.78,0,5.233,1.381,6.568,3.548l-3.021,1.751
			c-0.678-1.181-1.992-1.883-3.547-1.883c-2.716,0-4.466,1.819-4.466,4.557c0,2.735,1.75,4.555,4.466,4.555
			c1.555,0,2.892-0.703,3.547-1.884l3.021,1.751c-1.314,2.169-3.767,3.549-6.568,3.549C126.917,89.309,123.564,85.85,123.564,81.339
			z"/>
		<path fill="#62688F" d="M150.046,77.047h-3.94v11.954h-3.503V77.047h-3.94v-3.374h11.385L150.046,77.047L150.046,77.047z"/>
	</g>
	
		<linearGradient id="SVGID_1_" gradientUnits="userSpaceOnUse" x1="-1352.1008" y1="-188.6653" x2="-1050.6672" y2="-188.6653" gradientTransform="matrix(0.7071 0.7071 0.7071 -0.7071 1073.5549 838.5843)">
		<stop  offset="0" style="stop-color:#FFFFFF"/>
		<stop  offset="1" style="stop-color:#E6E6E6"/>
	</linearGradient>
	<path fill="url(#SVGID_1_)" d="M171.341,9.958v225.061H9.963V9.958H171.341 M181.304,0H0v244.982h181.305V0L181.304,0z"/>
	<g>
		<g>
			<polygon fill="#62688F" points="31.044,184.682 55.59,219.19 80.136,184.682 55.59,199.266 			"/>
			<polygon fill="#62688F" points="80.136,179.879 55.59,139.268 31.044,179.879 55.59,194.555 			"/>
		</g>
		<polygon fill="#8A92B2" points="55.59,168.762 31.044,179.879 55.59,139.268 		"/>
		<polygon fill="#62688F" points="55.59,194.555 31.044,179.879 55.59,168.762 		"/>
		<polygon fill="#8A92B2" points="31.044,184.682 55.59,199.266 55.59,219.19 		"/>
		<polygon fill="#62688F" points="55.59,168.762 80.136,179.879 55.59,139.268 		"/>
		<polygon fill="#454A75" points="55.59,194.555 80.136,179.879 55.59,168.762 		"/>
		<polygon fill="#62688F" points="80.136,184.682 55.59,199.266 55.59,219.19 		"/>
	</g>
	<g>
		<rect x="29.389" y="109.864" fill="#CCCCCC" width="123.524" height="5.171"/>
		<rect x="29.389" y="120.109" fill="#CCCCCC" width="123.524" height="5.165"/>
		<g>
			<rect x="96.299" y="139.268" fill="#CCCCCC" width="56.114" height="5.166"/>
			<rect x="96.299" y="149.945" fill="#CCCCCC" width="56.114" height="5.17"/>
			<rect x="96.299" y="160.625" fill="#CCCCCC" width="56.114" height="5.17"/>
			<rect x="96.299" y="171.302" fill="#CCCCCC" width="56.114" height="5.169"/>
			<rect x="96.299" y="181.983" fill="#CCCCCC" width="56.114" height="5.169"/>
			<rect x="96.299" y="192.662" fill="#CCCCCC" width="56.114" height="5.17"/>
			<rect x="96.299" y="203.341" fill="#CCCCCC" width="56.114" height="5.172"/>
			<rect x="96.299" y="214.02" fill="#CCCCCC" width="56.114" height="5.171"/>
		</g>
	</g>
</g>
</svg>
