<?xml version="1.0" encoding="utf-8"?>
<!-- Generator: Adobe Illustrator 16.0.0, SVG Export Plug-In . SVG Version: 6.00 Build 0)  -->
<!DOCTYPE svg PUBLIC "-//W3C//DTD SVG 1.1//EN" "http://www.w3.org/Graphics/SVG/1.1/DTD/svg11.dtd">
<svg version="1.1" id="Layer_1" xmlns="http://www.w3.org/2000/svg" xmlns:xlink="http://www.w3.org/1999/xlink" x="0px" y="0px"
	 width="385.207px" height="199.602px" viewBox="0 99.771 385.207 199.602" enable-background="new 0 99.771 385.207 199.602"
	 xml:space="preserve">
<g>
	<g>
		<g>
			<path fill="#BC81AD" d="M368.882,210.958c-0.219-0.204-0.393-0.47-0.579-0.75c-0.581-0.022-1.163-0.023-1.741,0.03
				c-0.261,0.368-0.5,0.716-0.788,0.984c-0.875,0.814-0.848,1.548-0.155,2.506c0.345,0.476,0.442,1.259,0.381,1.875
				c-0.192,1.978-0.511,3.943-0.792,5.986h4.46c-0.3-2.131-0.615-4.145-0.848-6.17c-0.055-0.483-0.004-1.133,0.28-1.475
				C370.02,212.826,369.895,211.904,368.882,210.958z"/>
			<path fill="#BC81AD" d="M385.207,221.623c-4.57,0-8.93,0-13.406,0c0.843-4.606,1.67-9.125,2.538-13.862
				c0.87,0.448,1.619,0.758,2.281,1.197c2.343,1.562,4.667,3.152,6.979,4.758c1.125,0.779,1.61,1.908,1.607,3.26
				C385.205,218.475,385.207,219.974,385.207,221.623z"/>
			<path fill="#BC81AD" d="M349.646,221.623c4.568,0,8.929,0,13.407,0c-0.845-4.606-1.674-9.125-2.542-13.862
				c-0.868,0.448-1.617,0.758-2.281,1.197c-2.343,1.562-4.665,3.152-6.979,4.758c-1.125,0.779-1.608,1.908-1.607,3.26
				C349.646,218.475,349.646,219.974,349.646,221.623z"/>
			<path fill="#BC81AD" d="M302.053,210.943c-0.271-0.253-0.471-0.596-0.711-0.949h-1.442c-0.339,0.461-0.606,0.889-0.955,1.214
				c-0.875,0.815-0.849,1.548-0.155,2.507c0.345,0.476,0.442,1.258,0.382,1.874c-0.192,1.978-0.512,3.943-0.792,5.986h4.46
				c-0.3-2.129-0.615-4.144-0.849-6.168c-0.055-0.485-0.003-1.135,0.281-1.477C303.191,212.81,303.066,211.89,302.053,210.943z"/>
			<path fill="#BC81AD" d="M318.378,221.607c-4.571,0-8.931,0-13.406,0c0.844-4.606,1.67-9.125,2.539-13.862
				c0.869,0.448,1.619,0.757,2.28,1.197c2.343,1.561,4.667,3.152,6.979,4.758c1.125,0.779,1.61,1.907,1.607,3.261
				C318.376,218.458,318.378,219.958,318.378,221.607z"/>
			<path fill="#BC81AD" d="M282.816,221.607c4.569,0,8.929,0,13.406,0c-0.844-4.606-1.673-9.125-2.541-13.862
				c-0.868,0.448-1.617,0.757-2.281,1.197c-2.343,1.561-4.664,3.152-6.979,4.758c-1.125,0.779-1.609,1.907-1.607,3.261
				C282.816,218.458,282.816,219.958,282.816,221.607z"/>
		</g>
		<g>
			<g>
				<path fill="#BC81AD" d="M356.104,194.522c0-0.188,0-0.377,0-0.567c0.177-0.631,0.34-1.262,0.53-1.889
					c0.302-0.998,0.407-1.091,1.434-0.934c0.711,0.111,1.272-0.117,1.728-0.615c0.73-0.799,1.234-1.644,0.712-2.801
					c-0.331-0.735-0.234-0.902,0.458-1.334c0.526-0.328,1.066-0.637,1.619-0.921c0.79-0.406,0.968-0.369,1.487,0.375
					c0.344,0.493,0.797,0.719,1.37,0.783c1.432,0.16,2.141-0.225,2.782-1.527c0.217-0.44,0.469-0.747,1.05-0.562
					c0.607,0.194,1.247,0.289,1.856,0.478c1.026,0.313,1.065,0.365,0.925,1.443c-0.077,0.594,0.096,1.072,0.466,1.51
					c0.836,0.995,1.729,1.245,2.991,0.803c0.482-0.168,0.862-0.161,1.136,0.36c0.349,0.665,0.737,1.312,1.126,1.954
					c0.333,0.543,0.107,0.907-0.322,1.253c-0.242,0.197-0.514,0.412-0.646,0.682c-0.633,1.284-0.033,2.901,1.254,3.486
					c0.491,0.223,0.812,0.513,0.599,1.137c-0.219,0.639-0.348,1.309-0.558,1.951c-0.281,0.847-0.457,0.968-1.311,0.782
					c-0.71-0.156-1.257,0.083-1.758,0.527c-0.73,0.65-1.288,1.899-0.618,2.892c0.393,0.586,0.282,0.823-0.323,1.208
					c-0.619,0.392-1.26,0.754-1.918,1.076c-0.747,0.364-0.876,0.326-1.334-0.38c-0.313-0.484-0.733-0.74-1.276-0.838
					c-1.299-0.228-2.341,0.336-2.878,1.578c-0.212,0.493-0.494,0.771-1.08,0.589c-0.647-0.2-1.316-0.328-1.96-0.535
					c-0.863-0.278-0.999-0.505-0.806-1.41c0.129-0.617-0.049-1.118-0.421-1.577c-0.806-0.992-1.762-1.233-3.004-0.767
					c-0.706,0.265-0.864,0.229-1.269-0.382c-0.293-0.439-0.567-0.893-0.819-1.355c-0.654-1.208-0.643-1.206,0.455-2.05
					c0.681-0.522,0.883-1.257,0.786-2.066c-0.093-0.797-0.488-1.398-1.281-1.718C356.874,194.995,356.497,194.738,356.104,194.522z
					 M367.681,201.707c3.336-0.047,6.007-2.8,5.954-6.136c-0.055-3.324-2.803-5.959-6.174-5.916
					c-3.249,0.039-5.925,2.795-5.896,6.078C361.593,199.06,364.349,201.752,367.681,201.707z"/>
			</g>
		</g>
		<g>
			<g>
				<path fill="#BC81AD" d="M289.275,194.522c0-0.188,0-0.377,0-0.567c0.177-0.631,0.341-1.262,0.529-1.889
					c0.302-0.998,0.407-1.091,1.434-0.934c0.711,0.111,1.272-0.117,1.728-0.615c0.73-0.799,1.231-1.644,0.711-2.801
					c-0.331-0.735-0.233-0.902,0.458-1.334c0.527-0.328,1.067-0.637,1.621-0.921c0.789-0.406,0.968-0.369,1.487,0.375
					c0.344,0.493,0.797,0.719,1.368,0.783c1.434,0.16,2.144-0.225,2.783-1.527c0.216-0.44,0.469-0.747,1.05-0.562
					c0.606,0.194,1.247,0.289,1.857,0.478c1.024,0.313,1.064,0.365,0.923,1.443c-0.076,0.594,0.097,1.072,0.466,1.51
					c0.835,0.995,1.729,1.245,2.991,0.803c0.481-0.168,0.861-0.161,1.136,0.36c0.35,0.665,0.736,1.312,1.127,1.954
					c0.331,0.543,0.106,0.907-0.323,1.253c-0.243,0.197-0.514,0.412-0.646,0.682c-0.633,1.284-0.033,2.901,1.254,3.486
					c0.492,0.223,0.81,0.513,0.599,1.137c-0.218,0.639-0.347,1.309-0.558,1.951c-0.281,0.847-0.457,0.968-1.311,0.782
					c-0.709-0.156-1.257,0.083-1.758,0.527c-0.729,0.65-1.287,1.899-0.617,2.892c0.393,0.586,0.282,0.823-0.323,1.208
					c-0.619,0.392-1.26,0.754-1.918,1.076c-0.748,0.364-0.876,0.326-1.334-0.38c-0.313-0.484-0.733-0.74-1.276-0.838
					c-1.299-0.228-2.344,0.336-2.878,1.578c-0.213,0.493-0.494,0.771-1.081,0.589c-0.647-0.2-1.315-0.328-1.959-0.535
					c-0.864-0.278-0.998-0.505-0.807-1.41c0.129-0.617-0.05-1.118-0.42-1.577c-0.808-0.992-1.764-1.233-3.005-0.767
					c-0.706,0.265-0.865,0.229-1.269-0.382c-0.293-0.439-0.567-0.893-0.819-1.355c-0.654-1.208-0.643-1.206,0.454-2.05
					c0.682-0.522,0.884-1.257,0.786-2.066c-0.093-0.797-0.488-1.398-1.279-1.718C290.044,194.995,289.667,194.738,289.275,194.522z
					 M300.852,201.707c3.336-0.047,6.007-2.8,5.953-6.136c-0.053-3.324-2.802-5.959-6.173-5.916
					c-3.249,0.039-5.925,2.795-5.896,6.078C294.764,199.06,297.521,201.752,300.852,201.707z"/>
			</g>
		</g>
	</g>
	<rect x="147.921" y="179.02" fill="#FFFFFF" width="84.686" height="117.067"/>
	<g>
		<g>
			<path fill="#A04B8A" d="M333.803,178.276c4.292,0.139,7.613,1.999,9.762,5.722c2.067,3.575,1.808,7.11-0.536,10.499
				c-0.443,0.638-0.786,1.36-1.305,1.924c-1.912,2.074-2.63,4.479-2.295,7.262c0.167,1.377-0.189,2.51-1.87,2.601
				c-0.807,0.046-0.876,0.75-1.216,1.239c-1.395,2.007-3.499,1.986-4.913-0.038c-0.219-0.313-0.365-0.915-0.596-0.941
				c-3.222-0.382-2.477-2.814-2.458-4.785c0.012-1.32-0.344-2.398-1.157-3.422c-0.866-1.091-1.623-2.271-2.417-3.418
				c-2.395-3.447-2.673-7.07-0.661-10.743C326.209,180.402,329.508,178.496,333.803,178.276z M333.472,199.178
				c3.024,0,3.011-0.008,4.514-2.29c0.767-1.167,1.583-2.301,2.391-3.438c3.49-4.907,1.632-10.393-4.151-12.255
				c-3.272-1.052-7.008,0.274-9.235,3.281c-2.162,2.921-2.115,5.861,0.14,8.98c0.864,1.193,1.864,2.314,2.544,3.605
				C330.599,198.811,331.849,199.586,333.472,199.178z"/>
			<path fill="#A04B8A" d="M324.531,200.59c-0.075,0.145-0.182,0.536-0.43,0.795c-1.213,1.28-2.446,2.546-3.714,3.776
				c-0.625,0.607-1.404,0.731-2.038,0.045c-0.519-0.562-0.539-1.319-0.009-1.89c1.252-1.352,2.554-2.655,3.865-3.948
				c0.492-0.486,1.134-0.489,1.712-0.17C324.333,199.429,324.56,199.85,324.531,200.59z"/>
			<path fill="#A04B8A" d="M316.367,188.023c1.166,0.214,3.491-0.7,3.559,1.428c0.073,2.331-2.299,1.248-3.649,1.46
				c-0.824,0.133-1.689,0.043-2.535,0.004c-0.885-0.042-1.767-0.202-1.788-1.347c-0.023-1.238,0.865-1.503,1.868-1.54
				C314.59,188,315.36,188.023,316.367,188.023z"/>
			<path fill="#A04B8A" d="M349.796,204.261c-0.012,0.485-0.134,0.925-0.594,1.172c-0.606,0.326-1.22,0.287-1.704-0.189
				c-1.317-1.293-2.607-2.612-3.879-3.945c-0.473-0.496-0.527-1.098-0.148-1.695c0.268-0.426,0.671-0.603,1.17-0.595
				C345.615,199.023,349.8,203.281,349.796,204.261z"/>
			<path fill="#A04B8A" d="M351.682,190.972c-0.923-0.042-1.852-0.035-2.77-0.143c-0.665-0.078-1.138-0.492-1.17-1.226
				c-0.035-0.822,0.413-1.42,1.185-1.452c1.924-0.08,3.855-0.08,5.779,0.002c0.779,0.033,1.198,0.642,1.157,1.466
				c-0.036,0.745-0.521,1.158-1.176,1.212c-0.994,0.084-2.002,0.022-3.004,0.022C351.684,190.894,351.682,190.933,351.682,190.972z"
				/>
			<path fill="#A04B8A" d="M319.258,173.367c0.502-0.02,0.9,0.195,1.24,0.541c1.145,1.159,2.303,2.302,3.431,3.48
				c0.654,0.683,0.97,1.472,0.147,2.232c-0.702,0.649-1.451,0.427-2.067-0.178c-1.217-1.196-2.403-2.423-3.598-3.64
				c-0.5-0.512-0.479-1.124-0.255-1.736C318.338,173.573,318.759,173.392,319.258,173.367z"/>
			<path fill="#A04B8A" d="M343.263,178.377c0.082-0.151,0.202-0.536,0.451-0.799c1.218-1.276,2.453-2.534,3.715-3.769
				c0.551-0.538,1.259-0.683,1.871-0.165c0.685,0.58,0.732,1.402,0.145,2.046c-1.24,1.357-2.557,2.648-3.876,3.93
				c-0.487,0.475-1.125,0.504-1.701,0.143C343.466,179.514,343.225,179.108,343.263,178.377z"/>
			<path fill="#A04B8A" d="M332.496,171.246c0-0.772-0.006-1.542,0-2.314c0.007-0.977,0.389-1.699,1.462-1.674
				c0.94,0.021,1.323,0.683,1.328,1.565c0.011,1.696,0.007,3.394-0.002,5.089c-0.006,0.889-0.433,1.563-1.333,1.584
				c-1.045,0.023-1.442-0.736-1.454-1.705C332.487,172.941,332.496,172.095,332.496,171.246z"/>
		</g>
	</g>
	<g>
		<path fill="#62688F" d="M174.584,197.771v1.687h-4.818v-7.666h4.762v1.687h-3.011v1.27h2.737v1.666h-2.737v1.356H174.584
			L174.584,197.771z"/>
		<path fill="#62688F" d="M175.189,197.715l1.511-0.875c0.274,0.635,0.745,1.063,1.609,1.063c0.832,0,1.041-0.328,1.041-0.624
			c0-0.47-0.438-0.659-1.588-0.975c-1.139-0.318-2.256-0.865-2.256-2.333c0-1.478,1.249-2.333,2.573-2.333
			c1.26,0,2.245,0.603,2.803,1.731l-1.478,0.865c-0.263-0.548-0.624-0.888-1.325-0.888c-0.548,0-0.821,0.274-0.821,0.581
			c0,0.35,0.187,0.59,1.379,0.953c1.161,0.349,2.464,0.756,2.464,2.375c0,1.478-1.183,2.355-2.847,2.355
			C176.646,199.611,175.617,198.844,175.189,197.715z"/>
		<path fill="#62688F" d="M181.598,195.626c0-2.256,1.675-3.988,3.986-3.988c1.39,0,2.616,0.69,3.284,1.774l-1.51,0.875
			c-0.34-0.59-0.996-0.941-1.774-0.941c-1.359,0-2.233,0.909-2.233,2.279c0,1.367,0.875,2.277,2.233,2.277
			c0.778,0,1.445-0.351,1.774-0.942l1.51,0.876c-0.657,1.083-1.883,1.774-3.284,1.774
			C183.273,199.611,181.598,197.881,181.598,195.626z"/>
		<path fill="#62688F" d="M192.278,196.938h-0.832v2.52h-1.752v-7.666h3.065c1.458,0,2.629,1.172,2.629,2.629
			c0,0.941-0.569,1.795-1.413,2.223l1.632,2.814h-1.883L192.278,196.938z M191.446,195.407h1.313c0.483,0,0.877-0.428,0.877-0.986
			c0-0.558-0.394-0.987-0.877-0.987h-1.313V195.407z"/>
		<path fill="#62688F" d="M195.994,195.626c0-2.256,1.785-3.988,3.984-3.988c2.201,0,3.986,1.731,3.986,3.988
			c0,2.255-1.785,3.985-3.986,3.985C197.779,199.611,195.994,197.881,195.994,195.626z M202.213,195.626
			c0-1.37-0.986-2.279-2.235-2.279c-1.247,0-2.234,0.909-2.234,2.279c0,1.367,0.987,2.277,2.234,2.277
			C201.227,197.903,202.213,196.993,202.213,195.626z"/>
		<path fill="#62688F" d="M204.079,191.792h1.841l1.324,5.365l1.478-5.365h1.423l1.479,5.365l1.325-5.365h1.84l-2.114,7.666h-1.993
			l-1.249-4.522l-1.248,4.522h-1.993L204.079,191.792z"/>
		<path fill="#62688F" d="M174.642,208.672l1.511-0.876c0.274,0.634,0.744,1.062,1.609,1.062c0.833,0,1.041-0.327,1.041-0.624
			c0-0.47-0.439-0.657-1.588-0.975c-1.138-0.318-2.256-0.865-2.256-2.332c0-1.479,1.25-2.333,2.574-2.333
			c1.259,0,2.244,0.604,2.802,1.731l-1.478,0.865c-0.262-0.548-0.624-0.888-1.324-0.888c-0.548,0-0.822,0.274-0.822,0.581
			c0,0.35,0.187,0.591,1.38,0.951c1.161,0.35,2.463,0.757,2.463,2.376c0,1.479-1.182,2.355-2.846,2.355
			C176.098,210.567,175.069,209.799,174.642,208.672z"/>
		<path fill="#62688F" d="M189.043,210.413h-1.752v-4.455l-1.981,3.25h-0.196l-1.983-3.25v4.455h-1.75v-7.665h1.75l2.082,3.405
			l2.079-3.405h1.752V210.413z"/>
		<path fill="#62688F" d="M194.851,209.208h-2.846l-0.383,1.205h-1.917l2.606-7.665h2.234l2.606,7.665h-1.917L194.851,209.208z
			 M194.326,207.566l-0.898-2.813l-0.897,2.813H194.326z"/>
		<path fill="#62688F" d="M200.397,207.894h-0.833v2.519h-1.751v-7.665h3.065c1.456,0,2.628,1.173,2.628,2.629
			c0,0.94-0.57,1.796-1.412,2.222l1.63,2.814h-1.883L200.397,207.894z M199.564,206.362h1.314c0.481,0,0.875-0.429,0.875-0.986
			s-0.394-0.986-0.875-0.986h-1.314V206.362z"/>
		<path fill="#62688F" d="M209.532,204.435h-1.971v5.978h-1.752v-5.978h-1.97v-1.688h5.694L209.532,204.435L209.532,204.435z"/>
		<path fill="#62688F" d="M163.763,217.536c0-2.256,1.675-3.986,3.986-3.986c1.389,0,2.616,0.69,3.283,1.774l-1.511,0.876
			c-0.339-0.591-0.996-0.942-1.773-0.942c-1.358,0-2.235,0.91-2.235,2.278c0,1.369,0.876,2.278,2.235,2.278
			c0.777,0,1.444-0.352,1.773-0.941l1.511,0.875c-0.656,1.084-1.883,1.774-3.283,1.774
			C165.438,221.522,163.763,219.792,163.763,217.536z"/>
		<path fill="#62688F" d="M171.421,217.536c0-2.256,1.785-3.986,3.986-3.986c2.201,0,3.985,1.73,3.985,3.986
			c0,2.257-1.784,3.986-3.985,3.986C173.206,221.522,171.421,219.792,171.421,217.536z M177.64,217.536
			c0-1.367-0.986-2.278-2.234-2.278c-1.249,0-2.234,0.91-2.234,2.278c0,1.369,0.985,2.278,2.234,2.278
			C176.654,219.814,177.64,218.905,177.64,217.536z"/>
		<path fill="#62688F" d="M186.404,213.703v7.666h-1.314l-2.956-4.161v4.161h-1.752v-7.666h1.313l2.957,4.162v-4.162H186.404z"/>
		<path fill="#62688F" d="M192.868,215.39h-1.97v5.979h-1.753v-5.979h-1.97v-1.688h5.694L192.868,215.39L192.868,215.39z"/>
		<path fill="#62688F" d="M196.222,218.849h-0.833v2.52h-1.751v-7.666h3.065c1.457,0,2.629,1.172,2.629,2.628
			c0,0.942-0.57,1.797-1.413,2.225l1.63,2.813h-1.882L196.222,218.849z M195.389,217.318h1.314c0.481,0,0.875-0.428,0.875-0.987
			c0-0.557-0.394-0.985-0.875-0.985h-1.314V217.318z"/>
		<path fill="#62688F" d="M204.865,220.164h-2.848l-0.383,1.205h-1.915l2.606-7.666h2.233l2.606,7.666h-1.916L204.865,220.164z
			 M204.339,218.521l-0.898-2.813l-0.898,2.813H204.339z"/>
		<path fill="#62688F" d="M207.221,217.536c0-2.256,1.677-3.986,3.987-3.986c1.391,0,2.618,0.69,3.285,1.774l-1.511,0.876
			c-0.339-0.591-0.996-0.942-1.773-0.942c-1.358,0-2.233,0.91-2.233,2.278c0,1.369,0.875,2.278,2.233,2.278
			c0.777,0,1.445-0.352,1.773-0.941l1.511,0.875c-0.657,1.084-1.883,1.774-3.285,1.774
			C208.898,221.522,207.221,219.792,207.221,217.536z"/>
		<path fill="#62688F" d="M220.465,215.39h-1.971v5.979h-1.752v-5.979h-1.97v-1.688h5.693L220.465,215.39L220.465,215.39z"/>
	</g>
	
		<linearGradient id="SVGID_1_" gradientUnits="userSpaceOnUse" x1="-2211.4409" y1="4011.8491" x2="-2165.4922" y2="4011.8491" gradientTransform="matrix(0 1 1 0 -3819.8413 2311.2114)">
		<stop  offset="0" style="stop-color:#4B48BF"/>
		<stop  offset="0.2833" style="stop-color:#6E49A9"/>
		<stop  offset="0.5664" style="stop-color:#8A4A98"/>
		<stop  offset="0.8145" style="stop-color:#9B4B8E"/>
		<stop  offset="1" style="stop-color:#A14B8A"/>
	</linearGradient>
	<path fill="url(#SVGID_1_)" d="M242.931,116.626h-4.516l0.761,0.764h-32.035l1.765-3.056c0.333,0.198,0.716,0.314,1.132,0.315
		c1.229-0.001,2.225-0.999,2.225-2.227c0-1.229-0.997-2.223-2.225-2.223c-1.211,0-2.191,0.966-2.22,2.171h-3.771h-5.991
		l-2.993-5.187l-1.883-3.264c0.665-0.385,1.112-1.102,1.112-1.926c0-1.227-0.996-2.224-2.224-2.224s-2.224,0.997-2.224,2.224
		c0,0.825,0.446,1.542,1.111,1.926l-1.883,3.264l-2.996,5.187h-5.989h-3.766c-0.005-1.225-0.999-2.218-2.223-2.218
		c-1.229,0-2.226,0.999-2.226,2.226c0,1.229,0.997,2.223,2.226,2.223c0.404,0,0.786-0.109,1.114-0.299l1.783,3.088h-32.16
		l0.765-0.764h-4.517v4.514l0.761-0.764v4.754l-0.761-0.765v4.517l4.517-0.001l-0.781-0.782h32.175l-1.762,3.058
		c-0.333-0.198-0.722-0.314-1.135-0.314c-1.229,0-2.226,0.998-2.226,2.225c0,1.23,0.997,2.224,2.226,2.224
		c1.21,0,2.194-0.967,2.219-2.174h3.77l5.99,0.003l2.996,5.188l1.883,3.263c-0.665,0.383-1.111,1.1-1.111,1.922
		c0,1.231,0.996,2.225,2.223,2.225c1.229,0,2.224-0.994,2.224-2.225c0-0.822-0.447-1.539-1.112-1.922l1.881-3.263l2.995-5.191
		l5.991,0.003l3.767-0.003c0.004,1.225,0.997,2.22,2.224,2.22c1.229,0,2.225-0.997,2.225-2.226c0-1.23-0.997-2.225-2.225-2.225
		c-0.407,0-0.786,0.112-1.115,0.301l-1.782-3.091h32.052l-0.778,0.783l4.516-0.001v-4.515l-0.766,0.765v-4.754l0.766,0.764
		L242.931,116.626L242.931,116.626z M241.018,120.376v4.754v1.823h-1.824h-32.052h-1.988l0.993,1.72l1.783,3.091l0.12,0.208h-0.236
		h-3.767h-5.99h-0.659l-0.333,0.575l-2.994,5.19l-1.885,3.261l-0.118,0.203l-0.118-0.203l-1.885-3.261l-2.995-5.19l-0.332-0.575
		h-0.663h-5.989h-3.77h-0.234l0.143-0.243l1.762-3.056l0.993-1.72h-1.986h-32.175h-1.825l0.001-1.823v-4.754l-0.001-1.84h1.841
		h32.16h1.988l-0.995-1.721l-1.781-3.087l-0.124-0.212h0.239h3.766h5.989h0.663l0.332-0.572l2.995-5.187l1.885-3.265l0.118-0.205
		l0.118,0.205l1.885,3.265l2.994,5.187l0.333,0.572h0.659h5.99h3.77h0.233l-0.141,0.244l-1.761,3.055l-0.993,1.721h1.988h32.035
		h1.842L241.018,120.376L241.018,120.376z M211.901,121.944c0,1.127-0.908,2.038-2.082,2.038h-0.891v1.869h-1.363v-5.949h2.254
		C210.993,119.902,211.901,120.811,211.901,121.944z M210.542,121.944c0-0.435-0.304-0.766-0.722-0.768h-0.891v1.531h0.891
		C210.238,122.707,210.542,122.376,210.542,121.944z M212.878,122.877c0-1.751,1.387-3.094,3.095-3.094
		c1.708,0,3.094,1.343,3.094,3.094c0,1.749-1.385,3.093-3.094,3.093C214.265,125.97,212.878,124.626,212.878,122.877z
		 M217.709,122.877c0-1.063-0.766-1.769-1.736-1.769c-0.968,0-1.733,0.706-1.733,1.769c0,1.06,0.765,1.767,1.733,1.767
		C216.943,124.644,217.707,123.938,217.709,122.877z M223.91,124.544v1.307h-3.482v-5.949h1.36v4.642H223.91z M226.46,119.902v5.95
		h-1.36v-5.95H226.46z M227.821,122.877c0-1.751,1.299-3.094,3.091-3.094c1.083,0,2.033,0.534,2.552,1.376l-1.173,0.681
		c-0.262-0.46-0.774-0.732-1.379-0.732c-1.052,0-1.732,0.706-1.732,1.769c0,1.061,0.681,1.767,1.732,1.767
		c0.605,0,1.125-0.272,1.379-0.731l1.173,0.681c-0.511,0.842-1.46,1.376-2.552,1.376C229.12,125.97,227.821,124.626,227.821,122.877
		z M238.434,124.542v1.309h-3.74v-5.949h3.7v1.31h-2.34v0.986l2.127-0.001v1.294h-2.127v1.054L238.434,124.542z M145.788,122.786
		c0-1.753,1.299-3.095,3.091-3.095c1.082,0,2.035,0.537,2.55,1.378l-1.169,0.678c-0.264-0.458-0.774-0.728-1.381-0.73
		c-1.053,0-1.733,0.707-1.733,1.769c0,1.063,0.681,1.767,1.733,1.767c0.607,0,1.126-0.272,1.381-0.729l1.172,0.679
		c-0.513,0.842-1.464,1.376-2.554,1.376C147.086,125.879,145.788,124.535,145.788,122.786z M154.074,123.806h-0.647v1.954h-1.358
		v-5.95h2.379c1.129,0,2.038,0.909,2.038,2.039c0,0.731-0.441,1.396-1.094,1.727l1.264,2.185h-1.461L154.074,123.806z
		 M153.426,122.613h1.021c0.373,0,0.679-0.327,0.679-0.764c0-0.433-0.306-0.763-0.679-0.763h-1.021V122.613z M159.971,123.474v2.286
		h-1.36v-2.286l-1.997-3.664h1.545l1.133,2.296l1.129-2.296h1.547L159.971,123.474z M166.81,121.849
		c0,1.131-0.906,2.041-2.079,2.041h-0.895l0,1.871h-1.358v-5.95h2.252C165.903,119.811,166.81,120.72,166.81,121.849z
		 M165.453,121.849c0-0.433-0.306-0.763-0.722-0.763h-0.894v1.527h0.894C165.147,122.613,165.453,122.284,165.453,121.849z
		 M171.402,121.119h-1.53v4.642h-1.362v-4.642h-1.528v-1.308h4.42L171.402,121.119L171.402,121.119z M171.401,122.786
		c0-1.753,1.386-3.095,3.095-3.095c1.707,0,3.094,1.342,3.094,3.097c0,1.75-1.387,3.092-3.094,3.092
		C172.787,125.879,171.401,124.535,171.401,122.786z M176.231,122.788c0-1.064-0.766-1.771-1.736-1.769
		c-0.969,0-1.734,0.704-1.734,1.767c0,1.063,0.765,1.767,1.734,1.767C175.465,124.553,176.231,123.849,176.231,122.788z
		 M179.03,126.615l1.45-3.827l-1.45-3.83l2.207,3.83L179.03,126.615z M205.04,118.918l-1.449,3.83l1.449,3.826l-2.211-3.826
		L205.04,118.918z M191.889,108.803l0.188-0.324l0.189,0.324l2.994,5.191l0.786,1.358c-1.186-0.625-2.536-0.98-3.97-0.98
		c-1.433,0-2.786,0.355-3.97,0.98l0.787-1.358L191.889,108.803z M179.719,115.613l0.189,0.326l2.995,5.188l0.689,1.191
		c0.182-2.844,1.762-5.304,4.056-6.706h-1.56h-5.992H179.719z M186.089,129.883h1.161c-2.14-1.478-3.569-3.91-3.673-6.683
		l-0.674,1.167l-2.995,5.188l-0.189,0.328h0.377H186.089z M195.261,131.504l0.574-0.996c-1.134,0.56-2.409,0.875-3.758,0.875
		c-1.348,0-2.624-0.315-3.758-0.875l0.574,0.996l2.995,5.187l0.189,0.325l0.189-0.325L195.261,131.504z M204.435,129.883
		l-0.187-0.328l-2.995-5.188l-0.675-1.167c-0.104,2.77-1.535,5.205-3.675,6.683h1.165h5.991H204.435z M204.435,115.613h-0.376
		h-5.991h-1.56c2.293,1.402,3.873,3.864,4.056,6.706l0.689-1.191l2.995-5.188L204.435,115.613z M193.615,122h-3.108v-1.281h3.108
		c0.382,0,0.629,0.269,0.629,0.64C194.245,121.732,193.987,122,193.615,122z M194.503,124.158c0,0.403-0.269,0.691-0.681,0.691
		h-3.314v-1.384h3.314C194.234,123.465,194.503,123.756,194.503,124.158z M192.078,115.9c-3.847,0-6.979,3.131-6.979,6.978
		s3.131,6.979,6.979,6.979c3.849,0,6.979-3.132,6.979-6.979S195.927,115.9,192.078,115.9z M193.822,126.399h-0.251v1.343h-1.22
		v-1.343h-0.615v1.343h-1.218V126.4h-2.438v-1.542h0.775v-4.142h-0.775v-1.542v-0.005h2.438v-1.339h1.218v1.339h0.615v-1.339h1.22
		v1.339h0.044c1.259,0,2.281,0.817,2.281,2.067c0,0.598-0.236,1.075-0.628,1.416c0.535,0.34,0.888,0.897,0.888,1.631
		C196.156,125.562,195.111,126.399,193.822,126.399z"/>
	<g>
		<path fill="#706DCB" d="M25.043,240.951v7.664h-1.751v-7.664H25.043z"/>
		<path fill="#706DCB" d="M32.38,240.951v7.664h-1.314l-2.957-4.16v4.16h-1.752v-7.664h1.314l2.956,4.159v-4.159H32.38z"/>
		<path fill="#706DCB" d="M33.042,240.951h1.916l1.697,5.638l1.698-5.638h1.916l-2.497,7.664h-2.234L33.042,240.951z"/>
		<path fill="#706DCB" d="M45.747,246.929v1.686h-4.818v-7.664h4.763v1.685h-3.011v1.271h2.736v1.664h-2.736v1.358H45.747
			L45.747,246.929z"/>
		<path fill="#706DCB" d="M46.352,246.874l1.511-0.875c0.274,0.635,0.745,1.062,1.609,1.062c0.832,0,1.041-0.329,1.041-0.624
			c0-0.472-0.438-0.657-1.587-0.975c-1.139-0.317-2.256-0.864-2.256-2.332c0-1.478,1.248-2.332,2.573-2.332
			c1.26,0,2.245,0.603,2.804,1.729l-1.479,0.864c-0.263-0.547-0.624-0.886-1.325-0.886c-0.548,0-0.821,0.273-0.821,0.58
			c0,0.352,0.187,0.592,1.379,0.951c1.161,0.352,2.464,0.757,2.464,2.378c0,1.478-1.183,2.353-2.847,2.353
			C47.808,248.767,46.779,248,46.352,246.874z"/>
		<path fill="#706DCB" d="M58.017,242.636h-1.971v5.979h-1.751v-5.979h-1.971v-1.686h5.694L58.017,242.636L58.017,242.636z"/>
		<path fill="#706DCB" d="M58.02,244.782c0-2.256,1.785-3.985,3.986-3.985c2.201,0,3.985,1.729,3.985,3.985
			s-1.784,3.985-3.985,3.985C59.805,248.767,58.02,247.038,58.02,244.782z M64.239,244.782c0-1.368-0.985-2.276-2.233-2.276
			c-1.249,0-2.234,0.907-2.234,2.276c0,1.37,0.986,2.278,2.234,2.278C63.254,247.06,64.239,246.152,64.239,244.782z"/>
		<path fill="#706DCB" d="M69.564,246.095h-0.831v2.52h-1.752v-7.664h3.066c1.457,0,2.628,1.172,2.628,2.628
			c0,0.942-0.569,1.796-1.412,2.222l1.631,2.814h-1.883L69.564,246.095z M68.733,244.563h1.313c0.482,0,0.875-0.427,0.875-0.983
			c0-0.561-0.394-0.986-0.875-0.986h-1.313V244.563z"/>
		<path fill="#706DCB" d="M73.225,246.874l1.511-0.875c0.274,0.635,0.745,1.062,1.609,1.062c0.832,0,1.041-0.329,1.041-0.624
			c0-0.472-0.438-0.657-1.588-0.975c-1.138-0.317-2.256-0.864-2.256-2.332c0-1.478,1.249-2.332,2.574-2.332
			c1.259,0,2.244,0.603,2.803,1.729l-1.478,0.864c-0.264-0.547-0.625-0.886-1.326-0.886c-0.548,0-0.822,0.273-0.822,0.58
			c0,0.352,0.187,0.592,1.381,0.951c1.16,0.352,2.463,0.757,2.463,2.378c0,1.478-1.183,2.353-2.846,2.353
			C74.682,248.767,73.653,248,73.225,246.874z"/>
	</g>
	<g>
		<path fill="#A04B8A" d="M317.67,243.58c0,1.454-1.173,2.626-2.683,2.626h-1.149v2.409h-1.753v-7.664h2.902
			C316.498,240.951,317.67,242.123,317.67,243.58z M315.917,243.58c0-0.561-0.395-0.986-0.931-0.986h-1.149v1.97h1.149
			C315.523,244.563,315.917,244.136,315.917,243.58z"/>
		<path fill="#A04B8A" d="M321.133,246.095h-0.832v2.52h-1.752v-7.664h3.066c1.456,0,2.627,1.172,2.627,2.628
			c0,0.942-0.568,1.796-1.412,2.222l1.632,2.814h-1.883L321.133,246.095z M320.301,244.563h1.313c0.482,0,0.876-0.427,0.876-0.983
			c0-0.561-0.394-0.986-0.876-0.986h-1.313V244.563z"/>
		<path fill="#A04B8A" d="M324.849,244.782c0-2.256,1.785-3.985,3.985-3.985c2.201,0,3.985,1.729,3.985,3.985
			s-1.784,3.985-3.985,3.985C326.633,248.767,324.849,247.038,324.849,244.782z M331.067,244.782c0-1.368-0.986-2.276-2.234-2.276
			c-1.248,0-2.233,0.907-2.233,2.276c0,1.37,0.985,2.278,2.233,2.278C330.081,247.06,331.067,246.152,331.067,244.782z"/>
		<path fill="#A04B8A" d="M332.715,247.279l1.521-0.874c0.24,0.425,0.491,0.656,1.084,0.656c0.767,0,0.997-0.438,0.997-0.909v-5.201
			h1.751v5.201c0,1.685-1.182,2.615-2.758,2.615C334.093,248.767,333.218,248.253,332.715,247.279z"/>
		<path fill="#A04B8A" d="M344.148,246.929v1.686h-4.818v-7.664h4.763v1.685h-3.011v1.271h2.737v1.664h-2.737v1.358H344.148
			L344.148,246.929z"/>
		<path fill="#A04B8A" d="M344.755,244.782c0-2.256,1.674-3.985,3.985-3.985c1.391,0,2.616,0.691,3.284,1.774l-1.51,0.876
			c-0.341-0.592-0.997-0.941-1.774-0.941c-1.358,0-2.233,0.907-2.233,2.276c0,1.37,0.875,2.278,2.233,2.278
			c0.777,0,1.445-0.35,1.774-0.942l1.51,0.875c-0.656,1.085-1.883,1.774-3.284,1.774
			C346.429,248.767,344.755,247.038,344.755,244.782z"/>
		<path fill="#A04B8A" d="M357.997,242.636h-1.971v5.979h-1.752v-5.979h-1.971v-1.686h5.694L357.997,242.636L357.997,242.636z"/>
		<path fill="#A04B8A" d="M312.387,255.738c0-2.255,1.785-3.984,3.986-3.984c2.202,0,3.986,1.729,3.986,3.984
			c0,2.257-1.784,3.986-3.986,3.986C314.171,259.724,312.387,257.995,312.387,255.738z M318.606,255.738
			c0-1.369-0.986-2.276-2.234-2.276c-1.248,0-2.233,0.907-2.233,2.276c0,1.37,0.986,2.277,2.233,2.277
			C317.621,258.015,318.606,257.108,318.606,255.738z"/>
		<path fill="#A04B8A" d="M320.472,251.906h1.839l1.324,5.367l1.479-5.367h1.423l1.478,5.367l1.325-5.367h1.84l-2.113,7.664h-1.994
			l-1.249-4.521l-1.248,4.521h-1.992L320.472,251.906z"/>
		<path fill="#A04B8A" d="M337.975,251.906v7.664h-1.314l-2.957-4.159v4.159h-1.752v-7.664h1.313l2.957,4.16v-4.16H337.975z"/>
		<path fill="#A04B8A" d="M344.11,257.885v1.685h-4.818v-7.664h4.763v1.686h-3.011v1.271h2.737v1.663h-2.737v1.359H344.11
			L344.11,257.885z"/>
		<path fill="#A04B8A" d="M347.683,257.052h-0.832v2.518h-1.752v-7.664h3.065c1.457,0,2.628,1.173,2.628,2.629
			c0,0.941-0.568,1.796-1.411,2.222l1.631,2.813h-1.884L347.683,257.052z M346.851,255.519h1.313c0.482,0,0.877-0.428,0.877-0.986
			c0-0.558-0.395-0.984-0.877-0.984h-1.313V255.519z"/>
		<path fill="#A04B8A" d="M351.344,257.83l1.51-0.876c0.273,0.635,0.745,1.062,1.609,1.062c0.833,0,1.041-0.327,1.041-0.625
			c0-0.469-0.438-0.656-1.588-0.973c-1.138-0.317-2.255-0.865-2.255-2.332c0-1.479,1.248-2.332,2.572-2.332
			c1.26,0,2.245,0.602,2.803,1.729l-1.478,0.864c-0.262-0.548-0.625-0.886-1.325-0.886c-0.547,0-0.821,0.272-0.821,0.58
			c0,0.351,0.187,0.591,1.379,0.951c1.161,0.351,2.464,0.756,2.464,2.378c0,1.477-1.182,2.354-2.846,2.354
			C352.8,259.724,351.771,258.958,351.344,257.83z"/>
	</g>
	
		<linearGradient id="SVGID_2_" gradientUnits="userSpaceOnUse" x1="-1129.2764" y1="-536.8892" x2="-978.5361" y2="-536.8892" gradientTransform="matrix(0.7071 0.7071 0.7071 -0.7071 1315.6129 603.6996)">
		<stop  offset="0" style="stop-color:#FFFFFF"/>
		<stop  offset="1" style="stop-color:#E6E6E6"/>
	</linearGradient>
	<path fill="url(#SVGID_2_)" d="M231.113,181.84v112.548h-80.701V181.84H231.113 M236.096,176.861H145.43v122.512h90.666V176.861
		L236.096,176.861z"/>
	<g>
		<g>
			<polygon fill="#62688F" points="160.955,269.216 173.229,286.473 185.504,269.216 173.229,276.509 			"/>
			<polygon fill="#62688F" points="185.504,266.815 173.229,246.505 160.955,266.815 173.229,274.154 			"/>
		</g>
		<polygon fill="#8A92B2" points="173.229,261.254 160.955,266.815 173.229,246.505 		"/>
		<polygon fill="#62688F" points="173.229,274.154 160.955,266.815 173.229,261.254 		"/>
		<polygon fill="#8A92B2" points="160.955,269.216 173.229,276.509 173.229,286.473 		"/>
		<polygon fill="#62688F" points="173.229,261.254 185.504,266.815 173.229,246.505 		"/>
		<polygon fill="#454A75" points="173.229,274.154 185.504,266.815 173.229,261.254 		"/>
		<polygon fill="#62688F" points="185.504,269.216 173.229,276.509 173.229,286.473 		"/>
	</g>
	<g>
		<rect x="160.127" y="231.801" fill="#CCCCCC" width="61.772" height="2.586"/>
		<rect x="160.127" y="236.925" fill="#CCCCCC" width="61.772" height="2.583"/>
		<g>
			<rect x="193.587" y="246.505" fill="#CCCCCC" width="28.063" height="2.583"/>
			<rect x="193.587" y="251.846" fill="#CCCCCC" width="28.063" height="2.585"/>
			<rect x="193.587" y="257.186" fill="#CCCCCC" width="28.063" height="2.586"/>
			<rect x="193.587" y="262.526" fill="#CCCCCC" width="28.063" height="2.584"/>
			<rect x="193.587" y="267.867" fill="#CCCCCC" width="28.063" height="2.585"/>
			<rect x="193.587" y="273.208" fill="#CCCCCC" width="28.063" height="2.586"/>
			<rect x="193.587" y="278.547" fill="#CCCCCC" width="28.063" height="2.586"/>
			<rect x="193.587" y="283.887" fill="#CCCCCC" width="28.063" height="2.586"/>
		</g>
	</g>
	<g>
		<g>
			<path fill="#9B99DB" d="M79.318,186.531c-0.192-0.489-0.363-0.926-0.617-1.568c0.644,0.029,1.143,0.063,1.644,0.072
				c1.312,0.018,2.65,0.201,3.928,0.003c2.326-0.362,4.133,0.173,5.327,2.3c0.089,0.158,0.234,0.346,0.393,0.394
				c2.444,0.751,2.616,2.726,2.621,4.803c0.002,1.136-0.046,2.18,0.345,3.385c0.389,1.2-0.302,2.94-0.943,4.232
				c-0.756,1.529-1.508,2.968-1.55,4.724c-0.012,0.479-0.342,1.097-0.724,1.405c-1.438,1.152-2.958,2.204-4.493,3.325
				c0.299,0.413,0.505,0.817,0.817,1.107c1.012,0.945,1.139,1.865,0.218,2.987c-0.282,0.342-0.335,0.991-0.279,1.475
				c0.234,2.024,0.548,4.04,0.85,6.169c-1.516,0-2.941,0-4.461,0c0.28-2.043,0.6-4.01,0.792-5.985
				c0.061-0.617-0.036-1.399-0.38-1.874c-0.695-0.96-0.723-1.695,0.153-2.507c0.385-0.359,0.658-0.834,1.053-1.351
				c-1.53-1.125-3.025-2.187-4.471-3.312c-0.34-0.263-0.741-0.736-0.734-1.106c0.039-2.026-0.85-3.665-1.765-5.396
				c-0.739-1.398-1.731-2.99-0.359-4.732c0.295-0.377,0.024-1.213-0.015-1.835C76.501,190.592,76.972,188.19,79.318,186.531z"/>
			<path fill="#9B99DB" d="M102.391,221.377c-4.57,0-8.93,0-13.406,0c0.844-4.606,1.672-9.124,2.54-13.861
				c0.867,0.448,1.618,0.758,2.281,1.197c2.343,1.562,4.665,3.153,6.979,4.759c1.125,0.779,1.609,1.908,1.606,3.259
				C102.389,218.23,102.391,219.73,102.391,221.377z"/>
			<path fill="#9B99DB" d="M66.83,221.377c4.569,0,8.928,0,13.406,0c-0.844-4.606-1.672-9.124-2.541-13.861
				c-0.868,0.448-1.617,0.758-2.281,1.197c-2.343,1.562-4.665,3.153-6.979,4.759c-1.125,0.779-1.609,1.908-1.606,3.259
				C66.831,218.23,66.83,219.73,66.83,221.377z"/>
		</g>
	</g>
	<g>
		<g>
			<path fill="#9B99DB" d="M12.488,186.515c-0.192-0.489-0.363-0.924-0.616-1.568c0.643,0.028,1.142,0.063,1.643,0.069
				c1.312,0.022,2.65,0.204,3.928,0.004c2.326-0.36,4.134,0.175,5.327,2.303c0.088,0.156,0.234,0.345,0.392,0.394
				c2.444,0.75,2.617,2.726,2.622,4.804c0.002,1.135-0.046,2.18,0.344,3.385c0.39,1.199-0.301,2.939-0.941,4.231
				c-0.757,1.528-1.509,2.97-1.551,4.722c-0.011,0.484-0.342,1.099-0.723,1.406c-1.438,1.153-2.958,2.203-4.493,3.326
				c0.299,0.413,0.506,0.816,0.817,1.107c1.013,0.944,1.139,1.865,0.218,2.987c-0.282,0.342-0.335,0.991-0.279,1.474
				c0.233,2.023,0.548,4.039,0.85,6.17c-1.516,0-2.941,0-4.462,0c0.28-2.046,0.6-4.008,0.792-5.986
				c0.061-0.616-0.036-1.399-0.38-1.873c-0.695-0.961-0.723-1.692,0.153-2.507c0.385-0.357,0.658-0.835,1.054-1.351
				c-1.531-1.125-3.025-2.188-4.471-3.312c-0.339-0.263-0.74-0.736-0.733-1.105c0.039-2.027-0.851-3.666-1.765-5.397
				c-0.739-1.397-1.731-2.99-0.36-4.732c0.295-0.375,0.024-1.212-0.015-1.835C9.671,190.577,10.143,188.172,12.488,186.515z"/>
			<path fill="#9B99DB" d="M35.562,221.362c-4.57,0-8.93,0-13.405,0c0.844-4.605,1.671-9.125,2.54-13.864
				c0.868,0.451,1.617,0.761,2.279,1.2c2.344,1.561,4.667,3.153,6.98,4.758c1.125,0.779,1.609,1.908,1.606,3.26
				C35.56,218.215,35.562,219.713,35.562,221.362z"/>
			<path fill="#9B99DB" d="M0.001,221.362c4.569,0,8.929,0,13.406,0c-0.844-4.605-1.672-9.125-2.541-13.864
				c-0.868,0.451-1.617,0.761-2.28,1.2c-2.344,1.561-4.666,3.153-6.979,4.758c-1.125,0.779-1.609,1.908-1.606,3.26
				C0.001,218.215,0.001,219.713,0.001,221.362z"/>
		</g>
	</g>
	<path fill="#706DCB" d="M36.573,208.446c-0.101-0.452-0.197-0.905-0.295-1.356c-0.024-0.112-0.05-0.223-0.077-0.344
		c-0.384,0.185-0.778,0.294-1.185,0.36c-0.542,0.088-1.082,0.081-1.612-0.077c-0.75-0.227-1.278-0.696-1.535-1.444
		c-0.04-0.12-0.07-0.24-0.11-0.375c1.357,0,2.696,0,4.034,0c0-0.384,0-0.756,0-1.138c-1.42,0-2.833,0-4.243,0
		c0-0.257,0-0.504,0-0.762c1.427,0,2.836,0,4.243,0c0-0.384,0-0.757,0-1.136c-1.334,0-2.659,0-3.995,0
		c0.019-0.069,0.036-0.127,0.053-0.187c0.127-0.423,0.345-0.788,0.674-1.084c0.52-0.468,1.138-0.653,1.825-0.641
		c0.552,0.011,1.081,0.14,1.595,0.334c0.04,0.017,0.079,0.03,0.124,0.047c0.01-0.036,0.019-0.058,0.025-0.08
		c0.135-0.553,0.268-1.106,0.407-1.658c0.018-0.073,0.004-0.102-0.066-0.13c-0.878-0.346-1.789-0.49-2.732-0.428
		c-0.511,0.035-1.008,0.137-1.479,0.335c-1.479,0.621-2.42,1.722-2.877,3.25c-0.024,0.076-0.023,0.186-0.076,0.227
		s-0.157,0.017-0.24,0.017c-0.271,0-0.543,0-0.819,0c0,0.382,0,0.757,0,1.143c0.299,0,0.591,0,0.879,0c0,0.252,0,0.499,0,0.754
		c-0.3,0-0.588,0-0.88,0c0,0.383,0,0.759,0,1.144c0.041,0,0.073,0,0.104,0c0.277,0,0.556,0.001,0.833-0.002
		c0.08-0.004,0.114,0.018,0.126,0.102c0.02,0.125,0.048,0.247,0.082,0.371c0.301,1.123,0.939,2.005,1.904,2.649
		c0.762,0.513,1.617,0.754,2.527,0.8c0.951,0.043,1.863-0.135,2.72-0.56C36.569,208.545,36.59,208.514,36.573,208.446z"/>
	<path fill="#706DCB" d="M71.857,208.446c-0.101-0.452-0.198-0.905-0.296-1.356c-0.023-0.112-0.049-0.223-0.076-0.344
		c-0.384,0.185-0.777,0.294-1.184,0.36c-0.542,0.088-1.083,0.081-1.613-0.077c-0.749-0.227-1.278-0.696-1.534-1.444
		c-0.042-0.12-0.071-0.24-0.11-0.375c1.357,0,2.696,0,4.034,0c0-0.384,0-0.756,0-1.138c-1.42,0-2.834,0-4.243,0
		c0-0.257,0-0.504,0-0.762c1.427,0,2.835,0,4.243,0c0-0.384,0-0.757,0-1.136c-1.334,0-2.659,0-3.994,0
		c0.019-0.069,0.035-0.127,0.053-0.187c0.126-0.423,0.346-0.788,0.674-1.084c0.52-0.468,1.137-0.653,1.825-0.641
		c0.552,0.011,1.081,0.14,1.595,0.334c0.04,0.017,0.079,0.03,0.124,0.047c0.01-0.036,0.018-0.058,0.024-0.08
		c0.136-0.553,0.269-1.106,0.408-1.658c0.018-0.073,0.003-0.102-0.066-0.13c-0.879-0.346-1.79-0.49-2.733-0.428
		c-0.51,0.035-1.008,0.137-1.478,0.335c-1.479,0.621-2.421,1.722-2.878,3.25c-0.023,0.076-0.022,0.186-0.075,0.227
		c-0.054,0.041-0.158,0.017-0.24,0.017c-0.272,0-0.543,0-0.82,0c0,0.382,0,0.757,0,1.143c0.3,0,0.591,0,0.879,0
		c0,0.252,0,0.499,0,0.754c-0.3,0-0.588,0-0.881,0c0,0.383,0,0.759,0,1.144c0.041,0,0.073,0,0.105,0
		c0.278,0,0.556,0.001,0.832-0.002c0.08-0.004,0.116,0.018,0.127,0.102c0.019,0.125,0.049,0.247,0.081,0.371
		c0.302,1.123,0.941,2.005,1.904,2.649c0.763,0.513,1.617,0.754,2.527,0.8c0.952,0.043,1.863-0.135,2.72-0.56
		C71.853,208.545,71.873,208.514,71.857,208.446z"/>
	<g>
		<g>
			<path fill="#A04B8A" d="M336.104,214.73c-0.466-0.437-0.776-1.041-1.221-1.657c0.042-0.03,0.083-0.06,0.123-0.09h-2.14
				c0.057,0.04,0.11,0.081,0.168,0.121c-0.593,0.771-1.003,1.484-1.577,2.018c-1.309,1.216-1.267,2.315-0.229,3.75
				c0.514,0.71,0.658,1.881,0.569,2.803c-0.288,2.956-0.765,5.894-1.186,8.953h6.673c-0.449-3.188-0.92-6.199-1.27-9.227
				c-0.084-0.723-0.006-1.695,0.416-2.206C337.808,217.52,337.617,216.142,336.104,214.73z"/>
			<path fill="#A04B8A" d="M360.517,230.675c-6.832,0-13.354,0-20.049,0c1.263-6.888,2.502-13.645,3.799-20.732
				c1.299,0.674,2.42,1.136,3.41,1.794c3.506,2.332,6.98,4.717,10.44,7.114c1.681,1.166,2.406,2.854,2.401,4.876
				C360.516,225.968,360.517,228.211,360.517,230.675z"/>
			<path fill="#A04B8A" d="M307.335,230.675c6.833,0,13.354,0,20.048,0c-1.262-6.888-2.5-13.645-3.798-20.732
				c-1.298,0.674-2.419,1.136-3.41,1.794c-3.504,2.332-6.978,4.717-10.438,7.114c-1.682,1.166-2.406,2.854-2.401,4.876
				C307.338,225.968,307.335,228.211,307.335,230.675z"/>
		</g>
	</g>
	<polygon fill="#9B99DB" points="139.954,205.43 131.319,196.81 131.319,203.046 114.06,203.046 114.06,196.81 105.426,205.43 
		114.06,214.048 114.06,207.814 131.319,207.814 131.319,214.048 	"/>
	<polygon fill="#BC81AD" points="276.102,205.43 267.468,196.81 267.468,203.046 250.208,203.046 250.208,196.81 241.574,205.43 
		250.208,214.048 250.208,207.814 267.468,207.814 267.468,214.048 	"/>
	<g>
		<g>
			<path fill="#706DCB" d="M43.195,178.315c-0.286-0.729-0.543-1.384-0.921-2.345c0.96,0.043,1.708,0.094,2.457,0.105
				c1.961,0.03,3.963,0.303,5.875,0.007c3.478-0.54,6.181,0.261,7.965,3.441c0.132,0.236,0.351,0.516,0.586,0.589
				c3.657,1.123,3.915,4.078,3.921,7.185c0.003,1.697-0.069,3.261,0.517,5.062c0.582,1.792-0.45,4.397-1.409,6.33
				c-1.133,2.286-2.256,4.438-2.32,7.063c-0.017,0.721-0.51,1.643-1.082,2.101c-2.15,1.724-4.424,3.296-6.72,4.975
				c0.447,0.617,0.756,1.221,1.222,1.658c1.514,1.412,1.704,2.791,0.324,4.465c-0.421,0.512-0.5,1.481-0.416,2.205
				c0.35,3.028,0.821,6.042,1.271,9.228c-2.267,0-4.399,0-6.673,0c0.42-3.06,0.896-5.998,1.185-8.951
				c0.091-0.925-0.053-2.095-0.569-2.807c-1.038-1.433-1.08-2.531,0.23-3.748c0.575-0.534,0.985-1.246,1.577-2.018
				c-2.291-1.682-4.524-3.271-6.689-4.951c-0.507-0.393-1.107-1.102-1.096-1.655c0.059-3.031-1.272-5.481-2.638-8.069
				c-1.105-2.092-2.59-4.473-0.539-7.076c0.442-0.564,0.036-1.816-0.022-2.747C38.982,184.39,39.688,180.797,43.195,178.315z"/>
			<path fill="#706DCB" d="M77.702,230.43c-6.834,0-13.354,0-20.049,0c1.262-6.889,2.5-13.645,3.799-20.731
				c1.298,0.674,2.42,1.133,3.41,1.793c3.505,2.333,6.978,4.715,10.438,7.113c1.682,1.168,2.407,2.853,2.403,4.877
				C77.7,225.725,77.702,227.966,77.702,230.43z"/>
			<path fill="#706DCB" d="M24.52,230.43c6.834,0,13.354,0,20.049,0c-1.262-6.889-2.5-13.645-3.8-20.731
				c-1.297,0.674-2.418,1.133-3.409,1.793c-3.505,2.333-6.978,4.715-10.438,7.113c-1.682,1.168-2.406,2.853-2.403,4.877
				C24.523,225.725,24.52,227.966,24.52,230.43z"/>
		</g>
	</g>
	
		<linearGradient id="SVGID_3_" gradientUnits="userSpaceOnUse" x1="-4129.9858" y1="2034.0171" x2="-4104.0908" y2="2034.0171" gradientTransform="matrix(0 1 1 0 -1842.0112 4275.4829)">
		<stop  offset="0" style="stop-color:#706DCB;stop-opacity:0"/>
		<stop  offset="1" style="stop-color:#706DCB;stop-opacity:0.7"/>
	</linearGradient>
	<polygon fill="url(#SVGID_3_)" points="192.007,171.392 200.626,162.758 194.389,162.758 194.389,145.497 189.623,145.497 
		189.623,162.758 183.387,162.758 	"/>
</g>
</svg>
