<?xml version="1.0" encoding="utf-8"?>
<!-- Generator: Adobe Illustrator 16.0.0, SVG Export Plug-In . SVG Version: 6.00 Build 0)  -->
<!DOCTYPE svg PUBLIC "-//W3C//DTD SVG 1.1//EN" "http://www.w3.org/Graphics/SVG/1.1/DTD/svg11.dtd">
<svg version="1.1" id="Layer_1" xmlns="http://www.w3.org/2000/svg" xmlns:xlink="http://www.w3.org/1999/xlink" x="0px" y="0px"
	 width="26px" height="26px" viewBox="0 0 26 26" enable-background="new 0 0 26 26" xml:space="preserve">
<linearGradient id="SVGID_1_" gradientUnits="userSpaceOnUse" x1="400.5" y1="494.666" x2="426.501" y2="494.666" gradientTransform="matrix(-4.371139e-008 1 -1 -4.371139e-008 507.6655 -400.5005)">
	<stop  offset="0" style="stop-color:#89347B"/>
	<stop  offset="1" style="stop-color:#4130AA"/>
</linearGradient>
<path fill-rule="evenodd" clip-rule="evenodd" fill="url(#SVGID_1_)" d="M13,0C5.82,0,0,5.82,0,13c0,7.18,5.82,13,13,13
	s13-5.82,13-13C26,5.82,20.18,0,13,0z M16.851,23.898c-0.072,0.027-0.146,0.055-0.222,0.07c-0.449,0.096-0.774-0.146-0.784-0.605
	c-0.012-0.586-0.002-1.172-0.002-1.834c-0.033-0.617,0.054-1.316-0.054-2.01c-0.069-0.449-0.212-0.871-0.503-1.227
	c-0.146-0.18-0.098-0.244,0.109-0.271c0.496-0.063,0.983-0.164,1.463-0.307c1.943-0.58,3.076-1.873,3.408-3.868
	c0.117-0.707,0.165-1.418,0.072-2.133c-0.104-0.813-0.407-1.544-0.924-2.182c-0.131-0.162-0.174-0.313-0.117-0.519
	c0.231-0.841,0.14-1.669-0.119-2.49c-0.067-0.215-0.188-0.302-0.414-0.295c-0.43,0.014-0.829,0.144-1.221,0.303
	c-0.479,0.195-0.93,0.447-1.364,0.728c-0.163,0.106-0.325,0.134-0.514,0.085c-1.796-0.46-3.592-0.461-5.384,0.02
	c-0.169,0.045-0.299-0.009-0.435-0.096C9.266,6.896,8.661,6.571,7.997,6.367C7.758,6.292,7.516,6.246,7.264,6.229
	C7.019,6.213,6.886,6.306,6.813,6.545C6.56,7.368,6.469,8.195,6.705,9.036c0.049,0.174,0.026,0.313-0.09,0.453
	c-0.867,1.057-1.095,2.29-0.975,3.613c0.027,0.308,0.068,0.616,0.127,0.919c0.358,1.885,1.467,3.102,3.295,3.67
	c0.485,0.15,0.981,0.254,1.485,0.324c0.307,0.041,0.32,0.072,0.142,0.313c-0.24,0.326-0.385,0.691-0.465,1.082
	c-0.034,0.162-0.115,0.256-0.27,0.311c-1.219,0.436-2.413,0.236-3.154-1.012c-0.369-0.623-0.893-1.066-1.637-1.188
	c-0.165-0.027-0.327-0.018-0.483,0.039c-0.183,0.066-0.222,0.191-0.097,0.338c0.088,0.104,0.193,0.199,0.308,0.271
	c0.601,0.375,1.021,0.908,1.256,1.563c0.465,1.289,1.68,1.896,3.071,1.811c0.214-0.014,0.43-0.035,0.641-0.076
	c0.237-0.047,0.307,0.047,0.303,0.271c-0.009,0.508,0.002,1.016-0.004,1.523c-0.008,0.59-0.388,0.852-0.953,0.658
	c-0.817-0.279-1.598-0.643-2.322-1.111c-3.155-2.051-4.975-4.949-5.375-8.686C0.839,7.878,5.456,2.164,11.697,1.503
	c3.524-0.373,6.622,0.646,9.222,3.071c2.105,1.964,3.297,4.407,3.578,7.269C25.019,17.164,21.889,22.078,16.851,23.898z"/>
</svg>
