<?xml version="1.0" encoding="utf-8"?>
<!-- Generator: Adobe Illustrator 16.0.0, SVG Export Plug-In . SVG Version: 6.00 Build 0)  -->
<!DOCTYPE svg PUBLIC "-//W3C//DTD SVG 1.1//EN" "http://www.w3.org/Graphics/SVG/1.1/DTD/svg11.dtd">
<svg version="1.1" id="Layer_1" xmlns="http://www.w3.org/2000/svg" xmlns:xlink="http://www.w3.org/1999/xlink" x="0px" y="0px"
	 width="138.195px" height="138.197px" viewBox="0 0 138.195 138.197" enable-background="new 0 0 138.195 138.197"
	 xml:space="preserve">
<g>
	<g>
		<g>
			
				<linearGradient id="SVGID_1_" gradientUnits="userSpaceOnUse" x1="201.8323" y1="828.9658" x2="340.0276" y2="828.9658" gradientTransform="matrix(-1 0 0 0.8257 340.0278 -615.3784)">
				<stop  offset="0" style="stop-color:#4B48BF"/>
				<stop  offset="1" style="stop-color:#A14B8A"/>
			</linearGradient>
			<ellipse opacity="0.4" fill="url(#SVGID_1_)" enable-background="new    " cx="69.098" cy="69.099" rx="69.098" ry="57.051"/>
			
				<linearGradient id="SVGID_2_" gradientUnits="userSpaceOnUse" x1="416.2903" y1="569.2354" x2="554.4885" y2="569.2354" gradientTransform="matrix(0 1 -0.8257 0 539.116 -416.2903)">
				<stop  offset="0" style="stop-color:#4B48BF"/>
				<stop  offset="1" style="stop-color:#A14B8A"/>
			</linearGradient>
			<ellipse opacity="0.4" fill="url(#SVGID_2_)" enable-background="new    " cx="69.098" cy="69.099" rx="57.051" ry="69.099"/>
			
				<linearGradient id="SVGID_3_" gradientUnits="userSpaceOnUse" x1="-130.0964" y1="17.895" x2="-15.8191" y2="17.895" gradientTransform="matrix(1 0 0 -1 142.0557 86.9932)">
				<stop  offset="0" style="stop-color:#4B48BF"/>
				<stop  offset="1" style="stop-color:#A14B8A"/>
			</linearGradient>
			<circle opacity="0.6" fill="url(#SVGID_3_)" enable-background="new    " cx="69.098" cy="69.098" r="57.139"/>
			
				<linearGradient id="SVGID_4_" gradientUnits="userSpaceOnUse" x1="-118.0164" y1="17.895" x2="-27.8982" y2="17.895" gradientTransform="matrix(1 0 0 -1 142.0557 86.9932)">
				<stop  offset="0" style="stop-color:#4B48BF"/>
				<stop  offset="1" style="stop-color:#A14B8A"/>
			</linearGradient>
			<circle opacity="0.8" fill="url(#SVGID_4_)" enable-background="new    " cx="69.098" cy="69.098" r="45.059"/>
		</g>
	</g>
	<g>
		<path fill-rule="evenodd" clip-rule="evenodd" fill="#FFFFFF" d="M74.844,28.228C59.405,43.667,43.978,59.094,28.552,74.519
			c8.821,8.82,17.628,17.628,26.443,26.444c15.432-15.433,30.856-30.856,46.292-46.292C92.463,45.847,83.652,37.035,74.844,28.228z
			 M58.157,91.176c-0.678-1.254-1.72-1.965-3.157-1.968c-1.438-0.001-2.481,0.706-3.17,1.972c-4.5-4.5-8.99-8.99-13.495-13.495
			c2.544-1.226,2.701-4.943,0.001-6.336C49.45,60.235,60.56,49.126,71.68,38.007c0.679,1.253,1.722,1.963,3.159,1.964
			c1.436,0,2.482-0.701,3.168-1.971c4.502,4.502,8.992,8.992,13.5,13.5c-1.25,0.682-1.967,1.716-1.971,3.151
			c-0.004,1.439,0.696,2.484,1.968,3.177C80.387,68.946,69.278,80.056,58.157,91.176z"/>
		<path fill-rule="evenodd" clip-rule="evenodd" fill="#FFFFFF" d="M101.308,57.994c-1.102,1.101-2.194,2.194-3.304,3.303
			c0.597,0.597,1.183,1.183,1.784,1.785c-0.918,0.472-1.537,1.172-1.833,2.138c-0.296,0.962-0.167,1.889,0.3,2.771
			c-0.066,0.047-0.109,0.079-0.154,0.11c-1.633,1.116-3.29,2.198-4.893,3.354c-2.449,1.771-4.874,3.574-7.281,5.4
			c-1.756,1.332-3.483,2.704-5.193,4.096c-1.928,1.567-3.832,3.166-5.729,4.772c-1.617,1.372-3.223,2.756-4.804,4.17
			c-2.085,1.864-4.167,3.736-6.204,5.654c-2.429,2.287-4.808,4.627-7.208,6.945c-0.043,0.041-0.081,0.088-0.123,0.136
			c1.104,1.104,2.198,2.198,3.301,3.302c0.072-0.072,0.131-0.131,0.191-0.191c0.839-0.838,1.663-1.689,2.521-2.507
			c2.269-2.162,4.542-4.32,6.834-6.457c1.506-1.402,3.036-2.776,4.577-4.142c1.569-1.391,3.154-2.763,4.749-4.123
			c1.536-1.311,3.081-2.609,4.644-3.888c1.58-1.291,3.172-2.568,4.785-3.818c1.848-1.432,3.705-2.85,5.589-4.232
			c1.662-1.221,3.358-2.396,5.056-3.57c2.607-1.803,5.285-3.495,8.021-5.094c0.894-0.522,1.787-1.042,2.709-1.578
			C106.856,63.541,104.085,60.77,101.308,57.994z"/>
		<path fill-rule="evenodd" clip-rule="evenodd" fill="#FFFFFF" d="M73.206,59.646c-0.328-0.327-0.613-0.613-0.899-0.899
			c-0.628-0.626-1.244-1.267-1.973-1.786c-3.566-2.537-8.464-2.262-11.693,0.691c-1.844,1.687-2.886,3.791-3.051,6.292
			c-0.168,2.514,0.552,4.763,2.198,6.678c0.664,0.773,1.418,1.467,2.133,2.195c0.009,0.01,0.029,0.008,0.052,0.016
			c0.167-0.104,0.235-0.354,0.563-0.186c3.297,1.697,6.551,1.672,9.699-0.376c1.523-0.991,2.617-2.372,3.28-4.063
			c1.044-2.664,0.846-5.278-0.434-7.819C72.935,60.1,72.775,59.853,73.206,59.646z M67.877,68.218
			c-0.853,0.736-1.84,1.16-2.982,1.153c-1.306-0.008-2.367-0.579-3.306-1.489c-0.995-1.029-1.588-2.25-1.426-3.747
			c0.143-1.327,0.836-2.359,1.832-3.202c0.788-0.667,1.691-1.076,2.737-1.121c1.197-0.051,2.23,0.372,3.127,1.136
			c1.074,0.916,1.786,2.043,1.833,3.491C69.744,66.004,69.028,67.225,67.877,68.218z"/>
		<path fill-rule="evenodd" clip-rule="evenodd" fill="#FFFFFF" d="M50.869,73.681c-1.376,1.373-1.384,3.588-0.019,4.959
			c1.367,1.374,3.592,1.382,4.962,0.019c1.372-1.365,1.379-3.594,0.017-4.962C54.461,72.321,52.238,72.313,50.869,73.681z"/>
		<path fill-rule="evenodd" clip-rule="evenodd" fill="#FFFFFF" d="M74.039,50.511c-1.391,1.383-1.403,3.598-0.03,4.976
			c1.369,1.372,3.593,1.377,4.963,0.012c1.371-1.366,1.375-3.594,0.011-4.962C77.62,49.171,75.396,49.16,74.039,50.511z"/>
	</g>
</g>
</svg>
