<?xml version="1.0" encoding="utf-8"?>
<!-- Generator: Adobe Illustrator 22.0.1, SVG Export Plug-In . SVG Version: 6.00 Build 0)  -->
<svg version="1.1" id="Слой_1" xmlns="http://www.w3.org/2000/svg" xmlns:xlink="http://www.w3.org/1999/xlink" x="0px" y="0px"
	 viewBox="0 0 138.2 138.2" style="enable-background:new 0 0 138.2 138.2;" xml:space="preserve">
<style type="text/css">
	.st0{opacity:0.4;fill:url(#SVGID_1_);enable-background:new    ;}
	.st1{opacity:0.4;fill:url(#SVGID_2_);enable-background:new    ;}
	.st2{opacity:0.6;fill:url(#SVGID_3_);enable-background:new    ;}
	.st3{opacity:0.8;fill:url(#SVGID_4_);enable-background:new    ;}
	.st4{clip-path:url(#SVGID_6_);fill:#FFFFFF;}
	.st5{clip-path:url(#SVGID_8_);fill:#FFFFFF;}
	.st6{clip-path:url(#SVGID_10_);fill:#FFFFFF;}
</style>
<linearGradient id="SVGID_1_" gradientUnits="userSpaceOnUse" x1="-269.6913" y1="-760.6447" x2="-131.4953" y2="-760.6447" gradientTransform="matrix(-1 0 0 -0.8257 -131.972 -556.6018)">
	<stop  offset="0" style="stop-color:#4B48BF"/>
	<stop  offset="1" style="stop-color:#A14B8A"/>
</linearGradient>
<ellipse class="st0" cx="68.6" cy="71.5" rx="69.1" ry="57.1"/>
<linearGradient id="SVGID_2_" gradientUnits="userSpaceOnUse" x1="508.6535" y1="182.005" x2="646.8515" y2="182.005" gradientTransform="matrix(0 1 0.8257 0 -81.6602 -506.29)">
	<stop  offset="0" style="stop-color:#4B48BF"/>
	<stop  offset="1" style="stop-color:#A14B8A"/>
</linearGradient>
<ellipse class="st1" cx="68.6" cy="71.5" rx="57.1" ry="69.1"/>
<linearGradient id="SVGID_3_" gradientUnits="userSpaceOnUse" x1="-130.5737" y1="776.4695" x2="-16.2957" y2="776.4695" gradientTransform="matrix(1 0 0 1 142.056 -705.007)">
	<stop  offset="0" style="stop-color:#4B48BF"/>
	<stop  offset="1" style="stop-color:#A14B8A"/>
</linearGradient>
<circle class="st2" cx="68.6" cy="71.5" r="57.1"/>
<linearGradient id="SVGID_4_" gradientUnits="userSpaceOnUse" x1="-118.4937" y1="776.4695" x2="-28.3757" y2="776.4695" gradientTransform="matrix(1 0 0 1 142.056 -705.007)">
	<stop  offset="0" style="stop-color:#4B48BF"/>
	<stop  offset="1" style="stop-color:#A14B8A"/>
</linearGradient>
<circle class="st3" cx="68.6" cy="71.5" r="45.1"/>
<g>
	<defs>
		<path id="SVGID_5_" d="M69.8,52c-0.2,0.4-0.4,0.7-0.4,1.1V56c0,0.6,0,1.2,0,1.9v0.7c0,9,0,18,0,27h0v4.4c0,1,1.1,1.9,1.1,1.9v0
			c0.8,0.8,1.9,1.1,3.1,0.8c2.5-0.5,3.6-3.8,1.7-5.7c-0.5-0.6-0.5-1.3,0-1.8c0.5-0.5,1.2-0.4,1.7,0.2c0.8,0.8,1.2,1.7,1.5,2.8
			c0.1,0.3,0.2,0.3,0.4,0.4c1.3,0.2,2.6-0.1,3.7-0.8c2.1-1.4,3.1-3.9,2.5-6.3c-0.6-2.4-2.8-4.1-5.4-4.2c-0.9,0-1.4-0.5-1.4-1.2
			c0-0.7,0.6-1.2,1.4-1.1c1.2,0,2.4,0.3,3.4,0.9c1.2,0.6,2.2,1.5,3,2.6c0.1-0.1,0.2-0.1,0.2-0.1c2.6-1.9,3.9-4.5,3.5-7.7
			c-0.4-3.3-2.3-5.6-5.5-6.6c-3.2-1-6-0.2-8.3,2.1c-1.5,1.5-2.1,3.4-2.2,5.5c0,0.7-0.6,1.2-1.2,1.2c-0.7,0-1.2-0.5-1.1-1.2
			c0-0.8,0.1-1.5,0.3-2.2c1-5,6.1-8.6,11.1-8c0.7,0.1,1.4,0.2,2.1,0.3c0,0,0-0.1,0.1-0.1c0.9-3.9-2.4-7.5-6.3-6.9
			c-0.2,0-0.3,0.1-0.4,0.4c-0.2,1.1-0.7,2.1-1.5,2.9c-0.4,0.4-1,0.5-1.4,0.2c-0.5-0.3-0.7-0.8-0.5-1.3c0.1-0.3,0.3-0.5,0.5-0.7
			c0.9-1.1,1.1-2.3,0.5-3.6c-0.6-1.3-1.6-2-3-2.1c0,0-0.1,0-0.1,0C71.5,50.2,70.5,50.9,69.8,52"/>
	</defs>
	<use xlink:href="#SVGID_5_"  style="overflow:visible;fill:#FFFFFF;"/>
	<clipPath id="SVGID_6_">
		<use xlink:href="#SVGID_5_"  style="overflow:visible;"/>
	</clipPath>
	<rect x="69.4" y="50.2" class="st4" width="21" height="42.6"/>
</g>
<g>
	<defs>
		<path id="SVGID_7_" d="M63.5,50.2c-1.4,0-2.4,0.8-3,2.1c-0.5,1.3-0.4,2.5,0.5,3.6c0.2,0.2,0.4,0.5,0.5,0.7
			c0.2,0.5-0.1,1.1-0.5,1.3c-0.5,0.3-1,0.2-1.4-0.2c-0.8-0.8-1.3-1.8-1.5-2.9c0-0.2-0.1-0.3-0.4-0.4c-3.9-0.5-7.2,3-6.3,6.9
			c0,0,0,0.1,0.1,0.1c0.7-0.1,1.4-0.3,2.1-0.3c5.1-0.6,10.1,3,11.1,8c0.2,0.7,0.2,1.5,0.3,2.2c0,0.7-0.5,1.2-1.1,1.2
			c-0.6,0-1.2-0.5-1.2-1.2c0-2.1-0.7-4-2.2-5.5c-2.3-2.4-5.1-3.2-8.3-2.1c-3.2,1-5.1,3.3-5.5,6.6c-0.4,3.2,0.9,5.8,3.5,7.7
			c0.1,0,0.1,0.1,0.2,0.1c0.8-1.1,1.8-2,3-2.6c1.1-0.6,2.2-0.9,3.4-0.9c0.8,0,1.4,0.4,1.4,1.1c0,0.7-0.5,1.2-1.4,1.2
			c-2.5,0.1-4.7,1.8-5.4,4.2c-0.6,2.4,0.4,5,2.5,6.3c1.1,0.7,2.4,1,3.7,0.8c0.2,0,0.3-0.1,0.4-0.4c0.2-1.1,0.7-2,1.5-2.8
			c0.5-0.6,1.2-0.6,1.7-0.2c0.5,0.5,0.5,1.2,0,1.8c-1.9,1.9-0.8,5.2,1.7,5.7c1.2,0.2,2.2,0,3-0.8l0,0c0,0,1.1-0.9,1.1-1.9v-4.4
			c0-9,0-18,0-27v-0.7c0-0.6,0-1.2,0-1.9v-2.8c0-0.4-0.2-0.8-0.4-1.1c-0.7-1.2-1.7-1.8-3-1.8C63.6,50.2,63.5,50.2,63.5,50.2"/>
	</defs>
	<use xlink:href="#SVGID_7_"  style="overflow:visible;fill:#FFFFFF;"/>
	<clipPath id="SVGID_8_">
		<use xlink:href="#SVGID_7_"  style="overflow:visible;"/>
	</clipPath>
	<rect x="46.1" y="50.2" class="st5" width="21" height="42.6"/>
</g>
<g>
	<defs>
		<path id="SVGID_9_" d="M70.5,48.4c3.1-1.4,6.6,0.1,7.8,3.3c0.1,0.3,0.3,0.4,0.6,0.4c4.4-0.3,8,2.5,8.7,6.8
			c0.2,1.1,0.1,2.2-0.2,3.2c-0.1,0.3,0,0.5,0.2,0.6c6.3,4.1,6.3,13.3,0,17.4c-0.3,0.2-0.3,0.3-0.2,0.6c1.4,5.2-2.8,10.3-8.2,10
			c-0.8,0-0.8,0-1.1,0.7c-1.7,3.9-6.8,4.7-9.6,1.6c-0.1-0.1-0.2-0.2-0.3-0.3c0,0,0,0,0,0c0,0,0,0,0,0c-0.1,0.1-0.2,0.2-0.3,0.3
			c-2.8,3.2-7.9,2.3-9.6-1.6c-0.3-0.7-0.3-0.7-1.1-0.7c-5.4,0.3-9.5-4.8-8.2-10c0.1-0.3,0-0.5-0.2-0.6c-6.3-4.1-6.3-13.3,0-17.4
			c0.3-0.2,0.3-0.3,0.2-0.6c-0.3-1.1-0.4-2.1-0.2-3.2c0.7-4.3,4.3-7.1,8.7-6.8c0.3,0,0.5-0.1,0.6-0.4c1.1-3.2,4.7-4.7,7.8-3.3
			c0.9,0.4,1.6,1,2.2,1.7c0,0,0,0,0,0c0,0,0,0,0,0C68.9,49.4,69.6,48.8,70.5,48.4 M79.8,32.8v9.5h-8v-9.5h-7.2v9.5h-8v-9.5h-7.2v9.5
			H39.1v10.3h-9.5v7.2h9.5v8h-9.5v7.2h9.5v8h-9.5v7.2h9.5v10.3h10.3v9.5h7.2v-9.5h8v9.5h7.2v-9.5h8v9.5h7.2v-9.5h10.3V90.3h9.5v-7.2
			h-9.5v-8h9.5v-7.2h-9.5v-8h9.5v-7.2h-9.5V42.3H87.1v-9.5H79.8z"/>
	</defs>
	<use xlink:href="#SVGID_9_"  style="overflow:visible;fill:#FFFFFF;"/>
	<clipPath id="SVGID_10_">
		<use xlink:href="#SVGID_9_"  style="overflow:visible;"/>
	</clipPath>
	<rect x="29.6" y="32.8" class="st6" width="77.2" height="77.2"/>
</g>
</svg>
