<svg id="Слой_1" data-name="Слой 1" xmlns="http://www.w3.org/2000/svg" xmlns:xlink="http://www.w3.org/1999/xlink" viewBox="0 0 138.2 138.2"><defs><style>.cls-1{fill:#fefefe;}.cls-2,.cls-3{opacity:0.4;}.cls-2,.cls-3,.cls-4,.cls-5{isolation:isolate;}.cls-2{fill:url(#Безымянный_градиент);}.cls-3{fill:url(#Безымянный_градиент_2);}.cls-4{opacity:0.6;fill:url(#Безымянный_градиент_3);}.cls-5{opacity:0.8;fill:url(#Безымянный_градиент_4);}.cls-6{clip-path:url(#clip-path);}</style><linearGradient id="Безымянный_градиент" x1="-270.07" y1="-756.43" x2="-131.88" y2="-756.43" gradientTransform="translate(-131.97 -556.6) rotate(180) scale(1 0.83)" gradientUnits="userSpaceOnUse"><stop offset="0" stop-color="#4b48bf"/><stop offset="1" stop-color="#a14b8a"/></linearGradient><linearGradient id="Безымянный_градиент_2" x1="505.18" y1="182.47" x2="643.38" y2="182.47" gradientTransform="matrix(0, 1, 0.83, 0, -81.66, -506.29)" xlink:href="#Безымянный_градиент"/><linearGradient id="Безымянный_градиент_3" x1="-130.19" y1="772.99" x2="-15.92" y2="772.99" gradientTransform="translate(142.06 -705.01)" xlink:href="#Безымянный_градиент"/><linearGradient id="Безымянный_градиент_4" x1="-118.11" y1="772.99" x2="-28" y2="772.99" gradientTransform="translate(142.06 -705.01)" xlink:href="#Безымянный_градиент"/><clipPath id="clip-path"><path class="cls-1" d="M68.37,107.19l-1.53,0,.13-5,1.53,0a2.52,2.52,0,0,1,0,5h-.09m-3.64,1.88,3.59.09a4.49,4.49,0,0,0,.24-9L65,100.1ZM74.15,100l2,8.74,5.5-1.26-.44-1.93-3.5.81-.36-1.55,3.13-.72-.44-1.9-3.13.72-.33-1.45,3.44-.79-.45-1.92ZM57.39,103.8l2-2.82v3.45ZM53.23,106l2.14.68.86-1.21,3.17,1v1.47l2.14.68-.2-9.48-2.49-.78Zm-7.06-9.59a4.55,4.55,0,0,0,1.34,6.46,4.43,4.43,0,0,0,4.35.38L51,101.4a2.3,2.3,0,0,1-2.34-.22,2.67,2.67,0,0,1,2.93-4.46,2.33,2.33,0,0,1,1.13,2.07l2,.11a4.49,4.49,0,0,0-2.07-3.85A4.79,4.79,0,0,0,50,94.24a4.61,4.61,0,0,0-3.84,2.15m40.9-1.3-.21,4.66-4-2.31-1.8,1,4.32,7.87,1.8-1-2.51-4.58,3.87,2.22.2-.11.19-4.45L91.4,103l1.8-1L88.87,94.1ZM40.79,92.26,44,90.89l-1.79,3ZM36.1,92l1.48,1.69,1.36-.59,2.19,2.51-.77,1.27,1.47,1.69,4.76-8.2-1.72-2Zm57.31-2.42,1.27,3.64L91,92l-1.64,1.66,6.05,1.73,2.46,2.42,1.44-1.47L96.87,93.9l-1.82-6ZM69.64,79.06A10.23,10.23,0,0,1,65.05,78l.7,1.22,3.66,6.34.23.4.23-.4,3.66-6.34.7-1.22a10.23,10.23,0,0,1-4.59,1.07m-37.39-.23A2.73,2.73,0,1,0,35,76.11a2.72,2.72,0,0,0-2.72,2.72m69.31,0a2.72,2.72,0,1,0,2.72-2.72,2.72,2.72,0,0,0-2.72,2.72M67.72,69.22v1.69h4a.85.85,0,0,0,0-1.69Zm-9.3,1.26-3.66,6.35-.23.4h9.21a10.37,10.37,0,0,1-4.49-8.17Zm17.12,6.75h9.21l-.23-.4-3.66-6.35L80,69.06a10.37,10.37,0,0,1-4.49,8.17M67.72,65.87v1.56H71.5a.75.75,0,0,0,.77-.78.74.74,0,0,0-.77-.78ZM101.21,62l.68,5.6,2-.23-.43-3.57L105,63.6l.38,3.19,1.93-.24-.38-3.18,1.48-.18.42,3.5,2-.24-.67-5.54ZM70,64V62.34h1.49V64h0a2.59,2.59,0,0,1,2.79,2.52,2.22,2.22,0,0,1-.77,1.73,2.27,2.27,0,0,1,1.08,2,2.64,2.64,0,0,1-2.85,2.58h-.3v1.64H70V72.8h-.75v1.64H67.72V72.8h-3V70.92h1V65.86h-1V64h3V62.34h1.49V64ZM61.12,68.5A8.51,8.51,0,1,0,69.63,60a8.51,8.51,0,0,0-8.51,8.51m1.2-8.72H54.53l.23.4,3.66,6.34L59.26,68a10.43,10.43,0,0,1,5-8.2Zm22,0H75.05A10.43,10.43,0,0,1,80,68l.84-1.46,3.66-6.34.23-.4ZM28.91,61.6a4.67,4.67,0,1,0,9.22,1.45,4.44,4.44,0,0,0-1.45-4.12l-1.29,1.59a2.29,2.29,0,0,1,.77,2.22,2.49,2.49,0,0,1-3,2.17,2.48,2.48,0,0,1-2.23-3A2.33,2.33,0,0,1,32.3,60l-.74-1.91a4.51,4.51,0,0,0-2.65,3.48m40.5-10.14L65.75,57.8l-1,1.66a10.4,10.4,0,0,1,9.7,0l-1-1.66-3.66-6.34-.23-.4ZM102.1,51a4.55,4.55,0,0,0-2.61,6.06,4.46,4.46,0,0,0,3.35,2.81l.3-2a2.3,2.3,0,0,1-1.79-1.52,2.67,2.67,0,0,1,5-2,2.36,2.36,0,0,1-.26,2.34L107.66,58a4.67,4.67,0,0,0-3.74-7.31,5,5,0,0,0-1.82.36M33.54,53.17l.64-1.39a1.08,1.08,0,0,1,1.48-.45,1.09,1.09,0,0,1,.62,1.41l-.65,1.4ZM32.43,51l-1.49,3.26L39.09,58l.85-1.86-2.67-1.23.4-.89,3.39-.31.92-2-3.79.36a3,3,0,0,0-1.68-2.59A3.08,3.08,0,0,0,32.43,51m63.29-1.25,1.15,1.7,7.44-5-1.15-1.7ZM38.59,41.49,40.23,45l-3.77-.84L35,46l6.2,1.11,2.69,2.15,1.28-1.6-2.69-2.15-2.43-5.81Zm11.78,39.7H62.3L66,87.53l2.3,4a2.72,2.72,0,0,0,.2,4.81,27.86,27.86,0,0,1-22.41-13,2.69,2.69,0,0,0,1.59.53,2.72,2.72,0,0,0,2.72-2.66m22,12.69A2.73,2.73,0,0,0,71,91.52l2.3-4L77,81.19H88.88A2.71,2.71,0,0,0,91.6,83.9a2.66,2.66,0,0,0,1.52-.47,27.85,27.85,0,0,1-22.33,12.9,2.72,2.72,0,0,0,1.56-2.45M41.77,68.5A27.72,27.72,0,0,1,45,55.59a2,2,0,0,0,0,.24,2.71,2.71,0,0,0,2.72,2.71A2.74,2.74,0,0,0,49,58.18l6,10.41-6,10.2a2.62,2.62,0,0,0-1.39-.39,2.72,2.72,0,0,0-2.72,2.73,2.58,2.58,0,0,0,0,.29A27.67,27.67,0,0,1,41.77,68.5M94.32,55.88c0-.1,0-.2,0-.3a27.78,27.78,0,0,1,0,25.83c0-.07,0-.15,0-.23a2.72,2.72,0,0,0-2.72-2.72,2.62,2.62,0,0,0-1.36.37l-6-10.24,6-10.37a2.67,2.67,0,0,0,1.38.38,2.72,2.72,0,0,0,2.72-2.72M50.26,79.49l2.15-3.74,4.41-7.16-4.41-7.34-2.18-3.77-.15-.26h13l.41-.7,3.66-6.34,2.3-4,.15-.24.14.24,2.3,4,3.67,6.34.4.7h13l-.17.3-2.16,3.73-4.22,7.34,4.22,7.16L89,79.53l.15.25h-13l-.4.71-3.67,6.34-2.3,4-.14.25-.15-.25-2.3-4-3.66-6.34-.41-.71h-13ZM68.47,40.68a2.71,2.71,0,0,0-.2,4.8l-2.3,4L62.3,55.82H50.38a2.73,2.73,0,0,0-4.25-2.25A27.88,27.88,0,0,1,68.47,40.68m4.82,8.8-2.3-4a2.71,2.71,0,0,0-.2-4.8,27.88,27.88,0,0,1,22.41,13,2.69,2.69,0,0,0-1.6-.53,2.72,2.72,0,0,0-2.72,2.66H77Zm-32.85,19A29.19,29.19,0,1,0,69.63,39.31,29.19,29.19,0,0,0,40.44,68.5m51-23.72L95,48.6l1.43-1.35-2.19-2.33,5.09-4.81L98,38.62Zm-46.09-7,1.07-.81a1.15,1.15,0,0,1,1.39,1.84l-1.08.81Zm-.08-2.35-2.72,2,5.4,7.17,1.63-1.23-1.69-2.25L49,40.32A3.1,3.1,0,0,0,49.61,36a3,3,0,0,0-2.45-1.22,3.17,3.17,0,0,0-1.91.65m42.17,4.18a2.67,2.67,0,1,1,3.62-.9A2.59,2.59,0,0,1,88.83,40a2.73,2.73,0,0,1-1.41-.41m-2.58-4.72a4.67,4.67,0,1,0,6.42-1.53,4.73,4.73,0,0,0-2.47-.71,4.65,4.65,0,0,0-4,2.24M50.36,32l.78,1.81,2.12-.91L56,39.37l1.89-.81-2.76-6.44,2.12-.91-.78-1.81Zm29.45,1-1.3-.36.61-2.22,1.3.36a1.09,1.09,0,0,1,.75,1.39,1.13,1.13,0,0,1-1.07.87,1,1,0,0,1-.29,0m-4.54,3.67,2,.54L78,34.55l1.3.35A3.08,3.08,0,1,0,80.93,29l-3.27-.9ZM62,32.58a2.57,2.57,0,1,1,2.56,2.31A2.55,2.55,0,0,1,62,32.58m2-5a4.62,4.62,0,1,0,.65-.05,4.87,4.87,0,0,0-.65.05M24.24,68A44.76,44.76,0,1,1,69,112.75,44.81,44.81,0,0,1,24.24,68m-5.86,0A50.62,50.62,0,1,0,69,17.37,50.68,50.68,0,0,0,18.38,68"/></clipPath></defs><title>Монтажная область 1</title><ellipse class="cls-2" cx="69" cy="67.99" rx="69.1" ry="57.05"/><ellipse class="cls-3" cx="69" cy="67.99" rx="57.05" ry="69.1"/><circle class="cls-4" cx="69" cy="67.99" r="57.14"/><circle class="cls-5" cx="69" cy="67.99" r="45.06"/><path class="cls-1" d="M68.37,107.19l-1.53,0,.13-5,1.53,0a2.52,2.52,0,0,1,0,5h-.09m-3.64,1.88,3.59.09a4.49,4.49,0,0,0,.24-9L65,100.1ZM74.15,100l2,8.74,5.5-1.26-.44-1.93-3.5.81-.36-1.55,3.13-.72-.44-1.9-3.13.72-.33-1.45,3.44-.79-.45-1.92ZM57.39,103.8l2-2.82v3.45ZM53.23,106l2.14.68.86-1.21,3.17,1v1.47l2.14.68-.2-9.48-2.49-.78Zm-7.06-9.59a4.55,4.55,0,0,0,1.34,6.46,4.43,4.43,0,0,0,4.35.38L51,101.4a2.3,2.3,0,0,1-2.34-.22,2.67,2.67,0,0,1,2.93-4.46,2.33,2.33,0,0,1,1.13,2.07l2,.11a4.49,4.49,0,0,0-2.07-3.85A4.79,4.79,0,0,0,50,94.24a4.61,4.61,0,0,0-3.84,2.15m40.9-1.3-.21,4.66-4-2.31-1.8,1,4.32,7.87,1.8-1-2.51-4.58,3.87,2.22.2-.11.19-4.45L91.4,103l1.8-1L88.87,94.1ZM40.79,92.26,44,90.89l-1.79,3ZM36.1,92l1.48,1.69,1.36-.59,2.19,2.51-.77,1.27,1.47,1.69,4.76-8.2-1.72-2Zm57.31-2.42,1.27,3.64L91,92l-1.64,1.66,6.05,1.73,2.46,2.42,1.44-1.47L96.87,93.9l-1.82-6ZM69.64,79.06A10.23,10.23,0,0,1,65.05,78l.7,1.22,3.66,6.34.23.4.23-.4,3.66-6.34.7-1.22a10.23,10.23,0,0,1-4.59,1.07m-37.39-.23A2.73,2.73,0,1,0,35,76.11a2.72,2.72,0,0,0-2.72,2.72m69.31,0a2.72,2.72,0,1,0,2.72-2.72,2.72,2.72,0,0,0-2.72,2.72M67.72,69.22v1.69h4a.85.85,0,0,0,0-1.69Zm-9.3,1.26-3.66,6.35-.23.4h9.21a10.37,10.37,0,0,1-4.49-8.17Zm17.12,6.75h9.21l-.23-.4-3.66-6.35L80,69.06a10.37,10.37,0,0,1-4.49,8.17M67.72,65.87v1.56H71.5a.75.75,0,0,0,.77-.78.74.74,0,0,0-.77-.78ZM101.21,62l.68,5.6,2-.23-.43-3.57L105,63.6l.38,3.19,1.93-.24-.38-3.18,1.48-.18.42,3.5,2-.24-.67-5.54ZM70,64V62.34h1.49V64h0a2.59,2.59,0,0,1,2.79,2.52,2.22,2.22,0,0,1-.77,1.73,2.27,2.27,0,0,1,1.08,2,2.64,2.64,0,0,1-2.85,2.58h-.3v1.64H70V72.8h-.75v1.64H67.72V72.8h-3V70.92h1V65.86h-1V64h3V62.34h1.49V64ZM61.12,68.5A8.51,8.51,0,1,0,69.63,60a8.51,8.51,0,0,0-8.51,8.51m1.2-8.72H54.53l.23.4,3.66,6.34L59.26,68a10.43,10.43,0,0,1,5-8.2Zm22,0H75.05A10.43,10.43,0,0,1,80,68l.84-1.46,3.66-6.34.23-.4ZM28.91,61.6a4.67,4.67,0,1,0,9.22,1.45,4.44,4.44,0,0,0-1.45-4.12l-1.29,1.59a2.29,2.29,0,0,1,.77,2.22,2.49,2.49,0,0,1-3,2.17,2.48,2.48,0,0,1-2.23-3A2.33,2.33,0,0,1,32.3,60l-.74-1.91a4.51,4.51,0,0,0-2.65,3.48m40.5-10.14L65.75,57.8l-1,1.66a10.4,10.4,0,0,1,9.7,0l-1-1.66-3.66-6.34-.23-.4ZM102.1,51a4.55,4.55,0,0,0-2.61,6.06,4.46,4.46,0,0,0,3.35,2.81l.3-2a2.3,2.3,0,0,1-1.79-1.52,2.67,2.67,0,0,1,5-2,2.36,2.36,0,0,1-.26,2.34L107.66,58a4.67,4.67,0,0,0-3.74-7.31,5,5,0,0,0-1.82.36M33.54,53.17l.64-1.39a1.08,1.08,0,0,1,1.48-.45,1.09,1.09,0,0,1,.62,1.41l-.65,1.4ZM32.43,51l-1.49,3.26L39.09,58l.85-1.86-2.67-1.23.4-.89,3.39-.31.92-2-3.79.36a3,3,0,0,0-1.68-2.59A3.08,3.08,0,0,0,32.43,51m63.29-1.25,1.15,1.7,7.44-5-1.15-1.7ZM38.59,41.49,40.23,45l-3.77-.84L35,46l6.2,1.11,2.69,2.15,1.28-1.6-2.69-2.15-2.43-5.81Zm11.78,39.7H62.3L66,87.53l2.3,4a2.72,2.72,0,0,0,.2,4.81,27.86,27.86,0,0,1-22.41-13,2.69,2.69,0,0,0,1.59.53,2.72,2.72,0,0,0,2.72-2.66m22,12.69A2.73,2.73,0,0,0,71,91.52l2.3-4L77,81.19H88.88A2.71,2.71,0,0,0,91.6,83.9a2.66,2.66,0,0,0,1.52-.47,27.85,27.85,0,0,1-22.33,12.9,2.72,2.72,0,0,0,1.56-2.45M41.77,68.5A27.72,27.72,0,0,1,45,55.59a2,2,0,0,0,0,.24,2.71,2.71,0,0,0,2.72,2.71A2.74,2.74,0,0,0,49,58.18l6,10.41-6,10.2a2.62,2.62,0,0,0-1.39-.39,2.72,2.72,0,0,0-2.72,2.73,2.58,2.58,0,0,0,0,.29A27.67,27.67,0,0,1,41.77,68.5M94.32,55.88c0-.1,0-.2,0-.3a27.78,27.78,0,0,1,0,25.83c0-.07,0-.15,0-.23a2.72,2.72,0,0,0-2.72-2.72,2.62,2.62,0,0,0-1.36.37l-6-10.24,6-10.37a2.67,2.67,0,0,0,1.38.38,2.72,2.72,0,0,0,2.72-2.72M50.26,79.49l2.15-3.74,4.41-7.16-4.41-7.34-2.18-3.77-.15-.26h13l.41-.7,3.66-6.34,2.3-4,.15-.24.14.24,2.3,4,3.67,6.34.4.7h13l-.17.3-2.16,3.73-4.22,7.34,4.22,7.16L89,79.53l.15.25h-13l-.4.71-3.67,6.34-2.3,4-.14.25-.15-.25-2.3-4-3.66-6.34-.41-.71h-13ZM68.47,40.68a2.71,2.71,0,0,0-.2,4.8l-2.3,4L62.3,55.82H50.38a2.73,2.73,0,0,0-4.25-2.25A27.88,27.88,0,0,1,68.47,40.68m4.82,8.8-2.3-4a2.71,2.71,0,0,0-.2-4.8,27.88,27.88,0,0,1,22.41,13,2.69,2.69,0,0,0-1.6-.53,2.72,2.72,0,0,0-2.72,2.66H77Zm-32.85,19A29.19,29.19,0,1,0,69.63,39.31,29.19,29.19,0,0,0,40.44,68.5m51-23.72L95,48.6l1.43-1.35-2.19-2.33,5.09-4.81L98,38.62Zm-46.09-7,1.07-.81a1.15,1.15,0,0,1,1.39,1.84l-1.08.81Zm-.08-2.35-2.72,2,5.4,7.17,1.63-1.23-1.69-2.25L49,40.32A3.1,3.1,0,0,0,49.61,36a3,3,0,0,0-2.45-1.22,3.17,3.17,0,0,0-1.91.65m42.17,4.18a2.67,2.67,0,1,1,3.62-.9A2.59,2.59,0,0,1,88.83,40a2.73,2.73,0,0,1-1.41-.41m-2.58-4.72a4.67,4.67,0,1,0,6.42-1.53,4.73,4.73,0,0,0-2.47-.71,4.65,4.65,0,0,0-4,2.24M50.36,32l.78,1.81,2.12-.91L56,39.37l1.89-.81-2.76-6.44,2.12-.91-.78-1.81Zm29.45,1-1.3-.36.61-2.22,1.3.36a1.09,1.09,0,0,1,.75,1.39,1.13,1.13,0,0,1-1.07.87,1,1,0,0,1-.29,0m-4.54,3.67,2,.54L78,34.55l1.3.35A3.08,3.08,0,1,0,80.93,29l-3.27-.9ZM62,32.58a2.57,2.57,0,1,1,2.56,2.31A2.55,2.55,0,0,1,62,32.58m2-5a4.62,4.62,0,1,0,.65-.05,4.87,4.87,0,0,0-.65.05M24.24,68A44.76,44.76,0,1,1,69,112.75,44.81,44.81,0,0,1,24.24,68m-5.86,0A50.62,50.62,0,1,0,69,17.37,50.68,50.68,0,0,0,18.38,68"/><g class="cls-6"><rect class="cls-1" x="18.38" y="17.37" width="101.24" height="101.24"/></g></svg>