<?xml version="1.0" encoding="utf-8"?>
<!-- Generator: Adobe Illustrator 16.0.0, SVG Export Plug-In . SVG Version: 6.00 Build 0)  -->
<!DOCTYPE svg PUBLIC "-//W3C//DTD SVG 1.1//EN" "http://www.w3.org/Graphics/SVG/1.1/DTD/svg11.dtd">
<svg version="1.1" id="Layer_1" xmlns="http://www.w3.org/2000/svg" xmlns:xlink="http://www.w3.org/1999/xlink" x="0px" y="0px"
	 width="138.195px" height="138.197px" viewBox="0 0 138.195 138.197" enable-background="new 0 0 138.195 138.197"
	 xml:space="preserve">
<g>
	<g>
		
			<linearGradient id="SVGID_1_" gradientUnits="userSpaceOnUse" x1="201.8323" y1="828.9658" x2="340.0276" y2="828.9658" gradientTransform="matrix(-1 0 0 0.8257 340.0278 -615.3784)">
			<stop  offset="0" style="stop-color:#4B48BF"/>
			<stop  offset="1" style="stop-color:#A14B8A"/>
		</linearGradient>
		<ellipse opacity="0.4" fill="url(#SVGID_1_)" enable-background="new    " cx="69.098" cy="69.099" rx="69.098" ry="57.051"/>
		
			<linearGradient id="SVGID_2_" gradientUnits="userSpaceOnUse" x1="416.2903" y1="569.2354" x2="554.4885" y2="569.2354" gradientTransform="matrix(0 1 -0.8257 0 539.116 -416.2903)">
			<stop  offset="0" style="stop-color:#4B48BF"/>
			<stop  offset="1" style="stop-color:#A14B8A"/>
		</linearGradient>
		<ellipse opacity="0.4" fill="url(#SVGID_2_)" enable-background="new    " cx="69.098" cy="69.099" rx="57.051" ry="69.099"/>
		
			<linearGradient id="SVGID_3_" gradientUnits="userSpaceOnUse" x1="-130.0964" y1="17.895" x2="-15.8191" y2="17.895" gradientTransform="matrix(1 0 0 -1 142.0557 86.9932)">
			<stop  offset="0" style="stop-color:#4B48BF"/>
			<stop  offset="1" style="stop-color:#A14B8A"/>
		</linearGradient>
		<circle opacity="0.6" fill="url(#SVGID_3_)" enable-background="new    " cx="69.098" cy="69.098" r="57.139"/>
		
			<linearGradient id="SVGID_4_" gradientUnits="userSpaceOnUse" x1="-118.0164" y1="17.895" x2="-27.8982" y2="17.895" gradientTransform="matrix(1 0 0 -1 142.0557 86.9932)">
			<stop  offset="0" style="stop-color:#4B48BF"/>
			<stop  offset="1" style="stop-color:#A14B8A"/>
		</linearGradient>
		<circle opacity="0.8" fill="url(#SVGID_4_)" enable-background="new    " cx="69.098" cy="69.098" r="45.059"/>
	</g>
</g>
<path fill="#FFFFFF" d="M109.132,56.985L70.535,37.687c-0.904-0.452-1.97-0.452-2.877,0L29.065,56.985
	c-1.09,0.544-1.777,1.659-1.777,2.875c0,1.218,0.688,2.332,1.777,2.878l17.521,8.759v12.484c0,0.499,0.116,0.991,0.34,1.44
	c0.233,0.465,5.899,11.426,22.173,11.426c16.276,0,21.94-10.961,22.174-11.426c0.225-0.449,0.34-0.941,0.34-1.44V69.511
	c0-1.115-0.578-2.149-1.525-2.736c-0.947-0.586-2.133-0.64-3.13-0.142l-17.858,8.93l-17.801-8.901
	c-0.039-0.021-0.08-0.041-0.12-0.061l-13.483-6.741L69.098,44.16l31.404,15.701l-3.896,1.949c-1.587,0.793-2.232,2.726-1.438,4.314
	c0.432,0.867,1.204,1.449,2.071,1.673v8.717c-1.14,0.346-1.973,1.393-1.973,2.646c0,0.953,0.48,1.789,1.208,2.29l-1.057,7.821
	c0,1.195,1.176,2.164,2.628,2.164c1.449,0,2.624-0.969,2.624-2.164l-1.057-7.821c0.728-0.501,1.209-1.337,1.209-2.29
	c0-1.253-0.834-2.3-1.976-2.646v-8.716c0.216-0.055,0.429-0.133,0.636-0.235l9.649-4.824c1.088-0.546,1.777-1.66,1.777-2.878
	C110.909,58.644,110.221,57.53,109.132,56.985z"/>
</svg>
