<?xml version="1.0" encoding="utf-8"?>
<!-- Generator: Adobe Illustrator 16.0.0, SVG Export Plug-In . SVG Version: 6.00 Build 0)  -->
<!DOCTYPE svg PUBLIC "-//W3C//DTD SVG 1.1//EN" "http://www.w3.org/Graphics/SVG/1.1/DTD/svg11.dtd">
<svg version="1.1" id="Layer_1" xmlns="http://www.w3.org/2000/svg" xmlns:xlink="http://www.w3.org/1999/xlink" x="0px" y="0px"
	 width="138.195px" height="138.197px" viewBox="0 0 138.195 138.197" enable-background="new 0 0 138.195 138.197"
	 xml:space="preserve">
<g>
	<g>
		
			<linearGradient id="SVGID_1_" gradientUnits="userSpaceOnUse" x1="201.8323" y1="828.9658" x2="340.0276" y2="828.9658" gradientTransform="matrix(-1 0 0 0.8257 340.0278 -615.3784)">
			<stop  offset="0" style="stop-color:#4B48BF"/>
			<stop  offset="1" style="stop-color:#A14B8A"/>
		</linearGradient>
		<ellipse opacity="0.4" fill="url(#SVGID_1_)" enable-background="new    " cx="69.098" cy="69.099" rx="69.098" ry="57.051"/>
		
			<linearGradient id="SVGID_2_" gradientUnits="userSpaceOnUse" x1="416.2903" y1="569.2354" x2="554.4885" y2="569.2354" gradientTransform="matrix(0 1 -0.8257 0 539.116 -416.2903)">
			<stop  offset="0" style="stop-color:#4B48BF"/>
			<stop  offset="1" style="stop-color:#A14B8A"/>
		</linearGradient>
		<ellipse opacity="0.4" fill="url(#SVGID_2_)" enable-background="new    " cx="69.098" cy="69.099" rx="57.051" ry="69.099"/>
		
			<linearGradient id="SVGID_3_" gradientUnits="userSpaceOnUse" x1="-130.0964" y1="17.895" x2="-15.8191" y2="17.895" gradientTransform="matrix(1 0 0 -1 142.0557 86.9932)">
			<stop  offset="0" style="stop-color:#4B48BF"/>
			<stop  offset="1" style="stop-color:#A14B8A"/>
		</linearGradient>
		<circle opacity="0.6" fill="url(#SVGID_3_)" enable-background="new    " cx="69.098" cy="69.098" r="57.139"/>
		
			<linearGradient id="SVGID_4_" gradientUnits="userSpaceOnUse" x1="-118.0164" y1="17.895" x2="-27.8982" y2="17.895" gradientTransform="matrix(1 0 0 -1 142.0557 86.9932)">
			<stop  offset="0" style="stop-color:#4B48BF"/>
			<stop  offset="1" style="stop-color:#A14B8A"/>
		</linearGradient>
		<circle opacity="0.8" fill="url(#SVGID_4_)" enable-background="new    " cx="69.098" cy="69.098" r="45.059"/>
	</g>
	<g>
		<g>
			<path fill-rule="evenodd" clip-rule="evenodd" fill="#FFFFFF" d="M83.819,26.671c-0.054,0.463,0.388,0.41,0.613,0.534
				c1.342,0.73,1.668,1.751,0.921,3.061c-1.433,2.508-2.87,5.011-4.313,7.513c-0.446,0.771-1.121,1.135-2.014,1.009
				c-0.828-0.119-1.335-0.626-1.578-1.411c-0.138-0.456-0.057-0.897,0.129-1.329c1.161-2.702,2.342-5.394,3.465-8.112
				c0.206-0.5,0.779-0.706,0.845-1.264C82.531,26.671,83.173,26.671,83.819,26.671z"/>
			<path fill-rule="evenodd" clip-rule="evenodd" fill="#FFFFFF" d="M100.576,73.964c0.026,4.764-3.315,7.477-8.238,6.725
				c-3.822-0.582-7.229-2.194-10.409-4.277c-8.883-5.828-16.19-13.195-21.506-22.445c-1.45-2.524-2.524-5.209-2.932-8.122
				c-0.131-0.934-0.153-1.877-0.015-2.809c0.487-3.298,2.806-5.325,6.16-5.432c3.327-0.106,6.317,1.045,9.205,2.517
				c5.483,2.799,10.157,6.679,14.474,11.013c4.219,4.239,7.98,8.835,10.738,14.187C99.707,68.531,100.562,71.485,100.576,73.964z
				 M91.579,74.177c2.163,0.029,2.439-0.244,2.398-1.926c-0.01-0.399-0.059-0.803-0.131-1.195c-0.328-1.73-1.028-3.33-1.904-4.84
				c-4.479-7.734-10.6-13.909-18.026-18.819c-2.132-1.409-4.36-2.724-6.924-3.083c-2.993-0.417-3.267-0.07-2.871,2.883
				c0.257,1.909,1.14,3.624,2.093,5.277c2.822,4.901,6.463,9.138,10.637,12.929c3.126,2.838,6.453,5.408,10.249,7.307
				C88.664,73.493,90.279,74.134,91.579,74.177z"/>
			<path fill-rule="evenodd" clip-rule="evenodd" fill="#FFFFFF" d="M86.748,81.979c-1.8,0.067-3.592,0.131-5.377,0.324
				c-5.59,0.602-10.251,3.1-14.238,6.968c-1.595,1.549-3.223,3.077-4.714,4.727c-1.942,2.146-4.3,2.603-6.953,1.945
				c-4.717-1.172-8.176-4.109-10.896-8.006c-1.306-1.865-2.218-3.915-2.525-6.196c-0.294-2.194,0.196-4.105,1.855-5.713
				c2.114-2.055,4.254-4.092,6.195-6.316c3.987-4.565,5.792-9.935,5.862-15.942c0.01-0.934,0-1.867,0-2.927
				c0.339,0.334,0.369,0.667,0.471,0.953c0.858,2.353,2.018,4.555,3.358,6.66c0.229,0.359,0.309,0.694,0.25,1.127
				c-0.487,3.524-1.576,6.834-3.463,9.861c-0.313,0.505-0.397,0.968-0.209,1.511c1.851,5.33,5.454,8.925,10.729,10.872
				c0.602,0.221,1.096,0.111,1.648-0.233c3.046-1.905,6.389-2.994,9.937-3.477c0.31-0.042,0.569-0.024,0.838,0.147
				C81.8,79.728,84.189,80.981,86.748,81.979z"/>
			<path fill-rule="evenodd" clip-rule="evenodd" fill="#FFFFFF" d="M64.364,96.184c1.839-1.855,3.563-3.652,5.353-5.385
				c1.055-1.023,2.366-1.053,3.687-0.584c1.714,0.608,3.422,1.246,5.119,1.901c0.898,0.345,1.775,0.332,2.671,0.031
				c0.431-0.146,0.869-0.274,1.302-0.417c1.918-0.633,3.533,0.018,4.972,1.244c0.913,0.776,1.022,1.688,0.417,2.738
				c-0.201,0.346-0.439,0.676-0.706,0.975c-1.775,1.972-3.553,3.94-5.35,5.896c-1.11,1.21-2.503,1.579-4.097,1.256
				c-0.926-0.188-1.789-0.548-2.626-0.979c-1.002-0.516-1.947-1.127-2.881-1.756C69.672,99.389,67.296,97.4,64.364,96.184z"/>
			<path fill-rule="evenodd" clip-rule="evenodd" fill="#FFFFFF" d="M101.383,60.788c-0.959-0.017-1.707-0.575-1.944-1.351
				c-0.271-0.888,0.046-1.763,0.909-2.27c1.89-1.113,3.798-2.192,5.701-3.286c0.697-0.398,1.383-0.815,2.091-1.188
				c1.045-0.553,2.094-0.235,2.678,0.791c0.185,0.325,0.354,0.662,0.499,1.007c0.425,1.006,0.095,2.078-0.895,2.52
				c-2.832,1.256-5.694,2.454-8.549,3.667C101.682,60.759,101.461,60.771,101.383,60.788z"/>
			<path fill-rule="evenodd" clip-rule="evenodd" fill="#FFFFFF" d="M98.35,36.973c1.028-0.004,2.321,1,2.712,1.975
				c0.339,0.858,0.1,1.601-0.796,2.396c-2.098,1.872-4.191,3.747-6.298,5.604c-0.99,0.873-2.158,0.834-2.913-0.056
				c-0.604-0.716-0.672-1.695-0.029-2.433c2.021-2.321,4.077-4.608,6.131-6.902C97.511,37.162,97.987,36.983,98.35,36.973z"/>
			<path fill-rule="evenodd" clip-rule="evenodd" fill="#FFFFFF" d="M75.738,55.603c4.04,0.005,7.7,4.623,6.628,8.214
				c-0.57,1.913-0.824,1.988-2.286,0.688c-2.527-2.238-4.892-4.636-7.104-7.188c-0.391-0.452-0.363-0.679,0.136-0.961
				C73.97,55.875,74.866,55.576,75.738,55.603z"/>
		</g>
	</g>
</g>
</svg>
