<?xml version="1.0" encoding="utf-8"?>
<!-- Generator: Adobe Illustrator 16.0.0, SVG Export Plug-In . SVG Version: 6.00 Build 0)  -->
<!DOCTYPE svg PUBLIC "-//W3C//DTD SVG 1.1//EN" "http://www.w3.org/Graphics/SVG/1.1/DTD/svg11.dtd">
<svg version="1.1" id="Layer_1" xmlns="http://www.w3.org/2000/svg" xmlns:xlink="http://www.w3.org/1999/xlink" x="0px" y="0px"
	 width="138.195px" height="138.197px" viewBox="0 0 138.195 138.197" enable-background="new 0 0 138.195 138.197"
	 xml:space="preserve">
<g>
	<g>
		
			<linearGradient id="SVGID_1_" gradientUnits="userSpaceOnUse" x1="201.8323" y1="828.9658" x2="340.0276" y2="828.9658" gradientTransform="matrix(-1 0 0 0.8257 340.0278 -615.3784)">
			<stop  offset="0" style="stop-color:#4B48BF"/>
			<stop  offset="1" style="stop-color:#A14B8A"/>
		</linearGradient>
		<ellipse opacity="0.4" fill="url(#SVGID_1_)" enable-background="new    " cx="69.098" cy="69.099" rx="69.098" ry="57.051"/>
		
			<linearGradient id="SVGID_2_" gradientUnits="userSpaceOnUse" x1="416.2903" y1="569.2354" x2="554.4885" y2="569.2354" gradientTransform="matrix(0 1 -0.8257 0 539.116 -416.2903)">
			<stop  offset="0" style="stop-color:#4B48BF"/>
			<stop  offset="1" style="stop-color:#A14B8A"/>
		</linearGradient>
		<ellipse opacity="0.4" fill="url(#SVGID_2_)" enable-background="new    " cx="69.098" cy="69.099" rx="57.051" ry="69.099"/>
		
			<linearGradient id="SVGID_3_" gradientUnits="userSpaceOnUse" x1="-130.0964" y1="17.895" x2="-15.8191" y2="17.895" gradientTransform="matrix(1 0 0 -1 142.0557 86.9932)">
			<stop  offset="0" style="stop-color:#4B48BF"/>
			<stop  offset="1" style="stop-color:#A14B8A"/>
		</linearGradient>
		<circle opacity="0.6" fill="url(#SVGID_3_)" enable-background="new    " cx="69.098" cy="69.098" r="57.139"/>
		
			<linearGradient id="SVGID_4_" gradientUnits="userSpaceOnUse" x1="-118.0164" y1="17.895" x2="-27.8982" y2="17.895" gradientTransform="matrix(1 0 0 -1 142.0557 86.9932)">
			<stop  offset="0" style="stop-color:#4B48BF"/>
			<stop  offset="1" style="stop-color:#A14B8A"/>
		</linearGradient>
		<circle opacity="0.8" fill="url(#SVGID_4_)" enable-background="new    " cx="69.098" cy="69.098" r="45.059"/>
	</g>
	<g>
		<g>
			<path fill-rule="evenodd" clip-rule="evenodd" fill="#FFFFFF" d="M69.344,76.749c3.66-2.803,7.22-5.658,10.926-8.309
				c1.679-1.199,2.552-2.222,1.811-4.486c-0.462-1.41,0.091-3.144,0.14-4.734c0.013-0.387-0.022-0.958-0.269-1.147
				c-4.754-3.702-9.543-7.357-14.34-11.035c-2.813,1.882-5.755,2.286-8.829,0.84c-3.955-1.858-5.786-6.497-4.231-10.594
				c1.558-4.107,6.059-6.333,10.313-5.1c4.143,1.203,6.759,5.574,5.853,9.812c-0.114,0.532-0.219,0.948,0.329,1.365
				c4.688,3.56,9.352,7.15,14.093,10.785c2.77-2.583,6.041-3.679,9.777-3.125c2.716,0.403,4.999,1.698,6.785,3.792
				c3.695,4.33,3.618,10.609-0.09,14.838c-3.401,3.88-10.199,5.706-16.05,1.007c-4.35,3.332-8.712,6.672-13.12,10.051
				c2.154,4.361,2.443,8.781,0.553,13.246c-1.457,3.436-3.907,5.979-7.257,7.631c-6.696,3.303-14.866,1.182-19.129-4.951
				c-4.283-6.162-3.425-14.443,2.002-19.656C53.8,71.995,62.629,70.962,69.344,76.749z"/>
		</g>
	</g>
</g>
</svg>
