<?xml version="1.0" encoding="utf-8"?>
<!-- Generator: Adobe Illustrator 16.0.0, SVG Export Plug-In . SVG Version: 6.00 Build 0)  -->
<!DOCTYPE svg PUBLIC "-//W3C//DTD SVG 1.1//EN" "http://www.w3.org/Graphics/SVG/1.1/DTD/svg11.dtd">
<svg version="1.1" id="Layer_1" xmlns="http://www.w3.org/2000/svg" xmlns:xlink="http://www.w3.org/1999/xlink" x="0px" y="0px"
	 width="138.195px" height="138.197px" viewBox="0 0 138.195 138.197" enable-background="new 0 0 138.195 138.197"
	 xml:space="preserve">
<g>
	<g>
		<g>
			
				<linearGradient id="SVGID_1_" gradientUnits="userSpaceOnUse" x1="201.8323" y1="828.9658" x2="340.0276" y2="828.9658" gradientTransform="matrix(-1 0 0 0.8257 340.0278 -615.3784)">
				<stop  offset="0" style="stop-color:#4B48BF"/>
				<stop  offset="1" style="stop-color:#A14B8A"/>
			</linearGradient>
			<ellipse opacity="0.4" fill="url(#SVGID_1_)" enable-background="new    " cx="69.098" cy="69.099" rx="69.098" ry="57.051"/>
			
				<linearGradient id="SVGID_2_" gradientUnits="userSpaceOnUse" x1="416.2903" y1="569.2354" x2="554.4885" y2="569.2354" gradientTransform="matrix(0 1 -0.8257 0 539.116 -416.2903)">
				<stop  offset="0" style="stop-color:#4B48BF"/>
				<stop  offset="1" style="stop-color:#A14B8A"/>
			</linearGradient>
			<ellipse opacity="0.4" fill="url(#SVGID_2_)" enable-background="new    " cx="69.098" cy="69.099" rx="57.051" ry="69.099"/>
			
				<linearGradient id="SVGID_3_" gradientUnits="userSpaceOnUse" x1="-130.0964" y1="17.895" x2="-15.8191" y2="17.895" gradientTransform="matrix(1 0 0 -1 142.0557 86.9932)">
				<stop  offset="0" style="stop-color:#4B48BF"/>
				<stop  offset="1" style="stop-color:#A14B8A"/>
			</linearGradient>
			<circle opacity="0.6" fill="url(#SVGID_3_)" enable-background="new    " cx="69.098" cy="69.098" r="57.139"/>
			
				<linearGradient id="SVGID_4_" gradientUnits="userSpaceOnUse" x1="-118.0164" y1="17.895" x2="-27.8982" y2="17.895" gradientTransform="matrix(1 0 0 -1 142.0557 86.9932)">
				<stop  offset="0" style="stop-color:#4B48BF"/>
				<stop  offset="1" style="stop-color:#A14B8A"/>
			</linearGradient>
			<circle opacity="0.8" fill="url(#SVGID_4_)" enable-background="new    " cx="69.098" cy="69.098" r="45.059"/>
		</g>
	</g>
	<g>
		<g>
			<g>
				<path fill-rule="evenodd" clip-rule="evenodd" fill="#FFFFFF" d="M53.084,36.771c0.883,4.52,2.661,5.973,7.146,5.973
					c5.861-0.001,11.724-0.002,17.585,0c4.646,0.001,6.385-1.391,7.274-5.861c2.225,0,4.478-0.186,6.687,0.049
					c2.51,0.267,4.248,2.693,4.255,5.525c0.018,6.791,0.006,13.58,0.006,20.371c0,11.719,0.001,23.438-0.001,35.158
					c0,4.091-2.142,6.263-6.202,6.265c-13.873,0.006-27.747,0.008-41.62,0.002c-3.856-0.002-6.058-2.233-6.057-6.121
					c0.003-10.355,0.021-20.711,0.021-31.065c0-8.058-0.019-16.115-0.021-24.172c-0.001-3.945,2.107-6.087,6.013-6.121
					C49.819,36.759,51.468,36.771,53.084,36.771z M47.468,49.156c0,16.558,0,33.017,0,49.451c14.511,0,28.887,0,43.278,0
					c0-16.529,0-32.956,0-49.451C76.271,49.156,61.898,49.156,47.468,49.156z"/>
				<path fill-rule="evenodd" clip-rule="evenodd" fill="#FFFFFF" d="M63.579,33.524c0.822-3.609,2.792-5.455,5.591-5.404
					c2.78,0.05,4.627,1.828,5.44,5.402c1.348,0,2.747-0.018,4.146,0.004c2.49,0.039,4.129,1.51,4.069,3.623
					c-0.058,2.07-1.691,3.499-4.061,3.504c-6.445,0.012-12.888,0.014-19.331,0.002c-2.438-0.004-4.11-1.527-4.073-3.648
					c0.035-2.057,1.646-3.444,4.07-3.479C60.791,33.509,62.152,33.524,63.579,33.524z M66.991,33.403c1.476,0,2.801,0,4.194,0
					c-0.135-1.346-0.908-1.991-2.007-2.028C68.004,31.336,67.185,31.972,66.991,33.403z"/>
				<path fill-rule="evenodd" clip-rule="evenodd" fill="#FFFFFF" d="M74.364,90.563c-3.268,0-5.07,0.011-8.337-0.004
					c-1.63-0.007-2.506-0.731-2.5-2.003c0.005-1.258,0.927-2.084,2.482-2.088c6.633-0.02,11.8-0.02,18.433,0.001
					c1.509,0.005,2.495,0.917,2.454,2.138c-0.039,1.169-0.979,1.945-2.438,1.951C81.094,90.572,77.729,90.563,74.364,90.563z"/>
				<path fill-rule="evenodd" clip-rule="evenodd" fill="#FFFFFF" d="M74.494,57.915c3.316,0,6.633-0.008,9.949,0.004
					c1.491,0.006,2.4,0.738,2.446,1.922c0.05,1.254-0.933,2.145-2.433,2.146c-6.582,0.01-11.698,0.002-18.281,0.013
					c-1.225,0.002-2.254-0.308-2.6-1.633c-0.339-1.299,0.637-2.429,2.143-2.442C69.133,57.896,71.081,57.915,74.494,57.915z"/>
				<path fill-rule="evenodd" clip-rule="evenodd" fill="#FFFFFF" d="M74.524,75.954c-3.465,0-5.463,0.021-8.928-0.011
					c-1.266-0.01-2.03-0.729-2.048-1.998c-0.019-1.21,0.732-1.895,1.904-1.999c1.161-0.103,2.333-0.117,3.501-0.123
					c2.768-0.013,4.07,0.006,6.838,0.006c2.923,0,5.847-0.047,8.769,0.012c1.399,0.027,2.363,1.006,2.339,2.136
					c-0.027,1.18-0.954,1.97-2.421,1.978c-3.318,0.019-6.636,0.006-9.954,0.006C74.524,75.958,74.524,75.956,74.524,75.954z"/>
			</g>
		</g>
		<path fill-rule="evenodd" clip-rule="evenodd" fill="#FFFFFF" d="M62.362,54.636c-0.377-0.377-0.987-0.377-1.362,0l-6.68,6.68
			l-2.866-2.865c-0.376-0.375-0.986-0.375-1.362,0c-0.376,0.377-0.376,0.986,0,1.363l3.542,3.541
			c0.189,0.189,0.438,0.283,0.687,0.281c0.247,0.002,0.495-0.092,0.685-0.281l7.357-7.356
			C62.738,55.622,62.738,55.013,62.362,54.636z"/>
		<path fill-rule="evenodd" clip-rule="evenodd" fill="#FFFFFF" d="M62.362,68.729c-0.377-0.375-0.987-0.375-1.362,0l-6.68,6.68
			l-2.866-2.865c-0.376-0.376-0.986-0.376-1.362,0c-0.376,0.377-0.376,0.986,0,1.362l3.542,3.543
			c0.189,0.188,0.438,0.281,0.687,0.281c0.247,0,0.495-0.093,0.685-0.281l7.357-7.357C62.738,69.716,62.738,69.106,62.362,68.729z"
			/>
		<path fill-rule="evenodd" clip-rule="evenodd" fill="#FFFFFF" d="M62.362,82.824c-0.377-0.377-0.987-0.377-1.362,0l-6.68,6.68
			l-2.866-2.865c-0.376-0.376-0.986-0.376-1.362,0s-0.376,0.985,0,1.361l3.542,3.543c0.189,0.189,0.438,0.283,0.687,0.281
			c0.247,0.002,0.495-0.093,0.685-0.282l7.357-7.355C62.738,83.81,62.738,83.199,62.362,82.824z"/>
	</g>
</g>
</svg>
