<?xml version="1.0" encoding="utf-8"?>
<!-- Generator: Adobe Illustrator 16.0.0, SVG Export Plug-In . SVG Version: 6.00 Build 0)  -->
<!DOCTYPE svg PUBLIC "-//W3C//DTD SVG 1.1//EN" "http://www.w3.org/Graphics/SVG/1.1/DTD/svg11.dtd">
<svg version="1.1" id="Layer_1" xmlns="http://www.w3.org/2000/svg" xmlns:xlink="http://www.w3.org/1999/xlink" x="0px" y="0px"
	 width="138.195px" height="138.197px" viewBox="0 0 138.195 138.197" enable-background="new 0 0 138.195 138.197"
	 xml:space="preserve">
<g>
	
		<linearGradient id="SVGID_1_" gradientUnits="userSpaceOnUse" x1="201.8323" y1="828.9658" x2="340.0276" y2="828.9658" gradientTransform="matrix(-1 0 0 0.8257 340.0278 -615.3784)">
		<stop  offset="0" style="stop-color:#4B48BF"/>
		<stop  offset="1" style="stop-color:#A14B8A"/>
	</linearGradient>
	<ellipse opacity="0.4" fill="url(#SVGID_1_)" enable-background="new    " cx="69.098" cy="69.099" rx="69.098" ry="57.051"/>
	
		<linearGradient id="SVGID_2_" gradientUnits="userSpaceOnUse" x1="416.2903" y1="569.2354" x2="554.4885" y2="569.2354" gradientTransform="matrix(0 1 -0.8257 0 539.116 -416.2903)">
		<stop  offset="0" style="stop-color:#4B48BF"/>
		<stop  offset="1" style="stop-color:#A14B8A"/>
	</linearGradient>
	<ellipse opacity="0.4" fill="url(#SVGID_2_)" enable-background="new    " cx="69.098" cy="69.099" rx="57.051" ry="69.099"/>
	
		<linearGradient id="SVGID_3_" gradientUnits="userSpaceOnUse" x1="-130.0964" y1="17.895" x2="-15.8191" y2="17.895" gradientTransform="matrix(1 0 0 -1 142.0557 86.9932)">
		<stop  offset="0" style="stop-color:#4B48BF"/>
		<stop  offset="1" style="stop-color:#A14B8A"/>
	</linearGradient>
	<circle opacity="0.6" fill="url(#SVGID_3_)" enable-background="new    " cx="69.098" cy="69.098" r="57.139"/>
	
		<linearGradient id="SVGID_4_" gradientUnits="userSpaceOnUse" x1="-118.0164" y1="17.895" x2="-27.8982" y2="17.895" gradientTransform="matrix(1 0 0 -1 142.0557 86.9932)">
		<stop  offset="0" style="stop-color:#4B48BF"/>
		<stop  offset="1" style="stop-color:#A14B8A"/>
	</linearGradient>
	<circle opacity="0.8" fill="url(#SVGID_4_)" enable-background="new    " cx="69.098" cy="69.098" r="45.059"/>
</g>
<g>
	<circle fill-rule="evenodd" clip-rule="evenodd" fill="#FFFFFF" cx="53.145" cy="53.146" r="8.537"/>
	<path fill="#FFFFFF" d="M88.916,49.281c2.156,2.156,2.156,5.667,0,7.823c-2.158,2.157-5.668,2.157-7.824,0
		c-2.156-2.156-2.156-5.667,0-7.823S86.758,47.125,88.916,49.281 M91.041,47.156c-3.334-3.334-8.74-3.334-12.074,0
		s-3.334,8.74,0,12.074c3.334,3.333,8.738,3.332,12.072-0.002S94.373,50.49,91.041,47.156L91.041,47.156z"/>
	<path fill="#FFFFFF" d="M104.867,65.234c2.158,2.156,2.158,5.666,0,7.822c-2.156,2.157-5.666,2.157-7.822,0
		c-2.158-2.156-2.158-5.667-0.002-7.823C99.201,63.076,102.711,63.077,104.867,65.234 M106.992,63.109
		c-3.334-3.334-8.74-3.334-12.072,0c-3.334,3.333-3.334,8.738,0,12.072c3.332,3.334,8.738,3.334,12.072,0
		S110.326,66.442,106.992,63.109L106.992,63.109z"/>
	<path fill="#FFFFFF" d="M72.963,33.329c2.156,2.157,2.156,5.666,0,7.823c-2.156,2.156-5.667,2.156-7.823,0
		c-2.157-2.157-2.157-5.667-0.001-7.824C67.296,31.171,70.807,31.172,72.963,33.329 M75.088,31.204
		c-3.334-3.334-8.74-3.334-12.074,0s-3.334,8.739,0,12.073s8.74,3.333,12.074,0C78.42,39.943,78.422,34.538,75.088,31.204
		L75.088,31.204z"/>
	<path fill="#FFFFFF" d="M73.01,65.188c2.156,2.156,2.156,5.666,0,7.823c-2.158,2.157-5.667,2.157-7.824,0
		c-2.156-2.157-2.156-5.667,0-7.823C67.344,63.03,70.852,63.03,73.01,65.188 M75.135,63.063c-3.334-3.334-8.74-3.334-12.074,0
		s-3.334,8.74,0,12.073c3.334,3.334,8.74,3.333,12.072-0.001C78.467,71.801,78.469,66.396,75.135,63.063L75.135,63.063z"/>
	<path fill="#FFFFFF" d="M88.961,81.14c2.158,2.157,2.158,5.667,0,7.823c-2.156,2.156-5.666,2.156-7.822,0
		c-2.158-2.156-2.158-5.667-0.002-7.824C83.295,78.982,86.805,78.982,88.961,81.14 M91.088,79.015c-3.334-3.333-8.74-3.333-12.074,0
		c-3.334,3.334-3.334,8.739,0,12.073s8.738,3.334,12.072,0S94.42,82.349,91.088,79.015L91.088,79.015z"/>
	<path fill="#FFFFFF" d="M41.153,65.141c2.156,2.156,2.156,5.666,0,7.822c-2.158,2.158-5.668,2.158-7.824,0.002
		c-2.158-2.158-2.158-5.668,0-7.826C35.485,62.982,38.995,62.982,41.153,65.141 M43.276,63.016c-3.333-3.334-8.738-3.334-12.072,0
		c-3.334,3.333-3.334,8.739,0,12.073c3.334,3.333,8.739,3.333,12.072-0.001C46.61,71.754,46.61,66.35,43.276,63.016L43.276,63.016z"
		/>
	<path fill="#FFFFFF" d="M57.104,81.092c2.157,2.158,2.157,5.667,0,7.824c-2.156,2.156-5.666,2.158-7.824,0
		c-2.156-2.156-2.156-5.666,0.002-7.824C51.438,78.936,54.948,78.936,57.104,81.092 M59.229,78.969
		c-3.334-3.334-8.739-3.335-12.073-0.001c-3.333,3.333-3.333,8.739,0,12.073c3.334,3.334,8.739,3.333,12.073-0.001
		C62.563,87.707,62.563,82.302,59.229,78.969L59.229,78.969z"/>
	<path fill="#FFFFFF" d="M73.057,97.045c2.156,2.156,2.156,5.666,0,7.823s-5.667,2.157-7.824,0.001
		c-2.157-2.157-2.157-5.668,0-7.825C67.389,94.887,70.901,94.888,73.057,97.045 M75.182,94.921
		c-3.334-3.334-8.74-3.335-12.074-0.001c-3.333,3.334-3.333,8.74,0,12.073c3.334,3.334,8.74,3.333,12.074-0.001
		S78.516,98.254,75.182,94.921L75.182,94.921z"/>
</g>
</svg>
