<?xml version="1.0" encoding="utf-8"?>
<!-- Generator: Adobe Illustrator 16.0.0, SVG Export Plug-In . SVG Version: 6.00 Build 0)  -->
<!DOCTYPE svg PUBLIC "-//W3C//DTD SVG 1.1//EN" "http://www.w3.org/Graphics/SVG/1.1/DTD/svg11.dtd">
<svg version="1.1" id="Layer_1" xmlns="http://www.w3.org/2000/svg" xmlns:xlink="http://www.w3.org/1999/xlink" x="0px" y="0px"
	 width="138.195px" height="138.197px" viewBox="0 0 138.195 138.197" enable-background="new 0 0 138.195 138.197"
	 xml:space="preserve">
<g>
	<g>
		
			<linearGradient id="SVGID_1_" gradientUnits="userSpaceOnUse" x1="201.8323" y1="828.9658" x2="340.0276" y2="828.9658" gradientTransform="matrix(-1 0 0 0.8257 340.0278 -615.3784)">
			<stop  offset="0" style="stop-color:#4B48BF"/>
			<stop  offset="1" style="stop-color:#A14B8A"/>
		</linearGradient>
		<ellipse opacity="0.4" fill="url(#SVGID_1_)" enable-background="new    " cx="69.098" cy="69.099" rx="69.098" ry="57.051"/>
		
			<linearGradient id="SVGID_2_" gradientUnits="userSpaceOnUse" x1="416.2903" y1="569.2354" x2="554.4885" y2="569.2354" gradientTransform="matrix(0 1 -0.8257 0 539.116 -416.2903)">
			<stop  offset="0" style="stop-color:#4B48BF"/>
			<stop  offset="1" style="stop-color:#A14B8A"/>
		</linearGradient>
		<ellipse opacity="0.4" fill="url(#SVGID_2_)" enable-background="new    " cx="69.098" cy="69.099" rx="57.051" ry="69.099"/>
		
			<linearGradient id="SVGID_3_" gradientUnits="userSpaceOnUse" x1="-130.0964" y1="17.895" x2="-15.8191" y2="17.895" gradientTransform="matrix(1 0 0 -1 142.0557 86.9932)">
			<stop  offset="0" style="stop-color:#4B48BF"/>
			<stop  offset="1" style="stop-color:#A14B8A"/>
		</linearGradient>
		<circle opacity="0.6" fill="url(#SVGID_3_)" enable-background="new    " cx="69.098" cy="69.098" r="57.139"/>
		
			<linearGradient id="SVGID_4_" gradientUnits="userSpaceOnUse" x1="-118.0164" y1="17.895" x2="-27.8982" y2="17.895" gradientTransform="matrix(1 0 0 -1 142.0557 86.9932)">
			<stop  offset="0" style="stop-color:#4B48BF"/>
			<stop  offset="1" style="stop-color:#A14B8A"/>
		</linearGradient>
		<circle opacity="0.8" fill="url(#SVGID_4_)" enable-background="new    " cx="69.098" cy="69.098" r="45.059"/>
	</g>
	<path fill="#FFFFFF" d="M88.761,48.369c-10.559-10.559-27.682-10.559-38.243,0c-9.645,9.645-10.475,24.765-2.497,35.359
		L35.506,96.243c-1.486,1.486-1.486,3.895,0,5.383c1.487,1.486,3.896,1.486,5.382,0L53.403,89.11
		c10.594,7.975,25.712,7.146,35.358-2.5C99.322,76.05,99.322,58.929,88.761,48.369z M83.379,81.229
		c-7.588,7.587-19.89,7.587-27.477,0c-7.589-7.588-7.589-19.89,0-27.479c7.587-7.587,19.889-7.587,27.477,0.002
		C90.966,61.34,90.966,73.642,83.379,81.229z"/>
</g>
</svg>
