<?xml version="1.0" encoding="utf-8"?>
<!-- Generator: Adobe Illustrator 16.0.0, SVG Export Plug-In . SVG Version: 6.00 Build 0)  -->
<!DOCTYPE svg PUBLIC "-//W3C//DTD SVG 1.1//EN" "http://www.w3.org/Graphics/SVG/1.1/DTD/svg11.dtd">
<svg version="1.1" id="Layer_1" xmlns="http://www.w3.org/2000/svg" xmlns:xlink="http://www.w3.org/1999/xlink" x="0px" y="0px"
	 width="138.195px" height="138.197px" viewBox="0 0 138.195 138.197" enable-background="new 0 0 138.195 138.197"
	 xml:space="preserve">
<g>
	<g>
		
			<linearGradient id="SVGID_1_" gradientUnits="userSpaceOnUse" x1="201.8323" y1="828.9658" x2="340.0276" y2="828.9658" gradientTransform="matrix(-1 0 0 0.8257 340.0278 -615.3784)">
			<stop  offset="0" style="stop-color:#4B48BF"/>
			<stop  offset="1" style="stop-color:#A14B8A"/>
		</linearGradient>
		<ellipse opacity="0.4" fill="url(#SVGID_1_)" enable-background="new    " cx="69.098" cy="69.099" rx="69.098" ry="57.051"/>
		
			<linearGradient id="SVGID_2_" gradientUnits="userSpaceOnUse" x1="416.2903" y1="569.2354" x2="554.4885" y2="569.2354" gradientTransform="matrix(0 1 -0.8257 0 539.116 -416.2903)">
			<stop  offset="0" style="stop-color:#4B48BF"/>
			<stop  offset="1" style="stop-color:#A14B8A"/>
		</linearGradient>
		<ellipse opacity="0.4" fill="url(#SVGID_2_)" enable-background="new    " cx="69.098" cy="69.099" rx="57.051" ry="69.099"/>
		
			<linearGradient id="SVGID_3_" gradientUnits="userSpaceOnUse" x1="-130.0964" y1="17.895" x2="-15.8191" y2="17.895" gradientTransform="matrix(1 0 0 -1 142.0557 86.9932)">
			<stop  offset="0" style="stop-color:#4B48BF"/>
			<stop  offset="1" style="stop-color:#A14B8A"/>
		</linearGradient>
		<circle opacity="0.6" fill="url(#SVGID_3_)" enable-background="new    " cx="69.098" cy="69.098" r="57.139"/>
		
			<linearGradient id="SVGID_4_" gradientUnits="userSpaceOnUse" x1="-118.0164" y1="17.895" x2="-27.8982" y2="17.895" gradientTransform="matrix(1 0 0 -1 142.0557 86.9932)">
			<stop  offset="0" style="stop-color:#4B48BF"/>
			<stop  offset="1" style="stop-color:#A14B8A"/>
		</linearGradient>
		<circle opacity="0.8" fill="url(#SVGID_4_)" enable-background="new    " cx="69.098" cy="69.098" r="45.059"/>
	</g>
	<g>
		<g>
			<path fill-rule="evenodd" clip-rule="evenodd" fill="#FFFFFF" d="M32.345,70.991c0.146,1.382,0.29,2.729,0.437,4.076
				c0.015,0.141,0.052,0.276,0.076,0.415c0.049,0.258-0.009,0.433-0.217,0.649c-0.734,0.77-1.497,1.535-2.087,2.412
				c-0.79,1.173-0.593,1.732,0.676,2.447c1.164,0.654,2.449,0.971,3.755,1.159c1.439,0.206,2.889,0.341,4.365,0.509
				c-4.649-11.672-3.808-22.707,3.557-32.902c5.114-7.078,12.156-11.346,20.78-12.802c18.566-3.132,35.891,10.017,37.886,28.91
				c0.762-0.528,1.506-1.016,2.221-1.545c1.328-0.981,2.604-2.025,3.573-3.381c0.244-0.342,0.438-0.727,0.618-1.106
				c0.234-0.499,0.13-0.94-0.29-1.312c-0.802-0.709-1.772-1.128-2.79-1.277c-1.064-0.157-1.554-0.685-1.876-1.665
				c-0.349-1.062-0.901-2.059-1.403-3.167c0.508,0.058,0.993,0.098,1.473,0.169c2.009,0.302,3.986,0.72,5.801,1.687
				c1.711,0.911,2.99,2.18,3.33,4.179c0.244,1.423-0.113,2.74-0.814,3.976c-0.993,1.75-2.404,3.131-3.951,4.378
				c-3.458,2.784-7.335,4.874-11.32,6.78c-4.934,2.361-10.034,4.293-15.229,5.986c-6.433,2.097-12.969,3.791-19.609,5.083
				c-3.987,0.774-7.994,1.435-12.041,1.761c-2.904,0.234-5.823,0.373-8.735,0.391c-3.22,0.018-6.427-0.264-9.509-1.318
				c-1.422-0.486-2.756-1.143-3.766-2.307c-1.59-1.832-1.721-3.862-0.752-6.008c0.684-1.514,1.759-2.743,2.972-3.85
				c0.705-0.645,1.462-1.231,2.2-1.837C31.889,71.305,32.121,71.153,32.345,70.991z M64.394,66.971c3.162,0,6.277,0,9.535,0
				c-0.206-3.585-0.41-7.124-0.616-10.697c-0.293,0-0.462,0-0.634,0c-1.774,0-3.549,0-5.324,0c-0.677,0-1.353-0.014-2.027,0.014
				c-0.129,0.004-0.355,0.162-0.366,0.266c-0.142,1.448-0.266,2.899-0.369,4.349c-0.083,1.155-0.151,2.313-0.192,3.47
				C64.37,65.23,64.394,66.091,64.394,66.971z M40.709,66.985c2.678,0,5.198,0,7.748,0c0.157-3.627,0.658-7.182,1.588-10.711
				c-0.203,0-0.358,0-0.514,0c-1.774,0-3.549,0.009-5.322-0.009c-0.33-0.003-0.503,0.098-0.642,0.389
				c-0.971,2.031-1.744,4.13-2.191,6.337C41.113,64.289,40.936,65.606,40.709,66.985z M97.4,66.987c0-0.16,0.008-0.27-0.002-0.378
				c-0.302-3.522-1.26-6.86-2.792-10.04c-0.127-0.266-0.307-0.299-0.56-0.299c-1.76,0.009-3.518,0.005-5.277,0.005
				c-0.183,0-0.367,0-0.611,0c0.955,3.544,1.42,7.101,1.609,10.713C92.338,66.987,94.843,66.987,97.4,66.987z M40.788,71.242
				c0.035,0.355,0.061,0.648,0.09,0.94c0.34,3.273,1.257,6.381,2.693,9.34c0.131,0.271,0.281,0.387,0.603,0.384
				c1.79-0.021,3.581-0.009,5.373-0.011c0.148,0,0.297-0.017,0.495-0.027c-0.938-3.52-1.419-7.057-1.587-10.626
				C45.889,71.242,43.379,71.242,40.788,71.242z M77.531,56.301c0.199,3.58,0.397,7.132,0.596,10.683c2.457,0,4.916,0,7.428,0
				c-0.05-0.678-0.094-1.329-0.145-1.978c-0.219-2.837-0.732-5.618-1.497-8.355c-0.084-0.298-0.228-0.385-0.528-0.383
				c-1.838,0.014-3.676,0.006-5.512,0.008C77.749,56.277,77.628,56.293,77.531,56.301z M60.677,56.303
				c-0.075-0.009-0.149-0.026-0.224-0.026c-1.901-0.003-3.801,0.005-5.702-0.011c-0.32-0.003-0.383,0.162-0.453,0.409
				c-0.731,2.568-1.216,5.179-1.457,7.836c-0.073,0.818-0.125,1.639-0.187,2.466c2.551,0,5.008,0,7.43,0
				C60.282,63.402,60.479,59.864,60.677,56.303z M52.72,71.237c-0.172,1.92,0.941,8.84,1.669,10.354
				c2.059-0.351,4.134-0.704,6.18-1.054c-0.157-3.16-0.313-6.232-0.467-9.301C57.633,71.237,55.187,71.237,52.72,71.237z
				 M64.305,71.245c0.138,2.836,0.273,5.599,0.415,8.465c2.945-0.766,5.783-1.498,8.615-2.252c0.125-0.033,0.283-0.253,0.289-0.392
				c0.084-1.753,0.145-3.507,0.207-5.261c0.006-0.18-0.017-0.363-0.027-0.561C70.644,71.245,67.54,71.245,64.305,71.245z
				 M69.225,40.787c-0.081,0.006-0.161,0.014-0.243,0.02c-2.171,3.419-2.721,7.345-3.474,11.242c2.419,0,4.774,0,7.168,0
				c-0.075-0.446-0.136-0.844-0.206-1.241c-0.492-2.748-1.062-5.479-2.178-8.055C69.998,42.071,69.583,41.441,69.225,40.787z
				 M74.789,42.526c1.03,3.121,1.644,6.314,2.142,9.532c1.78,0,3.512,0,5.318,0C80.497,48.25,78.314,44.867,74.789,42.526z
				 M61.278,52.064c0.498-3.229,1.12-6.427,2.141-9.541c-3.536,2.356-5.713,5.742-7.46,9.541
				C57.747,52.064,59.469,52.064,61.278,52.064z M77.9,76.055c0.109,0,0.16,0.013,0.201-0.001c2.354-0.805,4.71-1.607,7.062-2.42
				c0.098-0.034,0.228-0.15,0.235-0.236c0.063-0.711,0.099-1.422,0.143-2.139c-2.516,0-4.98,0-7.469,0
				C78.013,72.88,77.957,74.452,77.9,76.055z M46.374,52.088c1.692,0,3.258,0.008,4.822-0.014c0.114-0.001,0.27-0.18,0.333-0.313
				c0.663-1.383,1.256-2.803,1.976-4.155c0.636-1.194,1.408-2.317,2.148-3.515C52.001,46.078,48.952,48.709,46.374,52.088z
				 M82.573,44.101c0.758,1.242,1.556,2.431,2.229,3.685c0.68,1.27,1.245,2.602,1.84,3.915c0.127,0.279,0.26,0.403,0.586,0.398
				c1.383-0.02,2.766-0.008,4.147-0.011c0.116,0,0.233-0.02,0.435-0.038C89.243,48.716,86.204,46.066,82.573,44.101z M89.772,71.812
				c0.415-0.171,0.821-0.34,1.337-0.555c-0.531,0-0.926,0-1.318,0c-0.023,0.167-0.043,0.289-0.055,0.411
				C89.732,71.696,89.749,71.726,89.772,71.812z"/>
			<path fill-rule="evenodd" clip-rule="evenodd" fill="#FFFFFF" d="M65.739,87.54c0.746,3.412,1.283,6.855,3.315,9.926
				c0.242-0.313,0.445-0.523,0.59-0.768c1.023-1.736,1.586-3.652,2.045-5.594c0.374-1.582,0.652-3.191,0.969-4.789
				c0.012-0.057-0.012-0.119-0.021-0.205c-0.209-0.019-0.406-0.035-0.606-0.053c5.53-1.543,10.993-3.283,16.427-5.379
				c-0.098,0.441-0.178,0.801-0.264,1.188c0.15,0.012,0.271,0.029,0.394,0.029c1.823,0.002,3.646-0.006,5.469,0.008
				c0.293,0.002,0.468-0.081,0.577-0.355c0.506-1.281,1.013-2.563,1.545-3.834c0.092-0.221,0.271-0.457,0.475-0.568
				c1.369-0.735,2.754-1.438,4.134-2.152c0.108-0.057,0.222-0.104,0.417-0.197c-0.753,4.234-2.242,8.101-4.51,11.654
				c-3.943,6.18-9.335,10.633-16.213,13.188c-13.852,5.146-28.005,0.133-35.836-9.064c0.668-0.047,1.298-0.09,1.929-0.139
				c1.062-0.078,2.122-0.172,3.186-0.23c0.187-0.012,0.423,0.063,0.562,0.182c1.608,1.393,3.333,2.611,5.197,3.633
				c0.038,0.021,0.083,0.029,0.121,0.043c-0.864-1.389-1.724-2.773-2.637-4.238c0.656-0.1,1.207-0.184,1.756-0.27
				c0.775-0.117,1.553-0.221,2.324-0.359c0.307-0.057,0.478,0.014,0.642,0.291c0.972,1.641,2.107,3.16,3.503,4.467
				c0.67,0.627,1.408,1.184,2.115,1.771c0.038-0.029,0.077-0.061,0.116-0.09c-0.182-0.574-0.397-1.141-0.537-1.725
				c-0.417-1.723-0.809-3.447-1.192-5.176c-0.026-0.115,0.075-0.363,0.154-0.381C63.163,88.065,64.45,87.806,65.739,87.54z
				 M74.791,95.722c3.53-2.434,5.733-5.803,7.458-9.613c-1.826,0-3.563,0-5.281,0c-0.307,1.627-0.563,3.236-0.922,4.82
				C75.689,92.511,75.229,94.069,74.791,95.722z M91.836,86.079c-0.21,0-0.314,0-0.417,0c-1.397,0-2.795,0.013-4.191-0.009
				c-0.326-0.005-0.465,0.112-0.578,0.403c-0.857,2.195-1.914,4.289-3.229,6.252c-0.148,0.221-0.29,0.445-0.442,0.666
				c-0.151,0.213-0.31,0.422-0.464,0.635C86.202,92.089,89.289,89.481,91.836,86.079z"/>
		</g>
	</g>
</g>
</svg>
