<?xml version="1.0" encoding="utf-8"?>
<!-- Generator: Adobe Illustrator 16.0.0, SVG Export Plug-In . SVG Version: 6.00 Build 0)  -->
<!DOCTYPE svg PUBLIC "-//W3C//DTD SVG 1.1//EN" "http://www.w3.org/Graphics/SVG/1.1/DTD/svg11.dtd">
<svg version="1.1" id="Layer_1" xmlns="http://www.w3.org/2000/svg" xmlns:xlink="http://www.w3.org/1999/xlink" x="0px" y="0px"
	 width="138.195px" height="138.197px" viewBox="0 0 138.195 138.197" enable-background="new 0 0 138.195 138.197"
	 xml:space="preserve">
<g>
	<g>
		
			<linearGradient id="SVGID_1_" gradientUnits="userSpaceOnUse" x1="201.8323" y1="828.9658" x2="340.0276" y2="828.9658" gradientTransform="matrix(-1 0 0 0.8257 340.0278 -615.3784)">
			<stop  offset="0" style="stop-color:#4B48BF"/>
			<stop  offset="1" style="stop-color:#A14B8A"/>
		</linearGradient>
		<ellipse opacity="0.4" fill="url(#SVGID_1_)" enable-background="new    " cx="69.098" cy="69.099" rx="69.098" ry="57.051"/>
		
			<linearGradient id="SVGID_2_" gradientUnits="userSpaceOnUse" x1="416.2903" y1="569.2354" x2="554.4885" y2="569.2354" gradientTransform="matrix(0 1 -0.8257 0 539.116 -416.2903)">
			<stop  offset="0" style="stop-color:#4B48BF"/>
			<stop  offset="1" style="stop-color:#A14B8A"/>
		</linearGradient>
		<ellipse opacity="0.4" fill="url(#SVGID_2_)" enable-background="new    " cx="69.098" cy="69.099" rx="57.051" ry="69.099"/>
		
			<linearGradient id="SVGID_3_" gradientUnits="userSpaceOnUse" x1="-130.0964" y1="17.895" x2="-15.8191" y2="17.895" gradientTransform="matrix(1 0 0 -1 142.0557 86.9932)">
			<stop  offset="0" style="stop-color:#4B48BF"/>
			<stop  offset="1" style="stop-color:#A14B8A"/>
		</linearGradient>
		<circle opacity="0.6" fill="url(#SVGID_3_)" enable-background="new    " cx="69.098" cy="69.098" r="57.139"/>
		
			<linearGradient id="SVGID_4_" gradientUnits="userSpaceOnUse" x1="-118.0164" y1="17.895" x2="-27.8982" y2="17.895" gradientTransform="matrix(1 0 0 -1 142.0557 86.9932)">
			<stop  offset="0" style="stop-color:#4B48BF"/>
			<stop  offset="1" style="stop-color:#A14B8A"/>
		</linearGradient>
		<circle opacity="0.8" fill="url(#SVGID_4_)" enable-background="new    " cx="69.098" cy="69.098" r="45.059"/>
	</g>
	<g>
		<g>
			<path fill-rule="evenodd" clip-rule="evenodd" fill="#FFFFFF" d="M90.963,44.906c-1.24,0.312-1.057,1.263-1.051,2.153
				c0.01,1.757,0.002,3.514,0.002,5.318c1.558-0.348,2.005-0.897,1.989-2.212c-0.017-1.497-0.049-2.994-0.03-4.49
				c0.004-0.29,0.123-0.708,0.335-0.848c2.919-1.933,5.864-3.83,8.805-5.731c0.074-0.048,0.174-0.056,0.406-0.125
				c0,2.001,0,3.94,0,6.086c0.704-0.416,1.22-0.72,1.795-1.061c0.523,0.834,1.01,1.608,1.515,2.408
				c-0.517,0.367-0.971,0.688-1.569,1.113c1.892,0.874,3.669,1.695,5.617,2.593c-1.771,1.188-3.403,2.292-5.043,3.378
				c-1.24,0.821-2.509,1.599-3.734,2.442c-0.517,0.356-0.933,0.436-1.526,0.123c-1.225-0.643-2.528-1.137-3.752-1.784
				c-0.813-0.432-1.473-0.325-2.197,0.156c-3.938,2.621-7.885,5.224-11.832,7.827c-3.617,2.387-7.24,4.767-10.909,7.184
				c0.233,0.378,0.472,0.765,0.778,1.262c1.971-1.287,3.913-2.557,5.949-3.887c0.691,1.723,0.584,3.372-0.045,4.956
				c-1.426,3.603-4.727,5.221-7.835,4.865c-4.31-0.493-6.669-3.756-6.822-7.189c-0.133-2.953,1.134-5.378,3.716-6.889
				c2.614-1.531,5.311-1.474,7.892,0.182c0.496,0.318,0.813,0.34,1.297-0.01c1.098-0.792,2.25-1.506,3.555-2.369
				c-0.662-0.563-1.215-1.111-1.842-1.552c-2.088-1.469-4.463-2.253-6.979-2.213c-5.091,0.083-9.573,2.623-11.638,7.925
				c-2.937,7.54,1.581,15.518,9.623,16.863c5.822,0.971,11.122-2.064,13.441-7.461c1.283-2.982,1.355-6.02,0.214-9.059
				c-0.244-0.647-0.155-0.994,0.441-1.371c1.868-1.179,3.697-2.419,5.545-3.64c4.47,7.713,2.821,19.015-5.679,25.334
				c-8.98,6.679-21.006,4.688-27.542-3.384c-7.304-9.023-5.323-20.999,2.059-27.611c8.905-7.979,21.721-6.379,28.758,1.942
				c1.199-0.778,2.405-1.56,3.801-2.464c-1.132-1.14-2.13-2.291-3.273-3.271c-3.489-2.994-7.531-4.927-12.075-5.576
				c-6.902-0.985-13.233,0.578-18.764,4.882c-5.311,4.13-8.473,9.61-9.312,16.273c-0.889,7.075,1.032,13.414,5.621,18.919
				c3.684,4.419,8.389,7.231,13.985,8.26c8.347,1.533,15.746-0.625,21.875-6.593c5.513-5.365,7.823-12,7.305-19.617
				c-0.206-3.012-1.018-5.91-2.417-8.61c-0.37-0.713-0.386-1.152,0.402-1.674c0.87-0.577,1.551-0.754,2.481-0.165
				c0.829,0.524,1.811,0.809,2.674,1.288c0.933,0.519,1.81,1.003,2.705-0.037c4.594,10.546,2.717,27.297-10.854,37.402
				c-14.221,10.591-33.35,7.831-44.239-5.042c-11.616-13.73-9.865-33.428,2.845-45.026C60.424,33.225,79.369,34.193,90.963,44.906z"
				/>
		</g>
	</g>
</g>
</svg>
