<?xml version="1.0" encoding="utf-8"?>
<!-- Generator: Adobe Illustrator 22.0.1, SVG Export Plug-In . SVG Version: 6.00 Build 0)  -->
<svg version="1.1" id="Слой_1" xmlns="http://www.w3.org/2000/svg" xmlns:xlink="http://www.w3.org/1999/xlink" x="0px" y="0px"
	 viewBox="0 0 138.2 138.2" style="enable-background:new 0 0 138.2 138.2;" xml:space="preserve">
<style type="text/css">
	.st0{opacity:0.4;fill:url(#SVGID_1_);enable-background:new    ;}
	.st1{opacity:0.4;fill:url(#SVGID_2_);enable-background:new    ;}
	.st2{opacity:0.6;fill:url(#SVGID_3_);enable-background:new    ;}
	.st3{opacity:0.8;fill:url(#SVGID_4_);enable-background:new    ;}
	.st4{fill:#FFFFFF;}
</style>
<linearGradient id="SVGID_1_" gradientUnits="userSpaceOnUse" x1="-269.6913" y1="-758.2379" x2="-131.4953" y2="-758.2379" gradientTransform="matrix(-1 0 0 -0.8257 -131.972 -556.6018)">
	<stop  offset="0" style="stop-color:#4B48BF"/>
	<stop  offset="1" style="stop-color:#A14B8A"/>
</linearGradient>
<ellipse class="st0" cx="68.6" cy="69.5" rx="69.1" ry="57.1"/>
<linearGradient id="SVGID_2_" gradientUnits="userSpaceOnUse" x1="506.6663" y1="182.005" x2="644.8643" y2="182.005" gradientTransform="matrix(0 1 0.8257 0 -81.6602 -506.29)">
	<stop  offset="0" style="stop-color:#4B48BF"/>
	<stop  offset="1" style="stop-color:#A14B8A"/>
</linearGradient>
<ellipse class="st1" cx="68.6" cy="69.5" rx="57.1" ry="69.1"/>
<linearGradient id="SVGID_3_" gradientUnits="userSpaceOnUse" x1="-130.5737" y1="774.4822" x2="-16.2957" y2="774.4822" gradientTransform="matrix(1 0 0 1 142.056 -705.007)">
	<stop  offset="0" style="stop-color:#4B48BF"/>
	<stop  offset="1" style="stop-color:#A14B8A"/>
</linearGradient>
<circle class="st2" cx="68.6" cy="69.5" r="57.1"/>
<linearGradient id="SVGID_4_" gradientUnits="userSpaceOnUse" x1="-118.4937" y1="774.4822" x2="-28.3757" y2="774.4822" gradientTransform="matrix(1 0 0 1 142.056 -705.007)">
	<stop  offset="0" style="stop-color:#4B48BF"/>
	<stop  offset="1" style="stop-color:#A14B8A"/>
</linearGradient>
<circle class="st3" cx="68.6" cy="69.5" r="45.1"/>
<g>
	<g id="Layer_1_155_">
		<g>
			<path class="st4" d="M79.7,46.6H55.5c-1.8,0-3.2,1.4-3.2,3.2s1.4,3.2,3.2,3.2h24.2c1.8,0,3.2-1.4,3.2-3.2
				C82.9,48,81.5,46.6,79.7,46.6z"/>
			<path class="st4" d="M82.9,61.9c0-1.8-1.4-3.2-3.2-3.2H55.5c-1.8,0-3.2,1.4-3.2,3.2c0,1.8,1.4,3.2,3.2,3.2h24.2
				C81.5,65.2,82.9,63.7,82.9,61.9z"/>
			<path class="st4" d="M67.6,77.3c1.8,0,3.2-1.4,3.2-3.2c0-1.8-1.4-3.2-3.2-3.2H55.5c-1.8,0-3.2,1.4-3.2,3.2s1.4,3.2,3.2,3.2H67.6z
				"/>
			<path class="st4" d="M92,88.3l-3.4,2.2v8h-42V40.4h42v12.8L95,42v-4.8c0-1.8-1.4-3.2-3.2-3.2H43.4c-1.8,0-3.2,1.4-3.2,3.2v64.6
				c0,1.8,1.4,3.2,3.2,3.2h48.5c1.8,0,3.2-1.4,3.2-3.2V84l-1.5,2.7C93.1,87.3,92.6,87.9,92,88.3z"/>
			<path class="st4" d="M111.1,48.9c-0.1-0.3-0.7-2.9-4.9-5.3c-4.1-2.4-6.7-1.7-7-1.6c-0.4,0.1-0.7,0.4-0.9,0.7l-20.2,35
				c-0.1,0.2-0.2,0.5-0.2,0.7l-0.8,12.6c0,0.6,0.3,1.2,0.8,1.5c0.5,0.3,1.2,0.3,1.7,0l10.6-7c0.2-0.1,0.4-0.3,0.5-0.5l20.2-35
				C111.1,49.7,111.2,49.3,111.1,48.9z M83.7,86.9c-0.5-0.4-1.1-0.8-1.8-1.2c-0.7-0.4-1.3-0.7-2-0.9l0.2-3.8
				c0.8,0.1,2.1,0.5,3.7,1.4c1.6,0.9,2.5,1.8,3,2.5L83.7,86.9z"/>
			<path class="st4" d="M62.6,92.2c0.1,0.6,0.9,0.8,1.4,1.1c0.5,0.2,1.1-0.2,1.5-0.4c2.5-1.2,5.8,0.2,8.4,0.2c1.6,0,1.6-2.4,0-2.4
				c-3.1,0-5.6-0.8-8.7-0.3c0-0.2-0.1-0.4-0.3-0.7c-0.6-1-1.3-1.3-2-1.1c0-0.1-0.1-0.2-0.2-0.3c-0.2-0.3-0.5-0.5-0.8-0.5
				c0.9-1.5,1.4-3.1,0.8-4.3c-0.2-0.4-0.7-0.6-1-0.6c-1.6-0.1-3,1.6-4,2.7c-2.6,2.6-4.9,5.4-7.1,8.3c-1,1.2,1.2,2.4,2.1,1.2
				c2-2.6,4-5,6.3-7.4c-0.5,0.9-1.1,1.8-1.7,2.6c-0.9,1.3,1.2,2.5,2.1,1.2c0.2-0.3,0.5-0.6,0.8-0.8c-0.1,0.1-0.1,0.3-0.2,0.4
				c0,0,0,0,0,0c0,0.1-0.1,0.2-0.1,0.3c-0.5,1.4,1.5,2,2.2,0.9c0.2-0.3,0.4-0.5,0.5-0.8C62.6,91.7,62.6,91.9,62.6,92.2z"/>
		</g>
	</g>
</g>
</svg>
