<?xml version="1.0" encoding="utf-8"?>
<!-- Generator: Adobe Illustrator 16.0.0, SVG Export Plug-In . SVG Version: 6.00 Build 0)  -->
<!DOCTYPE svg PUBLIC "-//W3C//DTD SVG 1.1//EN" "http://www.w3.org/Graphics/SVG/1.1/DTD/svg11.dtd">
<svg version="1.1" id="Layer_1" xmlns="http://www.w3.org/2000/svg" xmlns:xlink="http://www.w3.org/1999/xlink" x="0px" y="0px"
	 width="98.003px" height="68.78px" viewBox="0 0 98.003 68.78" enable-background="new 0 0 98.003 68.78" xml:space="preserve">
<path fill-rule="evenodd" clip-rule="evenodd" fill="#F7F7F7" d="M97.81,29.087c-0.237-4.215-0.537-8.442-1.043-12.635h0.001
	c-0.159-1.209-0.254-2.418-0.452-3.625c-0.083-0.502-0.187-0.984-0.301-1.456c-0.311-1.461-0.813-2.766-1.502-3.904
	c-1.966-3.472-5.289-5.534-9.954-5.917c-8.311-0.683-16.647-1.215-24.982-1.435c-3.404-0.09-6.811-0.111-10.218-0.104
	C49.257,0.008,49.155,0.004,49.054,0c0,0.004,0,0.008,0,0.012c-4.792,0.015-9.585,0.097-14.376,0.213
	C28.181,0.383,21.682,0.777,15.2,1.296c-2.305,0.184-4.707,0.713-6.803,1.665C5.243,4.396,3.479,6.814,2.481,9.762
	c-0.039,0.11-0.076,0.222-0.112,0.334c-0.046,0.146-0.088,0.296-0.131,0.444c-0.057,0.197-0.114,0.396-0.163,0.599
	C1.884,11.9,1.731,12.688,1.612,13.5c-0.089,0.608-0.171,1.218-0.256,1.826c-0.025,0.173-0.049,0.347-0.073,0.52
	c-0.027,0.202-0.06,0.404-0.085,0.606h0.011c-0.425,3.246-0.708,6.519-0.91,9.782c-0.608,9.94-0.337,19.867,1.282,29.719
	C2.683,62.659,6.735,66.68,13.447,67.23c8.311,0.683,16.647,1.215,24.982,1.435c8.293,0.22,16.601,0.092,24.898-0.109
	c6.497-0.158,12.996-0.553,19.478-1.071c2.305-0.184,4.708-0.713,6.803-1.665c4.409-2.006,6.28-5.926,6.956-10.539
	C97.837,46.59,98.304,37.849,97.81,29.087z M39.129,49.387c0-10.026,0-19.685,0-29.707c8.619,4.973,17.04,9.829,25.738,14.846
	C56.234,39.512,47.823,44.37,39.129,49.387z"/>
</svg>
