<?xml version="1.0" encoding="utf-8"?>
<!-- Generator: Adobe Illustrator 16.0.0, SVG Export Plug-In . SVG Version: 6.00 Build 0)  -->
<!DOCTYPE svg PUBLIC "-//W3C//DTD SVG 1.1//EN" "http://www.w3.org/Graphics/SVG/1.1/DTD/svg11.dtd">
<svg version="1.1" id="Layer_1" xmlns="http://www.w3.org/2000/svg" xmlns:xlink="http://www.w3.org/1999/xlink" x="0px" y="0px"
	 width="134.713px" height="62.31px" viewBox="0 0 134.713 62.31" enable-background="new 0 0 134.713 62.31" xml:space="preserve">
<g>
	<g>
		<path fill-rule="evenodd" clip-rule="evenodd" fill="#EAEAEA" d="M87.33,22.773c0.023,12.885-10.458,22.958-22.827,22.939
			c-12.627-0.016-22.891-10.226-22.896-22.818C41.602,10.258,51.796,0.025,64.412,0C77.062-0.028,87.305,10.153,87.33,22.773z
			 M43.611,22.832c-0.011,11.559,9.529,20.854,20.845,20.844c11.477-0.01,20.84-9.315,20.854-20.754
			c0.014-11.531-9.343-20.971-20.827-20.92C52.817,2.052,43.618,11.529,43.611,22.832z"/>
		<path fill-rule="evenodd" clip-rule="evenodd" fill="#EAEAEA" d="M7.959,57.122c1.125,0.811,1.385,1.846,1.015,3.001
			c-0.375,1.163-1.257,1.794-2.459,1.982c-2.005,0.312-4.024,0.072-6.035,0.14c-0.72,0.026-0.418-0.431-0.344-0.772
			c0.644-2.927,1.302-5.849,1.918-8.78c0.12-0.574,0.352-0.782,0.937-0.764c1.287,0.037,2.575,0,3.863,0.014
			c1.753,0.02,2.78,0.667,3.115,1.93C10.292,55.091,9.677,56.145,7.959,57.122z M4.367,60.412c0.002,0.008,0.002,0.019,0.002,0.027
			c0.512-0.033,1.041,0.011,1.525-0.116c0.74-0.191,1.186-0.705,1.063-1.517c-0.113-0.746-0.677-0.912-1.331-0.908
			c-0.471,0.003-0.941,0-1.412,0c-1.196,0.007-1.622,0.467-1.565,1.977c0.044,1.15,1.004,0.253,1.465,0.53
			C4.178,60.443,4.281,60.412,4.367,60.412z M3.581,56.055c1.045,0,1.986,0.017,2.926-0.006c0.709-0.019,1.092-0.446,1.197-1.116
			c0.085-0.553-0.238-0.905-0.708-1.09c-1.855-0.725-3.161,0.042-3.415,1.986C3.575,55.871,3.581,55.914,3.581,56.055z"/>
		<path fill-rule="evenodd" clip-rule="evenodd" fill="#EAEAEA" d="M53.715,55.303c-0.385,1.753-0.762,3.44-1.126,5.128
			c-0.432,1.989-0.429,1.989-2.526,1.704c0.686-3.132,1.359-6.26,2.06-9.383c0.082-0.369,0.068-0.947,0.732-0.807
			c0.673,0.145,1.522-0.445,1.97,0.636c0.734,1.777,1.577,3.512,2.387,5.258c0.136,0.285,0.158,0.659,0.626,0.859
			c0.459-2.018,0.976-3.984,1.339-5.983c0.255-1.406,1.281-0.739,1.89-0.711c0.707,0.034,0.249,0.723,0.167,1.1
			c-0.591,2.761-1.203,5.515-1.838,8.267c-0.08,0.342,0.09,0.996-0.627,0.869c-0.644-0.114-1.461,0.432-1.887-0.582
			c-0.726-1.732-1.516-3.44-2.319-5.142C54.374,56.121,54.315,55.614,53.715,55.303z"/>
		<path fill-rule="evenodd" clip-rule="evenodd" fill="#EAEAEA" d="M131.972,58.385c-0.877,0-1.721,0-2.562,0
			c-0.129-1.526,0.543-2.059,1.944-1.85c0.502,0.076,1.027,0.013,1.544,0.013c1.696,0,1.617-0.011,1.384,1.671
			c-0.47,3.374-1.776,3.819-4.38,4.221c-2.044,0.316-4.205-0.897-4.995-2.653c-0.912-2.026-0.315-4.801,1.372-6.386
			c2.305-2.165,6.193-2.251,7.988-0.141c0.221,0.257,0.912,0.636,0.335,0.985c-0.521,0.315-1.123,1.04-1.898,0.418
			c-1.586-1.269-2.636-1.419-4.07-0.557c-1.39,0.838-2.15,2.596-1.825,4.221c0.406,2.026,2.901,2.963,4.569,1.743
			C131.961,59.645,131.922,59.062,131.972,58.385z"/>
		<path fill-rule="evenodd" clip-rule="evenodd" fill="#EAEAEA" d="M40.317,51.687c2.854-0.019,5.067,2.057,5.045,4.723
			c-0.026,3.349-2.762,6.111-6.034,6.097c-2.886-0.013-5.066-2.056-5.046-4.722C34.309,54.428,37.002,51.708,40.317,51.687z
			 M36.604,57.533c-0.022,1.84,1.117,3.075,2.859,3.096c1.913,0.024,3.547-1.791,3.575-3.971c0.022-1.812-1.15-3.08-2.865-3.099
			C38.255,53.542,36.633,55.349,36.604,57.533z"/>
		<path fill-rule="evenodd" clip-rule="evenodd" fill="#EAEAEA" d="M113.629,56.428c-0.046,3.358-2.791,6.114-6.054,6.078
			c-2.899-0.031-5.063-2.074-5.028-4.744c0.046-3.363,2.751-6.076,6.058-6.075C111.463,51.687,113.668,53.767,113.629,56.428z
			 M104.873,57.547c-0.021,1.836,1.127,3.071,2.869,3.082c1.916,0.014,3.539-1.801,3.563-3.981c0.02-1.811-1.162-3.08-2.876-3.088
			C106.51,53.552,104.896,55.359,104.873,57.547z"/>
		<path fill-rule="evenodd" clip-rule="evenodd" fill="#EAEAEA" d="M113.828,62.124c0.706-3.21,1.416-6.414,2.106-9.624
			c0.092-0.417,0.286-0.571,0.696-0.563c1.411,0.028,2.832-0.058,4.229,0.086c1.621,0.168,2.616,1.182,2.795,2.554
			c0.164,1.269-0.622,2.788-1.932,3.327c-0.898,0.368-1.009,0.766-0.621,1.581c0.363,0.768,0.592,1.601,0.875,2.405
			c0.028,0.078,0.024,0.168,0.038,0.272c-0.119,0.027-0.234,0.058-0.351,0.081c-1.462,0.281-2.34-0.22-2.511-1.788
			c-0.056-0.499-0.317-0.971-0.438-1.467c-0.177-0.732-0.742-0.526-1.229-0.583c-0.533-0.06-0.781,0.167-0.877,0.666
			c-0.094,0.505-0.224,1-0.331,1.501C115.882,62.436,115.884,62.436,113.828,62.124z M117.181,56.576c0.768,0,1.441,0.003,2.117,0
			c0.212,0,0.429,0.016,0.638-0.022c0.841-0.156,1.428-0.585,1.409-1.521c-0.019-0.935-0.659-1.194-1.456-1.252
			c-1.995-0.151-1.995-0.152-2.474,1.821C117.354,55.846,117.298,56.093,117.181,56.576z"/>
		<path fill-rule="evenodd" clip-rule="evenodd" fill="#EAEAEA" d="M92.036,56.287c0.889-0.974,1.85-1.895,2.65-2.938
			c1.036-1.361,2.342-1.662,4.07-1.291c-1.48,1.396-2.85,2.775-4.323,4.032c-0.657,0.56-0.596,0.942-0.199,1.583
			c0.893,1.446,1.713,2.938,2.58,4.442c-2.336,0.339-2.335,0.336-3.388-1.617c-0.362-0.677-0.737-1.349-1.11-2.021
			c-0.061-0.108-0.141-0.205-0.221-0.317c-1.273,0.488-1.437,1.68-1.529,2.736c-0.116,1.33-0.81,1.482-1.871,1.364
			c-0.397-0.044-0.629-0.039-0.509-0.569c0.696-3.037,1.305-6.1,2.054-9.123c0.316-1.272,1.442-0.327,2.284-0.723
			c-0.315,1.496-0.589,2.807-0.865,4.12C91.787,56.073,91.911,56.18,92.036,56.287z"/>
		<path fill-rule="evenodd" clip-rule="evenodd" fill="#EAEAEA" d="M78.822,62.25c-0.521,0-0.987-0.04-1.444,0.01
			c-0.646,0.069-0.944-0.139-0.907-0.818c0.049-0.837-0.394-1.084-1.189-1.01c-0.725,0.07-1.467,0.088-2.184-0.003
			c-1.074-0.135-1.746,0.201-2.201,1.227c-0.542,1.221-1.685,0.301-2.491,0.624c-0.205-0.465,0.136-0.685,0.299-0.953
			c1.729-2.854,3.536-5.661,5.175-8.564c0.758-1.34,1.866-0.775,2.818-0.771c0.792,0.002,0.55,0.9,0.643,1.435
			C77.842,56.324,78.317,59.227,78.822,62.25z M72.686,58.489c3.406,0.263,3.411,0.263,3.032-2.88
			c-0.062-0.513-0.18-1.02-0.318-1.772C74.432,55.496,73.6,56.922,72.686,58.489z"/>
		<path fill-rule="evenodd" clip-rule="evenodd" fill="#EAEAEA" d="M32.996,60.615c-1.626,1.722-3.606,2.217-5.844,1.614
			c-1.917-0.516-3.038-1.813-3.372-3.791c-0.382-2.278,0.942-4.858,3.118-6.013c2.175-1.155,4.937-0.871,6.457,0.673
			c0.388,0.394,0.935,0.869,0.797,1.38c-0.148,0.546-0.946,0.415-1.422,0.663c-0.349,0.181-0.484,0.031-0.713-0.23
			c-1.147-1.328-2.103-1.614-3.477-1.114c-1.439,0.523-2.432,1.94-2.497,3.568c-0.1,2.552,2.166,4.128,4.265,2.791
			C31.529,59.38,32.186,59.703,32.996,60.615z"/>
		<path fill-rule="evenodd" clip-rule="evenodd" fill="#EAEAEA" d="M16.783,62.149c0.524-2.414,0.99-4.84,1.598-7.228
			c0.262-1.031-0.093-1.204-0.959-1.109c-0.211,0.022-0.448,0.06-0.639-0.011c-0.373-0.14-1.215,0.45-1.045-0.552
			c0.097-0.571-0.06-1.376,1.066-1.339c2.434,0.088,4.873,0.029,7.322,0.029c-0.249,1.871-0.254,1.942-2.07,1.847
			c-1.027-0.056-1.418,0.304-1.591,1.27c-0.323,1.805-0.753,3.592-1.137,5.387C18.912,62.395,18.912,62.395,16.783,62.149z"/>
		<path fill-rule="evenodd" clip-rule="evenodd" fill="#EAEAEA" d="M63.668,62.149c0.525-2.414,0.989-4.84,1.598-7.226
			c0.263-1.033-0.093-1.206-0.958-1.111c-0.21,0.022-0.449,0.06-0.639-0.011c-0.371-0.14-1.214,0.45-1.045-0.552
			c0.096-0.571-0.062-1.376,1.063-1.339c2.437,0.088,4.877,0.029,7.324,0.029c-0.248,1.871-0.252,1.944-2.066,1.847
			c-1.031-0.056-1.421,0.305-1.593,1.27c-0.327,1.805-0.754,3.592-1.139,5.387C65.797,62.395,65.799,62.395,63.668,62.149z"/>
		<path fill-rule="evenodd" clip-rule="evenodd" fill="#EAEAEA" d="M80.115,62.25c0.709-3.237,1.403-6.359,2.078-9.484
			c0.338-1.571,1.5-0.514,2.351-0.875c-0.565,2.601-1.048,5.06-1.652,7.489c-0.22,0.881,0.033,1.047,0.819,1.002
			c0.768-0.041,1.543-0.047,2.308,0.011c0.313,0.025,1-0.354,0.868,0.441c-0.09,0.538,0.211,1.414-0.84,1.414
			C84.087,62.252,82.127,62.25,80.115,62.25z"/>
		<path fill-rule="evenodd" clip-rule="evenodd" fill="#EAEAEA" d="M14.646,52.048c-0.705,3.164-1.435,6.317-2.098,9.483
			c-0.269,1.282-1.22,0.689-1.835,0.672c-0.888-0.02-0.281-0.685-0.211-1.028c0.521-2.514,1.079-5.018,1.624-7.526
			C12.529,51.791,12.529,51.791,14.646,52.048z"/>
		<path fill-rule="evenodd" clip-rule="evenodd" fill="#EAEAEA" d="M49.938,52.048c-0.702,3.164-1.435,6.317-2.096,9.483
			c-0.271,1.282-1.222,0.689-1.834,0.672c-0.888-0.02-0.281-0.685-0.212-1.028c0.519-2.514,1.077-5.018,1.623-7.526
			C47.822,51.791,47.822,51.791,49.938,52.048z"/>
		<path fill-rule="evenodd" clip-rule="evenodd" fill="#EAEAEA" d="M100.492,61.138c-0.134,0.753-0.558,1.287-1.321,1.335
			c-0.693,0.042-1.139-0.444-1.138-1.116c0.004-0.769,0.454-1.298,1.269-1.318C100.009,60.019,100.36,60.476,100.492,61.138z"/>
		<path fill-rule="evenodd" clip-rule="evenodd" fill="#EAEAEA" d="M48.11,22.766c-0.109-8.074,6.154-15.272,14.214-16.159
			c5.263-0.578,9.955,0.808,13.748,4.639c3.228,3.261,4.842,7.226,4.815,11.821c-0.053,8.962-7.544,16.28-16.557,16.206
			C55.305,39.2,48.064,31.833,48.11,22.766z M71.299,21.823c1.837-1.194,2.497-2.804,2.077-4.741
			c-0.388-1.806-1.878-2.573-3.456-3.135c-0.561-0.201-1.159-0.327-1.752-0.388c-0.737-0.073-1.066-0.357-1-1.143
			c0.066-0.766-0.027-1.545,0.027-2.314c0.051-0.703-0.245-0.861-0.893-0.873c-1.598-0.032-1.596-0.064-1.596,1.57
			c0,0.472-0.008,0.942,0.002,1.416c0.012,0.608,0.116,1.154-0.858,1.163c-0.95,0.009-1.054-0.412-1.004-1.158
			c0.042-0.641-0.06-1.297,0.026-1.929c0.136-1.041-0.442-1.091-1.223-1.06c-0.699,0.029-1.41-0.125-1.276,1.003
			c0.09,0.762-0.013,1.545,0.024,2.315c0.033,0.624-0.224,0.819-0.824,0.802c-1.159-0.033-2.318-0.019-3.477-0.005
			c-0.318,0.005-0.679-0.108-0.861,0.348c-0.496,1.248,0.113,2.188,1.459,2.202c1.612,0.019,1.781,0.183,1.783,1.762
			c0.004,3.392,0.004,6.783,0,10.172c-0.002,1.626-0.143,1.746-1.758,1.797c-0.424,0.014-0.975-0.246-1.223,0.387
			c-0.534,1.37,0.046,2.269,1.462,2.271c0.171,0,0.343,0,0.515,0c2.898,0,2.934,0,2.895,2.944c-0.014,0.92,0.168,1.258,1.181,1.268
			c1.089,0.007,1.462-0.325,1.318-1.376c-0.066-0.463,0.012-0.943-0.018-1.415c-0.042-0.713-0.004-1.204,0.981-1.186
			c0.948,0.019,0.896,0.532,0.878,1.157c-0.015,0.604,0.061,1.213-0.017,1.804c-0.133,1.002,0.46,1.021,1.164,0.977
			c0.638-0.042,1.438,0.256,1.344-0.933c-0.078-0.981-0.349-2.201,0.108-2.899c0.519-0.798,1.879-0.378,2.86-0.582
			c2.631-0.55,4.28-2.218,4.56-4.728C75.036,24.582,74.17,23.147,71.299,21.823z"/>
		<path fill-rule="evenodd" clip-rule="evenodd" fill="#EAEAEA" d="M62.856,26.57c0-2.788,0-2.8,2.802-2.766
			c0.724,0.008,1.463,0.034,2.161,0.201c1.088,0.264,2.005,0.779,2.066,2.105c0.063,1.391-0.573,2.448-1.845,2.915
			c-1.531,0.564-3.136,0.282-4.709,0.323c-0.508,0.016-0.475-0.381-0.475-0.725C62.854,27.94,62.856,27.257,62.856,26.57z"/>
		<path fill-rule="evenodd" clip-rule="evenodd" fill="#EAEAEA" d="M62.856,18.535c0.128-0.716-0.416-2.022,0.223-2.291
			c1.132-0.479,2.519-0.274,3.766,0.086c1.884,0.545,2.446,2.573,1.151,4.055c-0.437,0.5-0.983,0.813-1.658,0.859
			c-0.298,0.019-0.597,0.009-0.896,0.009C62.856,21.257,62.856,21.257,62.856,18.535z"/>
	</g>
</g>
</svg>
