<?xml version="1.0" encoding="utf-8"?>
<!-- Generator: Adobe Illustrator 16.0.0, SVG Export Plug-In . SVG Version: 6.00 Build 0)  -->
<!DOCTYPE svg PUBLIC "-//W3C//DTD SVG 1.1//EN" "http://www.w3.org/Graphics/SVG/1.1/DTD/svg11.dtd">
<svg version="1.1" id="Layer_1" xmlns="http://www.w3.org/2000/svg" xmlns:xlink="http://www.w3.org/1999/xlink" x="0px" y="0px"
	 width="37.963px" height="37.963px" viewBox="32.322 -23.941 37.963 37.963" enable-background="new 32.322 -23.941 37.963 37.963"
	 xml:space="preserve">
<g id="Icons">
	<g id="Icons_22_">
		<g>
			<path fill="#EAEAEA" d="M66.735-23.941H35.872c-1.958,0-3.551,1.593-3.551,3.55v30.862c0,1.958,1.593,3.551,3.551,3.551h30.862
				c1.957,0,3.55-1.593,3.55-3.551v-30.862C70.284-22.348,68.692-23.941,66.735-23.941z M44.845,5.374
				c-1.339-0.015-2.691-0.015-4.043,0c-0.255,0-0.324-0.071-0.324-0.339V-9.249c0-0.267,0.084-0.339,0.339-0.339
				c1.337,0.016,2.689,0.016,4.028,0c0.267,0,0.337,0.086,0.323,0.339v7.155c0,2.382,0,4.762,0.014,7.142
				C45.182,5.302,45.097,5.374,44.845,5.374z M42.829-11.502c-1.493,0.015-2.718-1.239-2.718-2.719
				c0.014-1.423,1.099-2.705,2.704-2.719c1.521-0.013,2.733,1.142,2.733,2.719C45.549-12.671,44.365-11.517,42.829-11.502z
				 M62.072,5.374h-3.958c-0.323,0-0.339-0.015-0.339-0.353v-7.24c0-0.677-0.014-1.353-0.211-2.015
				c-0.31-1.027-0.973-1.521-2.057-1.549c-0.76-0.015-1.478,0.127-2.014,0.719c-0.436,0.465-0.619,1.026-0.705,1.647
				c-0.056,0.548-0.098,1.112-0.098,1.676c-0.015,2.267-0.015,4.536,0,6.789c0,0.254-0.072,0.325-0.311,0.325
				c-1.353-0.015-2.719-0.015-4.069,0c-0.24,0-0.326-0.071-0.326-0.325c0.015-4.76,0.015-9.535,0-14.312
				c0-0.252,0.1-0.324,0.326-0.324c1.295,0.016,2.591,0.016,3.886,0c0.255,0,0.339,0.1,0.325,0.339c-0.014,0.521,0,1.057,0,1.577
				c0.732-1.084,1.72-1.774,2.957-2.084c1.438-0.352,2.859-0.239,4.212,0.352c1.311,0.563,2.015,1.635,2.381,2.959
				c0.254,0.858,0.367,1.747,0.381,2.647c0.015,2.917,0.028,5.832,0.042,8.762C62.494,5.374,62.494,5.374,62.072,5.374z"/>
		</g>
	</g>
</g>
</svg>
