<?xml version="1.0" encoding="utf-8"?>
<!-- Generator: Adobe Illustrator 16.0.0, SVG Export Plug-In . SVG Version: 6.00 Build 0)  -->
<!DOCTYPE svg PUBLIC "-//W3C//DTD SVG 1.1//EN" "http://www.w3.org/Graphics/SVG/1.1/DTD/svg11.dtd">
<svg version="1.1" id="Layer_1" xmlns="http://www.w3.org/2000/svg" xmlns:xlink="http://www.w3.org/1999/xlink" x="0px" y="0px"
	 width="134.713px" height="34.937px" viewBox="0 0 134.713 34.937" enable-background="new 0 0 134.713 34.937"
	 xml:space="preserve">
<g>
	<path fill="#EAEAEA" d="M67.202,9.986c-0.806-0.322-1.506-0.434-2.408-0.381c-2.411,0.14-4.552,1.743-6.094,4.563
		c-0.256,0.467-0.521,0.851-0.588,0.853c-0.1,0-0.111-0.538-0.059-2.678l0.067-2.677l-0.234,0.056
		c-0.129,0.031-2.07,0.424-4.313,0.874c-4.813,0.966-5.481,1.106-5.596,1.178c-0.048,0.029-0.087,0.202-0.087,0.386
		c0,0.366-0.042,0.345,1.05,0.521c1.503,0.243,2.034,0.976,2.259,3.118c0.291,2.793,0.176,13.682-0.163,15.169
		c-0.173,0.759-0.621,1.491-1.069,1.752c-0.167,0.097-0.69,0.251-1.165,0.345l-0.862,0.167l-0.03,0.511l-0.028,0.51h14.287v-0.526
		V33.2l-0.752-0.064c-1.737-0.146-2.212-0.32-2.669-0.978c-0.66-0.95-0.805-2.706-0.805-9.821v-5.552l0.241-0.256
		c0.304-0.324,1.254-0.776,1.926-0.914c1.363-0.286,3.105-0.04,4.469,0.628c0.392,0.192,0.729,0.335,0.748,0.313
		c0.04-0.041,2.281-5.958,2.349-6.208C67.707,10.235,67.579,10.138,67.202,9.986z"/>
	<path fill="#EAEAEA" d="M83.766,10.148c-1.903-0.395-4.352-0.085-6.212,0.787c-0.464,0.217-0.908,0.395-0.986,0.395
		c-0.126,0-0.139-0.719-0.107-5.665L76.496,0l-0.389,0.078c-0.215,0.044-2.4,0.45-4.858,0.904c-2.456,0.456-4.563,0.85-4.68,0.878
		c-0.18,0.042-0.21,0.109-0.19,0.413c0.021,0.34,0.049,0.37,0.407,0.449c1.231,0.271,1.45,0.367,1.908,0.84
		c0.561,0.579,0.814,1.319,0.979,2.863c0.133,1.229,0.162,22.425,0.036,25.553l-0.075,1.854l1.002,0.216
		c3.793,0.811,7.572,1.091,9.938,0.736c2.95-0.442,5.114-1.457,6.946-3.253c2.65-2.599,3.926-6.263,3.753-10.781
		c-0.089-2.325-0.468-3.845-1.433-5.729C88.535,12.467,86.301,10.676,83.766,10.148z M83.99,25.264
		c-0.446,2.829-1.259,5.014-2.39,6.426c-0.55,0.684-1.459,1.33-2.172,1.542c-0.458,0.137-1.443,0.169-2.319,0.076
		c-0.197-0.021-0.408-0.099-0.468-0.17c-0.165-0.201-0.346-13.385-0.235-17.242l0.089-3.06l0.775-0.224
		c1.146-0.331,2.382-0.279,3.256,0.135c1.757,0.833,2.911,2.89,3.512,6.256C84.232,20.099,84.203,23.908,83.99,25.264z"/>
	<path fill="#EAEAEA" d="M19.579,2.93l0.831,0.297c1.921,0.688,3.305,2.094,4.459,4.533c0.261,0.549,0.594,1.346,0.74,1.774
		c0.147,0.428,0.277,0.79,0.289,0.806c0.013,0.018,0.331-0.063,0.71-0.177l0.686-0.209l-0.047-3.173
		c-0.027-1.744-0.074-3.838-0.105-4.654l-0.056-1.48H0l0.028,0.606L0.058,1.86L0.932,1.97c1.166,0.146,1.594,0.272,2.063,0.613
		C3.707,3.098,4.145,3.855,4.42,5.048c0.429,1.854,0.582,6.034,0.511,13.858c-0.075,8.268-0.18,9.987-0.706,11.655
		c-0.434,1.371-1.24,2.099-2.574,2.318c-0.365,0.061-0.886,0.158-1.154,0.216L0.01,33.2v1.052h17.385v-0.534h-0.001
		c0-0.294-0.025-0.535-0.057-0.535c-0.463,0-2.62-0.464-2.967-0.639c-1.233-0.621-1.803-2.097-2.026-5.241
		c-0.155-2.236-0.313-8.803-0.211-8.905c0.093-0.091,4.197,0.072,4.678,0.187c1.328,0.318,2.35,1.623,2.862,3.652l0.227,0.894
		l0.593,0.03l0.593,0.028V11.913h-0.632c-0.59,0-0.631,0.014-0.631,0.219c0,0.368-0.368,1.532-0.718,2.268
		c-0.546,1.149-1.314,1.844-2.294,2.069c-0.24,0.055-1.375,0.145-2.521,0.197c-1.616,0.075-2.102,0.07-2.162-0.022
		c-0.112-0.169,0.144-12.955,0.272-13.55l0.048-0.225l3.566,0.029L19.579,2.93z"/>
	<path fill="#EAEAEA" d="M43.945,12.495c-2.021-1.904-4.564-2.816-7.855-2.816c-3.486,0-6.294,1.081-8.455,3.257
		c-2.314,2.328-3.539,5.577-3.539,9.391c0,3.956,1.105,7.149,3.252,9.388c1.182,1.233,2.333,1.975,3.985,2.561
		c0.583,0.209,1.011,0.308,2.572,0.599c0.134,0.023,1.029,0.027,1.99,0.01c1.303-0.026,1.96-0.085,2.575-0.228
		c1.723-0.403,3.097-1.017,4.324-1.935c2.987-2.23,4.624-5.65,4.775-9.978C47.72,18.477,46.432,14.839,43.945,12.495z
		 M40.409,25.396c-0.32,4.532-1.305,6.99-3.14,7.844c-0.665,0.312-1.841,0.327-2.485,0.036l0,0
		c-1.594-0.726-2.726-2.925-3.292-6.405c-0.359-2.206-0.395-7.114-0.066-9.518c0.46-3.377,1.432-5.371,2.944-6.045
		c1.036-0.464,2.474-0.189,3.398,0.645C39.82,13.807,40.855,19.079,40.409,25.396z"/>
	<path fill="#EAEAEA" d="M108.914,10.267c-1.132-0.413-2.204-0.588-3.617-0.588c-3.344,0-6.076,1.098-8.188,3.29
		c-1.686,1.748-2.686,3.712-3.296,6.472c-0.184,0.831-0.215,1.265-0.215,3.01c0,1.734,0.031,2.183,0.21,2.984
		c1.133,5.095,4.484,8.448,9.3,9.309c1.219,0.217,3.018,0.233,4.222,0.038c2.25-0.365,4.466-1.444,6.059-2.953
		c0.873-0.826,1.162-1.226,1.041-1.434c-0.323-0.558-0.31-0.558-1.136-0.049c-1.316,0.809-1.977,1.032-3.522,1.189
		c-1.807,0.187-3.473-0.115-5.012-0.908c-1.022-0.524-2.246-1.733-2.858-2.819c-0.834-1.482-1.287-3.213-1.423-5.439
		c-0.057-0.935-0.044-1.167,0.065-1.236c0.074-0.049,3.313-0.088,7.25-0.089l7.115-0.001v-0.28c0-0.639-0.21-2.355-0.398-3.256
		C113.755,13.886,111.759,11.305,108.914,10.267z M106.933,19.33c-2.027,0.112-6.381,0.171-6.435,0.085l0,0
		c-0.073-0.119,0.108-1.848,0.288-2.742c0.432-2.158,1.125-3.718,2.077-4.678c0.512-0.516,0.746-0.677,1.164-0.801
		c0.287-0.086,0.613-0.155,0.724-0.155c0.445,0.001,0.972,0.229,1.363,0.59c1.05,0.968,1.651,3.048,1.771,6.126l0.059,1.519
		L106.933,19.33z"/>
	<path fill="#EAEAEA" d="M128.505,19.733c-2.545-1.076-4.07-1.987-4.695-2.808c-0.516-0.676-0.684-1.197-0.678-2.1
		c0.012-1.359,0.527-2.402,1.512-3.053c0.825-0.544,1.858-0.677,3.062-0.394c1.454,0.343,2.548,1.236,3.535,2.885
		c0.313,0.524,0.96,1.999,1.274,2.909c0.05,0.142,0.106,0.147,0.444,0.047c0.214-0.063,0.419-0.146,0.456-0.181
		c0.035-0.038,0.034-1.429-0.006-3.093l-0.072-3.025l-0.353-0.15c-0.594-0.25-2.146-0.673-3.169-0.861
		c-0.768-0.142-1.446-0.178-3.254-0.176c-2.157,0.003-2.333,0.018-3.224,0.259c-2.59,0.702-4.509,2.163-5.512,4.195
		c-0.533,1.079-0.718,1.911-0.711,3.213c0.008,1.846,0.512,3.211,1.625,4.402c0.958,1.025,2.204,1.757,4.325,2.54
		c1.669,0.616,3.393,1.478,4.046,2.021c0.384,0.32,0.685,0.684,0.91,1.1c0.319,0.589,0.337,0.668,0.337,1.591
		c0,0.891-0.025,1.025-0.309,1.623c-0.737,1.559-2.214,2.331-4.148,2.173c-2.627-0.215-4.477-1.952-5.983-5.621
		c-0.393-0.956-0.42-0.976-1.017-0.749l-0.274,0.104l0.069,3.422c0.061,3.035,0.087,3.435,0.231,3.545
		c0.432,0.331,3.227,0.995,5.166,1.227c1.507,0.18,3.815,0.187,4.954,0.013c4.127-0.627,6.791-2.839,7.49-6.22
		c0.337-1.634,0.179-3.449-0.405-4.662C133.314,22.207,131.932,21.182,128.505,19.733z"/>
</g>
</svg>
