<?xml version="1.0" encoding="utf-8"?>
<!-- Generator: Adobe Illustrator 16.0.0, SVG Export Plug-In . SVG Version: 6.00 Build 0)  -->
<!DOCTYPE svg PUBLIC "-//W3C//DTD SVG 1.1//EN" "http://www.w3.org/Graphics/SVG/1.1/DTD/svg11.dtd">
<svg version="1.1" id="Layer_1" xmlns="http://www.w3.org/2000/svg" xmlns:xlink="http://www.w3.org/1999/xlink" x="0px" y="0px"
	 width="63.128px" height="52.94px" viewBox="35.538 41.417 63.128 52.94" enable-background="new 35.538 41.417 63.128 52.94"
	 xml:space="preserve">
<g>
	<g>
		<g>
			<path fill="#EAEAEA" d="M53.342,72.124c-0.017-2.406,1.93-4.388,4.281-4.365c2.313,0.027,4.271,2.004,4.266,4.318
				c-0.001,2.357-1.908,4.258-4.268,4.268C55.231,76.35,53.356,74.501,53.342,72.124z"/>
			<path fill="#EAEAEA" d="M76.644,76.345c-2.39,0.003-4.261-1.849-4.277-4.224c-0.01-2.403,1.939-4.39,4.289-4.36
				c2.335,0.032,4.247,1.98,4.239,4.324C80.89,74.46,79.015,76.335,76.644,76.345z"/>
			<path fill="#EAEAEA" d="M66.91,87.964c-2.273-0.48-4.59-0.821-6.811-1.492c-1.136-0.34-2.125-1.218-3.107-1.954
				c-0.566-0.421-0.582-1.102-0.114-1.649c0.474-0.557,1.121-0.631,1.651-0.144c1.914,1.772,4.28,2.376,6.753,2.405
				c2.249,0.026,4.535-0.135,6.753-0.531c1.185-0.211,2.297-1.018,3.354-1.691c0.692-0.439,1.274-0.715,1.92-0.069
				c0.552,0.552,0.407,1.286-0.352,1.96c-1.993,1.779-4.435,2.423-7.001,2.716c-0.991,0.115-1.995,0.137-2.99,0.204
				C66.947,87.798,66.93,87.881,66.91,87.964z"/>
		</g>
	</g>
	<path fill="#EAEAEA" d="M38.815,74.21c-0.339,4.089,1.023,7.587,3.636,10.65c1.864,2.187,4.098,3.853,6.558,5.202
		c0.123,0.065,0.252,0.135,0.391,0.208c0.513,0.271,1.045,0.518,1.577,0.764c1.293,0.591,2.912,1.231,4.803,1.795
		c6.675,1.808,13.241,2.005,19.879,0.621c0.172-0.039,0.353-0.082,0.539-0.126c0.103-0.022,0.204-0.052,0.307-0.074
		c2.629-0.658,6.364-1.911,10.061-4.209c0.355-0.224,0.71-0.445,1.049-0.688c4.858-3.471,7.994-7.938,7.522-14.271
		c-0.023-0.283,0.241-0.685,0.493-0.88c3.284-2.547,4.01-6.847,1.667-10.091c-2.332-3.229-6.62-3.879-10.104-1.57
		c-0.278,0.179-0.826,0.179-1.149,0.039c-1.688-0.765-3.31-1.692-5.023-2.395c-3.859-1.577-7.932-2.231-12.184-2.498
		c1.24-3.911,2.453-7.756,3.7-11.684c3.103,0.736,6.069,1.47,9.052,2.13c0.718,0.158,1.009,0.418,1.115,1.172
		c0.478,3.375,3.894,5.61,7.186,4.773c2.632-0.668,4.435-2.905,4.521-5.612c0.081-2.579-1.68-5.021-4.178-5.784
		c-2.571-0.79-5.296,0.206-6.724,2.536c-0.373,0.608-0.69,0.74-1.389,0.563c-3.137-0.786-6.294-1.494-9.44-2.231
		c-1.519-0.356-1.88-0.156-2.349,1.323c-1.265,4.003-2.525,8.007-3.785,12.008c-0.144,0.475-0.276,0.823-0.937,0.841
		c-6.478,0.186-12.588,1.731-18.148,5.133c-0.115-0.067-0.206-0.117-0.291-0.178c-3.47-2.424-7.696-1.897-10.132,1.27
		c-2.44,3.163-1.845,7.378,1.376,10.132C38.684,73.31,38.847,73.84,38.815,74.21z M88.502,43.871
		c1.932,0.003,3.489,1.561,3.484,3.477c-0.006,1.912-1.586,3.482-3.503,3.475c-1.912-0.007-3.487-1.584-3.484-3.493
		C85.007,45.414,86.572,43.867,88.502,43.871z M95.071,64.199c1.708,2.01,1.49,4.954-0.67,6.817c-1.195-3.05-3.126-5.46-5.584-7.458
		C90.307,62.014,93.482,62.332,95.071,64.199z M56.772,60.452c3.335-0.946,6.744-1.354,10.206-1.337
		c5.944,0.026,11.633,1.151,16.894,4.035c2.688,1.476,5.045,3.357,6.79,5.919c2.81,4.122,2.813,8.851-0.037,12.952
		c-2.67,3.828-6.451,6.195-10.753,7.675c-9.948,3.416-19.754,3.124-29.284-1.552c-2.56-1.251-4.802-2.97-6.593-5.223
		c-3.867-4.867-3.745-10.574,0.372-15.249C47.694,63.889,52.026,61.799,56.772,60.452z M38.974,64.393
		c1.479-1.938,4.534-2.438,6.286-0.958c-2.453,2.004-4.433,4.377-5.628,7.343C37.711,69.285,37.442,66.4,38.974,64.393z"/>
</g>
</svg>
