<?xml version="1.0" encoding="utf-8"?>
<!-- Generator: Adobe Illustrator 16.0.0, SVG Export Plug-In . SVG Version: 6.00 Build 0)  -->
<!DOCTYPE svg PUBLIC "-//W3C//DTD SVG 1.1//EN" "http://www.w3.org/Graphics/SVG/1.1/DTD/svg11.dtd">
<svg version="1.1" id="Layer_1" xmlns="http://www.w3.org/2000/svg" xmlns:xlink="http://www.w3.org/1999/xlink" x="0px" y="0px"
	 width="38.375px" height="38.375px" viewBox="61.916 22.357 38.375 38.375" enable-background="new 61.916 22.357 38.375 38.375"
	 xml:space="preserve">
<g>
	<g>
		<path fill-rule="evenodd" clip-rule="evenodd" fill="#EAEAEA" d="M61.916,54.97c0-8.949,0-17.9,0-26.85
			c0.036-0.137,0.076-0.272,0.107-0.409c0.61-2.622,2.208-4.326,4.77-5.131c0.29-0.092,0.591-0.149,0.886-0.223
			c8.949,0,17.9,0,26.85,0c0.076,0.023,0.152,0.053,0.23,0.069c2.757,0.584,4.538,2.226,5.341,4.926
			c0.075,0.253,0.128,0.512,0.191,0.768c0,8.949,0,17.9,0,26.85c-0.026,0.097-0.059,0.191-0.08,0.289
			c-0.598,2.714-2.226,4.474-4.887,5.275c-0.261,0.079-0.53,0.133-0.796,0.198c-2.472,0-4.944,0-7.417,0
			c-0.01-0.11-0.026-0.222-0.026-0.333c-0.002-4.587-0.002-9.174-0.002-13.761c0-0.119,0-0.238,0-0.398c0.154,0,0.274,0,0.395,0
			c1.88,0,3.759-0.005,5.639,0.006c0.271,0.002,0.367-0.059,0.364-0.352c-0.013-1.9-0.006-3.801-0.007-5.701
			c0-0.108-0.009-0.217-0.016-0.365c-2.137,0-4.244,0-6.348,0c0-0.989-0.045-1.941,0.013-2.887c0.058-0.902,0.629-1.365,1.521-1.365
			c1.472,0,2.943,0,4.414-0.001c0.13,0,0.259-0.014,0.394-0.021c0-2.137,0-4.244,0-6.379c-0.125,0-0.225,0-0.325,0
			c-1.563,0-3.126,0.001-4.689-0.001c-1.389,0-2.652,0.393-3.787,1.196c-1.938,1.374-3.062,3.273-3.41,5.587
			c-0.172,1.153-0.099,2.342-0.135,3.515c-0.004,0.117-0.001,0.235-0.001,0.383c-1.589,0-3.126,0-4.674,0
			c-0.009,0.101-0.021,0.171-0.021,0.239c-0.001,1.952,0.004,3.903-0.007,5.854c-0.001,0.264,0.11,0.297,0.328,0.296
			c1.329-0.007,2.656-0.003,3.984-0.003c0.12,0,0.239,0,0.39,0c0,4.854,0,9.672,0,14.491c-4.476,0-8.95,0-13.425,0
			c-0.087-0.024-0.172-0.056-0.26-0.074c-2.729-0.59-4.499-2.22-5.305-4.893C62.035,55.505,61.982,55.235,61.916,54.97z"/>
	</g>
</g>
</svg>
