<?xml version="1.0" encoding="utf-8"?>
<!-- Generator: Adobe Illustrator 16.0.0, SVG Export Plug-In . SVG Version: 6.00 Build 0)  -->
<!DOCTYPE svg PUBLIC "-//W3C//DTD SVG 1.1//EN" "http://www.w3.org/Graphics/SVG/1.1/DTD/svg11.dtd">
<svg version="1.1" id="Layer_1" xmlns="http://www.w3.org/2000/svg" xmlns:xlink="http://www.w3.org/1999/xlink" x="0px" y="0px"
	 width="225.364px" height="62.056px" viewBox="-18.502 0 225.364 62.056" enable-background="new -18.502 0 225.364 62.056"
	 xml:space="preserve">
<g>
	<path fill="#EAEAEA" d="M205.718,21.271c-4.412,0.007-8.822,0.019-13.231-0.011c-0.726-0.004-0.981,0.183-0.952,0.935
		c0.058,1.397,0.062,2.801,0,4.198c-0.035,0.775,0.258,0.953,0.963,0.908c0.871-0.054,1.751,0.04,2.62-0.029
		c0.816-0.066,1.056,0.184,1.048,1.025c-0.046,4.131-0.004,8.262-0.037,12.393c-0.007,0.728,0.178,0.971,0.925,0.938
		c1.363-0.06,2.735-0.07,4.094,0.005c0.854,0.043,1.128-0.172,1.115-1.076c-0.052-4.129-0.008-8.263-0.037-12.392
		c-0.002-0.661,0.139-0.926,0.857-0.892c1.258,0.059,2.52,0.015,3.78,0.015c0-2.032,0-4.062,0-6.094
		C206.481,21.22,206.1,21.271,205.718,21.271z"/>
	<path fill="#EAEAEA" d="M160.93,16.109c-2.588,0.016-5.18,0.07-7.768-0.023c-1.072-0.039-1.51,0.298-1.804,1.316
		c-0.702,2.452-1.543,4.867-2.394,7.499c-0.155-0.45-0.243-0.675-0.312-0.907c-0.702-2.377-1.409-4.754-2.091-7.136
		c-0.126-0.437-0.231-0.755-0.803-0.752c-3.182,0.022-6.364,0.011-9.646,0.011c0.396,1.446,12.288,30.373,12.765,31.069
		c0.066-0.081,0.151-0.145,0.187-0.228c4.141-10.038,8.276-20.083,12.43-30.117C161.783,16.143,161.494,16.106,160.93,16.109z"/>
	<path fill="#EAEAEA" d="M125.363,20.347c-6.11,0.049-10.79,4.638-10.794,10.635c-0.003,6.053,4.667,10.736,10.687,10.725
		c5.991-0.015,10.605-4.658,10.605-10.671C136.223,25.934,131.584,20.298,125.363,20.347z M125.136,35.566
		c-2.438-0.029-4.303-2.03-4.284-4.598c0.019-2.504,1.991-4.527,4.41-4.52c2.386,0.008,4.348,2.085,4.338,4.593
		C129.589,33.645,127.666,35.594,125.136,35.566z"/>
	<path fill="#EAEAEA" d="M59.849,32.25c2.026-1.942,2.508-4.323,1.632-6.929c-0.88-2.615-2.853-3.993-5.538-4.339
		C52.981,20.599,50,20.888,47.027,20.8c-0.733-0.023-0.643,0.471-0.643,0.919c-0.002,6.196,0.01,12.394-0.015,18.59
		c-0.002,0.71,0.237,0.888,0.909,0.865c1.364-0.048,2.732-0.068,4.095,0.004c0.922,0.048,1.245-0.171,1.23-1.179
		c-0.064-4.131-0.029-8.263-0.027-12.394c0.001-1.263,0.001-1.263,1.299-1.144c1.361,0.124,1.896,0.651,1.733,1.695
		c-0.147,0.929-0.836,1.174-1.611,1.177c-0.63,0.004-0.781,0.26-0.737,0.818c0.035,0.453-0.017,0.911,0.013,1.365
		c0.07,1.145-0.265,2.337,0.184,3.43c0.785,1.906,1.669,3.77,2.514,5.653c0.126,0.276,0.223,0.568,0.646,0.566
		c1.983-0.017,3.966-0.009,6.091-0.009c-1.078-2.58-2.082-5.029-3.133-7.462C59.318,33.102,59.355,32.721,59.849,32.25z"/>
	<path fill="#EAEAEA" d="M89.298,20.372c-3.862-0.188-7.252,2.198-7.923,5.643c-0.494,2.531-0.085,5.101-0.219,7.178
		c0,2.716,0.017,4.957-0.015,7.197c-0.004,0.579,0.15,0.798,0.76,0.781c1.436-0.039,2.875-0.068,4.309,0.008
		c0.872,0.046,1.107-0.204,1.095-1.084c-0.05-4.1-0.024-8.196-0.019-12.294c0-0.821,0.302-1.474,1.219-1.542
		c0.68-0.052,1.264,0.155,1.354,0.979c0.104,0.917-0.38,1.403-1.229,1.49c-0.491,0.051-0.55,0.279-0.545,0.676
		c0.012,1.4,0.014,2.801,0,4.203c-0.007,0.432,0.123,0.586,0.586,0.628c4.813,0.43,7.989-2.762,7.465-7.529
		C95.746,23.161,92.925,20.548,89.298,20.372z"/>
	<path fill="#EAEAEA" d="M171.762,27.293c1.084-0.014,2.171-0.038,3.255,0.009c0.615,0.026,0.769-0.198,0.756-0.779
		c-0.037-1.504-0.031-3.012-0.002-4.517c0.011-0.53-0.135-0.75-0.702-0.741c-1.682,0.03-3.364-0.059-5.042,0.029
		c-3.846,0.205-5.864,2.295-5.998,6.148c-0.043,1.293-0.006,2.591-0.006,3.888c-0.002,1.33-0.029,2.66,0.004,3.99
		c0.093,3.646,1.89,5.796,5.403,6.182c1.904,0.213,3.846,0.068,5.771,0.116c0.605,0.015,0.563-0.355,0.56-0.752
		c-0.002-1.471-0.024-2.943,0.013-4.414c0.015-0.589-0.157-0.791-0.762-0.771c-1.261,0.039-2.522,0.022-3.78-0.004
		c-0.582-0.015-1.156-0.12-1.167-0.9c-0.006-0.818,0.541-0.969,1.198-0.973c1.121-0.002,2.243-0.025,3.362,0.008
		c0.531,0.017,0.748-0.124,0.728-0.696c-0.042-1.085-0.04-2.172-0.003-3.256c0.02-0.544-0.148-0.744-0.708-0.724
		c-0.979,0.034-1.962,0.042-2.939-0.022c-0.569-0.037-1.293-0.073-1.245-0.937C170.499,27.372,171.142,27.301,171.762,27.293z"/>
	<path fill="#EAEAEA" d="M112.856,21.793c0.033-0.77-0.174-1.03-0.985-1.009c-2.238,0.057-4.478,0.019-6.717,0.019
		c-1.681,0-3.36,0-5.039,0c-2.663,0-2.68,0.001-2.654,2.662c0.01,1.077-0.455,2.463,0.188,3.146c0.648,0.69,2.056,0.243,3.119,0.198
		c0.977-0.042,1.303,0.184,1.284,1.24c-0.067,4.059-0.01,8.118-0.043,12.177c-0.006,0.724,0.174,0.983,0.928,0.95
		c1.396-0.058,2.803-0.07,4.196,0.002c0.872,0.046,1.116-0.21,1.105-1.093c-0.05-4.059,0.004-8.12-0.043-12.179
		c-0.011-0.894,0.26-1.158,1.119-1.083c0.834,0.072,1.681-0.032,2.518,0.028c0.754,0.056,1.07-0.133,1.026-0.965
		C112.788,24.526,112.797,23.156,112.856,21.793z"/>
	<path fill="#EAEAEA" d="M78.727,20.813c-1.365-0.022-2.73,0.027-4.096-0.025c-0.65-0.025-1.021,0.22-1.351,0.747
		c-0.7,1.115-1.456,2.193-2.251,3.381c-0.791-1.265-1.502-2.387-2.198-3.516c-0.208-0.337-0.406-0.612-0.882-0.606
		c-1.849,0.024-3.699,0.01-5.787,0.01c1.847,2.886,3.553,5.567,5.281,8.233c0.376,0.579,0.556,1.159,0.55,1.859
		c-0.033,3.116,0.01,6.233-0.031,9.348c-0.011,0.742,0.206,0.959,0.939,0.932c1.469-0.056,2.943-0.058,4.41,0
		c0.725,0.031,0.878-0.235,0.871-0.895c-0.028-3.116,0.002-6.233-0.022-9.35c-0.006-0.695,0.161-1.278,0.541-1.863
		c1.56-2.406,3.088-4.834,4.618-7.26c0.161-0.255,0.511-0.515,0.359-0.82C79.489,20.61,79.051,20.818,78.727,20.813z"/>
	<path fill="#EAEAEA" d="M189.443,21.271c-0.758-0.632-1.923-0.542-2.937-0.443c-0.977,0.096-1.917,0.354-2.778,0.869
		c-3.203,1.917-4.42,5.541-3.021,9.22c0.396,1.04,0.993,2.001,1.443,3.023c0.401,0.907,0.021,1.641-0.898,1.997
		c-0.782,0.302-1.421-0.091-2.257-0.441c0,1.638-0.003,3.138,0,4.635c0,1.479,0.049,1.563,1.503,1.847
		c2.904,0.57,5.354-0.277,7.213-2.558c1.861-2.29,1.938-4.861,0.812-7.502c-0.367-0.864-0.9-1.656-1.308-2.505
		c-0.304-0.63-0.336-1.293,0.137-1.878c0.467-0.574,1.062-0.766,1.78-0.518c0.126,0.043,0.272,0.024,0.498,0.04
		c0-1.18,0.026-2.33-0.009-3.479C189.597,22.788,189.997,21.733,189.443,21.271z"/>
	<path fill="#EAEAEA" d="M27.123,30.849c-2.237-0.039-4.475-0.091-6.708-0.207c-1.019-0.053-1.765,0.006-1.719,1.332
		c0.016,0.494-0.251,1.009-0.433,1.497c-1.65,4.425-7.147,4.311-9.324,1.843c-1.486-1.684-1.87-3.609-1.728-5.736
		c0.268-4.012,4.122-6.718,7.78-5.454c1.767,0.61,2.734,1.979,3.371,3.637c0.187,0.486,0.35,0.826,1.013,0.765
		c2.575-0.239,5.153-0.412,7.731-0.605c0.373-0.029,0.798,0.089,0.625-0.59c-1.091-4.242-3.035-7.942-7.026-10.094
		c-1.318-0.712-1.61-1.51-1.54-2.853c0.105-2.012,0.026-2.029-1.982-2.01c-0.762,0.007-1.712-0.313-2.235,0.14
		c-0.497,0.431-0.159,1.387-0.152,2.109c0.004,0.57-0.201,0.715-0.732,0.696c-0.907-0.032-1.844-0.141-2.714,0.039
		c-1.057,0.219-1.266-0.054-1.221-1.077c0.088-1.911,0.025-1.914-1.877-1.914c-2.509,0-2.509,0-2.509,2.463
		c0,0.56-0.023,1.122,0.008,1.68c0.023,0.43-0.121,0.678-0.496,0.926c-4.877,3.237-7.247,7.777-7.084,13.649
		c0.138,4.989,2.204,8.977,6.245,11.854c1.01,0.717,1.408,1.38,1.357,2.597c-0.103,2.342-0.029,2.345,2.281,2.345
		c1.962,0,1.963,0.004,2.101-1.926c0.022-0.308-0.056-0.645,0.48-0.537c1.455,0.29,2.929,0.168,4.394,0.092
		c0.489-0.027,0.631,0.086,0.595,0.541c-0.021,0.278,0.036,0.565-0.011,0.838c-0.15,0.874,0.268,1.111,1.047,0.998
		c0.171-0.024,0.35,0,0.525-0.006c0.904-0.019,2.104,0.301,2.636-0.155c0.623-0.535,0.187-1.774,0.195-2.704
		c0.006-0.645,0.137-1.036,0.752-1.419c4.464-2.764,6.26-7.119,7.039-12.059C27.894,30.977,27.652,30.857,27.123,30.849z"/>
	<path fill="#EAEAEA" d="M12.526,0C-4.583,0-18.502,13.919-18.502,31.028s13.919,31.028,31.028,31.028s31.028-13.919,31.028-31.028
		S29.635,0,12.526,0z M35.373,30.887c-0.027,12.685-10.189,22.677-23.048,22.669C0.063,53.55-10.021,43.303-10.021,30.849
		c0-12.577,10.115-22.687,22.697-22.687C25.213,8.164,35.401,18.365,35.373,30.887z"/>
</g>
</svg>
