<?xml version="1.0" encoding="utf-8"?>
<!-- Generator: Adobe Illustrator 16.0.0, SVG Export Plug-In . SVG Version: 6.00 Build 0)  -->
<!DOCTYPE svg PUBLIC "-//W3C//DTD SVG 1.1//EN" "http://www.w3.org/Graphics/SVG/1.1/DTD/svg11.dtd">
<svg version="1.1" id="Layer_1" xmlns="http://www.w3.org/2000/svg" xmlns:xlink="http://www.w3.org/1999/xlink" x="0px" y="0px"
	 width="46.43px" height="38.111px" viewBox="90.353 -23.453 46.43 38.111" enable-background="new 90.353 -23.453 46.43 38.111"
	 xml:space="preserve">
<g>
	<g>
		<path fill-rule="evenodd" clip-rule="evenodd" fill="#EAEAEA" d="M90.353,10.452c5.072,0.232,9.708-0.937,13.93-4.072
			c-0.676-0.09-1.198-0.129-1.707-0.234c-3.299-0.679-5.631-2.563-7.008-5.639c-0.246-0.55-0.219-0.744,0.479-0.655
			c1.179,0.148,2.354,0.039,3.74-0.38c-3.05-0.732-5.259-2.264-6.676-4.839c-0.783-1.424-1.172-2.947-1.146-4.671
			c1.363,0.631,2.681,1.145,4.188,1.127c-0.114-0.335-0.399-0.425-0.601-0.585c-3.493-2.773-4.589-7.591-2.646-11.554
			c0.274-0.559,0.427-0.657,0.896-0.132c4.942,5.53,11.123,8.648,18.494,9.442c0.563,0.061,0.747-0.015,0.664-0.653
			c-0.551-4.21,1.454-8.08,5.119-9.972c3.693-1.906,8.021-1.277,11.151,1.645c0.303,0.284,0.571,0.329,0.953,0.249
			c1.632-0.338,3.168-0.914,4.621-1.73c0.208-0.117,0.383-0.331,0.664-0.309c-0.278,1.595-1.425,3.135-3.701,4.963
			c0.589,0.185,1.101-0.068,1.613-0.17c0.573-0.113,1.136-0.28,1.692-0.457c0.527-0.167,1.042-0.378,1.709-0.624
			c-0.163,0.296-0.245,0.487-0.361,0.655c-0.976,1.412-2.126,2.672-3.535,3.652c-0.567,0.395-0.697,0.82-0.691,1.451
			c0.059,5.346-1.277,10.32-4.137,14.843C119.919,14.684,103.442,18.49,90.353,10.452z"/>
	</g>
</g>
</svg>
