<?xml version="1.0" encoding="utf-8"?>
<!-- Generator: Adobe Illustrator 16.0.0, SVG Export Plug-In . SVG Version: 6.00 Build 0)  -->
<!DOCTYPE svg PUBLIC "-//W3C//DTD SVG 1.1//EN" "http://www.w3.org/Graphics/SVG/1.1/DTD/svg11.dtd">
<svg version="1.1" id="Layer_1" xmlns="http://www.w3.org/2000/svg" xmlns:xlink="http://www.w3.org/1999/xlink" x="0px" y="0px"
	 width="122.088px" height="62.021px" viewBox="0 0 122.088 62.021" enable-background="new 0 0 122.088 62.021"
	 xml:space="preserve">
<g>
	<g>
		<path fill-rule="evenodd" clip-rule="evenodd" fill="#EAEAEA" d="M28.07,1.238c-0.316,2.821-0.807,5.622-0.595,8.49
			c0.335,4.525,2.576,8.342,4.448,12.294c2.907,6.142,6.082,12.162,8.344,18.593c0.532,1.514,0.948,3.058,1.236,4.648
			c0.295,1.625-0.023,3.087-0.8,4.458c-2.522,4.469-5.941,8.188-9.834,11.486c-0.44,0.373-0.987,1.058-1.577,0.727
			c-0.8-0.45-0.182-1.256-0.025-1.839c0.604-2.266,1.383-4.48,1.744-6.813c0.644-4.16-1.014-7.774-2.689-11.367
			c-3.084-6.607-6.594-13.022-9.128-19.874c-1.274-3.443-3.012-6.948-1.533-10.736c1.81-4.64,5.24-8.021,9.187-10.916
			c0.287-0.21,0.583-0.5,0.998-0.344C28.082,0.135,28.103,0.322,28.07,1.238z"/>
		<path fill-rule="evenodd" clip-rule="evenodd" fill="#EAEAEA" d="M49.137,55.52c-0.402-1.155,0.078-1.942,0.356-2.721
			c1.564-4.358,1.312-8.5-0.782-12.71c-2.582-5.191-5.251-10.352-7.339-15.778c-2.825-7.334-2.169-10.221,3.707-15.55
			c0.842-0.765,1.858-2.257,2.763-1.793c0.979,0.503,0.137,2.108,0.021,3.218c-0.373,3.582,0.086,6.971,1.68,10.265
			c2.633,5.441,5.209,10.914,7.708,16.422c2.318,5.108,1.658,9.372-2.243,13.309C53.165,52.04,51.538,54.122,49.137,55.52z"/>
		<path fill-rule="evenodd" clip-rule="evenodd" fill="#EAEAEA" d="M9.334,55.326c-0.375-0.91,0.068-1.671,0.345-2.375
			c1.828-4.627,1.287-8.991-0.953-13.383c-2.438-4.78-4.828-9.596-6.841-14.584c-0.07-0.172-0.14-0.344-0.207-0.515
			C-1.195,17.207-0.582,14.374,5.103,9c0.918-0.867,1.977-2.474,3.031-2.004c0.927,0.412,0.128,2.216-0.02,3.388
			c-0.493,3.944,0.425,7.559,2.153,11.099c2.842,5.816,5.815,11.575,8.019,17.694c1.181,3.277,0.87,6.094-1.321,8.826
			c-1.783,2.223-3.596,4.401-5.764,6.261C10.662,54.727,10.15,55.306,9.334,55.326z"/>
		<path fill-rule="evenodd" clip-rule="evenodd" fill="#EAEAEA" d="M99.313,31.24c0-0.555-0.014-1.11,0.003-1.666
			c0.042-1.363-0.438-3.154,2.15-2.002c0.66,0.296,1.739-1.027,2.574-0.545c1.399,0.81,2.544,0.554,3.943,0.02
			c1.383-0.527,2.695,0.551,2.808,2.124c0.114,1.598,0.03,3.208,0.04,4.813c0.004,0.72-0.354,1.276-1.033,1.299
			c-0.816,0.025-1.133-0.618-1.14-1.386c-0.009-1.172-0.01-2.346-0.004-3.518c0.002-0.721-0.053-1.477-0.991-1.438
			c-0.833,0.032-1.597,0.363-1.612,1.412c-0.016,1.048-0.01,2.1-0.007,3.147c0,0.81,0.086,1.808-1.047,1.776
			c-1.11-0.03-0.999-1.054-1.013-1.847c-0.019-0.986,0.011-1.976-0.016-2.962c-0.02-0.762-0.08-1.605-1.135-1.526
			c-0.884,0.067-1.483,0.563-1.476,1.565c0.01,1.111,0.006,2.224-0.005,3.334c-0.009,0.728-0.168,1.461-1.047,1.454
			c-0.88-0.006-1.014-0.718-0.997-1.462C99.328,32.969,99.314,32.104,99.313,31.24z"/>
		<path fill-rule="evenodd" clip-rule="evenodd" fill="#EAEAEA" d="M81.709,31.988c1.018,1.817,2.141,1.877,3.482,1.249
			c0.633-0.295,1.434-0.964,1.912-0.016c0.52,1.032-0.521,1.386-1.208,1.688c-1.682,0.739-3.352,0.782-4.865-0.46
			c-1.412-1.161-1.646-2.737-1.291-4.372c0.354-1.64,1.477-2.666,3.145-3.015c1.61-0.337,2.918,0.2,3.896,1.496
			c0.613,0.811,1.068,1.774,0.662,2.753c-0.419,1.012-1.482,0.631-2.302,0.666C84.105,32.021,83.069,31.988,81.709,31.988z
			 M83.645,30.403c0.541-0.307,1.572,0.43,1.635-0.549c0.05-0.778-0.815-1.102-1.612-1.108c-0.813-0.007-1.667,0.394-1.636,1.111
			C82.073,30.845,83.113,30.091,83.645,30.403z"/>
		<path fill-rule="evenodd" clip-rule="evenodd" fill="#EAEAEA" d="M91.327,31.988c1.03,1.828,2.153,1.873,3.487,1.243
			c0.628-0.296,1.431-0.959,1.899-0.007c0.505,1.027-0.521,1.38-1.216,1.687c-1.684,0.739-3.343,0.776-4.856-0.462
			c-1.419-1.16-1.627-2.733-1.286-4.366c0.345-1.647,1.476-2.656,3.131-3.017c1.609-0.347,2.917,0.191,3.896,1.479
			c0.613,0.81,1.063,1.773,0.669,2.753c-0.412,1.02-1.475,0.646-2.294,0.681C93.727,32.021,92.692,31.988,91.327,31.988z
			 M93.376,30.386c0.527-0.216,1.491,0.367,1.509-0.522c0.015-0.804-0.832-1.14-1.644-1.113c-0.798,0.025-1.682,0.393-1.571,1.178
			C91.794,30.791,92.813,30.136,93.376,30.386z"/>
		<path fill-rule="evenodd" clip-rule="evenodd" fill="#EAEAEA" d="M68.828,35.42c-1.015,0.034-1.958-0.198-2.809-0.762
			c-0.471-0.312-0.676-0.762-0.391-1.271c0.286-0.507,0.741-0.58,1.261-0.281c0.713,0.412,1.476,0.613,2.307,0.501
			c0.382-0.054,0.757-0.144,0.815-0.596c0.063-0.483-0.344-0.622-0.687-0.731c-0.704-0.222-1.437-0.354-2.129-0.604
			c-1.003-0.358-1.672-0.996-1.657-2.178c0.016-1.152,0.649-1.824,1.637-2.229c1.42-0.579,2.786-0.364,4.066,0.418
			c0.367,0.224,0.714,0.568,0.453,1.068c-0.229,0.433-0.636,0.592-1.103,0.425c-0.695-0.251-1.367-0.568-2.142-0.438
			c-0.392,0.064-0.74,0.205-0.752,0.641c-0.01,0.371,0.338,0.464,0.643,0.544c0.417,0.108,0.835,0.212,1.249,0.327
			c1.458,0.407,2.73,1.031,2.56,2.851C72.017,34.517,70.675,35.399,68.828,35.42z"/>
		<path fill-rule="evenodd" clip-rule="evenodd" fill="#EAEAEA" d="M120.242,35.429c-1.134-0.04-1.952-0.671-1.976-2.124
			c-0.015-0.861-0.006-1.724-0.007-2.584c-0.002-0.31-0.027-0.618,0-0.924c0.09-1.021-1.631-0.724-1.354-1.88
			c0.193-0.813,1.681-0.586,1.393-1.846c-0.138-0.608,0.326-1.027,1.002-1.037c0.608-0.011,1.041,0.434,0.948,0.905
			c-0.282,1.428,1.337,1.043,1.628,1.843c0.506,1.401-1.59,1.01-1.437,1.84c0.255,1.38-1.342,3.423,1.3,4.07
			c0.336,0.083,0.426,0.601,0.282,0.975C121.752,35.372,121.121,35.407,120.242,35.429z"/>
		<path fill-rule="evenodd" clip-rule="evenodd" fill="#EAEAEA" d="M76.651,35.423c-1.331-0.044-2.035-0.778-2.133-2.065
			c-0.066-0.86-0.021-1.729-0.024-2.594c-0.001-0.37,0.134-0.981-0.028-1.074c-2.258-1.305-0.181-2.493,0.065-3.713
			c0.104-0.518,0.385-0.912,0.978-0.944c0.694-0.037,0.979,0.404,1.127,0.992c0.016,0.059,0.034,0.129,0.016,0.183
			c-0.452,1.31,2.766,1.153,1.229,2.43c-1.021,0.847-1.294,1.511-1.212,2.604c0.076,0.998-0.497,2.336,1.322,2.445
			c0.293,0.019,0.542,0.499,0.37,0.912C78.04,35.366,77.367,35.438,76.651,35.423z"/>
		<path fill-rule="evenodd" clip-rule="evenodd" fill="#EAEAEA" d="M115.339,31.255c0,0.983-0.001,1.965,0,2.948
			c0,0.657-0.35,1.088-0.976,1.099c-0.644,0.015-0.992-0.441-0.996-1.082c-0.018-1.965-0.021-3.931-0.02-5.896
			c0.002-0.712,0.304-1.214,1.086-1.168c0.677,0.043,0.92,0.512,0.914,1.15c-0.01,0.983-0.003,1.966-0.003,2.948
			C115.344,31.255,115.341,31.255,115.339,31.255z"/>
		<path fill-rule="evenodd" clip-rule="evenodd" fill="#EAEAEA" d="M114.269,26.538c-0.668-0.045-1.126-0.451-1.13-1.141
			c-0.006-0.802,0.511-1.209,1.317-1.158c0.735,0.045,1.146,0.522,1.095,1.201C115.501,26.1,115.058,26.538,114.269,26.538z"/>
	</g>
</g>
</svg>
