<?xml version="1.0" encoding="utf-8"?>
<!-- Generator: Adobe Illustrator 16.0.0, SVG Export Plug-In . SVG Version: 6.00 Build 0)  -->
<!DOCTYPE svg PUBLIC "-//W3C//DTD SVG 1.1//EN" "http://www.w3.org/Graphics/SVG/1.1/DTD/svg11.dtd">
<svg version="1.1" id="Layer_1" xmlns="http://www.w3.org/2000/svg" xmlns:xlink="http://www.w3.org/1999/xlink" x="0px" y="0px"
	 width="134.713px" height="48.646px" viewBox="0 0 134.713 48.646" enable-background="new 0 0 134.713 48.646"
	 xml:space="preserve">
<g>
	<g>
		<path fill-rule="evenodd" clip-rule="evenodd" fill="#EAEAEA" d="M7.06,48.646c-0.63-0.496-0.621-1.188-0.509-1.867
			c0.271-1.664,1.802-2.965,3.648-3.146c0.28-0.028,0.562-0.043,0.913-0.069c-0.213-0.579-0.401-1.126-0.618-1.663
			c-0.04-0.101-0.178-0.187-0.288-0.229c-2.754-1.061-4.058-3.222-4.363-6.008c-0.283-2.587,0.451-4.886,2.449-6.672
			c0.337-0.3,0.732-0.533,1.18-0.852c-0.205-0.094-0.376-0.174-0.551-0.25c-1.952-0.853-3.721-1.967-5.117-3.605
			c-1.438-1.687-2.188-3.612-2.001-5.863C1.82,18.218,1.73,17.926,1.582,17.8c-1.773-1.516-2.101-3.837-0.758-5.579
			c1.341-1.744,3.668-2.034,5.579-0.699c0.046,0.033,0.096,0.061,0.159,0.098c3.062-1.873,6.426-2.724,9.993-2.826
			c0.363-0.01,0.436-0.201,0.516-0.463c0.692-2.203,1.387-4.407,2.083-6.611c0.258-0.815,0.458-0.925,1.293-0.729
			c1.733,0.406,3.471,0.796,5.197,1.229c0.385,0.097,0.56,0.025,0.765-0.31c0.787-1.283,2.287-1.831,3.703-1.397
			c1.374,0.42,2.344,1.765,2.299,3.185c-0.048,1.49-1.04,2.722-2.489,3.09c-1.813,0.461-3.694-0.77-3.956-2.628
			c-0.059-0.415-0.219-0.559-0.614-0.646c-1.642-0.363-3.276-0.767-4.984-1.172c-0.686,2.162-1.355,4.279-2.037,6.432
			c2.341,0.147,4.583,0.507,6.708,1.375c0.944,0.387,1.836,0.898,2.766,1.319c0.177,0.077,0.479,0.077,0.632-0.022
			c1.918-1.271,4.279-0.913,5.563,0.864c1.29,1.786,0.891,4.154-0.918,5.556c-0.139,0.107-0.284,0.328-0.272,0.484
			c0.261,3.488-1.466,5.947-4.141,7.858c-1.056,0.756-2.248,1.319-3.495,2.037c0.029,0.007,0.132,0.013,0.21,0.062
			c2.511,1.515,3.507,3.853,3.483,6.665c-0.02,2.194-0.785,4.134-2.499,5.585c-0.521,0.442-1.202,0.696-1.789,1.072
			c-0.228,0.147-0.452,0.361-0.574,0.599c-0.206,0.399-0.328,0.842-0.495,1.298c0.559,0.08,1.103,0.112,1.623,0.243
			c1.858,0.466,3.104,1.963,2.987,3.641c-0.028,0.421-0.292,0.826-0.447,1.237C20.801,48.646,13.93,48.646,7.06,48.646z
			 M17.309,10.11c-1.906-0.009-3.784,0.216-5.619,0.736c-2.614,0.743-4.999,1.893-6.83,3.976c-2.267,2.573-2.335,5.716-0.205,8.396
			c0.985,1.24,2.22,2.186,3.629,2.875c5.247,2.574,10.646,2.735,16.123,0.854c2.368-0.814,4.451-2.118,5.92-4.226
			c1.569-2.257,1.567-4.861,0.021-7.13c-0.962-1.411-2.259-2.447-3.739-3.259C23.713,10.744,20.581,10.125,17.309,10.11z
			 M10.858,28.601c-0.075,0.694-0.169,1.33-0.214,1.971c-0.277,4.011,0.022,7.957,1.441,11.756c0.62,1.664,1.435,3.218,2.783,4.434
			c0.411,0.374,0.845,0.588,1.428,0.544c0.678-0.05,1.367-0.049,2.046,0c0.563,0.041,0.979-0.166,1.378-0.523
			c1.381-1.239,2.2-2.832,2.832-4.532c1.377-3.711,1.669-7.565,1.433-11.479c-0.044-0.708-0.153-1.412-0.235-2.161
			C19.432,29.814,15.188,29.828,10.858,28.601z M24.587,40.206c2.125-1.332,2.942-3.206,2.948-5.454
			c0.006-1.922-0.656-3.592-2.29-4.967C25.567,33.348,25.394,36.716,24.587,40.206z M9.348,29.938
			c-1.564,0.964-2.48,3.51-2.159,5.883c0.27,1.99,1.607,3.858,2.793,4.203C9.215,36.704,9.054,33.353,9.348,29.938z M29.159,1.718
			c-1.063-0.002-1.925,0.849-1.928,1.904c-0.002,1.051,0.865,1.919,1.918,1.923c1.055,0.004,1.925-0.861,1.928-1.913
			C31.08,2.577,30.222,1.72,29.159,1.718z M21.246,47.271c1.853,0,3.688,0,5.632,0c-0.136-0.385-0.194-0.727-0.362-1.004
			c-0.715-1.181-2.381-1.562-3.624-1.234c-0.096,0.025-0.192,0.118-0.254,0.206C22.18,45.898,21.729,46.564,21.246,47.271z
			 M13.372,47.28c-0.481-0.704-0.91-1.346-1.358-1.976c-0.089-0.126-0.237-0.263-0.38-0.293c-1.157-0.233-2.224-0.021-3.115,0.784
			c-0.425,0.382-0.709,0.858-0.643,1.484C9.729,47.28,11.534,47.28,13.372,47.28z M32.406,16.663c1.19-1.026,1.31-2.647,0.369-3.753
			c-0.874-1.028-2.623-1.203-3.443-0.353C30.686,13.657,31.748,14.984,32.406,16.663z M5.351,12.489
			c-0.964-0.815-2.646-0.54-3.461,0.527c-0.843,1.106-0.695,2.694,0.363,3.516C2.911,14.899,4.001,13.593,5.351,12.489z"/>
		<path fill-rule="evenodd" clip-rule="evenodd" fill="#EAEAEA" d="M87.167,28.699c0-0.31,0-0.512,0-0.715
			c0.001-2.77-0.007-5.538,0.004-8.308c0.006-1.345,0.603-2.104,1.744-2.278c1.235-0.191,2.271,0.608,2.395,1.845
			c0.018,0.188,0.018,0.38,0.018,0.568c0,8.783,0.001,17.566,0,26.349c-0.003,1.405-0.755,2.267-2.024,2.332
			c-1.056,0.053-1.809-0.605-2.173-1.904c-0.036,0.005-0.086-0.006-0.104,0.014c-2.317,2.596-7.164,2.299-9.894,0.419
			c-2.394-1.649-3.646-4.001-4.18-6.784c-0.616-3.222-0.25-6.326,1.408-9.182c1.81-3.116,4.508-4.728,8.186-4.506
			C84.109,26.642,85.242,27.154,87.167,28.699z M76.847,37.208c0.003,2.174,0.362,3.859,1.281,5.399
			c0.63,1.059,1.523,1.776,2.739,2.056c2.548,0.585,4.872-0.62,5.899-3.083c0.568-1.364,0.799-2.808,0.787-4.276
			c-0.016-1.792-0.386-3.504-1.438-5.005c-1.985-2.829-5.854-2.828-7.818,0.015C77.199,33.9,76.896,35.723,76.847,37.208z"/>
		<path fill-rule="evenodd" clip-rule="evenodd" fill="#EAEAEA" d="M108.865,28.722c0-0.306,0-0.506,0-0.707
			c0-2.828,0.004-5.654-0.003-8.481c-0.001-0.849,0.299-1.523,1.075-1.919c0.756-0.385,1.51-0.323,2.217,0.127
			c0.493,0.313,0.77,0.78,0.818,1.364c0.028,0.319,0.035,0.645,0.035,0.966c0.003,8.596,0.003,17.192,0.001,25.788
			c0,0.17,0.004,0.341-0.002,0.512c-0.044,1.232-0.753,2.005-1.939,2.113c-1.063,0.095-1.962-0.639-2.193-1.79
			c-0.009-0.048-0.031-0.094-0.063-0.189c-1.801,1.913-4.058,2.215-6.462,1.859c-2.69-0.398-4.755-1.82-6.18-4.124
			c-2.704-4.368-2.301-10.805,0.888-14.652c2.197-2.65,5.731-3.766,8.86-2.681c0.872,0.304,1.64,0.912,2.449,1.391
			C108.521,28.389,108.643,28.529,108.865,28.722z M109.242,37.405c0.001-1.897-0.46-3.642-1.304-4.931
			c-1.274-1.943-3.468-2.759-5.595-2.029c-1.638,0.561-2.562,1.841-3.137,3.388c-0.789,2.119-0.903,4.297-0.332,6.483
			c0.391,1.485,0.986,2.887,2.345,3.774c2.599,1.696,6.118,0.401,7.309-2.679C109.027,40.125,109.227,38.78,109.242,37.405z"/>
		<path fill-rule="evenodd" clip-rule="evenodd" fill="#EAEAEA" d="M56.289,39.195c-0.174,2.579,1.775,4.971,4.416,5.464
			c2.359,0.438,4.471-0.146,6.37-1.578c0.349-0.262,0.695-0.531,1.071-0.746c1.206-0.689,2.366-0.041,2.445,1.354
			c0.042,0.753-0.272,1.368-0.814,1.864c-1.718,1.572-3.759,2.486-6.045,2.808c-2.927,0.41-5.686-0.024-8.034-1.979
			c-1.821-1.516-2.842-3.521-3.355-5.8c-0.828-3.677-0.174-7.119,1.963-10.18c3.948-5.653,11.959-5.076,15.294,1.035
			c0.952,1.747,1.45,3.618,1.459,5.611c0.006,1.359-0.67,2.076-2.037,2.133c-0.775,0.032-1.555,0.012-2.334,0.013
			c-3.264,0-6.527,0-9.79,0C56.693,39.195,56.488,39.195,56.289,39.195z M56.282,35.847c3.539,0,7.036,0,10.529,0
			c0.333-2.816-2.008-5.518-4.865-5.636C58.344,30.063,56.363,32.719,56.282,35.847z"/>
		<path fill-rule="evenodd" clip-rule="evenodd" fill="#EAEAEA" d="M127.438,30.403c-0.494,0-0.927,0.031-1.355-0.006
			c-1.026-0.091-1.856-0.944-1.829-1.845c0.03-1.006,0.741-1.722,1.833-1.808c0.429-0.034,0.861-0.006,1.352-0.006
			c0-1.426-0.041-2.771,0.021-4.11c0.022-0.5,0.168-1.083,0.47-1.462c0.57-0.726,1.427-0.808,2.285-0.56
			c0.836,0.243,1.321,0.813,1.358,1.692c0.036,0.91,0.026,1.821,0.035,2.73c0.005,0.529,0.001,1.058,0.001,1.651
			c0.5,0.023,0.966,0.023,1.427,0.073c1.265,0.129,1.998,1.292,1.557,2.477c-0.281,0.752-0.854,1.14-1.651,1.178
			c-0.413,0.02-0.829,0.004-1.332,0.004c0,0.26,0,0.478,0,0.696c0,5.029,0.002,10.059-0.002,15.086
			c-0.002,1.384-0.752,2.203-2.068,2.294c-0.973,0.068-1.796-0.526-2.004-1.48c-0.07-0.33-0.093-0.676-0.093-1.015
			c-0.006-4.935-0.003-9.868-0.003-14.802C127.438,30.965,127.438,30.738,127.438,30.403z"/>
		<path fill-rule="evenodd" clip-rule="evenodd" fill="#EAEAEA" d="M45.213,29.207c0.684-0.638,1.261-1.244,1.907-1.764
			c0.788-0.631,1.703-0.987,2.742-0.897c1.399,0.118,2.349,1.388,1.933,2.688c-0.132,0.41-0.474,0.864-0.847,1.063
			c-0.69,0.37-1.463,0.608-2.223,0.834c-1.98,0.588-3.055,1.946-3.392,3.929c-0.09,0.522-0.107,1.06-0.108,1.588
			c-0.011,3.264,0.002,6.527-0.014,9.79c-0.005,1.177-0.691,1.926-1.794,2.043c-1.049,0.111-2.009-0.576-2.22-1.609
			c-0.055-0.276-0.075-0.565-0.076-0.849c-0.003-5.69,0.001-11.382-0.006-17.076c-0.001-0.988,0.278-1.804,1.253-2.218
			c1.343-0.571,2.775,0.353,2.843,1.813C45.222,28.743,45.213,28.947,45.213,29.207z"/>
		<path fill-rule="evenodd" clip-rule="evenodd" fill="#EAEAEA" d="M117.041,37.429c0-2.96-0.014-5.921,0.005-8.879
			c0.009-1.436,1.255-2.388,2.582-1.995c0.819,0.24,1.312,0.801,1.444,1.651c0.033,0.205,0.039,0.415,0.039,0.623
			c0.001,5.787,0.002,11.574,0,17.36c0,1.127-0.438,1.86-1.289,2.196c-1.323,0.522-2.746-0.403-2.771-1.852
			c-0.033-2.01-0.011-4.022-0.012-6.033C117.038,39.478,117.04,38.453,117.041,37.429z"/>
		<path fill-rule="evenodd" clip-rule="evenodd" fill="#EAEAEA" d="M119.074,25.064c-2.065,0.007-3.765-1.68-3.786-3.757
			c-0.021-2.09,1.696-3.806,3.797-3.794c2.077,0.012,3.766,1.708,3.761,3.775C122.843,23.354,121.14,25.06,119.074,25.064z
			 M119.086,19.462c-1.028-0.01-1.844,0.792-1.848,1.815c-0.004,1.011,0.832,1.851,1.836,1.846c0.978-0.006,1.802-0.819,1.824-1.805
			C120.924,20.311,120.104,19.471,119.086,19.462z"/>
		<path fill-rule="evenodd" clip-rule="evenodd" fill="#EAEAEA" d="M9.801,17.273c-0.009-1.325,1.063-2.416,2.357-2.403
			c1.274,0.015,2.352,1.103,2.349,2.377c-0.001,1.298-1.051,2.345-2.35,2.349C10.841,19.599,9.808,18.582,9.801,17.273z"/>
		<path fill-rule="evenodd" clip-rule="evenodd" fill="#EAEAEA" d="M22.63,19.596c-1.315,0.002-2.346-1.017-2.354-2.325
			c-0.007-1.323,1.067-2.417,2.361-2.4c1.285,0.017,2.337,1.09,2.333,2.381C24.968,18.559,23.936,19.592,22.63,19.596z"/>
		<path fill-rule="evenodd" clip-rule="evenodd" fill="#EAEAEA" d="M17.272,25.994c-1.253-0.265-2.528-0.452-3.751-0.821
			c-0.624-0.188-1.17-0.671-1.711-1.077c-0.311-0.231-0.32-0.606-0.062-0.908c0.261-0.306,0.617-0.347,0.909-0.079
			c1.054,0.976,2.356,1.309,3.718,1.324c1.238,0.015,2.497-0.074,3.718-0.292c0.652-0.116,1.264-0.56,1.846-0.931
			c0.381-0.242,0.701-0.394,1.057-0.038c0.304,0.303,0.224,0.708-0.193,1.079c-1.098,0.979-2.442,1.334-3.855,1.495
			c-0.545,0.063-1.098,0.075-1.646,0.112C17.291,25.902,17.282,25.948,17.272,25.994z"/>
	</g>
</g>
</svg>
