<?xml version="1.0" encoding="utf-8"?>
<!-- Generator: Adobe Illustrator 16.0.0, SVG Export Plug-In . SVG Version: 6.00 Build 0)  -->
<!DOCTYPE svg PUBLIC "-//W3C//DTD SVG 1.1//EN" "http://www.w3.org/Graphics/SVG/1.1/DTD/svg11.dtd">
<svg version="1.1" id="Layer_1" xmlns="http://www.w3.org/2000/svg" xmlns:xlink="http://www.w3.org/1999/xlink" x="0px" y="0px"
	 width="115.532px" height="62.021px" viewBox="5.185 0 115.532 62.021" enable-background="new 5.185 0 115.532 62.021"
	 xml:space="preserve">
<g>
	<path fill-rule="evenodd" clip-rule="evenodd" fill="#EAEAEA" d="M109.03,22.805c0-0.209,0-0.419,0-0.632
		c-0.082,0.077-0.165,0.153-0.246,0.23C108.865,22.537,108.948,22.671,109.03,22.805z"/>
	<path fill-rule="evenodd" clip-rule="evenodd" fill="#EAEAEA" d="M67.265,20.388c13.432,0.025,26.865,0.017,40.298,0.021
		c0.445,0,0.891,0.043,1.468,0.074c0,0.621,0,1.166,0,1.69c3.836-3.581,7.675-7.166,11.687-10.911
		c-4.06-3.868-7.93-7.555-11.82-11.262c0,0.72,0,1.542,0,2.443c-0.688,0-1.236,0-1.784,0c-16.865,0-33.73,0.006-50.595-0.018
		c-0.856-0.001-1.358,0.253-1.842,0.981c-4.663,7.016-9.37,14.004-14.068,20.998c-0.241,0.36-0.512,0.7-0.836,1.141
		C34.7,18.094,29.737,10.822,24.813,3.524c-0.458-0.679-0.922-0.933-1.738-0.927C17.524,2.634,11.973,2.616,6.422,2.616
		c-0.407,0-0.814,0-1.237,0c0,19.872,0,39.557,0,59.316c6.362,0,12.645,0,19.039,0c0-8.04,0-15.989,0-23.938
		c0.103-0.026,0.206-0.054,0.308-0.08c4.878,7.702,9.756,15.404,14.707,23.224c0.311-0.429,0.538-0.718,0.74-1.024
		c8.49-12.909,16.983-25.815,25.446-38.742C65.903,20.642,66.407,20.386,67.265,20.388z"/>
	<path fill-rule="evenodd" clip-rule="evenodd" fill="#EAEAEA" d="M70.354,24.187c-0.509,0.001-1.207,0.398-1.495,0.827
		c-3.523,5.232-7,10.496-10.445,15.781c-0.342,0.525-0.551,1.238-0.557,1.868c-0.045,4.787-0.025,9.576-0.025,14.364
		c0,1.603,0,3.205,0,4.994c17.329,0,34.468,0,51.608,0c0-5.58,0-11.065,0-16.67c-12.057,0-24.027,0-36.034,0
		c0-1.369,0-2.618,0-4.047c12.07,0,24.069,0,36.036,0c0-5.8,0-11.419,0-17.075c-0.371-0.03-0.661-0.075-0.95-0.075
		C95.78,24.151,83.067,24.142,70.354,24.187z"/>
</g>
</svg>
