<?xml version="1.0" encoding="utf-8"?>
<!-- Generator: Adobe Illustrator 16.0.0, SVG Export Plug-In . SVG Version: 6.00 Build 0)  -->
<!DOCTYPE svg PUBLIC "-//W3C//DTD SVG 1.1//EN" "http://www.w3.org/Graphics/SVG/1.1/DTD/svg11.dtd">
<svg version="1.1" id="Layer_1" xmlns="http://www.w3.org/2000/svg" xmlns:xlink="http://www.w3.org/1999/xlink" x="0px" y="0px"
	 width="38.391px" height="38.38px" viewBox="35.538 1.663 38.391 38.38" enable-background="new 35.538 1.663 38.391 38.38"
	 xml:space="preserve">
<g>
	<g>
		<path fill="#EAEAEA" d="M73.929,20.784c0.019,10.818-8.78,19.275-19.166,19.259c-10.602-0.013-19.22-8.585-19.225-19.157
			c-0.003-10.61,8.556-19.202,19.148-19.223C65.307,1.64,73.908,10.188,73.929,20.784z M37.221,20.833
			c-0.008,9.705,8.001,17.51,17.503,17.501c9.636-0.008,17.497-7.82,17.509-17.425c0.012-9.683-7.845-17.608-17.486-17.565
			C44.951,3.386,37.228,11.344,37.221,20.833z"/>
		<path fill="#EAEAEA" d="M40.999,20.777c-0.092-6.779,5.167-12.822,11.935-13.566c4.418-0.486,8.357,0.678,11.542,3.895
			c2.711,2.737,4.066,6.067,4.044,9.925c-0.045,7.525-6.335,13.67-13.902,13.607C47.04,34.576,40.96,28.39,40.999,20.777z
			 M60.469,19.985c1.542-1.002,2.097-2.353,1.744-3.979c-0.326-1.518-1.577-2.162-2.902-2.632c-0.472-0.169-0.973-0.276-1.471-0.327
			c-0.619-0.061-0.895-0.3-0.84-0.959c0.055-0.643-0.021-1.297,0.022-1.943c0.043-0.59-0.205-0.723-0.75-0.732
			c-1.341-0.026-1.339-0.055-1.339,1.318c0,0.396-0.007,0.79,0.001,1.188c0.01,0.51,0.098,0.97-0.72,0.976
			c-0.799,0.009-0.886-0.346-0.843-0.973c0.034-0.537-0.051-1.089,0.021-1.618c0.113-0.874-0.371-0.917-1.026-0.891
			c-0.588,0.024-1.185-0.104-1.072,0.843c0.075,0.64-0.011,1.298,0.021,1.943c0.028,0.523-0.188,0.688-0.692,0.674
			c-0.973-0.027-1.946-0.016-2.919-0.005c-0.267,0.005-0.57-0.09-0.723,0.292c-0.417,1.048,0.095,1.837,1.225,1.85
			c1.354,0.016,1.496,0.153,1.497,1.479c0.004,2.847,0.004,5.695,0,8.541c-0.001,1.364-0.12,1.466-1.476,1.509
			c-0.356,0.011-0.819-0.207-1.027,0.324c-0.448,1.149,0.038,1.905,1.228,1.907c0.144,0,0.288,0,0.433,0
			c2.433,0,2.464,0,2.431,2.472c-0.012,0.772,0.141,1.056,0.991,1.063c0.914,0.007,1.228-0.271,1.106-1.154
			c-0.056-0.389,0.011-0.792-0.016-1.188c-0.034-0.599-0.003-1.011,0.824-0.996c0.797,0.017,0.752,0.446,0.737,0.972
			c-0.013,0.508,0.051,1.02-0.015,1.515c-0.111,0.842,0.387,0.857,0.978,0.82c0.536-0.034,1.208,0.215,1.129-0.782
			c-0.065-0.825-0.293-1.849,0.091-2.436c0.436-0.669,1.578-0.316,2.401-0.488c2.209-0.461,3.593-1.861,3.829-3.969
			C63.607,22.303,62.879,21.098,60.469,19.985z"/>
		<path fill="#EAEAEA" d="M53.38,23.973c0-2.342,0-2.353,2.353-2.322c0.607,0.006,1.229,0.027,1.814,0.167
			c0.914,0.223,1.684,0.654,1.734,1.768c0.054,1.168-0.481,2.057-1.549,2.448c-1.286,0.473-2.634,0.236-3.954,0.271
			c-0.426,0.014-0.398-0.319-0.398-0.608C53.379,25.122,53.38,24.548,53.38,23.973z"/>
		<path fill="#EAEAEA" d="M53.38,17.226c0.106-0.602-0.349-1.697,0.188-1.924c0.95-0.401,2.115-0.23,3.161,0.072
			c1.583,0.458,2.055,2.16,0.967,3.404c-0.366,0.42-0.825,0.683-1.393,0.722c-0.25,0.017-0.5,0.007-0.751,0.007
			C53.38,19.51,53.38,19.51,53.38,17.226z"/>
	</g>
</g>
</svg>
