<?xml version="1.0" encoding="utf-8"?>
<!-- Generator: Adobe Illustrator 16.0.0, SVG Export Plug-In . SVG Version: 6.00 Build 0)  -->
<!DOCTYPE svg PUBLIC "-//W3C//DTD SVG 1.1//EN" "http://www.w3.org/Graphics/SVG/1.1/DTD/svg11.dtd">
<svg version="1.1" xmlns="http://www.w3.org/2000/svg" xmlns:xlink="http://www.w3.org/1999/xlink" x="0px" y="0px" width="230px"
	 height="310.498px" viewBox="32.235 2.459 230 310.498" enable-background="new 32.235 2.459 230 310.498" xml:space="preserve">
<g id="Layer_1">
	<g id="Layer_1_1_">
	</g>
</g>
<g id="Capa_1_2_">
	<g>
		<g>
			<g>
				<g>
					<path fill="#FFFFFF" d="M121.148,6.871c0-2.443,1.845-4.411,4.448-4.411c1.576,0,2.958,0.807,3.666,2.053l-0.575,0.33
						c-0.562-1.052-1.749-1.76-3.091-1.76c-2.249,0-3.802,1.687-3.802,3.788s1.553,3.789,3.802,3.789
						c1.355,0,2.553-0.722,3.115-1.796l0.575,0.329c-0.697,1.259-2.09,2.09-3.69,2.09C122.993,11.283,121.148,9.314,121.148,6.871z"
						/>
					<path fill="#FFFFFF" d="M134.962,8.972h-4.288l-0.832,2.175h-0.685l3.323-8.553h0.685l3.311,8.553h-0.684L134.962,8.972z
						 M134.731,8.361l-1.906-4.974l-1.906,4.974H134.731z"/>
					<path fill="#FFFFFF" d="M142.523,5.246c0,1.503-1.124,2.639-2.665,2.639h-2.26v3.263h-0.648V2.595h2.908
						C141.399,2.595,142.523,3.73,142.523,5.246z M141.876,5.246c0-1.185-0.845-2.041-2.018-2.041h-2.26v4.069h2.26
						C141.032,7.274,141.876,6.418,141.876,5.246z"/>
					<path fill="#FFFFFF" d="M142.837,9.267l0.562-0.331c0.293,1.026,1.161,1.722,2.565,1.722c1.431,0,2.151-0.732,2.151-1.71
						c0-1.025-0.905-1.417-2.21-1.833c-1.432-0.464-2.715-0.867-2.715-2.359c0-1.404,1.138-2.296,2.59-2.296
						c1.405,0,2.334,0.807,2.75,1.796l-0.55,0.306c-0.318-0.769-0.977-1.479-2.2-1.479c-1.186,0-1.931,0.698-1.931,1.65
						c0,1.025,0.868,1.344,2.09,1.748c1.515,0.5,2.834,0.977,2.834,2.456c0,1.416-1.112,2.346-2.81,2.346
						C144.364,11.283,143.229,10.475,142.837,9.267z"/>
				</g>
			</g>
			<g>
				<g>
					<g>
						<path fill="#FFFFFF" d="M51.673,114.082l1.806-1.047c0.328,0.759,0.89,1.271,1.924,1.271c0.995,0,1.244-0.394,1.244-0.748
							c0-0.561-0.524-0.784-1.898-1.165c-1.361-0.377-2.695-1.031-2.695-2.785c0-1.768,1.491-2.788,3.076-2.788
							c1.504,0,2.682,0.72,3.349,2.067l-1.767,1.034c-0.314-0.654-0.746-1.059-1.583-1.059c-0.656,0-0.983,0.326-0.983,0.693
							c0,0.418,0.223,0.707,1.65,1.139c1.386,0.417,2.944,0.903,2.944,2.839c0,1.766-1.414,2.813-3.403,2.813
							C53.413,116.347,52.183,115.429,51.673,114.082z"/>
						<path fill="#FFFFFF" d="M59.394,111.582c0-2.695,2.131-4.762,4.763-4.762c2.63,0,4.763,2.067,4.763,4.762
							c0,2.695-2.133,4.763-4.763,4.763C61.525,116.347,59.394,114.277,59.394,111.582z M66.826,111.582
							c0-1.635-1.178-2.722-2.668-2.722c-1.493,0-2.669,1.086-2.669,2.722c0,1.638,1.177,2.724,2.669,2.724
							C65.648,114.305,66.826,113.219,66.826,111.582z"/>
						<path fill="#FFFFFF" d="M72.19,109.02v1.764h3.404v2.016H72.19v3.364h-2.094v-9.161h5.561v2.017H72.19z"/>
						<path fill="#FFFFFF" d="M83.049,109.02h-2.354v7.144h-2.094v-7.144h-2.354v-2.017h6.802V109.02L83.049,109.02z"/>
						<path fill="#FFFFFF" d="M86.846,111.582c0-2.695,2.003-4.762,4.763-4.762c1.661,0,3.126,0.825,3.924,2.119l-1.806,1.047
							c-0.404-0.706-1.189-1.126-2.118-1.126c-1.622,0-2.669,1.086-2.669,2.722c0,1.638,1.047,2.724,2.669,2.724
							c0.929,0,1.727-0.42,2.118-1.126l1.806,1.045c-0.785,1.295-2.25,2.12-3.924,2.12
							C88.849,116.347,86.846,114.277,86.846,111.582z"/>
						<path fill="#FFFFFF" d="M102.01,114.723h-3.401l-0.457,1.44h-2.291l3.114-9.161h2.669l3.113,9.161h-2.288L102.01,114.723z
							 M101.383,112.762l-1.074-3.364l-1.073,3.364H101.383z"/>
						<path fill="#FFFFFF" d="M112.218,110.144c0,1.74-1.401,3.141-3.207,3.141h-1.373v2.878h-2.094v-9.161h3.467
							C110.817,107.002,112.218,108.404,112.218,110.144z M110.124,110.144c0-0.667-0.473-1.179-1.113-1.179h-1.373v2.357h1.373
							C109.653,111.322,110.124,110.81,110.124,110.144z"/>
					</g>
				</g>
				<g>
					<g>
						<path fill="#FFFFFF" d="M46.262,129.659c0,1.746-1.361,2.656-2.892,2.656c-1.258,0-2.348-0.534-2.833-1.701l1.565-0.909
							c0.181,0.522,0.52,0.841,1.269,0.841c0.749,0,1.078-0.398,1.078-0.885c0-0.488-0.329-0.885-1.021-0.885h-2.484l0.33-4.558
							h4.593v1.698h-2.892l-0.079,1.091h0.646C45.016,127.007,46.262,127.913,46.262,129.659z"/>
						<path fill="#FFFFFF" d="M49.608,124.216v7.939h-1.814v-6.022l-1.406,0.387l-0.443-1.557l2.077-0.748H49.608L49.608,124.216z"
							/>
						<path fill="#FFFFFF" d="M52.148,128.186c0-2.451,1.179-4.127,3.231-4.127c2.054,0,3.232,1.676,3.232,4.127
							s-1.179,4.129-3.232,4.129C53.327,132.315,52.148,130.636,52.148,128.186z M56.797,128.186c0-1.53-0.465-2.358-1.418-2.358
							c-0.952,0-1.417,0.828-1.417,2.358c0,1.532,0.466,2.361,1.417,2.361C56.332,130.544,56.797,129.716,56.797,128.186z"/>
						<path fill="#FFFFFF" d="M58.578,128.186c0-2.451,1.179-4.127,3.231-4.127c2.053,0,3.233,1.676,3.233,4.127
							s-1.181,4.129-3.233,4.129C59.757,132.315,58.578,130.636,58.578,128.186z M63.228,128.186c0-1.53-0.466-2.358-1.419-2.358
							c-0.951,0-1.416,0.828-1.416,2.358c0,1.532,0.465,2.361,1.416,2.361C62.762,130.544,63.228,129.716,63.228,128.186z"/>
						<path fill="#FFFFFF" d="M65.007,128.186c0-2.451,1.178-4.127,3.231-4.127c2.053,0,3.233,1.676,3.233,4.127
							s-1.18,4.129-3.233,4.129C66.186,132.315,65.007,130.636,65.007,128.186z M69.656,128.186c0-1.53-0.464-2.358-1.418-2.358
							c-0.952,0-1.417,0.828-1.417,2.358c0,1.532,0.464,2.361,1.417,2.361C69.192,130.544,69.656,129.716,69.656,128.186z"/>
						<path fill="#FFFFFF" d="M73.559,128.186c0-2.451,1.179-4.127,3.23-4.127c2.055,0,3.233,1.676,3.233,4.127
							s-1.179,4.129-3.233,4.129C74.738,132.315,73.559,130.636,73.559,128.186z M78.208,128.186c0-1.53-0.466-2.358-1.419-2.358
							c-0.952,0-1.416,0.828-1.416,2.358c0,1.532,0.466,2.361,1.416,2.361C77.742,130.544,78.208,129.716,78.208,128.186z"/>
						<path fill="#FFFFFF" d="M79.987,128.186c0-2.451,1.181-4.127,3.233-4.127s3.232,1.676,3.232,4.127s-1.18,4.129-3.232,4.129
							S79.987,130.636,79.987,128.186z M84.637,128.186c0-1.53-0.465-2.358-1.417-2.358c-0.954,0-1.417,0.828-1.417,2.358
							c0,1.532,0.463,2.361,1.417,2.361C84.172,130.544,84.637,129.716,84.637,128.186z"/>
						<path fill="#FFFFFF" d="M86.418,128.186c0-2.451,1.179-4.127,3.231-4.127c2.054,0,3.232,1.676,3.232,4.127
							s-1.179,4.129-3.232,4.129C87.597,132.315,86.418,130.636,86.418,128.186z M91.067,128.186c0-1.53-0.465-2.358-1.416-2.358
							c-0.954,0-1.419,0.828-1.419,2.358c0,1.532,0.466,2.361,1.419,2.361C90.602,130.544,91.067,129.716,91.067,128.186z"/>
						<path fill="#FFFFFF" d="M97.502,129.405c0-1.57,1.248-2.833,2.835-2.833c1.587,0,2.835,1.263,2.835,2.833
							c0,1.571-1.249,2.835-2.835,2.835C98.75,132.24,97.502,130.977,97.502,129.405z M102.757,129.405
							c0-1.349-1.06-2.433-2.419-2.433c-1.358,0-2.419,1.084-2.419,2.433c0,1.351,1.061,2.435,2.419,2.435
							C101.697,131.84,102.757,130.756,102.757,129.405z"/>
						<path fill="#FFFFFF" d="M104.144,127.051v2.197h2.539v0.393h-2.539v2.514h-0.415v-5.497h3.048v0.394H104.144z"/>
						<path fill="#FFFFFF" d="M106.987,129.405c0-1.57,1.186-2.833,2.86-2.833c1.012,0,1.899,0.519,2.354,1.318l-0.368,0.212
							c-0.361-0.675-1.122-1.13-1.987-1.13c-1.446,0-2.442,1.084-2.442,2.435c0,1.351,0.997,2.433,2.442,2.433
							c0.872,0,1.641-0.463,2.002-1.154l0.37,0.212c-0.448,0.809-1.343,1.345-2.372,1.345
							C108.173,132.24,106.987,130.977,106.987,129.405z"/>
					</g>
				</g>
			</g>
			<g>
				<g>
					<g>
						<path fill="#FFFFFF" d="M44.568,179.98c0,1.74-1.399,3.14-3.205,3.14h-1.375v2.878h-2.093v-9.16h3.468
							C43.168,176.839,44.568,178.24,44.568,179.98z M42.474,179.98c0-0.668-0.47-1.178-1.111-1.178h-1.374v2.355h1.374
							C42.004,181.157,42.474,180.646,42.474,179.98z"/>
						<path fill="#FFFFFF" d="M45.223,181.418c0-2.695,2.132-4.762,4.762-4.762s4.763,2.067,4.763,4.762
							c0,2.695-2.133,4.764-4.763,4.764S45.223,184.113,45.223,181.418z M52.655,181.418c0-1.635-1.177-2.721-2.67-2.721
							c-1.492,0-2.669,1.085-2.669,2.721c0,1.637,1.177,2.723,2.669,2.723C51.478,184.141,52.655,183.055,52.655,181.418z"/>
						<path fill="#FFFFFF" d="M55.272,176.839h2.198l1.584,6.412l1.766-6.412h1.701l1.767,6.412l1.582-6.412h2.199l-2.526,9.16
							h-2.381l-1.491-5.403l-1.493,5.403h-2.38L55.272,176.839z"/>
						<path fill="#FFFFFF" d="M74.742,183.985v2.014h-5.757v-9.16h5.692v2.016h-3.598v1.517h3.272v1.99h-3.272v1.623H74.742z"/>
						<path fill="#FFFFFF" d="M79.006,182.989h-0.992v3.009H75.92v-9.16h3.663c1.74,0,3.14,1.401,3.14,3.141
							c0,1.125-0.68,2.146-1.688,2.656l1.95,3.363h-2.249L79.006,182.989z M78.014,181.157h1.569c0.575,0,1.047-0.511,1.047-1.177
							c0-0.668-0.472-1.178-1.047-1.178h-1.569V181.157z"/>
						<path fill="#FFFFFF" d="M86.845,181.418c0-2.695,2.003-4.762,4.763-4.762c1.661,0,3.127,0.824,3.926,2.119l-1.807,1.046
							c-0.405-0.706-1.19-1.125-2.119-1.125c-1.623,0-2.669,1.085-2.669,2.721c0,1.637,1.046,2.723,2.669,2.723
							c0.929,0,1.727-0.42,2.119-1.126l1.807,1.046c-0.786,1.295-2.251,2.121-3.926,2.121
							C88.848,186.183,86.845,184.113,86.845,181.418z"/>
						<path fill="#FFFFFF" d="M102.011,184.56h-3.402l-0.458,1.439h-2.289l3.112-9.16h2.67l3.114,9.16h-2.288L102.011,184.56z
							 M101.384,182.598l-1.074-3.363l-1.073,3.363H101.384z"/>
						<path fill="#FFFFFF" d="M112.218,179.98c0,1.74-1.4,3.14-3.205,3.14h-1.375v2.878h-2.095v-9.16h3.47
							C110.818,176.839,112.218,178.24,112.218,179.98z M110.125,179.98c0-0.668-0.473-1.178-1.112-1.178h-1.375v2.355h1.375
							C109.652,181.157,110.125,180.646,110.125,179.98z"/>
					</g>
				</g>
				<g>
					<g>
						<path fill="#FFFFFF" d="M32.314,200.676l2.665-2.767c0.465-0.477,0.804-0.941,0.804-1.406c0-0.5-0.317-0.839-0.849-0.839
							c-0.556,0-0.952,0.363-1.168,0.861l-1.53-0.895c0.51-1.181,1.576-1.735,2.676-1.735c1.418,0,2.687,0.929,2.687,2.53
							c0,0.951-0.511,1.769-1.236,2.494l-1.315,1.327h2.666v1.747h-5.399V200.676L32.314,200.676z"/>
						<path fill="#FFFFFF" d="M37.735,198.022c0-2.451,1.179-4.129,3.231-4.129c2.054,0,3.232,1.678,3.232,4.129
							c0,2.449-1.179,4.128-3.232,4.128C38.915,202.15,37.735,200.471,37.735,198.022z M42.385,198.022
							c0-1.532-0.466-2.359-1.419-2.359s-1.416,0.827-1.416,2.359c0,1.531,0.463,2.359,1.416,2.359
							C41.919,200.381,42.385,199.552,42.385,198.022z"/>
						<path fill="#FFFFFF" d="M50.289,200.721h-0.793v1.27h-1.839v-1.27H44.05v-1.678l2.529-4.99h1.951l-2.529,4.99h1.655v-1.701
							h1.838v1.701h0.793v1.678H50.289z"/>
						<path fill="#FFFFFF" d="M52.149,198.022c0-2.451,1.178-4.129,3.231-4.129c2.054,0,3.231,1.678,3.231,4.129
							c0,2.449-1.179,4.128-3.231,4.128S52.149,200.471,52.149,198.022z M56.798,198.022c0-1.532-0.465-2.359-1.418-2.359
							c-0.951,0-1.417,0.827-1.417,2.359c0,1.531,0.465,2.359,1.417,2.359C56.333,200.382,56.798,199.552,56.798,198.022z"/>
						<path fill="#FFFFFF" d="M58.578,198.022c0-2.451,1.18-4.129,3.231-4.129c2.053,0,3.232,1.678,3.232,4.129
							c0,2.449-1.18,4.128-3.232,4.128C59.758,202.15,58.578,200.471,58.578,198.022z M63.228,198.022
							c0-1.532-0.464-2.359-1.417-2.359c-0.953,0-1.417,0.827-1.417,2.359c0,1.531,0.464,2.359,1.417,2.359
							C62.764,200.382,63.228,199.552,63.228,198.022z"/>
						<path fill="#FFFFFF" d="M65.008,198.022c0-2.451,1.179-4.129,3.231-4.129c2.052,0,3.233,1.678,3.233,4.129
							c0,2.449-1.181,4.128-3.233,4.128C66.188,202.15,65.008,200.471,65.008,198.022z M69.658,198.022
							c0-1.532-0.465-2.359-1.417-2.359s-1.417,0.827-1.417,2.359c0,1.531,0.465,2.359,1.417,2.359
							C69.192,200.381,69.658,199.552,69.658,198.022z"/>
						<path fill="#FFFFFF" d="M73.559,198.022c0-2.451,1.179-4.129,3.231-4.129c2.053,0,3.233,1.678,3.233,4.129
							c0,2.449-1.181,4.128-3.233,4.128C74.738,202.15,73.559,200.471,73.559,198.022z M78.209,198.022
							c0-1.532-0.466-2.359-1.419-2.359c-0.953,0-1.417,0.827-1.417,2.359c0,1.531,0.464,2.359,1.417,2.359
							C77.744,200.381,78.209,199.552,78.209,198.022z"/>
						<path fill="#FFFFFF" d="M79.988,198.022c0-2.451,1.18-4.129,3.231-4.129c2.054,0,3.233,1.678,3.233,4.129
							c0,2.449-1.18,4.128-3.233,4.128C81.168,202.15,79.988,200.471,79.988,198.022z M84.637,198.022
							c0-1.532-0.464-2.359-1.417-2.359c-0.952,0-1.417,0.827-1.417,2.359c0,1.531,0.464,2.359,1.417,2.359
							C84.173,200.382,84.637,199.552,84.637,198.022z"/>
						<path fill="#FFFFFF" d="M86.419,198.022c0-2.451,1.178-4.129,3.231-4.129s3.232,1.678,3.232,4.129
							c0,2.449-1.18,4.128-3.232,4.128C87.597,202.15,86.419,200.471,86.419,198.022z M91.067,198.022
							c0-1.532-0.464-2.359-1.417-2.359c-0.952,0-1.417,0.827-1.417,2.359c0,1.531,0.466,2.359,1.417,2.359
							C90.603,200.381,91.067,199.552,91.067,198.022z"/>
						<path fill="#FFFFFF" d="M97.504,199.242c0-1.569,1.248-2.834,2.835-2.834c1.587,0,2.834,1.265,2.834,2.834
							c0,1.572-1.248,2.835-2.834,2.835C98.751,202.077,97.504,200.814,97.504,199.242z M102.757,199.242
							c0-1.35-1.059-2.434-2.418-2.434c-1.359,0-2.418,1.084-2.418,2.434c0,1.351,1.059,2.434,2.418,2.434
							C101.698,201.676,102.757,200.593,102.757,199.242z"/>
						<path fill="#FFFFFF" d="M104.146,196.887v2.198h2.536v0.394h-2.536v2.512h-0.417v-5.498h3.047v0.394H104.146z"/>
						<path fill="#FFFFFF" d="M106.988,199.242c0-1.569,1.185-2.834,2.859-2.834c1.013,0,1.9,0.518,2.354,1.319l-0.368,0.212
							c-0.361-0.677-1.122-1.13-1.986-1.13c-1.445,0-2.443,1.083-2.443,2.434c0,1.351,0.998,2.434,2.443,2.434
							c0.872,0,1.64-0.463,2.001-1.154l0.37,0.212c-0.446,0.809-1.341,1.343-2.37,1.343
							C108.173,202.077,106.988,200.814,106.988,199.242z"/>
					</g>
				</g>
			</g>
			<g>
				<g>
					<g>
						<path fill="#FFFFFF" d="M56.163,246.473v9.16h-2.094v-3.639h-2.877v3.639h-2.093v-9.16h2.093v3.508h2.877v-3.508H56.163z"/>
						<path fill="#FFFFFF" d="M63.099,254.194h-3.402l-0.458,1.439h-2.291l3.115-9.16h2.67l3.114,9.16h-2.291L63.099,254.194z
							 M62.472,252.231l-1.075-3.363l-1.071,3.363H62.472z"/>
						<path fill="#FFFFFF" d="M69.72,252.624h-0.995v3.01h-2.094v-9.16h3.664c1.741,0,3.141,1.402,3.141,3.141
							c0,1.125-0.68,2.146-1.688,2.656l1.949,3.363h-2.25L69.72,252.624z M68.725,250.792h1.57c0.576,0,1.047-0.512,1.047-1.178
							c0-0.668-0.471-1.178-1.047-1.178h-1.57V250.792z"/>
						<path fill="#FFFFFF" d="M82.792,251.053c0,2.59-1.924,4.58-4.448,4.58H74.68v-9.16h3.664
							C80.868,246.473,82.792,248.461,82.792,251.053z M80.777,251.053c0-1.57-0.995-2.564-2.433-2.564h-1.572v5.129h1.572
							C79.782,253.618,80.777,252.624,80.777,251.053z"/>
						<path fill="#FFFFFF" d="M86.849,251.053c0-2.695,2.002-4.762,4.763-4.762c1.661,0,3.126,0.822,3.924,2.119l-1.806,1.045
							c-0.404-0.707-1.189-1.125-2.119-1.125c-1.624,0-2.668,1.086-2.668,2.723c0,1.635,1.044,2.723,2.668,2.723
							c0.929,0,1.725-0.42,2.119-1.127l1.806,1.047c-0.785,1.295-2.252,2.121-3.924,2.121
							C88.851,255.817,86.849,253.747,86.849,251.053z"/>
						<path fill="#FFFFFF" d="M102.014,254.194h-3.403l-0.457,1.439h-2.291l3.115-9.16h2.668l3.116,9.16h-2.291L102.014,254.194z
							 M101.385,252.231l-1.074-3.363l-1.071,3.363H101.385z"/>
						<path fill="#FFFFFF" d="M112.218,249.614c0,1.742-1.397,3.141-3.202,3.141h-1.375v2.879h-2.094v-9.16h3.468
							C110.821,246.473,112.218,247.875,112.218,249.614z M110.126,249.614c0-0.668-0.47-1.178-1.11-1.178h-1.375v2.355h1.375
							C109.656,250.792,110.126,250.28,110.126,249.614z"/>
					</g>
				</g>
				<g>
					<g>
						<path fill="#FFFFFF" d="M39.83,269.129c0,1.748-1.359,2.656-2.892,2.656c-1.261,0-2.348-0.533-2.835-1.701l1.565-0.908
							c0.181,0.521,0.522,0.84,1.27,0.84c0.748,0,1.078-0.396,1.078-0.885c0-0.486-0.33-0.885-1.021-0.885h-2.483l0.328-4.559h4.593
							v1.699h-2.892l-0.079,1.09h0.647C38.583,266.477,39.83,267.383,39.83,269.129z"/>
						<path fill="#FFFFFF" d="M43.175,263.688v7.936h-1.814v-6.02l-1.406,0.387l-0.441-1.557l2.074-0.746H43.175L43.175,263.688z"/>
						<path fill="#FFFFFF" d="M43.597,267.657c0-2.451,1.18-4.127,3.231-4.127c2.052,0,3.233,1.676,3.233,4.127
							c0,2.449-1.181,4.129-3.233,4.129C44.776,271.786,43.597,270.106,43.597,267.657z M48.245,267.657
							c0-1.531-0.465-2.359-1.417-2.359c-0.954,0-1.417,0.828-1.417,2.359s0.464,2.359,1.417,2.359
							C47.78,270.014,48.245,269.186,48.245,267.657z"/>
						<path fill="#FFFFFF" d="M52.147,267.657c0-2.451,1.179-4.127,3.232-4.127c2.052,0,3.231,1.676,3.231,4.127
							c0,2.449-1.179,4.129-3.231,4.129C53.326,271.786,52.147,270.106,52.147,267.657z M56.796,267.657
							c0-1.531-0.464-2.359-1.417-2.359s-1.417,0.828-1.417,2.359s0.464,2.359,1.417,2.359S56.796,269.186,56.796,267.657z"/>
						<path fill="#FFFFFF" d="M58.577,267.657c0-2.451,1.179-4.127,3.23-4.127c2.052,0,3.233,1.676,3.233,4.127
							c0,2.449-1.181,4.129-3.233,4.129C59.756,271.786,58.577,270.106,58.577,267.657z M63.226,267.657
							c0-1.531-0.466-2.359-1.418-2.359c-0.953,0-1.416,0.828-1.416,2.359s0.464,2.359,1.416,2.359
							C62.76,270.014,63.226,269.186,63.226,267.657z"/>
						<path fill="#FFFFFF" d="M65.006,267.657c0-2.451,1.179-4.127,3.232-4.127c2.052,0,3.23,1.676,3.23,4.127
							c0,2.449-1.179,4.129-3.23,4.129C66.186,271.786,65.006,270.106,65.006,267.657z M69.655,267.657
							c0-1.531-0.464-2.359-1.417-2.359c-0.953,0-1.417,0.828-1.417,2.359s0.463,2.359,1.417,2.359
							C69.191,270.014,69.655,269.186,69.655,267.657z"/>
						<path fill="#FFFFFF" d="M73.556,267.657c0-2.451,1.18-4.127,3.232-4.127c2.054,0,3.232,1.676,3.232,4.127
							c0,2.449-1.178,4.129-3.232,4.129C74.736,271.786,73.556,270.106,73.556,267.657z M78.205,267.657
							c0-1.531-0.465-2.359-1.417-2.359s-1.417,0.828-1.417,2.359s0.465,2.359,1.417,2.359
							C77.74,270.014,78.205,269.186,78.205,267.657z"/>
						<path fill="#FFFFFF" d="M79.987,267.657c0-2.451,1.178-4.127,3.231-4.127c2.054,0,3.23,1.676,3.23,4.127
							c0,2.449-1.178,4.129-3.23,4.129C81.165,271.786,79.987,270.106,79.987,267.657z M84.636,267.657
							c0-1.531-0.465-2.359-1.418-2.359c-0.954,0-1.417,0.828-1.417,2.359s0.465,2.359,1.417,2.359
							C84.171,270.014,84.636,269.186,84.636,267.657z"/>
						<path fill="#FFFFFF" d="M86.418,267.657c0-2.451,1.178-4.127,3.231-4.127s3.23,1.676,3.23,4.127
							c0,2.449-1.178,4.129-3.23,4.129S86.418,270.106,86.418,267.657z M91.065,267.657c0-1.531-0.466-2.359-1.417-2.359
							c-0.954,0-1.417,0.828-1.417,2.359s0.463,2.359,1.417,2.359C90.602,270.014,91.065,269.186,91.065,267.657z"/>
						<path fill="#FFFFFF" d="M97.5,268.877c0-1.57,1.25-2.836,2.835-2.836c1.587,0,2.837,1.266,2.837,2.836
							s-1.25,2.834-2.837,2.834C98.75,271.711,97.5,270.448,97.5,268.877z M102.755,268.877c0-1.35-1.061-2.434-2.419-2.434
							c-1.358,0-2.418,1.084-2.418,2.434s1.06,2.434,2.418,2.434C101.695,271.311,102.755,270.227,102.755,268.877z"/>
						<path fill="#FFFFFF" d="M104.143,266.52v2.199h2.536v0.393h-2.536v2.512h-0.417v-5.496h3.05v0.393H104.143z"/>
						<path fill="#FFFFFF" d="M106.987,268.877c0-1.57,1.185-2.836,2.857-2.836c1.014,0,1.901,0.52,2.356,1.32l-0.369,0.211
							c-0.36-0.676-1.124-1.129-1.987-1.129c-1.445,0-2.441,1.084-2.441,2.434c0,1.352,0.997,2.434,2.441,2.434
							c0.873,0,1.642-0.463,2.002-1.154l0.372,0.213c-0.448,0.809-1.344,1.344-2.371,1.344
							C108.172,271.711,106.987,270.448,106.987,268.877z"/>
					</g>
				</g>
			</g>
			<g>
				<g>
					<g>
						<path fill="#FFFFFF" d="M69.966,45.928h-2.094v-5.325l-2.368,3.886H65.27l-2.37-3.886v5.325h-2.091v-9.16H62.9l2.488,4.07
							l2.485-4.07h2.094V45.928z"/>
						<path fill="#FFFFFF" d="M73.631,36.768v9.16h-2.094v-9.16H73.631z"/>
						<path fill="#FFFFFF" d="M82.398,36.768v9.16h-1.571l-3.533-4.973v4.973h-2.093v-9.16h1.571l3.532,4.973v-4.973H82.398z"/>
						<path fill="#FFFFFF" d="M86.846,41.348c0-2.695,2.003-4.762,4.763-4.762c1.661,0,3.127,0.824,3.925,2.12l-1.805,1.046
							c-0.406-0.706-1.191-1.125-2.12-1.125c-1.622,0-2.669,1.085-2.669,2.722c0,1.636,1.047,2.723,2.669,2.723
							c0.929,0,1.727-0.42,2.12-1.125l1.805,1.046c-0.784,1.295-2.25,2.12-3.925,2.12C88.849,46.111,86.846,44.043,86.846,41.348z"
							/>
						<path fill="#FFFFFF" d="M102.012,44.489h-3.403l-0.457,1.439h-2.29l3.113-9.16h2.669l3.115,9.16h-2.291L102.012,44.489z
							 M101.385,42.527l-1.074-3.363l-1.073,3.363H101.385z"/>
						<path fill="#FFFFFF" d="M112.218,39.909c0,1.74-1.401,3.141-3.204,3.141h-1.375v2.879h-2.094v-9.16h3.469
							C110.817,36.768,112.218,38.169,112.218,39.909z M110.125,39.909c0-0.667-0.472-1.178-1.111-1.178h-1.375v2.355h1.375
							C109.653,41.086,110.125,40.576,110.125,39.909z"/>
					</g>
				</g>
				<g>
					<g>
						<path fill="#FFFFFF" d="M45.185,53.982v7.938h-1.816v-6.021l-1.404,0.386l-0.443-1.554l2.075-0.748H45.185z"/>
						<path fill="#FFFFFF" d="M45.514,60.605l2.665-2.767c0.466-0.477,0.807-0.941,0.807-1.406c0-0.499-0.318-0.839-0.852-0.839
							c-0.556,0-0.952,0.363-1.168,0.861l-1.53-0.896c0.511-1.181,1.576-1.734,2.675-1.734c1.418,0,2.688,0.929,2.688,2.529
							c0,0.952-0.511,1.769-1.237,2.495l-1.316,1.327h2.666v1.747h-5.397L45.514,60.605L45.514,60.605z"/>
						<path fill="#FFFFFF" d="M58.668,59.425c0,1.746-1.36,2.654-2.892,2.654c-1.259,0-2.347-0.533-2.835-1.7l1.565-0.908
							c0.181,0.521,0.522,0.84,1.27,0.84c0.749,0,1.078-0.397,1.078-0.885c0-0.487-0.329-0.885-1.021-0.885H53.35l0.329-4.558h4.594
							v1.699H55.38l-0.08,1.09h0.646C57.42,56.772,58.668,57.679,58.668,59.425z"/>
						<path fill="#FFFFFF" d="M58.577,57.951c0-2.45,1.18-4.127,3.232-4.127c2.053,0,3.233,1.677,3.233,4.127
							s-1.181,4.128-3.233,4.128C59.757,62.079,58.577,60.401,58.577,57.951z M63.228,57.951c0-1.531-0.466-2.358-1.419-2.358
							c-0.953,0-1.418,0.827-1.418,2.358c0,1.532,0.465,2.36,1.418,2.36C62.762,60.31,63.228,59.481,63.228,57.951z"/>
						<path fill="#FFFFFF" d="M65.007,57.951c0-2.45,1.18-4.127,3.233-4.127c2.052,0,3.232,1.677,3.232,4.127
							s-1.18,4.128-3.232,4.128C66.186,62.079,65.007,60.401,65.007,57.951z M69.656,57.951c0-1.531-0.465-2.358-1.416-2.358
							c-0.953,0-1.417,0.827-1.417,2.358c0,1.532,0.464,2.36,1.417,2.36C69.191,60.31,69.656,59.481,69.656,57.951z"/>
						<path fill="#FFFFFF" d="M73.558,57.951c0-2.45,1.179-4.127,3.231-4.127c2.054,0,3.233,1.677,3.233,4.127
							s-1.18,4.128-3.233,4.128C74.737,62.079,73.558,60.401,73.558,57.951z M78.208,57.951c0-1.531-0.466-2.358-1.419-2.358
							c-0.952,0-1.416,0.827-1.416,2.358c0,1.532,0.464,2.36,1.416,2.36C77.742,60.31,78.208,59.481,78.208,57.951z"/>
						<path fill="#FFFFFF" d="M79.987,57.951c0-2.45,1.181-4.127,3.233-4.127s3.233,1.677,3.233,4.127s-1.181,4.128-3.233,4.128
							S79.987,60.401,79.987,57.951z M84.639,57.951c0-1.531-0.466-2.358-1.418-2.358c-0.954,0-1.417,0.827-1.417,2.358
							c0,1.532,0.463,2.36,1.417,2.36C84.173,60.311,84.639,59.481,84.639,57.951z"/>
						<path fill="#FFFFFF" d="M86.418,57.951c0-2.45,1.178-4.127,3.232-4.127c2.053,0,3.231,1.677,3.231,4.127
							s-1.178,4.128-3.231,4.128C87.596,62.079,86.418,60.401,86.418,57.951z M91.067,57.951c0-1.531-0.465-2.358-1.418-2.358
							c-0.952,0-1.417,0.827-1.417,2.358c0,1.532,0.466,2.36,1.417,2.36C90.602,60.31,91.067,59.481,91.067,57.951z"/>
						<path fill="#FFFFFF" d="M97.502,59.171c0-1.569,1.249-2.833,2.835-2.833c1.587,0,2.835,1.264,2.835,2.833
							c0,1.572-1.249,2.835-2.835,2.835C98.751,62.006,97.502,60.743,97.502,59.171z M102.757,59.171c0-1.35-1.06-2.434-2.419-2.434
							c-1.358,0-2.418,1.084-2.418,2.434c0,1.351,1.06,2.435,2.418,2.435C101.697,61.605,102.757,60.522,102.757,59.171z"/>
						<path fill="#FFFFFF" d="M104.146,56.816v2.198h2.538v0.394h-2.538v2.513h-0.416v-5.497h3.047v0.393H104.146z"/>
						<path fill="#FFFFFF" d="M106.987,59.171c0-1.569,1.188-2.833,2.86-2.833c1.012,0,1.899,0.518,2.354,1.319l-0.368,0.212
							c-0.361-0.677-1.123-1.131-1.986-1.131c-1.445,0-2.443,1.083-2.443,2.434c0,1.352,0.998,2.435,2.443,2.435
							c0.871,0,1.641-0.464,2.001-1.154l0.37,0.212c-0.448,0.809-1.342,1.343-2.371,1.343
							C108.174,62.006,106.987,60.743,106.987,59.171z"/>
					</g>
				</g>
			</g>
			<linearGradient id="SVGID_1_" gradientUnits="userSpaceOnUse" x1="206.2129" y1="64.8174" x2="206.2129" y2="34.7222">
				<stop  offset="0" style="stop-color:#706DCB"/>
				<stop  offset="1" style="stop-color:#706DCB;stop-opacity:0.7"/>
			</linearGradient>
			<polygon opacity="0.4" fill="url(#SVGID_1_)" enable-background="new    " points="171.014,34.722 171.014,44.543 
				165.568,49.552 171.014,54.561 171.014,64.817 246.857,64.817 246.857,34.722 			"/>
			<linearGradient id="SVGID_2_" gradientUnits="userSpaceOnUse" x1="206.2129" y1="134.6338" x2="206.2129" y2="104.5391">
				<stop  offset="0" style="stop-color:#706DCB"/>
				<stop  offset="1" style="stop-color:#706DCB;stop-opacity:0.7"/>
			</linearGradient>
			<polygon opacity="0.6" fill="url(#SVGID_2_)" enable-background="new    " points="171.014,104.539 171.014,114.292 
				165.568,119.3 171.014,124.308 171.014,134.634 246.857,134.634 246.857,104.539 			"/>
			<linearGradient id="SVGID_3_" gradientUnits="userSpaceOnUse" x1="206.2129" y1="204.8882" x2="206.2129" y2="174.7925">
				<stop  offset="0" style="stop-color:#706DCB"/>
				<stop  offset="1" style="stop-color:#706DCB;stop-opacity:0.7"/>
			</linearGradient>
			<polygon opacity="0.8" fill="url(#SVGID_3_)" enable-background="new    " points="171.014,174.792 171.014,184.614 
				165.568,189.622 171.014,194.629 171.014,204.888 246.857,204.888 246.857,174.792 			"/>
			<linearGradient id="SVGID_4_" gradientUnits="userSpaceOnUse" x1="206.2129" y1="274.9224" x2="206.2129" y2="244.8267">
				<stop  offset="0" style="stop-color:#706DCB"/>
				<stop  offset="1" style="stop-color:#706DCB;stop-opacity:0.7"/>
			</linearGradient>
			<polygon fill="url(#SVGID_4_)" points="171.014,244.827 171.014,254.561 165.568,259.567 171.014,264.579 171.014,274.922 
				246.857,274.922 246.857,244.827 			"/>
			
				<text transform="matrix(4.366650e-008 1 1 -4.366650e-008 178.5244 197.8242)" fill="#FFFFFF" font-family="'Gilroy-Light'" font-size="12.2127"> </text>
			<g>
				<g>
					<path fill="#FFFFFF" d="M142.177,304.983l-6.19,7.809c-0.083,0.107-0.209,0.168-0.344,0.166c-0.134,0-0.26-0.061-0.343-0.166
						l-6.106-7.811c-0.148-0.193-0.115-0.467,0.075-0.615c0.19-0.146,0.465-0.115,0.612,0.076l5.766,7.375l5.846-7.377
						c0.149-0.191,0.422-0.221,0.611-0.072c0.11,0.086,0.165,0.213,0.165,0.342C142.27,304.803,142.24,304.901,142.177,304.983z"/>
				</g>
				<g>
					<path fill="#FFFFFF" d="M135.645,39.19c-0.242,0-0.437-0.194-0.437-0.436V19.996c0-0.243,0.194-0.437,0.437-0.437
						c0.24,0,0.436,0.194,0.436,0.437v18.759C136.081,38.996,135.885,39.19,135.645,39.19z"/>
				</g>
				<g>
					<g>
						<path fill="#FFFFFF" d="M135.645,60.783c-6.193,0-11.232-5.039-11.232-11.231c0-6.193,5.04-11.232,11.232-11.232
							c6.191,0,11.231,5.039,11.231,11.232C146.876,55.744,141.836,60.783,135.645,60.783z M135.645,59.911
							c5.712,0,10.358-4.648,10.358-10.359c0-5.712-4.646-10.359-10.358-10.359c-5.713,0-10.359,4.647-10.359,10.359
							C125.286,55.263,129.932,59.911,135.645,59.911z"/>
					</g>
					
						<linearGradient id="SVGID_5_" gradientUnits="userSpaceOnUse" x1="-4487.1821" y1="-391.4565" x2="-4475.9512" y2="-391.4565" gradientTransform="matrix(4.371139e-008 -1 1 4.371139e-008 527.1001 -4432.0146)">
						<stop  offset="0" style="stop-color:#706DCB;stop-opacity:0"/>
						<stop  offset="1" style="stop-color:#706DCB;stop-opacity:0.7"/>
					</linearGradient>
					<circle fill="url(#SVGID_5_)" cx="135.643" cy="49.552" r="5.615"/>
				</g>
				<g>
					<g>
						<path fill="#FFFFFF" d="M135.645,130.817c-6.193,0-11.232-5.039-11.232-11.231s5.04-11.231,11.232-11.231
							c6.191,0,11.231,5.039,11.231,11.231S141.836,130.817,135.645,130.817z M135.645,129.945c5.712,0,10.358-4.646,10.358-10.358
							s-4.646-10.359-10.358-10.359c-5.713,0-10.359,4.647-10.359,10.359S129.932,129.945,135.645,129.945z"/>
					</g>
					
						<linearGradient id="SVGID_6_" gradientUnits="userSpaceOnUse" x1="-4489.314" y1="-459.3594" x2="-4478.083" y2="-459.3594" gradientTransform="matrix(4.371139e-008 -1 1 4.371139e-008 595.0034 -4364.1123)">
						<stop  offset="0" style="stop-color:#706DCB;stop-opacity:0"/>
						<stop  offset="1" style="stop-color:#706DCB;stop-opacity:0.7"/>
					</linearGradient>
					<circle fill="url(#SVGID_6_)" cx="135.644" cy="119.586" r="5.616"/>
				</g>
				<g>
					<g>
						<path fill="#FFFFFF" d="M135.645,200.853c-6.193,0-11.232-5.038-11.232-11.231c0-6.192,5.04-11.231,11.232-11.231
							c6.191,0,11.231,5.039,11.231,11.231C146.876,195.814,141.836,200.853,135.645,200.853z M135.645,199.98
							c5.712,0,10.358-4.647,10.358-10.359s-4.646-10.359-10.358-10.359c-5.713,0-10.359,4.647-10.359,10.359
							S129.932,199.98,135.645,199.98z"/>
					</g>
					
						<linearGradient id="SVGID_7_" gradientUnits="userSpaceOnUse" x1="-4491.4453" y1="-527.2632" x2="-4480.2144" y2="-527.2632" gradientTransform="matrix(4.371139e-008 -1 1 4.371139e-008 662.9067 -4296.208)">
						<stop  offset="0" style="stop-color:#706DCB;stop-opacity:0"/>
						<stop  offset="1" style="stop-color:#706DCB;stop-opacity:0.7"/>
					</linearGradient>
					<circle fill="url(#SVGID_7_)" cx="135.643" cy="189.622" r="5.615"/>
				</g>
				<g>
					<g>
						<path fill="#FFFFFF" d="M135.645,270.887c-6.193,0-11.232-5.037-11.232-11.23s5.04-11.232,11.232-11.232
							c6.191,0,11.231,5.039,11.231,11.232S141.836,270.887,135.645,270.887z M135.645,270.016c5.712,0,10.358-4.648,10.358-10.359
							s-4.646-10.359-10.358-10.359c-5.713,0-10.359,4.648-10.359,10.359S129.932,270.016,135.645,270.016z"/>
					</g>
					
						<linearGradient id="SVGID_8_" gradientUnits="userSpaceOnUse" x1="-4493.5762" y1="-595.1685" x2="-4482.3457" y2="-595.1685" gradientTransform="matrix(4.371139e-008 -1 1 4.371139e-008 730.813 -4228.3018)">
						<stop  offset="0" style="stop-color:#706DCB;stop-opacity:0"/>
						<stop  offset="1" style="stop-color:#706DCB;stop-opacity:0.7"/>
					</linearGradient>
					<circle fill="url(#SVGID_8_)" cx="135.644" cy="259.659" r="5.616"/>
				</g>
				<g>
					<path fill="#FFFFFF" d="M135.645,312.03c-0.242,0-0.437-0.193-0.437-0.436v-41.143c0-0.24,0.194-0.436,0.437-0.436
						c0.24,0,0.436,0.195,0.436,0.436v41.143C136.081,311.834,135.885,312.03,135.645,312.03z"/>
				</g>
				<g>
					<path fill="#FFFFFF" d="M135.645,109.228c-0.242,0-0.437-0.195-0.437-0.438V61.22c0-0.241,0.194-0.437,0.437-0.437
						c0.24,0,0.436,0.194,0.436,0.437v47.57C136.081,109.033,135.885,109.228,135.645,109.228z"/>
				</g>
				<g>
					<path fill="#FFFFFF" d="M135.645,178.391c-0.242,0-0.437-0.196-0.437-0.437v-47.571c0-0.243,0.194-0.438,0.437-0.438
						c0.24,0,0.436,0.195,0.436,0.438v47.571C136.081,178.194,135.885,178.391,135.645,178.391z"/>
				</g>
				<g>
					<path fill="#FFFFFF" d="M135.645,248.424c-0.242,0-0.437-0.193-0.437-0.434v-47.575c0-0.241,0.194-0.436,0.437-0.436
						c0.24,0,0.436,0.195,0.436,0.436v47.575C136.081,248.231,135.885,248.424,135.645,248.424z"/>
				</g>
				<g>
					<g>
						<rect x="146.076" y="49.333" fill="#FFFFFF" width="15.514" height="0.437"/>
					</g>
					<g>
						<rect x="146.076" y="119.082" fill="#FFFFFF" width="15.514" height="0.437"/>
					</g>
					<g>
						<rect x="146.076" y="189.403" fill="#FFFFFF" width="15.514" height="0.438"/>
					</g>
					<g>
						<rect x="146.076" y="259.438" fill="#FFFFFF" width="15.514" height="0.436"/>
					</g>
				</g>
			</g>
			<g>
				<path fill="#FFFFFF" d="M192.593,45.19c0-1.744,1.315-3.148,3.172-3.148c1.124,0,2.109,0.576,2.615,1.466l-0.409,0.235
					c-0.402-0.75-1.249-1.256-2.206-1.256c-1.605,0-2.711,1.204-2.711,2.703c0,1.499,1.105,2.704,2.711,2.704
					c0.968,0,1.823-0.515,2.223-1.283l0.41,0.236c-0.497,0.898-1.492,1.491-2.633,1.491
					C193.908,48.338,192.593,46.934,192.593,45.19z"/>
				<path fill="#FFFFFF" d="M201.879,45.74h-1.926v2.501h-0.461v-6.103h2.405c0.992,0,1.805,0.811,1.805,1.805
					c0,0.829-0.566,1.524-1.342,1.735l1.517,2.563h-0.533L201.879,45.74z M199.953,45.303h1.944c0.741,0,1.343-0.609,1.343-1.36
					c0-0.758-0.602-1.369-1.343-1.369h-1.944V45.303z"/>
				<path fill="#FFFFFF" d="M206.303,45.73v2.511h-0.464V45.73l-2.222-3.592h0.523l1.937,3.148l1.926-3.148h0.523L206.303,45.73z"/>
				<path fill="#FFFFFF" d="M213.349,44.03c0,1.074-0.799,1.884-1.899,1.884h-1.613v2.328h-0.461v-6.103h2.074
					C212.55,42.138,213.349,42.949,213.349,44.03z M212.886,44.03c0-0.844-0.601-1.454-1.437-1.454h-1.613v2.903h1.613
					C212.285,45.479,212.886,44.868,212.886,44.03z"/>
				<path fill="#FFFFFF" d="M218.244,42.574h-1.92v5.667h-0.469v-5.667h-1.92v-0.436h4.309V42.574z"/>
				<path fill="#FFFFFF" d="M218.375,45.19c0-1.744,1.39-3.148,3.148-3.148c1.761,0,3.146,1.404,3.146,3.148
					c0,1.744-1.386,3.148-3.146,3.148C219.765,48.338,218.375,46.934,218.375,45.19z M224.211,45.19c0-1.5-1.179-2.703-2.688-2.703
					s-2.683,1.204-2.683,2.703c0,1.499,1.174,2.704,2.683,2.704S224.211,46.689,224.211,45.19z"/>
				<path fill="#FFFFFF" d="M189.712,50.861v6.104h-0.464v-6.104H189.712z"/>
				<path fill="#FFFFFF" d="M195.7,50.861v6.104h-0.406l-3.602-5.249v5.249h-0.462v-6.104h0.401l3.607,5.25v-5.25H195.7z"/>
				<path fill="#FFFFFF" d="M202.393,53.913c0,1.683-1.192,3.052-2.877,3.052h-2.292v-6.104h2.292
					C201.2,50.861,202.393,52.232,202.393,53.913z M201.938,53.913c0-1.446-0.983-2.615-2.422-2.615h-1.833v5.231h1.833
					C200.954,56.529,201.938,55.361,201.938,53.913z"/>
				<path fill="#FFFFFF" d="M203.477,54.924v-4.063h0.463v4.063c0,0.995,0.618,1.692,1.771,1.692c1.161,0,1.777-0.698,1.777-1.692
					v-4.063h0.463v4.063c0,1.291-0.898,2.137-2.24,2.137C204.366,57.062,203.477,56.215,203.477,54.924z"/>
				<path fill="#FFFFFF" d="M209.016,55.622l0.403-0.235c0.209,0.733,0.828,1.229,1.829,1.229c1.02,0,1.537-0.522,1.537-1.22
					c0-0.733-0.646-1.012-1.579-1.308c-1.021-0.331-1.937-0.618-1.937-1.683c0-1.003,0.811-1.639,1.85-1.639
					c1.001,0,1.666,0.576,1.96,1.282l-0.391,0.219c-0.228-0.551-0.697-1.056-1.569-1.056c-0.846,0-1.38,0.498-1.38,1.177
					c0,0.732,0.62,0.958,1.49,1.246c1.084,0.357,2.025,0.698,2.025,1.753c0,1.011-0.794,1.675-2.007,1.675
					C210.107,57.062,209.296,56.485,209.016,55.622z"/>
				<path fill="#FFFFFF" d="M218.14,51.298h-1.92v5.667h-0.47v-5.667h-1.917v-0.437h4.305v0.437H218.14z"/>
				<path fill="#FFFFFF" d="M221.489,54.463h-1.926v2.502h-0.461v-6.104h2.405c0.993,0,1.803,0.813,1.803,1.805
					c0,0.83-0.566,1.526-1.342,1.736l1.517,2.563h-0.531L221.489,54.463z M219.563,54.026h1.944c0.741,0,1.342-0.61,1.342-1.36
					c0-0.759-0.601-1.368-1.342-1.368h-1.944V54.026z"/>
				<path fill="#FFFFFF" d="M226.463,54.454v2.512H226v-2.512l-2.223-3.592h0.522l1.936,3.147l1.926-3.147h0.525L226.463,54.454z"/>
			</g>
			<g>
				<path fill="#FFFFFF" d="M181.433,112.222h0.489l1.577,5.484l1.702-5.484h0.548l1.709,5.484l1.57-5.484h0.488l-1.771,6.103
					h-0.558l-1.71-5.501l-1.715,5.501h-0.56L181.433,112.222z"/>
				<path fill="#FFFFFF" d="M190.218,115.273c0-1.744,1.388-3.147,3.146-3.147c1.763,0,3.148,1.403,3.148,3.147
					c0,1.745-1.386,3.147-3.148,3.147C191.605,118.421,190.218,117.018,190.218,115.273z M196.051,115.273
					c0-1.5-1.176-2.704-2.687-2.704c-1.507,0-2.684,1.205-2.684,2.704s1.177,2.704,2.684,2.704
					C194.875,117.978,196.051,116.773,196.051,115.273z"/>
				<path fill="#FFFFFF" d="M200.074,115.822h-1.928v2.503h-0.464v-6.103h2.407c0.995,0,1.808,0.811,1.808,1.803
					c0,0.829-0.568,1.526-1.344,1.736l1.517,2.564h-0.532L200.074,115.822z M198.146,115.387h1.945c0.739,0,1.342-0.61,1.342-1.362
					c0-0.758-0.603-1.368-1.342-1.368h-1.945V115.387z"/>
				<path fill="#FFFFFF" d="M206.371,117.888v0.437h-3.338v-6.103h0.463v5.666H206.371L206.371,117.888z"/>
				<path fill="#FFFFFF" d="M212.503,115.273c0,1.683-1.194,3.051-2.879,3.051h-2.29v-6.103h2.29
					C211.309,112.222,212.503,113.59,212.503,115.273z M212.05,115.273c0-1.447-0.985-2.616-2.426-2.616h-1.829v5.23h1.829
					C211.064,117.888,212.05,116.721,212.05,115.273z"/>
				<path fill="#FFFFFF" d="M215.535,112.222h0.485l1.579,5.484l1.702-5.484h0.548l1.708,5.484l1.569-5.484h0.487l-1.769,6.103
					h-0.558l-1.71-5.501l-1.717,5.501h-0.56L215.535,112.222z"/>
				<path fill="#FFFFFF" d="M225.128,112.222v6.103h-0.462v-6.103H225.128z"/>
				<path fill="#FFFFFF" d="M231.817,115.273c0,1.683-1.194,3.051-2.877,3.051h-2.294v-6.103h2.294
					C230.623,112.222,231.817,113.59,231.817,115.273z M231.364,115.273c0-1.447-0.985-2.616-2.426-2.616h-1.831v5.23h1.831
					C230.379,117.888,231.364,116.721,231.364,115.273z"/>
				<path fill="#FFFFFF" d="M236.503,117.888v0.437h-3.516v-6.103h3.472v0.435h-3.008v2.372h2.79v0.435h-2.79v2.424H236.503
					L236.503,117.888z"/>
				<path fill="#FFFFFF" d="M199.927,120.944h0.489l1.58,5.484l1.698-5.484h0.55l1.708,5.484l1.569-5.484h0.489l-1.771,6.103h-0.558
					l-1.709-5.502l-1.718,5.502h-0.559L199.927,120.944z"/>
				<path fill="#FFFFFF" d="M212.575,126.612v0.435h-3.515v-6.103h3.471v0.437h-3.01v2.372h2.792v0.435h-2.792v2.424H212.575z"/>
				<path fill="#FFFFFF" d="M218.009,125.383c0,0.923-0.741,1.666-1.666,1.666h-2.631v-6.103h2.432c0.888,0,1.604,0.723,1.604,1.604
					c0,0.592-0.313,1.08-0.782,1.333C217.573,124.117,218.009,124.684,218.009,125.383z M214.173,121.381v2.336h1.968
					c0.629,0,1.145-0.524,1.145-1.167c0-0.647-0.516-1.169-1.145-1.169H214.173z M217.547,125.383c0-0.68-0.542-1.228-1.204-1.228
					h-2.17v2.457h2.17C217.005,126.612,217.547,126.063,217.547,125.383z"/>
			</g>
			<g>
				<path fill="#FFFFFF" d="M194.559,187.732v0.437h-3.516v-6.103h3.471v0.436h-3.007v2.371h2.788v0.436h-2.788v2.423
					L194.559,187.732L194.559,187.732z"/>
				<path fill="#FFFFFF" d="M195.326,186.826l0.4-0.236c0.21,0.732,0.83,1.23,1.831,1.23c1.021,0,1.535-0.523,1.535-1.221
					c0-0.733-0.646-1.011-1.577-1.309c-1.021-0.331-1.936-0.618-1.936-1.683c0-1.003,0.81-1.639,1.847-1.639
					c1.004,0,1.666,0.576,1.964,1.282l-0.395,0.218c-0.226-0.549-0.697-1.055-1.569-1.055c-0.844,0-1.378,0.497-1.378,1.177
					c0,0.733,0.621,0.958,1.493,1.246c1.082,0.358,2.022,0.697,2.022,1.753c0,1.012-0.794,1.674-2.007,1.674
					C196.418,188.264,195.608,187.689,195.326,186.826z"/>
				<path fill="#FFFFFF" d="M200.352,185.116c0-1.743,1.315-3.147,3.173-3.147c1.124,0,2.111,0.576,2.615,1.466l-0.409,0.235
					c-0.4-0.75-1.247-1.255-2.206-1.255c-1.605,0-2.711,1.203-2.711,2.702c0,1.5,1.105,2.705,2.711,2.705
					c0.967,0,1.821-0.515,2.225-1.283l0.408,0.236c-0.497,0.898-1.49,1.49-2.633,1.49
					C201.667,188.264,200.352,186.861,200.352,185.116z"/>
				<path fill="#FFFFFF" d="M209.639,185.667h-1.926v2.501h-0.462v-6.103h2.407c0.993,0,1.804,0.811,1.804,1.805
					c0,0.828-0.566,1.524-1.342,1.735l1.519,2.563h-0.534L209.639,185.667z M207.713,185.23h1.945c0.739,0,1.342-0.609,1.342-1.36
					c0-0.759-0.603-1.369-1.342-1.369h-1.945V185.23z"/>
				<path fill="#FFFFFF" d="M212.249,185.116c0-1.743,1.388-3.147,3.148-3.147s3.146,1.405,3.146,3.147
					c0,1.745-1.386,3.148-3.146,3.148C213.635,188.264,212.249,186.861,212.249,185.116z M218.081,185.116
					c0-1.499-1.177-2.702-2.686-2.702c-1.507,0-2.685,1.203-2.685,2.702c0,1.5,1.178,2.705,2.685,2.705
					C216.904,187.821,218.081,186.616,218.081,185.116z"/>
				<path fill="#FFFFFF" d="M219.245,182.065h0.487l1.58,5.484l1.702-5.484h0.546l1.708,5.484l1.569-5.484h0.489l-1.771,6.103
					h-0.558l-1.709-5.501l-1.718,5.501h-0.559L219.245,182.065z"/>
				<path fill="#FFFFFF" d="M183.624,193.84c0-1.744,1.317-3.148,3.173-3.148c1.124,0,2.111,0.576,2.616,1.467l-0.41,0.235
					c-0.401-0.751-1.245-1.256-2.206-1.256c-1.604,0-2.71,1.204-2.71,2.703c0,1.498,1.106,2.703,2.71,2.703
					c0.969,0,1.823-0.515,2.224-1.282l0.411,0.234c-0.497,0.9-1.49,1.493-2.635,1.493
					C184.941,196.988,183.624,195.584,183.624,193.84z"/>
				<path fill="#FFFFFF" d="M190.175,193.84c0-1.744,1.388-3.148,3.148-3.148s3.146,1.404,3.146,3.148s-1.386,3.148-3.146,3.148
					S190.175,195.584,190.175,193.84z M196.007,193.84c0-1.5-1.177-2.702-2.686-2.702c-1.507,0-2.683,1.203-2.683,2.702
					c0,1.499,1.176,2.703,2.683,2.703C194.83,196.542,196.007,195.339,196.007,193.84z"/>
				<path fill="#FFFFFF" d="M202.116,190.788v6.103h-0.41l-3.603-5.248v5.248h-0.463v-6.103h0.402l3.61,5.249v-5.249H202.116z"/>
				<path fill="#FFFFFF" d="M207.385,191.225h-1.92v5.667h-0.47v-5.667h-1.92v-0.436h4.31V191.225L207.385,191.225z"/>
				<path fill="#FFFFFF" d="M210.734,194.39h-1.926v2.501h-0.461v-6.103h2.405c0.995,0,1.807,0.813,1.807,1.804
					c0,0.83-0.568,1.525-1.346,1.736l1.519,2.563h-0.531L210.734,194.39z M208.809,193.953h1.944c0.741,0,1.341-0.609,1.341-1.359
					c0-0.758-0.6-1.369-1.341-1.369h-1.944V193.953z"/>
				<path fill="#FFFFFF" d="M217.209,195.339h-3.063l-0.594,1.553h-0.487l2.371-6.103h0.489l2.36,6.103h-0.487L217.209,195.339z
					 M217.042,194.904l-1.36-3.548l-1.361,3.548H217.042z"/>
				<path fill="#FFFFFF" d="M218.832,193.84c0-1.744,1.315-3.148,3.173-3.148c1.126,0,2.109,0.576,2.617,1.467l-0.411,0.235
					c-0.398-0.751-1.247-1.256-2.206-1.256c-1.604,0-2.711,1.204-2.711,2.703c0,1.498,1.107,2.703,2.711,2.703
					c0.969,0,1.823-0.515,2.225-1.282l0.408,0.234c-0.497,0.9-1.49,1.493-2.633,1.493
					C220.147,196.988,218.832,195.584,218.832,193.84z"/>
				<path fill="#FFFFFF" d="M229.479,191.225h-1.916v5.667h-0.473v-5.667h-1.918v-0.436h4.307V191.225L229.479,191.225z"/>
				<path fill="#FFFFFF" d="M230.077,195.549l0.398-0.235c0.21,0.732,0.828,1.229,1.831,1.229c1.021,0,1.535-0.522,1.535-1.22
					c0-0.733-0.645-1.012-1.579-1.308c-1.018-0.331-1.934-0.619-1.934-1.683c0-1.003,0.81-1.639,1.849-1.639
					c1.001,0,1.666,0.576,1.962,1.282l-0.395,0.218c-0.228-0.55-0.697-1.055-1.569-1.055c-0.846,0-1.376,0.498-1.376,1.177
					c0,0.733,0.619,0.959,1.491,1.247c1.079,0.357,2.022,0.698,2.022,1.753c0,1.011-0.796,1.674-2.007,1.674
					C231.165,196.988,230.354,196.412,230.077,195.549z"/>
			</g>
			<g>
				<path fill="#FFFFFF" d="M192.868,255.456h-3.06l-0.593,1.553h-0.491l2.373-6.104h0.487l2.363,6.104h-0.487L192.868,255.456z
					 M192.703,255.02l-1.359-3.547l-1.362,3.547H192.703z"/>
				<path fill="#FFFFFF" d="M197.229,254.506h-1.926v2.502h-0.461v-6.104h2.405c0.993,0,1.805,0.813,1.805,1.805
					c0,0.83-0.566,1.525-1.342,1.736l1.517,2.563h-0.533L197.229,254.506z M195.304,254.071h1.944c0.741,0,1.341-0.611,1.341-1.361
					c0-0.758-0.6-1.367-1.341-1.367h-1.944V254.071z"/>
				<path fill="#FFFFFF" d="M203.936,251.342h-1.916v5.666h-0.471v-5.666h-1.92v-0.438h4.307V251.342L203.936,251.342z"/>
				<path fill="#FFFFFF" d="M205.362,250.905v6.104H204.9v-6.104H205.362z"/>
				<path fill="#FFFFFF" d="M207.342,251.342v2.439h2.816v0.436h-2.816v2.791h-0.461v-6.104h3.382v0.438H207.342L207.342,251.342z"
					/>
				<path fill="#FFFFFF" d="M211.86,250.905v6.104h-0.461v-6.104H211.86z"/>
				<path fill="#FFFFFF" d="M213.028,253.958c0-1.744,1.315-3.148,3.175-3.148c1.126,0,2.109,0.576,2.617,1.465l-0.411,0.236
					c-0.4-0.75-1.247-1.256-2.206-1.256c-1.605,0-2.713,1.203-2.713,2.703c0,1.498,1.107,2.703,2.713,2.703
					c0.968,0,1.823-0.516,2.223-1.283l0.408,0.236c-0.495,0.898-1.49,1.49-2.631,1.49
					C214.344,257.104,213.028,255.702,213.028,253.958z"/>
				<path fill="#FFFFFF" d="M223.441,255.456h-3.06l-0.593,1.553h-0.485l2.371-6.104h0.487l2.363,6.104h-0.492L223.441,255.456z
					 M223.276,255.02l-1.36-3.547l-1.359,3.547H223.276z"/>
				<path fill="#FFFFFF" d="M228.756,256.573v0.436h-3.341v-6.104h0.462v5.666h2.879V256.573z"/>
				<path fill="#FFFFFF" d="M181.634,259.627v6.104h-0.461v-6.104H181.634z"/>
				<path fill="#FFFFFF" d="M187.625,259.627v6.104h-0.411l-3.6-5.248v5.248h-0.462v-6.104h0.401l3.609,5.25v-5.25H187.625z"/>
				<path fill="#FFFFFF" d="M192.893,260.065h-1.916v5.668h-0.471v-5.668h-1.92v-0.436h4.307V260.065L192.893,260.065z"/>
				<path fill="#FFFFFF" d="M197.368,265.295v0.436h-3.513v-6.104h3.471v0.438h-3.01v2.371h2.792v0.436h-2.792v2.424H197.368z"/>
				<path fill="#FFFFFF" d="M201.843,265.295v0.436h-3.336v-6.104h0.461v5.668H201.843z"/>
				<path fill="#FFFFFF" d="M206.146,265.295v0.436h-3.34v-6.104h0.461v5.668H206.146z"/>
				<path fill="#FFFFFF" d="M207.567,259.627v6.104h-0.461v-6.104H207.567z"/>
				<path fill="#FFFFFF" d="M214.893,263.124c0,1.475-1.124,2.705-2.947,2.705c-1.892,0-3.207-1.404-3.207-3.15
					c0-1.742,1.315-3.146,3.173-3.146c1.136,0,2.119,0.594,2.624,1.475l-0.408,0.244c-0.403-0.768-1.257-1.273-2.216-1.273
					c-1.604,0-2.71,1.203-2.71,2.701c0,1.5,1.106,2.705,2.744,2.705c1.482,0,2.383-0.916,2.478-2.057h-2.591v-0.438h3.061V263.124z"
					/>
				<path fill="#FFFFFF" d="M219.569,265.295v0.436h-3.513v-6.104h3.469v0.438h-3.008v2.371h2.792v0.436h-2.792v2.424H219.569z"/>
				<path fill="#FFFFFF" d="M225.178,259.627v6.104h-0.409l-3.602-5.248v5.248h-0.461v-6.104h0.398l3.612,5.25v-5.25H225.178z"/>
				<path fill="#FFFFFF" d="M226.351,262.678c0-1.742,1.315-3.146,3.175-3.146c1.124,0,2.11,0.576,2.614,1.467l-0.409,0.234
					c-0.4-0.75-1.247-1.256-2.205-1.256c-1.605,0-2.712,1.203-2.712,2.703c0,1.498,1.106,2.703,2.712,2.703
					c0.967,0,1.82-0.514,2.222-1.283l0.411,0.236c-0.5,0.898-1.491,1.492-2.633,1.492
					C227.666,265.829,226.351,264.424,226.351,262.678z"/>
				<path fill="#FFFFFF" d="M236.763,265.295v0.436h-3.511v-6.104h3.469v0.438h-3.008v2.371h2.788v0.436h-2.788v2.424H236.763z"/>
			</g>
		</g>
		
			<linearGradient id="SVGID_9_" gradientUnits="userSpaceOnUse" x1="-4907.417" y1="-425.5938" x2="-4877.1177" y2="-425.5938" gradientTransform="matrix(0 1 -1 0 -170.0796 4941.9351)">
			<stop  offset="0" style="stop-color:#706DCB;stop-opacity:0"/>
			<stop  offset="1" style="stop-color:#706DCB;stop-opacity:0.7"/>
		</linearGradient>
		<path opacity="0.2" fill="url(#SVGID_9_)" d="M248.793,64.817h2.903c5.821,0,10.539-4.719,10.539-10.539v-9.223
			c0-5.82-4.718-10.538-10.539-10.538h-2.903V64.817z"/>
		
			<linearGradient id="SVGID_10_" gradientUnits="userSpaceOnUse" x1="-4837.498" y1="-425.5938" x2="-4807.1987" y2="-425.5938" gradientTransform="matrix(0 1 -1 0 -170.0796 4941.9351)">
			<stop  offset="0" style="stop-color:#706DCB;stop-opacity:0"/>
			<stop  offset="1" style="stop-color:#706DCB;stop-opacity:0.7"/>
		</linearGradient>
		<path opacity="0.2" fill="url(#SVGID_10_)" d="M248.793,134.736h2.903c5.821,0,10.539-4.718,10.539-10.539v-9.222
			c0-5.821-4.718-10.539-10.539-10.539h-2.903V134.736z"/>
		
			<linearGradient id="SVGID_11_" gradientUnits="userSpaceOnUse" x1="-4767.1426" y1="-425.5938" x2="-4736.8433" y2="-425.5938" gradientTransform="matrix(0 1 -1 0 -170.0796 4941.9351)">
			<stop  offset="0" style="stop-color:#706DCB;stop-opacity:0"/>
			<stop  offset="1" style="stop-color:#706DCB;stop-opacity:0.7"/>
		</linearGradient>
		<path opacity="0.2" fill="url(#SVGID_11_)" d="M248.793,205.092h2.903c5.821,0,10.539-4.718,10.539-10.538v-9.223
			c0-5.821-4.718-10.539-10.539-10.539h-2.903V205.092z"/>
		
			<linearGradient id="SVGID_12_" gradientUnits="userSpaceOnUse" x1="-4697.2236" y1="-425.5938" x2="-4666.9248" y2="-425.5938" gradientTransform="matrix(0 1 -1 0 -170.0796 4941.9351)">
			<stop  offset="0" style="stop-color:#706DCB;stop-opacity:0"/>
			<stop  offset="1" style="stop-color:#706DCB;stop-opacity:0.7"/>
		</linearGradient>
		<path opacity="0.2" fill="url(#SVGID_12_)" d="M248.793,275.01h2.903c5.821,0,10.539-4.717,10.539-10.537v-9.223
			c0-5.822-4.718-10.539-10.539-10.539h-2.903V275.01z"/>
	</g>
</g>
</svg>
