<?xml version="1.0" encoding="utf-8"?>
<!-- Generator: Adobe Illustrator 16.0.0, SVG Export Plug-In . SVG Version: 6.00 Build 0)  -->
<!DOCTYPE svg PUBLIC "-//W3C//DTD SVG 1.1//EN" "http://www.w3.org/Graphics/SVG/1.1/DTD/svg11.dtd">
<svg version="1.1" id="Layer_1" xmlns="http://www.w3.org/2000/svg" xmlns:xlink="http://www.w3.org/1999/xlink" x="0px" y="0px"
	 width="229.998px" height="310.498px" viewBox="296.236 11.283 229.998 310.498"
	 enable-background="new 296.236 11.283 229.998 310.498" xml:space="preserve">
<g id="Layer_1_2_">
	<g id="Layer_1_1_">
	</g>
</g>
<g>
	<g id="Capa_1_2_">
		<g>
			<g>
				<g>
					<g>
						<path fill="#FFFFFF" d="M385.148,15.694c0-2.443,1.845-4.411,4.447-4.411c1.576,0,2.959,0.807,3.666,2.053l-0.574,0.33
							c-0.563-1.052-1.75-1.76-3.092-1.76c-2.248,0-3.802,1.687-3.802,3.788s1.554,3.789,3.802,3.789
							c1.355,0,2.553-0.722,3.115-1.796l0.575,0.329c-0.697,1.259-2.091,2.09-3.69,2.09
							C386.993,20.106,385.148,18.137,385.148,15.694z"/>
						<path fill="#FFFFFF" d="M398.962,17.795h-4.288l-0.832,2.175h-0.685l3.323-8.553h0.685l3.312,8.553h-0.685L398.962,17.795z
							 M398.73,17.184l-1.905-4.974l-1.906,4.974H398.73z"/>
						<path fill="#FFFFFF" d="M406.523,14.069c0,1.503-1.125,2.639-2.666,2.639h-2.26v3.263h-0.647v-8.553h2.907
							C405.398,11.418,406.523,12.553,406.523,14.069z M405.876,14.069c0-1.185-0.845-2.041-2.019-2.041h-2.26v4.069h2.26
							C405.032,16.097,405.876,15.241,405.876,14.069z"/>
						<path fill="#FFFFFF" d="M406.837,18.09l0.562-0.331c0.293,1.026,1.162,1.722,2.565,1.722c1.431,0,2.151-0.732,2.151-1.71
							c0-1.025-0.905-1.417-2.211-1.833c-1.432-0.464-2.715-0.867-2.715-2.359c0-1.404,1.139-2.296,2.59-2.296
							c1.406,0,2.334,0.807,2.75,1.796l-0.549,0.306c-0.318-0.769-0.978-1.479-2.201-1.479c-1.186,0-1.93,0.698-1.93,1.65
							c0,1.025,0.867,1.344,2.09,1.748c1.515,0.5,2.834,0.977,2.834,2.456c0,1.416-1.112,2.346-2.811,2.346
							C408.363,20.106,407.229,19.298,406.837,18.09z"/>
					</g>
				</g>
				<g>
					<g>
						<g>
							<path fill="#FFFFFF" d="M315.673,122.905l1.806-1.047c0.328,0.759,0.891,1.271,1.924,1.271c0.996,0,1.244-0.394,1.244-0.748
								c0-0.561-0.523-0.784-1.897-1.165c-1.36-0.377-2.694-1.031-2.694-2.785c0-1.768,1.49-2.788,3.075-2.788
								c1.504,0,2.683,0.72,3.349,2.067l-1.767,1.034c-0.313-0.654-0.746-1.059-1.583-1.059c-0.656,0-0.982,0.326-0.982,0.693
								c0,0.418,0.223,0.707,1.649,1.139c1.386,0.417,2.944,0.903,2.944,2.839c0,1.766-1.414,2.813-3.403,2.813
								C317.413,125.17,316.184,124.252,315.673,122.905z"/>
							<path fill="#FFFFFF" d="M323.395,120.405c0-2.695,2.131-4.762,4.763-4.762c2.63,0,4.763,2.067,4.763,4.762
								s-2.133,4.763-4.763,4.763C325.525,125.17,323.395,123.1,323.395,120.405z M330.826,120.405c0-1.635-1.178-2.722-2.668-2.722
								c-1.493,0-2.67,1.086-2.67,2.722c0,1.638,1.178,2.724,2.67,2.724C329.648,123.128,330.826,122.042,330.826,120.405z"/>
							<path fill="#FFFFFF" d="M336.189,117.843v1.764h3.404v2.016h-3.404v3.364h-2.094v-9.161h5.562v2.017H336.189z"/>
							<path fill="#FFFFFF" d="M347.049,117.843h-2.354v7.144h-2.094v-7.144h-2.354v-2.017h6.802V117.843L347.049,117.843z"/>
							<path fill="#FFFFFF" d="M350.846,120.405c0-2.695,2.004-4.762,4.764-4.762c1.66,0,3.125,0.825,3.924,2.119l-1.807,1.047
								c-0.403-0.706-1.188-1.126-2.117-1.126c-1.623,0-2.67,1.086-2.67,2.722c0,1.638,1.047,2.724,2.67,2.724
								c0.929,0,1.727-0.42,2.117-1.126l1.807,1.045c-0.785,1.295-2.25,2.12-3.924,2.12
								C352.85,125.17,350.846,123.1,350.846,120.405z"/>
							<path fill="#FFFFFF" d="M366.01,123.546h-3.4l-0.457,1.44h-2.291l3.113-9.161h2.67l3.112,9.161h-2.288L366.01,123.546z
								 M365.383,121.585l-1.074-3.364l-1.072,3.364H365.383z"/>
							<path fill="#FFFFFF" d="M376.218,118.967c0,1.74-1.401,3.141-3.206,3.141h-1.373v2.878h-2.095v-9.161h3.468
								C374.816,115.825,376.218,117.227,376.218,118.967z M374.124,118.967c0-0.667-0.474-1.179-1.112-1.179h-1.373v2.357h1.373
								C373.652,120.145,374.124,119.633,374.124,118.967z"/>
						</g>
					</g>
					<g>
						<g>
							<path fill="#FFFFFF" d="M310.262,138.482c0,1.746-1.361,2.656-2.892,2.656c-1.259,0-2.349-0.534-2.833-1.701l1.564-0.909
								c0.182,0.522,0.521,0.841,1.27,0.841s1.078-0.398,1.078-0.885c0-0.488-0.329-0.885-1.021-0.885h-2.484l0.33-4.558h4.594
								v1.698h-2.893l-0.078,1.091h0.646C309.016,135.83,310.262,136.736,310.262,138.482z"/>
							<path fill="#FFFFFF" d="M313.607,133.039v7.939h-1.813v-6.022l-1.405,0.387l-0.443-1.557l2.076-0.748L313.607,133.039
								L313.607,133.039z"/>
							<path fill="#FFFFFF" d="M316.148,137.009c0-2.451,1.179-4.127,3.23-4.127c2.055,0,3.232,1.676,3.232,4.127
								s-1.18,4.129-3.232,4.129C317.327,141.138,316.148,139.459,316.148,137.009z M320.797,137.009
								c0-1.53-0.465-2.358-1.418-2.358c-0.952,0-1.417,0.828-1.417,2.358c0,1.532,0.466,2.361,1.417,2.361
								C320.332,139.367,320.797,138.539,320.797,137.009z"/>
							<path fill="#FFFFFF" d="M322.578,137.009c0-2.451,1.179-4.127,3.23-4.127c2.053,0,3.233,1.676,3.233,4.127
								s-1.181,4.129-3.233,4.129C323.757,141.138,322.578,139.459,322.578,137.009z M327.229,137.009
								c0-1.53-0.467-2.358-1.42-2.358c-0.951,0-1.416,0.828-1.416,2.358c0,1.532,0.465,2.361,1.416,2.361
								C326.762,139.367,327.229,138.539,327.229,137.009z"/>
							<path fill="#FFFFFF" d="M329.007,137.009c0-2.451,1.179-4.127,3.231-4.127s3.232,1.676,3.232,4.127s-1.18,4.129-3.232,4.129
								S329.007,139.459,329.007,137.009z M333.656,137.009c0-1.53-0.465-2.358-1.418-2.358c-0.952,0-1.418,0.828-1.418,2.358
								c0,1.532,0.465,2.361,1.418,2.361C333.191,139.367,333.656,138.539,333.656,137.009z"/>
							<path fill="#FFFFFF" d="M337.559,137.009c0-2.451,1.18-4.127,3.23-4.127c2.055,0,3.232,1.676,3.232,4.127
								s-1.179,4.129-3.232,4.129C338.738,141.138,337.559,139.459,337.559,137.009z M342.208,137.009
								c0-1.53-0.466-2.358-1.419-2.358c-0.952,0-1.416,0.828-1.416,2.358c0,1.532,0.466,2.361,1.416,2.361
								C341.742,139.367,342.208,138.539,342.208,137.009z"/>
							<path fill="#FFFFFF" d="M343.986,137.009c0-2.451,1.182-4.127,3.234-4.127c2.051,0,3.231,1.676,3.231,4.127
								s-1.181,4.129-3.231,4.129C345.168,141.138,343.986,139.459,343.986,137.009z M348.637,137.009
								c0-1.53-0.465-2.358-1.416-2.358c-0.955,0-1.418,0.828-1.418,2.358c0,1.532,0.463,2.361,1.418,2.361
								C348.172,139.367,348.637,138.539,348.637,137.009z"/>
							<path fill="#FFFFFF" d="M350.418,137.009c0-2.451,1.18-4.127,3.23-4.127c2.055,0,3.232,1.676,3.232,4.127
								s-1.179,4.129-3.232,4.129C351.598,141.138,350.418,139.459,350.418,137.009z M355.066,137.009
								c0-1.53-0.465-2.358-1.416-2.358c-0.953,0-1.418,0.828-1.418,2.358c0,1.532,0.466,2.361,1.418,2.361
								C354.602,139.367,355.066,138.539,355.066,137.009z"/>
							<path fill="#FFFFFF" d="M361.502,138.228c0-1.57,1.248-2.833,2.835-2.833s2.835,1.263,2.835,2.833
								c0,1.571-1.249,2.835-2.835,2.835C362.75,141.063,361.502,139.8,361.502,138.228z M366.757,138.228
								c0-1.349-1.06-2.433-2.419-2.433c-1.357,0-2.419,1.084-2.419,2.433c0,1.351,1.062,2.435,2.419,2.435
								C365.697,140.663,366.757,139.579,366.757,138.228z"/>
							<path fill="#FFFFFF" d="M368.145,135.874v2.197h2.539v0.393h-2.539v2.514h-0.416v-5.497h3.049v0.394L368.145,135.874
								L368.145,135.874z"/>
							<path fill="#FFFFFF" d="M370.986,138.228c0-1.57,1.187-2.833,2.861-2.833c1.012,0,1.898,0.519,2.354,1.318l-0.368,0.212
								c-0.36-0.675-1.122-1.13-1.987-1.13c-1.445,0-2.441,1.084-2.441,2.435c0,1.351,0.996,2.433,2.441,2.433
								c0.872,0,1.641-0.463,2.002-1.154l0.37,0.212c-0.448,0.809-1.343,1.345-2.372,1.345
								C372.173,141.063,370.986,139.8,370.986,138.228z"/>
						</g>
					</g>
				</g>
				<g>
					<g>
						<g>
							<path fill="#FFFFFF" d="M308.568,188.803c0,1.74-1.399,3.141-3.205,3.141h-1.375v2.878h-2.094v-9.16h3.469
								C307.168,185.662,308.568,187.063,308.568,188.803z M306.475,188.803c0-0.668-0.471-1.178-1.111-1.178h-1.375v2.355h1.375
								C306.004,189.98,306.475,189.469,306.475,188.803z"/>
							<path fill="#FFFFFF" d="M309.223,190.241c0-2.694,2.133-4.762,4.762-4.762c2.631,0,4.764,2.067,4.764,4.762
								s-2.133,4.765-4.764,4.765C311.355,195.006,309.223,192.936,309.223,190.241z M316.654,190.241
								c0-1.635-1.176-2.721-2.67-2.721c-1.491,0-2.668,1.085-2.668,2.721c0,1.638,1.177,2.724,2.668,2.724
								C315.479,192.965,316.654,191.879,316.654,190.241z"/>
							<path fill="#FFFFFF" d="M319.271,185.662h2.199l1.584,6.412l1.766-6.412h1.701l1.767,6.412l1.582-6.412h2.198l-2.525,9.16
								h-2.381l-1.491-5.402l-1.493,5.402h-2.38L319.271,185.662z"/>
							<path fill="#FFFFFF" d="M338.742,192.809v2.014h-5.758v-9.16h5.692v2.016h-3.598v1.518h3.272v1.99h-3.272v1.623H338.742z"/>
							<path fill="#FFFFFF" d="M343.006,191.813h-0.992v3.009h-2.094v-9.16h3.663c1.74,0,3.14,1.401,3.14,3.142
								c0,1.125-0.68,2.146-1.688,2.655l1.949,3.363h-2.248L343.006,191.813z M342.014,189.98h1.569
								c0.575,0,1.047-0.512,1.047-1.178c0-0.668-0.472-1.178-1.047-1.178h-1.569V189.98z"/>
							<path fill="#FFFFFF" d="M350.846,190.241c0-2.694,2.002-4.762,4.762-4.762c1.662,0,3.127,0.823,3.927,2.118l-1.808,1.047
								c-0.404-0.706-1.189-1.125-2.119-1.125c-1.623,0-2.668,1.085-2.668,2.721c0,1.637,1.045,2.723,2.668,2.723
								c0.93,0,1.728-0.42,2.119-1.125l1.808,1.045c-0.786,1.295-2.251,2.121-3.927,2.121
								C352.848,195.006,350.846,192.936,350.846,190.241z"/>
							<path fill="#FFFFFF" d="M366.012,193.383h-3.402l-0.459,1.439h-2.289l3.113-9.16h2.67l3.113,9.16h-2.287L366.012,193.383z
								 M365.384,191.422l-1.073-3.363l-1.074,3.363H365.384z"/>
							<path fill="#FFFFFF" d="M376.218,188.803c0,1.74-1.399,3.141-3.204,3.141h-1.375v2.878h-2.096v-9.16h3.471
								C374.818,185.662,376.218,187.063,376.218,188.803z M374.125,188.803c0-0.668-0.473-1.178-1.111-1.178h-1.375v2.355h1.375
								C373.652,189.98,374.125,189.469,374.125,188.803z"/>
						</g>
					</g>
					<g>
						<g>
							<path fill="#FFFFFF" d="M296.314,209.499l2.664-2.767c0.465-0.477,0.805-0.941,0.805-1.406c0-0.5-0.317-0.839-0.85-0.839
								c-0.556,0-0.951,0.362-1.168,0.86l-1.529-0.895c0.51-1.181,1.576-1.734,2.676-1.734c1.418,0,2.688,0.929,2.688,2.529
								c0,0.951-0.512,1.77-1.236,2.494l-1.315,1.327h2.666v1.747h-5.399V209.499L296.314,209.499z"/>
							<path fill="#FFFFFF" d="M301.734,206.846c0-2.451,1.18-4.129,3.231-4.129c2.054,0,3.232,1.678,3.232,4.129
								c0,2.449-1.179,4.127-3.232,4.127C302.915,210.973,301.734,209.295,301.734,206.846z M306.385,206.846
								c0-1.532-0.466-2.359-1.419-2.359c-0.952,0-1.416,0.827-1.416,2.359c0,1.531,0.464,2.358,1.416,2.358
								C305.919,209.204,306.385,208.375,306.385,206.846z"/>
							<path fill="#FFFFFF" d="M314.289,209.545h-0.793v1.27h-1.839v-1.27h-3.607v-1.679l2.529-4.99h1.95l-2.528,4.99h1.655v-1.701
								h1.838v1.701h0.793v1.679H314.289z"/>
							<path fill="#FFFFFF" d="M316.148,206.846c0-2.451,1.179-4.129,3.231-4.129c2.054,0,3.231,1.678,3.231,4.129
								c0,2.449-1.18,4.127-3.231,4.127S316.148,209.295,316.148,206.846z M320.798,206.846c0-1.532-0.465-2.359-1.418-2.359
								c-0.95,0-1.417,0.827-1.417,2.359c0,1.531,0.465,2.358,1.417,2.358C320.333,209.205,320.798,208.375,320.798,206.846z"/>
							<path fill="#FFFFFF" d="M322.578,206.846c0-2.451,1.18-4.129,3.23-4.129c2.053,0,3.232,1.678,3.232,4.129
								c0,2.449-1.18,4.127-3.232,4.127C323.758,210.973,322.578,209.295,322.578,206.846z M327.229,206.846
								c0-1.532-0.465-2.359-1.418-2.359s-1.416,0.827-1.416,2.359c0,1.531,0.463,2.358,1.416,2.358
								C326.764,209.205,327.229,208.375,327.229,206.846z"/>
							<path fill="#FFFFFF" d="M329.008,206.846c0-2.451,1.18-4.129,3.231-4.129s3.233,1.678,3.233,4.129
								c0,2.449-1.182,4.127-3.233,4.127S329.008,209.295,329.008,206.846z M333.658,206.846c0-1.532-0.465-2.359-1.417-2.359
								s-1.417,0.827-1.417,2.359c0,1.531,0.465,2.358,1.417,2.358C333.191,209.204,333.658,208.375,333.658,206.846z"/>
							<path fill="#FFFFFF" d="M337.559,206.846c0-2.451,1.18-4.129,3.231-4.129c2.053,0,3.233,1.678,3.233,4.129
								c0,2.449-1.182,4.127-3.233,4.127S337.559,209.295,337.559,206.846z M342.209,206.846c0-1.532-0.466-2.359-1.419-2.359
								s-1.417,0.827-1.417,2.359c0,1.531,0.464,2.358,1.417,2.358C341.744,209.204,342.209,208.375,342.209,206.846z"/>
							<path fill="#FFFFFF" d="M343.988,206.846c0-2.451,1.18-4.129,3.23-4.129c2.055,0,3.233,1.678,3.233,4.129
								c0,2.449-1.181,4.127-3.233,4.127C345.168,210.973,343.988,209.295,343.988,206.846z M348.637,206.846
								c0-1.532-0.464-2.359-1.416-2.359c-0.953,0-1.418,0.827-1.418,2.359c0,1.531,0.465,2.358,1.418,2.358
								C348.173,209.205,348.637,208.375,348.637,206.846z"/>
							<path fill="#FFFFFF" d="M350.419,206.846c0-2.451,1.179-4.129,3.231-4.129s3.231,1.678,3.231,4.129
								c0,2.449-1.18,4.127-3.231,4.127C351.598,210.973,350.419,209.295,350.419,206.846z M355.066,206.846
								c0-1.532-0.463-2.359-1.416-2.359c-0.952,0-1.418,0.827-1.418,2.359c0,1.531,0.467,2.358,1.418,2.358
								C354.604,209.204,355.066,208.375,355.066,206.846z"/>
							<path fill="#FFFFFF" d="M361.504,208.065c0-1.569,1.248-2.834,2.835-2.834s2.834,1.265,2.834,2.834
								c0,1.571-1.248,2.835-2.834,2.835C362.751,210.9,361.504,209.637,361.504,208.065z M366.757,208.065
								c0-1.351-1.059-2.435-2.418-2.435c-1.358,0-2.418,1.084-2.418,2.435s1.06,2.434,2.418,2.434
								C365.698,210.499,366.757,209.416,366.757,208.065z"/>
							<path fill="#FFFFFF" d="M368.146,205.711v2.197h2.535v0.395h-2.535v2.512h-0.418v-5.498h3.047v0.394L368.146,205.711
								L368.146,205.711z"/>
							<path fill="#FFFFFF" d="M370.988,208.065c0-1.569,1.185-2.834,2.859-2.834c1.012,0,1.899,0.518,2.354,1.319l-0.368,0.211
								c-0.36-0.676-1.122-1.129-1.985-1.129c-1.445,0-2.443,1.082-2.443,2.434c0,1.351,0.998,2.434,2.443,2.434
								c0.871,0,1.639-0.463,2-1.154l0.37,0.213c-0.446,0.809-1.341,1.343-2.37,1.343
								C372.173,210.9,370.988,209.637,370.988,208.065z"/>
						</g>
					</g>
				</g>
				<g>
					<g>
						<g>
							<path fill="#FFFFFF" d="M320.163,255.297v9.159h-2.095v-3.639h-2.877v3.639H313.1v-9.159h2.092v3.508h2.877v-3.508H320.163z"
								/>
							<path fill="#FFFFFF" d="M327.1,263.018h-3.402l-0.459,1.438h-2.29l3.114-9.159h2.67l3.115,9.159h-2.291L327.1,263.018z
								 M326.473,261.055l-1.076-3.363l-1.07,3.363H326.473z"/>
							<path fill="#FFFFFF" d="M333.721,261.447h-0.996v3.01h-2.094v-9.16h3.664c1.741,0,3.141,1.402,3.141,3.142
								c0,1.125-0.68,2.146-1.688,2.655l1.949,3.363h-2.25L333.721,261.447z M332.725,259.615h1.57c0.576,0,1.047-0.512,1.047-1.178
								c0-0.668-0.471-1.178-1.047-1.178h-1.57V259.615z"/>
							<path fill="#FFFFFF" d="M346.792,259.876c0,2.591-1.924,4.58-4.448,4.58h-3.664v-9.159h3.664
								C344.868,255.297,346.792,257.284,346.792,259.876z M344.777,259.876c0-1.569-0.995-2.563-2.434-2.563h-1.572v5.129h1.572
								C343.782,262.441,344.777,261.447,344.777,259.876z"/>
							<path fill="#FFFFFF" d="M350.85,259.876c0-2.694,2.002-4.762,4.762-4.762c1.662,0,3.127,0.821,3.925,2.119l-1.806,1.045
								c-0.404-0.707-1.189-1.125-2.119-1.125c-1.625,0-2.668,1.086-2.668,2.724c0,1.635,1.043,2.723,2.668,2.723
								c0.929,0,1.725-0.42,2.119-1.127l1.806,1.047c-0.785,1.295-2.252,2.121-3.925,2.121
								C352.852,264.641,350.85,262.57,350.85,259.876z"/>
							<path fill="#FFFFFF" d="M366.014,263.018h-3.402l-0.457,1.438h-2.291l3.115-9.159h2.668l3.115,9.159h-2.291L366.014,263.018z
								 M365.385,261.055l-1.074-3.363l-1.07,3.363H365.385z"/>
							<path fill="#FFFFFF" d="M376.218,258.438c0,1.742-1.397,3.141-3.202,3.141h-1.375v2.879h-2.094v-9.16h3.469
								C374.82,255.297,376.218,256.698,376.218,258.438z M374.126,258.438c0-0.668-0.47-1.178-1.11-1.178h-1.375v2.354h1.375
								C373.656,259.615,374.126,259.104,374.126,258.438z"/>
						</g>
					</g>
					<g>
						<g>
							<path fill="#FFFFFF" d="M303.83,277.952c0,1.748-1.359,2.656-2.893,2.656c-1.261,0-2.348-0.533-2.834-1.701l1.564-0.908
								c0.182,0.521,0.521,0.841,1.27,0.841s1.078-0.396,1.078-0.886c0-0.485-0.33-0.885-1.021-0.885h-2.483l0.328-4.56h4.594v1.699
								h-2.893l-0.079,1.09h0.647C302.583,275.301,303.83,276.206,303.83,277.952z"/>
							<path fill="#FFFFFF" d="M307.175,272.512v7.936h-1.813v-6.02l-1.406,0.387l-0.441-1.557l2.074-0.746H307.175L307.175,272.512
								z"/>
							<path fill="#FFFFFF" d="M307.598,276.48c0-2.451,1.18-4.127,3.23-4.127c2.052,0,3.232,1.676,3.232,4.127
								c0,2.449-1.181,4.129-3.232,4.129C308.775,280.609,307.598,278.93,307.598,276.48z M312.245,276.48
								c0-1.531-0.466-2.359-1.417-2.359c-0.954,0-1.417,0.828-1.417,2.359s0.464,2.359,1.417,2.359
								C311.779,278.838,312.245,278.01,312.245,276.48z"/>
							<path fill="#FFFFFF" d="M316.146,276.48c0-2.451,1.18-4.127,3.232-4.127s3.23,1.676,3.23,4.127
								c0,2.449-1.178,4.129-3.23,4.129S316.146,278.93,316.146,276.48z M320.796,276.48c0-1.531-0.464-2.359-1.417-2.359
								s-1.417,0.828-1.417,2.359s0.464,2.359,1.417,2.359S320.796,278.01,320.796,276.48z"/>
							<path fill="#FFFFFF" d="M322.577,276.48c0-2.451,1.179-4.127,3.229-4.127c2.053,0,3.233,1.676,3.233,4.127
								c0,2.449-1.181,4.129-3.233,4.129C323.756,280.609,322.577,278.93,322.577,276.48z M327.227,276.48
								c0-1.531-0.467-2.359-1.418-2.359c-0.953,0-1.416,0.828-1.416,2.359s0.463,2.359,1.416,2.359
								C326.76,278.838,327.227,278.01,327.227,276.48z"/>
							<path fill="#FFFFFF" d="M329.006,276.48c0-2.451,1.18-4.127,3.232-4.127c2.052,0,3.229,1.676,3.229,4.127
								c0,2.449-1.179,4.129-3.229,4.129C330.186,280.609,329.006,278.93,329.006,276.48z M333.654,276.48
								c0-1.531-0.463-2.359-1.416-2.359s-1.418,0.828-1.418,2.359s0.464,2.359,1.418,2.359
								C333.191,278.838,333.654,278.01,333.654,276.48z"/>
							<path fill="#FFFFFF" d="M337.557,276.48c0-2.451,1.18-4.127,3.231-4.127c2.054,0,3.231,1.676,3.231,4.127
								c0,2.449-1.178,4.129-3.231,4.129C338.736,280.609,337.557,278.93,337.557,276.48z M342.205,276.48
								c0-1.531-0.465-2.359-1.417-2.359s-1.417,0.828-1.417,2.359s0.465,2.359,1.417,2.359
								C341.74,278.838,342.205,278.01,342.205,276.48z"/>
							<path fill="#FFFFFF" d="M343.986,276.48c0-2.451,1.179-4.127,3.231-4.127c2.054,0,3.23,1.676,3.23,4.127
								c0,2.449-1.179,4.129-3.23,4.129C345.165,280.609,343.986,278.93,343.986,276.48z M348.637,276.48
								c0-1.531-0.466-2.359-1.419-2.359c-0.954,0-1.417,0.828-1.417,2.359s0.465,2.359,1.417,2.359
								C348.171,278.838,348.637,278.01,348.637,276.48z"/>
							<path fill="#FFFFFF" d="M350.418,276.48c0-2.451,1.178-4.127,3.23-4.127c2.054,0,3.23,1.676,3.23,4.127
								c0,2.449-1.178,4.129-3.23,4.129C351.598,280.609,350.418,278.93,350.418,276.48z M355.064,276.48
								c0-1.531-0.465-2.359-1.416-2.359c-0.955,0-1.418,0.828-1.418,2.359s0.463,2.359,1.418,2.359
								C354.602,278.838,355.064,278.01,355.064,276.48z"/>
							<path fill="#FFFFFF" d="M361.5,277.7c0-1.569,1.25-2.836,2.835-2.836c1.587,0,2.837,1.267,2.837,2.836
								c0,1.57-1.25,2.834-2.837,2.834C362.75,280.534,361.5,279.271,361.5,277.7z M366.755,277.7c0-1.351-1.062-2.435-2.419-2.435
								s-2.418,1.084-2.418,2.435s1.061,2.435,2.418,2.435C365.695,280.135,366.755,279.051,366.755,277.7z"/>
							<path fill="#FFFFFF" d="M368.143,275.344v2.198h2.537v0.394h-2.537v2.512h-0.416v-5.496h3.049v0.393H368.143L368.143,275.344
								z"/>
							<path fill="#FFFFFF" d="M370.986,277.7c0-1.569,1.186-2.836,2.857-2.836c1.014,0,1.901,0.521,2.356,1.319l-0.369,0.212
								c-0.36-0.677-1.124-1.13-1.987-1.13c-1.445,0-2.441,1.084-2.441,2.435c0,1.353,0.998,2.435,2.441,2.435
								c0.873,0,1.643-0.463,2.002-1.154l0.372,0.213c-0.448,0.809-1.344,1.344-2.37,1.344
								C372.172,280.534,370.986,279.271,370.986,277.7z"/>
						</g>
					</g>
				</g>
				<g>
					<g>
						<g>
							<path fill="#FFFFFF" d="M333.966,54.751h-2.094v-5.325l-2.368,3.886h-0.234l-2.369-3.886v5.325h-2.092v-9.16h2.092
								l2.488,4.07l2.484-4.07h2.094L333.966,54.751L333.966,54.751z"/>
							<path fill="#FFFFFF" d="M337.631,45.591v9.16h-2.094v-9.16H337.631z"/>
							<path fill="#FFFFFF" d="M346.398,45.591v9.16h-1.571l-3.533-4.973v4.973h-2.093v-9.16h1.57l3.533,4.973v-4.973H346.398z"/>
							<path fill="#FFFFFF" d="M350.846,50.171c0-2.695,2.004-4.762,4.764-4.762c1.66,0,3.127,0.824,3.925,2.12l-1.806,1.046
								c-0.405-0.706-1.19-1.125-2.119-1.125c-1.623,0-2.67,1.085-2.67,2.722c0,1.636,1.047,2.723,2.67,2.723
								c0.929,0,1.727-0.42,2.119-1.125l1.806,1.046c-0.784,1.295-2.25,2.12-3.925,2.12
								C352.85,54.934,350.846,52.866,350.846,50.171z"/>
							<path fill="#FFFFFF" d="M366.012,53.313h-3.402l-0.457,1.438h-2.291l3.113-9.16h2.67l3.114,9.16h-2.291L366.012,53.313z
								 M365.385,51.35l-1.074-3.363l-1.072,3.363H365.385z"/>
							<path fill="#FFFFFF" d="M376.218,48.732c0,1.74-1.401,3.141-3.204,3.141h-1.375v2.879h-2.094v-9.16h3.469
								C374.816,45.591,376.218,46.992,376.218,48.732z M374.125,48.732c0-0.667-0.473-1.178-1.111-1.178h-1.375v2.355h1.375
								C373.652,49.909,374.125,49.399,374.125,48.732z"/>
						</g>
					</g>
					<g>
						<g>
							<path fill="#FFFFFF" d="M309.186,62.805v7.938h-1.816v-6.021l-1.404,0.386l-0.443-1.554l2.076-0.748L309.186,62.805
								L309.186,62.805z"/>
							<path fill="#FFFFFF" d="M309.514,69.428l2.666-2.767c0.465-0.477,0.807-0.941,0.807-1.406c0-0.499-0.318-0.839-0.853-0.839
								c-0.556,0-0.952,0.363-1.168,0.861l-1.53-0.896c0.512-1.181,1.576-1.734,2.676-1.734c1.418,0,2.688,0.929,2.688,2.529
								c0,0.952-0.511,1.769-1.236,2.495l-1.316,1.327h2.666v1.747h-5.396L309.514,69.428L309.514,69.428z"/>
							<path fill="#FFFFFF" d="M322.668,68.248c0,1.746-1.359,2.654-2.893,2.654c-1.258,0-2.346-0.533-2.834-1.7l1.564-0.908
								c0.182,0.521,0.521,0.84,1.27,0.84c0.75,0,1.078-0.397,1.078-0.885c0-0.487-0.328-0.885-1.021-0.885h-2.483l0.33-4.558h4.594
								v1.699h-2.894l-0.08,1.09h0.646C321.42,65.595,322.668,66.502,322.668,68.248z"/>
							<path fill="#FFFFFF" d="M322.577,66.774c0-2.45,1.18-4.127,3.231-4.127c2.053,0,3.233,1.677,3.233,4.127
								c0,2.45-1.181,4.128-3.233,4.128C323.757,70.902,322.577,69.224,322.577,66.774z M327.229,66.774
								c0-1.531-0.467-2.358-1.42-2.358s-1.418,0.827-1.418,2.358c0,1.532,0.465,2.36,1.418,2.36
								C326.762,69.133,327.229,68.304,327.229,66.774z"/>
							<path fill="#FFFFFF" d="M329.007,66.774c0-2.45,1.181-4.127,3.233-4.127c2.052,0,3.232,1.677,3.232,4.127
								c0,2.45-1.181,4.128-3.232,4.128C330.186,70.902,329.007,69.224,329.007,66.774z M333.656,66.774
								c0-1.531-0.465-2.358-1.416-2.358c-0.953,0-1.417,0.827-1.417,2.358c0,1.532,0.464,2.36,1.417,2.36
								C333.191,69.133,333.656,68.304,333.656,66.774z"/>
							<path fill="#FFFFFF" d="M337.559,66.774c0-2.45,1.178-4.127,3.23-4.127c2.054,0,3.232,1.677,3.232,4.127
								c0,2.45-1.18,4.128-3.232,4.128S337.559,69.224,337.559,66.774z M342.208,66.774c0-1.531-0.466-2.358-1.419-2.358
								c-0.952,0-1.416,0.827-1.416,2.358c0,1.532,0.464,2.36,1.416,2.36C341.742,69.133,342.208,68.304,342.208,66.774z"/>
							<path fill="#FFFFFF" d="M343.986,66.774c0-2.45,1.182-4.127,3.234-4.127c2.051,0,3.232,1.677,3.232,4.127
								c0,2.45-1.182,4.128-3.232,4.128C345.168,70.902,343.986,69.224,343.986,66.774z M348.639,66.774
								c0-1.531-0.466-2.358-1.418-2.358c-0.953,0-1.416,0.827-1.416,2.358c0,1.532,0.463,2.36,1.416,2.36
								C348.173,69.134,348.639,68.304,348.639,66.774z"/>
							<path fill="#FFFFFF" d="M350.418,66.774c0-2.45,1.178-4.127,3.232-4.127c2.053,0,3.23,1.677,3.23,4.127
								c0,2.45-1.178,4.128-3.23,4.128C351.596,70.902,350.418,69.224,350.418,66.774z M355.066,66.774
								c0-1.531-0.465-2.358-1.418-2.358c-0.951,0-1.416,0.827-1.416,2.358c0,1.532,0.466,2.36,1.416,2.36
								C354.602,69.133,355.066,68.304,355.066,66.774z"/>
							<path fill="#FFFFFF" d="M361.502,67.994c0-1.569,1.249-2.833,2.835-2.833c1.587,0,2.835,1.264,2.835,2.833
								c0,1.572-1.249,2.835-2.835,2.835S361.502,69.566,361.502,67.994z M366.757,67.994c0-1.35-1.06-2.434-2.419-2.434
								c-1.357,0-2.418,1.084-2.418,2.434c0,1.351,1.061,2.435,2.418,2.435C365.697,70.428,366.757,69.345,366.757,67.994z"/>
							<path fill="#FFFFFF" d="M368.146,65.639v2.198h2.537v0.394h-2.537v2.513h-0.416v-5.497h3.047v0.393L368.146,65.639
								L368.146,65.639z"/>
							<path fill="#FFFFFF" d="M370.986,67.994c0-1.569,1.188-2.833,2.861-2.833c1.012,0,1.898,0.518,2.354,1.319l-0.368,0.212
								c-0.36-0.677-1.123-1.131-1.985-1.131c-1.445,0-2.443,1.083-2.443,2.434c0,1.352,0.998,2.435,2.443,2.435
								c0.87,0,1.641-0.464,2-1.154l0.37,0.212c-0.448,0.809-1.342,1.343-2.37,1.343C372.174,70.829,370.986,69.566,370.986,67.994z
								"/>
						</g>
					</g>
				</g>
				
					<linearGradient id="SVGID_1_" gradientUnits="userSpaceOnUse" x1="386.2139" y1="211.8574" x2="386.2139" y2="241.9521" gradientTransform="matrix(1 0 0 -1 84 285.498)">
					<stop  offset="0" style="stop-color:#706DCB"/>
					<stop  offset="1" style="stop-color:#706DCB;stop-opacity:0.7"/>
				</linearGradient>
				<polygon opacity="0.4" fill="url(#SVGID_1_)" enable-background="new    " points="435.014,43.545 435.014,53.366 
					429.568,58.375 435.014,63.384 435.014,73.64 510.857,73.64 510.857,43.545 				"/>
				
					<linearGradient id="SVGID_2_" gradientUnits="userSpaceOnUse" x1="386.2139" y1="142.041" x2="386.2139" y2="172.1362" gradientTransform="matrix(1 0 0 -1 84 285.498)">
					<stop  offset="0" style="stop-color:#706DCB"/>
					<stop  offset="1" style="stop-color:#706DCB;stop-opacity:0.7"/>
				</linearGradient>
				<polygon opacity="0.6" fill="url(#SVGID_2_)" enable-background="new    " points="435.014,113.362 435.014,123.115 
					429.568,128.123 435.014,133.131 435.014,143.457 510.857,143.457 510.857,113.362 				"/>
				
					<linearGradient id="SVGID_3_" gradientUnits="userSpaceOnUse" x1="386.2139" y1="71.7876" x2="386.2139" y2="101.8833" gradientTransform="matrix(1 0 0 -1 84 285.498)">
					<stop  offset="0" style="stop-color:#706DCB"/>
					<stop  offset="1" style="stop-color:#706DCB;stop-opacity:0.7"/>
				</linearGradient>
				<polygon opacity="0.8" fill="url(#SVGID_3_)" enable-background="new    " points="435.014,183.615 435.014,193.438 
					429.568,198.445 435.014,203.452 435.014,213.711 510.857,213.711 510.857,183.615 				"/>
				
					<linearGradient id="SVGID_4_" gradientUnits="userSpaceOnUse" x1="386.2139" y1="1.7534" x2="386.2139" y2="31.8481" gradientTransform="matrix(1 0 0 -1 84 285.498)">
					<stop  offset="0" style="stop-color:#706DCB"/>
					<stop  offset="1" style="stop-color:#706DCB;stop-opacity:0.7"/>
				</linearGradient>
				<polygon fill="url(#SVGID_4_)" points="435.014,253.65 435.014,263.385 429.568,268.391 435.014,273.402 435.014,283.745 
					510.857,283.745 510.857,253.65 				"/>
				
					<text transform="matrix(4.366650e-008 1 1 -4.366650e-008 442.5244 206.6475)" fill="#FFFFFF" font-family="'Gilroy-Light'" font-size="12.2127"> </text>
				<g>
					<g>
						<path fill="#FFFFFF" d="M406.177,313.807l-6.19,7.809c-0.082,0.107-0.209,0.168-0.344,0.166c-0.134,0-0.26-0.062-0.343-0.166
							l-6.106-7.811c-0.147-0.193-0.114-0.467,0.076-0.615c0.189-0.146,0.465-0.115,0.611,0.076l5.766,7.375l5.847-7.377
							c0.149-0.191,0.422-0.222,0.61-0.072c0.11,0.086,0.166,0.213,0.166,0.342C406.27,313.627,406.24,313.725,406.177,313.807z"/>
					</g>
					<g>
						<path fill="#FFFFFF" d="M399.645,48.013c-0.242,0-0.437-0.194-0.437-0.436V28.819c0-0.243,0.194-0.437,0.437-0.437
							c0.24,0,0.437,0.194,0.437,0.437v18.759C400.081,47.819,399.885,48.013,399.645,48.013z"/>
					</g>
					<g>
						<g>
							<path fill="#FFFFFF" d="M399.645,69.606c-6.192,0-11.231-5.039-11.231-11.231c0-6.193,5.04-11.232,11.231-11.232
								s11.231,5.039,11.231,11.232C410.876,64.567,405.836,69.606,399.645,69.606z M399.645,68.734
								c5.713,0,10.358-4.648,10.358-10.359c0-5.712-4.646-10.359-10.358-10.359s-10.358,4.647-10.358,10.359
								C389.286,64.086,393.932,68.734,399.645,68.734z"/>
						</g>
						
							<linearGradient id="SVGID_5_" gradientUnits="userSpaceOnUse" x1="-5010.7554" y1="282.7061" x2="-4999.5254" y2="282.7061" gradientTransform="matrix(4.371139e-008 -1 -1 -4.371139e-008 682.3486 -4946.7651)">
							<stop  offset="0" style="stop-color:#706DCB;stop-opacity:0"/>
							<stop  offset="1" style="stop-color:#706DCB;stop-opacity:0.7"/>
						</linearGradient>
						<circle fill="url(#SVGID_5_)" cx="399.643" cy="58.375" r="5.615"/>
					</g>
					<g>
						<g>
							<path fill="#FFFFFF" d="M399.645,139.64c-6.192,0-11.231-5.039-11.231-11.231s5.04-11.231,11.231-11.231
								s11.231,5.039,11.231,11.231S405.836,139.64,399.645,139.64z M399.645,138.768c5.713,0,10.358-4.646,10.358-10.358
								s-4.646-10.359-10.358-10.359s-10.358,4.647-10.358,10.359S393.932,138.768,399.645,138.768z"/>
						</g>
						
							<linearGradient id="SVGID_6_" gradientUnits="userSpaceOnUse" x1="-5012.8882" y1="350.6094" x2="-5001.6563" y2="350.6094" gradientTransform="matrix(4.371139e-008 -1 -1 -4.371139e-008 750.2529 -4878.8628)">
							<stop  offset="0" style="stop-color:#706DCB;stop-opacity:0"/>
							<stop  offset="1" style="stop-color:#706DCB;stop-opacity:0.7"/>
						</linearGradient>
						<circle fill="url(#SVGID_6_)" cx="399.645" cy="128.409" r="5.616"/>
					</g>
					<g>
						<g>
							<path fill="#FFFFFF" d="M399.645,209.676c-6.192,0-11.231-5.037-11.231-11.23c0-6.191,5.04-11.23,11.231-11.23
								s11.231,5.039,11.231,11.23S405.836,209.676,399.645,209.676z M399.645,208.803c5.713,0,10.358-4.646,10.358-10.358
								s-4.646-10.358-10.358-10.358s-10.358,4.646-10.358,10.358S393.932,208.803,399.645,208.803z"/>
						</g>
						
							<linearGradient id="SVGID_7_" gradientUnits="userSpaceOnUse" x1="-5015.0195" y1="418.5127" x2="-5003.7891" y2="418.5127" gradientTransform="matrix(4.371139e-008 -1 -1 -4.371139e-008 818.1553 -4810.9585)">
							<stop  offset="0" style="stop-color:#706DCB;stop-opacity:0"/>
							<stop  offset="1" style="stop-color:#706DCB;stop-opacity:0.7"/>
						</linearGradient>
						<circle fill="url(#SVGID_7_)" cx="399.643" cy="198.445" r="5.615"/>
					</g>
					<g>
						<g>
							<path fill="#FFFFFF" d="M399.645,279.711c-6.192,0-11.231-5.037-11.231-11.23s5.04-11.232,11.231-11.232
								s11.231,5.039,11.231,11.232S405.836,279.711,399.645,279.711z M399.645,278.84c5.713,0,10.358-4.648,10.358-10.359
								s-4.646-10.359-10.358-10.359s-10.358,4.648-10.358,10.359S393.932,278.84,399.645,278.84z"/>
						</g>
						
							<linearGradient id="SVGID_8_" gradientUnits="userSpaceOnUse" x1="-5017.1504" y1="486.418" x2="-5005.9189" y2="486.418" gradientTransform="matrix(4.371139e-008 -1 -1 -4.371139e-008 886.0615 -4743.0522)">
							<stop  offset="0" style="stop-color:#706DCB;stop-opacity:0"/>
							<stop  offset="1" style="stop-color:#706DCB;stop-opacity:0.7"/>
						</linearGradient>
						<circle fill="url(#SVGID_8_)" cx="399.645" cy="268.482" r="5.616"/>
					</g>
					<g>
						<path fill="#FFFFFF" d="M399.645,320.854c-0.242,0-0.437-0.193-0.437-0.437v-41.143c0-0.24,0.194-0.437,0.437-0.437
							c0.24,0,0.437,0.195,0.437,0.437v41.143C400.081,320.657,399.885,320.854,399.645,320.854z"/>
					</g>
					<g>
						<path fill="#FFFFFF" d="M399.645,118.051c-0.242,0-0.437-0.195-0.437-0.438v-47.57c0-0.241,0.194-0.437,0.437-0.437
							c0.24,0,0.437,0.194,0.437,0.437v47.57C400.081,117.856,399.885,118.051,399.645,118.051z"/>
					</g>
					<g>
						<path fill="#FFFFFF" d="M399.645,187.215c-0.242,0-0.437-0.197-0.437-0.438v-47.571c0-0.243,0.194-0.438,0.437-0.438
							c0.24,0,0.437,0.195,0.437,0.438v47.571C400.081,187.018,399.885,187.215,399.645,187.215z"/>
					</g>
					<g>
						<path fill="#FFFFFF" d="M399.645,257.247c-0.242,0-0.437-0.192-0.437-0.434v-47.575c0-0.241,0.194-0.436,0.437-0.436
							c0.24,0,0.437,0.194,0.437,0.436v47.575C400.081,257.055,399.885,257.247,399.645,257.247z"/>
					</g>
					<g>
						<g>
							<rect x="410.076" y="58.156" fill="#FFFFFF" width="15.514" height="0.437"/>
						</g>
						<g>
							<rect x="410.076" y="127.905" fill="#FFFFFF" width="15.514" height="0.437"/>
						</g>
						<g>
							<rect x="410.076" y="198.227" fill="#FFFFFF" width="15.514" height="0.438"/>
						</g>
						<g>
							<rect x="410.076" y="268.262" fill="#FFFFFF" width="15.514" height="0.436"/>
						</g>
					</g>
				</g>
				<g>
					<path fill="#FFFFFF" d="M456.593,54.013c0-1.744,1.315-3.148,3.173-3.148c1.123,0,2.108,0.576,2.614,1.466l-0.409,0.235
						c-0.402-0.75-1.248-1.256-2.205-1.256c-1.605,0-2.711,1.204-2.711,2.703s1.104,2.704,2.711,2.704
						c0.967,0,1.822-0.515,2.223-1.283l0.41,0.236c-0.498,0.898-1.492,1.491-2.633,1.491
						C457.908,57.161,456.593,55.757,456.593,54.013z"/>
					<path fill="#FFFFFF" d="M465.879,54.563h-1.926v2.501h-0.461v-6.103h2.404c0.992,0,1.806,0.811,1.806,1.805
						c0,0.829-0.566,1.524-1.343,1.735l1.518,2.563h-0.533L465.879,54.563z M463.953,54.126h1.943c0.742,0,1.344-0.609,1.344-1.36
						c0-0.758-0.602-1.369-1.344-1.369h-1.943V54.126z"/>
					<path fill="#FFFFFF" d="M470.303,54.553v2.511h-0.464v-2.511l-2.222-3.592h0.523l1.937,3.148l1.926-3.148h0.522L470.303,54.553
						z"/>
					<path fill="#FFFFFF" d="M477.35,52.854c0,1.074-0.8,1.884-1.899,1.884h-1.613v2.328h-0.461v-6.103h2.074
						C476.55,50.961,477.35,51.772,477.35,52.854z M476.886,52.854c0-0.844-0.601-1.454-1.437-1.454h-1.613v2.903h1.613
						C476.285,54.302,476.886,53.691,476.886,52.854z"/>
					<path fill="#FFFFFF" d="M482.244,51.397h-1.92v5.667h-0.469v-5.667h-1.92v-0.436h4.309V51.397z"/>
					<path fill="#FFFFFF" d="M482.375,54.013c0-1.744,1.391-3.148,3.148-3.148c1.761,0,3.146,1.404,3.146,3.148
						s-1.386,3.148-3.146,3.148C483.766,57.161,482.375,55.757,482.375,54.013z M488.211,54.013c0-1.5-1.179-2.703-2.688-2.703
						c-1.51,0-2.684,1.204-2.684,2.703s1.174,2.704,2.684,2.704C487.032,56.717,488.211,55.512,488.211,54.013z"/>
					<path fill="#FFFFFF" d="M453.712,59.684v6.104h-0.464v-6.104H453.712z"/>
					<path fill="#FFFFFF" d="M459.7,59.684v6.104h-0.406l-3.603-5.249v5.249h-0.461v-6.104h0.4l3.607,5.25v-5.25H459.7z"/>
					<path fill="#FFFFFF" d="M466.393,62.736c0,1.683-1.191,3.052-2.877,3.052h-2.291v-6.104h2.291
						C465.2,59.684,466.393,61.055,466.393,62.736z M465.938,62.736c0-1.446-0.982-2.615-2.422-2.615h-1.832v5.231h1.832
						C464.954,65.352,465.938,64.184,465.938,62.736z"/>
					<path fill="#FFFFFF" d="M467.477,63.747v-4.063h0.463v4.063c0,0.995,0.619,1.692,1.771,1.692c1.161,0,1.777-0.698,1.777-1.692
						v-4.063h0.463v4.063c0,1.291-0.898,2.137-2.24,2.137C468.366,65.885,467.477,65.038,467.477,63.747z"/>
					<path fill="#FFFFFF" d="M473.016,64.445l0.403-0.235c0.209,0.733,0.828,1.229,1.829,1.229c1.02,0,1.537-0.522,1.537-1.22
						c0-0.733-0.646-1.012-1.579-1.308c-1.021-0.331-1.937-0.618-1.937-1.683c0-1.003,0.811-1.639,1.85-1.639
						c1.001,0,1.666,0.576,1.96,1.282l-0.392,0.219c-0.228-0.551-0.696-1.056-1.568-1.056c-0.846,0-1.38,0.498-1.38,1.177
						c0,0.732,0.62,0.958,1.489,1.246c1.084,0.357,2.025,0.698,2.025,1.753c0,1.011-0.794,1.675-2.007,1.675
						C474.107,65.885,473.296,65.308,473.016,64.445z"/>
					<path fill="#FFFFFF" d="M482.141,60.121h-1.92v5.667h-0.471v-5.667h-1.917v-0.437h4.306v0.437H482.141z"/>
					<path fill="#FFFFFF" d="M485.489,63.286h-1.927v2.502h-0.461v-6.104h2.405c0.993,0,1.804,0.813,1.804,1.805
						c0,0.83-0.566,1.526-1.343,1.736l1.517,2.563h-0.53L485.489,63.286z M483.563,62.849h1.944c0.741,0,1.343-0.61,1.343-1.36
						c0-0.759-0.602-1.368-1.343-1.368h-1.944V62.849z"/>
					<path fill="#FFFFFF" d="M490.463,63.277v2.512H490v-2.512l-2.223-3.592h0.521l1.936,3.147l1.927-3.147h0.524L490.463,63.277z"
						/>
				</g>
				<g>
					<path fill="#FFFFFF" d="M445.434,121.045h0.488l1.577,5.484l1.702-5.484h0.548l1.709,5.484l1.569-5.484h0.488l-1.771,6.103
						h-0.558l-1.711-5.501l-1.715,5.501h-0.56L445.434,121.045z"/>
					<path fill="#FFFFFF" d="M454.218,124.096c0-1.744,1.388-3.147,3.146-3.147c1.763,0,3.147,1.403,3.147,3.147
						c0,1.745-1.386,3.147-3.147,3.147C455.605,127.244,454.218,125.841,454.218,124.096z M460.051,124.096
						c0-1.5-1.176-2.704-2.687-2.704c-1.507,0-2.685,1.205-2.685,2.704s1.178,2.704,2.685,2.704
						C458.875,126.801,460.051,125.596,460.051,124.096z"/>
					<path fill="#FFFFFF" d="M464.074,124.645h-1.928v2.503h-0.465v-6.103h2.407c0.995,0,1.808,0.811,1.808,1.803
						c0,0.829-0.567,1.526-1.344,1.736l1.518,2.564h-0.532L464.074,124.645z M462.146,124.21h1.944c0.739,0,1.343-0.61,1.343-1.362
						c0-0.758-0.604-1.368-1.343-1.368h-1.944V124.21z"/>
					<path fill="#FFFFFF" d="M470.371,126.711v0.437h-3.338v-6.103h0.463v5.666H470.371L470.371,126.711z"/>
					<path fill="#FFFFFF" d="M476.503,124.096c0,1.683-1.194,3.051-2.879,3.051h-2.29v-6.103h2.29
						C475.309,121.045,476.503,122.413,476.503,124.096z M476.05,124.096c0-1.447-0.985-2.616-2.426-2.616h-1.829v5.23h1.829
						C475.064,126.711,476.05,125.544,476.05,124.096z"/>
					<path fill="#FFFFFF" d="M479.535,121.045h0.484l1.58,5.484l1.701-5.484h0.549l1.707,5.484l1.569-5.484h0.487l-1.77,6.103
						h-0.558l-1.71-5.501l-1.717,5.501h-0.561L479.535,121.045z"/>
					<path fill="#FFFFFF" d="M489.128,121.045v6.103h-0.462v-6.103H489.128z"/>
					<path fill="#FFFFFF" d="M495.816,124.096c0,1.683-1.193,3.051-2.877,3.051h-2.293v-6.103h2.293
						C494.623,121.045,495.816,122.413,495.816,124.096z M495.364,124.096c0-1.447-0.985-2.616-2.427-2.616h-1.83v5.23h1.83
						C494.379,126.711,495.364,125.544,495.364,124.096z"/>
					<path fill="#FFFFFF" d="M500.503,126.711v0.437h-3.517v-6.103h3.473v0.435h-3.008v2.372h2.79v0.435h-2.79v2.424H500.503
						L500.503,126.711z"/>
					<path fill="#FFFFFF" d="M463.927,129.767h0.489l1.58,5.484l1.697-5.484h0.551l1.708,5.484l1.569-5.484h0.488l-1.771,6.103
						h-0.558l-1.709-5.502l-1.719,5.502h-0.559L463.927,129.767z"/>
					<path fill="#FFFFFF" d="M476.575,135.435v0.435h-3.515v-6.103h3.471v0.437h-3.01v2.372h2.791v0.435h-2.791v2.424H476.575z"/>
					<path fill="#FFFFFF" d="M482.009,134.206c0,0.923-0.741,1.666-1.666,1.666h-2.631v-6.103h2.433
						c0.888,0,1.604,0.723,1.604,1.604c0,0.592-0.313,1.08-0.782,1.333C481.573,132.94,482.009,133.507,482.009,134.206z
						 M478.173,130.204v2.336h1.968c0.629,0,1.146-0.524,1.146-1.167c0-0.647-0.517-1.169-1.146-1.169H478.173z M481.547,134.206
						c0-0.68-0.542-1.228-1.204-1.228h-2.17v2.457h2.17C481.005,135.435,481.547,134.886,481.547,134.206z"/>
				</g>
				<g>
					<path fill="#FFFFFF" d="M458.559,196.555v0.438h-3.516v-6.104h3.471v0.437h-3.007v2.371h2.788v0.437h-2.788v2.422H458.559
						L458.559,196.555z"/>
					<path fill="#FFFFFF" d="M459.326,195.649l0.4-0.236c0.209,0.732,0.83,1.229,1.83,1.229c1.021,0,1.535-0.522,1.535-1.221
						c0-0.732-0.646-1.011-1.576-1.309c-1.021-0.331-1.937-0.618-1.937-1.684c0-1.002,0.81-1.639,1.847-1.639
						c1.004,0,1.666,0.576,1.965,1.282l-0.396,0.218c-0.226-0.549-0.697-1.055-1.569-1.055c-0.844,0-1.378,0.497-1.378,1.177
						c0,0.733,0.621,0.958,1.493,1.246c1.082,0.358,2.021,0.697,2.021,1.753c0,1.012-0.793,1.674-2.006,1.674
						C460.418,197.088,459.607,196.512,459.326,195.649z"/>
					<path fill="#FFFFFF" d="M464.352,193.939c0-1.743,1.315-3.147,3.174-3.147c1.123,0,2.111,0.576,2.615,1.466l-0.41,0.235
						c-0.399-0.75-1.246-1.255-2.205-1.255c-1.605,0-2.711,1.203-2.711,2.702c0,1.5,1.104,2.704,2.711,2.704
						c0.967,0,1.82-0.514,2.225-1.282l0.408,0.235c-0.497,0.898-1.49,1.49-2.633,1.49
						C465.667,197.088,464.352,195.684,464.352,193.939z"/>
					<path fill="#FFFFFF" d="M473.639,194.49h-1.926v2.501h-0.462v-6.103h2.407c0.992,0,1.804,0.811,1.804,1.805
						c0,0.828-0.565,1.523-1.342,1.734l1.519,2.563h-0.533L473.639,194.49z M471.713,194.053h1.945c0.738,0,1.342-0.608,1.342-1.359
						c0-0.76-0.604-1.369-1.342-1.369h-1.945V194.053z"/>
					<path fill="#FFFFFF" d="M476.249,193.939c0-1.743,1.388-3.147,3.147-3.147c1.761,0,3.146,1.405,3.146,3.147
						c0,1.744-1.386,3.148-3.146,3.148C477.635,197.088,476.249,195.684,476.249,193.939z M482.081,193.939
						c0-1.499-1.177-2.702-2.687-2.702c-1.506,0-2.685,1.203-2.685,2.702c0,1.5,1.179,2.705,2.685,2.705
						C480.904,196.645,482.081,195.439,482.081,193.939z"/>
					<path fill="#FFFFFF" d="M483.245,190.889h0.487l1.58,5.483l1.701-5.483h0.547l1.707,5.483l1.569-5.483h0.489l-1.771,6.103
						h-0.558l-1.709-5.501l-1.718,5.501h-0.56L483.245,190.889z"/>
					<path fill="#FFFFFF" d="M447.624,202.663c0-1.743,1.317-3.147,3.173-3.147c1.124,0,2.111,0.576,2.616,1.467l-0.41,0.234
						c-0.401-0.75-1.245-1.256-2.206-1.256c-1.604,0-2.71,1.204-2.71,2.703c0,1.498,1.106,2.703,2.71,2.703
						c0.969,0,1.823-0.516,2.225-1.281l0.41,0.233c-0.496,0.899-1.49,1.493-2.635,1.493
						C448.941,205.811,447.624,204.407,447.624,202.663z"/>
					<path fill="#FFFFFF" d="M454.175,202.663c0-1.743,1.388-3.147,3.148-3.147c1.76,0,3.146,1.404,3.146,3.147
						c0,1.744-1.386,3.147-3.146,3.147C455.563,205.811,454.175,204.407,454.175,202.663z M460.007,202.663
						c0-1.5-1.177-2.702-2.687-2.702c-1.506,0-2.682,1.203-2.682,2.702s1.176,2.703,2.682,2.703
						C458.83,205.365,460.007,204.162,460.007,202.663z"/>
					<path fill="#FFFFFF" d="M466.116,199.611v6.104h-0.41l-3.603-5.248v5.248h-0.463v-6.104h0.401l3.61,5.249v-5.249H466.116z"/>
					<path fill="#FFFFFF" d="M471.385,200.049h-1.92v5.666h-0.47v-5.666h-1.92v-0.437h4.31V200.049L471.385,200.049z"/>
					<path fill="#FFFFFF" d="M474.734,203.213h-1.926v2.502h-0.461v-6.104h2.404c0.995,0,1.807,0.813,1.807,1.804
						c0,0.83-0.567,1.525-1.346,1.736l1.52,2.563h-0.531L474.734,203.213z M472.809,202.776h1.944c0.741,0,1.341-0.609,1.341-1.359
						c0-0.758-0.6-1.368-1.341-1.368h-1.944V202.776z"/>
					<path fill="#FFFFFF" d="M481.209,204.162h-3.063l-0.595,1.553h-0.487l2.371-6.103h0.489l2.36,6.103h-0.487L481.209,204.162z
						 M481.042,203.727l-1.36-3.547l-1.361,3.547H481.042z"/>
					<path fill="#FFFFFF" d="M482.832,202.663c0-1.743,1.314-3.147,3.173-3.147c1.126,0,2.109,0.576,2.617,1.467l-0.411,0.234
						c-0.398-0.75-1.247-1.256-2.206-1.256c-1.604,0-2.711,1.204-2.711,2.703c0,1.498,1.106,2.703,2.711,2.703
						c0.97,0,1.823-0.516,2.226-1.281l0.408,0.233c-0.498,0.899-1.49,1.493-2.634,1.493
						C484.146,205.811,482.832,204.407,482.832,202.663z"/>
					<path fill="#FFFFFF" d="M493.479,200.049h-1.916v5.666h-0.473v-5.666h-1.918v-0.437h4.307V200.049L493.479,200.049z"/>
					<path fill="#FFFFFF" d="M494.077,204.372l0.397-0.235c0.211,0.732,0.828,1.229,1.832,1.229c1.021,0,1.534-0.522,1.534-1.22
						c0-0.733-0.646-1.012-1.579-1.309c-1.018-0.33-1.934-0.619-1.934-1.683c0-1.003,0.811-1.64,1.849-1.64
						c1.001,0,1.666,0.576,1.962,1.283l-0.395,0.217c-0.229-0.549-0.697-1.055-1.569-1.055c-0.846,0-1.376,0.498-1.376,1.178
						c0,0.732,0.619,0.959,1.491,1.246c1.079,0.357,2.022,0.698,2.022,1.754c0,1.011-0.797,1.674-2.008,1.674
						C495.165,205.811,494.354,205.235,494.077,204.372z"/>
				</g>
				<g>
					<path fill="#FFFFFF" d="M456.868,264.279h-3.06l-0.594,1.553h-0.49l2.373-6.104h0.486l2.363,6.104h-0.487L456.868,264.279z
						 M456.703,263.844l-1.359-3.547l-1.361,3.547H456.703z"/>
					<path fill="#FFFFFF" d="M461.229,263.329h-1.926v2.502h-0.461v-6.104h2.405c0.993,0,1.805,0.813,1.805,1.806
						c0,0.83-0.565,1.524-1.342,1.735l1.517,2.563h-0.533L461.229,263.329z M459.305,262.895h1.943c0.741,0,1.341-0.611,1.341-1.361
						c0-0.758-0.6-1.367-1.341-1.367h-1.943V262.895z"/>
					<path fill="#FFFFFF" d="M467.936,260.165h-1.916v5.666h-0.471v-5.666h-1.92v-0.438h4.307V260.165L467.936,260.165z"/>
					<path fill="#FFFFFF" d="M469.361,259.729v6.104H468.9v-6.104H469.361z"/>
					<path fill="#FFFFFF" d="M471.342,260.165v2.439h2.816v0.436h-2.816v2.791h-0.461v-6.104h3.383v0.438H471.342L471.342,260.165z"
						/>
					<path fill="#FFFFFF" d="M475.859,259.729v6.104h-0.461v-6.104H475.859z"/>
					<path fill="#FFFFFF" d="M477.027,262.781c0-1.744,1.315-3.148,3.176-3.148c1.126,0,2.109,0.576,2.617,1.465l-0.411,0.236
						c-0.4-0.75-1.247-1.256-2.206-1.256c-1.605,0-2.713,1.203-2.713,2.703c0,1.498,1.107,2.703,2.713,2.703
						c0.968,0,1.822-0.516,2.223-1.283l0.408,0.236c-0.495,0.897-1.49,1.49-2.631,1.49
						C478.344,265.928,477.027,264.525,477.027,262.781z"/>
					<path fill="#FFFFFF" d="M487.441,264.279h-3.061l-0.593,1.553h-0.485l2.371-6.104h0.487l2.362,6.104h-0.491L487.441,264.279z
						 M487.275,263.844l-1.359-3.547l-1.359,3.547H487.275z"/>
					<path fill="#FFFFFF" d="M492.756,265.396v0.436h-3.341v-6.104h0.462v5.666h2.879V265.396z"/>
					<path fill="#FFFFFF" d="M445.634,268.45v6.104h-0.461v-6.104H445.634z"/>
					<path fill="#FFFFFF" d="M451.625,268.45v6.104h-0.411l-3.6-5.248v5.248h-0.462v-6.104h0.4l3.609,5.25v-5.25H451.625z"/>
					<path fill="#FFFFFF" d="M456.893,268.889h-1.916v5.668h-0.471v-5.668h-1.92v-0.437h4.307V268.889L456.893,268.889z"/>
					<path fill="#FFFFFF" d="M461.368,274.118v0.437h-3.513v-6.104h3.471v0.438h-3.01v2.371h2.791v0.436h-2.791v2.424
						L461.368,274.118L461.368,274.118z"/>
					<path fill="#FFFFFF" d="M465.843,274.118v0.437h-3.336v-6.104h0.461v5.668H465.843z"/>
					<path fill="#FFFFFF" d="M470.146,274.118v0.437h-3.34v-6.104h0.461v5.668H470.146z"/>
					<path fill="#FFFFFF" d="M471.566,268.45v6.104h-0.461v-6.104H471.566z"/>
					<path fill="#FFFFFF" d="M478.893,271.947c0,1.475-1.123,2.705-2.947,2.705c-1.891,0-3.206-1.404-3.206-3.15
						c0-1.742,1.315-3.146,3.173-3.146c1.136,0,2.119,0.594,2.624,1.475l-0.408,0.244c-0.403-0.769-1.257-1.272-2.216-1.272
						c-1.604,0-2.71,1.203-2.71,2.701c0,1.5,1.106,2.704,2.743,2.704c1.482,0,2.384-0.916,2.479-2.057h-2.591v-0.438h3.062v0.234
						H478.893z"/>
					<path fill="#FFFFFF" d="M483.568,274.118v0.437h-3.512v-6.104h3.469v0.438h-3.008v2.371h2.791v0.436h-2.791v2.424
						L483.568,274.118L483.568,274.118z"/>
					<path fill="#FFFFFF" d="M489.178,268.45v6.104h-0.408l-3.603-5.248v5.248h-0.461v-6.104h0.397l3.612,5.25v-5.25H489.178z"/>
					<path fill="#FFFFFF" d="M490.352,271.502c0-1.742,1.314-3.146,3.174-3.146c1.125,0,2.11,0.576,2.615,1.467l-0.41,0.234
						c-0.399-0.75-1.246-1.256-2.205-1.256c-1.604,0-2.711,1.203-2.711,2.703c0,1.498,1.105,2.702,2.711,2.702
						c0.968,0,1.82-0.514,2.223-1.282l0.411,0.235c-0.5,0.897-1.491,1.492-2.634,1.492
						C491.666,274.652,490.352,273.247,490.352,271.502z"/>
					<path fill="#FFFFFF" d="M500.764,274.118v0.437h-3.512v-6.104h3.469v0.438h-3.008v2.371h2.788v0.436h-2.788v2.424
						L500.764,274.118L500.764,274.118z"/>
				</g>
			</g>
			
				<linearGradient id="SVGID_9_" gradientUnits="userSpaceOnUse" x1="-5112.8442" y1="1405.8428" x2="-5082.5444" y2="1405.8428" gradientTransform="matrix(0 1 1 0 -886.3291 5156.1846)">
				<stop  offset="0" style="stop-color:#706DCB;stop-opacity:0"/>
				<stop  offset="1" style="stop-color:#706DCB;stop-opacity:0.7"/>
			</linearGradient>
			<path opacity="0.2" fill="url(#SVGID_9_)" enable-background="new    " d="M512.793,73.64h2.902
				c5.822,0,10.539-4.719,10.539-10.539v-9.223c0-5.82-4.717-10.538-10.539-10.538h-2.902V73.64L512.793,73.64z"/>
			
				<linearGradient id="SVGID_10_" gradientUnits="userSpaceOnUse" x1="-5042.9253" y1="1405.8428" x2="-5012.6255" y2="1405.8428" gradientTransform="matrix(0 1 1 0 -886.3291 5156.1846)">
				<stop  offset="0" style="stop-color:#706DCB;stop-opacity:0"/>
				<stop  offset="1" style="stop-color:#706DCB;stop-opacity:0.7"/>
			</linearGradient>
			<path opacity="0.2" fill="url(#SVGID_10_)" enable-background="new    " d="M512.793,143.559h2.902
				c5.822,0,10.539-4.718,10.539-10.539v-9.222c0-5.821-4.717-10.539-10.539-10.539h-2.902V143.559L512.793,143.559z"/>
			
				<linearGradient id="SVGID_11_" gradientUnits="userSpaceOnUse" x1="-4972.5693" y1="1405.8428" x2="-4942.2695" y2="1405.8428" gradientTransform="matrix(0 1 1 0 -886.3291 5156.1846)">
				<stop  offset="0" style="stop-color:#706DCB;stop-opacity:0"/>
				<stop  offset="1" style="stop-color:#706DCB;stop-opacity:0.7"/>
			</linearGradient>
			<path opacity="0.2" fill="url(#SVGID_11_)" enable-background="new    " d="M512.793,213.915h2.902
				c5.822,0,10.539-4.718,10.539-10.538v-9.223c0-5.821-4.717-10.539-10.539-10.539h-2.902V213.915L512.793,213.915z"/>
			
				<linearGradient id="SVGID_12_" gradientUnits="userSpaceOnUse" x1="-4902.6504" y1="1405.8428" x2="-4872.3516" y2="1405.8428" gradientTransform="matrix(0 1 1 0 -886.3291 5156.1846)">
				<stop  offset="0" style="stop-color:#706DCB;stop-opacity:0"/>
				<stop  offset="1" style="stop-color:#706DCB;stop-opacity:0.7"/>
			</linearGradient>
			<path opacity="0.2" fill="url(#SVGID_12_)" enable-background="new    " d="M512.793,283.833h2.902
				c5.822,0,10.539-4.717,10.539-10.536v-9.224c0-5.821-4.717-10.539-10.539-10.539h-2.902V283.833L512.793,283.833z"/>
		</g>
	</g>
	<g>
		<path fill="#FFFFFF" d="M379.386,68.496h-1.731v2.247h-0.414v-5.481h2.161c0.893,0,1.62,0.729,1.62,1.621
			c0,0.744-0.508,1.37-1.205,1.558l1.362,2.302h-0.478L379.386,68.496z M377.654,68.104h1.747c0.666,0,1.205-0.548,1.205-1.221
			c0-0.682-0.539-1.229-1.205-1.229h-1.747V68.104z"/>
	</g>
	<g>
		<path fill="#FFFFFF" d="M379.329,138.724h-1.731v2.247h-0.414v-5.481h2.161c0.893,0,1.62,0.729,1.62,1.621
			c0,0.744-0.508,1.37-1.205,1.558l1.362,2.302h-0.478L379.329,138.724z M377.598,138.333h1.747c0.666,0,1.205-0.548,1.205-1.221
			c0-0.682-0.539-1.229-1.205-1.229h-1.747V138.333z"/>
	</g>
	<g>
		<path fill="#FFFFFF" d="M379.33,208.559h-1.731v2.247h-0.414v-5.48h2.161c0.893,0,1.62,0.729,1.62,1.621
			c0,0.743-0.508,1.369-1.205,1.558l1.362,2.302h-0.478L379.33,208.559z M377.599,208.167h1.747c0.666,0,1.205-0.548,1.205-1.221
			c0-0.682-0.539-1.23-1.205-1.23h-1.747V208.167z"/>
	</g>
	<g>
		<path fill="#FFFFFF" d="M379.329,278.192h-1.731v2.247h-0.414v-5.48h2.161c0.893,0,1.62,0.729,1.62,1.621
			c0,0.743-0.508,1.369-1.205,1.558l1.362,2.302h-0.478L379.329,278.192z M377.598,277.801h1.747c0.666,0,1.205-0.548,1.205-1.221
			c0-0.682-0.539-1.23-1.205-1.23h-1.747V277.801z"/>
	</g>
</g>
</svg>
