<?xml version="1.0" encoding="utf-8"?>
<!-- Generator: Adobe Illustrator 16.0.0, SVG Export Plug-In . SVG Version: 6.00 Build 0)  -->
<!DOCTYPE svg PUBLIC "-//W3C//DTD SVG 1.1//EN" "http://www.w3.org/Graphics/SVG/1.1/DTD/svg11.dtd">
<svg version="1.1" id="Layer_1" xmlns="http://www.w3.org/2000/svg" xmlns:xlink="http://www.w3.org/1999/xlink" x="0px" y="0px"
	 width="774.43px" height="381.678px" viewBox="0 0 774.43 381.678" enable-background="new 0 0 774.43 381.678"
	 xml:space="preserve">
<g>
	
		<linearGradient id="SVGID_1_" gradientUnits="userSpaceOnUse" x1="-76.0449" y1="85.4746" x2="688.9302" y2="85.4746" gradientTransform="matrix(1 0 0 -1 84 356.6777)">
		<stop  offset="0" style="stop-color:#FFFFFF;stop-opacity:0.2"/>
		<stop  offset="0.5" style="stop-color:#FFFFFF;stop-opacity:0"/>
		<stop  offset="1" style="stop-color:#FFFFFF;stop-opacity:0.2"/>
	</linearGradient>
	
		<line fill="none" stroke="url(#SVGID_1_)" stroke-width="3" stroke-miterlimit="10" x1="772.93" y1="271.203" x2="7.955" y2="271.203"/>
	
		<linearGradient id="SVGID_2_" gradientUnits="userSpaceOnUse" x1="-76.0449" y1="118.9893" x2="688.9302" y2="118.9893" gradientTransform="matrix(1 0 0 -1 84 356.6777)">
		<stop  offset="0" style="stop-color:#FFFFFF;stop-opacity:0.2"/>
		<stop  offset="0.5" style="stop-color:#FFFFFF;stop-opacity:0"/>
		<stop  offset="1" style="stop-color:#FFFFFF;stop-opacity:0.2"/>
	</linearGradient>
	
		<line fill="none" stroke="url(#SVGID_2_)" stroke-width="3" stroke-miterlimit="10" x1="772.93" y1="237.688" x2="7.955" y2="237.688"/>
	
		<linearGradient id="SVGID_3_" gradientUnits="userSpaceOnUse" x1="-76.0449" y1="152.5039" x2="688.9302" y2="152.5039" gradientTransform="matrix(1 0 0 -1 84 356.6777)">
		<stop  offset="0" style="stop-color:#FFFFFF;stop-opacity:0.2"/>
		<stop  offset="0.5" style="stop-color:#FFFFFF;stop-opacity:0"/>
		<stop  offset="1" style="stop-color:#FFFFFF;stop-opacity:0.2"/>
	</linearGradient>
	
		<line fill="none" stroke="url(#SVGID_3_)" stroke-width="3" stroke-miterlimit="10" x1="772.93" y1="204.174" x2="7.955" y2="204.174"/>
	
		<linearGradient id="SVGID_4_" gradientUnits="userSpaceOnUse" x1="-76.0449" y1="186.0176" x2="688.9302" y2="186.0176" gradientTransform="matrix(1 0 0 -1 84 356.6777)">
		<stop  offset="0" style="stop-color:#FFFFFF;stop-opacity:0.2"/>
		<stop  offset="0.5" style="stop-color:#FFFFFF;stop-opacity:0"/>
		<stop  offset="1" style="stop-color:#FFFFFF;stop-opacity:0.2"/>
	</linearGradient>
	
		<line fill="none" stroke="url(#SVGID_4_)" stroke-width="3" stroke-miterlimit="10" x1="772.93" y1="170.66" x2="7.955" y2="170.66"/>
	
		<linearGradient id="SVGID_5_" gradientUnits="userSpaceOnUse" x1="-76.0449" y1="219.5322" x2="688.9302" y2="219.5322" gradientTransform="matrix(1 0 0 -1 84 356.6777)">
		<stop  offset="0" style="stop-color:#FFFFFF;stop-opacity:0.2"/>
		<stop  offset="0.5" style="stop-color:#FFFFFF;stop-opacity:0"/>
		<stop  offset="1" style="stop-color:#FFFFFF;stop-opacity:0.2"/>
	</linearGradient>
	
		<line fill="none" stroke="url(#SVGID_5_)" stroke-width="3" stroke-miterlimit="10" x1="772.93" y1="137.146" x2="7.955" y2="137.146"/>
	
		<linearGradient id="SVGID_6_" gradientUnits="userSpaceOnUse" x1="-76.0449" y1="253.0449" x2="688.9302" y2="253.0449" gradientTransform="matrix(1 0 0 -1 84 356.6777)">
		<stop  offset="0" style="stop-color:#FFFFFF;stop-opacity:0.2"/>
		<stop  offset="0.5" style="stop-color:#FFFFFF;stop-opacity:0"/>
		<stop  offset="1" style="stop-color:#FFFFFF;stop-opacity:0.2"/>
	</linearGradient>
	
		<line fill="none" stroke="url(#SVGID_6_)" stroke-width="3" stroke-miterlimit="10" x1="772.93" y1="103.633" x2="7.955" y2="103.633"/>
	
		<linearGradient id="SVGID_7_" gradientUnits="userSpaceOnUse" x1="-76.0449" y1="286.5596" x2="688.9302" y2="286.5596" gradientTransform="matrix(1 0 0 -1 84 356.6777)">
		<stop  offset="0" style="stop-color:#FFFFFF;stop-opacity:0.2"/>
		<stop  offset="0.5" style="stop-color:#FFFFFF;stop-opacity:0"/>
		<stop  offset="1" style="stop-color:#FFFFFF;stop-opacity:0.2"/>
	</linearGradient>
	
		<line fill="none" stroke="url(#SVGID_7_)" stroke-width="3" stroke-miterlimit="10" x1="772.93" y1="70.118" x2="7.955" y2="70.118"/>
	
		<linearGradient id="SVGID_8_" gradientUnits="userSpaceOnUse" x1="-76.0449" y1="320.0732" x2="688.9302" y2="320.0732" gradientTransform="matrix(1 0 0 -1 84 356.6777)">
		<stop  offset="0" style="stop-color:#FFFFFF;stop-opacity:0.2"/>
		<stop  offset="0.5" style="stop-color:#FFFFFF;stop-opacity:0"/>
		<stop  offset="1" style="stop-color:#FFFFFF;stop-opacity:0.2"/>
	</linearGradient>
	
		<line fill="none" stroke="url(#SVGID_8_)" stroke-width="3" stroke-miterlimit="10" x1="772.93" y1="36.604" x2="7.955" y2="36.604"/>
	
		<linearGradient id="SVGID_9_" gradientUnits="userSpaceOnUse" x1="-76.0449" y1="353.5889" x2="688.9302" y2="353.5889" gradientTransform="matrix(1 0 0 -1 84 356.6777)">
		<stop  offset="0" style="stop-color:#FFFFFF;stop-opacity:0.2"/>
		<stop  offset="0.5" style="stop-color:#FFFFFF;stop-opacity:0"/>
		<stop  offset="1" style="stop-color:#FFFFFF;stop-opacity:0.2"/>
	</linearGradient>
	
		<line fill="none" stroke="url(#SVGID_9_)" stroke-width="3" stroke-miterlimit="10" x1="772.93" y1="3.089" x2="7.955" y2="3.089"/>
	<line fill="none" stroke="#FFFFFF" stroke-width="3" stroke-miterlimit="10" x1="7.954" y1="3.089" x2="7.954" y2="304.717"/>
	<g>
		<path fill="#A04B8A" d="M121.481,241.331v5.662l-9.634,23.914h-7.183l9.296-23.069h-11.915v-6.507H121.481z"/>
		<path fill="#A04B8A" d="M124.986,247.162c0-3.507,2.746-6.296,6.464-6.296c3.719,0,6.465,2.789,6.465,6.296
			s-2.662,6.295-6.465,6.295C127.732,253.457,124.986,250.669,124.986,247.162z M146.661,244.542l1.437,0.803l-20.111,22.563
			l-1.395-0.804L146.661,244.542z M135.845,247.162c0-2.451-1.816-4.353-4.395-4.353c-2.535,0-4.352,1.9-4.352,4.353
			c0,2.45,1.816,4.353,4.352,4.353C134.028,251.515,135.845,249.612,135.845,247.162z M136.943,265.076
			c0-3.507,2.746-6.296,6.465-6.296c3.718,0,6.464,2.789,6.464,6.296s-2.746,6.296-6.464,6.296
			C139.689,271.372,136.943,268.583,136.943,265.076z M147.802,265.076c0-2.45-1.816-4.353-4.394-4.353
			c-2.535,0-4.353,1.901-4.353,4.353c0,2.45,1.817,4.353,4.353,4.353C145.985,269.429,147.802,267.526,147.802,265.076z"/>
	</g>
	<g>
		<path fill="#706DCB" d="M105.526,343.391h-4.344l-0.585,1.838h-2.924l3.977-11.695h3.408l3.977,11.695h-2.924L105.526,343.391z
			 M104.725,340.885l-1.37-4.295l-1.37,4.295H104.725z"/>
		<path fill="#706DCB" d="M118.146,337.543c0,2.222-1.787,4.01-4.093,4.01h-1.755v3.676h-2.673v-11.695h4.428
			C116.358,333.532,118.146,335.32,118.146,337.543z M115.473,337.543c0-0.853-0.602-1.504-1.42-1.504h-1.755v3.008h1.755
			C114.871,339.047,115.473,338.395,115.473,337.543z"/>
		<path fill="#706DCB" d="M127.589,337.543c0,2.222-1.787,4.01-4.093,4.01h-1.755v3.676h-2.673v-11.695h4.428
			C125.802,333.532,127.589,335.32,127.589,337.543z M124.916,337.543c0-0.853-0.602-1.504-1.42-1.504h-1.755v3.008h1.755
			C124.314,339.047,124.916,338.395,124.916,337.543z"/>
		<path fill="#706DCB" d="M135.863,342.655v2.572h-7.352v-11.695h7.268v2.573h-4.595v1.938h4.177v2.54h-4.177v2.071L135.863,342.655
			L135.863,342.655z"/>
		<path fill="#706DCB" d="M143.97,343.391h-4.344l-0.585,1.838h-2.924l3.977-11.695h3.408l3.977,11.695h-2.924L143.97,343.391z
			 M143.168,340.885l-1.37-4.295l-1.37,4.295H143.168z"/>
		<path fill="#706DCB" d="M154.917,342.655v2.572h-6.85v-11.695h2.673v9.123H154.917L154.917,342.655z"/>
		<path fill="#706DCB" d="M112.59,354.213v2.256h4.344v2.573h-4.344v4.294h-2.673V351.64h7.101v2.573H112.59z"/>
		<path fill="#706DCB" d="M125.542,360.763v2.573h-7.352V351.64h7.268v2.573h-4.595v1.938h4.177v2.54h-4.177v2.07L125.542,360.763
			L125.542,360.763z"/>
		<path fill="#706DCB" d="M133.982,360.763v2.573h-7.352V351.64h7.268v2.573h-4.595v1.938h4.177v2.54h-4.177v2.07L133.982,360.763
			L133.982,360.763z"/>
		<path fill="#706DCB" d="M134.487,360.68l2.306-1.337c0.418,0.969,1.136,1.62,2.456,1.62c1.27,0,1.587-0.501,1.587-0.952
			c0-0.718-0.668-1.002-2.423-1.486c-1.737-0.484-3.441-1.319-3.441-3.56c0-2.256,1.904-3.559,3.927-3.559
			c1.921,0,3.425,0.919,4.277,2.64l-2.256,1.32c-0.401-0.836-0.952-1.354-2.021-1.354c-0.836,0-1.254,0.418-1.254,0.887
			c0,0.533,0.284,0.901,2.105,1.452c1.771,0.535,3.76,1.153,3.76,3.626c0,2.257-1.805,3.594-4.345,3.594
			C136.709,363.57,135.139,362.4,134.487,360.68z"/>
	</g>
	<g>
		<path fill="#706DCB" d="M278.371,337.543c0,2.222-1.787,4.01-4.093,4.01h-1.755v3.676h-2.673v-11.695h4.428
			C276.584,333.532,278.371,335.32,278.371,337.543z M275.698,337.543c0-0.853-0.602-1.504-1.42-1.504h-1.755v3.008h1.755
			C275.097,339.047,275.698,338.395,275.698,337.543z"/>
		<path fill="#706DCB" d="M283.236,341.386h-1.27v3.843h-2.673v-11.695h4.678c2.223,0,4.01,1.788,4.01,4.011
			c0,1.437-0.868,2.74-2.155,3.392l2.49,4.294h-2.874L283.236,341.386z M281.967,339.047h2.005c0.735,0,1.337-0.652,1.337-1.504
			c0-0.853-0.602-1.504-1.337-1.504h-2.005V339.047z"/>
		<path fill="#706DCB" d="M288.486,339.381c0-3.441,2.724-6.082,6.082-6.082s6.082,2.641,6.082,6.082s-2.724,6.082-6.082,6.082
			S288.486,342.822,288.486,339.381z M297.977,339.381c0-2.089-1.503-3.476-3.408-3.476c-1.904,0-3.408,1.387-3.408,3.476
			c0,2.088,1.504,3.476,3.408,3.476C296.474,342.855,297.977,341.469,297.977,339.381z"/>
		<path fill="#706DCB" d="M300.069,343.19l2.322-1.338c0.368,0.651,0.752,1.003,1.654,1.003c1.17,0,1.521-0.668,1.521-1.388v-7.937
			h2.674v7.937c0,2.573-1.805,3.994-4.211,3.994C302.175,345.463,300.838,344.677,300.069,343.19z"/>
		<path fill="#706DCB" d="M317.1,342.655v2.572h-7.352v-11.695h7.268v2.573h-4.595v1.938h4.177v2.54h-4.177v2.071L317.1,342.655
			L317.1,342.655z"/>
		<path fill="#706DCB" d="M317.604,339.381c0-3.441,2.557-6.082,6.082-6.082c2.122,0,3.993,1.053,5.013,2.707l-2.306,1.336
			c-0.519-0.901-1.521-1.437-2.707-1.437c-2.071,0-3.408,1.387-3.408,3.476c0,2.088,1.337,3.476,3.408,3.476
			c1.187,0,2.206-0.534,2.707-1.438l2.306,1.337c-1.003,1.654-2.874,2.707-5.013,2.707
			C320.16,345.463,317.604,342.822,317.604,339.381z"/>
		<path fill="#706DCB" d="M337.391,336.105h-3.008v9.122h-2.673v-9.122h-3.008v-2.573h8.688L337.391,336.105L337.391,336.105z"/>
		<path fill="#706DCB" d="M257.982,357.488c0-3.442,2.724-6.082,6.082-6.082s6.082,2.64,6.082,6.082c0,3.44-2.724,6.082-6.082,6.082
			S257.982,360.93,257.982,357.488z M267.473,357.488c0-2.089-1.503-3.477-3.408-3.477c-1.904,0-3.408,1.388-3.408,3.477
			c0,2.088,1.504,3.475,3.408,3.475C265.97,360.963,267.473,359.576,267.473,357.488z"/>
		<path fill="#706DCB" d="M269.9,351.64h2.807l2.022,8.188l2.255-8.188h2.173l2.255,8.188l2.022-8.188h2.807l-3.225,11.696h-3.041
			l-1.904-6.9l-1.905,6.9h-3.041L269.9,351.64z"/>
		<path fill="#706DCB" d="M296.188,351.64v11.696h-2.005l-4.512-6.35v6.35h-2.673V351.64h2.005l4.511,6.351v-6.351H296.188z"/>
		<path fill="#706DCB" d="M305.132,360.763v2.573h-7.352V351.64h7.268v2.573h-4.595v1.938h4.177v2.54h-4.177v2.07L305.132,360.763
			L305.132,360.763z"/>
		<path fill="#706DCB" d="M310.163,359.493h-1.27v3.843h-2.673V351.64h4.678c2.223,0,4.01,1.788,4.01,4.012
			c0,1.437-0.868,2.739-2.155,3.392l2.49,4.294h-2.874L310.163,359.493z M308.894,357.154h2.005c0.735,0,1.337-0.652,1.337-1.504
			c0-0.854-0.602-1.504-1.337-1.504h-2.005V357.154z"/>
		<path fill="#706DCB" d="M315.33,360.68l2.306-1.337c0.418,0.969,1.136,1.62,2.456,1.62c1.27,0,1.587-0.501,1.587-0.952
			c0-0.718-0.668-1.002-2.423-1.486c-1.737-0.484-3.441-1.319-3.441-3.56c0-2.256,1.904-3.559,3.927-3.559
			c1.921,0,3.425,0.919,4.277,2.64l-2.256,1.32c-0.401-0.836-0.952-1.354-2.021-1.354c-0.836,0-1.254,0.418-1.254,0.887
			c0,0.533,0.284,0.901,2.105,1.452c1.771,0.535,3.76,1.153,3.76,3.626c0,2.257-1.805,3.594-4.345,3.594
			C317.552,363.57,315.981,362.4,315.33,360.68z"/>
		<path fill="#706DCB" d="M334.214,351.64v11.696h-2.674v-4.645h-3.676v4.645h-2.673V351.64h2.673v4.479h3.676v-4.479H334.214z"/>
		<path fill="#706DCB" d="M338.478,351.64v11.696h-2.673V351.64H338.478z"/>
		<path fill="#706DCB" d="M348.588,355.65c0,2.222-1.787,4.01-4.093,4.01h-1.755v3.676h-2.673V351.64h4.428
			C346.801,351.64,348.588,353.428,348.588,355.65z M345.915,355.65c0-0.854-0.602-1.504-1.42-1.504h-1.755v3.008h1.755
			C345.313,357.154,345.915,356.502,345.915,355.65z"/>
		<path fill="#706DCB" d="M238.703,369.747h2.924l2.59,8.604l2.59-8.604h2.924l-3.81,11.696h-3.408L238.703,369.747z"/>
		<path fill="#706DCB" d="M256.501,379.605h-4.344l-0.585,1.838h-2.924l3.977-11.696h3.408l3.977,11.696h-2.924L256.501,379.605z
			 M255.699,377.1l-1.37-4.295l-1.37,4.295H255.699z"/>
		<path fill="#706DCB" d="M267.448,378.87v2.573h-6.85v-11.696h2.673v9.123H267.448L267.448,378.87z"/>
		<path fill="#706DCB" d="M270.877,369.747v11.696h-2.673v-11.696H270.877z"/>
		<path fill="#706DCB" d="M282.824,375.596c0,3.309-2.456,5.849-5.681,5.849h-4.678v-11.696h4.678
			C280.368,369.747,282.824,372.287,282.824,375.596z M280.252,375.596c0-2.005-1.271-3.274-3.108-3.274h-2.005v6.55h2.005
			C278.981,378.87,280.252,377.601,280.252,375.596z"/>
		<path fill="#706DCB" d="M290.348,379.605h-4.344l-0.585,1.838h-2.924l3.977-11.696h3.408l3.977,11.696h-2.924L290.348,379.605z
			 M289.546,377.1l-1.37-4.295l-1.37,4.295H289.546z"/>
		<path fill="#706DCB" d="M301.463,372.32h-3.008v9.123h-2.673v-9.123h-3.008v-2.573h8.688L301.463,372.32L301.463,372.32z"/>
		<path fill="#706DCB" d="M304.891,369.747v11.696h-2.673v-11.696H304.891z"/>
		<path fill="#706DCB" d="M305.979,375.596c0-3.441,2.724-6.082,6.082-6.082s6.082,2.641,6.082,6.082s-2.724,6.082-6.082,6.082
			S305.979,379.037,305.979,375.596z M315.469,375.596c0-2.089-1.503-3.476-3.408-3.476c-1.904,0-3.408,1.387-3.408,3.476
			c0,2.088,1.504,3.476,3.408,3.476C313.966,379.07,315.469,377.684,315.469,375.596z"/>
		<path fill="#706DCB" d="M328.423,369.747v11.696h-2.005l-4.512-6.351v6.351h-2.673v-11.696h2.005l4.511,6.35v-6.35H328.423z"/>
		<path fill="#706DCB" d="M336.447,372.32v2.256h4.344v2.573h-4.344v4.294h-2.673v-11.696h7.101v2.573H336.447z"/>
		<path fill="#706DCB" d="M349.399,378.87v2.573h-7.352v-11.696h7.268v2.573h-4.595v1.938h4.177v2.54h-4.177v2.071L349.399,378.87
			L349.399,378.87z"/>
		<path fill="#706DCB" d="M357.841,378.87v2.573h-7.352v-11.696h7.268v2.573h-4.595v1.938h4.177v2.54h-4.177v2.071L357.841,378.87
			L357.841,378.87z"/>
		<path fill="#706DCB" d="M358.345,378.787l2.306-1.337c0.418,0.969,1.136,1.62,2.456,1.62c1.27,0,1.587-0.501,1.587-0.952
			c0-0.718-0.668-1.002-2.423-1.487c-1.737-0.484-3.441-1.319-3.441-3.559c0-2.256,1.904-3.56,3.927-3.56
			c1.921,0,3.425,0.919,4.277,2.641l-2.256,1.319c-0.401-0.836-0.952-1.354-2.021-1.354c-0.836,0-1.254,0.418-1.254,0.886
			c0,0.534,0.284,0.902,2.105,1.453c1.771,0.535,3.76,1.153,3.76,3.626c0,2.256-1.805,3.593-4.345,3.593
			C360.566,381.678,358.996,380.508,358.345,378.787z"/>
	</g>
	<g>
		<path fill="#706DCB" d="M432.985,333.532h2.807l2.023,8.188l2.254-8.188h2.174l2.254,8.188l2.023-8.188h2.807l-3.227,11.696
			h-3.039l-1.904-6.9l-1.906,6.9h-3.041L432.985,333.532z"/>
		<path fill="#706DCB" d="M456.266,343.391h-4.344l-0.586,1.838h-2.924l3.977-11.695h3.408l3.979,11.695h-2.926L456.266,343.391z
			 M455.463,340.885l-1.369-4.295l-1.371,4.295H455.463z"/>
		<path fill="#706DCB" d="M467.381,336.105h-3.008v9.122H461.7v-9.122h-3.008v-2.573h8.688v2.573H467.381z"/>
		<path fill="#706DCB" d="M466.965,339.381c0-3.441,2.559-6.082,6.082-6.082c2.123,0,3.994,1.053,5.014,2.707l-2.307,1.336
			c-0.518-0.901-1.52-1.437-2.707-1.437c-2.07,0-3.408,1.387-3.408,3.476c0,2.088,1.338,3.476,3.408,3.476
			c1.188,0,2.207-0.534,2.707-1.438l2.307,1.337c-1.004,1.654-2.873,2.707-5.014,2.707
			C469.522,345.463,466.965,342.822,466.965,339.381z"/>
		<path fill="#706DCB" d="M487.922,333.532v11.696h-2.674v-4.646h-3.676v4.646h-2.672v-11.696h2.672v4.479h3.676v-4.479H487.922z"/>
		<path fill="#706DCB" d="M499.872,339.381c0,3.309-2.455,5.848-5.68,5.848h-4.68v-11.695h4.68
			C497.417,333.532,499.872,336.072,499.872,339.381z M497.299,339.381c0-2.005-1.27-3.274-3.107-3.274h-2.004v6.55h2.004
			C496.03,342.655,497.299,341.386,497.299,339.381z"/>
		<path fill="#706DCB" d="M500.461,339.381c0-3.441,2.723-6.082,6.082-6.082c3.357,0,6.082,2.641,6.082,6.082
			s-2.725,6.082-6.082,6.082C503.184,345.463,500.461,342.822,500.461,339.381z M509.952,339.381c0-2.089-1.504-3.476-3.408-3.476
			s-3.408,1.387-3.408,3.476c0,2.088,1.504,3.476,3.408,3.476C508.448,342.855,509.952,341.469,509.952,339.381z"/>
		<path fill="#706DCB" d="M525.293,339.715c0,3.575-2.488,5.748-5.764,5.748c-3.676,0-6.316-2.707-6.316-6.064
			c0-3.393,2.691-6.1,6.133-6.1c2.238,0,4.127,1.104,5.113,2.673l-2.271,1.305c-0.484-0.77-1.537-1.37-2.857-1.37
			c-1.973,0-3.441,1.453-3.441,3.509c0,1.988,1.402,3.441,3.676,3.441c1.555,0,2.572-0.686,2.99-1.805h-3.125v-2.34h5.865v1.003
			H525.293z"/>
		<path fill="#706DCB" d="M455.67,363.336h-2.672v-6.801l-3.025,4.963h-0.301l-3.023-4.963v6.801h-2.674V351.64h2.674l3.176,5.196
			l3.174-5.196h2.674v11.696H455.67z"/>
		<path fill="#706DCB" d="M456.762,357.488c0-3.442,2.725-6.082,6.082-6.082s6.082,2.64,6.082,6.082c0,3.44-2.725,6.082-6.082,6.082
			S456.762,360.93,456.762,357.488z M466.252,357.488c0-2.089-1.504-3.477-3.408-3.477s-3.408,1.388-3.408,3.477
			c0,2.088,1.504,3.475,3.408,3.475S466.252,359.576,466.252,357.488z"/>
		<path fill="#706DCB" d="M479.206,351.64v11.696h-2.004l-4.512-6.35v6.35h-2.674V351.64h2.006l4.51,6.351v-6.351H479.206z"/>
		<path fill="#706DCB" d="M488.651,354.213h-3.01v9.123h-2.672v-9.123h-3.008v-2.573h8.688v2.573H488.651z"/>
		<path fill="#706DCB" d="M498.428,351.64v11.696h-2.674v-4.645h-3.676v4.645h-2.674V351.64h2.674v4.479h3.676v-4.479H498.428z"/>
		<path fill="#706DCB" d="M506.868,360.763v2.573h-6.85V351.64h2.674v9.123H506.868z"/>
		<path fill="#706DCB" d="M511.715,358.842v4.494h-2.672v-4.494l-3.928-7.202h3.041l2.223,4.513l2.223-4.513h3.041L511.715,358.842z
			"/>
		<path fill="#706DCB" d="M420.04,378.787l2.307-1.337c0.418,0.969,1.137,1.62,2.455,1.62c1.271,0,1.588-0.501,1.588-0.952
			c0-0.718-0.668-1.002-2.424-1.487c-1.736-0.484-3.439-1.319-3.439-3.559c0-2.256,1.902-3.56,3.926-3.56
			c1.922,0,3.426,0.919,4.277,2.641l-2.256,1.319c-0.4-0.836-0.951-1.354-2.021-1.354c-0.836,0-1.254,0.418-1.254,0.886
			c0,0.534,0.285,0.902,2.105,1.453c1.771,0.535,3.76,1.153,3.76,3.626c0,2.256-1.805,3.593-4.346,3.593
			C422.262,381.678,420.692,380.508,420.04,378.787z"/>
		<path fill="#706DCB" d="M429.901,377.667v-7.92h2.674v7.687c0,0.887,0.418,1.638,1.838,1.638s1.838-0.751,1.838-1.638v-7.687
			h2.674v7.92c0,2.507-1.938,4.011-4.512,4.011C431.84,381.678,429.901,380.174,429.901,377.667z"/>
		<path fill="#706DCB" d="M449.12,378.019c0,2.071-1.689,3.426-3.775,3.426h-4.912v-11.696h4.578c2.037,0,3.691,1.32,3.691,3.342
			c0,0.97-0.385,1.738-1.02,2.289C448.551,375.93,449.12,376.832,449.12,378.019z M443.104,372.254v2.071h1.904
			c0.602,0,1.02-0.435,1.02-1.035s-0.4-1.036-1.02-1.036H443.104z M446.446,377.817c0-0.651-0.436-1.119-1.104-1.119h-2.238v2.239
			h2.238C446.012,378.938,446.446,378.47,446.446,377.817z"/>
		<path fill="#706DCB" d="M449.29,378.787l2.307-1.337c0.418,0.969,1.137,1.62,2.455,1.62c1.271,0,1.588-0.501,1.588-0.952
			c0-0.718-0.668-1.002-2.424-1.487c-1.736-0.484-3.439-1.319-3.439-3.559c0-2.256,1.902-3.56,3.926-3.56
			c1.922,0,3.426,0.919,4.277,2.641l-2.256,1.319c-0.4-0.836-0.951-1.354-2.021-1.354c-0.836,0-1.254,0.418-1.254,0.886
			c0,0.534,0.285,0.902,2.105,1.453c1.771,0.535,3.76,1.153,3.76,3.626c0,2.256-1.805,3.593-4.346,3.593
			C451.512,381.678,449.942,380.508,449.29,378.787z"/>
		<path fill="#706DCB" d="M458.649,375.596c0-3.441,2.557-6.082,6.082-6.082c2.123,0,3.992,1.054,5.014,2.707l-2.307,1.336
			c-0.52-0.901-1.521-1.437-2.707-1.437c-2.07,0-3.408,1.387-3.408,3.476c0,2.088,1.338,3.476,3.408,3.476
			c1.188,0,2.207-0.534,2.707-1.438l2.307,1.337c-1.004,1.654-2.875,2.707-5.014,2.707
			C461.206,381.678,458.649,379.037,458.649,375.596z"/>
		<path fill="#706DCB" d="M474.526,377.601h-1.27v3.844h-2.674v-11.696h4.678c2.225,0,4.012,1.788,4.012,4.011
			c0,1.438-0.869,2.74-2.156,3.393l2.49,4.294h-2.873L474.526,377.601z M473.256,375.262h2.006c0.734,0,1.336-0.651,1.336-1.504
			s-0.602-1.504-1.336-1.504h-2.006V375.262z"/>
		<path fill="#706DCB" d="M483.12,369.747v11.696h-2.674v-11.696H483.12z"/>
		<path fill="#706DCB" d="M493.229,373.758c0,2.223-1.787,4.01-4.094,4.01h-1.754v3.677h-2.674v-11.696h4.428
			C491.442,369.747,493.229,371.535,493.229,373.758z M490.555,373.758c0-0.853-0.602-1.504-1.42-1.504h-1.754v3.008h1.754
			C489.954,375.262,490.555,374.609,490.555,373.758z"/>
		<path fill="#706DCB" d="M501.836,372.32h-3.008v9.123h-2.672v-9.123h-3.008v-2.573h8.688V372.32L501.836,372.32z"/>
		<path fill="#706DCB" d="M505.266,369.747v11.696h-2.674v-11.696H505.266z"/>
		<path fill="#706DCB" d="M506.354,375.596c0-3.441,2.723-6.082,6.08-6.082c3.359,0,6.082,2.641,6.082,6.082
			s-2.723,6.082-6.082,6.082C509.077,381.678,506.354,379.037,506.354,375.596z M515.842,375.596c0-2.089-1.502-3.476-3.408-3.476
			c-1.902,0-3.406,1.387-3.406,3.476c0,2.088,1.504,3.476,3.406,3.476C514.34,379.07,515.842,377.684,515.842,375.596z"/>
		<path fill="#706DCB" d="M528.797,369.747v11.696h-2.006l-4.512-6.351v6.351h-2.672v-11.696h2.004l4.512,6.35v-6.35H528.797z"/>
		<path fill="#706DCB" d="M529.637,378.787l2.307-1.337c0.418,0.969,1.135,1.62,2.455,1.62c1.27,0,1.588-0.501,1.588-0.952
			c0-0.718-0.668-1.002-2.424-1.487c-1.736-0.484-3.441-1.319-3.441-3.559c0-2.256,1.904-3.56,3.928-3.56
			c1.92,0,3.424,0.919,4.277,2.641l-2.256,1.319c-0.402-0.836-0.953-1.354-2.021-1.354c-0.836,0-1.254,0.418-1.254,0.886
			c0,0.534,0.283,0.902,2.105,1.453c1.77,0.535,3.76,1.153,3.76,3.626c0,2.256-1.805,3.593-4.346,3.593
			C531.858,381.678,530.288,380.508,529.637,378.787z"/>
	</g>
	<g>
		<path fill="#706DCB" d="M629.184,342.655v2.572h-7.352v-11.695h7.268v2.573h-4.594v1.938h4.176v2.54h-4.176v2.071L629.184,342.655
			L629.184,342.655z"/>
		<path fill="#706DCB" d="M629.688,342.572l2.307-1.337c0.418,0.969,1.135,1.62,2.455,1.62c1.27,0,1.588-0.502,1.588-0.952
			c0-0.719-0.668-1.002-2.424-1.487c-1.736-0.484-3.441-1.319-3.441-3.559c0-2.257,1.904-3.56,3.928-3.56
			c1.922,0,3.426,0.919,4.277,2.641l-2.256,1.319c-0.402-0.836-0.953-1.354-2.021-1.354c-0.836,0-1.254,0.418-1.254,0.886
			c0,0.534,0.283,0.902,2.105,1.453c1.77,0.535,3.76,1.153,3.76,3.626c0,2.256-1.805,3.593-4.346,3.593
			C631.911,345.463,630.34,344.293,629.688,342.572z"/>
		<path fill="#706DCB" d="M639.049,339.381c0-3.441,2.557-6.082,6.082-6.082c2.121,0,3.992,1.053,5.012,2.707l-2.305,1.336
			c-0.52-0.901-1.521-1.437-2.707-1.437c-2.072,0-3.408,1.387-3.408,3.476c0,2.088,1.336,3.476,3.408,3.476
			c1.188,0,2.205-0.534,2.707-1.438l2.305,1.337c-1.002,1.654-2.873,2.707-5.012,2.707
			C641.606,345.463,639.049,342.822,639.049,339.381z"/>
		<path fill="#706DCB" d="M654.926,341.386h-1.27v3.843h-2.674v-11.695h4.678c2.223,0,4.01,1.788,4.01,4.011
			c0,1.437-0.867,2.74-2.154,3.392l2.49,4.294h-2.875L654.926,341.386z M653.657,339.047h2.004c0.736,0,1.338-0.652,1.338-1.504
			c0-0.853-0.602-1.504-1.338-1.504h-2.004V339.047z"/>
		<path fill="#706DCB" d="M660.176,339.381c0-3.441,2.725-6.082,6.082-6.082s6.082,2.641,6.082,6.082s-2.725,6.082-6.082,6.082
			S660.176,342.822,660.176,339.381z M669.667,339.381c0-2.089-1.504-3.476-3.408-3.476s-3.408,1.387-3.408,3.476
			c0,2.088,1.504,3.476,3.408,3.476C668.163,342.855,669.667,341.469,669.667,339.381z"/>
		<path fill="#706DCB" d="M672.092,333.532h2.809l2.021,8.188l2.254-8.188h2.174l2.256,8.188l2.021-8.188h2.807l-3.225,11.696
			h-3.041l-1.904-6.9l-1.904,6.9h-3.041L672.092,333.532z"/>
		<path fill="#706DCB" d="M640.928,354.213v2.256h4.344v2.573h-4.344v4.294h-2.674V351.64h7.102v2.573H640.928z"/>
		<path fill="#706DCB" d="M653.879,360.763v2.573h-7.352V351.64h7.268v2.573h-4.594v1.938h4.176v2.54h-4.176v2.07L653.879,360.763
			L653.879,360.763z"/>
		<path fill="#706DCB" d="M662.321,360.763v2.573h-7.354V351.64h7.27v2.573h-4.596v1.938h4.178v2.54h-4.178v2.07L662.321,360.763
			L662.321,360.763z"/>
		<path fill="#706DCB" d="M662.825,360.68l2.307-1.337c0.418,0.969,1.135,1.62,2.455,1.62c1.271,0,1.588-0.501,1.588-0.952
			c0-0.718-0.668-1.002-2.424-1.486c-1.736-0.484-3.439-1.319-3.439-3.56c0-2.256,1.902-3.559,3.926-3.559
			c1.922,0,3.426,0.919,4.277,2.64l-2.256,1.32c-0.4-0.836-0.953-1.354-2.021-1.354c-0.836,0-1.254,0.418-1.254,0.887
			c0,0.533,0.283,0.901,2.105,1.452c1.771,0.535,3.76,1.153,3.76,3.626c0,2.257-1.805,3.594-4.346,3.594
			C665.047,363.57,663.477,362.4,662.825,360.68z"/>
	</g>
	<g>
		<path fill="#A04B8A" d="M266.449,211.551l9.929-10.31c1.732-1.774,3-3.508,3-5.239c0-1.858-1.183-3.126-3.169-3.126
			c-2.07,0-3.549,1.352-4.352,3.211l-5.704-3.338c1.901-4.395,5.873-6.465,9.972-6.465c5.281,0,10.014,3.465,10.014,9.423
			c0,3.549-1.901,6.591-4.605,9.295l-4.901,4.942h9.929v6.508h-20.111v-4.901H266.449z"/>
		<path fill="#A04B8A" d="M309.586,207.157c0,6.506-5.069,9.887-10.773,9.887c-4.69,0-8.746-1.986-10.563-6.338l5.831-3.38
			c0.676,1.942,1.943,3.126,4.732,3.126c2.788,0,4.014-1.479,4.014-3.295c0-1.817-1.226-3.297-3.803-3.297h-9.253l1.226-16.984
			h17.111v6.338h-10.774l-0.295,4.057h2.408C304.938,197.271,309.586,200.649,309.586,207.157z"/>
		<path fill="#A04B8A" d="M313.302,192.707c0-3.507,2.746-6.296,6.464-6.296c3.719,0,6.465,2.789,6.465,6.296
			s-2.662,6.295-6.465,6.295C316.048,199.002,313.302,196.214,313.302,192.707z M334.977,190.087l1.437,0.803l-20.111,22.563
			l-1.395-0.804L334.977,190.087z M324.16,192.707c0-2.451-1.816-4.353-4.395-4.353c-2.535,0-4.352,1.901-4.352,4.353
			c0,2.45,1.816,4.353,4.352,4.353C322.344,197.06,324.16,195.157,324.16,192.707z M325.259,210.621
			c0-3.507,2.746-6.295,6.465-6.295c3.718,0,6.464,2.788,6.464,6.295s-2.746,6.296-6.464,6.296
			C328.005,216.917,325.259,214.128,325.259,210.621z M336.117,210.621c0-2.45-1.816-4.353-4.394-4.353
			c-2.535,0-4.353,1.901-4.353,4.353s1.817,4.353,4.353,4.353C334.301,214.974,336.117,213.072,336.117,210.621z"/>
	</g>
	<g>
		<path fill="#A04B8A" d="M463.489,186.365c0,6.506-5.07,9.887-10.773,9.887c-4.479,0-8.535-1.985-10.352-6.338l5.83-3.38
			c0.676,1.943,1.943,3.126,4.521,3.126c2.789,0,4.016-1.479,4.016-3.295c0-1.817-1.227-3.296-4.016-3.296h-1.395l-2.578-3.845
			l5.367-6.803h-10.816v-6.338h19.014v5.493l-5.111,6.507C460.827,179.351,463.489,182.267,463.489,186.365z"/>
		<path fill="#A04B8A" d="M465.262,190.759l9.93-10.31c1.73-1.774,3-3.507,3-5.239c0-1.858-1.184-3.126-3.17-3.126
			c-2.07,0-3.549,1.352-4.352,3.211l-5.705-3.338c1.902-4.395,5.873-6.465,9.973-6.465c5.281,0,10.014,3.465,10.014,9.423
			c0,3.549-1.9,6.591-4.605,9.295l-4.9,4.943h9.93v6.507h-20.111v-4.901H465.262z"/>
		<path fill="#A04B8A" d="M489.512,171.915c0-3.507,2.746-6.296,6.465-6.296s6.465,2.789,6.465,6.296s-2.662,6.295-6.465,6.295
			C492.258,178.21,489.512,175.422,489.512,171.915z M511.188,169.295l1.438,0.803l-20.111,22.563l-1.395-0.803L511.188,169.295z
			 M500.372,171.915c0-2.451-1.816-4.353-4.396-4.353c-2.533,0-4.352,1.901-4.352,4.353c0,2.45,1.816,4.352,4.352,4.352
			C498.555,176.267,500.372,174.365,500.372,171.915z M501.469,189.829c0-3.507,2.746-6.295,6.465-6.295s6.465,2.788,6.465,6.295
			c0,3.507-2.746,6.296-6.465,6.296S501.469,193.336,501.469,189.829z M512.329,189.829c0-2.45-1.816-4.352-4.395-4.352
			c-2.535,0-4.354,1.901-4.354,4.352s1.818,4.354,4.354,4.354C510.512,194.183,512.329,192.28,512.329,189.829z"/>
	</g>
	<g>
		<path fill="#A04B8A" d="M638.118,174.3c0,6.506-5.07,9.887-10.773,9.887c-4.479,0-8.535-1.986-10.352-6.338l5.83-3.38
			c0.676,1.943,1.943,3.126,4.521,3.126c2.789,0,4.016-1.479,4.016-3.295c0-1.817-1.227-3.296-4.016-3.296h-1.395l-2.578-3.845
			l5.367-6.803h-10.816v-6.338h19.014v5.493l-5.111,6.506C635.456,167.285,638.118,170.201,638.118,174.3z"/>
		<path fill="#A04B8A" d="M662.2,173.75c0,6.127-4.48,10.437-10.986,10.437c-6.549,0-10.984-4.31-10.984-10.437
			c0-2.281,0.635-4.352,1.732-6l9.041-13.731h7.775l-6.422,9.338C658.229,163.821,662.2,168.004,662.2,173.75z M655.44,173.75
			c0-2.577-1.986-4.099-4.227-4.099c-2.281,0-4.225,1.479-4.225,4.099s1.941,4.099,4.225,4.099
			C653.454,177.849,655.44,176.327,655.44,173.75z"/>
		<path fill="#A04B8A" d="M665.706,159.85c0-3.507,2.746-6.296,6.463-6.296c3.719,0,6.465,2.789,6.465,6.296
			c0,3.507-2.662,6.295-6.465,6.295C668.452,166.145,665.706,163.356,665.706,159.85z M687.379,157.229l1.438,0.803l-20.111,22.563
			l-1.395-0.803L687.379,157.229z M676.563,159.85c0-2.451-1.816-4.353-4.395-4.353c-2.535,0-4.352,1.901-4.352,4.353
			c0,2.45,1.814,4.352,4.352,4.352C674.747,164.201,676.563,162.3,676.563,159.85z M677.663,177.764
			c0-3.507,2.746-6.295,6.465-6.295c3.717,0,6.463,2.788,6.463,6.295c0,3.507-2.746,6.296-6.463,6.296
			C680.409,184.06,677.663,181.271,677.663,177.764z M688.522,177.764c0-2.45-1.816-4.352-4.395-4.352
			c-2.535,0-4.354,1.901-4.354,4.352c0,2.451,1.816,4.353,4.354,4.353C686.704,182.116,688.522,180.215,688.522,177.764z"/>
	</g>
	<g>
		
			<linearGradient id="SVGID_10_" gradientUnits="userSpaceOnUse" x1="1948.7339" y1="1567.5615" x2="2045.2544" y2="1567.5615" gradientTransform="matrix(0 -1 -1 0 2046.8726 2252.6167)">
			<stop  offset="0" style="stop-color:#4B48BF"/>
			<stop  offset="1" style="stop-color:#A14B8A"/>
		</linearGradient>
		<rect x="434.938" y="207.362" fill="url(#SVGID_10_)" width="88.746" height="96.521"/>
		<polygon opacity="0.5" fill="#FFFFFF" enable-background="new    " points="479.311,221.377 434.965,207.362 523.655,207.362 		
			"/>
		<polygon opacity="0.2" enable-background="new    " points="479.311,303.884 434.965,303.884 434.965,207.362 479.311,221.377 		
			"/>
	</g>
	<g>
		
			<linearGradient id="SVGID_11_" gradientUnits="userSpaceOnUse" x1="1948.8218" y1="1392.1748" x2="2056.4868" y2="1392.1748" gradientTransform="matrix(0 -1 -1 0 2046.8726 2252.6167)">
			<stop  offset="0" style="stop-color:#4B48BF"/>
			<stop  offset="1" style="stop-color:#A14B8A"/>
		</linearGradient>
		<rect x="610.325" y="196.13" fill="url(#SVGID_11_)" width="88.746" height="107.665"/>
		<polygon opacity="0.5" fill="#FFFFFF" enable-background="new    " points="654.698,210.146 610.354,196.13 699.043,196.13 		"/>
		<polygon opacity="0.2" enable-background="new    " points="654.698,303.795 610.354,303.795 610.354,196.13 654.698,210.146 		
			"/>
	</g>
	<g>
		
			<linearGradient id="SVGID_12_" gradientUnits="userSpaceOnUse" x1="1948.481" y1="1743.668" x2="2023.4126" y2="1743.668" gradientTransform="matrix(0 -1 -1 0 2046.8726 2252.6167)">
			<stop  offset="0" style="stop-color:#4B48BF"/>
			<stop  offset="1" style="stop-color:#A14B8A"/>
		</linearGradient>
		<rect x="258.831" y="229.204" fill="url(#SVGID_12_)" width="88.747" height="74.932"/>
		<polygon opacity="0.5" fill="#FFFFFF" enable-background="new    " points="303.205,243.219 258.859,229.204 347.55,229.204 		"/>
		<polygon opacity="0.2" enable-background="new    " points="303.205,304.136 258.861,304.136 258.861,229.204 303.205,243.219 		
			"/>
	</g>
	<g>
		
			<linearGradient id="SVGID_13_" gradientUnits="userSpaceOnUse" x1="1948.5962" y1="1920.4922" x2="1969.2056" y2="1920.4922" gradientTransform="matrix(0 -1 -1 0 2046.8726 2252.6167)">
			<stop  offset="0" style="stop-color:#4B48BF"/>
			<stop  offset="1" style="stop-color:#A14B8A"/>
		</linearGradient>
		<rect x="82.007" y="283.411" fill="url(#SVGID_13_)" width="88.747" height="20.609"/>
		<polygon opacity="0.5" fill="#FFFFFF" enable-background="new    " points="126.381,297.427 82.036,283.411 170.726,283.411 		"/>
		<polygon opacity="0.2" enable-background="new    " points="126.381,304.021 82.037,304.021 82.037,283.411 126.381,297.427 		"/>
	</g>
	<line fill="none" stroke="#FFFFFF" stroke-width="3" stroke-miterlimit="10" x1="772.93" y1="304.717" x2="7.954" y2="304.717"/>
	<g>
		<path fill="#A04B8A" d="M26.488,12.993v12.679h-0.96V14.044l-2.935,0.924l-0.235-0.833l3.314-1.142H26.488z"/>
		<path fill="#A04B8A" d="M29.022,19.333c0-3.913,1.702-6.539,4.745-6.539s4.746,2.626,4.746,6.539c0,3.912-1.703,6.538-4.746,6.538
			S29.022,23.245,29.022,19.333z M37.535,19.333c0-3.551-1.413-5.615-3.768-5.615S30,15.782,30,19.333
			c0,3.55,1.412,5.614,3.767,5.614S37.535,22.883,37.535,19.333z"/>
		<path fill="#A04B8A" d="M40.43,19.333c0-3.913,1.702-6.539,4.745-6.539s4.746,2.626,4.746,6.539c0,3.912-1.703,6.538-4.746,6.538
			S40.43,23.245,40.43,19.333z M48.942,19.333c0-3.551-1.413-5.615-3.768-5.615s-3.767,2.064-3.767,5.615
			c0,3.55,1.412,5.614,3.767,5.614S48.942,22.883,48.942,19.333z"/>
		<path fill="#A04B8A" d="M56.853,15.493c0-1.504,1.178-2.699,2.771-2.699s2.771,1.195,2.771,2.699c0,1.503-1.142,2.698-2.771,2.698
			C58.03,18.191,56.853,16.996,56.853,15.493z M66.145,14.37l0.616,0.344l-8.622,9.672l-0.598-0.344L66.145,14.37z M61.508,15.493
			c0-1.051-0.779-1.866-1.884-1.866c-1.087,0-1.865,0.815-1.865,1.866c0,1.05,0.778,1.865,1.865,1.865
			C60.729,17.358,61.508,16.543,61.508,15.493z M61.979,23.173c0-1.504,1.178-2.699,2.771-2.699s2.771,1.195,2.771,2.699
			c0,1.503-1.178,2.698-2.771,2.698S61.979,24.676,61.979,23.173z M66.634,23.173c0-1.051-0.779-1.866-1.884-1.866
			c-1.087,0-1.865,0.815-1.865,1.866c0,1.05,0.778,1.865,1.865,1.865C65.854,25.038,66.634,24.223,66.634,23.173z"/>
		<path fill="#A04B8A" d="M78.836,16.489v0.869c-1.558,0-3.025,0.96-3.025,3.278v5.035h-0.905v-9.056h0.905v1.774
			C76.427,16.96,77.604,16.489,78.836,16.489z"/>
		<path fill="#A04B8A" d="M88.669,21.18c0,0.146-0.018,0.29-0.018,0.436h-8.205c0.218,2.046,1.775,3.387,3.84,3.387
			c1.485,0,2.608-0.688,3.134-1.648l0.797,0.471c-0.743,1.231-2.156,2.047-3.949,2.047c-2.789,0-4.763-1.992-4.763-4.728
			c0-2.662,1.919-4.727,4.69-4.727C86.948,16.417,88.669,18.698,88.669,21.18z M80.446,20.728h7.281
			c-0.199-2.21-1.757-3.441-3.532-3.441C82.131,17.286,80.627,18.717,80.446,20.728z"/>
		<path fill="#A04B8A" d="M98.031,16.616l-3.822,9.056h-1.104l-3.84-9.056h0.979l3.404,8.114l3.424-8.114H98.031z"/>
		<path fill="#A04B8A" d="M107.863,21.18c0,0.146-0.018,0.29-0.018,0.436H99.64c0.218,2.046,1.775,3.387,3.84,3.387
			c1.485,0,2.608-0.688,3.133-1.648l0.798,0.471c-0.743,1.231-2.156,2.047-3.949,2.047c-2.789,0-4.763-1.992-4.763-4.728
			c0-2.662,1.919-4.727,4.69-4.727C106.143,16.417,107.863,18.698,107.863,21.18z M99.641,20.728h7.281
			c-0.199-2.21-1.757-3.441-3.532-3.441C101.325,17.286,99.821,18.717,99.641,20.728z"/>
		<path fill="#A04B8A" d="M117.641,20.039v5.633h-0.923v-5.633c0-1.666-0.96-2.753-2.663-2.753c-1.774,0-3.17,1.159-3.17,3.604
			v4.781h-0.905v-9.056h0.905v1.721c0.688-1.341,1.848-1.92,3.242-1.92C116.282,16.417,117.641,17.848,117.641,20.039z"/>
		<path fill="#A04B8A" d="M127.617,16.616v9.056h-0.905v-1.721c-0.688,1.341-1.848,1.92-3.242,1.92
			c-2.155,0-3.514-1.431-3.514-3.622v-5.633h0.924v5.633c0,1.666,0.96,2.753,2.662,2.753c1.775,0,3.17-1.159,3.17-3.604v-4.781
			L127.617,16.616L127.617,16.616z"/>
		<path fill="#A04B8A" d="M138.953,21.18c0,0.146-0.018,0.29-0.018,0.436h-8.205c0.218,2.046,1.775,3.387,3.84,3.387
			c1.485,0,2.608-0.688,3.133-1.648l0.798,0.471c-0.743,1.231-2.156,2.047-3.949,2.047c-2.789,0-4.763-1.992-4.763-4.728
			c0-2.662,1.919-4.727,4.69-4.727C137.232,16.417,138.953,18.698,138.953,21.18z M130.73,20.728h7.281
			c-0.199-2.21-1.757-3.441-3.532-3.441C132.415,17.286,130.911,18.717,130.73,20.728z"/>
		<path fill="#A04B8A" d="M154.798,16.616v9.056h-0.924v-2.047c-0.761,1.358-2.155,2.246-3.895,2.246
			c-2.571,0-4.69-2.047-4.69-4.728s2.119-4.727,4.69-4.727c1.739,0,3.134,0.887,3.895,2.245v-2.046L154.798,16.616L154.798,16.616z
			 M153.874,21.144c0-2.155-1.667-3.857-3.822-3.857c-2.155,0-3.84,1.702-3.84,3.857s1.685,3.858,3.84,3.858
			C152.207,25.002,153.874,23.299,153.874,21.144z"/>
		<path fill="#A04B8A" d="M170.552,19.931v5.741h-0.906v-5.741c0-1.721-0.996-2.645-2.408-2.645c-1.521,0-2.717,1.014-2.717,3.332
			v5.054h-0.906v-5.741c0-1.721-0.924-2.645-2.318-2.645c-1.485,0-2.808,1.014-2.808,3.332v5.054h-0.905v-9.056h0.905v1.558
			c0.671-1.25,1.758-1.757,2.916-1.757c1.322,0,2.355,0.651,2.826,1.847c0.652-1.268,1.811-1.847,3.024-1.847
			C169.175,16.417,170.552,17.666,170.552,19.931z"/>
		<path fill="#A04B8A" d="M172.485,21.144c0-2.681,2.118-4.727,4.763-4.727c2.627,0,4.746,2.046,4.746,4.727
			s-2.119,4.728-4.746,4.728C174.604,25.871,172.485,23.824,172.485,21.144z M181.07,21.144c0-2.155-1.667-3.857-3.822-3.857
			c-2.155,0-3.84,1.702-3.84,3.857s1.685,3.858,3.84,3.858C179.403,25.002,181.07,23.299,181.07,21.144z"/>
		<path fill="#A04B8A" d="M191.59,16.616v9.056h-0.905v-1.721c-0.688,1.341-1.848,1.92-3.242,1.92c-2.155,0-3.514-1.431-3.514-3.622
			v-5.633h0.924v5.633c0,1.666,0.96,2.753,2.662,2.753c1.775,0,3.17-1.159,3.17-3.604v-4.781L191.59,16.616L191.59,16.616z"/>
		<path fill="#A04B8A" d="M202.038,20.039v5.633h-0.923v-5.633c0-1.666-0.96-2.753-2.663-2.753c-1.774,0-3.17,1.159-3.17,3.604
			v4.781h-0.905v-9.056h0.905v1.721c0.688-1.341,1.848-1.92,3.242-1.92C200.68,16.417,202.038,17.848,202.038,20.039z"/>
		<path fill="#A04B8A" d="M206.528,17.503v5.887c0,1.594,0.851,1.63,2.698,1.467v0.815c-2.373,0.362-3.622-0.218-3.622-2.282v-5.887
			h-1.992v-0.887h1.992v-2.265l0.924-0.271v2.536h2.698v0.887H206.528z"/>
		<path fill="#A04B8A" d="M215.854,15.384l-1.721-0.036l0.96,1.431l-0.707,0.417l-0.887-1.521l-0.87,1.521l-0.725-0.417l0.96-1.431
			l-1.721,0.036v-0.778l1.721,0.036l-0.96-1.431l0.725-0.417l0.87,1.504l0.887-1.504l0.707,0.417l-0.96,1.431l1.721-0.036V15.384z"
			/>
	</g>
	<polyline fill="none" stroke="#FFFFFF" stroke-width="3" stroke-miterlimit="10" points="14.85,9.016 7.955,2.121 1.061,9.016 	"/>
	<line fill="none" stroke="#FFFFFF" stroke-width="3" stroke-miterlimit="10" x1="772.93" y1="3.089" x2="772.93" y2="304.717"/>
</g>
</svg>
