<?xml version="1.0" encoding="utf-8"?>
<!-- Generator: Adobe Illustrator 16.0.0, SVG Export Plug-In . SVG Version: 6.00 Build 0)  -->
<!DOCTYPE svg PUBLIC "-//W3C//DTD SVG 1.1//EN" "http://www.w3.org/Graphics/SVG/1.1/DTD/svg11.dtd">
<svg version="1.1" id="Layer_1" xmlns="http://www.w3.org/2000/svg" xmlns:xlink="http://www.w3.org/1999/xlink" x="0px" y="0px"
	 width="774.43px" height="381.678px" viewBox="0 0 774.43 381.678" enable-background="new 0 0 774.43 381.678"
	 xml:space="preserve">
<g>
	
		<linearGradient id="SVGID_1_" gradientUnits="userSpaceOnUse" x1="-76.0449" y1="-323.8474" x2="688.9297" y2="-323.8474" gradientTransform="matrix(1 0 0 -1 84 -52.644)">
		<stop  offset="0" style="stop-color:#FFFFFF;stop-opacity:0.2"/>
		<stop  offset="0.5" style="stop-color:#FFFFFF;stop-opacity:0"/>
		<stop  offset="1" style="stop-color:#FFFFFF;stop-opacity:0.2"/>
	</linearGradient>
	<path fill="none" stroke="url(#SVGID_1_)" stroke-width="3" stroke-miterlimit="10" d="M772.93,271.203H7.955"/>
	
		<linearGradient id="SVGID_2_" gradientUnits="userSpaceOnUse" x1="-76.0449" y1="-290.3318" x2="688.9297" y2="-290.3318" gradientTransform="matrix(1 0 0 -1 84 -52.644)">
		<stop  offset="0" style="stop-color:#FFFFFF;stop-opacity:0.2"/>
		<stop  offset="0.5" style="stop-color:#FFFFFF;stop-opacity:0"/>
		<stop  offset="1" style="stop-color:#FFFFFF;stop-opacity:0.2"/>
	</linearGradient>
	<path fill="none" stroke="url(#SVGID_2_)" stroke-width="3" stroke-miterlimit="10" d="M772.93,237.688H7.955"/>
	
		<linearGradient id="SVGID_3_" gradientUnits="userSpaceOnUse" x1="-76.0449" y1="-256.8181" x2="688.9297" y2="-256.8181" gradientTransform="matrix(1 0 0 -1 84 -52.644)">
		<stop  offset="0" style="stop-color:#FFFFFF;stop-opacity:0.2"/>
		<stop  offset="0.5" style="stop-color:#FFFFFF;stop-opacity:0"/>
		<stop  offset="1" style="stop-color:#FFFFFF;stop-opacity:0.2"/>
	</linearGradient>
	<path fill="none" stroke="url(#SVGID_3_)" stroke-width="3" stroke-miterlimit="10" d="M772.93,204.174H7.955"/>
	
		<linearGradient id="SVGID_4_" gradientUnits="userSpaceOnUse" x1="-76.0449" y1="-223.3044" x2="688.9297" y2="-223.3044" gradientTransform="matrix(1 0 0 -1 84 -52.644)">
		<stop  offset="0" style="stop-color:#FFFFFF;stop-opacity:0.2"/>
		<stop  offset="0.5" style="stop-color:#FFFFFF;stop-opacity:0"/>
		<stop  offset="1" style="stop-color:#FFFFFF;stop-opacity:0.2"/>
	</linearGradient>
	<path fill="none" stroke="url(#SVGID_4_)" stroke-width="3" stroke-miterlimit="10" d="M772.93,170.66H7.955"/>
	
		<linearGradient id="SVGID_5_" gradientUnits="userSpaceOnUse" x1="-76.0449" y1="-189.7898" x2="688.9297" y2="-189.7898" gradientTransform="matrix(1 0 0 -1 84 -52.644)">
		<stop  offset="0" style="stop-color:#FFFFFF;stop-opacity:0.2"/>
		<stop  offset="0.5" style="stop-color:#FFFFFF;stop-opacity:0"/>
		<stop  offset="1" style="stop-color:#FFFFFF;stop-opacity:0.2"/>
	</linearGradient>
	<path fill="none" stroke="url(#SVGID_5_)" stroke-width="3" stroke-miterlimit="10" d="M772.93,137.146H7.955"/>
	
		<linearGradient id="SVGID_6_" gradientUnits="userSpaceOnUse" x1="-76.0449" y1="-156.2771" x2="688.9297" y2="-156.2771" gradientTransform="matrix(1 0 0 -1 84 -52.644)">
		<stop  offset="0" style="stop-color:#FFFFFF;stop-opacity:0.2"/>
		<stop  offset="0.5" style="stop-color:#FFFFFF;stop-opacity:0"/>
		<stop  offset="1" style="stop-color:#FFFFFF;stop-opacity:0.2"/>
	</linearGradient>
	<path fill="none" stroke="url(#SVGID_6_)" stroke-width="3" stroke-miterlimit="10" d="M772.93,103.633H7.955"/>
	
		<linearGradient id="SVGID_7_" gradientUnits="userSpaceOnUse" x1="-76.0449" y1="-122.7625" x2="688.9297" y2="-122.7625" gradientTransform="matrix(1 0 0 -1 84 -52.644)">
		<stop  offset="0" style="stop-color:#FFFFFF;stop-opacity:0.2"/>
		<stop  offset="0.5" style="stop-color:#FFFFFF;stop-opacity:0"/>
		<stop  offset="1" style="stop-color:#FFFFFF;stop-opacity:0.2"/>
	</linearGradient>
	<path fill="none" stroke="url(#SVGID_7_)" stroke-width="3" stroke-miterlimit="10" d="M772.93,70.118H7.955"/>
	
		<linearGradient id="SVGID_8_" gradientUnits="userSpaceOnUse" x1="-76.0449" y1="-89.2478" x2="688.9297" y2="-89.2478" gradientTransform="matrix(1 0 0 -1 84 -52.644)">
		<stop  offset="0" style="stop-color:#FFFFFF;stop-opacity:0.2"/>
		<stop  offset="0.5" style="stop-color:#FFFFFF;stop-opacity:0"/>
		<stop  offset="1" style="stop-color:#FFFFFF;stop-opacity:0.2"/>
	</linearGradient>
	<path fill="none" stroke="url(#SVGID_8_)" stroke-width="3" stroke-miterlimit="10" d="M772.93,36.604H7.955"/>
	
		<linearGradient id="SVGID_9_" gradientUnits="userSpaceOnUse" x1="-76.0449" y1="-55.7332" x2="688.9297" y2="-55.7332" gradientTransform="matrix(1 0 0 -1 84 -52.644)">
		<stop  offset="0" style="stop-color:#FFFFFF;stop-opacity:0.2"/>
		<stop  offset="0.5" style="stop-color:#FFFFFF;stop-opacity:0"/>
		<stop  offset="1" style="stop-color:#FFFFFF;stop-opacity:0.2"/>
	</linearGradient>
	<path fill="none" stroke="url(#SVGID_9_)" stroke-width="3" stroke-miterlimit="10" d="M772.93,3.089H7.955"/>
	<path fill="none" stroke="#FFFFFF" stroke-width="3" stroke-miterlimit="10" d="M7.954,3.089v301.628"/>
	<path fill="#706DCB" d="M282.436,343.158h-4.344l-0.585,1.838h-2.924l3.977-11.694h3.408l3.977,11.694h-2.924L282.436,343.158
		L282.436,343.158z M281.635,340.653l-1.37-4.295l-1.37,4.295H281.635z M295.056,337.311c0,2.223-1.787,4.01-4.093,4.01h-1.755
		v3.677h-2.673v-11.694h4.428C293.268,333.299,295.056,335.087,295.056,337.311z M292.383,337.311c0-0.854-0.602-1.504-1.42-1.504
		h-1.755v3.008h1.755C291.781,338.815,292.383,338.162,292.383,337.311z M304.499,337.311c0,2.223-1.787,4.01-4.093,4.01h-1.755
		v3.677h-2.673v-11.694h4.428C302.711,333.299,304.499,335.087,304.499,337.311z M301.826,337.311c0-0.854-0.602-1.504-1.42-1.504
		h-1.755v3.008h1.755C301.224,338.815,301.826,338.162,301.826,337.311z M312.772,342.422v2.572h-7.353v-11.695h7.269v2.573h-4.596
		v1.938h4.177v2.54h-4.177v2.07L312.772,342.422z M320.88,343.158h-4.344l-0.585,1.838h-2.924l3.977-11.694h3.408l3.977,11.694
		h-2.924L320.88,343.158L320.88,343.158z M320.078,340.653l-1.37-4.295l-1.37,4.295H320.078L320.078,340.653z M331.827,342.422
		v2.572h-6.851v-11.695h2.674v9.123H331.827L331.827,342.422z M289.5,353.981v2.256h4.344v2.573H289.5v4.294h-2.673v-11.695h7.101
		v2.572H289.5L289.5,353.981z M302.452,360.531v2.572H295.1v-11.695h7.268v2.572h-4.595v1.938h4.177v2.54h-4.177v2.069
		L302.452,360.531L302.452,360.531z M310.892,360.531v2.572h-7.352v-11.695h7.268v2.572h-4.595v1.938h4.177v2.54h-4.177v2.069
		L310.892,360.531L310.892,360.531z M311.396,360.448l2.306-1.338c0.418,0.97,1.136,1.62,2.456,1.62c1.27,0,1.587-0.501,1.587-0.952
		c0-0.718-0.668-1.002-2.423-1.485c-1.737-0.483-3.441-1.318-3.441-3.561c0-2.256,1.904-3.56,3.927-3.56
		c1.921,0,3.426,0.92,4.277,2.641l-2.256,1.32c-0.401-0.837-0.952-1.354-2.021-1.354c-0.836,0-1.254,0.419-1.254,0.888
		c0,0.533,0.284,0.9,2.105,1.452c1.771,0.534,3.76,1.152,3.76,3.626c0,2.257-1.805,3.594-4.345,3.594
		C313.619,363.337,312.049,362.167,311.396,360.448L311.396,360.448z"/>
	<path fill="none" stroke="#FFFFFF" stroke-width="3" stroke-miterlimit="10" d="M772.93,304.717H7.954"/>
	<path fill="#A04B8A" d="M26.488,12.993v12.679h-0.96V14.044l-2.935,0.924l-0.235-0.833l3.314-1.142H26.488z M29.022,19.333
		c0-3.913,1.702-6.539,4.745-6.539s4.746,2.626,4.746,6.539c0,3.912-1.703,6.538-4.746,6.538S29.022,23.245,29.022,19.333z
		 M37.535,19.333c0-3.551-1.413-5.615-3.768-5.615S30,15.782,30,19.333c0,3.55,1.412,5.614,3.767,5.614S37.535,22.883,37.535,19.333
		z M40.43,19.333c0-3.913,1.702-6.539,4.745-6.539s4.746,2.626,4.746,6.539c0,3.912-1.703,6.538-4.746,6.538
		S40.43,23.245,40.43,19.333z M48.942,19.333c0-3.551-1.413-5.615-3.768-5.615s-3.767,2.064-3.767,5.615
		c0,3.55,1.412,5.614,3.767,5.614S48.942,22.883,48.942,19.333z M56.853,15.493c0-1.504,1.178-2.699,2.771-2.699
		c1.593,0,2.771,1.195,2.771,2.699c0,1.503-1.142,2.696-2.771,2.696C58.03,18.191,56.853,16.996,56.853,15.493z M66.145,14.37
		l0.616,0.344l-8.622,9.672l-0.598-0.344L66.145,14.37z M61.508,15.493c0-1.053-0.779-1.866-1.884-1.866
		c-1.087,0-1.865,0.813-1.865,1.866c0,1.05,0.778,1.863,1.865,1.863C60.729,17.358,61.508,16.543,61.508,15.493z M61.979,23.173
		c0-1.504,1.178-2.699,2.771-2.699s2.771,1.195,2.771,2.699c0,1.503-1.178,2.698-2.771,2.698S61.979,24.676,61.979,23.173z
		 M66.634,23.173c0-1.051-0.779-1.866-1.884-1.866c-1.087,0-1.865,0.815-1.865,1.866c0,1.05,0.778,1.865,1.865,1.865
		C65.854,25.038,66.634,24.223,66.634,23.173z M78.836,16.49v0.867c-1.558,0-3.025,0.96-3.025,3.278v5.035h-0.905v-9.056h0.905
		v1.772C76.427,16.96,77.604,16.49,78.836,16.49z M88.669,21.18c0,0.146-0.018,0.29-0.018,0.438h-8.205
		c0.218,2.046,1.775,3.387,3.84,3.387c1.485,0,2.608-0.688,3.134-1.648l0.797,0.473c-0.743,1.229-2.156,2.047-3.949,2.047
		c-2.789,0-4.763-1.992-4.763-4.729c0-2.662,1.919-4.727,4.69-4.727C86.948,16.417,88.669,18.698,88.669,21.18z M80.446,20.728
		h7.281c-0.199-2.21-1.757-3.439-3.532-3.439C82.131,17.286,80.627,18.717,80.446,20.728z M98.031,16.616l-3.822,9.056h-1.104
		l-3.84-9.056h0.979l3.404,8.112l3.424-8.112H98.031z M107.863,21.18c0,0.146-0.018,0.29-0.018,0.438H99.64
		c0.218,2.046,1.775,3.387,3.84,3.387c1.485,0,2.608-0.688,3.133-1.648l0.798,0.473c-0.743,1.229-2.156,2.047-3.949,2.047
		c-2.789,0-4.763-1.992-4.763-4.729c0-2.662,1.919-4.727,4.69-4.727C106.143,16.417,107.863,18.698,107.863,21.18z M99.641,20.728
		h7.281c-0.199-2.21-1.757-3.439-3.532-3.439C101.325,17.286,99.821,18.717,99.641,20.728z M117.641,20.039v5.633h-0.923v-5.633
		c0-1.666-0.96-2.753-2.663-2.753c-1.774,0-3.17,1.157-3.17,3.604v4.781h-0.905v-9.056h0.905v1.721
		c0.688-1.341,1.848-1.92,3.242-1.92C116.282,16.417,117.641,17.848,117.641,20.039z M127.617,16.616v9.056h-0.905v-1.721
		c-0.688,1.341-1.848,1.92-3.242,1.92c-2.155,0-3.514-1.433-3.514-3.622v-5.633h0.924v5.633c0,1.666,0.96,2.753,2.662,2.753
		c1.775,0,3.17-1.159,3.17-3.604v-4.779L127.617,16.616z M138.953,21.18c0,0.146-0.018,0.29-0.018,0.438h-8.205
		c0.218,2.046,1.775,3.387,3.84,3.387c1.485,0,2.608-0.688,3.133-1.648l0.798,0.473c-0.743,1.229-2.156,2.047-3.949,2.047
		c-2.789,0-4.763-1.992-4.763-4.729c0-2.662,1.919-4.727,4.69-4.727C137.232,16.417,138.953,18.698,138.953,21.18L138.953,21.18z
		 M130.73,20.728h7.281c-0.199-2.21-1.757-3.439-3.532-3.439C132.415,17.286,130.911,18.717,130.73,20.728L130.73,20.728z
		 M154.798,16.616v9.056h-0.924v-2.047c-0.761,1.356-2.155,2.246-3.895,2.246c-2.571,0-4.69-2.047-4.69-4.729
		c0-2.681,2.119-4.727,4.69-4.727c1.739,0,3.134,0.887,3.895,2.245v-2.046L154.798,16.616z M153.874,21.144
		c0-2.153-1.667-3.855-3.822-3.855c-2.155,0-3.84,1.702-3.84,3.855c0,2.155,1.685,3.858,3.84,3.858
		C152.207,25.002,153.874,23.299,153.874,21.144z M170.552,19.931v5.741h-0.906v-5.741c0-1.721-0.996-2.645-2.408-2.645
		c-1.521,0-2.717,1.014-2.717,3.332v5.054h-0.906v-5.741c0-1.721-0.924-2.645-2.318-2.645c-1.485,0-2.808,1.014-2.808,3.332v5.054
		h-0.905v-9.056h0.905v1.558c0.671-1.25,1.758-1.757,2.916-1.757c1.322,0,2.355,0.649,2.826,1.847
		c0.652-1.268,1.811-1.847,3.024-1.847C169.175,16.417,170.552,17.666,170.552,19.931z M172.485,21.144
		c0-2.681,2.118-4.727,4.763-4.727c2.627,0,4.746,2.046,4.746,4.727c0,2.683-2.119,4.729-4.746,4.729
		C174.604,25.871,172.485,23.824,172.485,21.144z M181.07,21.144c0-2.153-1.667-3.855-3.822-3.855c-2.155,0-3.84,1.702-3.84,3.855
		c0,2.155,1.685,3.858,3.84,3.858C179.403,25.002,181.07,23.299,181.07,21.144z M191.59,16.616v9.056h-0.905v-1.721
		c-0.688,1.341-1.848,1.92-3.242,1.92c-2.155,0-3.514-1.433-3.514-3.622v-5.633h0.924v5.633c0,1.666,0.96,2.753,2.662,2.753
		c1.775,0,3.17-1.159,3.17-3.604v-4.779L191.59,16.616z M202.038,20.039v5.633h-0.923v-5.633c0-1.666-0.96-2.753-2.663-2.753
		c-1.774,0-3.17,1.157-3.17,3.604v4.781h-0.905v-9.056h0.905v1.721c0.688-1.341,1.848-1.92,3.242-1.92
		C200.68,16.417,202.038,17.848,202.038,20.039L202.038,20.039z M206.528,17.503v5.887c0,1.594,0.851,1.63,2.698,1.467v0.815
		c-2.373,0.362-3.622-0.218-3.622-2.282v-5.887h-1.992v-0.887h1.992V14.35l0.924-0.271v2.536h2.698v0.887L206.528,17.503
		L206.528,17.503z M215.854,15.384l-1.721-0.036l0.96,1.431l-0.707,0.417l-0.887-1.521l-0.87,1.521l-0.725-0.417l0.96-1.431
		l-1.721,0.036v-0.778l1.721,0.036l-0.96-1.431l0.725-0.417l0.87,1.504l0.887-1.504l0.707,0.417l-0.96,1.431l1.721-0.036V15.384z"/>
	<path fill="none" stroke="#FFFFFF" stroke-width="3" stroke-miterlimit="10" d="M14.85,9.016L7.955,2.121L1.061,9.016
		 M772.93,3.089v301.628"/>
	
		<linearGradient id="SVGID_10_" gradientUnits="userSpaceOnUse" x1="96.5098" y1="-54.2351" x2="113.1602" y2="-54.2351" gradientTransform="matrix(4.371139e-008 -1 -1 -4.371139e-008 72.1448 399.6824)">
		<stop  offset="0" style="stop-color:#4B48BF"/>
		<stop  offset="1" style="stop-color:#A14B8A"/>
	</linearGradient>
	<rect x="82.022" y="286.522" fill="url(#SVGID_10_)" width="88.717" height="16.65"/>
	
		<linearGradient id="SVGID_11_" gradientUnits="userSpaceOnUse" x1="81.3975" y1="121.8704" x2="114.6953" y2="121.8704" gradientTransform="matrix(4.371139e-008 -1 -1 -4.371139e-008 424.3567 384.5691)">
		<stop  offset="0" style="stop-color:#4B48BF"/>
		<stop  offset="1" style="stop-color:#A14B8A"/>
	</linearGradient>
	<rect x="258.113" y="269.873" fill="url(#SVGID_11_)" width="88.749" height="33.298"/>
	
		<linearGradient id="SVGID_12_" gradientUnits="userSpaceOnUse" x1="-9.2666" y1="298.5315" x2="123.9233" y2="298.5315" gradientTransform="matrix(4.371139e-008 -1 -1 -4.371139e-008 777.679 293.9051)">
		<stop  offset="0" style="stop-color:#4B48BF"/>
		<stop  offset="1" style="stop-color:#A14B8A"/>
	</linearGradient>
	<rect x="434.788" y="169.982" fill="url(#SVGID_12_)" width="88.719" height="133.189"/>
	
		<linearGradient id="SVGID_13_" gradientUnits="userSpaceOnUse" x1="-24.3809" y1="474.0657" x2="125.4604" y2="474.0657" gradientTransform="matrix(4.371139e-008 -1 -1 -4.371139e-008 1128.7493 278.7918)">
		<stop  offset="0" style="stop-color:#4B48BF"/>
		<stop  offset="1" style="stop-color:#A14B8A"/>
	</linearGradient>
	<rect x="610.325" y="153.331" fill="url(#SVGID_13_)" width="88.717" height="149.841"/>
	<g>
		<path fill="#A04B8A" d="M281.878,228.273v29.021h-6.633v-22.016l-5.141,1.41l-1.617-5.681l7.587-2.735H281.878z"/>
		<path fill="#A04B8A" d="M286.021,242.782c0-8.954,4.312-15.092,11.815-15.092c7.504,0,11.816,6.138,11.816,15.092
			s-4.313,15.091-11.816,15.091C290.333,257.873,286.021,251.739,286.021,242.782z M303.019,242.782c0-5.598-1.7-8.623-5.183-8.623
			c-3.482,0-5.182,3.025-5.182,8.623s1.7,8.624,5.182,8.624C301.319,251.406,303.019,248.38,303.019,242.782z"/>
		<path fill="#A04B8A" d="M313.503,233.993c0-3.44,2.695-6.178,6.343-6.178c3.648,0,6.344,2.736,6.344,6.178
			c0,3.44-2.612,6.178-6.344,6.178C316.198,240.171,313.503,237.435,313.503,233.993z M334.771,231.423l1.409,0.788l-19.733,22.139
			l-1.368-0.788L334.771,231.423z M324.158,233.993c0-2.404-1.783-4.271-4.313-4.271c-2.487,0-4.271,1.866-4.271,4.271
			c0,2.404,1.783,4.271,4.271,4.271C322.375,238.264,324.158,236.399,324.158,233.993z M325.236,251.573
			c0-3.44,2.693-6.178,6.343-6.178c3.648,0,6.343,2.736,6.343,6.178c0,3.44-2.695,6.178-6.343,6.178
			C327.931,257.75,325.236,255.013,325.236,251.573z M335.891,251.573c0-2.404-1.781-4.271-4.312-4.271
			c-2.487,0-4.271,1.865-4.271,4.271c0,2.404,1.783,4.271,4.271,4.271C334.108,255.842,335.891,253.977,335.891,251.573z"/>
	</g>
	<g>
		<path fill="#A04B8A" d="M122.803,264.531c0,6.385-4.975,9.7-10.572,9.7c-4.602,0-8.582-1.947-10.365-6.219l5.721-3.315
			c0.664,1.906,1.907,3.067,4.644,3.067c2.736,0,3.938-1.451,3.938-3.233s-1.203-3.233-3.731-3.233h-9.079l1.202-16.666h16.791
			v6.219H110.78l-0.29,3.979h2.363C118.243,254.829,122.803,258.147,122.803,264.531z"/>
		<path fill="#A04B8A" d="M126.447,250.352c0-3.44,2.695-6.177,6.343-6.177s6.343,2.735,6.343,6.177
			c0,3.442-2.612,6.179-6.343,6.179C129.142,256.531,126.447,253.793,126.447,250.352z M147.715,247.781l1.41,0.787l-19.734,22.14
			l-1.368-0.788L147.715,247.781z M137.102,250.352c0-2.403-1.783-4.27-4.312-4.27c-2.488,0-4.271,1.865-4.271,4.27
			c0,2.405,1.783,4.271,4.271,4.271C135.319,254.622,137.102,252.757,137.102,250.352z M138.18,267.93
			c0-3.439,2.694-6.177,6.343-6.177s6.343,2.736,6.343,6.177c0,3.441-2.695,6.178-6.343,6.178S138.18,271.371,138.18,267.93z
			 M148.834,267.93c0-2.404-1.782-4.27-4.312-4.27c-2.487,0-4.27,1.864-4.27,4.27s1.783,4.271,4.27,4.271
			C147.052,272.2,148.834,270.335,148.834,267.93z"/>
	</g>
	<g>
		<path fill="#A04B8A" d="M463.771,153.006h-2.902v4.644h-6.717v-4.644h-13.185v-6.136l9.246-18.241h7.131L448.1,146.87h6.054v-6.22
			h6.717v6.22h2.902L463.771,153.006L463.771,153.006z"/>
		<path fill="#A04B8A" d="M465.426,143.139c0-8.954,4.312-15.091,11.814-15.091s11.815,6.137,11.815,15.091
			c0,8.955-4.313,15.091-11.815,15.091S465.426,152.094,465.426,143.139z M482.424,143.139c0-5.597-1.7-8.623-5.184-8.623
			c-3.482,0-5.183,3.026-5.183,8.623c0,5.598,1.699,8.624,5.183,8.624S482.424,148.737,482.424,143.139z"/>
		<path fill="#A04B8A" d="M492.908,134.35c0-3.439,2.693-6.177,6.343-6.177c3.647,0,6.343,2.736,6.343,6.177
			c0,3.441-2.61,6.178-6.343,6.178C495.603,140.528,492.908,137.791,492.908,134.35z M514.176,131.781l1.41,0.787l-19.734,22.14
			l-1.367-0.788L514.176,131.781z M503.563,134.35c0-2.404-1.782-4.271-4.312-4.271c-2.487,0-4.271,1.865-4.271,4.271
			s1.782,4.271,4.271,4.271C501.779,138.62,503.563,136.755,503.563,134.35z M504.641,151.928c0-3.44,2.694-6.177,6.344-6.177
			c3.648,0,6.343,2.735,6.343,6.177s-2.694,6.178-6.343,6.178C507.335,158.106,504.641,155.369,504.641,151.928z M515.295,151.928
			c0-2.404-1.783-4.27-4.312-4.27c-2.487,0-4.271,1.864-4.271,4.27s1.783,4.271,4.271,4.271
			C513.512,156.198,515.295,154.333,515.295,151.928z"/>
	</g>
	<g>
		<path fill="#A04B8A" d="M640.966,136.107h-2.901v4.645h-6.718v-4.645h-13.184v-6.136l9.246-18.241h7.131l-9.246,18.241h6.053
			v-6.219h6.718v6.219h2.901V136.107L640.966,136.107z"/>
		<path fill="#A04B8A" d="M663.142,131.629c0,6.385-4.975,9.701-10.571,9.701c-4.603,0-8.582-1.948-10.364-6.22l5.722-3.315
			c0.663,1.907,1.906,3.068,4.644,3.068c2.736,0,3.938-1.451,3.938-3.234c0-1.782-1.203-3.233-3.731-3.233H643.7l1.201-16.666
			h16.791v6.22H651.12l-0.289,3.979h2.362C658.581,121.928,663.142,125.245,663.142,131.629z"/>
		<path fill="#A04B8A" d="M666.786,117.45c0-3.44,2.695-6.178,6.344-6.178c3.649,0,6.342,2.736,6.342,6.178
			c0,3.44-2.61,6.178-6.342,6.178C669.481,123.628,666.786,120.892,666.786,117.45z M688.054,114.88l1.41,0.788l-19.733,22.139
			l-1.367-0.788L688.054,114.88z M677.44,117.45c0-2.404-1.782-4.271-4.312-4.271c-2.488,0-4.271,1.866-4.271,4.271
			c0,2.404,1.782,4.271,4.271,4.271C675.658,121.721,677.44,119.856,677.44,117.45z M678.519,135.029
			c0-3.439,2.695-6.177,6.345-6.177c3.648,0,6.343,2.736,6.343,6.177c0,3.441-2.694,6.179-6.343,6.179
			C681.214,141.207,678.519,138.47,678.519,135.029z M689.173,135.029c0-2.403-1.781-4.27-4.311-4.27
			c-2.488,0-4.271,1.865-4.271,4.27c0,2.405,1.782,4.271,4.271,4.271C687.392,139.299,689.173,137.434,689.173,135.029z"/>
	</g>
	<path fill="#706DCB" d="M101.717,337.543c0,2.222-1.787,4.01-4.093,4.01h-1.755v3.676h-2.673v-11.693h4.428
		C99.93,333.531,101.717,335.32,101.717,337.543z M99.044,337.543c0-0.854-0.602-1.504-1.42-1.504h-1.755v3.008h1.755
		C98.443,339.047,99.044,338.395,99.044,337.543z M106.582,341.386h-1.27v3.843h-2.673v-11.694h4.678
		c2.209-0.006,4.004,1.78,4.01,3.989c0,0.007,0,0.016,0,0.021c0,1.437-0.868,2.739-2.155,3.392l2.49,4.294h-2.874L106.582,341.386
		L106.582,341.386z M105.313,339.047h2.005c0.735,0,1.337-0.652,1.337-1.504c0-0.854-0.602-1.504-1.337-1.504h-2.005V339.047z
		 M111.832,339.381c0-3.441,2.724-6.082,6.082-6.082s6.082,2.641,6.082,6.082c0,3.439-2.724,6.082-6.082,6.082
		S111.832,342.822,111.832,339.381z M121.323,339.381c0-2.089-1.503-3.478-3.408-3.478c-1.904,0-3.408,1.389-3.408,3.478
		c0,2.088,1.504,3.476,3.408,3.476C119.82,342.855,121.323,341.469,121.323,339.381z M123.415,343.19l2.322-1.338
		c0.368,0.651,0.752,1.003,1.654,1.003c1.17,0,1.521-0.668,1.521-1.388v-7.938h2.674v7.938c0,2.573-1.806,3.994-4.211,3.994
		C125.521,345.463,124.184,344.677,123.415,343.19L123.415,343.19z M140.445,342.655v2.572h-7.352v-11.694h7.268v2.572h-4.595v1.938
		h4.177v2.54h-4.177v2.069L140.445,342.655z M140.949,339.381c0-3.441,2.558-6.082,6.082-6.082c2.122,0,3.993,1.053,5.014,2.707
		l-2.307,1.336c-0.519-0.901-1.521-1.438-2.707-1.438c-2.07,0-3.407,1.389-3.407,3.478c0,2.088,1.337,3.476,3.407,3.476
		c1.188,0,2.206-0.533,2.707-1.438l2.307,1.337c-1.003,1.654-2.874,2.707-5.014,2.707
		C143.506,345.463,140.949,342.822,140.949,339.381L140.949,339.381z M160.736,336.105h-3.008v9.122h-2.673v-9.122h-3.008v-2.572
		h8.688L160.736,336.105z M81.328,357.488c0-3.44,2.724-6.081,6.082-6.081c3.358,0,6.082,2.641,6.082,6.081
		s-2.724,6.082-6.082,6.082C84.052,363.57,81.328,360.93,81.328,357.488z M90.819,357.488c0-2.089-1.503-3.477-3.408-3.477
		c-1.904,0-3.408,1.388-3.408,3.477c0,2.09,1.504,3.477,3.408,3.477C89.316,360.963,90.819,359.576,90.819,357.488z M93.246,351.64
		h2.807l2.022,8.188l2.255-8.188h2.173l2.255,8.188l2.022-8.188h2.807l-3.225,11.696h-3.041l-1.904-6.9l-1.905,6.9h-3.041
		L93.246,351.64L93.246,351.64z M119.534,351.64v11.696h-2.005l-4.512-6.352v6.352h-2.673V351.64h2.005l4.511,6.353v-6.353H119.534
		L119.534,351.64z M128.478,360.763v2.573h-7.352V351.64h7.268v2.573h-4.595v1.938h4.177v2.54h-4.177v2.07L128.478,360.763
		L128.478,360.763z M133.509,359.493h-1.271v3.843h-2.673V351.64h4.679c2.209-0.006,4.004,1.781,4.01,3.99c0,0.007,0,0.015,0,0.021
		c0,1.438-0.868,2.739-2.155,3.394l2.49,4.294h-2.874L133.509,359.493L133.509,359.493z M132.239,357.154h2.006
		c0.734,0,1.337-0.65,1.337-1.504s-0.603-1.504-1.337-1.504h-2.006V357.154z M138.676,360.68l2.306-1.337
		c0.418,0.969,1.136,1.62,2.456,1.62c1.271,0,1.587-0.501,1.587-0.952c0-0.718-0.668-1.002-2.423-1.486
		c-1.737-0.482-3.44-1.317-3.44-3.56c0-2.256,1.903-3.561,3.927-3.561c1.921,0,3.425,0.921,4.276,2.642l-2.256,1.32
		c-0.4-0.838-0.952-1.354-2.021-1.354c-0.836,0-1.254,0.418-1.254,0.887c0,0.533,0.283,0.901,2.104,1.452
		c1.771,0.535,3.76,1.153,3.76,3.626c0,2.257-1.805,3.594-4.345,3.594C140.897,363.57,139.327,362.4,138.676,360.68L138.676,360.68z
		 M157.56,351.64v11.696h-2.674v-4.646h-3.676v4.646h-2.673V351.64h2.673v4.479h3.676v-4.479H157.56L157.56,351.64z M161.823,351.64
		v11.696h-2.673V351.64H161.823L161.823,351.64z M171.934,355.65c0,2.224-1.787,4.012-4.093,4.012h-1.755v3.676h-2.673V351.64h4.428
		C170.146,351.64,171.934,353.428,171.934,355.65L171.934,355.65z M169.261,355.65c0-0.854-0.603-1.504-1.42-1.504h-1.755v3.008
		h1.755C168.658,357.154,169.261,356.502,169.261,355.65z M62.049,369.747h2.924l2.59,8.604l2.59-8.604h2.924l-3.81,11.694h-3.408
		L62.049,369.747L62.049,369.747z M79.847,379.605h-4.344l-0.585,1.838h-2.924l3.977-11.694h3.408l3.977,11.694h-2.924
		L79.847,379.605z M79.045,377.1l-1.37-4.295l-1.37,4.295H79.045L79.045,377.1z M90.793,378.87v2.571h-6.85v-11.694h2.673v9.123
		H90.793L90.793,378.87z M94.223,369.747v11.694H91.55v-11.694H94.223z M106.169,375.596c0,3.309-2.456,5.849-5.681,5.849H95.81
		V369.75h4.678C103.714,369.747,106.169,372.287,106.169,375.596z M103.598,375.596c0-2.005-1.271-3.273-3.108-3.273h-2.005v6.551
		h2.005C102.327,378.87,103.598,377.601,103.598,375.596z M113.694,379.605h-4.344l-0.585,1.838h-2.924l3.977-11.694h3.408
		l3.977,11.694h-2.924L113.694,379.605L113.694,379.605z M112.892,377.1l-1.37-4.295l-1.37,4.295H112.892z M124.809,372.32h-3.008
		v9.123h-2.673v-9.123h-3.008v-2.571h8.688L124.809,372.32z M128.237,369.747v11.694h-2.673v-11.694H128.237z M129.325,375.596
		c0-3.441,2.724-6.082,6.082-6.082c3.358,0,6.082,2.641,6.082,6.082s-2.724,6.082-6.082,6.082
		C132.049,381.678,129.325,379.037,129.325,375.596z M138.814,375.596c0-2.089-1.503-3.476-3.408-3.476
		c-1.903,0-3.407,1.387-3.407,3.476c0,2.088,1.504,3.477,3.407,3.477C137.312,379.07,138.814,377.684,138.814,375.596z
		 M151.769,369.747v11.694h-2.005l-4.512-6.351v6.351h-2.673v-11.694h2.005l4.511,6.35v-6.35H151.769z M159.793,372.32v2.258h4.344
		v2.571h-4.344v4.294h-2.673v-11.694h7.101v2.571H159.793L159.793,372.32z M172.745,378.87v2.571h-7.353v-11.694h7.269v2.571h-4.596
		v1.938h4.177v2.54h-4.177v2.071L172.745,378.87z M181.187,378.87v2.571h-7.352v-11.694h7.268v2.571h-4.595v1.938h4.177v2.54h-4.177
		v2.071L181.187,378.87z M181.69,378.787l2.307-1.338c0.418,0.97,1.136,1.619,2.456,1.619c1.27,0,1.587-0.501,1.587-0.95
		c0-0.72-0.668-1.003-2.424-1.487c-1.736-0.484-3.44-1.319-3.44-3.561c0-2.256,1.904-3.56,3.927-3.56
		c1.921,0,3.425,0.919,4.277,2.641l-2.256,1.319c-0.401-0.836-0.952-1.354-2.021-1.354c-0.836,0-1.254,0.418-1.254,0.886
		c0,0.534,0.284,0.9,2.105,1.453c1.771,0.533,3.76,1.151,3.76,3.626c0,2.256-1.806,3.593-4.345,3.593
		C183.912,381.678,182.342,380.508,181.69,378.787L181.69,378.787z"/>
	<path fill="#706DCB" d="M608.333,333.531h2.807l2.022,8.188l2.255-8.188h2.174l2.254,8.188l2.022-8.188h2.808l-3.228,11.695h-3.039
		l-1.903-6.898l-1.906,6.898h-3.041L608.333,333.531L608.333,333.531z M631.613,343.391h-4.345l-0.586,1.838h-2.924l3.978-11.693
		h3.407l3.979,11.693h-2.927L631.613,343.391L631.613,343.391z M630.811,340.885l-1.368-4.295l-1.371,4.295H630.811z
		 M642.729,336.105h-3.008v9.122h-2.673v-9.122h-3.008v-2.572h8.688V336.105L642.729,336.105L642.729,336.105z M642.313,339.381
		c0-3.441,2.56-6.082,6.082-6.082c2.123,0,3.994,1.053,5.015,2.707l-2.308,1.336c-0.518-0.901-1.52-1.438-2.707-1.438
		c-2.069,0-3.407,1.389-3.407,3.478c0,2.088,1.338,3.476,3.407,3.476c1.188,0,2.207-0.533,2.707-1.438l2.308,1.337
		c-1.004,1.654-2.873,2.707-5.015,2.707C644.869,345.463,642.313,342.822,642.313,339.381L642.313,339.381z M663.27,333.531v11.695
		h-2.674v-4.646h-3.676v4.646h-2.672v-11.695h2.672v4.479h3.676v-4.479H663.27L663.27,333.531z M675.22,339.381
		c0,3.309-2.455,5.848-5.68,5.848h-4.681v-11.694h4.681C672.765,333.531,675.22,336.072,675.22,339.381z M672.646,339.381
		c0-2.005-1.271-3.274-3.106-3.274h-2.005v6.551h2.005C671.378,342.655,672.646,341.386,672.646,339.381z M675.809,339.381
		c0-3.441,2.724-6.082,6.082-6.082c3.357,0,6.082,2.641,6.082,6.082c0,3.439-2.725,6.082-6.082,6.082
		C678.531,345.463,675.809,342.822,675.809,339.381z M685.3,339.381c0-2.089-1.504-3.478-3.408-3.478
		c-1.903,0-3.407,1.389-3.407,3.478c0,2.088,1.504,3.476,3.407,3.476C683.796,342.855,685.3,341.469,685.3,339.381z
		 M700.641,339.715c0,3.575-2.487,5.748-5.764,5.748c-3.677,0-6.316-2.707-6.316-6.064c0-3.393,2.691-6.1,6.134-6.1
		c2.237,0,4.127,1.104,5.112,2.673l-2.271,1.305c-0.483-0.77-1.536-1.369-2.856-1.369c-1.974,0-3.44,1.452-3.44,3.51
		c0,1.986,1.401,3.439,3.677,3.439c1.555,0,2.571-0.686,2.989-1.805h-3.125v-2.34h5.864v1.003H700.641L700.641,339.715z
		 M631.018,363.336h-2.672v-6.801l-3.024,4.963h-0.302l-3.022-4.963v6.801h-2.674V351.64h2.674l3.177,5.196l3.174-5.196h2.674
		v11.696H631.018L631.018,363.336z M632.109,357.488c0-3.44,2.726-6.081,6.082-6.081s6.082,2.641,6.082,6.081
		s-2.726,6.082-6.082,6.082S632.109,360.93,632.109,357.488z M641.6,357.488c0-2.089-1.504-3.477-3.407-3.477
		c-1.904,0-3.408,1.388-3.408,3.477c0,2.09,1.504,3.477,3.408,3.477C640.096,360.964,641.6,359.576,641.6,357.488z M654.554,351.64
		v11.696h-2.004l-4.513-6.352v6.352h-2.674V351.64h2.006l4.511,6.353v-6.353H654.554L654.554,351.64z M663.999,354.213h-3.011v9.123
		h-2.672v-9.123h-3.009v-2.573h8.688v2.573H663.999z M673.775,351.64v11.696h-2.675v-4.646h-3.676v4.646h-2.674V351.64h2.674v4.479
		h3.676v-4.479H673.775L673.775,351.64z M682.216,360.763v2.573h-6.851V351.64h2.675v9.123H682.216L682.216,360.763z
		 M687.063,358.842v4.494h-2.672v-4.494l-3.928-7.202h3.041l2.223,4.513l2.224-4.513h3.041L687.063,358.842L687.063,358.842z
		 M595.388,378.787l2.308-1.337c0.418,0.969,1.138,1.618,2.455,1.618c1.271,0,1.588-0.501,1.588-0.95
		c0-0.72-0.668-1.003-2.424-1.487c-1.735-0.484-3.438-1.319-3.438-3.561c0-2.256,1.901-3.56,3.926-3.56
		c1.922,0,3.427,0.919,4.277,2.641l-2.257,1.319c-0.399-0.836-0.95-1.354-2.021-1.354c-0.836,0-1.254,0.418-1.254,0.886
		c0,0.534,0.285,0.9,2.104,1.453c1.771,0.535,3.761,1.151,3.761,3.626c0,2.256-1.807,3.593-4.347,3.593
		C597.609,381.678,596.04,380.508,595.388,378.787L595.388,378.787z M605.249,377.667v-7.92h2.674v7.687
		c0,0.887,0.418,1.638,1.838,1.638s1.838-0.751,1.838-1.638v-7.687h2.675v7.92c0,2.507-1.938,4.011-4.513,4.011
		C607.188,381.678,605.249,380.174,605.249,377.667L605.249,377.667z M624.468,378.019c0,2.071-1.688,3.426-3.774,3.426h-4.912
		V369.75h4.578c2.037,0,3.69,1.318,3.69,3.342c0,0.97-0.385,1.738-1.021,2.289C623.898,375.93,624.468,376.832,624.468,378.019
		L624.468,378.019z M618.451,372.254v2.071h1.904c0.603,0,1.021-0.437,1.021-1.035c0-0.602-0.4-1.036-1.021-1.036H618.451z
		 M621.794,377.817c0-0.649-0.437-1.118-1.104-1.118h-2.238v2.238h2.238C621.359,378.938,621.794,378.47,621.794,377.817
		L621.794,377.817z M624.638,378.787l2.308-1.338c0.418,0.97,1.138,1.619,2.455,1.619c1.271,0,1.588-0.501,1.588-0.95
		c0-0.72-0.668-1.003-2.424-1.487c-1.735-0.484-3.438-1.319-3.438-3.561c0-2.256,1.901-3.56,3.926-3.56
		c1.922,0,3.427,0.919,4.277,2.641l-2.257,1.319c-0.399-0.836-0.95-1.354-2.021-1.354c-0.836,0-1.254,0.418-1.254,0.886
		c0,0.534,0.285,0.9,2.104,1.453c1.771,0.533,3.761,1.151,3.761,3.626c0,2.256-1.807,3.593-4.347,3.593
		C626.859,381.678,625.29,380.508,624.638,378.787L624.638,378.787z M633.997,375.596c0-3.441,2.557-6.082,6.082-6.082
		c2.122,0,3.991,1.054,5.014,2.707l-2.308,1.336c-0.521-0.9-1.521-1.437-2.706-1.437c-2.07,0-3.408,1.387-3.408,3.476
		c0,2.088,1.338,3.477,3.408,3.477c1.188,0,2.206-0.533,2.706-1.438l2.308,1.337c-1.004,1.654-2.875,2.707-5.014,2.707
		C636.554,381.678,633.997,379.037,633.997,375.596L633.997,375.596z M649.874,377.601h-1.271v3.844h-2.675V369.75h4.679
		c2.209-0.007,4.006,1.777,4.013,3.986c0,0.009,0,0.017,0,0.023c0,1.438-0.869,2.74-2.156,3.393l2.49,4.295h-2.873L649.874,377.601
		L649.874,377.601z M648.604,375.262h2.007c0.733,0,1.336-0.651,1.336-1.504c0-0.854-0.603-1.504-1.336-1.504h-2.007V375.262z
		 M658.468,369.747v11.694h-2.674v-11.694H658.468z M668.577,373.758c0,2.223-1.787,4.01-4.095,4.01h-1.754v3.677h-2.675V369.75
		h4.429C666.79,369.747,668.577,371.535,668.577,373.758z M665.902,373.758c0-0.854-0.603-1.504-1.42-1.504h-1.755v3.008h1.755
		C665.302,375.262,665.902,374.609,665.902,373.758z M677.184,372.32h-3.008v9.123h-2.672v-9.123h-3.008v-2.571h8.688V372.32z
		 M680.613,369.747v11.694h-2.674v-11.694H680.613z M681.702,375.596c0-3.441,2.723-6.082,6.079-6.082
		c3.358,0,6.082,2.641,6.082,6.082s-2.724,6.082-6.082,6.082C684.425,381.678,681.702,379.037,681.702,375.596z M691.189,375.596
		c0-2.089-1.502-3.476-3.408-3.476c-1.901,0-3.405,1.387-3.405,3.476c0,2.088,1.504,3.477,3.405,3.477
		C689.688,379.07,691.189,377.684,691.189,375.596z M704.145,369.747v11.694h-2.006l-4.512-6.351v6.351h-2.672v-11.694h2.004
		l4.512,6.35v-6.35H704.145L704.145,369.747z M704.984,378.787l2.308-1.338c0.418,0.97,1.135,1.619,2.455,1.619
		c1.27,0,1.588-0.501,1.588-0.95c0-0.72-0.668-1.003-2.424-1.487c-1.736-0.484-3.441-1.319-3.441-3.561
		c0-2.256,1.904-3.56,3.929-3.56c1.92,0,3.425,0.919,4.276,2.641l-2.256,1.319c-0.402-0.836-0.953-1.354-2.021-1.354
		c-0.836,0-1.255,0.418-1.255,0.886c0,0.534,0.283,0.9,2.105,1.453c1.77,0.533,3.76,1.151,3.76,3.626
		c0,2.256-1.805,3.593-4.346,3.593C707.206,381.678,705.636,380.508,704.984,378.787L704.984,378.787z"/>
	<path fill="#706DCB" d="M453.361,342.539v2.571h-7.353v-11.694h7.269v2.572h-4.595v1.938h4.177v2.54h-4.177v2.07L453.361,342.539z
		 M453.866,342.456l2.307-1.337c0.418,0.97,1.135,1.619,2.455,1.619c1.271,0,1.588-0.502,1.588-0.951
		c0-0.72-0.668-1.002-2.424-1.486c-1.736-0.484-3.441-1.319-3.441-3.56c0-2.258,1.904-3.561,3.93-3.561
		c1.922,0,3.426,0.919,4.275,2.641l-2.256,1.319c-0.401-0.836-0.953-1.354-2.021-1.354c-0.836,0-1.255,0.418-1.255,0.887
		c0,0.533,0.282,0.901,2.104,1.452c1.771,0.535,3.76,1.152,3.76,3.627c0,2.256-1.805,3.593-4.346,3.593
		C456.089,345.348,454.518,344.178,453.866,342.456L453.866,342.456z M463.227,339.266c0-3.44,2.559-6.082,6.082-6.082
		c2.121,0,3.992,1.053,5.014,2.707l-2.307,1.336c-0.52-0.9-1.521-1.438-2.707-1.438c-2.07,0-3.407,1.388-3.407,3.477
		c0,2.088,1.337,3.477,3.407,3.477c1.188,0,2.205-0.534,2.707-1.438l2.307,1.337c-1.003,1.654-2.873,2.707-5.014,2.707
		C465.784,345.348,463.227,342.706,463.227,339.266L463.227,339.266z M479.104,341.271h-1.27v3.843h-2.674v-11.694h4.678
		c2.209-0.005,4.004,1.781,4.01,3.99c0,0.007,0,0.015,0,0.021c0,1.438-0.866,2.739-2.153,3.392l2.489,4.295h-2.875L479.104,341.271
		L479.104,341.271z M477.835,338.932h2.004c0.736,0,1.338-0.652,1.338-1.504c0-0.854-0.602-1.504-1.338-1.504h-2.004V338.932z
		 M484.354,339.266c0-3.44,2.727-6.082,6.082-6.082c3.357,0,6.082,2.642,6.082,6.082s-2.725,6.082-6.082,6.082
		C487.079,345.348,484.354,342.706,484.354,339.266z M493.845,339.266c0-2.089-1.504-3.477-3.407-3.477s-3.407,1.388-3.407,3.477
		c0,2.088,1.504,3.477,3.407,3.477C492.341,342.74,493.845,341.354,493.845,339.266z M496.27,333.416h2.811l2.021,8.188l2.255-8.188
		h2.175l2.256,8.188l2.021-8.188h2.809l-3.227,11.695h-3.041l-1.902-6.898l-1.904,6.898H499.5L496.27,333.416L496.27,333.416z
		 M465.105,354.098v2.256h4.345v2.573h-4.345v4.294h-2.675v-11.696h7.104v2.573H465.105L465.105,354.098z M478.057,360.648v2.573
		h-7.352v-11.696h7.268v2.573h-4.594v1.938h4.176v2.54h-4.176v2.069L478.057,360.648L478.057,360.648z M486.499,360.648v2.573
		h-7.354v-11.696h7.271v2.573h-4.596v1.938h4.178v2.54h-4.178v2.069L486.499,360.648L486.499,360.648z M487.003,360.565l2.307-1.337
		c0.418,0.969,1.137,1.62,2.455,1.62c1.271,0,1.588-0.501,1.588-0.952c0-0.718-0.668-1.002-2.424-1.485
		c-1.734-0.483-3.438-1.318-3.438-3.561c0-2.256,1.9-3.56,3.926-3.56c1.922,0,3.426,0.92,4.277,2.641l-2.257,1.32
		c-0.399-0.837-0.952-1.354-2.021-1.354c-0.836,0-1.254,0.418-1.254,0.888c0,0.532,0.283,0.9,2.104,1.451
		c1.771,0.535,3.762,1.153,3.762,3.626c0,2.258-1.807,3.595-4.348,3.595C489.225,363.454,487.655,362.284,487.003,360.565
		L487.003,360.565z"/>
	<path opacity="0.5" fill="#FFFFFF" enable-background="new    " d="M126.381,300.537l-44.345-14.017h88.69L126.381,300.537z"/>
	<path opacity="0.5" fill="#FFFFFF" enable-background="new    " d="M302.487,283.889l-44.345-14.016h88.69L302.487,283.889z"/>
	<path opacity="0.5" fill="#FFFFFF" enable-background="new    " d="M479.146,183.997l-44.345-14.017h88.689L479.146,183.997z"/>
	<path opacity="0.5" fill="#FFFFFF" enable-background="new    " d="M654.683,167.435l-44.344-14.016h88.689L654.683,167.435z"/>
	<path opacity="0.2" enable-background="new    " d="M302.486,303.171h-44.344v-33.298l44.344,14.016V303.171z"/>
	<path opacity="0.2" enable-background="new    " d="M126.366,303.172H82.022v-16.65l44.344,14.017V303.172z"/>
	<path opacity="0.2" enable-background="new    " d="M479.311,303.171h-44.344V170.23l44.344,14.017V303.171z"/>
	<path opacity="0.2" enable-background="new    " d="M654.669,303.171h-44.344V153.419l44.344,14.016V303.171z"/>
</g>
</svg>
