<?xml version="1.0" encoding="utf-8"?>
<!-- Generator: Adobe Illustrator 16.0.0, SVG Export Plug-In . SVG Version: 6.00 Build 0)  -->
<!DOCTYPE svg PUBLIC "-//W3C//DTD SVG 1.1//EN" "http://www.w3.org/Graphics/SVG/1.1/DTD/svg11.dtd">
<svg version="1.1" id="Layer_1" xmlns="http://www.w3.org/2000/svg" xmlns:xlink="http://www.w3.org/1999/xlink" x="0px" y="0px"
	 width="52.834px" height="76.081px" viewBox="150.166 21.982 52.834 76.081" enable-background="new 150.166 21.982 52.834 76.081"
	 xml:space="preserve">
<g>
	<path fill="#EAEAEA" d="M180.95,21.982h-3.686h-0.099l-27,27v0.099v3.389v45.592H203V21.982H180.95z M175.878,30.542v16.856
		h-16.855L175.878,30.542z M197.928,92.991h-42.689v-40.52h25.712V27.055h16.978V92.991z"/>
	<g>
		<path fill="#EAEAEA" d="M170.545,71.778v2.56c0,3.151-1.518,4.867-4.614,4.867h-1.462v7.398h-3.094V66.911h4.556
			C169.028,66.911,170.545,68.628,170.545,71.778z M164.469,69.725v6.667h1.462c0.985,0,1.521-0.45,1.521-1.856v-2.953
			c0-1.407-0.535-1.857-1.521-1.857H164.469z"/>
		<path fill="#EAEAEA" d="M172.125,66.911h4.894c3.095,0,4.615,1.717,4.615,4.867v9.959c0,3.15-1.521,4.866-4.615,4.866h-4.894
			V66.911z M175.219,69.725v14.066h1.744c0.985,0,1.576-0.507,1.576-1.913v-10.24c0-1.406-0.591-1.913-1.576-1.913H175.219z"/>
		<path fill="#EAEAEA" d="M186.701,75.66h3.993v2.813h-3.993v8.13h-3.096V66.911h8.188v2.813h-5.092V75.66z"/>
	</g>
</g>
</svg>
