<?xml version="1.0" encoding="utf-8"?>
<!-- Generator: Adobe Illustrator 16.0.0, SVG Export Plug-In . SVG Version: 6.00 Build 0)  -->
<!DOCTYPE svg PUBLIC "-//W3C//DTD SVG 1.1//EN" "http://www.w3.org/Graphics/SVG/1.1/DTD/svg11.dtd">
<svg version="1.1" id="Layer_1" xmlns="http://www.w3.org/2000/svg" xmlns:xlink="http://www.w3.org/1999/xlink" x="0px" y="0px"
	 width="138.195px" height="138.197px" viewBox="0 0 138.195 138.197" enable-background="new 0 0 138.195 138.197"
	 xml:space="preserve">
<g>
	<g>
		
			<linearGradient id="SVGID_1_" gradientUnits="userSpaceOnUse" x1="-534.9739" y1="-765.6729" x2="-396.7776" y2="-765.6729" gradientTransform="matrix(-1 0 0 -0.8257 -396.7778 -563.1167)">
			<stop  offset="0" style="stop-color:#4B48BF"/>
			<stop  offset="1" style="stop-color:#A14B8A"/>
		</linearGradient>
		<ellipse opacity="0.4" fill="url(#SVGID_1_)" enable-background="new    " cx="69.098" cy="69.099" rx="69.098" ry="57.051"/>
		
			<linearGradient id="SVGID_2_" gradientUnits="userSpaceOnUse" x1="242.2888" y1="175.667" x2="380.4871" y2="175.667" gradientTransform="matrix(0 1 0.8257 0 -75.95 -242.2888)">
			<stop  offset="0" style="stop-color:#4B48BF"/>
			<stop  offset="1" style="stop-color:#A14B8A"/>
		</linearGradient>
		<ellipse opacity="0.4" fill="url(#SVGID_2_)" enable-background="new    " cx="69.098" cy="69.099" rx="57.051" ry="69.099"/>
		
			<linearGradient id="SVGID_3_" gradientUnits="userSpaceOnUse" x1="-214.0969" y1="568.1045" x2="-99.8186" y2="568.1045" gradientTransform="matrix(1 0 0 1 226.0557 -499.0068)">
			<stop  offset="0" style="stop-color:#4B48BF"/>
			<stop  offset="1" style="stop-color:#A14B8A"/>
		</linearGradient>
		<circle opacity="0.6" fill="url(#SVGID_3_)" enable-background="new    " cx="69.098" cy="69.098" r="57.139"/>
		
			<linearGradient id="SVGID_4_" gradientUnits="userSpaceOnUse" x1="-202.0168" y1="568.1045" x2="-111.8987" y2="568.1045" gradientTransform="matrix(1 0 0 1 226.0557 -499.0068)">
			<stop  offset="0" style="stop-color:#4B48BF"/>
			<stop  offset="1" style="stop-color:#A14B8A"/>
		</linearGradient>
		<circle opacity="0.8" fill="url(#SVGID_4_)" enable-background="new    " cx="69.098" cy="69.098" r="45.059"/>
	</g>
</g>
<g>
	<g>
		<path fill-rule="evenodd" clip-rule="evenodd" fill="#FFFFFF" d="M69.322,99.927c-0.639,0-1.277,0-1.916,0
			c-0.288-0.035-0.576-0.072-0.864-0.104c-1.42-0.158-2.804-0.467-4.132-1.002c-0.979-0.395-1.892-0.902-2.688-1.604
			c-0.856-0.758-1.286-1.705-1.286-2.848c0-11.887,0-23.771,0-35.657c0-0.091,0.001-0.183-0.001-0.273
			c-0.018-0.989,0.352-1.812,1.065-2.485c0.47-0.445,1.022-0.76,1.612-1.015c4.969-2.149,9.939-4.298,14.909-6.446
			c2.952-1.277,5.908-2.546,8.856-3.835c0.835-0.365,1.672,0.019,2.038,0.74c0.151,0.3,0.217,0.617,0.217,0.951
			c0,1.259,0,2.518-0.001,3.776c0,0.057-0.018,0.115-0.03,0.189c-0.099-0.037-0.175-0.063-0.249-0.095
			c-0.905-0.386-1.813-0.768-2.714-1.163c-0.157-0.069-0.281-0.064-0.436,0.003c-7.143,3.094-14.286,6.185-21.43,9.276
			c-0.063,0.028-0.121,0.067-0.2,0.112c0.063,0.049,0.102,0.088,0.147,0.113c0.338,0.18,0.667,0.381,1.018,0.529
			c1.724,0.725,3.527,1.034,5.392,0.989c1.148-0.027,2.269-0.215,3.329-0.675c6.148-2.663,12.295-5.326,18.441-7.99
			c1.689-0.731,3.379-1.461,5.067-2.197c0.274-0.12,0.554-0.181,0.851-0.146c0.38,0.046,0.679,0.236,0.947,0.5
			c0.227,0.222,0.206,0.488,0.206,0.762C97.47,62.784,97.47,75.235,97.47,87.687c0,0.092,0.015,0.186-0.004,0.273
			c-0.024,0.111-0.055,0.23-0.118,0.322c-0.177,0.252-0.428,0.414-0.71,0.535c-7.694,3.334-15.39,6.666-23.08,10.008
			c-1.171,0.51-2.373,0.879-3.644,1.021C69.717,99.868,69.519,99.899,69.322,99.927z"/>
		<path fill-rule="evenodd" clip-rule="evenodd" fill="#FFFFFF" d="M70.088,36.269c0.03,0.018,0.058,0.045,0.09,0.053
			c0.721,0.174,1.259,0.875,1.272,1.749c0.012,0.729,0.003,1.459,0.003,2.189c0.001,0.548,0.001,1.095,0,1.643
			c0,0.054-0.004,0.108-0.009,0.198c-0.1-0.036-0.183-0.061-0.262-0.095c-0.897-0.383-1.796-0.761-2.688-1.157
			c-0.188-0.083-0.331-0.071-0.513,0.008c-7.116,3.086-14.234,6.167-21.353,9.25c-0.072,0.031-0.142,0.068-0.258,0.125
			c0.197,0.121,0.353,0.227,0.517,0.316c0.725,0.395,1.497,0.668,2.294,0.874c1.207,0.311,2.433,0.473,3.681,0.443
			c1.279-0.03,2.507-0.278,3.69-0.792c7.691-3.343,15.388-6.672,23.081-10.006c0.286-0.124,0.571-0.25,0.892-0.229
			c0.495,0.033,0.889,0.254,1.173,0.661c0.207,0.298,0.318,0.63,0.334,1.014c-0.085,0.04-0.164,0.08-0.245,0.115
			c-5.67,2.459-11.339,4.919-17.009,7.378c-1.639,0.711-3.278,1.421-4.918,2.13c-0.852,0.368-1.642,0.834-2.334,1.456
			c-1.429,1.284-2.163,2.886-2.163,4.81c-0.002,10.874-0.001,21.748-0.001,32.621c0,0.127,0,0.254,0,0.414
			c-0.341,0.057-0.668,0.125-0.999,0.164c-2.806,0.328-5.506-0.088-8.104-1.188c-0.793-0.336-1.52-0.789-2.173-1.355
			c-0.691-0.602-1.15-1.334-1.275-2.258c-0.013-0.096-0.061-0.188-0.092-0.281c0-12.242,0-24.485,0-36.728
			c0.032-0.074,0.08-0.146,0.094-0.223c0.174-0.929,0.687-1.632,1.438-2.182c0.445-0.326,0.938-0.556,1.442-0.773
			c7.209-3.118,14.417-6.24,21.625-9.36c0.759-0.328,1.519-0.654,2.277-0.981C69.76,36.269,69.924,36.269,70.088,36.269z"/>
	</g>
</g>
</svg>
