<?xml version="1.0" encoding="utf-8"?>
<!-- Generator: Adobe Illustrator 16.0.0, SVG Export Plug-In . SVG Version: 6.00 Build 0)  -->
<!DOCTYPE svg PUBLIC "-//W3C//DTD SVG 1.1//EN" "http://www.w3.org/Graphics/SVG/1.1/DTD/svg11.dtd">
<svg version="1.1" id="Layer_1" xmlns="http://www.w3.org/2000/svg" xmlns:xlink="http://www.w3.org/1999/xlink" x="0px" y="0px"
	 width="159.801px" height="203.711px" viewBox="0 0 159.801 203.711" enable-background="new 0 0 159.801 203.711"
	 xml:space="preserve">
<g>
	
		<linearGradient id="SVGID_1_" gradientUnits="userSpaceOnUse" x1="-372" y1="6.7188" x2="-217.0552" y2="6.7188" gradientTransform="matrix(1 0 0 -1 372 132.9561)">
		<stop  offset="0" style="stop-color:#9B4B8D"/>
		<stop  offset="1" style="stop-color:#A14B8A"/>
	</linearGradient>
	<path fill="url(#SVGID_1_)" d="M0,126.236c0-42.783,34.685-77.472,77.471-77.472c42.787,0,77.474,34.688,77.474,77.472
		c0,42.787-34.688,77.475-77.474,77.475C34.685,203.711,0,169.023,0,126.236z"/>
	<path fill="#FFFFFF" d="M56.139,106.832c0.085,0.803,0.171,1.582,0.253,2.365c0.005,0.078,0.031,0.156,0.045,0.236
		c0.025,0.152-0.006,0.25-0.125,0.377c-0.424,0.447-0.868,0.896-1.212,1.4c-0.458,0.684-0.345,1.008,0.393,1.42
		c0.675,0.381,1.421,0.564,2.178,0.678c0.837,0.117,1.68,0.193,2.534,0.291c-2.693-6.773-2.209-13.176,2.067-19.094
		c2.966-4.109,7.052-6.582,12.057-7.428c10.776-1.82,20.83,5.813,21.987,16.773c0.444-0.307,0.876-0.588,1.29-0.895
		c0.771-0.572,1.512-1.176,2.073-1.963c0.146-0.201,0.256-0.42,0.36-0.644c0.131-0.289,0.074-0.545-0.17-0.764
		c-0.457-0.398-1.021-0.656-1.621-0.742c-0.615-0.086-0.899-0.393-1.088-0.963c-0.201-0.617-0.522-1.195-0.813-1.836
		c0.296,0.031,0.577,0.057,0.854,0.098c1.164,0.175,2.313,0.418,3.364,0.979c0.996,0.526,1.735,1.264,1.937,2.424
		c0.14,0.824-0.071,1.59-0.473,2.309c-0.574,1.019-1.398,1.816-2.298,2.542c-2.004,1.614-4.253,2.828-6.567,3.935
		c-2.861,1.371-5.822,2.489-8.838,3.476c-3.728,1.215-7.527,2.199-11.375,2.948c-2.317,0.447-4.641,0.832-6.989,1.022
		c-1.688,0.139-3.38,0.215-5.073,0.226c-1.868,0.013-3.727-0.153-5.515-0.767c-0.828-0.282-1.603-0.663-2.187-1.34
		c-0.922-1.063-0.999-2.239-0.436-3.483c0.396-0.879,1.02-1.597,1.726-2.233c0.407-0.378,0.845-0.716,1.275-1.063
		C55.877,107.014,56.011,106.925,56.139,106.832z M74.741,104.498h5.531c-0.119-2.082-0.239-4.131-0.358-6.207h-3.459
		c-0.39,0-0.78-0.008-1.173,0.006c-0.077,0.006-0.208,0.096-0.21,0.154c-0.084,0.841-0.157,1.683-0.216,2.526
		c-0.049,0.671-0.087,1.343-0.114,2.015C74.729,103.486,74.741,103.988,74.741,104.498z M60.996,104.506h4.495
		c0.088-2.104,0.381-4.164,0.919-6.215h-0.293c-1.034,0-2.064,0.006-3.092-0.006c-0.194-0.002-0.291,0.057-0.373,0.225
		c-0.566,1.178-1.011,2.398-1.27,3.678C61.229,102.941,61.127,103.709,60.996,104.506L60.996,104.506z M93.895,104.506
		c0-0.09,0.002-0.154-0.003-0.219c-0.175-2.043-0.731-3.98-1.617-5.824c-0.077-0.154-0.183-0.174-0.33-0.174
		c-1.022,0.006-2.036,0.004-3.062,0.004h-0.355c0.555,2.057,0.826,4.119,0.938,6.215C90.956,104.506,92.409,104.506,93.895,104.506z
		 M61.039,106.975c0.023,0.209,0.037,0.377,0.054,0.549c0.2,1.883,0.729,3.717,1.563,5.418c0.077,0.158,0.162,0.226,0.35,0.226
		c1.036-0.015,2.078-0.004,3.118-0.004c0.085,0,0.17-0.015,0.285-0.021c-0.544-2.041-0.82-4.091-0.92-6.166
		C63.999,106.975,62.544,106.975,61.039,106.975z M82.362,98.304c0.117,2.078,0.23,4.139,0.348,6.201h4.308
		c-0.023-0.382-0.052-0.765-0.083-1.146c-0.131-1.641-0.422-3.265-0.868-4.849c-0.048-0.174-0.131-0.225-0.308-0.225
		c-1.068,0.008-2.133,0.006-3.197,0.006C82.493,98.293,82.418,98.302,82.362,98.304z M72.583,98.308
		c-0.042-0.006-0.088-0.016-0.131-0.016c-1.102-0.002-2.204,0-3.308-0.008c-0.188-0.002-0.225,0.094-0.262,0.237
		c-0.425,1.487-0.708,3.011-0.845,4.552c-0.046,0.469-0.077,0.946-0.111,1.426h4.313C72.352,102.427,72.469,100.373,72.583,98.308z
		 M67.965,106.975c-0.1,1.114,0.546,5.133,0.968,6.01c1.196-0.2,2.4-0.405,3.584-0.61c-0.088-1.83-0.179-3.619-0.271-5.397
		C70.815,106.975,69.397,106.975,67.965,106.975z M74.69,106.977c0.08,1.647,0.156,3.252,0.239,4.914
		c1.668-0.429,3.334-0.865,4.999-1.308c0.071-0.021,0.165-0.146,0.168-0.229c0.048-1.016,0.085-2.031,0.123-3.051
		c0-0.104-0.012-0.211-0.017-0.328L74.69,106.977z M77.545,89.3l-0.143,0.014c-1.261,1.984-1.58,4.263-2.016,6.521h4.157
		c-0.043-0.258-0.077-0.49-0.114-0.717c-0.291-1.597-0.621-3.183-1.27-4.677C77.992,90.048,77.747,89.683,77.545,89.3L77.545,89.3z
		 M80.771,90.312c0.601,1.81,0.957,3.662,1.244,5.529h3.086C84.084,93.632,82.818,91.672,80.771,90.312z M72.93,95.845
		c0.291-1.871,0.655-3.729,1.242-5.537c-2.053,1.365-3.314,3.332-4.325,5.537H72.93z M82.577,109.768c0.063,0,0.094,0.01,0.119,0
		c1.367-0.466,2.73-0.933,4.098-1.399c0.06-0.021,0.133-0.091,0.137-0.142c0.037-0.41,0.061-0.826,0.085-1.237h-4.339
		C82.644,107.927,82.61,108.84,82.577,109.768z M64.281,95.863c0.982,0,1.893,0.002,2.801-0.011c0.063,0,0.154-0.104,0.188-0.182
		c0.39-0.803,0.732-1.625,1.147-2.412c0.373-0.695,0.82-1.344,1.247-2.041C67.547,92.375,65.779,93.899,64.281,95.863z
		 M85.29,91.226c0.44,0.717,0.901,1.41,1.291,2.14c0.396,0.733,0.724,1.51,1.07,2.271c0.074,0.162,0.15,0.234,0.34,0.23
		c0.803-0.013,1.605-0.007,2.405-0.007c0.067,0,0.138-0.012,0.253-0.022C89.159,93.902,87.398,92.367,85.29,91.226z M89.465,107.307
		c0.242-0.101,0.479-0.199,0.777-0.317h-0.767c-0.013,0.092-0.022,0.161-0.031,0.235C89.443,107.238,89.454,107.256,89.465,107.307z
		 M75.518,116.434c0.436,1.981,0.746,3.979,1.928,5.765c0.137-0.185,0.256-0.308,0.341-0.447c0.595-1.006,0.92-2.121,1.185-3.246
		c0.216-0.92,0.378-1.854,0.566-2.778c0.003-0.033-0.008-0.065-0.017-0.119c-0.12-0.015-0.236-0.021-0.35-0.03
		c3.208-0.896,6.38-1.906,9.535-3.123c-0.06,0.26-0.104,0.467-0.154,0.688c0.089,0.008,0.156,0.021,0.226,0.021
		c1.062,0,2.118-0.002,3.177,0.002c0.168,0,0.273-0.045,0.334-0.205c0.293-0.742,0.588-1.485,0.899-2.226
		c0.053-0.137,0.148-0.252,0.272-0.327c0.797-0.433,1.601-0.839,2.4-1.255c0.063-0.03,0.125-0.062,0.239-0.112
		c-0.413,2.406-1.302,4.706-2.614,6.765c-2.289,3.586-5.42,6.168-9.408,7.655c-8.042,2.983-16.253,0.076-20.801-5.267
		c0.387-0.022,0.757-0.047,1.119-0.077c0.618-0.048,1.233-0.099,1.851-0.136c0.118-0.004,0.233,0.033,0.328,0.104
		c0.931,0.81,1.93,1.519,3.015,2.108c0.023,0.009,0.048,0.015,0.071,0.024c-0.509-0.82-1.02-1.64-1.532-2.459
		c0.382-0.061,0.701-0.108,1.02-0.159c0.45-0.063,0.899-0.125,1.349-0.209c0.177-0.031,0.276,0.008,0.373,0.168
		c0.564,0.955,1.221,1.836,2.033,2.594c0.39,0.365,0.817,0.688,1.227,1.027l0.065-0.052c-0.103-0.332-0.228-0.66-0.31-0.998
		c-0.242-1.002-0.47-2.004-0.695-3.006c-0.014-0.065,0.048-0.209,0.091-0.22C74.026,116.74,74.772,116.588,75.518,116.434z
		 M80.771,121.184c2.054-1.412,3.331-3.369,4.33-5.58h-3.065c-0.178,0.944-0.328,1.879-0.533,2.799
		C81.295,119.322,81.027,120.221,80.771,121.184z M90.665,115.59h-0.242c-0.809,0-1.621,0.002-2.432-0.006
		c-0.188-0.002-0.271,0.063-0.336,0.23c-0.489,1.274-1.117,2.491-1.873,3.627c-0.082,0.133-0.168,0.263-0.256,0.391
		c-0.085,0.125-0.179,0.244-0.271,0.367C87.384,119.093,89.234,117.517,90.665,115.59z"/>
	
		<linearGradient id="SVGID_2_" gradientUnits="userSpaceOnUse" x1="958.1099" y1="1257.543" x2="1108.4106" y2="1257.543" gradientTransform="matrix(6.123234e-017 1 1 -6.123234e-017 -1180.0747 -908.606)">
		<stop  offset="0" style="stop-color:#000000;stop-opacity:0"/>
		<stop  offset="1" style="stop-color:#000000"/>
	</linearGradient>
	<path opacity="0.2" fill="url(#SVGID_2_)" enable-background="new    " d="M152.618,124.656c0-41.504-33.647-75.152-75.15-75.152
		c-41.504,0-75.149,33.648-75.149,75.152c0,41.504,33.645,75.148,75.149,75.148C118.97,199.807,152.618,166.16,152.618,124.656z
		 M13.792,124.656c0-35.168,28.509-63.681,63.676-63.681c35.171,0,63.678,28.513,63.678,63.681
		c0,35.168-28.507,63.678-63.678,63.678C42.301,188.334,13.792,159.824,13.792,124.656z"/>
	
		<linearGradient id="SVGID_3_" gradientUnits="userSpaceOnUse" x1="-1600.145" y1="1739.6934" x2="-1538.8945" y2="1739.6934" gradientTransform="matrix(6.123234e-017 -1 -1 -6.123234e-017 1817.4985 -1478.5024)">
		<stop  offset="0" style="stop-color:#FFFFFF;stop-opacity:0"/>
		<stop  offset="1" style="stop-color:#FFFFFF"/>
	</linearGradient>
	<path opacity="0.5" fill="url(#SVGID_3_)" enable-background="new    " d="M77.804,60.392c-33.826,0-61.25,27.422-61.25,61.25
		h122.501C139.055,87.813,111.635,60.392,77.804,60.392L77.804,60.392z"/>
	<g>
		<circle fill="#333333" cx="153.357" cy="6.445" r="6.445"/>
		<path fill="#333333" d="M78.678,39.205H76.48V17.307c0-6.662,5.42-12.082,12.08-12.082h64.8v2.197h-64.8
			c-5.449,0-9.882,4.434-9.882,9.885V39.205z"/>
		<path fill="#333333" d="M77.662,37.965l-5.952-5.952l-1.551,1.55l5.951,5.952l1.552,1.55l1.551-1.55l5.952-5.952l-1.553-1.55
			L77.662,37.965z"/>
	</g>
	<g>
		<g>
			<path fill="#FFFFFF" d="M17.554,145.938c0-3.681,2.734-6.504,6.504-6.504c2.269,0,4.271,1.126,5.36,2.895l-2.466,1.43
				c-0.554-0.965-1.626-1.537-2.895-1.537c-2.216,0-3.645,1.483-3.645,3.717s1.429,3.717,3.645,3.717
				c1.269,0,2.358-0.572,2.895-1.537l2.466,1.43c-1.072,1.769-3.073,2.895-5.36,2.895C20.288,152.441,17.554,149.618,17.554,145.938
				z"/>
			<path fill="#FFFFFF" d="M29.152,145.938c0-3.681,2.913-6.504,6.504-6.504s6.504,2.823,6.504,6.504s-2.913,6.504-6.504,6.504
				S29.152,149.618,29.152,145.938z M39.301,145.938c0-2.233-1.608-3.717-3.645-3.717s-3.645,1.483-3.645,3.717
				s1.608,3.717,3.645,3.717S39.301,148.171,39.301,145.938z"/>
			<path fill="#FFFFFF" d="M55.384,152.191h-2.859v-7.272l-3.234,5.307h-0.322l-3.234-5.307v7.272h-2.859v-12.508h2.859l3.395,5.558
				l3.395-5.558h2.859V152.191z"/>
			<path fill="#FFFFFF" d="M65.75,143.972c0,2.377-1.912,4.289-4.377,4.289h-1.876v3.931h-2.859v-12.508h4.735
				C63.838,139.684,65.75,141.596,65.75,143.972z M62.891,143.972c0-0.911-0.643-1.607-1.519-1.607h-1.876v3.216h1.876
				C62.248,145.58,62.891,144.884,62.891,143.972z"/>
			<path fill="#FFFFFF" d="M73.613,149.439v2.752h-7.326v-12.508h2.859v9.756H73.613z"/>
			<path fill="#FFFFFF" d="M81.833,149.439v2.752h-7.861v-12.508h7.773v2.752H76.83v2.072h4.467v2.716H76.83v2.216H81.833z"/>
			<path fill="#FFFFFF" d="M90.948,142.436h-3.217v9.756h-2.859v-9.756h-3.215v-2.752h9.291V142.436z"/>
			<path fill="#FFFFFF" d="M99.167,149.439v2.752h-7.861v-12.508h7.773v2.752h-4.914v2.072h4.467v2.716h-4.467v2.216H99.167z"/>
			<path fill="#FFFFFF" d="M109.711,139.684v12.508h-2.145l-4.824-6.79v6.79h-2.859v-12.508h2.145l4.824,6.79v-6.79H109.711z"/>
			<path fill="#FFFFFF" d="M118.825,149.439v2.752h-7.861v-12.508h7.773v2.752h-4.914v2.072h4.467v2.716h-4.467v2.216H118.825z"/>
			<path fill="#FFFFFF" d="M118.917,149.351l2.465-1.43c0.447,1.036,1.217,1.733,2.627,1.733c1.359,0,1.697-0.536,1.697-1.019
				c0-0.769-0.715-1.072-2.59-1.591c-1.859-0.518-3.682-1.411-3.682-3.806c0-2.412,2.037-3.806,4.199-3.806
				c2.055,0,3.664,0.982,4.574,2.823l-2.412,1.411c-0.428-0.893-1.018-1.447-2.162-1.447c-0.893,0-1.34,0.447-1.34,0.947
				c0,0.572,0.305,0.965,2.252,1.555c1.893,0.571,4.02,1.232,4.02,3.877c0,2.412-1.93,3.842-4.645,3.842
				C121.293,152.441,119.614,151.19,118.917,149.351z"/>
			<path fill="#FFFFFF" d="M128.12,149.351l2.465-1.43c0.447,1.036,1.217,1.733,2.627,1.733c1.359,0,1.697-0.536,1.697-1.019
				c0-0.769-0.715-1.072-2.59-1.591c-1.859-0.518-3.682-1.411-3.682-3.806c0-2.412,2.037-3.806,4.199-3.806
				c2.055,0,3.664,0.982,4.574,2.823l-2.412,1.411c-0.428-0.893-1.018-1.447-2.162-1.447c-0.893,0-1.34,0.447-1.34,0.947
				c0,0.572,0.305,0.965,2.252,1.555c1.893,0.571,4.02,1.232,4.02,3.877c0,2.412-1.93,3.842-4.645,3.842
				C130.497,152.441,128.817,151.19,128.12,149.351z"/>
		</g>
	</g>
</g>
</svg>
