<?xml version="1.0" encoding="utf-8"?>
<!-- Generator: Adobe Illustrator 16.0.0, SVG Export Plug-In . SVG Version: 6.00 Build 0)  -->
<!DOCTYPE svg PUBLIC "-//W3C//DTD SVG 1.1//EN" "http://www.w3.org/Graphics/SVG/1.1/DTD/svg11.dtd">
<svg version="1.1" id="Layer_1" xmlns="http://www.w3.org/2000/svg" xmlns:xlink="http://www.w3.org/1999/xlink" x="0px" y="0px"
	 width="159.691px" height="203.711px" viewBox="0 0 159.691 203.711" enable-background="new 0 0 159.691 203.711"
	 xml:space="preserve">
<g>
	
		<linearGradient id="SVGID_1_" gradientUnits="userSpaceOnUse" x1="-367.2556" y1="6.7188" x2="-212.3074" y2="6.7188" gradientTransform="matrix(1 0 0 -1 372 132.9561)">
		<stop  offset="0" style="stop-color:#9B4B8D"/>
		<stop  offset="1" style="stop-color:#A14B8A"/>
	</linearGradient>
	<path fill="url(#SVGID_1_)" d="M4.744,126.236c0-42.783,34.688-77.472,77.472-77.472c42.79,0,77.477,34.688,77.477,77.472
		c0,42.787-34.687,77.475-77.477,77.475C39.431,203.711,4.744,169.023,4.744,126.236L4.744,126.236z"/>
	<g>
		<path fill="#FFFFFF" d="M101.29,106.35c0.003,10.519-8.532,19.058-19.066,19.063c-10.529,0.008-19.063-8.511-19.082-19.043
			c-0.021-10.543,8.528-19.09,19.087-19.082C92.763,87.298,101.279,95.813,101.29,106.35L101.29,106.35z M67.3,106.348
			c0,8.229,6.696,14.897,14.952,14.887c8.189-0.008,14.876-6.688,14.873-14.86c-0.006-8.248-6.696-14.935-14.924-14.912
			C73.968,91.478,67.303,98.14,67.3,106.348z M79.827,86.162c0-0.119-0.012-0.248,0-0.373c0.063-0.947-0.098-1.707-0.837-2.496
			c-1.54-1.646-1.192-4.303,0.55-5.762c1.72-1.438,4.305-1.25,5.782,0.42c1.515,1.711,1.414,4.297-0.271,5.809
			c-0.348,0.316-0.479,0.617-0.456,1.059c0.031,0.457,0.006,0.921,0.006,1.345C82.996,86.162,81.438,86.162,79.827,86.162z
			 M82.221,83.104c1.311,0.001,2.375-1.058,2.382-2.368c-0.001-1.308-1.06-2.368-2.368-2.371c-1.309-0.02-2.386,1.024-2.405,2.333
			c0,0.002,0,0.004,0,0.006c-0.013,1.313,1.042,2.387,2.354,2.399C82.197,83.104,82.208,83.104,82.221,83.104z"/>
		<path fill="#FFFFFF" d="M93.609,89.588c0.602-0.596,1.14-1.139,1.689-1.662c0.404-0.377,0.884-0.377,1.284,0.016
			c1.26,1.242,2.511,2.494,3.752,3.755c0.392,0.396,0.389,0.879,0.014,1.278c-0.515,0.543-1.047,1.068-1.611,1.646
			C97.333,92.658,95.598,90.955,93.609,89.588z M75.822,93.761c0.148,0.211,0.316,0.41,0.452,0.629
			c1.731,2.84,3.469,5.688,5.188,8.535c0.153,0.259,0.313,0.375,0.636,0.369c1.359-0.024,2.509,0.847,2.892,2.142
			c0.39,1.348-0.152,2.792-1.333,3.551c-1.115,0.705-2.582,0.597-3.554-0.272c-1.033-0.918-1.352-2.42-0.706-3.66
			c0.218-0.418,0.208-0.737,0.053-1.155c-1.214-3.146-2.409-6.308-3.604-9.463c-0.069-0.186-0.118-0.381-0.177-0.576
			C75.719,93.826,75.773,93.795,75.822,93.761z"/>
	</g>
	
		<linearGradient id="SVGID_2_" gradientUnits="userSpaceOnUse" x1="740.887" y1="1479.498" x2="891.1877" y2="1479.498" gradientTransform="matrix(6.123234e-017 1 1 -6.123234e-017 -1397.2976 -691.3831)">
		<stop  offset="0" style="stop-color:#000000;stop-opacity:0"/>
		<stop  offset="1" style="stop-color:#000000"/>
	</linearGradient>
	<path opacity="0.2" fill="url(#SVGID_2_)" enable-background="new    " d="M157.349,124.656c0-41.504-33.646-75.152-75.147-75.152
		s-75.15,33.648-75.15,75.152c0,41.504,33.646,75.148,75.149,75.148C123.703,199.805,157.349,166.16,157.349,124.656z
		 M18.523,124.656c0-35.168,28.511-63.681,63.677-63.681c35.171,0,63.678,28.513,63.678,63.681
		c0,35.168-28.507,63.678-63.678,63.678C47.033,188.334,18.523,159.824,18.523,124.656L18.523,124.656z"/>
	
		<linearGradient id="SVGID_3_" gradientUnits="userSpaceOnUse" x1="-1817.3679" y1="1518.0586" x2="-1756.1174" y2="1518.0586" gradientTransform="matrix(6.123234e-017 -1 -1 -6.123234e-017 1600.2756 -1695.7253)">
		<stop  offset="0" style="stop-color:#FFFFFF;stop-opacity:0"/>
		<stop  offset="1" style="stop-color:#FFFFFF"/>
	</linearGradient>
	<path opacity="0.5" fill="url(#SVGID_3_)" enable-background="new    " d="M82.215,60.392c-33.823,0-61.25,27.422-61.25,61.25
		h122.503C143.468,87.813,116.046,60.392,82.215,60.392z"/>
	<g>
		<path fill="#333333" d="M0,6.445C-0.002,2.887,2.881,0.001,6.439,0c0.002,0,0.004,0,0.006,0c3.56,0,6.445,2.886,6.446,6.445
			c-0.002,3.559-2.887,6.443-6.446,6.444C2.887,12.891,0.001,10.008,0,6.45C0,6.448,0,6.447,0,6.445z"/>
		<path fill="#333333" d="M83.59,39.205h-2.195V17.307c0-5.453-4.435-9.885-9.887-9.885H6.714V5.225h64.794
			c6.662,0,12.082,5.42,12.082,12.082V39.205z"/>
		<path fill="#333333" d="M82.392,37.965l-5.95-5.952l-1.552,1.55l5.95,5.952l1.552,1.55l1.552-1.55l5.953-5.952l-1.552-1.55
			L82.392,37.965z"/>
	</g>
	<g>
		<g>
			<path fill="#FFFFFF" d="M48.178,147.842h-1.371v4.148h-2.886v-12.625h5.05c2.399,0,4.329,1.93,4.329,4.328
				c0,1.552-0.938,2.958-2.327,3.662l2.688,4.635h-3.102L48.178,147.842z M46.807,145.317h2.164c0.794,0,1.443-0.704,1.443-1.624
				s-0.649-1.623-1.443-1.623h-2.164V145.317z"/>
			<path fill="#FFFFFF" d="M62.411,150.006h-4.689l-0.631,1.984h-3.156l4.293-12.625h3.679l4.293,12.625h-3.156L62.411,150.006z
				 M61.546,147.301l-1.479-4.635l-1.479,4.635H61.546z"/>
			<path fill="#FFFFFF" d="M76.484,143.693c0,2.399-1.93,4.329-4.419,4.329h-1.894v3.968h-2.886v-12.625h4.779
				C74.554,139.365,76.484,141.295,76.484,143.693z M73.598,143.693c0-0.92-0.649-1.623-1.533-1.623h-1.894v3.247h1.894
				C72.948,145.317,73.598,144.613,73.598,143.693z"/>
			<path fill="#FFFFFF" d="M80.816,139.365v12.625H77.93v-12.625H80.816z"/>
			<path fill="#FFFFFF" d="M94.164,145.678c0,3.571-2.651,6.313-6.133,6.313h-5.05v-12.625h5.05
				C91.513,139.365,94.164,142.106,94.164,145.678z M91.387,145.678c0-2.164-1.371-3.535-3.355-3.535h-2.164v7.07h2.164
				C90.016,149.213,91.387,147.842,91.387,145.678z"/>
			<path fill="#FFFFFF" d="M98.677,139.365v12.625h-2.886v-12.625H98.677z"/>
			<path fill="#FFFFFF" d="M109.32,142.143h-3.246v9.848h-2.886v-9.848h-3.246v-2.777h9.378V142.143z"/>
			<path fill="#FFFFFF" d="M116.627,147.139v4.852h-2.886v-4.852l-4.238-7.773h3.282l2.399,4.869l2.398-4.869h3.282L116.627,147.139
				z"/>
		</g>
	</g>
</g>
</svg>
