<?xml version="1.0" encoding="utf-8"?>
<!-- Generator: Adobe Illustrator 16.0.0, SVG Export Plug-In . SVG Version: 6.00 Build 0)  -->
<!DOCTYPE svg PUBLIC "-//W3C//DTD SVG 1.1//EN" "http://www.w3.org/Graphics/SVG/1.1/DTD/svg11.dtd">
<svg version="1.1" id="Layer_1" xmlns="http://www.w3.org/2000/svg" xmlns:xlink="http://www.w3.org/1999/xlink" x="0px" y="0px"
	 width="265.485px" height="154.946px" viewBox="0 0 265.485 154.946" enable-background="new 0 0 265.485 154.946"
	 xml:space="preserve">
<g>
	<g>
		<g>
			<g>
				<g>
					
						<linearGradient id="SVGID_1_" gradientUnits="userSpaceOnUse" x1="-168" y1="157.2285" x2="-13.0537" y2="157.2285" gradientTransform="matrix(1 0 0 1 168 -79.7549)">
						<stop  offset="0" style="stop-color:#9B4B8D"/>
						<stop  offset="1" style="stop-color:#A14B8A"/>
					</linearGradient>
					<circle fill="url(#SVGID_1_)" cx="77.473" cy="77.473" r="77.473"/>
					<g>
						<g>
							<path fill="#FFFFFF" d="M35.294,93.584v2.373h4.57v2.707h-4.57v4.518h-2.813V90.877h7.471v2.707H35.294z"/>
							<path fill="#FFFFFF" d="M48.826,100.474v2.707h-7.207V90.877h2.813v9.598L48.826,100.474L48.826,100.474z"/>
							<path fill="#FFFFFF" d="M57.788,100.474v2.707h-7.734V90.877H57.7v2.707h-4.834v2.039h4.395v2.672h-4.395v2.18
								L57.788,100.474L57.788,100.474z"/>
							<path fill="#FFFFFF" d="M65.836,103.181l-2.074-3.551l-2.074,3.551h-3.199l3.674-6.311l-3.498-5.994h3.199l1.898,3.252
								l1.898-3.252h3.199l-3.498,5.994l3.674,6.311H65.836z"/>
							<path fill="#FFFFFF" d="M73.075,90.877v12.305h-2.813V90.877H73.075z"/>
							<path fill="#FFFFFF" d="M84.324,99.578c0,2.18-1.775,3.604-3.973,3.604h-5.168V90.877h4.816c2.145,0,3.885,1.389,3.885,3.516
								c0,1.021-0.404,1.828-1.072,2.408C83.726,97.38,84.324,98.33,84.324,99.578z M77.995,93.513v2.181h2.004
								c0.633,0,1.072-0.457,1.072-1.091c0-0.633-0.422-1.09-1.072-1.09H77.995z M81.511,99.367c0-0.688-0.457-1.181-1.16-1.181
								h-2.355v2.355h2.355C81.054,100.544,81.511,100.052,81.511,99.367z"/>
							<path fill="#FFFFFF" d="M88.539,90.877v12.305h-2.813V90.877H88.539z"/>
							<path fill="#FFFFFF" d="M97.854,100.474v2.707h-7.207V90.877h2.813v9.598L97.854,100.474L97.854,100.474z"/>
							<path fill="#FFFFFF" d="M101.894,90.877v12.305h-2.813V90.877H101.894z"/>
							<path fill="#FFFFFF" d="M112.263,93.584h-3.164v9.598h-2.812v-9.598h-3.164v-2.707h9.141L112.263,93.584L112.263,93.584z"/>
							<path fill="#FFFFFF" d="M119.38,98.453v4.729h-2.813v-4.729l-4.131-7.576h3.199l2.338,4.746l2.338-4.746h3.199L119.38,98.453
								z"/>
						</g>
					</g>
					<g>
						<path fill="#FFFFFF" d="M100.623,46.044c-3.34-1.06-6.676-2.121-10.019-3.183c-0.851-0.271-1.708-0.528-2.682-0.832
							c0.114,0.316,0.179,0.509,0.253,0.689c0.396,0.975,0.769,1.955,1.196,2.918c0.177,0.404,0.071,0.574-0.29,0.766
							c-0.894,0.472-1.777,0.959-2.639,1.482c-5.688,3.467-9.728,8.279-11.926,14.592c-1.597,4.582-2.206,9.332-2.391,14.148
							c2.969,0,5.941,0,8.914,0c0.1-2.537,0.382-5.049,0.874-7.543c1.272-6.412,4.689-11.254,10.491-14.367
							c0.41-0.215,0.598-0.24,0.783,0.264c0.424,1.152,0.92,2.279,1.426,3.519c0.166-0.274,0.285-0.461,0.387-0.654
							c1.913-3.559,3.821-7.12,5.748-10.67c0.103-0.19,0.077-0.563,0.47-0.504c0-0.168,0-0.33,0-0.496
							C101.018,46.13,100.813,46.105,100.623,46.044z"/>
						<path fill="#FFFFFF" d="M73.912,54.316c-0.569-0.627-1.096-1.287-1.688-1.894c-2.412-2.479-5.227-4.407-8.299-5.971
							c-0.501-0.257-0.555-0.5-0.325-0.951c0.179-0.351,0.311-0.72,0.458-1.082c0.302-0.752,0.604-1.506,0.902-2.265
							c-0.293-0.11-0.481,0.021-0.666,0.078c-2.861,0.864-5.714,1.75-8.578,2.604c-1.381,0.416-2.73,0.926-4.145,1.211
							c0,0.164,0,0.33,0,0.494c0.364-0.074,0.353,0.266,0.45,0.441c1.973,3.621,3.935,7.248,5.902,10.869
							c0.105,0.19,0.148,0.438,0.421,0.553c0.47-1.152,0.948-2.293,1.398-3.437c0.148-0.383,0.288-0.51,0.708-0.282
							c4.12,2.235,7.297,5.344,9.125,9.727c0.065,0.16,0.074,0.365,0.302,0.469c0.877-3.531,2.172-6.883,4.103-9.973
							C74.132,54.671,74.086,54.509,73.912,54.316z"/>
						<path fill="#FFFFFF" d="M71.405,36.482c0.484-0.015,0.612,0.119,0.609,0.604c-0.025,3.197-0.005,6.394-0.02,9.588
							c0,0.336,0.088,0.562,0.361,0.781c1.367,1.099,2.636,2.305,3.767,3.649c0.282,0.336,0.418,0.302,0.678-0.01
							c1.122-1.324,2.371-2.521,3.727-3.604c0.313-0.25,0.398-0.514,0.396-0.895c-0.014-3.175,0.003-6.351-0.02-9.523
							c-0.002-0.465,0.111-0.586,0.572-0.572c1.267,0.037,2.537,0.008,3.906,0.008c-0.222-0.281-0.367-0.475-0.518-0.662
							c-2.631-3.277-5.27-6.555-7.895-9.835c-0.114-0.142-0.37-0.248-0.262-0.518c-0.083,0-0.165,0-0.248,0
							c0.12,0.193-0.085,0.248-0.157,0.342c-2.5,3.042-5.005,6.075-7.499,9.12c-0.39,0.478-0.845,0.914-1.178,1.539
							C68.942,36.498,70.172,36.52,71.405,36.482z"/>
					</g>
				</g>
			</g>
		</g>
		
			<linearGradient id="SVGID_2_" gradientUnits="userSpaceOnUse" x1="1295.5396" y1="-274.7866" x2="1445.8403" y2="-274.7866" gradientTransform="matrix(0 1 -1 0 -197.3179 -1295.5376)">
			<stop  offset="0" style="stop-color:#000000;stop-opacity:0"/>
			<stop  offset="1" style="stop-color:#000000"/>
		</linearGradient>
		<path opacity="0.2" fill="url(#SVGID_2_)" enable-background="new    " d="M152.618,75.154c0-41.504-33.648-75.153-75.149-75.153
			c-41.504,0-75.15,33.647-75.15,75.153c0,41.504,33.646,75.147,75.15,75.147C118.97,150.304,152.618,116.658,152.618,75.154z
			 M13.792,75.154c0-35.17,28.51-63.68,63.677-63.68c35.171,0,63.678,28.51,63.678,63.68c0,35.168-28.507,63.676-63.678,63.676
			C42.302,138.832,13.792,110.322,13.792,75.154z"/>
		
			<linearGradient id="SVGID_3_" gradientUnits="userSpaceOnUse" x1="-578.6538" y1="-1709.2363" x2="-517.4014" y2="-1709.2363" gradientTransform="matrix(0 -1 1 0 1787.7192 -504.4565)">
			<stop  offset="0" style="stop-color:#FFFFFF;stop-opacity:0"/>
			<stop  offset="1" style="stop-color:#FFFFFF"/>
		</linearGradient>
		<path opacity="0.5" fill="url(#SVGID_3_)" enable-background="new    " d="M78.482,12.945c-33.826,0-61.25,27.424-61.25,61.252
			h122.501C139.733,40.369,112.312,12.945,78.482,12.945z"/>
	</g>
	<g>
		<g>
			<g>
				<circle fill="#333333" cx="259.039" cy="72.216" r="6.446"/>
				<g>
					<rect x="167.666" y="70.998" fill="#333333" width="92.833" height="2.197"/>
				</g>
			</g>
			<polygon fill="#333333" points="167.831,72.216 173.781,66.268 172.229,64.716 166.279,70.666 164.727,72.216 166.279,73.769 
				172.229,79.72 173.781,78.169 			"/>
		</g>
	</g>
</g>
</svg>
