<?xml version="1.0" encoding="utf-8"?>
<!-- Generator: Adobe Illustrator 16.0.0, SVG Export Plug-In . SVG Version: 6.00 Build 0)  -->
<!DOCTYPE svg PUBLIC "-//W3C//DTD SVG 1.1//EN" "http://www.w3.org/Graphics/SVG/1.1/DTD/svg11.dtd">
<svg version="1.1" id="Layer_1" xmlns="http://www.w3.org/2000/svg" xmlns:xlink="http://www.w3.org/1999/xlink" x="0px" y="0px"
	 width="159.802px" height="203.711px" viewBox="0 0 159.802 203.711" enable-background="new 0 0 159.802 203.711"
	 xml:space="preserve">
<g>
	<g>
		<g>
			<g>
				
					<linearGradient id="SVGID_1_" gradientUnits="userSpaceOnUse" x1="-168" y1="205.9922" x2="-13.0547" y2="205.9922" gradientTransform="matrix(1 0 0 1 168 -79.7549)">
					<stop  offset="0" style="stop-color:#9B4B8D"/>
					<stop  offset="1" style="stop-color:#A14B8A"/>
				</linearGradient>
				<path fill="url(#SVGID_1_)" d="M0,126.236c0-42.783,34.685-77.472,77.471-77.472c42.787,0,77.474,34.688,77.474,77.472
					c0,42.788-34.688,77.475-77.474,77.475C34.685,203.711,0,169.024,0,126.236z"/>
				<g>
					<g>
						<path fill="#FFFFFF" d="M41.291,151.945h-2.813v-7.154l-3.182,5.221H34.98l-3.182-5.221v7.154h-2.813V139.64h2.813l3.34,5.467
							l3.34-5.467h2.813V151.945L41.291,151.945z"/>
						<path fill="#FFFFFF" d="M50.603,150.011h-4.57l-0.615,1.937h-3.076l4.184-12.308h3.586l4.184,12.308H51.22L50.603,150.011z
							 M49.759,147.375l-1.441-4.519l-1.441,4.519H49.759z"/>
						<path fill="#FFFFFF" d="M67.087,146.144c0,3.765-2.619,6.047-6.064,6.047c-3.867,0-6.645-2.848-6.645-6.381
							c0-3.565,2.83-6.416,6.451-6.416c2.355,0,4.342,1.16,5.379,2.814l-2.391,1.371c-0.51-0.812-1.617-1.441-3.006-1.441
							c-2.074,0-3.621,1.529-3.621,3.691c0,2.092,1.477,3.621,3.867,3.621c1.635,0,2.707-0.724,3.146-1.898h-3.287v-2.461h6.17
							L67.087,146.144L67.087,146.144z"/>
						<path fill="#FFFFFF" d="M78.333,139.64v12.308h-2.109l-4.746-6.683v6.683h-2.813V139.64h2.109l4.746,6.683v-6.683H78.333z"/>
						<path fill="#FFFFFF" d="M83.251,139.64v12.308h-2.813V139.64H83.251z"/>
						<path fill="#FFFFFF" d="M93.621,142.347h-3.164v9.601h-2.813v-9.601H84.48v-2.707h9.141V142.347z"/>
						<path fill="#FFFFFF" d="M94.76,147.972v-8.332h2.813v8.086c0,0.935,0.439,1.726,1.934,1.726c1.495,0,1.934-0.791,1.934-1.726
							v-8.086h2.813v8.332c0,2.637-2.039,4.219-4.746,4.219S94.76,150.608,94.76,147.972z"/>
						<path fill="#FFFFFF" d="M117.169,145.793c0,3.479-2.584,6.152-5.977,6.152h-4.922V139.64h4.922
							C114.585,139.64,117.169,142.312,117.169,145.793z M114.462,145.793c0-2.109-1.336-3.445-3.27-3.445h-2.109v6.894h2.109
							C113.126,149.238,114.462,147.902,114.462,145.793z"/>
						<path fill="#FFFFFF" d="M126.481,149.238v2.707h-7.734V139.64h7.646v2.707h-4.834v2.039h4.395v2.672h-4.395v2.181H126.481z"/>
					</g>
				</g>
				<g>
					<g>
						<path fill="#FFFFFF" d="M56.139,106.832c0.085,0.803,0.171,1.582,0.253,2.365c0.005,0.079,0.031,0.157,0.045,0.237
							c0.025,0.152-0.006,0.25-0.125,0.377c-0.424,0.447-0.868,0.896-1.212,1.4c-0.458,0.684-0.345,1.008,0.393,1.42
							c0.675,0.381,1.421,0.564,2.178,0.678c0.837,0.117,1.68,0.193,2.534,0.291c-2.693-6.774-2.209-13.176,2.067-19.094
							c2.966-4.109,7.052-6.582,12.057-7.428c10.776-1.82,20.829,5.813,21.987,16.774c0.444-0.307,0.876-0.588,1.29-0.895
							c0.771-0.572,1.512-1.176,2.073-1.963c0.145-0.201,0.256-0.42,0.361-0.644c0.131-0.289,0.074-0.545-0.171-0.764
							c-0.464-0.41-1.028-0.652-1.62-0.742c-0.615-0.086-0.9-0.393-1.088-0.963c-0.202-0.617-0.523-1.195-0.814-1.836
							c0.296,0.031,0.578,0.057,0.854,0.098c1.165,0.175,2.314,0.418,3.365,0.979c0.996,0.526,1.736,1.264,1.936,2.424
							c0.14,0.824-0.071,1.59-0.472,2.309c-0.575,1.019-1.398,1.816-2.298,2.541c-2.004,1.615-4.253,2.828-6.568,3.935
							c-2.861,1.371-5.822,2.49-8.837,3.475c-3.732,1.217-7.524,2.199-11.376,2.949c-2.317,0.447-4.641,0.832-6.989,1.023
							c-1.685,0.137-3.382,0.215-5.073,0.225c-1.868,0.012-3.727-0.154-5.515-0.766c-0.828-0.283-1.603-0.664-2.187-1.341
							c-0.922-1.063-0.999-2.239-0.436-3.483c0.396-0.879,1.02-1.597,1.726-2.234c0.407-0.377,0.845-0.715,1.275-1.063
							C55.877,107.013,56.011,106.925,56.139,106.832z M74.741,104.498c1.833,0,3.641,0,5.531,0
							c-0.119-2.082-0.239-4.131-0.358-6.207c-0.168,0-0.265,0-0.367,0c-1.028,0-2.059,0-3.092,0c-0.39,0-0.78-0.008-1.173,0.006
							c-0.077,0.006-0.208,0.096-0.21,0.154c-0.085,0.842-0.157,1.686-0.216,2.526c-0.048,0.666-0.088,1.343-0.114,2.015
							C74.729,103.486,74.741,103.988,74.741,104.498z M60.996,104.506c1.551,0,3.015,0,4.495,0
							c0.088-2.104,0.381-4.164,0.919-6.215c-0.117,0-0.205,0-0.293,0c-1.034,0-2.064,0.006-3.092-0.006
							c-0.194-0.002-0.291,0.057-0.373,0.225c-0.566,1.178-1.011,2.398-1.27,3.678C61.229,102.942,61.127,103.709,60.996,104.506z
							 M93.895,104.506c0-0.09,0.002-0.154-0.003-0.219c-0.174-2.043-0.732-3.98-1.617-5.824c-0.077-0.154-0.182-0.174-0.33-0.174
							c-1.022,0.006-2.036,0.004-3.061,0.004c-0.108,0-0.213,0-0.356,0c0.555,2.057,0.826,4.119,0.937,6.215
							C90.955,104.506,92.409,104.506,93.895,104.506z M61.039,106.974c0.023,0.209,0.037,0.377,0.054,0.549
							c0.199,1.902,0.731,3.701,1.563,5.418c0.077,0.158,0.162,0.226,0.35,0.226c1.036-0.014,2.078-0.004,3.118-0.004
							c0.085,0,0.17-0.015,0.285-0.021c-0.544-2.041-0.82-4.09-0.92-6.166C63.999,106.974,62.544,106.974,61.039,106.974z
							 M82.362,98.304c0.117,2.078,0.23,4.139,0.347,6.201c1.421,0,2.855,0,4.308,0c-0.025-0.396-0.051-0.771-0.083-1.146
							c-0.125-1.646-0.427-3.26-0.868-4.848c-0.048-0.174-0.131-0.225-0.308-0.225c-1.068,0.008-2.132,0.006-3.197,0.006
							C82.493,98.293,82.419,98.302,82.362,98.304z M72.583,98.308c-0.042-0.006-0.088-0.016-0.131-0.016
							c-1.102-0.002-2.204,0-3.308-0.008c-0.188-0.002-0.225,0.094-0.262,0.237c-0.427,1.49-0.706,3.004-0.845,4.552
							c-0.046,0.469-0.077,0.946-0.111,1.426c1.483,0,2.904,0,4.313,0C72.352,102.427,72.469,100.373,72.583,98.308z
							 M67.965,106.974c-0.1,1.115,0.546,5.133,0.968,6.01c1.196-0.2,2.4-0.405,3.584-0.61c-0.088-1.83-0.179-3.619-0.271-5.398
							C70.815,106.974,69.397,106.974,67.965,106.974z M74.69,106.976c0.08,1.648,0.156,3.252,0.239,4.914
							c1.711-0.442,3.356-0.867,4.999-1.307c0.071-0.021,0.165-0.146,0.168-0.229c0.048-1.016,0.085-2.032,0.123-3.051
							c0-0.104-0.012-0.211-0.017-0.328C78.365,106.976,76.566,106.976,74.69,106.976z M77.545,89.3
							c-0.048,0.004-0.097,0.01-0.143,0.014c-1.261,1.984-1.58,4.263-2.016,6.521c1.401,0,2.77,0,4.157,0
							c-0.043-0.258-0.077-0.49-0.114-0.717c-0.291-1.597-0.621-3.183-1.27-4.677C77.992,90.048,77.747,89.683,77.545,89.3z
							 M80.771,90.312c0.601,1.81,0.957,3.662,1.244,5.529c1.033,0,2.036,0,3.086,0C84.085,93.632,82.818,91.672,80.771,90.312z
							 M72.93,95.845c0.291-1.871,0.655-3.729,1.242-5.537c-2.053,1.365-3.314,3.332-4.325,5.537
							C70.88,95.845,71.883,95.845,72.93,95.845z M82.576,109.767c0.063,0,0.094,0.011,0.12,0c1.367-0.465,2.73-0.932,4.097-1.399
							c0.06-0.021,0.134-0.09,0.137-0.142c0.037-0.41,0.06-0.826,0.085-1.237c-1.463,0-2.893,0-4.339,0
							C82.644,107.927,82.61,108.84,82.576,109.767z M64.281,95.863c0.982,0,1.893,0.002,2.801-0.011
							c0.063,0,0.154-0.104,0.188-0.182c0.39-0.803,0.732-1.625,1.147-2.412c0.373-0.695,0.82-1.344,1.247-2.041
							C67.547,92.375,65.779,93.899,64.281,95.863z M85.289,91.226c0.441,0.717,0.902,1.41,1.292,2.14
							c0.396,0.733,0.723,1.51,1.07,2.271c0.074,0.162,0.151,0.234,0.339,0.23c0.803-0.013,1.606-0.007,2.406-0.007
							c0.068,0,0.137-0.012,0.253-0.022C89.158,93.902,87.398,92.367,85.289,91.226z M89.465,107.306
							c0.242-0.1,0.479-0.199,0.777-0.317c-0.308,0-0.538,0-0.766,0c-0.012,0.092-0.023,0.161-0.031,0.235
							C89.443,107.238,89.454,107.256,89.465,107.306z"/>
						<path fill="#FFFFFF" d="M75.518,116.433c0.436,1.982,0.746,3.98,1.928,5.765c0.137-0.185,0.256-0.308,0.341-0.447
							c0.595-1.006,0.92-2.121,1.185-3.246c0.216-0.92,0.378-1.854,0.566-2.779c0.003-0.033-0.008-0.065-0.017-0.119
							c-0.12-0.014-0.236-0.02-0.35-0.03c3.208-0.896,6.38-1.906,9.535-3.123c-0.06,0.26-0.105,0.467-0.154,0.688
							c0.088,0.008,0.156,0.021,0.225,0.021c1.062,0,2.118-0.002,3.177,0.002c0.168,0,0.273-0.045,0.333-0.205
							c0.293-0.742,0.589-1.486,0.9-2.226c0.051-0.127,0.157-0.268,0.273-0.327c0.797-0.433,1.6-0.839,2.4-1.255
							c0.063-0.03,0.125-0.061,0.239-0.112c-0.433,2.459-1.301,4.703-2.614,6.764c-2.289,3.586-5.42,6.168-9.409,7.656
							c-8.042,2.983-16.253,0.076-20.8-5.267c0.387-0.022,0.757-0.047,1.119-0.077c0.618-0.048,1.233-0.099,1.851-0.136
							c0.105-0.006,0.245,0.037,0.328,0.105c0.931,0.809,1.93,1.518,3.015,2.109c0.023,0.008,0.048,0.014,0.071,0.024
							c-0.501-0.809-1.002-1.611-1.532-2.459c0.382-0.061,0.701-0.109,1.02-0.16c0.45-0.063,0.899-0.125,1.349-0.209
							c0.177-0.031,0.276,0.008,0.373,0.168c0.564,0.955,1.221,1.836,2.033,2.595c0.39,0.364,0.817,0.688,1.227,1.026
							c0.02-0.016,0.043-0.033,0.065-0.051c-0.103-0.332-0.228-0.66-0.31-0.998c-0.242-1.002-0.47-2.004-0.695-3.006
							c-0.014-0.066,0.048-0.209,0.091-0.219C74.026,116.74,74.772,116.588,75.518,116.433z M80.771,121.183
							c2.053-1.412,3.331-3.369,4.33-5.58c-1.059,0-2.067,0-3.066,0c-0.177,0.945-0.328,1.879-0.533,2.8
							C81.295,119.322,81.027,120.22,80.771,121.183z M90.664,115.59c-0.12,0-0.182,0-0.242,0c-0.808,0-1.62,0.002-2.431-0.006
							c-0.188-0.002-0.271,0.063-0.336,0.231c-0.495,1.273-1.11,2.488-1.873,3.627c-0.085,0.134-0.166,0.261-0.256,0.39
							c-0.085,0.125-0.179,0.244-0.271,0.367C87.398,119.074,89.189,117.562,90.664,115.59z"/>
					</g>
				</g>
			</g>
		</g>
		
			<linearGradient id="SVGID_2_" gradientUnits="userSpaceOnUse" x1="1274.0635" y1="-525.5889" x2="1424.3662" y2="-525.5889" gradientTransform="matrix(0 1 -1 0 -448.1201 -1224.5596)">
			<stop  offset="0" style="stop-color:#000000;stop-opacity:0"/>
			<stop  offset="1" style="stop-color:#000000"/>
		</linearGradient>
		<path opacity="0.2" fill="url(#SVGID_2_)" enable-background="new    " d="M152.618,124.656c0-41.504-33.648-75.152-75.15-75.152
			c-41.504,0-75.149,33.648-75.149,75.152s33.645,75.149,75.149,75.149C118.97,199.806,152.618,166.16,152.618,124.656z
			 M13.792,124.656c0-35.168,28.509-63.681,63.676-63.681c35.171,0,63.678,28.513,63.678,63.681s-28.507,63.678-63.678,63.678
			C42.301,188.334,13.792,159.824,13.792,124.656z"/>
		
			<linearGradient id="SVGID_3_" gradientUnits="userSpaceOnUse" x1="-876.9004" y1="-1638.9365" x2="-815.6504" y2="-1638.9365" gradientTransform="matrix(0 -1 1 0 1716.7412 -755.2588)">
			<stop  offset="0" style="stop-color:#FFFFFF;stop-opacity:0"/>
			<stop  offset="1" style="stop-color:#FFFFFF"/>
		</linearGradient>
		<path opacity="0.5" fill="url(#SVGID_3_)" enable-background="new    " d="M77.804,60.392c-33.826,0-61.25,27.422-61.25,61.25
			h122.501C139.055,87.813,111.635,60.392,77.804,60.392z"/>
	</g>
	<g>
		<g>
			<circle fill="#333333" cx="153.357" cy="6.445" r="6.445"/>
			<g>
				<path fill="#333333" d="M78.678,39.205H76.48V17.307c0-6.662,5.42-12.082,12.08-12.082h64.8v2.197h-64.8
					c-5.449,0-9.882,4.434-9.882,9.885V39.205z"/>
			</g>
		</g>
		<polygon fill="#333333" points="77.662,37.965 71.71,32.013 70.159,33.563 76.11,39.515 77.662,41.065 79.213,39.515 
			85.164,33.563 83.612,32.013 		"/>
	</g>
</g>
</svg>
