<?xml version="1.0" encoding="utf-8"?>
<!-- Generator: Adobe Illustrator 16.0.0, SVG Export Plug-In . SVG Version: 6.00 Build 0)  -->
<!DOCTYPE svg PUBLIC "-//W3C//DTD SVG 1.1//EN" "http://www.w3.org/Graphics/SVG/1.1/DTD/svg11.dtd">
<svg version="1.1" id="Layer_1" xmlns="http://www.w3.org/2000/svg" xmlns:xlink="http://www.w3.org/1999/xlink" x="0px" y="0px"
	 width="404.43px" height="226.553px" viewBox="0 0 404.43 226.553" enable-background="new 0 0 404.43 226.553"
	 xml:space="preserve">
<g>
	
		<linearGradient id="SVGID_1_" gradientUnits="userSpaceOnUse" x1="28.3379" y1="76.6445" x2="236.4297" y2="76.6445" gradientTransform="matrix(1 0 0 -1 168 147.7979)">
		<stop  offset="0" style="stop-color:#4B48BF"/>
		<stop  offset="1" style="stop-color:#A14B8A"/>
	</linearGradient>
	<path fill="url(#SVGID_1_)" d="M196.338,71.152c0,10.269,8.324,18.591,18.59,18.591h170.911c10.271,0,18.591-8.322,18.591-18.591
		s-8.318-18.589-18.591-18.589H214.928C204.663,52.563,196.338,60.884,196.338,71.152z"/>
	
		<linearGradient id="SVGID_2_" gradientUnits="userSpaceOnUse" x1="28.3379" y1="24.083" x2="236.4297" y2="24.083" gradientTransform="matrix(1 0 0 -1 168 147.7979)">
		<stop  offset="0" style="stop-color:#4B48BF"/>
		<stop  offset="1" style="stop-color:#A14B8A"/>
	</linearGradient>
	<path fill="url(#SVGID_2_)" d="M196.338,123.717c0,10.265,8.324,18.589,18.59,18.589h170.911c10.271,0,18.591-8.324,18.591-18.589
		c0-10.266-8.318-18.593-18.591-18.593H214.928C204.663,105.124,196.338,113.451,196.338,123.717L196.338,123.717z"/>
	
		<linearGradient id="SVGID_3_" gradientUnits="userSpaceOnUse" x1="28.3379" y1="-28.4819" x2="236.4297" y2="-28.4819" gradientTransform="matrix(1 0 0 -1 168 147.7979)">
		<stop  offset="0" style="stop-color:#4B48BF"/>
		<stop  offset="1" style="stop-color:#A14B8A"/>
	</linearGradient>
	<path fill="url(#SVGID_3_)" d="M196.338,176.278c0,10.266,8.324,18.591,18.59,18.591h170.911c10.271,0,18.591-8.325,18.591-18.591
		c0-10.267-8.318-18.588-18.591-18.588H214.928C204.663,157.69,196.338,166.012,196.338,176.278z"/>
	
		<linearGradient id="SVGID_4_" gradientUnits="userSpaceOnUse" x1="28.3379" y1="129.208" x2="236.4297" y2="129.208" gradientTransform="matrix(1 0 0 -1 168 147.7979)">
		<stop  offset="0" style="stop-color:#4B48BF"/>
		<stop  offset="1" style="stop-color:#A14B8A"/>
	</linearGradient>
	<path fill="url(#SVGID_4_)" d="M196.338,18.589c0,10.266,8.324,18.59,18.59,18.59h170.911c10.271,0,18.591-8.324,18.591-18.59
		C404.43,8.323,396.109,0,385.839,0H214.928C204.663,0,196.338,8.323,196.338,18.589z"/>
	<circle fill="#333333" cx="138.609" cy="18.589" r="6.447"/>
	<circle fill="#333333" cx="174.808" cy="71.152" r="6.447"/>
	<circle fill="#333333" cx="174.808" cy="123.716" r="6.447"/>
	<circle fill="#333333" cx="138.609" cy="176.278" r="6.447"/>
	<path fill="none" d="M196.338,18.589h-51.282"/>
	<path fill="#333333" d="M145.056,17.489h51.282v2.197h-51.282V17.489z"/>
	<path fill="none" d="M196.608,71.152h-15.354"/>
	<path fill="#333333" d="M181.254,70.057h15.354v2.195h-15.354V70.057z"/>
	<path fill="none" d="M196.608,123.716h-15.354"/>
	<path fill="#333333" d="M181.254,122.617h15.354v2.198h-15.354V122.617z"/>
	<path fill="none" d="M196.338,176.278h-51.282"/>
	<path fill="#333333" d="M145.056,175.181h51.282v2.197h-51.282V175.181z"/>
	
		<linearGradient id="SVGID_5_" gradientUnits="userSpaceOnUse" x1="-165.2778" y1="49.8091" x2="-10.332" y2="49.8091" gradientTransform="matrix(1 0 0 -1 168 147.7979)">
		<stop  offset="0" style="stop-color:#4B48BF"/>
		<stop  offset="1" style="stop-color:#4E48BD"/>
	</linearGradient>
	<circle fill="url(#SVGID_5_)" cx="80.195" cy="97.989" r="77.473"/>
	<path fill="#FFFFFF" d="M25.388,114.099h-3.164v9.598h-2.813v-9.598h-3.164v-2.708h9.141V114.099z M34.35,120.987v2.707h-7.732
		V111.39h7.646v2.707H29.43v2.039h4.396v2.672H29.43v2.18H34.35z M35.314,117.543c0-3.621,2.688-6.398,6.396-6.398
		c2.232,0,4.201,1.107,5.273,2.848l-2.428,1.406c-0.545-0.949-1.6-1.513-2.848-1.513c-2.18,0-3.586,1.46-3.586,3.656
		c0,2.197,1.406,3.656,3.586,3.656c1.248,0,2.32-0.563,2.848-1.513l2.428,1.406c-1.057,1.74-3.023,2.848-5.273,2.848
		C38.003,123.94,35.314,121.164,35.314,117.543z M57.792,111.391v12.305h-2.813v-4.887h-3.867v4.887h-2.813v-12.305h2.813v4.711
		h3.867v-4.711H57.792z M69.566,111.391v12.305h-2.109l-4.746-6.68v6.68h-2.813v-12.305h2.107l4.746,6.68v-6.68H69.566z
		 M71.145,117.543c0-3.621,2.864-6.398,6.397-6.398s6.398,2.777,6.398,6.398s-2.865,6.397-6.398,6.397
		S71.145,121.164,71.145,117.543z M81.128,117.543c0-2.196-1.582-3.655-3.586-3.655s-3.586,1.459-3.586,3.655
		c0,2.197,1.582,3.656,3.586,3.656S81.128,119.74,81.128,117.543z M92.726,120.987v2.707H85.52V111.39h2.813v9.597H92.726z
		 M92.723,117.543c0-3.621,2.865-6.398,6.398-6.398c3.533,0,6.398,2.777,6.398,6.398s-2.865,6.397-6.398,6.397
		C95.588,123.94,92.723,121.164,92.723,117.543z M102.707,117.543c0-2.196-1.582-3.655-3.586-3.655s-3.586,1.459-3.586,3.655
		c0,2.197,1.582,3.656,3.586,3.656S102.707,119.74,102.707,117.543z M119.28,117.896c0,3.762-2.619,6.047-6.064,6.047
		c-3.867,0-6.645-2.849-6.645-6.381c0-3.568,2.83-6.417,6.45-6.417c2.354,0,4.343,1.16,5.38,2.813l-2.393,1.371
		c-0.51-0.809-1.617-1.441-3.006-1.441c-2.074,0-3.621,1.529-3.621,3.691c0,2.092,1.479,3.621,3.867,3.621
		c1.635,0,2.707-0.721,3.146-1.898h-3.286v-2.461h6.17L119.28,117.896L119.28,117.896z M123.669,111.391v12.305h-2.813v-12.305
		H123.669z M133.511,120.987v2.707h-7.732V111.39h7.646v2.707h-4.834v2.039h4.396v2.672h-4.396v2.18H133.511z M134.475,120.899
		l2.428-1.405c0.438,1.021,1.193,1.705,2.584,1.705c1.336,0,1.67-0.527,1.67-1.002c0-0.757-0.703-1.056-2.549-1.564
		c-1.828-0.51-3.621-1.389-3.621-3.743c0-2.374,2.004-3.745,4.131-3.745c2.021,0,3.604,0.967,4.5,2.777l-2.373,1.39
		c-0.422-0.879-1.002-1.425-2.127-1.425c-0.879,0-1.318,0.439-1.318,0.933c0,0.563,0.299,0.949,2.215,1.529
		c1.863,0.563,3.955,1.213,3.955,3.813c0,2.373-1.896,3.778-4.568,3.778C136.813,123.94,135.161,122.711,134.475,120.899z"/>
	<g>
		<path fill="#FFFFFF" d="M65.585,56.229c2.619,0,5.241,0.02,7.86-0.012c0.617-0.011,0.98,0.199,1.333,0.698
			c1.264,1.799,2.599,3.549,3.852,5.356c0.396,0.574,0.795,0.787,1.503,0.765c2.403-0.071,4.399,1.685,4.658,4
			c0.268,2.466-1.229,4.625-3.619,5.119c-1.725,0.354-3.254-0.107-4.436-1.438c-1.198-1.351-1.467-2.945-0.89-4.639
			c0.159-0.481,0.132-0.806-0.168-1.21c-1.018-1.369-2.017-2.752-2.995-4.149c-0.246-0.352-0.507-0.528-0.965-0.525
			c-3.437,0.02-6.873,0.02-10.309-0.006c-0.587-0.003-0.758,0.185-0.755,0.763c0.017,3.904,0.012,7.812,0.003,11.715
			c0,0.393,0.1,0.713,0.333,1.028c1.905,2.586,3.807,5.18,5.692,7.776c0.247,0.337,0.511,0.454,0.933,0.449
			c2.625-0.037,4.638,1.785,4.828,4.332c0.183,2.433-1.657,4.588-4.187,4.91c-3.388,0.427-6.03-3.066-4.746-6.317
			c0.202-0.51,0.153-0.841-0.158-1.266c-2.097-2.817-4.153-5.661-6.24-8.484c-0.258-0.33-0.395-0.738-0.389-1.157
			c0.016-5.611,0.021-11.22-0.009-16.832c-0.006-0.741,0.239-0.902,0.929-0.894C60.293,56.249,62.941,56.228,65.585,56.229z
			 M80.216,65.53c-1.23-0.008-2.229,0.965-2.229,2.181c0,1.19,0.957,2.158,2.153,2.182c1.211,0.037,2.223-0.916,2.259-2.126
			c0-0.009,0-0.018,0-0.026C82.419,66.495,81.472,65.537,80.216,65.53z M67.837,88.728c1.216-0.011,2.173-0.972,2.155-2.161
			c-0.014-1.211-1.03-2.215-2.229-2.201c-1.203,0.016-2.132,0.958-2.132,2.176C65.634,87.79,66.593,88.738,67.837,88.728z
			 M94.782,98.076c-2.674,0.006-5.342-0.008-8.013,0.017c-0.521,0.003-0.854-0.151-1.16-0.586c-1.364-1.944-2.773-3.855-4.145-5.788
			c-0.281-0.396-0.544-0.581-1.085-0.552c-2.038,0.117-3.855-1.136-4.541-3.033c-0.692-1.932-0.051-4.093,1.58-5.308
			c1.599-1.193,3.847-1.214,5.479-0.054c1.649,1.176,2.364,3.331,1.658,5.272c-0.223,0.618-0.146,1.035,0.233,1.538
			c0.993,1.325,1.961,2.668,2.906,4.028c0.266,0.378,0.55,0.558,1.033,0.555c3.409-0.017,6.817-0.017,10.23,0
			c0.575,0.005,0.774-0.168,0.771-0.757c-0.022-3.927-0.014-7.857-0.008-11.789c0-0.362-0.097-0.664-0.313-0.957
			c-1.957-2.642-3.901-5.292-5.834-7.95c-0.27-0.369-0.563-0.464-0.993-0.468c-2.491-0.029-4.447-1.916-4.55-4.359
			c-0.1-2.474,1.611-4.561,3.975-4.838c2.548-0.302,4.774,1.307,5.204,3.782c0.159,0.945,0.08,1.888-0.37,2.75
			c-0.216,0.416-0.143,0.709,0.122,1.065c2.097,2.818,4.166,5.651,6.266,8.465c0.296,0.397,0.43,0.79,0.43,1.288
			c-0.011,5.611-0.021,11.224,0.006,16.834c0.006,0.698-0.219,0.869-0.877,0.863C100.12,98.062,97.452,98.076,94.782,98.076z
			 M80.197,88.728c1.224,0,2.218-0.989,2.203-2.199c-0.016-1.19-0.979-2.15-2.169-2.164c-1.23-0.017-2.226,0.937-2.238,2.164
			C77.979,87.742,78.963,88.728,80.197,88.728z M92.677,65.53c-1.236-0.008-2.227,0.955-2.229,2.174
			c-0.003,1.206,0.972,2.186,2.179,2.189c0.011,0,0.022,0,0.034,0c1.198-0.001,2.188-0.969,2.194-2.134
			C94.861,66.518,93.902,65.537,92.677,65.53z"/>
		<path fill="#FFFFFF" d="M79.146,79.091c-1.608,0-3.219-0.026-4.82,0.013c-0.566,0.013-0.896-0.185-1.216-0.638
			c-1.295-1.836-2.647-3.633-3.945-5.472c-0.373-0.531-0.746-0.774-1.44-0.766c-2.426,0.026-4.33-1.817-4.541-4.29
			c-0.191-2.303,1.479-4.444,3.792-4.864c2.316-0.43,4.584,0.949,5.271,3.202c0.319,1.058,0.288,2.106-0.165,3.112
			c-0.182,0.418-0.146,0.714,0.12,1.076c1.014,1.372,2.005,2.761,2.972,4.166c0.29,0.421,0.618,0.551,1.107,0.549
			c3.243-0.019,6.48,0.001,9.72-0.02c0.572-0.006,0.945,0.148,1.29,0.632c1.301,1.836,2.664,3.627,3.971,5.46
			c0.35,0.487,0.688,0.698,1.327,0.678c2.438-0.068,4.492,1.808,4.669,4.165c0.193,2.585-1.441,4.652-3.983,5.042
			c-2.36,0.356-4.624-1.207-5.141-3.584c-0.192-0.911-0.171-1.831,0.216-2.693c0.199-0.447,0.125-0.769-0.157-1.145
			c-1.012-1.342-2-2.704-2.962-4.083c-0.294-0.413-0.614-0.558-1.112-0.552C82.459,79.107,80.803,79.091,79.146,79.091z
			 M92.661,88.728c1.204-0.005,2.209-0.989,2.194-2.151c-0.016-1.221-1.021-2.223-2.229-2.212c-1.195,0.004-2.165,0.966-2.181,2.161
			c-0.006,1.209,0.968,2.196,2.178,2.202C92.636,88.728,92.648,88.728,92.661,88.728z M67.809,69.893
			c1.221-0.001,2.183-0.938,2.186-2.137c0.003-1.238-0.968-2.226-2.188-2.226c-1.242,0-2.188,0.965-2.172,2.215
			c-0.003,1.183,0.953,2.145,2.136,2.148C67.784,69.893,67.796,69.893,67.809,69.893z"/>
	</g>
	<g>
		<path fill="#FFFFFF" d="M246.984,72.132c0,1.635-1.332,2.702-2.979,2.702h-3.876v-9.229h3.612c1.606,0,2.913,1.042,2.913,2.637
			c0,0.765-0.305,1.371-0.807,1.807C246.536,70.483,246.984,71.195,246.984,72.132L246.984,72.132z M242.238,67.583v1.635h1.503
			c0.475,0,0.805-0.343,0.805-0.817s-0.313-0.817-0.805-0.817L242.238,67.583z M244.874,71.974c0-0.515-0.343-0.884-0.87-0.884
			h-1.768v1.767h1.768C244.532,72.856,244.874,72.487,244.874,71.974z M253.441,72.804v2.03h-5.405v-9.229h2.106v7.198h3.299V72.804
			z M253.439,70.22c0-2.716,2.146-4.799,4.799-4.799c2.65,0,4.8,2.083,4.8,4.799c0,2.716-2.147,4.799-4.8,4.799
			C255.588,75.019,253.439,72.936,253.439,70.22L253.439,70.22z M260.928,70.22c0-1.646-1.187-2.742-2.688-2.742
			s-2.689,1.095-2.689,2.742c0,1.648,1.188,2.742,2.689,2.742C259.741,72.962,260.928,71.868,260.928,70.22z M263.825,70.22
			c0-2.716,2.018-4.799,4.799-4.799c1.674,0,3.149,0.831,3.955,2.136l-1.819,1.055c-0.408-0.712-1.197-1.134-2.136-1.134
			c-1.636,0-2.688,1.095-2.688,2.742c0,1.648,1.056,2.742,2.688,2.742c0.938,0,1.739-0.422,2.136-1.134l1.819,1.055
			c-0.791,1.306-2.269,2.136-3.955,2.136C265.842,75.019,263.825,72.936,263.825,70.22L263.825,70.22z M278.627,74.834l-2.953-4.271
			v4.271h-2.107v-9.229h2.107v4.008l2.821-4.008h2.397l-3.109,4.496l3.242,4.732L278.627,74.834L278.627,74.834z"/>
		<path fill="#FFFFFF" d="M280.628,70.22c0-2.716,2.019-4.799,4.799-4.799c1.675,0,3.151,0.831,3.955,2.136l-1.817,1.055
			c-0.407-0.712-1.198-1.134-2.138-1.134c-1.635,0-2.688,1.095-2.688,2.742c0,1.648,1.055,2.742,2.688,2.742
			c0.938,0,1.74-0.422,2.138-1.134l1.817,1.055c-0.791,1.306-2.269,2.136-3.955,2.136C282.645,75.019,280.628,72.936,280.628,70.22z
			 M297.488,65.605v9.229h-2.109v-3.665h-2.9v3.665h-2.106v-9.229h2.106v3.533h2.9v-3.533H297.488z M304.473,73.384h-3.429
			l-0.462,1.45h-2.307l3.138-9.229h2.688l3.139,9.229h-2.307L304.473,73.384L304.473,73.384z M303.839,71.406l-1.081-3.388
			l-1.081,3.388H303.839z M310.138,65.605v9.229h-2.106v-9.229H310.138z M318.97,65.605v9.229h-1.582l-3.56-5.01v5.01h-2.109v-9.229
			h1.582l3.563,5.01v-5.01H318.97z"/>
	</g>
	<g>
		<path fill="#FFFFFF" d="M249.355,21.684h-2.109v-5.365l-2.387,3.915h-0.237l-2.386-3.915v5.365h-2.109v-9.229h2.109l2.505,4.101
			l2.505-4.101h2.109V21.684z M250.209,18.704v-6.249h2.109v6.064c0,0.699,0.328,1.292,1.447,1.292c1.121,0,1.45-0.593,1.45-1.292
			v-6.064h2.109v6.249c0,1.978-1.529,3.164-3.563,3.164C251.739,21.868,250.209,20.682,250.209,18.704L250.209,18.704z
			 M263.587,19.653v2.03h-5.405v-9.229h2.109v7.198L263.587,19.653z M269.124,14.485h-2.373v7.198h-2.108v-7.198h-2.373v-2.03h6.854
			V14.485z M271.494,12.455v9.229h-2.109v-9.229H271.494z M280.457,19.653v2.03h-5.405v-9.229h2.109v7.198L280.457,19.653z
			 M286.52,19.653v2.03h-5.801v-9.229h5.734v2.03h-3.625v1.529h3.296v2.004h-3.296v1.635L286.52,19.653z"/>
		<path fill="#FFFFFF" d="M286.254,12.455h2.307l2.047,6.79l2.043-6.79h2.308l-3.006,9.229h-2.688L286.254,12.455z M300.885,19.653
			v2.03h-5.801v-9.229h5.734v2.03h-3.625v1.529h3.296v2.004h-3.296v1.635L300.885,19.653z M306.816,19.653v2.03h-5.405v-9.229h2.106
			v7.198L306.816,19.653z M308.922,12.455h2.31l2.044,6.79l2.044-6.79h2.307l-3.006,9.229h-2.689L308.922,12.455z M323.554,19.653
			v2.03h-5.801v-9.229h5.735v2.03h-3.626v1.529h3.296v2.004h-3.296v1.635L323.554,19.653L323.554,19.653z M327.19,18.651h-1.004
			v3.032h-2.107v-9.229h3.689c1.743-0.004,3.159,1.404,3.163,3.147c0,0.005,0,0.011,0,0.017c0,1.134-0.686,2.162-1.698,2.677
			l1.965,3.388h-2.271L327.19,18.651z M326.188,16.806h1.581c0.579,0,1.057-0.514,1.057-1.187c0-0.672-0.478-1.187-1.057-1.187
			h-1.581V16.806z M333.634,12.455v9.229h-2.106v-9.229H333.634z M336.665,14.485v1.78h3.428v2.03h-3.428v3.388h-2.109v-9.229h5.604
			v2.03L336.665,14.485z M342.86,12.455v9.229h-2.109v-9.229H342.86z M343.386,17.069c0-2.716,2.02-4.799,4.8-4.799
			c1.677,0,3.15,0.831,3.954,2.136l-1.816,1.055c-0.408-0.712-1.199-1.134-2.138-1.134c-1.636,0-2.688,1.095-2.688,2.742
			c0,1.648,1.055,2.742,2.688,2.742c0.938,0,1.739-0.422,2.138-1.134l1.816,1.055c-0.791,1.306-2.268,2.136-3.954,2.136
			C345.403,21.868,343.386,19.785,343.386,17.069z M357.873,20.233h-3.428l-0.462,1.45h-2.31l3.141-9.229h2.688l3.138,9.229h-2.307
			L357.873,20.233z M357.24,18.256l-1.081-3.388l-1.081,3.388H357.24z M366.308,14.485h-2.372v7.198h-2.107v-7.198h-2.373v-2.03
			h6.854L366.308,14.485L366.308,14.485z M368.679,12.455v9.229h-2.106v-9.229H368.679z M369.206,17.069
			c0-2.716,2.147-4.799,4.799-4.799s4.799,2.083,4.799,4.799c0,2.716-2.146,4.799-4.799,4.799
			C371.354,21.868,369.206,19.785,369.206,17.069z M376.694,17.069c0-1.647-1.188-2.742-2.689-2.742s-2.688,1.095-2.688,2.742
			c0,1.648,1.187,2.742,2.688,2.742S376.694,18.718,376.694,17.069z M386.578,12.455v9.229h-1.582l-3.562-5.01v5.01h-2.107v-9.229
			h1.582l3.56,5.01v-5.01H386.578z"/>
	</g>
	<path fill="#FFFFFF" d="M248.302,122.533c0,2.61-1.938,4.614-4.479,4.614h-3.691v-9.229h3.691
		C246.364,117.919,248.302,119.923,248.302,122.533z M246.271,122.533c0-1.582-1.002-2.584-2.451-2.584h-1.582v5.168h1.582
		C245.27,125.117,246.271,124.115,246.271,122.533z M255.287,125.117v2.03h-5.801v-9.229h5.732v2.03h-3.626v1.529h3.296v2.004
		h-3.296v1.635L255.287,125.117z M256.009,122.533c0-2.716,2.019-4.8,4.8-4.8c1.676,0,3.15,0.832,3.955,2.137l-1.818,1.055
		c-0.407-0.712-1.198-1.134-2.137-1.134c-1.636,0-2.688,1.095-2.688,2.742s1.055,2.741,2.688,2.741c0.938,0,1.739-0.422,2.137-1.133
		l1.818,1.055c-0.791,1.306-2.269,2.136-3.955,2.136C258.025,127.332,256.009,125.249,256.009,122.533L256.009,122.533z
		 M271.55,125.117v2.03h-5.801v-9.229h5.735v2.03h-3.627v1.529h3.297v2.004h-3.297v1.635L271.55,125.117L271.55,125.117z
		 M279.986,117.919v9.229h-1.582l-3.563-5.01v5.01h-2.107v-9.229h1.582l3.561,5.01v-5.01H279.986z M287.761,119.949h-2.372v7.198
		h-2.107v-7.198h-2.373v-2.03h6.854L287.761,119.949L287.761,119.949L287.761,119.949z M291.792,124.115h-1.002v3.032h-2.108v-9.229
		h3.69c1.743-0.004,3.16,1.406,3.164,3.149c0,0.006,0,0.01,0,0.015c0,1.134-0.688,2.162-1.7,2.677l1.964,3.389h-2.269
		L291.792,124.115L291.792,124.115z M290.79,122.271h1.582c0.58,0,1.055-0.515,1.055-1.188c0-0.672-0.475-1.188-1.055-1.188h-1.582
		V122.271z M302.191,125.697h-3.43l-0.461,1.45h-2.308l3.138-9.229h2.689l3.138,9.229h-2.308L302.191,125.697L302.191,125.697z
		 M301.559,123.72l-1.08-3.388l-1.08,3.388H301.559L301.559,123.72z M311.154,125.117v2.03h-5.405v-9.229h2.109v7.198
		L311.154,125.117z M314.184,117.919v9.229h-2.106v-9.229H314.184z M321.764,125.117v2.03h-6.328v-1.635l3.533-5.563h-3.468v-2.03
		h6.196v1.635l-3.533,5.563H321.764L321.764,125.117z M328.354,125.697h-3.43l-0.462,1.45h-2.307l3.138-9.229h2.689l3.138,9.229
		h-2.308L328.354,125.697L328.354,125.697z M327.72,123.72l-1.081-3.388l-1.081,3.388H327.72z M337.447,119.949h-2.373v7.198h-2.109
		v-7.198h-2.373v-2.03h6.855V119.949L337.447,119.949z M340.477,117.919v9.229h-2.106v-9.229H340.477z M341.663,122.533
		c0-2.716,2.146-4.8,4.799-4.8s4.799,2.084,4.799,4.8s-2.146,4.799-4.799,4.799S341.663,125.249,341.663,122.533z M349.151,122.533
		c0-1.647-1.188-2.742-2.689-2.742s-2.688,1.095-2.688,2.742s1.187,2.741,2.688,2.741S349.151,124.183,349.151,122.533z
		 M359.694,117.919v9.229h-1.582l-3.563-5.01v5.01h-2.106v-9.229h1.582l3.56,5.01v-5.01H359.694z"/>
	<path opacity="0.25" enable-background="new    " d="M201.614,17.736c0,7.811,6.332,14.14,14.144,14.14
		c7.809,0,14.139-6.329,14.139-14.14c0-7.809-6.33-14.139-14.139-14.139C207.945,3.597,201.614,9.927,201.614,17.736z
		 M201.614,70.335c0,7.812,6.332,14.141,14.144,14.141c7.809,0,14.139-6.329,14.139-14.141c0-7.809-6.33-14.138-14.139-14.138
		C207.945,56.197,201.614,62.526,201.614,70.335z M201.614,122.899c0,7.812,6.332,14.141,14.144,14.141
		c7.809,0,14.139-6.329,14.139-14.141c0-7.81-6.33-14.142-14.139-14.142C207.945,108.758,201.614,115.09,201.614,122.899z
		 M201.614,175.464c0,7.809,6.332,14.139,14.144,14.139c7.809,0,14.139-6.33,14.139-14.139c0-7.813-6.33-14.14-14.139-14.14
		C207.945,161.324,201.614,167.651,201.614,175.464z"/>
	<polygon fill="#FFFFFF" points="226.533,12.844 223.186,9.495 213.329,19.344 208.076,14.088 204.725,17.436 209.98,22.696 
		209.975,22.703 213.329,26.051 213.329,26.045 213.337,26.051 216.688,22.703 216.682,22.696 	"/>
	
		<rect x="211.451" y="118.381" transform="matrix(0.7072 0.707 -0.707 0.7072 149.9138 -116.6183)" fill="#FFFFFF" width="8.585" height="8.585"/>
	<polygon fill="#FFFFFF" points="215.757,111.708 211.876,115.588 219.637,115.588 	"/>
	<polygon fill="#FFFFFF" points="215.757,133.629 219.637,129.747 211.876,129.747 	"/>
	<polygon fill="#FFFFFF" points="222.834,118.788 222.834,126.551 226.717,122.668 	"/>
	<polygon fill="#FFFFFF" points="208.68,126.551 208.68,118.788 204.796,122.668 	"/>
	<path fill="#333333" d="M138.607,17.336v2.696c23.679,17.568,39.058,45.721,39.058,77.403c0,31.681-15.379,59.832-39.058,77.399
		v2.696c24.949-17.896,41.256-47.119,41.256-80.096S163.558,35.232,138.607,17.336z"/>
	
		<linearGradient id="SVGID_6_" gradientUnits="userSpaceOnUse" x1="920.6904" y1="1203.6289" x2="1070.9902" y2="1203.6289" gradientTransform="matrix(6.123234e-017 1 1 -6.123234e-017 -1123.4365 -900.1729)">
		<stop  offset="0" style="stop-color:#000000;stop-opacity:0"/>
		<stop  offset="1" style="stop-color:#000000"/>
	</linearGradient>
	<path opacity="0.2" fill="url(#SVGID_6_)" enable-background="new    " d="M155.341,95.669c0-41.504-33.646-75.152-75.146-75.152
		c-41.508,0-75.151,33.648-75.151,75.152c0,41.503,33.646,75.148,75.151,75.148C121.694,170.817,155.341,137.172,155.341,95.669z
		 M16.517,95.669c0-35.17,28.51-63.679,63.679-63.679c35.171,0,63.678,28.509,63.678,63.679c0,35.167-28.507,63.678-63.678,63.678
		C45.025,159.347,16.517,130.836,16.517,95.669z"/>
	
		<linearGradient id="SVGID_7_" gradientUnits="userSpaceOnUse" x1="-1296.6465" y1="1539.6875" x2="-1235.3955" y2="1539.6875" gradientTransform="matrix(6.123234e-017 -1 -1 -6.123234e-017 1619.9072 -1203.0225)">
		<stop  offset="0" style="stop-color:#FFFFFF;stop-opacity:0"/>
		<stop  offset="1" style="stop-color:#FFFFFF"/>
	</linearGradient>
	<path opacity="0.5" fill="url(#SVGID_7_)" enable-background="new    " d="M80.219,32.373c-33.823,0-61.25,27.423-61.25,61.251
		h122.502C141.471,59.795,114.049,32.373,80.219,32.373z"/>
	<g>
		<circle fill="#333333" cx="78.479" cy="191.031" r="6.446"/>
		<path fill="#333333" d="M2.702,220.089h64.795c6.661,0,12.082-5.417,12.082-12.078v-23.355h-2.198v23.355
			c0,5.449-4.436,9.885-9.884,9.885H2.702V220.089z"/>
		<path fill="#333333" d="M3.104,219.05l5.949,5.951l-1.552,1.552l-5.95-5.95L0,219.05l1.551-1.552l5.95-5.952l1.552,1.553
			L3.104,219.05z"/>
	</g>
	<g>
		<path fill="#FFFFFF" d="M244.595,179.464h-3.483l-0.469,1.475h-2.345l3.188-9.379h2.733l3.188,9.379h-2.345L244.595,179.464z
			 M243.951,177.454l-1.099-3.443l-1.099,3.443H243.951z"/>
		<path fill="#FFFFFF" d="M250.97,177.856h-1.019v3.082h-2.144v-9.379h3.751c1.782,0,3.216,1.434,3.216,3.215
			c0,1.152-0.696,2.197-1.729,2.721l1.996,3.443h-2.304L250.97,177.856z M249.951,175.981h1.607c0.59,0,1.072-0.523,1.072-1.207
			c0-0.682-0.482-1.205-1.072-1.205h-1.607V175.981z"/>
		<path fill="#FFFFFF" d="M261.738,173.624h-2.411v7.314h-2.144v-7.314h-2.412v-2.064h6.967V173.624z"/>
		<path fill="#FFFFFF" d="M264.416,171.56v9.379h-2.144v-9.379H264.416z"/>
		<path fill="#FFFFFF" d="M267.764,173.624v1.809h3.483v2.063h-3.483v3.443h-2.144v-9.379h5.694v2.064H267.764z"/>
		<path fill="#FFFFFF" d="M274.327,171.56v9.379h-2.144v-9.379H274.327z"/>
		<path fill="#FFFFFF" d="M275.13,176.249c0-2.76,2.05-4.877,4.876-4.877c1.701,0,3.202,0.844,4.02,2.17l-1.849,1.072
			c-0.416-0.723-1.22-1.152-2.171-1.152c-1.661,0-2.732,1.113-2.732,2.787s1.071,2.787,2.732,2.787c0.951,0,1.769-0.43,2.171-1.152
			l1.849,1.072c-0.804,1.326-2.305,2.17-4.02,2.17C277.18,181.126,275.13,179.009,275.13,176.249z"/>
		<path fill="#FFFFFF" d="M286.77,171.56v9.379h-2.144v-9.379H286.77z"/>
		<path fill="#FFFFFF" d="M293.468,179.464h-3.483l-0.469,1.475h-2.345l3.188-9.379h2.733l3.188,9.379h-2.345L293.468,179.464z
			 M292.824,177.454l-1.099-3.443l-1.099,3.443H292.824z"/>
		<path fill="#FFFFFF" d="M302.173,178.874v2.064h-5.493v-9.379h2.144v7.314H302.173z"/>
		<path fill="#FFFFFF" d="M307.797,171.56v9.379h-2.144v-9.379H307.797z"/>
		<path fill="#FFFFFF" d="M316.37,171.56v9.379h-1.607l-3.617-5.092v5.092h-2.144v-9.379h1.607l3.617,5.092v-5.092H316.37z"/>
		<path fill="#FFFFFF" d="M323.871,173.624h-2.411v7.314h-2.144v-7.314h-2.412v-2.064h6.967V173.624z"/>
		<path fill="#FFFFFF" d="M330.299,178.874v2.064h-5.895v-9.379h5.828v2.064h-3.685v1.553h3.35v2.037h-3.35v1.66H330.299z"/>
		<path fill="#FFFFFF" d="M336.595,178.874v2.064h-5.493v-9.379h2.144v7.314H336.595z"/>
		<path fill="#FFFFFF" d="M342.621,178.874v2.064h-5.493v-9.379h2.144v7.314H342.621z"/>
		<path fill="#FFFFFF" d="M345.299,171.56v9.379h-2.144v-9.379H345.299z"/>
		<path fill="#FFFFFF" d="M355.788,176.517c0,2.867-1.996,4.609-4.622,4.609c-2.947,0-5.063-2.17-5.063-4.863
			c0-2.721,2.156-4.891,4.916-4.891c1.796,0,3.31,0.885,4.1,2.145l-1.821,1.045c-0.389-0.617-1.233-1.1-2.291-1.1
			c-1.581,0-2.76,1.166-2.76,2.814c0,1.594,1.125,2.76,2.947,2.76c1.246,0,2.063-0.551,2.397-1.447h-2.505v-1.875h4.702V176.517z"/>
		<path fill="#FFFFFF" d="M362.483,178.874v2.064h-5.895v-9.379h5.828v2.064h-3.685v1.553h3.35v2.037h-3.35v1.66H362.483z"/>
		<path fill="#FFFFFF" d="M370.653,171.56v9.379h-1.607l-3.617-5.092v5.092h-2.144v-9.379h1.607l3.617,5.092v-5.092H370.653z"/>
		<path fill="#FFFFFF" d="M371.456,176.249c0-2.76,2.05-4.877,4.876-4.877c1.701,0,3.202,0.844,4.02,2.17l-1.849,1.072
			c-0.416-0.723-1.22-1.152-2.171-1.152c-1.661,0-2.732,1.113-2.732,2.787s1.071,2.787,2.732,2.787c0.951,0,1.769-0.43,2.171-1.152
			l1.849,1.072c-0.804,1.326-2.305,2.17-4.02,2.17C373.506,181.126,371.456,179.009,371.456,176.249z"/>
		<path fill="#FFFFFF" d="M386.847,178.874v2.064h-5.895v-9.379h5.828v2.064h-3.685v1.553h3.35v2.037h-3.35v1.66H386.847z"/>
	</g>
	<path fill="#FFFFFF" d="M225.655,66.392c-0.514-0.6-1.174-0.973-1.952-1.093c-1.079-0.156-2.021,0.16-2.819,0.903
		c-1.369-1.047-2.713-2.084-4.063-3.11c-0.162-0.12-0.129-0.241-0.1-0.393c0.262-1.224-0.488-2.482-1.688-2.828
		c-1.227-0.356-2.527,0.284-2.975,1.469c-0.45,1.183,0.082,2.513,1.225,3.058c0.885,0.413,1.734,0.301,2.548-0.245
		c1.378,1.059,2.759,2.116,4.131,3.183c0.074,0.055,0.082,0.22,0.077,0.331c-0.016,0.459-0.174,0.956-0.04,1.366
		c0.211,0.652-0.039,0.945-0.521,1.29c-1.062,0.76-2.077,1.576-3.123,2.378c-0.813-0.823-1.941-1.334-3.189-1.334
		c-2.479,0-4.487,2.009-4.487,4.487c0,2.479,2.009,4.488,4.487,4.488c2.478,0,4.488-2.009,4.488-4.488
		c0-0.854-0.252-1.644-0.666-2.323c0.085,0.125,0.173,0.245,0.252,0.376c-0.008-0.016-0.014-0.032-0.021-0.048
		c1.272-0.971,2.528-1.938,3.781-2.897c1.693,1.354,3.652,0.828,4.632-0.288C226.706,69.452,226.715,67.625,225.655,66.392z"/>
	<g>
		<path fill="#FFFFFF" d="M218.869,173.136c-0.895,0.11-1.611,0.853-1.74,1.798c-0.034,0.251-0.011,0.601-0.381,0.547
			c-0.385-0.056-0.293-0.395-0.255-0.669c0.239-1.615,1.584-2.515,3.601-2.244c-0.124-0.433-0.17-0.808-0.336-1.118
			c-0.231-0.434-0.656-0.643-1.152-0.688c-0.473-0.042-0.354,0.435-0.558,0.629c-0.026,0.023-0.038,0.068-0.065,0.078
			c-0.175,0.066-0.352,0.126-0.527,0.188c-0.001-0.179-0.029-0.365,0.004-0.539c0.029-0.163,0.159-0.311,0.182-0.473
			c0.066-0.492-0.31-0.918-0.805-0.945c-0.533-0.03-0.921,0.319-0.926,0.884c-0.013,1.451-0.006,2.902-0.006,4.354
			c0.001,1.606,0.004,3.214,0.002,4.821c0,0.434,0.213,0.722,0.604,0.871c0.362,0.139,0.682,0.032,0.927-0.262
			c0.259-0.312,0.3-0.653,0.086-1.006c-0.133-0.217-0.377-0.463-0.041-0.654c0.344-0.194,0.466,0.156,0.621,0.373
			c0.037,0.055,0.074,0.12,0.087,0.186c0.067,0.319,0.286,0.338,0.552,0.307c0.692-0.079,1.254-0.7,1.266-1.415
			c0.013-0.754-0.523-1.345-1.308-1.502c-0.172-0.034-0.311-0.228-0.465-0.346c0.191-0.094,0.429-0.309,0.567-0.258
			c0.534,0.194,1.038,0.474,1.621,0.754c0.721-0.503,1.028-1.444,0.677-2.358C220.754,173.543,219.851,173.011,218.869,173.136z"/>
		<path fill="#FFFFFF" d="M214.659,169.753c-0.292-0.044-0.689,0.076-0.922,0.268c-0.318,0.265-0.27,0.662-0.068,1.043
			c0.088,0.16,0.132,0.506,0.05,0.566c-0.281,0.203-0.468-0.036-0.609-0.268c-0.062-0.102-0.077-0.243-0.157-0.32
			c-0.12-0.114-0.28-0.268-0.418-0.264c-0.865,0.026-1.476,0.852-1.296,1.782c0.146-0.024,0.263-0.049,0.38-0.061
			c1.566-0.175,2.932,0.882,3.063,2.398c0.018,0.19-0.156,0.396-0.24,0.595c-0.13-0.166-0.343-0.316-0.375-0.499
			c-0.181-1.015-0.843-1.739-1.752-1.857c-0.99-0.129-1.892,0.395-2.238,1.301c-0.354,0.923-0.066,1.823,0.685,2.385
			c0.546-0.278,1.029-0.556,1.541-0.77c0.223-0.092,0.566-0.125,0.625,0.241c0.056,0.338-0.23,0.343-0.481,0.381
			c-0.638,0.105-1.064,0.476-1.229,1.108c-0.151,0.592,0.01,1.122,0.502,1.469c0.265,0.186,0.629,0.285,0.952,0.299
			c0.13,0.006,0.274-0.322,0.411-0.5c0.043-0.054,0.066-0.144,0.119-0.167c0.17-0.067,0.348-0.114,0.523-0.168
			c-0.002,0.18,0.063,0.402-0.018,0.536c-0.237,0.386-0.311,0.789,0.025,1.083c0.223,0.195,0.619,0.326,0.907,0.283
			c0.423-0.064,0.627-0.432,0.627-0.888c-0.003-3.042-0.002-6.084,0-9.126C215.267,170.171,215.059,169.814,214.659,169.753z"/>
		<path fill="#FFFFFF" d="M224.758,171.955v-1.777h-2.125v-2.036h-2.037v-2.123h-1.775v2.123h-0.972v-2.123h-1.776v2.123h-0.97
			v-2.123h-1.776v2.123h-0.972v-2.123h-1.775v2.123h-2.037v2.036h-2.125v1.777h2.125v0.97h-2.125v1.777h2.125v0.971h-2.125v1.777
			h2.125v0.97h-2.125v1.777h2.125v2.036h2.037v2.123h1.775v-2.123h0.972v2.123h1.776v-2.123h0.97v2.123h1.776v-2.123h0.972v2.123
			h1.775v-2.123h2.037v-2.036h2.125v-1.777h-2.125v-0.97h2.125v-1.777h-2.125v-0.971h2.125v-1.777h-2.125v-0.97H224.758z
			 M220.774,177.377c-0.091,0.08-0.162,0.252-0.149,0.372c0.142,1.408-0.633,2.35-2.063,2.505c-0.143,0.015-0.327,0.098-0.404,0.209
			c-0.693,1.027-1.546,1.155-2.559,0.336c-1.106,0.82-1.838,0.706-2.596-0.36c-0.064-0.09-0.211-0.172-0.319-0.171
			c-1.247,0.005-2.383-1.12-2.136-2.546c0.021-0.108-0.077-0.278-0.172-0.361c-1.464-1.287-1.47-3.044-0.021-4.346
			c0.109-0.098,0.19-0.311,0.173-0.456c-0.156-1.257,0.739-2.34,2.035-2.451c0.155-0.014,0.362-0.091,0.442-0.207
			c0.685-1.007,1.581-1.139,2.521-0.363c0.33-0.16,0.635-0.379,0.97-0.452c0.652-0.143,1.209,0.098,1.555,0.676
			c0.161,0.27,0.334,0.343,0.636,0.37c1.273,0.115,2.092,1.182,1.944,2.455c-0.015,0.133,0.061,0.324,0.161,0.415
			C222.277,174.342,222.27,176.044,220.774,177.377z"/>
	</g>
</g>
</svg>
