<?xml version="1.0" encoding="utf-8"?>
<!-- Generator: Adobe Illustrator 16.0.0, SVG Export Plug-In . SVG Version: 6.00 Build 0)  -->
<!DOCTYPE svg PUBLIC "-//W3C//DTD SVG 1.1//EN" "http://www.w3.org/Graphics/SVG/1.1/DTD/svg11.dtd">
<svg version="1.1" id="Layer_1" xmlns="http://www.w3.org/2000/svg" xmlns:xlink="http://www.w3.org/1999/xlink" x="0px" y="0px"
	 width="872.723px" height="531.246px" viewBox="0 0 872.723 531.246" enable-background="new 0 0 872.723 531.246"
	 xml:space="preserve">
<g>
	
		<linearGradient id="SVGID_1_" gradientUnits="userSpaceOnUse" x1="88.6309" y1="230.6621" x2="296.7227" y2="230.6621" gradientTransform="matrix(1 0 0 1 576 -159.5088)">
		<stop  offset="0" style="stop-color:#4B48BF"/>
		<stop  offset="1" style="stop-color:#A14B8A"/>
	</linearGradient>
	<path fill="url(#SVGID_1_)" d="M664.631,71.152c0,10.269,8.324,18.591,18.59,18.591h170.911c10.271,0,18.591-8.322,18.591-18.591
		s-8.317-18.589-18.591-18.589H683.221C672.956,52.563,664.631,60.884,664.631,71.152z"/>
	
		<linearGradient id="SVGID_2_" gradientUnits="userSpaceOnUse" x1="88.6309" y1="283.2236" x2="296.7227" y2="283.2236" gradientTransform="matrix(1 0 0 1 576 -159.5088)">
		<stop  offset="0" style="stop-color:#4B48BF"/>
		<stop  offset="1" style="stop-color:#A14B8A"/>
	</linearGradient>
	<path fill="url(#SVGID_2_)" d="M664.631,123.717c0,10.265,8.324,18.588,18.59,18.588h170.911c10.271,0,18.591-8.323,18.591-18.588
		c0-10.266-8.317-18.593-18.591-18.593H683.221C672.956,105.124,664.631,113.451,664.631,123.717z"/>
	
		<linearGradient id="SVGID_3_" gradientUnits="userSpaceOnUse" x1="88.6309" y1="335.7891" x2="296.7227" y2="335.7891" gradientTransform="matrix(1 0 0 1 576 -159.5088)">
		<stop  offset="0" style="stop-color:#4B48BF"/>
		<stop  offset="1" style="stop-color:#A14B8A"/>
	</linearGradient>
	<path fill="url(#SVGID_3_)" d="M664.631,176.278c0,10.266,8.324,18.591,18.59,18.591h170.911c10.271,0,18.591-8.325,18.591-18.591
		c0-10.266-8.317-18.587-18.591-18.587H683.221C672.956,157.691,664.631,166.012,664.631,176.278z"/>
	
		<linearGradient id="SVGID_4_" gradientUnits="userSpaceOnUse" x1="88.6309" y1="178.0986" x2="296.7227" y2="178.0986" gradientTransform="matrix(1 0 0 1 576 -159.5088)">
		<stop  offset="0" style="stop-color:#4B48BF"/>
		<stop  offset="1" style="stop-color:#A14B8A"/>
	</linearGradient>
	<path fill="url(#SVGID_4_)" d="M664.631,18.589c0,10.266,8.324,18.59,18.59,18.59h170.911c10.271,0,18.591-8.324,18.591-18.59
		C872.723,8.323,864.402,0,854.132,0H683.221C672.956,0,664.631,8.323,664.631,18.589z"/>
	<circle fill="#333333" cx="606.902" cy="18.589" r="6.447"/>
	<circle fill="#333333" cx="643.101" cy="71.152" r="6.447"/>
	<circle fill="#333333" cx="643.101" cy="123.716" r="6.447"/>
	<circle fill="#333333" cx="606.902" cy="176.278" r="6.447"/>
	<path fill="none" d="M664.631,18.589h-51.282"/>
	<path fill="#333333" d="M613.349,17.489h51.282v2.197h-51.282V17.489z"/>
	<path fill="none" d="M664.901,71.152h-15.354"/>
	<path fill="#333333" d="M649.547,70.057h15.354v2.195h-15.354V70.057z"/>
	<path fill="none" d="M664.901,123.716h-15.354"/>
	<path fill="#333333" d="M649.547,122.617h15.354v2.198h-15.354V122.617z"/>
	<path fill="none" d="M664.631,176.278h-51.282"/>
	<path fill="#333333" d="M613.349,175.18h51.282v2.198h-51.282V175.18z"/>
	
		<linearGradient id="SVGID_5_" gradientUnits="userSpaceOnUse" x1="-104.9854" y1="257.498" x2="49.9609" y2="257.498" gradientTransform="matrix(1 0 0 1 576 -159.5088)">
		<stop  offset="0" style="stop-color:#4B48BF"/>
		<stop  offset="1" style="stop-color:#4E48BD"/>
	</linearGradient>
	<circle fill="url(#SVGID_5_)" cx="548.488" cy="97.989" r="77.473"/>
	<path fill="#FFFFFF" d="M493.681,114.098h-3.164v9.598h-2.813v-9.598h-3.164v-2.707h9.141V114.098z M502.643,120.988v2.707h-7.73
		V111.39h7.646v2.707h-4.834v2.039h4.396v2.672h-4.396v2.18H502.643z M503.607,117.543c0-3.621,2.688-6.398,6.396-6.398
		c2.232,0,4.201,1.107,5.273,2.848l-2.43,1.406c-0.545-0.949-1.6-1.512-2.848-1.512c-2.18,0-3.586,1.459-3.586,3.656
		c0,2.197,1.406,3.656,3.586,3.656c1.248,0,2.32-0.563,2.848-1.512l2.43,1.406c-1.059,1.74-3.023,2.848-5.273,2.848
		C506.296,123.941,503.607,121.164,503.607,117.543L503.607,117.543z M526.085,111.391v12.305h-2.813v-4.887h-3.867v4.887h-2.813
		v-12.305h2.813v4.711h3.867v-4.711H526.085z M537.859,111.391v12.305h-2.109l-4.746-6.68v6.68h-2.813v-12.305h2.105l4.746,6.68
		v-6.68H537.859z M539.438,117.543c0-3.621,2.864-6.398,6.397-6.398s6.398,2.777,6.398,6.398s-2.865,6.398-6.398,6.398
		S539.438,121.164,539.438,117.543z M549.421,117.543c0-2.197-1.582-3.656-3.586-3.656s-3.586,1.459-3.586,3.656
		c0,2.197,1.582,3.656,3.586,3.656S549.421,119.74,549.421,117.543z M561.019,120.988v2.707h-7.206V111.39h2.813v9.598H561.019z
		 M561.016,117.543c0-3.621,2.865-6.398,6.398-6.398s6.398,2.777,6.398,6.398s-2.865,6.398-6.398,6.398
		S561.016,121.164,561.016,117.543z M571,117.543c0-2.197-1.582-3.656-3.586-3.656s-3.586,1.459-3.586,3.656
		c0,2.197,1.582,3.656,3.586,3.656S571,119.74,571,117.543z M587.573,117.895c0,3.762-2.619,6.047-6.064,6.047
		c-3.867,0-6.645-2.848-6.645-6.381c0-3.568,2.83-6.416,6.45-6.416c2.354,0,4.343,1.16,5.38,2.813l-2.395,1.371
		c-0.51-0.809-1.617-1.441-3.006-1.441c-2.074,0-3.621,1.529-3.621,3.691c0,2.092,1.479,3.621,3.867,3.621
		c1.635,0,2.707-0.721,3.146-1.898H581.4v-2.461h6.17L587.573,117.895L587.573,117.895z M591.962,111.391v12.305h-2.813v-12.305
		H591.962z M601.804,120.988v2.707h-7.73V111.39h7.646v2.707h-4.834v2.039h4.396v2.672h-4.396v2.18H601.804z M602.768,120.9
		l2.43-1.406c0.438,1.02,1.191,1.705,2.584,1.705c1.336,0,1.67-0.527,1.67-1.002c0-0.756-0.703-1.055-2.55-1.564
		c-1.827-0.51-3.62-1.389-3.62-3.744c0-2.373,2.004-3.744,4.131-3.744c2.021,0,3.604,0.967,4.5,2.777l-2.373,1.389
		c-0.422-0.879-1.002-1.424-2.127-1.424c-0.879,0-1.318,0.439-1.318,0.932c0,0.563,0.299,0.949,2.215,1.529
		c1.863,0.563,3.955,1.213,3.955,3.814c0,2.373-1.896,3.779-4.566,3.779C605.105,123.941,603.454,122.711,602.768,120.9z"/>
	<g>
		<path fill="#FFFFFF" d="M533.878,56.229c2.619,0,5.241,0.02,7.86-0.012c0.617-0.011,0.979,0.199,1.333,0.698
			c1.264,1.799,2.599,3.549,3.852,5.356c0.396,0.574,0.795,0.787,1.503,0.765c2.403-0.071,4.399,1.685,4.658,4
			c0.268,2.466-1.229,4.625-3.619,5.119c-1.725,0.354-3.254-0.107-4.436-1.438c-1.198-1.351-1.467-2.945-0.892-4.639
			c0.159-0.481,0.134-0.806-0.168-1.21c-1.018-1.369-2.016-2.752-2.995-4.149c-0.244-0.352-0.507-0.528-0.965-0.525
			c-3.437,0.02-6.873,0.02-10.309-0.006c-0.587-0.003-0.758,0.185-0.755,0.763c0.017,3.904,0.012,7.812,0.003,11.715
			c0,0.393,0.1,0.713,0.333,1.028c1.903,2.586,3.807,5.18,5.69,7.776c0.247,0.337,0.513,0.454,0.935,0.449
			c2.625-0.037,4.638,1.785,4.828,4.332c0.183,2.433-1.657,4.588-4.188,4.91c-3.388,0.427-6.03-3.066-4.746-6.317
			c0.202-0.51,0.153-0.841-0.158-1.266c-2.097-2.817-4.151-5.661-6.238-8.484c-0.26-0.33-0.396-0.738-0.391-1.157
			c0.018-5.611,0.021-11.22-0.009-16.832c-0.006-0.741,0.239-0.902,0.929-0.894C528.586,56.249,531.234,56.228,533.878,56.229z
			 M548.509,65.53c-1.229-0.008-2.229,0.965-2.229,2.181c0,1.19,0.957,2.158,2.151,2.182c1.212,0.037,2.224-0.916,2.261-2.126
			c0-0.009,0-0.018,0.001-0.026C550.712,66.495,549.765,65.537,548.509,65.53z M536.13,88.728c1.216-0.011,2.173-0.972,2.155-2.161
			c-0.014-1.211-1.03-2.215-2.229-2.201c-1.202,0.016-2.132,0.958-2.132,2.176C533.927,87.79,534.886,88.738,536.13,88.728z
			 M563.075,98.076c-2.674,0.006-5.342-0.008-8.013,0.017c-0.521,0.003-0.854-0.151-1.16-0.586
			c-1.364-1.944-2.773-3.855-4.146-5.788c-0.281-0.396-0.544-0.581-1.085-0.552c-2.038,0.117-3.854-1.136-4.541-3.033
			c-0.69-1.932-0.051-4.093,1.58-5.308c1.599-1.193,3.847-1.214,5.479-0.054c1.647,1.176,2.362,3.331,1.656,5.272
			c-0.223,0.618-0.146,1.035,0.233,1.538c0.993,1.325,1.962,2.668,2.906,4.028c0.266,0.378,0.55,0.558,1.031,0.555
			c3.409-0.017,6.817-0.017,10.23,0c0.575,0.005,0.773-0.168,0.771-0.757c-0.021-3.927-0.015-7.857-0.009-11.789
			c0-0.362-0.097-0.664-0.313-0.957c-1.956-2.642-3.901-5.292-5.834-7.95c-0.271-0.369-0.563-0.464-0.993-0.468
			c-2.491-0.029-4.447-1.916-4.55-4.359c-0.102-2.474,1.609-4.561,3.975-4.838c2.548-0.302,4.774,1.307,5.204,3.782
			c0.159,0.945,0.08,1.888-0.37,2.75c-0.216,0.416-0.143,0.709,0.122,1.065c2.097,2.818,4.166,5.651,6.266,8.465
			c0.297,0.397,0.432,0.79,0.432,1.288c-0.012,5.611-0.021,11.224,0.006,16.834c0.006,0.698-0.219,0.869-0.877,0.863
			C568.413,98.062,565.745,98.076,563.075,98.076L563.075,98.076z M548.49,88.728c1.224,0,2.218-0.989,2.203-2.199
			c-0.018-1.19-0.979-2.15-2.169-2.164c-1.23-0.017-2.228,0.937-2.238,2.164C546.271,87.742,547.256,88.728,548.49,88.728z
			 M560.97,65.53c-1.234-0.008-2.227,0.955-2.229,2.174c-0.003,1.206,0.973,2.186,2.179,2.189c0.012,0,0.022,0,0.034,0
			c1.198-0.001,2.188-0.969,2.194-2.134C563.154,66.518,562.195,65.537,560.97,65.53z"/>
		<path fill="#FFFFFF" d="M547.439,79.091c-1.608,0-3.221-0.026-4.82,0.013c-0.566,0.013-0.896-0.185-1.216-0.638
			c-1.295-1.836-2.647-3.633-3.945-5.472c-0.373-0.531-0.746-0.774-1.44-0.766c-2.426,0.026-4.33-1.817-4.541-4.29
			c-0.189-2.303,1.479-4.444,3.792-4.864c2.316-0.43,4.585,0.949,5.271,3.202c0.319,1.058,0.288,2.106-0.165,3.112
			c-0.182,0.418-0.146,0.714,0.12,1.076c1.015,1.372,2.005,2.761,2.972,4.166c0.29,0.421,0.618,0.551,1.107,0.549
			c3.243-0.019,6.479,0.001,9.72-0.02c0.572-0.006,0.945,0.148,1.29,0.632c1.301,1.836,2.664,3.627,3.971,5.46
			c0.352,0.487,0.688,0.698,1.327,0.678c2.438-0.068,4.492,1.808,4.669,4.165c0.193,2.585-1.439,4.652-3.981,5.042
			c-2.36,0.356-4.624-1.207-5.143-3.584c-0.19-0.911-0.171-1.831,0.216-2.693c0.199-0.447,0.125-0.769-0.155-1.145
			c-1.014-1.342-2-2.704-2.962-4.083c-0.295-0.413-0.614-0.558-1.112-0.552C550.752,79.107,549.096,79.091,547.439,79.091z
			 M560.954,88.728c1.204-0.005,2.209-0.989,2.194-2.151c-0.018-1.221-1.021-2.223-2.229-2.212
			c-1.194,0.004-2.165,0.966-2.181,2.161c-0.008,1.209,0.968,2.196,2.178,2.202C560.929,88.728,560.941,88.728,560.954,88.728
			L560.954,88.728z M536.102,69.893c1.223-0.001,2.185-0.938,2.188-2.137c0.003-1.238-0.968-2.226-2.188-2.226
			c-1.24,0-2.188,0.965-2.172,2.215c-0.003,1.183,0.953,2.145,2.137,2.148C536.076,69.893,536.089,69.893,536.102,69.893z"/>
	</g>
	
		<linearGradient id="SVGID_6_" gradientUnits="userSpaceOnUse" x1="-489.3872" y1="474.6055" x2="-334.4409" y2="474.6055" gradientTransform="matrix(1 0 0 1 576 -159.5088)">
		<stop  offset="0" style="stop-color:#9B4B8D"/>
		<stop  offset="1" style="stop-color:#A14B8A"/>
	</linearGradient>
	<circle fill="url(#SVGID_6_)" cx="164.086" cy="315.096" r="77.473"/>
	<path fill="#FFFFFF" d="M121.907,331.207v2.373h4.57v2.707h-4.57v4.518h-2.813V328.5h7.471v2.707H121.907z M135.439,338.097v2.707
		h-7.207V328.5h2.813v9.598L135.439,338.097L135.439,338.097z M144.401,338.097v2.707h-7.734V328.5h7.646v2.707h-4.834v2.039h4.395
		v2.672h-4.395v2.18L144.401,338.097L144.401,338.097z M152.449,340.804l-2.074-3.551l-2.074,3.551h-3.199l3.674-6.311l-3.498-5.994
		h3.199l1.898,3.252l1.898-3.252h3.199l-3.498,5.994l3.674,6.311H152.449L152.449,340.804z M159.688,328.5v12.305h-2.813V328.5
		H159.688L159.688,328.5z M170.937,337.201c0,2.18-1.775,3.604-3.973,3.604h-5.168V328.5h4.816c2.145,0,3.885,1.389,3.885,3.516
		c0,1.021-0.404,1.828-1.072,2.408C170.339,335.003,170.937,335.953,170.937,337.201L170.937,337.201z M164.608,331.136v2.183h2.004
		c0.633,0,1.072-0.457,1.072-1.093c0-0.633-0.422-1.09-1.072-1.09H164.608z M168.124,336.99c0-0.688-0.457-1.183-1.16-1.183h-2.355
		v2.355h2.355C167.667,338.167,168.124,337.675,168.124,336.99z M175.152,328.5v12.305h-2.813V328.5H175.152L175.152,328.5z
		 M184.467,338.097v2.707h-7.207V328.5h2.813v9.598L184.467,338.097L184.467,338.097z M188.507,328.5v12.305h-2.813V328.5H188.507
		L188.507,328.5z M198.876,331.207h-3.164v9.598H192.9v-9.598h-3.164V328.5h9.141L198.876,331.207L198.876,331.207z
		 M205.993,336.076v4.729h-2.813v-4.729l-4.131-7.576h3.199l2.338,4.746l2.338-4.746h3.199L205.993,336.076z M187.236,283.667
		c-3.34-1.06-6.676-2.121-10.019-3.183c-0.851-0.271-1.708-0.528-2.682-0.832c0.114,0.315,0.179,0.509,0.253,0.688
		c0.396,0.977,0.769,1.955,1.196,2.918c0.177,0.404,0.071,0.574-0.29,0.768c-0.894,0.472-1.777,0.959-2.639,1.48
		c-5.688,3.469-9.728,8.279-11.926,14.594c-1.597,4.582-2.206,9.33-2.391,14.146h8.914c0.1-2.537,0.382-5.049,0.874-7.543
		c1.272-6.412,4.689-11.254,10.491-14.367c0.41-0.215,0.598-0.239,0.783,0.266c0.424,1.15,0.92,2.277,1.426,3.519
		c0.166-0.274,0.285-0.461,0.387-0.654c1.913-3.559,3.821-7.12,5.748-10.67c0.103-0.19,0.077-0.563,0.47-0.504v-0.496
		C187.631,283.753,187.426,283.729,187.236,283.667z M160.525,291.939c-0.569-0.627-1.096-1.287-1.688-1.896
		c-2.412-2.479-5.227-4.405-8.299-5.971c-0.501-0.259-0.555-0.5-0.325-0.951c0.179-0.353,0.311-0.722,0.458-1.082
		c0.302-0.752,0.604-1.506,0.902-2.267c-0.293-0.108-0.481,0.021-0.666,0.078c-2.861,0.865-5.714,1.75-8.578,2.604
		c-1.381,0.416-2.73,0.926-4.145,1.211v0.494c0.364-0.074,0.353,0.267,0.45,0.44c1.973,3.621,3.935,7.248,5.902,10.869
		c0.105,0.189,0.148,0.438,0.421,0.553c0.47-1.151,0.948-2.293,1.398-3.438c0.148-0.383,0.288-0.51,0.708-0.281
		c4.12,2.234,7.297,5.344,9.125,9.728c0.065,0.159,0.074,0.364,0.302,0.469c0.877-3.53,2.172-6.883,4.103-9.974
		C160.745,292.294,160.699,292.132,160.525,291.939L160.525,291.939z M158.018,274.105c0.484-0.017,0.612,0.119,0.609,0.604
		c-0.025,3.197-0.005,6.395-0.02,9.588c0,0.336,0.088,0.563,0.361,0.781c1.371,1.092,2.633,2.313,3.767,3.648
		c0.282,0.336,0.418,0.303,0.678-0.011c1.123-1.317,2.371-2.524,3.727-3.604c0.313-0.25,0.398-0.514,0.396-0.895
		c-0.014-3.176,0.003-6.352-0.02-9.523c-0.002-0.465,0.111-0.586,0.572-0.571c1.267,0.037,2.537,0.008,3.906,0.008
		c-0.222-0.28-0.367-0.475-0.518-0.661c-2.631-3.277-5.27-6.556-7.895-9.835c-0.114-0.142-0.37-0.248-0.262-0.518h-0.248
		c0.12,0.193-0.085,0.248-0.157,0.342c-2.5,3.042-5.005,6.075-7.499,9.12c-0.39,0.479-0.845,0.914-1.178,1.539
		C155.555,274.121,156.785,274.143,158.018,274.105L158.018,274.105z"/>
	
		<linearGradient id="SVGID_7_" gradientUnits="userSpaceOnUse" x1="-328.1641" y1="257.498" x2="-173.2178" y2="257.498" gradientTransform="matrix(1 0 0 1 576 -159.5088)">
		<stop  offset="0" style="stop-color:#4B48BF"/>
		<stop  offset="1" style="stop-color:#4E48BD"/>
	</linearGradient>
	<circle fill="url(#SVGID_7_)" cx="325.309" cy="97.989" r="77.473"/>
	<path fill="#FFFFFF" d="M274.021,117.543c0-3.621,2.689-6.398,6.398-6.398c2.232,0,4.201,1.107,5.273,2.848l-2.426,1.406
		c-0.545-0.949-1.6-1.512-2.848-1.512c-2.18,0-3.586,1.459-3.586,3.656c0,2.197,1.406,3.656,3.586,3.656
		c1.248,0,2.32-0.563,2.848-1.512l2.426,1.406c-1.055,1.74-3.023,2.848-5.273,2.848
		C276.711,123.941,274.021,121.164,274.021,117.543L274.021,117.543z M286.305,117.543c0-3.621,2.865-6.398,6.398-6.398
		c3.533,0,6.398,2.777,6.398,6.398s-2.865,6.398-6.398,6.398C289.17,123.941,286.305,121.164,286.305,117.543z M296.289,117.543
		c0-2.197-1.582-3.656-3.586-3.656s-3.586,1.459-3.586,3.656c0,2.197,1.582,3.656,3.586,3.656S296.289,119.74,296.289,117.543z
		 M312.984,123.695h-2.813v-7.154l-3.182,5.221h-0.316l-3.182-5.221v7.154h-2.813V111.39h2.813l3.34,5.467l3.34-5.467h2.813V123.695
		z M327.394,123.695h-2.813v-7.154l-3.182,5.221h-0.316l-3.182-5.221v7.154h-2.813V111.39h2.813l3.34,5.467l3.34-5.467h2.813
		V123.695L327.394,123.695z M329.411,119.723v-8.332h2.813v8.086c0,0.932,0.439,1.723,1.934,1.723c1.495,0,1.934-0.791,1.934-1.723
		v-8.086h2.813v8.332c0,2.637-2.039,4.219-4.746,4.219S329.411,122.359,329.411,119.723z M350.588,111.391v12.305h-2.109
		l-4.746-6.68v6.68h-2.813v-12.305h2.109l4.746,6.68v-6.68H350.588z M355.507,111.391v12.305h-2.813v-12.305H355.507z
		 M365.876,114.098h-3.164v9.598h-2.813v-9.598h-3.164v-2.707h9.141V114.098z M372.992,118.967v4.729h-2.813v-4.729l-4.131-7.576
		h3.199l2.338,4.746l2.338-4.746h3.199L372.992,118.967L372.992,118.967z M316.567,97.413v-0.575c0-4.664-0.017-9.324,0.003-13.984
		c0.02-4.248,2.673-7.519,6.768-8.39c3.47-0.742,7.276,1.063,8.939,4.222c0.697,1.325,0.991,2.728,0.982,4.228
		c-0.025,4.618-0.008,9.233-0.003,13.848v0.652L316.567,97.413z M333.555,78.311c1.44-0.474,2.758-0.336,4.017,0.269
		c2.023,0.971,3.197,2.614,3.263,4.84c0.103,3.462,0.034,6.928,0.034,10.389c0,0.088-0.034,0.177-0.063,0.302h-6.184v-0.729
		c0-2.988-0.031-5.976,0.011-8.965C334.66,82.325,334.617,80.263,333.555,78.311z M308.986,94.107
		c-0.012-0.216-0.034-0.393-0.034-0.569c-0.003-3.211,0.003-6.423-0.003-9.634c-0.014-2.984,2.01-5.335,4.86-5.785
		c0.777-0.125,1.591,0,2.44,0.01c-0.313,1.025-0.635,1.86-0.82,2.729c-0.154,0.72-0.202,1.478-0.205,2.218
		c-0.02,3.436-0.011,6.875-0.011,10.312v0.72L308.986,94.107L308.986,94.107z M330.235,67.6c-0.014,2.904-2.434,5.277-5.361,5.252
		c-2.927-0.02-5.264-2.408-5.244-5.355c0.023-2.947,2.426-5.342,5.315-5.301c2.95,0.028,5.318,2.442,5.291,5.392
		C330.235,67.592,330.235,67.596,330.235,67.6z M307.608,91.289h-4.046c-0.011-0.193-0.037-0.387-0.037-0.583
		c-0.011-2.169-0.012-4.339-0.003-6.508c0.008-2.42,1.731-4.146,4.139-4.146c0.273,0,0.547,0.126,0.92,0.216
		c-0.794,1.362-0.994,2.766-0.982,4.224c0.023,2.01,0.009,4.024,0.009,6.035V91.289L307.608,91.289z M342.229,91.292v-6.426
		c0-2.442,0-2.442-0.894-4.583c1.455-0.695,4.026,0.202,4.771,2.481c0.125,0.379,0.185,0.799,0.191,1.194
		c0.017,2.306,0.011,4.609,0.009,6.914c0,0.132-0.029,0.26-0.051,0.42H342.229z M318.287,73.015c0.004,1.975-1.592,3.58-3.567,3.588
		c-1.979,0.016-3.621-1.636-3.605-3.634c0.011-1.947,1.66-3.562,3.622-3.54c1.961-0.001,3.552,1.588,3.552,3.55
		C318.287,72.991,318.287,73.003,318.287,73.015z M331.565,73.097c-0.054-2.019,1.509-3.633,3.547-3.668
		c1.961-0.036,3.582,1.539,3.641,3.529c0.051,1.924-1.549,3.577-3.542,3.648C333.273,76.676,331.616,75.08,331.565,73.097z
		 M342.343,73.83c1.329-0.008,2.412,1.062,2.42,2.39c0,0.006,0,0.012,0,0.017c-0.007,1.336-1.096,2.415-2.432,2.408
		c0,0-0.001,0-0.002,0c-1.301-0.019-2.377-1.09-2.394-2.383C339.918,74.945,341.011,73.84,342.343,73.83z M305.114,76.254
		c-0.008-1.357,1.039-2.42,2.389-2.424c1.304-0.011,2.369,1.037,2.38,2.34c0,0.003,0,0.007,0,0.01
		c0.017,1.368-1.005,2.443-2.343,2.465c-1.315,0.024-2.401-1.022-2.426-2.337C305.114,76.29,305.114,76.272,305.114,76.254
		L305.114,76.254z"/>
	
		<linearGradient id="SVGID_8_" gradientUnits="userSpaceOnUse" x1="1396.1064" y1="-197.6699" x2="1549.2266" y2="-197.6699" gradientTransform="matrix(6.123234e-017 1 -1 6.123234e-017 238.2598 -1197.3213)">
		<stop  offset="0" style="stop-color:#4B48BF"/>
		<stop  offset="1" style="stop-color:#A14B8A"/>
	</linearGradient>
	<path fill="url(#SVGID_8_)" d="M605.622,254.951h-15.049l2.546,2.551H486.365l5.88-10.189c1.14,0.684,2.442,1.046,3.771,1.05
		c4.097,0,7.416-3.32,7.416-7.416c0-0.001,0-0.002,0-0.003c0.002-4.09-3.313-7.407-7.402-7.408c-0.004,0-0.009,0-0.014,0
		c-4.021,0-7.309,3.214-7.396,7.237h-32.526l-9.976-17.287l-6.28-10.873c2.297-1.32,3.714-3.767,3.715-6.417
		c0-4.094-3.322-7.411-7.417-7.411c-4.093-0.004-7.415,3.312-7.419,7.405c0,0.002,0,0.004,0,0.006
		c0.002,2.648,1.416,5.094,3.709,6.417l-6.271,10.873l-9.984,17.287h-32.507c-0.012-4.086-3.33-7.391-7.416-7.388
		c-4.093,0-7.411,3.318-7.411,7.411c0,0.001,0,0.001,0,0.002c-0.002,4.091,3.313,7.409,7.403,7.411c0.002,0,0.005,0,0.008,0
		c1.306,0.001,2.588-0.344,3.718-0.999l5.945,10.292H278.737l2.551-2.551h-15.052V270l2.551-2.547v15.84l-2.551-2.551v15.055
		l15.052-0.006l-2.599-2.6l107.222-0.004l-5.882,10.192c-1.142-0.688-2.449-1.049-3.781-1.047c-4.091-0.002-7.409,3.313-7.411,7.405
		c0,0.001,0,0.003,0,0.005c-0.002,4.095,3.315,7.416,7.41,7.418c0,0,0,0,0.001,0c4.029,0,7.32-3.218,7.411-7.246h12.555
		l19.958,0.004l9.984,17.285l6.271,10.873c-2.294,1.322-3.707,3.769-3.709,6.416c0.002,4.095,3.323,7.413,7.418,7.412
		c0.001,0,0.001,0,0.001,0c4.095,0,7.417-3.32,7.417-7.412c-0.001-2.649-1.417-5.098-3.715-6.416l6.277-10.873l9.979-17.291
		l19.967,0.006l12.552-0.006c0.088,4.094,3.479,7.341,7.571,7.252c3.979-0.086,7.18-3.297,7.254-7.275
		c0.001-4.094-3.315-7.413-7.409-7.413c-0.003,0-0.005,0-0.007,0c-1.308,0.002-2.59,0.35-3.719,1.008l-5.938-10.297h106.807
		l-2.6,2.604l15.049-0.004v-15.052l-2.542,2.554l-0.006-15.84l2.548,2.547L605.622,254.951L605.622,254.951L605.622,254.951
		L605.622,254.951z M599.25,267.453v21.916H479.743l3.311,5.734l5.941,10.293l0.407,0.694H453.89l-1.102,1.91l-9.984,17.293
		l-6.271,10.869l-0.396,0.684l-0.396-0.684l-6.28-10.869l-9.979-17.293l-1.104-1.91h-35.502l0.464-0.807l5.876-10.187l3.308-5.733
		H272.61l0.002-6.076v-15.84l-0.002-6.125h119.922l-3.313-5.737l-5.936-10.289l-0.407-0.703h35.505l1.104-1.913l9.979-17.287
		l6.28-10.873l0.396-0.683l0.396,0.683l6.271,10.873l9.984,17.287l1.102,1.913h35.514l-0.479,0.809l-5.873,10.184l-3.311,5.737
		H599.25V267.453L599.25,267.453z M502.235,272.667c0,3.765-3.029,6.799-6.938,6.799h-2.972v6.229h-4.539v-19.826h7.511
		C499.206,265.869,502.235,268.898,502.235,272.667L502.235,272.667z M497.703,272.667c0-1.442-1.022-2.545-2.406-2.551h-2.972v5.1
		h2.972C496.68,275.216,497.703,274.115,497.703,272.667z M505.489,275.783c0-5.834,4.618-10.31,10.313-10.31
		c5.688,0,10.308,4.476,10.308,10.31c0,5.836-4.615,10.313-10.308,10.313C510.107,286.093,505.489,281.619,505.489,275.783z
		 M521.577,275.783c0-3.539-2.551-5.891-5.776-5.891c-3.229,0-5.776,2.352-5.776,5.891c0,3.541,2.547,5.893,5.776,5.893
		C519.026,281.675,521.577,279.324,521.577,275.783z M542.251,281.337l-0.003,4.356h-11.609v-19.825h4.532v15.468L542.251,281.337
		L542.251,281.337z M550.736,265.869v19.826h-4.524v-19.826H550.736z M555.274,275.779c0-5.83,4.333-10.306,10.309-10.306
		c3.599,0,6.771,1.778,8.498,4.589l-3.903,2.266c-0.885-1.531-2.582-2.438-4.595-2.438c-3.516,0-5.776,2.354-5.776,5.891
		c0,3.541,2.27,5.895,5.776,5.895c2.013,0,3.741-0.904,4.595-2.438l3.903,2.266c-1.696,2.809-4.868,4.59-8.498,4.59
		C559.607,286.093,555.274,281.619,555.274,275.779L555.274,275.779z M590.646,281.337v4.356H578.18v-19.825h12.324v4.364h-7.798
		v3.285l7.089-0.002v4.305h-7.089v3.517H590.646L590.646,281.337z M281.914,275.479c0-5.836,4.333-10.31,10.309-10.31
		c3.599,0,6.776,1.782,8.496,4.586l-3.906,2.267c-0.877-1.527-2.576-2.435-4.583-2.435c-3.513,0-5.782,2.349-5.782,5.89
		c0,3.543,2.269,5.896,5.782,5.896c2.007,0,3.735-0.908,4.583-2.438l3.909,2.269c-1.697,2.803-4.871,4.586-8.499,4.586
		C286.247,285.787,281.914,281.314,281.914,275.479L281.914,275.479z M309.527,278.88h-2.152v6.511h-4.533v-19.826h7.929
		c3.745-0.012,6.79,3.015,6.801,6.759c0,0.011,0,0.021,0,0.033c0,2.44-1.475,4.647-3.653,5.758l4.216,7.275l-4.871,0.006
		L309.527,278.88z M307.375,274.908h3.396c1.252,0.006,2.269-1.102,2.269-2.545s-1.016-2.549-2.269-2.549h-3.396V274.908
		L307.375,274.908z M329.182,277.771v7.625l-4.535-0.006l0.005-7.615l-6.659-12.211h5.156l3.769,7.65l3.767-7.65h5.153
		L329.182,277.771z M351.98,272.357c0,3.771-3.035,6.801-6.941,6.801h-2.978l0.006,6.232l-4.53,0.006v-19.833h7.502
		C348.946,265.564,351.98,268.593,351.98,272.357L351.98,272.357z M347.451,272.363c0-1.443-1.022-2.549-2.411-2.549h-2.972v5.094
		h2.972C346.426,274.908,347.445,273.807,347.451,272.363L347.451,272.363z M367.271,269.923h-5.099v15.474h-4.532v-15.474h-5.096
		v-4.359h14.728L367.271,269.923z M367.269,275.479c0-5.836,4.621-10.31,10.312-10.31c5.688,0,10.309,4.474,10.309,10.312
		c0,5.836-4.621,10.309-10.309,10.309C371.889,285.787,367.269,281.314,367.269,275.479L367.269,275.479z M383.359,275.48
		c0-3.545-2.551-5.896-5.779-5.896c-3.231,0-5.779,2.351-5.779,5.892c0,3.543,2.548,5.895,5.779,5.895
		C380.806,281.371,383.359,279.02,383.359,275.48z M392.692,288.234l4.83-12.754l-4.83-12.756l7.359,12.756L392.692,288.234z
		 M479.362,262.598l-4.832,12.751l4.832,12.76L472,275.35L479.362,262.598L479.362,262.598z M435.542,228.893l0.629-1.09l0.626,1.09
		l9.984,17.287l2.615,4.53c-3.945-2.087-8.446-3.277-13.229-3.277s-9.278,1.19-13.224,3.277l2.615-4.53L435.542,228.893z
		 M394.989,251.578l0.632,1.084l9.979,17.291l2.292,3.965c0.615-9.468,5.871-17.667,13.523-22.339h-25.167L394.989,251.578z
		 M416.208,299.126h3.88c-7.137-4.924-11.896-13.03-12.236-22.272l-2.252,3.899l-9.979,17.283l-0.632,1.09H416.208L416.208,299.126z
		 M446.781,304.525l1.906-3.31c-3.895,1.923-8.179,2.919-12.521,2.914c-4.489,0-8.74-1.051-12.518-2.914l1.909,3.31l9.979,17.284
		l0.629,1.091l0.626-1.091L446.781,304.525z M477.349,299.126l-0.629-1.09l-9.976-17.283l-2.255-3.899
		c-0.343,9.24-5.104,17.352-12.236,22.272H477.349L477.349,299.126z M477.349,251.578h-26.423
		c7.653,4.672,12.908,12.874,13.521,22.343l2.297-3.969l9.976-17.291L477.349,251.578z M441.29,272.855h-10.343v-4.269h10.343
		c1.281,0,2.101,0.896,2.101,2.136C443.391,271.966,442.531,272.855,441.29,272.855z M444.256,280.05c0,1.345-0.896,2.31-2.277,2.31
		H430.95v-4.613h11.028C443.359,277.744,444.256,278.707,444.256,280.05z M436.17,252.537c-12.823,0-23.251,10.428-23.251,23.246
		c0,12.824,10.428,23.254,23.251,23.254c12.82,0,23.251-10.43,23.251-23.254C459.421,262.965,448.99,252.537,436.17,252.537z
		 M441.979,287.518h-0.825v4.477h-4.068v-4.477h-2.053v4.477h-4.063v-4.473h-8.107v-5.138h2.579V268.58h-2.579v-5.153h8.107v-4.467
		h4.063v4.467h2.053v-4.467h4.068v4.467h0.14c4.199,0,7.61,2.726,7.61,6.888c0,1.996-0.792,3.582-2.104,4.713
		c1.793,1.143,2.961,2.992,2.961,5.438C449.759,284.732,446.286,287.518,441.979,287.518L441.979,287.518z"/>
	
		<linearGradient id="SVGID_9_" gradientUnits="userSpaceOnUse" x1="-328.4971" y1="613.2813" x2="-173.5518" y2="613.2813" gradientTransform="matrix(1 0 0 1 576 -159.5088)">
		<stop  offset="0" style="stop-color:#9B4B8D"/>
		<stop  offset="1" style="stop-color:#A14B8A"/>
	</linearGradient>
	<path fill="url(#SVGID_9_)" d="M247.503,453.771c0-42.783,34.685-77.474,77.471-77.474c42.787,0,77.474,34.688,77.474,77.474
		c0,42.786-34.688,77.475-77.474,77.475C282.188,531.246,247.503,496.56,247.503,453.771L247.503,453.771z"/>
	
		<linearGradient id="SVGID_10_" gradientUnits="userSpaceOnUse" x1="-106.585" y1="613.2813" x2="48.3652" y2="613.2813" gradientTransform="matrix(1 0 0 1 576 -159.5088)">
		<stop  offset="0" style="stop-color:#9B4B8D"/>
		<stop  offset="1" style="stop-color:#A14B8A"/>
	</linearGradient>
	<path fill="url(#SVGID_10_)" d="M469.415,453.771c0-42.783,34.688-77.474,77.472-77.474c42.79,0,77.479,34.688,77.479,77.474
		c0,42.786-34.688,77.475-77.479,77.475C504.102,531.246,469.415,496.56,469.415,453.771L469.415,453.771z"/>
	<path fill="#FFFFFF" d="M303.642,434.367c0.085,0.803,0.171,1.582,0.253,2.365c0.005,0.077,0.031,0.155,0.045,0.235
		c0.025,0.152-0.006,0.25-0.125,0.377c-0.424,0.447-0.868,0.896-1.212,1.4c-0.458,0.684-0.345,1.008,0.393,1.42
		c0.675,0.381,1.421,0.563,2.178,0.678c0.837,0.117,1.68,0.193,2.534,0.291c-2.693-6.772-2.209-13.176,2.067-19.094
		c2.966-4.109,7.052-6.582,12.057-7.428c10.776-1.82,20.829,5.813,21.987,16.772c0.444-0.307,0.876-0.588,1.29-0.895
		c0.771-0.572,1.512-1.176,2.073-1.963c0.145-0.201,0.256-0.42,0.361-0.646c0.131-0.289,0.074-0.545-0.171-0.764
		c-0.457-0.398-1.02-0.656-1.62-0.742c-0.615-0.086-0.9-0.393-1.088-0.963c-0.202-0.617-0.523-1.195-0.814-1.836
		c0.296,0.031,0.578,0.057,0.854,0.098c1.165,0.175,2.314,0.418,3.365,0.979c0.996,0.524,1.736,1.264,1.936,2.424
		c0.14,0.824-0.071,1.59-0.472,2.309c-0.575,1.021-1.398,1.816-2.298,2.541c-2.004,1.615-4.253,2.828-6.568,3.937
		c-2.861,1.371-5.822,2.488-8.837,3.475c-3.728,1.216-7.527,2.2-11.376,2.949c-2.317,0.447-4.641,0.832-6.989,1.021
		c-1.688,0.14-3.38,0.215-5.073,0.227c-1.868,0.012-3.727-0.154-5.515-0.768c-0.828-0.281-1.603-0.662-2.187-1.341
		c-0.922-1.063-0.999-2.237-0.436-3.481c0.396-0.879,1.02-1.599,1.726-2.234c0.407-0.377,0.845-0.715,1.275-1.063
		C303.38,434.548,303.514,434.46,303.642,434.367L303.642,434.367z M322.244,432.033h5.531c-0.119-2.082-0.239-4.131-0.358-6.207
		h-3.459c-0.39,0-0.78-0.008-1.173,0.006c-0.077,0.006-0.208,0.096-0.21,0.154c-0.085,0.841-0.157,1.683-0.216,2.524
		c-0.049,0.671-0.087,1.343-0.114,2.017C322.232,431.021,322.244,431.523,322.244,432.033L322.244,432.033z M308.499,432.041h4.495
		c0.088-2.104,0.381-4.164,0.919-6.215h-0.293c-1.034,0-2.064,0.006-3.092-0.006c-0.194-0.002-0.291,0.057-0.373,0.225
		c-0.566,1.178-1.011,2.398-1.271,3.678C308.732,430.478,308.63,431.244,308.499,432.041L308.499,432.041z M341.398,432.041
		c0-0.09,0.002-0.154-0.003-0.219c-0.174-2.043-0.732-3.98-1.617-5.824c-0.077-0.154-0.182-0.174-0.33-0.174
		c-1.022,0.006-2.036,0.004-3.063,0.004h-0.354c0.555,2.057,0.826,4.119,0.937,6.215
		C338.458,432.041,339.912,432.041,341.398,432.041L341.398,432.041z M308.542,434.509c0.023,0.209,0.037,0.377,0.054,0.549
		c0.2,1.885,0.729,3.719,1.563,5.418c0.077,0.158,0.162,0.228,0.35,0.228c1.036-0.016,2.078-0.004,3.118-0.004
		c0.085,0,0.17-0.017,0.285-0.021c-0.544-2.041-0.82-4.09-0.92-6.166C311.502,434.509,310.047,434.509,308.542,434.509
		L308.542,434.509z M329.865,425.839c0.117,2.078,0.229,4.139,0.347,6.201h4.308c-0.023-0.383-0.051-0.765-0.083-1.146
		c-0.13-1.64-0.421-3.264-0.868-4.848c-0.048-0.174-0.131-0.225-0.308-0.225c-1.068,0.008-2.132,0.006-3.197,0.006
		C329.996,425.828,329.922,425.837,329.865,425.839L329.865,425.839z M320.086,425.843c-0.042-0.006-0.088-0.016-0.131-0.016
		c-1.102-0.002-2.204,0-3.308-0.008c-0.188-0.002-0.225,0.094-0.262,0.235c-0.425,1.487-0.708,3.013-0.845,4.554
		c-0.046,0.469-0.077,0.944-0.111,1.426h4.313C319.855,429.962,319.972,427.908,320.086,425.843z M315.468,434.509
		c-0.1,1.115,0.546,5.133,0.968,6.01c1.196-0.198,2.4-0.403,3.584-0.608c-0.088-1.83-0.179-3.619-0.271-5.398
		C318.318,434.509,316.9,434.509,315.468,434.509z M322.193,434.511c0.08,1.648,0.156,3.252,0.239,4.914
		c1.668-0.428,3.334-0.864,4.999-1.307c0.071-0.021,0.165-0.146,0.168-0.229c0.048-1.016,0.085-2.03,0.123-3.051
		c0-0.104-0.012-0.211-0.017-0.328L322.193,434.511z M325.048,416.835l-0.143,0.014c-1.261,1.984-1.58,4.265-2.016,6.521h4.157
		c-0.043-0.258-0.077-0.49-0.114-0.717c-0.291-1.599-0.621-3.185-1.27-4.679C325.495,417.583,325.25,417.218,325.048,416.835z
		 M328.274,417.847c0.601,1.812,0.957,3.662,1.244,5.529h3.086C331.588,421.167,330.321,419.207,328.274,417.847z M320.433,423.38
		c0.291-1.871,0.655-3.729,1.242-5.537c-2.053,1.365-3.314,3.332-4.325,5.537H320.433z M330.079,437.302c0.063,0,0.094,0.011,0.12,0
		c1.367-0.465,2.729-0.932,4.097-1.397c0.06-0.021,0.134-0.092,0.137-0.144c0.037-0.41,0.06-0.826,0.085-1.235h-4.339
		C330.147,435.462,330.113,436.375,330.079,437.302L330.079,437.302z M311.784,423.398c0.982,0,1.893,0.002,2.801-0.013
		c0.063,0,0.154-0.104,0.188-0.182c0.39-0.803,0.732-1.625,1.147-2.412c0.373-0.695,0.82-1.344,1.247-2.041
		C315.05,419.91,313.282,421.435,311.784,423.398L311.784,423.398z M332.792,418.761c0.441,0.717,0.902,1.41,1.292,2.142
		c0.396,0.731,0.723,1.51,1.07,2.271c0.074,0.162,0.151,0.234,0.339,0.23c0.803-0.015,1.606-0.009,2.406-0.009
		c0.068,0,0.137-0.012,0.253-0.021C336.661,421.438,334.901,419.902,332.792,418.761L332.792,418.761z M336.968,434.841
		c0.242-0.1,0.479-0.199,0.777-0.315h-0.766c-0.012,0.092-0.023,0.159-0.031,0.233C336.946,434.773,336.957,434.791,336.968,434.841
		z M323.021,443.968c0.436,1.982,0.746,3.98,1.928,5.767c0.137-0.187,0.256-0.31,0.341-0.447c0.595-1.006,0.92-2.121,1.185-3.246
		c0.216-0.92,0.378-1.854,0.566-2.779c0.003-0.031-0.008-0.063-0.017-0.119c-0.12-0.014-0.236-0.02-0.35-0.028
		c3.208-0.896,6.38-1.906,9.535-3.123c-0.06,0.26-0.105,0.467-0.154,0.688c0.088,0.009,0.156,0.021,0.225,0.021
		c1.062,0,2.118-0.002,3.177,0.002c0.168,0,0.273-0.045,0.333-0.205c0.293-0.742,0.589-1.486,0.9-2.226
		c0.053-0.138,0.148-0.252,0.273-0.327c0.797-0.435,1.6-0.839,2.4-1.255c0.063-0.03,0.125-0.063,0.239-0.112
		c-0.413,2.406-1.302,4.705-2.614,6.764c-2.289,3.586-5.42,6.168-9.409,7.656c-8.042,2.983-16.253,0.076-20.8-5.267
		c0.387-0.022,0.757-0.049,1.119-0.077c0.618-0.048,1.233-0.101,1.851-0.138c0.118-0.002,0.233,0.035,0.328,0.105
		c0.931,0.809,1.93,1.518,3.015,2.109c0.023,0.008,0.048,0.014,0.071,0.022c-0.509-0.82-1.02-1.641-1.532-2.459
		c0.382-0.061,0.701-0.107,1.02-0.16c0.45-0.063,0.899-0.125,1.349-0.209c0.177-0.029,0.276,0.008,0.373,0.168
		c0.564,0.955,1.221,1.836,2.033,2.597c0.39,0.362,0.817,0.688,1.227,1.024l0.065-0.051c-0.104-0.332-0.229-0.66-0.31-0.998
		c-0.242-1.002-0.47-2.004-0.695-3.006c-0.014-0.066,0.048-0.209,0.091-0.219C321.529,444.275,322.275,444.123,323.021,443.968
		L323.021,443.968z M328.274,448.718c2.053-1.412,3.331-3.369,4.33-5.58h-3.066c-0.177,0.945-0.328,1.879-0.533,2.8
		C328.798,446.857,328.53,447.755,328.274,448.718z M338.167,443.125h-0.242c-0.808,0-1.62,0.002-2.431-0.006
		c-0.188-0.002-0.271,0.063-0.336,0.229c-0.49,1.274-1.118,2.491-1.873,3.627c-0.083,0.134-0.168,0.264-0.256,0.392
		c-0.085,0.125-0.179,0.244-0.271,0.367C334.887,446.628,336.737,445.052,338.167,443.125z"/>
	<g>
		<path fill="#FFFFFF" d="M565.961,433.884c0.003,10.521-8.532,19.06-19.066,19.064c-10.527,0.008-19.063-8.511-19.082-19.043
			c-0.021-10.543,8.528-19.09,19.089-19.082C557.434,414.833,565.95,423.349,565.961,433.884L565.961,433.884z M531.971,433.882
			c0,8.23,6.696,14.898,14.952,14.887c8.19-0.008,14.876-6.688,14.873-14.858c-0.006-8.248-6.696-14.937-14.924-14.912
			C538.639,419.013,531.974,425.675,531.971,433.882L531.971,433.882z M544.498,413.697c0-0.119-0.011-0.248,0-0.373
			c0.064-0.947-0.097-1.707-0.837-2.496c-1.54-1.646-1.192-4.303,0.55-5.762c1.72-1.438,4.305-1.25,5.782,0.42
			c1.515,1.711,1.415,4.297-0.271,5.809c-0.348,0.316-0.479,0.617-0.456,1.059c0.031,0.457,0.006,0.923,0.006,1.347
			C547.667,413.697,546.109,413.697,544.498,413.697z M546.892,410.64c1.312,0.001,2.376-1.058,2.384-2.367
			c-0.002-1.309-1.062-2.368-2.368-2.37c-1.31-0.021-2.386,1.023-2.406,2.333c0,0.002,0,0.005,0,0.007
			C544.487,409.566,545.551,410.634,546.892,410.64L546.892,410.64z"/>
		<path fill="#FFFFFF" d="M558.28,417.123c0.601-0.596,1.139-1.139,1.688-1.662c0.404-0.377,0.886-0.377,1.284,0.016
			c1.261,1.242,2.511,2.494,3.752,3.757c0.394,0.396,0.391,0.879,0.016,1.276c-0.517,0.543-1.049,1.068-1.611,1.646
			C562.004,420.193,560.269,418.49,558.28,417.123L558.28,417.123z M540.493,421.296c0.146,0.211,0.314,0.41,0.452,0.629
			c1.729,2.84,3.468,5.688,5.188,8.535c0.153,0.258,0.313,0.375,0.637,0.369c1.358-0.025,2.51,0.846,2.892,2.141
			c0.391,1.35-0.152,2.793-1.333,3.551c-1.115,0.705-2.582,0.599-3.553-0.271c-1.033-0.918-1.354-2.42-0.706-3.66
			c0.217-0.418,0.208-0.738,0.052-1.156c-1.213-3.146-2.409-6.307-3.604-9.463c-0.067-0.186-0.116-0.381-0.177-0.576
			C540.39,421.361,540.444,421.33,540.493,421.296L540.493,421.296z"/>
	</g>
	
		<linearGradient id="SVGID_11_" gradientUnits="userSpaceOnUse" x1="55.8418" y1="474.6055" x2="210.7861" y2="474.6055" gradientTransform="matrix(1 0 0 1 576 -159.5088)">
		<stop  offset="0" style="stop-color:#9B4B8D"/>
		<stop  offset="1" style="stop-color:#A14B8A"/>
	</linearGradient>
	<circle fill="url(#SVGID_11_)" cx="709.314" cy="315.096" r="77.472"/>
	<g>
		<path fill="#FFFFFF" d="M714.467,275.99c1.109-0.045,2.166,0.268,3.154,0.797c1.045,0.559,2.063,1.152,3.031,1.846
			c0.902,0.643,1.851,1.213,3.021,1.229c0.758,0.021,1.501-0.219,2.104-0.678c0.317-0.232,0.458-0.191,0.641,0.157
			c1.825,3.519,3.658,7.025,5.506,10.531c0.523,0.996,1.104,1.963,1.657,2.942c0.605,1.076,0.549,1.754-0.308,2.646
			c-1.616,1.685-3.241,3.36-4.875,5.028c-0.521,0.531-0.574,0.521-1.063-0.006c-4.611-5.094-9.229-10.18-13.842-15.274
			c-1.426-1.582-1.699-1.617-3.593-0.601c-2.646,1.418-5.313,2.804-7.973,4.201c-0.672,0.354-1.378,0.596-2.148,0.555
			c-0.942-0.047-1.641-0.61-1.816-1.555c-0.21-1.055,0.026-2.02,0.908-2.684c3.872-2.918,7.707-5.896,12.026-8.162
			C712.013,276.386,713.16,275.953,714.467,275.99L714.467,275.99z M740.98,291.268c0.049,0.442-0.174,0.791-0.523,0.989
			c-1.113,0.615-2.2,1.296-3.405,1.724c-0.772,0.272-1.198,0.1-1.585-0.646c-0.854-1.627-1.697-3.265-2.543-4.897
			c-1.659-3.215-3.325-6.437-4.984-9.65c-0.806-1.559-0.691-1.908,0.854-2.748c0.66-0.355,1.326-0.704,1.996-1.041
			c1.264-0.641,1.742-0.49,2.392,0.756c1.44,2.768,2.869,5.533,4.299,8.301c1.073,2.066,2.145,4.135,3.202,6.203
			C740.846,290.572,741.017,290.887,740.98,291.268L740.98,291.268z M679.292,291.658c-0.048-0.242,0.055-0.488,0.146-0.732
			c1.913-5.107,3.826-10.215,5.742-15.314c0.455-1.209,0.945-1.428,2.169-1.004c0.813,0.285,1.635,0.543,2.438,0.855
			c0.988,0.383,1.185,0.787,0.822,1.791c-0.739,2.063-1.519,4.111-2.283,6.168c-1.167,3.143-2.344,6.279-3.493,9.432
			c-0.207,0.568-0.601,0.938-1.027,1.303c-0.146,0.121-0.268,0.093-0.413,0.043c-1.093-0.396-2.193-0.762-3.271-1.192
			C679.495,292.75,679.276,292.313,679.292,291.658L679.292,291.658z"/>
		<path fill="#FFFFFF" d="M686.407,293.49c-0.022-0.449,0.146-0.811,0.285-1.178c1.754-4.662,3.514-9.324,5.274-13.984
			c0.134-0.363,0.269-0.742,0.532-1.045c0.604-0.686,1.461-0.717,2.104-0.02c0.787,0.854,1.714,1.344,2.895,1.219
			c0.678-0.07,1.31-0.316,1.913-0.625c1.188-0.604,2.354-1.252,3.559-1.818c1.41-0.666,2.886-0.965,4.407-0.355
			c0.157,0.063,0.313,0.131,0.459,0.215c0.281,0.15,0.7,0.318,0.669,0.613c-0.04,0.344-0.456,0.498-0.797,0.633
			c-0.282,0.109-0.59,0.133-0.886,0.07c-1.35-0.275-2.619-0.039-3.823,0.57c-0.892,0.445-1.751,0.949-2.631,1.402
			c-1.478,0.758-3.001,1.186-4.66,0.664c-0.611-0.189-1.181-0.494-1.677-0.896c-0.376-0.313-0.559-0.293-0.737,0.205
			c-1.419,3.848-2.851,7.689-4.294,11.529c-0.242,0.647-0.518,1.287-0.771,1.932c-0.229,0.574-0.149,1.078,0.291,1.549
			c1.171,1.252,2.31,2.533,3.481,3.773c0.287,0.309,0.287,0.479-0.003,0.771c-0.794,0.806-0.773,0.815-1.534-0.043
			c-1.193-1.356-2.391-2.712-3.591-4.063C686.589,294.273,686.336,293.93,686.407,293.49L686.407,293.49z M713.556,312.599
			c0.26-1.19,0.611-1.489,1.729-1.463c0.354,0.015,0.663-0.108,0.932-0.336c1.064-0.896,1.263-2.477,0.378-3.539
			c-1.218-1.461-2.438-2.918-3.746-4.297c-0.547-0.573-0.311-1.146-0.313-1.733c0-0.191,0.188-0.15,0.305-0.125
			c0.386,0.088,0.74,0.205,1.025,0.526c1.436,1.618,2.881,3.228,4.335,4.828c0.269,0.293,0.538,0.588,0.84,0.84
			c0.764,0.65,1.609,0.777,2.278,0.373c0.809-0.492,1.286-1.57,1.102-2.473c-0.117-0.546-0.339-1.035-0.715-1.447
			c-1.396-1.549-2.768-3.129-4.205-4.642c-0.495-0.522-0.489-1.061-0.287-1.604c0.199-0.524,0.636-0.082,0.962-0.084
			c0.108,0,0.236,0.168,0.345,0.274c1.604,1.794,3.204,3.597,4.813,5.39c0.236,0.267,0.473,0.535,0.74,0.771
			c1.136,1.027,2.175,0.94,3.107-0.271c0.421-0.537,0.834-1.063,1.375-1.48c0.349-0.272,0.404-0.156,0.453,0.197
			c0.281,2.021-1.142,3.771-3.233,3.709c-1.164-0.031-1.854,0.328-2.313,1.334c-0.147,0.32-0.396,0.603-0.611,0.877
			c-1.03,1.336-1.937,1.636-3.548,1.105c-0.44-0.146-0.587-0.084-0.721,0.377c-0.373,1.311-0.993,2.451-2.448,2.844
			C715.278,312.787,714.421,312.568,713.556,312.599L713.556,312.599z M703.338,311.154c-1.229,0.006-2.241-1.205-2.173-2.523
			c0.04-0.703,0.285-1.313,0.789-1.813c1.491-1.48,3.074-2.877,4.657-4.264c1.122-0.974,2.567-0.603,3.334,0.68
			c0.733,1.242,0.156,2.223-0.604,3.073c-1.427,1.605-3.077,2.98-4.721,4.355C704.25,310.976,703.793,311.183,703.338,311.154
			L703.338,311.154z M702.68,299.167c1.771,0.054,2.272,0.914,2.423,2.342c0.068,0.664-0.482,1.367-0.979,1.908
			c-1.093,1.199-2.32,2.267-3.569,3.289c-1.06,0.865-2.102,0.803-2.916-0.072c-0.879-0.938-0.974-2.452-0.149-3.344
			c1.277-1.382,2.673-2.653,4.168-3.799C701.95,299.27,702.313,299.154,702.68,299.167L702.68,299.167z"/>
		<path fill="#FFFFFF" d="M709.137,314.091c-1.082-0.014-1.665-0.506-2.068-1.231c-0.407-0.722-0.481-1.453,0.021-2.177
			c0.823-1.178,1.733-2.271,2.876-3.153c0.905-0.697,1.818-0.625,2.596,0.217c0.367,0.396,0.59,0.865,0.732,1.377
			c0.091,0.322,0.021,0.604-0.107,0.914c-0.6,1.418-1.651,2.455-2.76,3.451C710.014,313.854,709.533,314.115,709.137,314.091
			L709.137,314.091z M691.939,301.906c-0.022-0.959,0.33-1.65,1.02-2.176c0.238-0.18,0.483-0.357,0.737-0.521
			c0.938-0.611,1.768-0.578,2.604,0.09c0.771,0.609,1.063,1.639,0.729,2.592c-0.381,1.109-1.901,2.336-2.938,2.355
			C692.844,304.277,691.939,303.257,691.939,301.906z"/>
	</g>
	<path fill="#FFFFFF" d="M711.533,177.724h-1.002v3.032h-2.109v-9.229h3.691c1.742-0.004,3.16,1.407,3.164,3.15
		c0,0.005,0,0.01,0,0.014c0,1.134-0.688,2.162-1.7,2.677l1.964,3.388h-2.268L711.533,177.724L711.533,177.724z M710.531,175.878
		h1.582c0.58,0,1.055-0.514,1.055-1.187c0-0.672-0.475-1.187-1.055-1.187h-1.582V175.878z M722.328,178.726v2.03h-5.801v-9.229
		h5.731v2.03h-3.626v1.529h3.296v2.004h-3.296v1.635L722.328,178.726L722.328,178.726z M722.854,171.527h2.218l1.595,6.46l1.78-6.46
		h1.714l1.775,6.46l1.6-6.46h2.215l-2.545,9.229h-2.398l-1.504-5.444l-1.502,5.444h-2.4L722.854,171.527L722.854,171.527z
		 M741.542,179.306h-3.428l-0.462,1.45h-2.311l3.142-9.229h2.688l3.139,9.229h-2.308L741.542,179.306z M740.91,177.328l-1.081-3.388
		l-1.081,3.388H740.91z M748.21,177.724h-1.002v3.032h-2.109v-9.229h3.691c1.743-0.004,3.16,1.407,3.164,3.15
		c0,0.005,0,0.01,0,0.014c0,1.134-0.688,2.162-1.7,2.677l1.964,3.388h-2.268L748.21,177.724L748.21,177.724z M747.208,175.878h1.582
		c0.58,0,1.055-0.514,1.055-1.187c0-0.672-0.475-1.187-1.055-1.187h-1.582V175.878z M761.378,176.142
		c0,2.61-1.938,4.614-4.481,4.614h-3.688v-9.229h3.688C759.439,171.527,761.378,173.531,761.378,176.142z M759.348,176.142
		c0-1.582-1.002-2.584-2.449-2.584h-1.581v5.168h1.581C758.346,178.726,759.348,177.724,759.348,176.142z M765.395,178.66
		l1.82-1.055c0.329,0.765,0.896,1.278,1.938,1.278c1.002,0,1.252-0.396,1.252-0.751c0-0.567-0.527-0.791-1.911-1.174
		c-1.371-0.382-2.716-1.041-2.716-2.808c0-1.78,1.503-2.809,3.098-2.809c1.517,0,2.703,0.726,3.375,2.083l-1.779,1.042
		c-0.313-0.659-0.752-1.068-1.596-1.068c-0.658,0-0.988,0.33-0.988,0.699c0,0.422,0.229,0.712,1.661,1.146
		c1.397,0.422,2.966,0.91,2.966,2.861c0,1.779-1.424,2.834-3.428,2.834C767.149,180.94,765.91,180.018,765.395,178.66
		L765.395,178.66z M777.588,177.21v3.546h-2.109v-3.546l-3.099-5.683h2.399l1.754,3.56l1.753-3.56h2.396L777.588,177.21z
		 M780.487,178.66l1.814-1.055c0.33,0.765,0.896,1.278,1.938,1.278c1.002,0,1.253-0.396,1.253-0.751
		c0-0.567-0.527-0.791-1.912-1.174c-1.371-0.382-2.716-1.041-2.716-2.808c0-1.78,1.503-2.809,3.099-2.809
		c1.519,0,2.702,0.726,3.375,2.083l-1.78,1.042c-0.313-0.659-0.751-1.068-1.595-1.068c-0.66,0-0.989,0.33-0.989,0.699
		c0,0.422,0.228,0.712,1.661,1.146c1.397,0.422,2.968,0.91,2.968,2.861c0,1.779-1.425,2.834-3.429,2.834
		C782.24,180.94,781,180.018,780.487,178.66L780.487,178.66z M794.523,173.558h-2.373v7.198h-2.108v-7.198h-2.373v-2.03h6.854
		V173.558L794.523,173.558z M801.246,178.726v2.03h-5.801v-9.229h5.731v2.03h-3.626v1.529h3.296v2.004h-3.296v1.635L801.246,178.726
		L801.246,178.726z M811.659,180.756h-2.109v-5.365l-2.387,3.915h-0.236l-2.387-3.915v5.365h-2.109v-9.229h2.109l2.505,4.101
		l2.505-4.101h2.109V180.756L811.659,180.756z"/>
	<g>
		<path fill="#FFFFFF" d="M715.277,72.132c0,1.635-1.331,2.702-2.979,2.702h-3.876v-9.229h3.612c1.604,0,2.914,1.042,2.914,2.637
			c0,0.765-0.308,1.371-0.809,1.807C714.829,70.483,715.277,71.195,715.277,72.132z M710.531,67.583v1.635h1.503
			c0.475,0,0.805-0.343,0.805-0.817s-0.313-0.817-0.805-0.817L710.531,67.583z M713.167,71.974c0-0.515-0.343-0.884-0.87-0.884
			h-1.767v1.767h1.767C712.825,72.856,713.167,72.487,713.167,71.974z M721.734,72.804v2.03h-5.405v-9.229h2.105v7.198h3.3V72.804
			L721.734,72.804z M721.733,70.22c0-2.716,2.146-4.799,4.799-4.799c2.647,0,4.799,2.083,4.799,4.799
			c0,2.716-2.148,4.799-4.799,4.799C723.881,75.019,721.733,72.936,721.733,70.22L721.733,70.22z M729.221,70.22
			c0-1.646-1.187-2.742-2.688-2.742s-2.689,1.095-2.689,2.742c0,1.648,1.188,2.742,2.689,2.742S729.221,71.868,729.221,70.22z
			 M732.118,70.22c0-2.716,2.018-4.799,4.799-4.799c1.674,0,3.15,0.831,3.955,2.136l-1.819,1.055
			c-0.408-0.712-1.196-1.134-2.136-1.134c-1.635,0-2.688,1.095-2.688,2.742c0,1.648,1.055,2.742,2.688,2.742
			c0.938,0,1.74-0.422,2.136-1.134l1.819,1.055c-0.791,1.306-2.269,2.136-3.955,2.136C734.135,75.019,732.118,72.936,732.118,70.22
			L732.118,70.22z M746.92,74.834l-2.953-4.271v4.271h-2.105v-9.229h2.105v4.008l2.821-4.008h2.396l-3.107,4.496l3.243,4.732
			L746.92,74.834L746.92,74.834z"/>
		<path fill="#FFFFFF" d="M748.921,70.22c0-2.716,2.021-4.799,4.799-4.799c1.675,0,3.151,0.831,3.955,2.136l-1.815,1.055
			c-0.408-0.712-1.199-1.134-2.14-1.134c-1.635,0-2.688,1.095-2.688,2.742c0,1.648,1.055,2.742,2.688,2.742
			c0.938,0,1.74-0.422,2.14-1.134l1.815,1.055c-0.791,1.306-2.268,2.136-3.955,2.136C750.938,75.019,748.921,72.936,748.921,70.22z
			 M765.781,65.605v9.229h-2.109v-3.665h-2.9v3.665h-2.105v-9.229h2.105v3.533h2.9v-3.533H765.781z M772.765,73.384h-3.428
			l-0.462,1.45h-2.307l3.138-9.229h2.689l3.138,9.229h-2.307L772.765,73.384L772.765,73.384z M772.132,71.406l-1.081-3.388
			l-1.081,3.388H772.132z M778.431,65.605v9.229h-2.105v-9.229H778.431z M787.263,65.605v9.229h-1.582l-3.56-5.01v5.01h-2.109
			v-9.229h1.582l3.563,5.01v-5.01H787.263z"/>
	</g>
	<g>
		<path fill="#FFFFFF" d="M717.648,21.684h-2.109v-5.365l-2.386,3.915h-0.238l-2.386-3.915v5.365h-2.109v-9.229h2.109l2.505,4.101
			l2.505-4.101h2.109V21.684L717.648,21.684z M718.502,18.704v-6.249h2.109v6.064c0,0.699,0.329,1.292,1.445,1.292
			c1.121,0,1.451-0.593,1.451-1.292v-6.064h2.109v6.249c0,1.978-1.529,3.164-3.563,3.164
			C720.032,21.868,718.502,20.682,718.502,18.704L718.502,18.704z M731.88,19.653v2.03h-5.405v-9.229h2.109v7.198L731.88,19.653z
			 M737.417,14.485h-2.373v7.198h-2.109v-7.198h-2.372v-2.03h6.854V14.485z M739.787,12.455v9.229h-2.109v-9.229H739.787z
			 M748.75,19.653v2.03h-5.405v-9.229h2.109v7.198L748.75,19.653z M754.813,19.653v2.03h-5.801v-9.229h5.734v2.03h-3.625v1.529
			h3.296v2.004h-3.296v1.635L754.813,19.653z"/>
		<path fill="#FFFFFF" d="M754.547,12.455h2.307l2.048,6.79l2.044-6.79h2.307l-3.006,9.229h-2.689L754.547,12.455L754.547,12.455z
			 M769.178,19.653v2.03h-5.801v-9.229h5.734v2.03h-3.625v1.529h3.296v2.004h-3.296v1.635L769.178,19.653z M775.109,19.653v2.03
			h-5.405v-9.229h2.105v7.198L775.109,19.653L775.109,19.653z M777.215,12.455h2.311l2.044,6.79l2.044-6.79h2.307l-3.006,9.229
			h-2.689L777.215,12.455L777.215,12.455z M791.847,19.653v2.03h-5.801v-9.229h5.735v2.03h-3.626v1.529h3.296v2.004h-3.296v1.635
			L791.847,19.653z M795.483,18.651h-1.003v3.032h-2.108v-9.229h3.69c1.741-0.004,3.157,1.404,3.161,3.147c0,0.005,0,0.011,0,0.017
			c0,1.134-0.686,2.162-1.697,2.677l1.965,3.388h-2.271L795.483,18.651L795.483,18.651z M794.481,16.806h1.581
			c0.577,0,1.056-0.514,1.056-1.187c0-0.672-0.479-1.187-1.056-1.187h-1.581V16.806z M801.927,12.455v9.229h-2.105v-9.229H801.927z
			 M804.958,14.485v1.78h3.428v2.03h-3.428v3.388h-2.109v-9.229h5.604v2.03L804.958,14.485z M811.153,12.455v9.229h-2.109v-9.229
			H811.153z M811.679,17.069c0-2.716,2.021-4.799,4.8-4.799c1.678,0,3.15,0.831,3.954,2.136l-1.815,1.055
			c-0.408-0.712-1.199-1.134-2.139-1.134c-1.636,0-2.688,1.095-2.688,2.742c0,1.648,1.055,2.742,2.688,2.742
			c0.938,0,1.739-0.422,2.139-1.134l1.815,1.055c-0.791,1.306-2.268,2.136-3.954,2.136
			C813.696,21.868,811.679,19.785,811.679,17.069z M826.166,20.233h-3.428l-0.462,1.45h-2.311l3.142-9.229h2.688l3.139,9.229h-2.308
			L826.166,20.233z M825.533,18.256l-1.081-3.388l-1.081,3.388H825.533z M834.602,14.485h-2.373v7.198h-2.106v-7.198h-2.373v-2.03
			h6.854v2.03H834.602z M836.972,12.455v9.229h-2.105v-9.229H836.972z M837.499,17.069c0-2.716,2.147-4.799,4.799-4.799
			c2.652,0,4.799,2.083,4.799,4.799c0,2.716-2.146,4.799-4.799,4.799C839.646,21.868,837.499,19.785,837.499,17.069z
			 M844.987,17.069c0-1.647-1.188-2.742-2.689-2.742s-2.688,1.095-2.688,2.742c0,1.648,1.188,2.742,2.688,2.742
			S844.987,18.718,844.987,17.069z M854.871,12.455v9.229h-1.582l-3.561-5.01v5.01h-2.108v-9.229h1.582l3.56,5.01v-5.01H854.871
			L854.871,12.455z"/>
	</g>
	<path fill="#FFFFFF" d="M716.595,122.533c0,2.61-1.938,4.614-4.479,4.614h-3.691v-9.229h3.691
		C714.657,117.919,716.595,119.923,716.595,122.533z M714.564,122.533c0-1.582-1.004-2.584-2.451-2.584h-1.582v5.168h1.582
		C713.563,125.117,714.564,124.115,714.564,122.533z M723.58,125.117v2.03h-5.801v-9.229h5.731v2.03h-3.626v1.529h3.296v2.004
		h-3.296v1.635L723.58,125.117L723.58,125.117z M724.302,122.533c0-2.716,2.021-4.799,4.799-4.799c1.679,0,3.151,0.831,3.955,2.136
		l-1.815,1.055c-0.408-0.712-1.199-1.134-2.139-1.134c-1.636,0-2.688,1.095-2.688,2.742c0,1.648,1.055,2.742,2.688,2.742
		c0.938,0,1.739-0.422,2.139-1.134l1.815,1.055c-0.791,1.306-2.268,2.136-3.955,2.136
		C726.319,127.332,724.302,125.249,724.302,122.533z M739.843,125.117v2.03h-5.801v-9.229h5.735v2.03h-3.626v1.529h3.296v2.004
		h-3.296v1.635L739.843,125.117z M748.279,117.919v9.229h-1.582l-3.563-5.01v5.01h-2.105v-9.229h1.582l3.56,5.01v-5.01H748.279z
		 M756.054,119.949h-2.373v7.198h-2.105v-7.198H749.2v-2.03h6.854V119.949L756.054,119.949z M760.085,124.115h-1.002v3.032h-2.109
		v-9.229h3.691c1.743-0.004,3.16,1.406,3.164,3.15c0,0.005,0,0.009,0,0.014c0,1.134-0.688,2.162-1.7,2.677l1.964,3.388h-2.268
		L760.085,124.115L760.085,124.115z M759.083,122.27h1.582c0.58,0,1.055-0.514,1.055-1.187c0-0.672-0.475-1.187-1.055-1.187h-1.582
		V122.27L759.083,122.27z M770.485,125.697h-3.432l-0.461,1.45h-2.308l3.138-9.229h2.689l3.138,9.229h-2.308L770.485,125.697
		L770.485,125.697z M769.852,123.72l-1.08-3.388l-1.079,3.388H769.852L769.852,123.72z M779.447,125.117v2.03h-5.405v-9.229h2.108
		v7.198L779.447,125.117z M782.477,117.919v9.229h-2.105v-9.229H782.477z M790.057,125.117v2.03h-6.328v-1.635l3.533-5.563h-3.468
		v-2.03h6.196v1.635l-3.533,5.563H790.057L790.057,125.117z M796.646,125.697h-3.431l-0.462,1.45h-2.307l3.138-9.229h2.689
		l3.138,9.229h-2.307L796.646,125.697L796.646,125.697z M796.013,123.72l-1.081-3.388l-1.081,3.388H796.013z M805.74,119.949h-2.373
		v7.198h-2.109v-7.198h-2.373v-2.03h6.855V119.949z M808.77,117.919v9.229h-2.105v-9.229H808.77z M809.956,122.533
		c0-2.716,2.146-4.799,4.799-4.799s4.799,2.083,4.799,4.799c0,2.716-2.146,4.799-4.799,4.799S809.956,125.249,809.956,122.533z
		 M817.444,122.533c0-1.647-1.188-2.742-2.689-2.742s-2.688,1.095-2.688,2.742c0,1.648,1.188,2.742,2.688,2.742
		S817.444,124.182,817.444,122.533z M827.987,117.919v9.229h-1.582l-3.563-5.01v5.01h-2.105v-9.229h1.582l3.56,5.01v-5.01H827.987z"
		/>
	<path opacity="0.25" enable-background="new    " d="M669.907,17.736c0,7.811,6.331,14.14,14.144,14.14
		c7.81,0,14.139-6.329,14.139-14.14c0-7.809-6.329-14.139-14.139-14.139C676.238,3.597,669.907,9.927,669.907,17.736z
		 M669.907,70.335c0,7.812,6.331,14.141,14.144,14.141c7.81,0,14.139-6.329,14.139-14.141c0-7.809-6.329-14.138-14.139-14.138
		C676.238,56.197,669.907,62.526,669.907,70.335z M669.907,122.899c0,7.812,6.331,14.141,14.144,14.141
		c7.81,0,14.139-6.329,14.139-14.141c0-7.809-6.329-14.141-14.139-14.141C676.238,108.758,669.907,115.09,669.907,122.899
		L669.907,122.899z M669.907,175.464c0,7.809,6.331,14.138,14.144,14.138c7.81,0,14.139-6.329,14.139-14.138
		c0-7.812-6.329-14.14-14.139-14.14C676.238,161.324,669.907,167.652,669.907,175.464z"/>
	<path fill="#FFFFFF" d="M689.271,183.991c-0.979,0.544-2.64,1.088-4.471,1.088c-2.804,0-5.378-1.147-6.979-3.266
		c-0.774-0.971-1.351-2.204-1.604-3.718h-1.855v-2.033h1.57v-0.484c0-0.285,0.025-0.572,0.025-0.86h-1.6v-2.033h1.919
		c0.37-1.543,1.056-2.861,1.973-3.917c1.632-1.833,3.918-2.918,6.608-2.918c1.748,0,3.265,0.398,4.293,0.857l-0.8,3.263
		c-0.743-0.316-1.916-0.689-3.182-0.689c-1.372,0-2.631,0.461-3.519,1.546c-0.401,0.458-0.719,1.119-0.914,1.859h7.123v2.033h-7.554
		c-0.03,0.288-0.03,0.601-0.03,0.888v0.456h7.584v2.033h-7.186c0.201,0.86,0.518,1.515,0.944,2.004
		c0.916,1.031,2.26,1.458,3.691,1.458c1.313,0,2.654-0.427,3.261-0.743L689.271,183.991L689.271,183.991z M694.826,12.844
		l-3.349-3.349l-9.855,9.849l-5.253-5.256l-3.353,3.348l5.258,5.26l-0.008,0.007l3.354,3.348v-0.006l0.008,0.006l3.352-3.348
		l-0.007-0.007L694.826,12.844z M682.661,72.459c1.057-0.809,2.081-1.633,3.151-2.4c0.48-0.345,0.73-0.638,0.521-1.29
		c-0.134-0.41,0.025-0.907,0.04-1.366c0.005-0.111-0.003-0.276-0.077-0.331c-1.372-1.067-2.753-2.124-4.131-3.183
		c-0.814,0.546-1.663,0.658-2.548,0.245c-1.144-0.545-1.675-1.875-1.226-3.058c0.447-1.185,1.748-1.825,2.976-1.469
		c1.199,0.346,1.95,1.604,1.688,2.828c-0.027,0.152-0.063,0.273,0.101,0.393c1.35,1.026,2.692,2.063,4.063,3.11
		c0.798-0.743,1.74-1.059,2.819-0.903c0.777,0.12,1.438,0.493,1.952,1.093c1.06,1.234,1.051,3.06-0.022,4.283
		c-0.979,1.116-2.938,1.642-4.632,0.288c-1.253,0.959-2.509,1.926-3.781,2.897c0.621,1.258,0.703,2.534,0.16,3.821
		c-0.401,0.967-1.146,1.751-2.093,2.2c-1.75,1.666-4.52,1.598-6.186-0.152c-1.665-1.75-1.598-4.518,0.152-6.184
		c0.322-0.307,0.69-0.563,1.09-0.759C678.179,71.088,680.727,70.788,682.661,72.459L682.661,72.459z M684.02,128.768l-6.069-6.07
		l6.069-6.072l6.07,6.07L684.02,128.768z M684.05,111.708l-3.881,3.88h7.761L684.05,111.708z M684.05,133.629l3.88-3.882h-7.761
		L684.05,133.629z M691.127,118.788v7.763l3.883-3.883L691.127,118.788z M676.972,126.551v-7.763l-3.883,3.88L676.972,126.551z"/>
	
		<linearGradient id="SVGID_12_" gradientUnits="userSpaceOnUse" x1="-576" y1="230.9438" x2="-367.9082" y2="230.9438" gradientTransform="matrix(1 0 0 1 576 -159.5088)">
		<stop  offset="0" style="stop-color:#A14B8A"/>
		<stop  offset="1" style="stop-color:#4B48BF"/>
	</linearGradient>
	<path fill="url(#SVGID_12_)" d="M208.092,71.435c0,10.269-8.324,18.589-18.587,18.589H18.591C8.325,90.023,0,81.703,0,71.435
		c0-10.269,8.325-18.589,18.591-18.589h170.914C199.768,52.845,208.092,61.166,208.092,71.435L208.092,71.435z"/>
	
		<linearGradient id="SVGID_13_" gradientUnits="userSpaceOnUse" x1="-576" y1="283.5059" x2="-367.9082" y2="283.5059" gradientTransform="matrix(1 0 0 1 576 -159.5088)">
		<stop  offset="0" style="stop-color:#A14B8A"/>
		<stop  offset="1" style="stop-color:#4B48BF"/>
	</linearGradient>
	<path fill="url(#SVGID_13_)" d="M208.092,124c0,10.265-8.324,18.588-18.587,18.588H18.591C8.325,142.588,0,134.265,0,124
		c0-10.266,8.325-18.593,18.591-18.593h170.914C199.768,105.407,208.092,113.734,208.092,124L208.092,124z"/>
	
		<linearGradient id="SVGID_14_" gradientUnits="userSpaceOnUse" x1="-576" y1="336.0703" x2="-367.9082" y2="336.0703" gradientTransform="matrix(1 0 0 1 576 -159.5088)">
		<stop  offset="0" style="stop-color:#A14B8A"/>
		<stop  offset="1" style="stop-color:#4B48BF"/>
	</linearGradient>
	<path fill="url(#SVGID_14_)" d="M208.092,176.561c0,10.266-8.324,18.59-18.587,18.59H18.591C8.325,195.151,0,186.827,0,176.561
		c0-10.267,8.325-18.59,18.591-18.59h170.914C199.768,157.971,208.092,166.294,208.092,176.561L208.092,176.561z"/>
	
		<linearGradient id="SVGID_15_" gradientUnits="userSpaceOnUse" x1="-576" y1="178.3809" x2="-367.9082" y2="178.3809" gradientTransform="matrix(1 0 0 1 576 -159.5088)">
		<stop  offset="0" style="stop-color:#A14B8A"/>
		<stop  offset="1" style="stop-color:#4B48BF"/>
	</linearGradient>
	<path fill="url(#SVGID_15_)" d="M208.092,18.871c0,10.266-8.324,18.591-18.587,18.591H18.591C8.325,37.462,0,29.137,0,18.871
		S8.325,0.282,18.591,0.282h170.914C199.768,0.282,208.092,8.605,208.092,18.871L208.092,18.871z"/>
	<path fill="#FFFFFF" d="M105.694,177.239c0-2.716,2.149-4.799,4.799-4.799c2.65,0,4.799,2.083,4.799,4.799
		c0,2.716-2.149,4.799-4.799,4.799C107.843,182.038,105.694,179.955,105.694,177.239z M113.183,177.239
		c0-1.647-1.187-2.742-2.689-2.742s-2.689,1.095-2.689,2.742c0,1.648,1.187,2.742,2.689,2.742S113.183,178.888,113.183,177.239z
		 M118.584,174.655v1.78h3.428v2.03h-3.428v3.388h-2.109v-9.229h5.603v2.03L118.584,174.655z M125.438,174.655v1.78h3.428v2.03
		h-3.428v3.388h-2.109v-9.229h5.603v2.03L125.438,174.655z M132.291,172.625v9.229h-2.109v-9.229H132.291z M133.476,177.239
		c0-2.716,2.017-4.799,4.799-4.799c1.674,0,3.151,0.831,3.955,2.136l-1.819,1.055c-0.409-0.712-1.2-1.134-2.136-1.134
		c-1.635,0-2.689,1.095-2.689,2.742c0,1.648,1.055,2.742,2.689,2.742c0.936,0,1.74-0.422,2.136-1.134l1.819,1.055
		c-0.791,1.306-2.268,2.136-3.955,2.136C135.493,182.038,133.476,179.955,133.476,177.239z M149.017,179.823v2.03h-5.801v-9.229
		h5.735v2.03h-3.625v1.529h3.296v2.004h-3.296v1.635h3.691V179.823z M153.313,178.821h-1.002v3.032h-2.109v-9.229h3.691
		c1.744-0.004,3.16,1.406,3.164,3.15c0,0.005,0,0.009,0,0.014c0,1.134-0.686,2.162-1.701,2.677l1.964,3.388h-2.268L153.313,178.821z
		 M152.311,176.976h1.582c0.58,0,1.055-0.514,1.055-1.187c0-0.672-0.475-1.187-1.055-1.187h-1.582V176.976z M157.713,179.758
		l1.819-1.055c0.33,0.765,0.896,1.278,1.938,1.278c1.002,0,1.252-0.396,1.252-0.751c0-0.567-0.527-0.791-1.912-1.174
		c-1.371-0.382-2.716-1.041-2.716-2.808c0-1.78,1.503-2.809,3.098-2.809c1.516,0,2.703,0.726,3.375,2.083l-1.78,1.042
		c-0.316-0.659-0.751-1.068-1.595-1.068c-0.659,0-0.989,0.33-0.989,0.699c0,0.422,0.224,0.712,1.661,1.146
		c1.396,0.422,2.966,0.91,2.966,2.861c0,1.779-1.424,2.834-3.428,2.834C159.467,182.038,158.228,181.115,157.713,179.758z
		 M58.514,69.868c0,1.754-1.411,3.164-3.23,3.164H53.9v2.9h-2.109v-9.229h3.494C57.104,66.704,58.514,68.115,58.514,69.868z
		 M56.405,69.868c0-0.672-0.475-1.187-1.121-1.187H53.9v2.373h1.384C55.93,71.055,56.405,70.541,56.405,69.868z M62.678,72.9h-1.002
		v3.032h-2.109v-9.229h3.691c1.744-0.004,3.16,1.406,3.164,3.15c0,0.004,0,0.009,0,0.014c0,1.134-0.686,2.162-1.701,2.677
		l1.964,3.388h-2.268L62.678,72.9z M61.676,71.055h1.582c0.58,0,1.055-0.514,1.055-1.187c0-0.672-0.475-1.187-1.055-1.187h-1.582
		V71.055z M67.145,71.318c0-2.716,2.149-4.799,4.799-4.799s4.799,2.083,4.799,4.799c0,2.716-2.149,4.799-4.799,4.799
		S67.145,74.034,67.145,71.318L67.145,71.318z M74.633,71.318c0-1.647-1.187-2.742-2.689-2.742s-2.689,1.095-2.689,2.742
		c0,1.648,1.187,2.742,2.689,2.742S74.633,72.967,74.633,71.318z M76.607,74.324l1.833-1.055c0.29,0.515,0.593,0.791,1.305,0.791
		c0.923,0,1.2-0.527,1.2-1.094v-6.263h2.109v6.263c0,2.03-1.424,3.15-3.322,3.15C78.269,76.117,77.214,75.498,76.607,74.324z
		 M90.369,73.902v2.03h-5.801v-9.229h5.735v2.03h-3.625v1.529h3.296v2.004h-3.296v1.635L90.369,73.902z M91.092,71.318
		c0-2.716,2.017-4.799,4.799-4.799c1.674,0,3.151,0.831,3.955,2.136l-1.819,1.055c-0.409-0.712-1.2-1.134-2.136-1.134
		c-1.635,0-2.689,1.095-2.689,2.742c0,1.648,1.055,2.742,2.689,2.742c0.936,0,1.74-0.422,2.136-1.134l1.819,1.055
		c-0.791,1.306-2.268,2.136-3.955,2.136C93.109,76.117,91.092,74.034,91.092,71.318z M107.028,68.734h-2.373v7.198h-2.109v-7.198
		h-2.373v-2.03h6.855V68.734z M110.848,71.318c0-2.716,2.149-4.799,4.799-4.799s4.799,2.083,4.799,4.799
		c0,2.716-2.149,4.799-4.799,4.799S110.848,74.034,110.848,71.318z M118.336,71.318c0-1.647-1.187-2.742-2.689-2.742
		s-2.689,1.095-2.689,2.742c0,1.648,1.187,2.742,2.689,2.742S118.336,72.967,118.336,71.318z M120.574,66.704h2.215l1.595,6.46
		l1.78-6.46h1.714l1.78,6.46l1.595-6.46h2.215l-2.544,9.229h-2.399l-1.503-5.444l-1.503,5.444h-2.399L120.574,66.704z
		 M141.637,66.704v9.229h-1.582l-3.56-5.01v5.01h-2.109v-9.229h1.582l3.56,5.01v-5.01H141.637z M149.017,73.902v2.03h-5.801v-9.229
		h5.735v2.03h-3.625v1.529h3.296v2.004h-3.296v1.635L149.017,73.902z M153.313,72.9h-1.002v3.032h-2.109v-9.229h3.691
		c1.744-0.004,3.16,1.406,3.164,3.15c0,0.004,0,0.009,0,0.014c0,1.134-0.686,2.162-1.701,2.677l1.964,3.388h-2.268L153.313,72.9z
		 M152.311,71.055h1.582c0.58,0,1.055-0.514,1.055-1.187c0-0.672-0.475-1.187-1.055-1.187h-1.582V71.055z M157.713,73.837
		l1.819-1.055c0.33,0.765,0.896,1.278,1.938,1.278c1.002,0,1.252-0.396,1.252-0.751c0-0.567-0.527-0.791-1.912-1.174
		c-1.371-0.382-2.716-1.041-2.716-2.808c0-1.78,1.503-2.809,3.098-2.809c1.516,0,2.703,0.726,3.375,2.083l-1.78,1.042
		c-0.316-0.659-0.751-1.068-1.595-1.068c-0.659,0-0.989,0.33-0.989,0.699c0,0.422,0.224,0.712,1.661,1.146
		c1.396,0.422,2.966,0.91,2.966,2.861c0,1.779-1.424,2.834-3.428,2.834C159.467,76.117,158.228,75.194,157.713,73.837z
		 M99.751,120.119v9.229h-2.109v-9.229H99.751z M108.583,120.119v9.229h-1.582l-3.56-5.01v5.01h-2.109v-9.229h1.582l3.56,5.01v-5.01
		H108.583z M109.372,120.119h2.307l2.043,6.79l2.043-6.79h2.307l-3.006,9.229h-2.689L109.372,120.119z M124.662,127.317v2.03h-5.801
		v-9.229h5.735v2.03h-3.625v1.529h3.296v2.004h-3.296v1.635L124.662,127.317z M125.385,127.252l1.819-1.055
		c0.33,0.765,0.896,1.278,1.938,1.278c1.002,0,1.252-0.396,1.252-0.751c0-0.567-0.527-0.791-1.912-1.174
		c-1.371-0.382-2.716-1.041-2.716-2.808c0-1.78,1.503-2.809,3.098-2.809c1.516,0,2.703,0.726,3.375,2.083l-1.78,1.042
		c-0.316-0.659-0.751-1.068-1.595-1.068c-0.659,0-0.989,0.33-0.989,0.699c0,0.422,0.224,0.712,1.661,1.146
		c1.397,0.422,2.966,0.91,2.966,2.861c0,1.779-1.424,2.834-3.428,2.834C127.138,129.532,125.899,128.609,125.385,127.252z
		 M139.423,122.149h-2.373v7.198h-2.109v-7.198h-2.373v-2.03h6.855V122.149z M139.421,124.733c0-2.716,2.149-4.799,4.799-4.799
		c2.65,0,4.799,2.083,4.799,4.799c0,2.716-2.149,4.799-4.799,4.799C141.57,129.532,139.421,127.449,139.421,124.733z
		 M146.909,124.733c0-1.647-1.187-2.742-2.689-2.742c-1.502,0-2.689,1.095-2.689,2.742c0,1.648,1.187,2.742,2.689,2.742
		C145.722,127.475,146.909,126.382,146.909,124.733z M153.313,126.315h-1.002v3.032h-2.109v-9.229h3.691
		c1.744-0.004,3.16,1.406,3.164,3.15c0,0.004,0,0.009,0,0.014c0,1.134-0.686,2.162-1.701,2.677l1.964,3.388h-2.268L153.313,126.315z
		 M152.311,124.47h1.582c0.58,0,1.055-0.514,1.055-1.187c0-0.672-0.475-1.187-1.055-1.187h-1.582V124.47L152.311,124.47z
		 M157.714,127.252l1.819-1.055c0.33,0.765,0.896,1.278,1.938,1.278c1.002,0,1.252-0.396,1.252-0.751
		c0-0.567-0.527-0.791-1.912-1.174c-1.371-0.382-2.716-1.041-2.716-2.808c0-1.78,1.503-2.809,3.098-2.809
		c1.516,0,2.703,0.726,3.375,2.083l-1.78,1.042c-0.316-0.659-0.751-1.068-1.595-1.068c-0.659,0-0.989,0.33-0.989,0.699
		c0,0.422,0.224,0.712,1.661,1.146c1.397,0.422,2.966,0.91,2.966,2.861c0,1.779-1.424,2.834-3.428,2.834
		C159.467,129.532,158.228,128.609,157.714,127.252L157.714,127.252z M80.021,20.082l1.819-1.055
		c0.33,0.765,0.896,1.278,1.938,1.278c1.002,0,1.252-0.396,1.252-0.751c0-0.567-0.527-0.791-1.912-1.174
		c-1.371-0.382-2.716-1.041-2.716-2.808c0-1.78,1.503-2.809,3.098-2.809c1.516,0,2.703,0.726,3.375,2.083l-1.78,1.042
		c-0.316-0.659-0.751-1.068-1.595-1.068c-0.659,0-0.989,0.33-0.989,0.699c0,0.422,0.224,0.712,1.661,1.146
		c1.397,0.422,2.966,0.91,2.966,2.861c0,1.779-1.424,2.834-3.428,2.834C81.774,22.362,80.535,21.439,80.021,20.082z M90.235,12.949
		v9.229h-2.109v-9.229H90.235z M101.045,22.178h-2.109v-5.365l-2.386,3.915h-0.237l-2.386-3.915v5.365h-2.109v-9.229h2.109
		l2.505,4.101l2.505-4.101h2.109L101.045,22.178z M109.347,16.113c0,1.754-1.411,3.164-3.23,3.164h-1.384v2.9h-2.109v-9.229h3.494
		C107.937,12.949,109.347,14.36,109.347,16.113z M107.238,16.113c0-0.672-0.475-1.187-1.121-1.187h-1.384V17.3h1.384
		C106.763,17.3,107.238,16.786,107.238,16.113z M115.805,20.147v2.03H110.4v-9.229h2.109v7.198L115.805,20.147z M122.526,20.147
		v2.03h-5.801v-9.229h5.735v2.03h-3.625v1.529h3.296v2.004h-3.296v1.635L122.526,20.147z M126.939,19.198v-6.249h2.109v6.064
		c0,0.699,0.33,1.292,1.45,1.292s1.45-0.593,1.45-1.292v-6.064h2.109v6.249c0,1.978-1.529,3.164-3.56,3.164
		C128.466,22.362,126.939,21.176,126.939,19.198z M135.11,20.082l1.819-1.055c0.33,0.765,0.896,1.278,1.938,1.278
		c1.002,0,1.252-0.396,1.252-0.751c0-0.567-0.527-0.791-1.912-1.174c-1.371-0.382-2.716-1.041-2.716-2.808
		c0-1.78,1.503-2.809,3.098-2.809c1.516,0,2.703,0.726,3.375,2.083l-1.78,1.042c-0.316-0.659-0.751-1.068-1.595-1.068
		c-0.659,0-0.989,0.33-0.989,0.699c0,0.422,0.224,0.712,1.661,1.146c1.397,0.422,2.966,0.91,2.966,2.861
		c0,1.779-1.424,2.834-3.428,2.834C136.864,22.362,135.625,21.439,135.11,20.082L135.11,20.082z M149.017,20.147v2.03h-5.801v-9.229
		h5.735v2.03h-3.625v1.529h3.296v2.004h-3.296v1.635L149.017,20.147z M153.313,19.146h-1.002v3.032h-2.109v-9.229h3.691
		c1.744-0.004,3.16,1.406,3.164,3.15c0,0.004,0,0.009,0,0.014c0,1.134-0.686,2.162-1.701,2.677l1.964,3.388h-2.268L153.313,19.146z
		 M152.311,17.3h1.582c0.58,0,1.055-0.514,1.055-1.187c0-0.672-0.475-1.187-1.055-1.187h-1.582V17.3z M157.713,20.082l1.819-1.055
		c0.33,0.765,0.896,1.278,1.938,1.278c1.002,0,1.252-0.396,1.252-0.751c0-0.567-0.527-0.791-1.912-1.174
		c-1.371-0.382-2.716-1.041-2.716-2.808c0-1.78,1.503-2.809,3.098-2.809c1.516,0,2.703,0.726,3.375,2.083l-1.78,1.042
		c-0.316-0.659-0.751-1.068-1.595-1.068c-0.659,0-0.989,0.33-0.989,0.699c0,0.422,0.224,0.712,1.661,1.146
		c1.396,0.422,2.966,0.91,2.966,2.861c0,1.779-1.424,2.834-3.428,2.834C159.467,22.362,158.228,21.439,157.713,20.082z"/>
	<path opacity="0.25" enable-background="new    " d="M202.814,18.835c0,7.811-6.329,14.139-14.138,14.139
		c-7.809,0-14.144-6.329-14.144-14.139c0-7.809,6.334-14.141,14.144-14.141C196.486,4.694,202.814,11.026,202.814,18.835z"/>
	<circle opacity="0.25" enable-background="new    " cx="188.673" cy="71.435" r="14.141"/>
	<path opacity="0.25" enable-background="new    " d="M202.814,123.998c0,7.81-6.329,14.14-14.138,14.14
		c-7.809,0-14.144-6.33-14.144-14.14c0-7.809,6.334-14.142,14.144-14.142C196.486,109.856,202.814,116.188,202.814,123.998z"/>
	<circle opacity="0.25" enable-background="new    " cx="188.673" cy="176.561" r="14.141"/>
	<path fill="#FFFFFF" d="M183.606,28.995v-0.353c0-2.838-0.012-5.681,0.003-8.523c0.011-2.588,1.628-4.584,4.125-5.118
		c2.115-0.448,4.436,0.651,5.446,2.575c0.427,0.81,0.604,1.666,0.601,2.58c-0.017,2.813-0.003,5.63-0.003,8.444v0.396
		L183.606,28.995z M191.942,10.823c-0.012,1.768-1.486,3.214-3.271,3.2s-3.208-1.469-3.197-3.265
		c0.014-1.796,1.478-3.254,3.245-3.231C190.521,7.549,191.947,9.006,191.942,10.823z M196.65,180.176
		c-0.173-0.001-0.344,0.044-0.495,0.131l-2.172-3.715l2.167-3.767c0.47,0.279,1.077,0.124,1.355-0.346
		c0.278-0.47,0.124-1.077-0.346-1.355c-0.47-0.278-1.077-0.124-1.355,0.346c-0.088,0.147-0.136,0.315-0.139,0.487h-4.33
		l-1.333-2.306l-0.834-1.449c0.473-0.272,0.636-0.876,0.363-1.35c-0.272-0.473-0.876-0.635-1.349-0.363s-0.636,0.876-0.363,1.349
		c0.087,0.151,0.212,0.276,0.363,0.363l-0.834,1.449l-1.335,2.306h-4.333c0.003-0.542-0.434-0.985-0.976-0.988
		c-0.001,0-0.002,0-0.003,0c-0.546-0.024-1.008,0.398-1.033,0.944c-0.024,0.545,0.398,1.008,0.944,1.032
		c0.029,0.001,0.059,0.001,0.089,0c0.173,0,0.343-0.046,0.492-0.134l2.169,3.781l-2.161,3.704c-0.466-0.28-1.072-0.129-1.352,0.337
		c-0.093,0.155-0.142,0.332-0.141,0.512c0,0.543,0.441,0.985,0.991,0.985c0.532,0,0.971-0.43,0.979-0.962h4.333l1.335,2.3
		l0.834,1.449c-0.473,0.271-0.637,0.873-0.367,1.345c0.176,0.309,0.504,0.498,0.859,0.497c0.545,0,0.987-0.442,0.987-0.987
		c0-0.353-0.188-0.679-0.494-0.855l0.834-1.449l1.333-2.3h4.33c0.001,0.546,0.445,0.987,0.991,0.985
		c0.545-0.001,0.986-0.445,0.985-0.991C197.638,180.616,197.195,180.174,196.65,180.176
		C196.652,180.176,196.651,180.176,196.65,180.176L196.65,180.176z"/>
	<circle fill="#333333" cx="265.823" cy="18.871" r="6.446"/>
	<path fill="#333333" d="M236.069,71.435c0.001,3.56-2.883,6.446-6.442,6.448c-3.56,0.001-6.446-2.883-6.448-6.442
		c0-0.002,0-0.003,0-0.005c-0.002-3.558,2.88-6.444,6.438-6.446c0.002,0,0.004,0,0.007,0c3.559-0.001,6.444,2.882,6.445,6.441
		C236.069,71.432,236.069,71.434,236.069,71.435L236.069,71.435z M236.069,123.998c0.063,3.56-2.772,6.496-6.332,6.559
		c-3.559,0.063-6.496-2.772-6.558-6.332c-0.001-0.076-0.001-0.151,0-0.227c0-3.56,2.885-6.445,6.445-6.445
		S236.069,120.438,236.069,123.998z"/>
	<circle fill="#333333" cx="265.823" cy="176.561" r="6.446"/>
	<path fill="none" d="M208.092,18.871h51.285"/>
	<path fill="#333333" d="M208.092,17.771h51.285v2.197h-51.285V17.771z"/>
	<path fill="none" d="M207.822,71.435h15.357"/>
	<path fill="#333333" d="M207.822,70.338h15.357v2.195h-15.357V70.338z"/>
	<path fill="none" d="M207.822,123.998h15.357"/>
	<path fill="#333333" d="M207.822,122.899h15.357v2.198h-15.357V122.899z"/>
	<path fill="none" d="M208.092,176.561h51.285"/>
	<path fill="#333333" d="M208.092,175.461h51.285v2.198h-51.285V175.461z"/>
	<path fill="#FFFFFF" d="M190.14,127.329h-2.868V126.6h-8.979v3.845h20.826V126.6h-8.979V127.329z M191.731,118.252v-3.33h-6.049
		v3.33h-7.388v6.782h8.979v-1.741h2.867v1.741h8.979v-6.782H191.731z M190.14,118.252h-2.867v-1.742h2.867V118.252z"/>
	<g>
		<path fill="#FFFFFF" d="M184.785,81.658v-0.273c0-2.192-0.012-4.386,0.002-6.577c0.006-1.996,1.256-3.535,3.18-3.946
			c1.631-0.348,3.422,0.501,4.202,1.984c0.333,0.625,0.467,1.284,0.464,1.99c-0.014,2.169,0,4.339,0,6.511v0.31L184.785,81.658
			L184.785,81.658z M191.213,67.634c-0.006,1.366-1.145,2.479-2.522,2.471c-1.373-0.011-2.476-1.132-2.465-2.504
			c0-0.005,0-0.011,0-0.016c0.008-1.385,1.139-2.511,2.5-2.491c1.387,0.014,2.5,1.148,2.487,2.535
			C191.213,67.63,191.213,67.632,191.213,67.634L191.213,67.634z"/>
		<path fill="#FFFFFF" d="M197.135,82.502h-16.86V60.368h16.86V82.502z M181.975,80.807h13.469V62.061h-13.469V80.807z"/>
	</g>
	<path fill="#333333" d="M226.766,97.717c0-30.804,14.548-58.251,37.113-75.898v-2.794c-23.854,17.999-39.311,46.573-39.311,78.692
		c0,32.975,16.305,62.201,41.255,80.096v-2.696C242.145,157.549,226.766,129.398,226.766,97.717z M606.9,17.336v2.696
		c23.679,17.568,39.058,45.721,39.058,77.403c0,31.681-15.379,59.832-39.058,77.399v2.696
		c24.947-17.896,41.256-47.119,41.256-80.096S631.851,35.232,606.9,17.336z"/>
	
		<linearGradient id="SVGID_16_" gradientUnits="userSpaceOnUse" x1="1177.3662" y1="-59.4565" x2="1327.665" y2="-59.4565" gradientTransform="matrix(6.123234e-017 1 -1 6.123234e-017 104.625 -939.7422)">
		<stop  offset="0" style="stop-color:#000000;stop-opacity:0"/>
		<stop  offset="1" style="stop-color:#000000"/>
	</linearGradient>
	<path opacity="0.2" fill="url(#SVGID_16_)" enable-background="new    " d="M239.231,312.777c0-41.504-33.648-75.153-75.149-75.153
		c-41.504,0-75.15,33.647-75.15,75.153c0,41.504,33.646,75.146,75.15,75.146C205.583,387.927,239.231,354.281,239.231,312.777z
		 M100.405,312.777c0-35.17,28.51-63.68,63.677-63.68c35.171,0,63.678,28.51,63.678,63.68c0,35.168-28.507,63.676-63.678,63.676
		C128.915,376.455,100.405,347.945,100.405,312.777z"/>
	
		<linearGradient id="SVGID_17_" gradientUnits="userSpaceOnUse" x1="1316.7813" y1="-220.3467" x2="1467.0811" y2="-220.3467" gradientTransform="matrix(6.123234e-017 1 -1 6.123234e-017 104.625 -939.7422)">
		<stop  offset="0" style="stop-color:#000000;stop-opacity:0"/>
		<stop  offset="1" style="stop-color:#000000"/>
	</linearGradient>
	<path opacity="0.2" fill="url(#SVGID_17_)" enable-background="new    " d="M400.121,452.191c0-41.504-33.648-75.152-75.15-75.152
		c-41.504,0-75.149,33.648-75.149,75.152s33.645,75.147,75.149,75.147C366.473,527.341,400.121,493.695,400.121,452.191
		L400.121,452.191z M261.295,452.191c0-35.168,28.509-63.683,63.676-63.683c35.171,0,63.678,28.515,63.678,63.683
		s-28.507,63.678-63.678,63.678C289.804,515.869,261.295,487.359,261.295,452.191z"/>
	
		<linearGradient id="SVGID_18_" gradientUnits="userSpaceOnUse" x1="1316.7813" y1="-442.2466" x2="1467.0811" y2="-442.2466" gradientTransform="matrix(6.123234e-017 1 -1 6.123234e-017 104.625 -939.7422)">
		<stop  offset="0" style="stop-color:#000000;stop-opacity:0"/>
		<stop  offset="1" style="stop-color:#000000"/>
	</linearGradient>
	<path opacity="0.2" fill="url(#SVGID_18_)" enable-background="new    " d="M622.02,452.191c0-41.504-33.646-75.152-75.146-75.152
		s-75.149,33.648-75.149,75.152s33.646,75.147,75.149,75.147S622.02,493.695,622.02,452.191L622.02,452.191z M483.194,452.191
		c0-35.168,28.51-63.683,63.676-63.683c35.171,0,63.678,28.515,63.678,63.683s-28.507,63.678-63.678,63.678
		C511.704,515.869,483.194,487.359,483.194,452.191L483.194,452.191z"/>
	
		<linearGradient id="SVGID_19_" gradientUnits="userSpaceOnUse" x1="1178.6836" y1="-604.689" x2="1328.9854" y2="-604.689" gradientTransform="matrix(6.123234e-017 1 -1 6.123234e-017 104.625 -939.7422)">
		<stop  offset="0" style="stop-color:#000000;stop-opacity:0"/>
		<stop  offset="1" style="stop-color:#000000"/>
	</linearGradient>
	<path opacity="0.2" fill="url(#SVGID_19_)" enable-background="new    " d="M784.462,314.093c0-41.504-33.646-75.151-75.147-75.151
		c-41.507,0-75.148,33.647-75.148,75.151s33.646,75.15,75.148,75.15C750.814,389.244,784.462,355.597,784.462,314.093
		L784.462,314.093z M645.636,314.093c0-35.17,28.509-63.678,63.682-63.678c35.171,0,63.678,28.508,63.678,63.678
		c0,35.168-28.507,63.679-63.678,63.679C674.145,377.771,645.636,349.261,645.636,314.093L645.636,314.093z"/>
	
		<linearGradient id="SVGID_20_" gradientUnits="userSpaceOnUse" x1="960.2598" y1="-220.6836" x2="1110.5605" y2="-220.6836" gradientTransform="matrix(6.123234e-017 1 -1 6.123234e-017 104.625 -939.7422)">
		<stop  offset="0" style="stop-color:#000000;stop-opacity:0"/>
		<stop  offset="1" style="stop-color:#000000"/>
	</linearGradient>
	<path opacity="0.2" fill="url(#SVGID_20_)" enable-background="new    " d="M400.458,95.669c0-41.504-33.648-75.152-75.15-75.152
		c-41.504,0-75.149,33.648-75.149,75.152c0,41.503,33.645,75.149,75.149,75.149C366.81,170.818,400.458,137.172,400.458,95.669z
		 M261.632,95.669c0-35.17,28.509-63.679,63.676-63.679c35.171,0,63.678,28.509,63.678,63.679c0,35.167-28.507,63.677-63.678,63.677
		C290.142,159.346,261.632,130.836,261.632,95.669z"/>
	
		<linearGradient id="SVGID_21_" gradientUnits="userSpaceOnUse" x1="960.2598" y1="-443.8604" x2="1110.5605" y2="-443.8604" gradientTransform="matrix(6.123234e-017 1 -1 6.123234e-017 104.625 -939.7422)">
		<stop  offset="0" style="stop-color:#000000;stop-opacity:0"/>
		<stop  offset="1" style="stop-color:#000000"/>
	</linearGradient>
	<path opacity="0.2" fill="url(#SVGID_21_)" enable-background="new    " d="M623.634,95.669c0-41.504-33.646-75.152-75.146-75.152
		c-41.508,0-75.151,33.648-75.151,75.152c0,41.503,33.646,75.149,75.151,75.149C589.987,170.818,623.634,137.172,623.634,95.669z
		 M484.81,95.669c0-35.17,28.512-63.679,63.681-63.679c35.171,0,63.678,28.509,63.678,63.679c0,35.167-28.507,63.677-63.678,63.677
		S484.81,130.836,484.81,95.669z"/>
	
		<linearGradient id="SVGID_22_" gradientUnits="userSpaceOnUse" x1="-785.5674" y1="-1435.231" x2="-724.3164" y2="-1435.231" gradientTransform="matrix(6.123234e-017 -1 1 6.123234e-017 1760.1719 -690.2676)">
		<stop  offset="0" style="stop-color:#FFFFFF;stop-opacity:0"/>
		<stop  offset="1" style="stop-color:#FFFFFF"/>
	</linearGradient>
	<path opacity="0.5" fill="url(#SVGID_22_)" enable-background="new    " d="M324.941,34.049c-33.826,0-61.251,27.423-61.251,61.251
		h122.502C386.192,61.472,358.772,34.049,324.941,34.049z"/>
	
		<linearGradient id="SVGID_23_" gradientUnits="userSpaceOnUse" x1="-783.8916" y1="-1211.6592" x2="-722.6406" y2="-1211.6592" gradientTransform="matrix(6.123234e-017 -1 1 6.123234e-017 1760.1719 -690.2676)">
		<stop  offset="0" style="stop-color:#FFFFFF;stop-opacity:0"/>
		<stop  offset="1" style="stop-color:#FFFFFF"/>
	</linearGradient>
	<path opacity="0.5" fill="url(#SVGID_23_)" enable-background="new    " d="M548.512,32.373c-33.821,0-61.25,27.423-61.25,61.251
		h122.502C609.764,59.795,582.342,32.373,548.512,32.373z"/>
	
		<linearGradient id="SVGID_24_" gradientUnits="userSpaceOnUse" x1="-1002.0879" y1="-1595.0762" x2="-940.8354" y2="-1595.0762" gradientTransform="matrix(6.123234e-017 -1 1 6.123234e-017 1760.1719 -690.2676)">
		<stop  offset="0" style="stop-color:#FFFFFF;stop-opacity:0"/>
		<stop  offset="1" style="stop-color:#FFFFFF"/>
	</linearGradient>
	<path opacity="0.5" fill="url(#SVGID_24_)" enable-background="new    " d="M165.095,250.568c-33.826,0-61.25,27.424-61.25,61.252
		h122.501C226.346,277.992,198.925,250.568,165.095,250.568z"/>
	
		<linearGradient id="SVGID_25_" gradientUnits="userSpaceOnUse" x1="-1139.4443" y1="-1434.8643" x2="-1078.1943" y2="-1434.8643" gradientTransform="matrix(6.123234e-017 -1 1 6.123234e-017 1760.1719 -690.2676)">
		<stop  offset="0" style="stop-color:#FFFFFF;stop-opacity:0"/>
		<stop  offset="1" style="stop-color:#FFFFFF"/>
	</linearGradient>
	<path opacity="0.5" fill="url(#SVGID_25_)" enable-background="new    " d="M325.307,387.927c-33.826,0-61.25,27.422-61.25,61.25
		h122.501C386.558,415.349,359.138,387.927,325.307,387.927z"/>
	
		<linearGradient id="SVGID_26_" gradientUnits="userSpaceOnUse" x1="-1139.4443" y1="-1213.2847" x2="-1078.1943" y2="-1213.2847" gradientTransform="matrix(6.123234e-017 -1 1 6.123234e-017 1760.1719 -690.2676)">
		<stop  offset="0" style="stop-color:#FFFFFF;stop-opacity:0"/>
		<stop  offset="1" style="stop-color:#FFFFFF"/>
	</linearGradient>
	<path opacity="0.5" fill="url(#SVGID_26_)" enable-background="new    " d="M546.886,387.927c-33.823,0-61.25,27.422-61.25,61.25
		h122.503C608.139,415.349,580.717,387.927,546.886,387.927z"/>
	
		<linearGradient id="SVGID_27_" gradientUnits="userSpaceOnUse" x1="-1002.0879" y1="-1050.8594" x2="-940.8354" y2="-1050.8594" gradientTransform="matrix(6.123234e-017 -1 1 6.123234e-017 1760.1719 -690.2676)">
		<stop  offset="0" style="stop-color:#FFFFFF;stop-opacity:0"/>
		<stop  offset="1" style="stop-color:#FFFFFF"/>
	</linearGradient>
	<path opacity="0.5" fill="url(#SVGID_27_)" enable-background="new    " d="M709.314,250.568
		c-33.827,0-61.252,27.424-61.252,61.252h122.5C770.563,277.992,743.145,250.568,709.314,250.568z"/>
	<g>
		<path fill="#333333" d="M464.671,333.98c-0.002-3.56,2.881-6.443,6.439-6.445c0.002,0,0.004,0,0.006,0
			c3.56,0,6.443,2.886,6.446,6.445c-0.004,3.559-2.889,6.441-6.446,6.442c-3.559,0.002-6.443-2.881-6.445-6.438
			C464.671,333.983,464.671,333.981,464.671,333.98z"/>
		<circle fill="#333333" cx="400.86" cy="333.98" r="6.445"/>
		<path fill="#333333" d="M548.261,366.74h-2.193v-21.898c0-5.453-4.437-9.885-9.889-9.885h-64.794v-2.197h64.794
			c6.662,0,12.082,5.42,12.082,12.082V366.74L548.261,366.74z M326.181,366.74h-2.198v-21.898c0-6.662,5.42-12.082,12.08-12.082
			h64.8v2.197h-64.8c-5.449,0-9.882,4.434-9.882,9.885V366.74L326.181,366.74z"/>
		<circle fill="#333333" cx="325.501" cy="191.031" r="6.446"/>
		<path fill="#333333" d="M401.28,220.089h-64.795c-6.662,0-12.081-5.417-12.081-12.078v-23.356h2.196v23.356
			c0,5.449,4.436,9.885,9.885,9.885h64.795V220.089z"/>
		<path fill="#333333" d="M400.878,219.05l-5.951,5.951l1.552,1.552l5.951-5.951l1.551-1.552l-1.551-1.552l-5.951-5.952
			l-1.552,1.552L400.878,219.05z"/>
		<circle fill="#333333" cx="546.771" cy="191.031" r="6.446"/>
		<path fill="#333333" d="M470.995,220.089h64.795c6.661,0,12.082-5.417,12.082-12.078v-23.356h-2.198v23.356
			c0,5.449-4.436,9.885-9.884,9.885h-64.795V220.089z"/>
		<path fill="#333333" d="M471.396,219.05l5.948,5.951l-1.552,1.552l-5.95-5.951l-1.551-1.552l1.551-1.552l5.95-5.952l1.552,1.552
			L471.396,219.05z M325.165,365.5l-5.952-5.952l-1.551,1.551l5.951,5.951l1.552,1.551l1.551-1.551l5.951-5.951l-1.552-1.551
			L325.165,365.5z M547.063,365.5l-5.948-5.952l-1.554,1.551l5.95,5.951l1.553,1.551l1.553-1.551l5.953-5.951l-1.554-1.551
			L547.063,365.5z"/>
		<circle fill="#333333" cx="345.652" cy="309.839" r="6.446"/>
		<path fill="#333333" d="M254.279,308.621h92.833v2.197h-92.833V308.621z"/>
		<path fill="#333333" d="M254.444,309.839l5.95-5.948l-1.552-1.552l-5.95,5.95l-1.552,1.55l1.552,1.553l5.95,5.951l1.552-1.551
			L254.444,309.839z M533.423,309.843c-0.001,3.561-2.888,6.444-6.447,6.443c0,0,0,0-0.001,0c-3.557,0-6.438-2.884-6.438-6.44
			c0-0.001,0-0.002,0-0.003c0-3.559,2.885-6.444,6.442-6.444C530.538,303.398,533.423,306.284,533.423,309.843z"/>
		<path fill="#333333" d="M525.517,308.865h92.834v2.194h-92.834V308.865z"/>
		<path fill="#333333" d="M618.186,309.839l-5.948,5.953l1.552,1.551l5.949-5.951l1.552-1.553l-1.552-1.55l-5.949-5.95l-1.552,1.552
			L618.186,309.839z"/>
	</g>
	<g>
		<path fill="#FFFFFF" d="M655.366,328.386v12.528h-2.146l-4.834-6.802v6.802h-2.861v-12.528h2.146l4.832,6.802v-6.802H655.366z
			 M656.084,334.65c0-3.688,2.918-6.517,6.516-6.517c3.6,0,6.517,2.827,6.517,6.517c0,3.688-2.917,6.516-6.517,6.516
			C659.002,341.166,656.084,338.337,656.084,334.65z M666.25,334.65c0-2.237-1.611-3.725-3.65-3.725
			c-2.041,0-3.649,1.484-3.649,3.725c0,2.237,1.608,3.723,3.649,3.723C664.639,338.373,666.25,336.888,666.25,334.65z
			 M672.873,334.65c0-3.688,2.738-6.517,6.516-6.517c2.272,0,4.277,1.127,5.369,2.898l-2.471,1.432
			c-0.555-0.967-1.628-1.538-2.898-1.538c-2.219,0-3.649,1.484-3.649,3.725c0,2.237,1.433,3.723,3.649,3.723
			c1.271,0,2.363-0.571,2.898-1.539l2.471,1.433c-1.074,1.771-3.078,2.899-5.369,2.899
			C675.611,341.165,672.873,338.337,672.873,334.65z"/>
		<path fill="#FFFFFF" d="M684.49,334.65c0-3.688,2.917-6.517,6.516-6.517c3.598,0,6.516,2.827,6.516,6.517
			c0,3.688-2.918,6.516-6.516,6.516C687.407,341.166,684.49,338.337,684.49,334.65z M694.656,334.65c0-2.237-1.609-3.725-3.65-3.725
			s-3.652,1.484-3.652,3.725c0,2.237,1.611,3.723,3.652,3.723C693.047,338.372,694.656,336.888,694.656,334.65z M702.461,336.798
			h-1.359v4.116h-2.861v-12.528h5.012c2.366-0.006,4.289,1.907,4.295,4.273c0,0.008,0,0.015,0,0.021
			c0,1.539-0.931,2.938-2.309,3.636l2.667,4.6h-3.079L702.461,336.798L702.461,336.798z M701.1,334.292h2.148
			c0.787,0,1.432-0.697,1.432-1.61s-0.645-1.608-1.432-1.608H701.1V334.292L701.1,334.292z M712.575,336.798h-1.36v4.116h-2.863
			v-12.528h5.015c2.366-0.005,4.289,1.909,4.295,4.275c0,0.007,0,0.014,0,0.021c0,1.539-0.933,2.938-2.312,3.636l2.668,4.6h-3.077
			L712.575,336.798L712.575,336.798z M711.215,334.292h2.148c0.787,0,1.432-0.697,1.432-1.61s-0.645-1.608-1.432-1.608h-2.148
			V334.292L711.215,334.292z M718.285,336.869v-8.483h2.864v8.232c0,0.949,0.444,1.754,1.969,1.754c1.521,0,1.97-0.805,1.97-1.754
			v-8.232h2.862v8.483c0,2.686-2.076,4.296-4.832,4.296C720.361,341.165,718.285,339.555,718.285,336.869z M738.243,332.682
			c0,2.382-1.915,4.296-4.385,4.296h-1.882v3.938h-2.861v-12.529h4.743C736.328,328.386,738.243,330.301,738.243,332.682z
			 M735.381,332.682c0-0.913-0.646-1.608-1.521-1.608h-1.88v3.222h1.88C734.735,334.292,735.381,333.595,735.381,332.682z"/>
		<path fill="#FFFFFF" d="M747.014,331.143h-3.223v9.771h-2.863v-9.771h-3.223v-2.757h9.309V331.143z M750.236,328.386v12.528
			h-2.863v-12.528H750.236L750.236,328.386z M750.953,334.65c0-3.688,2.917-6.517,6.516-6.517c3.6,0,6.518,2.827,6.518,6.517
			c0,3.688-2.919,6.516-6.518,6.516S750.953,338.337,750.953,334.65z M761.119,334.65c0-2.237-1.609-3.725-3.65-3.725
			s-3.649,1.484-3.649,3.725c0,2.237,1.608,3.723,3.649,3.723C759.51,338.372,761.119,336.888,761.119,334.65z M774.545,328.386
			v12.528h-2.146l-4.833-6.802v6.802h-2.863v-12.528h2.146l4.834,6.802v-6.802H774.545L774.545,328.386z"/>
	</g>
	<g>
		<g>
			<path fill="#FFFFFF" d="M264.019,473.411c0-3.734,2.773-6.599,6.598-6.599c2.302,0,4.333,1.143,5.438,2.938l-2.501,1.449
				c-0.562-0.979-1.65-1.56-2.937-1.56c-2.248,0-3.698,1.505-3.698,3.771c0,2.266,1.45,3.771,3.698,3.771
				c1.287,0,2.393-0.58,2.937-1.559l2.501,1.45c-1.088,1.794-3.118,2.937-5.438,2.937
				C266.792,480.01,264.019,477.146,264.019,473.411z"/>
			<path fill="#FFFFFF" d="M275.782,473.411c0-3.734,2.955-6.599,6.598-6.599s6.599,2.863,6.599,6.599s-2.955,6.599-6.599,6.599
				S275.782,477.146,275.782,473.411z M286.079,473.411c0-2.267-1.632-3.771-3.698-3.771c-2.066,0-3.698,1.505-3.698,3.771
				c0,2.266,1.631,3.771,3.698,3.771C284.448,477.182,286.079,475.677,286.079,473.411z"/>
			<path fill="#FFFFFF" d="M302.391,479.756h-2.9v-7.378l-3.281,5.384h-0.326l-3.281-5.384v7.378h-2.9v-12.688h2.9l3.444,5.638
				l3.444-5.638h2.9V479.756z"/>
			<path fill="#FFFFFF" d="M312.903,471.417c0,2.411-1.939,4.351-4.441,4.351h-1.904v3.988h-2.9v-12.688h4.804
				C310.963,467.066,312.903,469.006,312.903,471.417z M310.002,471.417c0-0.924-0.652-1.631-1.541-1.631h-1.904v3.263h1.904
				C309.35,473.049,310.002,472.342,310.002,471.417z"/>
			<path fill="#FFFFFF" d="M320.878,476.964v2.792h-7.432v-12.688h2.9v9.896H320.878z"/>
			<path fill="#FFFFFF" d="M329.215,476.964v2.792h-7.977v-12.688h7.886v2.792h-4.985v2.103h4.532v2.756h-4.532v2.247
				L329.215,476.964L329.215,476.964z"/>
			<path fill="#FFFFFF" d="M338.459,469.858h-3.263v9.896h-2.9v-9.896h-3.263v-2.792h9.426V469.858z"/>
			<path fill="#FFFFFF" d="M346.796,476.964v2.792h-7.977v-12.688h7.886v2.792h-4.985v2.103h4.532v2.756h-4.532v2.247
				L346.796,476.964L346.796,476.964z"/>
			<path fill="#FFFFFF" d="M357.49,467.066v12.688h-2.175l-4.895-6.889v6.889h-2.9v-12.688h2.176l4.894,6.889v-6.889H357.49z"/>
			<path fill="#FFFFFF" d="M366.734,476.964v2.792h-7.977v-12.688h7.886v2.792h-4.985v2.103h4.532v2.756h-4.532v2.247
				L366.734,476.964L366.734,476.964z"/>
			<path fill="#FFFFFF" d="M366.823,476.874l2.501-1.45c0.453,1.051,1.233,1.758,2.665,1.758c1.377,0,1.722-0.544,1.722-1.032
				c0-0.779-0.725-1.089-2.628-1.613c-1.886-0.525-3.734-1.433-3.734-3.861c0-2.447,2.066-3.86,4.26-3.86
				c2.085,0,3.716,0.996,4.641,2.863l-2.447,1.434c-0.435-0.906-1.033-1.47-2.193-1.47c-0.906,0-1.359,0.453-1.359,0.962
				c0,0.579,0.308,0.979,2.284,1.576c1.921,0.58,4.079,1.251,4.079,3.935c0,2.446-1.958,3.896-4.713,3.896
				C369.234,480.01,367.53,478.74,366.823,476.874z"/>
			<path fill="#FFFFFF" d="M376.158,476.874l2.501-1.45c0.454,1.051,1.233,1.758,2.665,1.758c1.377,0,1.722-0.544,1.722-1.032
				c0-0.779-0.725-1.089-2.629-1.613c-1.885-0.525-3.734-1.433-3.734-3.861c0-2.447,2.066-3.86,4.26-3.86
				c2.084,0,3.716,0.996,4.641,2.863l-2.447,1.434c-0.435-0.906-1.033-1.47-2.193-1.47c-0.906,0-1.359,0.453-1.359,0.962
				c0,0.579,0.308,0.979,2.284,1.576c1.922,0.58,4.079,1.251,4.079,3.935c0,2.446-1.958,3.896-4.713,3.896
				C378.569,480.01,376.865,478.74,376.158,476.874z"/>
		</g>
	</g>
	<g>
		<g>
			<path fill="#FFFFFF" d="M515.688,475.557h-1.378v4.17h-2.899v-12.688h5.075c2.411,0,4.351,1.938,4.351,4.351
				c0,1.56-0.942,2.974-2.338,3.681l2.701,4.659h-3.118L515.688,475.557z M514.31,473.02h2.176c0.798,0,1.449-0.707,1.449-1.632
				s-0.651-1.632-1.449-1.632h-2.176V473.02z"/>
			<path fill="#FFFFFF" d="M529.081,477.732h-4.713l-0.635,1.993h-3.173l4.314-12.688h3.697l4.313,12.688h-3.172L529.081,477.732z
				 M528.212,475.013l-1.487-4.659l-1.485,4.659H528.212z"/>
			<path fill="#FFFFFF" d="M542.313,471.388c0,2.411-1.938,4.352-4.44,4.352h-1.903v3.987h-2.899v-12.688h4.804
				C540.374,467.037,542.313,468.977,542.313,471.388z M539.413,471.388c0-0.925-0.652-1.632-1.541-1.632h-1.903v3.264h1.903
				C538.761,473.02,539.413,472.313,539.413,471.388z"/>
			<path fill="#FFFFFF" d="M545.756,467.037v12.688h-2.9v-12.688H545.756z"/>
			<path fill="#FFFFFF" d="M558.263,473.381c0,3.59-2.664,6.346-6.163,6.346h-5.074v-12.688h5.074
				C555.599,467.037,558.263,469.792,558.263,473.381z M555.472,473.381c0-2.175-1.378-3.553-3.372-3.553h-2.175v7.105h2.175
				C554.094,476.935,555.472,475.557,555.472,473.381z"/>
			<path fill="#FFFFFF" d="M561.887,467.037v12.688h-2.899v-12.688H561.887z"/>
			<path fill="#FFFFFF" d="M571.675,469.828h-3.263v9.897h-2.9v-9.897h-3.263v-2.791h9.426V469.828z"/>
			<path fill="#FFFFFF" d="M578.108,474.85v4.877h-2.9v-4.877l-4.26-7.813h3.3l2.411,4.895l2.41-4.895h3.3L578.108,474.85z"/>
		</g>
	</g>
</g>
</svg>
