<?xml version="1.0" encoding="utf-8"?>
<!-- Generator: Adobe Illustrator 16.0.0, SVG Export Plug-In . SVG Version: 6.00 Build 0)  -->
<!DOCTYPE svg PUBLIC "-//W3C//DTD SVG 1.1//EN" "http://www.w3.org/Graphics/SVG/1.1/DTD/svg11.dtd">
<svg version="1.1" id="Layer_1" xmlns="http://www.w3.org/2000/svg" xmlns:xlink="http://www.w3.org/1999/xlink" x="0px" y="0px"
	 width="404.43px" height="226.553px" viewBox="0 0 404.43 226.553" enable-background="new 0 0 404.43 226.553"
	 xml:space="preserve">
<g>
	<g>
		<g>
			<g>
				<g>
					
						<linearGradient id="SVGID_1_" gradientUnits="userSpaceOnUse" x1="28.3379" y1="150.9082" x2="236.4297" y2="150.9082" gradientTransform="matrix(1 0 0 1 168 -79.7549)">
						<stop  offset="0" style="stop-color:#4B48BF"/>
						<stop  offset="1" style="stop-color:#A14B8A"/>
					</linearGradient>
					<path fill="url(#SVGID_1_)" d="M196.338,71.152c0,10.269,8.324,18.591,18.59,18.591h170.911
						c10.271,0,18.591-8.322,18.591-18.591l0,0c0-10.269-8.319-18.589-18.591-18.589H214.928
						C204.663,52.563,196.338,60.884,196.338,71.152L196.338,71.152z"/>
					
						<linearGradient id="SVGID_2_" gradientUnits="userSpaceOnUse" x1="28.3379" y1="203.4697" x2="236.4297" y2="203.4697" gradientTransform="matrix(1 0 0 1 168 -79.7549)">
						<stop  offset="0" style="stop-color:#4B48BF"/>
						<stop  offset="1" style="stop-color:#A14B8A"/>
					</linearGradient>
					<path fill="url(#SVGID_2_)" d="M196.338,123.717c0,10.265,8.324,18.588,18.59,18.588h170.911
						c10.271,0,18.591-8.323,18.591-18.588l0,0c0-10.266-8.319-18.593-18.591-18.593H214.928
						C204.663,105.124,196.338,113.451,196.338,123.717L196.338,123.717z"/>
					
						<linearGradient id="SVGID_3_" gradientUnits="userSpaceOnUse" x1="28.3379" y1="256.0352" x2="236.4297" y2="256.0352" gradientTransform="matrix(1 0 0 1 168 -79.7549)">
						<stop  offset="0" style="stop-color:#4B48BF"/>
						<stop  offset="1" style="stop-color:#A14B8A"/>
					</linearGradient>
					<path fill="url(#SVGID_3_)" d="M196.338,176.278c0,10.266,8.324,18.591,18.59,18.591h170.911
						c10.271,0,18.591-8.325,18.591-18.591l0,0c0-10.266-8.319-18.587-18.591-18.587H214.928
						C204.663,157.691,196.338,166.012,196.338,176.278L196.338,176.278z"/>
					
						<linearGradient id="SVGID_4_" gradientUnits="userSpaceOnUse" x1="28.3379" y1="98.3447" x2="236.4297" y2="98.3447" gradientTransform="matrix(1 0 0 1 168 -79.7549)">
						<stop  offset="0" style="stop-color:#4B48BF"/>
						<stop  offset="1" style="stop-color:#A14B8A"/>
					</linearGradient>
					<path fill="url(#SVGID_4_)" d="M196.338,18.589c0,10.266,8.324,18.59,18.59,18.59h170.911c10.271,0,18.591-8.324,18.591-18.59
						l0,0C404.43,8.323,396.109,0,385.839,0H214.928C204.663,0,196.338,8.323,196.338,18.589L196.338,18.589z"/>
					<circle fill="#333333" cx="138.609" cy="18.589" r="6.447"/>
					<circle fill="#333333" cx="174.808" cy="71.152" r="6.447"/>
					<circle fill="#333333" cx="174.808" cy="123.716" r="6.447"/>
					<circle fill="#333333" cx="138.609" cy="176.278" r="6.447"/>
					<g>
						<line fill="none" x1="196.338" y1="18.589" x2="145.056" y2="18.589"/>
						<rect x="145.056" y="17.489" fill="#333333" width="51.282" height="2.197"/>
					</g>
					<g>
						<line fill="none" x1="196.608" y1="71.152" x2="181.254" y2="71.152"/>
						<rect x="181.254" y="70.057" fill="#333333" width="15.354" height="2.195"/>
					</g>
					<g>
						<line fill="none" x1="196.608" y1="123.716" x2="181.254" y2="123.716"/>
						<rect x="181.254" y="122.617" fill="#333333" width="15.354" height="2.198"/>
					</g>
					<g>
						<line fill="none" x1="196.338" y1="176.278" x2="145.056" y2="176.278"/>
						<rect x="145.056" y="175.18" fill="#333333" width="51.282" height="2.198"/>
					</g>
				</g>
				<g>
					
						<linearGradient id="SVGID_5_" gradientUnits="userSpaceOnUse" x1="-165.2783" y1="177.7441" x2="-10.332" y2="177.7441" gradientTransform="matrix(1 0 0 1 168 -79.7549)">
						<stop  offset="0" style="stop-color:#4B48BF"/>
						<stop  offset="1" style="stop-color:#4E48BD"/>
					</linearGradient>
					<circle fill="url(#SVGID_5_)" cx="80.195" cy="97.989" r="77.473"/>
					<g>
						<g>
							<path fill="#FFFFFF" d="M25.388,114.098h-3.164v9.598h-2.813v-9.598h-3.164v-2.707h9.141V114.098z"/>
							<path fill="#FFFFFF" d="M34.35,120.988v2.707h-7.732V111.39h7.646v2.707h-4.834v2.039h4.396v2.672h-4.396v2.18H34.35z"/>
							<path fill="#FFFFFF" d="M35.314,117.543c0-3.621,2.688-6.398,6.396-6.398c2.232,0,4.201,1.107,5.273,2.848l-2.428,1.406
								c-0.545-0.949-1.6-1.512-2.848-1.512c-2.18,0-3.586,1.459-3.586,3.656c0,2.197,1.406,3.656,3.586,3.656
								c1.248,0,2.32-0.563,2.848-1.512l2.428,1.406c-1.057,1.74-3.023,2.848-5.273,2.848
								C38.003,123.941,35.314,121.164,35.314,117.543z"/>
							<path fill="#FFFFFF" d="M57.792,111.391v12.305h-2.813v-4.887h-3.867v4.887h-2.813v-12.305h2.813v4.711h3.867v-4.711H57.792z
								"/>
							<path fill="#FFFFFF" d="M69.566,111.391v12.305h-2.109l-4.746-6.68v6.68h-2.813v-12.305h2.107l4.746,6.68v-6.68H69.566z"/>
							<path fill="#FFFFFF" d="M71.145,117.543c0-3.621,2.864-6.398,6.397-6.398s6.398,2.777,6.398,6.398s-2.865,6.398-6.398,6.398
								S71.145,121.164,71.145,117.543z M81.128,117.543c0-2.197-1.582-3.656-3.586-3.656s-3.586,1.459-3.586,3.656
								c0,2.197,1.582,3.656,3.586,3.656S81.128,119.74,81.128,117.543z"/>
							<path fill="#FFFFFF" d="M92.726,120.988v2.707H85.52V111.39h2.813v9.598H92.726z"/>
							<path fill="#FFFFFF" d="M92.723,117.543c0-3.621,2.865-6.398,6.398-6.398s6.398,2.777,6.398,6.398s-2.865,6.398-6.398,6.398
								S92.723,121.164,92.723,117.543z M102.707,117.543c0-2.197-1.582-3.656-3.586-3.656s-3.586,1.459-3.586,3.656
								c0,2.197,1.582,3.656,3.586,3.656S102.707,119.74,102.707,117.543z"/>
							<path fill="#FFFFFF" d="M119.28,117.895c0,3.762-2.619,6.047-6.064,6.047c-3.867,0-6.645-2.848-6.645-6.381
								c0-3.568,2.83-6.416,6.45-6.416c2.354,0,4.343,1.16,5.38,2.813l-2.393,1.371c-0.51-0.809-1.617-1.441-3.006-1.441
								c-2.074,0-3.621,1.529-3.621,3.691c0,2.092,1.479,3.621,3.867,3.621c1.635,0,2.707-0.721,3.146-1.898h-3.286v-2.461h6.17
								L119.28,117.895L119.28,117.895z"/>
							<path fill="#FFFFFF" d="M123.669,111.391v12.305h-2.813v-12.305H123.669z"/>
							<path fill="#FFFFFF" d="M133.511,120.988v2.707h-7.732V111.39h7.646v2.707h-4.834v2.039h4.396v2.672h-4.396v2.18H133.511z"/>
							<path fill="#FFFFFF" d="M134.475,120.9l2.428-1.406c0.438,1.02,1.193,1.705,2.584,1.705c1.336,0,1.67-0.527,1.67-1.002
								c0-0.756-0.703-1.055-2.549-1.564c-1.828-0.51-3.621-1.389-3.621-3.744c0-2.373,2.004-3.744,4.131-3.744
								c2.021,0,3.604,0.967,4.5,2.777l-2.373,1.389c-0.422-0.879-1.002-1.424-2.127-1.424c-0.879,0-1.318,0.439-1.318,0.932
								c0,0.563,0.299,0.949,2.215,1.529c1.863,0.563,3.955,1.213,3.955,3.814c0,2.373-1.896,3.779-4.568,3.779
								C136.813,123.941,135.161,122.711,134.475,120.9z"/>
						</g>
					</g>
					<g>
						<g>
							<path fill="#FFFFFF" d="M65.585,56.229c2.619,0,5.241,0.02,7.86-0.012c0.617-0.011,0.98,0.199,1.333,0.698
								c1.264,1.799,2.599,3.549,3.852,5.356c0.396,0.574,0.795,0.787,1.503,0.765c2.403-0.071,4.399,1.685,4.658,4
								c0.268,2.466-1.229,4.625-3.619,5.119c-1.725,0.354-3.254-0.107-4.436-1.438c-1.198-1.351-1.467-2.945-0.89-4.639
								c0.159-0.481,0.132-0.806-0.168-1.21c-1.02-1.366-2.013-2.753-2.995-4.149c-0.246-0.352-0.507-0.528-0.965-0.525
								c-3.437,0.02-6.873,0.02-10.309-0.006c-0.587-0.003-0.758,0.185-0.755,0.763c0.017,3.904,0.012,7.812,0.003,11.715
								c0,0.393,0.1,0.713,0.333,1.028c1.905,2.586,3.807,5.18,5.692,7.776c0.247,0.337,0.511,0.454,0.933,0.449
								c2.625-0.037,4.638,1.785,4.828,4.332c0.183,2.433-1.657,4.588-4.187,4.91c-3.388,0.427-6.03-3.066-4.746-6.317
								c0.202-0.51,0.153-0.841-0.158-1.266c-2.097-2.817-4.153-5.661-6.24-8.484c-0.264-0.357-0.389-0.71-0.389-1.157
								c0.016-5.611,0.021-11.22-0.009-16.832c-0.006-0.741,0.239-0.902,0.929-0.894C60.293,56.249,62.941,56.228,65.585,56.229z
								 M80.216,65.53c-1.23-0.008-2.229,0.965-2.229,2.181c0,1.19,0.957,2.158,2.153,2.182c1.238,0.023,2.235-0.931,2.26-2.153
								C82.419,66.495,81.472,65.537,80.216,65.53z M67.837,88.728c1.216-0.011,2.173-0.972,2.155-2.161
								c-0.014-1.211-1.03-2.215-2.229-2.201c-1.203,0.016-2.132,0.958-2.132,2.176C65.634,87.79,66.593,88.738,67.837,88.728z"/>
							<path fill="#FFFFFF" d="M94.782,98.076c-2.674,0.006-5.342-0.008-8.013,0.017c-0.521,0.003-0.854-0.151-1.16-0.586
								c-1.364-1.944-2.773-3.855-4.145-5.788c-0.281-0.396-0.544-0.581-1.085-0.552c-2.038,0.117-3.855-1.136-4.541-3.033
								c-0.692-1.932-0.051-4.093,1.58-5.308c1.599-1.193,3.847-1.214,5.479-0.054c1.649,1.176,2.364,3.331,1.658,5.272
								c-0.223,0.618-0.146,1.035,0.233,1.538c0.999,1.321,1.956,2.673,2.906,4.028c0.266,0.378,0.55,0.558,1.033,0.555
								c3.409-0.017,6.817-0.017,10.23,0c0.575,0.005,0.774-0.168,0.771-0.757c-0.022-3.927-0.014-7.857-0.008-11.789
								c0-0.362-0.097-0.664-0.313-0.957c-1.953-2.645-3.906-5.29-5.834-7.95c-0.27-0.369-0.563-0.464-0.993-0.468
								c-2.491-0.029-4.447-1.916-4.55-4.359c-0.1-2.474,1.611-4.561,3.975-4.838c2.548-0.302,4.774,1.307,5.204,3.782
								c0.159,0.945,0.08,1.888-0.37,2.75c-0.216,0.416-0.143,0.709,0.122,1.065c2.097,2.818,4.166,5.651,6.266,8.465
								c0.296,0.397,0.43,0.79,0.43,1.288c-0.011,5.611-0.021,11.224,0.006,16.834c0.006,0.698-0.219,0.869-0.877,0.863
								C100.12,98.062,97.452,98.076,94.782,98.076z M80.197,88.728c1.224,0,2.218-0.989,2.203-2.199
								c-0.014-1.187-0.976-2.149-2.169-2.164c-1.23-0.017-2.226,0.937-2.238,2.164C77.979,87.742,78.963,88.728,80.197,88.728z
								 M92.677,65.53c-1.236-0.008-2.227,0.955-2.229,2.174c-0.002,1.22,0.98,2.193,2.213,2.189
								c1.198-0.001,2.188-0.969,2.194-2.134C94.861,66.518,93.902,65.537,92.677,65.53z"/>
							<path fill="#FFFFFF" d="M79.146,79.091c-1.608,0-3.219-0.026-4.82,0.013c-0.566,0.013-0.896-0.185-1.216-0.638
								c-1.295-1.836-2.647-3.633-3.945-5.472c-0.373-0.531-0.746-0.774-1.44-0.766c-2.426,0.026-4.33-1.817-4.541-4.29
								c-0.191-2.303,1.479-4.444,3.792-4.864c2.329-0.423,4.587,0.952,5.271,3.202c0.319,1.058,0.288,2.106-0.165,3.112
								c-0.182,0.418-0.146,0.714,0.12,1.076c1.013,1.374,2.007,2.759,2.972,4.166c0.29,0.421,0.618,0.551,1.107,0.549
								c3.243-0.019,6.48,0.001,9.72-0.02c0.572-0.006,0.945,0.148,1.29,0.632c1.301,1.836,2.664,3.627,3.971,5.46
								c0.35,0.487,0.688,0.698,1.327,0.678c2.438-0.068,4.492,1.808,4.669,4.165c0.193,2.585-1.441,4.652-3.983,5.042
								c-2.36,0.356-4.624-1.207-5.141-3.584c-0.192-0.911-0.171-1.831,0.216-2.693c0.199-0.447,0.125-0.769-0.157-1.145
								c-1.01-1.344-2.003-2.703-2.962-4.083c-0.294-0.413-0.614-0.558-1.112-0.552C82.459,79.107,80.803,79.091,79.146,79.091z
								 M92.661,88.728c1.204-0.005,2.209-0.989,2.194-2.151c-0.016-1.221-1.021-2.223-2.229-2.212
								c-1.196,0.006-2.167,0.968-2.181,2.161C90.434,87.745,91.43,88.738,92.661,88.728z M67.809,69.893
								c1.221-0.001,2.183-0.938,2.186-2.137c0.003-1.238-0.968-2.226-2.188-2.226c-1.242,0-2.188,0.965-2.172,2.215
								C65.649,68.959,66.593,69.894,67.809,69.893z"/>
						</g>
					</g>
				</g>
				<g>
					<g>
						<g>
							<path fill="#FFFFFF" d="M243.24,177.724h-1.002v3.032h-2.109v-9.229h3.691c1.753,0,3.164,1.411,3.164,3.164
								c0,1.134-0.688,2.162-1.7,2.677l1.964,3.388h-2.268L243.24,177.724z M242.238,175.878h1.582c0.58,0,1.055-0.514,1.055-1.187
								c0-0.672-0.475-1.187-1.055-1.187h-1.582V175.878z"/>
							<path fill="#FFFFFF" d="M254.035,178.726v2.03h-5.801v-9.229h5.733v2.03h-3.626v1.529h3.296v2.004h-3.296v1.635
								L254.035,178.726L254.035,178.726z"/>
							<path fill="#FFFFFF" d="M254.561,171.527h2.216l1.595,6.46l1.78-6.46h1.714l1.777,6.46l1.598-6.46h2.215l-2.545,9.229h-2.398
								l-1.504-5.444l-1.502,5.444h-2.398L254.561,171.527z"/>
							<path fill="#FFFFFF" d="M273.249,179.306h-3.428l-0.462,1.45h-2.309l3.14-9.229h2.688l3.139,9.229h-2.308L273.249,179.306z
								 M272.617,177.328l-1.081-3.388l-1.081,3.388H272.617z"/>
							<path fill="#FFFFFF" d="M279.917,177.724h-1.002v3.032h-2.109v-9.229h3.691c1.753,0,3.164,1.411,3.164,3.164
								c0,1.134-0.688,2.162-1.7,2.677l1.964,3.388h-2.268L279.917,177.724z M278.915,175.878h1.582c0.58,0,1.055-0.514,1.055-1.187
								c0-0.672-0.475-1.187-1.055-1.187h-1.582V175.878z"/>
							<path fill="#FFFFFF" d="M293.085,176.142c0,2.61-1.938,4.614-4.481,4.614h-3.69v-9.229h3.69
								C291.147,171.527,293.085,173.531,293.085,176.142z M291.055,176.142c0-1.582-1.002-2.584-2.45-2.584h-1.582v5.168h1.582
								C290.053,178.726,291.055,177.724,291.055,176.142z"/>
							<path fill="#FFFFFF" d="M297.102,178.66l1.82-1.055c0.329,0.765,0.896,1.278,1.938,1.278c1.002,0,1.252-0.396,1.252-0.751
								c0-0.567-0.527-0.791-1.911-1.174c-1.371-0.382-2.716-1.041-2.716-2.808c0-1.78,1.503-2.809,3.098-2.809
								c1.517,0,2.703,0.726,3.375,2.083l-1.779,1.042c-0.314-0.659-0.752-1.068-1.596-1.068c-0.658,0-0.988,0.33-0.988,0.699
								c0,0.422,0.227,0.712,1.661,1.146c1.397,0.422,2.966,0.91,2.966,2.861c0,1.779-1.424,2.834-3.428,2.834
								C298.856,180.94,297.617,180.018,297.102,178.66z"/>
							<path fill="#FFFFFF" d="M309.295,177.21v3.546h-2.109v-3.546l-3.099-5.683h2.399l1.754,3.56l1.753-3.56h2.397L309.295,177.21
								z"/>
							<path fill="#FFFFFF" d="M312.194,178.66l1.816-1.055c0.33,0.765,0.896,1.278,1.938,1.278c1.002,0,1.253-0.396,1.253-0.751
								c0-0.567-0.527-0.791-1.912-1.174c-1.371-0.382-2.716-1.041-2.716-2.808c0-1.78,1.503-2.809,3.099-2.809
								c1.518,0,2.702,0.726,3.375,2.083l-1.78,1.042c-0.314-0.659-0.751-1.068-1.595-1.068c-0.66,0-0.989,0.33-0.989,0.699
								c0,0.422,0.226,0.712,1.661,1.146c1.397,0.422,2.968,0.91,2.968,2.861c0,1.779-1.425,2.834-3.429,2.834
								C313.947,180.94,312.707,180.018,312.194,178.66z"/>
							<path fill="#FFFFFF" d="M326.231,173.558h-2.373v7.198h-2.109v-7.198h-2.373v-2.03h6.855V173.558z"/>
							<path fill="#FFFFFF" d="M332.953,178.726v2.03h-5.801v-9.229h5.733v2.03h-3.626v1.529h3.296v2.004h-3.296v1.635
								L332.953,178.726L332.953,178.726z"/>
							<path fill="#FFFFFF" d="M343.366,180.756h-2.109v-5.365l-2.387,3.915h-0.236l-2.387-3.915v5.365h-2.109v-9.229h2.109
								l2.505,4.101l2.505-4.101h2.109V180.756L343.366,180.756z"/>
						</g>
					</g>
					<g>
						<g>
							<path fill="#FFFFFF" d="M246.984,72.132c0,1.635-1.331,2.702-2.979,2.702h-3.876v-9.229h3.612
								c1.606,0,2.914,1.042,2.914,2.637c0,0.765-0.306,1.371-0.807,1.807C246.536,70.483,246.984,71.195,246.984,72.132z
								 M242.238,67.583v1.635h1.503c0.475,0,0.805-0.343,0.805-0.817s-0.314-0.817-0.805-0.817L242.238,67.583L242.238,67.583z
								 M244.874,71.974c0-0.515-0.343-0.884-0.87-0.884h-1.767v1.767h1.767C244.532,72.856,244.874,72.487,244.874,71.974z"/>
							<path fill="#FFFFFF" d="M253.441,72.804v2.03h-5.405v-9.229h2.107v7.198h3.298V72.804L253.441,72.804z"/>
							<path fill="#FFFFFF" d="M253.44,70.22c0-2.716,2.146-4.799,4.799-4.799c2.649,0,4.799,2.083,4.799,4.799
								c0,2.716-2.148,4.799-4.799,4.799C255.588,75.019,253.44,72.936,253.44,70.22z M260.928,70.22
								c0-1.646-1.187-2.742-2.688-2.742s-2.689,1.095-2.689,2.742c0,1.648,1.188,2.742,2.689,2.742S260.928,71.868,260.928,70.22z"
								/>
							<path fill="#FFFFFF" d="M263.825,70.22c0-2.716,2.018-4.799,4.799-4.799c1.674,0,3.15,0.831,3.955,2.136l-1.819,1.055
								c-0.408-0.712-1.198-1.134-2.136-1.134c-1.635,0-2.688,1.095-2.688,2.742c0,1.648,1.055,2.742,2.688,2.742
								c0.938,0,1.74-0.422,2.136-1.134l1.819,1.055c-0.791,1.306-2.269,2.136-3.955,2.136
								C265.842,75.019,263.825,72.936,263.825,70.22z"/>
							<path fill="#FFFFFF" d="M278.627,74.834l-2.953-4.271v4.271h-2.107v-9.229h2.107v4.008l2.821-4.008h2.397l-3.109,4.496
								l3.243,4.732L278.627,74.834L278.627,74.834z"/>
							<path fill="#FFFFFF" d="M280.628,70.22c0-2.716,2.019-4.799,4.799-4.799c1.675,0,3.151,0.831,3.955,2.136l-1.817,1.055
								c-0.408-0.712-1.199-1.134-2.138-1.134c-1.635,0-2.688,1.095-2.688,2.742c0,1.648,1.055,2.742,2.688,2.742
								c0.938,0,1.74-0.422,2.138-1.134l1.817,1.055c-0.791,1.306-2.268,2.136-3.955,2.136
								C282.645,75.019,280.628,72.936,280.628,70.22z"/>
							<path fill="#FFFFFF" d="M297.488,65.605v9.229h-2.109v-3.665h-2.9v3.665h-2.107v-9.229h2.107v3.533h2.9v-3.533H297.488z"/>
							<path fill="#FFFFFF" d="M304.472,73.384h-3.428l-0.462,1.45h-2.307l3.138-9.229h2.689l3.138,9.229h-2.307L304.472,73.384z
								 M303.839,71.406l-1.081-3.388l-1.081,3.388H303.839z"/>
							<path fill="#FFFFFF" d="M310.138,65.605v9.229h-2.107v-9.229H310.138z"/>
							<path fill="#FFFFFF" d="M318.97,65.605v9.229h-1.582l-3.56-5.01v5.01h-2.109v-9.229h1.582l3.562,5.01v-5.01H318.97z"/>
						</g>
					</g>
					<g>
						<g>
							<path fill="#FFFFFF" d="M249.355,21.684h-2.109v-5.365l-2.386,3.915h-0.238l-2.386-3.915v5.365h-2.109v-9.229h2.109
								l2.505,4.101l2.505-4.101h2.109V21.684L249.355,21.684z"/>
							<path fill="#FFFFFF" d="M250.209,18.704v-6.249h2.109v6.064c0,0.699,0.329,1.292,1.447,1.292
								c1.121,0,1.451-0.593,1.451-1.292v-6.064h2.109v6.249c0,1.978-1.529,3.164-3.563,3.164
								C251.739,21.868,250.209,20.682,250.209,18.704z"/>
							<path fill="#FFFFFF" d="M263.587,19.653v2.03h-5.405v-9.229h2.109v7.198L263.587,19.653L263.587,19.653z"/>
							<path fill="#FFFFFF" d="M269.124,14.485h-2.373v7.198h-2.109v-7.198h-2.372v-2.03h6.854V14.485z"/>
							<path fill="#FFFFFF" d="M271.494,12.455v9.229h-2.109v-9.229H271.494z"/>
							<path fill="#FFFFFF" d="M280.457,19.653v2.03h-5.405v-9.229h2.109v7.198L280.457,19.653L280.457,19.653z"/>
							<path fill="#FFFFFF" d="M286.52,19.653v2.03h-5.801v-9.229h5.734v2.03h-3.625v1.529h3.296v2.004h-3.296v1.635L286.52,19.653
								L286.52,19.653z"/>
							<path fill="#FFFFFF" d="M286.254,12.455h2.307l2.046,6.79l2.044-6.79h2.307l-3.006,9.229h-2.689L286.254,12.455z"/>
							<path fill="#FFFFFF" d="M300.885,19.653v2.03h-5.801v-9.229h5.734v2.03h-3.625v1.529h3.296v2.004h-3.296v1.635
								L300.885,19.653L300.885,19.653z"/>
							<path fill="#FFFFFF" d="M306.816,19.653v2.03h-5.405v-9.229h2.107v7.198L306.816,19.653L306.816,19.653z"/>
							<path fill="#FFFFFF" d="M308.922,12.455h2.309l2.044,6.79l2.044-6.79h2.307l-3.006,9.229h-2.689L308.922,12.455z"/>
							<path fill="#FFFFFF" d="M323.554,19.653v2.03h-5.801v-9.229h5.735v2.03h-3.626v1.529h3.296v2.004h-3.296v1.635
								L323.554,19.653L323.554,19.653z"/>
							<path fill="#FFFFFF" d="M327.19,18.651h-1.003v3.032h-2.108v-9.229h3.69c1.755,0,3.163,1.411,3.163,3.164
								c0,1.134-0.686,2.162-1.699,2.677l1.965,3.388h-2.27L327.19,18.651z M326.188,16.806h1.581c0.579,0,1.056-0.514,1.056-1.187
								c0-0.672-0.477-1.187-1.056-1.187h-1.581V16.806z"/>
							<path fill="#FFFFFF" d="M333.634,12.455v9.229h-2.107v-9.229H333.634z"/>
							<path fill="#FFFFFF" d="M336.665,14.485v1.78h3.428v2.03h-3.428v3.388h-2.109v-9.229h5.604v2.03L336.665,14.485
								L336.665,14.485z"/>
							<path fill="#FFFFFF" d="M342.86,12.455v9.229h-2.109v-9.229H342.86z"/>
							<path fill="#FFFFFF" d="M343.386,17.069c0-2.716,2.019-4.799,4.8-4.799c1.676,0,3.15,0.831,3.954,2.136l-1.817,1.055
								c-0.408-0.712-1.199-1.134-2.137-1.134c-1.636,0-2.688,1.095-2.688,2.742c0,1.648,1.055,2.742,2.688,2.742
								c0.938,0,1.739-0.422,2.137-1.134l1.817,1.055c-0.791,1.306-2.268,2.136-3.954,2.136
								C345.403,21.868,343.386,19.785,343.386,17.069z"/>
							<path fill="#FFFFFF" d="M357.873,20.233h-3.428l-0.462,1.45h-2.309l3.14-9.229h2.688l3.138,9.229h-2.307L357.873,20.233z
								 M357.24,18.256l-1.081-3.388l-1.081,3.388H357.24z"/>
							<path fill="#FFFFFF" d="M366.308,14.485h-2.372v7.198h-2.108v-7.198h-2.373v-2.03h6.854V14.485z"/>
							<path fill="#FFFFFF" d="M368.679,12.455v9.229h-2.107v-9.229H368.679z"/>
							<path fill="#FFFFFF" d="M369.206,17.069c0-2.716,2.148-4.799,4.799-4.799c2.651,0,4.799,2.083,4.799,4.799
								c0,2.716-2.146,4.799-4.799,4.799C371.354,21.868,369.206,19.785,369.206,17.069z M376.694,17.069
								c0-1.647-1.188-2.742-2.689-2.742s-2.688,1.095-2.688,2.742c0,1.648,1.187,2.742,2.688,2.742S376.694,18.718,376.694,17.069z
								"/>
							<path fill="#FFFFFF" d="M386.578,12.455v9.229h-1.582l-3.561-5.01v5.01h-2.108v-9.229h1.582l3.56,5.01v-5.01H386.578z"/>
						</g>
					</g>
					<g>
						<path fill="#FFFFFF" d="M248.302,122.533c0,2.61-1.938,4.614-4.48,4.614h-3.691v-9.229h3.691
							C246.364,117.919,248.302,119.923,248.302,122.533z M246.272,122.533c0-1.582-1.003-2.584-2.452-2.584h-1.582v5.168h1.582
							C245.27,125.117,246.272,124.115,246.272,122.533z"/>
						<path fill="#FFFFFF" d="M255.287,125.117v2.03h-5.801v-9.229h5.733v2.03h-3.626v1.529h3.296v2.004h-3.296v1.635
							L255.287,125.117L255.287,125.117z"/>
						<path fill="#FFFFFF" d="M256.009,122.533c0-2.716,2.019-4.799,4.799-4.799c1.677,0,3.151,0.831,3.955,2.136l-1.817,1.055
							c-0.408-0.712-1.199-1.134-2.137-1.134c-1.636,0-2.688,1.095-2.688,2.742c0,1.648,1.055,2.742,2.688,2.742
							c0.938,0,1.739-0.422,2.137-1.134l1.817,1.055c-0.791,1.306-2.268,2.136-3.955,2.136
							C258.026,127.332,256.009,125.249,256.009,122.533z"/>
						<path fill="#FFFFFF" d="M271.55,125.117v2.03h-5.801v-9.229h5.735v2.03h-3.626v1.529h3.296v2.004h-3.296v1.635L271.55,125.117
							L271.55,125.117z"/>
						<path fill="#FFFFFF" d="M279.986,117.919v9.229h-1.582l-3.562-5.01v5.01h-2.107v-9.229h1.582l3.56,5.01v-5.01H279.986z"/>
						<path fill="#FFFFFF" d="M287.761,119.949h-2.373v7.198h-2.107v-7.198h-2.373v-2.03h6.854V119.949L287.761,119.949z"/>
						<path fill="#FFFFFF" d="M291.792,124.115h-1.002v3.032h-2.109v-9.229h3.691c1.753,0,3.164,1.411,3.164,3.164
							c0,1.134-0.688,2.162-1.7,2.677l1.964,3.388h-2.268L291.792,124.115z M290.79,122.27h1.582c0.58,0,1.055-0.514,1.055-1.187
							c0-0.672-0.475-1.187-1.055-1.187h-1.582V122.27z"/>
						<path fill="#FFFFFF" d="M302.192,125.697h-3.43l-0.461,1.45h-2.308l3.138-9.229h2.689l3.138,9.229h-2.308L302.192,125.697z
							 M301.559,123.72l-1.08-3.388l-1.08,3.388H301.559z"/>
						<path fill="#FFFFFF" d="M311.154,125.117v2.03h-5.405v-9.229h2.109v7.198L311.154,125.117L311.154,125.117z"/>
						<path fill="#FFFFFF" d="M314.184,117.919v9.229h-2.107v-9.229H314.184z"/>
						<path fill="#FFFFFF" d="M321.764,125.117v2.03h-6.328v-1.635l3.533-5.563h-3.468v-2.03h6.196v1.635l-3.533,5.563H321.764z"/>
						<path fill="#FFFFFF" d="M328.354,125.697h-3.43l-0.462,1.45h-2.307l3.138-9.229h2.689l3.138,9.229h-2.307L328.354,125.697z
							 M327.72,123.72l-1.081-3.388l-1.081,3.388H327.72z"/>
						<path fill="#FFFFFF" d="M337.447,119.949h-2.373v7.198h-2.109v-7.198h-2.373v-2.03h6.855V119.949z"/>
						<path fill="#FFFFFF" d="M340.477,117.919v9.229h-2.107v-9.229H340.477z"/>
						<path fill="#FFFFFF" d="M341.663,122.533c0-2.716,2.146-4.799,4.799-4.799s4.799,2.083,4.799,4.799
							c0,2.716-2.146,4.799-4.799,4.799S341.663,125.249,341.663,122.533z M349.151,122.533c0-1.647-1.188-2.742-2.689-2.742
							s-2.688,1.095-2.688,2.742c0,1.648,1.187,2.742,2.688,2.742S349.151,124.182,349.151,122.533z"/>
						<path fill="#FFFFFF" d="M359.694,117.919v9.229h-1.582l-3.562-5.01v5.01h-2.107v-9.229h1.582l3.56,5.01v-5.01H359.694z"/>
					</g>
					<path opacity="0.25" enable-background="new    " d="M201.614,17.736c0,7.811,6.331,14.14,14.144,14.14
						c7.808,0,14.139-6.329,14.139-14.14c0-7.809-6.331-14.139-14.139-14.139C207.945,3.597,201.614,9.927,201.614,17.736z"/>
					<path opacity="0.25" enable-background="new    " d="M201.614,70.335c0,7.812,6.331,14.141,14.144,14.141
						c7.808,0,14.139-6.329,14.139-14.141c0-7.809-6.331-14.138-14.139-14.138C207.945,56.197,201.614,62.526,201.614,70.335z"/>
					<path opacity="0.25" enable-background="new    " d="M201.614,122.899c0,7.812,6.331,14.141,14.144,14.141
						c7.808,0,14.139-6.329,14.139-14.141c0-7.809-6.331-14.141-14.139-14.141C207.945,108.758,201.614,115.09,201.614,122.899z"/>
					<path opacity="0.25" enable-background="new    " d="M201.614,175.464c0,7.809,6.331,14.138,14.144,14.138
						c7.808,0,14.139-6.329,14.139-14.138c0-7.812-6.331-14.14-14.139-14.14C207.945,161.324,201.614,167.652,201.614,175.464z"/>
					<g>
						<path fill="#FFFFFF" d="M220.979,183.991c-0.979,0.544-2.638,1.088-4.469,1.088c-2.804,0-5.378-1.147-6.979-3.266
							c-0.774-0.971-1.349-2.204-1.604-3.718h-1.857v-2.033h1.572c0-0.139,0-0.313,0-0.484c0-0.285,0.025-0.572,0.025-0.86h-1.6
							v-2.033h1.919c0.37-1.543,1.056-2.861,1.973-3.917c1.632-1.833,3.918-2.918,6.608-2.918c1.748,0,3.265,0.398,4.293,0.857
							l-0.8,3.263c-0.743-0.316-1.916-0.689-3.18-0.689c-1.372,0-2.631,0.461-3.519,1.546c-0.401,0.458-0.718,1.119-0.914,1.859
							h7.123v2.033h-7.553c-0.031,0.288-0.031,0.601-0.031,0.888c0,0.171,0,0.288,0,0.456h7.584v2.033h-7.184
							c0.201,0.86,0.516,1.515,0.944,2.004c0.916,1.031,2.26,1.458,3.692,1.458c1.313,0,2.655-0.427,3.26-0.743L220.979,183.991z"/>
					</g>
					<polygon fill="#FFFFFF" points="226.533,12.844 223.186,9.495 213.329,19.344 208.076,14.088 204.725,17.436 209.981,22.696 
						209.975,22.703 213.329,26.051 213.329,26.045 213.337,26.051 216.688,22.703 216.682,22.696 					"/>
					<g>
						<g>
							<path fill="#FFFFFF" d="M214.368,72.459c1.057-0.809,2.081-1.633,3.151-2.4c0.482-0.345,0.732-0.638,0.521-1.29
								c-0.134-0.41,0.025-0.907,0.04-1.366c0.005-0.111-0.003-0.276-0.077-0.331c-1.372-1.067-2.753-2.124-4.131-3.183
								c-0.814,0.546-1.663,0.658-2.548,0.245c-1.142-0.538-1.672-1.876-1.224-3.058c0.447-1.185,1.748-1.825,2.974-1.469
								c1.199,0.346,1.95,1.604,1.688,2.828c-0.029,0.152-0.063,0.273,0.099,0.393c1.35,1.026,2.694,2.063,4.063,3.11
								c0.798-0.743,1.74-1.059,2.819-0.903c0.778,0.12,1.438,0.493,1.952,1.093c1.066,1.25,1.045,3.061-0.022,4.283
								c-0.98,1.116-2.938,1.642-4.632,0.288c-1.253,0.959-2.509,1.926-3.781,2.897c0.621,1.258,0.703,2.534,0.16,3.821
								c-0.422,0.992-1.125,1.725-2.093,2.2c-1.933,0.951-4.285,0.342-5.517-1.429c-1.233-1.774-0.989-4.165,0.575-5.666
								C209.886,71.088,212.434,70.788,214.368,72.459z"/>
						</g>
					</g>
					<g>
						
							<rect x="211.465" y="118.373" transform="matrix(-0.7072 -0.707 0.707 -0.7072 281.6025 361.9633)" fill="#FFFFFF" width="8.585" height="8.586"/>
						<polygon fill="#FFFFFF" points="215.757,111.708 211.876,115.588 219.637,115.588 						"/>
						<polygon fill="#FFFFFF" points="215.757,133.629 219.637,129.747 211.876,129.747 						"/>
						<polygon fill="#FFFFFF" points="222.834,118.788 222.834,126.551 226.717,122.668 						"/>
						<polygon fill="#FFFFFF" points="208.679,126.551 208.679,118.788 204.796,122.668 						"/>
					</g>
				</g>
			</g>
			<path fill="#333333" d="M138.607,17.336v2.696c23.679,17.568,39.058,45.721,39.058,77.403c0,31.681-15.379,59.832-39.058,77.399
				v2.696c24.949-17.896,41.256-47.119,41.256-80.096S163.558,35.232,138.607,17.336z"/>
		</g>
		
			<linearGradient id="SVGID_6_" gradientUnits="userSpaceOnUse" x1="741.752" y1="-590.5674" x2="892.0527" y2="-590.5674" gradientTransform="matrix(0 1 -1 0 -510.375 -721.2344)">
			<stop  offset="0" style="stop-color:#000000;stop-opacity:0"/>
			<stop  offset="1" style="stop-color:#000000"/>
		</linearGradient>
		<path opacity="0.2" fill="url(#SVGID_6_)" enable-background="new    " d="M155.341,95.669c0-41.504-33.646-75.152-75.146-75.152
			c-41.508,0-75.151,33.648-75.151,75.152c0,41.503,33.646,75.149,75.151,75.149C121.694,170.818,155.341,137.172,155.341,95.669z
			 M16.517,95.669c0-35.17,28.51-63.679,63.679-63.679c35.171,0,63.678,28.509,63.678,63.679c0,35.167-28.507,63.677-63.678,63.677
			C45.025,159.346,16.517,130.836,16.517,95.669z"/>
		
			<linearGradient id="SVGID_7_" gradientUnits="userSpaceOnUse" x1="-911.1377" y1="-1133.1963" x2="-849.8867" y2="-1133.1963" gradientTransform="matrix(0 -1 1 0 1213.416 -817.5137)">
			<stop  offset="0" style="stop-color:#FFFFFF;stop-opacity:0"/>
			<stop  offset="1" style="stop-color:#FFFFFF"/>
		</linearGradient>
		<path opacity="0.5" fill="url(#SVGID_7_)" enable-background="new    " d="M80.219,32.373c-33.823,0-61.25,27.423-61.25,61.251
			h122.502C141.471,59.795,114.049,32.373,80.219,32.373z"/>
	</g>
	<g>
		<g>
			<circle fill="#333333" cx="78.479" cy="191.031" r="6.446"/>
			<g>
				<path fill="#333333" d="M2.702,220.089h64.795c6.661,0,12.082-5.417,12.082-12.078v-23.356h-2.198v23.356
					c0,5.449-4.436,9.885-9.884,9.885H2.702V220.089z"/>
			</g>
			<polygon fill="#333333" points="3.104,219.05 9.053,225.001 7.501,226.553 1.551,220.602 0,219.05 1.551,217.498 7.501,211.546 
				9.053,213.098 			"/>
		</g>
	</g>
</g>
</svg>
