<?xml version="1.0" encoding="utf-8"?>
<!-- Generator: Adobe Illustrator 16.0.0, SVG Export Plug-In . SVG Version: 6.00 Build 0)  -->
<!DOCTYPE svg PUBLIC "-//W3C//DTD SVG 1.1//EN" "http://www.w3.org/Graphics/SVG/1.1/DTD/svg11.dtd">
<svg version="1.1" id="Layer_1" xmlns="http://www.w3.org/2000/svg" xmlns:xlink="http://www.w3.org/1999/xlink" x="0px" y="0px"
	 width="266.252px" height="154.944px" viewBox="0 0 266.252 154.944" enable-background="new 0 0 266.252 154.944"
	 xml:space="preserve">
<g>
	<g>
		<g>
			<g>
				<g>
					
						<linearGradient id="SVGID_1_" gradientUnits="userSpaceOnUse" x1="-56.6924" y1="157.2275" x2="98.252" y2="157.2275" gradientTransform="matrix(1 0 0 1 168 -79.7549)">
						<stop  offset="0" style="stop-color:#9B4B8D"/>
						<stop  offset="1" style="stop-color:#A14B8A"/>
					</linearGradient>
					<circle fill="url(#SVGID_1_)" cx="188.78" cy="77.472" r="77.472"/>
					<g>
						<g>
							<path fill="#FFFFFF" d="M160.857,90.876v12.305h-2.813v-4.887h-3.867v4.887h-2.812V90.876h2.813v4.711h3.867v-4.711H160.857z
								"/>
							<path fill="#FFFFFF" d="M162.436,97.028c0-3.621,2.865-6.398,6.398-6.398s6.396,2.777,6.396,6.398s-2.863,6.396-6.396,6.396
								S162.436,100.649,162.436,97.028z M172.421,97.028c0-2.197-1.582-3.656-3.586-3.656s-3.586,1.459-3.586,3.656
								c0,2.194,1.582,3.653,3.586,3.653S172.421,99.225,172.421,97.028z"/>
							<path fill="#FFFFFF" d="M186.479,90.876v12.305h-2.107l-4.746-6.68v6.68h-2.813V90.876h2.109l4.746,6.68v-6.68H186.479z"/>
							<path fill="#FFFFFF" d="M196.319,100.473v2.707h-7.733V90.876h7.646v2.707h-4.834v2.039h4.396v2.672h-4.396v2.18
								L196.319,100.473L196.319,100.473z"/>
							<path fill="#FFFFFF" d="M197.283,100.385l2.426-1.406c0.438,1.021,1.195,1.705,2.584,1.705c1.336,0,1.67-0.526,1.67-1.002
								c0-0.756-0.703-1.055-2.549-1.563c-1.828-0.51-3.621-1.39-3.621-3.744c0-2.373,2.004-3.744,4.131-3.744
								c2.021,0,3.604,0.967,4.5,2.777l-2.373,1.389c-0.422-0.879-1.002-1.424-2.127-1.424c-0.879,0-1.318,0.438-1.318,0.932
								c0,0.564,0.301,0.949,2.217,1.529c1.861,0.563,3.954,1.213,3.954,3.814c0,2.372-1.897,3.778-4.569,3.778
								C199.621,103.426,197.968,102.196,197.283,100.385z"/>
							<path fill="#FFFFFF" d="M216.001,93.583h-3.164v9.598h-2.813v-9.598h-3.164v-2.707h9.143L216.001,93.583L216.001,93.583z"/>
							<path fill="#FFFFFF" d="M223.117,98.452v4.729h-2.813v-4.729l-4.131-7.576h3.199l2.338,4.746l2.338-4.746h3.199
								L223.117,98.452z"/>
						</g>
					</g>
					<g>
						<g>
							<path fill="#FFFFFF" d="M193.933,38.366c1.109-0.045,2.166,0.268,3.154,0.797c1.045,0.559,2.064,1.152,3.031,1.846
								c0.904,0.643,1.851,1.213,3.021,1.229c0.789,0.016,1.483-0.219,2.104-0.678c0.319-0.234,0.458-0.193,0.641,0.157
								c1.825,3.519,3.658,7.025,5.506,10.531c0.523,0.996,1.104,1.963,1.657,2.942c0.607,1.076,0.549,1.754-0.308,2.646
								c-1.614,1.688-3.243,3.358-4.875,5.028c-0.521,0.531-0.574,0.523-1.061-0.006c-4.611-5.094-9.229-10.178-13.842-15.274
								c-1.426-1.582-1.699-1.617-3.593-0.601c-2.646,1.418-5.312,2.804-7.971,4.201c-0.672,0.354-1.378,0.596-2.15,0.555
								c-0.942-0.047-1.639-0.61-1.816-1.555c-0.21-1.053,0.026-2.018,0.908-2.682c3.872-2.918,7.707-5.895,12.026-8.162
								C191.479,38.762,192.626,38.329,193.933,38.366z"/>
							<path fill="#FFFFFF" d="M220.447,53.644c0.048,0.442-0.173,0.791-0.524,0.989c-1.113,0.615-2.2,1.296-3.405,1.724
								c-0.774,0.272-1.198,0.098-1.585-0.646c-0.855-1.627-1.697-3.264-2.543-4.898c-1.659-3.215-3.325-6.436-4.984-9.651
								c-0.806-1.558-0.693-1.908,0.853-2.748c0.661-0.356,1.324-0.703,1.996-1.041c1.264-0.64,1.742-0.49,2.392,0.756
								c1.44,2.767,2.869,5.533,4.299,8.299c1.073,2.068,2.143,4.136,3.202,6.205C220.312,52.948,220.482,53.262,220.447,53.644z"/>
							<path fill="#FFFFFF" d="M158.758,54.034c-0.048-0.242,0.055-0.488,0.146-0.732c1.913-5.107,3.826-10.215,5.742-15.314
								c0.455-1.209,0.945-1.428,2.169-1.004c0.813,0.285,1.634,0.543,2.438,0.855c0.988,0.383,1.185,0.787,0.822,1.791
								c-0.739,2.063-1.517,4.111-2.283,6.168c-1.167,3.143-2.343,6.279-3.493,9.432c-0.207,0.568-0.601,0.938-1.027,1.301
								c-0.146,0.123-0.268,0.093-0.413,0.043c-1.093-0.395-2.195-0.76-3.271-1.192C158.961,55.126,158.742,54.688,158.758,54.034z"
								/>
							<path fill="#FFFFFF" d="M165.873,55.866c-0.022-0.449,0.146-0.811,0.285-1.178c1.754-4.662,3.514-9.324,5.276-13.984
								c0.134-0.363,0.267-0.742,0.532-1.045c0.606-0.686,1.461-0.717,2.106-0.02c0.787,0.854,1.712,1.344,2.893,1.219
								c0.678-0.07,1.31-0.316,1.913-0.625c1.188-0.604,2.354-1.252,3.559-1.818c1.41-0.666,2.884-0.965,4.407-0.355
								c0.157,0.062,0.313,0.131,0.459,0.215c0.281,0.15,0.7,0.318,0.669,0.613c-0.04,0.344-0.456,0.498-0.797,0.633
								c-0.291,0.111-0.596,0.131-0.886,0.07c-1.348-0.275-2.619-0.039-3.823,0.57c-0.892,0.445-1.751,0.949-2.631,1.402
								c-1.476,0.758-3.001,1.186-4.66,0.664c-0.618-0.197-1.185-0.49-1.677-0.896c-0.376-0.313-0.557-0.293-0.737,0.205
								c-1.415,3.846-2.854,7.689-4.294,11.529c-0.242,0.649-0.518,1.287-0.771,1.932c-0.23,0.574-0.15,1.078,0.291,1.549
								c1.17,1.252,2.309,2.533,3.482,3.773c0.287,0.309,0.287,0.479-0.003,0.771c-0.794,0.805-0.773,0.816-1.534-0.043
								c-1.194-1.357-2.392-2.713-3.591-4.064C166.055,56.649,165.802,56.306,165.873,55.866z"/>
							<path fill="#FFFFFF" d="M193.021,74.975c0.258-1.192,0.611-1.491,1.729-1.463c0.354,0.013,0.663-0.11,0.932-0.336
								c1.064-0.896,1.262-2.477,0.378-3.539c-1.218-1.461-2.438-2.918-3.746-4.297c-0.547-0.573-0.311-1.146-0.313-1.733
								c0-0.193,0.188-0.152,0.305-0.125c0.386,0.088,0.74,0.205,1.025,0.526c1.435,1.623,2.887,3.228,4.335,4.828
								c0.269,0.293,0.538,0.588,0.84,0.84c0.764,0.65,1.609,0.777,2.278,0.373c0.809-0.492,1.286-1.57,1.102-2.473
								c-0.117-0.546-0.339-1.035-0.715-1.447c-1.396-1.549-2.768-3.129-4.205-4.642c-0.495-0.522-0.489-1.059-0.287-1.604
								c0.199-0.525,0.636-0.082,0.962-0.084c0.108,0,0.236,0.168,0.344,0.275c1.603,1.793,3.205,3.596,4.812,5.389
								c0.236,0.266,0.473,0.535,0.74,0.771c1.136,1.027,2.175,0.94,3.109-0.273c0.421-0.537,0.834-1.061,1.375-1.482
								c0.347-0.272,0.404-0.156,0.453,0.199c0.281,2.02-1.142,3.771-3.235,3.709c-1.164-0.033-1.853,0.328-2.311,1.334
								c-0.149,0.32-0.396,0.601-0.611,0.877c-1.032,1.336-1.937,1.634-3.548,1.105c-0.442-0.146-0.587-0.084-0.721,0.377
								c-0.373,1.311-0.993,2.451-2.448,2.844C194.744,75.163,193.887,74.944,193.021,74.975z"/>
							<path fill="#FFFFFF" d="M182.804,73.53c-1.231,0.006-2.241-1.205-2.173-2.523c0.04-0.703,0.285-1.313,0.789-1.813
								c1.491-1.48,3.074-2.876,4.657-4.263c1.122-0.973,2.569-0.602,3.334,0.68c0.735,1.242,0.158,2.222-0.603,3.074
								c-1.427,1.605-3.077,2.98-4.721,4.355C183.716,73.352,183.259,73.559,182.804,73.53z"/>
							<path fill="#FFFFFF" d="M182.146,61.543c1.771,0.054,2.272,0.914,2.423,2.342c0.068,0.664-0.484,1.367-0.98,1.908
								c-1.093,1.199-2.32,2.267-3.569,3.289c-1.06,0.865-2.102,0.803-2.916-0.072c-0.879-0.938-0.974-2.452-0.151-3.344
								c1.273-1.388,2.679-2.647,4.168-3.799C181.446,61.614,181.828,61.538,182.146,61.543z"/>
							<path fill="#FFFFFF" d="M188.603,76.467c-1.082-0.014-1.665-0.506-2.07-1.233c-0.407-0.72-0.481-1.453,0.021-2.175
								c0.823-1.178,1.733-2.272,2.876-3.155c0.905-0.697,1.818-0.625,2.596,0.217c0.367,0.396,0.588,0.865,0.732,1.377
								c0.091,0.322,0.02,0.604-0.108,0.914c-0.599,1.418-1.652,2.455-2.759,3.451C189.479,76.229,188.999,76.491,188.603,76.467z"
								/>
							<path fill="#FFFFFF" d="M171.405,64.282c-0.022-0.959,0.33-1.65,1.02-2.176c0.238-0.178,0.483-0.357,0.737-0.521
								c0.94-0.612,1.768-0.578,2.604,0.09c0.771,0.609,1.062,1.638,0.729,2.591c-0.381,1.11-1.901,2.336-2.937,2.356
								C172.31,66.653,171.405,65.633,171.405,64.282z"/>
						</g>
					</g>
				</g>
			</g>
		</g>
		
			<linearGradient id="SVGID_2_" gradientUnits="userSpaceOnUse" x1="862.9355" y1="-820.019" x2="1013.2373" y2="-820.019" gradientTransform="matrix(0 1 -1 0 -631.2402 -861.6172)">
			<stop  offset="0" style="stop-color:#000000;stop-opacity:0"/>
			<stop  offset="1" style="stop-color:#000000"/>
		</linearGradient>
		<path opacity="0.2" fill="url(#SVGID_2_)" enable-background="new    " d="M263.928,76.469c0-41.504-33.646-75.151-75.147-75.151
			c-41.507,0-75.15,33.647-75.15,75.151s33.646,75.15,75.15,75.15C230.28,151.62,263.928,117.973,263.928,76.469z M125.102,76.469
			c0-35.17,28.509-63.678,63.68-63.678s63.678,28.508,63.678,63.678c0,35.168-28.507,63.679-63.678,63.679
			S125.102,111.637,125.102,76.469z"/>
		
			<linearGradient id="SVGID_3_" gradientUnits="userSpaceOnUse" x1="-1012.5752" y1="-1165.0205" x2="-951.3228" y2="-1165.0205" gradientTransform="matrix(0 -1 1 0 1353.7988 -938.3789)">
			<stop  offset="0" style="stop-color:#FFFFFF;stop-opacity:0"/>
			<stop  offset="1" style="stop-color:#FFFFFF"/>
		</linearGradient>
		<path opacity="0.5" fill="url(#SVGID_3_)" enable-background="new    " d="M188.78,12.944c-33.827,0-61.252,27.424-61.252,61.252
			h122.5C250.028,40.368,222.609,12.944,188.78,12.944z"/>
	</g>
	<g>
		<g>
			<g>
				<path fill="#333333" d="M12.889,72.219c0,3.56-2.887,6.443-6.448,6.443c-3.559,0-6.44-2.885-6.44-6.443
					c0-3.563,2.884-6.448,6.44-6.448C10.003,65.771,12.889,68.659,12.889,72.219z"/>
				<g>
					<rect x="4.982" y="71.241" fill="#333333" width="92.834" height="2.196"/>
				</g>
			</g>
			<polygon fill="#333333" points="97.651,72.215 91.702,78.168 93.254,79.719 99.203,73.768 100.755,72.215 99.203,70.665 
				93.254,64.715 91.702,66.267 			"/>
		</g>
	</g>
</g>
</svg>
