<?xml version="1.0" encoding="utf-8"?>
<!-- Generator: Adobe Illustrator 16.0.0, SVG Export Plug-In . SVG Version: 6.00 Build 0)  -->
<!DOCTYPE svg PUBLIC "-//W3C//DTD SVG 1.1//EN" "http://www.w3.org/Graphics/SVG/1.1/DTD/svg11.dtd">
<svg version="1.1" id="Layer_1" xmlns="http://www.w3.org/2000/svg" xmlns:xlink="http://www.w3.org/1999/xlink" x="0px" y="0px"
	 width="403.981px" height="226.271px" viewBox="0 0 403.981 226.271" enable-background="new 0 0 403.981 226.271"
	 xml:space="preserve">
<g>
	<g>
		<g>
			<g>
				
					<linearGradient id="SVGID_1_" gradientUnits="userSpaceOnUse" x1="79.8359" y1="177.4619" x2="234.7822" y2="177.4619" gradientTransform="matrix(1 0 0 1 168 -79.7549)">
					<stop  offset="0" style="stop-color:#4B48BF"/>
					<stop  offset="1" style="stop-color:#4E48BD"/>
				</linearGradient>
				<circle fill="url(#SVGID_1_)" cx="325.309" cy="97.707" r="77.473"/>
				<g>
					<g>
						<path fill="#FFFFFF" d="M274.021,117.261c0-3.621,2.689-6.398,6.398-6.398c2.232,0,4.201,1.107,5.273,2.848l-2.426,1.406
							c-0.545-0.949-1.6-1.512-2.848-1.512c-2.18,0-3.586,1.459-3.586,3.656c0,2.197,1.406,3.656,3.586,3.656
							c1.248,0,2.32-0.563,2.848-1.512l2.426,1.406c-1.055,1.74-3.023,2.848-5.273,2.848
							C276.711,123.659,274.021,120.882,274.021,117.261z"/>
						<path fill="#FFFFFF" d="M286.305,117.261c0-3.621,2.865-6.398,6.398-6.398c3.533,0,6.398,2.777,6.398,6.398
							s-2.865,6.398-6.398,6.398C289.17,123.659,286.305,120.882,286.305,117.261z M296.289,117.261
							c0-2.197-1.582-3.656-3.586-3.656s-3.586,1.459-3.586,3.656c0,2.197,1.582,3.656,3.586,3.656S296.289,119.458,296.289,117.261
							z"/>
						<path fill="#FFFFFF" d="M312.984,123.413h-2.813v-7.154l-3.182,5.221h-0.316l-3.182-5.221v7.154h-2.813v-12.305h2.813
							l3.34,5.467l3.34-5.467h2.813V123.413L312.984,123.413z"/>
						<path fill="#FFFFFF" d="M327.394,123.413h-2.813v-7.154l-3.182,5.221h-0.316l-3.182-5.221v7.154h-2.813v-12.305h2.813
							l3.34,5.467l3.34-5.467h2.813V123.413L327.394,123.413z"/>
						<path fill="#FFFFFF" d="M329.411,119.441v-8.332h2.813v8.086c0,0.932,0.439,1.723,1.934,1.723
							c1.495,0,1.934-0.791,1.934-1.723v-8.086h2.813v8.332c0,2.637-2.039,4.219-4.746,4.219S329.411,122.077,329.411,119.441z"/>
						<path fill="#FFFFFF" d="M350.588,111.109v12.305h-2.109l-4.746-6.68v6.68h-2.813v-12.305h2.109l4.746,6.68v-6.68H350.588z"/>
						<path fill="#FFFFFF" d="M355.507,111.109v12.305h-2.813v-12.305H355.507z"/>
						<path fill="#FFFFFF" d="M365.876,113.816h-3.164v9.598h-2.813v-9.598h-3.164v-2.707h9.141V113.816z"/>
						<path fill="#FFFFFF" d="M372.992,118.685v4.729h-2.813v-4.729l-4.131-7.576h3.199l2.338,4.746l2.338-4.746h3.199
							L372.992,118.685z"/>
					</g>
				</g>
				<g>
					<g>
						<path fill="#FFFFFF" d="M316.567,97.131c0-0.224,0-0.399,0-0.575c0-4.664-0.017-9.324,0.003-13.984
							c0.02-4.248,2.673-7.519,6.768-8.39c3.47-0.742,7.276,1.063,8.939,4.222c0.697,1.325,0.991,2.728,0.982,4.228
							c-0.025,4.618-0.008,9.233-0.003,13.848c0,0.204,0,0.401,0,0.652C327.69,97.131,322.179,97.131,316.567,97.131z"/>
						<path fill="#FFFFFF" d="M333.555,78.029c1.44-0.474,2.758-0.336,4.017,0.269c2.024,0.971,3.197,2.614,3.263,4.84
							c0.103,3.462,0.034,6.928,0.034,10.389c0,0.088-0.034,0.177-0.063,0.302c-2.033,0-4.057,0-6.184,0c0-0.25,0-0.49,0-0.729
							c0-2.988-0.031-5.976,0.011-8.965C334.66,82.043,334.617,79.981,333.555,78.029z"/>
						<path fill="#FFFFFF" d="M308.986,93.825c-0.012-0.216-0.034-0.393-0.034-0.569c-0.003-3.211,0.003-6.423-0.003-9.634
							c-0.014-2.984,2.01-5.335,4.86-5.785c0.777-0.125,1.591,0,2.44,0.01c-0.313,1.025-0.635,1.86-0.82,2.729
							c-0.154,0.72-0.202,1.478-0.205,2.218c-0.02,3.436-0.011,6.875-0.011,10.312c0,0.225,0,0.45,0,0.72
							C313.12,93.825,311.092,93.825,308.986,93.825z"/>
						<path fill="#FFFFFF" d="M330.235,67.318c-0.014,2.904-2.434,5.277-5.361,5.252c-2.927-0.02-5.264-2.408-5.244-5.355
							c0.023-2.947,2.426-5.342,5.315-5.301C327.912,61.955,330.25,64.343,330.235,67.318z"/>
						<path fill="#FFFFFF" d="M307.608,91.007c-1.384,0-2.688,0-4.046,0c-0.011-0.193-0.037-0.387-0.037-0.583
							c-0.009-2.168-0.014-4.339-0.003-6.508c0.008-2.42,1.731-4.146,4.139-4.146c0.273,0,0.547,0.126,0.92,0.216
							c-0.794,1.362-0.994,2.766-0.982,4.224c0.023,2.01,0.009,4.024,0.009,6.035C307.608,90.485,307.608,90.728,307.608,91.007z"/>
						<path fill="#FFFFFF" d="M342.229,91.01c0-2.184,0-4.302,0-6.426c0-2.442,0-2.442-0.894-4.583
							c1.455-0.695,4.026,0.202,4.771,2.481c0.125,0.379,0.185,0.799,0.191,1.194c0.017,2.306,0.011,4.609,0.009,6.914
							c0,0.132-0.029,0.26-0.051,0.42C344.923,91.01,343.622,91.01,342.229,91.01z"/>
						<path fill="#FFFFFF" d="M318.287,72.733c0,1.976-1.585,3.576-3.567,3.588c-1.979,0.016-3.621-1.636-3.607-3.634
							c0.011-1.947,1.66-3.562,3.622-3.54C316.729,69.165,318.287,70.739,318.287,72.733z"/>
						<path fill="#FFFFFF" d="M331.565,72.815c-0.054-2.019,1.509-3.633,3.547-3.668c1.961-0.036,3.582,1.539,3.641,3.529
							c0.051,1.924-1.549,3.577-3.542,3.648C333.273,76.394,331.616,74.798,331.565,72.815z"/>
						<path fill="#FFFFFF" d="M342.343,73.548c1.335-0.007,2.426,1.075,2.42,2.407c0,1.335-1.11,2.426-2.434,2.408
							c-1.301-0.019-2.377-1.09-2.394-2.383C339.918,74.663,341.011,73.558,342.343,73.548z"/>
						<path fill="#FFFFFF" d="M305.114,75.972c-0.008-1.357,1.039-2.42,2.389-2.424c1.315-0.004,2.363,1.031,2.38,2.35
							c0.017,1.368-1.005,2.443-2.343,2.465C306.199,78.384,305.123,77.322,305.114,75.972z"/>
					</g>
				</g>
				<g>
					
						<linearGradient id="SVGID_2_" gradientUnits="userSpaceOnUse" x1="-168" y1="150.9077" x2="40.0918" y2="150.9077" gradientTransform="matrix(1 0 0 1 168 -79.7549)">
						<stop  offset="0" style="stop-color:#A14B8A"/>
						<stop  offset="1" style="stop-color:#4B48BF"/>
					</linearGradient>
					<path fill="url(#SVGID_2_)" d="M208.092,71.153c0,10.269-8.324,18.589-18.587,18.589H18.591C8.325,89.741,0,81.421,0,71.153
						l0,0c0-10.269,8.325-18.589,18.591-18.589h170.914C199.768,52.563,208.092,60.884,208.092,71.153L208.092,71.153z"/>
					
						<linearGradient id="SVGID_3_" gradientUnits="userSpaceOnUse" x1="-168" y1="203.4702" x2="40.0918" y2="203.4702" gradientTransform="matrix(1 0 0 1 168 -79.7549)">
						<stop  offset="0" style="stop-color:#A14B8A"/>
						<stop  offset="1" style="stop-color:#4B48BF"/>
					</linearGradient>
					<path fill="url(#SVGID_3_)" d="M208.092,123.718c0,10.265-8.324,18.588-18.587,18.588H18.591
						C8.325,142.306,0,133.983,0,123.718l0,0c0-10.266,8.325-18.593,18.591-18.593h170.914
						C199.768,105.125,208.092,113.452,208.092,123.718L208.092,123.718z"/>
					
						<linearGradient id="SVGID_4_" gradientUnits="userSpaceOnUse" x1="-168" y1="256.0342" x2="40.0918" y2="256.0342" gradientTransform="matrix(1 0 0 1 168 -79.7549)">
						<stop  offset="0" style="stop-color:#A14B8A"/>
						<stop  offset="1" style="stop-color:#4B48BF"/>
					</linearGradient>
					<path fill="url(#SVGID_4_)" d="M208.092,176.279c0,10.266-8.324,18.59-18.587,18.59H18.591C8.325,194.869,0,186.545,0,176.279
						l0,0c0-10.267,8.325-18.59,18.591-18.59h170.914C199.768,157.689,208.092,166.012,208.092,176.279L208.092,176.279z"/>
					
						<linearGradient id="SVGID_5_" gradientUnits="userSpaceOnUse" x1="-168" y1="98.3447" x2="40.0918" y2="98.3447" gradientTransform="matrix(1 0 0 1 168 -79.7549)">
						<stop  offset="0" style="stop-color:#A14B8A"/>
						<stop  offset="1" style="stop-color:#4B48BF"/>
					</linearGradient>
					<path fill="url(#SVGID_5_)" d="M208.092,18.589c0,10.266-8.324,18.591-18.587,18.591H18.591C8.325,37.18,0,28.855,0,18.589l0,0
						C0,8.323,8.325,0,18.591,0h170.914C199.768,0,208.092,8.323,208.092,18.589L208.092,18.589z"/>
					<g>
						<g>
							<path fill="#FFFFFF" d="M105.694,176.957c0-2.716,2.149-4.799,4.799-4.799c2.65,0,4.799,2.083,4.799,4.799
								c0,2.716-2.149,4.799-4.799,4.799C107.843,181.756,105.694,179.673,105.694,176.957z M113.183,176.957
								c0-1.647-1.187-2.742-2.689-2.742s-2.689,1.095-2.689,2.742c0,1.648,1.187,2.742,2.689,2.742
								S113.183,178.606,113.183,176.957z"/>
							<path fill="#FFFFFF" d="M118.584,174.373v1.78h3.428v2.03h-3.428v3.388h-2.109v-9.229h5.603v2.03L118.584,174.373
								L118.584,174.373z"/>
							<path fill="#FFFFFF" d="M125.438,174.373v1.78h3.428v2.03h-3.428v3.388h-2.109v-9.229h5.603v2.03L125.438,174.373
								L125.438,174.373z"/>
							<path fill="#FFFFFF" d="M132.291,172.343v9.229h-2.109v-9.229H132.291z"/>
							<path fill="#FFFFFF" d="M133.476,176.957c0-2.716,2.017-4.799,4.799-4.799c1.674,0,3.151,0.831,3.955,2.136l-1.819,1.055
								c-0.409-0.712-1.2-1.134-2.136-1.134c-1.635,0-2.689,1.095-2.689,2.742c0,1.648,1.055,2.742,2.689,2.742
								c0.936,0,1.74-0.422,2.136-1.134l1.819,1.055c-0.791,1.306-2.268,2.136-3.955,2.136
								C135.493,181.756,133.476,179.673,133.476,176.957z"/>
							<path fill="#FFFFFF" d="M149.017,179.541v2.03h-5.801v-9.229h5.735v2.03h-3.625v1.529h3.296v2.004h-3.296v1.635h3.691
								V179.541z"/>
							<path fill="#FFFFFF" d="M153.313,178.539h-1.002v3.032h-2.109v-9.229h3.691c1.753,0,3.164,1.411,3.164,3.164
								c0,1.134-0.686,2.162-1.701,2.677l1.964,3.388h-2.268L153.313,178.539z M152.311,176.694h1.582
								c0.58,0,1.055-0.514,1.055-1.187c0-0.672-0.475-1.187-1.055-1.187h-1.582V176.694z"/>
							<path fill="#FFFFFF" d="M157.713,179.476l1.819-1.055c0.33,0.765,0.896,1.278,1.938,1.278c1.002,0,1.252-0.396,1.252-0.751
								c0-0.567-0.527-0.791-1.912-1.174c-1.371-0.382-2.716-1.041-2.716-2.808c0-1.78,1.503-2.809,3.098-2.809
								c1.516,0,2.703,0.726,3.375,2.083l-1.78,1.042c-0.316-0.659-0.751-1.068-1.595-1.068c-0.659,0-0.989,0.33-0.989,0.699
								c0,0.422,0.224,0.712,1.661,1.146c1.397,0.422,2.966,0.91,2.966,2.861c0,1.779-1.424,2.834-3.428,2.834
								C159.467,181.756,158.228,180.833,157.713,179.476z"/>
						</g>
					</g>
					<g>
						<g>
							<path fill="#FFFFFF" d="M58.514,69.586c0,1.754-1.411,3.164-3.23,3.164H53.9v2.9h-2.109v-9.229h3.494
								C57.104,66.422,58.514,67.833,58.514,69.586z M56.405,69.586c0-0.672-0.475-1.187-1.121-1.187H53.9v2.373h1.384
								C55.93,70.773,56.405,70.259,56.405,69.586z"/>
							<path fill="#FFFFFF" d="M62.678,72.618h-1.002v3.032h-2.109v-9.229h3.691c1.753,0,3.164,1.411,3.164,3.164
								c0,1.134-0.686,2.162-1.701,2.677l1.964,3.388h-2.268L62.678,72.618z M61.676,70.773h1.582c0.58,0,1.055-0.514,1.055-1.187
								c0-0.672-0.475-1.187-1.055-1.187h-1.582V70.773z"/>
							<path fill="#FFFFFF" d="M67.145,71.036c0-2.716,2.149-4.799,4.799-4.799s4.799,2.083,4.799,4.799
								c0,2.716-2.149,4.799-4.799,4.799S67.145,73.752,67.145,71.036z M74.633,71.036c0-1.647-1.187-2.742-2.689-2.742
								s-2.689,1.095-2.689,2.742c0,1.648,1.187,2.742,2.689,2.742S74.633,72.685,74.633,71.036z"/>
							<path fill="#FFFFFF" d="M76.607,74.042l1.833-1.055c0.29,0.515,0.593,0.791,1.305,0.791c0.923,0,1.2-0.527,1.2-1.094v-6.263
								h2.109v6.263c0,2.03-1.424,3.15-3.322,3.15C78.269,75.835,77.214,75.216,76.607,74.042z"/>
							<path fill="#FFFFFF" d="M90.369,73.62v2.03h-5.801v-9.229h5.735v2.03h-3.625v1.529h3.296v2.004h-3.296v1.635L90.369,73.62
								L90.369,73.62z"/>
							<path fill="#FFFFFF" d="M91.092,71.036c0-2.716,2.017-4.799,4.799-4.799c1.674,0,3.151,0.831,3.955,2.136l-1.819,1.055
								c-0.409-0.712-1.2-1.134-2.136-1.134c-1.635,0-2.689,1.095-2.689,2.742c0,1.648,1.055,2.742,2.689,2.742
								c0.936,0,1.74-0.422,2.136-1.134l1.819,1.055c-0.791,1.306-2.268,2.136-3.955,2.136
								C93.109,75.835,91.092,73.752,91.092,71.036z"/>
							<path fill="#FFFFFF" d="M107.028,68.452h-2.373v7.198h-2.109v-7.198h-2.373v-2.03h6.855V68.452z"/>
							<path fill="#FFFFFF" d="M110.848,71.036c0-2.716,2.149-4.799,4.799-4.799s4.799,2.083,4.799,4.799
								c0,2.716-2.149,4.799-4.799,4.799S110.848,73.752,110.848,71.036z M118.336,71.036c0-1.647-1.187-2.742-2.689-2.742
								s-2.689,1.095-2.689,2.742c0,1.648,1.187,2.742,2.689,2.742S118.336,72.685,118.336,71.036z"/>
							<path fill="#FFFFFF" d="M120.574,66.422h2.215l1.595,6.46l1.78-6.46h1.714l1.78,6.46l1.595-6.46h2.215l-2.544,9.229h-2.399
								l-1.503-5.444l-1.503,5.444h-2.399L120.574,66.422z"/>
							<path fill="#FFFFFF" d="M141.637,66.422v9.229h-1.582l-3.56-5.01v5.01h-2.109v-9.229h1.582l3.56,5.01v-5.01H141.637z"/>
							<path fill="#FFFFFF" d="M149.017,73.62v2.03h-5.801v-9.229h5.735v2.03h-3.625v1.529h3.296v2.004h-3.296v1.635L149.017,73.62
								L149.017,73.62z"/>
							<path fill="#FFFFFF" d="M153.313,72.618h-1.002v3.032h-2.109v-9.229h3.691c1.753,0,3.164,1.411,3.164,3.164
								c0,1.134-0.686,2.162-1.701,2.677l1.964,3.388h-2.268L153.313,72.618z M152.311,70.773h1.582c0.58,0,1.055-0.514,1.055-1.187
								c0-0.672-0.475-1.187-1.055-1.187h-1.582V70.773z"/>
							<path fill="#FFFFFF" d="M157.713,73.555l1.819-1.055c0.33,0.765,0.896,1.278,1.938,1.278c1.002,0,1.252-0.396,1.252-0.751
								c0-0.567-0.527-0.791-1.912-1.174c-1.371-0.382-2.716-1.041-2.716-2.808c0-1.78,1.503-2.809,3.098-2.809
								c1.516,0,2.703,0.726,3.375,2.083l-1.78,1.042c-0.316-0.659-0.751-1.068-1.595-1.068c-0.659,0-0.989,0.33-0.989,0.699
								c0,0.422,0.224,0.712,1.661,1.146c1.397,0.422,2.966,0.91,2.966,2.861c0,1.779-1.424,2.834-3.428,2.834
								C159.467,75.835,158.228,74.912,157.713,73.555z"/>
						</g>
					</g>
					<g>
						<g>
							<path fill="#FFFFFF" d="M99.751,119.837v9.229h-2.109v-9.229H99.751z"/>
							<path fill="#FFFFFF" d="M108.583,119.837v9.229h-1.582l-3.56-5.01v5.01h-2.109v-9.229h1.582l3.56,5.01v-5.01H108.583z"/>
							<path fill="#FFFFFF" d="M109.372,119.837h2.307l2.043,6.79l2.043-6.79h2.307l-3.006,9.229h-2.689L109.372,119.837z"/>
							<path fill="#FFFFFF" d="M124.662,127.035v2.03h-5.801v-9.229h5.735v2.03h-3.625v1.529h3.296v2.004h-3.296v1.635
								L124.662,127.035L124.662,127.035z"/>
							<path fill="#FFFFFF" d="M125.385,126.97l1.819-1.055c0.33,0.765,0.896,1.278,1.938,1.278c1.002,0,1.252-0.396,1.252-0.751
								c0-0.567-0.527-0.791-1.912-1.174c-1.371-0.382-2.716-1.041-2.716-2.808c0-1.78,1.503-2.809,3.098-2.809
								c1.516,0,2.703,0.726,3.375,2.083l-1.78,1.042c-0.316-0.659-0.751-1.068-1.595-1.068c-0.659,0-0.989,0.33-0.989,0.699
								c0,0.422,0.224,0.712,1.661,1.146c1.397,0.422,2.966,0.91,2.966,2.861c0,1.779-1.424,2.834-3.428,2.834
								C127.138,129.25,125.899,128.327,125.385,126.97z"/>
							<path fill="#FFFFFF" d="M139.423,121.867h-2.373v7.198h-2.109v-7.198h-2.373v-2.03h6.855V121.867z"/>
							<path fill="#FFFFFF" d="M139.421,124.451c0-2.716,2.149-4.799,4.799-4.799c2.65,0,4.799,2.083,4.799,4.799
								c0,2.716-2.149,4.799-4.799,4.799C141.57,129.25,139.421,127.167,139.421,124.451z M146.909,124.451
								c0-1.647-1.187-2.742-2.689-2.742c-1.502,0-2.689,1.095-2.689,2.742c0,1.648,1.187,2.742,2.689,2.742
								C145.722,127.193,146.909,126.1,146.909,124.451z"/>
							<path fill="#FFFFFF" d="M153.313,126.033h-1.002v3.032h-2.109v-9.229h3.691c1.753,0,3.164,1.411,3.164,3.164
								c0,1.134-0.686,2.162-1.701,2.677l1.964,3.388h-2.268L153.313,126.033z M152.311,124.188h1.582
								c0.58,0,1.055-0.514,1.055-1.187c0-0.672-0.475-1.187-1.055-1.187h-1.582V124.188z"/>
							<path fill="#FFFFFF" d="M157.714,126.97l1.819-1.055c0.33,0.765,0.896,1.278,1.938,1.278c1.002,0,1.252-0.396,1.252-0.751
								c0-0.567-0.527-0.791-1.912-1.174c-1.371-0.382-2.716-1.041-2.716-2.808c0-1.78,1.503-2.809,3.098-2.809
								c1.516,0,2.703,0.726,3.375,2.083l-1.78,1.042c-0.316-0.659-0.751-1.068-1.595-1.068c-0.659,0-0.989,0.33-0.989,0.699
								c0,0.422,0.224,0.712,1.661,1.146c1.397,0.422,2.966,0.91,2.966,2.861c0,1.779-1.424,2.834-3.428,2.834
								C159.467,129.25,158.228,128.327,157.714,126.97z"/>
						</g>
					</g>
					<g>
						<path fill="#FFFFFF" d="M80.021,19.8l1.819-1.055c0.33,0.765,0.896,1.278,1.938,1.278c1.002,0,1.252-0.396,1.252-0.751
							c0-0.567-0.527-0.791-1.912-1.174c-1.371-0.382-2.716-1.041-2.716-2.808c0-1.78,1.503-2.809,3.098-2.809
							c1.516,0,2.703,0.726,3.375,2.083l-1.78,1.042c-0.316-0.659-0.751-1.068-1.595-1.068c-0.659,0-0.989,0.33-0.989,0.699
							c0,0.422,0.224,0.712,1.661,1.146c1.397,0.422,2.966,0.91,2.966,2.861c0,1.779-1.424,2.834-3.428,2.834
							C81.774,22.08,80.535,21.157,80.021,19.8z"/>
						<path fill="#FFFFFF" d="M90.235,12.667v9.229h-2.109v-9.229H90.235z"/>
						<path fill="#FFFFFF" d="M101.045,21.896h-2.109v-5.365l-2.386,3.915h-0.237l-2.386-3.915v5.365h-2.109v-9.229h2.109
							l2.505,4.101l2.505-4.101h2.109L101.045,21.896L101.045,21.896z"/>
						<path fill="#FFFFFF" d="M109.347,15.831c0,1.754-1.411,3.164-3.23,3.164h-1.384v2.9h-2.109v-9.229h3.494
							C107.937,12.667,109.347,14.078,109.347,15.831z M107.238,15.831c0-0.672-0.475-1.187-1.121-1.187h-1.384v2.374h1.384
							C106.763,17.018,107.238,16.504,107.238,15.831z"/>
						<path fill="#FFFFFF" d="M115.805,19.865v2.03H110.4v-9.229h2.109v7.198L115.805,19.865L115.805,19.865z"/>
						<path fill="#FFFFFF" d="M122.526,19.865v2.03h-5.801v-9.229h5.735v2.03h-3.625v1.529h3.296v2.004h-3.296v1.635L122.526,19.865
							L122.526,19.865z"/>
						<path fill="#FFFFFF" d="M126.939,18.916v-6.249h2.109v6.064c0,0.699,0.33,1.292,1.45,1.292s1.45-0.593,1.45-1.292v-6.064
							h2.109v6.249c0,1.978-1.529,3.164-3.56,3.164C128.466,22.08,126.939,20.894,126.939,18.916z"/>
						<path fill="#FFFFFF" d="M135.11,19.8l1.819-1.055c0.33,0.765,0.896,1.278,1.938,1.278c1.002,0,1.252-0.396,1.252-0.751
							c0-0.567-0.527-0.791-1.912-1.174c-1.371-0.382-2.716-1.041-2.716-2.808c0-1.78,1.503-2.809,3.098-2.809
							c1.516,0,2.703,0.726,3.375,2.083l-1.78,1.042c-0.316-0.659-0.751-1.068-1.595-1.068c-0.659,0-0.989,0.33-0.989,0.699
							c0,0.422,0.224,0.712,1.661,1.146c1.397,0.422,2.966,0.91,2.966,2.861c0,1.779-1.424,2.834-3.428,2.834
							C136.864,22.08,135.625,21.157,135.11,19.8z"/>
						<path fill="#FFFFFF" d="M149.017,19.865v2.03h-5.801v-9.229h5.735v2.03h-3.625v1.529h3.296v2.004h-3.296v1.635L149.017,19.865
							L149.017,19.865z"/>
						<path fill="#FFFFFF" d="M153.313,18.864h-1.002v3.032h-2.109v-9.229h3.691c1.753,0,3.164,1.411,3.164,3.164
							c0,1.134-0.686,2.162-1.701,2.677l1.964,3.388h-2.268L153.313,18.864z M152.311,17.018h1.582c0.58,0,1.055-0.514,1.055-1.187
							c0-0.672-0.475-1.187-1.055-1.187h-1.582V17.018z"/>
						<path fill="#FFFFFF" d="M157.713,19.8l1.819-1.055c0.33,0.765,0.896,1.278,1.938,1.278c1.002,0,1.252-0.396,1.252-0.751
							c0-0.567-0.527-0.791-1.912-1.174c-1.371-0.382-2.716-1.041-2.716-2.808c0-1.78,1.503-2.809,3.098-2.809
							c1.516,0,2.703,0.726,3.375,2.083l-1.78,1.042c-0.316-0.659-0.751-1.068-1.595-1.068c-0.659,0-0.989,0.33-0.989,0.699
							c0,0.422,0.224,0.712,1.661,1.146c1.397,0.422,2.966,0.91,2.966,2.861c0,1.779-1.424,2.834-3.428,2.834
							C159.467,22.08,158.228,21.157,157.713,19.8z"/>
					</g>
					<path opacity="0.25" enable-background="new    " d="M202.814,18.553c0,7.811-6.329,14.139-14.138,14.139
						c-7.809,0-14.144-6.329-14.144-14.139c0-7.809,6.334-14.141,14.144-14.141C196.486,4.412,202.814,10.744,202.814,18.553z"/>
					<circle opacity="0.25" enable-background="new    " cx="188.673" cy="71.153" r="14.141"/>
					<path opacity="0.25" enable-background="new    " d="M202.814,123.716c0,7.81-6.329,14.14-14.138,14.14
						c-7.809,0-14.144-6.33-14.144-14.14c0-7.809,6.334-14.142,14.144-14.142C196.486,109.574,202.814,115.906,202.814,123.716z"/>
					<circle opacity="0.25" enable-background="new    " cx="188.673" cy="176.279" r="14.141"/>
					<g>
						<path fill="#FFFFFF" d="M183.606,28.713c0-0.138,0-0.245,0-0.353c0-2.838-0.012-5.681,0.003-8.523
							c0.011-2.588,1.628-4.584,4.125-5.118c2.115-0.448,4.436,0.651,5.446,2.575c0.427,0.81,0.604,1.666,0.601,2.58
							c-0.017,2.813-0.003,5.63-0.003,8.444c0,0.123,0,0.245,0,0.396C190.39,28.713,187.031,28.713,183.606,28.713z"/>
						<path fill="#FFFFFF" d="M191.942,10.541c-0.012,1.768-1.486,3.214-3.271,3.2s-3.208-1.469-3.197-3.265
							c0.014-1.796,1.478-3.254,3.245-3.231C190.521,7.267,191.947,8.724,191.942,10.541z"/>
					</g>
					<path fill="#FFFFFF" d="M196.65,179.894c-0.182,0-0.347,0.046-0.495,0.131l-2.172-3.715l2.167-3.767
						c0.148,0.088,0.319,0.14,0.501,0.14c0.547,0,0.991-0.441,0.991-0.988c0-0.543-0.444-0.988-0.991-0.988
						c-0.538,0-0.971,0.43-0.985,0.968h-4.33l-1.333-2.306l-0.834-1.449c0.293-0.168,0.495-0.49,0.495-0.854
						c0-0.544-0.441-0.988-0.988-0.988c-0.549,0-0.988,0.444-0.988,0.988c0,0.364,0.199,0.686,0.495,0.854l-0.834,1.449
						l-1.335,2.306h-4.333c0-0.547-0.438-0.988-0.979-0.988c-0.55,0-0.991,0.444-0.991,0.988c0,0.546,0.441,0.988,0.991,0.988
						c0.179,0,0.344-0.048,0.492-0.134l2.169,3.781l-2.161,3.704c-0.148-0.088-0.322-0.139-0.501-0.139
						c-0.55,0-0.991,0.438-0.991,0.988c0,0.543,0.441,0.985,0.991,0.985c0.532,0,0.971-0.43,0.979-0.962h1.677h2.656l1.335,2.3
						l0.834,1.449c-0.296,0.171-0.495,0.49-0.495,0.854c0,0.546,0.438,0.988,0.988,0.988c0.546,0,0.988-0.441,0.988-0.988
						c0-0.365-0.202-0.684-0.495-0.854l0.834-1.449l1.333-2.3h2.656h1.674c0,0.541,0.441,0.985,0.985,0.985
						c0.547,0,0.991-0.444,0.991-0.991C197.641,180.332,197.197,179.894,196.65,179.894z"/>
					<circle fill="#333333" cx="265.823" cy="18.589" r="6.446"/>
					<path fill="#333333" d="M236.069,71.153c0,3.562-2.884,6.448-6.445,6.448c-3.564,0-6.445-2.887-6.445-6.448
						s2.881-6.446,6.445-6.446C233.186,64.707,236.069,67.592,236.069,71.153z"/>
					<path fill="#333333" d="M236.069,123.716c0,3.559-2.884,6.447-6.445,6.447c-3.564,0-6.445-2.888-6.445-6.447
						c0-3.56,2.881-6.448,6.445-6.448C233.186,117.267,236.069,120.156,236.069,123.716z"/>
					<circle fill="#333333" cx="265.823" cy="176.279" r="6.446"/>
					<g>
						<line fill="none" x1="208.092" y1="18.589" x2="259.377" y2="18.589"/>
						<rect x="208.092" y="17.489" fill="#333333" width="51.285" height="2.197"/>
					</g>
					<g>
						<line fill="none" x1="207.822" y1="71.153" x2="223.179" y2="71.153"/>
						<rect x="207.822" y="70.056" fill="#333333" width="15.357" height="2.195"/>
					</g>
					<g>
						<line fill="none" x1="207.822" y1="123.716" x2="223.179" y2="123.716"/>
						<rect x="207.822" y="122.617" fill="#333333" width="15.357" height="2.198"/>
					</g>
					<g>
						<line fill="none" x1="208.092" y1="176.279" x2="259.377" y2="176.279"/>
						<rect x="208.092" y="175.179" fill="#333333" width="51.285" height="2.198"/>
					</g>
					<g>
						<polygon fill="#FFFFFF" points="190.14,127.047 187.272,127.047 187.272,126.318 178.293,126.318 178.293,130.163 
							199.119,130.163 199.119,126.318 190.14,126.318 						"/>
						<path fill="#FFFFFF" d="M191.731,117.97v-1.742v-1.588h-1.591h-2.867h-1.591v1.588v1.742h-7.388v6.782h8.979v-1.741h2.867
							v1.741h8.979v-6.782H191.731z M190.14,117.97h-2.867v-1.742h2.867V117.97z"/>
					</g>
					<g>
						<g>
							<g>
								<path fill="#FFFFFF" d="M184.785,81.376c0-0.108,0-0.191,0-0.273c0-2.192-0.012-4.386,0.002-6.577
									c0.006-1.996,1.256-3.535,3.18-3.946c1.631-0.348,3.422,0.501,4.202,1.984c0.333,0.625,0.467,1.284,0.464,1.99
									c-0.014,2.169,0,4.339,0,6.511c0,0.097,0,0.19,0,0.31C190.011,81.376,187.426,81.376,184.785,81.376z"/>
							</g>
							<g>
								<path fill="#FFFFFF" d="M191.213,67.352c-0.006,1.366-1.145,2.479-2.522,2.471c-1.378-0.009-2.474-1.133-2.465-2.52
									c0.008-1.385,1.139-2.511,2.5-2.491C190.12,64.832,191.221,65.954,191.213,67.352z"/>
							</g>
						</g>
						<g>
							<path fill="#FFFFFF" d="M197.135,82.22h-16.86V60.086h16.86V82.22z M181.975,80.525h13.469V61.779h-13.469V80.525z"/>
						</g>
					</g>
				</g>
			</g>
			<path fill="#333333" d="M226.766,97.435c0-30.804,14.548-58.251,37.113-75.898v-2.794
				c-23.854,17.999-39.311,46.573-39.311,78.692c0,32.975,16.305,62.201,41.255,80.096v-2.696
				C242.145,157.267,226.766,129.116,226.766,97.435z"/>
		</g>
		
			<linearGradient id="SVGID_6_" gradientUnits="userSpaceOnUse" x1="1210.0449" y1="-367.6729" x2="1360.3457" y2="-367.6729" gradientTransform="matrix(0 1 -1 0 -42.3643 -1189.8096)">
			<stop  offset="0" style="stop-color:#000000;stop-opacity:0"/>
			<stop  offset="1" style="stop-color:#000000"/>
		</linearGradient>
		<path opacity="0.2" fill="url(#SVGID_6_)" enable-background="new    " d="M400.458,95.387c0-41.504-33.648-75.152-75.15-75.152
			c-41.504,0-75.149,33.648-75.149,75.152c0,41.503,33.645,75.149,75.149,75.149C366.81,170.536,400.458,136.89,400.458,95.387z
			 M261.632,95.387c0-35.17,28.509-63.679,63.676-63.679c35.171,0,63.678,28.509,63.678,63.679
			c0,35.167-28.507,63.677-63.678,63.677C290.142,159.064,261.632,130.554,261.632,95.387z"/>
		
			<linearGradient id="SVGID_7_" gradientUnits="userSpaceOnUse" x1="-444.5205" y1="-1357.0503" x2="-383.2695" y2="-1357.0503" gradientTransform="matrix(0 -1 1 0 1681.9912 -349.5029)">
			<stop  offset="0" style="stop-color:#FFFFFF;stop-opacity:0"/>
			<stop  offset="1" style="stop-color:#FFFFFF"/>
		</linearGradient>
		<path opacity="0.5" fill="url(#SVGID_7_)" enable-background="new    " d="M324.941,33.767c-33.826,0-61.251,27.423-61.251,61.251
			h122.502C386.192,61.19,358.772,33.767,324.941,33.767z"/>
	</g>
	<g>
		<g>
			<circle fill="#333333" cx="325.501" cy="190.749" r="6.446"/>
			<g>
				<path fill="#333333" d="M401.28,219.807h-64.795c-6.662,0-12.081-5.417-12.081-12.078v-23.356h2.196v23.356
					c0,5.449,4.436,9.885,9.885,9.885h64.795V219.807L401.28,219.807z"/>
			</g>
			<polygon fill="#333333" points="400.878,218.768 394.927,224.719 396.479,226.271 402.43,220.32 403.981,218.768 402.43,217.216 
				396.479,211.264 394.927,212.816 			"/>
		</g>
	</g>
</g>
</svg>
