<?xml version="1.0" encoding="utf-8"?>
<!-- Generator: Adobe Illustrator 16.0.0, SVG Export Plug-In . SVG Version: 6.00 Build 0)  -->
<!DOCTYPE svg PUBLIC "-//W3C//DTD SVG 1.1//EN" "http://www.w3.org/Graphics/SVG/1.1/DTD/svg11.dtd">
<svg version="1.1" id="Layer_1" xmlns="http://www.w3.org/2000/svg" xmlns:xlink="http://www.w3.org/1999/xlink" x="0px" y="0px"
	 width="339.389px" height="153.122px" viewBox="0 0 339.389 153.122" enable-background="new 0 0 339.389 153.122"
	 xml:space="preserve">
<g>
	<g>
		<g>
			<g>
				
					<linearGradient id="SVGID_1_" gradientUnits="userSpaceOnUse" x1="1459.6567" y1="-367.1631" x2="1612.7798" y2="-367.1631" gradientTransform="matrix(0 1 -1 0 -197.4683 -1459.6567)">
					<stop  offset="0" style="stop-color:#4B48BF"/>
					<stop  offset="1" style="stop-color:#A14B8A"/>
				</linearGradient>
				<path fill="url(#SVGID_1_)" d="M339.386,56.166h-15.049l2.546,2.551H220.129l5.88-10.189c1.105,0.66,2.396,1.047,3.773,1.05
					c4.102-0.003,7.416-3.322,7.416-7.419c0-4.094-3.314-7.408-7.416-7.408c-4.029,0-7.313,3.223-7.398,7.237h-12.563h-19.963
					l-9.976-17.287l-6.28-10.873c2.218-1.281,3.715-3.673,3.715-6.417c0-4.094-3.323-7.411-7.417-7.411
					c-4.1,0-7.419,3.316-7.419,7.411c0,2.744,1.498,5.136,3.709,6.417l-6.273,10.873l-9.984,17.287h-19.958h-12.549
					c-0.011-4.083-3.325-7.388-7.416-7.388c-4.094,0-7.408,3.316-7.411,7.413c0,4.097,3.316,7.411,7.411,7.411
					c1.358,0,2.625-0.367,3.718-0.999l5.945,10.292H12.501l2.551-2.551H0v15.049l2.551-2.547v15.84L0,81.957v15.055l15.052-0.006
					l-2.599-2.6l107.222-0.004l-5.882,10.194c-1.11-0.666-2.397-1.047-3.781-1.047c-4.094,0-7.411,3.315-7.411,7.41
					c0,4.098,3.319,7.418,7.411,7.418c4.04,0,7.319-3.228,7.411-7.246h12.555l19.958,0.004l9.984,17.285l6.273,10.873
					c-2.212,1.281-3.709,3.672-3.709,6.416c0,4.092,3.319,7.412,7.419,7.412c4.093,0,7.417-3.32,7.417-7.412
					c0-2.744-1.497-5.135-3.715-6.416l6.277-10.873l9.979-17.291l19.965,0.006l12.552-0.006c0.009,4.084,3.326,7.395,7.409,7.395
					c4.1,0,7.416-3.319,7.416-7.418c0-4.096-3.316-7.415-7.416-7.415c-1.355,0-2.622,0.375-3.717,1.008l-5.938-10.297H326.94
					l-2.6,2.606l15.049-0.004v-15.05l-2.542,2.552l-0.006-15.84l2.548,2.547V56.166H339.386L339.386,56.166z M333.014,68.668v15.84
					v6.076h-6.078H220.129h-6.622l3.311,5.734l5.941,10.293l0.407,0.696h-0.792h-12.554h-19.963h-2.203l-1.102,1.91l-9.984,17.293
					l-6.272,10.869l-0.395,0.684l-0.396-0.684l-6.28-10.869l-9.979-17.293l-1.104-1.91h-2.209h-19.958h-12.555h-0.78l0.464-0.807
					l5.876-10.185l3.308-5.735h-6.616H12.452H6.374l0.002-6.076v-15.84L6.374,62.54H12.5h107.174h6.622l-3.313-5.737l-5.936-10.289
					l-0.407-0.703h0.789h12.549h19.958h2.209l1.104-1.913l9.979-17.287l6.28-10.873l0.396-0.683l0.395,0.683l6.272,10.873
					l9.984,17.287l1.102,1.913h2.203h19.963h12.557h0.789l-0.478,0.809l-5.873,10.184l-3.311,5.737h6.622h106.753h6.132V68.668
					L333.014,68.668z M236,73.882c0,3.765-3.029,6.799-6.938,6.799h-2.972v6.229h-4.539V67.084h7.511
					C232.97,67.084,236,70.113,236,73.882z M231.467,73.882c0-1.442-1.022-2.545-2.406-2.551h-2.972v5.1h2.972
					C230.444,76.431,231.467,75.33,231.467,73.882z M239.253,76.998c0-5.834,4.618-10.31,10.313-10.31
					c5.688,0,10.306,4.476,10.306,10.31c0,5.836-4.615,10.313-10.306,10.313C243.872,87.308,239.253,82.834,239.253,76.998z
					 M255.341,76.998c0-3.539-2.551-5.891-5.776-5.891c-3.231,0-5.777,2.352-5.777,5.891c0,3.541,2.546,5.893,5.777,5.893
					C252.791,82.89,255.341,80.539,255.341,76.998z M276.015,82.552l-0.003,4.356h-11.609V67.083h4.532v15.468L276.015,82.552
					L276.015,82.552z M284.5,67.084V86.91h-4.524V67.084H284.5z M289.039,76.994c0-5.83,4.333-10.306,10.309-10.306
					c3.599,0,6.771,1.778,8.498,4.589l-3.903,2.266c-0.885-1.531-2.582-2.438-4.595-2.438c-3.516,0-5.776,2.354-5.776,5.891
					c0,3.541,2.268,5.895,5.776,5.895c2.013,0,3.741-0.904,4.595-2.438l3.903,2.266c-1.696,2.809-4.868,4.59-8.498,4.59
					C293.372,87.308,289.039,82.834,289.039,76.994z M324.411,82.552v4.356h-12.465V67.083h12.324v4.364h-7.798v3.285l7.089-0.002
					v4.305h-7.089v3.517H324.411z M15.678,76.693c0-5.836,4.333-10.31,10.309-10.31c3.599,0,6.776,1.782,8.496,4.586l-3.906,2.267
					c-0.877-1.529-2.576-2.435-4.583-2.435c-3.513,0-5.782,2.349-5.782,5.89c0,3.543,2.269,5.895,5.782,5.895
					c2.007,0,3.735-0.908,4.583-2.438l3.909,2.268c-1.697,2.803-4.871,4.586-8.499,4.586C20.011,87.002,15.678,82.529,15.678,76.693
					z M43.291,80.095h-2.152v6.511h-4.533V66.78h7.929c3.769,0,6.801,3.028,6.801,6.792c0,2.442-1.475,4.649-3.653,5.758
					l4.216,7.275l-4.871,0.006L43.291,80.095z M41.139,76.123h3.396c1.252,0.006,2.269-1.102,2.269-2.545s-1.016-2.549-2.269-2.549
					h-3.396V76.123z M62.946,78.986v7.625l-4.535-0.006l0.005-7.615l-6.659-12.211h5.156l3.769,7.65l3.767-7.65h5.153L62.946,78.986
					z M85.744,73.572c0,3.771-3.035,6.801-6.941,6.801h-2.978l0.006,6.232l-4.53,0.006V66.779h7.502
					C82.71,66.779,85.744,69.808,85.744,73.572z M81.215,73.578c0-1.443-1.022-2.549-2.411-2.549h-2.972v5.094h2.972
					C80.19,76.123,81.209,75.021,81.215,73.578z M101.035,71.138h-5.099v15.474h-4.532V71.138h-5.096v-4.359h14.728L101.035,71.138
					L101.035,71.138z M101.033,76.693c0-5.836,4.621-10.31,10.312-10.31c5.688,0,10.309,4.474,10.309,10.312
					c0,5.836-4.621,10.307-10.309,10.307C105.653,87.002,101.033,82.529,101.033,76.693z M117.123,76.695
					c0-3.545-2.551-5.894-5.779-5.894c-3.231,0-5.779,2.349-5.779,5.89c0,3.543,2.548,5.895,5.779,5.895
					C114.57,82.586,117.123,80.234,117.123,76.695z M126.456,89.449l4.83-12.754l-4.83-12.756l7.359,12.756L126.456,89.449z
					 M213.126,63.813l-4.832,12.751l4.832,12.76l-7.362-12.76L213.126,63.813z M169.306,30.108l0.629-1.09l0.626,1.09l9.984,17.287
					l2.615,4.53c-3.945-2.087-8.446-3.277-13.228-3.277s-9.278,1.19-13.224,3.277l2.617-4.53L169.306,30.108z M128.753,52.793
					l0.632,1.084l9.979,17.291l2.292,3.965c0.615-9.468,5.871-17.667,13.523-22.339h-5.207h-19.96L128.753,52.793L128.753,52.793z
					 M149.972,100.341h3.88c-7.137-4.924-11.896-13.03-12.236-22.272l-2.252,3.899l-9.979,17.283l-0.632,1.09h1.258H149.972
					L149.972,100.341z M180.545,105.74l1.906-3.308c-3.777,1.863-8.024,2.914-12.519,2.914c-4.489,0-8.74-1.051-12.518-2.914
					l1.911,3.308l9.979,17.286l0.629,1.089l0.626-1.089L180.545,105.74z M211.113,100.341l-0.629-1.09l-9.976-17.283l-2.255-3.899
					c-0.343,9.24-5.104,17.35-12.236,22.272h3.88h19.96H211.113L211.113,100.341z M211.113,52.793h-1.256h-19.96h-5.207
					c7.653,4.672,12.908,12.874,13.521,22.343l2.297-3.969l9.976-17.291L211.113,52.793z M175.054,74.07h-10.343v-4.267h10.343
					c1.281,0,2.101,0.896,2.101,2.134C177.155,73.181,176.295,74.07,175.054,74.07z M178.02,81.265c0,1.345-0.896,2.31-2.277,2.31
					h-11.03v-4.615h11.03C177.124,78.959,178.02,79.922,178.02,81.265z M169.934,53.752c-12.823,0-23.251,10.428-23.251,23.246
					c0,12.824,10.428,23.254,23.251,23.254c12.82,0,23.251-10.43,23.251-23.254C193.185,64.18,182.754,53.752,169.934,53.752z
					 M175.743,88.732h-0.827v4.475h-4.068v-4.475h-2.053v4.475h-4.062v-4.471h-8.109v-5.138h2.579V69.795h-2.579v-5.139v-0.014
					h8.109v-4.467h4.062v4.467h2.053v-4.467h4.068v4.467h0.14c4.199,0,7.61,2.726,7.61,6.888c0,1.996-0.792,3.582-2.103,4.713
					c1.793,1.141,2.961,2.992,2.961,5.436C183.523,85.947,180.05,88.732,175.743,88.732z"/>
			</g>
		</g>
	</g>
</g>
</svg>
