<?xml version="1.0" encoding="utf-8"?>
<!-- Generator: Adobe Illustrator 16.0.0, SVG Export Plug-In . SVG Version: 6.00 Build 0)  -->
<!DOCTYPE svg PUBLIC "-//W3C//DTD SVG 1.1//EN" "http://www.w3.org/Graphics/SVG/1.1/DTD/svg11.dtd">
<svg version="1.1" id="Layer_1" xmlns="http://www.w3.org/2000/svg" xmlns:xlink="http://www.w3.org/1999/xlink" x="0px" y="0px"
	 width="159.692px" height="203.711px" viewBox="0 0 159.692 203.711" enable-background="new 0 0 159.692 203.711"
	 xml:space="preserve">
<g>
	<g>
		<g>
			<g>
				
					<linearGradient id="SVGID_1_" gradientUnits="userSpaceOnUse" x1="-163.2559" y1="205.9922" x2="-8.3076" y2="205.9922" gradientTransform="matrix(1 0 0 1 168 -79.7549)">
					<stop  offset="0" style="stop-color:#9B4B8D"/>
					<stop  offset="1" style="stop-color:#A14B8A"/>
				</linearGradient>
				<path fill="url(#SVGID_1_)" d="M4.744,126.236c0-42.783,34.688-77.472,77.472-77.472c42.79,0,77.477,34.688,77.477,77.472
					c0,42.788-34.687,77.475-77.477,77.475C39.431,203.711,4.744,169.024,4.744,126.236z"/>
				<g>
					<g>
						<path fill="#FFFFFF" d="M56.822,149.149l2.426-1.403c0.439,1.02,1.195,1.705,2.584,1.705c1.336,0,1.67-0.527,1.67-1.002
							c0-0.759-0.703-1.058-2.549-1.564c-1.828-0.51-3.621-1.389-3.621-3.744c0-2.373,2.004-3.744,4.131-3.744
							c2.021,0,3.604,0.968,4.5,2.777l-2.373,1.389c-0.422-0.879-1.002-1.424-2.127-1.424c-0.879,0-1.316,0.439-1.316,0.933
							c0,0.563,0.299,0.948,2.215,1.528c1.861,0.563,3.955,1.213,3.955,3.814c0,2.373-1.898,3.776-4.57,3.776
							C59.16,152.19,57.507,150.961,56.822,149.149z"/>
						<path fill="#FFFFFF" d="M76.594,143.858c0,2.341-1.881,4.222-4.307,4.222h-1.846v3.867h-2.813V139.64h4.658
							C74.713,139.64,76.594,141.521,76.594,143.858z M73.782,143.858c0-0.895-0.633-1.581-1.494-1.581h-1.846v3.163h1.846
							C73.149,145.44,73.782,144.756,73.782,143.858z"/>
						<path fill="#FFFFFF" d="M85.731,149.238v2.707h-7.734V139.64h7.646v2.707H80.81v2.039h4.395v2.672H80.81v2.181H85.731z"/>
						<path fill="#FFFFFF" d="M95.044,149.238v2.707h-7.732V139.64h7.646v2.707h-4.834v2.039h4.396v2.672h-4.396v2.181H95.044z"/>
						<path fill="#FFFFFF" d="M107.522,145.793c0,3.479-2.584,6.152-5.979,6.152h-4.922V139.64h4.922
							C104.938,139.64,107.522,142.312,107.522,145.793z M104.815,145.793c0-2.109-1.336-3.445-3.271-3.445h-2.107v6.894h2.107
							C103.479,149.238,104.815,147.902,104.815,145.793z"/>
					</g>
				</g>
				<g>
					<g>
						<path fill="#FFFFFF" d="M101.29,106.349c0.003,10.519-8.532,19.058-19.066,19.064c-10.529,0.008-19.063-8.511-19.082-19.043
							c-0.021-10.543,8.528-19.09,19.087-19.082C92.763,87.298,101.279,95.813,101.29,106.349z M67.3,106.347
							c0,8.23,6.696,14.898,14.952,14.887c8.19-0.008,14.876-6.688,14.873-14.86c-0.006-8.248-6.696-14.935-14.924-14.912
							C73.968,91.478,67.303,98.14,67.3,106.347z"/>
						<path fill="#FFFFFF" d="M79.827,86.162c0-0.119-0.011-0.248,0-0.373c0.064-0.947-0.097-1.707-0.837-2.496
							c-1.54-1.646-1.192-4.303,0.55-5.762c1.72-1.437,4.305-1.25,5.782,0.42c1.515,1.711,1.415,4.297-0.271,5.809
							c-0.348,0.316-0.479,0.617-0.456,1.059c0.031,0.457,0.006,0.921,0.006,1.345C82.996,86.162,81.438,86.162,79.827,86.162z
							 M82.221,83.104c1.309,0.002,2.382-1.063,2.382-2.368c0-1.308-1.058-2.365-2.368-2.371c-1.318-0.017-2.396,1.039-2.406,2.34
							C79.816,82.031,80.88,83.099,82.221,83.104z"/>
						<path fill="#FFFFFF" d="M93.609,89.588c0.601-0.596,1.139-1.139,1.689-1.662c0.404-0.377,0.884-0.377,1.284,0.016
							c1.258,1.24,2.511,2.494,3.752,3.755c0.392,0.396,0.389,0.879,0.014,1.278c-0.515,0.543-1.047,1.068-1.611,1.646
							C97.311,92.631,95.617,90.979,93.609,89.588z"/>
						<path fill="#FFFFFF" d="M75.822,93.761c0.148,0.211,0.316,0.41,0.452,0.629c1.731,2.84,3.468,5.688,5.188,8.535
							c0.153,0.258,0.313,0.375,0.636,0.369c1.359-0.025,2.509,0.846,2.891,2.141c0.39,1.349-0.157,2.806-1.333,3.551
							c-1.115,0.705-2.582,0.597-3.553-0.272c-1.033-0.918-1.352-2.42-0.706-3.66c0.217-0.418,0.208-0.738,0.052-1.156
							c-1.213-3.146-2.409-6.307-3.604-9.463c-0.069-0.186-0.118-0.381-0.177-0.576C75.719,93.826,75.773,93.795,75.822,93.761z"/>
					</g>
				</g>
			</g>
		</g>
		
			<linearGradient id="SVGID_2_" gradientUnits="userSpaceOnUse" x1="1056.8955" y1="-747.4878" x2="1207.1982" y2="-747.4878" gradientTransform="matrix(0 1 -1 0 -665.2881 -1007.3916)">
			<stop  offset="0" style="stop-color:#000000;stop-opacity:0"/>
			<stop  offset="1" style="stop-color:#000000"/>
		</linearGradient>
		<path opacity="0.2" fill="url(#SVGID_2_)" enable-background="new    " d="M157.349,124.656c0-41.504-33.646-75.152-75.148-75.152
			S7.051,83.152,7.051,124.656s33.646,75.149,75.149,75.149S157.349,166.16,157.349,124.656z M18.523,124.656
			c0-35.168,28.51-63.681,63.676-63.681c35.171,0,63.678,28.513,63.678,63.681s-28.507,63.678-63.678,63.678
			C47.033,188.334,18.523,159.824,18.523,124.656z"/>
		
			<linearGradient id="SVGID_3_" gradientUnits="userSpaceOnUse" x1="-1094.0684" y1="-1417.3569" x2="-1032.8184" y2="-1417.3569" gradientTransform="matrix(0 -1 1 0 1499.5732 -972.4268)">
			<stop  offset="0" style="stop-color:#FFFFFF;stop-opacity:0"/>
			<stop  offset="1" style="stop-color:#FFFFFF"/>
		</linearGradient>
		<path opacity="0.5" fill="url(#SVGID_3_)" enable-background="new    " d="M82.215,60.392c-33.823,0-61.25,27.422-61.25,61.25
			h122.503C143.468,87.813,116.046,60.392,82.215,60.392z"/>
	</g>
	<g>
		<g>
			<path fill="#333333" d="M0,6.445C0,2.886,2.881,0,6.445,0c3.559,0,6.446,2.887,6.446,6.445c0,3.558-2.889,6.444-6.446,6.444
				C2.882,12.89,0,10.004,0,6.445z"/>
			<g>
				<path fill="#333333" d="M83.59,39.205h-2.195V17.307c0-5.453-4.435-9.885-9.887-9.885H6.714V5.225h64.794
					c6.662,0,12.082,5.42,12.082,12.082V39.205L83.59,39.205z"/>
			</g>
		</g>
		<polygon fill="#333333" points="82.392,37.965 76.442,32.013 74.89,33.563 80.84,39.515 82.392,41.065 83.944,39.515 
			89.897,33.563 88.345,32.013 		"/>
	</g>
</g>
</svg>
