<?xml version="1.0" encoding="utf-8"?>
<!-- Generator: Adobe Illustrator 16.0.0, SVG Export Plug-In . SVG Version: 6.00 Build 0)  -->
<!DOCTYPE svg PUBLIC "-//W3C//DTD SVG 1.1//EN" "http://www.w3.org/Graphics/SVG/1.1/DTD/svg11.dtd">
<svg version="1.1" id="Layer_1" xmlns="http://www.w3.org/2000/svg" xmlns:xlink="http://www.w3.org/1999/xlink" x="0px" y="0px"
	 width="266.252px" height="154.943px" viewBox="0 0 266.252 154.943" enable-background="new 0 0 266.252 154.943"
	 xml:space="preserve">
<g>
	
		<linearGradient id="SVGID_1_" gradientUnits="userSpaceOnUse" x1="-140.6919" y1="-27.283" x2="14.252" y2="-27.283" gradientTransform="matrix(1 0 0 -1 252 50.189)">
		<stop  offset="0" style="stop-color:#9B4B8D"/>
		<stop  offset="1" style="stop-color:#A14B8A"/>
	</linearGradient>
	<circle fill="url(#SVGID_1_)" cx="188.78" cy="77.472" r="77.472"/>
	<g>
		<path fill="#FFFFFF" d="M193.933,38.366c1.109-0.046,2.166,0.268,3.154,0.797c1.045,0.559,2.064,1.151,3.031,1.846
			c0.904,0.643,1.851,1.213,3.021,1.229c0.758,0.021,1.5-0.219,2.104-0.678c0.318-0.233,0.458-0.192,0.641,0.157
			c1.825,3.519,3.658,7.025,5.506,10.531c0.523,0.996,1.104,1.963,1.657,2.941c0.606,1.076,0.55,1.754-0.308,2.646
			c-1.616,1.685-3.241,3.36-4.875,5.028c-0.521,0.53-0.574,0.522-1.061-0.007c-4.611-5.094-9.229-10.178-13.843-15.273
			c-1.426-1.582-1.698-1.617-3.593-0.602c-2.646,1.418-5.313,2.805-7.971,4.201c-0.672,0.354-1.379,0.597-2.15,0.556
			c-0.941-0.048-1.639-0.61-1.816-1.556c-0.209-1.053,0.026-2.018,0.908-2.682c3.872-2.918,7.707-5.896,12.026-8.162
			C191.479,38.762,192.626,38.329,193.933,38.366L193.933,38.366z M220.446,53.644c0.049,0.442-0.172,0.791-0.523,0.989
			c-1.113,0.615-2.199,1.296-3.404,1.724c-0.774,0.272-1.199,0.099-1.586-0.646c-0.854-1.627-1.697-3.264-2.543-4.898
			c-1.658-3.215-3.324-6.436-4.983-9.65c-0.806-1.559-0.693-1.908,0.853-2.748c0.66-0.356,1.326-0.704,1.996-1.041
			c1.264-0.641,1.742-0.49,2.393,0.756c1.439,2.767,2.869,5.533,4.299,8.299c1.072,2.068,2.143,4.136,3.201,6.205
			C220.312,52.948,220.481,53.262,220.446,53.644L220.446,53.644z M158.758,54.034c-0.048-0.242,0.056-0.488,0.146-0.732
			c1.914-5.107,3.826-10.215,5.742-15.314c0.455-1.209,0.945-1.428,2.17-1.004c0.813,0.285,1.634,0.543,2.438,0.855
			c0.988,0.383,1.186,0.787,0.822,1.791c-0.739,2.063-1.518,4.111-2.283,6.168c-1.167,3.143-2.343,6.279-3.493,9.432
			c-0.207,0.568-0.601,0.938-1.026,1.302c-0.146,0.122-0.269,0.093-0.414,0.043c-1.092-0.396-2.194-0.761-3.271-1.192
			C158.961,55.126,158.742,54.688,158.758,54.034L158.758,54.034z"/>
		<path fill="#FFFFFF" d="M165.873,55.866c-0.022-0.449,0.146-0.812,0.285-1.179c1.754-4.662,3.514-9.323,5.276-13.983
			c0.133-0.363,0.267-0.742,0.531-1.045c0.606-0.687,1.461-0.718,2.106-0.021c0.786,0.854,1.712,1.344,2.893,1.219
			c0.679-0.069,1.31-0.315,1.913-0.625c1.188-0.604,2.354-1.252,3.559-1.817c1.41-0.666,2.885-0.965,4.407-0.355
			c0.157,0.063,0.313,0.131,0.46,0.215c0.28,0.15,0.699,0.318,0.668,0.613c-0.039,0.344-0.455,0.498-0.797,0.633
			c-0.282,0.108-0.59,0.133-0.886,0.07c-1.349-0.275-2.619-0.039-3.823,0.57c-0.892,0.444-1.751,0.948-2.631,1.401
			c-1.477,0.758-3.001,1.187-4.66,0.664c-0.611-0.188-1.18-0.492-1.677-0.896c-0.376-0.313-0.558-0.293-0.737,0.205
			c-1.419,3.847-2.851,7.69-4.294,11.528c-0.241,0.649-0.518,1.287-0.771,1.933c-0.23,0.573-0.15,1.078,0.291,1.549
			c1.17,1.252,2.309,2.533,3.482,3.772c0.286,0.31,0.286,0.479-0.004,0.771c-0.794,0.805-0.773,0.816-1.533-0.043
			c-1.195-1.357-2.392-2.712-3.592-4.064C166.056,56.649,165.802,56.306,165.873,55.866z M193.021,74.975
			c0.258-1.191,0.611-1.491,1.729-1.463c0.354,0.013,0.663-0.11,0.933-0.336c1.063-0.896,1.262-2.477,0.377-3.539
			c-1.218-1.461-2.438-2.918-3.746-4.297c-0.547-0.573-0.311-1.146-0.313-1.733c0-0.192,0.188-0.151,0.305-0.125
			c0.387,0.088,0.74,0.205,1.025,0.526c1.436,1.617,2.881,3.227,4.335,4.828c0.269,0.293,0.538,0.588,0.84,0.84
			c0.765,0.65,1.609,0.777,2.278,0.373c0.809-0.492,1.285-1.57,1.102-2.473c-0.117-0.546-0.339-1.035-0.715-1.447
			c-1.396-1.549-2.768-3.129-4.205-4.643c-0.494-0.521-0.488-1.059-0.287-1.604c0.199-0.525,0.637-0.082,0.963-0.084
			c0.107,0,0.235,0.168,0.344,0.275c1.603,1.793,3.205,3.596,4.812,5.389c0.236,0.266,0.474,0.535,0.74,0.771
			c1.136,1.027,2.175,0.94,3.108-0.272c0.422-0.537,0.834-1.062,1.375-1.482c0.348-0.271,0.404-0.155,0.453,0.199
			c0.281,2.021-1.142,3.771-3.234,3.709c-1.164-0.033-1.854,0.328-2.312,1.334c-0.149,0.32-0.396,0.602-0.61,0.877
			c-1.032,1.336-1.938,1.634-3.549,1.105c-0.441-0.146-0.586-0.084-0.721,0.377c-0.373,1.311-0.992,2.451-2.447,2.844
			C194.744,75.163,193.888,74.944,193.021,74.975z M182.804,73.531c-1.23,0.006-2.24-1.205-2.173-2.523
			c0.04-0.703,0.285-1.313,0.789-1.813c1.491-1.479,3.074-2.876,4.657-4.263c1.122-0.973,2.568-0.602,3.334,0.68
			c0.734,1.242,0.158,2.223-0.604,3.074c-1.427,1.605-3.076,2.98-4.721,4.355C183.716,73.352,183.259,73.559,182.804,73.531
			L182.804,73.531z M182.146,61.543c1.771,0.054,2.272,0.914,2.424,2.342c0.068,0.664-0.484,1.367-0.98,1.908
			c-1.093,1.199-2.32,2.267-3.568,3.289c-1.061,0.865-2.103,0.803-2.916-0.072c-0.879-0.938-0.975-2.452-0.151-3.344
			c1.278-1.383,2.673-2.653,4.168-3.799C181.416,61.646,181.777,61.531,182.146,61.543z"/>
		<path fill="#FFFFFF" d="M188.603,76.467c-1.082-0.014-1.664-0.506-2.069-1.233c-0.407-0.72-0.481-1.452,0.021-2.175
			c0.823-1.178,1.733-2.271,2.877-3.155c0.904-0.696,1.817-0.625,2.596,0.218c0.367,0.396,0.588,0.864,0.731,1.377
			c0.091,0.321,0.021,0.604-0.108,0.914c-0.599,1.418-1.651,2.455-2.758,3.45C189.479,76.229,188.999,76.491,188.603,76.467
			L188.603,76.467z M171.405,64.282c-0.022-0.959,0.33-1.65,1.02-2.177c0.238-0.178,0.483-0.356,0.737-0.521
			c0.94-0.612,1.769-0.578,2.604,0.09c0.771,0.609,1.062,1.638,0.729,2.591c-0.381,1.11-1.901,2.336-2.938,2.356
			C172.31,66.653,171.405,65.633,171.405,64.282L171.405,64.282z"/>
	</g>
	
		<linearGradient id="SVGID_2_" gradientUnits="userSpaceOnUse" x1="744.5898" y1="1440.3665" x2="894.8916" y2="1440.3665" gradientTransform="matrix(6.123234e-017 1 1 -6.123234e-017 -1251.5862 -743.2722)">
		<stop  offset="0" style="stop-color:#000000;stop-opacity:0"/>
		<stop  offset="1" style="stop-color:#000000"/>
	</linearGradient>
	<path opacity="0.2" fill="url(#SVGID_2_)" enable-background="new    " d="M263.929,76.469c0-41.504-33.646-75.151-75.147-75.151
		c-41.507,0-75.15,33.647-75.15,75.151s33.646,75.15,75.15,75.15C230.28,151.62,263.929,117.973,263.929,76.469z M125.102,76.469
		c0-35.17,28.508-63.678,63.68-63.678c35.171,0,63.678,28.508,63.678,63.678c0,35.168-28.507,63.679-63.678,63.679
		C153.61,140.148,125.102,111.637,125.102,76.469L125.102,76.469z"/>
	
		<linearGradient id="SVGID_3_" gradientUnits="userSpaceOnUse" x1="-1586.9766" y1="1260.6184" x2="-1525.7246" y2="1260.6184" gradientTransform="matrix(6.123234e-017 -1 -1 -6.123234e-017 1449.3967 -1512.781)">
		<stop  offset="0" style="stop-color:#FFFFFF;stop-opacity:0"/>
		<stop  offset="1" style="stop-color:#FFFFFF"/>
	</linearGradient>
	<path opacity="0.5" fill="url(#SVGID_3_)" enable-background="new    " d="M188.78,12.944c-33.827,0-61.252,27.425-61.252,61.252
		h122.5C250.028,40.368,222.608,12.944,188.78,12.944z"/>
	<g>
		<path fill="#333333" d="M12.889,72.219c-0.001,3.56-2.888,6.444-6.447,6.443c0,0,0,0-0.001,0c-3.557,0-6.44-2.884-6.44-6.44
			c0-0.001,0-0.002,0-0.003c0-3.559,2.885-6.444,6.444-6.444C10.004,65.775,12.889,68.66,12.889,72.219z"/>
		<path fill="#333333" d="M4.982,71.241h92.834v2.195H4.982V71.241z"/>
		<path fill="#333333" d="M97.651,72.215l-5.949,5.953l1.552,1.551l5.949-5.951l1.552-1.553l-1.552-1.55l-5.949-5.95l-1.552,1.552
			L97.651,72.215z"/>
	</g>
	<g>
		<path fill="#FFFFFF" d="M135.418,90.763v12.529h-2.147l-4.833-6.802v6.802h-2.864V90.763h2.148l4.833,6.802v-6.802H135.418z"/>
		<path fill="#FFFFFF" d="M136.136,97.028c0-3.687,2.917-6.515,6.515-6.515s6.515,2.828,6.515,6.515
			c0,3.688-2.917,6.516-6.515,6.516S136.136,100.715,136.136,97.028z M146.302,97.028c0-2.237-1.611-3.723-3.651-3.723
			s-3.651,1.485-3.651,3.723s1.611,3.723,3.651,3.723S146.302,99.265,146.302,97.028z"/>
		<path fill="#FFFFFF" d="M152.925,97.028c0-3.687,2.738-6.515,6.515-6.515c2.273,0,4.278,1.127,5.37,2.899l-2.471,1.432
			c-0.555-0.967-1.628-1.539-2.899-1.539c-2.219,0-3.651,1.485-3.651,3.723s1.433,3.723,3.651,3.723
			c1.271,0,2.363-0.572,2.899-1.539l2.471,1.432c-1.074,1.772-3.079,2.9-5.37,2.9C155.663,103.543,152.925,100.715,152.925,97.028z"
			/>
		<path fill="#FFFFFF" d="M164.542,97.028c0-3.687,2.917-6.515,6.515-6.515s6.516,2.828,6.516,6.515
			c0,3.688-2.918,6.516-6.516,6.516S164.542,100.715,164.542,97.028z M174.708,97.028c0-2.237-1.61-3.723-3.651-3.723
			c-2.04,0-3.651,1.485-3.651,3.723s1.611,3.723,3.651,3.723C173.098,100.75,174.708,99.265,174.708,97.028z"/>
		<path fill="#FFFFFF" d="M182.513,99.176h-1.36v4.116h-2.863V90.763h5.012c2.38,0,4.295,1.915,4.295,4.296
			c0,1.539-0.931,2.936-2.309,3.634l2.667,4.6h-3.079L182.513,99.176z M181.152,96.67h2.148c0.787,0,1.432-0.698,1.432-1.611
			s-0.645-1.61-1.432-1.61h-2.148V96.67z"/>
		<path fill="#FFFFFF" d="M192.627,99.176h-1.36v4.116h-2.863V90.763h5.012c2.38,0,4.295,1.915,4.295,4.296
			c0,1.539-0.931,2.936-2.309,3.634l2.667,4.6h-3.079L192.627,99.176z M191.267,96.67h2.148c0.787,0,1.432-0.698,1.432-1.611
			s-0.645-1.61-1.432-1.61h-2.148V96.67z"/>
		<path fill="#FFFFFF" d="M198.337,99.247v-8.484h2.864v8.233c0,0.949,0.447,1.754,1.969,1.754s1.969-0.805,1.969-1.754v-8.233
			h2.863v8.484c0,2.685-2.076,4.296-4.832,4.296C200.413,103.543,198.337,101.932,198.337,99.247z"/>
		<path fill="#FFFFFF" d="M218.295,95.059c0,2.381-1.915,4.296-4.385,4.296h-1.88v3.938h-2.863V90.763h4.743
			C216.38,90.763,218.295,92.678,218.295,95.059z M215.432,95.059c0-0.913-0.645-1.61-1.521-1.61h-1.88v3.222h1.88
			C214.787,96.67,215.432,95.972,215.432,95.059z"/>
		<path fill="#FFFFFF" d="M227.065,93.52h-3.222v9.772h-2.864V93.52h-3.222v-2.757h9.308V93.52z"/>
		<path fill="#FFFFFF" d="M230.288,90.763v12.529h-2.863V90.763H230.288z"/>
		<path fill="#FFFFFF" d="M231.005,97.028c0-3.687,2.917-6.515,6.515-6.515s6.516,2.828,6.516,6.515
			c0,3.688-2.918,6.516-6.516,6.516S231.005,100.715,231.005,97.028z M241.171,97.028c0-2.237-1.61-3.723-3.651-3.723
			c-2.04,0-3.651,1.485-3.651,3.723s1.611,3.723,3.651,3.723C239.561,100.75,241.171,99.265,241.171,97.028z"/>
		<path fill="#FFFFFF" d="M254.596,90.763v12.529h-2.147l-4.833-6.802v6.802h-2.863V90.763h2.147l4.833,6.802v-6.802H254.596z"/>
	</g>
</g>
</svg>
