<?xml version="1.0" encoding="utf-8"?>
<!-- Generator: Adobe Illustrator 16.0.0, SVG Export Plug-In . SVG Version: 6.00 Build 0)  -->
<!DOCTYPE svg PUBLIC "-//W3C//DTD SVG 1.1//EN" "http://www.w3.org/Graphics/SVG/1.1/DTD/svg11.dtd">
<svg version="1.1" id="Layer_1" xmlns="http://www.w3.org/2000/svg" xmlns:xlink="http://www.w3.org/1999/xlink" x="0px" y="0px"
	 width="868.048px" height="351.664px" viewBox="0 -470.459 868.048 351.664" enable-background="new 0 -470.459 868.048 351.664"
	 xml:space="preserve">
<g>
	<g>
		
			<linearGradient id="SVGID_1_" gradientUnits="userSpaceOnUse" x1="-996.6838" y1="-561.9668" x2="-923.1428" y2="-561.9668" gradientTransform="matrix(6.123234e-017 1 1 -6.123234e-017 995.6887 801.6697)">
			<stop  offset="0" style="stop-color:#A14B8A;stop-opacity:0.7"/>
			<stop  offset="1" style="stop-color:#A14B8A;stop-opacity:0"/>
		</linearGradient>
		<path fill="url(#SVGID_1_)" d="M0-195.014h867.444v73.541H0V-195.014z"/>
		
			<linearGradient id="SVGID_2_" gradientUnits="userSpaceOnUse" x1="4070.2742" y1="-1333.5498" x2="4279.7148" y2="-1333.5498" gradientTransform="matrix(6.123234e-017 1 1 -6.123234e-017 1767.7903 -4540.7329)">
			<stop  offset="0" style="stop-color:#A14B8A"/>
			<stop  offset="1" style="stop-color:#A14B8A;stop-opacity:0"/>
		</linearGradient>
		<path fill="url(#SVGID_2_)" d="M867.964-261.018v-201.356c0-4.465-3.619-8.084-8.084-8.085H8.603c-4.466,0-8.085,3.62-8.086,8.085
			v201.356H867.964z"/>
		
			<linearGradient id="SVGID_3_" gradientUnits="userSpaceOnUse" x1="58.011" y1="-264.9209" x2="624.407" y2="-264.9209" gradientTransform="matrix(1 0 0 -1 243.6401 -709.1523)">
			<stop  offset="0" style="stop-color:#A14B8A"/>
			<stop  offset="1" style="stop-color:#A14B8A;stop-opacity:0"/>
		</linearGradient>
		<path fill="url(#SVGID_3_)" d="M859.964-470.459H301.651l566.396,52.455v-44.37C868.048-466.838,864.428-470.458,859.964-470.459
			C859.964-470.459,859.964-470.459,859.964-470.459z"/>
		
			<linearGradient id="SVGID_4_" gradientUnits="userSpaceOnUse" x1="3548.3562" y1="-264.9224" x2="4347.0137" y2="-264.9224" gradientTransform="matrix(-1 0 0 -1 4347.4473 -709.1533)">
			<stop  offset="0" style="stop-color:#A14B8A"/>
			<stop  offset="1" style="stop-color:#A14B8A;stop-opacity:0"/>
		</linearGradient>
		<path fill="url(#SVGID_4_)" d="M8.517-470.459h790.573L0.433-418.003v-44.37C0.432-466.838,4.052-470.458,8.517-470.459z"/>
		
			<linearGradient id="SVGID_5_" gradientUnits="userSpaceOnUse" x1="3477.9607" y1="328.9937" x2="4329.9912" y2="328.9937" gradientTransform="matrix(-1 0 0 -1 4338.1191 -140.7891)">
			<stop  offset="0" style="stop-color:#FFFFFF;stop-opacity:0.048"/>
			<stop  offset="0.489" style="stop-color:#FFFFFF"/>
			<stop  offset="1" style="stop-color:#FFFFFF;stop-opacity:0"/>
		</linearGradient>
		<path fill="url(#SVGID_5_)" d="M8.128-470.457h852.03v1.349H8.128V-470.457z"/>
		<path fill="#FFFFFF" d="M38.794-412.739c0-3.709,2.936-6.554,6.555-6.554c3.618,0,6.554,2.845,6.554,6.554
			s-2.936,6.554-6.554,6.554C41.729-406.185,38.794-409.03,38.794-412.739z M49.021-412.739c0-2.251-1.621-3.745-3.673-3.745
			c-2.054,0-3.674,1.494-3.674,3.745s1.621,3.745,3.674,3.745S49.021-410.488,49.021-412.739z M56.4-416.268v2.431h4.681v2.773H56.4
			v4.627h-2.881v-12.604h7.651v2.772L56.4-416.268L56.4-416.268z M65.759-416.268v2.431h4.683v2.773h-4.683v4.627h-2.881v-12.604
			h7.652v2.772L65.759-416.268L65.759-416.268z M75.119-419.041v12.604h-2.881v-12.604H75.119z M76.738-412.739
			c0-3.709,2.755-6.554,6.554-6.554c2.287,0,4.304,1.134,5.401,2.916l-2.485,1.441c-0.558-0.973-1.638-1.549-2.917-1.549
			c-2.232,0-3.673,1.494-3.673,3.745s1.44,3.745,3.673,3.745c1.278,0,2.376-0.576,2.917-1.549l2.485,1.44
			c-1.08,1.783-3.097,2.917-5.401,2.917C79.493-406.185,76.738-409.03,76.738-412.739z M97.962-409.21v2.772H90.04v-12.604h7.832
			v2.772h-4.951v2.089h4.501v2.736h-4.501v2.233h5.041V-409.21z M103.83-410.579h-1.368v4.142h-2.881v-12.604h5.041
			c2.381-0.006,4.315,1.918,4.321,4.299c0,0.007,0,0.015,0,0.021c0,1.548-0.937,2.952-2.322,3.655l2.684,4.627h-3.098
			L103.83-410.579z M102.461-413.099h2.16c0.792,0,1.44-0.702,1.44-1.62c0-0.919-0.648-1.621-1.44-1.621h-2.16V-413.099z
			 M119.399-410.579h-1.369v4.142h-2.881v-12.604h5.042c2.38-0.006,4.314,1.918,4.321,4.299c0,0.007,0,0.015,0,0.021
			c0,1.548-0.938,2.952-2.323,3.655l2.683,4.627h-3.097L119.399-410.579z M118.031-413.099h2.161c0.792,0,1.439-0.702,1.439-1.62
			c0-0.919-0.647-1.621-1.439-1.621h-2.161V-413.099z M134.142-409.21v2.772h-7.922v-12.604h7.832v2.772h-4.951v2.089h4.501v2.736
			h-4.501v2.233h5.041V-409.21z M134.86-419.041h3.024l2.18,8.822l2.431-8.822h2.34l2.432,8.822l2.178-8.822h3.024l-3.475,12.604
			h-3.277l-2.052-7.437l-2.053,7.437h-3.277L134.86-419.041L134.86-419.041z M160.386-408.418h-4.682l-0.63,1.98h-3.151
			l4.285-12.604h3.673l4.285,12.604h-3.15L160.386-408.418z M159.521-411.119l-1.477-4.627l-1.477,4.627H159.521z M169.493-410.579
			h-1.368v4.142h-2.881v-12.604h5.041c2.381-0.006,4.315,1.918,4.321,4.299c0,0.007,0,0.015,0,0.021
			c0,1.548-0.937,2.952-2.322,3.655l2.683,4.627h-3.097L169.493-410.579L169.493-410.579z M168.125-413.099h2.16
			c0.792,0,1.44-0.702,1.44-1.62c0-0.919-0.648-1.621-1.44-1.621h-2.16V-413.099z M187.477-412.739c0,3.565-2.647,6.302-6.122,6.302
			h-5.042v-12.604h5.042C184.83-419.041,187.477-416.304,187.477-412.739z M184.704-412.739c0-2.161-1.368-3.529-3.349-3.529h-2.161
			v7.059h2.161C183.335-409.21,184.704-410.579,184.704-412.739z M38.794-391.139c0-3.709,2.755-6.554,6.555-6.554
			c2.286,0,4.303,1.134,5.4,2.916l-2.484,1.441c-0.559-0.973-1.639-1.549-2.917-1.549c-2.233,0-3.674,1.494-3.674,3.745
			s1.44,3.745,3.674,3.745c1.277,0,2.376-0.576,2.917-1.549l2.484,1.44c-1.08,1.783-3.097,2.917-5.4,2.917
			C41.549-384.585,38.794-387.43,38.794-391.139z M59.479-386.818h-4.682l-0.63,1.98h-3.15l4.285-12.604h3.673l4.284,12.604h-3.15
			L59.479-386.818z M58.615-389.519l-1.477-4.627l-1.477,4.627H58.615z M71.719-387.61v2.772h-7.383v-12.604h2.881v9.831
			L71.719-387.61L71.719-387.61z M71.716-391.139c0-3.709,2.756-6.554,6.555-6.554c2.287,0,4.303,1.134,5.4,2.916l-2.484,1.441
			c-0.559-0.973-1.639-1.549-2.917-1.549c-2.233,0-3.673,1.494-3.673,3.745s1.439,3.745,3.673,3.745
			c1.277,0,2.376-0.576,2.917-1.549l2.484,1.44c-1.08,1.783-3.097,2.917-5.4,2.917C74.471-384.585,71.716-387.43,71.716-391.139z
			 M84.929-388.907v-8.534h2.881v8.282c0,0.954,0.449,1.765,1.979,1.765c1.531,0,1.981-0.811,1.981-1.765v-8.282h2.881v8.534
			c0,2.701-2.089,4.321-4.862,4.321C87.018-384.585,84.929-386.206,84.929-388.907z M104.101-387.61v2.772h-7.382v-12.604H99.6
			v9.831L104.101-387.61L104.101-387.61z M113.1-386.818h-4.682l-0.63,1.98h-3.15l4.284-12.604h3.674l4.284,12.604h-3.15
			L113.1-386.818z M112.236-389.519l-1.478-4.627l-1.476,4.627H112.236z M125.521-394.668h-3.241v9.831h-2.881v-9.831h-3.241v-2.772
			h9.363V-394.668z M129.659-397.441v12.604h-2.881v-12.604H129.659z M131.278-391.139c0-3.709,2.935-6.554,6.554-6.554
			s6.555,2.845,6.555,6.554s-2.936,6.554-6.555,6.554S131.278-387.43,131.278-391.139z M141.505-391.139
			c0-2.251-1.621-3.745-3.673-3.745c-2.053,0-3.673,1.494-3.673,3.745s1.621,3.745,3.673,3.745S141.505-388.888,141.505-391.139z
			 M155.905-397.441v12.604h-2.161l-4.861-6.842v6.842h-2.881v-12.604h2.16l4.862,6.842v-6.842H155.905L155.905-397.441z
			 M170.485-387.61v2.772h-7.923v-12.604h7.833v2.772h-4.952v2.089h4.501v2.736h-4.501v2.233h5.042V-387.61z M178.728-384.837
			l-2.125-3.637l-2.125,3.637h-3.277l3.763-6.464l-3.583-6.14h3.277l1.944,3.331l1.944-3.331h3.277l-3.583,6.14l3.763,6.464H178.728
			L178.728-384.837z M190.644-386.818h-4.682l-0.63,1.98h-3.15l4.284-12.604h3.674l4.284,12.604h-3.15L190.644-386.818z
			 M189.78-389.519l-1.477-4.627l-1.477,4.627H189.78z M208.105-384.837h-2.881v-7.328l-3.26,5.348h-0.323l-3.26-5.348v7.328h-2.881
			v-12.604h2.881l3.422,5.6l3.421-5.6h2.881V-384.837z M219.444-393.12c0,2.395-1.927,4.321-4.412,4.321h-1.891v3.961h-2.881
			v-12.604h4.771C217.518-397.441,219.444-395.514,219.444-393.12L219.444-393.12z M216.563-393.12c0-0.919-0.648-1.621-1.531-1.621
			h-1.891v3.241h1.891C215.915-391.5,216.563-392.202,216.563-393.12z M228.264-387.61v2.772h-7.383v-12.604h2.882v9.831
			L228.264-387.61L228.264-387.61z M237.444-387.61v2.772h-7.922v-12.604h7.832v2.772h-4.951v2.089h4.501v2.736h-4.501v2.233h5.041
			V-387.61z M43.584-323.117h-1.369v4.142h-2.881v-12.604h5.042c2.381-0.006,4.315,1.918,4.321,4.299c0,0.007,0,0.015,0,0.022
			c0,1.548-0.937,2.952-2.323,3.655l2.684,4.627H45.96L43.584-323.117L43.584-323.117z M42.215-325.637h2.161
			c0.792,0,1.44-0.702,1.44-1.62c0-0.919-0.648-1.621-1.44-1.621h-2.161V-325.637z M54.438-321.135c0.738,0,1.369-0.289,1.729-0.685
			l2.161,1.242c-0.882,1.225-2.214,1.854-3.925,1.854c-3.079,0-4.988-2.07-4.988-4.753c0-2.684,1.945-4.754,4.79-4.754
			c2.629,0,4.573,2.035,4.573,4.754c0,0.378-0.036,0.738-0.108,1.08h-6.392C52.62-321.46,53.448-321.135,54.438-321.135z
			 M56.095-324.413c-0.288-1.045-1.099-1.423-1.909-1.423c-1.026,0-1.71,0.505-1.962,1.423H56.095z M69.991-323.476
			c0,2.683-1.945,4.753-4.303,4.753c-1.207,0-2.089-0.414-2.684-1.099v4.448h-2.7v-12.604h2.7v0.847
			c0.595-0.685,1.478-1.099,2.684-1.099C68.046-328.23,69.991-326.16,69.991-323.476z M67.291-323.476
			c0-1.351-0.899-2.197-2.143-2.197s-2.144,0.847-2.144,2.197c0,1.35,0.9,2.196,2.144,2.196
			C66.39-321.28,67.291-322.126,67.291-323.476z M71.068-323.476c0-2.684,2.125-4.754,4.771-4.754c2.647,0,4.771,2.07,4.771,4.754
			c0,2.683-2.125,4.753-4.771,4.753C73.193-318.723,71.068-320.793,71.068-323.476z M77.91-323.476c0-1.278-0.899-2.125-2.071-2.125
			c-1.171,0-2.069,0.847-2.069,2.125c0,1.278,0.899,2.124,2.069,2.124C77.01-321.352,77.91-322.198,77.91-323.476z M87.54-328.158
			v3.061c-1.117-0.18-2.701,0.271-2.701,2.053v4.069h-2.7v-9.003h2.7v1.603C85.199-327.582,86.406-328.158,87.54-328.158
			L87.54-328.158z M92.489-325.385v3.188c0,0.773,0.667,0.846,1.854,0.773v2.449c-3.529,0.36-4.556-0.702-4.556-3.223v-3.188h-1.439
			v-2.593h1.439v-1.71l2.701-0.811v2.521h1.854v2.593L92.489-325.385L92.489-325.385z M100.265-321.135
			c0.737,0,1.369-0.289,1.729-0.685l2.161,1.242c-0.882,1.225-2.214,1.854-3.925,1.854c-3.079,0-4.988-2.07-4.988-4.753
			c0-2.684,1.945-4.754,4.79-4.754c2.629,0,4.573,2.035,4.573,4.754c0,0.378-0.036,0.738-0.108,1.08h-6.392
			C98.447-321.46,99.275-321.135,100.265-321.135z M101.922-324.413c-0.288-1.045-1.098-1.423-1.908-1.423
			c-1.026,0-1.71,0.505-1.962,1.423H101.922z M115.279-331.579v12.604h-2.701v-0.847c-0.594,0.685-1.477,1.099-2.683,1.099
			c-2.358,0-4.304-2.07-4.304-4.753c0-2.684,1.945-4.754,4.304-4.754c1.207,0,2.089,0.414,2.683,1.099v-4.447L115.279-331.579
			L115.279-331.579z M112.578-323.476c0-1.351-0.899-2.197-2.143-2.197s-2.144,0.847-2.144,2.197c0,1.35,0.9,2.196,2.144,2.196
			S112.578-322.126,112.578-323.476z M121.485-330.39c0-0.883,0.738-1.621,1.621-1.621s1.62,0.738,1.62,1.621
			c0,0.882-0.738,1.62-1.62,1.62S121.485-329.508,121.485-330.39z M121.755-327.978h2.701v9.003h-2.701V-327.978z M133.332-321.676
			c0,2.071-1.801,2.953-3.745,2.953c-1.801,0-3.169-0.684-3.872-2.143l2.342-1.332c0.233,0.684,0.737,1.063,1.53,1.063
			c0.648,0,0.973-0.198,0.973-0.559c0-0.99-4.43-0.468-4.43-3.583c0-1.963,1.656-2.953,3.529-2.953c1.458,0,2.755,0.648,3.511,1.927
			l-2.305,1.242c-0.252-0.468-0.612-0.792-1.207-0.792c-0.468,0-0.756,0.18-0.756,0.504
			C128.902-324.323,133.332-325.007,133.332-321.676L133.332-321.676z M141.216-321.676c0,2.071-1.801,2.953-3.744,2.953
			c-1.802,0-3.169-0.684-3.872-2.143l2.341-1.332c0.233,0.684,0.738,1.063,1.531,1.063c0.647,0,0.972-0.198,0.972-0.559
			c0-0.99-4.429-0.468-4.429-3.583c0-1.963,1.655-2.953,3.528-2.953c1.458,0,2.755,0.648,3.512,1.927l-2.306,1.242
			c-0.252-0.468-0.611-0.792-1.207-0.792c-0.468,0-0.756,0.18-0.756,0.504C136.786-324.323,141.217-325.007,141.216-321.676
			L141.216-321.676z M151.08-327.978v9.003h-2.701v-0.847c-0.485,0.667-1.387,1.099-2.574,1.099c-1.819,0-3.367-1.296-3.367-3.727
			v-5.528h2.701v5.132c0,1.116,0.701,1.639,1.565,1.639c0.99,0,1.675-0.576,1.675-1.854v-4.916L151.08-327.978L151.08-327.978z
			 M157.63-321.135c0.738,0,1.369-0.289,1.729-0.685l2.161,1.242c-0.882,1.225-2.214,1.854-3.925,1.854
			c-3.079,0-4.988-2.07-4.988-4.753c0-2.684,1.945-4.754,4.79-4.754c2.629,0,4.573,2.035,4.573,4.754
			c0,0.378-0.036,0.738-0.108,1.08h-6.392C155.812-321.46,156.64-321.135,157.63-321.135L157.63-321.135z M159.287-324.413
			c-0.288-1.045-1.098-1.423-1.909-1.423c-1.025,0-1.71,0.505-1.962,1.423H159.287z M170.124-321.676
			c0,2.071-1.801,2.953-3.745,2.953c-1.801,0-3.169-0.684-3.871-2.143l2.341-1.332c0.233,0.684,0.737,1.063,1.53,1.063
			c0.648,0,0.973-0.198,0.973-0.559c0-0.99-4.43-0.468-4.43-3.583c0-1.963,1.656-2.953,3.529-2.953c1.458,0,2.755,0.648,3.511,1.927
			l-2.305,1.242c-0.252-0.468-0.612-0.792-1.207-0.792c-0.468,0-0.756,0.18-0.756,0.504
			C165.694-324.323,170.124-325.007,170.124-321.676L170.124-321.676z M42.215-295.079v12.604h-2.881v-12.604H42.215z
			 M51.271-285.176c0,2.071-1.801,2.953-3.745,2.953c-1.801,0-3.169-0.684-3.871-2.143l2.34-1.332
			c0.234,0.684,0.738,1.063,1.531,1.063c0.647,0,0.972-0.198,0.972-0.559c0-0.99-4.429-0.468-4.429-3.583
			c0-1.963,1.656-2.953,3.529-2.953c1.458,0,2.755,0.648,3.511,1.927l-2.305,1.242c-0.252-0.468-0.612-0.792-1.207-0.792
			c-0.469,0-0.757,0.18-0.757,0.504C46.841-287.823,51.271-288.507,51.271-285.176z M59.155-285.176
			c0,2.071-1.801,2.953-3.745,2.953c-1.801,0-3.169-0.684-3.871-2.143l2.34-1.332c0.234,0.684,0.738,1.063,1.531,1.063
			c0.648,0,0.972-0.198,0.972-0.559c0-0.99-4.429-0.468-4.429-3.583c0-1.963,1.656-2.953,3.529-2.953
			c1.458,0,2.755,0.648,3.511,1.927l-2.305,1.242c-0.252-0.468-0.612-0.792-1.207-0.792c-0.468,0-0.756,0.18-0.756,0.504
			C54.725-287.823,59.155-288.507,59.155-285.176z M69.019-291.478v9.003h-2.701v-0.847c-0.486,0.667-1.387,1.099-2.575,1.099
			c-1.819,0-3.367-1.296-3.367-3.727v-5.528h2.701v5.132c0,1.116,0.702,1.639,1.566,1.639c0.99,0,1.675-0.576,1.675-1.854v-4.916
			L69.019-291.478L69.019-291.478z M75.569-284.635c0.738,0,1.369-0.289,1.729-0.685l2.161,1.242
			c-0.882,1.225-2.214,1.854-3.925,1.854c-3.079,0-4.988-2.07-4.988-4.753c0-2.684,1.945-4.754,4.79-4.754
			c2.629,0,4.573,2.035,4.573,4.754c0,0.378-0.036,0.738-0.108,1.08h-6.392C73.751-284.96,74.579-284.635,75.569-284.635z
			 M77.226-287.913c-0.288-1.045-1.1-1.423-1.909-1.423c-1.026,0-1.71,0.505-1.962,1.423H77.226z M90.583-295.079v12.604h-2.701
			v-0.847c-0.594,0.685-1.477,1.099-2.683,1.099c-2.358,0-4.303-2.07-4.303-4.753c0-2.684,1.944-4.754,4.303-4.754
			c1.207,0,2.089,0.414,2.683,1.099v-4.447L90.583-295.079L90.583-295.079z M87.882-286.976c0-1.351-0.899-2.197-2.143-2.197
			s-2.143,0.847-2.143,2.197s0.899,2.196,2.143,2.196S87.882-285.626,87.882-286.976z M105.792-291.478l-3.331,9.003H99.4
			l-3.331-9.003h2.989l1.873,5.708l1.873-5.708H105.792L105.792-291.478z M110.993-284.635c0.738,0,1.369-0.289,1.729-0.685
			l2.16,1.242c-0.882,1.225-2.214,1.854-3.925,1.854c-3.079,0-4.987-2.07-4.987-4.753c0-2.684,1.944-4.754,4.79-4.754
			c2.629,0,4.572,2.035,4.572,4.754c0,0.378-0.036,0.738-0.107,1.08h-6.393C109.175-284.96,110.003-284.635,110.993-284.635z
			 M112.65-287.913c-0.288-1.045-1.1-1.423-1.909-1.423c-1.026,0-1.71,0.505-1.962,1.423H112.65z M122.262-291.658v3.061
			c-1.117-0.18-2.701,0.271-2.701,2.053v4.069h-2.701v-9.003h2.701v1.603C119.921-291.082,121.127-291.658,122.262-291.658z
			 M132.486-295.079v12.604h-2.701v-0.847c-0.594,0.685-1.477,1.099-2.683,1.099c-2.358,0-4.304-2.07-4.304-4.753
			c0-2.684,1.945-4.754,4.304-4.754c1.207,0,2.089,0.414,2.683,1.099v-4.447L132.486-295.079L132.486-295.079z M129.786-286.976
			c0-1.351-0.899-2.197-2.143-2.197s-2.144,0.847-2.144,2.197s0.9,2.196,2.144,2.196
			C128.885-284.78,129.786-285.626,129.786-286.976z M134.193-293.89c0-0.883,0.738-1.621,1.621-1.621s1.62,0.738,1.62,1.621
			c0,0.882-0.738,1.62-1.62,1.62S134.193-293.008,134.193-293.89z M134.463-291.478h2.701v9.003h-2.701V-291.478z M138.693-286.976
			c0-2.684,2.035-4.754,4.771-4.754c1.747,0,3.295,0.918,4.069,2.305l-2.359,1.368c-0.306-0.63-0.953-1.008-1.746-1.008
			c-1.171,0-2.034,0.846-2.034,2.089c0,1.242,0.863,2.088,2.034,2.088c0.792,0,1.458-0.378,1.746-1.008l2.359,1.351
			c-0.774,1.404-2.305,2.322-4.069,2.322C140.728-282.223,138.693-284.293,138.693-286.976z M152.032-288.885v3.188
			c0,0.773,0.667,0.846,1.855,0.773v2.449c-3.529,0.36-4.557-0.702-4.557-3.223v-3.188h-1.439v-2.593h1.439v-1.71l2.701-0.811v2.521
			h1.855v2.593L152.032-288.885L152.032-288.885z M162.312-285.176c0,2.071-1.801,2.953-3.745,2.953
			c-1.801,0-3.169-0.684-3.872-2.143l2.341-1.332c0.234,0.684,0.738,1.063,1.531,1.063c0.647,0,0.972-0.198,0.972-0.559
			c0-0.99-4.429-0.468-4.429-3.583c0-1.963,1.656-2.953,3.529-2.953c1.458,0,2.755,0.648,3.511,1.927l-2.305,1.242
			c-0.252-0.468-0.612-0.792-1.207-0.792c-0.469,0-0.757,0.18-0.757,0.504C157.882-287.823,162.312-288.507,162.312-285.176
			L162.312-285.176z M38.254-258.579h3.151l2.791,9.272l2.791-9.272h3.151l-4.105,12.604H42.36L38.254-258.579z M54.618-248.135
			c0.738,0,1.369-0.289,1.729-0.685l2.16,1.242c-0.882,1.225-2.214,1.854-3.925,1.854c-3.079,0-4.987-2.07-4.987-4.753
			c0-2.684,1.944-4.754,4.789-4.754c2.63,0,4.573,2.035,4.573,4.754c0,0.378-0.036,0.738-0.107,1.08h-6.393
			C52.799-248.46,53.627-248.135,54.618-248.135z M56.274-251.413c-0.288-1.045-1.099-1.423-1.909-1.423
			c-1.026,0-1.71,0.505-1.962,1.423H56.274z M65.886-255.158v3.061c-1.117-0.18-2.701,0.271-2.701,2.053v4.069h-2.701v-9.003h2.701
			v1.603C63.545-254.582,64.751-255.158,65.886-255.158z M76.111-258.579v12.604H73.41v-0.847c-0.594,0.685-1.477,1.099-2.683,1.099
			c-2.358,0-4.304-2.07-4.304-4.753c0-2.684,1.945-4.754,4.304-4.754c1.207,0,2.089,0.414,2.683,1.099v-4.447L76.111-258.579
			L76.111-258.579z M73.41-250.476c0-1.351-0.9-2.197-2.143-2.197c-1.243,0-2.144,0.847-2.144,2.197s0.9,2.196,2.144,2.196
			S73.41-249.126,73.41-250.476z M77.818-257.39c0-0.883,0.738-1.621,1.621-1.621s1.621,0.738,1.621,1.621
			c0,0.882-0.738,1.62-1.621,1.62S77.818-256.508,77.818-257.39z M78.088-254.978h2.701v9.003h-2.701V-254.978z M82.317-250.476
			c0-2.684,2.035-4.754,4.771-4.754c1.747,0,3.295,0.918,4.069,2.305l-2.359,1.368c-0.306-0.63-0.953-1.008-1.747-1.008
			c-1.17,0-2.034,0.846-2.034,2.089c0,1.242,0.863,2.088,2.034,2.088c0.792,0,1.458-0.378,1.747-1.008l2.359,1.351
			c-0.774,1.404-2.305,2.322-4.069,2.322C84.352-245.723,82.317-247.793,82.317-250.476z M95.657-252.385v3.188
			c0,0.773,0.667,0.846,1.854,0.773v2.449c-3.529,0.36-4.556-0.702-4.556-3.223v-3.188h-1.439v-2.593h1.439v-1.71l2.701-0.811v2.521
			h1.854v2.593L95.657-252.385L95.657-252.385z M112.957-254.978v9.003h-2.701v-0.847c-0.594,0.685-1.477,1.099-2.683,1.099
			c-2.358,0-4.303-2.07-4.303-4.753c0-2.684,1.944-4.754,4.303-4.754c1.207,0,2.089,0.414,2.683,1.099v-0.847H112.957z
			 M110.256-250.476c0-1.351-0.899-2.197-2.143-2.197s-2.143,0.847-2.143,2.197s0.899,2.196,2.143,2.196
			C109.355-248.28,110.256-249.126,110.256-250.476z M124.62-250.476c0,2.683-1.945,4.753-4.303,4.753
			c-1.207,0-2.089-0.414-2.684-1.099v4.448h-2.7v-12.604h2.7v0.847c0.595-0.685,1.478-1.099,2.684-1.099
			C122.675-255.23,124.62-253.16,124.62-250.476z M121.919-250.476c0-1.351-0.899-2.197-2.143-2.197s-2.144,0.847-2.144,2.197
			s0.9,2.196,2.144,2.196S121.919-249.126,121.919-250.476z M135.834-250.476c0,2.683-1.944,4.753-4.303,4.753
			c-1.207,0-2.089-0.414-2.683-1.099v4.448h-2.701v-12.604h2.701v0.847c0.594-0.685,1.477-1.099,2.683-1.099
			C133.889-255.23,135.834-253.16,135.834-250.476z M133.133-250.476c0-1.351-0.899-2.197-2.143-2.197s-2.143,0.847-2.143,2.197
			s0.899,2.196,2.143,2.196S133.133-249.126,133.133-250.476z M142.763-255.158v3.061c-1.117-0.18-2.701,0.271-2.701,2.053v4.069
			h-2.701v-9.003h2.701v1.603C140.422-254.582,141.628-255.158,142.763-255.158L142.763-255.158z M143.3-250.476
			c0-2.684,2.125-4.754,4.771-4.754s4.771,2.07,4.771,4.754c0,2.683-2.125,4.753-4.771,4.753
			C145.425-245.723,143.3-247.793,143.3-250.476z M150.143-250.476c0-1.278-0.9-2.125-2.071-2.125s-2.07,0.847-2.07,2.125
			c0,1.278,0.9,2.124,2.07,2.124S150.143-249.198,150.143-250.476z M162.744-254.978l-3.331,9.003h-3.061l-3.331-9.003h2.989
			l1.872,5.708l1.873-5.708H162.744L162.744-254.978z M172.608-254.978v9.003h-2.701v-0.847c-0.594,0.685-1.477,1.099-2.683,1.099
			c-2.358,0-4.304-2.07-4.304-4.753c0-2.684,1.945-4.754,4.304-4.754c1.207,0,2.089,0.414,2.683,1.099v-0.847H172.608z
			 M169.907-250.476c0-1.351-0.9-2.197-2.143-2.197c-1.243,0-2.144,0.847-2.144,2.197s0.9,2.196,2.144,2.196
			C169.007-248.28,169.907-249.126,169.907-250.476z M174.584-259.119h2.701v13.144h-2.701V-259.119z M38.705-212.338l2.485-1.44
			c0.45,1.045,1.224,1.747,2.646,1.747c1.369,0,1.71-0.54,1.71-1.026c0-0.774-0.72-1.08-2.609-1.603
			c-1.873-0.522-3.709-1.423-3.709-3.835c0-2.431,2.053-3.835,4.23-3.835c2.071,0,3.691,0.99,4.609,2.845l-2.431,1.422
			c-0.433-0.9-1.026-1.458-2.18-1.458c-0.899,0-1.351,0.45-1.351,0.954c0,0.576,0.306,0.973,2.269,1.566
			c1.908,0.576,4.051,1.242,4.051,3.907c0,2.431-1.943,3.871-4.681,3.871C41.099-209.223,39.407-210.483,38.705-212.338z
			 M58.291-218.478v9.003H55.59v-0.847c-0.485,0.667-1.387,1.099-2.574,1.099c-1.819,0-3.367-1.296-3.367-3.727v-5.528h2.701v5.132
			c0,1.116,0.701,1.639,1.565,1.639c0.99,0,1.675-0.576,1.675-1.854v-4.916L58.291-218.478L58.291-218.478z M69.956-213.976
			c0,2.683-1.944,4.753-4.303,4.753c-1.207,0-2.089-0.414-2.683-1.099v4.448h-2.701v-12.604h2.701v0.847
			c0.594-0.685,1.477-1.099,2.683-1.099C68.011-218.73,69.956-216.66,69.956-213.976z M67.255-213.976
			c0-1.351-0.899-2.197-2.143-2.197c-1.242,0-2.143,0.847-2.143,2.197s0.899,2.196,2.143,2.196
			C66.354-211.78,67.255-212.626,67.255-213.976z M76.055-211.635c0.737,0,1.368-0.289,1.729-0.685l2.161,1.242
			c-0.882,1.225-2.214,1.854-3.925,1.854c-3.079,0-4.988-2.07-4.988-4.753c0-2.684,1.945-4.754,4.79-4.754
			c2.629,0,4.573,2.035,4.573,4.754c0,0.378-0.036,0.738-0.108,1.08h-6.392C74.237-211.96,75.065-211.635,76.055-211.635z
			 M77.712-214.913c-0.288-1.045-1.098-1.423-1.908-1.423c-1.026,0-1.711,0.505-1.963,1.423H77.712z M87.324-218.658v3.061
			c-1.117-0.18-2.701,0.271-2.701,2.053v4.069h-2.701v-9.003h2.701v1.603C84.983-218.082,86.189-218.658,87.324-218.658z
			 M88.312-220.89c0-0.883,0.737-1.621,1.621-1.621c0.883,0,1.62,0.738,1.62,1.621c0,0.882-0.738,1.62-1.62,1.62
			C89.051-219.27,88.312-220.008,88.312-220.89z M88.582-218.478h2.701v9.003h-2.701V-218.478z M92.812-213.976
			c0-2.684,2.125-4.754,4.771-4.754c2.646,0,4.771,2.07,4.771,4.754c0,2.683-2.125,4.753-4.771,4.753
			C94.937-209.223,92.812-211.293,92.812-213.976z M99.654-213.976c0-1.278-0.9-2.125-2.071-2.125s-2.07,0.847-2.07,2.125
			c0,1.278,0.899,2.124,2.07,2.124S99.654-212.698,99.654-213.976z M109.283-218.658v3.061c-1.117-0.18-2.701,0.271-2.701,2.053
			v4.069h-2.701v-9.003h2.701v1.603C106.942-218.082,108.149-218.658,109.283-218.658z M123.774-218.478l-3.331,9.003h-3.062
			l-3.331-9.003h2.989l1.873,5.708l1.873-5.708H123.774z M128.975-211.635c0.737,0,1.369-0.289,1.729-0.685l2.161,1.242
			c-0.882,1.225-2.214,1.854-3.925,1.854c-3.079,0-4.988-2.07-4.988-4.753c0-2.684,1.945-4.754,4.79-4.754
			c2.629,0,4.573,2.035,4.573,4.754c0,0.378-0.036,0.738-0.108,1.08h-6.392C127.156-211.96,127.984-211.635,128.975-211.635z
			 M130.631-214.913c-0.287-1.045-1.099-1.423-1.908-1.423c-1.026,0-1.71,0.505-1.962,1.423H130.631z M140.243-218.658v3.061
			c-1.117-0.18-2.701,0.271-2.701,2.053v4.069h-2.701v-9.003h2.701v1.603C137.902-218.082,139.109-218.658,140.243-218.658z
			 M150.469-222.079v12.604h-2.701v-0.847c-0.595,0.685-1.478,1.099-2.684,1.099c-2.357,0-4.303-2.07-4.303-4.753
			c0-2.684,1.945-4.754,4.303-4.754c1.207,0,2.089,0.414,2.684,1.099v-4.447L150.469-222.079L150.469-222.079z M147.768-213.976
			c0-1.351-0.9-2.197-2.144-2.197s-2.143,0.847-2.143,2.197s0.899,2.196,2.143,2.196
			C146.867-211.78,147.768-212.626,147.768-213.976z M152.175-220.89c0-0.883,0.738-1.621,1.621-1.621
			c0.884,0,1.62,0.738,1.62,1.621c0,0.882-0.737,1.62-1.62,1.62C152.914-219.27,152.175-220.008,152.175-220.89z M152.445-218.478
			h2.701v9.003h-2.701V-218.478z M156.675-213.976c0-2.684,2.035-4.754,4.771-4.754c1.747,0,3.295,0.918,4.069,2.305l-2.359,1.368
			c-0.306-0.63-0.954-1.008-1.747-1.008c-1.17,0-2.035,0.846-2.035,2.089c0,1.242,0.864,2.088,2.035,2.088
			c0.792,0,1.458-0.378,1.747-1.008l2.359,1.351c-0.774,1.404-2.306,2.322-4.069,2.322
			C158.709-209.223,156.675-211.293,156.675-213.976L156.675-213.976z M170.014-215.885v3.188c0,0.773,0.667,0.846,1.854,0.773
			v2.449c-3.529,0.36-4.556-0.702-4.556-3.223v-3.188h-1.44v-2.593h1.44v-1.71l2.701-0.811v2.521h1.854v2.593h-1.854V-215.885z
			 M187.313-218.478v9.003h-2.701v-0.847c-0.594,0.685-1.477,1.099-2.683,1.099c-2.358,0-4.304-2.07-4.304-4.753
			c0-2.684,1.945-4.754,4.304-4.754c1.207,0,2.089,0.414,2.683,1.099v-0.847H187.313z M184.613-213.976
			c0-1.351-0.9-2.197-2.143-2.197c-1.243,0-2.144,0.847-2.144,2.197s0.9,2.196,2.144,2.196
			C183.712-211.78,184.613-212.626,184.613-213.976z M198.978-213.976c0,2.683-1.945,4.753-4.304,4.753
			c-1.206,0-2.089-0.414-2.683-1.099v4.448h-2.701v-12.604h2.701v0.847c0.594-0.685,1.478-1.099,2.683-1.099
			C197.033-218.73,198.978-216.66,198.978-213.976z M196.277-213.976c0-1.351-0.9-2.197-2.144-2.197
			c-1.242,0-2.143,0.847-2.143,2.197s0.9,2.196,2.143,2.196S196.277-212.626,196.277-213.976z M210.191-213.976
			c0,2.683-1.945,4.753-4.303,4.753c-1.207,0-2.09-0.414-2.684-1.099v4.448h-2.701v-12.604h2.701v0.847
			c0.594-0.685,1.478-1.099,2.684-1.099C208.247-218.73,210.191-216.66,210.191-213.976z M207.491-213.976
			c0-1.351-0.9-2.197-2.143-2.197c-1.243,0-2.144,0.847-2.144,2.197s0.9,2.196,2.144,2.196
			C206.59-211.78,207.491-212.626,207.491-213.976z M217.12-218.658v3.061c-1.117-0.18-2.701,0.271-2.701,2.053v4.069h-2.7v-9.003
			h2.7v1.603C214.779-218.082,215.985-218.658,217.12-218.658z M217.658-213.976c0-2.684,2.125-4.754,4.771-4.754
			s4.771,2.07,4.771,4.754c0,2.683-2.125,4.753-4.771,4.753C219.783-209.223,217.658-211.293,217.658-213.976z M224.5-213.976
			c0-1.278-0.899-2.125-2.07-2.125c-1.172,0-2.07,0.847-2.07,2.125c0,1.278,0.899,2.124,2.07,2.124
			C223.599-211.852,224.5-212.698,224.5-213.976z M237.101-218.478l-3.331,9.003h-3.062l-3.331-9.003h2.989l1.873,5.708l1.873-5.708
			H237.101L237.101-218.478z M246.965-218.478v9.003h-2.7v-0.847c-0.595,0.685-1.478,1.099-2.684,1.099
			c-2.357,0-4.303-2.07-4.303-4.753c0-2.684,1.945-4.754,4.303-4.754c1.207,0,2.089,0.414,2.684,1.099v-0.847H246.965z
			 M244.264-213.976c0-1.351-0.9-2.197-2.144-2.197s-2.143,0.847-2.143,2.197s0.899,2.196,2.143,2.196
			S244.264-212.626,244.264-213.976z M248.942-222.619h2.701v13.144h-2.701V-222.619z"/>
		
			<linearGradient id="SVGID_6_" gradientUnits="userSpaceOnUse" x1="3812.8074" y1="-2363.5259" x2="4597.1758" y2="-2363.5259" gradientTransform="matrix(-1 0 0 1 4639.0879 2056.835)">
			<stop  offset="0" style="stop-color:#FFFFFF;stop-opacity:0.048"/>
			<stop  offset="0.489" style="stop-color:#FFFFFF"/>
			<stop  offset="1" style="stop-color:#FFFFFF;stop-opacity:0"/>
		</linearGradient>
		<path fill="url(#SVGID_6_)" d="M826.28-307.365v1.348H41.912v-1.348H826.28z"/>
		
			<linearGradient id="SVGID_7_" gradientUnits="userSpaceOnUse" x1="3812.8054" y1="-2326.0806" x2="4597.1768" y2="-2326.0806" gradientTransform="matrix(-1 0 0 1 4639.0879 2056.835)">
			<stop  offset="0" style="stop-color:#FFFFFF;stop-opacity:0.048"/>
			<stop  offset="0.489" style="stop-color:#FFFFFF"/>
			<stop  offset="1" style="stop-color:#FFFFFF;stop-opacity:0"/>
		</linearGradient>
		<path fill="url(#SVGID_7_)" d="M826.282-269.92v1.348H41.911v-1.348H826.282z"/>
		
			<linearGradient id="SVGID_8_" gradientUnits="userSpaceOnUse" x1="3812.8054" y1="-2288.6382" x2="4597.1768" y2="-2288.6382" gradientTransform="matrix(-1 0 0 1 4639.0879 2056.835)">
			<stop  offset="0" style="stop-color:#FFFFFF;stop-opacity:0.048"/>
			<stop  offset="0.489" style="stop-color:#FFFFFF"/>
			<stop  offset="1" style="stop-color:#FFFFFF;stop-opacity:0"/>
		</linearGradient>
		<path fill="url(#SVGID_8_)" d="M826.282-232.477v1.348H41.911v-1.348H826.282z"/>
		
			<linearGradient id="SVGID_9_" gradientUnits="userSpaceOnUse" x1="3812.8054" y1="-2400.9702" x2="4597.1768" y2="-2400.9702" gradientTransform="matrix(-1 0 0 1 4639.0879 2056.835)">
			<stop  offset="0" style="stop-color:#FFFFFF;stop-opacity:0.048"/>
			<stop  offset="0.489" style="stop-color:#FFFFFF"/>
			<stop  offset="1" style="stop-color:#FFFFFF;stop-opacity:0"/>
		</linearGradient>
		<path fill="url(#SVGID_9_)" d="M826.282-344.809v1.348H41.911v-1.348H826.282z"/>
		
			<linearGradient id="SVGID_10_" gradientUnits="userSpaceOnUse" x1="3812.8074" y1="-2251.1919" x2="4597.1758" y2="-2251.1919" gradientTransform="matrix(-1 0 0 1 4639.0879 2056.835)">
			<stop  offset="0" style="stop-color:#FFFFFF;stop-opacity:0.048"/>
			<stop  offset="0.489" style="stop-color:#FFFFFF"/>
			<stop  offset="1" style="stop-color:#FFFFFF;stop-opacity:0"/>
		</linearGradient>
		<path fill="url(#SVGID_10_)" d="M826.28-195.031v1.348H41.912v-1.348H826.28z"/>
		
			<linearGradient id="SVGID_11_" gradientUnits="userSpaceOnUse" x1="3812.8074" y1="-2213.7485" x2="4597.1758" y2="-2213.7485" gradientTransform="matrix(-1 0 0 1 4639.0879 2056.835)">
			<stop  offset="0" style="stop-color:#FFFFFF;stop-opacity:0.048"/>
			<stop  offset="0.489" style="stop-color:#FFFFFF"/>
			<stop  offset="1" style="stop-color:#FFFFFF;stop-opacity:0"/>
		</linearGradient>
		<path fill="url(#SVGID_11_)" d="M826.28-157.588v1.348H41.912v-1.348H826.28z"/>
		
			<linearGradient id="SVGID_12_" gradientUnits="userSpaceOnUse" x1="3812.8074" y1="-2176.3042" x2="4597.1758" y2="-2176.3042" gradientTransform="matrix(-1 0 0 1 4639.0879 2056.835)">
			<stop  offset="0" style="stop-color:#FFFFFF;stop-opacity:0.048"/>
			<stop  offset="0.489" style="stop-color:#FFFFFF"/>
			<stop  offset="1" style="stop-color:#FFFFFF;stop-opacity:0"/>
		</linearGradient>
		<path fill="url(#SVGID_12_)" d="M826.28-120.143v1.348H41.912v-1.348H826.28z"/>
		<path fill="#FFFFFF" d="M301.985-377.468h-4.917l-0.953,2.493h-0.785l3.811-9.806h0.784l3.797,9.806h-0.784L301.985-377.468z
			 M301.719-378.168l-2.186-5.701l-2.186,5.701H301.719z M304.39-378.477c0-2.073,1.568-3.656,3.684-3.656
			c1.373,0,2.549,0.701,3.055,1.793l-0.574,0.337c-0.406-0.883-1.359-1.457-2.479-1.457c-1.694,0-2.969,1.316-2.969,2.983
			s1.274,2.983,2.969,2.983c1.135,0,2.06-0.588,2.521-1.456l0.588,0.35c-0.562,1.079-1.737,1.779-3.11,1.779
			C305.959-374.821,304.39-376.404,304.39-378.477z M314.219-381.293v4.553c0,1.231,0.659,1.261,2.087,1.135v0.63
			c-1.835,0.28-2.802-0.168-2.802-1.765v-4.553h-1.541v-0.687h1.541v-1.751l0.714-0.21v1.961h2.087v0.687H314.219z M317.774-384.234
			c0-0.31,0.251-0.561,0.561-0.561s0.561,0.251,0.561,0.561c0,0.308-0.252,0.561-0.561,0.561
			C318.025-383.673,317.774-383.926,317.774-384.234z M317.984-381.979h0.7v7.004h-0.7V-381.979z M320.364-378.477
			c0-2.073,1.64-3.656,3.685-3.656c2.03,0,3.67,1.583,3.67,3.656s-1.64,3.656-3.67,3.656
			C322.003-374.821,320.364-376.404,320.364-378.477z M327.004-378.477c0-1.667-1.289-2.983-2.956-2.983s-2.97,1.316-2.97,2.983
			s1.304,2.983,2.97,2.983C325.715-375.494,327.004-376.81,327.004-378.477z M335.319-379.332v4.356h-0.714v-4.356
			c0-1.289-0.743-2.129-2.059-2.129c-1.373,0-2.452,0.896-2.452,2.787v3.698h-0.7v-7.004h0.7v1.331
			c0.532-1.037,1.429-1.485,2.507-1.485C334.269-382.133,335.319-381.026,335.319-379.332z M292.417-364.477
			c0,2.073-1.625,3.656-3.628,3.656c-1.358,0-2.438-0.7-3.012-1.779v4.427h-0.7v-9.806h0.7v1.625
			c0.574-1.078,1.653-1.779,3.012-1.779C290.792-368.133,292.417-366.55,292.417-364.477L292.417-364.477z M291.717-364.477
			c0-1.667-1.303-2.983-2.97-2.983s-2.97,1.316-2.97,2.983s1.303,2.983,2.97,2.983S291.717-362.81,291.717-364.477z
			 M300.718-364.449c0,0.112-0.014,0.224-0.014,0.336h-6.346c0.168,1.583,1.373,2.619,2.97,2.619c1.148,0,2.018-0.532,2.423-1.274
			l0.616,0.364c-0.574,0.952-1.667,1.583-3.054,1.583c-2.157,0-3.685-1.541-3.685-3.656c0-2.059,1.484-3.656,3.628-3.656
			C299.388-368.133,300.718-366.368,300.718-364.449z M294.359-364.799h5.631c-0.154-1.709-1.359-2.661-2.731-2.661
			C295.662-367.46,294.499-366.354,294.359-364.799L294.359-364.799z M305.393-368.077v0.672c-1.205,0-2.339,0.742-2.339,2.535
			v3.895h-0.7v-7.004h0.7v1.373C303.53-367.712,304.44-368.077,305.393-368.077z M320.572-365.416v4.44h-0.7v-4.44
			c0-1.331-0.771-2.045-1.862-2.045c-1.177,0-2.102,0.784-2.102,2.577v3.908h-0.7v-4.44c0-1.331-0.714-2.045-1.793-2.045
			c-1.147,0-2.171,0.784-2.171,2.577v3.908h-0.7v-7.004h0.7v1.205c0.52-0.967,1.359-1.359,2.255-1.359
			c1.022,0,1.821,0.505,2.186,1.429c0.504-0.98,1.4-1.429,2.339-1.429C319.508-368.133,320.572-367.167,320.572-365.416
			L320.572-365.416z M322.064-364.477c0-2.073,1.639-3.656,3.684-3.656c2.031,0,3.671,1.583,3.671,3.656s-1.64,3.656-3.671,3.656
			C323.703-360.821,322.064-362.404,322.064-364.477z M328.704-364.477c0-1.667-1.289-2.983-2.956-2.983s-2.969,1.316-2.969,2.983
			s1.303,2.983,2.969,2.983C327.415-361.494,328.704-362.81,328.704-364.477z M337.02-365.332v4.356h-0.714v-4.356
			c0-1.289-0.743-2.129-2.06-2.129c-1.373,0-2.451,0.896-2.451,2.787v3.698h-0.7v-7.004h0.7v1.331
			c0.531-1.037,1.429-1.485,2.507-1.485C335.969-368.133,337.02-367.026,337.02-365.332z M340.489-367.293v4.553
			c0,1.231,0.659,1.261,2.087,1.135v0.63c-1.835,0.28-2.802-0.168-2.802-1.765v-4.553h-1.541v-0.687h1.541v-1.751l0.714-0.21v1.961
			h2.087v0.687H340.489z M350.18-365.332v4.356h-0.714v-4.356c0-1.289-0.743-2.129-2.06-2.129c-1.373,0-2.452,0.896-2.452,2.787
			v3.698h-0.699v-9.806h0.699v4.133c0.532-1.037,1.43-1.485,2.508-1.485C349.13-368.133,350.18-367.026,350.18-365.332z
			 M402.973-378.996h-3.096v4.021h-0.742v-9.806h3.865c1.601,0.003,2.896,1.3,2.899,2.9c0,1.33-0.911,2.451-2.157,2.787l2.438,4.118
			h-0.854L402.973-378.996L402.973-378.996z M399.878-379.696h3.123c1.19,0,2.157-0.98,2.157-2.185c0-1.219-0.966-2.199-2.157-2.199
			h-3.123V-379.696z M413.839-378.449c0,0.112-0.015,0.224-0.015,0.336h-6.346c0.168,1.583,1.373,2.619,2.97,2.619
			c1.148,0,2.018-0.532,2.423-1.274l0.616,0.364c-0.574,0.952-1.667,1.583-3.054,1.583c-2.157,0-3.685-1.541-3.685-3.656
			c0-2.059,1.484-3.656,3.629-3.656C412.509-382.133,413.839-380.368,413.839-378.449z M407.479-378.799h5.631
			c-0.154-1.709-1.359-2.661-2.73-2.661C408.782-381.46,407.619-380.354,407.479-378.799L407.479-378.799z M424.438-381.979
			l-2.213,7.004h-0.771l-1.946-5.967l-1.947,5.967h-0.771l-2.213-7.004h0.742l1.863,6.094l1.961-6.094h0.729l1.961,6.094
			l1.863-6.094H424.438L424.438-381.979z M432.571-381.979v7.004h-0.715v-1.583c-0.588,1.051-1.667,1.737-3.011,1.737
			c-1.989,0-3.628-1.583-3.628-3.656s1.639-3.656,3.628-3.656c1.345,0,2.423,0.688,3.011,1.737v-1.583H432.571z M431.856-378.477
			c0-1.667-1.289-2.983-2.956-2.983s-2.969,1.316-2.969,2.983s1.303,2.983,2.969,2.983
			C430.567-375.494,431.856-376.81,431.856-378.477z M437.762-382.077v0.672c-1.204,0-2.339,0.742-2.339,2.535v3.895h-0.7v-7.004
			h0.7v1.373C435.9-381.712,436.81-382.077,437.762-382.077z M445.633-384.781v9.806h-0.7v-1.625
			c-0.574,1.079-1.652,1.779-3.012,1.779c-2.004,0-3.629-1.583-3.629-3.656s1.625-3.656,3.629-3.656
			c1.358,0,2.438,0.701,3.012,1.779v-4.427H445.633z M444.932-378.477c0-1.667-1.303-2.983-2.97-2.983s-2.971,1.316-2.971,2.983
			s1.304,2.983,2.971,2.983S444.932-376.81,444.932-378.477z M399.139-364.477c0,2.073-1.625,3.656-3.628,3.656
			c-1.359,0-2.438-0.7-3.013-1.779v4.427H391.8v-9.806h0.699v1.625c0.574-1.078,1.653-1.779,3.013-1.779
			C397.514-368.133,399.139-366.55,399.139-364.477z M398.439-364.477c0-1.667-1.303-2.983-2.97-2.983s-2.971,1.316-2.971,2.983
			s1.304,2.983,2.971,2.983S398.439-362.81,398.439-364.477z M407.44-364.449c0,0.112-0.014,0.224-0.014,0.336h-6.347
			c0.168,1.583,1.373,2.619,2.971,2.619c1.147,0,2.017-0.532,2.423-1.274l0.616,0.364c-0.574,0.952-1.667,1.583-3.055,1.583
			c-2.156,0-3.684-1.541-3.684-3.656c0-2.059,1.484-3.656,3.628-3.656C406.11-368.133,407.44-366.368,407.44-364.449z
			 M401.081-364.799h5.632c-0.154-1.709-1.359-2.661-2.731-2.661C402.385-367.46,401.221-366.354,401.081-364.799L401.081-364.799z
			 M412.115-368.077v0.672c-1.205,0-2.339,0.742-2.339,2.535v3.895h-0.7v-7.004h0.7v1.373
			C410.253-367.712,411.162-368.077,412.115-368.077z M424.142-367.979v7.004h-0.714v-1.583c-0.588,1.051-1.667,1.737-3.012,1.737
			c-1.988,0-3.628-1.583-3.628-3.656s1.64-3.656,3.628-3.656c1.346,0,2.424,0.688,3.012,1.737v-1.583H424.142z M423.428-364.477
			c0-1.667-1.289-2.983-2.956-2.983s-2.969,1.316-2.969,2.983s1.303,2.983,2.969,2.983
			C422.139-361.494,423.428-362.81,423.428-364.477z M425.819-364.477c0-2.073,1.569-3.656,3.685-3.656
			c1.372,0,2.55,0.701,3.054,1.793l-0.574,0.337c-0.406-0.883-1.359-1.457-2.479-1.457c-1.695,0-2.97,1.316-2.97,2.983
			s1.274,2.983,2.97,2.983c1.135,0,2.059-0.588,2.521-1.456l0.588,0.35c-0.56,1.079-1.737,1.779-3.109,1.779
			C427.388-360.821,425.819-362.404,425.819-364.477z M435.647-367.293v4.553c0,1.231,0.658,1.261,2.088,1.135v0.63
			c-1.836,0.28-2.803-0.168-2.803-1.765v-4.553h-1.54v-0.687h1.54v-1.751l0.715-0.21v1.961h2.088v0.687H435.647z M439.203-370.234
			c0.008-0.304,0.256-0.547,0.561-0.547c0.305-0.001,0.554,0.242,0.561,0.547c-0.001,0.309-0.251,0.56-0.561,0.561
			C439.454-369.675,439.204-369.925,439.203-370.234z M439.413-367.979h0.7v7.004h-0.7V-367.979z M441.792-364.477
			c0-2.073,1.64-3.656,3.685-3.656c2.031,0,3.67,1.583,3.67,3.656s-1.639,3.656-3.67,3.656
			C443.431-360.821,441.792-362.404,441.792-364.477z M448.432-364.477c0-1.667-1.289-2.983-2.956-2.983s-2.97,1.316-2.97,2.983
			s1.303,2.983,2.97,2.983S448.432-362.81,448.432-364.477z M456.748-365.332v4.356h-0.714v-4.356c0-1.289-0.743-2.129-2.06-2.129
			c-1.373,0-2.452,0.896-2.452,2.787v3.698h-0.699v-7.004h0.699v1.331c0.533-1.037,1.43-1.485,2.508-1.485
			C455.697-368.133,456.748-367.026,456.748-365.332z M499.829-384.781h0.785l2.535,8.812l2.731-8.812h0.882l2.746,8.812
			l2.521-8.812h0.784l-2.844,9.806h-0.896l-2.745-8.839l-2.76,8.839h-0.896L499.829-384.781L499.829-384.781z M513.032-378.477
			c0-2.073,1.64-3.656,3.685-3.656c2.03,0,3.67,1.583,3.67,3.656s-1.64,3.656-3.67,3.656
			C514.671-374.821,513.032-376.404,513.032-378.477z M519.671-378.477c0-1.667-1.289-2.983-2.955-2.983
			c-1.667,0-2.971,1.316-2.971,2.983s1.304,2.983,2.971,2.983C518.382-375.494,519.671-376.81,519.671-378.477z M525.1-382.077
			v0.672c-1.204,0-2.339,0.742-2.339,2.535v3.895h-0.7v-7.004h0.7v1.373C523.238-381.712,524.148-382.077,525.1-382.077
			L525.1-382.077z M530.926-374.975l-3.712-3.446v3.446h-0.7v-9.806h0.7v5.98l3.544-3.18h0.979l-3.769,3.362l3.908,3.642
			L530.926-374.975L530.926-374.975z M538.511-381.293v4.553c0,1.231,0.659,1.261,2.087,1.135v0.63
			c-1.834,0.28-2.801-0.168-2.801-1.765v-4.553h-1.541v-0.687h1.541v-1.751l0.714-0.21v1.961h2.087v0.687H538.511L538.511-381.293z
			 M542.067-384.234c0.007-0.305,0.257-0.548,0.562-0.547c0.304-0.001,0.554,0.242,0.561,0.547c-0.001,0.309-0.252,0.56-0.561,0.561
			C542.319-383.674,542.068-383.925,542.067-384.234z M542.277-381.979h0.7v7.004h-0.7V-381.979z M555.163-379.416v4.44h-0.7v-4.44
			c0-1.331-0.771-2.045-1.863-2.045c-1.176,0-2.101,0.784-2.101,2.577v3.908h-0.7v-4.44c0-1.331-0.716-2.045-1.793-2.045
			c-1.148,0-2.173,0.784-2.173,2.577v3.908h-0.698v-7.004h0.698v1.205c0.521-0.967,1.359-1.359,2.257-1.359
			c1.021,0,1.819,0.505,2.186,1.429c0.504-0.98,1.4-1.429,2.339-1.429C554.098-382.133,555.163-381.167,555.163-379.416
			L555.163-379.416z M563.743-378.449c0,0.112-0.014,0.224-0.014,0.336h-6.346c0.168,1.583,1.373,2.619,2.969,2.619
			c1.148,0,2.018-0.532,2.424-1.274l0.616,0.364c-0.574,0.952-1.667,1.583-3.054,1.583c-2.157,0-3.685-1.541-3.685-3.656
			c0-2.059,1.484-3.656,3.628-3.656C562.412-382.133,563.743-380.368,563.743-378.449z M557.384-378.799h5.631
			c-0.154-1.709-1.359-2.661-2.731-2.661C558.686-381.46,557.523-380.354,557.384-378.799L557.384-378.799z M506.793-364.477
			c0,2.073-1.625,3.656-3.628,3.656c-1.358,0-2.438-0.7-3.013-1.779v4.427h-0.7v-9.806h0.7v1.625
			c0.574-1.078,1.653-1.779,3.013-1.779C505.168-368.133,506.793-366.55,506.793-364.477z M506.092-364.477
			c0-1.667-1.304-2.983-2.971-2.983s-2.97,1.316-2.97,2.983s1.303,2.983,2.97,2.983S506.092-362.81,506.092-364.477z
			 M515.093-364.449c0,0.112-0.015,0.224-0.015,0.336h-6.346c0.169,1.583,1.373,2.619,2.971,2.619c1.148,0,2.018-0.532,2.424-1.274
			l0.615,0.364c-0.573,0.952-1.667,1.583-3.054,1.583c-2.157,0-3.684-1.541-3.684-3.656c0-2.059,1.483-3.656,3.628-3.656
			C513.762-368.133,515.093-366.368,515.093-364.449L515.093-364.449z M508.733-364.799h5.632c-0.153-1.709-1.357-2.661-2.73-2.661
			C510.036-367.46,508.875-366.354,508.733-364.799L508.733-364.799z M519.767-368.077v0.672c-1.204,0-2.339,0.742-2.339,2.535
			v3.895h-0.701v-7.004h0.701v1.373C517.905-367.712,518.815-368.077,519.767-368.077z M531.795-367.979v7.004h-0.715v-1.583
			c-0.588,1.051-1.667,1.737-3.012,1.737c-1.989,0-3.628-1.583-3.628-3.656s1.639-3.656,3.628-3.656
			c1.345,0,2.424,0.688,3.012,1.737v-1.583H531.795z M531.081-364.477c0-1.667-1.289-2.983-2.955-2.983
			c-1.668,0-2.971,1.316-2.971,2.983s1.303,2.983,2.971,2.983C529.792-361.494,531.081-362.81,531.081-364.477z M533.471-364.477
			c0-2.073,1.567-3.656,3.684-3.656c1.373,0,2.55,0.701,3.055,1.793l-0.574,0.337c-0.406-0.883-1.358-1.457-2.479-1.457
			c-1.694,0-2.969,1.316-2.969,2.983s1.273,2.983,2.969,2.983c1.136,0,2.06-0.588,2.521-1.456l0.588,0.35
			c-0.56,1.079-1.736,1.779-3.109,1.779C535.04-360.821,533.471-362.404,533.471-364.477L533.471-364.477z M543.3-367.293v4.553
			c0,1.232,0.658,1.261,2.088,1.135v0.63c-1.836,0.28-2.803-0.168-2.803-1.765v-4.553h-1.54v-0.687h1.54v-1.751l0.715-0.21v1.961
			h2.088v0.687H543.3L543.3-367.293z M546.855-370.234c0.007-0.305,0.256-0.547,0.56-0.547c0.305,0,0.555,0.243,0.562,0.547
			c-0.001,0.309-0.252,0.56-0.562,0.561C547.106-369.675,546.856-369.925,546.855-370.234z M547.065-367.979h0.7v7.004h-0.7
			V-367.979z M549.445-364.477c0-2.073,1.64-3.656,3.685-3.656c2.03,0,3.67,1.583,3.67,3.656s-1.64,3.656-3.67,3.656
			C551.084-360.821,549.445-362.404,549.445-364.477z M556.085-364.477c0-1.667-1.289-2.983-2.956-2.983s-2.971,1.316-2.971,2.983
			s1.304,2.983,2.971,2.983S556.085-362.81,556.085-364.477z M564.4-365.332v4.356h-0.714v-4.356c0-1.289-0.743-2.129-2.06-2.129
			c-1.373,0-2.452,0.896-2.452,2.787v3.698h-0.699v-7.004h0.699v1.331c0.533-1.037,1.43-1.485,2.508-1.485
			C563.349-368.133,564.4-367.026,564.4-365.332z M606.305-384.08h-3.081v9.104h-0.757v-9.104h-3.081v-0.701h6.919V-384.08z
			 M605.967-378.477c0-2.073,1.639-3.656,3.684-3.656c2.031,0,3.67,1.583,3.67,3.656s-1.639,3.656-3.67,3.656
			C607.605-374.821,605.967-376.404,605.967-378.477z M612.606-378.477c0-1.667-1.289-2.983-2.956-2.983s-2.97,1.316-2.97,2.983
			s1.303,2.983,2.97,2.983S612.606-376.81,612.606-378.477z M616.355-381.293v4.553c0,1.232,0.659,1.261,2.087,1.135v0.63
			c-1.834,0.28-2.801-0.168-2.801-1.765v-4.553H614.1v-0.687h1.541v-1.751l0.714-0.21v1.961h2.087v0.687H616.355L616.355-381.293z
			 M626.579-381.979v7.004h-0.715v-1.583c-0.588,1.051-1.667,1.737-3.012,1.737c-1.989,0-3.628-1.583-3.628-3.656
			s1.639-3.656,3.628-3.656c1.345,0,2.424,0.688,3.012,1.737v-1.583H626.579z M625.864-378.477c0-1.667-1.289-2.983-2.956-2.983
			s-2.97,1.316-2.97,2.983s1.303,2.983,2.97,2.983S625.864-376.81,625.864-378.477z M628.731-385.201h0.699v10.226h-0.699V-385.201z
			 M638.364-382.077v0.672c-1.205,0-2.34,0.742-2.34,2.535v3.895h-0.699v-7.004h0.699v1.373
			C636.501-381.712,637.411-382.077,638.364-382.077z M645.968-378.449c0,0.112-0.014,0.224-0.014,0.336h-6.347
			c0.168,1.583,1.373,2.619,2.97,2.619c1.148,0,2.018-0.532,2.424-1.274l0.616,0.364c-0.573,0.952-1.668,1.583-3.055,1.583
			c-2.156,0-3.684-1.541-3.684-3.656c0-2.059,1.483-3.656,3.629-3.656C644.637-382.133,645.968-380.368,645.968-378.449z
			 M639.608-378.799h5.631c-0.153-1.709-1.357-2.661-2.729-2.661C640.911-381.46,639.75-380.354,639.608-378.799z M656.567-381.979
			l-2.213,7.004h-0.771l-1.946-5.967l-1.947,5.967h-0.771l-2.213-7.004h0.741l1.863,6.094l1.961-6.094h0.729l1.961,6.094
			l1.862-6.094H656.567L656.567-381.979z M664.7-381.979v7.004h-0.715v-1.583c-0.588,1.051-1.666,1.737-3.011,1.737
			c-1.989,0-3.628-1.583-3.628-3.656s1.639-3.656,3.628-3.656c1.345,0,2.423,0.688,3.011,1.737v-1.583H664.7z M663.985-378.477
			c0-1.667-1.288-2.983-2.955-2.983c-1.666,0-2.969,1.316-2.969,2.983s1.303,2.983,2.969,2.983
			C662.697-375.494,663.985-376.81,663.985-378.477z M669.891-382.077v0.672c-1.204,0-2.339,0.742-2.339,2.535v3.895h-0.7v-7.004
			h0.7v1.373C668.029-381.712,668.939-382.077,669.891-382.077z M677.761-384.781v9.806h-0.7v-1.625
			c-0.574,1.079-1.652,1.779-3.012,1.779c-2.003,0-3.628-1.583-3.628-3.656s1.625-3.656,3.628-3.656
			c1.358,0,2.438,0.701,3.012,1.779v-4.427H677.761z M677.061-378.477c0-1.667-1.303-2.983-2.97-2.983s-2.97,1.316-2.97,2.983
			s1.303,2.983,2.97,2.983S677.061-376.81,677.061-378.477z M621.588-367.979v7.004h-0.716v-1.583
			c-0.588,1.051-1.666,1.737-3.011,1.737c-1.989,0-3.629-1.583-3.629-3.656c0-2.073,1.639-3.656,3.629-3.656
			c1.345,0,2.423,0.687,3.011,1.737v-1.583H621.588z M620.874-364.477c0-1.667-1.288-2.983-2.956-2.983
			c-1.666,0-2.97,1.316-2.97,2.983s1.304,2.983,2.97,2.983C619.585-361.494,620.874-362.81,620.874-364.477z M633.768-365.416v4.44
			h-0.699v-4.44c0-1.331-0.771-2.045-1.862-2.045c-1.178,0-2.103,0.784-2.103,2.577v3.908h-0.7v-4.44
			c0-1.331-0.714-2.045-1.793-2.045c-1.147,0-2.171,0.784-2.171,2.577v3.908h-0.701v-7.004h0.701v1.205
			c0.519-0.967,1.358-1.359,2.255-1.359c1.022,0,1.821,0.505,2.186,1.429c0.505-0.98,1.4-1.429,2.34-1.429
			C632.705-368.133,633.768-367.167,633.768-365.416L633.768-365.416z M635.261-364.477c0-2.073,1.639-3.656,3.684-3.656
			c2.031,0,3.67,1.583,3.67,3.656s-1.639,3.656-3.67,3.656C636.9-360.821,635.261-362.404,635.261-364.477z M641.901-364.477
			c0-1.667-1.289-2.983-2.956-2.983s-2.97,1.316-2.97,2.983s1.303,2.983,2.97,2.983S641.901-362.81,641.901-364.477z
			 M650.034-367.979v7.004h-0.699v-1.331c-0.532,1.037-1.43,1.485-2.508,1.485c-1.667,0-2.718-1.106-2.718-2.802v-4.356h0.714v4.356
			c0,1.289,0.743,2.129,2.061,2.129c1.373,0,2.451-0.896,2.451-2.787v-3.698H650.034L650.034-367.979z M658.112-365.332v4.356
			h-0.714v-4.356c0-1.289-0.743-2.129-2.06-2.129c-1.373,0-2.451,0.896-2.451,2.787v3.698h-0.7v-7.004h0.7v1.331
			c0.532-1.037,1.429-1.485,2.508-1.485C657.061-368.133,658.112-367.026,658.112-365.332z M661.583-367.293v4.553
			c0,1.232,0.658,1.261,2.087,1.135v0.63c-1.834,0.28-2.802-0.168-2.802-1.765v-4.553h-1.541v-0.687h1.541v-1.751l0.715-0.21v1.961
			h2.087v0.687H661.583L661.583-367.293z"/>
		
			<linearGradient id="SVGID_13_" gradientUnits="userSpaceOnUse" x1="3048.5867" y1="-979.6455" x2="3199.7117" y2="-979.6455" gradientTransform="matrix(6.123234e-017 1 1 -6.123234e-017 1243.0784 -3393.3958)">
			<stop  offset="0" style="stop-color:#FFFFFF"/>
			<stop  offset="1" style="stop-color:#FFFFFF;stop-opacity:0"/>
		</linearGradient>
		<path fill="url(#SVGID_13_)" d="M262.759-344.809h1.349v151.125h-1.349V-344.809z"/>
		
			<linearGradient id="SVGID_14_" gradientUnits="userSpaceOnUse" x1="3048.5867" y1="-871.9521" x2="3199.7117" y2="-871.9521" gradientTransform="matrix(6.123234e-017 1 1 -6.123234e-017 1243.0784 -3393.3958)">
			<stop  offset="0" style="stop-color:#FFFFFF"/>
			<stop  offset="1" style="stop-color:#FFFFFF;stop-opacity:0"/>
		</linearGradient>
		<path fill="url(#SVGID_14_)" d="M370.452-344.809h1.349v151.125h-1.349V-344.809z"/>
		
			<linearGradient id="SVGID_15_" gradientUnits="userSpaceOnUse" x1="3048.5867" y1="-764.2593" x2="3199.7117" y2="-764.2593" gradientTransform="matrix(6.123234e-017 1 1 -6.123234e-017 1243.0784 -3393.3958)">
			<stop  offset="0" style="stop-color:#FFFFFF"/>
			<stop  offset="1" style="stop-color:#FFFFFF;stop-opacity:0"/>
		</linearGradient>
		<path fill="url(#SVGID_15_)" d="M478.145-344.809h1.348v151.125h-1.348V-344.809z"/>
		
			<linearGradient id="SVGID_16_" gradientUnits="userSpaceOnUse" x1="3048.5867" y1="-656.564" x2="3199.7117" y2="-656.564" gradientTransform="matrix(6.123234e-017 1 1 -6.123234e-017 1243.0784 -3393.3958)">
			<stop  offset="0" style="stop-color:#FFFFFF"/>
			<stop  offset="1" style="stop-color:#FFFFFF;stop-opacity:0"/>
		</linearGradient>
		<path fill="url(#SVGID_16_)" d="M585.841-344.809h1.348v151.125h-1.348V-344.809z"/>
		
			<linearGradient id="SVGID_17_" gradientUnits="userSpaceOnUse" x1="3048.5867" y1="-548.8701" x2="3199.7117" y2="-548.8701" gradientTransform="matrix(6.123234e-017 1 1 -6.123234e-017 1243.0784 -3393.3958)">
			<stop  offset="0" style="stop-color:#FFFFFF"/>
			<stop  offset="1" style="stop-color:#FFFFFF;stop-opacity:0"/>
		</linearGradient>
		<path fill="url(#SVGID_17_)" d="M693.534-344.809h1.349v151.125h-1.349V-344.809z"/>
		<path fill="#FFFFFF" d="M313.289-331.579v12.604h-0.953v-11.56l-2.917,0.918l-0.234-0.828l3.295-1.134H313.289z M315.807-325.277
			c0-3.89,1.693-6.5,4.718-6.5c3.025,0,4.717,2.61,4.717,6.5c0,3.889-1.691,6.5-4.717,6.5S315.807-321.388,315.807-325.277z
			 M324.27-325.277c0-3.529-1.405-5.582-3.745-5.582c-2.341,0-3.745,2.053-3.745,5.582c0,3.529,1.404,5.581,3.745,5.581
			C322.865-319.696,324.27-321.748,324.27-325.277z M307.987-283.339l4.627-4.753c1.099-1.135,2.034-2.323,2.034-3.565
			c0-1.729-1.242-2.701-2.771-2.701c-1.369,0-2.413,0.648-3.008,1.909l-0.811-0.486c0.756-1.549,2.179-2.341,3.817-2.341
			c1.926,0,3.744,1.278,3.744,3.619c0,1.566-1.081,2.953-2.358,4.249l-3.907,4.016h6.554v0.918h-7.922L307.987-283.339
			L307.987-283.339z M317.473-288.777c0-3.89,1.693-6.5,4.718-6.5c3.025,0,4.717,2.61,4.717,6.5c0,3.889-1.691,6.5-4.717,6.5
			S317.473-284.888,317.473-288.777z M325.936-288.777c0-3.529-1.405-5.582-3.745-5.582c-2.341,0-3.745,2.053-3.745,5.582
			c0,3.529,1.404,5.581,3.745,5.581C324.531-283.196,325.936-285.248,325.936-288.777z M316.09-249.918
			c0,2.449-1.782,4.142-4.231,4.142c-2.448,0-4.23-1.692-4.23-4.142c0-0.99,0.288-1.836,0.773-2.521l4.231-6.14h1.081l-3.224,4.699
			c0.444-0.131,0.905-0.198,1.368-0.198C314.307-254.078,316.09-252.385,316.09-249.918z M315.135-249.918
			c0-1.891-1.278-3.241-3.277-3.241s-3.259,1.351-3.259,3.241c0,1.873,1.26,3.223,3.259,3.223
			C313.856-246.696,315.135-248.045,315.135-249.918z M317.652-252.277c0-3.89,1.693-6.5,4.718-6.5c3.025,0,4.718,2.61,4.718,6.5
			c0,3.889-1.692,6.5-4.718,6.5C319.345-245.777,317.652-248.388,317.652-252.277z M326.115-252.277
			c0-3.529-1.404-5.582-3.745-5.582s-3.744,2.053-3.744,5.582c0,3.529,1.403,5.581,3.744,5.581S326.115-248.748,326.115-252.277z
			 M308.636-222.079v12.604h-0.954v-11.56l-2.917,0.918l-0.234-0.828l3.295-1.134H308.636z M310.975-210.339l4.627-4.753
			c1.099-1.135,2.035-2.323,2.035-3.565c0-1.729-1.242-2.701-2.772-2.701c-1.369,0-2.413,0.648-3.007,1.909l-0.81-0.486
			c0.756-1.549,2.179-2.341,3.816-2.341c1.927,0,3.745,1.278,3.745,3.619c0,1.566-1.081,2.953-2.358,4.249l-3.907,4.016h6.554v0.918
			h-7.922L310.975-210.339L310.975-210.339z M320.461-215.777c0-3.89,1.692-6.5,4.718-6.5c3.024,0,4.717,2.61,4.717,6.5
			c0,3.889-1.692,6.5-4.717,6.5C322.153-209.277,320.461-211.888,320.461-215.777z M328.924-215.777
			c0-3.529-1.405-5.582-3.745-5.582c-2.341,0-3.745,2.053-3.745,5.582c0,3.529,1.404,5.581,3.745,5.581
			S328.924-212.248,328.924-215.777z M415.509-322.918c0,2.449-1.782,4.142-4.231,4.142c-2.448,0-4.23-1.692-4.23-4.142
			c0-0.99,0.288-1.836,0.773-2.521l4.231-6.14h1.081l-3.224,4.699c0.444-0.131,0.905-0.198,1.368-0.198
			C413.726-327.078,415.509-325.385,415.509-322.918z M414.554-322.918c0-1.891-1.278-3.241-3.277-3.241s-3.259,1.351-3.259,3.241
			c0,1.873,1.26,3.223,3.259,3.223C413.275-319.696,414.554-321.045,414.554-322.918z M420.185-325.277c0-3.89,1.693-6.5,4.718-6.5
			c3.025,0,4.717,2.61,4.717,6.5c0,3.889-1.691,6.5-4.717,6.5C421.879-318.777,420.185-321.388,420.185-325.277z M428.648-325.277
			c0-3.529-1.405-5.582-3.745-5.582c-2.341,0-3.745,2.053-3.745,5.582c0,3.529,1.404,5.581,3.745,5.581
			C427.243-319.696,428.648-321.748,428.648-325.277z M431.525-325.277c0-3.89,1.693-6.5,4.718-6.5c3.025,0,4.718,2.61,4.718,6.5
			c0,3.889-1.691,6.5-4.718,6.5C433.219-318.777,431.525-321.388,431.525-325.277z M439.988-325.277
			c0-3.529-1.404-5.582-3.745-5.582s-3.744,2.053-3.744,5.582c0,3.529,1.403,5.581,3.744,5.581S439.988-321.748,439.988-325.277z
			 M407.128-295.079v12.604h-0.954v-11.56l-2.917,0.918l-0.234-0.828l3.295-1.134H407.128z M409.646-288.777
			c0-3.89,1.693-6.5,4.718-6.5c3.025,0,4.718,2.61,4.718,6.5c0,3.889-1.692,6.5-4.718,6.5
			C411.34-282.277,409.646-284.888,409.646-288.777z M418.109-288.777c0-3.529-1.405-5.582-3.745-5.582
			c-2.341,0-3.745,2.053-3.745,5.582c0,3.529,1.404,5.581,3.745,5.581C416.704-283.196,418.109-285.248,418.109-288.777z
			 M423.921-288.777c0-3.89,1.692-6.5,4.718-6.5c3.024,0,4.717,2.61,4.717,6.5c0,3.889-1.691,6.5-4.717,6.5
			S423.921-284.888,423.921-288.777z M432.384-288.777c0-3.529-1.405-5.582-3.745-5.582c-2.341,0-3.745,2.053-3.745,5.582
			c0,3.529,1.404,5.581,3.745,5.581C430.978-283.196,432.384-285.248,432.384-288.777z M435.26-288.777c0-3.89,1.691-6.5,4.717-6.5
			s4.718,2.61,4.718,6.5c0,3.889-1.691,6.5-4.718,6.5C436.954-282.277,435.26-284.888,435.26-288.777z M443.723-288.777
			c0-3.529-1.405-5.582-3.746-5.582c-2.34,0-3.744,2.053-3.744,5.582c0,3.529,1.404,5.581,3.744,5.581
			C442.318-283.196,443.723-285.248,443.723-288.777z M415.4-249.612c0,2.431-1.927,3.835-4.195,3.835
			c-1.801,0-3.402-0.883-3.979-2.539l0.811-0.468c0.414,1.351,1.621,2.088,3.169,2.088c1.873,0,3.241-1.098,3.241-2.916
			c0-1.819-1.368-2.917-3.241-2.917h-3.366l0.432-6.05h6.662v0.9h-5.816l-0.288,4.23h2.377
			C413.473-253.448,415.4-252.043,415.4-249.612L415.4-249.612z M420.221-252.277c0-3.89,1.692-6.5,4.718-6.5s4.717,2.61,4.717,6.5
			c0,3.889-1.691,6.5-4.717,6.5S420.221-248.388,420.221-252.277z M428.684-252.277c0-3.529-1.405-5.582-3.745-5.582
			c-2.341,0-3.745,2.053-3.745,5.582c0,3.529,1.404,5.581,3.745,5.581C427.279-246.696,428.684-248.748,428.684-252.277z
			 M431.561-252.277c0-3.89,1.693-6.5,4.717-6.5c3.025,0,4.718,2.61,4.718,6.5c0,3.889-1.691,6.5-4.718,6.5
			C433.254-245.777,431.561-248.388,431.561-252.277z M440.024-252.277c0-3.529-1.405-5.582-3.746-5.582
			c-2.34,0-3.745,2.053-3.745,5.582c0,3.529,1.404,5.581,3.745,5.581S440.024-248.748,440.024-252.277z M415.813-212.122h-1.62
			v2.646h-0.955v-2.646h-6.788v-0.9l4.789-9.057h1.044l-4.77,9.057h5.726v-3.961h0.955v3.961h1.62L415.813-212.122L415.813-212.122z
			 M420.688-215.777c0-3.89,1.693-6.5,4.718-6.5c3.025,0,4.717,2.61,4.717,6.5c0,3.889-1.691,6.5-4.717,6.5
			C422.382-209.277,420.688-211.888,420.688-215.777z M429.151-215.777c0-3.529-1.405-5.582-3.745-5.582
			c-2.341,0-3.745,2.053-3.745,5.582c0,3.529,1.404,5.581,3.745,5.581S429.151-212.248,429.151-215.777z M432.028-215.777
			c0-3.89,1.693-6.5,4.718-6.5s4.718,2.61,4.718,6.5c0,3.889-1.692,6.5-4.718,6.5C433.721-209.277,432.028-211.888,432.028-215.777z
			 M440.491-215.777c0-3.529-1.403-5.582-3.744-5.582s-3.745,2.053-3.745,5.582c0,3.529,1.403,5.581,3.745,5.581
			C439.087-210.196,440.491-212.248,440.491-215.777z M508.249-324.424c-0.351,1.191-1.399,2.144-3.376,0.841
			c-1.597-1.051-2.185-0.322-2.423,0.561l-0.645-0.309c0.363-1.19,1.428-2.129,3.39-0.841c1.61,1.051,2.186,0.322,2.409-0.56
			L508.249-324.424z M513.552-331.579v12.604h-0.954v-11.56l-2.917,0.918l-0.234-0.828l3.295-1.134H513.552z M524.101-322.612
			c0,2.431-1.927,3.835-4.195,3.835c-1.801,0-3.402-0.883-3.979-2.539l0.811-0.468c0.414,1.351,1.621,2.088,3.169,2.088
			c1.872,0,3.241-1.098,3.241-2.916c0-1.819-1.369-2.917-3.241-2.917h-3.367l0.434-6.05h6.662v0.9h-5.816l-0.288,4.23h2.377
			C522.175-326.448,524.101-325.043,524.101-322.612L524.101-322.612z M543.938-324.683v5.708h-0.9v-5.708
			c0-1.71-0.989-2.629-2.395-2.629c-1.513,0-2.701,1.009-2.701,3.313v5.023h-0.9v-5.708c0-1.71-0.918-2.629-2.305-2.629
			c-1.477,0-2.791,1.009-2.791,3.313v5.023h-0.9v-9.003h0.9v1.549c0.666-1.242,1.747-1.747,2.899-1.747
			c1.313,0,2.341,0.648,2.81,1.837c0.647-1.261,1.8-1.837,3.006-1.837C542.569-328.176,543.938-326.933,543.938-324.683
			L543.938-324.683z M546.202-330.876c0-0.378,0.324-0.702,0.722-0.702c0.396,0,0.72,0.324,0.72,0.702
			c-0.015,0.398-0.35,0.708-0.748,0.693C546.518-330.197,546.217-330.499,546.202-330.876z M546.471-327.978h0.899v9.003h-0.899
			V-327.978z M557.76-324.575v5.6h-0.918v-5.6c0-1.656-0.955-2.737-2.647-2.737c-1.765,0-3.151,1.152-3.151,3.583v4.754h-0.899
			v-9.003h0.899v1.711c0.686-1.333,1.838-1.909,3.225-1.909C556.41-328.176,557.76-326.753,557.76-324.575z M560.026-319.605
			c0-0.45,0.342-0.811,0.811-0.811c0.449,0,0.811,0.36,0.811,0.811s-0.36,0.81-0.811,0.81c-0.439,0.008-0.802-0.341-0.811-0.781
			C560.026-319.585,560.026-319.595,560.026-319.605z M505.278-287.924c-0.35,1.191-1.399,2.144-3.375,0.841
			c-1.598-1.051-2.186-0.322-2.424,0.561l-0.646-0.309c0.364-1.19,1.43-2.129,3.392-0.841c1.609,1.051,2.185,0.322,2.408-0.56
			L505.278-287.924L505.278-287.924z M516.038-285.122h-1.621v2.646h-0.954v-2.646h-6.787v-0.9l4.789-9.057h1.045l-4.772,9.057
			h5.726v-3.961h0.954v3.961h1.621V-285.122z M517.438-288.777c0-3.89,1.693-6.5,4.718-6.5c3.025,0,4.718,2.61,4.718,6.5
			c0,3.889-1.692,6.5-4.718,6.5C519.132-282.277,517.438-284.888,517.438-288.777z M525.901-288.777
			c0-3.529-1.404-5.582-3.745-5.582s-3.745,2.053-3.745,5.582c0,3.529,1.404,5.581,3.745,5.581S525.901-285.248,525.901-288.777z
			 M546.909-288.183v5.708h-0.899v-5.708c0-1.71-0.99-2.629-2.396-2.629c-1.514,0-2.701,1.009-2.701,3.313v5.023h-0.899v-5.708
			c0-1.71-0.918-2.629-2.306-2.629c-1.477,0-2.791,1.009-2.791,3.313v5.023h-0.899v-9.003h0.899v1.549
			c0.666-1.242,1.746-1.747,2.898-1.747c1.314,0,2.342,0.648,2.809,1.837c0.648-1.261,1.802-1.837,3.009-1.837
			C545.54-291.676,546.909-290.433,546.909-288.183L546.909-288.183z M549.173-294.376c0-0.378,0.323-0.702,0.72-0.702
			c0.396,0,0.72,0.324,0.72,0.702c0,0.396-0.324,0.72-0.72,0.72C549.496-293.656,549.173-293.981,549.173-294.376z M549.442-291.478
			h0.9v9.003h-0.9V-291.478z M560.731-288.075v5.6h-0.919v-5.6c0-1.656-0.954-2.737-2.647-2.737c-1.764,0-3.149,1.152-3.149,3.583
			v4.754h-0.9v-9.003h0.9v1.711c0.684-1.333,1.836-1.909,3.223-1.909C559.38-291.676,560.731-290.253,560.731-288.075
			L560.731-288.075z M562.996-283.105c0-0.45,0.344-0.811,0.812-0.811c0.45,0,0.81,0.36,0.81,0.811s-0.358,0.81-0.81,0.81
			c-0.439,0.008-0.803-0.341-0.812-0.781C562.996-283.085,562.996-283.095,562.996-283.105z M508.249-251.424
			c-0.351,1.191-1.399,2.144-3.376,0.841c-1.597-1.051-2.185-0.322-2.423,0.561l-0.645-0.309c0.363-1.19,1.428-2.129,3.39-0.841
			c1.61,1.051,2.186,0.322,2.409-0.56L508.249-251.424z M513.552-258.579v12.604h-0.954v-11.56l-2.917,0.918l-0.234-0.828
			l3.295-1.134H513.552z M524.101-249.612c0,2.431-1.927,3.835-4.195,3.835c-1.801,0-3.402-0.883-3.979-2.539l0.811-0.468
			c0.414,1.351,1.621,2.088,3.169,2.088c1.872,0,3.241-1.098,3.241-2.916c0-1.819-1.369-2.917-3.241-2.917h-3.367l0.434-6.05h6.662
			v0.9h-5.816l-0.288,4.23h2.377C522.175-253.448,524.101-252.043,524.101-249.612L524.101-249.612z M543.938-251.683v5.708h-0.9
			v-5.708c0-1.71-0.989-2.629-2.395-2.629c-1.513,0-2.701,1.009-2.701,3.313v5.023h-0.9v-5.708c0-1.71-0.918-2.629-2.305-2.629
			c-1.477,0-2.791,1.009-2.791,3.313v5.023h-0.9v-9.003h0.9v1.549c0.666-1.242,1.747-1.747,2.899-1.747
			c1.313,0,2.341,0.648,2.81,1.837c0.647-1.261,1.8-1.837,3.006-1.837C542.569-255.176,543.938-253.933,543.938-251.683
			L543.938-251.683z M546.202-257.876c0-0.378,0.324-0.702,0.722-0.702c0.396,0,0.72,0.324,0.72,0.702
			c-0.015,0.398-0.35,0.708-0.748,0.693C546.518-257.197,546.217-257.499,546.202-257.876z M546.471-254.978h0.899v9.003h-0.899
			V-254.978z M557.76-251.575v5.6h-0.918v-5.6c0-1.656-0.955-2.737-2.647-2.737c-1.765,0-3.151,1.152-3.151,3.583v4.754h-0.899
			v-9.003h0.899v1.711c0.686-1.333,1.838-1.909,3.225-1.909C556.41-255.176,557.76-253.753,557.76-251.575L557.76-251.575z
			 M560.026-246.605c0-0.45,0.342-0.811,0.811-0.811c0.449,0,0.811,0.36,0.811,0.811s-0.36,0.81-0.811,0.81
			c-0.439,0.008-0.802-0.341-0.811-0.781C560.026-246.585,560.026-246.595,560.026-246.605z M508.249-214.924
			c-0.351,1.191-1.399,2.144-3.376,0.841c-1.597-1.051-2.185-0.322-2.423,0.561l-0.645-0.309c0.362-1.19,1.428-2.129,3.39-0.841
			c1.61,1.051,2.186,0.322,2.409-0.56L508.249-214.924z M513.552-222.079v12.604h-0.954v-11.56l-2.917,0.918l-0.234-0.828
			l3.295-1.134H513.552z M524.101-213.112c0,2.431-1.927,3.835-4.195,3.835c-1.801,0-3.403-0.883-3.979-2.539l0.811-0.468
			c0.414,1.351,1.621,2.088,3.169,2.088c1.872,0,3.241-1.098,3.241-2.916c0-1.819-1.369-2.917-3.241-2.917h-3.367l0.434-6.05h6.662
			v0.9h-5.816l-0.288,4.23h2.377C522.175-216.948,524.101-215.543,524.101-213.112L524.101-213.112z M543.938-215.183v5.708h-0.9
			v-5.708c0-1.71-0.99-2.629-2.395-2.629c-1.514,0-2.701,1.009-2.701,3.313v5.023h-0.9v-5.708c0-1.71-0.918-2.629-2.305-2.629
			c-1.477,0-2.791,1.009-2.791,3.313v5.023h-0.9v-9.003h0.9v1.549c0.666-1.242,1.747-1.747,2.899-1.747
			c1.313,0,2.341,0.648,2.81,1.837c0.646-1.261,1.8-1.837,3.006-1.837C542.569-218.676,543.938-217.433,543.938-215.183
			L543.938-215.183z M546.202-221.376c0-0.378,0.324-0.702,0.721-0.702c0.397,0,0.721,0.324,0.721,0.702
			c-0.016,0.398-0.35,0.708-0.748,0.693C546.518-220.697,546.217-220.999,546.202-221.376z M546.471-218.478h0.899v9.003h-0.899
			V-218.478z M557.76-215.075v5.6h-0.918v-5.6c0-1.656-0.955-2.737-2.647-2.737c-1.765,0-3.151,1.152-3.151,3.583v4.754h-0.899
			v-9.003h0.899v1.711c0.686-1.333,1.837-1.909,3.225-1.909C556.41-218.676,557.76-217.253,557.76-215.075z M560.026-210.105
			c0-0.45,0.342-0.811,0.811-0.811c0.449,0,0.811,0.36,0.811,0.811s-0.36,0.81-0.811,0.81c-0.439,0.008-0.803-0.341-0.811-0.781
			C560.026-210.085,560.026-210.095,560.026-210.105z M624.698-322.918c0,2.449-1.783,4.142-4.232,4.142
			c-2.446,0-4.229-1.692-4.229-4.142c0-0.99,0.288-1.836,0.773-2.521l4.231-6.14h1.08l-3.223,4.699
			c0.443-0.131,0.904-0.198,1.367-0.198C622.915-327.078,624.698-325.385,624.698-322.918z M623.743-322.918
			c0-1.891-1.277-3.241-3.277-3.241c-1.997,0-3.258,1.351-3.258,3.241c0,1.873,1.261,3.223,3.258,3.223
			C622.466-319.696,623.743-321.045,623.743-322.918z M626.26-325.277c0-3.89,1.692-6.5,4.719-6.5c3.023,0,4.717,2.61,4.717,6.5
			c0,3.889-1.692,6.5-4.717,6.5C627.954-318.777,626.26-321.388,626.26-325.277z M634.723-325.277c0-3.529-1.404-5.582-3.744-5.582
			c-2.342,0-3.746,2.053-3.746,5.582c0,3.529,1.404,5.581,3.746,5.581C633.319-319.696,634.723-321.748,634.723-325.277z
			 M640.534-325.277c0-3.89,1.693-6.5,4.719-6.5c3.024,0,4.718,2.61,4.718,6.5c0,3.889-1.692,6.5-4.718,6.5
			S640.534-321.388,640.534-325.277z M648.997-325.277c0-3.529-1.403-5.582-3.744-5.582c-2.342,0-3.746,2.053-3.746,5.582
			c0,3.529,1.404,5.581,3.746,5.581C647.593-319.696,648.997-321.748,648.997-325.277z M651.874-325.277c0-3.89,1.693-6.5,4.72-6.5
			c3.023,0,4.717,2.61,4.717,6.5c0,3.889-1.692,6.5-4.717,6.5C653.567-318.777,651.874-321.388,651.874-325.277z M660.336-325.277
			c0-3.529-1.403-5.582-3.743-5.582c-2.343,0-3.746,2.053-3.746,5.582c0,3.529,1.403,5.581,3.746,5.581
			C658.932-319.696,660.336-321.748,660.336-325.277z M610.925-283.339l4.627-4.753c1.1-1.135,2.034-2.323,2.034-3.565
			c0-1.729-1.241-2.701-2.771-2.701c-1.368,0-2.413,0.648-3.007,1.909l-0.812-0.486c0.756-1.549,2.18-2.341,3.817-2.341
			c1.927,0,3.745,1.278,3.745,3.619c0,1.566-1.08,2.953-2.359,4.249l-3.906,4.016h6.555v0.918h-7.923V-283.339L610.925-283.339z
			 M620.411-288.777c0-3.89,1.693-6.5,4.718-6.5c3.025,0,4.719,2.61,4.719,6.5c0,3.889-1.693,6.5-4.719,6.5
			C622.104-282.277,620.411-284.888,620.411-288.777z M628.874-288.777c0-3.529-1.403-5.582-3.745-5.582
			c-2.341,0-3.744,2.053-3.744,5.582c0,3.529,1.403,5.581,3.744,5.581C627.47-283.196,628.874-285.248,628.874-288.777z
			 M631.75-288.777c0-3.89,1.693-6.5,4.719-6.5c3.024,0,4.718,2.61,4.718,6.5c0,3.889-1.693,6.5-4.718,6.5
			C633.443-282.277,631.75-284.888,631.75-288.777z M640.213-288.777c0-3.529-1.403-5.582-3.744-5.582
			c-2.342,0-3.745,2.053-3.745,5.582c0,3.529,1.403,5.581,3.745,5.581C638.809-283.196,640.213-285.248,640.213-288.777z
			 M646.024-288.777c0-3.89,1.693-6.5,4.718-6.5c3.025,0,4.718,2.61,4.718,6.5c0,3.889-1.692,6.5-4.718,6.5
			C647.718-282.277,646.024-284.888,646.024-288.777z M654.487-288.777c0-3.529-1.404-5.582-3.745-5.582s-3.745,2.053-3.745,5.582
			c0,3.529,1.404,5.581,3.745,5.581S654.487-285.248,654.487-288.777z M657.364-288.777c0-3.89,1.693-6.5,4.718-6.5
			c3.025,0,4.719,2.61,4.719,6.5c0,3.889-1.693,6.5-4.719,6.5C659.057-282.277,657.364-284.888,657.364-288.777z M665.827-288.777
			c0-3.529-1.404-5.582-3.745-5.582s-3.745,2.053-3.745,5.582c0,3.529,1.404,5.581,3.745,5.581S665.827-285.248,665.827-288.777z
			 M618.811-249.612c0,2.431-1.926,3.835-4.159,3.835c-1.837,0-3.403-0.847-4.015-2.395l0.792-0.469
			c0.468,1.261,1.638,1.944,3.223,1.944c1.837,0,3.205-1.098,3.205-2.916c0-1.819-1.368-2.917-3.241-2.917v-0.019l-0.018,0.019
			h-0.252l-0.414-0.631l3.187-4.519h-6.157v-0.9h7.257v0.9l-3.044,4.339C617.191-253.141,618.811-251.845,618.811-249.612
			L618.811-249.612z M620.608-252.277c0-3.89,1.693-6.5,4.719-6.5c3.024,0,4.717,2.61,4.717,6.5c0,3.889-1.691,6.5-4.717,6.5
			S620.608-248.388,620.608-252.277z M629.071-252.277c0-3.529-1.404-5.582-3.744-5.582c-2.342,0-3.746,2.053-3.746,5.582
			c0,3.529,1.404,5.581,3.746,5.581C627.667-246.696,629.071-248.748,629.071-252.277z M631.948-252.277c0-3.89,1.693-6.5,4.719-6.5
			c3.024,0,4.718,2.61,4.718,6.5c0,3.889-1.692,6.5-4.718,6.5S631.948-248.388,631.948-252.277z M640.411-252.277
			c0-3.529-1.403-5.582-3.744-5.582c-2.342,0-3.746,2.053-3.746,5.582c0,3.529,1.404,5.581,3.746,5.581
			C639.007-246.696,640.411-248.748,640.411-252.277z M646.222-252.277c0-3.89,1.691-6.5,4.718-6.5s4.717,2.61,4.717,6.5
			c0,3.889-1.69,6.5-4.717,6.5S646.222-248.388,646.222-252.277z M654.685-252.277c0-3.529-1.405-5.582-3.745-5.582
			c-2.341,0-3.745,2.053-3.745,5.582c0,3.529,1.404,5.581,3.745,5.581C653.28-246.696,654.685-248.748,654.685-252.277z
			 M657.562-252.277c0-3.89,1.692-6.5,4.718-6.5c3.026,0,4.717,2.61,4.717,6.5c0,3.889-1.69,6.5-4.717,6.5
			C659.255-245.777,657.562-248.388,657.562-252.277z M666.025-252.277c0-3.529-1.405-5.582-3.745-5.582
			c-2.341,0-3.745,2.053-3.745,5.582c0,3.529,1.404,5.581,3.745,5.581C664.62-246.696,666.025-248.748,666.025-252.277z
			 M620.233-212.122h-1.619v2.646h-0.955v-2.646h-6.787v-0.9l4.789-9.057h1.044l-4.771,9.057h5.726v-3.961h0.955v3.961h1.619
			V-212.122L620.233-212.122z M629.809-212.842c0,2.287-1.818,3.565-4.177,3.565c-2.359,0-4.178-1.278-4.178-3.565
			c0-1.477,0.899-2.61,2.25-3.15c-1.08-0.541-1.836-1.549-1.836-2.881c0-2.233,1.781-3.403,3.764-3.403
			c1.979,0,3.763,1.17,3.763,3.403c0,1.332-0.756,2.34-1.836,2.881C628.909-215.453,629.809-214.319,629.809-212.842z
			 M628.837-212.842c0-1.656-1.242-2.629-3.204-2.629c-1.964,0-3.205,0.973-3.205,2.629c0,1.675,1.241,2.646,3.205,2.646
			C627.594-210.196,628.837-211.168,628.837-212.842z M625.633-216.407c1.585,0,2.809-0.919,2.809-2.467
			c0-1.621-1.224-2.485-2.809-2.485s-2.811,0.864-2.811,2.485C622.823-217.326,624.048-216.407,625.633-216.407z M631.535-215.777
			c0-3.89,1.692-6.5,4.719-6.5c3.025,0,4.717,2.61,4.717,6.5c0,3.889-1.691,6.5-4.717,6.5
			C633.227-209.277,631.535-211.888,631.535-215.777z M639.998-215.777c0-3.529-1.404-5.582-3.744-5.582
			c-2.342,0-3.745,2.053-3.745,5.582c0,3.529,1.403,5.581,3.745,5.581C638.593-210.196,639.998-212.248,639.998-215.777z
			 M645.808-215.777c0-3.89,1.692-6.5,4.718-6.5c3.026,0,4.717,2.61,4.717,6.5c0,3.889-1.69,6.5-4.717,6.5
			C647.501-209.277,645.808-211.888,645.808-215.777z M654.271-215.777c0-3.529-1.405-5.582-3.745-5.582
			c-2.341,0-3.745,2.053-3.745,5.582c0,3.529,1.404,5.581,3.745,5.581C652.866-210.196,654.271-212.248,654.271-215.777z
			 M657.148-215.777c0-3.89,1.692-6.5,4.718-6.5c3.026,0,4.717,2.61,4.717,6.5c0,3.889-1.69,6.5-4.717,6.5
			C658.841-209.277,657.148-211.888,657.148-215.777z M665.611-215.777c0-3.529-1.405-5.582-3.745-5.582
			c-2.341,0-3.745,2.053-3.745,5.582c0,3.529,1.404,5.581,3.745,5.581C664.206-210.196,665.611-212.248,665.611-215.777z
			 M328.812-173.117h-1.369v4.142h-2.881v-12.604h5.042c2.38-0.006,4.314,1.919,4.321,4.299c0,0.007,0,0.015,0,0.022
			c0,1.548-0.938,2.952-2.323,3.655l2.683,4.627h-3.097L328.812-173.117L328.812-173.117z M327.443-175.637h2.161
			c0.792,0,1.44-0.702,1.44-1.62c0-0.919-0.648-1.621-1.44-1.621h-2.161V-175.637z M339.667-171.135
			c0.737,0,1.368-0.289,1.729-0.685l2.161,1.242c-0.882,1.225-2.214,1.854-3.925,1.854c-3.079,0-4.988-2.07-4.988-4.753
			c0-2.684,1.945-4.754,4.79-4.754c2.629,0,4.573,2.035,4.573,4.754c0,0.378-0.036,0.738-0.108,1.08h-6.392
			C337.847-171.46,338.676-171.135,339.667-171.135L339.667-171.135z M341.322-174.413c-0.288-1.045-1.098-1.423-1.909-1.423
			c-1.025,0-1.71,0.505-1.962,1.423H341.322z M357.956-177.978l-2.881,9.003h-2.521l-1.44-4.808l-1.439,4.808h-2.521l-2.881-9.003
			h2.881l1.296,4.825l1.405-4.825h2.521l1.403,4.825l1.296-4.825H357.956L357.956-177.978z M367.909-177.978v9.003h-2.7v-0.847
			c-0.595,0.685-1.478,1.099-2.684,1.099c-2.357,0-4.303-2.07-4.303-4.753c0-2.684,1.945-4.754,4.303-4.754
			c1.207,0,2.089,0.414,2.684,1.099v-0.847H367.909z M365.209-173.476c0-1.351-0.9-2.197-2.144-2.197s-2.143,0.847-2.143,2.197
			s0.899,2.196,2.143,2.196S365.209-172.126,365.209-173.476z M375.288-178.158v3.061c-1.116-0.18-2.7,0.271-2.7,2.053v4.069h-2.701
			v-9.003h2.701v1.603C372.947-177.582,374.153-178.158,375.288-178.158z M385.513-181.579v12.604h-2.701v-0.847
			c-0.594,0.685-1.477,1.099-2.683,1.099c-2.358,0-4.304-2.07-4.304-4.753c0-2.684,1.945-4.754,4.304-4.754
			c1.207,0,2.089,0.414,2.683,1.099v-4.447L385.513-181.579L385.513-181.579z M382.812-173.476c0-1.351-0.9-2.197-2.143-2.197
			c-1.243,0-2.144,0.847-2.144,2.197s0.9,2.196,2.144,2.196C381.912-171.28,382.812-172.126,382.812-173.476z M401.226-177.978
			v9.003h-2.701v-0.847c-0.594,0.685-1.477,1.099-2.683,1.099c-2.358,0-4.304-2.07-4.304-4.753c0-2.684,1.945-4.754,4.304-4.754
			c1.207,0,2.089,0.414,2.683,1.099v-0.847H401.226z M398.525-173.476c0-1.351-0.899-2.197-2.143-2.197s-2.144,0.847-2.144,2.197
			s0.9,2.196,2.144,2.196S398.525-172.126,398.525-173.476z M416.708-174.502v5.527h-2.701v-5.294c0-0.899-0.433-1.476-1.296-1.476
			c-0.9,0-1.404,0.63-1.404,1.692v5.077h-2.701v-5.294c0-0.899-0.432-1.476-1.296-1.476c-0.9,0-1.405,0.63-1.405,1.692v5.077h-2.7
			v-9.003h2.7v0.828c0.414-0.612,1.207-1.08,2.413-1.08c1.063,0,1.854,0.433,2.358,1.188c0.504-0.721,1.333-1.188,2.61-1.188
			C415.357-178.23,416.708-176.753,416.708-174.502L416.708-174.502z M418.107-173.476c0-2.684,2.125-4.754,4.771-4.754
			s4.771,2.07,4.771,4.754c0,2.683-2.125,4.753-4.771,4.753C420.232-168.723,418.107-170.793,418.107-173.476z M424.949-173.476
			c0-1.278-0.899-2.125-2.07-2.125s-2.07,0.847-2.07,2.125c0,1.278,0.9,2.124,2.07,2.124S424.949-172.198,424.949-173.476z
			 M437.694-177.978v9.003h-2.701v-0.847c-0.485,0.667-1.386,1.099-2.573,1.099c-1.819,0-3.367-1.296-3.367-3.727v-5.528h2.701
			v5.132c0,1.116,0.701,1.639,1.565,1.639c0.991,0,1.674-0.576,1.674-1.854v-4.916L437.694-177.978L437.694-177.978z
			 M448.313-174.502v5.527h-2.7v-5.132c0-1.116-0.702-1.638-1.565-1.638c-0.99,0-1.676,0.576-1.676,1.854v4.915h-2.7v-9.003h2.7
			v0.847c0.486-0.666,1.388-1.099,2.575-1.099C446.765-178.23,448.313-176.933,448.313-174.502z M453.587-175.385v3.188
			c0,0.773,0.666,0.846,1.854,0.773v2.449c-3.529,0.36-4.556-0.702-4.556-3.223v-3.188h-1.44v-2.593h1.44v-1.71l2.701-0.811v2.521
			h1.854v2.593L453.587-175.385L453.587-175.385z M470.885-177.978v8.553c0,3.025-2.359,4.304-4.754,4.304
			c-1.872,0-3.438-0.702-4.268-2.179l2.306-1.333c0.342,0.631,0.863,1.135,2.052,1.135c1.262,0,2.035-0.648,2.035-1.927v-0.828
			c-0.595,0.738-1.459,1.17-2.629,1.17c-2.558,0-4.431-2.088-4.431-4.573c0-2.484,1.873-4.573,4.431-4.573
			c1.17,0,2.034,0.433,2.629,1.171v-0.919L470.885-177.978L470.885-177.978z M468.257-173.657c0-1.242-0.9-2.088-2.18-2.088
			c-1.278,0-2.179,0.846-2.179,2.088c0,1.242,0.9,2.089,2.179,2.089C467.356-171.568,468.257-172.415,468.257-173.657z
			 M478.264-178.158v3.061c-1.117-0.18-2.701,0.271-2.701,2.053v4.069h-2.701v-9.003h2.701v1.603
			C475.924-177.582,477.13-178.158,478.264-178.158z M488.489-177.978v9.003h-2.699v-0.847c-0.596,0.685-1.478,1.099-2.684,1.099
			c-2.359,0-4.304-2.07-4.304-4.753c0-2.684,1.943-4.754,4.304-4.754c1.206,0,2.088,0.414,2.684,1.099v-0.847H488.489z
			 M485.79-173.476c0-1.351-0.9-2.197-2.144-2.197s-2.143,0.847-2.143,2.197s0.898,2.196,2.143,2.196
			C484.888-171.28,485.79-172.126,485.79-173.476z M499.108-174.502v5.527h-2.7v-5.132c0-1.116-0.702-1.638-1.565-1.638
			c-0.99,0-1.675,0.576-1.675,1.854v4.915h-2.701v-9.003h2.701v0.847c0.485-0.666,1.387-1.099,2.574-1.099
			C497.56-178.23,499.108-176.933,499.108-174.502z M510.197-181.579v12.604h-2.7v-0.847c-0.595,0.685-1.477,1.099-2.684,1.099
			c-2.358,0-4.303-2.07-4.303-4.753c0-2.684,1.943-4.754,4.303-4.754c1.207,0,2.089,0.414,2.684,1.099v-4.447L510.197-181.579
			L510.197-181.579z M507.497-173.476c0-1.351-0.899-2.197-2.143-2.197s-2.144,0.847-2.144,2.197s0.899,2.196,2.144,2.196
			C506.596-171.28,507.497-172.126,507.497-173.476z M520.094-175.385v3.188c0,0.773,0.666,0.846,1.854,0.773v2.449
			c-3.527,0.36-4.556-0.702-4.556-3.223v-3.188h-1.439v-2.593h1.439v-1.71l2.701-0.811v2.521h1.854v2.593L520.094-175.385
			L520.094-175.385z M522.847-173.476c0-2.684,2.125-4.754,4.771-4.754c2.647,0,4.771,2.07,4.771,4.754
			c0,2.683-2.124,4.753-4.771,4.753C524.972-168.723,522.847-170.793,522.847-173.476z M529.69-173.476
			c0-1.278-0.9-2.125-2.071-2.125s-2.069,0.847-2.069,2.125c0,1.278,0.898,2.124,2.069,2.124
			C528.791-171.352,529.69-172.198,529.69-173.476z M537.159-175.385v3.188c0,0.773,0.666,0.846,1.854,0.773v2.449
			c-3.528,0.36-4.556-0.702-4.556-3.223v-3.188h-1.439v-2.593h1.439v-1.71l2.7-0.811v2.521h1.854v2.593L537.159-175.385
			L537.159-175.385z M549.598-177.978v9.003h-2.701v-0.847c-0.594,0.685-1.477,1.099-2.683,1.099c-2.358,0-4.305-2.07-4.305-4.753
			c0-2.684,1.945-4.754,4.305-4.754c1.206,0,2.089,0.414,2.683,1.099v-0.847H549.598z M546.897-173.476
			c0-1.351-0.9-2.197-2.143-2.197c-1.243,0-2.144,0.847-2.144,2.197s0.9,2.196,2.144,2.196
			C545.997-171.28,546.897-172.126,546.897-173.476z M551.575-182.119h2.701v13.144h-2.701V-182.119z M610.471-181.579v12.604
			h-2.881v-9.561l-2.232,0.612l-0.701-2.467l3.295-1.188H610.471z M616.77-175.277c0-3.89,1.873-6.554,5.132-6.554
			s5.132,2.664,5.132,6.554c0,3.889-1.873,6.554-5.132,6.554S616.77-171.388,616.77-175.277z M624.153-175.277
			c0-2.431-0.737-3.745-2.251-3.745c-1.513,0-2.251,1.314-2.251,3.745c0,2.431,0.738,3.745,2.251,3.745
			C623.416-171.532,624.153-172.846,624.153-175.277z M637.834-170.992h-1.261v2.017h-2.917v-2.017h-5.726v-2.665l4.016-7.922h3.097
			l-4.016,7.922h2.629v-2.7h2.917v2.7h1.261V-170.992z M638.55-175.277c0-3.89,1.873-6.554,5.133-6.554
			c3.258,0,5.131,2.664,5.131,6.554c0,3.889-1.873,6.554-5.131,6.554C640.423-168.723,638.55-171.388,638.55-175.277z
			 M645.932-175.277c0-2.431-0.738-3.745-2.25-3.745c-1.514,0-2.252,1.314-2.252,3.745c0,2.431,0.738,3.745,2.252,3.745
			C645.194-171.532,645.932-172.846,645.932-175.277z M654.03-175.277c0-3.89,1.872-6.554,5.131-6.554
			c3.261,0,5.133,2.664,5.133,6.554c0,3.889-1.872,6.554-5.133,6.554C655.902-168.723,654.03-171.388,654.03-175.277z
			 M661.413-175.277c0-2.431-0.738-3.745-2.252-3.745c-1.512,0-2.25,1.314-2.25,3.745c0,2.431,0.738,3.745,2.25,3.745
			C660.674-171.532,661.413-172.846,661.413-175.277z M665.37-175.277c0-3.89,1.872-6.554,5.132-6.554s5.132,2.664,5.132,6.554
			c0,3.889-1.872,6.554-5.132,6.554S665.37-171.388,665.37-175.277z M672.752-175.277c0-2.431-0.738-3.745-2.251-3.745
			s-2.25,1.314-2.25,3.745c0,2.431,0.737,3.745,2.25,3.745S672.752-172.846,672.752-175.277z M370.768-144.579h3.025l2.179,8.822
			l2.431-8.822h2.34l2.432,8.822l2.178-8.822h3.025l-3.476,12.604h-3.277l-2.052-7.437l-2.053,7.437h-3.277L370.768-144.579
			L370.768-144.579z M388.012-136.476c0-2.684,2.125-4.754,4.771-4.754c2.646,0,4.771,2.07,4.771,4.754
			c0,2.683-2.125,4.753-4.771,4.753C390.137-131.723,388.012-133.793,388.012-136.476z M394.854-136.476
			c0-1.278-0.9-2.125-2.071-2.125s-2.07,0.847-2.07,2.125c0,1.278,0.899,2.124,2.07,2.124S394.854-135.198,394.854-136.476z
			 M404.484-141.158v3.061c-1.117-0.18-2.701,0.271-2.701,2.053v4.069h-2.7v-9.003h2.7v1.603
			C402.143-140.582,403.349-141.158,404.484-141.158z M411.323-131.975l-2.881-3.979v3.979h-2.701v-12.604h2.701v7.544l2.701-3.943
			h3.151l-3.277,4.502l3.367,4.501H411.323L411.323-131.975z M423.292-138.385v3.188c0,0.773,0.668,0.846,1.854,0.773v2.449
			c-3.529,0.36-4.555-0.702-4.555-3.223v-3.188h-1.44v-2.593h1.44v-1.71l2.7-0.811v2.521h1.854v2.593h-1.854V-138.385z
			 M426.405-143.39c0-0.883,0.738-1.621,1.621-1.621s1.62,0.738,1.62,1.621c0,0.882-0.738,1.62-1.62,1.62
			S426.405-142.508,426.405-143.39z M426.676-140.978h2.7v9.003h-2.7V-140.978z M444.86-137.502v5.527h-2.701v-5.294
			c0-0.899-0.432-1.476-1.297-1.476c-0.899,0-1.404,0.63-1.404,1.692v5.077h-2.699v-5.294c0-0.899-0.434-1.476-1.296-1.476
			c-0.9,0-1.405,0.63-1.405,1.692v5.077h-2.701v-9.003h2.701v0.828c0.414-0.612,1.206-1.08,2.413-1.08
			c1.063,0,1.854,0.433,2.357,1.188c0.505-0.721,1.333-1.188,2.61-1.188C443.51-141.23,444.86-139.753,444.86-137.502z
			 M451.283-134.135c0.738,0,1.368-0.289,1.729-0.685l2.161,1.242c-0.884,1.225-2.216,1.854-3.927,1.854
			c-3.077,0-4.986-2.07-4.986-4.753c0-2.684,1.943-4.754,4.79-4.754c2.629,0,4.571,2.035,4.571,4.754
			c0,0.378-0.034,0.738-0.106,1.08h-6.394C449.465-134.46,450.293-134.135,451.283-134.135L451.283-134.135z M452.94-137.413
			c-0.289-1.045-1.099-1.423-1.909-1.423c-1.025,0-1.71,0.505-1.962,1.423H452.94z M470.885-140.978v8.553
			c0,3.025-2.358,4.304-4.753,4.304c-1.872,0-3.438-0.702-4.268-2.179l2.306-1.333c0.342,0.631,0.862,1.135,2.052,1.135
			c1.261,0,2.034-0.648,2.034-1.927v-0.828c-0.595,0.738-1.458,1.17-2.628,1.17c-2.559,0-4.431-2.088-4.431-4.573
			c0-2.484,1.872-4.573,4.431-4.573c1.17,0,2.033,0.433,2.628,1.171v-0.919L470.885-140.978L470.885-140.978z M468.257-136.657
			c0-1.242-0.899-2.088-2.179-2.088c-1.278,0-2.179,0.846-2.179,2.088c0,1.242,0.899,2.089,2.179,2.089
			S468.257-135.415,468.257-136.657z M478.264-141.158v3.061c-1.116-0.18-2.701,0.271-2.701,2.053v4.069h-2.7v-9.003h2.7v1.603
			C475.925-140.582,477.131-141.158,478.264-141.158z M488.489-140.978v9.003h-2.7v-0.847c-0.595,0.685-1.477,1.099-2.683,1.099
			c-2.359,0-4.304-2.07-4.304-4.753c0-2.684,1.943-4.754,4.304-4.754c1.206,0,2.088,0.414,2.683,1.099v-0.847H488.489z
			 M485.789-136.476c0-1.351-0.899-2.197-2.143-2.197s-2.143,0.847-2.143,2.197s0.898,2.196,2.143,2.196
			C484.888-134.28,485.789-135.126,485.789-136.476z M499.109-137.502v5.527h-2.7v-5.132c0-1.116-0.703-1.638-1.565-1.638
			c-0.99,0-1.677,0.576-1.677,1.854v4.915h-2.699v-9.003h2.699v0.847c0.486-0.666,1.388-1.099,2.575-1.099
			C497.561-141.23,499.109-139.933,499.109-137.502z M510.198-144.579v12.604h-2.701v-0.847c-0.594,0.685-1.477,1.099-2.684,1.099
			c-2.357,0-4.303-2.07-4.303-4.753c0-2.684,1.944-4.754,4.303-4.754c1.207,0,2.09,0.414,2.684,1.099v-4.447L510.198-144.579
			L510.198-144.579z M507.497-136.476c0-1.351-0.899-2.197-2.143-2.197s-2.143,0.847-2.143,2.197s0.899,2.196,2.143,2.196
			S507.497-135.126,507.497-136.476z M520.094-138.385v3.188c0,0.773,0.667,0.846,1.854,0.773v2.449
			c-3.528,0.36-4.556-0.702-4.556-3.223v-3.188h-1.44v-2.593h1.44v-1.71l2.7-0.811v2.521h1.854v2.593h-1.854V-138.385z
			 M522.848-136.476c0-2.684,2.124-4.754,4.771-4.754s4.771,2.07,4.771,4.754c0,2.683-2.125,4.753-4.771,4.753
			S522.848-133.793,522.848-136.476z M529.69-136.476c0-1.278-0.9-2.125-2.07-2.125c-1.171,0-2.07,0.847-2.07,2.125
			c0,1.278,0.899,2.124,2.07,2.124C528.79-134.352,529.69-135.198,529.69-136.476z M537.159-138.385v3.188
			c0,0.773,0.666,0.846,1.854,0.773v2.449c-3.528,0.36-4.557-0.702-4.557-3.223v-3.188h-1.438v-2.593h1.438v-1.71l2.701-0.811v2.521
			h1.854v2.593h-1.854V-138.385z M549.598-140.978v9.003h-2.7v-0.847c-0.595,0.685-1.477,1.099-2.683,1.099
			c-2.359,0-4.305-2.07-4.305-4.753c0-2.684,1.944-4.754,4.305-4.754c1.206,0,2.088,0.414,2.683,1.099v-0.847H549.598z
			 M546.898-136.476c0-1.351-0.9-2.197-2.143-2.197c-1.243,0-2.144,0.847-2.144,2.197s0.899,2.196,2.144,2.196
			C545.998-134.28,546.898-135.126,546.898-136.476z M551.576-145.119h2.7v13.144h-2.7V-145.119z M633.258-137.494
			c-0.52,2.003-1.961,2.465-3.487,1.82c-1.416-0.588-1.752-0.714-2.115,0.28l-1.682-0.813c0.519-2.003,1.961-2.465,3.488-1.82
			c1.413,0.588,1.735,0.7,2.114-0.28L633.258-137.494z M643.536-136.17c0,2.611-1.908,4.447-4.682,4.447
			c-2.791,0-4.681-1.836-4.681-4.447c0-0.973,0.271-1.854,0.736-2.557l3.854-5.852h3.313l-2.736,3.979
			C641.844-140.402,643.536-138.619,643.536-136.17L643.536-136.17z M640.655-136.17c0-1.099-0.846-1.746-1.801-1.746
			c-0.972,0-1.8,0.63-1.8,1.746c0,1.116,0.828,1.746,1.8,1.746C639.809-134.424,640.655-135.072,640.655-136.17z M644.433-138.277
			c0-3.89,1.872-6.554,5.132-6.554c3.259,0,5.131,2.664,5.131,6.554c0,3.889-1.872,6.554-5.131,6.554
			C646.305-131.723,644.433-134.388,644.433-138.277z M651.815-138.277c0-2.431-0.738-3.745-2.25-3.745
			c-1.513,0-2.251,1.314-2.251,3.745c0,2.431,0.738,3.745,2.251,3.745C651.077-134.532,651.815-135.846,651.815-138.277z
			 M711.078-323.188v-8.391h0.954v8.391c0,2.053,1.279,3.492,3.655,3.492c2.396,0,3.673-1.439,3.673-3.492v-8.391h0.955v8.391
			c0,2.664-1.854,4.411-4.628,4.411S711.078-320.524,711.078-323.188z M722.508-321.748l0.829-0.486
			c0.432,1.513,1.71,2.538,3.779,2.538c2.106,0,3.169-1.08,3.169-2.521c0-1.513-1.332-2.089-3.259-2.7
			c-2.105-0.685-3.997-1.278-3.997-3.476c0-2.07,1.674-3.385,3.816-3.385c2.071,0,3.438,1.188,4.052,2.646l-0.81,0.45
			c-0.47-1.134-1.441-2.179-3.242-2.179c-1.746,0-2.844,1.026-2.844,2.431c0,1.513,1.276,1.98,3.077,2.575
			c2.232,0.738,4.179,1.44,4.179,3.619c0,2.089-1.64,3.457-4.143,3.457C724.759-318.777,723.083-319.965,722.508-321.748z
			 M744.183-325.277c0,3.475-2.467,6.302-5.942,6.302h-4.733v-12.604h4.733C741.717-331.579,744.183-328.752,744.183-325.277z
			 M743.247-325.277c0-2.989-2.033-5.401-5.006-5.401h-3.78v10.803h3.78C741.213-319.876,743.247-322.288,743.247-325.277z
			 M711.078-286.688v-8.391h0.954v8.391c0,2.053,1.279,3.492,3.655,3.492c2.396,0,3.673-1.439,3.673-3.492v-8.391h0.955v8.391
			c0,2.664-1.854,4.411-4.628,4.411C712.915-282.277,711.078-284.024,711.078-286.688z M722.508-285.248l0.829-0.486
			c0.432,1.513,1.71,2.538,3.779,2.538c2.106,0,3.169-1.08,3.169-2.521c0-1.513-1.331-2.089-3.259-2.7
			c-2.105-0.685-3.997-1.278-3.997-3.476c0-2.07,1.675-3.385,3.816-3.385c2.071,0,3.438,1.188,4.052,2.646l-0.81,0.45
			c-0.47-1.134-1.441-2.179-3.242-2.179c-1.746,0-2.844,1.026-2.844,2.431c0,1.513,1.276,1.98,3.077,2.575
			c2.232,0.738,4.179,1.44,4.179,3.619c0,2.089-1.64,3.457-4.143,3.457C724.759-282.277,723.084-283.465,722.508-285.248z
			 M744.183-288.777c0,3.475-2.467,6.302-5.942,6.302h-4.733v-12.604h4.733C741.717-295.079,744.183-292.252,744.183-288.777z
			 M743.248-288.777c0-2.989-2.034-5.401-5.007-5.401h-3.78v10.803h3.78C741.213-283.376,743.248-285.788,743.248-288.777z
			 M711.079-250.188v-8.391h0.953v8.391c0,2.053,1.279,3.492,3.655,3.492c2.396,0,3.673-1.439,3.673-3.492v-8.391h0.955v8.391
			c0,2.664-1.854,4.411-4.628,4.411C712.915-245.777,711.079-247.524,711.079-250.188z M722.508-248.748l0.829-0.486
			c0.432,1.513,1.71,2.538,3.779,2.538c2.106,0,3.17-1.08,3.17-2.521c0-1.513-1.332-2.089-3.26-2.7
			c-2.105-0.685-3.997-1.278-3.997-3.476c0-2.07,1.675-3.385,3.816-3.385c2.071,0,3.438,1.188,4.052,2.646l-0.81,0.45
			c-0.47-1.134-1.441-2.179-3.242-2.179c-1.746,0-2.844,1.026-2.844,2.431c0,1.513,1.276,1.98,3.078,2.575
			c2.231,0.738,4.178,1.44,4.178,3.619c0,2.089-1.64,3.457-4.143,3.457C724.759-245.777,723.084-246.965,722.508-248.748z
			 M744.183-252.277c0,3.475-2.467,6.302-5.942,6.302h-4.733v-12.604h4.733C741.717-258.579,744.183-255.752,744.183-252.277z
			 M743.248-252.277c0-2.989-2.034-5.401-5.007-5.401h-3.78v10.803h3.78C741.213-246.876,743.248-249.288,743.248-252.277z
			 M711.079-213.688v-8.391h0.953v8.391c0,2.053,1.279,3.492,3.655,3.492c2.396,0,3.673-1.439,3.673-3.492v-8.391h0.955v8.391
			c0,2.664-1.854,4.411-4.628,4.411C712.915-209.277,711.079-211.024,711.079-213.688z M722.508-212.248l0.829-0.486
			c0.432,1.513,1.71,2.538,3.779,2.538c2.106,0,3.17-1.08,3.17-2.521c0-1.513-1.332-2.089-3.26-2.7
			c-2.105-0.685-3.997-1.278-3.997-3.476c0-2.07,1.675-3.385,3.816-3.385c2.071,0,3.439,1.188,4.052,2.646l-0.81,0.45
			c-0.469-1.134-1.441-2.179-3.242-2.179c-1.746,0-2.844,1.026-2.844,2.431c0,1.513,1.276,1.98,3.078,2.575
			c2.231,0.738,4.178,1.44,4.178,3.619c0,2.089-1.639,3.457-4.143,3.457C724.759-209.277,723.084-210.465,722.508-212.248z
			 M744.183-215.777c0,3.475-2.467,6.302-5.942,6.302h-4.733v-12.604h4.733C741.717-222.079,744.183-219.252,744.183-215.777z
			 M743.248-215.777c0-2.989-2.034-5.401-5.006-5.401h-3.781v10.803h3.781C741.213-210.376,743.248-212.788,743.248-215.777z
			 M710.454-173.188v-8.391h0.953v8.391c0,2.053,1.279,3.492,3.655,3.492c2.396,0,3.673-1.439,3.673-3.492v-8.391h0.955v8.391
			c0,2.664-1.854,4.411-4.628,4.411C712.29-168.777,710.454-170.524,710.454-173.188z M721.883-171.748l0.829-0.486
			c0.432,1.513,1.71,2.538,3.78,2.538c2.105,0,3.169-1.08,3.169-2.521c0-1.513-1.332-2.089-3.26-2.7
			c-2.105-0.685-3.996-1.278-3.996-3.476c0-2.07,1.674-3.385,3.815-3.385c2.071,0,3.439,1.188,4.052,2.646l-0.81,0.45
			c-0.469-1.134-1.441-2.179-3.242-2.179c-1.746,0-2.844,1.026-2.844,2.431c0,1.513,1.276,1.98,3.078,2.575
			c2.231,0.738,4.178,1.44,4.178,3.619c0,2.089-1.639,3.457-4.142,3.457C724.134-168.777,722.459-169.965,721.883-171.748z
			 M743.558-175.277c0,3.475-2.467,6.302-5.941,6.302h-4.734v-12.604h4.734C741.092-181.579,743.558-178.752,743.558-175.277z
			 M742.623-175.277c0-2.989-2.034-5.401-5.006-5.401h-3.781v10.803h3.781C740.588-169.876,742.623-172.288,742.623-175.277z
			 M749.981-167.174l7.201-16.205h0.721l-7.201,16.205H749.981z M777.776-174.683v5.708h-0.899v-5.708
			c0-1.71-0.99-2.629-2.396-2.629c-1.512,0-2.701,1.009-2.701,3.313v5.023h-0.898v-5.708c0-1.71-0.919-2.629-2.305-2.629
			c-1.478,0-2.791,1.009-2.791,3.313v5.023h-0.9v-9.003h0.9v1.549c0.667-1.242,1.747-1.747,2.898-1.747
			c1.314,0,2.34,0.648,2.81,1.837c0.647-1.261,1.801-1.837,3.007-1.837C776.409-178.176,777.776-176.933,777.776-174.683
			L777.776-174.683z M779.699-173.476c0-2.665,2.106-4.7,4.735-4.7c2.61,0,4.717,2.035,4.717,4.7c0,2.664-2.105,4.699-4.717,4.699
			C781.805-168.777,779.699-170.812,779.699-173.476z M788.233-173.476c0-2.143-1.655-3.836-3.799-3.836
			c-2.143,0-3.817,1.693-3.817,3.836s1.676,3.835,3.817,3.835C786.577-169.641,788.233-171.334,788.233-173.476z M798.925-174.575
			v5.6h-0.918v-5.6c0-1.656-0.955-2.737-2.646-2.737c-1.766,0-3.15,1.152-3.15,3.583v4.754h-0.9v-9.003h0.9v1.711
			c0.685-1.333,1.837-1.909,3.224-1.909C797.576-178.176,798.925-176.753,798.925-174.575z M803.387-177.095v5.853
			c0,1.584,0.846,1.62,2.682,1.458v0.811c-2.356,0.36-3.601-0.216-3.601-2.269v-5.853h-1.979v-0.883h1.979v-2.25l0.919-0.271v2.521
			h2.682v0.883H803.387z M815.844-174.575v5.6h-0.918v-5.6c0-1.656-0.955-2.737-2.647-2.737c-1.765,0-3.15,1.152-3.15,3.583v4.754
			h-0.9v-12.604h0.9v5.312c0.685-1.333,1.837-1.909,3.224-1.909C814.495-178.176,815.844-176.753,815.844-174.575z M718.069-137.575
			v5.6h-0.918v-5.6c0-1.656-0.955-2.737-2.646-2.737c-1.767,0-3.151,1.152-3.151,3.583v4.754h-0.899v-12.604h0.899v5.312
			c0.686-1.333,1.837-1.909,3.225-1.909C716.719-141.176,718.069-139.753,718.069-137.575z M719.994-136.476
			c0-2.665,2.105-4.7,4.734-4.7c2.61,0,4.718,2.035,4.718,4.7c0,2.664-2.106,4.699-4.718,4.699
			C722.099-131.777,719.994-133.812,719.994-136.476z M728.527-136.476c0-2.143-1.655-3.836-3.799-3.836
			c-2.143,0-3.816,1.693-3.816,3.836s1.675,3.835,3.816,3.835C726.871-132.641,728.527-134.334,728.527-136.476z M738.985-140.978
			v9.003h-0.899v-1.711c-0.685,1.333-1.836,1.909-3.224,1.909c-2.143,0-3.492-1.423-3.492-3.602v-5.6h0.919v5.6
			c0,1.657,0.952,2.737,2.646,2.737c1.764,0,3.15-1.152,3.15-3.583v-4.754L738.985-140.978L738.985-140.978z M745.663-141.104v0.864
			c-1.549,0-3.008,0.954-3.008,3.259v5.006h-0.899v-9.003h0.899v1.765C743.267-140.635,744.438-141.104,745.663-141.104z
			 M753.186-134.334c0,1.477-1.296,2.557-3.223,2.557c-1.801,0-2.988-0.847-3.421-1.999l0.773-0.45
			c0.324,0.973,1.297,1.585,2.646,1.585c1.261,0,2.321-0.559,2.321-1.692c0-2.449-5.454-1.045-5.454-4.285
			c0-1.423,1.225-2.558,3.061-2.558c1.459,0,2.575,0.703,3.062,1.801l-0.757,0.433c-0.377-0.937-1.313-1.369-2.305-1.369
			c-1.17,0-2.16,0.612-2.16,1.693C747.731-136.207,753.186-137.628,753.186-134.334L753.186-134.334z M759.557-130.174l7.201-16.205
			h0.721l-7.202,16.205H759.557z M787.352-137.683v5.708h-0.9v-5.708c0-1.71-0.989-2.629-2.395-2.629
			c-1.513,0-2.701,1.009-2.701,3.313v5.023h-0.899v-5.708c0-1.71-0.919-2.629-2.306-2.629c-1.477,0-2.791,1.009-2.791,3.313v5.023
			h-0.899v-9.003h0.899v1.549c0.666-1.242,1.747-1.747,2.899-1.747c1.313,0,2.341,0.648,2.81,1.837
			c0.647-1.261,1.8-1.837,3.006-1.837C785.983-141.176,787.352-139.933,787.352-137.683L787.352-137.683z M789.274-136.476
			c0-2.665,2.107-4.7,4.736-4.7c2.61,0,4.717,2.035,4.717,4.7c0,2.664-2.105,4.699-4.717,4.699
			C791.382-131.777,789.274-133.812,789.274-136.476z M797.809-136.476c0-2.143-1.656-3.836-3.799-3.836
			c-2.144,0-3.818,1.693-3.818,3.836s1.676,3.835,3.818,3.835C796.152-132.641,797.809-134.334,797.809-136.476z M808.501-137.575
			v5.6h-0.918v-5.6c0-1.656-0.955-2.737-2.647-2.737c-1.765,0-3.151,1.152-3.151,3.583v4.754h-0.899v-9.003h0.899v1.711
			c0.686-1.333,1.838-1.909,3.225-1.909C807.15-141.176,808.501-139.753,808.501-137.575z M812.963-140.095v5.853
			c0,1.584,0.847,1.62,2.683,1.458v0.811c-2.357,0.36-3.602-0.216-3.602-2.269v-5.853h-1.98v-0.883h1.98v-2.25l0.919-0.271v2.521
			h2.683v0.883H812.963z M825.421-137.575v5.6h-0.918v-5.6c0-1.656-0.955-2.737-2.647-2.737c-1.765,0-3.151,1.152-3.151,3.583v4.754
			h-0.899v-12.604h0.899v5.312c0.686-1.333,1.838-1.909,3.225-1.909C824.07-141.176,825.421-139.753,825.421-137.575z"/>
		<g>
			<path fill="#FFFFFF" d="M547.346-426.388l2.389-2.389l-2.828-2.828l-2.389,2.389c-3.015-2.398-6.753-3.703-10.605-3.702
				c-9.446,0-17.133,7.687-17.133,17.135c0,9.447,7.687,17.134,17.133,17.134c9.449,0,17.136-7.687,17.136-17.134
				C551.049-419.635,549.744-423.373,547.346-426.388z M533.913-401.65c-7.793,0-14.133-6.341-14.133-14.134
				c0-7.794,6.34-14.135,14.133-14.135c7.795,0,14.136,6.341,14.136,14.135C548.048-407.991,541.708-401.65,533.913-401.65z"/>
			<path fill="#FFFFFF" d="M533.913-418.909c-0.395,0-0.77,0.081-1.118,0.216l-1.822-1.381l-4.412-3.341l3.213,4.507l1.305,1.83
				c-0.188,0.405-0.287,0.847-0.289,1.294c0,1.726,1.399,3.125,3.125,3.125c1.727,0,3.125-1.399,3.125-3.125
				C537.039-417.51,535.64-418.909,533.913-418.909C533.914-418.909,533.914-418.909,533.913-418.909z M532.352-433.809h3.125
				v-2.292h3.625v-4h-10.375v4h3.625V-433.809z"/>
		</g>
		<g>
			<path fill="#FFFFFF" d="M333.745-412.03c-0.353,0-0.698,0.094-1.004,0.271l-4.416-7.551l4.398-7.655
				c0.299,0.18,0.647,0.283,1.021,0.284c1.109-0.042,1.974-0.976,1.931-2.085c-0.041-1.049-0.882-1.89-1.931-1.93
				c-1.089,0-1.979,0.871-2.004,1.96h-8.803l-2.701-4.68l-1.699-2.943c0.961-0.554,1.29-1.781,0.735-2.741
				c-0.554-0.96-1.781-1.29-2.741-0.736c-0.96,0.554-1.289,1.782-0.735,2.742c0.177,0.306,0.43,0.559,0.735,0.735l-1.699,2.943
				l-2.702,4.68h-8.8c-0.003-1.109-0.904-2.006-2.013-2.003c-1.109,0.002-2.006,0.904-2.003,2.013
				c0.003,1.107,0.9,2.003,2.008,2.003c0.367,0,0.711-0.099,1.006-0.271l4.416,7.684l-4.397,7.523
				c-0.31-0.186-0.663-0.284-1.023-0.284c-1.107,0-2.006,0.898-2.006,2.006c0.001,1.108,0.899,2.006,2.007,2.005
				c1.09,0,1.979-0.87,2.005-1.959h3.398l5.402,0.001l2.702,4.681l1.699,2.941c-0.6,0.348-1.006,0.995-1.006,1.736
				c0.035,1.108,0.963,1.979,2.071,1.944c1.06-0.034,1.911-0.885,1.944-1.944c0-0.741-0.403-1.389-1.004-1.736l1.697-2.941
				l2.703-4.682l5.404,0.001l3.396-0.001c0.002,1.109,0.903,2.006,2.012,2.004c1.109-0.002,2.007-0.903,2.005-2.012
				C335.751-411.133,334.852-412.03,333.745-412.03L333.745-412.03z M322.342-411.051l-0.297,0.518l-2.703,4.682l-1.699,2.941
				l-0.107,0.186l-0.104-0.186l-1.701-2.941l-2.701-4.682l-0.297-0.518h-9.611l0.125-0.22l1.592-2.756l3.251-5.282l-3.251-5.416
				l-1.606-2.784l-0.111-0.189h9.613l0.297-0.517l2.701-4.681l1.701-2.943l0.106-0.185l0.105,0.185l1.699,2.943l2.703,4.681
				l0.297,0.517h9.612l-0.129,0.22l-1.59,2.755l-3.117,5.416l3.117,5.282l1.609,2.785l0.108,0.189H322.342L322.342-411.051z"/>
			<path fill="#FFFFFF" d="M314.155-412.371l0.517,0.894l2.702,4.68l0.171,0.295l0.17-0.295l2.703-4.68l0.516-0.894
				c-1.021,0.504-2.172,0.787-3.389,0.787C316.327-411.584,315.179-411.867,314.155-412.371z M309.879-418.967l-0.609,1.055
				l-2.701,4.68l-0.17,0.295h6.793C311.196-414.31,309.968-416.546,309.879-418.967z M306.737-425.81h-0.34l0.17,0.295l2.701,4.68
				l0.621,1.073c0.161-2.492,1.527-4.749,3.66-6.048H306.737z M325.821-417.913l-0.61-1.056c-0.09,2.421-1.318,4.657-3.313,6.03
				h6.795l-0.172-0.295L325.821-417.913L325.821-417.913z M317.715-431.952l-0.17-0.294l-0.171,0.294l-2.702,4.68l-0.707,1.227
				c1.067-0.564,2.286-0.886,3.579-0.886c1.294,0,2.513,0.321,3.58,0.886l-0.707-1.227L317.715-431.952L317.715-431.952z
				 M325.2-419.762l0.621-1.073l2.699-4.68l0.172-0.295h-7.152C323.672-424.51,325.037-422.253,325.2-419.762z"/>
		</g>
		<g>
			<path fill="#FFFFFF" d="M414.739-415.648c-0.001-3.342,1.766-6.435,4.644-8.133h-8.779c-0.496,2.058-2.104,3.665-4.162,4.16
				v7.939c2.059,0.494,3.666,2.101,4.162,4.158h8.779C416.504-409.217,414.737-412.308,414.739-415.648z M433.62-415.648
				c0.001,3.341-1.765,6.434-4.643,8.131h8.781c0.495-2.058,2.102-3.665,4.16-4.16v-7.94c-2.06-0.494-3.667-2.102-4.16-4.16h-8.781
				C431.855-422.082,433.622-418.989,433.62-415.648z"/>
			<path fill="#FFFFFF" d="M447.964-402.65h-47.568v-26h47.568V-402.65z M403.396-405.65h41.568v-20h-41.568V-405.65z"/>
			<path fill="#FFFFFF" d="M424.567-416.084v-5.131c1.156,0.14,1.971,0.753,2.387,1.783l0.813-0.452
				c-0.563-1.354-1.771-2.112-3.199-2.273v-1.623h-0.848v1.623c-1.916,0.128-3.433,1.392-3.433,3.271
				c0,2.153,1.595,2.818,3.433,3.473v5.361c-1.683-0.087-2.781-0.848-3.197-2.109l-0.826,0.466c0.558,1.557,2.039,2.477,4.023,2.569
				v1.608h0.848v-1.627c2.064-0.197,3.51-1.516,3.506-3.418C428.073-414.71,426.413-415.431,424.567-416.084L424.567-416.084z
				 M423.72-416.388c-1.424-0.521-2.469-1.066-2.476-2.492c0-1.26,0.994-2.217,2.476-2.351V-416.388z M424.573-410.084v-5.04
				c1.482,0.524,2.531,1.12,2.531,2.563C427.104-411.256,426.2-410.261,424.573-410.084z"/>
		</g>
		<g>
			<path fill="#FFFFFF" d="M625.509-419.781c-0.001-3.342,1.765-6.435,4.643-8.133h-8.779c-0.495,2.059-2.103,3.666-4.161,4.16
				v7.939c2.058,0.494,3.665,2.101,4.161,4.158h8.779C627.273-413.351,625.507-416.441,625.509-419.781z M644.389-419.781
				c0,3.341-1.766,6.433-4.644,8.131h8.781c0.495-2.058,2.103-3.665,4.16-4.16v-7.941c-2.059-0.494-3.667-2.101-4.16-4.16h-8.781
				C642.625-426.215,644.391-423.122,644.389-419.781z"/>
			<path fill="#FFFFFF" d="M658.733-406.783h-47.568v-26h47.568V-406.783z M614.165-409.783h41.568v-20h-41.568V-409.783z"/>
			<path fill="#FFFFFF" d="M659.733-428.65v23h-44.568v3h47.568v-26H659.733z"/>
			<path fill="#FFFFFF" d="M635.442-420.216v-5.131c1.158,0.14,1.971,0.753,2.387,1.783l0.814-0.452
				c-0.564-1.354-1.771-2.112-3.201-2.274v-1.623h-0.848v1.623c-1.914,0.128-3.433,1.392-3.433,3.272
				c0,2.153,1.595,2.818,3.433,3.473v5.361c-1.68-0.087-2.779-0.848-3.197-2.109l-0.824,0.466c0.556,1.557,2.037,2.477,4.021,2.569
				v1.608h0.848v-1.627c2.066-0.197,3.51-1.516,3.508-3.418C638.95-418.842,637.288-419.564,635.442-420.216L635.442-420.216z
				 M634.594-420.521c-1.424-0.522-2.469-1.066-2.474-2.492c0-1.26,0.992-2.217,2.474-2.351V-420.521z M635.448-414.216v-5.04
				c1.484,0.524,2.531,1.12,2.531,2.563C637.979-415.389,637.077-414.394,635.448-414.216L635.448-414.216z"/>
		</g>
	</g>
	<circle fill="#FFFFFF" cx="418.042" cy="-319.703" r="0.799"/>
	<circle fill="#FFFFFF" cx="421.608" cy="-283.022" r="0.799"/>
	<circle fill="#FFFFFF" cx="418.104" cy="-246.599" r="0.799"/>
	<circle fill="#FFFFFF" cx="418.542" cy="-210.213" r="0.799"/>
	<circle fill="#FFFFFF" cx="638.292" cy="-319.495" r="0.799"/>
	<circle fill="#FFFFFF" cx="643.834" cy="-283.161" r="0.799"/>
	<circle fill="#FFFFFF" cx="643.993" cy="-246.703" r="0.799"/>
	<circle fill="#FFFFFF" cx="643.389" cy="-210.151" r="0.799"/>
	<circle fill="#FFFFFF" cx="651.51" cy="-170.171" r="1.413"/>
</g>
</svg>
