<?xml version="1.0" encoding="utf-8"?>
<!-- Generator: Adobe Illustrator 16.0.0, SVG Export Plug-In . SVG Version: 6.00 Build 0)  -->
<!DOCTYPE svg PUBLIC "-//W3C//DTD SVG 1.1//EN" "http://www.w3.org/Graphics/SVG/1.1/DTD/svg11.dtd">
<svg version="1.1" id="Layer_1" xmlns="http://www.w3.org/2000/svg" xmlns:xlink="http://www.w3.org/1999/xlink" x="0px" y="0px"
	 width="138.195px" height="138.197px" viewBox="0 0 138.195 138.197" enable-background="new 0 0 138.195 138.197"
	 xml:space="preserve">
<g>
	<g>
		
			<linearGradient id="SVGID_1_" gradientUnits="userSpaceOnUse" x1="-534.9739" y1="-765.6729" x2="-396.7776" y2="-765.6729" gradientTransform="matrix(-1 0 0 -0.8257 -396.7778 -563.1167)">
			<stop  offset="0" style="stop-color:#4B48BF"/>
			<stop  offset="1" style="stop-color:#A14B8A"/>
		</linearGradient>
		<ellipse opacity="0.4" fill="url(#SVGID_1_)" enable-background="new    " cx="69.098" cy="69.099" rx="69.098" ry="57.051"/>
		
			<linearGradient id="SVGID_2_" gradientUnits="userSpaceOnUse" x1="242.2888" y1="175.667" x2="380.4871" y2="175.667" gradientTransform="matrix(0 1 0.8257 0 -75.95 -242.2888)">
			<stop  offset="0" style="stop-color:#4B48BF"/>
			<stop  offset="1" style="stop-color:#A14B8A"/>
		</linearGradient>
		<ellipse opacity="0.4" fill="url(#SVGID_2_)" enable-background="new    " cx="69.098" cy="69.099" rx="57.051" ry="69.099"/>
		
			<linearGradient id="SVGID_3_" gradientUnits="userSpaceOnUse" x1="-214.0969" y1="568.1045" x2="-99.8186" y2="568.1045" gradientTransform="matrix(1 0 0 1 226.0557 -499.0068)">
			<stop  offset="0" style="stop-color:#4B48BF"/>
			<stop  offset="1" style="stop-color:#A14B8A"/>
		</linearGradient>
		<circle opacity="0.6" fill="url(#SVGID_3_)" enable-background="new    " cx="69.098" cy="69.098" r="57.139"/>
		
			<linearGradient id="SVGID_4_" gradientUnits="userSpaceOnUse" x1="-202.0168" y1="568.1045" x2="-111.8987" y2="568.1045" gradientTransform="matrix(1 0 0 1 226.0557 -499.0068)">
			<stop  offset="0" style="stop-color:#4B48BF"/>
			<stop  offset="1" style="stop-color:#A14B8A"/>
		</linearGradient>
		<circle opacity="0.8" fill="url(#SVGID_4_)" enable-background="new    " cx="69.098" cy="69.098" r="45.059"/>
	</g>
</g>
<g>
	<path fill-rule="evenodd" clip-rule="evenodd" fill="#FFFFFF" d="M101.009,64.208c-0.007-0.002-0.012-0.003-0.02-0.005
		c-1.031-0.375-2.073-0.686-3.122-0.957c-1.195-0.362-2.318-0.699-3.371-1.009c-1.803-0.889-2.614-2.332-3.193-4.563
		c-1.189-4.577-2.593-9.125-4.313-13.527c-0.855-2.191-2.379-4.253-4.023-5.967c-2.014-2.098-4.522-2.105-6.841-0.193
		c-0.936,0.772-1.76,1.678-2.67,2.483c-1.289,1.141-2.55,1.812-3.755,1.915c-1.204-0.103-2.463-0.774-3.754-1.915
		c-0.911-0.805-1.734-1.71-2.669-2.483c-2.318-1.912-4.828-1.905-6.841,0.193c-1.644,1.713-3.168,3.776-4.023,5.967
		c-1.72,4.402-3.124,8.95-4.313,13.527c-0.58,2.23-1.392,3.674-3.193,4.563c-1.053,0.311-2.177,0.647-3.372,1.009
		c-1.049,0.271-2.091,0.582-3.122,0.957c-0.007,0.002-0.013,0.003-0.02,0.005C5.959,74.225,51.934,76.32,65.912,76.717
		c0.409,0.012,0.818,0.023,1.227,0.032c1.414,0.036,2.321,0.049,2.536,0.053l0,0c0,0,0.016,0,0.025,0c0.011,0,0.026,0,0.026,0l0,0
		c0.215-0.004,1.12-0.017,2.535-0.053c0.409-0.009,0.818-0.021,1.227-0.032C87.467,76.32,133.441,74.225,101.009,64.208z"/>
	<path fill-rule="evenodd" clip-rule="evenodd" fill="#FFFFFF" d="M94.732,80.699c-1.53,0-3.052,0-4.574,0
		c-6.864,0-13.662,0-20.432,0c-0.017,0-0.035,0-0.052,0c-6.77,0-13.567,0-20.432,0c-1.522,0-3.044,0-4.575,0h-0.947
		c0,0-1.637,25.564,16.306,17.507v-0.007c1.409-0.598,2.761-1.34,3.945-2.228c1.977-1.482,3.851-2.198,5.728-2.228
		c1.878,0.029,3.752,0.745,5.729,2.228c1.183,0.888,2.535,1.63,3.944,2.228l0.001,0.007c17.942,8.058,16.305-17.507,16.305-17.507
		H94.732z M56.125,93.018c-3.253-1.044-3.979-3.665-3.973-7.408c4.142,1.122,7.754,2.1,11.517,3.118
		C61.897,91.945,58.509,93.784,56.125,93.018z M83.275,93.018c-2.384,0.767-5.771-1.072-7.544-4.29
		c3.763-1.019,7.376-1.996,11.518-3.118C87.254,89.353,86.529,91.974,83.275,93.018z"/>
</g>
</svg>
