<?xml version="1.0" encoding="utf-8"?>
<!-- Generator: Adobe Illustrator 16.0.0, SVG Export Plug-In . SVG Version: 6.00 Build 0)  -->
<!DOCTYPE svg PUBLIC "-//W3C//DTD SVG 1.1//EN" "http://www.w3.org/Graphics/SVG/1.1/DTD/svg11.dtd">
<svg version="1.1" id="Layer_1" xmlns="http://www.w3.org/2000/svg" xmlns:xlink="http://www.w3.org/1999/xlink" x="0px" y="0px"
	 width="230px" height="223.227px" viewBox="258.898 -53.402 230 223.227" enable-background="new 258.898 -53.402 230 223.227"
	 xml:space="preserve">
<g>
	<g>
		
			<linearGradient id="SVGID_1_" gradientUnits="userSpaceOnUse" x1="-4361.3638" y1="-1509.4856" x2="-4244.9956" y2="-1509.4856" gradientTransform="matrix(-4.371139e-008 -1 -1 4.371139e-008 -1134.6462 -4249.7061)">
			<stop  offset="0" style="stop-color:#706DCB;stop-opacity:0"/>
			<stop  offset="1" style="stop-color:#706DCB;stop-opacity:0.7"/>
		</linearGradient>
		<circle fill="url(#SVGID_1_)" cx="374.838" cy="53.473" r="58.184"/>
		<g>
			<g>
				<path fill="#FFFFFF" d="M448.116,86.67c-1.654,0-3.209,0.457-4.544,1.229l-19.957-34.135l19.88-34.601
					c1.353,0.81,2.932,1.279,4.619,1.285c5.015-0.005,9.073-4.066,9.073-9.078c0-5.013-4.06-9.07-9.073-9.07
					c-4.937,0-8.945,3.944-9.058,8.858h-39.792l-12.213-21.15l-7.677-13.304c2.709-1.566,4.54-4.492,4.54-7.852
					c0-5.011-4.066-9.069-9.074-9.069c-5.011,0-9.073,4.059-9.073,9.069c0,3.359,1.832,6.284,4.542,7.852l-7.681,13.304
					L350.415,11.16h-39.777c-0.021-4.995-4.075-9.039-9.073-9.039c-5.013,0-9.07,4.062-9.074,9.071c0,5.014,4.059,9.067,9.074,9.067
					c1.651,0,3.211-0.448,4.547-1.223l19.955,34.729L306.19,87.773c-1.359-0.811-2.934-1.279-4.626-1.279
					c-5.013,0-9.074,4.057-9.074,9.07c0,5.015,4.061,9.074,9.074,9.074c4.938,0,8.952-3.948,9.063-8.865h15.358l24.428,0.003
					l12.215,21.155l7.682,13.301c-2.712,1.568-4.543,4.496-4.543,7.851c0,5.012,4.062,9.071,9.074,9.071
					c5.009,0,9.074-4.061,9.074-9.071c0-3.354-1.833-6.281-4.541-7.851l7.674-13.301l12.218-21.158l24.425,0.003l15.356-0.003
					c0.016,4.994,4.068,9.044,9.067,9.044c5.015,0,9.073-4.06,9.073-9.071C457.189,90.733,453.129,86.67,448.116,86.67z
					 M396.566,91.093l-1.349,2.339l-12.214,21.159l-7.688,13.299l-0.478,0.838l-0.479-0.838l-7.688-13.299L354.46,93.433
					l-1.348-2.338h-43.445l0.568-0.989l7.19-12.461l14.699-23.879L317.428,29.29l-7.268-12.592l-0.496-0.86h43.447l1.348-2.338
					L366.67-7.653l7.687-13.305l0.484-0.834l0.476,0.834L383-7.653L395.22,13.5l1.347,2.338h43.448l-0.575,0.993l-7.192,12.458
					l-14.09,24.476l14.09,23.879l7.274,12.593l0.493,0.857L396.566,91.093L396.566,91.093z"/>
				<path fill="#FFFFFF" d="M359.565,85.126l2.332,4.046l12.216,21.154l0.765,1.331l0.769-1.331l12.22-21.154l2.333-4.046
					c-4.62,2.281-9.816,3.563-15.32,3.563C369.383,88.691,364.184,87.408,359.565,85.126z"/>
				<path fill="#FFFFFF" d="M340.227,55.315l-2.756,4.768l-12.209,21.152l-0.77,1.332h1.536h24.428h4.747
					C346.468,76.541,340.645,66.621,340.227,55.315z"/>
				<path fill="#FFFFFF" d="M326.029,24.382h-1.535l0.769,1.33l12.209,21.153l2.806,4.854c0.753-11.585,7.184-21.619,16.55-27.336
					h-6.369L326.029,24.382L326.029,24.382z"/>
				<path fill="#FFFFFF" d="M412.292,60.082l-2.756-4.77c-0.418,11.306-6.251,21.228-14.976,27.254h4.747h24.43h1.537l-0.771-1.334
					L412.292,60.082z"/>
				<path fill="#FFFFFF" d="M375.647-3.38l-0.769-1.331l-0.766,1.331l-12.215,21.155l-3.201,5.544
					c4.83-2.554,10.338-4.005,16.182-4.005c5.853,0,11.356,1.452,16.189,4.005l-3.201-5.544L375.647-3.38z"/>
				<path fill="#FFFFFF" d="M409.488,51.724l2.805-4.856L424.5,25.712l0.771-1.329h-1.536h-24.43h-6.368
					C402.297,30.101,408.738,40.137,409.488,51.724z"/>
			</g>
			<g>
				<g>
					<path fill="#FFFFFF" d="M383.653,47.29c0-1.51-1.004-2.601-2.563-2.601h-12.628v5.208h12.628
						C382.603,49.898,383.653,48.807,383.653,47.29z"/>
					<path fill="#FFFFFF" d="M381.934,55.862h-13.472v5.632h13.472c1.679,0,2.772-1.178,2.772-2.815S383.614,55.862,381.934,55.862z
						"/>
					<path fill="#FFFFFF" d="M374.841,25.086c-15.651,0-28.383,12.733-28.383,28.382c0,15.65,12.73,28.381,28.383,28.381
						c15.646,0,28.379-12.731,28.379-28.381C403.218,37.821,390.488,25.086,374.841,25.086z M381.934,67.791h-1.018v5.461h-4.963
						v-5.461h-2.508v5.461h-4.959v-5.456h-9.896v-6.272h3.147v-16.85h-3.147v-6.271v-0.018h9.896v-5.455h4.959v5.455h2.508v-5.455
						h4.963v5.455h0.173c5.127,0,9.286,3.32,9.286,8.406c0,2.433-0.966,4.367-2.563,5.756c2.188,1.385,3.614,3.65,3.614,6.634
						C391.429,64.395,387.185,67.791,381.934,67.791z"/>
				</g>
			</g>
		</g>
		
			<linearGradient id="SVGID_2_" gradientUnits="userSpaceOnUse" x1="314.002" y1="-751.2634" x2="365.6914" y2="-751.2634" gradientTransform="matrix(1 0 0 -1 0 -760.5757)">
			<stop  offset="0" style="stop-color:#FFFFFF;stop-opacity:0"/>
			<stop  offset="1" style="stop-color:#FFFFFF"/>
		</linearGradient>
		<path fill="url(#SVGID_2_)" d="M365.637-23.146c-0.133-0.45-0.496-0.794-0.951-0.903l-14.629-3.528
			c-0.706-0.17-1.417,0.263-1.585,0.969c-0.171,0.706,0.265,1.416,0.967,1.585l9.418,2.271
			C339.991-18.611,323.922-6.92,314.002,8.99h3.119c9.771-14.857,25.197-25.678,43.193-29.371l-7.355,7.788
			c-0.498,0.526-0.475,1.359,0.053,1.856c0.255,0.239,0.578,0.358,0.901,0.358c0.351,0,0.699-0.139,0.956-0.412l10.463-11.08
			C365.655-22.211,365.77-22.697,365.637-23.146z"/>
		
			<linearGradient id="SVGID_3_" gradientUnits="userSpaceOnUse" x1="739.959" y1="2675.2424" x2="791.6484" y2="2675.2424" gradientTransform="matrix(0.4755 0.8797 0.8797 -0.4755 -2305.6138 590.4793)">
			<stop  offset="0" style="stop-color:#FFFFFF;stop-opacity:0"/>
			<stop  offset="1" style="stop-color:#FFFFFF"/>
		</linearGradient>
		<path fill="url(#SVGID_3_)" d="M436.37,8.188c0.331-0.332,0.463-0.813,0.341-1.267l-3.852-14.547
			c-0.188-0.702-0.903-1.12-1.604-0.934c-0.702,0.187-1.12,0.906-0.935,1.606l2.479,9.365
			c-12.614-14.627-30.537-23.202-49.252-24.365l1.483,2.745c17.715,1.53,34.568,9.954,46.377,24.027L421.06,2.054
			c-0.702-0.187-1.422,0.229-1.607,0.93c-0.093,0.337-0.041,0.68,0.112,0.964c0.166,0.308,0.451,0.548,0.816,0.646l14.727,3.936
			C435.555,8.649,436.039,8.521,436.37,8.188z"/>
		
			<linearGradient id="SVGID_4_" gradientUnits="userSpaceOnUse" x1="-1964.1558" y1="4565.8809" x2="-1912.4688" y2="4565.8809" gradientTransform="matrix(-0.5296 0.8483 0.8483 0.5296 -4452.4971 -718.6846)">
			<stop  offset="0" style="stop-color:#FFFFFF;stop-opacity:0"/>
			<stop  offset="1" style="stop-color:#FFFFFF"/>
		</linearGradient>
		<path fill="url(#SVGID_4_)" d="M445.344,84.337c0.451,0.125,0.936,0,1.271-0.326l10.742-10.54c0.515-0.51,0.525-1.342,0.015-1.859
			c-0.507-0.518-1.338-0.525-1.857-0.018l-6.913,6.786c6.479-18.196,5.073-38.019-3.171-54.859l-1.65,2.647
			c7.425,16.155,8.437,34.971,2.04,52.191l-2.71-10.362c-0.188-0.701-0.902-1.121-1.606-0.938c-0.337,0.089-0.608,0.302-0.781,0.575
			c-0.186,0.297-0.255,0.665-0.157,1.027l3.856,14.744C444.54,83.859,444.893,84.213,445.344,84.337z"/>
		
			<linearGradient id="SVGID_5_" gradientUnits="userSpaceOnUse" x1="-5085.6318" y1="2941.342" x2="-5033.9429" y2="2941.342" gradientTransform="matrix(-0.999 -0.0456 -0.0456 0.999 -4510.4897 -3052.2168)">
			<stop  offset="0" style="stop-color:#FFFFFF;stop-opacity:0"/>
			<stop  offset="1" style="stop-color:#FFFFFF"/>
		</linearGradient>
		<path fill="url(#SVGID_5_)" d="M383.646,129.55c0.113,0.455,0.461,0.814,0.909,0.945l14.452,4.192
			c0.697,0.201,1.427-0.196,1.629-0.895c0.201-0.697-0.196-1.426-0.896-1.629l-9.304-2.699
			c19.036-3.275,35.618-14.221,46.257-29.662l-3.116-0.142c-10.439,14.393-26.341,24.5-44.486,27.37l7.702-7.447
			c0.521-0.502,0.537-1.334,0.032-1.857c-0.243-0.252-0.563-0.383-0.885-0.397c-0.35-0.019-0.701,0.104-0.974,0.369l-10.958,10.59
			C383.672,128.615,383.535,129.095,383.646,129.55z"/>
		
			<linearGradient id="SVGID_6_" gradientUnits="userSpaceOnUse" x1="-5286.3311" y1="-293.7253" x2="-5234.644" y2="-293.7253" gradientTransform="matrix(-0.4681 -0.8837 -0.8837 0.4681 -2383.9951 -4396.0059)">
			<stop  offset="0" style="stop-color:#FFFFFF;stop-opacity:0"/>
			<stop  offset="1" style="stop-color:#FFFFFF"/>
		</linearGradient>
		<path fill="url(#SVGID_6_)" d="M313.708,98.879c-0.335,0.327-0.471,0.81-0.353,1.264l3.729,14.579
			c0.181,0.701,0.896,1.127,1.6,0.947s1.127-0.896,0.947-1.601l-2.399-9.383c12.487,14.733,30.343,23.458,49.045,24.778l-1.46-2.756
			c-17.701-1.681-34.484-10.244-46.174-24.417l10.326,2.853c0.699,0.192,1.424-0.217,1.616-0.916
			c0.093-0.337,0.046-0.68-0.104-0.966c-0.163-0.309-0.448-0.552-0.813-0.653L314.98,98.55
			C314.528,98.427,314.043,98.55,313.708,98.879z"/>
		
			<linearGradient id="SVGID_7_" gradientUnits="userSpaceOnUse" x1="-5525.2329" y1="-36.1438" x2="-5473.5405" y2="-36.1438" gradientTransform="matrix(-0.9648 -0.2628 0.2628 -0.9648 -5010.9478 -1418.0261)">
			<stop  offset="0" style="stop-color:#FFFFFF;stop-opacity:0"/>
			<stop  offset="1" style="stop-color:#FFFFFF"/>
		</linearGradient>
		<path fill="url(#SVGID_7_)" d="M264.182,41.977c0.246-0.397,0.688-0.635,1.156-0.621l15.042,0.439
			c0.722,0.021,1.295,0.626,1.274,1.353c-0.021,0.725-0.627,1.297-1.353,1.273l-9.682-0.281
			c17.11,8.952,29.541,24.456,34.937,42.413l-3.011-0.819c-5.521-16.9-17.562-31.396-33.953-39.69l5.048,9.447
			c0.344,0.642,0.102,1.438-0.541,1.778c-0.306,0.164-0.648,0.194-0.963,0.109c-0.339-0.092-0.638-0.316-0.813-0.647l-7.187-13.44
			C263.919,42.876,263.936,42.376,264.182,41.977z"/>
	</g>
	<g>
		<path fill="#FFFFFF" d="M362.104-51.704v1.364h2.628v1.556h-2.628v2.597h-1.615v-7.072h4.294v1.556H362.104z"/>
		<path fill="#FFFFFF" d="M369.584-47.299h-2.627l-0.354,1.111h-1.768l2.404-7.072h2.062l2.404,7.072h-1.769L369.584-47.299z
			 M369.099-48.814l-0.829-2.597l-0.827,2.597H369.099z"/>
		<path fill="#FFFFFF" d="M371.76-49.724c0-2.082,1.545-3.678,3.679-3.678c1.281,0,2.413,0.637,3.03,1.637l-1.395,0.81
			c-0.314-0.546-0.919-0.87-1.637-0.87c-1.255,0-2.063,0.839-2.063,2.102c0,1.264,0.809,2.103,2.063,2.103
			c0.718,0,1.333-0.323,1.637-0.869l1.395,0.809c-0.605,1-1.737,1.638-3.03,1.638C373.305-46.046,371.76-47.643,371.76-49.724z"/>
		<path fill="#FFFFFF" d="M383.98-51.704h-1.818v5.517h-1.617v-5.517h-1.818v-1.556h5.255L383.98-51.704L383.98-51.704z"/>
		<path fill="#FFFFFF" d="M384.134-47.794l1.395-0.809c0.253,0.585,0.688,0.979,1.485,0.979c0.768,0,0.959-0.303,0.959-0.576
			c0-0.434-0.403-0.606-1.464-0.898c-1.053-0.293-2.082-0.798-2.082-2.151c0-1.364,1.151-2.153,2.374-2.153
			c1.162,0,2.072,0.556,2.587,1.597l-1.363,0.799c-0.243-0.506-0.575-0.818-1.224-0.818c-0.505,0-0.759,0.252-0.759,0.536
			c0,0.323,0.173,0.545,1.273,0.879c1.071,0.323,2.273,0.697,2.273,2.192c0,1.363-1.092,2.173-2.628,2.173
			C385.478-46.046,384.528-46.753,384.134-47.794z"/>
	</g>
	<g>
		<path fill="#FFFFFF" d="M443.542-6.11c0-2.082,1.647-3.678,3.678-3.678c2.031,0,3.679,1.597,3.679,3.678s-1.647,3.678-3.679,3.678
			C445.189-2.432,443.542-4.029,443.542-6.11z M449.28-6.11c0-1.263-0.909-2.102-2.062-2.102c-1.151,0-2.062,0.838-2.062,2.102
			c0,1.263,0.91,2.102,2.062,2.102C448.371-4.009,449.28-4.847,449.28-6.11z"/>
		<path fill="#FFFFFF" d="M453.427-8.09v1.363h2.627v1.557h-2.627v2.597h-1.616v-7.073h4.293v1.557H453.427z"/>
		<path fill="#FFFFFF" d="M458.684-8.09v1.363h2.627v1.557h-2.627v2.597h-1.616v-7.073h4.295v1.557H458.684z"/>
		<path fill="#FFFFFF" d="M463.94-9.646v7.073h-1.616v-7.073H463.94z"/>
		<path fill="#FFFFFF" d="M464.851-6.11c0-2.082,1.547-3.678,3.679-3.678c1.284,0,2.415,0.637,3.029,1.637l-1.394,0.81
			c-0.313-0.547-0.92-0.869-1.637-0.869c-1.252,0-2.062,0.838-2.062,2.102c0,1.263,0.81,2.102,2.062,2.102
			c0.717,0,1.335-0.323,1.637-0.868l1.394,0.808c-0.604,1-1.735,1.637-3.029,1.637C466.397-2.432,464.851-4.029,464.851-6.11z"/>
		<path fill="#FFFFFF" d="M476.768-4.13v1.557h-4.445v-7.073h4.395v1.557h-2.776v1.172h2.524v1.536h-2.524v1.252H476.768z"/>
		<path fill="#FFFFFF" d="M480.065-4.897h-0.77v2.324h-1.615v-7.073h2.828c1.345,0,2.425,1.081,2.425,2.425
			c0,0.869-0.524,1.657-1.303,2.052l1.505,2.597h-1.736L480.065-4.897z M479.296-6.312h1.213c0.444,0,0.809-0.394,0.809-0.909
			c0-0.515-0.363-0.908-0.809-0.908h-1.213V-6.312z"/>
		<path fill="#FFFFFF" d="M483.442-4.18l1.395-0.809c0.254,0.586,0.688,0.979,1.486,0.979c0.767,0,0.959-0.304,0.959-0.576
			c0-0.435-0.404-0.606-1.464-0.899c-1.054-0.293-2.082-0.798-2.082-2.152c0-1.363,1.151-2.151,2.374-2.151
			c1.161,0,2.07,0.556,2.587,1.597l-1.364,0.798c-0.243-0.505-0.575-0.817-1.223-0.817c-0.505,0-0.759,0.252-0.759,0.536
			c0,0.322,0.173,0.545,1.272,0.879c1.072,0.322,2.274,0.696,2.274,2.191c0,1.364-1.093,2.172-2.628,2.172
			C484.786-2.432,483.835-3.139,483.442-4.18z"/>
	</g>
	<g>
		<path fill="#FFFFFF" d="M443.239,111.257h1.767l1.567,5.203l1.565-5.203h1.768l-2.304,7.072h-2.062L443.239,111.257z"/>
		<path fill="#FFFFFF" d="M454.962,116.774v1.556h-4.446v-7.072h4.396v1.556h-2.778v1.172h2.525v1.535h-2.525v1.254H454.962z"/>
		<path fill="#FFFFFF" d="M458.258,116.007h-0.768v2.322h-1.617v-7.072h2.829c1.344,0,2.425,1.082,2.425,2.425
			c0,0.869-0.524,1.656-1.303,2.051l1.506,2.597h-1.738L458.258,116.007z M457.491,114.591h1.212c0.445,0,0.81-0.393,0.81-0.908
			c0-0.515-0.363-0.91-0.81-0.91h-1.212V114.591z"/>
		<path fill="#FFFFFF" d="M468.356,114.794c0,2-1.485,3.535-3.437,3.535h-2.829v-7.072h2.829
			C466.871,111.257,468.356,112.794,468.356,114.794z M466.8,114.794c0-1.213-0.769-1.98-1.88-1.98h-1.213v3.961h1.213
			C466.032,116.774,466.8,116.007,466.8,114.794z"/>
		<path fill="#FFFFFF" d="M470.885,111.257v7.072h-1.616v-7.072H470.885z"/>
		<path fill="#FFFFFF" d="M471.796,114.794c0-2.082,1.546-3.677,3.678-3.677c1.284,0,2.415,0.636,3.03,1.636l-1.394,0.809
			c-0.313-0.547-0.92-0.869-1.638-0.869c-1.252,0-2.061,0.839-2.061,2.103c0,1.262,0.809,2.102,2.061,2.102
			c0.718,0,1.335-0.323,1.638-0.869l1.394,0.81c-0.604,1-1.736,1.637-3.03,1.637C473.342,118.472,471.796,116.876,471.796,114.794z"
			/>
		<path fill="#FFFFFF" d="M484.015,112.813h-1.817v5.517h-1.616v-5.517h-1.819v-1.556h5.254L484.015,112.813L484.015,112.813z"/>
	</g>
	<g>
		<path fill="#FFFFFF" d="M260.516-17.621v7.073h-1.617v-7.073H260.516z"/>
		<path fill="#FFFFFF" d="M267.287-17.621v7.073h-1.212l-2.729-3.84v3.84h-1.617v-7.073h1.213l2.729,3.839v-3.839H267.287z"/>
		<path fill="#FFFFFF" d="M273.251-16.065h-1.817v5.518h-1.617v-5.518h-1.817v-1.556h5.253L273.251-16.065L273.251-16.065z"/>
		<path fill="#FFFFFF" d="M278.408-12.105v1.558h-4.446v-7.073h4.396v1.556h-2.777v1.172h2.525v1.536h-2.525v1.252H278.408z"/>
		<path fill="#FFFFFF" d="M281.705-12.872h-0.77v2.324h-1.615v-7.073h2.828c1.345,0,2.426,1.081,2.426,2.425
			c0,0.869-0.525,1.657-1.305,2.051l1.506,2.598h-1.737L281.705-12.872z M280.936-14.287h1.213c0.445,0,0.81-0.395,0.81-0.909
			s-0.362-0.909-0.81-0.909h-1.213V-14.287z"/>
		<path fill="#FFFFFF" d="M291.094-17.621v7.073h-1.213l-2.729-3.84v3.84h-1.615v-7.073h1.212l2.728,3.839v-3.839H291.094z"/>
		<path fill="#FFFFFF" d="M296.756-12.105v1.558h-4.445v-7.073h4.396v1.556h-2.778v1.172h2.526v1.536h-2.526v1.252H296.756z"/>
		<path fill="#FFFFFF" d="M302.417-16.065H300.6v5.518h-1.617v-5.518h-1.818v-1.556h5.254L302.417-16.065L302.417-16.065z"/>
		<path fill="#FFFFFF" d="M273.254-4.795v-4.79h1.616v4.646c0,0.536,0.253,0.99,1.112,0.99c0.856,0,1.11-0.454,1.11-0.99v-4.646
			h1.615v4.79c0,1.515-1.172,2.424-2.728,2.424C274.426-2.371,273.254-3.28,273.254-4.795z"/>
		<path fill="#FFFFFF" d="M279.521-4.119l1.396-0.809c0.252,0.586,0.687,0.979,1.483,0.979c0.77,0,0.961-0.303,0.961-0.576
			c0-0.435-0.403-0.605-1.465-0.898c-1.051-0.292-2.082-0.799-2.082-2.152c0-1.364,1.152-2.152,2.375-2.152
			c1.162,0,2.07,0.557,2.586,1.598l-1.362,0.798c-0.243-0.505-0.576-0.818-1.224-0.818c-0.506,0-0.758,0.252-0.758,0.535
			c0,0.323,0.172,0.545,1.272,0.879c1.071,0.323,2.272,0.697,2.272,2.192c0,1.363-1.09,2.172-2.627,2.172
			C280.866-2.371,279.917-3.078,279.521-4.119z"/>
		<path fill="#FFFFFF" d="M290.184-4.068v1.556h-4.445v-7.071h4.396v1.556h-2.776v1.172h2.524v1.536h-2.524v1.252H290.184z"/>
		<path fill="#FFFFFF" d="M293.48-4.836h-0.768v2.322h-1.615v-7.071h2.828c1.344,0,2.426,1.081,2.426,2.425
			c0,0.869-0.525,1.657-1.305,2.051l1.506,2.596h-1.738L293.48-4.836z M292.713-6.25h1.213c0.445,0,0.809-0.395,0.809-0.91
			c0-0.515-0.362-0.909-0.809-0.909h-1.213V-6.25z"/>
		<path fill="#FFFFFF" d="M296.859-4.119l1.396-0.809c0.252,0.586,0.687,0.979,1.483,0.979c0.77,0,0.962-0.303,0.962-0.576
			c0-0.435-0.404-0.605-1.466-0.898c-1.051-0.292-2.082-0.799-2.082-2.152c0-1.364,1.152-2.152,2.375-2.152
			c1.162,0,2.07,0.557,2.586,1.598l-1.362,0.798c-0.243-0.505-0.576-0.818-1.224-0.818c-0.506,0-0.758,0.252-0.758,0.535
			c0,0.323,0.172,0.545,1.272,0.879c1.071,0.323,2.272,0.697,2.272,2.192c0,1.363-1.09,2.172-2.627,2.172
			C298.204-2.371,297.254-3.078,296.859-4.119z"/>
	</g>
	<g>
		<path fill="#FFFFFF" d="M265.579,117.22h-2.627l-0.354,1.109h-1.769l2.405-7.072h2.061l2.404,7.072h-1.768L265.579,117.22z
			 M265.094,115.704l-0.83-2.599l-0.828,2.599H265.094z"/>
		<path fill="#FFFFFF" d="M270.695,116.007h-0.77v2.322h-1.615v-7.072h2.828c1.344,0,2.426,1.082,2.426,2.425
			c0,0.869-0.524,1.656-1.305,2.051l1.508,2.597h-1.74L270.695,116.007z M269.926,114.591h1.213c0.445,0,0.81-0.393,0.81-0.908
			c0-0.515-0.363-0.91-0.81-0.91h-1.213V114.591z"/>
		<path fill="#FFFFFF" d="M274.124,114.794c0-2.082,1.545-3.677,3.678-3.677c1.283,0,2.414,0.636,3.031,1.636l-1.396,0.809
			c-0.313-0.547-0.918-0.869-1.637-0.869c-1.253,0-2.061,0.839-2.061,2.103c0,1.262,0.808,2.102,2.061,2.102
			c0.719,0,1.334-0.323,1.637-0.869l1.396,0.81c-0.606,1-1.737,1.637-3.031,1.637C275.668,118.472,274.124,116.876,274.124,114.794z
			"/>
		<path fill="#FFFFFF" d="M287.049,111.257v7.072h-1.615v-2.81h-2.224v2.81h-1.616v-7.072h1.616v2.708h2.224v-2.708H287.049z"/>
		<path fill="#FFFFFF" d="M289.883,111.257v7.072h-1.617v-7.072H289.883z"/>
		<path fill="#FFFFFF" d="M290.491,111.257h1.768l1.566,5.203l1.565-5.203h1.769l-2.304,7.072h-2.063L290.491,111.257z"/>
		<path fill="#FFFFFF" d="M302.213,116.774v1.556h-4.445v-7.072h4.396v1.556h-2.778v1.172h2.525v1.535h-2.525v1.254H302.213z"/>
	</g>
	<g>
		<path fill="#FFFFFF" d="M343.387,160.567h-2.639l-0.355,1.116h-1.775l2.415-7.103h2.07l2.415,7.103h-1.776L343.387,160.567z
			 M342.899,159.044l-0.832-2.607l-0.832,2.607H342.899z"/>
		<path fill="#FFFFFF" d="M350.291,160.12v1.563h-4.161v-7.103h1.624v5.54H350.291z"/>
		<path fill="#FFFFFF" d="M357.629,158.334c0,2.172-1.512,3.49-3.501,3.49c-2.232,0-3.835-1.644-3.835-3.683
			c0-2.061,1.634-3.704,3.724-3.704c1.359,0,2.507,0.67,3.105,1.624l-1.381,0.791c-0.294-0.467-0.933-0.832-1.734-0.832
			c-1.197,0-2.091,0.883-2.091,2.131c0,1.208,0.853,2.091,2.232,2.091c0.943,0,1.563-0.416,1.816-1.097h-1.897v-1.42h3.562V158.334z
			"/>
		<path fill="#FFFFFF" d="M358.243,158.131c0-2.09,1.653-3.693,3.693-3.693c2.039,0,3.693,1.604,3.693,3.693
			c0,2.091-1.654,3.693-3.693,3.693C359.896,161.824,358.243,160.222,358.243,158.131z M364.007,158.131
			c0-1.269-0.914-2.11-2.07-2.11c-1.157,0-2.07,0.842-2.07,2.11s0.913,2.111,2.07,2.111
			C363.093,160.242,364.007,159.4,364.007,158.131z"/>
		<path fill="#FFFFFF" d="M368.943,159.349h-0.771v2.334h-1.624v-7.103h2.842c1.35,0,2.436,1.085,2.436,2.435
			c0,0.873-0.528,1.664-1.31,2.061l1.512,2.607h-1.745L368.943,159.349z M368.172,157.928h1.218c0.446,0,0.812-0.396,0.812-0.913
			s-0.365-0.913-0.812-0.913h-1.218V157.928z"/>
		<path fill="#FFFFFF" d="M374.416,154.58v7.103h-1.624v-7.103H374.416z"/>
		<path fill="#FFFFFF" d="M380.404,156.143h-1.826v5.54h-1.624v-5.54h-1.826v-1.563h5.276V156.143z"/>
		<path fill="#FFFFFF" d="M386.597,154.58v7.103h-1.623v-2.821h-2.232v2.821h-1.624v-7.103h1.624v2.719h2.232v-2.719H386.597z"/>
		<path fill="#FFFFFF" d="M394.922,161.683h-1.624v-4.13l-1.836,3.014h-0.183l-1.837-3.014v4.13h-1.624v-7.103h1.624l1.928,3.155
			l1.928-3.155h1.624V161.683z"/>
		<path fill="#FFFFFF" d="M398.378,158.131c0-2.09,1.653-3.693,3.693-3.693c2.039,0,3.693,1.604,3.693,3.693
			c0,2.091-1.654,3.693-3.693,3.693C400.031,161.824,398.378,160.222,398.378,158.131z M404.142,158.131
			c0-1.269-0.914-2.11-2.07-2.11c-1.157,0-2.07,0.842-2.07,2.11s0.913,2.111,2.07,2.111
			C403.228,160.242,404.142,159.4,404.142,158.131z"/>
		<path fill="#FFFFFF" d="M408.307,156.143v1.369h2.638v1.563h-2.638v2.607h-1.624v-7.103h4.313v1.563H408.307z"/>
		<path fill="#FFFFFF" d="M318.57,169.683h-1.624v-4.13l-1.836,3.014h-0.183l-1.837-3.014v4.13h-1.624v-7.103h1.624l1.928,3.155
			l1.928-3.155h1.624V169.683z"/>
		<path fill="#FFFFFF" d="M319.741,167.39v-4.81h1.624v4.667c0,0.538,0.254,0.995,1.116,0.995s1.116-0.457,1.116-0.995v-4.667h1.623
			v4.81c0,1.521-1.177,2.435-2.739,2.435S319.741,168.911,319.741,167.39z"/>
		<path fill="#FFFFFF" d="M330.553,168.12v1.563h-4.161v-7.103h1.624v5.54H330.553z"/>
		<path fill="#FFFFFF" d="M335.324,164.143h-1.826v5.54h-1.624v-5.54h-1.826v-1.563h5.276V164.143z"/>
		<path fill="#FFFFFF" d="M337.661,162.58v7.103h-1.624v-7.103H337.661z"/>
		<path fill="#FFFFFF" d="M338.88,165.918h3.856v1.461h-3.856V165.918z"/>
		<path fill="#FFFFFF" d="M348.118,168.12v1.563h-4.161v-7.103h1.624v5.54H348.118z"/>
		<path fill="#FFFFFF" d="M353.295,168.12v1.563h-4.465v-7.103h4.414v1.563h-2.79v1.177h2.537v1.542h-2.537v1.259H353.295z"/>
		<path fill="#FFFFFF" d="M353.604,162.58h1.775l1.573,5.226l1.572-5.226h1.776l-2.313,7.103h-2.07L353.604,162.58z"/>
		<path fill="#FFFFFF" d="M365.377,168.12v1.563h-4.465v-7.103h4.414v1.563h-2.79v1.177h2.537v1.542h-2.537v1.259H365.377z"/>
		<path fill="#FFFFFF" d="M370.455,168.12v1.563h-4.161v-7.103h1.624v5.54H370.455z"/>
		<path fill="#FFFFFF" d="M373.097,162.58h1.775l1.573,5.226l1.572-5.226h1.776l-2.313,7.103h-2.07L373.097,162.58z"/>
		<path fill="#FFFFFF" d="M384.871,168.12v1.563h-4.465v-7.103h4.414v1.563h-2.79v1.177h2.537v1.542h-2.537v1.259H384.871z"/>
		<path fill="#FFFFFF" d="M388.184,167.349h-0.771v2.334h-1.624v-7.103h2.842c1.35,0,2.436,1.085,2.436,2.435
			c0,0.873-0.528,1.664-1.31,2.061l1.512,2.607h-1.745L388.184,167.349z M387.412,165.928h1.218c0.446,0,0.812-0.396,0.812-0.913
			s-0.365-0.913-0.812-0.913h-1.218V165.928z"/>
		<path fill="#FFFFFF" d="M393.655,162.58v7.103h-1.624v-7.103H393.655z"/>
		<path fill="#FFFFFF" d="M396.499,164.143v1.369h2.639v1.563h-2.639v2.607h-1.624v-7.103h4.313v1.563H396.499z"/>
		<path fill="#FFFFFF" d="M401.778,162.58v7.103h-1.624v-7.103H401.778z"/>
		<path fill="#FFFFFF" d="M402.693,166.131c0-2.09,1.552-3.693,3.693-3.693c1.289,0,2.425,0.64,3.044,1.644l-1.4,0.813
			c-0.314-0.548-0.923-0.873-1.644-0.873c-1.259,0-2.07,0.842-2.07,2.11s0.812,2.111,2.07,2.111c0.721,0,1.339-0.325,1.644-0.873
			l1.4,0.812c-0.608,1.005-1.745,1.644-3.044,1.644C404.245,169.824,402.693,168.222,402.693,166.131z"/>
		<path fill="#FFFFFF" d="M414.356,168.567h-2.639l-0.355,1.116h-1.775l2.415-7.103h2.07l2.415,7.103h-1.776L414.356,168.567z
			 M413.869,167.044l-0.832-2.607l-0.832,2.607H413.869z"/>
		<path fill="#FFFFFF" d="M421.361,164.143h-1.826v5.54h-1.624v-5.54h-1.826v-1.563h5.276V164.143z"/>
		<path fill="#FFFFFF" d="M423.699,162.58v7.103h-1.624v-7.103H423.699z"/>
		<path fill="#FFFFFF" d="M424.614,166.131c0-2.09,1.653-3.693,3.693-3.693c2.039,0,3.693,1.604,3.693,3.693
			c0,2.091-1.654,3.693-3.693,3.693C426.268,169.824,424.614,168.222,424.614,166.131z M430.378,166.131
			c0-1.269-0.914-2.11-2.07-2.11c-1.157,0-2.07,0.842-2.07,2.11s0.913,2.111,2.07,2.111
			C429.464,168.242,430.378,167.4,430.378,166.131z"/>
		<path fill="#FFFFFF" d="M438.499,162.58v7.103h-1.218l-2.739-3.855v3.855h-1.624v-7.103h1.218l2.74,3.855v-3.855H438.499z"/>
	</g>
</g>
</svg>
