<?xml version="1.0" encoding="utf-8"?>
<!-- Generator: Adobe Illustrator 16.0.0, SVG Export Plug-In . SVG Version: 6.00 Build 0)  -->
<!DOCTYPE svg PUBLIC "-//W3C//DTD SVG 1.1//EN" "http://www.w3.org/Graphics/SVG/1.1/DTD/svg11.dtd">
<svg version="1.1" id="Layer_1" xmlns="http://www.w3.org/2000/svg" xmlns:xlink="http://www.w3.org/1999/xlink" x="0px" y="0px"
	 width="25.477px" height="25.475px" viewBox="-148.14 -14.057 25.477 25.475"
	 enable-background="new -148.14 -14.057 25.477 25.475" xml:space="preserve">
<g id="Icons">
	<g id="Icons_22_">
		<g>
			
				<linearGradient id="SVGID_1_" gradientUnits="userSpaceOnUse" x1="734.8237" y1="1446.5735" x2="760.2983" y2="1446.5735" gradientTransform="matrix(-4.371139e-008 1 -1 -4.371139e-008 1311.1726 -748.8816)">
				<stop  offset="0" style="stop-color:#A14B8A"/>
				<stop  offset="1" style="stop-color:#4B48BF"/>
			</linearGradient>
			<path fill="url(#SVGID_1_)" d="M-125.046-14.057h-20.709c-1.314,0-2.385,1.069-2.385,2.383v20.71c0,1.313,1.07,2.382,2.385,2.382
				h20.709c1.313,0,2.383-1.068,2.383-2.382v-20.71C-122.663-12.988-123.731-14.057-125.046-14.057z M-139.735,5.615
				c-0.898-0.01-1.807-0.01-2.713,0c-0.172,0-0.217-0.048-0.217-0.228v-9.585c0-0.18,0.057-0.228,0.229-0.228
				c0.895,0.011,1.803,0.011,2.701,0c0.18,0,0.227,0.058,0.217,0.228v4.801c0,1.6,0,3.195,0.01,4.793
				C-139.509,5.566-139.565,5.615-139.735,5.615z M-141.087-5.71c-1.002,0.01-1.824-0.832-1.824-1.825
				c0.01-0.954,0.736-1.815,1.814-1.824c1.021-0.009,1.834,0.767,1.834,1.824C-139.263-6.495-140.056-5.72-141.087-5.71z
				 M-128.175,5.615h-2.656c-0.217,0-0.227-0.01-0.227-0.236V0.52c0-0.454-0.01-0.909-0.143-1.353
				c-0.207-0.689-0.652-1.021-1.381-1.039c-0.508-0.011-0.99,0.085-1.35,0.482c-0.293,0.312-0.416,0.688-0.475,1.105
				c-0.037,0.367-0.064,0.746-0.064,1.124c-0.012,1.521-0.012,3.044,0,4.556c0,0.17-0.049,0.219-0.209,0.219
				c-0.908-0.011-1.824-0.011-2.73,0c-0.162,0-0.219-0.049-0.219-0.219c0.01-3.193,0.01-6.398,0-9.604
				c0-0.17,0.066-0.218,0.219-0.218c0.869,0.011,1.738,0.011,2.607,0c0.172,0,0.229,0.067,0.217,0.228c-0.008,0.35,0,0.709,0,1.059
				c0.492-0.729,1.156-1.19,1.984-1.398c0.967-0.236,1.92-0.16,2.828,0.236c0.879,0.377,1.352,1.096,1.598,1.984
				c0.17,0.576,0.246,1.173,0.256,1.777c0.01,1.957,0.018,3.914,0.027,5.879C-127.892,5.615-127.892,5.615-128.175,5.615z"/>
		</g>
	</g>
</g>
</svg>
