<?xml version="1.0" encoding="utf-8"?>
<!-- Generator: Adobe Illustrator 16.0.0, SVG Export Plug-In . SVG Version: 6.00 Build 0)  -->
<!DOCTYPE svg PUBLIC "-//W3C//DTD SVG 1.1//EN" "http://www.w3.org/Graphics/SVG/1.1/DTD/svg11.dtd">
<svg version="1.1" id="Layer_1" xmlns="http://www.w3.org/2000/svg" xmlns:xlink="http://www.w3.org/1999/xlink" x="0px" y="0px"
	 width="42.364px" height="35.527px" viewBox="-130.588 -87.605 42.364 35.527"
	 enable-background="new -130.588 -87.605 42.364 35.527" xml:space="preserve">
<linearGradient id="SVGID_1_" gradientUnits="userSpaceOnUse" x1="661.2759" y1="1420.5793" x2="696.8032" y2="1420.5793" gradientTransform="matrix(-4.371139e-008 1 -1 -4.371139e-008 1311.1726 -748.8816)">
	<stop  offset="0" style="stop-color:#A14B8A"/>
	<stop  offset="1" style="stop-color:#4B48BF"/>
</linearGradient>
<path fill="url(#SVGID_1_)" d="M-118.643-66.998c-0.01-1.613,1.297-2.944,2.875-2.929c1.551,0.019,2.865,1.345,2.861,2.897
	c0,1.582-1.281,2.857-2.863,2.864C-117.375-64.162-118.633-65.402-118.643-66.998z M-103.004-64.165
	c-1.604,0.002-2.859-1.241-2.871-2.834c-0.006-1.612,1.303-2.946,2.879-2.927c1.566,0.021,2.85,1.33,2.844,2.902
	C-100.154-65.429-101.412-64.172-103.004-64.165z M-109.537-56.368c-1.525-0.322-3.08-0.551-4.57-1.001
	c-0.762-0.229-1.426-0.817-2.084-1.312c-0.381-0.282-0.391-0.739-0.076-1.106c0.316-0.374,0.752-0.424,1.107-0.097
	c1.285,1.189,2.871,1.595,4.531,1.614c1.51,0.018,3.043-0.091,4.531-0.356c0.797-0.142,1.541-0.683,2.25-1.135
	c0.467-0.295,0.857-0.479,1.289-0.046c0.371,0.369,0.273,0.862-0.236,1.314c-1.336,1.194-2.977,1.626-4.697,1.822
	c-0.666,0.078-1.34,0.092-2.006,0.138C-109.512-56.479-109.523-56.424-109.537-56.368z M-128.391-65.597
	c-0.227,2.744,0.688,5.092,2.441,7.146c1.25,1.468,2.75,2.586,4.4,3.49c0.082,0.045,0.17,0.092,0.262,0.141
	c0.346,0.182,0.701,0.348,1.059,0.513c0.867,0.397,1.953,0.826,3.223,1.204c4.48,1.213,8.887,1.346,13.342,0.417
	c0.115-0.026,0.234-0.055,0.361-0.085c0.068-0.014,0.137-0.035,0.205-0.049c1.766-0.441,4.27-1.283,6.752-2.824
	c0.238-0.151,0.475-0.299,0.703-0.463c3.26-2.328,5.365-5.326,5.047-9.576c-0.016-0.189,0.164-0.46,0.332-0.59
	c2.203-1.709,2.691-4.596,1.119-6.773c-1.566-2.166-4.441-2.602-6.779-1.053c-0.188,0.12-0.555,0.12-0.771,0.027
	c-1.135-0.514-2.223-1.137-3.371-1.608c-2.59-1.058-5.324-1.497-8.178-1.677c0.834-2.624,1.646-5.204,2.484-7.84
	c2.082,0.494,4.072,0.986,6.074,1.43c0.48,0.105,0.676,0.28,0.748,0.786c0.32,2.265,2.613,3.765,4.822,3.203
	c1.766-0.448,2.977-1.95,3.033-3.767c0.055-1.73-1.127-3.369-2.805-3.881c-1.723-0.531-3.553,0.139-4.51,1.701
	c-0.25,0.409-0.465,0.497-0.934,0.379c-2.105-0.527-4.223-1.003-6.336-1.498c-1.018-0.239-1.26-0.104-1.574,0.889
	c-0.85,2.686-1.695,5.373-2.541,8.058c-0.096,0.318-0.186,0.552-0.629,0.564c-4.346,0.125-8.445,1.161-12.178,3.444
	c-0.078-0.045-0.137-0.078-0.195-0.119c-2.328-1.627-5.164-1.273-6.799,0.853c-1.639,2.122-1.238,4.95,0.924,6.799
	C-128.479-66.202-128.367-65.845-128.391-65.597z M-95.047-85.957c1.295,0.002,2.342,1.047,2.338,2.333
	c-0.004,1.283-1.064,2.337-2.352,2.333c-1.283-0.006-2.338-1.063-2.336-2.345C-97.393-84.922-96.342-85.959-95.047-85.957z
	 M-90.639-72.315c1.146,1.349,1,3.324-0.449,4.574c-0.801-2.046-2.098-3.663-3.748-5.005
	C-93.836-73.782-91.705-73.568-90.639-72.315z M-116.34-74.83c2.238-0.635,4.525-0.908,6.85-0.896
	c3.988,0.017,7.807,0.771,11.338,2.707c1.803,0.99,3.385,2.253,4.555,3.972c1.887,2.767,1.887,5.94-0.025,8.691
	c-1.791,2.569-4.328,4.157-7.215,5.15c-6.676,2.292-13.256,2.097-19.652-1.041c-1.717-0.84-3.221-1.993-4.424-3.505
	c-2.594-3.266-2.514-7.096,0.25-10.232C-122.432-72.523-119.525-73.926-116.34-74.83z M-128.283-72.185
	c0.992-1.301,3.043-1.636,4.219-0.643c-1.646,1.345-2.975,2.937-3.777,4.928C-129.131-68.902-129.311-70.839-128.283-72.185z"/>
</svg>
