<?xml version="1.0" encoding="utf-8"?>
<!-- Generator: Adobe Illustrator 16.0.0, SVG Export Plug-In . SVG Version: 6.00 Build 0)  -->
<!DOCTYPE svg PUBLIC "-//W3C//DTD SVG 1.1//EN" "http://www.w3.org/Graphics/SVG/1.1/DTD/svg11.dtd">
<svg version="1.1" id="Layer_1" xmlns="http://www.w3.org/2000/svg" xmlns:xlink="http://www.w3.org/1999/xlink" x="0px" y="0px"
	 width="31.156px" height="25.575px" viewBox="-160.26 -61.434 31.156 25.575"
	 enable-background="new -160.26 -61.434 31.156 25.575" xml:space="preserve">
<g>
	<g>
		
			<linearGradient id="SVGID_1_" gradientUnits="userSpaceOnUse" x1="687.4468" y1="1455.8538" x2="713.022" y2="1455.8538" gradientTransform="matrix(-4.371139e-008 1 -1 -4.371139e-008 1311.1726 -748.8816)">
			<stop  offset="0" style="stop-color:#A14B8A"/>
			<stop  offset="1" style="stop-color:#4B48BF"/>
		</linearGradient>
		<path fill="url(#SVGID_1_)" d="M-160.26-38.681c3.402,0.155,6.514-0.629,9.348-2.733c-0.455-0.06-0.805-0.087-1.146-0.157
			c-2.213-0.455-3.779-1.72-4.703-3.784c-0.164-0.369-0.146-0.499,0.322-0.438c0.791,0.099,1.58,0.025,2.51-0.256
			c-2.047-0.491-3.529-1.52-4.48-3.247c-0.525-0.956-0.787-1.978-0.77-3.135c0.916,0.423,1.801,0.769,2.811,0.757
			c-0.076-0.225-0.268-0.285-0.402-0.393c-2.344-1.861-3.08-5.094-1.777-7.754c0.186-0.375,0.289-0.44,0.604-0.088
			c3.316,3.711,7.463,5.803,12.41,6.336c0.377,0.041,0.502-0.01,0.445-0.438c-0.369-2.826,0.977-5.423,3.436-6.693
			c2.479-1.278,5.383-0.856,7.482,1.104c0.203,0.19,0.383,0.221,0.639,0.167c1.096-0.227,2.127-0.613,3.102-1.161
			c0.141-0.078,0.258-0.222,0.445-0.207c-0.186,1.07-0.955,2.104-2.482,3.331c0.395,0.124,0.738-0.047,1.082-0.115
			c0.385-0.075,0.762-0.188,1.135-0.307c0.354-0.111,0.699-0.253,1.148-0.418c-0.111,0.198-0.166,0.326-0.242,0.439
			c-0.656,0.947-1.428,1.793-2.373,2.45c-0.381,0.266-0.469,0.55-0.465,0.974c0.041,3.588-0.855,6.926-2.775,9.961
			C-140.42-35.842-151.477-33.289-160.26-38.681z"/>
	</g>
</g>
</svg>
