<?xml version="1.0" encoding="utf-8"?>
<!-- Generator: Adobe Illustrator 16.0.0, SVG Export Plug-In . SVG Version: 6.00 Build 0)  -->
<!DOCTYPE svg PUBLIC "-//W3C//DTD SVG 1.1//EN" "http://www.w3.org/Graphics/SVG/1.1/DTD/svg11.dtd">
<svg version="1.1" id="Layer_1" xmlns="http://www.w3.org/2000/svg" xmlns:xlink="http://www.w3.org/1999/xlink" x="0px" y="0px"
	 width="115.295px" height="25.742px" viewBox="-7.201 0.01 115.295 25.742" enable-background="new -7.201 0.01 115.295 25.742"
	 xml:space="preserve">
<linearGradient id="SVGID_1_" gradientUnits="userSpaceOnUse" x1="-377.6367" y1="405.335" x2="-351.8955" y2="405.335" gradientTransform="matrix(-4.371139e-008 -1 1 -4.371139e-008 -354.8877 -351.8853)">
	<stop  offset="0" style="stop-color:#4B48BF"/>
	<stop  offset="1" style="stop-color:#A14B8A"/>
</linearGradient>
<path fill-rule="evenodd" clip-rule="evenodd" fill="url(#SVGID_1_)" d="M11.518,25.746c-4.136,0.021-7.977-0.071-11.811-0.351
	c-0.841-0.062-1.684-0.143-2.512-0.321c-2.005-0.432-3.25-1.651-3.704-3.644c-0.51-2.238-0.603-4.526-0.665-6.811
	c-0.083-3.077,0.013-6.147,0.445-9.2c0.451-3.183,1.947-4.62,5.156-4.93C3.734-0.021,9.056-0.019,14.378,0.032
	c2.747,0.026,5.492,0.113,8.232,0.333c0.765,0.062,1.533,0.131,2.289,0.264c2.387,0.419,3.735,1.845,4.131,4.378
	c0.551,3.543,0.646,7.109,0.48,10.686c-0.087,1.862-0.193,3.723-0.581,5.551c-0.48,2.271-1.935,3.608-4.24,3.926
	c-2.306,0.318-4.628,0.4-6.952,0.48C15.567,25.727,13.396,25.769,11.518,25.746z M17.102,12.881
	c-3.22-1.858-6.379-3.682-9.591-5.535c0,3.724,0,7.353,0,11.071C10.73,16.558,13.889,14.734,17.102,12.881z M90.216,9.435
	c0.955-1.394,2.079-2.102,3.646-1.96c1.154,0.104,1.916,0.701,2.346,1.757c0.494,1.214,0.594,2.5,0.631,3.786
	c0.067,2.417,0.171,4.838-0.181,7.248c-0.097,0.666-0.262,1.315-0.529,1.935c-0.973,2.244-4.051,2.655-5.605,0.747
	c-0.131-0.162-0.251-0.332-0.406-0.537c-0.034,0.102-0.061,0.164-0.077,0.229c-0.11,0.407-0.096,0.985-0.36,1.176
	c-0.298,0.212-0.847,0.095-1.284,0.08c-0.551-0.019-1.285,0.248-1.599-0.108c-0.269-0.308-0.08-1.023-0.08-1.56
	c-0.002-6.862,0.005-13.724-0.015-20.586c-0.001-0.516,0.127-0.648,0.63-0.62c0.805,0.045,1.614,0.033,2.42,0.002
	c0.387-0.014,0.476,0.112,0.473,0.481c-0.016,2.518-0.009,5.036-0.009,7.554C90.216,9.129,90.216,9.199,90.216,9.435z
	 M90.216,16.041c0,1.364,0,2.729,0,4.095c0,0.729,0.377,1.203,1.064,1.338c0.754,0.149,1.289-0.129,1.541-0.859
	c0.13-0.378,0.213-0.78,0.253-1.179c0.215-2.107,0.132-4.224,0.088-6.335c-0.015-0.761-0.046-1.541-0.335-2.269
	c-0.31-0.782-1.033-1.013-1.729-0.535c-0.547,0.377-0.885,0.894-0.884,1.592C90.22,13.272,90.216,14.656,90.216,16.041z
	 M62.98,23.481c0.037,0.278,0.109,0.444,0.457,0.43c0.71-0.031,1.423-0.025,2.134-0.003c0.317,0.01,0.38-0.107,0.38-0.399
	c-0.008-5.115-0.01-10.231,0.001-15.346c0.001-0.354-0.141-0.409-0.443-0.404c-0.884,0.015-1.77,0.036-2.652-0.006
	c-0.486-0.023-0.599,0.122-0.597,0.598c0.021,3.904,0.013,7.807,0.013,11.711c-0.001,0.777-0.504,1.373-1.28,1.514
	c-0.55,0.1-0.944-0.123-1.115-0.659c-0.124-0.387-0.146-0.789-0.146-1.195c0.004-3.808-0.005-7.616,0.012-11.424
	c0.002-0.422-0.085-0.565-0.532-0.544c-0.863,0.04-1.731,0.04-2.595,0c-0.468-0.021-0.568,0.132-0.567,0.578
	c0.019,3.903,0.005,7.808,0.019,11.712c0.001,0.515,0.07,1.035,0.161,1.544c0.382,2.134,1.784,2.911,4.01,2.452
	c1.154-0.236,1.878-1.054,2.496-2.136C62.829,22.506,62.913,22.993,62.98,23.481z M81.617,23.576c0.031,0.277,0.142,0.338,0.4,0.332
	c0.712-0.019,1.424-0.026,2.134,0.002c0.354,0.014,0.398-0.128,0.397-0.432c-0.009-5.096-0.01-10.192,0.004-15.287
	c0-0.378-0.129-0.442-0.465-0.434c-0.884,0.021-1.771,0.032-2.653-0.003c-0.448-0.018-0.579,0.102-0.577,0.567
	c0.021,3.903,0.012,7.807,0.012,11.709c0,0.785-0.379,1.288-1.131,1.506c-0.646,0.188-1.112-0.057-1.276-0.703
	c-0.099-0.39-0.135-0.792-0.134-1.199c0.006-3.788-0.003-7.576,0.012-11.363c0.001-0.396-0.094-0.532-0.505-0.517
	c-0.864,0.032-1.732,0.036-2.596,0c-0.456-0.02-0.578,0.115-0.576,0.571c0.02,3.884,0.008,7.768,0.014,11.651
	c0.002,0.596,0.047,1.192,0.183,1.774c0.274,1.188,0.871,2.088,2.151,2.355c1.59,0.329,3.041-0.27,3.972-1.613
	c0.102-0.146,0.132-0.358,0.382-0.443C81.453,22.569,81.559,23.069,81.617,23.576z M54.212,15.854
	c0.009,1.633,0.031,3.268-0.362,4.871c-0.563,2.304-1.953,3.41-4.32,3.423c-0.519,0.002-1.045,0.021-1.554-0.056
	c-1.914-0.292-3.021-1.346-3.463-3.281c-0.135-0.596-0.254-1.208-0.279-1.816c-0.1-2.457-0.248-4.917,0.152-7.36
	c0.494-3.009,2.283-4.399,5.318-4.177c2.475,0.182,3.773,1.402,4.254,3.975C54.232,12.898,54.219,14.376,54.212,15.854z
	 M50.502,15.851c0-1.172,0.007-2.346-0.004-3.518c-0.005-0.52-0.093-1.033-0.261-1.528c-0.171-0.506-0.522-0.826-1.059-0.827
	c-0.513,0-0.854,0.311-1.009,0.799c-0.086,0.273-0.183,0.552-0.201,0.834c-0.196,2.84-0.204,5.683,0.003,8.523
	c0.074,1,0.515,1.519,1.165,1.55c0.678,0.033,1.094-0.46,1.266-1.516C50.636,18.735,50.461,17.29,50.502,15.851z M38.997,12.325
	c-0.572-3.349-1.386-6.646-2.054-9.975c-0.08-0.393-0.206-0.539-0.626-0.521c-0.863,0.038-1.73,0.037-2.594,0.001
	c-0.458-0.019-0.534,0.086-0.409,0.529c1.12,3.966,2.235,7.933,3.312,11.912c0.293,1.085,0.734,2.136,0.712,3.302
	c-0.037,1.961-0.003,3.922-0.018,5.882c-0.003,0.34,0.063,0.469,0.436,0.456c0.903-0.03,1.808-0.031,2.709,0
	c0.391,0.014,0.471-0.115,0.469-0.48c-0.018-2.057-0.006-4.113-0.013-6.17c-0.001-0.331,0.038-0.647,0.128-0.965
	c0.684-2.416,1.368-4.832,2.045-7.25c0.668-2.378,1.327-4.758,2.01-7.205c-1.079,0-2.111,0.015-3.144-0.008
	c-0.371-0.008-0.517,0.09-0.602,0.481c-0.746,3.48-1.578,6.941-2.223,10.573C39.068,12.617,39.022,12.473,38.997,12.325z
	 M98.447,15.851c-0.003-1.633-0.043-3.266,0.35-4.872c0.672-2.748,2.287-3.516,4.789-3.518c0.364,0,0.729,0.039,1.091,0.093
	c1.678,0.251,2.657,1.259,3.055,2.874c0.338,1.374,0.372,2.774,0.353,4.18c-0.007,0.655-0.025,1.31,0.008,1.962
	c0.02,0.396-0.087,0.521-0.501,0.515c-1.653-0.024-3.309,0.016-4.96-0.025c-0.534-0.013-0.635,0.158-0.614,0.642
	c0.04,0.959-0.02,1.924,0.176,2.87c0.162,0.781,0.513,1.08,1.191,1.078c0.685-0.003,1.072-0.313,1.235-1.045
	c0.087-0.391,0.155-0.795,0.158-1.194c0.002-0.369,0.092-0.508,0.485-0.473c0.764,0.07,1.532,0.104,2.299,0.133
	c0.315,0.011,0.418,0.129,0.433,0.449c0.129,2.788-1.403,4.487-4.188,4.622c-0.537,0.025-1.076,0.028-1.611-0.053
	c-1.836-0.276-2.867-1.407-3.337-3.142C98.406,19.272,98.438,17.561,98.447,15.851z M102.027,12.901
	c0,0.597,0.007,1.097-0.003,1.595c-0.004,0.245,0.038,0.397,0.34,0.39c0.651-0.018,1.305-0.009,1.956-0.003
	c0.204,0.002,0.325-0.041,0.321-0.279c-0.017-1.206,0.067-2.418-0.166-3.611c-0.144-0.737-0.52-1.056-1.15-1.054
	c-0.642,0.003-0.969,0.313-1.142,1.062C102.031,11.66,102.096,12.335,102.027,12.901z M68.61,23.433
	c-0.002,0.369,0.083,0.492,0.468,0.479c0.846-0.031,1.694-0.041,2.536,0.002c0.482,0.025,0.596-0.11,0.594-0.591
	c-0.02-5.997-0.007-11.995-0.021-17.992c-0.001-0.434,0.084-0.599,0.557-0.577c0.882,0.042,1.769,0.003,2.652,0.018
	c0.28,0.004,0.415-0.045,0.404-0.371c-0.023-0.73-0.023-1.461,0-2.191c0.011-0.323-0.12-0.373-0.402-0.373
	c-3.325,0.008-6.65,0.011-9.976-0.002c-0.341-0.001-0.415,0.116-0.407,0.428c0.021,0.692,0.03,1.385-0.002,2.076
	c-0.018,0.377,0.123,0.443,0.46,0.435c0.883-0.021,1.768,0.016,2.651-0.017c0.413-0.015,0.506,0.116,0.503,0.513
	c-0.016,2.999-0.01,5.997-0.01,8.996C68.617,17.32,68.624,20.376,68.61,23.433z"/>
</svg>
