<?xml version="1.0" encoding="utf-8"?>
<!-- Generator: Adobe Illustrator 16.0.0, SVG Export Plug-In . SVG Version: 6.00 Build 0)  -->
<!DOCTYPE svg PUBLIC "-//W3C//DTD SVG 1.1//EN" "http://www.w3.org/Graphics/SVG/1.1/DTD/svg11.dtd">
<svg version="1.1" id="Layer_1" xmlns="http://www.w3.org/2000/svg" xmlns:xlink="http://www.w3.org/1999/xlink" x="0px" y="0px"
	 width="25.764px" height="25.755px" viewBox="-158.032 -142.713 25.764 25.755"
	 enable-background="new -158.032 -142.713 25.764 25.755" xml:space="preserve">
<linearGradient id="SVGID_1_" gradientUnits="userSpaceOnUse" x1="606.1685" y1="1456.3225" x2="631.9233" y2="1456.3225" gradientTransform="matrix(-4.371139e-008 1 -1 -4.371139e-008 1311.1726 -748.8816)">
	<stop  offset="0" style="stop-color:#A14B8A"/>
	<stop  offset="1" style="stop-color:#4B48BF"/>
</linearGradient>
<path fill="url(#SVGID_1_)" d="M-132.269-129.883c0.012,7.26-5.893,12.936-12.861,12.925c-7.115-0.009-12.898-5.762-12.902-12.856
	c-0.002-7.119,5.742-12.885,12.85-12.898C-138.056-142.728-132.282-136.992-132.269-129.883z M-156.903-129.849
	c-0.004,6.513,5.371,11.75,11.746,11.745c6.467-0.006,11.742-5.248,11.75-11.694c0.008-6.497-5.264-11.815-11.734-11.787
	C-151.714-141.557-156.897-136.217-156.903-129.849z M-154.366-129.886c-0.063-4.549,3.467-8.604,8.008-9.104
	c2.965-0.326,5.609,0.455,7.746,2.613c1.818,1.837,2.729,4.072,2.713,6.661c-0.029,5.05-4.25,9.173-9.328,9.13
	C-150.313-120.627-154.394-124.777-154.366-129.886z M-141.302-130.418c1.035-0.673,1.406-1.58,1.17-2.67
	c-0.219-1.02-1.059-1.451-1.947-1.768c-0.316-0.113-0.652-0.185-0.986-0.219c-0.416-0.041-0.602-0.201-0.564-0.644
	c0.037-0.432-0.014-0.87,0.016-1.304c0.029-0.396-0.139-0.485-0.504-0.491c-0.9-0.018-0.898-0.037-0.898,0.884
	c0,0.266-0.004,0.531,0,0.798c0.008,0.343,0.066,0.651-0.482,0.655c-0.535,0.006-0.594-0.232-0.564-0.653
	c0.021-0.36-0.035-0.731,0.014-1.085c0.074-0.588-0.25-0.616-0.689-0.599c-0.395,0.016-0.795-0.07-0.719,0.565
	c0.051,0.43-0.008,0.871,0.014,1.305c0.02,0.351-0.125,0.461-0.465,0.451c-0.652-0.018-1.305-0.011-1.959-0.003
	c-0.18,0.003-0.383-0.061-0.484,0.196c-0.279,0.703,0.064,1.232,0.822,1.24c0.908,0.012,1.004,0.104,1.004,0.993
	c0.004,1.911,0.004,3.821,0,5.731c0,0.916-0.08,0.984-0.99,1.014c-0.238,0.006-0.549-0.139-0.689,0.217
	c-0.301,0.771,0.025,1.278,0.824,1.279c0.096,0,0.193,0,0.291,0c1.633,0,1.654,0,1.631,1.659c-0.008,0.519,0.096,0.708,0.666,0.714
	c0.611,0.004,0.822-0.183,0.742-0.775c-0.037-0.261,0.006-0.531-0.012-0.797c-0.023-0.402-0.002-0.679,0.553-0.668
	c0.535,0.011,0.506,0.299,0.494,0.652c-0.008,0.342,0.035,0.684-0.01,1.016c-0.074,0.565,0.26,0.576,0.656,0.551
	c0.359-0.021,0.811,0.145,0.758-0.524c-0.043-0.554-0.195-1.241,0.063-1.635c0.291-0.448,1.057-0.212,1.609-0.328
	c1.482-0.309,2.412-1.248,2.57-2.663C-139.196-128.863-139.685-129.672-141.302-130.418z M-146.058-127.742
	c0-1.571,0-1.579,1.578-1.559c0.408,0.004,0.824,0.019,1.217,0.112c0.613,0.15,1.131,0.438,1.164,1.187
	c0.037,0.784-0.322,1.381-1.039,1.643c-0.863,0.317-1.768,0.158-2.654,0.183c-0.285,0.009-0.266-0.215-0.266-0.408
	C-146.06-126.971-146.058-127.357-146.058-127.742z M-146.058-132.269c0.07-0.404-0.236-1.14,0.125-1.291
	c0.639-0.27,1.42-0.154,2.121,0.048c1.063,0.308,1.379,1.45,0.648,2.284c-0.244,0.282-0.553,0.459-0.934,0.484
	c-0.168,0.012-0.336,0.004-0.504,0.004C-146.058-130.737-146.058-130.737-146.058-132.269z"/>
</svg>
