<?xml version="1.0" encoding="utf-8"?>
<!-- Generator: Adobe Illustrator 16.0.0, SVG Export Plug-In . SVG Version: 6.00 Build 0)  -->
<!DOCTYPE svg PUBLIC "-//W3C//DTD SVG 1.1//EN" "http://www.w3.org/Graphics/SVG/1.1/DTD/svg11.dtd">
<svg version="1.1" id="Layer_1" xmlns="http://www.w3.org/2000/svg" xmlns:xlink="http://www.w3.org/1999/xlink" x="0px" y="0px"
	 width="25.752px" height="25.752px" viewBox="-95.271 -94.761 25.752 25.752"
	 enable-background="new -95.271 -94.761 25.752 25.752" xml:space="preserve">
<g>
	<g>
		
			<linearGradient id="SVGID_1_" gradientUnits="userSpaceOnUse" x1="654.1196" y1="1393.5667" x2="679.8716" y2="1393.5667" gradientTransform="matrix(-4.371139e-008 1 -1 -4.371139e-008 1311.1726 -748.8816)">
			<stop  offset="0" style="stop-color:#A14B8A"/>
			<stop  offset="1" style="stop-color:#4B48BF"/>
		</linearGradient>
		<path fill="url(#SVGID_1_)" d="M-95.271-72.877c0-6.004,0-12.012,0-18.018c0.023-0.092,0.051-0.182,0.072-0.273
			c0.408-1.761,1.48-2.904,3.201-3.444c0.195-0.062,0.396-0.099,0.596-0.149c6.004,0,12.01,0,18.016,0
			c0.053,0.016,0.104,0.036,0.154,0.047c1.85,0.392,3.045,1.494,3.584,3.305c0.051,0.171,0.088,0.344,0.129,0.516
			c0,6.006,0,12.012,0,18.018c-0.018,0.065-0.039,0.129-0.053,0.195c-0.402,1.82-1.494,3.001-3.279,3.539
			c-0.176,0.053-0.357,0.09-0.535,0.133c-1.658,0-3.318,0-4.977,0c-0.008-0.074-0.018-0.148-0.018-0.224
			c-0.002-3.077-0.002-6.156-0.002-9.233c0-0.08,0-0.16,0-0.268c0.104,0,0.184,0,0.266,0c1.262,0,2.521-0.004,3.783,0.004
			c0.182,0.001,0.248-0.039,0.244-0.236c-0.008-1.275-0.004-2.551-0.004-3.825c0-0.073-0.006-0.146-0.012-0.245
			c-1.434,0-2.848,0-4.26,0c0-0.664-0.029-1.303,0.01-1.938c0.039-0.605,0.422-0.916,1.021-0.916c0.986,0,1.973,0,2.961-0.001
			c0.086,0,0.174-0.01,0.264-0.014c0-1.435,0-2.849,0-4.281c-0.082,0-0.15,0-0.217,0c-1.049,0-2.098,0.001-3.148-0.001
			c-0.932,0-1.779,0.264-2.541,0.803c-1.299,0.922-2.055,2.196-2.287,3.75c-0.115,0.773-0.066,1.571-0.092,2.359
			c-0.002,0.077,0,0.156,0,0.256c-1.066,0-2.098,0-3.137,0c-0.006,0.068-0.014,0.115-0.014,0.16c0,1.311,0.002,2.619-0.006,3.929
			c0,0.177,0.076,0.2,0.221,0.198c0.893-0.004,1.783-0.002,2.674-0.002c0.08,0,0.16,0,0.262,0c0,3.258,0,6.491,0,9.725
			c-3.004,0-6.006,0-9.008,0c-0.059-0.016-0.117-0.037-0.176-0.049c-1.83-0.396-3.02-1.491-3.559-3.283
			C-95.19-72.517-95.226-72.699-95.271-72.877z"/>
	</g>
</g>
</svg>
