<?xml version="1.0" encoding="iso-8859-1"?>
<!-- Generator: Adobe Illustrator 19.0.0, SVG Export Plug-In . SVG Version: 6.00 Build 0)  -->
<svg version="1.1" id="Layer_1" xmlns="http://www.w3.org/2000/svg" xmlns:xlink="http://www.w3.org/1999/xlink" x="0px" y="0px"
	 viewBox="0 0 509.287 509.287" style="enable-background:new 0 0 509.287 509.287;" xml:space="preserve">
<circle style="fill:#F0582F;" cx="254.644" cy="254.644" r="254.644"/>
<path style="fill:#F1F3F7;" d="M444.185,253.287H420.45c0-91.55-74.596-166.146-166.146-166.146S88.159,161.738,88.159,253.287
	H64.424c0-104.434,85.107-189.542,189.542-189.542C359.078,63.746,444.185,148.853,444.185,253.287z"/>
<g>
	<circle style="fill:#4F5565;" cx="254.644" cy="253.287" r="145.123"/>
	<circle style="fill:#4F5565;" cx="254.644" cy="253.287" r="145.123"/>
	<path style="fill:#4F5565;" d="M303.47,207.174c0,0,8.138,52.556,63.407,82.395v-31.534c0-62.05-50.183-112.233-112.233-112.233
		l0,0c-62.05,0-112.233,50.183-112.233,112.233v36.62C277.022,277.022,303.47,207.174,303.47,207.174z"/>
</g>
<path style="fill:#F6CEB0;" d="M303.47,207.174c0,0-26.448,69.849-161.399,87.82v38.315c0,62.05,50.183,112.233,112.233,112.233l0,0
	c62.05,0,112.233-50.183,112.233-112.233v-43.74C311.608,259.73,303.47,207.174,303.47,207.174z"/>
<path style="fill:#F1F3F7;" d="M76.63,230.23c-13.902,0-25.091,11.189-25.091,25.091v74.935c0,13.902,11.189,25.091,25.091,25.091
	s25.091-11.189,25.091-25.091v-74.935C102.061,241.42,90.532,230.23,76.63,230.23z"/>
<path style="fill:#6EB1E1;" d="M50.861,255.322c-20.683,0-37.298,16.615-37.298,37.298s16.615,37.298,37.298,37.298h0.678v-74.596
	H50.861z"/>
<path style="fill:#F1F3F7;" d="M432.657,355.348c13.902,0,25.091-11.189,25.091-25.091v-74.935
	c0-13.902-11.189-25.091-25.091-25.091s-25.091,11.189-25.091,25.091v74.935C407.226,344.159,418.755,355.348,432.657,355.348z"/>
<path style="fill:#6EB1E1;" d="M458.427,329.918c20.683,0,37.298-16.615,37.298-37.298s-16.615-37.298-37.298-37.298h-0.678v74.596
	H458.427z"/>
<g>
</g>
<g>
</g>
<g>
</g>
<g>
</g>
<g>
</g>
<g>
</g>
<g>
</g>
<g>
</g>
<g>
</g>
<g>
</g>
<g>
</g>
<g>
</g>
<g>
</g>
<g>
</g>
<g>
</g>
</svg>
