<?xml version="1.0" encoding="utf-8"?>
<!-- Generator: Adobe Illustrator 16.0.0, SVG Export Plug-In . SVG Version: 6.00 Build 0)  -->
<!DOCTYPE svg PUBLIC "-//W3C//DTD SVG 1.1//EN" "http://www.w3.org/Graphics/SVG/1.1/DTD/svg11.dtd">
<svg version="1.1" id="Layer_1" xmlns="http://www.w3.org/2000/svg" xmlns:xlink="http://www.w3.org/1999/xlink" x="0px" y="0px"
	 width="768.772px" height="264.484px" viewBox="0 0 768.772 264.484" enable-background="new 0 0 768.772 264.484"
	 xml:space="preserve">
<g>
	<g>
		
			<linearGradient id="SVGID_1_" gradientUnits="userSpaceOnUse" x1="883.1533" y1="1504.6479" x2="1143.0322" y2="1504.6479" gradientTransform="matrix(0 -1 1 0 -938.105 1144.3774)">
			<stop  offset="0" style="stop-color:#706DCB;stop-opacity:0"/>
			<stop  offset="1" style="stop-color:#706DCB;stop-opacity:0.7"/>
		</linearGradient>
		<path fill="url(#SVGID_1_)" d="M613.066,261.224c7.29,0,13.223-5.932,13.223-13.223V14.568c0-7.292-5.933-13.223-13.223-13.223
			h-93.046c-7.29,0-13.223,5.932-13.223,13.223V248c0,7.291,5.933,13.223,13.223,13.223H613.066z"/>
	</g>
	<g>
		
			<linearGradient id="SVGID_2_" gradientUnits="userSpaceOnUse" x1="-647.4741" y1="584.4839" x2="-532.4727" y2="584.4839" gradientTransform="matrix(0 1 -1 0 985.6606 795.3398)">
			<stop  offset="0" style="stop-color:#706DCB;stop-opacity:0"/>
			<stop  offset="1" style="stop-color:#706DCB;stop-opacity:0.7"/>
		</linearGradient>
		<path fill="url(#SVGID_2_)" d="M401.177,262.867c-31.707,0-57.5-25.795-57.5-57.501c0-31.706,25.793-57.5,57.5-57.5
			c31.707,0,57.5,25.794,57.5,57.5C458.677,237.072,432.884,262.867,401.177,262.867z"/>
		
			<linearGradient id="SVGID_3_" gradientUnits="userSpaceOnUse" x1="-734.4893" y1="584.4839" x2="-606.7368" y2="584.4839" gradientTransform="matrix(0 1 -1 0 985.6606 795.3398)">
			<stop  offset="0" style="stop-color:#706DCB;stop-opacity:0"/>
			<stop  offset="1" style="stop-color:#706DCB;stop-opacity:0.7"/>
		</linearGradient>
		<path fill="url(#SVGID_3_)" d="M401.177,145.461c-27.213,0-50.231,18.246-57.5,43.142V60.851h115v127.752
			C451.408,163.708,428.39,145.461,401.177,145.461z"/>
	</g>
	<g>
		<path fill="#FFFFFF" d="M397.307,0h-40.872c-8.617,0-15.627,7.011-15.627,15.627v11.096h2.404V15.627
			c0-7.292,5.932-13.224,13.223-13.224h38.951C395.81,1.444,396.48,0.626,397.307,0z"/>
		<path fill="#FFFFFF" d="M444.672,0h-39.991c0.826,0.626,1.496,1.444,1.92,2.404h38.071c7.291,0,13.223,5.932,13.223,13.224v11.096
			h2.404V15.627C460.299,7.011,453.289,0,444.672,0z"/>
	</g>
	<g>
		
			<linearGradient id="SVGID_4_" gradientUnits="userSpaceOnUse" x1="6433.8154" y1="1097.5483" x2="6433.8154" y2="1141.9663" gradientTransform="matrix(-1 0 0 -1 6506.2012 1336.1357)">
			<stop  offset="0.0914" style="stop-color:#706DCB;stop-opacity:0"/>
			<stop  offset="1" style="stop-color:#706DCB;stop-opacity:0.7"/>
		</linearGradient>
		<rect x="28.909" y="194.171" fill="url(#SVGID_4_)" width="86.953" height="44.418"/>
		<text transform="matrix(1 0 0 1 56.9263 218.7881)" fill="#FFFFFF" font-family="'Gilroy-ExtraBold'" font-size="12.1301">user</text>
		<g>
			<polygon fill-rule="evenodd" clip-rule="evenodd" fill="#FFFFFF" points="121.104,246.447 21.614,246.447 5.729,258.365 
				5.729,264.188 136.99,264.188 136.99,258.365 			"/>
			<path fill-rule="evenodd" clip-rule="evenodd" fill="#FFFFFF" d="M121.104,187.084h-99.49v56.188h99.49V187.084z
				 M113.014,235.991H29.707v-41.522h83.307V235.991z"/>
		</g>
	</g>
	<g>
		<g>
			<g>
				<g>
					
						<linearGradient id="SVGID_5_" gradientUnits="userSpaceOnUse" x1="3234.79" y1="3855.5171" x2="3323.0791" y2="3855.5171" gradientTransform="matrix(0 1 -1 0 3924.229 -3234.0132)">
						<stop  offset="0" style="stop-color:#706DCB;stop-opacity:0"/>
						<stop  offset="1" style="stop-color:#706DCB;stop-opacity:0.7"/>
					</linearGradient>
					<path fill="url(#SVGID_5_)" d="M30.226,89.066h-0.012c-4.897,0-9.439-1.074-13.516-3.203
						c-5.551-2.899-9.78-7.194-12.578-12.773c-1.708-3.415-2.692-7.067-2.925-10.848L1.123,61.5l0.018-2.683
						c0.136-1.621,0.375-3.753,0.971-5.905c1.157-4.186,3.205-7.959,6.082-11.227c2.473-2.806,5.464-5.102,8.895-6.819
						c0.227-0.109,0.449-0.216,0.67-0.315c0.546-3.147,1.77-6.084,3.638-8.747c2.958-4.219,6.934-7.071,11.832-8.479
						c3.072-0.885,6.176-1.072,9.183-0.564c1.698,0.29,3.362,0.809,5.042,1.568c4.406-6.928,10.411-11.938,17.902-14.936
						c7.56-3.029,15.59-3.43,23.596-1.186c8.414,2.353,15.278,7.162,20.41,14.301c4.386,6.095,6.735,12.881,7.02,20.217
						c4.954,1.297,9.245,3.84,12.782,7.586c4.206,4.448,6.581,9.788,7.057,15.862c0.37,4.756-0.49,9.341-2.561,13.629
						c-2.087,4.345-5.179,7.928-9.181,10.649c-3.454,2.347-7.239,3.801-11.266,4.326c-1.357,0.182-2.784,0.27-4.245,0.27
						c-16.404,0.012-32.804,0.015-49.212,0.015L30.226,89.066z"/>
				</g>
			</g>
		</g>
		<g>
			<g>
				<g>
					
						<path fill="none" stroke="#FFFFFF" stroke-width="2" stroke-linecap="round" stroke-linejoin="round" stroke-miterlimit="10" d="
						M30.104,89.514h-0.012c-4.896,0-9.439-1.074-13.516-3.203c-5.551-2.899-9.78-7.194-12.578-12.774
						c-1.707-3.415-2.693-7.066-2.925-10.847L1,61.948l0.018-2.683c0.136-1.623,0.375-3.755,0.97-5.907
						c1.159-4.185,3.207-7.958,6.082-11.225c2.475-2.807,5.467-5.102,8.896-6.819c0.229-0.11,0.45-0.216,0.671-0.317
						c0.546-3.146,1.771-6.082,3.638-8.747c2.958-4.217,6.933-7.068,11.832-8.479c3.072-0.883,6.173-1.072,9.183-0.565
						c1.698,0.292,3.36,0.81,5.04,1.57C51.734,11.85,57.739,6.838,65.23,3.84c7.56-3.028,15.59-3.432,23.598-1.187
						c8.412,2.354,15.278,7.165,20.41,14.301c4.386,6.098,6.734,12.884,7.02,20.22c4.954,1.297,9.246,3.84,12.782,7.585
						c4.206,4.449,6.581,9.788,7.057,15.861c0.37,4.758-0.49,9.343-2.561,13.63c-2.089,4.346-5.179,7.928-9.183,10.649
						c-3.452,2.345-7.236,3.8-11.264,4.327c-1.356,0.181-2.787,0.27-4.247,0.27c-16.402,0.01-32.802,0.014-49.212,0.014
						L30.104,89.514z"/>
				</g>
			</g>
		</g>
		<text transform="matrix(1 0 0 1 37.0347 62.5049)" fill="#FFFFFF" font-family="'Gilroy-ExtraBold'" font-size="14.4252">internet</text>
	</g>
	<g>
		
			<line fill-rule="evenodd" clip-rule="evenodd" fill="none" stroke="#FFFFFF" stroke-width="2" stroke-linecap="round" stroke-miterlimit="10" x1="333.594" y1="123.133" x2="290.497" y2="123.145"/>
		
			<polyline fill-rule="evenodd" clip-rule="evenodd" fill="none" stroke="#FFFFFF" stroke-width="2" stroke-linecap="round" stroke-miterlimit="10" points="
			325.743,116.138 333.594,123.133 325.451,129.79 		"/>
		
			<polyline fill-rule="evenodd" clip-rule="evenodd" fill="none" stroke="#FFFFFF" stroke-width="2" stroke-linecap="round" stroke-miterlimit="10" points="
			298.322,130.082 290.468,123.087 298.613,116.43 		"/>
	</g>
	<text transform="matrix(1 0 0 1 352.4473 99.5488)"><tspan x="0" y="0" fill="#FFFFFF" font-family="'Gilroy-ExtraBold'" font-size="15.568">blockchain</tspan><tspan x="24.263" y="14.271" fill="#FFFFFF" font-family="'Gilroy-ExtraBold'" font-size="15.568">based</tspan><tspan x="16.175" y="28.542" fill="#FFFFFF" font-family="'Gilroy-ExtraBold'" font-size="15.568">archive</tspan></text>
	<text transform="matrix(1 0 0 1 656.3486 128.9731)"><tspan x="0" y="0" fill="#FFFFFF" font-family="'Gilroy-ExtraBold'" font-size="15.568">cryptopolice</tspan><tspan x="10.523" y="14.271" fill="#FFFFFF" font-family="'Gilroy-ExtraBold'" font-size="15.568">community</tspan></text>
	<text transform="matrix(1 0 0 1 526.3008 128.9731)"><tspan x="0" y="0" fill="#FFFFFF" font-family="'Gilroy-ExtraBold'" font-size="15.568">multilevel</tspan><tspan x="-8.656" y="14.271" fill="#FFFFFF" font-family="'Gilroy-ExtraBold'" font-size="15.568">verification</tspan></text>
	<g>
		
			<line fill-rule="evenodd" clip-rule="evenodd" fill="none" stroke="#FFFFFF" stroke-width="2" stroke-linecap="round" stroke-miterlimit="10" x1="504.854" y1="77.292" x2="468.527" y2="77.301"/>
		
			<polyline fill-rule="evenodd" clip-rule="evenodd" fill="none" stroke="#FFFFFF" stroke-width="2" stroke-linecap="round" stroke-miterlimit="10" points="
			476.351,84.241 468.497,77.244 476.64,70.59 		"/>
	</g>
	<g>
		
			<line fill-rule="evenodd" clip-rule="evenodd" fill="none" stroke="#FFFFFF" stroke-width="2" stroke-linecap="round" stroke-miterlimit="10" x1="504.854" y1="172.074" x2="468.542" y2="172.083"/>
		
			<polyline fill-rule="evenodd" clip-rule="evenodd" fill="none" stroke="#FFFFFF" stroke-width="2" stroke-linecap="round" stroke-miterlimit="10" points="
			476.365,179.023 468.514,172.025 476.654,165.374 		"/>
	</g>
	<g>
		
			<line fill-rule="evenodd" clip-rule="evenodd" fill="none" stroke="#FFFFFF" stroke-width="2" stroke-linecap="round" stroke-miterlimit="10" x1="667.128" y1="172.074" x2="636.707" y2="172.083"/>
		
			<polyline fill-rule="evenodd" clip-rule="evenodd" fill="none" stroke="#FFFFFF" stroke-width="2" stroke-linecap="round" stroke-miterlimit="10" points="
			644.53,179.023 636.674,172.025 644.818,165.374 		"/>
	</g>
	<g>
		
			<line fill-rule="evenodd" clip-rule="evenodd" fill="none" stroke="#FFFFFF" stroke-width="2" stroke-linecap="round" stroke-miterlimit="10" x1="667.145" y1="77.292" x2="636.721" y2="77.301"/>
		
			<polyline fill-rule="evenodd" clip-rule="evenodd" fill="none" stroke="#FFFFFF" stroke-width="2" stroke-linecap="round" stroke-miterlimit="10" points="
			644.544,84.241 636.692,77.244 644.833,70.59 		"/>
	</g>
	<g>
		
			<line fill-rule="evenodd" clip-rule="evenodd" fill="none" stroke="#FFFFFF" stroke-width="2" stroke-linecap="round" stroke-miterlimit="10" x1="532.094" y1="41.735" x2="522.829" y2="50.999"/>
		
			<line fill-rule="evenodd" clip-rule="evenodd" fill="none" stroke="#FFFFFF" stroke-width="2" stroke-linecap="round" stroke-miterlimit="10" x1="522.831" y1="41.735" x2="532.098" y2="50.999"/>
	</g>
	<g>
		
			<line fill-rule="evenodd" clip-rule="evenodd" fill="none" stroke="#FFFFFF" stroke-width="2" stroke-linecap="round" stroke-miterlimit="10" x1="519.833" y1="21.755" x2="525.829" y2="27.749"/>
		
			<line fill-rule="evenodd" clip-rule="evenodd" fill="none" stroke="#FFFFFF" stroke-width="2" stroke-linecap="round" stroke-miterlimit="10" x1="535.092" y1="18.484" x2="525.829" y2="27.749"/>
	</g>
	<g>
		
			<line fill-rule="evenodd" clip-rule="evenodd" fill="none" stroke="#FFFFFF" stroke-width="2" stroke-linecap="round" stroke-miterlimit="10" x1="519.833" y1="66" x2="525.829" y2="71.995"/>
		
			<line fill-rule="evenodd" clip-rule="evenodd" fill="none" stroke="#FFFFFF" stroke-width="2" stroke-linecap="round" stroke-miterlimit="10" x1="535.092" y1="62.726" x2="525.829" y2="71.995"/>
	</g>
	<g>
		
			<line fill-rule="evenodd" clip-rule="evenodd" fill="none" stroke="#FFFFFF" stroke-width="2" stroke-linecap="round" stroke-miterlimit="10" x1="519.833" y1="87.523" x2="525.829" y2="93.52"/>
		
			<line fill-rule="evenodd" clip-rule="evenodd" fill="none" stroke="#FFFFFF" stroke-width="2" stroke-linecap="round" stroke-miterlimit="10" x1="535.092" y1="84.25" x2="525.829" y2="93.52"/>
	</g>
	<g>
		
			<line fill-rule="evenodd" clip-rule="evenodd" fill="none" stroke="#FFFFFF" stroke-width="2" stroke-linecap="round" stroke-miterlimit="10" x1="532.094" y1="189.684" x2="522.829" y2="198.948"/>
		
			<line fill-rule="evenodd" clip-rule="evenodd" fill="none" stroke="#FFFFFF" stroke-width="2" stroke-linecap="round" stroke-miterlimit="10" x1="522.829" y1="189.684" x2="532.094" y2="198.948"/>
	</g>
	<g>
		
			<line fill-rule="evenodd" clip-rule="evenodd" fill="none" stroke="#FFFFFF" stroke-width="2" stroke-linecap="round" stroke-miterlimit="10" x1="519.833" y1="169.703" x2="525.827" y2="175.697"/>
		
			<line fill-rule="evenodd" clip-rule="evenodd" fill="none" stroke="#FFFFFF" stroke-width="2" stroke-linecap="round" stroke-miterlimit="10" x1="535.092" y1="166.432" x2="525.827" y2="175.697"/>
	</g>
	<g>
		
			<line fill-rule="evenodd" clip-rule="evenodd" fill="none" stroke="#FFFFFF" stroke-width="2" stroke-linecap="round" stroke-miterlimit="10" x1="519.833" y1="235.47" x2="525.827" y2="241.463"/>
		
			<line fill-rule="evenodd" clip-rule="evenodd" fill="none" stroke="#FFFFFF" stroke-width="2" stroke-linecap="round" stroke-miterlimit="10" x1="535.092" y1="232.198" x2="525.827" y2="241.463"/>
	</g>
	<g>
		
			<line fill-rule="evenodd" clip-rule="evenodd" fill="none" stroke="#FFFFFF" stroke-width="2" stroke-linecap="round" stroke-miterlimit="10" x1="532.098" y1="212.589" x2="522.831" y2="221.854"/>
		
			<line fill-rule="evenodd" clip-rule="evenodd" fill="none" stroke="#FFFFFF" stroke-width="2" stroke-linecap="round" stroke-miterlimit="10" x1="522.833" y1="212.589" x2="532.098" y2="221.854"/>
	</g>
	<g>
		<g>
			<g>
				<g>
					<path fill-rule="evenodd" clip-rule="evenodd" fill="#FFFFFF" d="M574.89,39.53c0-0.241,0-0.429,0-0.614
						c0-4.987-0.014,4.293,0.01-0.69c0.019-4.541,2.855-8.032,7.227-8.966c3.715-0.791,7.778,1.139,9.561,4.51
						c0.744,1.418,1.055,2.918,1.045,4.522c-0.023,4.937-0.005-4.389-0.002,0.542c0,0.216,0,0.427,0,0.696
						C586.782,39.53,580.892,39.53,574.89,39.53z"/>
					<path fill-rule="evenodd" clip-rule="evenodd" fill="#FFFFFF" d="M589.508,21.924c-0.019,3.105-2.606,5.639-5.733,5.616
						c-3.13-0.023-5.63-2.578-5.606-5.726c0.025-3.146,2.594-5.709,5.682-5.665C587.017,16.193,589.515,18.745,589.508,21.924z"/>
				</g>
			</g>
		</g>
		<g>
			<text transform="matrix(1 0 0 1 562.374 52.459)" fill="#FFFFFF" font-family="'Gilroy-ExtraBold'" font-size="10.7937">OFFICER</text>
		</g>
	</g>
	<g>
		<g>
			<g>
				<g>
					<path fill-rule="evenodd" clip-rule="evenodd" fill="#FFFFFF" d="M574.89,87.364c0-0.237,0-0.424,0-0.611
						c0-4.987-0.014,4.292,0.01-0.69c0.019-4.541,2.855-8.032,7.227-8.967c3.715-0.791,7.778,1.134,9.561,4.51
						c0.744,1.418,1.055,2.917,1.045,4.522c-0.023,4.936-0.005-4.389-0.002,0.54c0,0.22,0,0.43,0,0.695
						C586.782,87.364,580.892,87.364,574.89,87.364z"/>
					<path fill-rule="evenodd" clip-rule="evenodd" fill="#FFFFFF" d="M589.508,69.759c-0.019,3.106-2.606,5.642-5.733,5.619
						c-3.13-0.025-5.63-2.578-5.606-5.727c0.025-3.151,2.594-5.709,5.682-5.667C587.017,64.029,589.515,66.583,589.508,69.759z"/>
				</g>
			</g>
		</g>
		<g>
			<text transform="matrix(1 0 0 1 562.374 100.2954)" fill="#FFFFFF" font-family="'Gilroy-ExtraBold'" font-size="10.7937">OFFICER</text>
		</g>
	</g>
	<g>
		<g>
			<g>
				<g>
					<path fill-rule="evenodd" clip-rule="evenodd" fill="#FFFFFF" d="M574.89,183.714c0-0.242,0-0.429,0-0.615
						c0-4.986-0.014,4.293,0.01-0.689c0.019-4.542,2.855-8.035,7.227-8.968c3.715-0.792,7.778,1.14,9.561,4.51
						c0.744,1.419,1.055,2.918,1.045,4.524c-0.023,4.934-0.005-4.391-0.002,0.541c0,0.217,0,0.427,0,0.696
						C586.782,183.714,580.892,183.714,574.89,183.714z"/>
					<path fill-rule="evenodd" clip-rule="evenodd" fill="#FFFFFF" d="M589.508,166.108c-0.019,3.105-2.606,5.64-5.733,5.616
						c-3.13-0.026-5.63-2.578-5.606-5.728c0.025-3.146,2.594-5.708,5.682-5.663C587.017,160.376,589.515,162.928,589.508,166.108z"
						/>
				</g>
			</g>
		</g>
		<g>
			<text transform="matrix(1 0 0 1 562.374 196.6421)" fill="#FFFFFF" font-family="'Gilroy-ExtraBold'" font-size="10.7937">OFFICER</text>
		</g>
	</g>
	<g>
		<g>
			<g>
				<g>
					<path fill-rule="evenodd" clip-rule="evenodd" fill="#FFFFFF" d="M574.89,231.546c0-0.237,0-0.423,0-0.61
						c0-4.985-0.014,4.294,0.01-0.689c0.019-4.541,2.855-8.034,7.227-8.968c3.715-0.791,7.778,1.137,9.561,4.512
						c0.744,1.417,1.055,2.918,1.045,4.522c-0.023,4.934-0.005-4.391-0.002,0.539c0,0.22,0,0.43,0,0.695
						C586.782,231.546,580.892,231.546,574.89,231.546z"/>
					<path fill-rule="evenodd" clip-rule="evenodd" fill="#FFFFFF" d="M589.508,213.943c-0.019,3.107-2.606,5.642-5.733,5.618
						c-3.13-0.024-5.63-2.577-5.606-5.727c0.025-3.151,2.594-5.708,5.682-5.666C587.017,208.212,589.515,210.766,589.508,213.943z"
						/>
				</g>
			</g>
		</g>
		<g>
			<text transform="matrix(1 0 0 1 562.374 244.4785)" fill="#FFFFFF" font-family="'Gilroy-ExtraBold'" font-size="10.7937">OFFICER</text>
		</g>
	</g>
	
		<line fill-rule="evenodd" clip-rule="evenodd" fill="none" stroke="#FFFFFF" stroke-width="0.5" stroke-linecap="round" stroke-linejoin="round" stroke-miterlimit="10" x1="546.075" y1="12.243" x2="546.075" y2="105.285"/>
	
		<line fill-rule="evenodd" clip-rule="evenodd" fill="none" stroke="#FFFFFF" stroke-width="0.5" stroke-linecap="round" stroke-linejoin="round" stroke-miterlimit="10" x1="546.075" y1="154.78" x2="546.075" y2="251.222"/>
	<g>
		<g>
			<g>
				<g>
					<g>
						<g>
							<path fill="#FFFFFF" d="M407.565,174.33c-0.77,0.649-1.261,1.622-1.261,2.707c0,1.833,1.392,3.34,3.177,3.521
								c0.117,0.01,0.237,0.02,0.361,0.02l0,0c0.105,0,0.214-0.01,0.319-0.019c0.021-0.001,0.044-0.002,0.07-0.004
								c0.089-0.01,0.179-0.024,0.268-0.042c0.042-0.006,0.083-0.015,0.122-0.024c0.054-0.014,0.108-0.028,0.16-0.042
								c0.083-0.026,0.162-0.048,0.24-0.075c0.017-0.006,0.033-0.013,0.052-0.02c0.117-0.042,0.23-0.092,0.34-0.147l0,0
								c0.291-0.143,0.559-0.328,0.8-0.544l0,0c0.371-0.336,0.669-0.75,0.876-1.218v0.001c0.127-0.292,0.214-0.606,0.256-0.934
								l-0.002-0.001c0.023-0.154,0.036-0.311,0.036-0.472c0-1.953-1.583-3.537-3.536-3.537c-0.521,0-1.014,0.115-1.458,0.317
								l-0.002-0.003c-0.296,0.132-0.573,0.305-0.817,0.513V174.33z"/>
							<path fill="#FFFFFF" d="M413.484,178.576l6.346,2.119c0.061-0.324,0.155-0.631,0.284-0.924l-6.37-2.128
								C413.696,177.967,413.611,178.282,413.484,178.576z"/>
							<path fill="#FFFFFF" d="M400.2,180.961v3.814c0.16-0.019,0.322-0.03,0.486-0.03c0.162,0,0.322,0.012,0.484,0.03v-3.814
								c-0.162,0.016-0.322,0.032-0.486,0.032C400.522,180.993,400.36,180.977,400.2,180.961z"/>
							<path fill="#FFFFFF" d="M403.604,190.68c0.007-0.013,0.017-0.027,0.028-0.041c0.047-0.07,0.091-0.146,0.136-0.219
								c0.019-0.039,0.04-0.074,0.059-0.112c0.03-0.06,0.059-0.122,0.089-0.184c0.025-0.059,0.049-0.118,0.07-0.176
								c0.021-0.049,0.038-0.097,0.054-0.148c0.026-0.082,0.052-0.168,0.073-0.251c0.007-0.032,0.016-0.06,0.025-0.089
								c0.052-0.247,0.083-0.505,0.083-0.768c0-1.531-0.972-2.827-2.334-3.319c-0.035-0.014-0.073-0.029-0.11-0.042
								c-0.056-0.02-0.115-0.033-0.171-0.048c-0.054-0.014-0.105-0.029-0.162-0.04c-0.049-0.011-0.101-0.02-0.152-0.029
								c-0.2-0.032-0.399-0.057-0.606-0.057c-0.211,0-0.418,0.025-0.617,0.057c-0.047,0.009-0.094,0.019-0.141,0.028
								c-0.059,0.013-0.122,0.03-0.183,0.048c-0.047,0.013-0.099,0.023-0.143,0.039c-0.057,0.019-0.108,0.04-0.165,0.06
								c-0.049,0.019-0.101,0.038-0.15,0.056c-0.038,0.018-0.07,0.036-0.105,0.051c-0.242,0.114-0.462,0.25-0.671,0.411
								c-0.012,0.011-0.026,0.019-0.04,0.029c-0.065,0.053-0.127,0.109-0.19,0.169c-0.014,0.014-0.031,0.027-0.047,0.038
								c-0.059,0.061-0.117,0.123-0.176,0.184c-0.014,0.015-0.028,0.033-0.04,0.047c-0.059,0.064-0.113,0.132-0.162,0.201
								c-0.012,0.017-0.023,0.031-0.035,0.048c-0.052,0.068-0.101,0.141-0.146,0.214c-0.009,0.016-0.019,0.033-0.026,0.048
								c-0.049,0.075-0.089,0.154-0.129,0.232c-0.007,0.015-0.017,0.029-0.021,0.043c-0.042,0.081-0.077,0.167-0.112,0.252
								c-0.002,0.012-0.007,0.023-0.012,0.036c-0.033,0.088-0.063,0.179-0.089,0.272c-0.005,0.006-0.005,0.013-0.005,0.019
								c-0.087,0.303-0.134,0.622-0.134,0.952c0,0.131,0.009,0.263,0.021,0.39c0.005,0.024,0.01,0.052,0.014,0.074
								c0.012,0.098,0.026,0.192,0.047,0.287c0.014,0.054,0.026,0.107,0.042,0.157c0.017,0.06,0.033,0.123,0.054,0.183
								c0.021,0.068,0.047,0.134,0.068,0.201c0.019,0.041,0.038,0.081,0.052,0.119c0.035,0.08,0.073,0.159,0.115,0.231
								c0.01,0.021,0.019,0.042,0.031,0.062c0.606,1.085,1.763,1.816,3.097,1.816C401.896,192.21,402.966,191.604,403.604,190.68z"
								/>
							<path fill="#FFFFFF" d="M400.684,173.496c-0.162,0-0.324,0.014-0.483,0.036v0.007c-1.724,0.235-3.055,1.709-3.055,3.499
								c0,0.32,0.047,0.63,0.125,0.925c0.005,0.02,0.009,0.038,0.017,0.057c0.021,0.081,0.049,0.158,0.077,0.237
								c0.009,0.027,0.019,0.051,0.026,0.075c0.033,0.073,0.063,0.147,0.096,0.22c0.014,0.026,0.026,0.05,0.04,0.073
								c0.033,0.075,0.073,0.144,0.115,0.212c0.012,0.023,0.026,0.043,0.038,0.068c0.044,0.067,0.089,0.138,0.136,0.202
								c0.014,0.019,0.028,0.036,0.04,0.054c0.052,0.069,0.108,0.134,0.165,0.201c0.009,0.01,0.019,0.021,0.028,0.033
								c0.547,0.609,1.301,1.027,2.153,1.146l0,0c0.16,0.021,0.322,0.039,0.483,0.039c0.165,0,0.324-0.018,0.486-0.039l0,0
								c0.751-0.102,1.427-0.443,1.956-0.94c0.002-0.001,0.002-0.002,0.002-0.002c0.066-0.066,0.129-0.133,0.192-0.202
								c0.01-0.012,0.021-0.023,0.033-0.034c0.056-0.067,0.105-0.132,0.155-0.197c0.019-0.019,0.033-0.039,0.047-0.06
								c0.042-0.064,0.089-0.13,0.134-0.198c0.012-0.022,0.028-0.047,0.042-0.072c0.042-0.067,0.077-0.135,0.11-0.203
								c0.014-0.029,0.028-0.056,0.04-0.083c0.035-0.071,0.065-0.143,0.094-0.213c0.012-0.027,0.021-0.057,0.03-0.081
								c0.028-0.078,0.054-0.153,0.078-0.232c0.007-0.02,0.012-0.043,0.017-0.066c0.023-0.085,0.044-0.171,0.061-0.258
								c0.002-0.006,0.002-0.012,0.002-0.016c0.038-0.209,0.059-0.423,0.059-0.642c0-1.789-1.329-3.264-3.052-3.499v-0.007
								C401.008,173.51,400.848,173.496,400.684,173.496z"/>
							<path fill="#FFFFFF" d="M374.146,181.157c-0.007,0.078-0.012,0.154-0.012,0.232c0,0.042,0.002,0.081,0.004,0.124
								c0,0.043,0.002,0.088,0.005,0.132c0.005,0.058,0.012,0.114,0.019,0.17c0.007,0.034,0.012,0.064,0.016,0.098
								c0.012,0.1,0.033,0.197,0.054,0.296c0.38,1.549,1.775,2.701,3.439,2.701c1.587,0,2.93-1.042,3.378-2.479
								c0-0.005,0.005-0.007,0.005-0.009c0.031-0.094,0.052-0.194,0.075-0.292c0.002-0.02,0.007-0.039,0.012-0.057
								c0.017-0.069,0.026-0.145,0.035-0.214c0.019-0.155,0.033-0.31,0.033-0.47c0-0.189-0.021-0.375-0.047-0.559l0.005-0.001
								c-0.049-0.325-0.143-0.64-0.277-0.928l-0.01,0.003c-0.561-1.211-1.787-2.055-3.209-2.055c-1.533,0-2.838,0.979-3.325,2.342
								l-0.012-0.002c-0.105,0.307-0.173,0.628-0.195,0.966L374.146,181.157z"/>
							<path fill="#FFFFFF" d="M388.311,178.443v-0.001c0.202,0.467,0.505,0.882,0.876,1.218l0,0
								c0.237,0.217,0.504,0.401,0.798,0.544l0,0c0.11,0.054,0.223,0.104,0.338,0.147c0.021,0.007,0.038,0.014,0.054,0.02
								c0.077,0.027,0.157,0.049,0.237,0.075c0.056,0.013,0.108,0.027,0.162,0.042c0.04,0.009,0.082,0.019,0.122,0.024
								c0.089,0.019,0.178,0.033,0.27,0.042c0.023,0.002,0.047,0.003,0.07,0.004c0.105,0.009,0.211,0.019,0.317,0.019
								c1.956,0,3.541-1.584,3.541-3.541c0-1.086-0.491-2.059-1.263-2.707v-0.004c-0.245-0.208-0.519-0.38-0.817-0.513l-0.002,0.003
								c-0.444-0.202-0.939-0.317-1.458-0.317c-1.951,0-3.533,1.584-3.533,3.537c0,0.161,0.012,0.318,0.03,0.472v0.001
								C388.095,177.837,388.182,178.15,388.311,178.443z"/>
							<path fill="#FFFFFF" d="M420.237,180.831c-0.031,0.183-0.049,0.37-0.049,0.559c0,0.2,0.019,0.396,0.052,0.589
								c0.004,0.025,0.007,0.049,0.014,0.074c0.01,0.063,0.028,0.125,0.042,0.19c0.012,0.047,0.023,0.096,0.038,0.145
								c0.014,0.05,0.033,0.099,0.052,0.146c0.019,0.062,0.038,0.121,0.061,0.178c0.016,0.041,0.038,0.08,0.052,0.118
								c0.033,0.066,0.059,0.129,0.094,0.193c0.017,0.032,0.033,0.063,0.052,0.096c0.04,0.067,0.077,0.134,0.12,0.196
								c0.019,0.026,0.035,0.053,0.054,0.079c0.047,0.071,0.097,0.135,0.15,0.201c0.014,0.019,0.031,0.04,0.047,0.059
								c0.057,0.07,0.122,0.138,0.184,0.204c0.014,0.012,0.023,0.024,0.037,0.037c0.073,0.074,0.15,0.143,0.235,0.211
								c0.002,0.004,0.005,0.007,0.007,0.008c0.434,0.358,0.955,0.615,1.528,0.734c0.007,0,0.014,0.002,0.021,0.003
								c0.225,0.046,0.46,0.068,0.699,0.068c0.953,0,1.822-0.379,2.458-0.992c0.021-0.026,0.047-0.049,0.07-0.072
								c0.055-0.056,0.108-0.114,0.157-0.172c0.021-0.022,0.036-0.041,0.055-0.064c0.063-0.075,0.124-0.156,0.181-0.238
								c0.025-0.039,0.049-0.075,0.07-0.114c0.197-0.306,0.343-0.645,0.435-1.005v-0.002c0.052-0.199,0.084-0.405,0.101-0.614
								c0.005-0.042,0.005-0.082,0.007-0.122c0.005-0.046,0.005-0.088,0.005-0.133c0-0.079-0.007-0.155-0.012-0.232l0.003-0.001
								c-0.021-0.336-0.09-0.659-0.197-0.966l-0.008,0.002c-0.488-1.363-1.791-2.342-3.324-2.342c-1.423,0-2.646,0.844-3.209,2.055
								l-0.007-0.002c-0.134,0.286-0.228,0.601-0.277,0.926L420.237,180.831z"/>
							<path fill="#FFFFFF" d="M415.081,185.884c-0.629,0.484-1.094,1.174-1.289,1.966c-0.002,0.005-0.002,0.011-0.005,0.014
								c-0.044,0.184-0.073,0.375-0.087,0.572c-0.002,0.04-0.004,0.081-0.004,0.123c0,0.042-0.002,0.084-0.002,0.132
								c0,0.219,0.019,0.433,0.056,0.642c0.002,0.003,0.002,0.009,0.002,0.016c0.017,0.084,0.038,0.173,0.059,0.256
								c0.01,0.025,0.014,0.046,0.019,0.067c0.023,0.08,0.051,0.155,0.077,0.231c0.012,0.027,0.021,0.054,0.031,0.081
								c0.03,0.073,0.061,0.143,0.094,0.216c0.014,0.025,0.026,0.054,0.038,0.081c0.035,0.07,0.073,0.138,0.115,0.205
								c0.014,0.023,0.028,0.048,0.042,0.074c0.042,0.067,0.087,0.133,0.134,0.197c0.014,0.02,0.028,0.038,0.042,0.058
								c0.052,0.068,0.104,0.134,0.16,0.198c0.012,0.012,0.021,0.023,0.033,0.035c0.061,0.068,0.125,0.135,0.192,0.202h0.002
								c0.526,0.499,1.202,0.839,1.958,0.942l0,0c0.155,0.021,0.319,0.038,0.481,0.038c0.165,0,0.324-0.016,0.484-0.038l0,0
								c0.385-0.053,0.753-0.17,1.089-0.335l0,0c0.293-0.145,0.559-0.329,0.798-0.547l0,0c0.718-0.648,1.167-1.579,1.167-2.619
								c0-1.953-1.587-3.537-3.539-3.537c-0.462,0-0.899,0.09-1.308,0.252v-0.007c-0.305,0.122-0.587,0.284-0.84,0.482V185.884z"/>
							<path fill="#FFFFFF" d="M414.853,185.532c0.258-0.195,0.538-0.362,0.833-0.486l-3.247-5.034
								c-0.242,0.211-0.509,0.395-0.801,0.542L414.853,185.532z"/>
							<path fill="#FFFFFF" d="M400.684,173.079c0.165,0,0.324,0.013,0.486,0.033v-3.337h-0.97v3.337
								C400.36,173.092,400.522,173.079,400.684,173.079z"/>
							<path fill="#FFFFFF" d="M394.061,173.974l2.712-4.199h-1.148l-2.383,3.685C393.537,173.599,393.814,173.77,394.061,173.974z"
								/>
							<path fill="#FFFFFF" d="M408.157,173.459l-2.383-3.685h-1.15l2.714,4.2C407.582,173.77,407.861,173.599,408.157,173.459z"/>
							<path fill="#FFFFFF" d="M380.633,188.691c0,1.04,0.453,1.971,1.162,2.619v0.004c0.237,0.219,0.504,0.402,0.796,0.548
								l0.004-0.004c0.338,0.166,0.705,0.283,1.092,0.335v0.005c0.157,0.023,0.317,0.039,0.481,0.039
								c0.165,0,0.326-0.015,0.484-0.039v-0.005c1.723-0.237,3.054-1.712,3.054-3.501c0-0.046-0.002-0.089-0.002-0.132
								c-0.002-0.041-0.005-0.083-0.007-0.123c-0.004-0.054-0.012-0.11-0.014-0.169c-0.012-0.071-0.021-0.146-0.035-0.216
								c-0.009-0.053-0.023-0.108-0.033-0.158c-0.009-0.042-0.021-0.084-0.033-0.128c-0.021-0.079-0.047-0.159-0.075-0.236
								c-0.012-0.034-0.023-0.07-0.038-0.105c-0.036-0.089-0.073-0.175-0.113-0.261c-0.012-0.024-0.021-0.049-0.035-0.073
								c-0.028-0.055-0.059-0.108-0.087-0.162c-0.007-0.008-0.012-0.016-0.017-0.025c-0.063-0.101-0.127-0.201-0.197-0.297
								c-0.007-0.01-0.014-0.022-0.021-0.029c-0.078-0.102-0.157-0.198-0.244-0.29v-0.002c-0.134-0.144-0.282-0.276-0.437-0.398
								c-0.27-0.203-0.563-0.37-0.885-0.494c-0.084-0.033-0.171-0.063-0.261-0.088c-0.026-0.009-0.059-0.014-0.087-0.022
								c-0.073-0.022-0.152-0.042-0.23-0.059c-0.082-0.015-0.167-0.028-0.253-0.038c-0.026-0.003-0.049-0.01-0.075-0.013
								c-0.118-0.011-0.24-0.018-0.359-0.018c-0.857,0-1.644,0.303-2.249,0.809C381.133,186.613,380.633,187.594,380.633,188.691z"
								/>
							<path fill="#FFFFFF" d="M381.567,180.694l6.344-2.119c-0.125-0.294-0.207-0.608-0.258-0.934l-6.368,2.126
								C381.415,180.063,381.509,180.371,381.567,180.694z"/>
							<path fill="#FFFFFF" d="M386.54,185.536l3.217-4.981c-0.286-0.148-0.559-0.331-0.798-0.542l-3.251,5.038
								C386.005,185.175,386.284,185.342,386.54,185.536z"/>
						</g>
						<g>
							<g>
								<path fill="#FFFFFF" d="M412.226,161.569h-9.051h-5.431h-9.056c-1.057,0-1.914,0.858-1.914,1.917v3.727
									c0,1.06,0.857,1.917,1.914,1.917h9.056h5.431h9.051c1.059,0,1.918-0.857,1.918-1.917v-3.727
									C414.144,162.427,413.285,161.569,412.226,161.569z"/>
							</g>
						</g>
						<g>
							<g>
								<path fill="#FFFFFF" d="M370.868,178.684c0.322,0,0.587,0.265,0.587,0.589c0,0.325-0.265,0.589-0.587,0.589
									c-0.326,0-0.591-0.264-0.591-0.589C370.277,178.949,370.542,178.684,370.868,178.684 M370.868,178.059
									c-0.671,0-1.216,0.547-1.216,1.214c0,0.669,0.544,1.214,1.216,1.214c0.667,0,1.214-0.545,1.214-1.214
									C372.082,178.606,371.535,178.059,370.868,178.059L370.868,178.059z"/>
								<path fill="#FFFFFF" d="M372.488,179.431c-0.03,0.337-0.167,0.645-0.375,0.89l1.623,0.668
									c0.033-0.335,0.108-0.653,0.218-0.956L372.488,179.431z"/>
							</g>
							<g>
								<path fill="#FFFFFF" d="M372.082,184.004l2.132-0.716c-0.155-0.279-0.277-0.58-0.359-0.899l-2.094,0.702
									C371.953,183.346,372.07,183.66,372.082,184.004z"/>
								<path fill="#FFFFFF" d="M370.455,183.473c0.326,0,0.589,0.267,0.589,0.59c0,0.327-0.263,0.592-0.589,0.592
									s-0.589-0.265-0.589-0.592C369.866,183.74,370.129,183.473,370.455,183.473 M370.455,182.85
									c-0.671,0-1.214,0.545-1.214,1.214c0,0.67,0.542,1.216,1.214,1.216s1.216-0.546,1.216-1.216
									C371.671,183.395,371.126,182.85,370.455,182.85L370.455,182.85z"/>
							</g>
							<g>
								<path fill="#FFFFFF" d="M373.277,187.407c0.326,0,0.589,0.261,0.589,0.586s-0.263,0.592-0.589,0.592
									c-0.324,0-0.587-0.267-0.587-0.592S372.953,187.407,373.277,187.407 M373.277,186.781c-0.667,0-1.211,0.544-1.211,1.211
									c0,0.671,0.544,1.215,1.211,1.215c0.671,0,1.216-0.543,1.216-1.215C374.494,187.326,373.949,186.781,373.277,186.781
									L373.277,186.781z"/>
								<path fill="#FFFFFF" d="M374.541,186.967l1.338-2.074c-0.289-0.148-0.557-0.33-0.801-0.54l-1.343,2.079
									C374.054,186.525,374.336,186.714,374.541,186.967z"/>
							</g>
							<g>
								<path fill="#FFFFFF" d="M377.672,188.978c0.324,0,0.589,0.265,0.589,0.59s-0.265,0.589-0.589,0.589
									c-0.324,0-0.589-0.264-0.589-0.589S377.349,188.978,377.672,188.978 M377.672,188.355c-0.669,0-1.214,0.543-1.214,1.212
									c0,0.669,0.545,1.214,1.214,1.214c0.671,0,1.214-0.544,1.214-1.214C378.886,188.899,378.344,188.355,377.672,188.355
									L377.672,188.355z"/>
								<path fill="#FFFFFF" d="M377.672,187.938c0.169,0,0.331,0.025,0.484,0.073v-2.717c-0.16,0.019-0.319,0.032-0.484,0.032
									c-0.162,0-0.324-0.013-0.481-0.032v2.717C377.341,187.963,377.506,187.938,377.672,187.938z"/>
							</g>
							<g>
								<path fill="#FFFFFF" d="M381.025,194.284l1.338-2.072c-0.286-0.148-0.552-0.331-0.798-0.542l-1.348,2.088
									C380.539,193.85,380.818,194.035,381.025,194.284z"/>
								<path fill="#FFFFFF" d="M379.774,194.737c0.326,0,0.589,0.264,0.589,0.589s-0.263,0.589-0.589,0.589
									c-0.324,0-0.587-0.264-0.587-0.589S379.45,194.737,379.774,194.737 M379.774,194.112c-0.669,0-1.211,0.546-1.211,1.214
									c0,0.669,0.542,1.211,1.211,1.211c0.671,0,1.216-0.542,1.216-1.211C380.99,194.658,380.445,194.112,379.774,194.112
									L379.774,194.112z"/>
							</g>
							<g>
								<path fill="#FFFFFF" d="M384.169,196.02c0.326,0,0.587,0.264,0.587,0.59c0,0.324-0.261,0.591-0.587,0.591
									c-0.324,0-0.589-0.267-0.589-0.591C383.58,196.284,383.845,196.02,384.169,196.02 M384.169,195.396
									c-0.669,0-1.216,0.545-1.216,1.214c0,0.67,0.547,1.214,1.216,1.214s1.214-0.543,1.214-1.214
									C385.383,195.941,384.838,195.396,384.169,195.396L384.169,195.396z"/>
								<path fill="#FFFFFF" d="M384.169,194.981c0.165,0,0.331,0.026,0.484,0.073v-2.434c-0.158,0.018-0.319,0.033-0.484,0.033
									c-0.164,0-0.324-0.016-0.481-0.033v2.434C383.838,195.007,384,194.981,384.169,194.981z"/>
							</g>
							<g>
								<path fill="#FFFFFF" d="M397.563,194.476l1.441-2.229c-0.296-0.137-0.573-0.307-0.821-0.512l-1.425,2.206
									C397.078,194.036,397.359,194.225,397.563,194.476z"/>
								<path fill="#FFFFFF" d="M396.3,194.916c0.324,0,0.589,0.264,0.589,0.588c0,0.325-0.265,0.592-0.589,0.592
									c-0.324,0-0.589-0.267-0.589-0.592C395.711,195.18,395.977,194.916,396.3,194.916 M396.3,194.293
									c-0.669,0-1.214,0.544-1.214,1.21c0,0.67,0.545,1.215,1.214,1.215c0.669,0,1.216-0.544,1.216-1.215
									C397.517,194.837,396.97,194.293,396.3,194.293L396.3,194.293z"/>
							</g>
							<g>
								<path fill="#FFFFFF" d="M400.684,196.545c0.324,0,0.589,0.265,0.589,0.59c0,0.324-0.265,0.589-0.589,0.589
									c-0.324,0-0.589-0.265-0.589-0.589C400.095,196.81,400.36,196.545,400.684,196.545 M400.684,195.919
									c-0.667,0-1.209,0.546-1.209,1.216c0,0.668,0.542,1.213,1.209,1.213c0.669,0,1.212-0.545,1.212-1.213
									C401.896,196.465,401.353,195.919,400.684,195.919L400.684,195.919z"/>
								<path fill="#FFFFFF" d="M400.684,195.503c0.169,0,0.331,0.027,0.486,0.075v-2.985c-0.162,0.02-0.322,0.032-0.484,0.032
									c-0.164,0-0.326-0.012-0.486-0.032v2.985C400.355,195.53,400.517,195.503,400.684,195.503z"/>
							</g>
							<g>
								<path fill="#FFFFFF" d="M405.069,194.916c0.327,0,0.587,0.264,0.587,0.588c0,0.325-0.261,0.592-0.587,0.592
									c-0.326,0-0.591-0.267-0.591-0.592C404.478,195.18,404.743,194.916,405.069,194.916 M405.069,194.293
									c-0.671,0-1.216,0.544-1.216,1.21c0,0.67,0.544,1.215,1.216,1.215c0.667,0,1.214-0.544,1.214-1.215
									C406.283,194.837,405.736,194.293,405.069,194.293L405.069,194.293z"/>
								<path fill="#FFFFFF" d="M404.609,193.941l-1.425-2.205c-0.247,0.204-0.523,0.374-0.819,0.513l1.439,2.227
									C404.013,194.225,404.29,194.036,404.609,193.941z"/>
							</g>
							<g>
								<path fill="#FFFFFF" d="M417.229,196.02c0.324,0,0.589,0.264,0.589,0.59c0,0.324-0.265,0.591-0.589,0.591
									c-0.326,0-0.589-0.267-0.589-0.591C416.64,196.284,416.903,196.02,417.229,196.02 M417.229,195.396
									c-0.669,0-1.214,0.545-1.214,1.214c0,0.67,0.545,1.214,1.214,1.214c0.669,0,1.214-0.543,1.214-1.214
									C418.443,195.941,417.898,195.396,417.229,195.396L417.229,195.396z"/>
								<path fill="#FFFFFF" d="M417.229,194.981c0.169,0,0.331,0.026,0.484,0.073v-2.44c-0.16,0.02-0.319,0.033-0.484,0.033
									c-0.162,0-0.326-0.013-0.481-0.033v2.44C416.9,195.007,417.063,194.981,417.229,194.981z"/>
							</g>
							<g>
								<path fill="#FFFFFF" d="M421.622,194.708c0.324,0,0.592,0.263,0.592,0.589c0,0.325-0.268,0.592-0.592,0.592
									c-0.322,0-0.589-0.267-0.589-0.592C421.033,194.971,421.3,194.708,421.622,194.708 M421.622,194.082
									c-0.667,0-1.209,0.547-1.209,1.215c0,0.67,0.542,1.215,1.209,1.215c0.672,0,1.214-0.544,1.214-1.215
									C422.836,194.629,422.294,194.082,421.622,194.082L421.622,194.082z"/>
								<path fill="#FFFFFF" d="M421.164,193.733l-1.336-2.067c-0.244,0.21-0.509,0.395-0.801,0.541l1.334,2.06
									C420.565,194.016,420.845,193.827,421.164,193.733z"/>
							</g>
							<g>
								<path fill="#FFFFFF" d="M423.726,188.986c0.324,0,0.59,0.261,0.59,0.586c0,0.326-0.266,0.59-0.59,0.59
									c-0.326,0-0.589-0.264-0.589-0.59C423.137,189.247,423.399,188.986,423.726,188.986 M423.726,188.358
									c-0.672,0-1.216,0.543-1.216,1.214c0,0.669,0.544,1.215,1.216,1.215c0.669,0,1.214-0.546,1.214-1.215
									C424.939,188.901,424.395,188.358,423.726,188.358L423.726,188.358z"/>
								<path fill="#FFFFFF" d="M423.726,187.943c0.169,0,0.331,0.025,0.483,0.073v-2.713c-0.159,0.019-0.321,0.033-0.483,0.033
									c-0.164,0-0.326-0.014-0.483-0.033v2.713C423.395,187.968,423.559,187.943,423.726,187.943z"/>
							</g>
							<g>
								<path fill="#FFFFFF" d="M428.121,187.407c0.323,0,0.587,0.261,0.587,0.586s-0.264,0.592-0.587,0.592
									c-0.324,0-0.592-0.267-0.592-0.592S427.797,187.407,428.121,187.407 M428.121,186.781c-0.669,0-1.217,0.544-1.217,1.211
									c0,0.671,0.548,1.215,1.217,1.215s1.214-0.543,1.214-1.215C429.335,187.326,428.79,186.781,428.121,186.781L428.121,186.781
									z"/>
								<path fill="#FFFFFF" d="M427.661,186.431l-1.336-2.074c-0.247,0.212-0.513,0.394-0.804,0.542l1.336,2.067
									C427.064,186.714,427.342,186.525,427.661,186.431z"/>
							</g>
							<g>
								<path fill="#FFFFFF" d="M431.305,184.007c0.324,0,0.589,0.265,0.589,0.59c0,0.324-0.265,0.589-0.589,0.589
									c-0.329,0-0.59-0.265-0.59-0.589C430.715,184.272,430.976,184.007,431.305,184.007 M431.305,183.383
									c-0.669,0-1.214,0.544-1.214,1.215c0,0.667,0.545,1.215,1.214,1.215c0.667,0,1.211-0.548,1.211-1.215
									C432.516,183.927,431.972,183.383,431.305,183.383L431.305,183.383z"/>
							</g>
						</g>
					</g>
				</g>
			</g>
		</g>
		<g>
			<g>
				<g>
					<g>
						<g>
							<path fill="#FFFFFF" d="M380.652,207.681c-0.061-0.025-0.122-0.047-0.183-0.069c-0.326-0.116-0.667-0.184-1.007-0.201v0.006
								c-0.96-0.042-1.935,0.296-2.663,1.027c-0.991,0.992-1.265,2.42-0.835,3.659c0.019,0.053,0.033,0.104,0.054,0.152
								c0.005,0.007,0.005,0.013,0.007,0.021c0.174,0.419,0.43,0.812,0.77,1.153c1.383,1.382,3.623,1.387,4.999,0.012
								c1.378-1.379,1.376-3.617-0.009-5C381.448,208.107,381.063,207.854,380.652,207.681z"/>
							<path fill="#FFFFFF" d="M374.179,216.753l2.7-2.705c-0.129-0.099-0.256-0.207-0.375-0.326
								c-0.115-0.113-0.216-0.229-0.31-0.351l-2.695,2.694c0.125,0.096,0.242,0.198,0.354,0.312
								C373.972,216.496,374.076,216.623,374.179,216.753z"/>
							<path fill="#FFFFFF" d="M367.048,203.146c-0.319-0.043-0.634-0.121-0.937-0.243l-1.261,5.854
								c0.324,0.021,0.641,0.081,0.951,0.183L367.048,203.146z"/>
							<path fill="#FFFFFF" d="M354.631,198.302l0.016,0.008c-0.62,1.31-0.39,2.925,0.695,4.01c0.115,0.114,0.237,0.22,0.364,0.316
								c0.026,0.019,0.052,0.037,0.075,0.054c0.051,0.038,0.105,0.075,0.155,0.109c0.063,0.037,0.125,0.074,0.186,0.108
								c0.044,0.027,0.091,0.047,0.134,0.071c0.068,0.033,0.136,0.067,0.204,0.094c0.028,0.013,0.057,0.023,0.087,0.033
								c0.082,0.036,0.169,0.066,0.256,0.09c0.009,0.004,0.019,0.008,0.031,0.011c1.2,0.354,2.552,0.057,3.503-0.895
								c1.031-1.033,1.296-2.546,0.782-3.821c-0.014-0.031-0.028-0.063-0.042-0.097c-0.03-0.063-0.056-0.127-0.091-0.189
								c-0.031-0.061-0.063-0.121-0.099-0.181c-0.019-0.031-0.04-0.063-0.054-0.093c-0.047-0.074-0.096-0.145-0.15-0.216
								c-0.104-0.138-0.216-0.279-0.345-0.408c-0.113-0.113-0.232-0.213-0.357-0.307l-0.002,0.002
								c-0.312-0.237-0.65-0.415-1.009-0.534l0.002-0.008c-0.307-0.103-0.626-0.164-0.951-0.181v0.012
								c-0.366-0.019-0.735,0.019-1.089,0.113l-0.007-0.012c-0.31,0.08-0.61,0.209-0.892,0.375l0.005,0.014
								c-0.242,0.146-0.479,0.32-0.693,0.537c-0.054,0.053-0.103,0.112-0.155,0.171l-0.017-0.006
								C354.95,197.736,354.769,198.012,354.631,198.302z"/>
							<path fill="#FFFFFF" d="M392.896,229.877c-0.16-0.16-0.329-0.297-0.507-0.417c-0.026-0.017-0.047-0.035-0.075-0.053
								c-0.056-0.035-0.115-0.069-0.176-0.105c-0.045-0.022-0.084-0.048-0.127-0.071c-0.033-0.015-0.061-0.028-0.087-0.04
								c-1.313-0.624-2.93-0.397-4.017,0.691c-0.136,0.131-0.251,0.276-0.362,0.427l-0.016-0.009
								c-0.192,0.266-0.345,0.552-0.456,0.851l0.017,0.01c-0.46,1.254-0.19,2.715,0.817,3.722c0.737,0.738,1.719,1.079,2.686,1.026
								c0.014,0,0.028,0,0.044-0.002c0.068-0.002,0.134-0.011,0.202-0.02c0.038-0.004,0.077-0.012,0.113-0.015
								c0.059-0.011,0.115-0.019,0.167-0.028c0.08-0.019,0.157-0.036,0.235-0.059c0.017-0.003,0.033-0.008,0.052-0.013
								c0.103-0.031,0.209-0.067,0.312-0.108c0.005-0.002,0.012-0.007,0.021-0.01c0.418-0.17,0.815-0.427,1.158-0.77
								C394.276,233.501,394.276,231.258,392.896,229.877z"/>
							<path fill="#FFFFFF" d="M367.081,215.203c0.949-0.95,1.245-2.3,0.895-3.5c-0.162-0.548-0.46-1.063-0.89-1.491
								c-0.401-0.402-0.874-0.682-1.378-0.85l0.004-0.014c-0.308-0.104-0.627-0.165-0.946-0.182l-0.007,0.018
								c-0.5-0.026-1.005,0.053-1.479,0.24l-0.01-0.013c-0.296,0.115-0.573,0.275-0.838,0.477l0.007,0.016
								c-0.122,0.095-0.244,0.196-0.354,0.31c-1.293,1.291-1.378,3.333-0.251,4.723c0.075,0.091,0.152,0.182,0.239,0.269
								C363.456,216.585,365.701,216.585,367.081,215.203z"/>
							<path fill="#FFFFFF" d="M380.011,228.132c0.517-0.514,0.838-1.149,0.97-1.815c0.002-0.005,0.002-0.012,0.002-0.018
								c0.014-0.083,0.026-0.165,0.038-0.248c0.005-0.047,0.012-0.091,0.014-0.14c0.004-0.055,0.004-0.11,0.007-0.169
								c0.002-0.073,0.005-0.148,0-0.222c-0.009-0.342-0.068-0.682-0.178-1.007l0,0c-0.167-0.501-0.449-0.976-0.848-1.374
								c-1.383-1.383-3.621-1.383-5.001,0c-0.772,0.767-1.11,1.802-1.023,2.808l-0.01,0.001c0.028,0.319,0.106,0.638,0.219,0.94
								h0.007c0.122,0.331,0.301,0.647,0.521,0.935c0.012,0.012,0.019,0.024,0.028,0.035c0.019,0.019,0.035,0.038,0.049,0.058
								c0.066,0.07,0.127,0.146,0.197,0.215C376.386,229.515,378.628,229.515,380.011,228.132z"/>
							<path fill="#FFFFFF" d="M393.48,225.109c0.411-0.412,0.7-0.902,0.864-1.423c0.012-0.033,0.023-0.069,0.035-0.107
								c0.014-0.053,0.026-0.107,0.04-0.16c0.014-0.074,0.033-0.148,0.044-0.221c0.002-0.022,0.009-0.048,0.009-0.07
								c0.033-0.224,0.045-0.453,0.033-0.68h0.004c-0.014-0.322-0.073-0.642-0.176-0.951l-0.007,0.001
								c-0.12-0.358-0.296-0.697-0.533-1.007l0.01-0.011c-0.099-0.131-0.207-0.257-0.324-0.379
								c-0.115-0.113-0.235-0.212-0.357-0.305l-0.012,0.012c-1.385-1.054-3.369-0.95-4.634,0.314c-0.813,0.81-1.141,1.913-1,2.968
								h-0.004c0.051,0.379,0.164,0.751,0.34,1.1c0.012,0.026,0.023,0.049,0.035,0.075c0.162,0.301,0.369,0.587,0.625,0.843
								C389.853,226.493,392.098,226.493,393.48,225.109z"/>
							<path fill="#FFFFFF" d="M387.066,223.179l-5.795,1.247c0.099,0.31,0.16,0.629,0.179,0.951l5.867-1.263
								C387.195,223.812,387.111,223.496,387.066,223.179z"/>
							<path fill="#FFFFFF" d="M373.573,226.039l-4.872,1.046l0.813,0.813l4.278-0.92
								C373.684,226.671,373.608,226.356,373.573,226.039z"/>
							<path fill="#FFFFFF" d="M363.25,216.422l-0.923,4.29l0.815,0.813l1.049-4.891
								C363.874,216.605,363.557,216.528,363.25,216.422z"/>
							<path fill="#FFFFFF" d="M368.255,221.971c-0.113-0.111-0.214-0.232-0.313-0.352l-2.353,2.356l0.681,0.682l2.357-2.358
								C368.5,222.199,368.375,222.091,368.255,221.971z"/>
							<path fill="#FFFFFF" d="M370.098,201.738c0.683-0.685,1.028-1.576,1.036-2.471c0-0.017,0-0.029,0-0.044
								c0-0.08-0.007-0.159-0.01-0.236c-0.002-0.039-0.004-0.077-0.007-0.116c-0.002-0.035-0.012-0.068-0.017-0.103
								c-0.08-0.587-0.305-1.159-0.683-1.653l0.005-0.002c-0.099-0.134-0.205-0.262-0.324-0.38
								c-0.115-0.114-0.235-0.214-0.357-0.309l-0.004,0.007c-0.313-0.235-0.653-0.415-1.012-0.534l0.005-0.009
								c-0.31-0.107-0.627-0.167-0.949-0.183l-0.002,0.015c-0.965-0.047-1.944,0.291-2.676,1.028
								c-1.293,1.29-1.38,3.333-0.253,4.723c0.077,0.092,0.157,0.182,0.242,0.269C366.473,203.12,368.718,203.12,370.098,201.738z"
								/>
							<path fill="#FFFFFF" d="M368.549,221.676c0.152,0.152,0.314,0.285,0.488,0.404c0.033,0.023,0.065,0.047,0.101,0.072
								c0.08,0.048,0.16,0.097,0.239,0.141c0.012,0.007,0.023,0.017,0.038,0.02c1.333,0.697,3.02,0.486,4.142-0.636
								c0.681-0.683,1.028-1.572,1.038-2.466c0-0.017,0-0.033,0-0.052c0-0.075-0.007-0.151-0.009-0.228
								c-0.007-0.042-0.007-0.081-0.009-0.121c-0.005-0.032-0.012-0.063-0.017-0.09c-0.08-0.595-0.303-1.17-0.683-1.667l0.005-0.002
								c-0.099-0.133-0.207-0.258-0.324-0.38c-0.113-0.113-0.235-0.211-0.357-0.307l-0.007,0.007
								c-1.385-1.051-3.369-0.95-4.635,0.316c-1.266,1.264-1.369,3.248-0.314,4.636l0,0
								C368.337,221.444,368.438,221.565,368.549,221.676z"/>
							<path fill="#FFFFFF" d="M387.151,230.113l-5.982-2.985c-0.122,0.294-0.282,0.576-0.474,0.84l6.003,3.001
								C386.813,230.668,386.963,230.382,387.151,230.113z"/>
							<path fill="#FFFFFF" d="M363.087,209.034l-2.986-5.987c-0.27,0.188-0.556,0.34-0.854,0.455l2.996,6.006
								C362.51,209.316,362.79,209.154,363.087,209.034z"/>
						</g>
						<g>
							<g>
								<path fill="#FFFFFF" d="M367.955,235.247c-0.751,0.748-1.967,0.748-2.711,0l-10.239-10.241
									c-0.751-0.748-0.751-1.963,0-2.713l2.632-2.634c0.751-0.749,1.963-0.749,2.712,0l10.239,10.241
									c0.751,0.75,0.749,1.962,0,2.711L367.955,235.247z"/>
							</g>
						</g>
						<g>
							<g>
								<path fill="#FFFFFF" d="M394.128,238.251c0.228,0.23,0.228,0.604,0,0.834c-0.232,0.228-0.603,0.229-0.833,0
									c-0.232-0.23-0.232-0.604,0-0.834C393.525,238.021,393.896,238.021,394.128,238.251 M394.567,237.81
									c-0.469-0.473-1.242-0.473-1.716,0c-0.47,0.474-0.47,1.244,0.002,1.716c0.472,0.473,1.245,0.473,1.714,0
									C395.04,239.054,395.04,238.284,394.567,237.81L394.567,237.81z"/>
								<path fill="#FFFFFF" d="M393.574,237.045l-0.674-1.609c-0.256,0.211-0.538,0.385-0.829,0.521l0.606,1.45
									C392.938,237.191,393.253,237.072,393.574,237.045z"/>
							</g>
							<g>
								<path fill="#FFFFFF" d="M397.808,235.154c0.23,0.23,0.23,0.603,0,0.834c-0.23,0.227-0.604,0.227-0.833,0
									c-0.23-0.231-0.23-0.604,0-0.834C397.204,234.925,397.578,234.925,397.808,235.154 M398.249,234.713
									c-0.474-0.472-1.244-0.472-1.716,0c-0.477,0.475-0.477,1.242,0,1.715c0.472,0.476,1.242,0.476,1.716,0
									C398.721,235.955,398.721,235.188,398.249,234.713L398.249,234.713z"/>
								<path fill="#FFFFFF" d="M396.188,234.477l-1.998-0.998c-0.089,0.309-0.218,0.605-0.385,0.891l1.972,0.982
									C395.821,235.033,395.955,234.727,396.188,234.477z"/>
							</g>
							<g>
								<path fill="#FFFFFF" d="M396.817,230.841c-0.031-0.154-0.042-0.31-0.031-0.461l-2.646,0.573
									c0.049,0.146,0.096,0.298,0.129,0.453c0.035,0.167,0.056,0.329,0.07,0.492l2.667-0.575
									C396.922,231.177,396.857,231.017,396.817,230.841z"/>
								<path fill="#FFFFFF" d="M398.876,229.963c0.23,0.231,0.23,0.604,0,0.836c-0.23,0.229-0.604,0.229-0.833,0
									c-0.23-0.231-0.23-0.604,0-0.836C398.272,229.735,398.646,229.735,398.876,229.963 M399.317,229.524
									c-0.474-0.472-1.242-0.472-1.716,0c-0.472,0.473-0.472,1.242,0,1.715c0.474,0.474,1.242,0.474,1.716,0
									C399.794,230.766,399.794,229.997,399.317,229.524L399.317,229.524z"/>
							</g>
							<g>
								<path fill="#FFFFFF" d="M399.181,220.6c0.228,0.231,0.228,0.604,0,0.833c-0.23,0.231-0.606,0.231-0.833,0
									c-0.232-0.229-0.232-0.602,0-0.833C398.575,220.371,398.951,220.371,399.181,220.6 M399.623,220.158
									c-0.474-0.471-1.245-0.471-1.721,0c-0.467,0.475-0.467,1.245,0,1.716c0.477,0.473,1.247,0.476,1.721,0
									C400.092,221.403,400.092,220.633,399.623,220.158L399.623,220.158z"/>
								<path fill="#FFFFFF" d="M397.141,220.895l-2.395,0.515c0.096,0.311,0.152,0.629,0.174,0.95l2.435-0.523
									C397.186,221.547,397.115,221.22,397.141,220.895z"/>
							</g>
							<g>
								<path fill="#FFFFFF" d="M396.979,216.585c0.23,0.23,0.23,0.604,0,0.834c-0.228,0.231-0.604,0.229-0.832,0
									c-0.23-0.231-0.23-0.604,0-0.834C396.375,216.357,396.751,216.357,396.979,216.585 M397.423,216.144
									c-0.472-0.473-1.242-0.473-1.716,0c-0.475,0.473-0.475,1.243,0,1.719c0.474,0.472,1.244,0.472,1.716,0
									C397.897,217.387,397.897,216.617,397.423,216.144L397.423,216.144z"/>
								<path fill="#FFFFFF" d="M395.411,218.157c-0.113-0.115-0.202-0.238-0.277-0.372l-1.714,1.714
									c0.122,0.095,0.242,0.198,0.357,0.31c0.117,0.12,0.223,0.245,0.326,0.375l1.726-1.728
									C395.678,218.378,395.537,218.28,395.411,218.157z"/>
							</g>
							<g>
								<path fill="#FFFFFF" d="M387.611,208.785c0.047,0.049,0.089,0.106,0.125,0.169c0.108,0.224,0.063,0.492-0.115,0.667
									c-0.232,0.231-0.601,0.231-0.833,0c-0.23-0.229-0.23-0.602,0-0.833c0.188-0.188,0.491-0.224,0.721-0.089
									C387.545,208.728,387.576,208.757,387.611,208.785 M388.05,208.344c-0.061-0.062-0.129-0.117-0.204-0.167
									c-0.465-0.293-1.092-0.238-1.498,0.17c-0.477,0.473-0.477,1.242,0,1.716c0.472,0.473,1.24,0.473,1.714,0
									c0.38-0.379,0.453-0.948,0.23-1.398C388.226,208.55,388.148,208.441,388.05,208.344L388.05,208.344z"/>
								<path fill="#FFFFFF" d="M385.831,210.112c0.005-0.003,0.012-0.005,0.017-0.005c-0.188-0.289-0.279-0.62-0.268-0.951
									l-2.547,0.549c0.103,0.308,0.164,0.626,0.19,0.947l2.595-0.56C385.822,210.099,385.827,210.106,385.831,210.112z"/>
							</g>
							<g>
								<path fill="#FFFFFF" d="M385.644,204.561c0.091,0.092,0.16,0.204,0.199,0.33c0.019,0.18-0.042,0.354-0.169,0.48
									c-0.232,0.23-0.604,0.23-0.836,0c-0.23-0.23-0.23-0.604,0-0.834c0.134-0.13,0.317-0.192,0.503-0.166
									C385.453,204.41,385.559,204.475,385.644,204.561 M386.087,204.12c-0.176-0.174-0.382-0.292-0.601-0.358
									c-0.38-0.073-0.792,0.038-1.087,0.331c-0.474,0.475-0.474,1.246,0.002,1.718c0.47,0.473,1.24,0.473,1.714,0
									c0.284-0.285,0.397-0.681,0.338-1.05C386.39,204.526,386.271,204.303,386.087,204.12L386.087,204.12z"/>
								<path fill="#FFFFFF" d="M384.514,206.402c-0.148-0.075-0.287-0.171-0.411-0.297c-0.126-0.125-0.228-0.273-0.305-0.428
									c-0.007,0.011-0.016,0.024-0.026,0.033c0.005,0.011,0.007,0.018,0.012,0.029l-2.083,2.083
									c0.127,0.101,0.258,0.207,0.376,0.328c0.112,0.113,0.213,0.231,0.308,0.353l2.083-2.078
									c0.004,0.001,0.012,0.002,0.021,0.003C384.495,206.418,384.507,206.412,384.514,206.402z"/>
							</g>
							<g>
								<path fill="#FFFFFF" d="M381.419,202.595c0.036,0.034,0.068,0.074,0.092,0.115c0.139,0.23,0.101,0.522-0.089,0.712
									c-0.23,0.23-0.605,0.23-0.833,0c-0.23-0.23-0.23-0.604,0-0.833c0.179-0.181,0.451-0.223,0.679-0.113
									C381.326,202.512,381.373,202.552,381.419,202.595 M381.863,202.154c-0.091-0.089-0.192-0.163-0.3-0.224
									c-0.456-0.237-1.033-0.163-1.414,0.217c-0.474,0.474-0.474,1.245,0,1.718c0.472,0.473,1.242,0.473,1.714,0
									c0.404-0.405,0.463-1.022,0.179-1.492C381.988,202.296,381.929,202.224,381.863,202.154L381.863,202.154z"/>
								<path fill="#FFFFFF" d="M381.046,204.633c-0.331,0.008-0.669-0.084-0.956-0.28c-0.002,0.006-0.005,0.01-0.007,0.014
									c0.012,0.005,0.019,0.014,0.028,0.019l-0.563,2.614c0.322,0.024,0.641,0.083,0.949,0.184L381.046,204.633z"/>
							</g>
							<g>
								<path fill="#FFFFFF" d="M372.033,194.778c-0.112-0.111-0.202-0.237-0.274-0.372l-1.719,1.721
									c0.122,0.096,0.24,0.196,0.354,0.309c0.12,0.122,0.226,0.247,0.324,0.378l1.735-1.736
									C372.301,195.004,372.16,194.902,372.033,194.778z"/>
								<path fill="#FFFFFF" d="M373.604,193.209c0.232,0.229,0.232,0.601,0,0.831c-0.23,0.231-0.605,0.231-0.833,0
									c-0.23-0.23-0.23-0.602,0-0.831C372.998,192.981,373.374,192.981,373.604,193.209 M374.045,192.766
									c-0.472-0.47-1.244-0.47-1.714,0c-0.474,0.474-0.474,1.247,0,1.717c0.47,0.473,1.242,0.473,1.714,0
									C374.517,194.013,374.517,193.24,374.045,192.766L374.045,192.766z"/>
							</g>
							<g>
								<path fill="#FFFFFF" d="M369.567,191.03c0.233,0.229,0.233,0.603,0,0.833c-0.23,0.23-0.603,0.23-0.833,0
									c-0.23-0.23-0.23-0.604,0-0.833C368.964,190.799,369.337,190.799,369.567,191.03 M370.011,190.588
									c-0.474-0.471-1.244-0.471-1.718,0c-0.472,0.474-0.472,1.244,0,1.716c0.474,0.473,1.244,0.473,1.718,0
									C370.483,191.833,370.483,191.063,370.011,190.588L370.011,190.588z"/>
								<path fill="#FFFFFF" d="M369.335,193.063c-0.324,0.039-0.657-0.022-0.948-0.177l-0.519,2.406
									c0.324,0.021,0.639,0.083,0.949,0.183L369.335,193.063z"/>
							</g>
							<g>
								<path fill="#FFFFFF" d="M364.034,193.591c0.232,0.231,0.232,0.604,0,0.833c-0.23,0.23-0.604,0.23-0.833,0
									c-0.228-0.228-0.228-0.603,0-0.833C363.433,193.361,363.804,193.361,364.034,193.591 M364.473,193.148
									c-0.474-0.473-1.242-0.473-1.714,0c-0.472,0.475-0.472,1.246,0,1.72c0.472,0.472,1.24,0.47,1.714,0
									C364.949,194.394,364.949,193.623,364.473,193.148L364.473,193.148z"/>
								<path fill="#FFFFFF" d="M362.465,195.163c-0.113-0.115-0.204-0.241-0.277-0.374l-1.909,1.91
									c0.12,0.098,0.24,0.198,0.35,0.313c0.12,0.119,0.225,0.243,0.329,0.377l1.925-1.928
									C362.733,195.386,362.59,195.286,362.465,195.163z"/>
							</g>
							<g>
								<path fill="#FFFFFF" d="M359.58,193.636c-0.324,0.034-0.658-0.023-0.951-0.181l-0.519,2.411
									c0.321,0.023,0.641,0.084,0.948,0.186L359.58,193.636z"/>
								<path fill="#FFFFFF" d="M359.81,191.6c0.23,0.229,0.23,0.604,0.002,0.835c-0.23,0.229-0.606,0.229-0.836,0
									c-0.228-0.23-0.228-0.606,0-0.835C359.209,191.371,359.582,191.371,359.81,191.6 M360.254,191.16
									c-0.475-0.473-1.245-0.473-1.719,0c-0.472,0.473-0.472,1.242,0,1.714c0.472,0.474,1.244,0.474,1.719,0
									C360.726,192.402,360.726,191.633,360.254,191.16L360.254,191.16z"/>
							</g>
							<g>
								<path fill="#FFFFFF" d="M355.022,192.368c0.228,0.231,0.228,0.605,0,0.833c-0.234,0.23-0.605,0.23-0.835,0
									c-0.228-0.228-0.228-0.601,0-0.833C354.417,192.139,354.788,192.139,355.022,192.368 M355.464,191.927
									c-0.474-0.473-1.244-0.473-1.716,0c-0.475,0.474-0.475,1.244,0,1.716c0.472,0.475,1.242,0.475,1.716,0
									C355.936,193.171,355.936,192.401,355.464,191.927L355.464,191.927z"/>
								<path fill="#FFFFFF" d="M355.718,193.976c-0.249,0.231-0.557,0.371-0.871,0.418l0.998,1.998
									c0.282-0.164,0.58-0.293,0.89-0.383L355.718,193.976z"/>
							</g>
							<g>
								<path fill="#FFFFFF" d="M352.767,197.526l1.483,0.617c0.134-0.292,0.301-0.574,0.512-0.832l-1.625-0.68
									C353.109,196.952,352.985,197.266,352.767,197.526z"/>
								<path fill="#FFFFFF" d="M351.931,196.069c0.23,0.231,0.23,0.604,0,0.836c-0.23,0.229-0.604,0.229-0.831,0
									c-0.232-0.232-0.232-0.604,0-0.836C351.327,195.84,351.7,195.84,351.931,196.069 M352.372,195.628
									c-0.472-0.473-1.242-0.473-1.716,0c-0.472,0.474-0.472,1.243,0,1.716c0.474,0.474,1.244,0.474,1.716,0
									C352.846,196.871,352.846,196.102,352.372,195.628L352.372,195.628z"/>
							</g>
						</g>
					</g>
				</g>
			</g>
			<g>
				<g>
					<g>
						<g>
							<path fill="#FFFFFF" d="M421.108,207.681c0.059-0.025,0.12-0.047,0.183-0.069c0.326-0.116,0.665-0.184,1.01-0.201v0.006
								c0.955-0.042,1.93,0.296,2.66,1.027c0.99,0.992,1.263,2.42,0.831,3.659c-0.015,0.053-0.031,0.104-0.052,0.152
								c-0.003,0.007-0.005,0.013-0.005,0.021c-0.176,0.419-0.432,0.812-0.772,1.153c-1.385,1.382-3.623,1.387-5.001,0.012
								c-1.376-1.379-1.369-3.617,0.012-5C420.312,208.107,420.697,207.854,421.108,207.681z"/>
							<path fill="#FFFFFF" d="M427.581,216.753l-2.702-2.705c0.131-0.099,0.258-0.207,0.375-0.326
								c0.115-0.113,0.214-0.229,0.311-0.351l2.695,2.694c-0.122,0.096-0.24,0.198-0.353,0.312
								C427.787,216.496,427.682,216.623,427.581,216.753z"/>
							<path fill="#FFFFFF" d="M434.711,203.146c0.317-0.043,0.632-0.121,0.938-0.243l1.256,5.854
								c-0.321,0.021-0.642,0.081-0.948,0.183L434.711,203.146z"/>
							<path fill="#FFFFFF" d="M447.127,198.302l-0.017,0.008c0.622,1.31,0.392,2.925-0.695,4.01
								c-0.112,0.114-0.239,0.22-0.363,0.316c-0.023,0.019-0.052,0.037-0.073,0.054c-0.052,0.038-0.105,0.075-0.155,0.109
								c-0.065,0.037-0.124,0.074-0.188,0.108c-0.042,0.027-0.089,0.047-0.132,0.071c-0.07,0.033-0.136,0.067-0.204,0.094
								c-0.03,0.013-0.059,0.023-0.087,0.033c-0.084,0.036-0.171,0.066-0.256,0.09c-0.009,0.004-0.021,0.008-0.03,0.011
								c-1.202,0.354-2.557,0.057-3.503-0.895c-1.033-1.033-1.296-2.546-0.784-3.821c0.014-0.031,0.028-0.063,0.045-0.097
								c0.027-0.063,0.056-0.127,0.087-0.189c0.032-0.061,0.067-0.121,0.103-0.181c0.017-0.031,0.035-0.063,0.055-0.093
								c0.047-0.074,0.096-0.145,0.147-0.216c0.104-0.138,0.219-0.279,0.348-0.408c0.112-0.113,0.232-0.213,0.354-0.307l0.002,0.002
								c0.313-0.237,0.65-0.415,1.01-0.534l-0.002-0.008c0.31-0.103,0.627-0.164,0.951-0.181v0.012
								c0.366-0.019,0.734,0.019,1.089,0.113l0.01-0.012c0.31,0.08,0.61,0.209,0.892,0.375l-0.009,0.014
								c0.249,0.146,0.483,0.32,0.694,0.537c0.057,0.053,0.105,0.112,0.157,0.171l0.015-0.006
								C446.81,197.736,446.99,198.012,447.127,198.302z"/>
							<path fill="#FFFFFF" d="M408.866,229.877c0.155-0.16,0.326-0.297,0.505-0.417c0.021-0.017,0.049-0.035,0.07-0.053
								c0.059-0.035,0.122-0.069,0.178-0.105c0.047-0.022,0.089-0.048,0.131-0.071c0.026-0.015,0.057-0.028,0.085-0.04
								c1.313-0.624,2.93-0.397,4.015,0.691c0.136,0.131,0.253,0.276,0.364,0.427l0.014-0.009c0.195,0.266,0.348,0.552,0.456,0.851
								l-0.017,0.01c0.46,1.254,0.19,2.715-0.817,3.722c-0.737,0.738-1.721,1.079-2.688,1.026c-0.012,0-0.025,0-0.04-0.002
								c-0.068-0.002-0.136-0.011-0.207-0.02c-0.036-0.004-0.073-0.012-0.11-0.015c-0.057-0.011-0.113-0.019-0.167-0.028
								c-0.078-0.019-0.155-0.036-0.232-0.059c-0.017-0.003-0.035-0.008-0.052-0.013c-0.105-0.031-0.211-0.067-0.312-0.108
								c-0.007-0.002-0.012-0.007-0.021-0.01c-0.42-0.17-0.817-0.427-1.155-0.77C407.483,233.501,407.483,231.258,408.866,229.877z"
								/>
							<path fill="#FFFFFF" d="M434.679,215.203c-0.951-0.95-1.247-2.3-0.897-3.5c0.165-0.548,0.46-1.063,0.893-1.491
								c0.399-0.402,0.873-0.682,1.376-0.85l-0.005-0.014c0.306-0.104,0.627-0.165,0.948-0.182l0.005,0.018
								c0.503-0.026,1.007,0.053,1.479,0.24l0.007-0.013c0.298,0.115,0.58,0.275,0.841,0.477l-0.008,0.016
								c0.125,0.095,0.244,0.196,0.359,0.31c1.292,1.291,1.374,3.333,0.247,4.723c-0.073,0.091-0.15,0.182-0.24,0.269
								C438.301,216.585,436.059,216.585,434.679,215.203z"/>
							<path fill="#FFFFFF" d="M421.749,228.132c-0.517-0.514-0.838-1.149-0.97-1.815c-0.002-0.005-0.002-0.012-0.002-0.018
								c-0.017-0.083-0.028-0.165-0.038-0.248c-0.005-0.047-0.012-0.091-0.014-0.14c-0.005-0.055-0.005-0.11-0.007-0.169
								c-0.005-0.073-0.007-0.148,0-0.222c0.009-0.342,0.068-0.682,0.176-1.007l0,0c0.169-0.501,0.449-0.976,0.848-1.374
								c1.38-1.383,3.623-1.383,5.005,0c0.768,0.767,1.108,1.802,1.021,2.808l0.01,0.001c-0.031,0.319-0.105,0.638-0.221,0.94
								h-0.005c-0.127,0.331-0.301,0.647-0.523,0.935c-0.012,0.012-0.021,0.024-0.03,0.035c-0.012,0.019-0.033,0.038-0.05,0.058
								c-0.061,0.07-0.127,0.146-0.192,0.215C425.371,229.515,423.134,229.515,421.749,228.132z"/>
							<path fill="#FFFFFF" d="M408.277,225.109c-0.411-0.412-0.697-0.902-0.864-1.423c-0.012-0.033-0.023-0.069-0.033-0.107
								c-0.017-0.053-0.028-0.107-0.04-0.16c-0.016-0.074-0.035-0.148-0.044-0.221c-0.002-0.022-0.009-0.048-0.012-0.07
								c-0.031-0.224-0.042-0.453-0.031-0.68h-0.004c0.014-0.322,0.07-0.642,0.173-0.951l0.007,0.001
								c0.122-0.358,0.298-0.697,0.533-1.007l-0.009-0.011c0.099-0.131,0.207-0.257,0.324-0.379
								c0.115-0.113,0.235-0.212,0.359-0.305l0.012,0.012c1.386-1.054,3.37-0.95,4.633,0.314c0.81,0.81,1.143,1.913,1.002,2.968
								h0.002c-0.05,0.379-0.165,0.751-0.341,1.1c-0.009,0.026-0.021,0.049-0.035,0.075c-0.16,0.301-0.366,0.587-0.625,0.843
								C411.904,226.493,409.662,226.493,408.277,225.109z"/>
							<path fill="#FFFFFF" d="M414.691,223.179l5.794,1.247c-0.098,0.31-0.159,0.629-0.178,0.951l-5.867-1.263
								C414.564,223.812,414.646,223.496,414.691,223.179z"/>
							<path fill="#FFFFFF" d="M428.185,226.039l4.874,1.046l-0.813,0.813l-4.28-0.92
								C428.076,226.671,428.149,226.356,428.185,226.039z"/>
							<path fill="#FFFFFF" d="M438.51,216.422l0.923,4.29l-0.816,0.813l-1.05-4.891C437.883,216.605,438.2,216.528,438.51,216.422z
								"/>
							<path fill="#FFFFFF" d="M433.505,221.971c0.112-0.111,0.211-0.232,0.31-0.352l2.353,2.356l-0.681,0.682l-2.36-2.358
								C433.256,222.199,433.383,222.091,433.505,221.971z"/>
							<path fill="#FFFFFF" d="M431.661,201.738c-0.683-0.685-1.028-1.576-1.037-2.471c0-0.017,0-0.029,0-0.044
								c0-0.08,0.007-0.159,0.012-0.236c0.002-0.039,0.002-0.077,0.009-0.116c0.003-0.035,0.007-0.068,0.012-0.103
								c0.082-0.587,0.308-1.159,0.686-1.653l-0.005-0.002c0.1-0.134,0.205-0.262,0.324-0.38c0.113-0.114,0.232-0.214,0.357-0.309
								l0.004,0.007c0.313-0.235,0.653-0.415,1.01-0.534l-0.004-0.009c0.31-0.107,0.629-0.167,0.95-0.183l0.005,0.015
								c0.963-0.047,1.941,0.291,2.674,1.028c1.292,1.29,1.376,3.333,0.252,4.723c-0.078,0.092-0.155,0.182-0.24,0.269
								C435.284,203.12,433.042,203.12,431.661,201.738z"/>
							<path fill="#FFFFFF" d="M433.209,221.676c-0.15,0.152-0.315,0.285-0.484,0.404c-0.037,0.023-0.072,0.047-0.103,0.072
								c-0.08,0.048-0.162,0.097-0.242,0.141c-0.014,0.007-0.023,0.017-0.035,0.02c-1.334,0.697-3.021,0.486-4.145-0.636
								c-0.681-0.683-1.025-1.572-1.035-2.466c0-0.017,0-0.033,0-0.052c0-0.075,0.007-0.151,0.01-0.228
								c0.005-0.042,0.007-0.081,0.009-0.121c0.003-0.032,0.01-0.063,0.015-0.09c0.08-0.595,0.303-1.17,0.684-1.667l-0.005-0.002
								c0.099-0.133,0.206-0.258,0.323-0.38c0.115-0.113,0.235-0.211,0.359-0.307l0.005,0.007c1.388-1.051,3.372-0.95,4.635,0.316
								c1.266,1.264,1.371,3.248,0.319,4.636l0,0C433.425,221.444,433.323,221.565,433.209,221.676z"/>
							<path fill="#FFFFFF" d="M414.609,230.113l5.982-2.985c0.12,0.294,0.282,0.576,0.474,0.84l-6.006,3.001
								C414.947,230.668,414.797,230.382,414.609,230.113z"/>
							<path fill="#FFFFFF" d="M438.67,209.034l2.988-5.987c0.271,0.188,0.557,0.34,0.853,0.455l-2.998,6.006
								C439.247,209.316,438.968,209.154,438.67,209.034z"/>
						</g>
						<g>
							<g>
								<path fill="#FFFFFF" d="M433.805,235.247c0.749,0.748,1.966,0.748,2.712,0l10.241-10.241c0.752-0.748,0.752-1.963,0-2.713
									l-2.634-2.634c-0.749-0.749-1.963-0.749-2.715,0l-10.238,10.241c-0.752,0.75-0.749,1.962,0,2.711L433.805,235.247z"/>
							</g>
						</g>
						<g>
							<g>
								<path fill="#FFFFFF" d="M407.629,238.251c0.23-0.23,0.604-0.23,0.833,0c0.232,0.23,0.232,0.604,0,0.834
									c-0.23,0.229-0.604,0.228-0.833,0C407.401,238.855,407.401,238.481,407.629,238.251 M407.189,237.81
									c-0.474,0.474-0.474,1.244,0,1.716c0.472,0.473,1.245,0.473,1.717,0c0.474-0.472,0.474-1.242,0-1.716
									C408.434,237.336,407.662,237.336,407.189,237.81L407.189,237.81z"/>
								<path fill="#FFFFFF" d="M408.183,237.045l0.674-1.609c0.256,0.211,0.536,0.385,0.829,0.521l-0.606,1.45
									C408.821,237.191,408.504,237.072,408.183,237.045z"/>
							</g>
							<g>
								<path fill="#FFFFFF" d="M403.952,235.154c0.228-0.229,0.604-0.229,0.833,0c0.23,0.23,0.23,0.603,0,0.834
									c-0.23,0.227-0.606,0.227-0.833,0C403.722,235.757,403.722,235.384,403.952,235.154 M403.508,234.713
									c-0.47,0.475-0.47,1.242,0,1.715c0.474,0.476,1.247,0.476,1.714,0c0.479-0.473,0.479-1.24,0.005-1.715
									C404.755,234.241,403.982,234.241,403.508,234.713L403.508,234.713z"/>
								<path fill="#FFFFFF" d="M405.574,234.477l1.996-0.998c0.089,0.309,0.216,0.605,0.382,0.891l-1.972,0.982
									C405.936,235.033,405.805,234.727,405.574,234.477z"/>
							</g>
							<g>
								<path fill="#FFFFFF" d="M404.94,230.841c0.033-0.154,0.044-0.31,0.033-0.461l2.644,0.573
									c-0.047,0.146-0.094,0.298-0.129,0.453c-0.033,0.167-0.054,0.329-0.07,0.492l-2.665-0.575
									C404.837,231.177,404.9,231.017,404.94,230.841z"/>
								<path fill="#FFFFFF" d="M402.879,229.963c0.232-0.228,0.604-0.228,0.836,0c0.23,0.231,0.23,0.604,0,0.836
									c-0.232,0.229-0.604,0.229-0.836,0C402.651,230.567,402.651,230.194,402.879,229.963 M402.44,229.524
									c-0.472,0.473-0.472,1.242,0,1.715c0.474,0.474,1.245,0.474,1.714,0c0.474-0.473,0.474-1.242,0-1.715
									C403.685,229.052,402.914,229.052,402.44,229.524L402.44,229.524z"/>
							</g>
							<g>
								<path fill="#FFFFFF" d="M402.579,220.6c0.232-0.229,0.603-0.229,0.833,0c0.232,0.231,0.232,0.604,0,0.833
									c-0.23,0.231-0.601,0.231-0.833,0C402.346,221.204,402.346,220.831,402.579,220.6 M402.135,220.158
									c-0.472,0.475-0.472,1.245,0,1.716c0.477,0.476,1.244,0.473,1.721,0c0.469-0.472,0.469-1.242,0-1.716
									C403.379,219.688,402.611,219.688,402.135,220.158L402.135,220.158z"/>
								<path fill="#FFFFFF" d="M404.616,220.895l2.397,0.515c-0.096,0.311-0.155,0.629-0.174,0.95l-2.437-0.523
									C404.569,221.547,404.645,221.22,404.616,220.895z"/>
							</g>
							<g>
								<path fill="#FFFFFF" d="M404.778,216.585c0.228-0.228,0.604-0.228,0.831,0c0.23,0.23,0.23,0.604,0,0.834
									c-0.228,0.229-0.603,0.231-0.831,0C404.548,217.188,404.548,216.815,404.778,216.585 M404.335,216.144
									c-0.472,0.473-0.472,1.243,0,1.719c0.472,0.472,1.244,0.472,1.718,0c0.472-0.476,0.472-1.246,0-1.719
									C405.579,215.67,404.807,215.67,404.335,216.144L404.335,216.144z"/>
								<path fill="#FFFFFF" d="M406.347,218.157c0.113-0.115,0.205-0.238,0.277-0.372l1.711,1.714
									c-0.117,0.095-0.24,0.198-0.352,0.31c-0.12,0.12-0.223,0.245-0.327,0.375l-1.728-1.728
									C406.079,218.378,406.22,218.28,406.347,218.157z"/>
							</g>
							<g>
								<path fill="#FFFFFF" d="M414.149,208.785c0.03-0.028,0.065-0.057,0.103-0.087c0.23-0.135,0.531-0.099,0.719,0.089
									c0.23,0.231,0.23,0.604,0,0.833c-0.23,0.231-0.604,0.231-0.833,0c-0.176-0.175-0.223-0.442-0.115-0.667
									C414.06,208.891,414.102,208.834,414.149,208.785 M413.708,208.344c-0.096,0.098-0.176,0.207-0.24,0.322
									c-0.225,0.451-0.15,1.019,0.228,1.398c0.474,0.473,1.244,0.473,1.716,0c0.474-0.475,0.474-1.244,0-1.716
									c-0.406-0.409-1.036-0.464-1.5-0.17C413.839,208.227,413.771,208.282,413.708,208.344L413.708,208.344z"/>
								<path fill="#FFFFFF" d="M415.926,210.112c-0.005-0.003-0.01-0.005-0.014-0.005c0.19-0.289,0.279-0.62,0.27-0.951
									l2.542,0.549c-0.101,0.308-0.164,0.626-0.188,0.947l-2.599-0.56C415.936,210.099,415.931,210.106,415.926,210.112z"/>
							</g>
							<g>
								<path fill="#FFFFFF" d="M416.114,204.561c0.084-0.086,0.188-0.15,0.305-0.19c0.183-0.027,0.369,0.035,0.498,0.166
									c0.232,0.23,0.232,0.604,0,0.834c-0.23,0.23-0.604,0.23-0.831,0c-0.127-0.126-0.188-0.3-0.169-0.48
									C415.957,204.765,416.022,204.653,416.114,204.561 M415.672,204.12c-0.183,0.183-0.305,0.406-0.369,0.641
									c-0.059,0.37,0.057,0.765,0.338,1.05c0.474,0.473,1.247,0.473,1.716,0c0.474-0.473,0.474-1.243,0-1.718
									c-0.293-0.293-0.705-0.404-1.087-0.331C416.055,203.828,415.846,203.946,415.672,204.12L415.672,204.12z"/>
								<path fill="#FFFFFF" d="M417.243,206.402c0.148-0.075,0.289-0.171,0.411-0.297c0.129-0.125,0.228-0.273,0.305-0.428
									c0.009,0.011,0.016,0.024,0.026,0.033c-0.005,0.011-0.005,0.018-0.012,0.029l2.083,2.083
									c-0.127,0.101-0.254,0.207-0.376,0.328c-0.11,0.113-0.213,0.231-0.308,0.353l-2.08-2.078
									c-0.007,0.001-0.014,0.002-0.023,0.003C417.262,206.418,417.252,206.412,417.243,206.402z"/>
							</g>
							<g>
								<path fill="#FFFFFF" d="M420.338,202.595c0.047-0.043,0.094-0.083,0.155-0.119c0.228-0.11,0.498-0.068,0.676,0.113
									c0.23,0.229,0.23,0.604,0,0.833c-0.23,0.23-0.604,0.23-0.833,0c-0.19-0.19-0.228-0.482-0.089-0.712
									C420.272,202.669,420.305,202.629,420.338,202.595 M419.898,202.154c-0.07,0.07-0.129,0.142-0.181,0.22
									c-0.284,0.469-0.228,1.087,0.179,1.492c0.469,0.473,1.242,0.473,1.714,0c0.472-0.473,0.472-1.244,0-1.718
									c-0.383-0.38-0.96-0.455-1.416-0.217C420.089,201.991,419.99,202.064,419.898,202.154L419.898,202.154z"/>
								<path fill="#FFFFFF" d="M420.711,204.633c0.333,0.008,0.671-0.084,0.956-0.28c0.002,0.006,0.005,0.01,0.007,0.014
									c-0.012,0.005-0.017,0.014-0.026,0.019l0.563,2.614c-0.321,0.024-0.641,0.083-0.951,0.184L420.711,204.633z"/>
							</g>
							<g>
								<path fill="#FFFFFF" d="M429.725,194.778c0.11-0.111,0.202-0.237,0.276-0.372l1.717,1.721
									c-0.122,0.096-0.239,0.196-0.353,0.309c-0.119,0.122-0.228,0.247-0.326,0.378l-1.735-1.736
									C429.457,195.004,429.598,194.902,429.725,194.778z"/>
								<path fill="#FFFFFF" d="M428.153,193.209c0.23-0.229,0.604-0.229,0.834,0c0.228,0.229,0.228,0.601,0,0.831
									c-0.23,0.231-0.604,0.231-0.834,0C427.924,193.811,427.924,193.438,428.153,193.209 M427.712,192.766
									c-0.474,0.474-0.474,1.247,0,1.717c0.475,0.473,1.245,0.473,1.719,0c0.473-0.471,0.473-1.243-0.002-1.717
									C428.957,192.296,428.187,192.296,427.712,192.766L427.712,192.766z"/>
							</g>
							<g>
								<path fill="#FFFFFF" d="M432.189,191.03c0.23-0.23,0.604-0.23,0.834,0c0.229,0.229,0.229,0.603,0,0.833
									c-0.23,0.23-0.604,0.23-0.834,0C431.96,191.633,431.96,191.259,432.189,191.03 M431.748,190.588
									c-0.474,0.474-0.474,1.244,0,1.716c0.475,0.473,1.244,0.473,1.719,0c0.47-0.472,0.47-1.242,0-1.716
									C432.992,190.118,432.223,190.118,431.748,190.588L431.748,190.588z"/>
								<path fill="#FFFFFF" d="M432.422,193.063c0.322,0.039,0.655-0.022,0.953-0.177l0.515,2.406
									c-0.322,0.021-0.639,0.083-0.948,0.183L432.422,193.063z"/>
							</g>
							<g>
								<path fill="#FFFFFF" d="M437.726,193.591c0.229-0.23,0.602-0.23,0.831,0.001c0.23,0.23,0.23,0.604,0,0.833
									c-0.228,0.23-0.603,0.23-0.831,0C437.496,194.196,437.496,193.822,437.726,193.591 M437.284,193.148
									c-0.474,0.475-0.474,1.246,0,1.72c0.475,0.47,1.24,0.472,1.714,0c0.475-0.474,0.475-1.245,0-1.72
									C438.524,192.675,437.759,192.675,437.284,193.148L437.284,193.148z"/>
								<path fill="#FFFFFF" d="M439.294,195.163c0.11-0.115,0.202-0.241,0.277-0.374l1.909,1.91
									c-0.122,0.098-0.24,0.198-0.353,0.313c-0.117,0.119-0.226,0.243-0.326,0.377l-1.926-1.928
									C439.026,195.386,439.167,195.286,439.294,195.163z"/>
							</g>
							<g>
								<path fill="#FFFFFF" d="M442.18,193.636c0.324,0.034,0.655-0.023,0.948-0.181l0.524,2.411
									c-0.324,0.023-0.644,0.084-0.954,0.186L442.18,193.636z"/>
								<path fill="#FFFFFF" d="M441.95,191.6c0.228-0.229,0.601-0.229,0.833,0c0.228,0.229,0.228,0.604,0,0.835
									c-0.23,0.229-0.605,0.229-0.836,0C441.718,192.205,441.72,191.829,441.95,191.6 M441.506,191.16
									c-0.472,0.473-0.472,1.242,0,1.714c0.475,0.474,1.242,0.474,1.717,0c0.472-0.472,0.472-1.241,0-1.714
									C442.748,190.687,441.98,190.687,441.506,191.16L441.506,191.16z"/>
							</g>
							<g>
								<path fill="#FFFFFF" d="M446.734,192.368c0.232-0.229,0.606-0.229,0.836,0c0.23,0.231,0.23,0.605,0,0.833
									c-0.229,0.23-0.604,0.23-0.836,0C446.507,192.973,446.507,192.599,446.734,192.368 M446.296,191.927
									c-0.473,0.474-0.473,1.244,0,1.716c0.472,0.475,1.244,0.475,1.716,0c0.475-0.472,0.475-1.242,0-1.716
									C447.54,191.454,446.768,191.454,446.296,191.927L446.296,191.927z"/>
								<path fill="#FFFFFF" d="M446.04,193.976c0.253,0.231,0.556,0.371,0.871,0.418l-0.996,1.998
									c-0.284-0.164-0.582-0.293-0.89-0.383L446.04,193.976z"/>
							</g>
							<g>
								<path fill="#FFFFFF" d="M448.991,197.526l-1.481,0.617c-0.137-0.292-0.304-0.574-0.512-0.832l1.622-0.68
									C448.65,196.952,448.772,197.266,448.991,197.526z"/>
								<path fill="#FFFFFF" d="M449.827,196.069c0.229-0.229,0.604-0.229,0.833,0c0.23,0.231,0.23,0.604,0,0.836
									c-0.229,0.229-0.604,0.229-0.833,0C449.597,196.673,449.597,196.301,449.827,196.069 M449.386,195.628
									c-0.473,0.474-0.473,1.243,0,1.716c0.474,0.474,1.241,0.474,1.716,0c0.475-0.473,0.475-1.242,0-1.716
									C450.627,195.155,449.859,195.155,449.386,195.628L449.386,195.628z"/>
							</g>
						</g>
					</g>
				</g>
			</g>
		</g>
	</g>
	<g>
		
			<line fill-rule="evenodd" clip-rule="evenodd" fill="none" stroke="#FFFFFF" stroke-width="2" stroke-linecap="round" stroke-miterlimit="10" x1="177.144" y1="105.345" x2="136.99" y2="86.632"/>
		
			<polyline fill-rule="evenodd" clip-rule="evenodd" fill="none" stroke="#FFFFFF" stroke-width="2" stroke-linecap="round" stroke-miterlimit="10" points="
			172.983,95.687 177.144,105.345 166.951,107.937 		"/>
		
			<polyline fill-rule="evenodd" clip-rule="evenodd" fill="none" stroke="#FFFFFF" stroke-width="2" stroke-linecap="round" stroke-miterlimit="10" points="
			141.15,96.228 136.988,86.569 147.183,83.977 		"/>
	</g>
	<g>
		<g>
			<path fill="#FFFFFF" d="M483.221,28.638h-7.304l1.234,1.237h-51.801l2.853-4.943c0.537,0.322,1.162,0.507,1.831,0.512
				c1.986-0.004,3.597-1.615,3.597-3.599c0-1.989-1.61-3.597-3.597-3.597c-1.956,0-3.545,1.561-3.59,3.512h-6.097h-9.683
				l-4.844-8.389l-3.045-5.273c1.075-0.625,1.798-1.785,1.798-3.118c0-1.984-1.611-3.596-3.599-3.596
				c-1.984,0-3.592,1.612-3.592,3.596c0,1.333,0.721,2.494,1.796,3.118l-3.045,5.273l-4.844,8.389h-9.685h-6.088
				c-0.009-1.981-1.615-3.585-3.597-3.585c-1.989,0-3.6,1.61-3.6,3.594c0,1.989,1.611,3.597,3.6,3.597
				c0.655,0,1.272-0.176,1.801-0.484l2.883,4.993h-52l1.237-1.237h-7.304v7.301l1.232-1.234v7.687l-1.232-1.237v7.305l7.304-0.004
				l-1.261-1.262h52.023l-2.85,4.943c-0.535-0.321-1.165-0.508-1.833-0.508c-1.989,0-3.6,1.612-3.6,3.601s1.611,3.597,3.6,3.597
				c1.958,0,3.547-1.566,3.59-3.516h6.095l9.685,0.003l4.844,8.389l3.045,5.273c-1.075,0.621-1.796,1.781-1.796,3.112
				c0,1.986,1.608,3.598,3.592,3.598c1.988,0,3.599-1.612,3.599-3.598c0-1.332-0.723-2.491-1.798-3.112l3.042-5.273l4.846-8.392
				l9.683,0.003l6.092-0.003c0.005,1.981,1.611,3.588,3.595,3.588c1.986,0,3.597-1.61,3.597-3.599s-1.61-3.597-3.597-3.597
				c-0.657,0-1.272,0.181-1.803,0.487l-2.881-4.996h51.827l-1.261,1.267l7.304-0.004v-7.301l-1.237,1.237v-7.687l1.237,1.234V28.638
				z M480.126,34.705v7.687v2.948h-2.948h-51.827h-3.215l1.606,2.782l2.883,4.995l0.195,0.339h-0.381h-6.092h-9.683h-1.071
				l-0.535,0.925l-4.841,8.394l-3.05,5.273l-0.192,0.331l-0.188-0.331l-3.047-5.273l-4.841-8.394l-0.538-0.925h-1.071h-9.685h-6.095
				h-0.378l0.228-0.393l2.85-4.941l1.606-2.782h-3.212h-52.023h-2.954l0.002-2.948v-7.687l-0.002-2.976h2.977h52h3.214l-1.608-2.78
				l-2.881-4.994l-0.197-0.342h0.385h6.088h9.685h1.071l0.538-0.927l4.841-8.387l3.047-5.278l0.19-0.332l0.19,0.332l3.05,5.278
				l4.841,8.387l0.535,0.927h1.071h9.683h6.095h0.378l-0.228,0.396l-2.851,4.939l-1.606,2.78h3.215h51.801h2.975V34.705z"/>
			<path fill="#FFFFFF" d="M433.047,37.237c0,1.827-1.468,3.296-3.364,3.296h-1.442v3.024h-2.202v-9.622h3.645
				C431.579,33.936,433.047,35.408,433.047,37.237z M430.852,37.237c0-0.702-0.495-1.237-1.169-1.24h-1.442v2.474h1.442
				C430.356,38.471,430.852,37.935,430.852,37.237z M434.627,38.747c0-2.832,2.242-5.003,5.006-5.003
				c2.761,0,5.001,2.172,5.001,5.003c0,2.83-2.24,5.003-5.001,5.003C436.869,43.75,434.627,41.577,434.627,38.747z M442.438,38.747
				c0-1.719-1.237-2.86-2.806-2.86c-1.566,0-2.804,1.141-2.804,2.86c0,1.716,1.237,2.858,2.804,2.858
				C441.201,41.605,442.434,40.463,442.438,38.747z M452.466,41.443v2.114h-5.633v-9.622h2.2v7.507H452.466z M456.589,33.936v9.622
				h-2.2v-9.622H456.589z M458.788,38.747c0-2.832,2.102-5.003,5.001-5.003c1.747,0,3.285,0.868,4.126,2.228l-1.897,1.099
				c-0.425-0.743-1.254-1.184-2.229-1.184c-1.702,0-2.803,1.141-2.803,2.86c-0.003,1.716,1.101,2.858,2.803,2.858
				c0.975,0,1.817-0.44,2.229-1.181l1.897,1.1c-0.827,1.362-2.364,2.226-4.126,2.226C460.89,43.75,458.788,41.577,458.788,38.747z
				 M475.949,41.439v2.118h-6.046v-9.622h5.982v2.118h-3.782v1.596l3.439-0.004v2.092h-3.439v1.706L475.949,41.439z M326.144,38.599
				c0-2.832,2.101-5.003,4.999-5.003c1.749,0,3.292,0.866,4.123,2.228l-1.89,1.097c-0.427-0.741-1.251-1.179-2.233-1.181
				c-1.702,0-2.801,1.141-2.801,2.86s1.099,2.858,2.801,2.858c0.981,0,1.82-0.441,2.233-1.181l1.897,1.1
				c-0.831,1.362-2.369,2.224-4.13,2.224C328.245,43.6,326.144,41.429,326.144,38.599z M339.543,40.248h-1.047v3.161h-2.195v-9.622
				h3.846c1.829,0,3.296,1.47,3.296,3.298c0,1.185-0.711,2.256-1.77,2.793l2.045,3.531h-2.362L339.543,40.248z M338.496,38.322h1.65
				c0.604,0,1.099-0.531,1.099-1.236c0-0.699-0.496-1.234-1.099-1.234h-1.65V38.322z M349.078,39.711v3.698h-2.198v-3.698
				l-3.229-5.924h2.499l1.829,3.714l1.829-3.714h2.5L349.078,39.711z M360.139,37.085c0,1.83-1.467,3.3-3.364,3.3h-1.446
				l0.002,3.024h-2.195v-9.622h3.64C358.671,33.788,360.139,35.257,360.139,37.085z M357.943,37.085
				c0-0.699-0.495-1.234-1.169-1.234h-1.444v2.47h1.444C357.448,38.322,357.943,37.786,357.943,37.085z M367.563,35.904h-2.475
				v7.505h-2.202v-7.505h-2.473v-2.117h7.149V35.904z M367.56,38.599c0-2.832,2.24-5.003,5.003-5.003
				c2.761,0,5.003,2.172,5.003,5.006c0,2.832-2.242,4.999-5.003,4.999C369.8,43.6,367.56,41.429,367.56,38.599z M375.372,38.601
				c0-1.721-1.242-2.862-2.808-2.86c-1.566,0-2.803,1.139-2.803,2.857s1.237,2.858,2.803,2.858S375.372,40.317,375.372,38.601z"/>
			<polygon fill="#FFFFFF" points="383.465,38.601 379.896,32.411 382.241,38.601 379.896,44.79 			"/>
			<polygon fill="#FFFFFF" points="418.377,38.538 421.953,44.725 419.607,38.538 421.953,32.346 			"/>
			<path fill="#FFFFFF" d="M400.688,15.991l0.305-0.526l0.305,0.526l4.841,8.391l1.27,2.196c-1.916-1.011-4.099-1.586-6.417-1.586
				s-4.505,0.575-6.419,1.586l1.272-2.196L400.688,15.991z M381.011,27.002l0.305,0.525l4.844,8.391l1.113,1.924
				c0.296-4.597,2.848-8.575,6.56-10.84h-2.524h-9.687H381.011z M391.309,50.075h1.881c-3.463-2.391-5.771-6.323-5.94-10.807
				l-1.089,1.889l-4.844,8.389l-0.305,0.529h0.61H391.309z M406.14,52.695l0.927-1.606c-1.833,0.901-3.893,1.413-6.074,1.413
				c-2.179,0-4.243-0.512-6.076-1.413l0.93,1.606l4.841,8.386l0.305,0.528l0.305-0.528L406.14,52.695z M420.977,50.075l-0.306-0.529
				l-4.843-8.389l-1.089-1.889c-0.167,4.482-2.482,8.416-5.942,10.807h1.885h9.685H420.977z M420.977,27.002h-0.611h-9.685h-2.524
				c3.707,2.266,6.262,6.248,6.56,10.84l1.111-1.924l4.843-8.391L420.977,27.002z"/>
		</g>
		<g>
			<path fill="#FFFFFF" d="M404.497,36.292c0-0.6-0.401-1.035-1.017-1.035h-5.024v2.071h5.024
				C404.079,37.329,404.497,36.895,404.497,36.292z"/>
			<path fill="#FFFFFF" d="M403.816,39.697h-5.36v2.24h5.36c0.665,0,1.099-0.469,1.099-1.117
				C404.915,40.167,404.48,39.697,403.816,39.697z"/>
			<path fill="#FFFFFF" d="M400.994,27.464c-6.222,0-11.284,5.063-11.284,11.283c0,6.222,5.062,11.286,11.284,11.286
				s11.284-5.064,11.284-11.286C412.277,32.527,407.215,27.464,400.994,27.464z M403.816,44.44h-0.409v2.172h-1.97V44.44h-0.996
				v2.172h-1.972v-2.168h-3.939v-2.493h1.253v-6.7h-1.253v-2.492v-0.008h3.939v-2.168h1.972v2.168h0.996v-2.168h1.97v2.168h0.073
				c2.036,0,3.688,1.319,3.688,3.34c0,0.969-0.382,1.737-1.017,2.288c0.867,0.553,1.435,1.452,1.435,2.64
				C407.586,43.089,405.898,44.44,403.816,44.44z"/>
		</g>
	</g>
	<g>
		<g>
			<g>
				<g>
					<path fill-rule="evenodd" clip-rule="evenodd" fill="#FFFFFF" d="M706.896,89.507c0-0.258,0-0.465,0-0.665
						c0-5.388-0.021-10.773,0.005-16.16c0.021-4.907,3.088-8.686,7.816-9.694c4.01-0.856,8.405,1.23,10.33,4.876
						c0.811,1.533,1.146,3.155,1.134,4.888c-0.025,5.334-0.009,10.668-0.002,16.003c0,0.233,0,0.462,0,0.751
						C719.75,89.507,713.378,89.507,706.896,89.507z"/>
					<path fill-rule="evenodd" clip-rule="evenodd" fill="#FFFFFF" d="M722.692,55.057c-0.021,3.36-2.813,6.1-6.196,6.073
						c-3.381-0.025-6.085-2.785-6.062-6.19c0.032-3.402,2.806-6.173,6.142-6.125C720.004,48.861,722.704,51.622,722.692,55.057z"/>
				</g>
			</g>
		</g>
		<g>
			<g>
				<g>
					<path fill-rule="evenodd" clip-rule="evenodd" fill="#FFFFFF" d="M733.818,89.507c0-0.258,0-0.465,0-0.665
						c0-5.388-0.016-10.773,0.008-16.16c0.021-4.907,3.09-8.686,7.818-9.694c4.01-0.856,8.402,1.23,10.328,4.876
						c0.81,1.533,1.144,3.155,1.132,4.888c-0.026,5.334-0.005,10.668,0,16.003c0,0.233,0,0.462,0,0.751
						C746.673,89.507,740.306,89.507,733.818,89.507z"/>
					<path fill-rule="evenodd" clip-rule="evenodd" fill="#FFFFFF" d="M749.615,55.057c-0.017,3.36-2.813,6.1-6.193,6.073
						c-3.384-0.025-6.084-2.785-6.063-6.19c0.03-3.402,2.806-6.173,6.145-6.125C746.929,48.861,749.632,51.622,749.615,55.057z"/>
				</g>
			</g>
		</g>
		<g>
			<g>
				<g>
					<path fill-rule="evenodd" clip-rule="evenodd" fill="#FFFFFF" d="M679.969,89.507c0-0.258,0-0.465,0-0.665
						c0-5.388-0.02-10.773,0.007-16.16c0.019-4.907,3.09-8.686,7.813-9.694c4.015-0.856,8.41,1.23,10.335,4.876
						c0.808,1.533,1.142,3.155,1.135,4.888c-0.028,5.334-0.01,10.668-0.005,16.003c0,0.233,0,0.462,0,0.751
						C692.82,89.507,686.455,89.507,679.969,89.507z"/>
					<path fill-rule="evenodd" clip-rule="evenodd" fill="#FFFFFF" d="M695.77,55.057c-0.021,3.36-2.817,6.1-6.198,6.073
						c-3.384-0.025-6.086-2.785-6.061-6.19c0.028-3.402,2.804-6.173,6.141-6.125C693.081,48.861,695.778,51.622,695.77,55.057z"/>
				</g>
			</g>
		</g>
		<g>
			<g>
				<g>
					<path fill-rule="evenodd" clip-rule="evenodd" fill="#FFFFFF" d="M723.298,72.607c0-0.181,0-0.324,0-0.465
						c0-3.757-0.012-7.512,0.005-11.268c0.014-3.423,2.153-6.058,5.452-6.762c2.796-0.596,5.859,0.859,7.203,3.402
						c0.563,1.068,0.796,2.2,0.788,3.408c-0.016,3.72-0.007,7.441,0,11.159c0,0.163,0,0.323,0,0.525
						C732.26,72.607,727.822,72.607,723.298,72.607z"/>
					<path fill-rule="evenodd" clip-rule="evenodd" fill="#FFFFFF" d="M734.314,48.584c-0.015,2.343-1.963,4.253-4.322,4.236
						c-2.357-0.019-4.243-1.944-4.225-4.318c0.02-2.374,1.956-4.304,4.28-4.271C732.44,44.262,734.321,46.187,734.314,48.584z"/>
				</g>
			</g>
		</g>
		<g>
			<g>
				<g>
					<path fill-rule="evenodd" clip-rule="evenodd" fill="#FFFFFF" d="M696.271,72.607c0-0.181,0-0.324,0-0.465
						c0-3.757-0.012-7.512,0.005-11.268c0.015-3.423,2.153-6.058,5.452-6.762c2.796-0.596,5.86,0.859,7.203,3.402
						c0.563,1.068,0.796,2.2,0.789,3.408c-0.017,3.72-0.008,7.441,0,11.159c0,0.163,0,0.323,0,0.525
						C705.233,72.607,700.796,72.607,696.271,72.607z"/>
					<path fill-rule="evenodd" clip-rule="evenodd" fill="#FFFFFF" d="M707.288,48.584c-0.015,2.343-1.963,4.253-4.322,4.236
						c-2.357-0.019-4.243-1.944-4.224-4.318c0.019-2.374,1.955-4.304,4.279-4.271C705.414,44.262,707.295,46.187,707.288,48.584z"/>
				</g>
			</g>
		</g>
	</g>
	<g>
		<g>
			<g>
				<g>
					<path fill-rule="evenodd" clip-rule="evenodd" fill="#FFFFFF" d="M706.898,201.349c0-0.258,0-0.465,0-0.665
						c0-5.388-0.021-10.773,0.005-16.16c0.021-4.907,3.087-8.686,7.815-9.694c4.011-0.856,8.405,1.23,10.331,4.876
						c0.81,1.533,1.146,3.155,1.134,4.888c-0.026,5.334-0.01,10.668-0.003,16.003c0,0.233,0,0.462,0,0.751
						C719.753,201.349,713.381,201.349,706.898,201.349z"/>
					<path fill-rule="evenodd" clip-rule="evenodd" fill="#FFFFFF" d="M722.694,166.898c-0.021,3.36-2.813,6.1-6.195,6.073
						c-3.381-0.025-6.086-2.785-6.063-6.19c0.033-3.402,2.806-6.172,6.142-6.124C720.007,160.703,722.706,163.463,722.694,166.898z"
						/>
				</g>
			</g>
		</g>
		<g>
			<g>
				<g>
					<path fill-rule="evenodd" clip-rule="evenodd" fill="#FFFFFF" d="M733.821,201.349c0-0.258,0-0.465,0-0.665
						c0-5.388-0.017-10.773,0.007-16.16c0.021-4.907,3.09-8.686,7.818-9.694c4.01-0.856,8.403,1.23,10.328,4.876
						c0.811,1.533,1.144,3.155,1.132,4.888c-0.025,5.334-0.005,10.668,0,16.003c0,0.233,0,0.462,0,0.751
						C746.676,201.349,740.309,201.349,733.821,201.349z"/>
					<path fill-rule="evenodd" clip-rule="evenodd" fill="#FFFFFF" d="M749.617,166.898c-0.017,3.36-2.813,6.1-6.193,6.073
						c-3.383-0.025-6.083-2.785-6.063-6.19c0.031-3.402,2.806-6.172,6.145-6.124C746.932,160.703,749.634,163.463,749.617,166.898z"
						/>
				</g>
			</g>
		</g>
		<g>
			<g>
				<g>
					<path fill-rule="evenodd" clip-rule="evenodd" fill="#FFFFFF" d="M679.971,201.349c0-0.258,0-0.465,0-0.665
						c0-5.388-0.019-10.773,0.007-16.16c0.019-4.907,3.09-8.686,7.813-9.694c4.016-0.856,8.41,1.23,10.336,4.876
						c0.808,1.533,1.141,3.155,1.134,4.888c-0.028,5.334-0.01,10.668-0.005,16.003c0,0.233,0,0.462,0,0.751
						C692.823,201.349,686.458,201.349,679.971,201.349z"/>
					<path fill-rule="evenodd" clip-rule="evenodd" fill="#FFFFFF" d="M695.771,166.898c-0.021,3.36-2.817,6.1-6.198,6.073
						c-3.383-0.025-6.086-2.785-6.06-6.19c0.028-3.402,2.804-6.172,6.14-6.124C693.083,160.703,695.781,163.463,695.771,166.898z"/>
				</g>
			</g>
		</g>
		<g>
			<g>
				<g>
					<path fill-rule="evenodd" clip-rule="evenodd" fill="#FFFFFF" d="M723.301,184.449c0-0.181,0-0.324,0-0.465
						c0-3.757-0.012-7.512,0.004-11.268c0.015-3.423,2.153-6.058,5.452-6.762c2.796-0.596,5.86,0.859,7.203,3.402
						c0.563,1.068,0.796,2.2,0.789,3.408c-0.017,3.72-0.007,7.441,0,11.159c0,0.163,0,0.323,0,0.525
						C732.262,184.449,727.825,184.449,723.301,184.449z"/>
					<path fill-rule="evenodd" clip-rule="evenodd" fill="#FFFFFF" d="M734.316,160.425c-0.014,2.343-1.963,4.253-4.322,4.235
						c-2.357-0.019-4.242-1.944-4.224-4.317c0.019-2.374,1.955-4.304,4.28-4.271C732.443,156.103,734.323,158.028,734.316,160.425z"
						/>
				</g>
			</g>
		</g>
		<g>
			<g>
				<g>
					<path fill-rule="evenodd" clip-rule="evenodd" fill="#FFFFFF" d="M696.274,184.449c0-0.181,0-0.324,0-0.465
						c0-3.757-0.012-7.512,0.005-11.268c0.014-3.423,2.152-6.058,5.451-6.762c2.797-0.596,5.86,0.859,7.203,3.402
						c0.563,1.068,0.796,2.2,0.789,3.408c-0.017,3.72-0.007,7.441,0,11.159c0,0.163,0,0.323,0,0.525
						C705.236,184.449,700.799,184.449,696.274,184.449z"/>
					<path fill-rule="evenodd" clip-rule="evenodd" fill="#FFFFFF" d="M707.29,160.425c-0.014,2.343-1.963,4.253-4.322,4.235
						c-2.357-0.019-4.242-1.944-4.224-4.317c0.019-2.374,1.956-4.304,4.28-4.271C705.417,156.103,707.298,158.028,707.29,160.425z"
						/>
				</g>
			</g>
		</g>
	</g>
	
		<circle fill="none" stroke="#FFFFFF" stroke-width="2" stroke-linecap="round" stroke-linejoin="round" stroke-miterlimit="10" cx="400.684" cy="204.781" r="58.703"/>
	
		<line fill="none" stroke="#FFFFFF" stroke-width="2" stroke-linecap="round" stroke-linejoin="round" stroke-miterlimit="10" x1="341.981" y1="50.033" x2="341.981" y2="203.449"/>
	
		<line fill="none" stroke="#FFFFFF" stroke-width="2" stroke-linecap="round" stroke-linejoin="round" stroke-miterlimit="10" x1="459.387" y1="49.973" x2="459.387" y2="203.389"/>
	<path fill="none" stroke="#FFFFFF" stroke-width="2" stroke-linecap="round" stroke-linejoin="round" stroke-miterlimit="10" d="
		M627.491,249.059c0,7.968-6.459,14.425-14.425,14.425h-93.046c-7.966,0-14.425-6.458-14.425-14.425V15.627
		c0-7.967,6.459-14.425,14.425-14.425h93.046c7.966,0,14.425,6.458,14.425,14.425V249.059z"/>
	<g>
		
			<line fill-rule="evenodd" clip-rule="evenodd" fill="none" stroke="#FFFFFF" stroke-width="2" stroke-linecap="round" stroke-miterlimit="10" x1="136.231" y1="182.228" x2="177.856" y2="167.066"/>
		
			<polyline fill-rule="evenodd" clip-rule="evenodd" fill="none" stroke="#FFFFFF" stroke-width="2" stroke-linecap="round" stroke-miterlimit="10" points="
			146.002,186.114 136.231,182.228 141.605,173.187 		"/>
		
			<polyline fill-rule="evenodd" clip-rule="evenodd" fill="none" stroke="#FFFFFF" stroke-width="2" stroke-linecap="round" stroke-miterlimit="10" points="
			168.128,163.223 177.902,167.11 172.526,176.151 		"/>
	</g>
	<g>
		<g>
			<g>
				<path fill-rule="evenodd" clip-rule="evenodd" fill="#FFFFFF" d="M285.736,100.242c-0.398,15.55-2.706,30.743-8.527,45.282
					c-8.093,20.221-21.815,35.56-40.396,46.68c-18.578-11.121-32.297-26.459-40.399-46.68c-5.818-14.539-8.123-29.732-8.521-45.282
					c-0.102-4.003-0.066-4.008,3.976-4.269c12.192-0.791,23.69-4.028,34.486-9.755c3.632-1.926,7.103-4.111,10.458-6.482
					c3.36,2.372,6.822,4.556,10.46,6.482c10.79,5.728,22.294,8.964,34.482,9.755C285.798,96.234,285.837,96.238,285.736,100.242z"/>
				<text transform="matrix(1 0 0 1 202.915 130.9517)"><tspan x="0" y="0" fill="#5252AA" font-family="'Gilroy-ExtraBold'" font-size="18.8513">Watch</tspan><tspan x="12.404" y="17.28" fill="#5252AA" font-family="'Gilroy-ExtraBold'" font-size="18.8513">Dog</tspan></text>
			</g>
			<path opacity="0.3" fill="#FFFFFF" d="M237.187,79.959c3.36,2.372,6.822,4.557,10.461,6.484
				c10.79,5.726,22.293,8.964,34.482,9.755c4.042,0.26,4.081,0.265,3.979,4.267c-0.398,15.551-2.705,30.742-8.526,45.282
				c-8.093,20.222-21.816,35.561-40.396,46.68c-18.578-11.12-32.297-26.458-40.399-46.68c-5.818-14.54-8.123-29.731-8.52-45.282
				c-0.103-4.002-0.066-4.007,3.976-4.267c12.191-0.792,23.689-4.029,34.485-9.755C230.361,84.517,233.832,82.331,237.187,79.959
				 M237.187,70.59l-4.416,3.118c-3.31,2.341-6.46,4.293-9.626,5.972c-9.755,5.176-20.318,8.164-31.396,8.881
				c-2.835,0.183-6.052,0.389-8.623,3.127c-2.667,2.833-2.58,6.236-2.509,8.972c0.464,18.169,3.429,33.848,9.065,47.929
				c8.505,21.233,23.167,38.189,43.574,50.406l3.931,2.353l3.932-2.353c20.416-12.22,35.074-29.179,43.567-50.404
				c5.642-14.087,8.608-29.765,9.074-47.931c0.069-2.734,0.159-6.141-2.514-8.979c-2.571-2.733-5.788-2.938-8.625-3.122
				c-11.08-0.72-21.642-3.705-31.382-8.877c-3.152-1.668-6.3-3.62-9.639-5.975L237.187,70.59L237.187,70.59z"/>
		</g>
		<path opacity="0.2" fill="#FFFFFF" d="M237.187,70.839l4.413,3.118c3.339,2.354,6.487,4.307,9.639,5.975
			c9.74,5.172,20.302,8.158,31.382,8.877c2.837,0.183,6.054,0.388,8.625,3.121c2.673,2.839,2.583,6.246,2.514,8.979
			c-0.466,18.166-3.432,33.843-9.074,47.93c-8.493,21.225-23.151,38.185-43.567,50.404l-3.932,2.353l-3.931-2.353
			c-20.408-12.217-35.069-29.173-43.574-50.406c-5.636-14.082-8.601-29.76-9.065-47.929c-0.071-2.736-0.158-6.139,2.509-8.973
			c2.571-2.739,5.788-2.944,8.623-3.127c11.079-0.717,21.641-3.705,31.396-8.881c3.166-1.679,6.317-3.631,9.626-5.972
			L237.187,70.839 M237.188,60.537l-4.855,3.428l-4.416,3.118c-3.006,2.127-5.855,3.896-8.715,5.412
			c-8.697,4.615-18.117,7.278-27.998,7.918c-3.509,0.227-9.371,0.606-14.214,5.765c-5.037,5.354-4.874,11.597-4.786,14.953
			c0.489,19.18,3.651,35.811,9.664,50.835c9.205,22.978,25.039,41.313,47.064,54.499l3.934,2.354l4.32,2.585l4.321-2.585
			l3.932-2.353c22.032-13.187,37.865-31.522,47.059-54.499c6.017-15.023,9.181-31.654,9.673-50.841
			c0.085-3.367,0.244-9.608-4.801-14.965c-4.84-5.145-10.7-5.522-14.201-5.749c-9.894-0.642-19.308-3.305-27.985-7.912
			c-2.835-1.5-5.689-3.272-8.735-5.42l-4.407-3.113L237.188,60.537L237.188,60.537z"/>
		<path opacity="0.1" fill="#FFFFFF" d="M237.188,60.785l4.854,3.43l4.407,3.113c3.046,2.148,5.9,3.92,8.735,5.42
			c8.677,4.608,18.091,7.27,27.985,7.913c3.501,0.227,9.361,0.604,14.201,5.749c5.044,5.356,4.886,11.599,4.801,14.965
			c-0.492,19.187-3.657,35.817-9.673,50.84c-9.194,22.976-25.027,41.312-47.059,54.499l-3.932,2.353l-4.321,2.585l-4.32-2.585
			l-3.934-2.354c-22.025-13.186-37.859-31.521-47.064-54.499c-6.013-15.025-9.175-31.656-9.664-50.836
			c-0.088-3.355-0.251-9.599,4.786-14.952c4.843-5.16,10.705-5.539,14.214-5.765c9.881-0.64,19.301-3.304,27.998-7.918
			c2.86-1.516,5.709-3.285,8.715-5.412l4.416-3.118L237.188,60.785 M237.19,50.482l-4.855,3.429l-4.855,3.428l-4.416,3.117
			c-2.717,1.923-5.267,3.508-7.802,4.851c-7.642,4.055-15.917,6.395-24.602,6.957c-4.117,0.266-12.686,0.819-19.806,8.403
			c-7.405,7.87-7.165,17.023-7.062,20.932c0.515,20.191,3.873,37.773,10.263,53.741c9.906,24.728,26.915,44.44,50.554,58.592
			l3.935,2.355l4.322,2.585l4.32,2.585l4.32-2.585l4.32-2.585l3.932-2.353c23.649-14.154,40.658-33.868,50.551-58.593
			c6.395-15.966,9.755-33.549,10.272-53.75c0.1-3.913,0.333-13.072-7.086-20.95c-7.109-7.558-15.668-8.111-19.781-8.377
			c-8.695-0.564-16.966-2.902-24.584-6.947c-2.521-1.333-5.08-2.923-7.833-4.865l-4.4-3.108l-4.854-3.43L237.19,50.482
			L237.19,50.482z"/>
	</g>
</g>
</svg>
