<?xml version="1.0" encoding="utf-8"?>
<!-- Generator: Adobe Illustrator 16.0.0, SVG Export Plug-In . SVG Version: 6.00 Build 0)  -->
<!DOCTYPE svg PUBLIC "-//W3C//DTD SVG 1.1//EN" "http://www.w3.org/Graphics/SVG/1.1/DTD/svg11.dtd">
<svg version="1.1" id="Layer_1" xmlns="http://www.w3.org/2000/svg" xmlns:xlink="http://www.w3.org/1999/xlink" x="0px" y="0px"
	 width="133.158px" height="157.102px" viewBox="0 0 133.158 157.102" enable-background="new 0 0 133.158 157.102"
	 xml:space="preserve">
<g>
	<g>
		<path fill="#FFFFFF" d="M22.42,79.286c0-3.206,2.382-5.666,5.665-5.666c1.977,0,3.72,0.98,4.67,2.521l-2.148,1.245
			c-0.482-0.84-1.416-1.338-2.521-1.338c-1.93,0-3.175,1.292-3.175,3.237c0,1.945,1.245,3.237,3.175,3.237
			c1.105,0,2.055-0.498,2.521-1.339l2.148,1.245c-0.935,1.541-2.678,2.521-4.67,2.521C24.802,84.951,22.42,82.492,22.42,79.286z"/>
		<path fill="#FFFFFF" d="M37.596,81.153h-1.183v3.58h-2.49V73.838h4.358c2.069,0,3.735,1.665,3.735,3.735
			c0,1.338-0.81,2.552-2.008,3.159l2.319,4H39.65L37.596,81.153z M36.413,78.974h1.868c0.685,0,1.245-0.607,1.245-1.4
			c0-0.794-0.561-1.401-1.245-1.401h-1.868V78.974z"/>
		<path fill="#FFFFFF" d="M48.399,80.546v4.187h-2.49v-4.187l-3.657-6.708h2.833l2.069,4.202l2.07-4.202h2.833L48.399,80.546z"/>
		<path fill="#FFFFFF" d="M60.93,77.574c0,2.07-1.665,3.735-3.813,3.735h-1.635v3.424h-2.49V73.838h4.125
			C59.265,73.838,60.93,75.503,60.93,77.574z M58.439,77.574c0-0.794-0.56-1.401-1.322-1.401h-1.635v2.801h1.635
			C57.88,78.974,58.439,78.367,58.439,77.574z"/>
		<path fill="#FFFFFF" d="M69.336,76.235h-2.802v8.498h-2.49v-8.498h-2.802v-2.396h8.094V76.235z"/>
		<path fill="#FFFFFF" d="M69.337,79.286c0-3.206,2.537-5.666,5.665-5.666c3.129,0,5.666,2.459,5.666,5.666
			s-2.537,5.665-5.666,5.665C71.874,84.951,69.337,82.492,69.337,79.286z M78.178,79.286c0-1.946-1.401-3.237-3.176-3.237
			c-1.773,0-3.175,1.292-3.175,3.237c0,1.945,1.401,3.237,3.175,3.237C76.776,82.523,78.178,81.231,78.178,79.286z"/>
		<path fill="#FFFFFF" d="M90.007,77.574c0,2.07-1.665,3.735-3.813,3.735H84.56v3.424h-2.49V73.838h4.125
			C88.342,73.838,90.007,75.503,90.007,77.574z M87.517,77.574c0-0.794-0.56-1.401-1.322-1.401H84.56v2.801h1.635
			C86.957,78.974,87.517,78.367,87.517,77.574z"/>
		<path fill="#FFFFFF" d="M90.709,79.286c0-3.206,2.537-5.666,5.665-5.666c3.129,0,5.666,2.459,5.666,5.666
			s-2.537,5.665-5.666,5.665C93.246,84.951,90.709,82.492,90.709,79.286z M99.55,79.286c0-1.946-1.401-3.237-3.176-3.237
			s-3.175,1.292-3.175,3.237c0,1.945,1.4,3.237,3.175,3.237S99.55,81.231,99.55,79.286z"/>
		<path fill="#FFFFFF" d="M109.824,82.336v2.397h-6.382V73.838h2.49v8.498H109.824z"/>
		<path fill="#FFFFFF" d="M113.404,73.838v10.895h-2.49V73.838H113.404z"/>
		<path fill="#FFFFFF" d="M114.806,79.286c0-3.206,2.382-5.666,5.665-5.666c1.977,0,3.72,0.98,4.67,2.521l-2.148,1.245
			c-0.482-0.84-1.416-1.338-2.521-1.338c-1.93,0-3.175,1.292-3.175,3.237c0,1.945,1.245,3.237,3.175,3.237
			c1.105,0,2.055-0.498,2.521-1.339l2.148,1.245c-0.935,1.541-2.678,2.521-4.67,2.521C117.188,84.951,114.806,82.492,114.806,79.286
			z"/>
		<path fill="#FFFFFF" d="M133.158,82.336v2.397h-6.849V73.838h6.771v2.396h-4.28v1.806h3.892v2.366H128.8v1.93H133.158z"/>
		<path fill="#FFFFFF" d="M32.358,93.555c0-3.207,2.382-5.666,5.665-5.666c1.977,0,3.72,0.98,4.67,2.521l-2.148,1.245
			c-0.482-0.84-1.416-1.338-2.521-1.338c-1.93,0-3.175,1.292-3.175,3.237c0,1.945,1.245,3.237,3.175,3.237
			c1.105,0,2.055-0.498,2.521-1.338l2.148,1.245c-0.935,1.541-2.678,2.521-4.67,2.521C34.74,99.22,32.358,96.761,32.358,93.555z"/>
		<path fill="#FFFFFF" d="M43.239,93.555c0-3.207,2.537-5.666,5.665-5.666c3.129,0,5.666,2.459,5.666,5.666
			c0,3.206-2.537,5.665-5.666,5.665C45.776,99.22,43.239,96.761,43.239,93.555z M52.08,93.555c0-1.946-1.401-3.237-3.176-3.237
			c-1.773,0-3.175,1.292-3.175,3.237c0,1.945,1.401,3.237,3.175,3.237C50.679,96.792,52.08,95.5,52.08,93.555z"/>
		<path fill="#FFFFFF" d="M66.867,99.002h-2.49v-6.334l-2.816,4.623h-0.28l-2.817-4.623v6.334h-2.49V88.107h2.49l2.957,4.841
			l2.957-4.841h2.49V99.002z"/>
		<path fill="#FFFFFF" d="M79.631,99.002h-2.49v-6.334l-2.816,4.623h-0.28l-2.817-4.623v6.334h-2.49V88.107h2.49l2.957,4.841
			l2.957-4.841h2.49V99.002z"/>
		<path fill="#FFFFFF" d="M81.424,95.484v-7.377h2.49v7.16c0,0.825,0.389,1.525,1.712,1.525c1.322,0,1.712-0.701,1.712-1.525v-7.16
			h2.49v7.377c0,2.334-1.806,3.735-4.202,3.735C83.229,99.22,81.424,97.819,81.424,95.484z"/>
		<path fill="#FFFFFF" d="M100.18,88.107v10.895h-1.868l-4.202-5.915v5.915h-2.49V88.107h1.868l4.202,5.915v-5.915H100.18z"/>
		<path fill="#FFFFFF" d="M104.538,88.107v10.895h-2.49V88.107H104.538z"/>
		<path fill="#FFFFFF" d="M113.723,90.504h-2.802v8.498h-2.49v-8.498h-2.802v-2.397h8.094V90.504z"/>
		<path fill="#FFFFFF" d="M120.026,94.815v4.187h-2.49v-4.187l-3.657-6.708h2.833l2.069,4.203l2.07-4.203h2.833L120.026,94.815z"/>
	</g>
	<g>
		
			<line fill-rule="evenodd" clip-rule="evenodd" fill="none" stroke="#FFFFFF" stroke-width="2" stroke-linecap="round" stroke-miterlimit="10" x1="31.992" y1="127.83" x2="1.574" y2="127.84"/>
		
			<polyline fill-rule="evenodd" clip-rule="evenodd" fill="none" stroke="#FFFFFF" stroke-width="2" stroke-linecap="round" stroke-miterlimit="10" points="
			9.396,134.778 1.541,127.781 9.686,121.13 		"/>
	</g>
	<g>
		
			<line fill-rule="evenodd" clip-rule="evenodd" fill="none" stroke="#FFFFFF" stroke-width="2" stroke-linecap="round" stroke-miterlimit="10" x1="32.009" y1="33.059" x2="1.589" y2="33.067"/>
		
			<polyline fill-rule="evenodd" clip-rule="evenodd" fill="none" stroke="#FFFFFF" stroke-width="2" stroke-linecap="round" stroke-miterlimit="10" points="
			9.41,40.006 1.561,33.01 9.699,26.357 		"/>
	</g>
	<g>
		<g>
			<g>
				<g>
					<path fill-rule="evenodd" clip-rule="evenodd" fill="#FFFFFF" d="M71.756,45.272c0-0.258,0-0.465,0-0.665
						c0-5.388-0.021-10.772,0.005-16.159c0.021-4.906,3.087-8.685,7.815-9.693c4.01-0.855,8.404,1.23,10.329,4.876
						c0.811,1.533,1.146,3.155,1.134,4.888c-0.025,5.333-0.009,10.667-0.002,16.001c0,0.234,0,0.462,0,0.751
						C84.609,45.272,78.238,45.272,71.756,45.272z"/>
					<path fill-rule="evenodd" clip-rule="evenodd" fill="#FFFFFF" d="M87.551,10.826c-0.021,3.359-2.813,6.099-6.195,6.072
						c-3.381-0.024-6.085-2.784-6.062-6.189c0.033-3.402,2.806-6.172,6.142-6.124C84.863,4.63,87.563,7.391,87.551,10.826z"/>
				</g>
			</g>
		</g>
		<g>
			<g>
				<g>
					<path fill-rule="evenodd" clip-rule="evenodd" fill="#FFFFFF" d="M98.676,45.272c0-0.258,0-0.465,0-0.665
						c0-5.388-0.016-10.772,0.008-16.159c0.021-4.906,3.089-8.685,7.817-9.693c4.01-0.855,8.401,1.23,10.327,4.876
						c0.81,1.533,1.143,3.155,1.131,4.888c-0.025,5.333-0.004,10.667,0,16.001c0,0.234,0,0.462,0,0.751
						C111.529,45.272,105.162,45.272,98.676,45.272z"/>
					<path fill-rule="evenodd" clip-rule="evenodd" fill="#FFFFFF" d="M114.471,10.826c-0.017,3.359-2.813,6.099-6.192,6.072
						c-3.384-0.024-6.083-2.784-6.062-6.189c0.03-3.402,2.805-6.172,6.144-6.124C111.785,4.63,114.487,7.391,114.471,10.826z"/>
				</g>
			</g>
		</g>
		<g>
			<g>
				<g>
					<path fill-rule="evenodd" clip-rule="evenodd" fill="#FFFFFF" d="M44.831,45.272c0-0.258,0-0.465,0-0.665
						c0-5.388-0.019-10.772,0.008-16.159c0.019-4.906,3.089-8.685,7.813-9.693c4.015-0.855,8.409,1.23,10.334,4.876
						c0.808,1.533,1.141,3.155,1.134,4.888c-0.028,5.333-0.009,10.667-0.005,16.001c0,0.234,0,0.462,0,0.751
						C57.683,45.272,51.317,45.272,44.831,45.272z"/>
					<path fill-rule="evenodd" clip-rule="evenodd" fill="#FFFFFF" d="M60.631,10.826c-0.021,3.359-2.817,6.099-6.197,6.072
						c-3.384-0.024-6.086-2.784-6.06-6.189c0.028-3.402,2.803-6.172,6.139-6.124C57.942,4.63,60.641,7.391,60.631,10.826z"/>
				</g>
			</g>
		</g>
		<g>
			<g>
				<g>
					<path fill-rule="evenodd" clip-rule="evenodd" fill="#FFFFFF" d="M88.156,28.374c0-0.181,0-0.324,0-0.464
						c0-3.756-0.012-7.511,0.005-11.267c0.015-3.422,2.153-6.057,5.451-6.761c2.796-0.596,5.859,0.859,7.202,3.401
						c0.563,1.068,0.796,2.2,0.789,3.408c-0.017,3.72-0.007,7.441,0,11.158c0,0.163,0,0.323,0,0.524
						C97.117,28.374,92.681,28.374,88.156,28.374z"/>
					<path fill-rule="evenodd" clip-rule="evenodd" fill="#FFFFFF" d="M99.172,4.353c-0.015,2.343-1.963,4.253-4.322,4.235
						c-2.357-0.019-4.242-1.944-4.224-4.317S92.582-0.032,94.906,0C97.298,0.031,99.179,1.956,99.172,4.353z"/>
				</g>
			</g>
		</g>
		<g>
			<g>
				<g>
					<path fill-rule="evenodd" clip-rule="evenodd" fill="#FFFFFF" d="M61.133,28.374c0-0.181,0-0.324,0-0.464
						c0-3.756-0.012-7.511,0.005-11.267c0.015-3.422,2.153-6.057,5.451-6.761c2.796-0.596,5.859,0.859,7.202,3.401
						c0.563,1.068,0.796,2.2,0.789,3.408c-0.017,3.72-0.007,7.441,0,11.158c0,0.163,0,0.323,0,0.524
						C70.094,28.374,65.657,28.374,61.133,28.374z"/>
					<path fill-rule="evenodd" clip-rule="evenodd" fill="#FFFFFF" d="M72.148,4.353c-0.015,2.343-1.963,4.253-4.322,4.235
						c-2.357-0.019-4.242-1.944-4.224-4.317c0.02-2.374,1.956-4.303,4.28-4.271C70.274,0.031,72.155,1.956,72.148,4.353z"/>
				</g>
			</g>
		</g>
	</g>
	<g>
		<g>
			<g>
				<g>
					<path fill-rule="evenodd" clip-rule="evenodd" fill="#FFFFFF" d="M71.759,157.102c0-0.258,0-0.465,0-0.665
						c0-5.388-0.021-10.772,0.005-16.159c0.021-4.906,3.087-8.685,7.814-9.693c4.01-0.856,8.404,1.23,10.33,4.876
						c0.81,1.533,1.146,3.155,1.134,4.888c-0.026,5.333-0.01,10.667-0.003,16.001c0,0.234,0,0.462,0,0.751
						C84.611,157.102,78.24,157.102,71.759,157.102z"/>
					<path fill-rule="evenodd" clip-rule="evenodd" fill="#FFFFFF" d="M87.553,122.655c-0.021,3.359-2.813,6.099-6.195,6.072
						c-3.38-0.024-6.085-2.784-6.062-6.189c0.033-3.402,2.806-6.172,6.142-6.124C84.865,116.459,87.564,119.22,87.553,122.655z"/>
				</g>
			</g>
		</g>
		<g>
			<g>
				<g>
					<path fill-rule="evenodd" clip-rule="evenodd" fill="#FFFFFF" d="M98.679,157.102c0-0.258,0-0.465,0-0.665
						c0-5.388-0.017-10.772,0.007-16.159c0.021-4.906,3.09-8.685,7.817-9.693c4.01-0.856,8.402,1.23,10.327,4.876
						c0.811,1.533,1.144,3.155,1.132,4.888c-0.026,5.333-0.005,10.667,0,16.001c0,0.234,0,0.462,0,0.751
						C111.531,157.102,105.165,157.102,98.679,157.102z"/>
					<path fill-rule="evenodd" clip-rule="evenodd" fill="#FFFFFF" d="M114.474,122.655c-0.017,3.359-2.813,6.099-6.193,6.072
						c-3.383-0.024-6.083-2.784-6.062-6.189c0.03-3.402,2.806-6.172,6.144-6.124C111.787,116.459,114.489,119.22,114.474,122.655z"
						/>
				</g>
			</g>
		</g>
		<g>
			<g>
				<g>
					<path fill-rule="evenodd" clip-rule="evenodd" fill="#FFFFFF" d="M44.834,157.102c0-0.258,0-0.465,0-0.665
						c0-5.388-0.02-10.772,0.007-16.159c0.019-4.906,3.09-8.685,7.813-9.693c4.015-0.856,8.409,1.23,10.335,4.876
						c0.807,1.533,1.141,3.155,1.134,4.888c-0.028,5.333-0.01,10.667-0.005,16.001c0,0.234,0,0.462,0,0.751
						C57.685,157.102,51.32,157.102,44.834,157.102z"/>
					<path fill-rule="evenodd" clip-rule="evenodd" fill="#FFFFFF" d="M60.633,122.655c-0.021,3.359-2.816,6.099-6.197,6.072
						c-3.383-0.024-6.085-2.784-6.06-6.189c0.028-3.402,2.804-6.172,6.14-6.124C57.945,116.459,60.643,119.22,60.633,122.655z"/>
				</g>
			</g>
		</g>
		<g>
			<g>
				<g>
					<path fill-rule="evenodd" clip-rule="evenodd" fill="#FFFFFF" d="M88.159,140.203c0-0.181,0-0.324,0-0.464
						c0-3.756-0.012-7.511,0.005-11.267c0.014-3.423,2.152-6.057,5.45-6.761c2.797-0.597,5.86,0.859,7.203,3.401
						c0.563,1.068,0.796,2.2,0.788,3.408c-0.016,3.72-0.007,7.441,0,11.158c0,0.163,0,0.323,0,0.524
						C97.12,140.203,92.683,140.203,88.159,140.203z"/>
					<path fill-rule="evenodd" clip-rule="evenodd" fill="#FFFFFF" d="M99.174,116.183c-0.014,2.343-1.963,4.252-4.322,4.235
						c-2.356-0.019-4.242-1.943-4.223-4.317c0.019-2.374,1.955-4.303,4.279-4.271C97.301,111.861,99.181,113.786,99.174,116.183z"/>
				</g>
			</g>
		</g>
		<g>
			<g>
				<g>
					<path fill-rule="evenodd" clip-rule="evenodd" fill="#FFFFFF" d="M61.136,140.203c0-0.181,0-0.324,0-0.464
						c0-3.756-0.012-7.511,0.005-11.267c0.014-3.423,2.152-6.057,5.451-6.761c2.796-0.597,5.859,0.859,7.202,3.401
						c0.563,1.068,0.796,2.2,0.789,3.408c-0.017,3.72-0.008,7.441,0,11.158c0,0.163,0,0.323,0,0.524
						C70.097,140.203,65.659,140.203,61.136,140.203z"/>
					<path fill-rule="evenodd" clip-rule="evenodd" fill="#FFFFFF" d="M72.15,116.183c-0.014,2.343-1.963,4.252-4.322,4.235
						c-2.356-0.019-4.242-1.943-4.223-4.317c0.019-2.374,1.955-4.303,4.279-4.271C70.277,111.861,72.157,113.786,72.15,116.183z"/>
				</g>
			</g>
		</g>
	</g>
</g>
</svg>
