<?xml version="1.0" encoding="utf-8"?>
<!-- Generator: Adobe Illustrator 16.0.0, SVG Export Plug-In . SVG Version: 6.00 Build 0)  -->
<!DOCTYPE svg PUBLIC "-//W3C//DTD SVG 1.1//EN" "http://www.w3.org/Graphics/SVG/1.1/DTD/svg11.dtd">
<svg version="1.1" id="Layer_1" xmlns="http://www.w3.org/2000/svg" xmlns:xlink="http://www.w3.org/1999/xlink" x="0px" y="0px"
	 width="161.519px" height="264.255px" viewBox="0 0 161.519 264.255" enable-background="new 0 0 161.519 264.255"
	 xml:space="preserve">
<g>
	<g>
		
			<linearGradient id="SVGID_1_" gradientUnits="userSpaceOnUse" x1="1121.041" y1="1419.1899" x2="1380.8926" y2="1419.1899" gradientTransform="matrix(0 -1 1 0 -1319.6128 1382.0356)">
			<stop  offset="0" style="stop-color:#706DCB;stop-opacity:0"/>
			<stop  offset="1" style="stop-color:#706DCB;stop-opacity:0.7"/>
		</linearGradient>
		<path fill="url(#SVGID_1_)" d="M146.095,260.994c7.291,0,13.222-5.931,13.222-13.222V14.365c0-7.291-5.931-13.222-13.222-13.222
			H53.061c-7.291,0-13.222,5.931-13.222,13.222v233.408c0,7.291,5.931,13.222,13.222,13.222H146.095z"/>
	</g>
	<g>
		<path fill="#FFFFFF" d="M71.711,128.756h-2.49v-6.334l-2.816,4.623h-0.28l-2.817-4.623v6.334h-2.49v-10.895h2.49l2.957,4.841
			l2.957-4.841h2.49V128.756z"/>
		<path fill="#FFFFFF" d="M73.504,125.239v-7.377h2.49v7.16c0,0.825,0.389,1.525,1.712,1.525c1.322,0,1.712-0.701,1.712-1.525v-7.16
			h2.49v7.377c0,2.334-1.806,3.735-4.202,3.735C75.309,128.974,73.504,127.573,73.504,125.239z"/>
		<path fill="#FFFFFF" d="M90.08,126.359v2.397h-6.382v-10.895h2.49v8.498H90.08z"/>
		<path fill="#FFFFFF" d="M97.396,120.258h-2.802v8.498h-2.49v-8.498h-2.802v-2.397h8.094V120.258z"/>
		<path fill="#FFFFFF" d="M100.977,117.861v10.895h-2.49v-10.895H100.977z"/>
		<path fill="#FFFFFF" d="M109.228,126.359v2.397h-6.382v-10.895h2.49v8.498H109.228z"/>
		<path fill="#FFFFFF" d="M117.166,126.359v2.397h-6.849v-10.895h6.771v2.397h-4.28v1.806h3.892v2.366h-3.892v1.93H117.166z"/>
		<path fill="#FFFFFF" d="M117.634,117.861h2.724l2.412,8.016l2.413-8.016h2.724l-3.549,10.895h-3.175L117.634,117.861z"/>
		<path fill="#FFFFFF" d="M135.689,126.359v2.397h-6.849v-10.895h6.771v2.397h-4.28v1.806h3.892v2.366h-3.892v1.93H135.689z"/>
		<path fill="#FFFFFF" d="M143.473,126.359v2.397h-6.382v-10.895h2.49v8.498H143.473z"/>
		<path fill="#FFFFFF" d="M51.15,132.131h2.724l2.412,8.015l2.413-8.015h2.724l-3.549,10.895h-3.175L51.15,132.131z"/>
		<path fill="#FFFFFF" d="M69.206,140.628v2.397h-6.849v-10.895h6.771v2.396h-4.28v1.806h3.892v2.366h-3.892v1.93H69.206z"/>
		<path fill="#FFFFFF" d="M74.281,139.446h-1.184v3.58h-2.49v-10.895h4.358c2.069,0,3.735,1.665,3.735,3.735
			c0,1.338-0.81,2.552-2.008,3.159l2.318,4h-2.677L74.281,139.446z M73.098,137.267h1.868c0.685,0,1.245-0.607,1.245-1.4
			c0-0.794-0.561-1.401-1.245-1.401h-1.868V137.267z"/>
		<path fill="#FFFFFF" d="M82.671,132.131v10.895h-2.49v-10.895H82.671z"/>
		<path fill="#FFFFFF" d="M87.029,134.527v2.101h4.047v2.397h-4.047v4h-2.49v-10.895h6.615v2.396H87.029z"/>
		<path fill="#FFFFFF" d="M95.124,132.131v10.895h-2.49v-10.895H95.124z"/>
		<path fill="#FFFFFF" d="M96.525,137.578c0-3.206,2.382-5.666,5.665-5.666c1.977,0,3.72,0.98,4.67,2.521l-2.148,1.245
			c-0.482-0.84-1.416-1.338-2.521-1.338c-1.93,0-3.175,1.292-3.175,3.237c0,1.945,1.245,3.237,3.175,3.237
			c1.105,0,2.055-0.498,2.521-1.339l2.148,1.245c-0.935,1.541-2.678,2.521-4.67,2.521C98.907,143.243,96.525,140.784,96.525,137.578
			z"/>
		<path fill="#FFFFFF" d="M114.411,141.313h-4.047l-0.545,1.712h-2.724l3.704-10.895h3.175l3.705,10.895h-2.725L114.411,141.313z
			 M113.664,138.979l-1.276-4l-1.276,4H113.664z"/>
		<path fill="#FFFFFF" d="M125.151,134.527h-2.802v8.498h-2.49v-8.498h-2.802v-2.396h8.094V134.527z"/>
		<path fill="#FFFFFF" d="M128.731,132.131v10.895h-2.49v-10.895H128.731z"/>
		<path fill="#FFFFFF" d="M130.133,137.578c0-3.206,2.537-5.666,5.665-5.666c3.129,0,5.666,2.459,5.666,5.666
			s-2.537,5.665-5.666,5.665C132.67,143.243,130.133,140.784,130.133,137.578z M138.974,137.578c0-1.946-1.401-3.237-3.176-3.237
			s-3.175,1.292-3.175,3.237c0,1.945,1.4,3.237,3.175,3.237S138.974,139.523,138.974,137.578z"/>
		<path fill="#FFFFFF" d="M151.427,132.131v10.895h-1.868l-4.202-5.914v5.914h-2.49v-10.895h1.868l4.202,5.914v-5.914H151.427z"/>
	</g>
	<g>
		
			<line fill-rule="evenodd" clip-rule="evenodd" fill="none" stroke="#FFFFFF" stroke-width="2" stroke-linecap="round" stroke-miterlimit="10" x1="37.894" y1="77.083" x2="1.571" y2="77.091"/>
		
			<polyline fill-rule="evenodd" clip-rule="evenodd" fill="none" stroke="#FFFFFF" stroke-width="2" stroke-linecap="round" stroke-miterlimit="10" points="
			9.394,84.03 1.54,77.034 9.682,70.381 		"/>
	</g>
	<g>
		
			<line fill-rule="evenodd" clip-rule="evenodd" fill="none" stroke="#FFFFFF" stroke-width="2" stroke-linecap="round" stroke-miterlimit="10" x1="37.894" y1="171.854" x2="1.585" y2="171.864"/>
		
			<polyline fill-rule="evenodd" clip-rule="evenodd" fill="none" stroke="#FFFFFF" stroke-width="2" stroke-linecap="round" stroke-miterlimit="10" points="
			9.407,178.802 1.557,171.805 9.696,165.154 		"/>
	</g>
	<g>
		
			<line fill-rule="evenodd" clip-rule="evenodd" fill="none" stroke="#FFFFFF" stroke-width="2" stroke-linecap="round" stroke-miterlimit="10" x1="65.13" y1="41.529" x2="55.866" y2="50.792"/>
		
			<line fill-rule="evenodd" clip-rule="evenodd" fill="none" stroke="#FFFFFF" stroke-width="2" stroke-linecap="round" stroke-miterlimit="10" x1="55.869" y1="41.529" x2="65.135" y2="50.792"/>
	</g>
	<g>
		
			<line fill-rule="evenodd" clip-rule="evenodd" fill="none" stroke="#FFFFFF" stroke-width="2" stroke-linecap="round" stroke-miterlimit="10" x1="52.871" y1="21.551" x2="58.867" y2="27.544"/>
		
			<line fill-rule="evenodd" clip-rule="evenodd" fill="none" stroke="#FFFFFF" stroke-width="2" stroke-linecap="round" stroke-miterlimit="10" x1="68.128" y1="18.281" x2="58.867" y2="27.544"/>
	</g>
	<g>
		
			<line fill-rule="evenodd" clip-rule="evenodd" fill="none" stroke="#FFFFFF" stroke-width="2" stroke-linecap="round" stroke-miterlimit="10" x1="52.871" y1="65.791" x2="58.867" y2="71.785"/>
		
			<line fill-rule="evenodd" clip-rule="evenodd" fill="none" stroke="#FFFFFF" stroke-width="2" stroke-linecap="round" stroke-miterlimit="10" x1="68.128" y1="62.518" x2="58.867" y2="71.785"/>
	</g>
	<g>
		
			<line fill-rule="evenodd" clip-rule="evenodd" fill="none" stroke="#FFFFFF" stroke-width="2" stroke-linecap="round" stroke-miterlimit="10" x1="52.871" y1="87.312" x2="58.867" y2="93.308"/>
		
			<line fill-rule="evenodd" clip-rule="evenodd" fill="none" stroke="#FFFFFF" stroke-width="2" stroke-linecap="round" stroke-miterlimit="10" x1="68.128" y1="84.04" x2="58.867" y2="93.308"/>
	</g>
	<g>
		
			<line fill-rule="evenodd" clip-rule="evenodd" fill="none" stroke="#FFFFFF" stroke-width="2" stroke-linecap="round" stroke-miterlimit="10" x1="65.13" y1="189.462" x2="55.866" y2="198.725"/>
		
			<line fill-rule="evenodd" clip-rule="evenodd" fill="none" stroke="#FFFFFF" stroke-width="2" stroke-linecap="round" stroke-miterlimit="10" x1="55.866" y1="189.462" x2="65.13" y2="198.725"/>
	</g>
	<g>
		
			<line fill-rule="evenodd" clip-rule="evenodd" fill="none" stroke="#FFFFFF" stroke-width="2" stroke-linecap="round" stroke-miterlimit="10" x1="52.871" y1="169.483" x2="58.864" y2="175.477"/>
		
			<line fill-rule="evenodd" clip-rule="evenodd" fill="none" stroke="#FFFFFF" stroke-width="2" stroke-linecap="round" stroke-miterlimit="10" x1="68.128" y1="166.213" x2="58.864" y2="175.477"/>
	</g>
	<g>
		
			<line fill-rule="evenodd" clip-rule="evenodd" fill="none" stroke="#FFFFFF" stroke-width="2" stroke-linecap="round" stroke-miterlimit="10" x1="52.871" y1="235.243" x2="58.864" y2="241.235"/>
		
			<line fill-rule="evenodd" clip-rule="evenodd" fill="none" stroke="#FFFFFF" stroke-width="2" stroke-linecap="round" stroke-miterlimit="10" x1="68.128" y1="231.972" x2="58.864" y2="241.235"/>
	</g>
	<g>
		
			<line fill-rule="evenodd" clip-rule="evenodd" fill="none" stroke="#FFFFFF" stroke-width="2" stroke-linecap="round" stroke-miterlimit="10" x1="65.135" y1="212.364" x2="55.869" y2="221.629"/>
		
			<line fill-rule="evenodd" clip-rule="evenodd" fill="none" stroke="#FFFFFF" stroke-width="2" stroke-linecap="round" stroke-miterlimit="10" x1="55.871" y1="212.364" x2="65.135" y2="221.629"/>
	</g>
	<g>
		<g>
			<g>
				<g>
					<path fill-rule="evenodd" clip-rule="evenodd" fill="#FFFFFF" d="M107.922,39.323c0-0.24,0-0.428,0-0.614
						c0-4.986-0.014,4.292,0.01-0.69c0.019-4.541,2.854-8.031,7.226-8.966c3.714-0.791,7.778,1.139,9.56,4.51
						c0.744,1.418,1.055,2.918,1.045,4.521c-0.023,4.936-0.005-4.389-0.002,0.542c0,0.216,0,0.427,0,0.696
						C119.813,39.323,113.923,39.323,107.922,39.323z"/>
					<path fill-rule="evenodd" clip-rule="evenodd" fill="#FFFFFF" d="M122.539,21.72c-0.02,3.105-2.606,5.639-5.733,5.616
						c-3.129-0.023-5.63-2.578-5.606-5.726c0.026-3.146,2.595-5.708,5.682-5.664C120.048,15.989,122.546,18.541,122.539,21.72z"/>
				</g>
			</g>
		</g>
		<g>
			<g>
				<path fill="#FFFFFF" d="M95.786,48.475c0-2.222,1.759-3.927,3.927-3.927c2.169,0,3.928,1.705,3.928,3.927
					c0,2.223-1.759,3.927-3.928,3.927C97.545,52.401,95.786,50.697,95.786,48.475z M101.914,48.475c0-1.349-0.971-2.244-2.201-2.244
					c-1.229,0-2.2,0.895-2.2,2.244s0.971,2.244,2.2,2.244C100.943,50.719,101.914,49.823,101.914,48.475z"/>
				<path fill="#FFFFFF" d="M106.341,46.36v1.456h2.806v1.662h-2.806v2.772h-1.726v-7.552h4.585v1.662H106.341z"/>
				<path fill="#FFFFFF" d="M111.952,46.36v1.456h2.806v1.662h-2.806v2.772h-1.726v-7.552h4.585v1.662H111.952z"/>
				<path fill="#FFFFFF" d="M117.564,44.699v7.552h-1.726v-7.552H117.564z"/>
				<path fill="#FFFFFF" d="M118.536,48.475c0-2.222,1.651-3.927,3.927-3.927c1.37,0,2.579,0.68,3.237,1.748l-1.489,0.863
					c-0.334-0.583-0.981-0.928-1.748-0.928c-1.337,0-2.2,0.895-2.2,2.244s0.863,2.244,2.2,2.244c0.767,0,1.425-0.345,1.748-0.928
					l1.489,0.863c-0.647,1.068-1.856,1.748-3.237,1.748C120.188,52.401,118.536,50.697,118.536,48.475z"/>
				<path fill="#FFFFFF" d="M131.259,50.589v1.661h-4.746v-7.552h4.692v1.662h-2.967v1.251h2.697v1.64h-2.697v1.338H131.259z"/>
				<path fill="#FFFFFF" d="M134.778,49.769h-0.82v2.481h-1.726v-7.552h3.021c1.435,0,2.589,1.154,2.589,2.589
					c0,0.928-0.561,1.769-1.392,2.19l1.607,2.772h-1.855L134.778,49.769z M133.958,48.259h1.295c0.475,0,0.863-0.42,0.863-0.971
					s-0.389-0.971-0.863-0.971h-1.295V48.259z"/>
			</g>
		</g>
	</g>
	<g>
		<g>
			<g>
				<g>
					<path fill-rule="evenodd" clip-rule="evenodd" fill="#FFFFFF" d="M107.922,87.152c0-0.237,0-0.424,0-0.61
						c0-4.986-0.014,4.292,0.01-0.69c0.019-4.541,2.854-8.031,7.226-8.966c3.714-0.791,7.778,1.134,9.56,4.51
						c0.744,1.418,1.055,2.917,1.045,4.521c-0.023,4.935-0.005-4.389-0.002,0.54c0,0.22,0,0.43,0,0.695
						C119.813,87.152,113.923,87.152,107.922,87.152z"/>
					<path fill-rule="evenodd" clip-rule="evenodd" fill="#FFFFFF" d="M122.539,69.55c-0.02,3.106-2.606,5.642-5.733,5.618
						c-3.129-0.025-5.63-2.578-5.606-5.726c0.026-3.15,2.595-5.708,5.682-5.667C120.048,63.821,122.546,66.374,122.539,69.55z"/>
				</g>
			</g>
		</g>
		<g>
			<g>
				<path fill="#FFFFFF" d="M95.786,96.306c0-2.222,1.759-3.927,3.927-3.927c2.169,0,3.928,1.705,3.928,3.927
					c0,2.223-1.759,3.927-3.928,3.927C97.545,100.232,95.786,98.528,95.786,96.306z M101.914,96.306
					c0-1.349-0.971-2.244-2.201-2.244c-1.229,0-2.2,0.895-2.2,2.244s0.971,2.244,2.2,2.244
					C100.943,98.55,101.914,97.654,101.914,96.306z"/>
				<path fill="#FFFFFF" d="M106.341,94.191v1.456h2.806v1.662h-2.806v2.772h-1.726V92.53h4.585v1.662H106.341z"/>
				<path fill="#FFFFFF" d="M111.952,94.191v1.456h2.806v1.662h-2.806v2.772h-1.726V92.53h4.585v1.662H111.952z"/>
				<path fill="#FFFFFF" d="M117.564,92.53v7.552h-1.726V92.53H117.564z"/>
				<path fill="#FFFFFF" d="M118.536,96.306c0-2.222,1.651-3.927,3.927-3.927c1.37,0,2.579,0.68,3.237,1.748l-1.489,0.863
					c-0.334-0.583-0.981-0.928-1.748-0.928c-1.337,0-2.2,0.895-2.2,2.244s0.863,2.244,2.2,2.244c0.767,0,1.425-0.345,1.748-0.928
					l1.489,0.863c-0.647,1.068-1.856,1.748-3.237,1.748C120.188,100.232,118.536,98.528,118.536,96.306z"/>
				<path fill="#FFFFFF" d="M131.259,98.42v1.661h-4.746V92.53h4.692v1.662h-2.967v1.251h2.697v1.64h-2.697v1.338H131.259z"/>
				<path fill="#FFFFFF" d="M134.778,97.6h-0.82v2.481h-1.726V92.53h3.021c1.435,0,2.589,1.154,2.589,2.589
					c0,0.928-0.561,1.769-1.392,2.19l1.607,2.772h-1.855L134.778,97.6z M133.958,96.09h1.295c0.475,0,0.863-0.42,0.863-0.971
					s-0.389-0.971-0.863-0.971h-1.295V96.09z"/>
			</g>
		</g>
	</g>
	<g>
		<g>
			<g>
				<g>
					<path fill-rule="evenodd" clip-rule="evenodd" fill="#FFFFFF" d="M107.922,183.492c0-0.242,0-0.428,0-0.615
						c0-4.985-0.014,4.292,0.01-0.689c0.019-4.542,2.854-8.034,7.226-8.967c3.714-0.791,7.778,1.14,9.56,4.51
						c0.744,1.419,1.055,2.918,1.045,4.524c-0.023,4.934-0.005-4.39-0.002,0.541c0,0.217,0,0.427,0,0.696
						C119.813,183.492,113.923,183.492,107.922,183.492z"/>
					<path fill-rule="evenodd" clip-rule="evenodd" fill="#FFFFFF" d="M122.539,165.889c-0.02,3.105-2.606,5.639-5.733,5.616
						c-3.129-0.026-5.63-2.578-5.606-5.727c0.026-3.146,2.595-5.707,5.682-5.662C120.048,160.157,122.546,162.709,122.539,165.889z"
						/>
				</g>
			</g>
		</g>
		<g>
			<g>
				<path fill="#FFFFFF" d="M95.786,192.643c0-2.222,1.759-3.927,3.927-3.927c2.169,0,3.928,1.705,3.928,3.927
					s-1.759,3.927-3.928,3.927C97.545,196.57,95.786,194.865,95.786,192.643z M101.914,192.643c0-1.349-0.971-2.244-2.201-2.244
					c-1.229,0-2.2,0.895-2.2,2.244s0.971,2.244,2.2,2.244C100.943,194.887,101.914,193.992,101.914,192.643z"/>
				<path fill="#FFFFFF" d="M106.341,190.529v1.456h2.806v1.662h-2.806v2.772h-1.726v-7.552h4.585v1.662H106.341z"/>
				<path fill="#FFFFFF" d="M111.952,190.529v1.456h2.806v1.662h-2.806v2.772h-1.726v-7.552h4.585v1.662H111.952z"/>
				<path fill="#FFFFFF" d="M117.564,188.867v7.552h-1.726v-7.552H117.564z"/>
				<path fill="#FFFFFF" d="M118.536,192.643c0-2.222,1.651-3.927,3.927-3.927c1.37,0,2.579,0.68,3.237,1.748l-1.489,0.863
					c-0.334-0.583-0.981-0.928-1.748-0.928c-1.337,0-2.2,0.895-2.2,2.244s0.863,2.244,2.2,2.244c0.767,0,1.425-0.345,1.748-0.928
					l1.489,0.863c-0.647,1.068-1.856,1.748-3.237,1.748C120.188,196.57,118.536,194.865,118.536,192.643z"/>
				<path fill="#FFFFFF" d="M131.259,194.758v1.661h-4.746v-7.552h4.692v1.662h-2.967v1.251h2.697v1.64h-2.697v1.338H131.259z"/>
				<path fill="#FFFFFF" d="M134.778,193.938h-0.82v2.481h-1.726v-7.552h3.021c1.435,0,2.589,1.154,2.589,2.589
					c0,0.928-0.561,1.769-1.392,2.19l1.607,2.772h-1.855L134.778,193.938z M133.958,192.427h1.295c0.475,0,0.863-0.42,0.863-0.971
					s-0.389-0.971-0.863-0.971h-1.295V192.427z"/>
			</g>
		</g>
	</g>
	<g>
		<g>
			<g>
				<g>
					<path fill-rule="evenodd" clip-rule="evenodd" fill="#FFFFFF" d="M107.922,231.32c0-0.237,0-0.424,0-0.61
						c0-4.985-0.014,4.294,0.01-0.689c0.019-4.541,2.854-8.034,7.226-8.967c3.714-0.791,7.778,1.136,9.56,4.511
						c0.744,1.417,1.055,2.918,1.045,4.521c-0.023,4.934-0.005-4.39-0.002,0.539c0,0.219,0,0.43,0,0.695
						C119.813,231.32,113.923,231.32,107.922,231.32z"/>
					<path fill-rule="evenodd" clip-rule="evenodd" fill="#FFFFFF" d="M122.539,213.719c-0.02,3.107-2.606,5.641-5.733,5.617
						c-3.129-0.023-5.63-2.577-5.606-5.726c0.026-3.15,2.595-5.707,5.682-5.665C120.048,207.989,122.546,210.542,122.539,213.719z"
						/>
				</g>
			</g>
		</g>
		<g>
			<g>
				<path fill="#FFFFFF" d="M95.786,240.474c0-2.222,1.759-3.927,3.927-3.927c2.169,0,3.928,1.705,3.928,3.927
					s-1.759,3.927-3.928,3.927C97.545,244.401,95.786,242.696,95.786,240.474z M101.914,240.474c0-1.349-0.971-2.244-2.201-2.244
					c-1.229,0-2.2,0.895-2.2,2.244s0.971,2.244,2.2,2.244C100.943,242.718,101.914,241.823,101.914,240.474z"/>
				<path fill="#FFFFFF" d="M106.341,238.36v1.456h2.806v1.662h-2.806v2.772h-1.726v-7.552h4.585v1.662H106.341z"/>
				<path fill="#FFFFFF" d="M111.952,238.36v1.456h2.806v1.662h-2.806v2.772h-1.726v-7.552h4.585v1.662H111.952z"/>
				<path fill="#FFFFFF" d="M117.564,236.698v7.552h-1.726v-7.552H117.564z"/>
				<path fill="#FFFFFF" d="M118.536,240.474c0-2.222,1.651-3.927,3.927-3.927c1.37,0,2.579,0.68,3.237,1.748l-1.489,0.863
					c-0.334-0.583-0.981-0.928-1.748-0.928c-1.337,0-2.2,0.895-2.2,2.244s0.863,2.244,2.2,2.244c0.767,0,1.425-0.345,1.748-0.928
					l1.489,0.863c-0.647,1.068-1.856,1.748-3.237,1.748C120.188,244.401,118.536,242.696,118.536,240.474z"/>
				<path fill="#FFFFFF" d="M131.259,242.589v1.661h-4.746v-7.552h4.692v1.662h-2.967v1.251h2.697v1.64h-2.697v1.338H131.259z"/>
				<path fill="#FFFFFF" d="M134.778,241.769h-0.82v2.481h-1.726v-7.552h3.021c1.435,0,2.589,1.154,2.589,2.589
					c0,0.928-0.561,1.769-1.392,2.19l1.607,2.772h-1.855L134.778,241.769z M133.958,240.258h1.295c0.475,0,0.863-0.42,0.863-0.971
					s-0.389-0.971-0.863-0.971h-1.295V240.258z"/>
			</g>
		</g>
	</g>
	
		<line fill-rule="evenodd" clip-rule="evenodd" fill="none" stroke="#FFFFFF" stroke-width="0.5" stroke-linecap="round" stroke-linejoin="round" stroke-miterlimit="10" x1="79.11" y1="12.04" x2="79.11" y2="105.072"/>
	
		<line fill-rule="evenodd" clip-rule="evenodd" fill="none" stroke="#FFFFFF" stroke-width="0.5" stroke-linecap="round" stroke-linejoin="round" stroke-miterlimit="10" x1="79.11" y1="154.562" x2="79.11" y2="250.993"/>
	<path fill="none" stroke="#FFFFFF" stroke-width="2" stroke-linecap="round" stroke-linejoin="round" stroke-miterlimit="10" d="
		M160.519,248.831c0,7.967-6.457,14.424-14.424,14.424H53.06c-7.966,0-14.424-6.457-14.424-14.424V15.424
		C38.636,7.458,45.094,1,53.06,1h93.035c7.967,0,14.424,6.458,14.424,14.424V248.831z"/>
</g>
</svg>
