<?xml version="1.0" encoding="utf-8"?>
<!-- Generator: Adobe Illustrator 16.0.0, SVG Export Plug-In . SVG Version: 6.00 Build 0)  -->
<!DOCTYPE svg PUBLIC "-//W3C//DTD SVG 1.1//EN" "http://www.w3.org/Graphics/SVG/1.1/DTD/svg11.dtd">
<svg version="1.1" id="Layer_1" xmlns="http://www.w3.org/2000/svg" xmlns:xlink="http://www.w3.org/1999/xlink" x="0px" y="0px"
	 width="194.272px" height="264.457px" viewBox="0 0 194.272 264.457" enable-background="new 0 0 194.272 264.457"
	 xml:space="preserve">
<g>
	<g>
		
			<linearGradient id="SVGID_1_" gradientUnits="userSpaceOnUse" x1="-1018.3579" y1="1175.3032" x2="-903.3687" y2="1175.3032" gradientTransform="matrix(0 1 -1 0 1287.5405 1166.208)">
			<stop  offset="0" style="stop-color:#706DCB;stop-opacity:0"/>
			<stop  offset="1" style="stop-color:#706DCB;stop-opacity:0.7"/>
		</linearGradient>
		<path fill="url(#SVGID_1_)" d="M112.237,262.839c-31.702,0-57.493-25.792-57.493-57.495c0-31.702,25.791-57.494,57.493-57.494
			c31.704,0,57.495,25.792,57.495,57.494C169.732,237.047,143.941,262.839,112.237,262.839z"/>
		
			<linearGradient id="SVGID_2_" gradientUnits="userSpaceOnUse" x1="-1105.3638" y1="1175.3032" x2="-977.6245" y2="1175.3032" gradientTransform="matrix(0 1 -1 0 1287.5405 1166.208)">
			<stop  offset="0" style="stop-color:#706DCB;stop-opacity:0"/>
			<stop  offset="1" style="stop-color:#706DCB;stop-opacity:0.7"/>
		</linearGradient>
		<path fill="url(#SVGID_2_)" d="M112.237,145.446c-27.209,0-50.225,18.244-57.493,43.137V60.844h114.988v127.739
			C162.463,163.69,139.448,145.446,112.237,145.446z"/>
	</g>
	<g>
		<path fill="#FFFFFF" d="M108.368,0H67.5c-8.617,0-15.626,7.01-15.626,15.626v11.095h2.404V15.626
			c0-7.291,5.93-13.222,13.222-13.222h38.947C106.87,1.444,107.542,0.627,108.368,0z"/>
		<path fill="#FFFFFF" d="M155.727,0h-39.986c0.826,0.627,1.496,1.444,1.92,2.404h38.066c7.291,0,13.222,5.932,13.222,13.222v11.095
			h2.404V15.626C171.353,7.01,164.344,0,155.727,0z"/>
	</g>
	<g>
		
			<line fill-rule="evenodd" clip-rule="evenodd" fill="none" stroke="#FFFFFF" stroke-width="2" stroke-linecap="round" stroke-miterlimit="10" x1="44.661" y1="123.121" x2="1.568" y2="123.132"/>
		
			<polyline fill-rule="evenodd" clip-rule="evenodd" fill="none" stroke="#FFFFFF" stroke-width="2" stroke-linecap="round" stroke-miterlimit="10" points="
			36.81,116.126 44.661,123.121 36.519,129.776 		"/>
		
			<polyline fill-rule="evenodd" clip-rule="evenodd" fill="none" stroke="#FFFFFF" stroke-width="2" stroke-linecap="round" stroke-miterlimit="10" points="
			9.393,130.068 1.54,123.075 9.684,116.418 		"/>
	</g>
	<g>
		<path fill="#FFFFFF" d="M73.474,96.348c0,1.93-1.572,3.19-3.518,3.19H65.38V88.643h4.265c1.899,0,3.439,1.23,3.439,3.113
			c0,0.902-0.357,1.618-0.949,2.132C72.945,94.401,73.474,95.242,73.474,96.348z M67.871,90.978v1.93h1.774
			c0.561,0,0.949-0.404,0.949-0.965s-0.373-0.965-0.949-0.965H67.871z M70.984,96.16c0-0.606-0.405-1.043-1.027-1.043h-2.086v2.086
			h2.086C70.579,97.203,70.984,96.768,70.984,96.16z"/>
		<path fill="#FFFFFF" d="M81.102,97.141v2.397H74.72V88.643h2.49v8.498H81.102z"/>
		<path fill="#FFFFFF" d="M81.102,94.091c0-3.207,2.537-5.666,5.665-5.666c3.129,0,5.666,2.459,5.666,5.666
			c0,3.206-2.537,5.665-5.666,5.665C83.639,99.756,81.102,97.297,81.102,94.091z M89.943,94.091c0-1.946-1.401-3.237-3.176-3.237
			c-1.773,0-3.175,1.291-3.175,3.237c0,1.945,1.401,3.237,3.175,3.237C88.542,97.328,89.943,96.036,89.943,94.091z"/>
		<path fill="#FFFFFF" d="M93.369,94.091c0-3.207,2.382-5.666,5.665-5.666c1.977,0,3.72,0.98,4.67,2.521l-2.148,1.245
			c-0.482-0.84-1.416-1.338-2.521-1.338c-1.93,0-3.175,1.291-3.175,3.237c0,1.945,1.245,3.237,3.175,3.237
			c1.105,0,2.055-0.498,2.521-1.339l2.148,1.245c-0.935,1.541-2.678,2.521-4.67,2.521C95.75,99.756,93.369,97.297,93.369,94.091z"/>
		<path fill="#FFFFFF" d="M110.848,99.538l-3.486-5.043v5.043h-2.49V88.643h2.49v4.731l3.331-4.731h2.832l-3.673,5.308l3.829,5.588
			H110.848z"/>
		<path fill="#FFFFFF" d="M113.215,94.091c0-3.207,2.382-5.666,5.665-5.666c1.977,0,3.72,0.98,4.67,2.521l-2.148,1.245
			c-0.482-0.84-1.416-1.338-2.521-1.338c-1.93,0-3.175,1.291-3.175,3.237c0,1.945,1.245,3.237,3.175,3.237
			c1.105,0,2.055-0.498,2.521-1.339l2.148,1.245c-0.935,1.541-2.678,2.521-4.67,2.521C115.597,99.756,113.215,97.297,113.215,94.091
			z"/>
		<path fill="#FFFFFF" d="M133.125,88.643v10.896h-2.49v-4.327h-3.425v4.327h-2.49V88.643h2.49v4.172h3.425v-4.172H133.125z"/>
		<path fill="#FFFFFF" d="M141.375,97.826h-4.047l-0.545,1.712h-2.724l3.704-10.896h3.175l3.704,10.896h-2.724L141.375,97.826z
			 M140.627,95.491l-1.276-4l-1.276,4H140.627z"/>
		<path fill="#FFFFFF" d="M148.068,88.643v10.896h-2.49V88.643H148.068z"/>
		<path fill="#FFFFFF" d="M158.497,88.643v10.896h-1.868l-4.202-5.915v5.915h-2.49V88.643h1.868l4.202,5.915v-5.915H158.497z"/>
		<path fill="#FFFFFF" d="M96.956,110.616c0,1.93-1.572,3.19-3.518,3.19h-4.576v-10.895h4.265c1.898,0,3.439,1.229,3.439,3.112
			c0,0.903-0.357,1.619-0.949,2.133C96.426,108.671,96.956,109.511,96.956,110.616z M91.352,105.247v1.93h1.774
			c0.561,0,0.949-0.405,0.949-0.965c0-0.561-0.373-0.965-0.949-0.965H91.352z M94.465,110.43c0-0.607-0.405-1.043-1.027-1.043
			h-2.086v2.086h2.086C94.06,111.473,94.465,111.036,94.465,110.43z"/>
		<path fill="#FFFFFF" d="M104.583,112.095h-4.047l-0.545,1.712h-2.724l3.704-10.895h3.175l3.704,10.895h-2.724L104.583,112.095z
			 M103.836,109.76l-1.276-3.999l-1.276,3.999H103.836z"/>
		<path fill="#FFFFFF" d="M108.008,111.332l2.148-1.245c0.389,0.903,1.059,1.51,2.288,1.51c1.183,0,1.479-0.467,1.479-0.887
			c0-0.67-0.623-0.935-2.257-1.386c-1.619-0.451-3.206-1.229-3.206-3.314c0-2.102,1.773-3.315,3.657-3.315
			c1.79,0,3.19,0.855,3.984,2.459L114,106.383c-0.373-0.778-0.887-1.261-1.883-1.261c-0.778,0-1.167,0.39-1.167,0.825
			c0,0.498,0.265,0.84,1.961,1.354c1.649,0.498,3.502,1.074,3.502,3.378c0,2.101-1.682,3.346-4.047,3.346
			C110.079,114.024,108.616,112.936,108.008,111.332z"/>
		<path fill="#FFFFFF" d="M124.43,111.41v2.396h-6.849v-10.895h6.771v2.396h-4.28v1.806h3.892v2.366h-3.892v1.93H124.43z"/>
		<path fill="#FFFFFF" d="M135.482,108.359c0,3.082-2.288,5.447-5.292,5.447h-4.358v-10.895h4.358
			C133.194,102.912,135.482,105.277,135.482,108.359z M133.084,108.359c0-1.867-1.183-3.051-2.895-3.051h-1.868v6.102h1.868
			C131.902,111.41,133.084,110.228,133.084,108.359z"/>
		<path fill="#FFFFFF" d="M87.157,126.364H83.11l-0.545,1.712h-2.724l3.704-10.896h3.175l3.705,10.896h-2.725L87.157,126.364z
			 M86.41,124.029l-1.276-4l-1.276,4H86.41z"/>
		<path fill="#FFFFFF" d="M95.033,124.496H93.85v3.58h-2.49v-10.896h4.358c2.069,0,3.735,1.666,3.735,3.735
			c0,1.339-0.81,2.553-2.008,3.16l2.319,4h-2.678L95.033,124.496z M93.85,122.317h1.868c0.685,0,1.245-0.607,1.245-1.401
			c0-0.793-0.561-1.4-1.245-1.4H93.85V122.317z"/>
		<path fill="#FFFFFF" d="M100.311,122.629c0-3.207,2.382-5.666,5.665-5.666c1.977,0,3.72,0.98,4.67,2.521l-2.148,1.245
			c-0.482-0.84-1.416-1.338-2.521-1.338c-1.93,0-3.175,1.291-3.175,3.237c0,1.945,1.245,3.237,3.175,3.237
			c1.105,0,2.055-0.498,2.521-1.339l2.148,1.245c-0.935,1.541-2.678,2.521-4.67,2.521
			C102.693,128.294,100.311,125.835,100.311,122.629z"/>
		<path fill="#FFFFFF" d="M120.218,117.181v10.896h-2.49v-4.327h-3.424v4.327h-2.49v-10.896h2.49v4.172h3.424v-4.172H120.218z"/>
		<path fill="#FFFFFF" d="M124.578,117.181v10.896h-2.49v-10.896H124.578z"/>
		<path fill="#FFFFFF" d="M125.512,117.181h2.724l2.412,8.016l2.413-8.016h2.724l-3.549,10.896h-3.175L125.512,117.181z"/>
		<path fill="#FFFFFF" d="M143.569,125.679v2.397h-6.849v-10.896h6.771v2.397h-4.28v1.806h3.892v2.365h-3.892v1.93H143.569z"/>
	</g>
	<g>
		<g>
			<g>
				<g>
					<g>
						<g>
							<path fill="#FFFFFF" d="M118.625,174.311c-0.77,0.649-1.261,1.623-1.261,2.707c0,1.833,1.393,3.339,3.177,3.52
								c0.117,0.011,0.236,0.02,0.361,0.02l0,0c0.105,0,0.214-0.009,0.319-0.019c0.021-0.001,0.044-0.002,0.07-0.005
								c0.089-0.009,0.179-0.023,0.268-0.042c0.042-0.006,0.082-0.016,0.122-0.025c0.054-0.014,0.108-0.028,0.159-0.041
								c0.083-0.026,0.162-0.048,0.24-0.075c0.017-0.006,0.032-0.013,0.052-0.02c0.117-0.042,0.229-0.091,0.34-0.146l0,0
								c0.291-0.143,0.559-0.328,0.801-0.545l0,0c0.371-0.335,0.669-0.75,0.875-1.217v0.001c0.127-0.292,0.214-0.606,0.257-0.933
								l-0.003-0.001c0.023-0.154,0.035-0.311,0.035-0.472c0-1.952-1.582-3.537-3.535-3.537c-0.521,0-1.015,0.115-1.458,0.317
								l-0.002-0.003c-0.296,0.132-0.573,0.305-0.817,0.513V174.311z"/>
							<path fill="#FFFFFF" d="M124.542,178.557l6.346,2.119c0.062-0.324,0.155-0.632,0.284-0.924l-6.369-2.128
								C124.754,177.949,124.669,178.264,124.542,178.557z"/>
							<path fill="#FFFFFF" d="M111.26,180.942v3.814c0.159-0.019,0.321-0.031,0.485-0.031c0.162,0,0.322,0.012,0.484,0.031v-3.814
								c-0.162,0.017-0.322,0.032-0.486,0.032C111.582,180.974,111.419,180.958,111.26,180.942z"/>
							<path fill="#FFFFFF" d="M114.665,190.66c0.007-0.013,0.016-0.027,0.027-0.041c0.048-0.071,0.092-0.147,0.137-0.22
								c0.019-0.039,0.04-0.074,0.059-0.111c0.03-0.06,0.059-0.122,0.089-0.185c0.026-0.059,0.05-0.117,0.07-0.176
								c0.021-0.049,0.038-0.098,0.055-0.148c0.025-0.083,0.052-0.168,0.072-0.251c0.007-0.032,0.017-0.06,0.026-0.089
								c0.052-0.247,0.082-0.505,0.082-0.768c0-1.531-0.972-2.826-2.334-3.318c-0.035-0.014-0.072-0.029-0.11-0.042
								c-0.056-0.02-0.115-0.033-0.171-0.048c-0.054-0.014-0.105-0.029-0.162-0.04c-0.05-0.01-0.101-0.02-0.152-0.029
								c-0.2-0.031-0.399-0.056-0.606-0.056c-0.211,0-0.417,0.025-0.617,0.056c-0.047,0.01-0.094,0.019-0.141,0.028
								c-0.059,0.013-0.122,0.031-0.184,0.048c-0.047,0.013-0.098,0.023-0.143,0.039c-0.057,0.019-0.108,0.04-0.164,0.06
								c-0.05,0.019-0.102,0.038-0.15,0.056c-0.038,0.018-0.07,0.035-0.105,0.05c-0.242,0.114-0.463,0.25-0.672,0.411
								c-0.012,0.01-0.025,0.019-0.04,0.029c-0.065,0.053-0.127,0.109-0.19,0.169c-0.014,0.014-0.03,0.027-0.047,0.038
								c-0.059,0.061-0.117,0.123-0.176,0.184c-0.014,0.016-0.028,0.033-0.04,0.047c-0.059,0.064-0.112,0.131-0.162,0.201
								c-0.012,0.016-0.023,0.03-0.035,0.048c-0.052,0.068-0.101,0.141-0.146,0.214c-0.009,0.016-0.019,0.033-0.025,0.048
								c-0.05,0.075-0.09,0.154-0.129,0.232c-0.008,0.015-0.017,0.029-0.021,0.043c-0.042,0.081-0.077,0.167-0.113,0.252
								c-0.002,0.012-0.007,0.023-0.012,0.037c-0.032,0.088-0.063,0.178-0.089,0.272c-0.005,0.006-0.005,0.013-0.005,0.019
								c-0.087,0.303-0.134,0.622-0.134,0.952c0,0.131,0.01,0.263,0.021,0.39c0.005,0.025,0.01,0.052,0.014,0.074
								c0.012,0.097,0.026,0.192,0.047,0.286c0.015,0.054,0.026,0.107,0.043,0.158c0.017,0.06,0.032,0.123,0.054,0.183
								c0.021,0.068,0.047,0.134,0.068,0.201c0.019,0.041,0.037,0.081,0.052,0.118c0.035,0.08,0.072,0.159,0.114,0.231
								c0.01,0.021,0.02,0.042,0.031,0.063c0.605,1.084,1.763,1.815,3.096,1.815C112.955,192.19,114.026,191.584,114.665,190.66z"/>
							<path fill="#FFFFFF" d="M111.744,173.478c-0.162,0-0.324,0.014-0.483,0.036v0.007c-1.724,0.235-3.055,1.709-3.055,3.498
								c0,0.32,0.047,0.63,0.125,0.925c0.005,0.02,0.009,0.038,0.017,0.057c0.021,0.081,0.049,0.158,0.077,0.237
								c0.009,0.027,0.019,0.051,0.025,0.075c0.033,0.073,0.063,0.146,0.097,0.22c0.014,0.025,0.025,0.05,0.04,0.073
								c0.032,0.075,0.072,0.144,0.114,0.212c0.013,0.023,0.026,0.043,0.038,0.068c0.045,0.067,0.089,0.137,0.136,0.202
								c0.015,0.019,0.028,0.036,0.04,0.054c0.052,0.069,0.108,0.134,0.165,0.201c0.009,0.011,0.019,0.021,0.027,0.033
								c0.548,0.609,1.301,1.027,2.153,1.146l0,0c0.159,0.021,0.321,0.039,0.483,0.039c0.164,0,0.324-0.018,0.486-0.039l0,0
								c0.751-0.102,1.427-0.444,1.955-0.94c0.003-0.001,0.003-0.002,0.003-0.002c0.065-0.066,0.129-0.133,0.192-0.202
								c0.009-0.012,0.021-0.023,0.032-0.034c0.057-0.067,0.106-0.131,0.155-0.197c0.019-0.019,0.033-0.039,0.047-0.06
								c0.042-0.064,0.089-0.13,0.134-0.198c0.012-0.022,0.028-0.047,0.042-0.072c0.043-0.067,0.078-0.135,0.11-0.203
								c0.015-0.029,0.028-0.056,0.04-0.083c0.035-0.071,0.066-0.143,0.094-0.213c0.012-0.027,0.021-0.056,0.031-0.081
								c0.027-0.078,0.054-0.153,0.077-0.232c0.007-0.02,0.012-0.043,0.017-0.066c0.023-0.085,0.045-0.171,0.061-0.258
								c0.003-0.006,0.003-0.012,0.003-0.017c0.037-0.209,0.059-0.423,0.059-0.642c0-1.789-1.329-3.263-3.052-3.498v-0.007
								C112.068,173.492,111.908,173.478,111.744,173.478z"/>
							<path fill="#FFFFFF" d="M85.208,181.138c-0.007,0.077-0.012,0.154-0.012,0.232c0,0.041,0.003,0.081,0.005,0.123
								c0,0.043,0.002,0.088,0.005,0.133c0.005,0.058,0.012,0.114,0.019,0.17c0.007,0.034,0.012,0.065,0.017,0.098
								c0.012,0.1,0.033,0.197,0.054,0.296c0.381,1.549,1.774,2.701,3.439,2.701c1.587,0,2.93-1.042,3.378-2.479
								c0-0.005,0.005-0.007,0.005-0.009c0.03-0.094,0.052-0.194,0.075-0.291c0.002-0.02,0.007-0.039,0.012-0.058
								c0.017-0.069,0.025-0.145,0.035-0.214c0.019-0.155,0.033-0.31,0.033-0.469c0-0.189-0.021-0.375-0.047-0.559l0.004-0.001
								c-0.049-0.325-0.143-0.64-0.276-0.927l-0.01,0.003c-0.561-1.211-1.786-2.055-3.209-2.055c-1.533,0-2.838,0.979-3.324,2.342
								l-0.012-0.002c-0.105,0.306-0.174,0.628-0.195,0.966L85.208,181.138z"/>
							<path fill="#FFFFFF" d="M99.372,178.424v-0.001c0.202,0.467,0.505,0.882,0.876,1.217l0,0
								c0.237,0.217,0.505,0.402,0.798,0.545l0,0c0.11,0.054,0.224,0.103,0.338,0.146c0.021,0.007,0.038,0.014,0.055,0.02
								c0.077,0.027,0.157,0.049,0.237,0.075c0.056,0.013,0.107,0.027,0.161,0.041c0.04,0.009,0.083,0.019,0.122,0.025
								c0.09,0.019,0.179,0.033,0.271,0.042c0.023,0.002,0.047,0.003,0.07,0.005c0.105,0.009,0.211,0.019,0.317,0.019
								c1.955,0,3.54-1.583,3.54-3.54c0-1.086-0.491-2.059-1.264-2.707v-0.003c-0.244-0.208-0.519-0.38-0.816-0.513l-0.003,0.003
								c-0.443-0.202-0.938-0.317-1.457-0.317c-1.951,0-3.533,1.584-3.533,3.537c0,0.161,0.012,0.318,0.03,0.472v0.001
								C99.156,177.818,99.243,178.132,99.372,178.424z"/>
							<path fill="#FFFFFF" d="M131.294,180.812c-0.03,0.184-0.049,0.37-0.049,0.559c0,0.199,0.019,0.396,0.052,0.589
								c0.004,0.024,0.007,0.049,0.014,0.074c0.01,0.063,0.028,0.125,0.042,0.19c0.012,0.047,0.023,0.097,0.038,0.145
								c0.014,0.051,0.032,0.099,0.052,0.147c0.019,0.061,0.037,0.121,0.061,0.177c0.017,0.041,0.038,0.08,0.052,0.118
								c0.033,0.066,0.059,0.129,0.094,0.193c0.017,0.032,0.033,0.063,0.052,0.096c0.04,0.067,0.077,0.134,0.12,0.196
								c0.019,0.026,0.035,0.053,0.054,0.079c0.047,0.07,0.096,0.135,0.15,0.201c0.014,0.019,0.03,0.04,0.047,0.059
								c0.057,0.07,0.122,0.138,0.183,0.204c0.015,0.012,0.023,0.024,0.038,0.036c0.072,0.074,0.15,0.144,0.234,0.211
								c0.003,0.003,0.005,0.007,0.007,0.008c0.435,0.358,0.956,0.615,1.528,0.733c0.008,0,0.015,0.002,0.021,0.004
								c0.226,0.045,0.46,0.068,0.699,0.068c0.953,0,1.822-0.379,2.458-0.992c0.021-0.026,0.047-0.049,0.071-0.072
								c0.054-0.056,0.107-0.114,0.157-0.172c0.021-0.022,0.035-0.041,0.054-0.065c0.063-0.075,0.124-0.156,0.181-0.238
								c0.025-0.039,0.049-0.075,0.07-0.114c0.197-0.306,0.343-0.645,0.435-1.005v-0.002c0.052-0.199,0.084-0.405,0.101-0.614
								c0.005-0.042,0.005-0.082,0.007-0.122c0.005-0.045,0.005-0.088,0.005-0.132c0-0.079-0.007-0.155-0.012-0.232l0.003-0.001
								c-0.021-0.335-0.09-0.658-0.197-0.966l-0.008,0.002c-0.488-1.363-1.791-2.342-3.324-2.342c-1.422,0-2.646,0.844-3.209,2.055
								l-0.007-0.002c-0.134,0.287-0.228,0.601-0.277,0.926L131.294,180.812z"/>
							<path fill="#FFFFFF" d="M126.139,185.865c-0.629,0.483-1.094,1.173-1.289,1.966c-0.002,0.005-0.002,0.011-0.005,0.014
								c-0.044,0.184-0.072,0.375-0.086,0.572c-0.003,0.04-0.005,0.081-0.005,0.123c0,0.042-0.003,0.084-0.003,0.131
								c0,0.22,0.02,0.433,0.057,0.642c0.002,0.004,0.002,0.01,0.002,0.017c0.017,0.084,0.038,0.172,0.06,0.256
								c0.009,0.024,0.014,0.046,0.019,0.067c0.023,0.08,0.052,0.155,0.077,0.231c0.012,0.027,0.021,0.054,0.03,0.081
								c0.031,0.073,0.062,0.144,0.094,0.216c0.015,0.024,0.026,0.054,0.038,0.081c0.035,0.07,0.073,0.137,0.115,0.204
								c0.014,0.023,0.028,0.048,0.042,0.074c0.042,0.067,0.087,0.133,0.134,0.197c0.015,0.02,0.028,0.038,0.042,0.058
								c0.052,0.068,0.104,0.134,0.16,0.198c0.012,0.012,0.021,0.023,0.032,0.035c0.062,0.068,0.125,0.135,0.193,0.202h0.002
								c0.526,0.499,1.202,0.839,1.958,0.942l0,0c0.155,0.021,0.319,0.038,0.481,0.038c0.164,0,0.323-0.016,0.483-0.038l0,0
								c0.385-0.053,0.754-0.17,1.089-0.335l0,0c0.294-0.145,0.56-0.329,0.799-0.547l0,0c0.718-0.647,1.166-1.579,1.166-2.619
								c0-1.952-1.587-3.537-3.537-3.537c-0.463,0-0.899,0.09-1.308,0.252v-0.007c-0.306,0.122-0.587,0.284-0.841,0.482V185.865z"/>
							<path fill="#FFFFFF" d="M125.912,185.513c0.258-0.195,0.537-0.361,0.833-0.486l-3.246-5.033
								c-0.242,0.211-0.51,0.395-0.801,0.542L125.912,185.513z"/>
							<path fill="#FFFFFF" d="M111.744,173.061c0.164,0,0.324,0.013,0.486,0.033v-3.337h-0.97v3.337
								C111.419,173.074,111.582,173.061,111.744,173.061z"/>
							<path fill="#FFFFFF" d="M105.121,173.956l2.712-4.199h-1.147l-2.383,3.685C104.597,173.581,104.875,173.751,105.121,173.956z
								"/>
							<path fill="#FFFFFF" d="M119.216,173.441l-2.383-3.685h-1.15l2.714,4.2C118.641,173.751,118.92,173.581,119.216,173.441z"/>
							<path fill="#FFFFFF" d="M91.695,188.671c0,1.04,0.453,1.971,1.162,2.619v0.004c0.237,0.219,0.505,0.402,0.796,0.548
								l0.005-0.004c0.338,0.166,0.704,0.283,1.092,0.335v0.005c0.157,0.023,0.316,0.039,0.481,0.039
								c0.164,0,0.326-0.015,0.483-0.039v-0.005c1.723-0.237,3.054-1.712,3.054-3.501c0-0.045-0.002-0.089-0.002-0.131
								c-0.002-0.041-0.005-0.083-0.007-0.123c-0.005-0.054-0.012-0.11-0.015-0.169c-0.012-0.071-0.021-0.146-0.035-0.216
								c-0.009-0.053-0.023-0.108-0.032-0.158c-0.01-0.042-0.021-0.084-0.033-0.128c-0.021-0.079-0.047-0.159-0.075-0.236
								c-0.012-0.034-0.023-0.07-0.037-0.105c-0.035-0.089-0.073-0.175-0.113-0.261c-0.012-0.024-0.021-0.049-0.035-0.073
								c-0.028-0.055-0.059-0.108-0.087-0.162c-0.007-0.008-0.012-0.017-0.017-0.026c-0.063-0.101-0.126-0.201-0.197-0.297
								c-0.007-0.011-0.014-0.022-0.021-0.03c-0.078-0.102-0.157-0.198-0.244-0.29v-0.002c-0.134-0.143-0.282-0.276-0.437-0.398
								c-0.271-0.203-0.563-0.37-0.886-0.494c-0.084-0.033-0.171-0.063-0.26-0.088c-0.026-0.01-0.06-0.014-0.087-0.022
								c-0.073-0.022-0.153-0.042-0.23-0.059c-0.082-0.016-0.167-0.028-0.254-0.038c-0.025-0.003-0.049-0.011-0.075-0.013
								c-0.117-0.01-0.239-0.018-0.358-0.018c-0.857,0-1.644,0.303-2.249,0.809C92.195,186.594,91.695,187.574,91.695,188.671z"/>
							<path fill="#FFFFFF" d="M92.629,180.676l6.344-2.119c-0.125-0.293-0.207-0.608-0.259-0.933l-6.366,2.126
								C92.477,180.044,92.571,180.352,92.629,180.676z"/>
							<path fill="#FFFFFF" d="M97.602,185.517l3.216-4.98c-0.286-0.148-0.559-0.331-0.798-0.542l-3.252,5.037
								C97.067,185.156,97.346,185.323,97.602,185.517z"/>
						</g>
						<g>
							<g>
								<path fill="#FFFFFF" d="M123.285,161.552h-9.05h-5.431H99.75c-1.057,0-1.913,0.858-1.913,1.917v3.727
									c0,1.06,0.856,1.917,1.913,1.917h9.055h5.431h9.05c1.059,0,1.918-0.857,1.918-1.917v-3.727
									C125.203,162.41,124.343,161.552,123.285,161.552z"/>
							</g>
						</g>
						<g>
							<g>
								<path fill="#FFFFFF" d="M81.931,178.665c0.322,0,0.587,0.265,0.587,0.589c0,0.325-0.265,0.589-0.587,0.589
									c-0.326,0-0.592-0.264-0.592-0.589C81.339,178.93,81.605,178.665,81.931,178.665 M81.931,178.041
									c-0.671,0-1.216,0.547-1.216,1.213c0,0.669,0.545,1.214,1.216,1.214c0.667,0,1.214-0.544,1.214-1.214
									C83.145,178.587,82.598,178.041,81.931,178.041L81.931,178.041z"/>
								<path fill="#FFFFFF" d="M83.551,179.413c-0.03,0.337-0.167,0.645-0.376,0.89l1.623,0.668
									c0.032-0.334,0.107-0.653,0.218-0.956L83.551,179.413z"/>
							</g>
							<g>
								<path fill="#FFFFFF" d="M83.145,183.984l2.132-0.716c-0.155-0.279-0.277-0.58-0.359-0.899l-2.094,0.702
									C83.016,183.327,83.133,183.641,83.145,183.984z"/>
								<path fill="#FFFFFF" d="M81.518,183.454c0.326,0,0.59,0.267,0.59,0.59c0,0.326-0.264,0.591-0.59,0.591
									s-0.589-0.265-0.589-0.591C80.929,183.721,81.192,183.454,81.518,183.454 M81.518,182.831c-0.671,0-1.214,0.545-1.214,1.214
									c0,0.67,0.543,1.216,1.214,1.216c0.672,0,1.216-0.545,1.216-1.216C82.734,183.375,82.19,182.831,81.518,182.831
									L81.518,182.831z"/>
							</g>
							<g>
								<path fill="#FFFFFF" d="M84.34,187.387c0.326,0,0.589,0.261,0.589,0.586s-0.263,0.591-0.589,0.591
									c-0.324,0-0.587-0.266-0.587-0.591S84.016,187.387,84.34,187.387 M84.34,186.762c-0.667,0-1.212,0.545-1.212,1.211
									c0,0.671,0.545,1.215,1.212,1.215c0.671,0,1.216-0.543,1.216-1.215C85.556,187.307,85.011,186.762,84.34,186.762
									L84.34,186.762z"/>
								<path fill="#FFFFFF" d="M85.603,186.947l1.338-2.074c-0.288-0.148-0.556-0.33-0.8-0.54l-1.343,2.079
									C85.117,186.506,85.399,186.695,85.603,186.947z"/>
							</g>
							<g>
								<path fill="#FFFFFF" d="M88.735,188.958c0.324,0,0.589,0.265,0.589,0.59s-0.265,0.589-0.589,0.589s-0.589-0.264-0.589-0.589
									S88.411,188.958,88.735,188.958 M88.735,188.336c-0.669,0-1.214,0.543-1.214,1.212s0.545,1.214,1.214,1.214
									c0.671,0,1.214-0.545,1.214-1.214S89.406,188.336,88.735,188.336L88.735,188.336z"/>
								<path fill="#FFFFFF" d="M88.735,187.919c0.169,0,0.331,0.025,0.483,0.073v-2.717c-0.159,0.019-0.319,0.032-0.483,0.032
									c-0.162,0-0.324-0.013-0.481-0.032v2.717C88.404,187.944,88.568,187.919,88.735,187.919z"/>
							</g>
							<g>
								<path fill="#FFFFFF" d="M92.087,194.264l1.338-2.072c-0.286-0.148-0.552-0.331-0.798-0.542l-1.348,2.088
									C91.601,193.829,91.88,194.015,92.087,194.264z"/>
								<path fill="#FFFFFF" d="M90.835,194.717c0.327,0,0.59,0.264,0.59,0.589s-0.263,0.589-0.59,0.589
									c-0.323,0-0.587-0.264-0.587-0.589S90.512,194.717,90.835,194.717 M90.835,194.092c-0.669,0-1.211,0.546-1.211,1.213
									c0,0.669,0.542,1.211,1.211,1.211c0.672,0,1.217-0.542,1.217-1.211C92.052,194.638,91.507,194.092,90.835,194.092
									L90.835,194.092z"/>
							</g>
							<g>
								<path fill="#FFFFFF" d="M95.231,196c0.326,0,0.587,0.264,0.587,0.59c0,0.324-0.261,0.591-0.587,0.591
									c-0.324,0-0.59-0.267-0.59-0.591C94.641,196.264,94.907,196,95.231,196 M95.231,195.376c-0.669,0-1.217,0.544-1.217,1.213
									c0,0.67,0.548,1.214,1.217,1.214s1.214-0.543,1.214-1.214C96.445,195.921,95.9,195.376,95.231,195.376L95.231,195.376z"/>
								<path fill="#FFFFFF" d="M95.231,194.961c0.164,0,0.331,0.026,0.483,0.073V192.6c-0.157,0.018-0.319,0.033-0.483,0.033
									c-0.165,0-0.324-0.016-0.481-0.033v2.434C94.9,194.987,95.062,194.961,95.231,194.961z"/>
							</g>
							<g>
								<path fill="#FFFFFF" d="M108.624,194.456l1.441-2.229c-0.296-0.137-0.572-0.306-0.821-0.512l-1.425,2.206
									C108.138,194.016,108.419,194.205,108.624,194.456z"/>
								<path fill="#FFFFFF" d="M107.361,194.895c0.324,0,0.589,0.264,0.589,0.588c0,0.325-0.265,0.591-0.589,0.591
									s-0.59-0.267-0.59-0.591C106.771,195.159,107.037,194.895,107.361,194.895 M107.361,194.273
									c-0.669,0-1.214,0.543-1.214,1.21c0,0.67,0.545,1.215,1.214,1.215s1.216-0.545,1.216-1.215
									C108.577,194.816,108.03,194.273,107.361,194.273L107.361,194.273z"/>
							</g>
							<g>
								<path fill="#FFFFFF" d="M111.744,196.524c0.324,0,0.589,0.265,0.589,0.59c0,0.324-0.265,0.589-0.589,0.589
									s-0.589-0.266-0.589-0.589C111.155,196.79,111.419,196.524,111.744,196.524 M111.744,195.898
									c-0.667,0-1.209,0.546-1.209,1.216c0,0.668,0.542,1.212,1.209,1.212c0.669,0,1.211-0.544,1.211-1.212
									C112.955,196.444,112.413,195.898,111.744,195.898L111.744,195.898z"/>
								<path fill="#FFFFFF" d="M111.744,195.483c0.169,0,0.331,0.027,0.486,0.075v-2.985c-0.162,0.02-0.322,0.032-0.484,0.032
									c-0.164,0-0.326-0.012-0.485-0.032v2.985C111.416,195.51,111.577,195.483,111.744,195.483z"/>
							</g>
							<g>
								<path fill="#FFFFFF" d="M116.129,194.895c0.326,0,0.587,0.264,0.587,0.588c0,0.325-0.261,0.591-0.587,0.591
									c-0.327,0-0.592-0.267-0.592-0.591C115.538,195.159,115.802,194.895,116.129,194.895 M116.129,194.273
									c-0.672,0-1.217,0.543-1.217,1.21c0,0.67,0.545,1.215,1.217,1.215c0.666,0,1.214-0.545,1.214-1.215
									C117.343,194.816,116.795,194.273,116.129,194.273L116.129,194.273z"/>
								<path fill="#FFFFFF" d="M115.668,193.921l-1.425-2.205c-0.246,0.205-0.523,0.374-0.819,0.513l1.439,2.227
									C115.073,194.205,115.349,194.016,115.668,193.921z"/>
							</g>
							<g>
								<path fill="#FFFFFF" d="M128.288,196c0.323,0,0.589,0.264,0.589,0.59c0,0.324-0.266,0.591-0.589,0.591
									c-0.326,0-0.59-0.267-0.59-0.591C127.698,196.264,127.961,196,128.288,196 M128.288,195.376
									c-0.669,0-1.214,0.544-1.214,1.213c0,0.67,0.545,1.214,1.214,1.214s1.214-0.543,1.214-1.214
									C129.501,195.921,128.957,195.376,128.288,195.376L128.288,195.376z"/>
								<path fill="#FFFFFF" d="M128.288,194.961c0.169,0,0.331,0.026,0.483,0.073v-2.44c-0.16,0.02-0.319,0.033-0.483,0.033
									c-0.162,0-0.326-0.013-0.481-0.033v2.44C127.958,194.987,128.121,194.961,128.288,194.961z"/>
							</g>
							<g>
								<path fill="#FFFFFF" d="M132.679,194.688c0.324,0,0.592,0.263,0.592,0.589c0,0.325-0.268,0.592-0.592,0.592
									c-0.321,0-0.589-0.267-0.589-0.592C132.09,194.95,132.358,194.688,132.679,194.688 M132.679,194.062
									c-0.666,0-1.209,0.547-1.209,1.215c0,0.67,0.543,1.215,1.209,1.215c0.672,0,1.214-0.544,1.214-1.215
									C133.893,194.608,133.351,194.062,132.679,194.062L132.679,194.062z"/>
								<path fill="#FFFFFF" d="M132.222,193.713l-1.336-2.067c-0.244,0.21-0.51,0.395-0.801,0.541l1.334,2.06
									C131.624,193.996,131.903,193.807,132.222,193.713z"/>
							</g>
							<g>
								<path fill="#FFFFFF" d="M134.783,188.966c0.324,0,0.59,0.26,0.59,0.585c0,0.327-0.266,0.591-0.59,0.591
									c-0.326,0-0.589-0.264-0.589-0.591C134.194,189.227,134.457,188.966,134.783,188.966 M134.783,188.338
									c-0.671,0-1.216,0.543-1.216,1.213c0,0.669,0.545,1.215,1.216,1.215c0.67,0,1.214-0.546,1.214-1.215
									C135.997,188.882,135.453,188.338,134.783,188.338L134.783,188.338z"/>
								<path fill="#FFFFFF" d="M134.783,187.924c0.17,0,0.331,0.024,0.484,0.073v-2.712c-0.16,0.019-0.322,0.033-0.484,0.033
									c-0.164,0-0.326-0.014-0.483-0.033v2.712C134.453,187.948,134.617,187.924,134.783,187.924z"/>
							</g>
							<g>
								<path fill="#FFFFFF" d="M139.178,187.387c0.323,0,0.587,0.261,0.587,0.586s-0.264,0.591-0.587,0.591
									c-0.324,0-0.592-0.266-0.592-0.591S138.854,187.387,139.178,187.387 M139.178,186.762c-0.669,0-1.217,0.545-1.217,1.211
									c0,0.671,0.548,1.215,1.217,1.215s1.214-0.543,1.214-1.215C140.392,187.307,139.847,186.762,139.178,186.762
									L139.178,186.762z"/>
								<path fill="#FFFFFF" d="M138.717,186.412l-1.335-2.074c-0.247,0.212-0.512,0.393-0.804,0.542l1.336,2.067
									C138.122,186.695,138.398,186.506,138.717,186.412z"/>
							</g>
							<g>
								<path fill="#FFFFFF" d="M142.361,183.988c0.324,0,0.59,0.265,0.59,0.59c0,0.324-0.266,0.589-0.59,0.589
									c-0.328,0-0.589-0.266-0.589-0.589C141.772,184.253,142.033,183.988,142.361,183.988 M142.361,183.364
									c-0.669,0-1.213,0.544-1.213,1.215c0,0.667,0.544,1.215,1.213,1.215c0.667,0,1.212-0.548,1.212-1.215
									C143.573,183.908,143.028,183.364,142.361,183.364L142.361,183.364z"/>
							</g>
						</g>
					</g>
				</g>
			</g>
		</g>
		<g>
			<g>
				<g>
					<g>
						<g>
							<path fill="#FFFFFF" d="M91.714,207.659c-0.062-0.025-0.123-0.047-0.184-0.069c-0.326-0.116-0.667-0.185-1.007-0.201v0.006
								c-0.96-0.042-1.935,0.295-2.662,1.027c-0.991,0.992-1.266,2.42-0.836,3.659c0.019,0.053,0.032,0.104,0.054,0.153
								c0.005,0.007,0.005,0.013,0.007,0.021c0.174,0.419,0.43,0.811,0.771,1.153c1.383,1.381,3.622,1.386,4.998,0.012
								c1.378-1.379,1.376-3.617-0.01-5C92.509,208.085,92.125,207.833,91.714,207.659z"/>
							<path fill="#FFFFFF" d="M85.242,216.73l2.699-2.704c-0.129-0.099-0.256-0.207-0.375-0.327
								c-0.115-0.112-0.216-0.229-0.311-0.351l-2.694,2.694c0.124,0.096,0.241,0.198,0.354,0.312
								C85.035,216.473,85.138,216.6,85.242,216.73z"/>
							<path fill="#FFFFFF" d="M78.112,203.125c-0.319-0.043-0.634-0.121-0.937-0.243l-1.261,5.854
								c0.324,0.021,0.641,0.081,0.951,0.183L78.112,203.125z"/>
							<path fill="#FFFFFF" d="M65.696,198.281l0.016,0.008c-0.619,1.31-0.39,2.925,0.695,4.01c0.115,0.114,0.237,0.22,0.364,0.316
								c0.025,0.019,0.051,0.036,0.074,0.054c0.052,0.038,0.106,0.075,0.155,0.109c0.063,0.036,0.125,0.074,0.186,0.108
								c0.045,0.027,0.092,0.047,0.134,0.07c0.068,0.033,0.137,0.067,0.204,0.094c0.028,0.013,0.057,0.023,0.087,0.033
								c0.082,0.035,0.169,0.066,0.256,0.09c0.01,0.003,0.019,0.008,0.03,0.011c1.2,0.353,2.553,0.056,3.503-0.895
								c1.031-1.033,1.296-2.546,0.782-3.821c-0.015-0.032-0.028-0.063-0.043-0.097c-0.03-0.063-0.056-0.127-0.091-0.189
								c-0.031-0.061-0.063-0.121-0.099-0.181c-0.02-0.03-0.04-0.062-0.055-0.093c-0.047-0.074-0.096-0.144-0.149-0.216
								c-0.104-0.139-0.217-0.279-0.346-0.408c-0.112-0.113-0.232-0.213-0.356-0.307l-0.003,0.002
								c-0.312-0.237-0.65-0.415-1.009-0.534l0.002-0.008c-0.308-0.103-0.627-0.164-0.951-0.181v0.012
								c-0.366-0.019-0.734,0.019-1.089,0.113l-0.007-0.012c-0.311,0.08-0.61,0.209-0.893,0.375l0.005,0.014
								c-0.242,0.146-0.479,0.32-0.692,0.537c-0.054,0.053-0.104,0.112-0.155,0.171l-0.017-0.006
								C66.015,197.716,65.833,197.992,65.696,198.281z"/>
							<path fill="#FFFFFF" d="M103.957,229.854c-0.159-0.16-0.328-0.297-0.507-0.417c-0.026-0.017-0.047-0.035-0.075-0.053
								c-0.057-0.035-0.115-0.069-0.176-0.105c-0.045-0.022-0.085-0.048-0.127-0.071c-0.033-0.015-0.062-0.028-0.087-0.04
								c-1.313-0.624-2.93-0.397-4.017,0.691c-0.137,0.131-0.252,0.275-0.361,0.427l-0.017-0.01
								c-0.192,0.267-0.346,0.552-0.456,0.851l0.017,0.011c-0.46,1.253-0.19,2.715,0.817,3.721c0.737,0.738,1.718,1.079,2.686,1.026
								c0.014,0,0.028,0,0.045-0.002c0.067-0.002,0.134-0.011,0.201-0.02c0.038-0.005,0.078-0.012,0.113-0.016
								c0.059-0.01,0.114-0.019,0.166-0.028c0.08-0.019,0.157-0.037,0.235-0.059c0.017-0.004,0.032-0.008,0.052-0.013
								c0.103-0.03,0.209-0.067,0.312-0.108c0.005-0.002,0.012-0.007,0.021-0.011c0.418-0.17,0.814-0.427,1.157-0.77
								C105.337,233.477,105.337,231.234,103.957,229.854z"/>
							<path fill="#FFFFFF" d="M78.145,215.181c0.948-0.95,1.244-2.299,0.895-3.5c-0.162-0.548-0.461-1.063-0.89-1.491
								c-0.402-0.402-0.874-0.682-1.379-0.85l0.005-0.014c-0.308-0.104-0.627-0.164-0.946-0.182l-0.007,0.018
								c-0.5-0.026-1.005,0.053-1.479,0.239l-0.01-0.013c-0.296,0.115-0.573,0.274-0.838,0.477l0.007,0.015
								c-0.122,0.095-0.244,0.196-0.354,0.31c-1.294,1.29-1.378,3.333-0.251,4.723c0.075,0.091,0.152,0.182,0.239,0.269
								C74.52,216.563,76.764,216.563,78.145,215.181z"/>
							<path fill="#FFFFFF" d="M91.073,228.108c0.517-0.514,0.838-1.149,0.97-1.815c0.002-0.004,0.002-0.012,0.002-0.018
								c0.015-0.083,0.026-0.164,0.038-0.248c0.005-0.047,0.012-0.091,0.014-0.14c0.005-0.055,0.005-0.11,0.008-0.169
								c0.002-0.073,0.004-0.148,0-0.222c-0.01-0.341-0.068-0.682-0.179-1.007l0,0c-0.167-0.501-0.448-0.976-0.848-1.374
								c-1.383-1.383-3.62-1.383-5,0c-0.772,0.767-1.11,1.802-1.023,2.808l-0.01,0.001c0.028,0.319,0.105,0.637,0.219,0.94h0.007
								c0.122,0.331,0.3,0.646,0.521,0.934c0.012,0.012,0.02,0.025,0.028,0.035c0.019,0.019,0.035,0.038,0.05,0.058
								c0.065,0.07,0.127,0.146,0.197,0.215C87.449,229.491,89.69,229.491,91.073,228.108z"/>
							<path fill="#FFFFFF" d="M104.542,225.085c0.41-0.412,0.699-0.902,0.863-1.423c0.012-0.033,0.023-0.069,0.035-0.107
								c0.015-0.053,0.026-0.106,0.04-0.16c0.015-0.074,0.033-0.148,0.045-0.22c0.002-0.022,0.01-0.048,0.01-0.071
								c0.032-0.224,0.044-0.453,0.032-0.68h0.005c-0.014-0.321-0.072-0.642-0.176-0.951l-0.007,0.001
								c-0.12-0.358-0.296-0.697-0.533-1.007l0.009-0.011c-0.098-0.131-0.206-0.257-0.323-0.379
								c-0.115-0.113-0.235-0.212-0.357-0.305l-0.012,0.012c-1.385-1.054-3.368-0.95-4.634,0.314c-0.813,0.81-1.141,1.912-1,2.967
								h-0.005c0.052,0.379,0.164,0.751,0.341,1.1c0.012,0.026,0.023,0.049,0.035,0.075c0.162,0.301,0.368,0.587,0.624,0.843
								C100.915,226.469,103.159,226.469,104.542,225.085z"/>
							<path fill="#FFFFFF" d="M98.127,223.156l-5.794,1.247c0.099,0.31,0.16,0.629,0.179,0.951l5.866-1.263
								C98.256,223.788,98.172,223.473,98.127,223.156z"/>
							<path fill="#FFFFFF" d="M84.636,226.015l-4.872,1.045l0.813,0.813l4.277-0.92C84.747,226.647,84.671,226.333,84.636,226.015z
								"/>
							<path fill="#FFFFFF" d="M74.313,216.399l-0.922,4.289l0.814,0.813l1.049-4.89C74.938,216.582,74.621,216.506,74.313,216.399z
								"/>
							<path fill="#FFFFFF" d="M79.319,221.948c-0.113-0.111-0.214-0.232-0.313-0.352l-2.353,2.355l0.681,0.682l2.357-2.358
								C79.563,222.175,79.438,222.067,79.319,221.948z"/>
							<path fill="#FFFFFF" d="M81.162,201.717c0.683-0.685,1.028-1.575,1.035-2.471c0-0.016,0-0.029,0-0.044
								c0-0.08-0.007-0.158-0.01-0.236c-0.002-0.039-0.004-0.078-0.007-0.116c-0.002-0.035-0.012-0.068-0.017-0.104
								c-0.08-0.587-0.305-1.158-0.683-1.652l0.005-0.002c-0.099-0.134-0.205-0.262-0.324-0.38
								c-0.115-0.114-0.235-0.214-0.357-0.309l-0.004,0.007c-0.313-0.235-0.653-0.414-1.013-0.534l0.005-0.009
								c-0.31-0.107-0.627-0.167-0.948-0.183l-0.002,0.015c-0.965-0.047-1.944,0.292-2.677,1.028
								c-1.293,1.29-1.38,3.333-0.253,4.722c0.077,0.092,0.157,0.182,0.241,0.269C77.537,203.099,79.781,203.099,81.162,201.717z"/>
							<path fill="#FFFFFF" d="M79.612,221.653c0.152,0.152,0.314,0.285,0.488,0.403c0.033,0.024,0.065,0.047,0.102,0.072
								c0.079,0.048,0.159,0.098,0.239,0.141c0.012,0.007,0.023,0.016,0.037,0.02c1.334,0.697,3.02,0.486,4.142-0.636
								c0.681-0.684,1.028-1.572,1.037-2.466c0-0.017,0-0.033,0-0.052c0-0.075-0.007-0.151-0.009-0.228
								c-0.008-0.042-0.008-0.081-0.01-0.121c-0.005-0.032-0.012-0.062-0.017-0.09c-0.079-0.595-0.303-1.17-0.683-1.667l0.005-0.002
								c-0.099-0.133-0.207-0.258-0.324-0.38c-0.113-0.113-0.235-0.211-0.357-0.307l-0.007,0.007
								c-1.385-1.051-3.369-0.95-4.634,0.315c-1.266,1.264-1.369,3.248-0.314,4.636l0,0
								C79.401,221.421,79.501,221.542,79.612,221.653z"/>
							<path fill="#FFFFFF" d="M98.212,230.089l-5.982-2.985c-0.122,0.294-0.281,0.576-0.474,0.84l6.003,3
								C97.875,230.645,98.024,230.358,98.212,230.089z"/>
							<path fill="#FFFFFF" d="M74.152,209.012l-2.986-5.986c-0.271,0.188-0.557,0.34-0.854,0.456l2.995,6.005
								C73.574,209.294,73.853,209.132,74.152,209.012z"/>
						</g>
						<g>
							<g>
								<path fill="#FFFFFF" d="M79.018,235.222c-0.751,0.748-1.968,0.748-2.712,0l-10.237-10.24c-0.751-0.748-0.751-1.962,0-2.712
									l2.632-2.634c0.751-0.749,1.962-0.749,2.711,0l10.238,10.24c0.751,0.75,0.749,1.961,0,2.71L79.018,235.222z"/>
							</g>
						</g>
						<g>
							<g>
								<path fill="#FFFFFF" d="M105.189,238.226c0.228,0.23,0.228,0.604,0,0.834c-0.232,0.228-0.604,0.229-0.833,0
									c-0.232-0.23-0.232-0.604,0-0.834C104.585,237.996,104.957,237.996,105.189,238.226 M105.628,237.785
									c-0.47-0.473-1.242-0.473-1.717,0c-0.469,0.474-0.469,1.244,0.003,1.716c0.472,0.473,1.244,0.473,1.714,0
									C106.1,239.029,106.1,238.259,105.628,237.785L105.628,237.785z"/>
								<path fill="#FFFFFF" d="M104.635,237.021l-0.674-1.609c-0.256,0.211-0.538,0.385-0.829,0.521l0.606,1.449
									C103.999,237.166,104.314,237.047,104.635,237.021z"/>
							</g>
							<g>
								<path fill="#FFFFFF" d="M108.868,235.129c0.23,0.23,0.23,0.604,0,0.834c-0.229,0.227-0.604,0.227-0.833,0
									c-0.23-0.231-0.23-0.604,0-0.834C108.264,234.9,108.638,234.9,108.868,235.129 M109.309,234.688
									c-0.474-0.472-1.244-0.472-1.716,0c-0.477,0.476-0.477,1.242,0,1.715c0.472,0.475,1.242,0.475,1.716,0
									C109.781,235.93,109.781,235.164,109.309,234.688L109.309,234.688z"/>
								<path fill="#FFFFFF" d="M107.248,234.452l-1.997-0.998c-0.09,0.309-0.219,0.605-0.386,0.891l1.973,0.982
									C106.881,235.009,107.015,234.702,107.248,234.452z"/>
							</g>
							<g>
								<path fill="#FFFFFF" d="M107.877,230.817c-0.03-0.154-0.042-0.31-0.03-0.461l-2.646,0.573
									c0.05,0.146,0.097,0.298,0.129,0.453c0.035,0.167,0.057,0.329,0.071,0.492l2.666-0.575
									C107.983,231.153,107.917,230.993,107.877,230.817z"/>
								<path fill="#FFFFFF" d="M109.936,229.939c0.23,0.231,0.23,0.604,0,0.836c-0.23,0.229-0.604,0.229-0.833,0
									c-0.23-0.231-0.23-0.604,0-0.836C109.333,229.711,109.706,229.711,109.936,229.939 M110.377,229.5
									c-0.475-0.472-1.242-0.472-1.716,0c-0.473,0.473-0.473,1.242,0,1.715c0.474,0.474,1.241,0.474,1.716,0
									C110.854,230.742,110.854,229.973,110.377,229.5L110.377,229.5z"/>
							</g>
							<g>
								<path fill="#FFFFFF" d="M110.242,220.577c0.228,0.231,0.228,0.604,0,0.833c-0.23,0.231-0.606,0.231-0.834,0
									c-0.232-0.229-0.232-0.602,0-0.833C109.635,220.348,110.011,220.348,110.242,220.577 M110.682,220.135
									c-0.474-0.471-1.244-0.471-1.721,0c-0.467,0.474-0.467,1.244,0,1.716c0.477,0.473,1.247,0.475,1.721,0
									C111.152,221.379,111.152,220.609,110.682,220.135L110.682,220.135z"/>
								<path fill="#FFFFFF" d="M108.201,220.871l-2.395,0.516c0.097,0.311,0.153,0.629,0.174,0.95l2.435-0.524
									C108.246,221.524,108.175,221.196,108.201,220.871z"/>
							</g>
							<g>
								<path fill="#FFFFFF" d="M108.04,216.563c0.229,0.23,0.229,0.603,0,0.834c-0.229,0.231-0.604,0.229-0.831,0
									c-0.23-0.231-0.23-0.604,0-0.834C107.436,216.334,107.811,216.334,108.04,216.563 M108.483,216.121
									c-0.472-0.473-1.242-0.473-1.716,0c-0.475,0.473-0.475,1.243,0,1.718c0.474,0.472,1.244,0.472,1.716,0
									C108.958,217.364,108.958,216.594,108.483,216.121L108.483,216.121z"/>
								<path fill="#FFFFFF" d="M106.471,218.134c-0.113-0.115-0.202-0.238-0.277-0.372l-1.714,1.714
									c0.122,0.095,0.242,0.198,0.357,0.31c0.117,0.12,0.223,0.245,0.326,0.375l1.726-1.728
									C106.739,218.356,106.598,218.257,106.471,218.134z"/>
							</g>
							<g>
								<path fill="#FFFFFF" d="M98.672,208.764c0.047,0.049,0.089,0.105,0.124,0.169c0.108,0.224,0.063,0.492-0.115,0.667
									c-0.232,0.231-0.601,0.231-0.833,0c-0.229-0.229-0.229-0.602,0-0.833c0.188-0.188,0.491-0.225,0.721-0.089
									C98.607,208.706,98.637,208.735,98.672,208.764 M99.111,208.322c-0.061-0.063-0.129-0.117-0.204-0.167
									c-0.465-0.293-1.092-0.238-1.497,0.17c-0.477,0.473-0.477,1.242,0,1.716c0.472,0.473,1.239,0.473,1.713,0
									c0.381-0.379,0.453-0.947,0.23-1.398C99.288,208.529,99.209,208.419,99.111,208.322L99.111,208.322z"/>
								<path fill="#FFFFFF" d="M96.893,210.09c0.004-0.003,0.012-0.004,0.017-0.004c-0.188-0.289-0.28-0.62-0.269-0.951
									l-2.547,0.549c0.104,0.308,0.164,0.626,0.19,0.947l2.594-0.56C96.883,210.077,96.888,210.084,96.893,210.09z"/>
							</g>
							<g>
								<path fill="#FFFFFF" d="M96.705,204.539c0.092,0.093,0.16,0.204,0.2,0.33c0.019,0.179-0.043,0.353-0.169,0.48
									c-0.232,0.23-0.604,0.23-0.836,0c-0.23-0.23-0.23-0.604,0-0.834c0.134-0.13,0.316-0.193,0.502-0.166
									C96.515,204.389,96.621,204.453,96.705,204.539 M97.149,204.099c-0.177-0.173-0.383-0.292-0.602-0.358
									c-0.38-0.073-0.791,0.038-1.087,0.331c-0.474,0.476-0.474,1.246,0.003,1.718c0.469,0.473,1.239,0.473,1.714,0
									c0.283-0.285,0.396-0.681,0.338-1.05C97.452,204.505,97.332,204.282,97.149,204.099L97.149,204.099z"/>
								<path fill="#FFFFFF" d="M95.576,206.381c-0.147-0.075-0.286-0.171-0.411-0.297c-0.126-0.126-0.228-0.274-0.305-0.429
									c-0.007,0.011-0.017,0.025-0.026,0.033c0.005,0.011,0.008,0.018,0.012,0.03l-2.082,2.082
									c0.127,0.101,0.259,0.207,0.376,0.328c0.112,0.113,0.214,0.231,0.308,0.352l2.082-2.078
									c0.005,0.001,0.012,0.002,0.021,0.003C95.557,206.397,95.569,206.39,95.576,206.381z"/>
							</g>
							<g>
								<path fill="#FFFFFF" d="M92.482,202.574c0.035,0.034,0.067,0.074,0.091,0.115c0.139,0.23,0.102,0.522-0.089,0.712
									c-0.23,0.23-0.605,0.23-0.833,0c-0.23-0.23-0.23-0.604,0-0.833c0.178-0.181,0.45-0.223,0.678-0.113
									C92.387,202.491,92.435,202.531,92.482,202.574 M92.925,202.133c-0.092-0.089-0.192-0.163-0.301-0.224
									c-0.455-0.237-1.033-0.164-1.413,0.217c-0.474,0.475-0.474,1.246,0,1.719c0.472,0.473,1.242,0.473,1.714,0
									c0.403-0.405,0.463-1.022,0.179-1.492C93.049,202.275,92.991,202.203,92.925,202.133L92.925,202.133z"/>
								<path fill="#FFFFFF" d="M92.108,204.612c-0.331,0.008-0.669-0.084-0.955-0.279c-0.002,0.006-0.005,0.009-0.007,0.014
									c0.012,0.004,0.019,0.014,0.028,0.019l-0.563,2.614c0.321,0.024,0.641,0.083,0.948,0.184L92.108,204.612z"/>
							</g>
							<g>
								<path fill="#FFFFFF" d="M83.096,194.758c-0.113-0.112-0.202-0.237-0.275-0.372l-1.718,1.721
									c0.122,0.096,0.239,0.196,0.354,0.309c0.119,0.122,0.225,0.247,0.323,0.378l1.735-1.736
									C83.364,194.984,83.222,194.882,83.096,194.758z"/>
								<path fill="#FFFFFF" d="M84.667,193.189c0.232,0.229,0.232,0.601,0,0.831c-0.23,0.231-0.605,0.231-0.834,0
									c-0.229-0.23-0.229-0.602,0-0.831C84.061,192.96,84.436,192.96,84.667,193.189 M85.108,192.746
									c-0.472-0.469-1.244-0.469-1.714,0c-0.475,0.475-0.475,1.247,0,1.717c0.47,0.473,1.242,0.473,1.714,0
									C85.58,193.992,85.58,193.22,85.108,192.746L85.108,192.746z"/>
							</g>
							<g>
								<path fill="#FFFFFF" d="M80.63,191.01c0.232,0.229,0.232,0.604,0,0.833c-0.229,0.23-0.603,0.23-0.833,0
									c-0.229-0.23-0.229-0.604,0-0.833C80.028,190.78,80.401,190.78,80.63,191.01 M81.075,190.568
									c-0.475-0.471-1.244-0.471-1.719,0c-0.472,0.474-0.472,1.244,0,1.716c0.475,0.473,1.244,0.473,1.719,0
									C81.546,191.813,81.546,191.042,81.075,190.568L81.075,190.568z"/>
								<path fill="#FFFFFF" d="M80.398,193.043c-0.323,0.039-0.657-0.022-0.948-0.177l-0.519,2.406
									c0.324,0.021,0.639,0.082,0.948,0.183L80.398,193.043z"/>
							</g>
							<g>
								<path fill="#FFFFFF" d="M75.097,193.571c0.232,0.231,0.232,0.605,0,0.833c-0.229,0.23-0.603,0.23-0.833,0
									c-0.228-0.228-0.228-0.602,0-0.832C74.497,193.341,74.868,193.341,75.097,193.571 M75.537,193.128
									c-0.475-0.473-1.242-0.473-1.714,0c-0.472,0.474-0.472,1.246,0,1.72c0.472,0.472,1.239,0.469,1.714,0
									C76.013,194.374,76.013,193.603,75.537,193.128L75.537,193.128z"/>
								<path fill="#FFFFFF" d="M73.529,195.143c-0.112-0.115-0.204-0.24-0.276-0.373l-1.909,1.91
									c0.12,0.098,0.24,0.198,0.351,0.313c0.119,0.119,0.225,0.243,0.328,0.377l1.925-1.928
									C73.797,195.366,73.654,195.266,73.529,195.143z"/>
							</g>
							<g>
								<path fill="#FFFFFF" d="M70.644,193.616c-0.324,0.034-0.657-0.023-0.951-0.181l-0.519,2.411
									c0.321,0.023,0.641,0.084,0.948,0.186L70.644,193.616z"/>
								<path fill="#FFFFFF" d="M70.875,191.58c0.229,0.229,0.229,0.604,0.002,0.835c-0.23,0.229-0.605,0.229-0.836,0
									c-0.228-0.23-0.228-0.606,0-0.835C70.273,191.352,70.646,191.352,70.875,191.58 M71.318,191.14
									c-0.475-0.473-1.244-0.473-1.719,0c-0.472,0.473-0.472,1.242,0,1.714c0.473,0.474,1.244,0.474,1.719,0
									C71.79,192.382,71.79,191.613,71.318,191.14L71.318,191.14z"/>
							</g>
							<g>
								<path fill="#FFFFFF" d="M66.087,192.348c0.228,0.231,0.228,0.604,0,0.833c-0.234,0.23-0.605,0.23-0.836,0
									c-0.228-0.228-0.228-0.601,0-0.833C65.482,192.119,65.853,192.119,66.087,192.348 M66.529,191.907
									c-0.475-0.473-1.244-0.473-1.716,0c-0.475,0.474-0.475,1.244,0,1.716c0.472,0.474,1.241,0.474,1.716,0
									C67,193.151,67,192.381,66.529,191.907L66.529,191.907z"/>
								<path fill="#FFFFFF" d="M66.783,193.956c-0.249,0.231-0.557,0.371-0.871,0.418l0.997,1.998
									c0.282-0.164,0.58-0.293,0.89-0.382L66.783,193.956z"/>
							</g>
							<g>
								<path fill="#FFFFFF" d="M63.832,197.506l1.483,0.617c0.134-0.292,0.301-0.574,0.512-0.832l-1.624-0.68
									C64.174,196.932,64.049,197.245,63.832,197.506z"/>
								<path fill="#FFFFFF" d="M62.996,196.049c0.23,0.231,0.23,0.604,0,0.836c-0.23,0.229-0.604,0.229-0.831,0
									c-0.232-0.232-0.232-0.604,0-0.836C62.392,195.82,62.765,195.82,62.996,196.049 M63.437,195.607
									c-0.472-0.473-1.242-0.473-1.716,0c-0.473,0.475-0.473,1.243,0,1.716c0.474,0.474,1.244,0.474,1.716,0
									C63.912,196.851,63.912,196.082,63.437,195.607L63.437,195.607z"/>
							</g>
						</g>
					</g>
				</g>
			</g>
			<g>
				<g>
					<g>
						<g>
							<path fill="#FFFFFF" d="M132.166,207.659c0.059-0.025,0.12-0.047,0.184-0.069c0.326-0.116,0.664-0.185,1.009-0.201v0.006
								c0.956-0.042,1.93,0.295,2.66,1.027c0.99,0.992,1.263,2.42,0.831,3.659c-0.014,0.053-0.03,0.104-0.052,0.153
								c-0.002,0.007-0.005,0.013-0.005,0.021c-0.176,0.419-0.432,0.811-0.772,1.153c-1.385,1.381-3.622,1.386-5,0.012
								c-1.376-1.379-1.369-3.617,0.012-5C131.37,208.085,131.754,207.833,132.166,207.659z"/>
							<path fill="#FFFFFF" d="M138.638,216.73l-2.702-2.704c0.131-0.099,0.258-0.207,0.375-0.327
								c0.115-0.112,0.214-0.229,0.311-0.351l2.694,2.694c-0.122,0.096-0.239,0.198-0.352,0.312
								C138.844,216.473,138.739,216.6,138.638,216.73z"/>
							<path fill="#FFFFFF" d="M145.767,203.125c0.317-0.043,0.632-0.121,0.938-0.243l1.256,5.854
								c-0.322,0.021-0.641,0.081-0.948,0.183L145.767,203.125z"/>
							<path fill="#FFFFFF" d="M158.182,198.281l-0.017,0.008c0.622,1.31,0.392,2.925-0.695,4.01
								c-0.112,0.114-0.239,0.22-0.363,0.316c-0.023,0.019-0.052,0.036-0.073,0.054c-0.052,0.038-0.105,0.075-0.155,0.109
								c-0.065,0.036-0.124,0.074-0.188,0.108c-0.042,0.027-0.089,0.047-0.131,0.07c-0.071,0.033-0.137,0.067-0.205,0.094
								c-0.03,0.013-0.059,0.023-0.087,0.033c-0.084,0.035-0.171,0.066-0.256,0.09c-0.009,0.003-0.021,0.008-0.03,0.011
								c-1.202,0.353-2.557,0.056-3.503-0.895c-1.032-1.033-1.296-2.546-0.784-3.821c0.015-0.032,0.028-0.063,0.045-0.097
								c0.028-0.063,0.057-0.127,0.087-0.189c0.033-0.061,0.068-0.121,0.104-0.181c0.017-0.03,0.035-0.062,0.054-0.093
								c0.047-0.074,0.097-0.144,0.148-0.216c0.103-0.139,0.218-0.279,0.347-0.408c0.113-0.113,0.232-0.213,0.354-0.307l0.003,0.002
								c0.313-0.237,0.65-0.415,1.009-0.534l-0.002-0.008c0.31-0.103,0.627-0.164,0.951-0.181v0.012
								c0.366-0.019,0.734,0.019,1.089,0.113l0.01-0.012c0.31,0.08,0.61,0.209,0.892,0.375l-0.009,0.014
								c0.249,0.146,0.483,0.32,0.694,0.537c0.057,0.053,0.105,0.112,0.157,0.171l0.015-0.006
								C157.865,197.716,158.045,197.992,158.182,198.281z"/>
							<path fill="#FFFFFF" d="M119.925,229.854c0.154-0.16,0.326-0.297,0.505-0.417c0.021-0.017,0.049-0.035,0.07-0.053
								c0.059-0.035,0.122-0.069,0.179-0.105c0.047-0.022,0.089-0.048,0.131-0.071c0.026-0.015,0.057-0.028,0.085-0.04
								c1.312-0.624,2.93-0.397,4.014,0.691c0.137,0.131,0.254,0.275,0.364,0.427l0.014-0.01c0.195,0.267,0.348,0.552,0.456,0.851
								l-0.017,0.011c0.46,1.253,0.19,2.715-0.817,3.721c-0.736,0.738-1.721,1.079-2.688,1.026c-0.012,0-0.026,0-0.04-0.002
								c-0.068-0.002-0.136-0.011-0.207-0.02c-0.035-0.005-0.072-0.012-0.109-0.016c-0.057-0.01-0.113-0.019-0.167-0.028
								c-0.077-0.019-0.155-0.037-0.232-0.059c-0.017-0.004-0.035-0.008-0.052-0.013c-0.105-0.03-0.211-0.067-0.313-0.108
								c-0.007-0.002-0.012-0.007-0.021-0.011c-0.421-0.17-0.817-0.427-1.155-0.77C118.542,233.477,118.542,231.234,119.925,229.854
								z"/>
							<path fill="#FFFFFF" d="M145.735,215.181c-0.951-0.95-1.247-2.299-0.896-3.5c0.164-0.548,0.46-1.063,0.892-1.491
								c0.399-0.402,0.873-0.682,1.376-0.85l-0.005-0.014c0.305-0.104,0.627-0.164,0.948-0.182l0.005,0.018
								c0.502-0.026,1.007,0.053,1.479,0.239l0.008-0.013c0.298,0.115,0.579,0.274,0.84,0.477l-0.007,0.015
								c0.124,0.095,0.244,0.196,0.359,0.31c1.291,1.29,1.373,3.333,0.246,4.723c-0.072,0.091-0.15,0.182-0.239,0.269
								C149.357,216.563,147.115,216.563,145.735,215.181z"/>
							<path fill="#FFFFFF" d="M132.806,228.108c-0.517-0.514-0.838-1.149-0.969-1.815c-0.003-0.004-0.003-0.012-0.003-0.018
								c-0.017-0.083-0.028-0.164-0.037-0.248c-0.005-0.047-0.012-0.091-0.015-0.14c-0.005-0.055-0.005-0.11-0.007-0.169
								c-0.005-0.073-0.007-0.148,0-0.222c0.01-0.341,0.068-0.682,0.176-1.007l0,0c0.169-0.501,0.448-0.976,0.848-1.374
								c1.381-1.383,3.622-1.383,5.005,0c0.768,0.767,1.108,1.802,1.021,2.808l0.01,0.001c-0.031,0.319-0.105,0.637-0.221,0.94
								h-0.005c-0.127,0.331-0.301,0.646-0.523,0.934c-0.012,0.012-0.021,0.025-0.03,0.035c-0.012,0.019-0.033,0.038-0.05,0.058
								c-0.061,0.07-0.127,0.146-0.192,0.215C136.429,229.491,134.192,229.491,132.806,228.108z"/>
							<path fill="#FFFFFF" d="M119.335,225.085c-0.41-0.412-0.697-0.902-0.863-1.423c-0.012-0.033-0.023-0.069-0.033-0.107
								c-0.017-0.053-0.028-0.106-0.04-0.16c-0.017-0.074-0.035-0.148-0.044-0.22c-0.003-0.022-0.01-0.048-0.012-0.071
								c-0.031-0.224-0.043-0.453-0.031-0.68h-0.004c0.014-0.321,0.07-0.642,0.173-0.951l0.008,0.001
								c0.122-0.358,0.298-0.697,0.532-1.007l-0.009-0.011c0.099-0.131,0.206-0.257,0.323-0.379
								c0.115-0.113,0.235-0.212,0.359-0.305l0.012,0.012c1.386-1.054,3.369-0.95,4.632,0.314c0.811,0.81,1.144,1.912,1.003,2.967
								h0.002c-0.049,0.379-0.164,0.751-0.34,1.1c-0.01,0.026-0.021,0.049-0.035,0.075c-0.16,0.301-0.367,0.587-0.625,0.843
								C122.963,226.469,120.721,226.469,119.335,225.085z"/>
							<path fill="#FFFFFF" d="M125.75,223.156l5.794,1.247c-0.099,0.31-0.159,0.629-0.179,0.951l-5.866-1.263
								C125.623,223.788,125.705,223.473,125.75,223.156z"/>
							<path fill="#FFFFFF" d="M139.242,226.015l4.873,1.045l-0.813,0.813l-4.279-0.92
								C139.133,226.647,139.207,226.333,139.242,226.015z"/>
							<path fill="#FFFFFF" d="M149.566,216.399l0.923,4.289l-0.817,0.813l-1.049-4.89
								C148.939,216.582,149.256,216.506,149.566,216.399z"/>
							<path fill="#FFFFFF" d="M144.561,221.948c0.112-0.111,0.211-0.232,0.31-0.352l2.353,2.355l-0.681,0.682l-2.359-2.358
								C144.312,222.175,144.439,222.067,144.561,221.948z"/>
							<path fill="#FFFFFF" d="M142.718,201.717c-0.684-0.685-1.028-1.575-1.038-2.471c0-0.016,0-0.029,0-0.044
								c0-0.08,0.007-0.158,0.012-0.236c0.003-0.039,0.003-0.078,0.01-0.116c0.002-0.035,0.007-0.068,0.012-0.104
								c0.082-0.587,0.308-1.158,0.686-1.652l-0.005-0.002c0.099-0.134,0.204-0.262,0.324-0.38c0.112-0.114,0.232-0.214,0.356-0.309
								l0.005,0.007c0.313-0.235,0.652-0.414,1.01-0.534l-0.005-0.009c0.31-0.107,0.629-0.167,0.95-0.183l0.005,0.015
								c0.963-0.047,1.941,0.292,2.674,1.028c1.292,1.29,1.376,3.333,0.252,4.722c-0.078,0.092-0.155,0.182-0.24,0.269
								C146.34,203.099,144.098,203.099,142.718,201.717z"/>
							<path fill="#FFFFFF" d="M144.265,221.653c-0.15,0.152-0.314,0.285-0.483,0.403c-0.038,0.024-0.073,0.047-0.104,0.072
								c-0.08,0.048-0.162,0.098-0.242,0.141c-0.014,0.007-0.023,0.016-0.035,0.02c-1.333,0.697-3.021,0.486-4.144-0.636
								c-0.681-0.684-1.025-1.572-1.035-2.466c0-0.017,0-0.033,0-0.052c0-0.075,0.007-0.151,0.01-0.228
								c0.005-0.042,0.007-0.081,0.009-0.121c0.003-0.032,0.01-0.062,0.015-0.09c0.08-0.595,0.303-1.17,0.683-1.667l-0.004-0.002
								c0.099-0.133,0.206-0.258,0.323-0.38c0.115-0.113,0.235-0.211,0.359-0.307l0.005,0.007c1.388-1.051,3.371-0.95,4.634,0.315
								c1.266,1.264,1.371,3.248,0.319,4.636l0,0C144.481,221.421,144.38,221.542,144.265,221.653z"/>
							<path fill="#FFFFFF" d="M125.667,230.089l5.981-2.985c0.12,0.294,0.282,0.576,0.475,0.84l-6.006,3
								C126.005,230.645,125.855,230.358,125.667,230.089z"/>
							<path fill="#FFFFFF" d="M149.726,209.012l2.988-5.986c0.27,0.188,0.557,0.34,0.852,0.456l-2.997,6.005
								C150.303,209.294,150.024,209.132,149.726,209.012z"/>
						</g>
						<g>
							<g>
								<path fill="#FFFFFF" d="M144.862,235.222c0.748,0.748,1.965,0.748,2.711,0l10.24-10.24c0.751-0.748,0.751-1.962,0-2.712
									l-2.634-2.634c-0.749-0.749-1.963-0.749-2.714,0l-10.238,10.24c-0.751,0.75-0.749,1.961,0,2.71L144.862,235.222z"/>
							</g>
						</g>
						<g>
							<g>
								<path fill="#FFFFFF" d="M118.688,238.226c0.229-0.23,0.604-0.23,0.833,0c0.232,0.23,0.232,0.604,0,0.834
									c-0.229,0.229-0.604,0.228-0.833,0C118.46,238.831,118.46,238.456,118.688,238.226 M118.249,237.785
									c-0.474,0.474-0.474,1.244,0,1.716c0.473,0.473,1.245,0.473,1.717,0c0.474-0.472,0.474-1.242,0-1.716
									C119.494,237.312,118.721,237.312,118.249,237.785L118.249,237.785z"/>
								<path fill="#FFFFFF" d="M119.242,237.021l0.674-1.609c0.256,0.211,0.535,0.385,0.829,0.521l-0.605,1.449
									C119.88,237.166,119.564,237.047,119.242,237.021z"/>
							</g>
							<g>
								<path fill="#FFFFFF" d="M115.011,235.129c0.229-0.229,0.604-0.229,0.834,0c0.229,0.23,0.229,0.604,0,0.834
									c-0.23,0.227-0.605,0.227-0.834,0C114.782,235.733,114.782,235.359,115.011,235.129 M114.568,234.688
									c-0.47,0.476-0.47,1.242,0,1.715c0.475,0.475,1.246,0.475,1.714,0c0.479-0.473,0.479-1.24,0.005-1.715
									C115.814,234.216,115.042,234.216,114.568,234.688L114.568,234.688z"/>
								<path fill="#FFFFFF" d="M116.634,234.452l1.995-0.998c0.089,0.309,0.216,0.605,0.383,0.891l-1.973,0.982
									C116.996,235.009,116.864,234.702,116.634,234.452z"/>
							</g>
							<g>
								<path fill="#FFFFFF" d="M116,230.817c0.033-0.154,0.045-0.31,0.033-0.461l2.644,0.573c-0.047,0.146-0.094,0.298-0.129,0.453
									c-0.033,0.167-0.055,0.329-0.07,0.492l-2.665-0.575C115.897,231.153,115.96,230.993,116,230.817z"/>
								<path fill="#FFFFFF" d="M113.939,229.939c0.232-0.228,0.604-0.228,0.836,0c0.229,0.231,0.229,0.604,0,0.836
									c-0.232,0.229-0.604,0.229-0.836,0C113.711,230.543,113.711,230.17,113.939,229.939 M113.5,229.5
									c-0.472,0.473-0.472,1.242,0,1.715c0.475,0.474,1.244,0.474,1.714,0c0.475-0.473,0.475-1.242,0-1.715
									C114.744,229.028,113.974,229.028,113.5,229.5L113.5,229.5z"/>
							</g>
							<g>
								<path fill="#FFFFFF" d="M113.638,220.577c0.232-0.229,0.604-0.229,0.833,0c0.232,0.231,0.232,0.604,0,0.833
									c-0.229,0.231-0.601,0.231-0.833,0C113.406,221.181,113.406,220.808,113.638,220.577 M113.195,220.135
									c-0.473,0.474-0.473,1.244,0,1.716c0.477,0.475,1.244,0.473,1.721,0c0.47-0.472,0.47-1.242,0-1.716
									C114.439,219.665,113.671,219.665,113.195,220.135L113.195,220.135z"/>
								<path fill="#FFFFFF" d="M115.676,220.871l2.396,0.516c-0.096,0.311-0.155,0.629-0.174,0.95l-2.437-0.524
									C115.629,221.524,115.705,221.196,115.676,220.871z"/>
							</g>
							<g>
								<path fill="#FFFFFF" d="M115.838,216.563c0.228-0.228,0.603-0.228,0.831,0c0.229,0.23,0.229,0.603,0,0.834
									c-0.229,0.229-0.604,0.231-0.831,0C115.608,217.166,115.608,216.792,115.838,216.563 M115.394,216.121
									c-0.472,0.473-0.472,1.243,0,1.718c0.472,0.472,1.244,0.472,1.719,0c0.472-0.475,0.472-1.246,0-1.718
									C116.638,215.648,115.866,215.648,115.394,216.121L115.394,216.121z"/>
								<path fill="#FFFFFF" d="M117.406,218.134c0.113-0.115,0.205-0.238,0.277-0.372l1.711,1.714
									c-0.117,0.095-0.239,0.198-0.352,0.31c-0.12,0.12-0.223,0.245-0.326,0.375l-1.729-1.728
									C117.138,218.356,117.28,218.257,117.406,218.134z"/>
							</g>
							<g>
								<path fill="#FFFFFF" d="M125.208,208.764c0.03-0.028,0.065-0.058,0.103-0.087c0.23-0.135,0.531-0.099,0.719,0.089
									c0.23,0.231,0.23,0.604,0,0.833c-0.23,0.231-0.604,0.231-0.833,0c-0.177-0.175-0.224-0.442-0.115-0.667
									C125.118,208.869,125.161,208.813,125.208,208.764 M124.766,208.322c-0.097,0.097-0.177,0.207-0.239,0.321
									c-0.226,0.451-0.15,1.019,0.228,1.398c0.474,0.473,1.244,0.473,1.716,0c0.475-0.475,0.475-1.243,0-1.716
									c-0.406-0.409-1.035-0.463-1.5-0.17C124.897,208.205,124.83,208.26,124.766,208.322L124.766,208.322z"/>
								<path fill="#FFFFFF" d="M126.984,210.09c-0.004-0.003-0.009-0.004-0.014-0.004c0.19-0.289,0.279-0.62,0.271-0.951
									l2.542,0.549c-0.101,0.308-0.164,0.626-0.188,0.947l-2.6-0.56C126.994,210.077,126.989,210.084,126.984,210.09z"/>
							</g>
							<g>
								<path fill="#FFFFFF" d="M127.172,204.539c0.084-0.086,0.188-0.15,0.305-0.19c0.184-0.027,0.369,0.036,0.498,0.166
									c0.232,0.23,0.232,0.604,0,0.834c-0.23,0.23-0.604,0.23-0.831,0c-0.127-0.127-0.188-0.301-0.169-0.48
									C127.015,204.743,127.081,204.632,127.172,204.539 M126.731,204.099c-0.184,0.184-0.306,0.406-0.369,0.641
									c-0.059,0.37,0.057,0.765,0.339,1.05c0.474,0.473,1.246,0.473,1.716,0c0.474-0.473,0.474-1.243,0-1.718
									c-0.294-0.293-0.704-0.404-1.087-0.331C127.114,203.807,126.905,203.925,126.731,204.099L126.731,204.099z"/>
								<path fill="#FFFFFF" d="M128.301,206.381c0.148-0.075,0.289-0.171,0.411-0.297c0.129-0.126,0.228-0.274,0.305-0.429
									c0.01,0.011,0.017,0.025,0.026,0.033c-0.005,0.011-0.005,0.018-0.012,0.03l2.082,2.082
									c-0.127,0.101-0.254,0.207-0.376,0.328c-0.11,0.113-0.213,0.231-0.307,0.352l-2.08-2.078
									c-0.008,0.001-0.015,0.002-0.023,0.003C128.32,206.397,128.311,206.39,128.301,206.381z"/>
							</g>
							<g>
								<path fill="#FFFFFF" d="M131.396,202.574c0.047-0.043,0.094-0.083,0.154-0.119c0.228-0.11,0.498-0.068,0.676,0.113
									c0.23,0.229,0.23,0.603,0,0.833c-0.229,0.23-0.603,0.23-0.833,0c-0.19-0.19-0.228-0.482-0.089-0.712
									C131.33,202.648,131.363,202.608,131.396,202.574 M130.957,202.133c-0.07,0.07-0.129,0.142-0.181,0.219
									c-0.284,0.47-0.228,1.087,0.179,1.492c0.469,0.473,1.241,0.473,1.713,0c0.473-0.473,0.473-1.244,0-1.719
									c-0.382-0.38-0.96-0.454-1.415-0.217C131.147,201.97,131.048,202.043,130.957,202.133L130.957,202.133z"/>
								<path fill="#FFFFFF" d="M131.769,204.612c0.333,0.008,0.671-0.084,0.955-0.279c0.003,0.006,0.005,0.009,0.007,0.014
									c-0.012,0.004-0.016,0.014-0.025,0.019l0.563,2.614c-0.321,0.024-0.641,0.083-0.951,0.184L131.769,204.612z"/>
							</g>
							<g>
								<path fill="#FFFFFF" d="M140.781,194.758c0.111-0.112,0.202-0.237,0.277-0.372l1.717,1.721
									c-0.123,0.096-0.24,0.196-0.353,0.309c-0.12,0.122-0.228,0.247-0.326,0.378l-1.735-1.736
									C140.513,194.984,140.655,194.882,140.781,194.758z"/>
								<path fill="#FFFFFF" d="M139.21,193.189c0.23-0.229,0.604-0.229,0.834,0c0.228,0.229,0.228,0.601,0,0.831
									c-0.23,0.231-0.604,0.231-0.834,0C138.981,193.791,138.981,193.418,139.21,193.189 M138.769,192.746
									c-0.474,0.475-0.474,1.247,0,1.717c0.475,0.473,1.244,0.473,1.719,0c0.472-0.471,0.472-1.243-0.002-1.717
									C140.013,192.276,139.244,192.276,138.769,192.746L138.769,192.746z"/>
							</g>
							<g>
								<path fill="#FFFFFF" d="M143.247,191.01c0.229-0.23,0.603-0.23,0.833,0c0.23,0.229,0.23,0.604,0,0.833s-0.604,0.23-0.833,0
									C143.016,191.613,143.016,191.239,143.247,191.01 M142.805,190.568c-0.475,0.474-0.475,1.244,0,1.716
									c0.474,0.473,1.244,0.473,1.718,0c0.47-0.472,0.47-1.242,0-1.716C144.049,190.098,143.279,190.098,142.805,190.568
									L142.805,190.568z"/>
								<path fill="#FFFFFF" d="M143.479,193.043c0.321,0.039,0.654-0.022,0.953-0.177l0.514,2.406
									c-0.321,0.021-0.639,0.082-0.948,0.183L143.479,193.043z"/>
							</g>
							<g>
								<path fill="#FFFFFF" d="M148.782,193.571c0.228-0.23,0.602-0.23,0.831,0.001c0.23,0.23,0.23,0.604,0,0.832
									c-0.228,0.23-0.604,0.23-0.831,0C148.552,194.176,148.552,193.802,148.782,193.571 M148.34,193.128
									c-0.474,0.474-0.474,1.246,0,1.72c0.475,0.469,1.24,0.472,1.714,0c0.475-0.474,0.475-1.246,0-1.72
									C149.581,192.655,148.815,192.655,148.34,193.128L148.34,193.128z"/>
								<path fill="#FFFFFF" d="M150.35,195.143c0.11-0.115,0.202-0.24,0.277-0.373l1.908,1.91
									c-0.122,0.098-0.239,0.198-0.353,0.313c-0.117,0.119-0.225,0.243-0.326,0.377l-1.925-1.928
									C150.083,195.366,150.223,195.266,150.35,195.143z"/>
							</g>
							<g>
								<path fill="#FFFFFF" d="M153.236,193.616c0.323,0.034,0.654-0.023,0.948-0.181l0.523,2.411
									c-0.324,0.023-0.644,0.084-0.953,0.186L153.236,193.616z"/>
								<path fill="#FFFFFF" d="M153.005,191.58c0.228-0.229,0.601-0.229,0.833,0c0.228,0.229,0.228,0.604,0,0.835
									c-0.229,0.229-0.605,0.229-0.835,0C152.773,192.185,152.775,191.809,153.005,191.58 M152.562,191.14
									c-0.473,0.473-0.473,1.242,0,1.714c0.474,0.474,1.241,0.474,1.716,0c0.472-0.472,0.472-1.241,0-1.714
									C153.803,190.667,153.036,190.667,152.562,191.14L152.562,191.14z"/>
							</g>
							<g>
								<path fill="#FFFFFF" d="M157.79,192.348c0.232-0.229,0.605-0.229,0.836,0c0.23,0.231,0.23,0.604,0,0.833
									c-0.23,0.23-0.604,0.23-0.836,0C157.562,192.952,157.562,192.579,157.79,192.348 M157.351,191.907
									c-0.473,0.474-0.473,1.244,0,1.716c0.472,0.474,1.244,0.474,1.716,0c0.474-0.472,0.474-1.242,0-1.716
									C158.595,191.434,157.823,191.434,157.351,191.907L157.351,191.907z"/>
								<path fill="#FFFFFF" d="M157.095,193.956c0.253,0.231,0.556,0.371,0.87,0.418l-0.995,1.998
									c-0.284-0.164-0.582-0.293-0.89-0.382L157.095,193.956z"/>
							</g>
							<g>
								<path fill="#FFFFFF" d="M160.045,197.506l-1.481,0.617c-0.136-0.292-0.303-0.574-0.512-0.832l1.623-0.68
									C159.706,196.932,159.828,197.245,160.045,197.506z"/>
								<path fill="#FFFFFF" d="M160.881,196.049c0.23-0.229,0.604-0.229,0.834,0c0.229,0.231,0.229,0.604,0,0.836
									c-0.23,0.229-0.604,0.229-0.834,0C160.652,196.652,160.652,196.28,160.881,196.049 M160.44,195.607
									c-0.472,0.475-0.472,1.243,0,1.716c0.475,0.474,1.242,0.474,1.716,0c0.475-0.473,0.475-1.242,0-1.716
									C161.682,195.135,160.915,195.135,160.44,195.607L160.44,195.607z"/>
							</g>
						</g>
					</g>
				</g>
			</g>
		</g>
	</g>
	<g>
		<g>
			<path fill="#FFFFFF" d="M194.272,28.635h-7.304l1.234,1.237h-51.795l2.853-4.943c0.537,0.322,1.162,0.507,1.831,0.512
				c1.986-0.004,3.597-1.615,3.597-3.599c0-1.989-1.61-3.597-3.597-3.597c-1.956,0-3.545,1.561-3.59,3.512h-6.097h-9.682
				l-4.843-8.388l-3.045-5.272c1.075-0.625,1.798-1.785,1.798-3.118c0-1.984-1.61-3.596-3.599-3.596
				c-1.983,0-3.592,1.612-3.592,3.596c0,1.333,0.721,2.493,1.796,3.118l-3.045,5.272l-4.843,8.388h-9.684H86.58
				c-0.01-1.981-1.615-3.585-3.597-3.585c-1.988,0-3.599,1.61-3.599,3.594c0,1.988,1.61,3.597,3.599,3.597
				c0.655,0,1.272-0.176,1.801-0.484l2.883,4.992H35.671l1.237-1.237h-7.303v7.3l1.232-1.234v7.686l-1.232-1.237v7.304l7.303-0.004
				l-1.261-1.262h52.019l-2.85,4.943c-0.535-0.321-1.165-0.508-1.834-0.508c-1.988,0-3.599,1.611-3.599,3.6
				c0,1.989,1.61,3.597,3.599,3.597c1.958,0,3.548-1.566,3.59-3.516h6.095l9.684,0.004l4.843,8.388l3.045,5.273
				c-1.075,0.621-1.796,1.781-1.796,3.112c0,1.986,1.608,3.598,3.592,3.598c1.988,0,3.599-1.612,3.599-3.598
				c0-1.331-0.723-2.491-1.798-3.112l3.043-5.273l4.845-8.392l9.682,0.004l6.092-0.004c0.005,1.981,1.61,3.588,3.595,3.588
				c1.986,0,3.597-1.61,3.597-3.599c0-1.989-1.61-3.597-3.597-3.597c-0.657,0-1.272,0.181-1.803,0.487l-2.881-4.996h51.821
				l-1.261,1.267l7.304-0.004v-7.3l-1.237,1.237v-7.686l1.237,1.234V28.635z M191.177,34.701v7.686v2.948h-2.948h-51.821h-3.214
				l1.605,2.782l2.883,4.995l0.195,0.339h-0.381h-6.092h-9.682h-1.07l-0.535,0.925l-4.841,8.393l-3.05,5.273l-0.192,0.331
				l-0.188-0.331l-3.047-5.273l-4.841-8.393l-0.538-0.925h-1.07h-9.684h-6.095h-0.378l0.228-0.393l2.85-4.94l1.606-2.782h-3.212
				H35.648h-2.953l0.003-2.948v-7.686l-0.003-2.976h2.977h51.995h3.214l-1.608-2.779l-2.88-4.994l-0.197-0.341h0.385h6.088h9.684
				h1.07l0.538-0.928l4.841-8.385l3.047-5.278l0.19-0.332l0.189,0.332l3.05,5.278l4.841,8.385l0.535,0.928h1.07h9.682h6.095h0.378
				l-0.228,0.396l-2.851,4.939l-1.605,2.779h3.214h51.795h2.975V34.701z"/>
			<path fill="#FFFFFF" d="M144.103,37.233c0,1.826-1.467,3.296-3.364,3.296h-1.441v3.023h-2.202v-9.62h3.644
				C142.636,33.933,144.103,35.404,144.103,37.233z M141.908,37.233c0-0.702-0.495-1.237-1.169-1.24h-1.441v2.473h1.441
				C141.413,38.467,141.908,37.932,141.908,37.233z M145.683,38.743c0-2.831,2.242-5.003,5.005-5.003
				c2.761,0,5.001,2.172,5.001,5.003c0,2.83-2.24,5.003-5.001,5.003C147.925,43.746,145.683,41.573,145.683,38.743z M153.494,38.743
				c0-1.718-1.237-2.859-2.806-2.859c-1.565,0-2.803,1.141-2.803,2.859c0,1.716,1.237,2.858,2.803,2.858
				C152.256,41.601,153.489,40.459,153.494,38.743z M163.52,41.439v2.114h-5.632v-9.62h2.2v7.506H163.52z M167.643,33.933v9.62h-2.2
				v-9.62H167.643z M169.842,38.743c0-2.831,2.102-5.003,5-5.003c1.747,0,3.285,0.868,4.125,2.228l-1.896,1.099
				c-0.425-0.743-1.254-1.183-2.229-1.183c-1.701,0-2.803,1.141-2.803,2.859c-0.002,1.716,1.102,2.858,2.803,2.858
				c0.975,0,1.817-0.44,2.229-1.181l1.896,1.1c-0.826,1.361-2.364,2.226-4.125,2.226C171.944,43.746,169.842,41.573,169.842,38.743z
				 M187.001,41.436v2.117h-6.046v-9.62h5.982v2.117h-3.782v1.597l3.439-0.005v2.092h-3.439v1.706L187.001,41.436z M37.211,38.595
				c0-2.831,2.102-5.003,4.998-5.003c1.749,0,3.292,0.866,4.123,2.228l-1.89,1.096c-0.428-0.74-1.252-1.178-2.233-1.181
				c-1.701,0-2.8,1.141-2.8,2.859s1.099,2.858,2.8,2.858c0.981,0,1.819-0.441,2.233-1.181l1.896,1.1
				c-0.831,1.361-2.369,2.223-4.13,2.223C39.313,43.595,37.211,41.425,37.211,38.595z M50.61,40.244h-1.047v3.161h-2.195v-9.621
				h3.846c1.828,0,3.296,1.469,3.296,3.297c0,1.185-0.712,2.256-1.771,2.792l2.045,3.531h-2.361L50.61,40.244z M49.563,38.318h1.65
				c0.603,0,1.099-0.531,1.099-1.236c0-0.698-0.496-1.233-1.099-1.233h-1.65V38.318z M60.143,39.708v3.698h-2.197v-3.698
				l-3.228-5.923h2.497l1.829,3.714l1.829-3.714h2.5L60.143,39.708z M71.203,37.082c0,1.83-1.467,3.3-3.364,3.3h-1.446l0.003,3.024
				H64.2v-9.621h3.639C69.736,33.785,71.203,35.254,71.203,37.082z M69.007,37.082c0-0.698-0.495-1.233-1.169-1.233h-1.443v2.47
				h1.443C68.512,38.318,69.007,37.782,69.007,37.082z M78.626,35.901h-2.475v7.504H73.95v-7.504h-2.473v-2.116h7.149V35.901z
				 M78.624,38.595c0-2.831,2.239-5.003,5.003-5.003c2.761,0,5.003,2.172,5.003,5.005c0,2.831-2.242,4.998-5.003,4.998
				C80.863,43.595,78.624,41.425,78.624,38.595z M86.434,38.597c0-1.721-1.242-2.862-2.808-2.859c-1.566,0-2.803,1.139-2.803,2.857
				s1.236,2.858,2.803,2.858C85.192,41.453,86.434,40.313,86.434,38.597z"/>
			<polygon fill="#FFFFFF" points="94.526,38.597 90.958,32.408 93.303,38.597 90.958,44.785 			"/>
			<polygon fill="#FFFFFF" points="129.435,38.534 133.01,44.721 130.666,38.534 133.01,32.343 			"/>
			<path fill="#FFFFFF" d="M111.749,15.99l0.305-0.526l0.306,0.526l4.841,8.39l1.27,2.196c-1.915-1.011-4.099-1.586-6.416-1.586
				c-2.316,0-4.505,0.575-6.418,1.586l1.272-2.196L111.749,15.99z M92.073,27l0.306,0.524l4.843,8.391l1.113,1.924
				c0.296-4.597,2.848-8.574,6.559-10.839h-2.523h-9.687H92.073z M102.37,50.07h1.881c-3.463-2.391-5.771-6.322-5.939-10.806
				l-1.09,1.889l-4.843,8.388l-0.306,0.529h0.61H102.37z M117.2,52.69l0.927-1.606c-1.833,0.901-3.892,1.413-6.073,1.413
				c-2.179,0-4.242-0.512-6.075-1.413l0.93,1.606l4.841,8.385l0.305,0.528l0.306-0.528L117.2,52.69z M132.034,50.07l-0.305-0.529
				l-4.843-8.388l-1.09-1.889c-0.167,4.482-2.481,8.415-5.941,10.806h1.885h9.684H132.034z M132.034,27h-0.61h-9.684h-2.523
				c3.707,2.265,6.261,6.247,6.559,10.839l1.111-1.924l4.843-8.391L132.034,27z"/>
		</g>
		<g>
			<path fill="#FFFFFF" d="M115.556,36.288c0-0.6-0.401-1.034-1.017-1.034h-5.023v2.071h5.023
				C115.138,37.325,115.556,36.892,115.556,36.288z"/>
			<path fill="#FFFFFF" d="M114.875,39.693h-5.359v2.24h5.359c0.664,0,1.099-0.47,1.099-1.118
				C115.974,40.163,115.54,39.693,114.875,39.693z"/>
			<path fill="#FFFFFF" d="M112.053,27.461c-6.221,0-11.282,5.063-11.282,11.282c0,6.221,5.062,11.285,11.282,11.285
				c6.222,0,11.283-5.063,11.283-11.285C123.336,32.524,118.275,27.461,112.053,27.461z M114.875,44.436h-0.408v2.171h-1.97v-2.171
				h-0.996v2.171h-1.972v-2.168h-3.939v-2.492h1.254v-6.699h-1.254v-2.492v-0.008h3.939V30.58h1.972v2.168h0.996V30.58h1.97v2.168
				h0.072c2.035,0,3.688,1.319,3.688,3.339c0,0.97-0.383,1.737-1.017,2.288c0.866,0.553,1.435,1.452,1.435,2.64
				C118.646,43.084,116.958,44.436,114.875,44.436z"/>
		</g>
	</g>
	
		<circle fill="none" stroke="#FFFFFF" stroke-width="2" stroke-linecap="round" stroke-linejoin="round" stroke-miterlimit="10" cx="111.744" cy="204.76" r="58.697"/>
	
		<line fill="none" stroke="#FFFFFF" stroke-width="2" stroke-linecap="round" stroke-linejoin="round" stroke-miterlimit="10" x1="53.047" y1="50.027" x2="53.047" y2="203.427"/>
	
		<line fill="none" stroke="#FFFFFF" stroke-width="2" stroke-linecap="round" stroke-linejoin="round" stroke-miterlimit="10" x1="170.441" y1="49.968" x2="170.441" y2="203.368"/>
</g>
</svg>
