<?xml version="1.0" encoding="utf-8"?>
<!-- Generator: Adobe Illustrator 16.0.0, SVG Export Plug-In . SVG Version: 6.00 Build 0)  -->
<!DOCTYPE svg PUBLIC "-//W3C//DTD SVG 1.1//EN" "http://www.w3.org/Graphics/SVG/1.1/DTD/svg11.dtd">
<svg version="1.1" id="Layer_1" xmlns="http://www.w3.org/2000/svg" xmlns:xlink="http://www.w3.org/1999/xlink" x="0px" y="0px"
	 width="98.253px" height="112.681px" viewBox="10.042 -127.47 98.253 112.681"
	 enable-background="new 10.042 -127.47 98.253 112.681" xml:space="preserve">
<g>
	<g>
		<g>
			<g>
				<path fill="#FFFFFF" d="M107.898-106.966c-0.398,15.548-2.707,30.739-8.525,45.277C91.281-41.47,77.559-26.133,58.98-15.014
					C40.404-26.133,26.686-41.47,18.584-61.689c-5.817-14.538-8.121-29.729-8.519-45.277c-0.103-4.003-0.067-4.008,3.976-4.268
					c12.191-0.792,23.687-4.027,34.481-9.754c3.632-1.926,7.103-4.111,10.457-6.482c3.359,2.371,6.822,4.557,10.461,6.482
					c10.788,5.727,22.292,8.963,34.477,9.754C107.959-110.973,107.998-110.969,107.898-106.966z"/>
				<g>
					<path fill="#5252AA" d="M26.593-89.451h3.166l2.28,9.233l2.544-9.233h2.45l2.544,9.233l2.28-9.233h3.166l-3.637,13.19h-3.431
						l-2.147-7.782l-2.148,7.782h-3.43L26.593-89.451z"/>
					<path fill="#5252AA" d="M53.319-78.332h-4.899l-0.66,2.071h-3.298l4.485-13.19h3.844l4.485,13.19h-3.298L53.319-78.332z
						 M52.415-81.159l-1.545-4.844l-1.545,4.844H52.415z"/>
					<path fill="#5252AA" d="M66.325-86.55h-3.392v10.289h-3.016V-86.55h-3.392v-2.901h9.799V-86.55L66.325-86.55z"/>
					<path fill="#5252AA" d="M66.327-82.856c0-3.882,2.883-6.859,6.858-6.859c2.394,0,4.504,1.188,5.655,3.054l-2.602,1.508
						c-0.584-1.019-1.715-1.62-3.053-1.62c-2.338,0-3.844,1.563-3.844,3.919s1.506,3.92,3.844,3.92c1.338,0,2.486-0.603,3.053-1.62
						l2.602,1.507c-1.133,1.866-3.243,3.054-5.655,3.054C69.21-75.996,66.327-78.974,66.327-82.856z"/>
					<path fill="#5252AA" d="M90.434-89.451v13.19h-3.016v-5.237h-4.146v5.237h-3.014v-13.19h3.014v5.051h4.146v-5.051H90.434z"/>
					<path fill="#5252AA" d="M50.302-65.577c0,3.73-2.771,6.596-6.406,6.596H38.62v-13.192h5.276
						C47.532-72.174,50.302-69.308,50.302-65.577z M47.4-65.577c0-2.262-1.432-3.693-3.506-3.693h-2.26v7.388h2.26
						C45.968-61.884,47.4-63.316,47.4-65.577z"/>
					<path fill="#5252AA" d="M51.435-65.577c0-3.883,3.072-6.859,6.859-6.859s6.859,2.978,6.859,6.859
						c0,3.881-3.072,6.858-6.859,6.858S51.435-61.696,51.435-65.577z M62.14-65.577c0-2.355-1.696-3.919-3.844-3.919
						c-2.148,0-3.846,1.563-3.846,3.919c0,2.354,1.695,3.92,3.844,3.92S62.14-63.222,62.14-65.577z"/>
					<path fill="#5252AA" d="M79.914-65.2c0,4.032-2.809,6.481-6.501,6.481c-4.146,0-7.123-3.053-7.123-6.84
						c0-3.826,3.034-6.879,6.916-6.879c2.524,0,4.654,1.244,5.767,3.016l-2.564,1.471c-0.546-0.867-1.733-1.545-3.223-1.545
						c-2.224,0-3.881,1.639-3.881,3.957c0,2.241,1.582,3.882,4.146,3.882c1.753,0,2.902-0.772,3.375-2.035H73.3v-2.639h6.614V-65.2
						L79.914-65.2z"/>
				</g>
			</g>
			<path opacity="0.3" fill="#FFFFFF" enable-background="new    " d="M59.353-127.245c3.361,2.37,6.822,4.557,10.461,6.482
				c10.79,5.727,22.292,8.963,34.479,9.754c4.039,0.262,4.08,0.267,3.979,4.268c-0.398,15.549-2.707,30.737-8.525,45.276
				c-8.092,20.221-21.814,35.558-40.393,46.676C40.779-25.907,27.061-41.244,18.959-61.465c-5.817-14.539-8.123-29.728-8.52-45.276
				c-0.103-4.001-0.067-4.006,3.975-4.268c12.191-0.791,23.688-4.027,34.481-9.754C52.529-122.689,56-124.875,59.353-127.245"/>
		</g>
	</g>
</g>
</svg>
