<?xml version="1.0" encoding="utf-8"?>
<!-- Generator: Adobe Illustrator 16.0.0, SVG Export Plug-In . SVG Version: 6.00 Build 0)  -->
<!DOCTYPE svg PUBLIC "-//W3C//DTD SVG 1.1//EN" "http://www.w3.org/Graphics/SVG/1.1/DTD/svg11.dtd">
<svg version="1.1" id="Layer_1" xmlns="http://www.w3.org/2000/svg" xmlns:xlink="http://www.w3.org/1999/xlink" x="0px" y="0px"
	 width="178.507px" height="108.702px" viewBox="-398.374 9.859 178.507 108.702"
	 enable-background="new -398.374 9.859 178.507 108.702" xml:space="preserve">
<g>
	<g>
		<g>
			<g>
				<g>
					
						<linearGradient id="SVGID_1_" gradientUnits="userSpaceOnUse" x1="3446.6299" y1="3359.8367" x2="3534.9092" y2="3359.8367" gradientTransform="matrix(0 1 -1 0 3030.1667 -3436.218)">
						<stop  offset="0" style="stop-color:#706DCB;stop-opacity:0"/>
						<stop  offset="1" style="stop-color:#706DCB;stop-opacity:0.7"/>
					</linearGradient>
					<path fill="url(#SVGID_1_)" d="M-368.151,98.691h-0.012c-4.896,0-9.439-1.074-13.514-3.202
						c-5.551-2.899-9.78-7.193-12.577-12.772c-1.708-3.414-2.692-7.065-2.924-10.847l-0.073-0.742l0.018-2.682
						c0.136-1.621,0.375-3.753,0.971-5.904c1.158-4.186,3.205-7.958,6.081-11.227c2.473-2.805,5.465-5.102,8.895-6.818
						c0.227-0.109,0.448-0.216,0.669-0.315c0.547-3.147,1.77-6.083,3.638-8.746c2.958-4.218,6.933-7.07,11.831-8.478
						c3.072-0.885,6.174-1.072,9.181-0.565c1.697,0.29,3.362,0.809,5.042,1.568c4.405-6.927,10.411-11.937,17.899-14.934
						c7.56-3.029,15.588-3.43,23.594-1.186c8.414,2.352,15.277,7.161,20.408,14.299c4.385,6.095,6.735,12.88,7.019,20.215
						c4.954,1.297,9.245,3.84,12.78,7.585c4.205,4.447,6.581,9.787,7.056,15.86c0.37,4.755-0.49,9.34-2.56,13.628
						c-2.087,4.345-5.179,7.927-9.182,10.647c-3.454,2.347-7.238,3.801-11.264,4.325c-1.357,0.183-2.785,0.271-4.245,0.271
						c-16.403,0.012-32.801,0.016-49.207,0.016L-368.151,98.691z"/>
				</g>
			</g>
		</g>
		<g>
			<g>
				<g>
					
						<path fill="none" stroke="#FFFFFF" stroke-width="2" stroke-linecap="round" stroke-linejoin="round" stroke-miterlimit="10" d="
						M-368.272,99.139h-0.012c-4.897,0-9.44-1.074-13.515-3.202c-5.55-2.899-9.779-7.192-12.576-12.773
						c-1.707-3.415-2.694-7.065-2.925-10.846l-0.073-0.741l0.017-2.683c0.136-1.622,0.375-3.755,0.97-5.907
						c1.16-4.184,3.207-7.957,6.081-11.224c2.476-2.807,5.467-5.101,8.894-6.818c0.23-0.11,0.451-0.216,0.671-0.317
						c0.547-3.146,1.77-6.082,3.639-8.746c2.958-4.216,6.933-7.067,11.83-8.479c3.073-0.883,6.174-1.072,9.183-0.564
						c1.697,0.292,3.359,0.81,5.039,1.569c4.405-6.925,10.409-11.937,17.9-14.935c7.56-3.027,15.588-3.431,23.595-1.187
						c8.41,2.354,15.277,7.164,20.408,14.299c4.385,6.097,6.733,12.882,7.018,20.218c4.954,1.297,9.245,3.839,12.78,7.584
						c4.206,4.448,6.581,9.787,7.057,15.858c0.369,4.758-0.491,9.343-2.561,13.63c-2.089,4.345-5.179,7.927-9.182,10.647
						c-3.452,2.346-7.236,3.8-11.264,4.326c-1.357,0.182-2.787,0.271-4.247,0.271c-16.4,0.011-32.798,0.015-49.206,0.015
						L-368.272,99.139z"/>
				</g>
			</g>
		</g>
		<g>
			<path fill="#FFFFFF" d="M-358.171,62.038v10.094h-2.307V62.038H-358.171z"/>
			<path fill="#FFFFFF" d="M-348.509,62.038v10.094h-1.73l-3.893-5.479v5.479h-2.307V62.038h1.73l3.893,5.479v-5.479H-348.509z"/>
			<path fill="#FFFFFF" d="M-339.998,64.259h-2.596v7.873h-2.307v-7.873h-2.596v-2.221h7.499V64.259z"/>
			<path fill="#FFFFFF" d="M-332.642,69.911v2.221h-6.345V62.038h6.272v2.221h-3.965v1.673h3.605v2.191h-3.605v1.788H-332.642z"/>
			<path fill="#FFFFFF" d="M-327.939,68.815h-1.096v3.316h-2.307V62.038h4.038c1.917,0,3.46,1.543,3.46,3.461
				c0,1.239-0.75,2.364-1.86,2.927l2.148,3.706h-2.48L-327.939,68.815z M-329.035,66.796h1.73c0.634,0,1.153-0.562,1.153-1.297
				s-0.519-1.298-1.153-1.298h-1.73V66.796z"/>
			<path fill="#FFFFFF" d="M-314.541,62.038v10.094h-1.73l-3.893-5.479v5.479h-2.307V62.038h1.73l3.893,5.479v-5.479H-314.541z"/>
			<path fill="#FFFFFF" d="M-306.463,69.911v2.221h-6.345V62.038h6.272v2.221h-3.965v1.673h3.605v2.191h-3.605v1.788H-306.463z"/>
			<path fill="#FFFFFF" d="M-298.386,64.259h-2.596v7.873h-2.307v-7.873h-2.596v-2.221h7.499V64.259z"/>
		</g>
	</g>
	<g>
		
			<line fill-rule="evenodd" clip-rule="evenodd" fill="none" stroke="#FFFFFF" stroke-width="2" stroke-linecap="round" stroke-miterlimit="10" x1="-221.249" y1="114.969" x2="-261.397" y2="96.258"/>
		
			<polyline fill-rule="evenodd" clip-rule="evenodd" fill="none" stroke="#FFFFFF" stroke-width="2" stroke-linecap="round" stroke-miterlimit="10" points="
			-225.409,105.311 -221.249,114.969 -231.44,117.56 		"/>
		
			<polyline fill-rule="evenodd" clip-rule="evenodd" fill="none" stroke="#FFFFFF" stroke-width="2" stroke-linecap="round" stroke-miterlimit="10" points="
			-257.238,105.852 -261.4,96.194 -251.207,93.602 		"/>
	</g>
</g>
</svg>
