<?xml version="1.0" encoding="utf-8"?>
<!-- Generator: Adobe Illustrator 16.0.0, SVG Export Plug-In . SVG Version: 6.00 Build 0)  -->
<!DOCTYPE svg PUBLIC "-//W3C//DTD SVG 1.1//EN" "http://www.w3.org/Graphics/SVG/1.1/DTD/svg11.dtd">
<svg version="1.1" id="Layer_1" xmlns="http://www.w3.org/2000/svg" xmlns:xlink="http://www.w3.org/1999/xlink" x="0px" y="0px"
	 width="173.613px" height="101.955px" viewBox="140.939 94.169 173.613 101.955"
	 enable-background="new 140.939 94.169 173.613 101.955" xml:space="preserve">
<g>
	<g>
		
			<linearGradient id="SVGID_1_" gradientUnits="userSpaceOnUse" x1="5606.7549" y1="69.3435" x2="5606.7549" y2="113.7556" gradientTransform="matrix(-1 0 0 -1 5814.3438 239.8687)">
			<stop  offset="0.0914" style="stop-color:#706DCB;stop-opacity:0"/>
			<stop  offset="1" style="stop-color:#706DCB;stop-opacity:0.7"/>
		</linearGradient>
		<rect x="164.117" y="126.114" fill="url(#SVGID_1_)" width="86.943" height="44.412"/>
		<g>
			<path fill="#FFFFFF" d="M192.828,147.985v-5.75h1.941v5.58c0,0.643,0.303,1.189,1.334,1.189s1.334-0.547,1.334-1.189v-5.58h1.941
				v5.75c0,1.82-1.406,2.912-3.275,2.912C194.236,150.897,192.828,149.805,192.828,147.985z"/>
			<path fill="#FFFFFF" d="M200.348,148.798l1.676-0.971c0.303,0.705,0.824,1.178,1.783,1.178c0.922,0,1.152-0.363,1.152-0.691
				c0-0.521-0.486-0.729-1.76-1.08c-1.262-0.352-2.498-0.959-2.498-2.584c0-1.637,1.383-2.584,2.85-2.584
				c1.395,0,2.486,0.668,3.105,1.918l-1.637,0.957c-0.291-0.605-0.691-0.982-1.469-0.982c-0.605,0-0.91,0.303-0.91,0.643
				c0,0.389,0.207,0.656,1.529,1.057c1.285,0.387,2.729,0.836,2.729,2.631c0,1.639-1.309,2.609-3.154,2.609
				C201.961,150.897,200.822,150.048,200.348,148.798z"/>
			<path fill="#FFFFFF" d="M213.145,148.858v1.869h-5.336v-8.492h5.275v1.869h-3.336v1.406h3.033v1.844h-3.033v1.504H213.145z"/>
			<path fill="#FFFFFF" d="M217.1,147.936h-0.922v2.791h-1.941v-8.492h3.396c1.613,0,2.91,1.299,2.91,2.912
				c0,1.043-0.631,1.988-1.564,2.463l1.809,3.117h-2.088L217.1,147.936z M216.178,146.239h1.455c0.533,0,0.971-0.473,0.971-1.092
				s-0.438-1.092-0.971-1.092h-1.455V146.239z"/>
		</g>
		<g>
			<polygon fill-rule="evenodd" clip-rule="evenodd" fill="#FFFFFF" points="256.303,178.384 156.824,178.384 140.939,190.302 
				140.939,196.124 272.188,196.124 272.188,190.302 			"/>
			<path fill-rule="evenodd" clip-rule="evenodd" fill="#FFFFFF" d="M256.303,119.028h-99.479v56.182h99.479V119.028z
				 M248.213,167.928h-83.297v-41.516h83.297V167.928z"/>
		</g>
	</g>
	<g>
		
			<line fill-rule="evenodd" clip-rule="evenodd" fill="none" stroke="#FFFFFF" stroke-width="2" stroke-linecap="round" stroke-miterlimit="10" x1="271.428" y1="114.171" x2="313.047" y2="99.012"/>
		
			<polyline fill-rule="evenodd" clip-rule="evenodd" fill="none" stroke="#FFFFFF" stroke-width="2" stroke-linecap="round" stroke-miterlimit="10" points="
			281.197,118.057 271.428,114.171 276.801,105.132 		"/>
		
			<polyline fill-rule="evenodd" clip-rule="evenodd" fill="none" stroke="#FFFFFF" stroke-width="2" stroke-linecap="round" stroke-miterlimit="10" points="
			303.32,95.169 313.094,99.055 307.719,108.096 		"/>
	</g>
</g>
</svg>
