<?xml version="1.0" encoding="utf-8"?>
<!-- Generator: Adobe Illustrator 16.0.0, SVG Export Plug-In . SVG Version: 6.00 Build 0)  -->
<!DOCTYPE svg PUBLIC "-//W3C//DTD SVG 1.1//EN" "http://www.w3.org/Graphics/SVG/1.1/DTD/svg11.dtd">
<svg version="1.1" id="Layer_1" xmlns="http://www.w3.org/2000/svg" xmlns:xlink="http://www.w3.org/1999/xlink" x="0px" y="0px"
     width="146.833px" height="170.956px" viewBox="0 0 146.833 170.956" enable-background="new 0 0 146.833 170.956"
     xml:space="preserve">
<path opacity="0.2" fill="#FFFFFF" d="M73.416,20.354l4.413,3.118c3.338,2.354,6.486,4.307,9.637,5.975
    c9.74,5.172,20.3,8.157,31.379,8.876c2.837,0.183,6.053,0.389,8.624,3.121c2.674,2.838,2.583,6.245,2.514,8.979
    c-0.466,18.163-3.432,33.839-9.073,47.925c-8.491,21.222-23.149,38.18-43.563,50.398l-3.931,2.352l-3.931-2.352
    C49.08,136.53,34.42,119.576,25.916,98.345c-5.636-14.08-8.601-29.757-9.064-47.924c-0.071-2.736-0.157-6.138,2.509-8.971
    c2.57-2.738,5.787-2.944,8.622-3.127c11.078-0.717,21.639-3.705,31.393-8.88c3.166-1.679,6.316-3.631,9.625-5.971L73.416,20.354
     M73.417,10.053l-4.854,3.428l-4.416,3.118c-3.006,2.127-5.854,3.896-8.714,5.411c-8.697,4.614-18.115,7.277-27.995,7.917
    c-3.509,0.227-9.37,0.606-14.212,5.765C8.189,41.043,8.354,47.287,8.44,50.642c0.491,19.178,3.65,35.807,9.664,50.831
    c9.204,22.975,25.036,41.309,47.059,54.493l3.933,2.354l4.32,2.585l4.321-2.585l3.93-2.352
    c22.03-13.186,37.862-31.519,47.056-54.493c6.014-15.021,9.179-31.65,9.672-50.835c0.084-3.366,0.243-9.607-4.801-14.964
    c-4.838-5.144-10.698-5.521-14.2-5.748c-9.893-0.642-19.305-3.304-27.982-7.911c-2.835-1.5-5.688-3.271-8.734-5.419l-4.405-3.113
    L73.417,10.053L73.417,10.053z"/>
</svg>
