<?xml version="1.0" encoding="utf-8"?>
<!-- Generator: Adobe Illustrator 16.0.0, SVG Export Plug-In . SVG Version: 6.00 Build 0)  -->
<!DOCTYPE svg PUBLIC "-//W3C//DTD SVG 1.1//EN" "http://www.w3.org/Graphics/SVG/1.1/DTD/svg11.dtd">
<svg version="1.1" id="Layer_1" xmlns="http://www.w3.org/2000/svg" xmlns:xlink="http://www.w3.org/1999/xlink" x="0px" y="0px"
     width="146.833px" height="170.956px" viewBox="0 0 146.833 170.956" enable-background="new 0 0 146.833 170.956"
     xml:space="preserve">
<path opacity="0.3" fill="#FFFFFF" d="M73.416,20.105L69,23.224c-3.309,2.341-6.459,4.293-9.625,5.971
    c-9.754,5.176-20.315,8.163-31.393,8.88c-2.835,0.184-6.051,0.389-8.622,3.127c-2.666,2.834-2.58,6.235-2.509,8.972
    c0.464,18.167,3.429,33.845,9.064,47.924c8.504,21.231,23.164,38.186,43.569,50.401l3.931,2.353l3.931-2.353
    c20.414-12.219,35.071-29.176,43.563-50.398c5.641-14.086,8.607-29.762,9.073-47.926c0.069-2.733,0.16-6.14-2.514-8.979
    c-2.571-2.732-5.787-2.938-8.624-3.121c-11.08-0.719-21.639-3.704-31.379-8.876c-3.15-1.668-6.298-3.62-9.637-5.975L73.416,20.105
    L73.416,20.105z"/>
</svg>
