<?xml version="1.0" encoding="utf-8"?>
<!-- Generator: Adobe Illustrator 16.0.0, SVG Export Plug-In . SVG Version: 6.00 Build 0)  -->
<!DOCTYPE svg PUBLIC "-//W3C//DTD SVG 1.1//EN" "http://www.w3.org/Graphics/SVG/1.1/DTD/svg11.dtd">
<svg version="1.1" id="Layer_1" xmlns="http://www.w3.org/2000/svg" xmlns:xlink="http://www.w3.org/1999/xlink" x="0px" y="0px"
     width="146.833px" height="170.956px" viewBox="0 0 146.833 170.956" enable-background="new 0 0 146.833 170.956"
     xml:space="preserve">
<path opacity="0.1" fill="#FFFFFF" d="M73.417,10.301l4.855,3.431l4.405,3.112c3.046,2.148,5.899,3.92,8.734,5.42
    c8.677,4.606,18.089,7.27,27.982,7.911c3.501,0.227,9.361,0.604,14.2,5.748c5.044,5.356,4.885,11.598,4.801,14.964
    c-0.493,19.185-3.658,35.813-9.672,50.835c-9.193,22.974-25.026,41.308-47.056,54.493l-3.93,2.352l-4.321,2.585l-4.32-2.585
    l-3.933-2.354c-22.023-13.184-37.855-31.518-47.059-54.492c-6.014-15.023-9.173-31.653-9.664-50.83
    c-0.087-3.355-0.251-9.599,4.786-14.951c4.843-5.159,10.704-5.538,14.212-5.765c9.88-0.64,19.298-3.303,27.995-7.917
    c2.86-1.516,5.708-3.284,8.714-5.411l4.416-3.118L73.417,10.301 M73.42,0l-4.855,3.429L63.71,6.856l-4.415,3.116
    c-2.716,1.923-5.266,3.507-7.801,4.85c-7.64,4.055-15.916,6.395-24.599,6.956c-4.116,0.266-12.684,0.819-19.803,8.402
    C-0.313,38.05-0.072,47.202,0.03,51.11C0.545,71.3,3.902,88.88,10.292,104.847c9.905,24.725,26.912,44.436,50.549,58.586
    l3.935,2.354l4.321,2.584l4.319,2.585l4.32-2.585l4.321-2.584l3.931-2.353c23.646-14.152,40.652-33.864,50.545-58.587
    c6.395-15.965,9.754-33.546,10.272-53.745c0.1-3.912,0.333-13.07-7.086-20.947c-7.109-7.558-15.666-8.11-19.779-8.377
    c-8.694-0.564-16.964-2.901-24.582-6.946c-2.521-1.333-5.078-2.923-7.832-4.864l-4.399-3.108l-4.854-3.43L73.42,0L73.42,0z"/>
</svg>
