<?xml version="1.0" encoding="utf-8"?>
<!-- Generator: Adobe Illustrator 16.0.0, SVG Export Plug-In . SVG Version: 6.00 Build 0)  -->
<!DOCTYPE svg PUBLIC "-//W3C//DTD SVG 1.1//EN" "http://www.w3.org/Graphics/SVG/1.1/DTD/svg11.dtd">
<svg version="1.1" id="Layer_1" xmlns="http://www.w3.org/2000/svg" xmlns:xlink="http://www.w3.org/1999/xlink" x="0px" y="0px"
	 width="170.639px" height="38.163px" viewBox="15.899 0 170.639 38.163" enable-background="new 15.899 0 170.639 38.163"
	 xml:space="preserve">
<g>
	<g>
		<path fill-rule="evenodd" clip-rule="evenodd" fill="#EAEAEA" d="M43.118,0c5.649,0.224,11.302,0.43,16.949,0.686
			c1.188,0.053,2.376,0.234,3.548,0.449c3.146,0.577,5.143,2.49,5.64,5.603c0.499,3.104,0.737,6.26,0.915,9.403
			c0.273,4.861,0.014,9.711-0.693,14.533c-0.373,2.56-1.412,4.735-3.859,5.848c-1.162,0.527-2.495,0.821-3.774,0.925
			c-3.596,0.286-7.201,0.506-10.807,0.593c-4.604,0.112-9.213,0.183-13.814,0.062c-4.626-0.122-9.251-0.417-13.861-0.796
			c-3.725-0.306-5.972-2.537-6.585-6.258c-0.898-5.466-1.05-10.974-0.71-16.489c0.163-2.631,0.409-5.273,0.875-7.865
			c0.598-3.328,2.873-5.366,6.253-5.665c3.988-0.353,7.989-0.58,11.989-0.748c2.639-0.111,5.285-0.021,7.929-0.021
			C43.113,0.172,43.116,0.086,43.118,0z M37.611,27.403c4.822-2.785,9.489-5.479,14.28-8.247c-4.825-2.783-9.498-5.478-14.28-8.236
			C37.611,16.481,37.611,21.84,37.611,27.403z"/>
		<path fill-rule="evenodd" clip-rule="evenodd" fill="#EAEAEA" d="M154.886,1.707c1.698,0,3.334,0,5.06,0c0,4.064,0,8.083,0,12.314
			c0.277-0.328,0.42-0.483,0.546-0.648c1.359-1.754,3.137-2.476,5.327-2.126c1.335,0.213,2.371,0.943,2.814,2.207
			c0.448,1.272,0.848,2.611,0.957,3.946c0.341,4.194,0.449,8.401-0.117,12.589c-0.132,0.975-0.392,1.958-0.761,2.869
			c-1.371,3.381-5.911,4.018-8.258,1.193c-0.198-0.237-0.379-0.489-0.649-0.84c-0.21,0.783-0.398,1.475-0.592,2.196
			c-1.422,0-2.839,0-4.327,0C154.886,24.194,154.886,12.985,154.886,1.707z M159.949,23.9c0,1.986,0,3.975,0,5.961
			c0.001,1.126,0.569,1.834,1.621,2.027c1.154,0.211,1.924-0.22,2.295-1.368c0.182-0.561,0.331-1.158,0.346-1.742
			c0.077-3.118,0.156-6.239,0.125-9.357c-0.01-1.118-0.214-2.267-0.535-3.339c-0.341-1.145-1.467-1.454-2.477-0.795
			c-0.88,0.575-1.386,1.385-1.379,2.482C159.959,19.813,159.949,21.856,159.949,23.9z"/>
		<path fill-rule="evenodd" clip-rule="evenodd" fill="#EAEAEA" d="M109.476,11.657c1.849,0,3.57,0,5.395,0c0,0.369,0,0.7,0,1.031
			c0,5.543-0.005,11.087,0.008,16.629c0.002,0.536,0.05,1.084,0.178,1.602c0.247,0.996,0.968,1.354,1.953,1.048
			c1.112-0.349,1.647-1.08,1.647-2.259c0-5.685,0-11.371,0-17.057c0-0.307,0-0.615,0-0.979c1.788,0,3.51,0,5.315,0
			c0,7.874,0,15.756,0,23.704c-1.325,0-2.672,0-4.126,0c-0.155-0.859-0.318-1.764-0.511-2.834c-0.321,0.459-0.546,0.794-0.782,1.118
			c-1.556,2.13-4.069,2.595-6.247,1.882c-1.881-0.614-2.42-2.269-2.674-4.02c-0.115-0.783-0.149-1.585-0.15-2.378
			c-0.013-5.457-0.006-10.917-0.006-16.374C109.476,12.433,109.476,12.097,109.476,11.657z"/>
		<path fill-rule="evenodd" clip-rule="evenodd" fill="#EAEAEA" d="M151.508,35.414c-1.416,0-2.748,0-4.144,0
			c-0.155-0.9-0.307-1.787-0.492-2.861c-0.247,0.34-0.418,0.565-0.576,0.8c-1.471,2.164-3.524,2.808-6.03,2.322
			c-1.34-0.259-2.275-1.116-2.643-2.398c-0.324-1.132-0.565-2.332-0.576-3.505c-0.059-5.771-0.028-11.543-0.025-17.315
			c0-0.248,0.033-0.496,0.055-0.791c1.75,0,3.445,0,5.248,0c0.018,0.321,0.044,0.647,0.044,0.973
			c0.002,5.516-0.003,11.033,0.011,16.547c0.001,0.592,0.065,1.197,0.202,1.771c0.219,0.91,0.909,1.276,1.822,1.054
			c1.108-0.269,1.764-1.105,1.764-2.258c0-5.658,0-11.316,0-16.974c0-0.338,0-0.676,0-1.089c1.803,0,3.545,0,5.341,0
			C151.508,19.578,151.508,27.464,151.508,35.414z"/>
		<path fill-rule="evenodd" clip-rule="evenodd" fill="#EAEAEA" d="M106.9,23.598c-0.241,2.366-0.313,4.767-0.764,7.092
			c-0.679,3.492-2.843,5.102-6.403,5.112c-0.71,0.003-1.43,0.029-2.128-0.069c-2.89-0.409-4.646-1.936-5.19-4.863
			c-0.883-4.729-0.914-9.508-0.033-14.234c0.694-3.729,2.92-5.417,6.71-5.458c0.709-0.008,1.428,0.012,2.123,0.127
			c2.312,0.384,3.834,1.732,4.614,3.929c0.713,2.01,0.849,4.104,0.873,6.212c0.008,0.71,0.002,1.42,0.002,2.132
			C106.769,23.585,106.834,23.592,106.9,23.598z M101.373,23.604c-0.042,0-0.084-0.002-0.125-0.003c0-1.789,0.045-3.58-0.021-5.365
			c-0.029-0.779-0.238-1.564-0.456-2.321c-0.2-0.703-0.776-1.062-1.486-1.069c-0.723-0.006-1.231,0.411-1.477,1.086
			c-0.153,0.423-0.315,0.87-0.332,1.31c-0.086,2.267-0.168,4.535-0.17,6.804c-0.002,1.984,0.044,3.975,0.187,5.951
			c0.105,1.452,0.827,2.212,1.802,2.204c0.956-0.009,1.64-0.687,1.771-2.142C101.256,27.915,101.278,25.757,101.373,23.604z"/>
		<path fill-rule="evenodd" clip-rule="evenodd" fill="#EAEAEA" d="M87.052,35.4c-1.781,0-3.474,0-5.234,0
			c-0.017-0.296-0.044-0.569-0.045-0.845c-0.004-1.762-0.144-3.539,0.028-5.286c0.39-3.979-0.954-7.621-1.972-11.333
			c-1.314-4.79-2.655-9.573-3.981-14.361c-0.059-0.212-0.082-0.435-0.135-0.72c1.639,0,3.228-0.02,4.816,0.025
			c0.195,0.005,0.507,0.322,0.553,0.539c1.048,4.915,2.065,9.836,3.09,14.755c0.057,0.271,0.122,0.539,0.212,0.933
			c0.806-3.776,1.576-7.409,2.357-11.04c0.329-1.526,0.656-3.054,1.033-4.568c0.063-0.248,0.376-0.609,0.583-0.616
			c1.587-0.051,3.179-0.028,4.863-0.028c-0.729,2.616-1.435,5.15-2.146,7.685c-1.279,4.564-2.565,9.127-3.836,13.695
			c-0.118,0.431-0.176,0.891-0.179,1.339C87.045,28.814,87.052,32.056,87.052,35.4z"/>
		<path fill-rule="evenodd" clip-rule="evenodd" fill="#EAEAEA" d="M186.537,25.346c-3.188,0-6.105,0-9.253,0
			c0.151,1.893,0.223,3.7,0.465,5.483c0.13,0.943,0.81,1.339,1.717,1.329c0.898-0.01,1.507-0.439,1.767-1.319
			c0.129-0.433,0.178-0.889,0.242-1.338c0.059-0.42,0.091-0.845,0.145-1.369c1.522,0.089,3.032,0.177,4.521,0.262
			c0.599,4.272-1.8,7.199-5.968,7.386c-0.765,0.035-1.541,0.044-2.299-0.051c-2.541-0.313-4.273-1.7-4.922-4.18
			c-0.399-1.525-0.684-3.12-0.721-4.69c-0.075-3.373-0.327-6.769,0.364-10.113c0.489-2.361,1.479-4.386,4.007-5.164
			c1.862-0.572,3.759-0.57,5.633-0.066c2.461,0.662,3.517,2.564,3.764,4.86C186.312,19.303,186.365,22.258,186.537,25.346z
			 M181.424,22.103c-0.117-1.984-0.166-3.878-0.366-5.756c-0.116-1.089-0.754-1.555-1.692-1.555c-0.959,0-1.501,0.431-1.69,1.554
			c-0.168,1-0.216,2.025-0.263,3.042c-0.042,0.895-0.009,1.793-0.009,2.715C178.758,22.103,179.97,22.103,181.424,22.103z"/>
		<path fill-rule="evenodd" clip-rule="evenodd" fill="#EAEAEA" d="M133.337,35.41c-1.846,0-3.517,0-5.268,0
			c0-9.402,0-18.771,0-28.245c-1.794,0-3.511,0-5.282,0c0-1.455,0-2.808,0-4.236c5.222,0,10.461,0,15.764,0c0,1.358,0,2.73,0,4.181
			c-1.714,0-3.408,0-5.214,0C133.337,16.573,133.337,25.961,133.337,35.41z"/>
	</g>
</g>
</svg>
