<svg version="1" xmlns="http://www.w3.org/2000/svg" width="386.667" height="386.667" viewBox="0 0 290.000000 290.000000"><path d="M63.2 63.3C28.5 98 0 127.2 0 128.1c0 1.1 79.4 158.7 81.5 161.7.1.1 40.6-6.2 90.1-14l89.9-14.3 14.3-89.9c7.8-49.5 14.1-90 14-90.1C287 79.5 129.2 0 128.1 0c-.9 0-30.1 28.5-64.9 63.3zm33.6 44.2c15.1 3.6 23 12 24 25.5.8 11.4-2.7 19.2-11 24.5-2.6 1.6-4.7 3.3-4.7 3.6-.1.3 2.9 5 6.5 10.4 5.5 8.3 14.4 24.3 14.4 26 0 .3-5.3.5-11.7.5l-11.8-.1-6.3-11.2c-3.4-6.2-7.9-13.5-10-16.2-3.6-4.8-4-5-9-5.3l-5.2-.3V198H51v-90l2.3-.5c5-1.1 7.9-1.2 22.2-1.3 10.2-.1 17 .3 21.3 1.3zm60.4 30.3c.3 30.5.3 30.8 2.8 35.6 3.1 6 7.5 8.6 14.5 8.6 6.6 0 12.2-3.2 14.9-8.5 2-3.8 2.1-5.8 2.4-35.3l.3-31.2H212v29.7c0 33.3-.7 39.8-5.3 47.5-6.8 11.2-16.2 15.2-34.5 14.6-10.5-.3-12.3-.7-17.5-3.3-6.6-3.3-11-7.8-14.1-14.4-2-4.4-2.1-6.5-2.4-39.4l-.3-34.7h18.9l.4 30.8zm94.8 14.7V198h-20v-91h20v45.5z"/><path d="M72 136.1v12.1l9.3-.4c10.4-.5 14.2-1.9 16.3-5.9 1.7-3.3 1.8-9.2.3-12.1-1.9-3.6-8.6-5.8-17.6-5.8H72v12.1z"/></svg>