<svg xmlns="http://www.w3.org/2000/svg" xmlns:xlink="http://www.w3.org/1999/xlink" width="898.445" height="508.512"><linearGradient id="a" gradientUnits="userSpaceOnUse" x1="3274.705" y1="4144.735" x2="3422.854" y2="4144.735" gradientTransform="rotate(90 3657.781 733.816)"><stop offset="0" stop-color="#706dcb" stop-opacity="0"/><stop offset="1" stop-color="#706dcb" stop-opacity=".7"/></linearGradient><path fill="url(#a)" d="M182.286 498.889h-.025c-8.211 0-15.841-1.804-22.679-5.369-9.313-4.866-16.414-12.073-21.104-21.439-2.865-5.73-4.523-11.858-4.912-18.204l-.121-1.244.029-4.498c.23-2.723.631-6.297 1.629-9.91 1.942-7.024 5.379-13.358 10.208-18.838 4.147-4.708 9.167-8.565 14.923-11.442.384-.187.756-.365 1.124-.53.919-5.285 2.974-10.21 6.102-14.677 4.971-7.079 11.64-11.868 19.859-14.231 5.154-1.486 10.358-1.796 15.412-.948 2.849.489 5.639 1.358 8.454 2.63 7.393-11.623 17.471-20.027 30.042-25.06 12.688-5.083 26.162-5.755 39.598-1.988 14.117 3.945 25.635 12.018 34.251 23.996 7.355 10.226 11.298 21.613 11.774 33.928 8.315 2.174 15.516 6.445 21.451 12.728 7.054 7.466 11.043 16.424 11.836 26.616.627 7.98-.822 15.674-4.289 22.869-3.508 7.294-8.691 13.306-15.411 17.871-5.798 3.94-12.143 6.377-18.908 7.26-2.272.3-4.673.449-7.122.449-27.527.023-55.046.027-82.579.027l-49.542.004z"/><path fill="#FFF" d="M182.078 508.512h-.017c-8.558 0-16.523-1.89-23.672-5.617-9.723-5.079-17.135-12.608-22.031-22.376a48.998 48.998 0 0 1-5.125-19.03l-.122-1.154a1.896 1.896 0 0 1-.011-.238l.033-4.498c.219-2.709.624-6.55 1.701-10.465 2.03-7.327 5.619-13.947 10.665-19.679 4.345-4.928 9.585-8.947 15.576-11.944.062-.027.122-.058.183-.087 1.06-5.178 3.161-10.031 6.252-14.439 5.255-7.483 12.322-12.55 21.01-15.058 5.431-1.559 11.003-1.898 16.358-.999a35.921 35.921 0 0 1 7.296 2.074c7.529-11.209 17.63-19.405 30.05-24.378 13.072-5.235 27.143-5.943 40.971-2.067 14.591 4.083 26.504 12.43 35.411 24.811 7.272 10.112 11.339 21.386 12.098 33.529 8.064 2.387 15.104 6.724 20.945 12.906 7.402 7.823 11.58 17.217 12.417 27.912.653 8.374-.861 16.439-4.5 23.972-3.673 7.636-9.103 13.932-16.134 18.709-6.075 4.127-12.746 6.688-19.824 7.613a56.711 56.711 0 0 1-7.407.467c-27.518.023-55.042.027-82.579.027l-49.544.009zm-46.702-48.504l.116 1.127a44.92 44.92 0 0 0 4.69 17.47c4.484 8.946 11.276 15.845 20.186 20.498 6.531 3.405 13.831 5.133 21.693 5.133l.017 2.138v-2.138l49.542-.01c27.535 0 55.059-.004 82.577-.027a52.96 52.96 0 0 0 6.852-.43c6.413-.84 12.46-3.164 17.977-6.911 6.401-4.35 11.342-10.076 14.685-17.028 3.307-6.846 4.682-14.175 4.089-21.782-.759-9.695-4.548-18.21-11.262-25.307-5.647-5.979-12.522-10.059-20.435-12.13a2.135 2.135 0 0 1-1.595-1.984c-.464-11.888-4.292-22.91-11.377-32.763-8.323-11.572-19.458-19.374-33.092-23.189-12.926-3.621-26.023-2.964-38.227 1.919-12.125 4.856-21.89 13.005-29.024 24.222a2.14 2.14 0 0 1-2.683.803c-2.679-1.207-5.278-2.016-7.944-2.473-4.708-.795-9.645-.49-14.46.891-7.722 2.23-14.012 6.74-18.691 13.405-2.946 4.2-4.88 8.851-5.75 13.819a2.135 2.135 0 0 1-1.22 1.578 53.36 53.36 0 0 0-1.078.511c-5.472 2.738-10.275 6.42-14.254 10.933-4.615 5.242-7.896 11.295-9.751 17.991-.982 3.566-1.357 7.141-1.554 9.518l-.027 4.216z"/><path d="M200.377 440.531v16.467h-3.763v-16.467h3.763zm15.762 0v16.467h-2.824l-6.352-8.938v8.938H203.2v-16.467h2.823l6.353 8.939v-8.939h3.763zm13.879 3.623h-4.234v12.844h-3.766v-12.844h-4.233v-3.623h12.233v3.623zm11.995 9.222v3.621h-10.352V440.53h10.233v3.623h-6.471v2.729h5.883v3.574h-5.883v2.919h6.59zm7.668-1.788h-1.79v5.409h-3.763V440.53h6.587a5.632 5.632 0 0 1 5.646 5.646c0 2.023-1.223 3.856-3.034 4.775l3.504 6.045h-4.044l-3.106-5.408zm-1.789-3.293h2.824c1.035 0 1.883-.919 1.883-2.118 0-1.201-.848-2.118-1.883-2.118h-2.824v4.236zm23.641-7.764v16.467h-2.823l-6.353-8.938v8.938h-3.763v-16.467h2.823l6.353 8.939v-8.939h3.763zm13.173 12.845v3.621h-10.352V440.53h10.232v3.623h-6.469v2.729H284v3.574h-5.883v2.919h6.589zm13.172-9.222h-4.235v12.844h-3.765v-12.844h-4.233v-3.623h12.233v3.623z" fill="#FFF"/><path d="M579.219 506.366v-.705c0-5.748-.025-11.489.005-17.236.02-5.234 3.289-9.264 8.334-10.344 4.277-.908 8.964 1.317 11.019 5.205.864 1.634 1.226 3.366 1.211 5.213-.028 5.688-.012 11.376-.005 17.064v.803h-20.564zm16.847-36.742c-.021 3.584-3.003 6.507-6.612 6.479-3.604-.027-6.486-2.969-6.46-6.602.032-3.632 2.99-6.583 6.545-6.534 3.657.05 6.54 2.994 6.527 6.657zm11.867 36.742v-.705c0-5.748-.018-11.489.008-17.236.021-5.234 3.291-9.264 8.336-10.344 4.277-.908 8.964 1.317 11.019 5.205.864 1.634 1.219 3.366 1.206 5.213-.025 5.688-.004 11.376 0 17.064v.803h-20.569zm16.847-36.742c-.016 3.584-2.999 6.507-6.607 6.479-3.609-.027-6.486-2.969-6.465-6.602.033-3.632 2.994-6.583 6.553-6.534 3.654.05 6.536 2.994 6.519 6.657zm-74.28 36.742v-.705c0-5.748-.021-11.489.005-17.236.021-5.234 3.295-9.264 8.336-10.344 4.281-.908 8.967 1.317 11.021 5.205.861 1.634 1.221 3.366 1.211 5.213-.033 5.688-.012 11.376-.008 17.064v.803H550.5zm16.848-36.742c-.021 3.584-3.003 6.507-6.606 6.479-3.608-.027-6.49-2.969-6.466-6.602.034-3.632 2.991-6.583 6.55-6.534 3.657.05 6.535 2.994 6.522 6.657z" fill-rule="evenodd" clip-rule="evenodd" fill="#FFF"/><path d="M596.71 488.344v-.497c0-4.006-.013-8.012.004-12.018.018-3.65 2.298-6.459 5.818-7.211 2.981-.638 6.247.915 7.68 3.629.603 1.139.853 2.346.844 3.633-.017 3.969-.008 7.936 0 11.904v.56H596.71zm11.753-25.623c-.017 2.5-2.097 4.535-4.611 4.516-2.515-.018-4.528-2.072-4.507-4.604.021-2.529 2.09-4.589 4.566-4.556 2.551.032 4.555 2.087 4.552 4.644zm-40.575 25.623v-.497c0-4.006-.012-8.012.004-12.018.017-3.65 2.298-6.459 5.813-7.211 2.983-.638 6.251.915 7.685 3.629.598 1.139.848 2.346.84 3.633-.016 3.969-.008 7.936 0 11.904v.56h-14.342zm11.748-25.623c-.017 2.5-2.097 4.535-4.611 4.516-2.514-.018-4.521-2.072-4.506-4.604.021-2.529 2.088-4.589 4.57-4.556 2.547.032 4.557 2.087 4.547 4.644z" fill-rule="evenodd" clip-rule="evenodd" fill="#FFF"/><path fill="#FFF" d="M266.026 389.997a2.139 2.139 0 0 1-2.138-2.139l-.008-67.778a2.139 2.139 0 1 1 4.276 0l.008 67.778a2.138 2.138 0 0 1-2.138 2.139z"/><path fill="#FFF" d="M265.956 391.151l-8.681-10.622a2.137 2.137 0 0 1 .303-3.009 2.14 2.14 0 0 1 3.009.302l5.51 6.742 5.797-6.504a2.137 2.137 0 1 1 3.193 2.844l-9.131 10.247zm7.221-60.278a2.14 2.14 0 0 1-1.657-.785l-5.514-6.744-5.793 6.505a2.137 2.137 0 1 1-3.193-2.844l9.126-10.248 8.686 10.624a2.14 2.14 0 0 1-1.655 3.492z"/><linearGradient id="b" gradientUnits="userSpaceOnUse" x1="-1551.123" y1="-4349.052" x2="-1497.023" y2="-4349.052" gradientTransform="rotate(90 -2876.518 -971.318)"><stop offset="0" stop-color="#706dcb" stop-opacity="0"/><stop offset="1" stop-color="#706dcb" stop-opacity=".7"/></linearGradient><path fill-rule="evenodd" clip-rule="evenodd" fill="url(#b)" d="M635.413 386.535c0 11.955-9.689 21.643-21.643 21.643H388.663c-11.953 0-21.644-9.688-21.644-21.643v-10.818c0-11.951 9.69-21.639 21.644-21.639h225.108c11.953 0 21.643 9.688 21.643 21.639v10.818z"/><path fill="#FFF" d="M613.554 415.094H388.441c-13.111 0-23.777-10.668-23.777-23.78v-10.818c0-13.113 10.666-23.78 23.777-23.78h225.113c13.111 0 23.776 10.667 23.776 23.78v10.818c0 13.112-10.665 23.78-23.776 23.78zm-225.113-54.102c-10.752 0-19.5 8.75-19.5 19.504v10.818c0 10.754 8.749 19.503 19.5 19.503h225.113c10.752 0 19.5-8.749 19.5-19.503v-10.818c0-10.754-8.748-19.504-19.5-19.504H388.441z"/><path d="M448.368 390.006l3.246-1.882c.589 1.364 1.6 2.28 3.458 2.28 1.79 0 2.237-.704 2.237-1.34 0-1.011-.942-1.411-3.413-2.095-2.447-.681-4.847-1.856-4.847-5.009 0-3.178 2.684-5.013 5.53-5.013 2.704 0 4.821 1.296 6.022 3.718l-3.176 1.858c-.564-1.176-1.341-1.904-2.847-1.904-1.178 0-1.764.587-1.764 1.247 0 .751.399 1.27 2.962 2.045 2.493.752 5.294 1.623 5.294 5.106 0 3.174-2.541 5.059-6.116 5.059-3.457.002-5.669-1.648-6.586-4.07zm23.995 1.155h-6.116l-.825 2.587h-4.116l5.598-16.469h4.799l5.601 16.469h-4.118l-.823-2.587zm-1.13-3.532l-1.93-6.045-1.927 6.045h3.857zm20.417-10.35v16.469h-2.824l-6.352-8.94v8.94h-3.763v-16.469h2.823l6.353 8.939v-8.939h3.763zm17.408 8.235c0 4.657-3.457 8.233-8 8.233h-6.586v-16.469h6.586c4.543.001 8 3.577 8 8.236zm-3.623 0c0-2.824-1.787-4.612-4.377-4.612h-2.823v9.223h2.823c2.589 0 4.377-1.789 4.377-4.611zm17.969 3.411c0 2.914-2.376 4.822-5.317 4.822h-6.916v-16.469h6.447c2.869 0 5.197 1.858 5.197 4.704 0 1.366-.541 2.447-1.434 3.225 1.223.776 2.023 2.048 2.023 3.718zm-8.469-8.118v2.917h2.684c.846 0 1.435-.61 1.435-1.458 0-.847-.563-1.459-1.435-1.459h-2.684zm4.707 7.834c0-.917-.611-1.574-1.555-1.574h-3.152v3.151h3.152c.943 0 1.555-.657 1.555-1.577zm4.938-3.127c0-4.848 3.834-8.565 8.563-8.565 4.729 0 8.563 3.718 8.563 8.565 0 4.846-3.834 8.563-8.563 8.563-4.729.001-8.563-3.717-8.563-8.563zm13.362 0c0-2.942-2.117-4.894-4.799-4.894s-4.801 1.951-4.801 4.894c0 2.938 2.119 4.891 4.801 4.891s4.799-1.952 4.799-4.891zm13.596 8.234l-2.778-4.754-2.774 4.754h-4.281l4.916-8.445-4.682-8.023h4.282l2.539 4.353 2.542-4.353h4.281l-4.68 8.023 4.916 8.445h-4.281zm-146.583-3.738a2.138 2.138 0 0 1-2.138-2.137l-.012-67.78a2.138 2.138 0 1 1 4.277 0l.012 67.78c0 1.18-.958 2.137-2.139 2.137z" fill="#FFF"/><path fill="#FFF" d="M404.887 391.167l-8.686-10.624a2.137 2.137 0 1 1 3.309-2.706l5.514 6.743 5.794-6.506a2.135 2.135 0 0 1 3.019-.173c.882.785.96 2.135.174 3.019l-9.124 10.247zm7.22-60.279a2.13 2.13 0 0 1-1.656-.785l-5.518-6.746-5.795 6.505a2.137 2.137 0 1 1-3.193-2.844l9.126-10.248 8.689 10.624a2.138 2.138 0 0 1-1.653 3.494zm177.519 115.47a2.14 2.14 0 0 1-2.139-2.14l-.008-67.78a2.138 2.138 0 0 1 4.278 0l.008 67.78c0 1.182-.957 2.14-2.139 2.14z"/><path fill="#FFF" d="M589.556 447.512l-8.682-10.624a2.14 2.14 0 0 1 3.313-2.707l5.51 6.744 5.796-6.505a2.137 2.137 0 0 1 3.02-.175c.883.785.961 2.138.175 3.019l-9.132 10.248zm7.221-60.279a2.14 2.14 0 0 1-1.657-.785l-5.514-6.743-5.793 6.504a2.14 2.14 0 0 1-3.02.173 2.136 2.136 0 0 1-.173-3.017l9.124-10.247 8.688 10.624a2.14 2.14 0 0 1-1.655 3.491zm56.013 79.158v16.467h-3.763v-16.467h3.763zm15.763 0v16.467h-2.823l-6.352-8.939v8.939h-3.764v-16.467h2.823l6.353 8.94v-8.94h3.763zm13.88 3.623h-4.236v12.844h-3.765v-12.844h-4.233v-3.623h12.234v3.623zm11.994 9.221v3.623h-10.352v-16.467h10.231v3.623h-6.468v2.73h5.882v3.574h-5.882v2.916h6.589zm7.669-1.786h-1.79v5.409h-3.764v-16.467h6.587a5.632 5.632 0 0 1 5.646 5.646c0 2.021-1.223 3.859-3.033 4.775l3.504 6.045H705.2l-3.104-5.408zm-1.79-3.295h2.823c1.034 0 1.884-.917 1.884-2.116s-.85-2.117-1.884-2.117h-2.823v4.233zm23.64-7.763v16.467h-2.823l-6.353-8.939v8.939h-3.764v-16.467h2.824l6.352 8.94v-8.94h3.764zm13.174 12.844v3.623h-10.353v-16.467H737v3.623h-6.471v2.73h5.883v3.574h-5.883v2.916h6.591zm13.172-9.221h-4.234v12.844h-3.766v-12.844h-4.233v-3.623h12.233v3.623zm7.409 7.529v-11.152h3.763v10.822c0 1.246.59 2.307 2.588 2.307 2 0 2.589-1.061 2.589-2.307v-10.822h3.764v11.152c0 3.528-2.729 5.645-6.353 5.645s-6.351-2.116-6.351-5.645zm14.584 1.577l3.244-1.883c.589 1.364 1.601 2.283 3.457 2.283 1.79 0 2.237-.707 2.237-1.343 0-1.013-.941-1.411-3.412-2.095-2.448-.681-4.848-1.856-4.848-5.011 0-3.175 2.685-5.011 5.53-5.011 2.704 0 4.822 1.296 6.022 3.718l-3.175 1.858c-.565-1.178-1.342-1.905-2.848-1.905-1.178 0-1.764.589-1.764 1.248 0 .752.399 1.268 2.963 2.045 2.493.754 5.293 1.623 5.293 5.105 0 3.175-2.541 5.058-6.115 5.058-3.457.001-5.669-1.645-6.584-4.067zm24.817.115v3.623h-10.353v-16.467h10.233v3.623h-6.47v2.73h5.882v3.574h-5.882v2.916h6.59zm7.668-1.786h-1.79v5.409h-3.763v-16.467h6.586a5.633 5.633 0 0 1 5.647 5.646c0 2.021-1.225 3.859-3.035 4.775l3.504 6.045h-4.045l-3.104-5.408zm-1.791-3.295h2.823c1.036 0 1.885-.917 1.885-2.116s-.849-2.117-1.885-2.117h-2.823v4.233zm9.646 4.966l3.245-1.883c.589 1.364 1.6 2.283 3.459 2.283 1.79 0 2.237-.707 2.237-1.343 0-1.013-.943-1.411-3.414-2.095-2.446-.681-4.846-1.856-4.846-5.011 0-3.175 2.683-5.011 5.529-5.011 2.705 0 4.82 1.296 6.022 3.718l-3.177 1.858c-.563-1.178-1.34-1.905-2.846-1.905-1.178 0-1.766.589-1.766 1.248 0 .752.399 1.268 2.964 2.045 2.495.754 5.295 1.623 5.295 5.105 0 3.175-2.543 5.058-6.118 5.058-3.455.001-5.666-1.645-6.584-4.067zm19.757 6.091l9.411-21.174h1.411l-9.41 21.174h-1.412zm-184.061 12.937c0-4.847 3.834-8.563 8.564-8.563 4.728 0 8.562 3.717 8.562 8.563s-3.834 8.563-8.562 8.563c-4.73-.001-8.564-3.717-8.564-8.563zm13.363 0c0-2.94-2.117-4.894-4.798-4.894-2.684 0-4.801 1.953-4.801 4.894 0 2.939 2.117 4.893 4.801 4.893 2.68 0 4.798-1.954 4.798-4.893zm9.642-4.61v3.176h6.118v3.621h-6.118v6.047h-3.764v-16.467h9.999v3.623h-6.235zm12.231 0v3.176h6.117v3.621h-6.117v6.047h-3.763v-16.467h9.998v3.623h-6.235zm12.23-3.623v16.467h-3.762v-16.467h3.762zm2.119 8.233c0-4.847 3.6-8.563 8.563-8.563 2.986 0 5.622 1.481 7.057 3.812l-3.245 1.88c-.732-1.27-2.141-2.021-3.812-2.021-2.918 0-4.801 1.953-4.801 4.894 0 2.939 1.883 4.893 4.801 4.893 1.671 0 3.104-.752 3.812-2.023l3.245 1.882c-1.412 2.33-4.045 3.812-7.057 3.812-4.963-.004-8.563-3.72-8.563-8.566zm27.734 4.61v3.623h-10.351v-16.467h10.231v3.623h-6.469v2.728h5.883v3.576h-5.883v2.917h6.589zm7.669-1.788h-1.789v5.411h-3.764v-16.467h6.586a5.63 5.63 0 0 1 5.646 5.646c0 2.021-1.224 3.856-3.034 4.773l3.505 6.047h-4.046l-3.104-5.41zm-1.789-3.294h2.822c1.035 0 1.883-.916 1.883-2.115 0-1.201-.848-2.118-1.883-2.118h-2.822v4.233zm9.644 4.964l3.245-1.882c.589 1.365 1.6 2.282 3.46 2.282 1.789 0 2.235-.704 2.235-1.341 0-1.013-.942-1.411-3.412-2.094-2.449-.681-4.847-1.858-4.847-5.011 0-3.176 2.683-5.011 5.528-5.011 2.706 0 4.822 1.293 6.022 3.717l-3.176 1.859c-.563-1.178-1.34-1.906-2.847-1.906-1.177 0-1.765.587-1.765 1.246 0 .754.399 1.271 2.964 2.048 2.493.753 5.294 1.623 5.294 5.104 0 3.176-2.542 5.058-6.116 5.058-3.457.001-5.668-1.645-6.585-4.069zM363.883 186.157a2.14 2.14 0 0 1-2.138-2.14l-.008-46.396a2.139 2.139 0 0 1 4.277 0l.008 46.396a2.14 2.14 0 0 1-2.139 2.14z"/><path fill="#FFF" d="M363.813 187.311l-8.683-10.625a2.14 2.14 0 0 1 3.313-2.705l5.51 6.743 5.797-6.505a2.138 2.138 0 1 1 3.193 2.846l-9.13 10.246zm7.221-38.895a2.138 2.138 0 0 1-1.657-.785l-5.513-6.745-5.793 6.505a2.139 2.139 0 0 1-3.193-2.844l9.125-10.248 8.687 10.625a2.138 2.138 0 0 1-1.656 3.492zm324.519-10.667h-6.117l-.824 2.588h-4.117l5.6-16.468h4.798l5.601 16.468h-4.117l-.824-2.588zm-1.129-3.529l-1.931-6.046-1.929 6.046h3.86zm17.123 2.493v3.624h-9.646v-16.468h3.763v12.844h5.883zm17.009-4.139c0 5.033-3.507 8.092-8.117 8.092-5.175 0-8.892-3.812-8.892-8.539 0-4.776 3.787-8.587 8.632-8.587 3.154 0 5.812 1.552 7.2 3.764l-3.199 1.835c-.683-1.082-2.165-1.929-4.023-1.929-2.775 0-4.847 2.047-4.847 4.94 0 2.799 1.979 4.847 5.177 4.847 2.188 0 3.623-.964 4.21-2.541h-4.398v-3.293h8.258v1.411zm1.407-.471c0-4.846 3.834-8.563 8.564-8.563 4.728 0 8.563 3.717 8.563 8.563s-3.835 8.563-8.563 8.563c-4.73 0-8.564-3.718-8.564-8.563zm13.363 0c0-2.94-2.118-4.893-4.799-4.893-2.683 0-4.802 1.953-4.802 4.893 0 2.94 2.119 4.894 4.802 4.894 2.681-.001 4.799-1.955 4.799-4.894zm11.431 2.822h-1.789v5.412h-3.764v-16.468h6.586a5.631 5.631 0 0 1 5.646 5.646c0 2.023-1.224 3.859-3.034 4.775l3.505 6.047h-4.045l-3.105-5.412zm-1.789-3.294h2.822c1.037 0 1.884-.917 1.884-2.117 0-1.199-.847-2.117-1.884-2.117h-2.822v4.234zm14.464-7.762v16.468h-3.762v-16.468h3.762zm13.882 3.622h-4.236v12.846h-3.765v-12.846h-4.232v-3.623h12.233v3.623zm14.348-3.622v16.468H791.9v-6.541h-5.178v6.541h-3.764v-16.468h3.764v6.305h5.178v-6.305h3.762zm19.289 16.468h-3.765v-9.575l-4.258 6.987h-.422l-4.261-6.987v9.575h-3.763v-16.468h3.763l4.472 7.316 4.469-7.316h3.765v16.468zm7.995-8.234c0-4.846 3.834-8.563 8.564-8.563 4.727 0 8.56 3.717 8.56 8.563s-3.833 8.563-8.56 8.563c-4.73 0-8.564-3.718-8.564-8.563zm13.363 0c0-2.94-2.117-4.893-4.798-4.893-2.686 0-4.802 1.953-4.802 4.893 0 2.94 2.116 4.894 4.802 4.894 2.68-.001 4.798-1.955 4.798-4.894zm9.642-4.612v3.177h6.117v3.622h-6.117v6.047h-3.764v-16.468h9.998v3.623h-6.234zm-119.655 36.368h-3.766v-9.575l-4.257 6.987h-.422l-4.261-6.987v9.575h-3.763v-16.468h3.763l4.472 7.316 4.468-7.316h3.766v16.468zm2.702-5.317V147.39h3.764v10.822c0 1.247.588 2.306 2.587 2.306 2 0 2.589-1.059 2.589-2.306V147.39h3.764v11.152c0 3.529-2.73 5.646-6.353 5.646-3.623 0-6.351-2.116-6.351-5.646zm25.052 1.693v3.624h-9.646v-16.468h3.764v12.844h5.882zm11.056-9.221h-4.234v12.845h-3.767v-12.845h-4.232v-3.623h12.233v3.623zm5.409-3.623v16.468h-3.763v-16.468h3.763zm12.469 12.844v3.624h-9.646v-16.468h3.764v12.844h5.882zm11.995 0v3.624h-10.351v-16.468h10.231v3.623h-6.468v2.73h5.883v3.574h-5.883v2.917h6.588zm.704-12.844h4.117l3.646 12.116 3.647-12.116h4.115l-5.363 16.468h-4.798l-5.364-16.468zm27.287 12.844v3.624h-10.351v-16.468h10.231v3.623h-6.468v2.73h5.882v3.574h-5.882v2.917h6.588zm11.762 0v3.624h-9.646v-16.468h3.763v12.844h5.883zm-139.511 10.679h4.114l3.648 12.116 3.648-12.116h4.115l-5.363 16.468h-4.8l-5.362-16.468zm27.287 12.844v3.623h-10.352v-16.468h10.232v3.622h-6.469v2.729h5.882v3.576h-5.882v2.917h6.589zm7.667-1.788h-1.789v5.411h-3.764v-16.468h6.588a5.631 5.631 0 0 1 5.646 5.646c0 2.022-1.223 3.857-3.034 4.774l3.504 6.047h-4.044l-3.107-5.41zm-1.789-3.294h2.824c1.035 0 1.884-.916 1.884-2.116s-.849-2.117-1.884-2.117h-2.824v4.233zm14.467-7.762v16.468h-3.764v-16.468h3.764zm6.585 3.622v3.178h6.118v3.621h-6.118v6.047h-3.764v-16.468h9.999v3.622h-6.235zm12.231-3.622v16.468h-3.763v-16.468h3.763zm2.117 8.234c0-4.847 3.601-8.563 8.564-8.563 2.986 0 5.622 1.481 7.057 3.811l-3.245 1.881c-.73-1.269-2.141-2.021-3.812-2.021-2.918 0-4.801 1.952-4.801 4.894 0 2.939 1.883 4.893 4.801 4.893 1.671 0 3.105-.752 3.812-2.023l3.245 1.882c-1.412 2.33-4.045 3.813-7.057 3.813-4.963-.004-8.564-3.721-8.564-8.567zm27.029 5.646h-6.116l-.825 2.587h-4.116l5.599-16.468h4.799l5.602 16.468h-4.119l-.824-2.587zm-1.129-3.53l-1.93-6.046-1.927 6.046h3.857zm17.361-6.728h-4.234v12.846h-3.765v-12.846h-4.233v-3.622h12.232v3.622zm5.406-3.622v16.468h-3.762v-16.468h3.762zm2.118 8.234c0-4.847 3.834-8.563 8.564-8.563 4.727 0 8.563 3.717 8.563 8.563s-3.836 8.563-8.563 8.563c-4.73 0-8.564-3.717-8.564-8.563zm13.365 0c0-2.941-2.118-4.894-4.8-4.894-2.684 0-4.801 1.952-4.801 4.894 0 2.939 2.117 4.893 4.801 4.893 2.681 0 4.8-1.954 4.8-4.893zm18.816-8.234v16.468h-2.822l-6.354-8.94v8.94h-3.763v-16.468h2.822l6.354 8.938v-8.938h3.763z"/><path d="M643.608 253.292l76.47-.011m-8.342-7.402l8.374 7.464-8.686 7.096" clip-rule="evenodd" fill="none" stroke="#FFF" stroke-width="2" stroke-linecap="round" stroke-miterlimit="10"/><g fill-rule="evenodd" clip-rule="evenodd" fill="#FFF"><path d="M761.383 274.087v-.704c0-5.747-.024-11.49.004-17.237.021-5.234 3.292-9.264 8.333-10.341 4.28-.911 8.968 1.314 11.022 5.203.864 1.633 1.223 3.368 1.206 5.213-.025 5.688-.007 11.378 0 17.065v.801h-20.565zm16.845-36.739c-.021 3.583-3 6.504-6.607 6.477-3.609-.027-6.491-2.97-6.466-6.603.033-3.629 2.99-6.583 6.549-6.532 3.658.049 6.535 2.993 6.524 6.658zm11.869 36.739v-.704c0-5.747-.021-11.49.01-17.237.021-5.234 3.289-9.264 8.336-10.341 4.277-.911 8.959 1.314 11.013 5.203.865 1.633 1.219 3.368 1.212 5.213-.03 5.688-.01 11.378 0 17.065v.801h-20.571zm16.844-36.739c-.017 3.583-2.999 6.504-6.604 6.477-3.608-.027-6.49-2.97-6.464-6.603.032-3.629 2.992-6.583 6.548-6.532 3.658.049 6.537 2.993 6.52 6.658zm-74.28 36.739v-.704c0-5.747-.021-11.49.009-17.237.02-5.234 3.294-9.264 8.332-10.341 4.284-.911 8.971 1.314 11.025 5.203.856 1.633 1.216 3.368 1.206 5.213-.028 5.688-.012 11.378-.003 17.065v.801h-20.569zm16.853-36.739c-.025 3.583-3.003 6.504-6.612 6.477-3.607-.027-6.49-2.97-6.46-6.603.029-3.629 2.989-6.583 6.547-6.532 3.659.049 6.533 2.993 6.525 6.658z"/><path d="M778.876 256.066v-.496c0-4.006-.014-8.01.003-12.019.014-3.65 2.292-6.459 5.814-7.211 2.986-.638 6.252.915 7.684 3.63.597 1.138.849 2.345.839 3.635-.016 3.967-.004 7.935 0 11.901v.56h-14.34zm11.748-25.623c-.014 2.501-2.093 4.536-4.611 4.519-2.514-.02-4.523-2.075-4.507-4.604.021-2.532 2.087-4.591 4.569-4.558 2.548.033 4.556 2.087 4.549 4.643zm-40.571 25.623v-.496c0-4.006-.018-8.01 0-12.019.017-3.65 2.296-6.459 5.818-7.211 2.981-.638 6.251.915 7.68 3.63.603 1.138.848 2.345.843 3.635-.017 3.967-.008 7.935 0 11.901v.56h-14.341zm11.748-25.623c-.017 2.501-2.097 4.536-4.611 4.519-2.514-.02-4.527-2.075-4.506-4.604.021-2.532 2.084-4.591 4.565-4.558a4.595 4.595 0 0 1 4.552 4.643z"/></g><path d="M719.005 301.93c0-4.846 3.836-8.563 8.564-8.563s8.563 3.718 8.563 8.563-3.834 8.563-8.563 8.563-8.564-3.717-8.564-8.563zm13.363 0c0-2.939-2.117-4.893-4.799-4.893-2.683 0-4.802 1.953-4.802 4.893 0 2.94 2.119 4.896 4.802 4.896 2.682 0 4.799-1.955 4.799-4.896zm9.642-4.61v3.176h6.119v3.623h-6.119v6.045h-3.763v-16.467h10v3.623h-6.237zm12.231 0v3.176h6.117v3.623h-6.117v6.045h-3.764v-16.467h10v3.623h-6.236zm12.233-3.623v16.467h-3.764v-16.467h3.764zm2.115 8.233c0-4.846 3.601-8.563 8.564-8.563 2.987 0 5.622 1.482 7.056 3.812l-3.244 1.883c-.731-1.27-2.142-2.023-3.812-2.023-2.917 0-4.801 1.953-4.801 4.893 0 2.94 1.884 4.896 4.801 4.896 1.67 0 3.105-.754 3.812-2.025l3.244 1.882c-1.411 2.33-4.044 3.812-7.056 3.812-4.964-.003-8.564-3.721-8.564-8.567zm27.735 4.611v3.623h-10.353v-16.467h10.233v3.623h-6.47v2.729h5.882v3.576h-5.882v2.916h6.59zm7.668-1.787h-1.79v5.409h-3.763v-16.467h6.586a5.633 5.633 0 0 1 5.647 5.646c0 2.021-1.224 3.859-3.034 4.775l3.505 6.045h-4.045l-3.106-5.408zm-1.79-3.295h2.823c1.036 0 1.885-.917 1.885-2.116s-.849-2.117-1.885-2.117h-2.823v4.233zm9.646 4.966l3.247-1.885c.588 1.366 1.599 2.285 3.457 2.285 1.79 0 2.237-.707 2.237-1.343 0-1.013-.942-1.411-3.412-2.094-2.448-.682-4.848-1.857-4.848-5.012 0-3.175 2.684-5.011 5.529-5.011 2.705 0 4.822 1.294 6.022 3.718l-3.176 1.858c-.563-1.178-1.341-1.905-2.847-1.905-1.177 0-1.763.589-1.763 1.246 0 .754.397 1.27 2.962 2.047 2.494.754 5.294 1.623 5.294 5.105 0 3.176-2.541 5.058-6.116 5.058-3.457.002-5.668-1.645-6.586-4.067z" fill="#FFF"/><linearGradient id="c" gradientUnits="userSpaceOnUse" x1="-4231.348" y1="2128.916" x2="-4122.829" y2="2128.916" gradientTransform="rotate(-90 -2848.749 -1080.986)"><stop offset="0" stop-color="#706dcb" stop-opacity=".3"/><stop offset="1" stop-color="#706dcb"/></linearGradient><path fill-rule="evenodd" clip-rule="evenodd" fill="url(#c)" d="M80.841 208.478c0-8.494 6.883-15.384 15.382-15.384h529.859c8.496 0 15.383 6.89 15.383 15.384v77.751c0 8.496-6.887 15.384-15.383 15.384H96.224c-8.5 0-15.382-6.888-15.382-15.384v-77.751z"/><path fill="#FFF" d="M626.083 307.596H96.228c-9.664 0-17.525-7.86-17.525-17.524v-77.747c0-9.662 7.861-17.522 17.525-17.522h529.855c9.664 0 17.525 7.86 17.525 17.522v77.747c0 9.664-7.861 17.524-17.525 17.524zM96.228 199.079c-7.305 0-13.248 5.943-13.248 13.246v77.747c0 7.305 5.943 13.248 13.248 13.248h529.855c7.305 0 13.248-5.943 13.248-13.248v-77.747c0-7.303-5.943-13.246-13.248-13.246H96.228z"/><path d="M284.837 242.509h-10.011l-1.348 4.235h-6.738l9.163-26.951h7.854l9.163 26.951h-6.737l-1.346-4.235zm-1.848-5.776l-3.158-9.894-3.158 9.894h6.316zm21.322 1.154h-2.926v8.857h-6.16v-26.951h10.782c5.12 0 9.24 4.119 9.24 9.24 0 3.309-2.003 6.316-4.968 7.815l5.739 9.896h-6.624l-5.083-8.857zm-2.926-5.389h4.622c1.693 0 3.08-1.501 3.08-3.464 0-1.965-1.387-3.466-3.08-3.466h-4.622v6.93zm35.031-6.776h-6.931v21.022h-6.16v-21.022h-6.932v-5.929h20.023v5.929zm8.848-5.929v26.951h-6.16v-26.951h6.16zm10.778 5.929v5.197h10.012v5.93h-10.012v9.896h-6.161v-26.951h16.364v5.929h-10.203zm20.014-5.929v26.951h-6.161v-26.951h6.161zm3.462 13.476c0-7.931 5.891-14.016 14.015-14.016 4.891 0 9.203 2.426 11.552 6.239l-5.315 3.078c-1.192-2.079-3.504-3.312-6.237-3.312-4.774 0-7.854 3.195-7.854 8.01 0 4.813 3.081 8.008 7.854 8.008 2.733 0 5.083-1.232 6.237-3.311l5.315 3.079c-2.312 3.813-6.625 6.237-11.552 6.237-8.124.002-14.015-6.08-14.015-14.012zm34.605-13.476v26.951h-6.16v-26.951h6.16zm20.404 22.716h-10.011l-1.347 4.235h-6.739l9.164-26.951h7.854l9.166 26.951h-6.739l-1.348-4.235zm-1.848-5.776l-3.157-9.894-3.158 9.894h6.315zm28.023 4.083v5.929h-15.787v-26.951h6.16v21.022h9.627zm-213.071 13.191v26.951h-6.161v-26.951h6.161zm25.794 0v26.951h-4.621l-10.396-14.63v14.63h-6.16v-26.951h4.621l10.396 14.63v-14.63h6.16zm22.708 5.929h-6.931v21.022h-6.16v-21.022h-6.931v-5.929h20.022v5.929zm19.632 15.094v5.929h-16.942v-26.951h16.75v5.929h-10.589v4.468h9.627v5.851h-9.627v4.775h10.781zm19.243 0v5.929h-15.787v-26.951h6.16v21.022h9.627zm18.477 0v5.929h-15.787v-26.951h6.161v21.022h9.626zm8.848-21.023v26.951h-6.16v-26.951h6.16zm31.3 14.247c0 8.237-5.736 13.244-13.284 13.244-8.469 0-14.552-6.237-14.552-13.979 0-7.813 6.2-14.051 14.131-14.051 5.158 0 9.51 2.542 11.782 6.161l-5.237 3.001c-1.118-1.771-3.542-3.156-6.585-3.156-4.542 0-7.931 3.351-7.931 8.086 0 4.581 3.235 7.93 8.471 7.93 3.581 0 5.93-1.578 6.893-4.157h-7.201v-5.392h13.514v2.313zm20.398 6.776v5.929h-16.942v-26.951h16.75v5.929H403.25v4.468h9.627v5.851h-9.627v4.775h10.781zm24.635-21.023v26.951h-4.621l-10.396-14.63v14.63h-6.159v-26.951h4.621l10.396 14.63v-14.63h6.159zm3.457 13.476c0-7.932 5.891-14.014 14.015-14.014 4.891 0 9.203 2.424 11.552 6.237l-5.315 3.078c-1.192-2.079-3.504-3.31-6.237-3.31-4.774 0-7.854 3.195-7.854 8.008 0 4.814 3.08 8.008 7.854 8.008 2.733 0 5.083-1.23 6.237-3.311l5.315 3.081c-2.312 3.812-6.624 6.237-11.552 6.237-8.124.002-14.015-6.082-14.015-14.014zm45.388 7.547v5.929h-16.942v-26.951h16.75v5.929h-10.59v4.468h9.627v5.851h-9.627v4.775h10.782z" fill="#FFF"/><linearGradient id="d" gradientUnits="userSpaceOnUse" x1="-4051.082" y1="2128.916" x2="-3929.735" y2="2128.916" gradientTransform="rotate(-90 -2848.749 -1080.986)"><stop offset="0" stop-color="#706dcb" stop-opacity="0"/><stop offset="1" stop-color="#706dcb" stop-opacity=".7"/></linearGradient><path fill-rule="evenodd" clip-rule="evenodd" fill="url(#d)" d="M80.841 15.384C80.841 6.889 87.724 0 96.224 0h529.859c8.496 0 15.383 6.889 15.383 15.384v90.579c0 8.498-6.887 15.385-15.383 15.385H96.224c-8.5 0-15.382-6.887-15.382-15.385V15.384z"/><path fill="#FFF" d="M626.083 127.333H96.228c-9.664 0-17.525-7.862-17.525-17.526V19.231c0-9.663 7.861-17.523 17.525-17.523h529.855c9.664 0 17.525 7.86 17.525 17.523v90.576c0 9.664-7.861 17.526-17.525 17.526zM96.228 5.985c-7.305 0-13.248 5.942-13.248 13.246v90.576c0 7.306 5.943 13.249 13.248 13.249h529.855c7.305 0 13.248-5.943 13.248-13.249V19.231c0-7.304-5.943-13.246-13.248-13.246H96.228z"/><defs><path id="e" d="M500.361 196.942h138.737v107.779H500.361z"/></defs><clipPath id="f"><use xlink:href="#e" overflow="visible"/></clipPath><g opacity=".4" clip-path="url(#f)"><path fill="#FFF" d="M558.938 290.303c2.121.453 4.242.896 6.356 1.382l6.348 1.431c4.227.933 8.433 1.961 12.65 2.95 4.211 1.026 8.422 2.025 12.623 3.081 4.201 1.063 8.412 2.099 12.597 3.18l-1.107 2.093-7.255-6.328c-2.418-2.1-4.816-4.239-7.223-6.361l-7.203-6.395-7.154-6.434-7.13-6.473c-2.38-2.155-4.728-4.346-7.088-6.526-2.372-2.169-4.687-4.395-7.024-6.591a432.31 432.31 0 0 1-6.972-6.647c2.523 1.996 5 4.031 7.49 6.064 2.477 2.04 4.981 4.054 7.43 6.122 2.468 2.053 4.94 4.104 7.388 6.181l7.34 6.239 7.305 6.272 7.252 6.324c2.42 2.107 4.85 4.21 7.239 6.344l7.213 6.377.009.008a1.23 1.23 0 0 1 .109 1.719 1.252 1.252 0 0 1-1.233.369c-4.185-1.115-8.353-2.282-12.528-3.431-4.178-1.145-8.346-2.336-12.521-3.508-4.152-1.215-8.32-2.389-12.481-3.656l-6.214-1.864c-2.083-.616-4.145-1.272-6.216-1.922z"/><path fill="#FFF" d="M629.788 238.412c-.747 2.748-1.492 5.501-2.281 8.226l-2.32 8.22c-.766 2.742-1.588 5.462-2.382 8.198l-2.409 8.187c-1.625 5.45-3.271 10.9-4.941 16.333-1.642 5.451-3.362 10.874-5.062 16.307l-1.964-1.345c5.059-4.139 10.179-8.202 15.278-12.304l7.669-6.099 7.696-6.078 7.727-6.039 7.764-5.996 7.815-5.93a496.34 496.34 0 0 1 7.853-5.874 647.33 647.33 0 0 1-7.406 6.436l-7.438 6.395-7.489 6.324-7.526 6.29-7.564 6.249-7.57 6.218c-5.082 4.116-10.132 8.273-15.24 12.35l-.008.004a1.244 1.244 0 0 1-1.75-.2 1.268 1.268 0 0 1-.213-1.154c1.736-5.419 3.441-10.84 5.232-16.239 1.755-5.415 3.543-10.82 5.351-16.21l2.727-8.092c.923-2.691 1.805-5.396 2.761-8.073l2.816-8.066c.937-2.688 1.9-5.367 2.874-8.038zm-48.239-45.495a539.406 539.406 0 0 1-6.081 7.979 788.79 788.79 0 0 1-6.174 7.896c-2.055 2.634-4.168 5.221-6.247 7.833-2.089 2.612-4.21 5.188-6.315 7.782l-.697-1.879c3.111.448 6.23.915 9.352 1.397l9.359 1.447 9.342 1.509c3.113.503 6.217 1.044 9.327 1.57 3.103.519 6.223 1.063 9.318 1.621 3.11.558 6.214 1.111 9.317 1.698a709.072 709.072 0 0 1 18.578 3.693 654.48 654.48 0 0 1-18.812-2.21 858.237 858.237 0 0 1-9.386-1.25 687.205 687.205 0 0 1-9.367-1.329c-3.128-.461-6.248-.889-9.359-1.376l-9.36-1.435-9.343-1.505a775.786 775.786 0 0 1-9.334-1.553l-.025-.006a1.144 1.144 0 0 1-.681-1.871c2.178-2.537 4.332-5.087 6.537-7.591 2.205-2.511 4.378-5.055 6.6-7.551a795.675 795.675 0 0 1 6.674-7.479 467.108 467.108 0 0 1 6.777-7.39zm-60.042 64.67a310.282 310.282 0 0 1 4.723 3.746l4.67 3.827 4.615 3.869 4.578 3.905c1.537 1.304 3.035 2.634 4.548 3.949l4.544 3.969c2.986 2.679 6.014 5.321 8.967 8.033l-2.039 1.246c-.889-3.448-1.812-6.881-2.65-10.345l-1.299-5.178-1.241-5.201c-.405-1.735-.831-3.461-1.212-5.199l-1.182-5.213c-.751-3.48-1.5-6.96-2.162-10.476 1.173 3.376 2.237 6.777 3.303 10.177l1.57 5.109c.526 1.697 1.023 3.405 1.524 5.118l1.487 5.121 1.449 5.143c.99 3.429 1.888 6.871 2.828 10.302a1.254 1.254 0 0 1-.875 1.539c-.416.109-.838 0-1.156-.27l-.008-.016c-3.011-2.663-5.947-5.396-8.934-8.086l-4.428-4.09c-1.465-1.372-2.943-2.719-4.394-4.11l-4.368-4.151-4.336-4.19-4.289-4.235a389.565 389.565 0 0 1-4.233-4.293z"/><path fill="#FFF" d="M536.041 223.038c-1.065 2.937-2.197 5.845-3.313 8.773-1.106 2.916-2.255 5.819-3.403 8.728-1.166 2.896-2.314 5.808-3.496 8.695-1.187 2.889-2.352 5.786-3.566 8.669l-.998-1.099a980.16 980.16 0 0 1 12.555-4.029 395.024 395.024 0 0 1 6.297-1.973l6.307-1.939-.425.909a972.578 972.578 0 0 1-4.335-11.969l-2.088-6.008c-.706-2.01-1.387-4.01-2.057-6.023a394.337 394.337 0 0 1 2.506 5.853l2.457 5.864c1.611 3.92 3.207 7.847 4.791 11.786a.666.666 0 0 1-.377.878l-.041.018-.01.004-6.264 2.092c-2.08.701-4.168 1.39-6.265 2.066a1214.371 1214.371 0 0 1-12.556 4.032h-.008a.82.82 0 0 1-.998-1.1c1.207-2.877 2.463-5.741 3.704-8.606 1.241-2.869 2.511-5.72 3.768-8.587 1.274-2.844 2.539-5.701 3.858-8.534 1.317-2.834 2.599-5.688 3.957-8.5zm42.556-28.931a399.132 399.132 0 0 1-5.025 3.669l-5.05 3.639a1096.415 1096.415 0 0 1-10.187 7.166l-10.249 7.048c-3.445 2.332-6.862 4.681-10.315 6.974l-.344-1.514 9.261 1.384 9.255 1.446h.017a.678.678 0 0 1 .556.764c-.018.041-.025.093-.051.132a827.083 827.083 0 0 1-4.436 11.077c-1.535 3.671-3.02 7.364-4.605 11.017 1.215-3.79 2.543-7.54 3.808-11.311 1.316-3.761 2.64-7.514 3.984-11.254l.534.9-9.283-1.225-9.268-1.286a.825.825 0 0 1-.711-.936.771.771 0 0 1 .344-.573l.016-.004c3.421-2.338 6.887-4.626 10.325-6.935l10.399-6.844c3.479-2.267 6.963-4.518 10.467-6.746l5.273-3.315c1.746-1.107 3.505-2.2 5.285-3.273zm-27.242 54.414a2858.355 2858.355 0 0 1 19.97-3.613l19.984-3.552 39.99-6.886c.191-.029.368-.008.543.053l.017.01c6.913 2.785 13.787 5.669 20.682 8.503l20.667 8.54c.509.212.789.72.722 1.232v.002l-2.885 23.324c-.949 7.771-1.988 15.537-2.987 23.308v.006c-.05.404-.31.74-.639.916l-14.986 7.749.46-1.635 11.423 18.787 5.698 9.396 5.65 9.427.007.021a.921.921 0 0 1-.316 1.279.95.95 0 0 1-.99-.008l-30.693-19.676-15.29-9.926a1745.1 1745.1 0 0 1-15.273-9.962 3265.5 3265.5 0 0 1 15.616 9.421l15.582 9.464 31.057 19.085-1.299 1.288-5.822-9.327-5.784-9.349-11.535-18.706a1.15 1.15 0 0 1 .37-1.59l.067-.037.008-.008 14.937-7.837-.643.918c.973-7.771 1.898-15.552 2.905-23.314l3.021-23.306.714 1.23-20.615-8.651c-6.866-2.904-13.754-5.757-20.599-8.702l.547.063-40.119 6.169-20.074 2.983c-6.702 1-13.387 1.968-20.088 2.911z"/><path fill="#FFF" d="M561.539 220.509l11.297-7.87 11.327-7.837c7.568-5.213 15.105-10.463 22.695-15.625a.686.686 0 0 1 .957.179l.033.059.016.008 23.703 43.009-1.383-.469 44.196-19.918c.597-.267 1.299 0 1.565.595.073.188.122.373.106.565v.004l-1.112 18.329-.56 9.168-.589 9.16-.476-1.058 32.589 25.996-1.836 1.058-3.831-27.609-3.692-27.623.614.707-21.025-6.476.836-.972c3.884 8.307 7.693 16.654 11.523 24.987l5.738 12.501 5.701 12.523-6.103-12.335-6.057-12.35c-4.026-8.241-8.084-16.465-12.068-24.727a.713.713 0 0 1 .33-.936.688.688 0 0 1 .492-.034h.007l21.118 6.155a.876.876 0 0 1 .605.693v.023l4.109 27.554 3.959 27.59a1.136 1.136 0 0 1-1.829 1.061l-.008-.004-32.72-25.827a1.251 1.251 0 0 1-.468-1.041v-.016l.572-9.166.603-9.159 1.206-18.32 1.671 1.162-44.285 19.682-.016.004c-.51.23-1.098.018-1.367-.469l-23.054-43.362.999.246c-7.647 5.091-15.341 10.095-23.021 15.13l-11.523 7.549-11.544 7.506zm21.964-27.176l-.142-.841 19.179-3.153.143.828z"/><path fill="#FFF" d="M670.23 211.868a.446.446 0 0 1-.143-.021l-57.114-20.119.275-.794 55.631 19.597-13.815-16.024-44.071-4.334.084-.836 44.242 4.346a.408.408 0 0 1 .275.147l14.96 17.347a.431.431 0 0 1 .025.516.438.438 0 0 1-.349.175zm-21.698 96.06h-.025l-34.135-2.531.066-.833 33.81 2.501 20.532-49.645.785.323-20.645 49.924c-.053.162-.221.261-.388.261zm25.925 31.678l-7.59-37.279a.415.415 0 0 1 .175-.434l36.037-24.161.455.709-35.786 23.994 7.531 37.007-.822.164zm18.719-121.478l-32.023-20.436.457-.711 32.017 20.434z"/><radialGradient id="g" cx="675.804" cy="343.138" r="12.145" gradientUnits="userSpaceOnUse"><stop offset=".317" stop-color="#fff" stop-opacity=".7"/><stop offset=".322" stop-color="#fff" stop-opacity=".696"/><stop offset="1" stop-color="#fff" stop-opacity="0"/></radialGradient><path fill="url(#g)" d="M687.951 343.143c0 6.703-5.442 12.138-12.146 12.138-6.707 0-12.149-5.435-12.149-12.138 0-6.71 5.442-12.147 12.149-12.147 6.704 0 12.146 5.437 12.146 12.147z"/><radialGradient id="h" cx="608.947" cy="301.16" r="11.17" gradientUnits="userSpaceOnUse"><stop offset=".317" stop-color="#fff" stop-opacity=".7"/><stop offset=".322" stop-color="#fff" stop-opacity=".696"/><stop offset="1" stop-color="#fff" stop-opacity="0"/></radialGradient><path fill="url(#h)" d="M620.12 301.161c0 6.161-5.01 11.166-11.174 11.166s-11.172-5.005-11.172-11.166c0-6.172 5.008-11.167 11.172-11.167s11.174 4.995 11.174 11.167z"/><radialGradient id="i" cx="626.976" cy="234.453" r="24.293" gradientUnits="userSpaceOnUse"><stop offset=".317" stop-color="#fff" stop-opacity=".7"/><stop offset=".322" stop-color="#fff" stop-opacity=".696"/><stop offset="1" stop-color="#fff" stop-opacity="0"/></radialGradient><path fill="url(#i)" d="M651.269 234.453c0 13.419-10.872 24.292-24.299 24.292-13.416 0-24.287-10.873-24.287-24.292s10.871-24.292 24.287-24.292c13.426 0 24.299 10.873 24.299 24.292z"/><radialGradient id="j" cx="672.735" cy="252.669" r="8.37" gradientUnits="userSpaceOnUse"><stop offset=".317" stop-color="#fff" stop-opacity=".7"/><stop offset=".322" stop-color="#fff" stop-opacity=".696"/><stop offset="1" stop-color="#fff" stop-opacity="0"/></radialGradient><path fill="url(#j)" d="M681.104 252.665c0 4.626-3.745 8.375-8.36 8.375a8.371 8.371 0 0 1-8.379-8.375c0-4.618 3.743-8.365 8.379-8.365 4.615-.001 8.36 3.746 8.36 8.365z"/><radialGradient id="k" cx="704.864" cy="274.692" r="16.29" gradientUnits="userSpaceOnUse"><stop offset=".317" stop-color="#fff" stop-opacity=".7"/><stop offset=".322" stop-color="#fff" stop-opacity=".696"/><stop offset="1" stop-color="#fff" stop-opacity="0"/></radialGradient><path fill="url(#k)" d="M721.154 274.688c0 8.999-7.297 16.295-16.288 16.295-8.997 0-16.293-7.296-16.293-16.295 0-8.991 7.296-16.286 16.293-16.286 8.991 0 16.288 7.295 16.288 16.286z"/><radialGradient id="l" cx="556.333" cy="289.109" r="16.293" gradientUnits="userSpaceOnUse"><stop offset=".317" stop-color="#fff" stop-opacity=".7"/><stop offset=".322" stop-color="#fff" stop-opacity=".696"/><stop offset="1" stop-color="#fff" stop-opacity="0"/></radialGradient><path fill="url(#l)" d="M572.624 289.106c0 9.001-7.289 16.299-16.285 16.299-9 0-16.297-7.298-16.297-16.299 0-8.995 7.297-16.292 16.297-16.292 8.996 0 16.285 7.297 16.285 16.292z"/><radialGradient id="m" cx="557.533" cy="223.036" r="8.599" gradientUnits="userSpaceOnUse"><stop offset=".317" stop-color="#fff" stop-opacity=".7"/><stop offset=".322" stop-color="#fff" stop-opacity=".696"/><stop offset="1" stop-color="#fff" stop-opacity="0"/></radialGradient><path fill="url(#m)" d="M566.134 223.038c0 4.744-3.852 8.595-8.596 8.595-4.74 0-8.605-3.851-8.605-8.595 0-4.75 3.865-8.599 8.605-8.599 4.744 0 8.596 3.849 8.596 8.599z"/><radialGradient id="n" cx="606.974" cy="190.383" r="16.29" gradientUnits="userSpaceOnUse"><stop offset=".317" stop-color="#fff" stop-opacity=".7"/><stop offset=".322" stop-color="#fff" stop-opacity=".696"/><stop offset="1" stop-color="#fff" stop-opacity="0"/></radialGradient><path fill="url(#n)" d="M623.264 190.382c0 8.999-7.288 16.29-16.28 16.29-8.996 0-16.301-7.291-16.301-16.29 0-8.992 7.305-16.289 16.301-16.289 8.992 0 16.28 7.297 16.28 16.289z"/><radialGradient id="o" cx="675.808" cy="214.186" r="11.237" gradientUnits="userSpaceOnUse"><stop offset=".317" stop-color="#fff" stop-opacity=".7"/><stop offset=".322" stop-color="#fff" stop-opacity=".696"/><stop offset="1" stop-color="#fff" stop-opacity="0"/></radialGradient><path fill="url(#o)" d="M687.045 214.186c0 6.206-5.024 11.236-11.239 11.236-6.197 0-11.236-5.03-11.236-11.236 0-6.202 5.039-11.236 11.236-11.236 6.215 0 11.239 5.034 11.239 11.236z"/><radialGradient id="p" cx="534.009" cy="220.508" r="16.292" gradientUnits="userSpaceOnUse"><stop offset=".317" stop-color="#fff" stop-opacity=".7"/><stop offset=".322" stop-color="#fff" stop-opacity=".696"/><stop offset="1" stop-color="#fff" stop-opacity="0"/></radialGradient><path fill="url(#p)" d="M550.3 220.509c0 8.995-7.297 16.291-16.297 16.291-8.988 0-16.285-7.296-16.285-16.291 0-8.999 7.297-16.294 16.285-16.294 9 0 16.297 7.295 16.297 16.294z"/></g><defs><path id="q" d="M82.058 196.942h138.736v107.779H82.058z"/></defs><clipPath id="r"><use xlink:href="#q" overflow="visible"/></clipPath><g opacity=".4" clip-path="url(#r)"><path fill="#FFF" d="M162.218 290.303c-2.122.453-4.243.896-6.356 1.382l-6.349 1.431c-4.227.933-8.433 1.961-12.651 2.95-4.21 1.026-8.42 2.025-12.622 3.081-4.201 1.063-8.412 2.099-12.597 3.18l1.107 2.093 7.255-6.328c2.418-2.1 4.816-4.239 7.221-6.361l7.205-6.395 7.154-6.434 7.129-6.473c2.38-2.155 4.728-4.346 7.087-6.526 2.373-2.169 4.687-4.395 7.025-6.591 2.342-2.192 4.673-4.4 6.97-6.647-2.522 1.996-4.999 4.031-7.488 6.064-2.477 2.04-4.982 4.054-7.43 6.122-2.468 2.053-4.941 4.104-7.388 6.181l-7.338 6.239-7.305 6.272-7.255 6.324c-2.418 2.107-4.849 4.21-7.238 6.344l-7.213 6.377-.008.008a1.23 1.23 0 0 0-.108 1.719c.317.354.801.477 1.231.369 4.185-1.115 8.354-2.282 12.53-3.431 4.176-1.145 8.345-2.336 12.521-3.508 4.152-1.215 8.32-2.389 12.479-3.656l6.215-1.864c2.082-.616 4.145-1.272 6.217-1.922z"/><path fill="#FFF" d="M91.366 238.412c.748 2.748 1.491 5.501 2.281 8.226l2.322 8.22c.764 2.742 1.587 5.462 2.381 8.198l2.409 8.187c1.625 5.45 3.271 10.9 4.941 16.333 1.641 5.451 3.361 10.874 5.062 16.307l1.963-1.345c-5.058-4.139-10.178-8.202-15.277-12.304l-7.668-6.099-7.697-6.078-7.726-6.039-7.765-5.996-7.814-5.93a505.72 505.72 0 0 0-7.853-5.874 656.01 656.01 0 0 0 7.406 6.436l7.438 6.395 7.489 6.324 7.526 6.29 7.563 6.249 7.572 6.218c5.084 4.116 10.132 8.273 15.241 12.35l.008.004c.535.428 1.324.34 1.75-.2.264-.334.33-.77.213-1.154-1.737-5.419-3.441-10.84-5.233-16.239a1643.07 1643.07 0 0 0-5.35-16.21l-2.728-8.092c-.922-2.691-1.804-5.396-2.761-8.073l-2.814-8.066a677.657 677.657 0 0 0-2.879-8.038zm48.24-45.495a532.596 532.596 0 0 0 6.081 7.979 774.328 774.328 0 0 0 6.173 7.896c2.055 2.634 4.168 5.221 6.249 7.833 2.087 2.612 4.209 5.188 6.315 7.782l.697-1.879c-3.112.448-6.231.915-9.352 1.397l-9.36 1.447-9.343 1.509c-3.111.503-6.215 1.044-9.326 1.57a745.936 745.936 0 0 0-9.317 1.621c-3.111.558-6.214 1.111-9.318 1.698a709.072 709.072 0 0 0-18.578 3.693 653.993 653.993 0 0 0 18.811-2.21c3.138-.395 6.266-.822 9.385-1.25a682.93 682.93 0 0 0 9.368-1.329c3.128-.461 6.249-.889 9.36-1.376l9.359-1.435 9.343-1.505a772.491 772.491 0 0 0 9.334-1.553l.025-.006c.63-.11 1.048-.705.94-1.321a1.154 1.154 0 0 0-.26-.55c-2.175-2.537-4.331-5.087-6.536-7.591-2.205-2.511-4.377-5.055-6.599-7.551a810.148 810.148 0 0 0-6.675-7.479 467.042 467.042 0 0 0-6.776-7.39zm60.042 64.67a315.383 315.383 0 0 0-4.724 3.746l-4.669 3.827-4.616 3.869-4.577 3.905c-1.537 1.304-3.036 2.634-4.548 3.949l-4.544 3.969c-2.987 2.679-6.015 5.321-8.967 8.033l2.039 1.246c.89-3.448 1.812-6.881 2.652-10.345l1.298-5.178 1.241-5.201c.405-1.735.831-3.461 1.211-5.199l1.182-5.213c.751-3.48 1.5-6.96 2.164-10.476-1.174 3.376-2.239 6.777-3.305 10.177l-1.57 5.109c-.526 1.697-1.023 3.405-1.524 5.118l-1.487 5.121-1.449 5.143c-.991 3.429-1.889 6.871-2.828 10.302a1.253 1.253 0 0 0 .872 1.539c.418.109.84 0 1.157-.27l.009-.016c3.011-2.663 5.948-5.396 8.933-8.086l4.428-4.09c1.465-1.372 2.944-2.719 4.393-4.11l4.369-4.151 4.335-4.19 4.29-4.235c1.424-1.42 2.832-2.85 4.235-4.293z"/><path fill="#FFF" d="M185.114 223.038c1.065 2.937 2.196 5.845 3.312 8.773 1.106 2.916 2.255 5.819 3.403 8.728 1.166 2.896 2.314 5.808 3.496 8.695 1.187 2.889 2.352 5.786 3.568 8.669l.998-1.099a990.254 990.254 0 0 0-12.554-4.029 398.378 398.378 0 0 0-6.298-1.973l-6.307-1.939.426.909a972.52 972.52 0 0 0 4.334-11.969l2.089-6.008c.706-2.01 1.387-4.01 2.055-6.023a416.694 416.694 0 0 0-2.506 5.853l-2.457 5.864a1630.36 1630.36 0 0 0-4.791 11.786.667.667 0 0 0 .376.878l.042.018.008.004 6.265 2.092c2.081.701 4.168 1.39 6.266 2.066 4.176 1.368 8.361 2.709 12.554 4.032h.008a.82.82 0 0 0 .998-1.1c-1.207-2.877-2.463-5.741-3.704-8.606-1.241-2.869-2.511-5.72-3.768-8.587-1.273-2.844-2.539-5.701-3.859-8.534-1.315-2.834-2.597-5.688-3.954-8.5zm-42.555-28.931a391.892 391.892 0 0 0 5.024 3.669l5.049 3.639c3.387 2.414 6.783 4.797 10.187 7.166l10.249 7.048c3.446 2.332 6.862 4.681 10.316 6.974l.343-1.514-9.26 1.384-9.256 1.446h-.016a.676.676 0 0 0-.556.764c.016.041.025.093.05.132a854.738 854.738 0 0 0 4.436 11.077c1.537 3.671 3.02 7.364 4.607 11.017-1.216-3.79-2.544-7.54-3.809-11.311-1.316-3.761-2.64-7.514-3.984-11.254l-.535.9 9.284-1.225 9.269-1.286a.823.823 0 0 0 .709-.936.775.775 0 0 0-.342-.573l-.017-.004c-3.421-2.338-6.887-4.626-10.325-6.935l-10.4-6.844a1115.65 1115.65 0 0 0-10.466-6.746l-5.275-3.315a274.965 274.965 0 0 0-5.282-3.273zm27.239 54.414a2868.433 2868.433 0 0 0-19.968-3.613l-19.985-3.552-39.991-6.886a1.106 1.106 0 0 0-.543.053l-.017.01c-6.912 2.785-13.787 5.669-20.683 8.503l-20.665 8.54c-.51.212-.79.72-.723 1.232v.002l2.886 23.324c.948 7.771 1.988 15.537 2.986 23.308v.006c.05.404.309.74.639.916l14.986 7.749-.459-1.635-11.423 18.787-5.696 9.396-5.652 9.427-.008.021a.921.921 0 0 0 .318 1.279.95.95 0 0 0 .99-.008l30.694-19.676 15.29-9.926a1745.1 1745.1 0 0 0 15.273-9.962 3265.5 3265.5 0 0 0-15.616 9.421l-15.583 9.464-31.057 19.085 1.299 1.288 5.822-9.327 5.785-9.349 11.535-18.706a1.151 1.151 0 0 0-.372-1.59l-.066-.037-.009-.008-14.935-7.837.643.918c-.973-7.771-1.9-15.552-2.907-23.314l-3.02-23.306-.714 1.23 20.615-8.651c6.866-2.904 13.753-5.757 20.599-8.702l-.548.063 40.12 6.169 20.073 2.983c6.702 1 13.388 1.968 20.087 2.911z"/><path fill="#FFF" d="M159.616 220.509l-11.298-7.87-11.327-7.837c-7.568-5.213-15.106-10.463-22.695-15.625a.686.686 0 0 0-.957.179l-.033.059-.017.008-23.702 43.009 1.383-.469-44.197-19.918a1.188 1.188 0 0 0-1.567.595c-.071.188-.12.373-.104.565v.004l1.111 18.329.56 9.168.589 9.16.476-1.058-32.59 25.996 1.837 1.058 3.83-27.609 3.692-27.623-.615.707 21.025-6.476-.835-.972c-3.885 8.307-7.693 16.654-11.523 24.987l-5.739 12.501-5.7 12.523 6.102-12.335 6.056-12.35c4.026-8.241 8.086-16.465 12.071-24.727a.714.714 0 0 0-.331-.936.69.69 0 0 0-.492-.034h-.009L23.5 219.673a.876.876 0 0 0-.605.693v.023l-4.109 27.554-3.959 27.59a1.137 1.137 0 0 0 1.83 1.061l.008-.004 32.719-25.827c.326-.264.494-.658.468-1.041v-.016l-.572-9.166-.602-9.159-1.207-18.32-1.671 1.162 44.284 19.682.017.004a1.06 1.06 0 0 0 1.366-.469l23.055-43.362-.999.246c7.647 5.091 15.34 10.095 23.021 15.13l11.523 7.549 11.549 7.506zm-21.965-27.176l.142-.841-19.178-3.153-.143.828z"/><path fill="#FFF" d="M50.924 211.868a.45.45 0 0 0 .143-.021l57.114-20.119-.276-.794-55.632 19.596 13.816-16.024 44.071-4.334-.083-.836-44.243 4.346a.412.412 0 0 0-.275.147l-14.96 17.347a.435.435 0 0 0-.025.516.439.439 0 0 0 .35.176zm21.699 96.06h.024l34.136-2.531-.067-.833-33.809 2.501-20.532-49.645-.786.323 20.645 49.924c.054.162.222.261.389.261zm-25.925 31.678l7.589-37.279a.413.413 0 0 0-.176-.434l-36.035-24.161-.455.709 35.785 23.994-7.53 37.007.822.164zM27.979 218.128L60 197.692l-.455-.711-32.017 20.434z"/><radialGradient id="s" cx="2549.799" cy="343.138" r="12.145" gradientTransform="matrix(-1 0 0 1 2595.15 0)" gradientUnits="userSpaceOnUse"><stop offset=".317" stop-color="#fff" stop-opacity=".7"/><stop offset=".322" stop-color="#fff" stop-opacity=".696"/><stop offset="1" stop-color="#fff" stop-opacity="0"/></radialGradient><path fill="url(#s)" d="M33.204 343.143c0 6.703 5.442 12.138 12.146 12.138 6.708 0 12.149-5.435 12.149-12.138 0-6.71-5.442-12.147-12.149-12.147-6.704 0-12.146 5.437-12.146 12.147z"/><radialGradient id="t" cx="2482.942" cy="301.16" r="11.17" gradientTransform="matrix(-1 0 0 1 2595.15 0)" gradientUnits="userSpaceOnUse"><stop offset=".317" stop-color="#fff" stop-opacity=".7"/><stop offset=".322" stop-color="#fff" stop-opacity=".696"/><stop offset="1" stop-color="#fff" stop-opacity="0"/></radialGradient><path fill="url(#t)" d="M101.035 301.161c0 6.161 5.007 11.166 11.173 11.166 6.164 0 11.172-5.005 11.172-11.166 0-6.172-5.008-11.167-11.172-11.167-6.166 0-11.173 4.995-11.173 11.167z"/><radialGradient id="u" cx="2500.972" cy="234.453" r="24.292" gradientTransform="matrix(-1 0 0 1 2595.15 0)" gradientUnits="userSpaceOnUse"><stop offset=".317" stop-color="#fff" stop-opacity=".7"/><stop offset=".322" stop-color="#fff" stop-opacity=".696"/><stop offset="1" stop-color="#fff" stop-opacity="0"/></radialGradient><path fill="url(#u)" d="M69.887 234.453c0 13.419 10.872 24.292 24.299 24.292 13.416 0 24.287-10.873 24.287-24.292s-10.871-24.292-24.287-24.292c-13.428 0-24.299 10.873-24.299 24.292z"/><radialGradient id="v" cx="2546.731" cy="252.669" r="8.37" gradientTransform="matrix(-1 0 0 1 2595.15 0)" gradientUnits="userSpaceOnUse"><stop offset=".317" stop-color="#fff" stop-opacity=".7"/><stop offset=".322" stop-color="#fff" stop-opacity=".696"/><stop offset="1" stop-color="#fff" stop-opacity="0"/></radialGradient><path fill="url(#v)" d="M40.049 252.665c0 4.626 3.747 8.375 8.361 8.375a8.371 8.371 0 0 0 8.379-8.375c0-4.618-3.743-8.365-8.379-8.365-4.615-.001-8.361 3.746-8.361 8.365z"/><radialGradient id="w" cx="2578.86" cy="274.692" r="16.29" gradientTransform="matrix(-1 0 0 1 2595.15 0)" gradientUnits="userSpaceOnUse"><stop offset=".317" stop-color="#fff" stop-opacity=".7"/><stop offset=".322" stop-color="#fff" stop-opacity=".696"/><stop offset="1" stop-color="#fff" stop-opacity="0"/></radialGradient><path fill="url(#w)" d="M0 274.688c0 8.999 7.296 16.295 16.289 16.295 8.997 0 16.293-7.296 16.293-16.295 0-8.991-7.296-16.286-16.293-16.286C7.296 258.402 0 265.697 0 274.688z"/><radialGradient id="x" cx="2430.329" cy="289.109" r="16.293" gradientTransform="matrix(-1 0 0 1 2595.15 0)" gradientUnits="userSpaceOnUse"><stop offset=".317" stop-color="#fff" stop-opacity=".7"/><stop offset=".322" stop-color="#fff" stop-opacity=".696"/><stop offset="1" stop-color="#fff" stop-opacity="0"/></radialGradient><path fill="url(#x)" d="M148.531 289.106c0 9.001 7.289 16.299 16.285 16.299 9.001 0 16.297-7.298 16.297-16.299 0-8.995-7.296-16.292-16.297-16.292-8.997 0-16.285 7.297-16.285 16.292z"/><radialGradient id="y" cx="2431.53" cy="223.036" r="8.598" gradientTransform="matrix(-1 0 0 1 2595.15 0)" gradientUnits="userSpaceOnUse"><stop offset=".317" stop-color="#fff" stop-opacity=".7"/><stop offset=".322" stop-color="#fff" stop-opacity=".696"/><stop offset="1" stop-color="#fff" stop-opacity="0"/></radialGradient><path fill="url(#y)" d="M155.021 223.038c0 4.744 3.851 8.595 8.596 8.595 4.74 0 8.603-3.851 8.603-8.595 0-4.75-3.863-8.599-8.603-8.599-4.744 0-8.596 3.849-8.596 8.599z"/><radialGradient id="z" cx="2480.97" cy="190.383" r="16.29" gradientTransform="matrix(-1 0 0 1 2595.15 0)" gradientUnits="userSpaceOnUse"><stop offset=".317" stop-color="#fff" stop-opacity=".7"/><stop offset=".322" stop-color="#fff" stop-opacity=".696"/><stop offset="1" stop-color="#fff" stop-opacity="0"/></radialGradient><path fill="url(#z)" d="M97.891 190.382c0 8.999 7.288 16.29 16.28 16.29 8.997 0 16.301-7.291 16.301-16.29 0-8.992-7.305-16.289-16.301-16.289-8.992 0-16.28 7.297-16.28 16.289z"/><radialGradient id="A" cx="2549.804" cy="214.186" r="11.237" gradientTransform="matrix(-1 0 0 1 2595.15 0)" gradientUnits="userSpaceOnUse"><stop offset=".317" stop-color="#fff" stop-opacity=".7"/><stop offset=".322" stop-color="#fff" stop-opacity=".696"/><stop offset="1" stop-color="#fff" stop-opacity="0"/></radialGradient><path fill="url(#A)" d="M34.109 214.186c0 6.206 5.025 11.236 11.24 11.236 6.198 0 11.235-5.03 11.235-11.236 0-6.202-5.037-11.236-11.235-11.236-6.214 0-11.24 5.034-11.24 11.236z"/><radialGradient id="B" cx="2408.005" cy="220.508" r="16.292" gradientTransform="matrix(-1 0 0 1 2595.15 0)" gradientUnits="userSpaceOnUse"><stop offset=".317" stop-color="#fff" stop-opacity=".7"/><stop offset=".322" stop-color="#fff" stop-opacity=".696"/><stop offset="1" stop-color="#fff" stop-opacity="0"/></radialGradient><path fill="url(#B)" d="M170.854 220.509c0 8.995 7.297 16.291 16.298 16.291 8.987 0 16.283-7.296 16.283-16.291 0-8.999-7.296-16.294-16.283-16.294-9.001 0-16.298 7.295-16.298 16.294z"/></g><path d="M205.735 38.119c0-4.846 3.6-8.563 8.564-8.563 2.987 0 5.621 1.482 7.057 3.812l-3.245 1.881c-.731-1.269-2.141-2.022-3.812-2.022-2.917 0-4.801 1.952-4.801 4.893s1.884 4.894 4.801 4.894c1.671 0 3.105-.753 3.812-2.023l3.245 1.881c-1.412 2.329-4.045 3.811-7.057 3.811-4.964-.001-8.564-3.718-8.564-8.564zm22.936 2.823h-1.79v5.411h-3.763V29.885h6.587a5.632 5.632 0 0 1 5.646 5.646c0 2.022-1.223 3.858-3.034 4.775l3.504 6.047h-4.044l-3.106-5.411zm-1.79-3.294h2.824c1.036 0 1.883-.917 1.883-2.117s-.847-2.117-1.883-2.117h-2.824v4.234zm18.114 2.377v6.329h-3.765v-6.329l-5.528-10.14h4.281l3.13 6.353 3.128-6.353h4.281l-5.527 10.14zm18.935-4.493c0 3.128-2.517 5.646-5.764 5.646h-2.47v5.176h-3.764V29.885h6.234c3.247 0 5.764 2.517 5.764 5.647zm-3.763 0c0-1.2-.848-2.117-2-2.117h-2.47v4.234h2.47c1.151-.001 2-.917 2-2.117zm16.468-2.024H272.4v12.845h-3.766V33.508h-4.233v-3.623h12.233v3.623zm-.002 4.611c0-4.846 3.833-8.563 8.564-8.563 4.728 0 8.562 3.718 8.562 8.563 0 4.846-3.833 8.563-8.562 8.563-4.731 0-8.564-3.717-8.564-8.563zm13.363 0c0-2.94-2.118-4.893-4.799-4.893-2.684 0-4.801 1.952-4.801 4.893s2.117 4.894 4.801 4.894c2.681 0 4.799-1.953 4.799-4.894zm17.875-2.587c0 3.128-2.516 5.646-5.763 5.646h-2.471v5.176h-3.763V29.885h6.234c3.247 0 5.763 2.517 5.763 5.647zm-3.763 0c0-1.2-.848-2.117-2-2.117h-2.471v4.234h2.471c1.152-.001 2-.917 2-2.117zm4.82 2.587c0-4.846 3.834-8.563 8.564-8.563 4.728 0 8.562 3.718 8.562 8.563 0 4.846-3.834 8.563-8.562 8.563-4.73 0-8.564-3.717-8.564-8.563zm13.362 0c0-2.94-2.117-4.893-4.798-4.893-2.683 0-4.801 1.952-4.801 4.893s2.119 4.894 4.801 4.894c2.681 0 4.798-1.953 4.798-4.894zm15.525 4.611v3.623h-9.646V29.885h3.763V42.73h5.883zm5.409-12.845v16.468h-3.763V29.885h3.763zm2.117 8.234c0-4.846 3.6-8.563 8.564-8.563 2.986 0 5.622 1.482 7.056 3.812l-3.245 1.881c-.731-1.269-2.141-2.022-3.811-2.022-2.917 0-4.801 1.952-4.801 4.893s1.884 4.894 4.801 4.894c1.67 0 3.105-.753 3.811-2.023l3.245 1.881c-1.412 2.329-4.045 3.811-7.056 3.811-4.964-.001-8.564-3.718-8.564-8.564zm27.734 4.611v3.623h-10.352V29.885h10.233v3.623h-6.47v2.729h5.883v3.575h-5.883v2.918h6.589zm17.03 3.624l-5.271-7.623v7.623h-3.763V29.885h3.763v7.152l5.036-7.152h4.282l-5.553 8.021 5.787 8.447h-4.281zm18.63-16.469v16.468h-2.823l-6.353-8.94v8.94h-3.763V29.885h2.823l6.353 8.94v-8.94h3.763zm2.116 8.234c0-4.846 3.834-8.563 8.564-8.563 4.728 0 8.562 3.718 8.562 8.563 0 4.846-3.833 8.563-8.562 8.563-4.73 0-8.564-3.717-8.564-8.563zm13.362 0c0-2.94-2.117-4.893-4.799-4.893-2.684 0-4.801 1.952-4.801 4.893s2.117 4.894 4.801 4.894c2.682 0 4.799-1.953 4.799-4.894zm3.998-8.234h3.95l2.847 11.527 3.176-11.527h3.06l3.176 11.527 2.846-11.527h3.952l-4.54 16.468h-4.281l-2.682-9.716-2.683 9.716h-4.281l-4.54-16.468zm34.295 12.845v3.623h-9.646V29.885h3.763V42.73h5.883zm11.997 0v3.623h-10.352V29.885h10.232v3.623h-6.469v2.729h5.882v3.575h-5.882v2.918h6.589zm16.702-4.611c0 4.658-3.458 8.234-8 8.234h-6.586V29.885h6.586c4.543 0 8 3.576 8 8.234zm-3.623 0c0-2.823-1.787-4.611-4.377-4.611h-2.823v9.222h2.823c2.59 0 4.377-1.788 4.377-4.611zm22.04.471c0 5.034-3.506 8.092-8.117 8.092-5.174 0-8.892-3.811-8.892-8.539 0-4.775 3.788-8.587 8.632-8.587 3.154 0 5.813 1.554 7.201 3.765l-3.199 1.833c-.683-1.081-2.166-1.928-4.024-1.928-2.775 0-4.847 2.046-4.847 4.94 0 2.799 1.978 4.847 5.178 4.847 2.188 0 3.622-.965 4.209-2.542h-4.398v-3.293h8.258v1.412zm12.467 4.14v3.623h-10.352V29.885h10.233v3.623h-6.47v2.729h5.884v3.575H515.5v2.918h6.589z" fill="#FFF"/><g fill="#FFF"><path d="M272.406 183.81c-.791 0-1.553-.44-1.923-1.2l-20.37-41.684a2.137 2.137 0 0 1 .983-2.859 2.137 2.137 0 0 1 2.859.982l20.369 41.685a2.137 2.137 0 0 1-1.918 3.076z"/><path d="M273.787 184.661l-12.468-5.732a2.14 2.14 0 0 1 1.788-3.887l7.915 3.641 2.352-8.387a2.139 2.139 0 0 1 4.118 1.155l-3.705 13.21zm-24.742-31.785a2.138 2.138 0 0 1-2.06-2.717l3.705-13.211 12.47 5.733a2.14 2.14 0 0 1 1.051 2.836 2.14 2.14 0 0 1-2.835 1.05l-7.92-3.642-2.352 8.388a2.143 2.143 0 0 1-2.059 1.563z"/></g><g fill="#FFF"><path d="M455.415 183.81a2.138 2.138 0 0 1-1.92-3.076l20.37-41.685a2.138 2.138 0 0 1 3.842 1.877l-20.369 41.684a2.136 2.136 0 0 1-1.923 1.2z"/><path d="M454.036 184.661l-3.71-13.21a2.14 2.14 0 0 1 1.481-2.638 2.144 2.144 0 0 1 2.638 1.48l2.354 8.389 7.912-3.64a2.14 2.14 0 0 1 1.787 3.886l-12.462 5.733zm24.735-31.785a2.14 2.14 0 0 1-2.058-1.563l-2.352-8.388-7.914 3.642a2.14 2.14 0 0 1-1.788-3.886l12.468-5.733 3.705 13.211a2.14 2.14 0 0 1-2.061 2.717z"/></g><path fill="#FFF" d="M574.678 39.816h-3.207a2.14 2.14 0 0 1 0-4.278h3.207a2.14 2.14 0 0 1 2.14 2.14 2.141 2.141 0 0 1-2.14 2.138zm257.888 215.599a2.139 2.139 0 0 1-.005-4.278l6.472-.012h.004a2.14 2.14 0 0 1 .005 4.278l-6.472.012h-.004zm12.943-.024a2.136 2.136 0 0 1-2.137-2.134 2.137 2.137 0 0 1 2.133-2.144l6.475-.012h.005a2.138 2.138 0 1 1 .003 4.278l-6.473.012h-.006zm12.945-.023a2.138 2.138 0 0 1-2.139-2.134c0-1.182.954-2.142 2.136-2.144l6.472-.012h.002c1.182 0 2.139.954 2.14 2.134a2.14 2.14 0 0 1-2.134 2.144l-6.473.012h-.004zm12.946-.025a2.14 2.14 0 0 1-2.14-2.135 2.14 2.14 0 0 1 2.135-2.142l3.523-.006a19.16 19.16 0 0 0 2.645-.188 2.14 2.14 0 0 1 .597 4.235 23.306 23.306 0 0 1-3.235.229l-3.52.006-.005.001zm12.632-2.074a2.14 2.14 0 0 1-.921-4.069 19.35 19.35 0 0 0 4.808-3.257 2.14 2.14 0 0 1 2.899 3.146 23.601 23.601 0 0 1-5.869 3.971 2.104 2.104 0 0 1-.917.209zm9.374-8.636a2.138 2.138 0 0 1-1.844-3.215 19.318 19.318 0 0 0 2.131-5.396 2.139 2.139 0 0 1 4.168.951 23.511 23.511 0 0 1-2.604 6.597 2.137 2.137 0 0 1-1.851 1.063zm2.9-12.427a2.138 2.138 0 0 1-2.137-2.14v-6.471a2.138 2.138 0 1 1 4.277 0v6.471a2.14 2.14 0 0 1-2.14 2.14zm0-12.945a2.138 2.138 0 0 1-2.137-2.14v-6.473a2.138 2.138 0 1 1 4.277 0v6.473a2.14 2.14 0 0 1-2.14 2.14zm0-12.946a2.137 2.137 0 0 1-2.137-2.138v-6.473a2.138 2.138 0 1 1 4.277 0v6.473a2.14 2.14 0 0 1-2.14 2.138zm0-12.943a2.138 2.138 0 0 1-2.137-2.139v-6.473a2.138 2.138 0 1 1 4.277 0v6.473a2.14 2.14 0 0 1-2.14 2.139zm0-12.947a2.137 2.137 0 0 1-2.137-2.138v-6.472a2.138 2.138 0 1 1 4.277 0v6.472a2.14 2.14 0 0 1-2.14 2.138zm0-12.944a2.136 2.136 0 0 1-2.137-2.137v-6.473a2.138 2.138 0 1 1 4.277 0v6.473a2.139 2.139 0 0 1-2.14 2.137zm0-12.945a2.137 2.137 0 0 1-2.137-2.138v-6.472a2.138 2.138 0 1 1 4.277 0v6.472a2.14 2.14 0 0 1-2.14 2.138zm0-12.944a2.137 2.137 0 0 1-2.137-2.138v-6.472a2.138 2.138 0 1 1 4.277 0v6.472a2.14 2.14 0 0 1-2.14 2.138zm0-12.945a2.138 2.138 0 0 1-2.137-2.139v-6.471a2.138 2.138 0 1 1 4.277 0v6.471a2.14 2.14 0 0 1-2.14 2.139zm0-12.944a2.137 2.137 0 0 1-2.137-2.138v-6.473a2.138 2.138 0 1 1 4.277 0v6.473a2.14 2.14 0 0 1-2.14 2.138zm0-12.944a2.138 2.138 0 0 1-2.137-2.138v-6.473a2.138 2.138 0 1 1 4.277 0v6.473a2.14 2.14 0 0 1-2.14 2.138zm0-12.946a2.138 2.138 0 0 1-2.137-2.139v-6.472a2.138 2.138 0 1 1 4.277 0v6.472a2.14 2.14 0 0 1-2.14 2.139zm0-12.944a2.137 2.137 0 0 1-2.137-2.138v-6.473a2.138 2.138 0 1 1 4.277 0v6.473a2.14 2.14 0 0 1-2.14 2.138zm0-12.944a2.138 2.138 0 0 1-2.137-2.139v-2.734a19.72 19.72 0 0 0-.293-3.347 2.138 2.138 0 1 1 4.211-.744c.234 1.336.356 2.711.358 4.087v2.737a2.14 2.14 0 0 1-2.139 2.14zm-2.402-12.554a2.133 2.133 0 0 1-1.897-1.151 19.388 19.388 0 0 0-3.424-4.689 2.14 2.14 0 0 1 3.04-3.009 23.638 23.638 0 0 1 4.177 5.725 2.137 2.137 0 0 1-1.896 3.124zm-8.971-9.059c-.34 0-.686-.081-1.008-.253a18.995 18.995 0 0 0-5.467-1.924 2.135 2.135 0 0 1-1.705-2.497 2.141 2.141 0 0 1 2.494-1.708c2.34.44 4.59 1.232 6.695 2.357a2.137 2.137 0 0 1 .878 2.893 2.137 2.137 0 0 1-1.887 1.132zm-290.838-2.496a2.139 2.139 0 1 1 0-4.278h6.471a2.14 2.14 0 0 1 0 4.277l-6.471.001zm-6.472 0h-6.474a2.14 2.14 0 0 1 0-4.278h6.474a2.139 2.139 0 0 1 0 4.278zm38.833-.001h-6.473a2.14 2.14 0 0 1 0-4.277h6.473a2.139 2.139 0 1 1 0 4.277zm-12.943 0h-6.473a2.14 2.14 0 1 1 0-4.277h6.473a2.139 2.139 0 0 1 0 4.277zm45.306-.001a2.14 2.14 0 1 1 0-4.277l6.471-.001a2.138 2.138 0 1 1 0 4.277l-6.471.001zm-6.474 0h-6.471a2.14 2.14 0 1 1 0-4.277h6.471a2.14 2.14 0 1 1 0 4.277zm-12.943 0h-6.474a2.14 2.14 0 0 1 0-4.277h6.474a2.138 2.138 0 0 1 0 4.277zm51.778-.001h-6.472a2.14 2.14 0 0 1-2.14-2.138 2.14 2.14 0 0 1 2.14-2.139h6.472a2.139 2.139 0 0 1 0 4.277zm-12.945 0h-6.474a2.139 2.139 0 0 1 0-4.277h6.474a2.14 2.14 0 0 1 0 4.277zm45.306-.001a2.138 2.138 0 1 1 0-4.277l6.471-.001a2.139 2.139 0 0 1 0 4.277l-6.471.001zm-6.472 0h-6.474a2.14 2.14 0 0 1 0-4.277h6.474c1.182 0 2.137.958 2.137 2.139 0 1.18-.955 2.138-2.137 2.138zm-12.945 0h-6.473a2.138 2.138 0 0 1 0-4.277h6.473a2.14 2.14 0 1 1 0 4.277zm51.78-.001h-6.475a2.138 2.138 0 1 1 0-4.277h6.475a2.139 2.139 0 0 1 0 4.277zm-12.945 0h-6.472a2.139 2.139 0 1 1 0-4.277h6.472a2.139 2.139 0 0 1 0 4.277zm45.306-.001a2.14 2.14 0 0 1 0-4.277l6.472-.001a2.14 2.14 0 1 1 0 4.278h-6.472zm-6.473 0h-6.472a2.138 2.138 0 1 1 0-4.277h6.472a2.138 2.138 0 1 1 0 4.277zm-12.944 0h-6.473a2.139 2.139 0 1 1 0-4.277h6.473a2.139 2.139 0 1 1 0 4.277zm51.778-.001h-6.472a2.139 2.139 0 1 1 0-4.278h6.472a2.139 2.139 0 0 1 0 4.278zm-12.943 0h-6.475c-1.182 0-2.137-.958-2.137-2.139s.955-2.139 2.137-2.139h6.475a2.139 2.139 0 0 1 0 4.278zm45.304-.001a2.14 2.14 0 0 1 0-4.278h6.475a2.14 2.14 0 0 1 0 4.277l-6.475.001zm-6.471 0h-6.472a2.137 2.137 0 0 1-2.137-2.139c0-1.18.955-2.139 2.137-2.139h6.472a2.139 2.139 0 1 1 0 4.278zm-12.945 0H827.1a2.137 2.137 0 0 1-2.138-2.139c0-1.18.955-2.139 2.138-2.139h6.472a2.139 2.139 0 1 1-.001 4.278zm38.834-.001h-6.472a2.138 2.138 0 1 1 0-4.277h6.472a2.139 2.139 0 0 1 0 4.277zM822.84 255.432a2.136 2.136 0 0 1-2.137-2.136 2.138 2.138 0 0 1 2.134-2.142l3.207-.006h.005c1.18 0 2.137.954 2.138 2.134a2.137 2.137 0 0 1-2.133 2.144l-3.209.006h-.005z"/><path fill="#FFF" d="M577.676 47.216a2.13 2.13 0 0 1-1.421-.542l-10.25-9.129 10.624-8.678a2.137 2.137 0 0 1 3.009.303 2.137 2.137 0 0 1-.303 3.009l-6.742 5.508 6.507 5.796a2.138 2.138 0 0 1-1.424 3.733z"/><linearGradient id="C" gradientUnits="userSpaceOnUse" x1="-1839.46" y1="-4211.904" x2="-1799.926" y2="-4211.904" gradientTransform="rotate(90 -2876.518 -971.318)"><stop offset="0" stop-color="#706dcb" stop-opacity=".3"/><stop offset="1" stop-color="#706dcb"/></linearGradient><path fill-rule="evenodd" clip-rule="evenodd" fill="url(#C)" d="M447.111 93.517c0 6.492-5.265 11.757-11.759 11.757H292.779c-6.491 0-11.755-5.265-11.755-11.757V77.494c0-6.493 5.265-11.754 11.755-11.754h142.573c6.495 0 11.759 5.261 11.759 11.754v16.023z"/><path d="M302.404 91.935l-3.831-5.54v5.54h-2.735v-11.97h2.735v5.198l3.659-5.198h3.112l-4.035 5.831 4.206 6.139h-3.111zm12.692-11.97v11.97h-2.05l-4.617-6.498v6.498h-2.736v-11.97h2.053l4.615 6.498v-6.498h2.735zm.692 5.985c0-3.523 2.786-6.224 6.223-6.224s6.224 2.701 6.224 6.224c0 3.522-2.787 6.223-6.224 6.223-3.438 0-6.223-2.701-6.223-6.223zm9.71 0c0-2.137-1.539-3.556-3.487-3.556-1.948 0-3.487 1.419-3.487 3.556s1.539 3.557 3.487 3.557c1.948 0 3.487-1.42 3.487-3.557zm2.057-5.985h2.872l2.069 8.379 2.307-8.379h2.225l2.307 8.379 2.07-8.379h2.871l-3.299 11.97h-3.112l-1.949-7.062-1.951 7.062h-3.111l-3.299-11.97zm24.082 9.336v2.633h-7.01v-11.97h2.736V89.3h4.274zm7.871 0v2.633h-7.524v-11.97h7.438v2.634h-4.703v1.983h4.275v2.6h-4.275v2.12h4.789zm11.287-3.351c0 3.385-2.512 5.984-5.812 5.984h-4.788v-11.97h4.788c3.3.001 5.812 2.601 5.812 5.986zm-2.63 0c0-2.052-1.302-3.352-3.181-3.352h-2.053v6.703h2.053c1.879 0 3.181-1.299 3.181-3.351zm15.17.342c0 3.659-2.548 5.881-5.9 5.881-3.761 0-6.461-2.768-6.461-6.206 0-3.47 2.752-6.24 6.273-6.24 2.292 0 4.225 1.128 5.233 2.735l-2.327 1.333c-.495-.787-1.572-1.401-2.923-1.401-2.018 0-3.521 1.487-3.521 3.59 0 2.035 1.435 3.523 3.762 3.523 1.589 0 2.633-.702 3.059-1.847h-3.196v-2.394h6.001v1.026zm8.213 3.009v2.633h-7.523v-11.97h7.438v2.634h-4.702v1.983h4.274v2.6h-4.274v2.12h4.787zm13.002-.872c0 2.121-1.727 3.505-3.865 3.505h-5.027v-11.97h4.687c2.083 0 3.777 1.352 3.777 3.421 0 .991-.393 1.777-1.042 2.342.888.565 1.47 1.489 1.47 2.702zm-6.156-5.898v2.119h1.951c.614 0 1.042-.443 1.042-1.06 0-.615-.409-1.059-1.042-1.059h-1.951zm3.42 5.694c0-.667-.444-1.147-1.13-1.147h-2.291v2.292h2.291c.686 0 1.13-.479 1.13-1.145zm10.262 1.829h-4.446l-.597 1.881h-2.993l4.07-11.97h3.487l4.07 11.97h-2.992l-.599-1.881zm-.82-2.565l-1.402-4.395-1.403 4.395h2.805zm3.734 1.726l2.359-1.368c.425.992 1.161 1.659 2.512 1.659 1.299 0 1.625-.514 1.625-.976 0-.735-.685-1.025-2.479-1.521-1.779-.496-3.523-1.351-3.523-3.642 0-2.309 1.951-3.642 4.018-3.642 1.967 0 3.506.94 4.377 2.701l-2.307 1.351c-.411-.854-.975-1.384-2.07-1.384-.854 0-1.282.427-1.282.906 0 .547.29.923 2.155 1.487 1.813.547 3.847 1.18 3.847 3.711 0 2.307-1.846 3.674-4.445 3.674-2.514.002-4.122-1.194-4.787-2.956zm17.188.086v2.633h-7.524v-11.97h7.439v2.634h-4.703v1.983h4.274v2.6h-4.274v2.12h4.788z" fill="#FFF"/><linearGradient id="D" gradientUnits="userSpaceOnUse" x1="-1839.46" y1="-4386.546" x2="-1799.926" y2="-4386.546" gradientTransform="rotate(90 -2876.518 -971.318)"><stop offset="0" stop-color="#706dcb" stop-opacity=".3"/><stop offset="1" stop-color="#706dcb"/></linearGradient><path fill-rule="evenodd" clip-rule="evenodd" fill="url(#D)" d="M621.755 93.517c0 6.493-5.266 11.757-11.76 11.757H467.422c-6.49 0-11.757-5.264-11.757-11.757V77.495c0-6.494 5.268-11.755 11.757-11.755h142.573c6.494 0 11.76 5.261 11.76 11.755v16.022z"/><linearGradient id="E" gradientUnits="userSpaceOnUse" x1="-1839.476" y1="-4037.262" x2="-1799.941" y2="-4037.262" gradientTransform="rotate(90 -2876.518 -971.318)"><stop offset="0" stop-color="#706dcb" stop-opacity=".3"/><stop offset="1" stop-color="#706dcb"/></linearGradient><path fill-rule="evenodd" clip-rule="evenodd" fill="url(#E)" d="M272.47 93.501c0 6.491-5.266 11.757-11.761 11.757h-142.57c-6.491 0-11.757-5.266-11.757-11.757V77.478c0-6.492 5.266-11.753 11.757-11.753H260.71c6.495 0 11.761 5.262 11.761 11.753v16.023z"/><g fill="#FFF"><path d="M474.171 89.215l2.36-1.368c.426.992 1.161 1.659 2.512 1.659 1.299 0 1.625-.514 1.625-.976 0-.735-.685-1.025-2.479-1.521-1.779-.496-3.523-1.351-3.523-3.642 0-2.309 1.948-3.642 4.018-3.642 1.968 0 3.507.94 4.378 2.701l-2.308 1.351c-.412-.854-.976-1.384-2.07-1.384-.853 0-1.282.427-1.282.906 0 .547.291.923 2.155 1.487 1.813.547 3.847 1.18 3.847 3.711 0 2.307-1.846 3.674-4.445 3.674-2.514.002-4.121-1.194-4.788-2.956z"/><path d="M483.325 85.95c0-3.523 2.614-6.224 6.223-6.224 2.171 0 4.087 1.078 5.129 2.77l-2.36 1.368c-.53-.923-1.555-1.47-2.769-1.47-2.119 0-3.487 1.419-3.487 3.556s1.368 3.557 3.487 3.557c1.213 0 2.257-.548 2.769-1.47l2.36 1.368c-1.025 1.692-2.94 2.768-5.129 2.768-3.609 0-6.223-2.701-6.223-6.223zm18.793 4.104h-4.445l-.598 1.881h-2.993l4.07-11.97h3.488l4.067 11.97h-2.99l-.599-1.881zm-.82-2.565l-1.401-4.395-1.403 4.395h2.804zm16.556 4.446h-2.736v-6.959l-3.093 5.079h-.309l-3.095-5.079v6.959h-2.736v-11.97h2.736l3.249 5.318 3.247-5.318h2.736v11.97zm15.228-5.985c0 3.385-2.515 5.984-5.813 5.984h-4.789v-11.97h4.789c3.298.001 5.813 2.601 5.813 5.986zm-2.634 0c0-2.052-1.301-3.352-3.18-3.352h-2.053v6.703h2.053c1.879 0 3.18-1.299 3.18-3.351zm9.905 4.104h-4.445l-.598 1.881h-2.992l4.07-11.97h3.487l4.069 11.97h-2.992l-.599-1.881zm-.821-2.565l-1.4-4.395-1.404 4.395h2.804zm11.77-4.89h-3.075v9.336h-2.736v-9.336h-3.078v-2.634h8.89v2.634zm6.502 7.455h-4.446l-.599 1.881h-2.99l4.068-11.97h3.487l4.07 11.97h-2.991l-.599-1.881zm-.822-2.565l-1.401-4.395-1.404 4.395h2.805zm13.48.94c0 2.121-1.727 3.505-3.865 3.505h-5.026v-11.97h4.685c2.086 0 3.779 1.352 3.779 3.421 0 .991-.394 1.777-1.043 2.342.887.565 1.47 1.489 1.47 2.702zm-6.155-5.898v2.119h1.948c.615 0 1.043-.443 1.043-1.06 0-.615-.409-1.059-1.043-1.059h-1.948zm3.419 5.694c0-.667-.443-1.147-1.129-1.147h-2.29v2.292h2.29c.685 0 1.129-.479 1.129-1.145zm10.265 1.829h-4.447l-.597 1.881h-2.993l4.07-11.97h3.487l4.069 11.97h-2.992l-.597-1.881zm-.822-2.565l-1.4-4.395-1.404 4.395h2.804zm3.734 1.726l2.359-1.368c.428.992 1.162 1.659 2.514 1.659 1.298 0 1.624-.514 1.624-.976 0-.735-.686-1.025-2.479-1.521-1.78-.496-3.523-1.351-3.523-3.642 0-2.309 1.948-3.642 4.018-3.642 1.968 0 3.507.94 4.378 2.701l-2.308 1.351c-.412-.854-.977-1.384-2.07-1.384-.854 0-1.282.427-1.282.906 0 .547.291.923 2.156 1.487 1.813.547 3.846 1.18 3.846 3.711 0 2.307-1.846 3.674-4.445 3.674-2.514.002-4.122-1.194-4.788-2.956zm17.187.086v2.633h-7.523v-11.97h7.438v2.634h-4.702v1.983h4.273v2.6h-4.273v2.12h4.787z"/></g><g fill="#FFF"><path d="M125.431 84.068c0 2.275-1.83 4.104-4.189 4.104h-1.796v3.763h-2.735v-11.97h4.532c2.358 0 4.188 1.83 4.188 4.103zm-2.736 0c0-.872-.616-1.538-1.453-1.538h-1.796v3.078h1.796c.837 0 1.453-.667 1.453-1.54zm7.29 3.934h-1.301v3.933h-2.735v-11.97h4.788a4.095 4.095 0 0 1 4.104 4.104c0 1.472-.89 2.805-2.206 3.473l2.546 4.394h-2.94l-2.256-3.934zm-1.301-2.394h2.053c.751 0 1.368-.667 1.368-1.54 0-.872-.617-1.538-1.368-1.538h-2.053v3.078z"/><path d="M134.93 85.95c0-3.523 2.786-6.224 6.223-6.224 3.438 0 6.223 2.701 6.223 6.224 0 3.522-2.786 6.223-6.223 6.223s-6.223-2.701-6.223-6.223zm9.711 0c0-2.137-1.539-3.556-3.488-3.556-1.95 0-3.487 1.419-3.487 3.556s1.538 3.557 3.487 3.557 3.488-1.42 3.488-3.557z"/><path d="M146.357 89.848l2.376-1.368c.376.667.77 1.027 1.692 1.027 1.197 0 1.555-.684 1.555-1.419v-8.123h2.736v8.123c0 2.633-1.846 4.085-4.308 4.085-1.897 0-3.265-.803-4.051-2.325zm17.001-.547v2.633h-7.524v-11.97h7.438v2.634h-4.702v1.983h4.274v2.6h-4.274v2.12h4.788zm.09-3.351c0-3.523 2.614-6.224 6.223-6.224 2.172 0 4.087 1.078 5.129 2.77l-2.36 1.368c-.531-.923-1.556-1.47-2.769-1.47-2.119 0-3.487 1.419-3.487 3.556s1.368 3.557 3.487 3.557c1.213 0 2.258-.548 2.769-1.47l2.36 1.368c-1.025 1.692-2.94 2.768-5.129 2.768-3.609 0-6.223-2.701-6.223-6.223z"/><path d="M183.27 82.599h-3.076v9.336h-2.736v-9.336h-3.078v-2.634h8.89v2.634zm14.367 3.351c0 3.385-2.513 5.984-5.813 5.984h-4.788v-11.97h4.788c3.301.001 5.813 2.601 5.813 5.986zm-2.631 0c0-2.052-1.301-3.352-3.181-3.352h-2.052v6.703h2.052c1.88 0 3.181-1.299 3.181-3.351zm9.905 4.104h-4.446l-.597 1.881h-2.993l4.071-11.97h3.487l4.068 11.97h-2.99l-.6-1.881zm-.822-2.565l-1.401-4.395-1.403 4.395h2.804zm11.768-4.89h-3.076v9.336h-2.736v-9.336h-3.078v-2.634h8.89v2.634zm6.503 7.455h-4.446l-.597 1.881h-2.993l4.07-11.97h3.488l4.068 11.97h-2.991l-.599-1.881zm-.821-2.565l-1.401-4.395-1.403 4.395h2.804zm13.481.94c0 2.121-1.727 3.505-3.865 3.505h-5.027v-11.97h4.687c2.086 0 3.778 1.352 3.778 3.421 0 .991-.393 1.777-1.042 2.342.886.565 1.469 1.489 1.469 2.702zm-6.157-5.898v2.119h1.95c.614 0 1.042-.443 1.042-1.06 0-.615-.409-1.059-1.042-1.059h-1.95zm3.421 5.694c0-.667-.445-1.147-1.13-1.147h-2.291v2.292h2.291c.685 0 1.13-.479 1.13-1.145zm10.261 1.829H238.1l-.597 1.881h-2.993l4.07-11.97h3.488l4.067 11.97h-2.99l-.6-1.881zm-.82-2.565l-1.401-4.395-1.403 4.395h2.804zm3.733 1.726l2.36-1.368c.426.992 1.162 1.659 2.512 1.659 1.299 0 1.625-.514 1.625-.976 0-.735-.684-1.025-2.478-1.521-1.779-.496-3.523-1.351-3.523-3.642 0-2.309 1.949-3.642 4.019-3.642 1.966 0 3.506.94 4.376 2.701l-2.308 1.351c-.411-.854-.975-1.384-2.068-1.384-.854 0-1.283.427-1.283.906 0 .547.291.923 2.155 1.487 1.813.547 3.847 1.18 3.847 3.711 0 2.307-1.847 3.674-4.446 3.674-2.514.002-4.121-1.194-4.788-2.956zm17.189.086v2.633h-7.524v-11.97h7.438v2.634h-4.703v1.983h4.275v2.6h-4.275v2.12h4.789z"/></g></svg>