<svg xmlns="http://www.w3.org/2000/svg" xmlns:xlink="http://www.w3.org/1999/xlink" width="898.446" height="508.512" viewBox="20.483 -566.95 898.446 508.512"><linearGradient id="a" gradientUnits="userSpaceOnUse" x1="2992.723" y1="-3617.219" x2="3140.871" y2="-3617.219" gradientTransform="matrix(0 1 1 0 3884.564 -3208.932)"><stop offset="0" stop-color="#706dcb" stop-opacity="0"/><stop offset="1" stop-color="#706dcb" stop-opacity=".7"/></linearGradient><path fill="url(#a)" d="M202.77-68.062h-.025c-8.211 0-15.841-1.804-22.679-5.369-9.313-4.865-16.414-12.072-21.104-21.438-2.865-5.73-4.523-11.858-4.912-18.204l-.121-1.244.029-4.498c.23-2.723.631-6.297 1.629-9.91 1.942-7.023 5.379-13.357 10.208-18.838 4.147-4.708 9.167-8.564 14.923-11.441.384-.188.756-.365 1.124-.53.919-5.285 2.974-10.21 6.102-14.677 4.971-7.079 11.64-11.868 19.859-14.231 5.154-1.485 10.358-1.796 15.412-.948 2.849.489 5.639 1.358 8.454 2.631 7.393-11.623 17.471-20.027 30.042-25.061 12.688-5.083 26.162-5.755 39.598-1.988 14.117 3.945 25.635 12.019 34.251 23.996 7.354 10.227 11.298 21.613 11.773 33.929 8.315 2.174 15.517 6.444 21.451 12.728 7.054 7.466 11.043 16.424 11.836 26.616.627 7.979-.821 15.674-4.289 22.869-3.508 7.294-8.69 13.306-15.411 17.871-5.798 3.939-12.143 6.377-18.907 7.26-2.272.3-4.674.449-7.122.449-27.527.022-55.046.026-82.579.026l-49.542.002z"/><path fill="#FFF" d="M202.562-58.438h-.017c-8.558 0-16.523-1.89-23.672-5.617-9.723-5.078-17.135-12.607-22.031-22.376a48.993 48.993 0 0 1-5.125-19.029l-.122-1.154a1.896 1.896 0 0 1-.011-.238l.033-4.498c.219-2.709.624-6.55 1.701-10.465 2.03-7.327 5.619-13.946 10.665-19.679 4.345-4.928 9.585-8.947 15.576-11.944.062-.026.122-.058.183-.087 1.06-5.178 3.161-10.031 6.252-14.438 5.255-7.483 12.322-12.55 21.01-15.059 5.431-1.559 11.003-1.897 16.358-.999a35.921 35.921 0 0 1 7.296 2.074c7.529-11.209 17.63-19.404 30.05-24.378 13.072-5.235 27.143-5.942 40.971-2.067 14.591 4.084 26.504 12.43 35.412 24.812 7.271 10.112 11.339 21.386 12.098 33.529 8.063 2.387 15.104 6.724 20.945 12.905 7.401 7.823 11.579 17.218 12.417 27.912.652 8.374-.861 16.439-4.5 23.973-3.674 7.636-9.104 13.932-16.135 18.709-6.074 4.127-12.746 6.688-19.823 7.612a56.56 56.56 0 0 1-7.407.467c-27.518.023-55.042.027-82.579.027l-49.545.008zm-46.703-48.504l.116 1.127a44.929 44.929 0 0 0 4.69 17.471c4.484 8.945 11.276 15.845 20.186 20.497 6.531 3.405 13.831 5.134 21.693 5.134l.017 2.138v-2.138l49.542-.011c27.535 0 55.059-.004 82.577-.026 2.381 0 4.685-.146 6.852-.431 6.413-.84 12.46-3.163 17.978-6.91 6.4-4.351 11.342-10.076 14.685-17.028 3.307-6.846 4.682-14.175 4.089-21.782-.759-9.695-4.548-18.21-11.262-25.307-5.647-5.979-12.522-10.06-20.436-12.13a2.136 2.136 0 0 1-1.595-1.984c-.464-11.888-4.292-22.91-11.377-32.764-8.323-11.571-19.458-19.373-33.092-23.188-12.926-3.621-26.023-2.964-38.227 1.919-12.125 4.855-21.89 13.006-29.024 24.223a2.142 2.142 0 0 1-2.683.803c-2.679-1.207-5.278-2.016-7.944-2.473-4.708-.795-9.645-.49-14.46.891-7.722 2.23-14.012 6.74-18.691 13.405-2.946 4.199-4.88 8.851-5.75 13.818a2.135 2.135 0 0 1-1.22 1.578 53.36 53.36 0 0 0-1.078.511c-5.472 2.738-10.275 6.42-14.254 10.934-4.615 5.242-7.896 11.295-9.751 17.99-.982 3.566-1.357 7.142-1.554 9.519l-.027 4.214z"/><path d="M220.86-126.419v16.467h-3.763v-16.467h3.763zm15.763 0v16.467h-2.824l-6.352-8.938v8.938h-3.763v-16.467h2.823l6.353 8.938v-8.938h3.763zm13.878 3.623h-4.234v12.844h-3.766v-12.844h-4.233v-3.623h12.233v3.623zm11.996 9.222v3.621h-10.352v-16.467h10.233v3.623h-6.471v2.729h5.883v3.574h-5.883v2.919l6.59.001zm7.668-1.788h-1.79v5.409h-3.763v-16.467h6.587a5.632 5.632 0 0 1 5.646 5.646c0 2.023-1.223 3.856-3.034 4.775l3.504 6.045h-4.044l-3.106-5.408zm-1.79-3.293h2.824c1.035 0 1.883-.919 1.883-2.118 0-1.201-.848-2.118-1.883-2.118h-2.824v4.236zm23.642-7.764v16.467h-2.823l-6.353-8.938v8.938h-3.763v-16.467h2.823l6.353 8.938v-8.938h3.763zm13.172 12.845v3.621h-10.352v-16.467h10.232v3.623H298.6v2.729h5.883v3.574H298.6v2.919l6.589.001zm13.172-9.222h-4.235v12.844h-3.765v-12.844h-4.233v-3.623h12.233v3.623zm281.341 62.212v-.705c0-5.748-.024-11.489.005-17.236.021-5.233 3.289-9.264 8.334-10.344 4.277-.908 8.964 1.317 11.02 5.205.864 1.634 1.226 3.366 1.211 5.213-.028 5.688-.012 11.376-.005 17.064v.803h-20.565zm16.848-36.742c-.021 3.584-3.004 6.507-6.612 6.479-3.604-.026-6.486-2.969-6.46-6.602.032-3.632 2.99-6.583 6.545-6.534 3.657.049 6.54 2.994 6.527 6.657zm11.866 36.742v-.705c0-5.748-.018-11.489.009-17.236.021-5.233 3.291-9.264 8.336-10.344 4.276-.908 8.964 1.317 11.019 5.205.864 1.634 1.219 3.366 1.206 5.213-.025 5.688-.004 11.376 0 17.064v.803h-20.57zm16.848-36.742c-.017 3.584-2.999 6.507-6.607 6.479-3.608-.026-6.485-2.969-6.465-6.602.033-3.632 2.994-6.583 6.553-6.534 3.653.049 6.535 2.994 6.519 6.657zm-74.281 36.742v-.705c0-5.748-.021-11.489.005-17.236.021-5.233 3.295-9.264 8.336-10.344 4.281-.908 8.967 1.317 11.021 5.205.86 1.634 1.221 3.366 1.211 5.213-.033 5.688-.013 11.376-.008 17.064v.803h-20.565zm16.848-36.742c-.021 3.584-3.003 6.507-6.605 6.479-3.608-.026-6.49-2.969-6.466-6.602.033-3.632 2.99-6.583 6.55-6.534 3.657.049 6.535 2.994 6.521 6.657z" fill="#FFF"/><path d="M617.193-78.606v-.497c0-4.006-.013-8.012.004-12.018.019-3.65 2.298-6.459 5.818-7.211 2.98-.638 6.247.915 7.68 3.629.604 1.139.854 2.346.844 3.633-.017 3.969-.008 7.937 0 11.904v.56h-14.346zm11.753-25.623c-.017 2.5-2.097 4.535-4.611 4.517s-4.527-2.072-4.507-4.604c.021-2.529 2.09-4.589 4.566-4.556 2.551.031 4.555 2.086 4.552 4.643zm-40.575 25.623v-.497c0-4.006-.012-8.012.004-12.018.018-3.65 2.299-6.459 5.813-7.211 2.982-.638 6.251.915 7.685 3.629.599 1.139.849 2.346.841 3.633-.017 3.969-.009 7.937 0 11.904v.56h-14.343zm11.748-25.623c-.017 2.5-2.097 4.535-4.61 4.517-2.515-.019-4.521-2.072-4.507-4.604.021-2.529 2.089-4.589 4.57-4.556a4.59 4.59 0 0 1 4.547 4.643zm-313.61-72.724a2.139 2.139 0 0 1-2.138-2.14l-.008-67.777c0-1.182.957-2.141 2.138-2.141s2.138.959 2.138 2.141l.008 67.777c0 1.183-.957 2.14-2.138 2.14z" fill="#FFF"/><path fill="#FFF" d="M286.439-175.8l-8.681-10.621a2.138 2.138 0 1 1 3.312-2.707l5.51 6.742 5.797-6.504a2.138 2.138 0 0 1 3.193 2.844l-9.131 10.246zm7.221-60.277c-.619 0-1.234-.27-1.657-.785l-5.514-6.744-5.793 6.506a2.14 2.14 0 0 1-3.018.174 2.137 2.137 0 0 1-.175-3.019l9.126-10.248 8.686 10.624a2.141 2.141 0 0 1-1.655 3.492z"/><linearGradient id="b" gradientUnits="userSpaceOnUse" x1="-1833.105" y1="4876.569" x2="-1779.006" y2="4876.569" gradientTransform="matrix(0 1 1 0 -4354.87 1620.233)"><stop offset="0" stop-color="#706dcb" stop-opacity="0"/><stop offset="1" stop-color="#706dcb" stop-opacity=".7"/></linearGradient><path fill="url(#b)" d="M655.896-180.415c0 11.955-9.689 21.643-21.644 21.643H409.146c-11.953 0-21.645-9.688-21.645-21.643v-10.818c0-11.951 9.69-21.639 21.645-21.639h225.108c11.952 0 21.643 9.688 21.643 21.639l-.001 10.818z"/><path fill="#FFF" d="M634.037-151.856H408.925c-13.111 0-23.777-10.668-23.777-23.779v-10.818c0-13.113 10.666-23.78 23.777-23.78h225.112c13.111 0 23.776 10.667 23.776 23.78v10.818c0 13.111-10.665 23.779-23.776 23.779zm-225.112-54.102c-10.752 0-19.5 8.75-19.5 19.504v10.818c0 10.754 8.749 19.503 19.5 19.503h225.112c10.752 0 19.5-8.749 19.5-19.503v-10.818c0-10.754-8.748-19.504-19.5-19.504H408.925z"/><path d="M468.852-176.944l3.246-1.882c.589 1.364 1.6 2.28 3.458 2.28 1.79 0 2.236-.704 2.236-1.34 0-1.012-.941-1.412-3.412-2.096-2.447-.681-4.848-1.855-4.848-5.009 0-3.178 2.685-5.013 5.53-5.013 2.704 0 4.821 1.296 6.021 3.718l-3.176 1.858c-.563-1.176-1.341-1.904-2.847-1.904-1.178 0-1.764.587-1.764 1.247 0 .751.398 1.271 2.962 2.045 2.493.752 5.294 1.623 5.294 5.106 0 3.174-2.541 5.059-6.116 5.059-3.456.003-5.667-1.647-6.584-4.069zm23.995 1.155h-6.116l-.825 2.587h-4.116l5.599-16.469h4.799l5.601 16.469h-4.118l-.824-2.587zm-1.13-3.532l-1.931-6.045-1.927 6.045h3.858zm20.417-10.35v16.469h-2.824l-6.353-8.939v8.939h-3.763v-16.469h2.823l6.353 8.938v-8.938h3.764zm17.407 8.234c0 4.657-3.457 8.233-8 8.233h-6.586v-16.47h6.586c4.543.003 8 3.579 8 8.237zm-3.623 0c0-2.824-1.786-4.611-4.377-4.611h-2.822v9.223h2.822c2.59 0 4.377-1.789 4.377-4.612zm17.97 3.412c0 2.914-2.376 4.822-5.317 4.822h-6.916v-16.47h6.447c2.869 0 5.197 1.858 5.197 4.705 0 1.365-.541 2.447-1.435 3.225 1.223.775 2.024 2.048 2.024 3.718zm-8.47-8.119v2.918h2.685c.846 0 1.435-.61 1.435-1.459 0-.847-.563-1.459-1.435-1.459h-2.685zm4.707 7.834c0-.916-.61-1.574-1.555-1.574h-3.151v3.151h3.151c.944.001 1.555-.657 1.555-1.577zm4.938-3.127c0-4.848 3.834-8.564 8.563-8.564 4.729 0 8.563 3.718 8.563 8.564s-3.834 8.563-8.563 8.563c-4.729.002-8.563-3.717-8.563-8.563zm13.363 0c0-2.941-2.117-4.894-4.8-4.894-2.682 0-4.801 1.95-4.801 4.894 0 2.938 2.119 4.891 4.801 4.891 2.683 0 4.8-1.951 4.8-4.891zm13.595 8.235l-2.778-4.754-2.773 4.754h-4.281l4.916-8.445-4.682-8.023h4.281l2.539 4.354 2.542-4.354h4.281l-4.68 8.023 4.916 8.445h-4.281zm-146.583-3.738a2.138 2.138 0 0 1-2.138-2.137l-.013-67.78c0-1.182.957-2.138 2.139-2.138 1.181 0 2.139.956 2.139 2.138l.012 67.78c0 1.18-.958 2.137-2.139 2.137z" fill="#FFF"/><path fill="#FFF" d="M425.37-175.783l-8.686-10.624a2.137 2.137 0 1 1 3.309-2.706l5.515 6.743 5.794-6.506a2.139 2.139 0 0 1 3.193 2.846l-9.125 10.247zm7.221-60.279a2.134 2.134 0 0 1-1.656-.785l-5.519-6.746-5.795 6.504a2.138 2.138 0 0 1-3.193-2.844l9.126-10.248 8.688 10.625a2.137 2.137 0 0 1-.301 3.008 2.118 2.118 0 0 1-1.35.486zm177.518 115.47a2.14 2.14 0 0 1-2.139-2.141l-.009-67.78a2.139 2.139 0 0 1 4.279 0l.008 67.78a2.14 2.14 0 0 1-2.139 2.141z"/><path fill="#FFF" d="M610.039-119.438l-8.682-10.624a2.14 2.14 0 0 1 3.314-2.707l5.51 6.744 5.796-6.505a2.137 2.137 0 0 1 3.02-.175c.884.785.961 2.138.176 3.019l-9.134 10.248zm7.222-60.28a2.143 2.143 0 0 1-1.657-.784l-5.514-6.743-5.794 6.504a2.14 2.14 0 0 1-3.02.173 2.136 2.136 0 0 1-.173-3.017l9.124-10.247 8.688 10.624a2.14 2.14 0 0 1-1.654 3.49zm56.012 79.158v16.468h-3.763v-16.468h3.763zm15.763 0v16.468h-2.822l-6.353-8.939v8.939h-3.764v-16.468h2.823l6.353 8.94v-8.94h3.763zm13.88 3.623h-4.235v12.845h-3.766v-12.845h-4.232v-3.623h12.233v3.623zm11.994 9.222v3.623h-10.352v-16.468h10.23v3.623h-6.468v2.73h5.882v3.574h-5.882v2.916l6.59.002zm7.669-1.786h-1.79v5.409h-3.764v-16.468h6.587a5.633 5.633 0 0 1 5.646 5.646c0 2.021-1.224 3.859-3.033 4.774l3.504 6.046h-4.046l-3.104-5.407zm-1.79-3.295h2.823c1.034 0 1.884-.917 1.884-2.116s-.85-2.117-1.884-2.117h-2.823v4.233zm23.641-7.764v16.468h-2.823l-6.354-8.939v8.939h-3.764v-16.468h2.824l6.352 8.94v-8.94h3.765zm13.174 12.845v3.623H747.25v-16.468h10.233v3.623h-6.471v2.73h5.883v3.574h-5.883v2.916l6.592.002zm13.171-9.222h-4.234v12.845h-3.766v-12.845h-4.233v-3.623h12.233v3.623zM384.366-380.793a2.14 2.14 0 0 1-2.138-2.14l-.008-46.396a2.139 2.139 0 0 1 4.277 0l.009 46.396a2.141 2.141 0 0 1-2.14 2.14z"/><path fill="#FFF" d="M384.296-379.639l-8.683-10.625a2.14 2.14 0 1 1 3.314-2.705l5.51 6.743 5.797-6.505a2.138 2.138 0 1 1 3.194 2.846l-9.132 10.246zm7.222-38.895a2.138 2.138 0 0 1-1.657-.785l-5.513-6.745-5.793 6.505a2.14 2.14 0 0 1-3.02.174 2.137 2.137 0 0 1-.174-3.018l9.125-10.248 8.688 10.625a2.14 2.14 0 0 1-1.656 3.492zm324.518-10.667h-6.117l-.823 2.588h-4.117l5.6-16.468h4.798l5.602 16.468h-4.117l-.826-2.588zm-1.129-3.529l-1.931-6.046-1.929 6.046h3.86zm17.123 2.493v3.624h-9.646v-16.468h3.763v12.844h5.883zm17.009-4.139c0 5.033-3.507 8.092-8.116 8.092-5.176 0-8.893-3.812-8.893-8.539 0-4.776 3.787-8.587 8.632-8.587 3.154 0 5.813 1.552 7.2 3.764l-3.199 1.835c-.683-1.082-2.165-1.929-4.022-1.929-2.775 0-4.847 2.047-4.847 4.94 0 2.799 1.979 4.847 5.177 4.847 2.188 0 3.623-.964 4.21-2.541h-4.398v-3.293h8.258l-.002 1.411zm1.407-.471c0-4.846 3.834-8.563 8.564-8.563 4.728 0 8.563 3.717 8.563 8.563s-3.835 8.563-8.563 8.563c-4.73 0-8.564-3.718-8.564-8.563zm13.364 0c0-2.94-2.118-4.893-4.799-4.893-2.684 0-4.803 1.953-4.803 4.893s2.119 4.894 4.803 4.894c2.68-.001 4.799-1.955 4.799-4.894zm11.43 2.822h-1.789v5.412h-3.764v-16.468h6.586a5.631 5.631 0 0 1 5.646 5.646c0 2.023-1.224 3.859-3.033 4.775l3.505 6.047h-4.045l-3.106-5.412zm-1.789-3.294h2.822c1.037 0 1.884-.917 1.884-2.117 0-1.199-.847-2.117-1.884-2.117h-2.822v4.234zm14.464-7.762v16.468h-3.762v-16.468h3.762zm13.883 3.622h-4.236v12.846h-3.766v-12.846h-4.231v-3.623h12.233v3.623zm14.348-3.622v16.468h-3.762v-6.541h-5.179v6.541h-3.764v-16.468h3.764v6.305h5.179v-6.305h3.762zm19.289 16.468h-3.766v-9.575l-4.258 6.987h-.422l-4.261-6.987v9.575h-3.763v-16.468h3.763l4.472 7.316 4.469-7.316h3.766v16.468zm7.995-8.234c0-4.846 3.834-8.563 8.563-8.563 4.728 0 8.561 3.717 8.561 8.563s-3.833 8.563-8.561 8.563c-4.729 0-8.563-3.718-8.563-8.563zm13.362 0c0-2.94-2.116-4.893-4.798-4.893-2.686 0-4.802 1.953-4.802 4.893s2.116 4.894 4.802 4.894c2.681-.001 4.798-1.955 4.798-4.894zm9.643-4.612v3.177h6.117v3.622h-6.117v6.047h-3.764v-16.468h9.997v3.623l-6.233-.001zm-119.656 36.368h-3.766v-9.575l-4.257 6.987h-.423l-4.261-6.987v9.575h-3.763v-16.468h3.763l4.473 7.316 4.468-7.316h3.766v16.468zm2.702-5.317v-11.152h3.764v10.822c0 1.247.588 2.306 2.587 2.306 2 0 2.589-1.059 2.589-2.306v-10.822h3.765v11.152c0 3.529-2.73 5.646-6.354 5.646s-6.351-2.116-6.351-5.646zm25.052 1.693v3.624h-9.646v-16.468h3.764v12.844h5.882zm11.057-9.221h-4.234v12.845h-3.767v-12.845h-4.232v-3.623h12.232l.001 3.623zm5.408-3.623v16.468h-3.763v-16.468h3.763zm12.47 12.844v3.624h-9.646v-16.468h3.764v12.844h5.882zm11.994 0v3.624h-10.351v-16.468h10.231v3.623h-6.469v2.73h5.884v3.574h-5.884v2.917h6.589zm.704-12.844h4.117l3.646 12.116 3.646-12.116h4.115l-5.363 16.468h-4.798l-5.363-16.468zm27.287 12.844v3.624h-10.351v-16.468h10.23v3.623h-6.468v2.73h5.882v3.574h-5.882v2.917h6.589zm11.763 0v3.624h-9.646v-16.468h3.763v12.844h5.883zm-139.512 10.679h4.114l3.648 12.116 3.647-12.116h4.115l-5.363 16.468h-4.8l-5.361-16.468zm27.287 12.844v3.623H732.64v-16.468h10.231v3.622h-6.469v2.729h5.882v3.576h-5.882v2.917l6.589.001zm7.667-1.788h-1.789v5.411h-3.764v-16.468h6.588a5.631 5.631 0 0 1 5.646 5.646c0 2.022-1.224 3.857-3.034 4.774l3.504 6.047h-4.044l-3.107-5.41zm-1.789-3.294h2.824c1.035 0 1.884-.916 1.884-2.116 0-1.2-.849-2.117-1.884-2.117h-2.824v4.233zm14.468-7.762v16.468h-3.765v-16.468h3.765zm6.584 3.622v3.178h6.118v3.621h-6.118v6.047h-3.764v-16.468h9.999v3.622h-6.235zm12.231-3.622v16.468h-3.763v-16.468h3.763zm2.118 8.234c0-4.847 3.601-8.563 8.563-8.563 2.986 0 5.622 1.481 7.058 3.811l-3.245 1.881c-.73-1.269-2.141-2.021-3.813-2.021-2.918 0-4.801 1.952-4.801 4.894 0 2.939 1.883 4.893 4.801 4.893 1.672 0 3.105-.752 3.813-2.023l3.245 1.882c-1.412 2.33-4.045 3.813-7.058 3.813-4.963-.004-8.563-3.721-8.563-8.567zm27.029 5.646h-6.116l-.825 2.587h-4.116l5.6-16.468h4.799l5.602 16.468h-4.119l-.825-2.587zm-1.13-3.53l-1.93-6.046-1.927 6.046h3.857zm17.361-6.728h-4.234v12.846h-3.765v-12.846h-4.232v-3.622h12.231v3.622zm5.407-3.622v16.468h-3.762v-16.468h3.762zm2.118 8.234c0-4.847 3.834-8.563 8.563-8.563 4.728 0 8.563 3.717 8.563 8.563s-3.836 8.563-8.563 8.563c-4.729 0-8.563-3.717-8.563-8.563zm13.364 0c0-2.941-2.117-4.894-4.8-4.894-2.684 0-4.801 1.952-4.801 4.894 0 2.939 2.117 4.893 4.801 4.893 2.682 0 4.8-1.954 4.8-4.893zm18.816-8.234v16.468h-2.822l-6.354-8.94v8.94h-3.764v-16.468h2.822l6.354 8.938v-8.938h3.764z"/><path d="M664.092-313.658l76.47-.011m-8.342-7.402l8.374 7.464-8.687 7.096" fill="none" stroke="#FFF" stroke-width="2" stroke-linecap="round" stroke-miterlimit="10"/><g fill="#FFF"><path d="M781.866-292.863v-.704c0-5.747-.023-11.49.004-17.236.021-5.234 3.292-9.265 8.333-10.341 4.28-.911 8.969 1.314 11.022 5.203.864 1.633 1.223 3.368 1.206 5.213-.025 5.688-.007 11.379 0 17.065v.801l-20.565-.001zm16.846-36.739c-.021 3.583-3 6.504-6.607 6.477-3.609-.027-6.491-2.97-6.466-6.603.033-3.629 2.989-6.583 6.549-6.532 3.658.049 6.535 2.993 6.524 6.658zm11.868 36.739v-.704c0-5.747-.021-11.49.011-17.236.021-5.234 3.289-9.265 8.336-10.341 4.276-.911 8.959 1.314 11.013 5.203.865 1.633 1.219 3.368 1.212 5.213-.03 5.688-.01 11.379 0 17.065v.801l-20.572-.001zm16.845-36.739c-.018 3.583-2.999 6.504-6.604 6.477-3.608-.027-6.49-2.97-6.464-6.603.032-3.629 2.992-6.583 6.548-6.532 3.658.049 6.536 2.993 6.52 6.658zm-74.28 36.739v-.704c0-5.747-.021-11.49.009-17.236.021-5.234 3.294-9.265 8.332-10.341 4.284-.911 8.971 1.314 11.025 5.203.855 1.633 1.216 3.368 1.206 5.213-.028 5.688-.013 11.379-.003 17.065v.801l-20.569-.001zm16.852-36.739c-.024 3.583-3.003 6.504-6.611 6.477-3.607-.027-6.49-2.97-6.46-6.603.028-3.629 2.988-6.583 6.547-6.532 3.659.049 6.532 2.993 6.524 6.658z"/><path d="M799.359-310.884v-.496c0-4.006-.014-8.01.003-12.02.014-3.65 2.292-6.459 5.814-7.211 2.985-.638 6.252.915 7.684 3.63.597 1.138.849 2.345.839 3.635-.016 3.967-.004 7.935 0 11.901v.561h-14.34zm11.748-25.623c-.014 2.501-2.093 4.536-4.611 4.519-2.514-.02-4.522-2.075-4.507-4.604.021-2.532 2.087-4.591 4.569-4.558 2.548.033 4.556 2.087 4.549 4.643zm-40.571 25.623v-.496c0-4.006-.018-8.01 0-12.02.018-3.65 2.296-6.459 5.818-7.211 2.98-.638 6.251.915 7.68 3.63.604 1.138.849 2.345.843 3.635-.017 3.967-.008 7.935 0 11.901v.561h-14.341zm11.748-25.623c-.017 2.501-2.097 4.536-4.61 4.519-2.515-.02-4.527-2.075-4.507-4.604.021-2.532 2.084-4.591 4.565-4.558a4.595 4.595 0 0 1 4.552 4.643z"/></g><path d="M739.488-265.021c0-4.846 3.836-8.563 8.564-8.563s8.563 3.718 8.563 8.563c0 4.846-3.834 8.563-8.563 8.563-4.729.001-8.564-3.717-8.564-8.563zm13.364 0c0-2.938-2.117-4.893-4.799-4.893-2.684 0-4.803 1.953-4.803 4.893 0 2.94 2.119 4.896 4.803 4.896 2.681.001 4.799-1.954 4.799-4.896zm9.641-4.609v3.176h6.119v3.623h-6.119v6.045h-3.763v-16.467h10v3.623h-6.237zm12.232 0v3.176h6.117v3.623h-6.117v6.045h-3.765v-16.467h10v3.623h-6.235zm12.232-3.623v16.467h-3.764v-16.467h3.764zm2.115 8.232c0-4.846 3.602-8.563 8.564-8.563 2.986 0 5.622 1.482 7.056 3.813l-3.244 1.883c-.73-1.271-2.142-2.023-3.812-2.023-2.917 0-4.802 1.953-4.802 4.893 0 2.94 1.885 4.896 4.802 4.896 1.67 0 3.104-.754 3.812-2.025l3.244 1.883c-1.411 2.33-4.044 3.812-7.056 3.812-4.963-.004-8.564-3.723-8.564-8.569zm27.736 4.612v3.623h-10.354v-16.467h10.233v3.623h-6.47v2.729h5.882v3.576h-5.882v2.916h6.591zm7.668-1.787h-1.79v5.409h-3.763v-16.468h6.586a5.633 5.633 0 0 1 5.646 5.646c0 2.021-1.224 3.859-3.034 4.775l3.505 6.045h-4.045l-3.105-5.407zm-1.79-3.295h2.823c1.035 0 1.885-.917 1.885-2.116 0-1.198-.85-2.116-1.885-2.116h-2.823v4.232zm9.645 4.966l3.247-1.885c.588 1.366 1.6 2.285 3.457 2.285 1.79 0 2.237-.707 2.237-1.343 0-1.014-.942-1.412-3.412-2.094-2.448-.683-4.848-1.857-4.848-5.013 0-3.175 2.684-5.011 5.528-5.011 2.705 0 4.822 1.294 6.022 3.718l-3.176 1.858c-.563-1.178-1.342-1.905-2.848-1.905-1.177 0-1.763.589-1.763 1.246 0 .754.397 1.27 2.962 2.047 2.494.754 5.294 1.623 5.294 5.104 0 3.176-2.541 5.059-6.116 5.059-3.455.003-5.666-1.644-6.584-4.066z" fill="#FFF"/><linearGradient id="c" gradientUnits="userSpaceOnUse" x1="-3661.919" y1="-1354.921" x2="-3553.399" y2="-1354.921" gradientTransform="matrix(0 -1 -1 0 -973.285 -3927.256)"><stop offset="0" stop-color="#706dcb" stop-opacity=".3"/><stop offset="1" stop-color="#706dcb"/></linearGradient><path fill="url(#c)" d="M101.324-358.472c0-8.494 6.883-15.384 15.382-15.384h529.859c8.496 0 15.383 6.89 15.383 15.384v77.75c0 8.496-6.887 15.385-15.383 15.385H116.708c-8.5 0-15.382-6.889-15.382-15.385l-.002-77.75z"/><path fill="#FFF" d="M646.566-259.354H116.711c-9.664 0-17.525-7.859-17.525-17.523v-77.747c0-9.662 7.861-17.522 17.525-17.522h529.855c9.664 0 17.525 7.86 17.525 17.522v77.747c.001 9.663-7.861 17.523-17.525 17.523zM116.711-367.871c-7.305 0-13.248 5.943-13.248 13.246v77.747c0 7.305 5.943 13.248 13.248 13.248h529.855c7.305 0 13.248-5.943 13.248-13.248v-77.747c0-7.303-5.943-13.246-13.248-13.246H116.711z"/><path d="M305.32-324.441h-10.01l-1.348 4.235h-6.738l9.163-26.951h7.854l9.163 26.951h-6.737l-1.347-4.235zm-1.847-5.776l-3.158-9.894-3.158 9.894h6.316zm21.321 1.154h-2.926v8.857h-6.16v-26.951h10.782c5.12 0 9.24 4.119 9.24 9.24 0 3.309-2.003 6.316-4.968 7.815l5.738 9.896h-6.623l-5.083-8.857zm-2.926-5.389h4.622c1.693 0 3.08-1.501 3.08-3.464 0-1.965-1.387-3.466-3.08-3.466h-4.622v6.93zm35.031-6.776h-6.931v21.022h-6.16v-21.022h-6.933v-5.929h20.023v5.929zm8.848-5.929v26.951h-6.16v-26.951h6.16zm10.778 5.929v5.197h10.012v5.93h-10.012v9.896h-6.161v-26.951h16.364v5.929l-10.203-.001zm20.014-5.929v26.951h-6.161v-26.951h6.161zm3.462 13.476c0-7.931 5.892-14.016 14.016-14.016 4.891 0 9.203 2.426 11.552 6.239l-5.315 3.078c-1.191-2.079-3.504-3.312-6.236-3.312-4.774 0-7.854 3.195-7.854 8.01 0 4.813 3.081 8.008 7.854 8.008 2.732 0 5.083-1.232 6.236-3.311l5.315 3.079c-2.312 3.813-6.625 6.237-11.552 6.237-8.124.002-14.016-6.08-14.016-14.012zm34.605-13.476v26.951h-6.16v-26.951h6.16zm20.405 22.716h-10.012l-1.347 4.235h-6.739l9.164-26.951h7.854l9.166 26.951h-6.739l-1.347-4.235zm-1.849-5.776l-3.157-9.894-3.157 9.894h6.314zm28.024 4.083v5.929h-15.787v-26.951h6.16v21.022h9.627zm-213.072 13.191v26.951h-6.161v-26.951h6.161zm25.794 0v26.951h-4.621l-10.396-14.63v14.63h-6.16v-26.951h4.621l10.396 14.63v-14.63h6.16zm22.708 5.928h-6.931v21.022h-6.16v-21.022h-6.931v-5.929h20.022v5.929zm19.632 15.095v5.929h-16.941v-26.951h16.75v5.93h-10.589v4.467h9.627v5.852h-9.627v4.775l10.78-.002zm19.243 0v5.929h-15.787v-26.951h6.16v21.021l9.627.001zm18.478 0v5.929h-15.787v-26.951h6.161v21.021l9.626.001zm8.847-21.023v26.951h-6.16v-26.951h6.16zm31.3 14.247c0 8.237-5.735 13.244-13.284 13.244-8.469 0-14.552-6.237-14.552-13.979 0-7.813 6.2-14.052 14.131-14.052 5.158 0 9.511 2.542 11.782 6.161l-5.237 3.001c-1.117-1.771-3.542-3.155-6.585-3.155-4.542 0-7.931 3.351-7.931 8.086 0 4.58 3.235 7.93 8.471 7.93 3.581 0 5.931-1.578 6.894-4.157h-7.201v-5.392h13.514l-.002 2.313zm20.399 6.776v5.929h-16.942v-26.951h16.75v5.93h-10.589v4.467h9.627v5.852h-9.627v4.775l10.781-.002zm24.634-21.023v26.951h-4.621l-10.396-14.63v14.63h-6.159v-26.951h4.621l10.396 14.63v-14.63h6.159zm3.457 13.475c0-7.932 5.891-14.014 14.015-14.014 4.892 0 9.203 2.424 11.553 6.237l-5.315 3.078c-1.192-2.079-3.504-3.31-6.237-3.31-4.773 0-7.854 3.194-7.854 8.008s3.08 8.008 7.854 8.008c2.733 0 5.083-1.23 6.237-3.312l5.315 3.081c-2.313 3.813-6.624 6.237-11.553 6.237-8.124.004-14.015-6.08-14.015-14.013zm45.388 7.548v5.929h-16.941v-26.951h16.75v5.93h-10.591v4.467h9.628v5.852h-9.628v4.775l10.782-.002z" fill="#FFF"/><linearGradient id="d" gradientUnits="userSpaceOnUse" x1="-3481.654" y1="-1354.922" x2="-3360.306" y2="-1354.922" gradientTransform="matrix(0 -1 -1 0 -973.285 -3927.256)"><stop offset="0" stop-color="#706dcb" stop-opacity="0"/><stop offset="1" stop-color="#706dcb" stop-opacity=".7"/></linearGradient><path fill="url(#d)" d="M101.324-551.566c0-8.495 6.883-15.384 15.383-15.384h529.859c8.496 0 15.383 6.889 15.383 15.384v90.579c0 8.498-6.887 15.385-15.383 15.385H116.708c-8.5 0-15.382-6.887-15.382-15.385l-.002-90.579z"/><path fill="#FFF" d="M646.566-439.617H116.711c-9.664 0-17.525-7.862-17.525-17.526v-90.576c0-9.663 7.861-17.523 17.525-17.523h529.855c9.664 0 17.525 7.86 17.525 17.523v90.576c.001 9.664-7.861 17.526-17.525 17.526zM116.711-560.965c-7.305 0-13.248 5.942-13.248 13.246v90.576c0 7.306 5.943 13.249 13.248 13.249h529.855c7.305 0 13.248-5.943 13.248-13.249v-90.576c0-7.304-5.943-13.246-13.248-13.246H116.711z"/><defs><path id="e" d="M520.845-370.008h138.736v107.779H520.845z"/></defs><clipPath id="f"><use xlink:href="#e" overflow="visible"/></clipPath><g opacity=".4" clip-path="url(#f)"><path fill="#FFF" d="M579.421-276.647c2.121.453 4.242.896 6.356 1.383l6.348 1.431c4.228.933 8.434 1.961 12.65 2.95 4.211 1.025 8.422 2.024 12.623 3.08 4.201 1.063 8.412 2.1 12.597 3.181l-1.106 2.093-7.255-6.328c-2.418-2.1-4.816-4.238-7.224-6.361l-7.203-6.395-7.153-6.434-7.13-6.473c-2.381-2.156-4.729-4.347-7.089-6.527-2.371-2.168-4.687-4.395-7.023-6.59a432.31 432.31 0 0 1-6.972-6.647c2.522 1.996 5 4.031 7.489 6.063 2.478 2.041 4.981 4.055 7.431 6.123 2.468 2.053 4.939 4.104 7.388 6.181l7.34 6.239 7.305 6.271 7.252 6.324c2.421 2.107 4.851 4.21 7.239 6.344l7.213 6.377.01.008a1.23 1.23 0 0 1 .108 1.719 1.248 1.248 0 0 1-1.232.369c-4.186-1.115-8.354-2.281-12.528-3.431-4.178-1.146-8.346-2.336-12.521-3.508-4.151-1.215-8.319-2.39-12.48-3.656l-6.214-1.864c-2.085-.616-4.148-1.272-6.219-1.922z"/><path fill="#FFF" d="M650.271-328.538c-.747 2.748-1.492 5.501-2.281 8.226l-2.319 8.219c-.767 2.742-1.589 5.463-2.383 8.199l-2.408 8.187a2034.593 2034.593 0 0 1-4.941 16.333c-1.643 5.451-3.362 10.874-5.063 16.307l-1.964-1.345c5.06-4.14 10.18-8.202 15.278-12.304l7.669-6.1 7.696-6.078 7.727-6.039 7.764-5.996 7.815-5.93a497.982 497.982 0 0 1 7.854-5.874 647.415 647.415 0 0 1-7.406 6.437l-7.438 6.395-7.488 6.324-7.526 6.29-7.564 6.249-7.569 6.218c-5.082 4.116-10.133 8.272-15.24 12.351l-.008.004a1.244 1.244 0 0 1-1.75-.2 1.266 1.266 0 0 1-.213-1.154c1.735-5.419 3.44-10.84 5.231-16.239a1651.744 1651.744 0 0 1 5.352-16.209l2.727-8.093c.923-2.69 1.805-5.396 2.761-8.073l2.816-8.066a567.756 567.756 0 0 1 2.871-8.039zm-48.239-45.495a532.596 532.596 0 0 1-6.081 7.979 788.79 788.79 0 0 1-6.174 7.896c-2.055 2.634-4.168 5.221-6.247 7.833-2.089 2.612-4.21 5.188-6.314 7.782l-.697-1.879c3.111.448 6.229.915 9.352 1.397l9.359 1.447 9.342 1.509c3.113.503 6.217 1.044 9.327 1.57 3.103.519 6.223 1.063 9.318 1.621 3.109.558 6.214 1.111 9.316 1.698a709.072 709.072 0 0 1 18.578 3.693 654.48 654.48 0 0 1-18.812-2.21 855.179 855.179 0 0 1-9.387-1.25 687.205 687.205 0 0 1-9.367-1.329c-3.128-.461-6.247-.889-9.358-1.376l-9.36-1.435-9.343-1.505a775.786 775.786 0 0 1-9.334-1.553l-.025-.006a1.143 1.143 0 0 1-.68-1.871c2.178-2.537 4.332-5.087 6.537-7.591 2.205-2.511 4.378-5.055 6.6-7.551a795.675 795.675 0 0 1 6.674-7.479 462.293 462.293 0 0 1 6.776-7.39zm-60.042 64.67a309.08 309.08 0 0 1 4.724 3.746l4.67 3.827 4.614 3.869 4.578 3.904c1.537 1.305 3.035 2.635 4.548 3.949l4.544 3.969c2.986 2.68 6.015 5.321 8.968 8.033l-2.039 1.246c-.89-3.447-1.813-6.881-2.65-10.345l-1.299-5.179-1.241-5.2c-.405-1.735-.831-3.462-1.212-5.199l-1.182-5.213c-.751-3.479-1.5-6.96-2.162-10.476 1.173 3.376 2.236 6.777 3.303 10.176l1.57 5.109c.525 1.697 1.022 3.405 1.523 5.118l1.487 5.121 1.449 5.144c.989 3.429 1.888 6.871 2.828 10.301a1.254 1.254 0 0 1-.875 1.539c-.416.109-.839 0-1.156-.27l-.008-.016c-3.012-2.663-5.947-5.396-8.935-8.086l-4.428-4.09c-1.465-1.373-2.943-2.719-4.395-4.11l-4.367-4.151-4.336-4.189-4.289-4.235a408.203 408.203 0 0 1-4.232-4.292z"/><path fill="#FFF" d="M556.524-343.912c-1.065 2.937-2.197 5.845-3.313 8.773-1.106 2.916-2.256 5.819-3.403 8.728-1.166 2.896-2.314 5.808-3.496 8.695-1.188 2.889-2.353 5.786-3.566 8.668l-.998-1.099a980.303 980.303 0 0 1 12.556-4.029 391.836 391.836 0 0 1 6.297-1.973l6.307-1.939-.425.909a972.578 972.578 0 0 1-4.335-11.969l-2.088-6.008c-.706-2.01-1.387-4.01-2.057-6.023a394.337 394.337 0 0 1 2.506 5.853l2.457 5.864c1.61 3.92 3.207 7.847 4.791 11.786a.666.666 0 0 1-.377.878l-.041.018-.011.004-6.264 2.092c-2.08.701-4.168 1.39-6.265 2.066a1214.548 1214.548 0 0 1-12.557 4.032h-.008a.82.82 0 0 1-.998-1.1c1.207-2.877 2.463-5.742 3.704-8.606 1.241-2.869 2.511-5.72 3.768-8.587 1.274-2.844 2.539-5.701 3.858-8.534 1.319-2.833 2.6-5.687 3.958-8.499zm42.556-28.931a406.455 406.455 0 0 1-5.024 3.669l-5.051 3.639a1083.2 1083.2 0 0 1-10.187 7.166l-10.249 7.048c-3.445 2.332-6.862 4.681-10.315 6.974l-.344-1.514 9.261 1.384 9.256 1.446h.017a.679.679 0 0 1 .556.764c-.018.041-.024.093-.051.132a827.083 827.083 0 0 1-4.436 11.077c-1.535 3.671-3.021 7.364-4.605 11.017 1.215-3.79 2.543-7.54 3.809-11.311 1.315-3.761 2.64-7.514 3.983-11.254l.534.9-9.283-1.225-9.268-1.286a.825.825 0 0 1-.711-.936.765.765 0 0 1 .344-.573l.016-.004c3.421-2.338 6.888-4.626 10.325-6.935l10.399-6.844c3.479-2.267 6.963-4.518 10.467-6.746l5.272-3.315c1.746-1.107 3.506-2.2 5.285-3.273zm-27.241 54.414a2847.8 2847.8 0 0 1 19.97-3.613l19.983-3.552 39.99-6.886c.191-.029.368-.008.543.053l.018.01c6.913 2.785 13.787 5.669 20.682 8.503l20.667 8.54c.509.212.789.72.722 1.232v.002l-2.885 23.324c-.949 7.771-1.988 15.537-2.987 23.308v.007c-.05.403-.31.739-.639.915l-14.986 7.75.46-1.635 11.424 18.787 5.697 9.396 5.65 9.427.007.021a.92.92 0 0 1-.315 1.278.95.95 0 0 1-.99-.008l-30.693-19.676-15.29-9.927c-5.107-3.291-10.2-6.617-15.272-9.961a3216.075 3216.075 0 0 1 15.615 9.42l15.582 9.465 31.058 19.085-1.299 1.288-5.822-9.327-5.784-9.349-11.535-18.707a1.15 1.15 0 0 1 .37-1.59l.067-.037.008-.008 14.937-7.837-.643.918c.973-7.771 1.898-15.552 2.905-23.313l3.021-23.306.714 1.23-20.614-8.651c-6.866-2.904-13.755-5.757-20.6-8.702l.547.063-40.118 6.169-20.074 2.983c-6.705 1-13.391 1.968-20.091 2.911z"/><path fill="#FFF" d="M582.022-346.441l11.297-7.87 11.327-7.837c7.568-5.213 15.104-10.463 22.695-15.625a.686.686 0 0 1 .957.179l.032.059.017.008 23.703 43.009-1.384-.469 44.196-19.918c.597-.267 1.299 0 1.565.595.072.188.122.373.105.565v.004l-1.111 18.329-.561 9.168-.589 9.16-.476-1.058 32.589 25.997-1.836 1.058-3.831-27.609-3.692-27.623.614.707-21.025-6.476.836-.972c3.884 8.307 7.693 16.654 11.523 24.987l5.738 12.501 5.7 12.523-6.103-12.335-6.058-12.35c-4.025-8.241-8.084-16.465-12.067-24.727a.713.713 0 0 1 .33-.937.688.688 0 0 1 .492-.034h.007l21.118 6.155c.32.103.563.381.604.693v.023l4.109 27.554 3.959 27.59a1.136 1.136 0 0 1-1.829 1.061l-.008-.004-32.721-25.827a1.251 1.251 0 0 1-.468-1.041v-.016l.572-9.166.603-9.159 1.206-18.32 1.671 1.162-44.285 19.682-.016.004c-.51.23-1.098.018-1.367-.469l-23.054-43.362.999.246c-7.646 5.091-15.341 10.095-23.021 15.13l-11.522 7.549-11.54 7.506zm21.964-27.176l-.141-.841 19.178-3.153.143.828z"/><path fill="#FFF" d="M690.714-355.082a.448.448 0 0 1-.144-.021l-57.114-20.119.275-.794 55.631 19.597-13.814-16.024-44.071-4.334.084-.836 44.242 4.346a.403.403 0 0 1 .274.147l14.96 17.347a.43.43 0 0 1 .025.516.436.436 0 0 1-.348.175zm-21.698 96.06h-.025l-34.135-2.531.065-.832 33.811 2.5 20.532-49.645.784.323-20.645 49.924c-.052.162-.22.261-.387.261zm25.924 31.677l-7.59-37.278a.417.417 0 0 1 .175-.435l36.037-24.16.455.709-35.786 23.994 7.531 37.006-.822.164zm18.719-121.477l-32.022-20.436.457-.711 32.016 20.434z"/><radialGradient id="g" cx="696.287" cy="733.323" r="12.145" gradientTransform="matrix(1 0 0 -1 0 509.512)" gradientUnits="userSpaceOnUse"><stop offset=".317" stop-color="#fff" stop-opacity=".7"/><stop offset=".322" stop-color="#fff" stop-opacity=".696"/><stop offset="1" stop-color="#fff" stop-opacity="0"/></radialGradient><path fill="url(#g)" d="M708.435-223.808c0 6.703-5.442 12.139-12.146 12.139-6.707 0-12.148-5.436-12.148-12.139 0-6.709 5.441-12.146 12.148-12.146 6.703 0 12.146 5.437 12.146 12.146z"/><radialGradient id="h" cx="629.431" cy="775.301" r="11.17" gradientTransform="matrix(1 0 0 -1 0 509.512)" gradientUnits="userSpaceOnUse"><stop offset=".317" stop-color="#fff" stop-opacity=".7"/><stop offset=".322" stop-color="#fff" stop-opacity=".696"/><stop offset="1" stop-color="#fff" stop-opacity="0"/></radialGradient><path fill="url(#h)" d="M640.604-265.789c0 6.161-5.01 11.166-11.174 11.166s-11.172-5.005-11.172-11.166c0-6.172 5.008-11.167 11.172-11.167s11.174 4.995 11.174 11.167z"/><radialGradient id="i" cx="647.459" cy="842.009" r="24.293" gradientTransform="matrix(1 0 0 -1 0 509.512)" gradientUnits="userSpaceOnUse"><stop offset=".317" stop-color="#fff" stop-opacity=".7"/><stop offset=".322" stop-color="#fff" stop-opacity=".696"/><stop offset="1" stop-color="#fff" stop-opacity="0"/></radialGradient><path fill="url(#i)" d="M671.752-332.497c0 13.419-10.872 24.292-24.299 24.292-13.416 0-24.287-10.873-24.287-24.292s10.871-24.292 24.287-24.292c13.427 0 24.299 10.873 24.299 24.292z"/><radialGradient id="j" cx="693.218" cy="823.792" r="8.37" gradientTransform="matrix(1 0 0 -1 0 509.512)" gradientUnits="userSpaceOnUse"><stop offset=".317" stop-color="#fff" stop-opacity=".7"/><stop offset=".322" stop-color="#fff" stop-opacity=".696"/><stop offset="1" stop-color="#fff" stop-opacity="0"/></radialGradient><path fill="url(#j)" d="M701.587-314.285c0 4.626-3.744 8.375-8.359 8.375a8.371 8.371 0 0 1-8.379-8.375c0-4.618 3.743-8.365 8.379-8.365 4.615-.001 8.359 3.746 8.359 8.365z"/><radialGradient id="k" cx="725.348" cy="801.769" r="16.29" gradientTransform="matrix(1 0 0 -1 0 509.512)" gradientUnits="userSpaceOnUse"><stop offset=".317" stop-color="#fff" stop-opacity=".7"/><stop offset=".322" stop-color="#fff" stop-opacity=".696"/><stop offset="1" stop-color="#fff" stop-opacity="0"/></radialGradient><path fill="url(#k)" d="M741.638-292.263c0 9-7.297 16.295-16.288 16.295-8.997 0-16.293-7.295-16.293-16.295 0-8.99 7.296-16.285 16.293-16.285 8.991 0 16.288 7.295 16.288 16.285z"/><radialGradient id="l" cx="576.816" cy="787.352" r="16.293" gradientTransform="matrix(1 0 0 -1 0 509.512)" gradientUnits="userSpaceOnUse"><stop offset=".317" stop-color="#fff" stop-opacity=".7"/><stop offset=".322" stop-color="#fff" stop-opacity=".696"/><stop offset="1" stop-color="#fff" stop-opacity="0"/></radialGradient><path fill="url(#l)" d="M593.107-277.845c0 9.002-7.289 16.299-16.285 16.299-9 0-16.297-7.297-16.297-16.299 0-8.994 7.297-16.291 16.297-16.291 8.996 0 16.285 7.297 16.285 16.291z"/><radialGradient id="m" cx="578.017" cy="853.426" r="8.599" gradientTransform="matrix(1 0 0 -1 0 509.512)" gradientUnits="userSpaceOnUse"><stop offset=".317" stop-color="#fff" stop-opacity=".7"/><stop offset=".322" stop-color="#fff" stop-opacity=".696"/><stop offset="1" stop-color="#fff" stop-opacity="0"/></radialGradient><path fill="url(#m)" d="M586.617-343.912c0 4.744-3.852 8.595-8.596 8.595-4.74 0-8.605-3.851-8.605-8.595 0-4.75 3.865-8.599 8.605-8.599a8.598 8.598 0 0 1 8.596 8.599z"/><radialGradient id="n" cx="627.457" cy="886.08" r="16.29" gradientTransform="matrix(1 0 0 -1 0 509.512)" gradientUnits="userSpaceOnUse"><stop offset=".317" stop-color="#fff" stop-opacity=".7"/><stop offset=".322" stop-color="#fff" stop-opacity=".696"/><stop offset="1" stop-color="#fff" stop-opacity="0"/></radialGradient><path fill="url(#n)" d="M643.747-376.568c0 8.999-7.288 16.29-16.279 16.29-8.996 0-16.302-7.291-16.302-16.29 0-8.992 7.306-16.289 16.302-16.289 8.991 0 16.279 7.297 16.279 16.289z"/><radialGradient id="o" cx="696.291" cy="862.275" r="11.237" gradientTransform="matrix(1 0 0 -1 0 509.512)" gradientUnits="userSpaceOnUse"><stop offset=".317" stop-color="#fff" stop-opacity=".7"/><stop offset=".322" stop-color="#fff" stop-opacity=".696"/><stop offset="1" stop-color="#fff" stop-opacity="0"/></radialGradient><path fill="url(#o)" d="M707.528-352.764c0 6.206-5.023 11.236-11.239 11.236-6.196 0-11.235-5.03-11.235-11.236 0-6.202 5.039-11.236 11.235-11.236 6.216 0 11.239 5.034 11.239 11.236z"/><radialGradient id="p" cx="554.492" cy="855.955" r="16.291" gradientTransform="matrix(1 0 0 -1 0 509.512)" gradientUnits="userSpaceOnUse"><stop offset=".317" stop-color="#fff" stop-opacity=".7"/><stop offset=".322" stop-color="#fff" stop-opacity=".696"/><stop offset="1" stop-color="#fff" stop-opacity="0"/></radialGradient><path fill="url(#p)" d="M570.783-346.441c0 8.995-7.297 16.291-16.297 16.291-8.988 0-16.285-7.296-16.285-16.291 0-8.999 7.297-16.294 16.285-16.294 9 0 16.297 7.295 16.297 16.294z"/></g><defs><path id="q" d="M102.542-370.008h138.736v107.779H102.542z"/></defs><clipPath id="r"><use xlink:href="#q" overflow="visible"/></clipPath><g opacity=".4" clip-path="url(#r)"><path fill="#FFF" d="M182.701-276.647c-2.122.453-4.243.896-6.356 1.383l-6.349 1.431c-4.227.933-8.433 1.961-12.651 2.95-4.21 1.025-8.42 2.024-12.622 3.08-4.201 1.063-8.412 2.1-12.597 3.181l1.107 2.093 7.255-6.328c2.418-2.1 4.816-4.238 7.221-6.361l7.205-6.395 7.154-6.434 7.129-6.473c2.38-2.156 4.728-4.347 7.087-6.527 2.373-2.168 4.687-4.395 7.025-6.59 2.342-2.192 4.673-4.4 6.97-6.647-2.522 1.996-4.999 4.031-7.488 6.063-2.477 2.041-4.982 4.055-7.43 6.123-2.468 2.053-4.941 4.104-7.388 6.181l-7.338 6.239-7.305 6.271-7.255 6.324c-2.418 2.107-4.849 4.21-7.238 6.344l-7.213 6.377-.008.008a1.23 1.23 0 0 0-.108 1.719c.317.354.801.478 1.231.369 4.185-1.115 8.354-2.281 12.53-3.431 4.176-1.146 8.345-2.336 12.521-3.508 4.152-1.215 8.32-2.39 12.479-3.656l6.215-1.864c2.082-.616 4.145-1.272 6.217-1.922z"/><path fill="#FFF" d="M111.85-328.538c.748 2.748 1.491 5.501 2.281 8.226l2.322 8.219c.764 2.742 1.587 5.463 2.381 8.199l2.409 8.187c1.625 5.45 3.271 10.899 4.941 16.333 1.641 5.451 3.361 10.874 5.062 16.307l1.963-1.345c-5.058-4.14-10.178-8.202-15.277-12.304l-7.668-6.1-7.697-6.078-7.726-6.039-7.765-5.996-7.814-5.93a512.19 512.19 0 0 0-7.853-5.874 656.097 656.097 0 0 0 7.406 6.437l7.438 6.395 7.489 6.324 7.526 6.29 7.563 6.249 7.572 6.218c5.084 4.116 10.132 8.272 15.241 12.351l.008.004c.535.428 1.324.34 1.75-.2.264-.334.33-.771.213-1.154-1.737-5.419-3.441-10.84-5.233-16.239a1651.64 1651.64 0 0 0-5.35-16.209l-2.728-8.093c-.922-2.69-1.804-5.396-2.761-8.073l-2.814-8.066a689.429 689.429 0 0 0-2.879-8.039zm48.239-45.495a532.596 532.596 0 0 0 6.081 7.979 774.328 774.328 0 0 0 6.173 7.896c2.055 2.634 4.168 5.221 6.249 7.833 2.087 2.612 4.209 5.188 6.315 7.782l.697-1.879c-3.112.448-6.231.915-9.352 1.397l-9.36 1.447-9.343 1.509c-3.111.503-6.215 1.044-9.326 1.57a745.936 745.936 0 0 0-9.317 1.621c-3.111.558-6.214 1.111-9.318 1.698a709.072 709.072 0 0 0-18.578 3.693 653.993 653.993 0 0 0 18.811-2.21c3.138-.395 6.266-.822 9.385-1.25a682.93 682.93 0 0 0 9.368-1.329c3.128-.461 6.249-.889 9.36-1.376l9.359-1.435 9.343-1.505a772.491 772.491 0 0 0 9.334-1.553l.025-.006c.63-.11 1.048-.705.94-1.321a1.154 1.154 0 0 0-.26-.55c-2.175-2.537-4.331-5.087-6.536-7.591-2.205-2.511-4.377-5.055-6.599-7.551a810.148 810.148 0 0 0-6.675-7.479 467.042 467.042 0 0 0-6.776-7.39zm60.042 64.67a309.08 309.08 0 0 0-4.724 3.746l-4.669 3.827-4.616 3.869-4.577 3.904c-1.537 1.305-3.036 2.635-4.548 3.949l-4.544 3.969c-2.987 2.68-6.015 5.321-8.967 8.033l2.039 1.246c.89-3.447 1.812-6.881 2.652-10.345l1.298-5.179 1.241-5.2c.405-1.735.831-3.462 1.211-5.199l1.182-5.213c.751-3.479 1.5-6.96 2.164-10.476-1.174 3.376-2.239 6.777-3.305 10.176l-1.57 5.109c-.526 1.697-1.023 3.405-1.524 5.118l-1.487 5.121-1.449 5.144c-.991 3.429-1.889 6.871-2.828 10.301a1.253 1.253 0 0 0 .872 1.539c.418.109.84 0 1.157-.27l.009-.016c3.011-2.663 5.948-5.396 8.933-8.086l4.428-4.09c1.465-1.373 2.944-2.719 4.393-4.11l4.369-4.151 4.335-4.189 4.29-4.235a372.701 372.701 0 0 0 4.235-4.292z"/><path fill="#FFF" d="M205.597-343.912c1.065 2.937 2.196 5.845 3.312 8.773 1.106 2.916 2.255 5.819 3.403 8.728 1.166 2.896 2.314 5.808 3.496 8.695 1.187 2.889 2.352 5.786 3.568 8.668l.998-1.099a990.254 990.254 0 0 0-12.554-4.029 398.378 398.378 0 0 0-6.298-1.973l-6.307-1.939.426.909a972.52 972.52 0 0 0 4.334-11.969l2.089-6.008c.706-2.01 1.387-4.01 2.055-6.023a416.694 416.694 0 0 0-2.506 5.853l-2.457 5.864a1630.36 1630.36 0 0 0-4.791 11.786.667.667 0 0 0 .376.878l.042.018.008.004 6.265 2.092c2.081.701 4.168 1.39 6.266 2.066 4.176 1.368 8.361 2.709 12.554 4.032h.008a.82.82 0 0 0 .998-1.1c-1.207-2.877-2.463-5.742-3.704-8.606-1.241-2.869-2.511-5.72-3.768-8.587-1.273-2.844-2.539-5.701-3.859-8.534-1.315-2.833-2.596-5.687-3.954-8.499zm-42.555-28.931a391.892 391.892 0 0 0 5.024 3.669l5.049 3.639c3.387 2.414 6.783 4.797 10.187 7.166l10.249 7.048c3.446 2.332 6.862 4.681 10.316 6.974l.343-1.514-9.26 1.384-9.256 1.446h-.016a.676.676 0 0 0-.556.764c.016.041.025.093.05.132a854.738 854.738 0 0 0 4.436 11.077c1.537 3.671 3.02 7.364 4.607 11.017-1.216-3.79-2.544-7.54-3.809-11.311-1.316-3.761-2.64-7.514-3.984-11.254l-.535.9 9.284-1.225 9.269-1.286a.823.823 0 0 0 .709-.936.775.775 0 0 0-.342-.573l-.017-.004c-3.421-2.338-6.887-4.626-10.325-6.935l-10.4-6.844a1115.65 1115.65 0 0 0-10.466-6.746l-5.275-3.315a271.905 271.905 0 0 0-5.282-3.273zm27.239 54.414a2868.433 2868.433 0 0 0-19.968-3.613l-19.985-3.552-39.991-6.886a1.106 1.106 0 0 0-.543.053l-.017.01c-6.912 2.785-13.787 5.669-20.683 8.503l-20.665 8.54c-.51.212-.79.72-.723 1.232v.002l2.886 23.324c.948 7.771 1.988 15.537 2.986 23.308v.007c.05.403.309.739.639.915l14.986 7.75-.459-1.635-11.423 18.787-5.696 9.396-5.652 9.427-.008.021a.92.92 0 0 0 .318 1.278.95.95 0 0 0 .99-.008l30.694-19.676 15.29-9.927c5.108-3.291 10.2-6.617 15.273-9.961a3265.306 3265.306 0 0 0-15.616 9.42l-15.583 9.465-31.057 19.085 1.299 1.288 5.822-9.327 5.785-9.349 11.535-18.707a1.151 1.151 0 0 0-.372-1.59l-.066-.037-.009-.008-14.935-7.837.643.918c-.973-7.771-1.9-15.552-2.907-23.313l-3.02-23.306-.714 1.23 20.615-8.651c6.866-2.904 13.753-5.757 20.599-8.702l-.548.063 40.12 6.169 20.073 2.983c6.702 1 13.389 1.968 20.087 2.911z"/><path fill="#FFF" d="M180.1-346.441l-11.298-7.87-11.327-7.837c-7.568-5.213-15.106-10.463-22.695-15.625a.686.686 0 0 0-.957.179l-.033.059-.017.008-23.702 43.009 1.383-.469-44.197-19.918a1.188 1.188 0 0 0-1.567.595c-.071.188-.12.373-.104.565v.004l1.111 18.329.56 9.168.589 9.16.476-1.058-32.59 25.997 1.837 1.058 3.83-27.609 3.692-27.623-.615.707 21.025-6.476-.835-.972c-3.885 8.307-7.693 16.654-11.523 24.987l-5.739 12.501-5.7 12.523 6.102-12.335 6.056-12.35c4.026-8.241 8.086-16.465 12.071-24.727a.716.716 0 0 0-.331-.937.69.69 0 0 0-.492-.034h-.009l-21.117 6.155a.876.876 0 0 0-.605.693v.023l-4.109 27.554-3.959 27.59a1.137 1.137 0 0 0 1.83 1.061l.008-.004 32.719-25.827c.326-.264.494-.658.468-1.041v-.016l-.572-9.166-.602-9.159-1.207-18.32-1.671 1.162 44.284 19.682.017.004a1.06 1.06 0 0 0 1.366-.469l23.055-43.362-.999.246c7.647 5.091 15.34 10.095 23.021 15.13l11.523 7.549 11.549 7.506zm-21.966-27.176l.142-.841-19.177-3.153-.143.828z"/><path fill="#FFF" d="M71.407-355.082a.45.45 0 0 0 .143-.021l57.114-20.119-.276-.794-55.632 19.596 13.816-16.024 44.071-4.334-.083-.836-44.243 4.346a.412.412 0 0 0-.275.147l-14.96 17.347a.435.435 0 0 0-.025.516.44.44 0 0 0 .35.176zm21.699 96.06h.024l34.136-2.531-.067-.832-33.809 2.5-20.532-49.645-.786.323 20.645 49.924c.054.162.222.261.389.261zm-25.924 31.677l7.589-37.278a.414.414 0 0 0-.176-.435l-36.035-24.16-.455.709 35.785 23.994-7.53 37.006.822.164zm-18.72-121.477l32.021-20.436-.455-.711-32.017 20.434z"/><radialGradient id="s" cx="2816.761" cy="733.323" r="12.145" gradientTransform="rotate(180 1441.298 254.756)" gradientUnits="userSpaceOnUse"><stop offset=".317" stop-color="#fff" stop-opacity=".7"/><stop offset=".322" stop-color="#fff" stop-opacity=".696"/><stop offset="1" stop-color="#fff" stop-opacity="0"/></radialGradient><path fill="url(#s)" d="M53.688-223.808c0 6.703 5.442 12.139 12.146 12.139 6.708 0 12.149-5.436 12.149-12.139 0-6.709-5.442-12.146-12.149-12.146-6.705 0-12.146 5.437-12.146 12.146z"/><radialGradient id="t" cx="2749.904" cy="775.301" r="11.17" gradientTransform="rotate(180 1441.298 254.756)" gradientUnits="userSpaceOnUse"><stop offset=".317" stop-color="#fff" stop-opacity=".7"/><stop offset=".322" stop-color="#fff" stop-opacity=".696"/><stop offset="1" stop-color="#fff" stop-opacity="0"/></radialGradient><path fill="url(#t)" d="M121.519-265.789c0 6.161 5.007 11.166 11.173 11.166 6.164 0 11.172-5.005 11.172-11.166 0-6.172-5.008-11.167-11.172-11.167-6.167 0-11.173 4.995-11.173 11.167z"/><radialGradient id="u" cx="2767.932" cy="842.009" r="24.293" gradientTransform="rotate(180 1441.298 254.756)" gradientUnits="userSpaceOnUse"><stop offset=".317" stop-color="#fff" stop-opacity=".7"/><stop offset=".322" stop-color="#fff" stop-opacity=".696"/><stop offset="1" stop-color="#fff" stop-opacity="0"/></radialGradient><path fill="url(#u)" d="M90.371-332.497c0 13.419 10.872 24.292 24.299 24.292 13.416 0 24.287-10.873 24.287-24.292s-10.871-24.292-24.287-24.292c-13.429 0-24.299 10.873-24.299 24.292z"/><radialGradient id="v" cx="2813.693" cy="823.792" r="8.37" gradientTransform="rotate(180 1441.298 254.756)" gradientUnits="userSpaceOnUse"><stop offset=".317" stop-color="#fff" stop-opacity=".7"/><stop offset=".322" stop-color="#fff" stop-opacity=".696"/><stop offset="1" stop-color="#fff" stop-opacity="0"/></radialGradient><path fill="url(#v)" d="M60.532-314.285c0 4.626 3.747 8.375 8.361 8.375a8.371 8.371 0 0 0 8.379-8.375c0-4.618-3.743-8.365-8.379-8.365-4.615-.001-8.361 3.746-8.361 8.365z"/><radialGradient id="w" cx="2845.821" cy="801.769" r="16.291" gradientTransform="rotate(180 1441.298 254.756)" gradientUnits="userSpaceOnUse"><stop offset=".317" stop-color="#fff" stop-opacity=".7"/><stop offset=".322" stop-color="#fff" stop-opacity=".696"/><stop offset="1" stop-color="#fff" stop-opacity="0"/></radialGradient><path fill="url(#w)" d="M20.483-292.263c0 9 7.296 16.295 16.289 16.295 8.997 0 16.293-7.295 16.293-16.295 0-8.99-7.296-16.285-16.293-16.285-8.993 0-16.289 7.295-16.289 16.285z"/><radialGradient id="x" cx="2697.291" cy="787.352" r="16.293" gradientTransform="rotate(180 1441.298 254.756)" gradientUnits="userSpaceOnUse"><stop offset=".317" stop-color="#fff" stop-opacity=".7"/><stop offset=".322" stop-color="#fff" stop-opacity=".696"/><stop offset="1" stop-color="#fff" stop-opacity="0"/></radialGradient><path fill="url(#x)" d="M169.015-277.845c0 9.002 7.289 16.299 16.285 16.299 9.001 0 16.297-7.297 16.297-16.299 0-8.994-7.296-16.291-16.297-16.291-8.998 0-16.285 7.297-16.285 16.291z"/><radialGradient id="y" cx="2698.492" cy="853.426" r="8.599" gradientTransform="rotate(180 1441.298 254.756)" gradientUnits="userSpaceOnUse"><stop offset=".317" stop-color="#fff" stop-opacity=".7"/><stop offset=".322" stop-color="#fff" stop-opacity=".696"/><stop offset="1" stop-color="#fff" stop-opacity="0"/></radialGradient><path fill="url(#y)" d="M175.504-343.912c0 4.744 3.851 8.595 8.596 8.595 4.74 0 8.603-3.851 8.603-8.595 0-4.75-3.863-8.599-8.603-8.599-4.744 0-8.596 3.849-8.596 8.599z"/><radialGradient id="z" cx="2747.931" cy="886.08" r="16.29" gradientTransform="rotate(180 1441.298 254.756)" gradientUnits="userSpaceOnUse"><stop offset=".317" stop-color="#fff" stop-opacity=".7"/><stop offset=".322" stop-color="#fff" stop-opacity=".696"/><stop offset="1" stop-color="#fff" stop-opacity="0"/></radialGradient><path fill="url(#z)" d="M118.375-376.568c0 8.999 7.288 16.29 16.28 16.29 8.997 0 16.301-7.291 16.301-16.29 0-8.992-7.305-16.289-16.301-16.289-8.992 0-16.28 7.297-16.28 16.289z"/><radialGradient id="A" cx="2816.766" cy="862.275" r="11.237" gradientTransform="rotate(180 1441.298 254.756)" gradientUnits="userSpaceOnUse"><stop offset=".317" stop-color="#fff" stop-opacity=".7"/><stop offset=".322" stop-color="#fff" stop-opacity=".696"/><stop offset="1" stop-color="#fff" stop-opacity="0"/></radialGradient><path fill="url(#A)" d="M54.592-352.764c0 6.206 5.025 11.236 11.24 11.236 6.198 0 11.235-5.03 11.235-11.236 0-6.202-5.037-11.236-11.235-11.236-6.214 0-11.24 5.034-11.24 11.236z"/><radialGradient id="B" cx="2674.968" cy="855.955" r="16.291" gradientTransform="rotate(180 1441.298 254.756)" gradientUnits="userSpaceOnUse"><stop offset=".317" stop-color="#fff" stop-opacity=".7"/><stop offset=".322" stop-color="#fff" stop-opacity=".696"/><stop offset="1" stop-color="#fff" stop-opacity="0"/></radialGradient><path fill="url(#B)" d="M191.337-346.441c0 8.995 7.297 16.291 16.298 16.291 8.987 0 16.283-7.296 16.283-16.291 0-8.999-7.296-16.294-16.283-16.294-9.001 0-16.298 7.295-16.298 16.294z"/></g><path d="M226.218-528.831c0-4.846 3.6-8.563 8.564-8.563 2.987 0 5.621 1.482 7.057 3.812l-3.245 1.881c-.731-1.269-2.141-2.022-3.812-2.022-2.917 0-4.801 1.952-4.801 4.893s1.884 4.894 4.801 4.894c1.671 0 3.105-.753 3.812-2.023l3.245 1.881c-1.412 2.329-4.045 3.811-7.057 3.811-4.964-.001-8.564-3.718-8.564-8.564zm22.936 2.823h-1.79v5.411h-3.763v-16.468h6.587a5.632 5.632 0 0 1 5.646 5.646c0 2.021-1.223 3.858-3.034 4.775l3.504 6.047h-4.044l-3.106-5.411zm-1.79-3.294h2.824c1.036 0 1.883-.917 1.883-2.117s-.847-2.117-1.883-2.117h-2.824v4.234zm18.115 2.377v6.329h-3.765v-6.329l-5.528-10.14h4.281l3.13 6.353 3.128-6.353h4.281l-5.527 10.14zm18.935-4.493c0 3.128-2.517 5.646-5.764 5.646h-2.47v5.176h-3.764v-16.469h6.234c3.246 0 5.764 2.517 5.764 5.647zm-3.764 0c0-1.2-.848-2.117-2-2.117h-2.47v4.234h2.47c1.151-.001 2-.917 2-2.117zm16.468-2.024h-4.235v12.845h-3.766v-12.845h-4.233v-3.623h12.233l.001 3.623zm-.002 4.611c0-4.846 3.833-8.563 8.564-8.563 4.728 0 8.562 3.718 8.562 8.563 0 4.846-3.833 8.563-8.562 8.563-4.731 0-8.564-3.717-8.564-8.563zm13.363 0c0-2.94-2.118-4.893-4.799-4.893-2.684 0-4.801 1.952-4.801 4.893s2.117 4.894 4.801 4.894c2.681 0 4.799-1.953 4.799-4.894zm17.875-2.587c0 3.128-2.516 5.646-5.763 5.646h-2.471v5.176h-3.763v-16.469h6.234c3.247 0 5.763 2.517 5.763 5.647zm-3.763 0c0-1.2-.848-2.117-2-2.117h-2.471v4.234h2.471c1.152-.001 2-.917 2-2.117zm4.82 2.587c0-4.846 3.834-8.563 8.564-8.563 4.728 0 8.562 3.718 8.562 8.563 0 4.846-3.834 8.563-8.562 8.563-4.73 0-8.564-3.717-8.564-8.563zm13.362 0c0-2.94-2.117-4.893-4.798-4.893-2.684 0-4.801 1.952-4.801 4.893s2.118 4.894 4.801 4.894c2.681 0 4.798-1.953 4.798-4.894zm15.526 4.611v3.623h-9.646v-16.468h3.763v12.845h5.883zm5.408-12.845v16.468h-3.763v-16.468h3.763zm2.117 8.234c0-4.846 3.601-8.563 8.564-8.563 2.985 0 5.622 1.482 7.056 3.812l-3.245 1.881c-.73-1.269-2.141-2.022-3.811-2.022-2.917 0-4.802 1.952-4.802 4.893s1.885 4.894 4.802 4.894c1.67 0 3.104-.753 3.811-2.023l3.245 1.881c-1.412 2.329-4.045 3.811-7.056 3.811-4.963-.001-8.564-3.718-8.564-8.564zm27.735 4.611v3.623h-10.353v-16.468h10.233v3.623h-6.47v2.729h5.883v3.575h-5.883v2.918h6.59zm17.03 3.624l-5.271-7.623v7.623h-3.763v-16.469h3.763v7.152l5.036-7.152h4.282l-5.554 8.021 5.787 8.447-4.28.001zm18.63-16.469v16.468h-2.823l-6.354-8.94v8.94h-3.763v-16.468h2.823l6.353 8.94v-8.94h3.764zm2.115 8.234c0-4.846 3.834-8.563 8.564-8.563 4.728 0 8.562 3.718 8.562 8.563 0 4.846-3.833 8.563-8.562 8.563-4.73 0-8.564-3.717-8.564-8.563zm13.362 0c0-2.94-2.117-4.893-4.799-4.893-2.684 0-4.801 1.952-4.801 4.893s2.117 4.894 4.801 4.894c2.682 0 4.799-1.953 4.799-4.894zm3.998-8.234h3.95l2.847 11.527 3.176-11.527h3.061l3.176 11.527 2.846-11.527h3.952l-4.54 16.468h-4.281l-2.682-9.716-2.683 9.716h-4.281l-4.541-16.468zm34.295 12.845v3.623h-9.646v-16.468h3.763v12.845h5.883zm11.997 0v3.623h-10.352v-16.468h10.231v3.623h-6.469v2.729h5.882v3.575h-5.882v2.918h6.59zm16.702-4.611c0 4.658-3.458 8.234-8 8.234h-6.586v-16.468h6.586c4.543 0 8 3.576 8 8.234zm-3.623 0c0-2.823-1.787-4.611-4.377-4.611h-2.823v9.222h2.823c2.59 0 4.377-1.788 4.377-4.611zm22.04.471c0 5.034-3.506 8.092-8.117 8.092-5.174 0-8.892-3.811-8.892-8.539 0-4.775 3.788-8.587 8.632-8.587 3.154 0 5.813 1.554 7.201 3.765l-3.199 1.833c-.683-1.081-2.166-1.928-4.024-1.928-2.774 0-4.847 2.046-4.847 4.94 0 2.799 1.978 4.847 5.178 4.847 2.188 0 3.622-.965 4.209-2.542h-4.397v-3.293h8.258l-.002 1.412zm12.467 4.14v3.623H532.22v-16.468h10.232v3.623h-6.47v2.729h5.884v3.575h-5.884v2.918h6.59z" fill="#FFF"/><g fill="#FFF"><path d="M292.89-383.14c-.791 0-1.553-.44-1.923-1.2l-20.37-41.684a2.137 2.137 0 0 1 .983-2.859 2.137 2.137 0 0 1 2.859.982l20.369 41.685a2.137 2.137 0 0 1-1.918 3.076z"/><path d="M294.271-382.289l-12.468-5.732a2.14 2.14 0 0 1 1.788-3.887l7.915 3.641 2.352-8.387a2.139 2.139 0 0 1 4.118 1.155l-3.705 13.21zm-24.743-31.785a2.138 2.138 0 0 1-2.06-2.717l3.705-13.211 12.47 5.733a2.14 2.14 0 0 1 1.051 2.836 2.14 2.14 0 0 1-2.835 1.05l-7.92-3.642-2.352 8.388a2.143 2.143 0 0 1-2.059 1.563z"/></g><g fill="#FFF"><path d="M475.898-383.14a2.137 2.137 0 0 1-1.919-3.076l20.37-41.685a2.138 2.138 0 0 1 3.841 1.877l-20.369 41.684a2.136 2.136 0 0 1-1.923 1.2z"/><path d="M474.52-382.289l-3.71-13.21a2.141 2.141 0 0 1 1.48-2.638 2.145 2.145 0 0 1 2.639 1.48l2.354 8.389 7.912-3.64a2.14 2.14 0 0 1 1.787 3.886l-12.462 5.733zm24.735-31.785a2.141 2.141 0 0 1-2.059-1.563l-2.352-8.388-7.914 3.642a2.14 2.14 0 0 1-1.788-3.886l12.468-5.733 3.705 13.211a2.14 2.14 0 0 1-2.06 2.717z"/></g><path fill="#FFF" d="M595.161-527.134h-3.207a2.14 2.14 0 0 1 0-4.278h3.207a2.14 2.14 0 0 1 2.141 2.14 2.142 2.142 0 0 1-2.141 2.138zM853.05-311.535a2.14 2.14 0 0 1-.006-4.279l6.473-.012h.004a2.14 2.14 0 0 1 .005 4.278l-6.472.013h-.004zm12.942-.025a2.136 2.136 0 0 1-2.137-2.134 2.137 2.137 0 0 1 2.133-2.144l6.475-.012h.006a2.138 2.138 0 1 1 .003 4.278l-6.474.012h-.006zm12.946-.022a2.138 2.138 0 0 1-2.139-2.134 2.14 2.14 0 0 1 2.136-2.144l6.472-.012h.002c1.183 0 2.14.954 2.141 2.134a2.14 2.14 0 0 1-2.135 2.144l-6.473.013-.004-.001zm12.946-.025a2.14 2.14 0 0 1-2.141-2.135 2.14 2.14 0 0 1 2.135-2.142l3.523-.006a19.186 19.186 0 0 0 2.646-.188 2.14 2.14 0 0 1 .597 4.235 23.46 23.46 0 0 1-3.235.229l-3.52.006-.005.001zm12.632-2.074a2.139 2.139 0 0 1-.921-4.069 19.368 19.368 0 0 0 4.808-3.257 2.142 2.142 0 0 1 3.023.124 2.14 2.14 0 0 1-.124 3.022 23.62 23.62 0 0 1-5.869 3.971c-.297.143-.61.209-.917.209zm9.374-8.636a2.138 2.138 0 0 1-1.844-3.215 19.379 19.379 0 0 0 2.131-5.396 2.139 2.139 0 0 1 4.168.951 23.511 23.511 0 0 1-2.604 6.597 2.139 2.139 0 0 1-1.851 1.063zm2.899-12.427a2.138 2.138 0 0 1-2.137-2.14v-6.471a2.138 2.138 0 1 1 4.278 0v6.471a2.14 2.14 0 0 1-2.141 2.14zm0-12.945a2.138 2.138 0 0 1-2.137-2.14v-6.473a2.139 2.139 0 0 1 4.278 0v6.473a2.14 2.14 0 0 1-2.141 2.14zm0-12.946a2.137 2.137 0 0 1-2.137-2.138v-6.473a2.138 2.138 0 1 1 4.278 0v6.473a2.14 2.14 0 0 1-2.141 2.138zm0-12.943a2.138 2.138 0 0 1-2.137-2.139v-6.473a2.138 2.138 0 1 1 4.278 0v6.473a2.14 2.14 0 0 1-2.141 2.139zm0-12.947a2.137 2.137 0 0 1-2.137-2.138v-6.472a2.14 2.14 0 0 1 4.278 0v6.472a2.14 2.14 0 0 1-2.141 2.138zm0-12.944a2.136 2.136 0 0 1-2.137-2.137v-6.473a2.14 2.14 0 0 1 4.278 0v6.473a2.139 2.139 0 0 1-2.141 2.137zm0-12.945a2.137 2.137 0 0 1-2.137-2.138v-6.472a2.139 2.139 0 0 1 4.278 0v6.472a2.14 2.14 0 0 1-2.141 2.138zm0-12.944a2.137 2.137 0 0 1-2.137-2.138v-6.472a2.139 2.139 0 1 1 4.278 0v6.472a2.14 2.14 0 0 1-2.141 2.138zm0-12.945a2.138 2.138 0 0 1-2.137-2.139v-6.471a2.14 2.14 0 0 1 4.278 0v6.471a2.14 2.14 0 0 1-2.141 2.139zm0-12.944a2.137 2.137 0 0 1-2.137-2.138v-6.473a2.138 2.138 0 1 1 4.278 0v6.473a2.14 2.14 0 0 1-2.141 2.138zm0-12.944a2.138 2.138 0 0 1-2.137-2.138v-6.473a2.138 2.138 0 1 1 4.278 0v6.473a2.14 2.14 0 0 1-2.141 2.138zm0-12.946a2.138 2.138 0 0 1-2.137-2.139v-6.472a2.14 2.14 0 0 1 4.278 0v6.472a2.14 2.14 0 0 1-2.141 2.139zm0-12.944a2.137 2.137 0 0 1-2.137-2.138v-6.473a2.138 2.138 0 1 1 4.278 0v6.473a2.14 2.14 0 0 1-2.141 2.138zm0-12.944a2.138 2.138 0 0 1-2.137-2.139v-2.734a19.72 19.72 0 0 0-.293-3.347 2.138 2.138 0 1 1 4.211-.744c.234 1.336.356 2.711.358 4.087v2.737a2.138 2.138 0 0 1-2.139 2.14zm-2.401-12.554a2.132 2.132 0 0 1-1.897-1.151 19.364 19.364 0 0 0-3.424-4.688 2.14 2.14 0 0 1 3.04-3.009 23.638 23.638 0 0 1 4.177 5.725 2.136 2.136 0 0 1-1.896 3.123zm-8.972-9.059c-.34 0-.686-.081-1.008-.253a18.995 18.995 0 0 0-5.467-1.924 2.135 2.135 0 0 1-1.705-2.497 2.141 2.141 0 0 1 2.494-1.708c2.34.44 4.59 1.232 6.695 2.357a2.137 2.137 0 0 1 .878 2.893 2.136 2.136 0 0 1-1.887 1.132zm-290.838-2.496a2.139 2.139 0 1 1 0-4.278h6.472a2.14 2.14 0 0 1 0 4.277l-6.472.001zm-6.472 0h-6.474a2.14 2.14 0 1 1 0-4.278h6.474a2.139 2.139 0 0 1 0 4.278zm38.833-.001h-6.473a2.14 2.14 0 1 1 0-4.277h6.473a2.139 2.139 0 1 1 0 4.277zm-12.943 0h-6.473a2.14 2.14 0 1 1 0-4.277h6.473a2.139 2.139 0 1 1 0 4.277zm45.307-.001a2.14 2.14 0 1 1 0-4.277l6.471-.001a2.138 2.138 0 1 1 0 4.277l-6.471.001zm-6.475 0h-6.471a2.14 2.14 0 1 1 0-4.277h6.471a2.14 2.14 0 0 1 2.141 2.139 2.14 2.14 0 0 1-2.141 2.138zm-12.942 0h-6.475a2.14 2.14 0 0 1 0-4.277h6.475a2.138 2.138 0 0 1 0 4.277zm51.777-.001h-6.472a2.14 2.14 0 0 1-2.14-2.138 2.14 2.14 0 0 1 2.14-2.139h6.472a2.139 2.139 0 1 1 0 4.277zm-12.944 0h-6.475a2.139 2.139 0 0 1 0-4.277h6.475a2.14 2.14 0 0 1 0 4.277zm45.305-.001a2.138 2.138 0 1 1 0-4.277l6.471-.001a2.139 2.139 0 0 1 0 4.277l-6.471.001zm-6.471 0h-6.475a2.14 2.14 0 0 1 0-4.277h6.475a2.138 2.138 0 1 1 0 4.277zm-12.946 0h-6.473a2.139 2.139 0 1 1 0-4.277h6.473a2.14 2.14 0 1 1 0 4.277zm51.781-.001h-6.476a2.138 2.138 0 1 1 0-4.277h6.476a2.139 2.139 0 0 1 0 4.277zm-12.946 0h-6.472a2.139 2.139 0 1 1 0-4.277h6.472a2.139 2.139 0 0 1 0 4.277zm45.306-.001a2.14 2.14 0 0 1 0-4.277l6.473-.001a2.14 2.14 0 1 1 0 4.278h-6.473zm-6.473 0h-6.472a2.138 2.138 0 1 1 0-4.277h6.472a2.138 2.138 0 1 1 0 4.277zm-12.944 0h-6.473a2.139 2.139 0 1 1 0-4.277h6.473a2.14 2.14 0 1 1 0 4.277zm51.778-.001h-6.472a2.14 2.14 0 1 1 0-4.278h6.472a2.139 2.139 0 0 1 0 4.278zm-12.943 0h-6.475a2.137 2.137 0 0 1-2.137-2.139c0-1.181.955-2.139 2.137-2.139h6.475a2.139 2.139 0 1 1 0 4.278zm45.305-.001a2.14 2.14 0 0 1 0-4.278h6.475a2.14 2.14 0 0 1 0 4.277l-6.475.001zm-6.472 0h-6.472a2.137 2.137 0 0 1-2.137-2.139c0-1.18.955-2.139 2.137-2.139h6.472a2.139 2.139 0 1 1 0 4.278zm-12.944 0h-6.472a2.137 2.137 0 0 1-2.138-2.139c0-1.18.955-2.139 2.138-2.139h6.473a2.14 2.14 0 0 1-.001 4.278zm38.834-.001h-6.473a2.138 2.138 0 1 1 0-4.277h6.473a2.139 2.139 0 0 1 0 4.277zm-49.566 215.624a2.136 2.136 0 0 1-2.137-2.136 2.138 2.138 0 0 1 2.134-2.142l3.207-.006h.005c1.18 0 2.137.954 2.138 2.134a2.137 2.137 0 0 1-2.133 2.144l-3.209.006h-.005z"/><path fill="#FFF" d="M598.159-519.734a2.13 2.13 0 0 1-1.421-.542l-10.25-9.129 10.624-8.678a2.137 2.137 0 0 1 3.009.303 2.137 2.137 0 0 1-.303 3.009l-6.742 5.508 6.507 5.796a2.137 2.137 0 0 1-1.424 3.733z"/><linearGradient id="C" gradientUnits="userSpaceOnUse" x1="-2121.443" y1="4739.421" x2="-2081.91" y2="4739.421" gradientTransform="matrix(0 1 1 0 -4354.87 1620.233)"><stop offset="0" stop-color="#706dcb" stop-opacity=".3"/><stop offset="1" stop-color="#706dcb"/></linearGradient><path fill="url(#C)" d="M467.595-473.433c0 6.492-5.266 11.757-11.76 11.757H313.262c-6.491 0-11.755-5.265-11.755-11.757v-16.023c0-6.493 5.265-11.754 11.755-11.754h142.573c6.495 0 11.76 5.261 11.76 11.754v16.023z"/><path d="M322.887-475.015l-3.831-5.54v5.54h-2.735v-11.97h2.735v5.198l3.659-5.198h3.112l-4.035 5.831 4.206 6.139h-3.111zm12.692-11.97v11.97h-2.05l-4.617-6.498v6.498h-2.736v-11.97h2.053l4.615 6.498v-6.498h2.735zm.692 5.985c0-3.523 2.786-6.224 6.223-6.224 3.438 0 6.225 2.701 6.225 6.224 0 3.522-2.787 6.223-6.225 6.223s-6.223-2.701-6.223-6.223zm9.71 0c0-2.137-1.539-3.556-3.487-3.556s-3.486 1.419-3.486 3.556 1.538 3.557 3.486 3.557 3.487-1.42 3.487-3.557zm2.057-5.985h2.872l2.069 8.379 2.307-8.379h2.226l2.307 8.379 2.07-8.379h2.871l-3.3 11.97h-3.111l-1.949-7.062-1.951 7.062h-3.11l-3.301-11.97zm24.082 9.336v2.633h-7.01v-11.97h2.736v9.336l4.274.001zm7.871 0v2.633h-7.523v-11.97h7.438v2.634h-4.703v1.983h4.275v2.6h-4.275v2.12h4.788zM391.278-481c0 3.385-2.512 5.984-5.812 5.984h-4.788v-11.97h4.788c3.301.001 5.812 2.601 5.812 5.986zm-2.63 0c0-2.052-1.302-3.352-3.181-3.352h-2.054v6.703h2.054c1.88 0 3.181-1.299 3.181-3.351zm15.17.342c0 3.659-2.548 5.881-5.9 5.881-3.761 0-6.461-2.768-6.461-6.206 0-3.47 2.752-6.24 6.273-6.24 2.292 0 4.225 1.128 5.233 2.735l-2.327 1.333c-.495-.787-1.572-1.401-2.923-1.401-2.019 0-3.521 1.487-3.521 3.59 0 2.035 1.435 3.523 3.762 3.523 1.589 0 2.633-.702 3.06-1.847h-3.196v-2.394h6.001v1.026zm8.213 3.009v2.633h-7.522v-11.97h7.438v2.634h-4.702v1.983h4.274v2.6h-4.274v2.12h4.786zm13.002-.872c0 2.121-1.727 3.505-3.865 3.505h-5.026v-11.97h4.687c2.083 0 3.777 1.352 3.777 3.421 0 .991-.394 1.777-1.042 2.342.887.565 1.469 1.489 1.469 2.702zm-6.156-5.898v2.119h1.951c.614 0 1.042-.443 1.042-1.06 0-.615-.409-1.059-1.042-1.059h-1.951zm3.421 5.694c0-.667-.444-1.147-1.131-1.147h-2.291v2.292h2.291c.687 0 1.131-.479 1.131-1.145zm10.262 1.829h-4.446l-.597 1.881h-2.993l4.07-11.97h3.486l4.07 11.97h-2.992l-.598-1.881zm-.821-2.565l-1.402-4.396-1.402 4.396h2.804zm3.735 1.726l2.358-1.368c.426.992 1.161 1.659 2.513 1.659 1.299 0 1.625-.514 1.625-.976 0-.735-.686-1.025-2.479-1.521-1.779-.496-3.522-1.351-3.522-3.642 0-2.309 1.95-3.642 4.018-3.642 1.967 0 3.506.94 4.377 2.701l-2.307 1.351c-.411-.854-.976-1.384-2.07-1.384-.854 0-1.282.427-1.282.906 0 .547.29.923 2.155 1.487 1.813.547 3.847 1.18 3.847 3.711 0 2.307-1.846 3.674-4.444 3.674-2.517.002-4.124-1.194-4.789-2.956zm17.187.086v2.633h-7.523v-11.97h7.438v2.634h-4.703v1.983h4.274v2.6h-4.274v2.12h4.788z" fill="#FFF"/><linearGradient id="D" gradientUnits="userSpaceOnUse" x1="-2121.443" y1="4914.063" x2="-2081.91" y2="4914.063" gradientTransform="matrix(0 1 1 0 -4354.87 1620.233)"><stop offset="0" stop-color="#706dcb" stop-opacity=".3"/><stop offset="1" stop-color="#706dcb"/></linearGradient><path fill="url(#D)" d="M642.238-473.433c0 6.493-5.266 11.757-11.76 11.757H487.905c-6.49 0-11.757-5.264-11.757-11.757v-16.022c0-6.494 5.268-11.755 11.757-11.755h142.573c6.494 0 11.76 5.261 11.76 11.755v16.022z"/><linearGradient id="E" gradientUnits="userSpaceOnUse" x1="-2121.459" y1="4564.779" x2="-2081.926" y2="4564.779" gradientTransform="matrix(0 1 1 0 -4354.87 1620.233)"><stop offset="0" stop-color="#706dcb" stop-opacity=".3"/><stop offset="1" stop-color="#706dcb"/></linearGradient><path fill="url(#E)" d="M292.954-473.449c0 6.491-5.266 11.757-11.761 11.757h-142.57c-6.491 0-11.757-5.266-11.757-11.757v-16.023c0-6.492 5.266-11.753 11.757-11.753h142.571c6.495 0 11.761 5.262 11.761 11.753l-.001 16.023z"/><g fill="#FFF"><path d="M494.654-477.735l2.36-1.368c.426.992 1.161 1.659 2.512 1.659 1.299 0 1.625-.514 1.625-.976 0-.735-.685-1.025-2.479-1.521-1.779-.496-3.523-1.351-3.523-3.642 0-2.309 1.948-3.642 4.018-3.642 1.969 0 3.508.94 4.378 2.701l-2.308 1.351c-.412-.854-.976-1.384-2.07-1.384-.853 0-1.281.427-1.281.906 0 .547.291.923 2.154 1.487 1.813.547 3.848 1.18 3.848 3.711 0 2.307-1.847 3.674-4.445 3.674-2.514.002-4.122-1.194-4.789-2.956z"/><path d="M503.809-481c0-3.523 2.614-6.224 6.223-6.224 2.171 0 4.087 1.078 5.129 2.77l-2.359 1.368c-.53-.923-1.556-1.47-2.77-1.47-2.119 0-3.487 1.419-3.487 3.556s1.368 3.557 3.487 3.557c1.213 0 2.257-.548 2.77-1.47l2.359 1.368c-1.024 1.692-2.939 2.768-5.129 2.768-3.609 0-6.223-2.701-6.223-6.223zm18.793 4.104h-4.445l-.598 1.881h-2.993l4.07-11.97h3.487l4.067 11.97h-2.99l-.598-1.881zm-.821-2.565l-1.4-4.396-1.403 4.396h2.803zm16.556 4.446h-2.735v-6.959l-3.093 5.079h-.31l-3.095-5.079v6.959h-2.736v-11.97h2.736l3.249 5.318 3.247-5.318h2.735l.002 11.97zM553.565-481c0 3.385-2.515 5.984-5.813 5.984h-4.788v-11.97h4.788c3.299.001 5.813 2.601 5.813 5.986zm-2.633 0c0-2.052-1.302-3.352-3.181-3.352h-2.053v6.703h2.053c1.879 0 3.181-1.299 3.181-3.351zm9.905 4.104h-4.445l-.599 1.881h-2.991l4.069-11.97h3.487l4.069 11.97h-2.992l-.598-1.881zm-.821-2.565l-1.4-4.396-1.404 4.396h2.804zm11.769-4.89h-3.075v9.336h-2.735v-9.336h-3.078v-2.634h8.89l-.002 2.634zm6.502 7.455h-4.445l-.6 1.881h-2.989l4.067-11.97h3.487l4.07 11.97h-2.991l-.599-1.881zm-.821-2.565l-1.401-4.396-1.404 4.396h2.805zm13.479.94c0 2.121-1.727 3.505-3.865 3.505h-5.025v-11.97h4.685c2.086 0 3.779 1.352 3.779 3.421 0 .991-.395 1.777-1.043 2.342.886.565 1.469 1.489 1.469 2.702zm-6.155-5.898v2.119h1.948c.615 0 1.043-.443 1.043-1.06 0-.615-.409-1.059-1.043-1.059h-1.948zm3.419 5.694c0-.667-.442-1.147-1.129-1.147h-2.29v2.292h2.29c.686 0 1.129-.479 1.129-1.145zm10.266 1.829h-4.447l-.597 1.881h-2.993l4.07-11.97h3.486l4.069 11.97h-2.992l-.596-1.881zm-.823-2.565l-1.4-4.396-1.403 4.396h2.803zm3.735 1.726l2.358-1.368c.429.992 1.162 1.659 2.515 1.659 1.298 0 1.624-.514 1.624-.976 0-.735-.687-1.025-2.479-1.521-1.78-.496-3.522-1.351-3.522-3.642 0-2.309 1.947-3.642 4.018-3.642 1.968 0 3.507.94 4.378 2.701l-2.308 1.351c-.412-.854-.978-1.384-2.07-1.384-.854 0-1.282.427-1.282.906 0 .547.291.923 2.156 1.487 1.813.547 3.846 1.18 3.846 3.711 0 2.307-1.846 3.674-4.444 3.674-2.517.002-4.124-1.194-4.79-2.956zm17.186.086v2.633h-7.522v-11.97h7.438v2.634h-4.702v1.983h4.273v2.6h-4.273v2.12h4.786z"/></g><g fill="#FFF"><path d="M145.915-482.882c0 2.275-1.83 4.104-4.189 4.104h-1.796v3.763h-2.735v-11.97h4.532c2.357 0 4.188 1.83 4.188 4.103zm-2.737 0c0-.872-.616-1.538-1.453-1.538h-1.796v3.078h1.796c.838 0 1.453-.667 1.453-1.54zm7.29 3.934h-1.301v3.933h-2.735v-11.97h4.788a4.095 4.095 0 0 1 4.104 4.104c0 1.472-.89 2.805-2.206 3.473l2.546 4.394h-2.94l-2.256-3.934zm-1.301-2.394h2.053c.751 0 1.368-.667 1.368-1.54 0-.872-.617-1.538-1.368-1.538h-2.053v3.078z"/><path d="M155.414-481c0-3.523 2.786-6.224 6.223-6.224 3.438 0 6.223 2.701 6.223 6.224 0 3.522-2.786 6.223-6.223 6.223s-6.223-2.701-6.223-6.223zm9.711 0c0-2.137-1.539-3.556-3.488-3.556-1.95 0-3.487 1.419-3.487 3.556s1.538 3.557 3.487 3.557c1.948 0 3.488-1.42 3.488-3.557z"/><path d="M166.84-477.102l2.376-1.368c.376.667.77 1.027 1.692 1.027 1.197 0 1.555-.684 1.555-1.419v-8.123h2.736v8.123c0 2.633-1.846 4.085-4.308 4.085-1.896 0-3.265-.803-4.051-2.325zm17.001-.547v2.633h-7.524v-11.97h7.438v2.634h-4.702v1.983h4.274v2.6h-4.274v2.12h4.788zm.091-3.351c0-3.523 2.614-6.224 6.223-6.224 2.172 0 4.087 1.078 5.129 2.77l-2.36 1.368c-.531-.923-1.556-1.47-2.769-1.47-2.119 0-3.487 1.419-3.487 3.556s1.368 3.557 3.487 3.557c1.213 0 2.258-.548 2.769-1.47l2.36 1.368c-1.025 1.692-2.94 2.768-5.129 2.768-3.61 0-6.223-2.701-6.223-6.223z"/><path d="M203.753-484.351h-3.076v9.336h-2.736v-9.336h-3.078v-2.634h8.89v2.634zM218.121-481c0 3.385-2.513 5.984-5.813 5.984h-4.788v-11.97h4.788c3.3.001 5.813 2.601 5.813 5.986zm-2.632 0c0-2.052-1.301-3.352-3.181-3.352h-2.052v6.703h2.052c1.88 0 3.181-1.299 3.181-3.351zm9.906 4.104h-4.446l-.597 1.881h-2.993l4.071-11.97h3.487l4.068 11.97h-2.99l-.6-1.881zm-.823-2.565l-1.401-4.396-1.403 4.396h2.804zm11.768-4.89h-3.076v9.336h-2.736v-9.336h-3.078v-2.634h8.89v2.634zm6.503 7.455h-4.446l-.597 1.881h-2.993l4.07-11.97h3.488l4.068 11.97h-2.991l-.599-1.881zm-.821-2.565l-1.401-4.396-1.403 4.396h2.804zm13.481.94c0 2.121-1.727 3.505-3.865 3.505h-5.027v-11.97h4.687c2.086 0 3.778 1.352 3.778 3.421 0 .991-.393 1.777-1.042 2.342.886.565 1.469 1.489 1.469 2.702zm-6.157-5.898v2.119h1.95c.614 0 1.042-.443 1.042-1.06 0-.615-.409-1.059-1.042-1.059h-1.95zm3.422 5.694c0-.667-.445-1.147-1.13-1.147h-2.291v2.292h2.291c.684 0 1.13-.479 1.13-1.145zm10.26 1.829h-4.445l-.597 1.881h-2.993l4.07-11.97h3.488l4.067 11.97h-2.99l-.6-1.881zm-.82-2.565l-1.401-4.396-1.403 4.396h2.804zm3.733 1.726l2.36-1.368c.426.992 1.162 1.659 2.512 1.659 1.299 0 1.625-.514 1.625-.976 0-.735-.684-1.025-2.478-1.521-1.779-.496-3.523-1.351-3.523-3.642 0-2.309 1.949-3.642 4.019-3.642 1.966 0 3.506.94 4.376 2.701l-2.308 1.351c-.411-.854-.975-1.384-2.068-1.384-.854 0-1.283.427-1.283.906 0 .547.291.923 2.155 1.487 1.813.547 3.847 1.18 3.847 3.711 0 2.307-1.847 3.674-4.446 3.674-2.514.002-4.121-1.194-4.788-2.956zm17.189.086v2.633h-7.524v-11.97h7.438v2.634h-4.703v1.983h4.275v2.6h-4.275v2.12h4.789z"/></g><path d="M669.511-65.881v-11.152h3.763v10.822c0 1.246.59 2.307 2.588 2.307 2 0 2.589-1.061 2.589-2.307v-10.822h3.765v11.152c0 3.528-2.729 5.645-6.354 5.645s-6.351-2.116-6.351-5.645zm14.584 1.577l3.244-1.883c.589 1.363 1.601 2.282 3.457 2.282 1.79 0 2.236-.707 2.236-1.343 0-1.013-.94-1.411-3.412-2.095-2.447-.681-4.848-1.856-4.848-5.011 0-3.175 2.686-5.012 5.53-5.012 2.704 0 4.822 1.297 6.021 3.719l-3.175 1.857c-.564-1.178-1.342-1.904-2.848-1.904-1.178 0-1.765.589-1.765 1.247 0 .753.399 1.269 2.964 2.046 2.492.754 5.293 1.623 5.293 5.104 0 3.175-2.541 5.059-6.115 5.059-3.455.001-5.667-1.644-6.582-4.066zm24.816.115v3.623h-10.353v-16.468h10.233v3.623h-6.471v2.73h5.882v3.574h-5.882v2.916l6.591.002zm7.668-1.786h-1.789v5.409h-3.764v-16.468h6.586a5.634 5.634 0 0 1 5.647 5.646c0 2.021-1.226 3.859-3.035 4.774l3.504 6.046h-4.045l-3.104-5.407zm-1.791-3.295h2.823c1.036 0 1.886-.917 1.886-2.116s-.85-2.117-1.886-2.117h-2.823v4.233zm9.647 4.966l3.245-1.883c.589 1.363 1.6 2.282 3.459 2.282 1.79 0 2.237-.707 2.237-1.343 0-1.013-.943-1.411-3.414-2.095-2.446-.681-4.847-1.856-4.847-5.011 0-3.175 2.684-5.012 5.529-5.012 2.705 0 4.82 1.297 6.022 3.719l-3.178 1.857c-.563-1.178-1.34-1.904-2.846-1.904-1.178 0-1.766.589-1.766 1.247 0 .753.398 1.269 2.964 2.046 2.495.754 5.295 1.623 5.295 5.104 0 3.175-2.543 5.059-6.118 5.059-3.454.001-5.664-1.644-6.582-4.066z" fill="#FFF"/></svg>