<svg xmlns="http://www.w3.org/2000/svg" xmlns:xlink="http://www.w3.org/1999/xlink" width="791.804" height="667.067" viewBox="76.02 0 791.804 667.067"><path d="M372.011 564.17l2.189-1.269c.397.92 1.079 1.537 2.332 1.537 1.205 0 1.507-.475 1.507-.902 0-.683-.635-.953-2.3-1.412-1.65-.46-3.269-1.254-3.269-3.379 0-2.142 1.809-3.378 3.728-3.378 1.824 0 3.252.871 4.062 2.506l-2.141 1.253c-.381-.794-.904-1.285-1.919-1.285-.793 0-1.19.397-1.19.842 0 .507.27.855 1.999 1.38 1.682.507 3.571 1.095 3.571 3.441 0 2.142-1.714 3.411-4.125 3.411-2.334-.001-3.826-1.112-4.444-2.745zm17.259-5.411v7.934h-2.379v-.748c-.428.588-1.221.969-2.269.969-1.603 0-2.966-1.143-2.966-3.284v-4.87h2.38v4.521c0 .983.619 1.443 1.38 1.443.873 0 1.476-.508 1.476-1.635v-4.33h2.378zm10.279 3.967c0 2.363-1.712 4.188-3.792 4.188-1.062 0-1.839-.363-2.362-.967v3.918h-2.38V558.76h2.38v.745c.524-.602 1.3-.965 2.362-.965 2.079-.002 3.792 1.822 3.792 4.186zm-2.38 0c0-1.189-.793-1.936-1.888-1.936-1.094 0-1.887.746-1.887 1.936 0 1.188.793 1.937 1.887 1.937 1.094 0 1.888-.746 1.888-1.937zm12.263 0c0 2.363-1.714 4.188-3.793 4.188-1.063 0-1.839-.363-2.362-.967v3.918h-2.38V558.76h2.38v.745c.522-.602 1.299-.965 2.362-.965 2.079-.002 3.793 1.822 3.793 4.186zm-2.381 0c0-1.189-.793-1.936-1.887-1.936-1.095 0-1.887.746-1.887 1.936 0 1.188.792 1.937 1.887 1.937 1.094 0 1.887-.746 1.887-1.937zm3.331 0c0-2.364 1.872-4.188 4.204-4.188s4.204 1.824 4.204 4.188c0 2.363-1.872 4.188-4.204 4.188s-4.204-1.825-4.204-4.188zm6.028 0c0-1.126-.793-1.872-1.825-1.872-1.031 0-1.824.746-1.824 1.872 0 1.125.793 1.873 1.824 1.873 1.032 0 1.825-.748 1.825-1.873zm8.486-4.123v2.694c-.983-.158-2.378.238-2.378 1.81v3.586h-2.38v-7.934h2.38v1.413c.315-1.062 1.379-1.569 2.378-1.569zm4.363 2.442v2.806c0 .684.586.746 1.633.684v2.158c-3.108.314-4.013-.619-4.013-2.842v-2.806h-1.268v-2.286h1.268v-1.506l2.38-.714v2.22h1.634v2.286h-1.634zm6.852 3.743c.65 0 1.206-.253 1.523-.602l1.902 1.095c-.777 1.078-1.95 1.633-3.458 1.633-2.713 0-4.394-1.824-4.394-4.188s1.712-4.188 4.22-4.188c2.316 0 4.029 1.794 4.029 4.188 0 .333-.031.65-.094.951h-5.634c.304.825 1.034 1.111 1.906 1.111zm1.46-2.887c-.254-.919-.969-1.252-1.683-1.252-.903 0-1.507.442-1.729 1.252h3.412zm11.77-6.313v11.104h-2.379v-.748c-.525.604-1.302.969-2.364.969-2.078 0-3.791-1.826-3.791-4.188 0-2.364 1.713-4.188 3.791-4.188 1.063 0 1.84.365 2.364.965v-3.916h2.379v.002zm-2.379 7.138c0-1.189-.794-1.936-1.889-1.936s-1.888.746-1.888 1.936c0 1.188.793 1.937 1.888 1.937s1.889-.746 1.889-1.937zm16.624 0c0 2.363-1.715 4.188-3.792 4.188-1.064 0-1.841-.363-2.364-.967v.746h-2.381v-11.104h2.381v3.916c.523-.602 1.3-.965 2.364-.965 2.077-.002 3.792 1.822 3.792 4.186zm-2.381 0c0-1.189-.792-1.936-1.887-1.936s-1.888.746-1.888 1.936c0 1.188.793 1.937 1.888 1.937s1.887-.746 1.887-1.937zm10.944-3.967l-2.713 7.695c-.889 2.522-2.301 3.521-4.521 3.41v-2.22c1.111 0 1.635-.351 1.984-1.317l-3.156-7.568h2.616l1.761 4.854 1.491-4.854h2.538zm8.662 4.284h-1.206v3.649h-2.538v-11.104h4.443a3.798 3.798 0 0 1 3.807 3.807c0 1.366-.824 2.604-2.046 3.222l2.363 4.078h-2.729l-2.094-3.652zm-1.207-2.22h1.905c.697 0 1.269-.62 1.269-1.43 0-.808-.571-1.426-1.269-1.426h-1.905v2.856zm14.437-2.792h-2.856v8.662h-2.538v-8.662h-2.856v-2.442h8.251v2.442zm1.029 5.076v-7.519h2.538v7.296c0 .842.396 1.555 1.745 1.555 1.348 0 1.745-.713 1.745-1.555v-7.296h2.537v7.519c0 2.381-1.841 3.809-4.282 3.809-2.443-.002-4.283-1.43-4.283-3.809z" fill="#FFF"/><g fill="#FFF"><path d="M468.414 612.627c-.908.762-2.241.67-3.067-.169a2.336 2.336 0 0 1-.091-3.18c.102-.116.216-.226.337-.318.236-.186.363-.415.205-.694-.162-.28-.431-.212-.679-.139-1.264.363-2.119 1.694-1.941 2.999.085.622.349 1.149.764 1.612.894 1.012 1.798 2.016 2.671 3.044.854 1.008.78 2.404-.146 3.274-.532.502-1.173.726-1.897.614-.349-.055-.466.055-.455.387.013.338.019.676-.002 1.013-.021.374.108.519.504.512 1.295-.021 2.59.006 3.882-.015.394-.006.543.099.539.518a376.747 376.747 0 0 0 0 6.199c.001.394-.138.518-.516.517a344.04 344.04 0 0 0-4.977-.002c-.367.003-.495-.137-.484-.497a53.54 53.54 0 0 0 .002-2.195c-.004-.307.124-.434.427-.418.239.014.479 0 .718-.004.069-.003.151-.003.184-.076.036-.082-.03-.128-.089-.166-.386-.249-.738-.521-1.258-.504-1.123.038-2.251-.01-3.375.022-.447.012-.548-.161-.541-.563.018-1.111.01-2.222.004-3.332-.002-.518-.054-.547-.531-.336-.876.381-1.743.783-2.628 1.147-.346.14-.444.342-.439.7.019 1.419-.005 2.839.016 4.258.005.406-.092.636-.534.554-1.125-.205-1.989.194-2.641 1.11-.171.239-.415.301-.702.299a171.083 171.083 0 0 0-3.924.003c-.411.006-.545-.148-.531-.546.021-.702.015-1.406.003-2.109-.005-.342.129-.472.475-.46.618.018 1.238-.007 1.856.009.317.009.518-.084.547-.426.002-.014.007-.025.011-.039.324-.885.295-1.74-.116-2.604-.258-.543-.401-1.14-.613-1.705-.092-.24-.063-.415.126-.603a402.39 402.39 0 0 0 3.571-3.585c.178-.178.369-.222.606-.222 1.206.007 2.414.003 3.626.003.025-.201-.131-.22-.225-.28-.859-.559-1.73-1.104-2.589-1.665a.906.906 0 0 0-.754-.126c-2.041.47-4.082.94-6.131 1.383-.403.087-.509.267-.506.656.018 1.813 0 3.628.015 5.441.003.352-.1.561-.418.734-2.842 1.57-5.678 3.151-8.508 4.741-.265.149-.472.154-.738.004a1486.629 1486.629 0 0 0-8.546-4.764c-.287-.159-.386-.347-.384-.668.014-1.841-.003-3.684.014-5.525.004-.383-.128-.536-.501-.618-2.046-.444-4.087-.915-6.128-1.38-.242-.055-.46-.072-.685.073-.92.6-1.846 1.186-2.77 1.776-.055.034-.101.087-.162.139.155.128.314.075.458.076 1.055.006 2.109.011 3.163-.003.287-.004.503.071.71.281a282.016 282.016 0 0 0 3.454 3.464c.238.234.279.439.164.743-.254.656-.44 1.338-.716 1.984a2.574 2.574 0 0 0-.097 1.838c.291.964.03.863 1.123.873.479.004.957.012 1.435-.002.303-.01.438.104.434.412-.009.76-.011 1.519-.005 2.278.002.31-.142.419-.44.419a507.41 507.41 0 0 0-4.092-.002c-.225 0-.425-.052-.557-.237-.686-.976-1.605-1.374-2.787-1.17-.362.063-.447-.139-.443-.467.012-1.464-.004-2.928.011-4.39.003-.324-.09-.507-.403-.637a85.593 85.593 0 0 1-2.742-1.204c-.343-.157-.457-.06-.455.295.005 1.14-.013 2.277.006 3.418.006.405-.103.569-.546.557-1.166-.028-2.334.006-3.5-.017-.49-.011-.797.308-1.164.527-.05.029-.092.094-.049.137.042.045.12.072.183.075.267.011.534.014.802.011.23-.002.334.107.334.333-.001.816-.001 1.631.001 2.445 0 .275-.178.319-.394.321-.479.002-.957.004-1.434.004-1.21 0-2.419-.011-3.627.003-.38.005-.515-.128-.513-.52.016-2.066.017-4.133-.001-6.199-.003-.421.152-.52.542-.515 1.278.021 2.56-.009 3.839.018.438.01.575-.149.545-.559-.024-.351-.009-.704-.008-1.056 0-.251-.104-.337-.367-.31-1.13.111-1.997-.335-2.46-1.24-.456-.895-.313-1.898.417-2.737.875-1.01 1.771-1.998 2.645-3.01 1.188-1.377.874-3.407-.657-4.294a3.032 3.032 0 0 0-.537-.237c-.257-.087-.545-.173-.716.128-.174.303.001.52.238.72.752.64 1.049 1.455.802 2.418-.23.892-.819 1.468-1.716 1.681-.687.164-1.333.043-1.895-.391.005-.103.065-.109.119-.123.826-.216 1.059-.938.481-1.562-.414-.449-.726-.929-.761-1.554-.073-1.266.776-2.284 2.052-2.462a3.816 3.816 0 0 1 3.894 1.963 3.812 3.812 0 0 1-.473 4.333c-.919 1.061-1.858 2.109-2.774 3.177-.401.467-.445 1.039-.164 1.53.266.467.765.707 1.322.632.454-.06.774-.313.98-.714.997-1.938 1.987-3.879 2.988-5.815.101-.194.085-.357-.009-.552-.665-1.385-.539-2.698.4-3.918.167-.217.19-.311-.091-.454-.637-.323-.967-1.409-.653-2.031.099-.194.271-.276.483-.278.281-.002.563.004.843-.009.201-.008.491.055.5-.239.01-.309-.284-.247-.482-.249-.632-.009-1.267 0-1.898-.007-.964-.009-1.511-.562-1.518-1.526-.002-.312.02-.62-.003-.93-.029-.377.141-.485.496-.481 1.434.012 2.867.005 4.301.003.634 0 .634 0 .592-.611-.085-1.264.802-2.326 1.986-2.376.466-.019.643.137.654.612.01.577.002 1.152.004 1.729.001.625.002.625.617.654 3.001.137 5.423 2.214 5.985 5.133a6.1 6.1 0 0 1-.127 2.88c-.094.327 0 .432.324.429 1.427-.016 1.174.15 1.183-1.136.015-2.25.014-4.499-.003-6.749-.003-.423.125-.562.548-.562 5.835.012 11.671.012 17.506 0 .432 0 .547.152.543.567-.017 2.418-.009 4.837-.007 7.255 0 .615.005.617.602.622.975.009.975.009.789-.926-.759-3.804 2.057-7.339 5.982-7.516.608-.027.608-.027.612-.618.001-.591-.008-1.182.005-1.771.009-.474.186-.626.657-.605 1.235.055 2.146 1.184 1.956 2.504-.065.449.099.49.454.487 1.477-.011 2.953.007 4.429-.011.398-.005.566.123.532.533-.026.335.004.673-.009 1.011-.029.816-.579 1.372-1.394 1.393-.688.017-1.379.003-2.066.01-.193 0-.448-.028-.438.257.007.242.242.229.424.233.295.006.591.004.886.007.377.004.563.193.579.571.034.762-.008 1.47-.858 1.832-.244.103-.011.262.067.357.581.742.845 1.579.788 2.519a3.227 3.227 0 0 1-.385 1.368.61.61 0 0 0-.005.632c.989 1.91 1.966 3.824 2.949 5.739.262.509.674.784 1.257.759.528-.022.908-.289 1.122-.764.236-.528.126-1.019-.248-1.448-.925-1.06-1.861-2.108-2.777-3.176a3.811 3.811 0 0 1-.313-4.518c.871-1.38 2.543-2.062 4.099-1.672 1.62.406 2.27 2.371 1.205 3.662-.09.109-.19.206-.28.314-.518.606-.295 1.318.477 1.524.046.015.097.032.198.062zm-22.308-.46v-9.153c0-.563-.011-.573-.559-.573-5.146-.004-10.292-.004-15.438 0-.56 0-.572.01-.573.56-.001 6.117.001 12.231-.007 18.348 0 .344.12.527.416.69a827.17 827.17 0 0 1 7.481 4.16c.301.167.524.146.81-.017a962.992 962.992 0 0 1 7.411-4.113c.344-.189.468-.403.467-.791-.014-3.037-.008-6.074-.008-9.111zm-26.068 1.858c-.738-.174-1.349-.314-1.96-.463-.64-.159-1.315-.233-1.861-.637-.354-.262-.482-.125-.645.198-.789 1.569-1.562 3.147-2.406 4.685-.442.807-.668 1.614-.597 2.528.044.571-.015 1.152.016 1.729.022.43-.144.557-.562.55-1.306-.021-2.613-.002-3.92-.013-.32-.003-.459.108-.457.439.009 1.418.005 2.837.003 4.258 0 .273.059.451.396.446 1.026-.013 2.052-.016 3.078 0 .407.007.402-.237.406-.523.004-.299-.027-.522-.423-.505-.561.023-1.124.007-1.686.002-.121-.002-.255.021-.342-.108-.161-.244-.028-.94.224-1.104.755-.489 1.516-.968 2.27-1.456.177-.115.365-.132.564-.132.927.002 1.856-.016 2.782.007.415.012.565-.109.56-.547-.021-1.896.016-3.793-.022-5.69-.011-.554.171-.857.635-1.136 1.158-.692 2.281-1.44 3.417-2.168.14-.089.275-.185.53-.36zm35.692-.027l-.003.113c.148.101.299.203.45.3 1.194.766 2.388 1.536 3.593 2.287.295.183.415.392.411.745-.016 1.952-.007 3.906-.007 5.858 0 .614.004.616.601.618.855.002 1.715.012 2.569-.005a1.56 1.56 0 0 1 .948.273c.604.409 1.211.819 1.85 1.175.415.23.508.538.479.967-.019.28-.109.403-.403.395-.548-.014-1.097.019-1.644-.007-.401-.021-.464.181-.463.511.002.326.056.529.458.521a69.121 69.121 0 0 1 2.951.002c.383.009.482-.152.479-.499-.012-1.378-.012-2.755.002-4.133.003-.373-.112-.526-.509-.52-1.151.021-2.305.012-3.457.005-1.075-.007-1.047.128-.95-.965.165-1.84-.268-3.473-1.22-5.038-.692-1.138-1.231-2.368-1.843-3.553-.082-.161-.143-.426-.417-.226-.624.454-1.364.575-2.087.748-.595.144-1.191.286-1.788.428zm-5.687 13.744v.002c.113 0 .229-.016.338.002.943.155 1.703-.127 2.25-.93.299-.438.73-.497 1.221-.479.661.024.665.002.665-.642.001-1.295.01-2.588-.006-3.881-.001-.313.106-.479.396-.603 1.034-.438 2.061-.898 3.089-1.353 1.187-.526 1.179-.526 1.152-1.84-.007-.333-.104-.483-.459-.479-1.561.012-3.122.007-4.682.003a.69.69 0 0 0-.527.214c-.928.939-1.858 1.879-2.797 2.808-.188.185-.223.356-.132.602.287.776.559 1.561.834 2.343.059.173.114.34.066.533-.19.778-.375 1.558-.547 2.34-.055.251-.177.347-.434.344-.604-.011-1.209.015-1.813-.007-.384-.013-.395.213-.388.488.008.268-.045.555.383.538.463-.017.928-.003 1.391-.003zm-30.758-10.197c-.787 0-1.574.007-2.361-.002-.309-.005-.436.121-.423.424.011.281.021.565-.005.844-.035.391.109.606.485.764 1.207.502 2.386 1.067 3.596 1.559.44.182.571.424.561.884-.03 1.277 0 2.559-.017 3.838-.004.367.137.537.493.484.698-.105 1.218.161 1.634.706.144.189.336.338.5.512.125.134.27.187.45.187.928-.005 1.855-.014 2.783.003.419.009.383-.256.393-.531.011-.304-.029-.516-.422-.496-.547.025-1.097-.013-1.644.012-.354.017-.531-.089-.602-.46-.133-.705-.308-1.4-.485-2.096a1.12 1.12 0 0 1 .046-.696c.273-.752.528-1.512.809-2.262.1-.27.079-.463-.138-.675a202.786 202.786 0 0 1-2.739-2.748c-.184-.188-.384-.254-.639-.253-.758.007-1.517.002-2.275.002zm32.756-10.19c-.037 2.759 1.819 4.898 4.308 5.165 1.008.109 2.007.016 2.843-.659.831-.671 1.136-1.813.783-2.823-.374-1.064-1.325-1.704-2.547-1.718-1.993-.022-3.268-1.432-3.066-3.386.013-.114.122-.271-.021-.345-.122-.063-.23.075-.326.148-1.279.974-1.927 2.272-1.974 3.618zm-28.433.147c-.018-1.413-.656-2.743-1.956-3.746-.105-.08-.219-.237-.359-.162-.126.072-.023.232-.01.351.109 1.015-.165 1.896-.917 2.601-.643.602-1.421.782-2.289.784-1.312.002-2.384.971-2.526 2.209-.156 1.339.617 2.486 1.915 2.842 3.077.839 6.096-1.449 6.142-4.879zm-7.424-5.067c-.746 0-1.489.014-2.232-.007-.376-.011-.457.163-.427.488.03.319.21.436.506.436.618-.002 1.235 0 1.853.002.969.001 1.567.471 1.576 1.252.006.58-.364 1.28-1.476 1.246-.161-.005-.419-.063-.409.221.008.251.24.233.421.235.758.004 1.516.009 2.274.004 1.185-.006 2.016-.788 2.031-1.901.015-1.124-.827-1.955-2.012-1.975-.702-.01-1.404-.001-2.105-.001zm43.311 0c-.745.001-1.489-.018-2.233.005-1.129.032-1.938.88-1.921 1.979.019 1.079.839 1.879 1.955 1.891.716.009 1.433.01 2.147-.007.227-.005.606.125.611-.239.005-.35-.367-.198-.574-.215-.674-.055-1.093-.335-1.247-.878-.238-.846.371-1.599 1.322-1.616.688-.012 1.377-.005 2.063-.003.389 0 .498-.219.504-.57.007-.374-.239-.347-.482-.347-.713-.002-1.429 0-2.145 0zm-37.741.06c.036.092.037.109.045.116.089.068.181.133.27.199 2.039 1.512 2.836 3.529 2.424 6.021-.152.918-.559 1.732-1.122 2.472-.068.091-.264.188-.072.344.278.224 1.015.196 1.283-.045 1.595-1.424 2.131-3.897 1.246-5.925-.769-1.766-2.131-2.805-4.074-3.182zm32.118.029c-.082.006-.151.003-.217.019-2.016.461-3.402 1.658-4.014 3.635-.613 1.976-.144 3.742 1.252 5.269.305.335.617.461 1.075.313.531-.169.543-.135.215-.582a5.908 5.908 0 0 1 1.377-8.359c.108-.078.259-.112.312-.295zm-32.849 10.686c.915.208 1.829.415 2.744.621 1.424.323 2.846.651 4.271.967.149.034.335.149.46-.048.213-.334-.024-.886-.418-.975-1.862-.422-3.724-.839-5.587-1.259-.152-.034-.299-.068-.445.028-.327.217-.668.409-1.025.666zm33.686-.022l-1.168-.673c-.092-.051-.189-.044-.287-.021-1.945.438-3.891.873-5.833 1.318-.299.068-.401.387-.302.837.078.351.333.182.506.144 1.657-.367 3.313-.748 4.97-1.124l2.114-.481zm-7.592-1.38c0 .237 0 .477.002.714 0 .191.082.296.287.249l2.42-.55c.214-.048.235-.14.116-.324-.673-1.037-.67-1.044-1.897-1.037-1.053.011-.919-.145-.928.948zm-19.78-.948c-.568-.151-1.092.063-1.397.741-.039.089-.115.161-.181.232-.217.229-.162.351.139.413.59.125 1.177.267 1.765.396.944.21.867.31.869-.709.002-1.073-.001-1.073-1.195-1.073zm39.061 1.069c-.186-.755.146-1.231.629-1.648.114-.099.217-.224.296-.354.339-.568.183-1.271-.335-1.564-.23.843-.23.843-.923 1.566-.573.598-.462 1.529.333 2zm-57.153-.032c.857-.395.933-1.489.194-2.087-.405-.326-.673-.707-.718-1.231-.007-.077.024-.19-.081-.216-.112-.025-.17.082-.229.155-.403.482-.366 1.206.128 1.683.478.461.924.917.706 1.696zm10.287-11.272c0-.249.01-.5-.003-.749-.012-.204-.116-.229-.276-.109-.468.347-.468 1.339 0 1.681.158.114.265.096.277-.111.012-.236.003-.475.002-.712zm37.211-.035c0-.31-.101-.581-.324-.796-.146-.141-.294-.166-.302.09-.019.477-.017.955-.004 1.434.007.24.137.258.297.109.239-.227.339-.512.333-.837zm-37.41 47.919c-.116.203-.078.36-.079.509-.003 1.153-.011 2.305.003 3.457.004.333-.124.465-.443.442-.125-.01-.254-.003-.379-.003-.234 0-.358-.088-.358-.349.007-1.883.003-3.768.006-5.65 0-.094-.006-.192.084-.268.262-.211 1.234-.043 1.404.254.69 1.208 1.374 2.419 2.062 3.626.073.128.125.28.269.371.156-.154.097-.332.098-.487.007-1.11.019-2.22-.002-3.332-.008-.429.19-.521.565-.509.349.01.631-.002.625.492a329.369 329.369 0 0 0-.001 5.353c.001.355-.117.479-.484.514-.594.055-.943-.142-1.226-.687-.589-1.136-1.257-2.226-1.895-3.334-.069-.118-.146-.235-.249-.399zm33.421-8.212c0-1.264-.005-2.528.005-3.792.002-.181-.103-.442.14-.522.293-.096.611-.094.911.01.143.052.119.209.119.334.002 1.841-.002 3.684.005 5.523.002.285-.101.374-.389.408-.646.075-1.051-.114-1.361-.736-.552-1.105-1.213-2.155-1.828-3.227-.076-.133-.159-.26-.253-.415-.161.144-.109.306-.109.444-.005 1.139-.025 2.276.006 3.414.014.473-.209.514-.588.52-.38.001-.601-.05-.593-.516.02-1.77.012-3.543.004-5.313-.002-.356.127-.477.492-.507.59-.052.943.13 1.227.682.582 1.137 1.247 2.232 1.88 3.342.071.132.152.258.229.388.035-.011.069-.025.103-.037zm-13.082 9.469c0-.9.014-1.8-.007-2.698-.007-.34.103-.487.452-.479.801.021 1.604-.043 2.401.048 1.228.14 1.895.997 1.705 2.195-.102.655-.499 1.081-1.102 1.33-.494.207-.497.208-.164.646.442.582.889 1.161 1.329 1.744.063.083.185.171.123.288-.058.113-.198.075-.308.091-.621.089-1.095-.063-1.438-.661-.336-.58-.783-1.097-1.18-1.643-.121-.166-.251-.323-.481-.244-.217.075-.15.279-.154.437-.008.561-.018 1.122-.001 1.687.014.463-.298.427-.599.425-.296-.002-.629.048-.579-.425v-.043c.003-.899.003-1.799.003-2.698zm2.007-.404c.236-.02.479-.018.709-.063.431-.089.665-.392.659-.803-.005-.396-.226-.675-.648-.762a3.422 3.422 0 0 0-.709-.066c-.951-.006-.841-.043-.841.835 0 .918-.094.836.83.859zm-27.611-10.732c.406 0 .814.005 1.222-.004.248-.003.34.103.357.351.126 1.742-1.222 3.274-2.989 3.38-1.745.107-3.277-1.247-3.355-2.963-.085-1.852 1.264-3.354 3.044-3.404a3.204 3.204 0 0 1 2.115.697c.256.197.286.348.045.604-.294.313-.483.452-.922.131-.944-.691-2.286-.348-2.9.654a2.105 2.105 0 0 0 .719 2.907c.986.588 2.293.251 2.866-.736.254-.436.204-.527-.291-.533-.392-.003-.786-.008-1.179 0-.378.009-.34-.266-.334-.496.005-.248-.094-.581.335-.59.424-.004.845.002 1.267.002zm-13.116.452c0-.912.007-1.826-.003-2.738-.004-.269.101-.388.366-.386.827.008 1.657-.052 2.482.048 1.285.15 1.987 1.159 1.66 2.362-.162.591-.558.956-1.114 1.171-.454.176-.456.178-.153.574.45.593.905 1.181 1.354 1.772.065.088.179.173.123.293-.056.124-.196.069-.302.085-.642.101-1.116-.082-1.461-.687-.319-.557-.749-1.051-1.129-1.573-.118-.162-.236-.331-.474-.269-.257.07-.167.296-.172.46a34.613 34.613 0 0 0-.002 1.643c.006.3-.098.451-.413.428a1.572 1.572 0 0 0-.336 0c-.334.03-.438-.125-.433-.448.017-.91.007-1.823.007-2.735zm1.18-1.231c0 .196-.002.392.001.588.001.142.056.253.216.256.475.004.955.074 1.42-.069.368-.113.546-.383.547-.759.002-.383-.19-.636-.554-.753-.257-.084-.523-.091-.791-.089-.945.007-.837-.073-.839.826zm14.352 11.014c0 .577.014 1.152-.002 1.729-.042 1.31-.783 2.151-2.068 2.388a3.618 3.618 0 0 1-1.505-.046c-1.082-.26-1.786-1.066-1.824-2.197-.043-1.262-.016-2.529-.025-3.793-.001-.27.114-.39.379-.376l.042-.002c.845-.041.85-.037.851.8 0 .983-.008 1.969.004 2.951.016 1.201.967 1.826 2.092 1.382.576-.228.782-.704.788-1.275.014-1.11.005-2.221.012-3.333.001-.188-.06-.449.197-.491.326-.057.677-.113.987.055.114.062.077.23.077.354.002.617 0 1.237 0 1.855l-.005-.001zm25.979-9.806c0-.887.012-1.771-.005-2.658-.009-.343.107-.498.458-.468.126.012.254.009.379.005.248-.007.352.109.349.359-.008.577.015 1.154-.006 1.729-.013.34.123.445.444.436.547-.018 1.097-.02 1.644.001.357.014.464-.131.452-.471-.021-.533.012-1.069-.01-1.603-.017-.356.132-.484.471-.456.125.012.252.005.378.007.228.002.33.118.328.342-.002 1.884-.002 3.77 0 5.653 0 .239-.123.303-.344.314-.828.053-.828.057-.828-.755-.002-.506-.009-1.011 0-1.519.005-.249-.094-.356-.347-.355-.604.006-1.209.007-1.812-.001-.271-.006-.378.105-.373.375.011.604-.011 1.21.006 1.813.011.319-.088.483-.429.442a.974.974 0 0 0-.253 0c-.376.046-.522-.092-.511-.49.026-.9.009-1.8.009-2.7zm-8.499 10.702c0-.898.01-1.797-.005-2.697-.007-.367.144-.493.5-.491 1.068.014 2.136.021 3.203 0 .495-.013.481.285.485.632.006.347-.054.553-.48.534-.702-.032-1.404.004-2.106-.012-.309-.009-.43.101-.427.413.014 1.229-.101 1.01.985 1.03.394.01.788.017 1.181 0 .436-.019.416.271.418.563 0 .303.032.609-.429.598-.576-.014-1.15.009-1.728-.003-.305-.007-.429.107-.427.418.012 1.223-.094 1.006.992 1.026.535.011 1.068.011 1.603 0 .276-.007.403.084.418.381.032.736.018.766-.716.766-.955 0-1.91.002-2.865 0-.582-.004-.6-.021-.602-.586-.002-.857-.002-1.714 0-2.572zm-3.146-10.683c0-.898.01-1.799-.005-2.697-.005-.309.112-.429.416-.427 1.109.007 2.218.012 3.328 0 .511-.007.397.349.41.641.015.287.001.524-.406.511-.715-.021-1.433.005-2.148-.009-.307-.007-.425.1-.419.412.021 1.221-.131 1.011.979 1.033.393.007.786.014 1.179 0 .293-.011.412.116.391.401a2.663 2.663 0 0 0 0 .379c.018.271-.112.379-.376.376-.575-.005-1.152.014-1.728-.002-.32-.007-.453.101-.446.438.022 1.156-.125.987.973 1.003.535.007 1.068.017 1.602-.002.45-.018.403.28.4.563-.002.278.058.577-.394.57-1.124-.016-2.247-.01-3.371-.002-.295.004-.39-.126-.386-.406.009-.928.003-1.857.001-2.782zm35.758-3.075c.861.014.709-.112.982.704.572 1.704 1.127 3.415 1.706 5.118.125.369.023.474-.344.475-.634 0-.651.018-.846-.616-.099-.324-.265-.449-.604-.436-.616.021-1.236.022-1.853-.002-.362-.015-.528.13-.631.467-.17.563-.5.721-1.075.572-.311-.079-.16-.273-.107-.429.546-1.625 1.098-3.249 1.646-4.871.027-.081.053-.161.082-.239.315-.868.127-.727 1.044-.743zm.041 1.3l-.128.002c-.288.857-.58 1.718-.865 2.577-.062.183.039.27.208.273.478.005.953.005 1.429 0 .166-.002.27-.08.206-.271l-.85-2.581zm-47.652 3.932c-.141 0-.283.018-.42-.002-.622-.087-1.097.021-1.212.766-.038.247-.963.393-1.107.196-.065-.091-.019-.193.011-.283.635-1.876 1.271-3.749 1.907-5.623.014-.041.019-.092.047-.118.395-.365.877-.11 1.316-.176.223-.03.32.114.384.31.61 1.853 1.22 3.706 1.84 5.556.107.316-.018.395-.309.406-.676.026-.693.041-.889-.601-.097-.323-.255-.463-.6-.434-.319.025-.645.003-.968.003zm.1-3.95l-.12-.002c-.291.869-.586 1.74-.873 2.613-.079.237.105.247.266.249.436.005.872-.005 1.307.005.285.006.343-.121.257-.367-.115-.333-.221-.669-.332-1.002-.166-.497-.336-.996-.505-1.496zm10.794 15.648c-.873-.007-.723.051-1.006-.702-.65-1.722-1.293-3.446-1.936-5.17-.174-.47-.158-.494.353-.492.975.004.77-.089 1.083.76.455 1.24.891 2.485 1.336 3.729.043.116.056.301.181.31.172.012.175-.189.219-.311.484-1.334.96-2.672 1.446-4.004.064-.176.066-.425.311-.459.333-.048.683-.088 1.001.021.201.066.056.27.007.402-.583 1.568-1.169 3.133-1.755 4.697-.058.157-.116.317-.178.475-.323.821-.151.733-1.062.744zm17.969-6.475c.621-.005 1.197.123 1.682.545.239.209.284.403.017.62a1.37 1.37 0 0 0-.208.209c-.174.218-.313.237-.536.017-.417-.415-.952-.447-1.494-.321-.347.082-.568.313-.595.68-.023.344.188.547.475.675.516.232 1.079.306 1.62.458.667.188 1.168.559 1.312 1.275.155.784-.049 1.452-.71 1.938-.946.695-2.645.648-3.571-.079-.275-.219-.363-.409-.044-.654a1.67 1.67 0 0 0 .268-.27c.175-.21.314-.192.515-.002.531.504 1.171.564 1.844.346.314-.102.537-.303.565-.661.027-.381-.18-.608-.499-.75-.581-.258-1.227-.301-1.819-.521-1.093-.408-1.485-1.667-.818-2.626.389-.568 1.106-.882 1.996-.879zm12.652-10.465c1.025-.005 1.689.255 2.279.729.231.184.233.333.024.546-.438.446-.428.454-.941.132a2.084 2.084 0 0 0-2.762.481 2.109 2.109 0 0 0 .22 2.834c.776.729 1.997.746 2.809.049.13-.11.219-.372.422-.279.249.114.481.293.679.486.135.135-.044.256-.131.349-.917.965-2.032 1.269-3.305.899-1.195-.347-2.089-1.458-2.206-2.671-.187-1.95 1.25-3.562 2.912-3.555zm-24.701 2.883c.027-.991.6-1.986 1.78-2.563 1.161-.563 2.292-.427 3.333.347.159.118.429.226.189.524-.393.488-.533.554-.854.328-.967-.685-2.199-.54-2.907.344-.691.86-.601 2.11.21 2.864a2.057 2.057 0 0 0 2.887-.062c.29-.296.449-.134.668.023.493.358.497.378.062.798a3.182 3.182 0 0 1-3.442.637c-1.17-.493-1.919-1.632-1.926-3.24zm25.176 12.651c.154-.806-.146-1.467-.602-2.116-.549-.782-1.033-1.605-1.542-2.415-.23-.365-.199-.37.236-.427.7-.091 1.165.118 1.457.798.227.526.58.994.862 1.496.162.289.28.306.449.005.326-.575.698-1.124.996-1.711.228-.451.524-.666 1.028-.581.201.036.48-.098.595.089.119.201-.131.372-.234.541-.558.911-1.118 1.819-1.697 2.716-.207.319-.316.639-.299 1.025.022.532-.004 1.067.008 1.602.006.271-.11.388-.374.381a.791.791 0 0 0-.084.002c-.783.029-.801.014-.801-.771.002-.21.002-.422.002-.634zm-5.695-1.202c0-.717-.007-1.435.003-2.152.004-.319-.121-.464-.449-.443-.282.015-.565-.014-.844.007-.302.017-.386-.125-.397-.398-.031-.721-.002-.76.728-.76 1.095 0 2.192-.002 3.289.002.528.001.536.035.562.593.015.399-.083.577-.533.568-1.177-.021-1.177.002-1.177 1.168 0 1.153.002 2.306-.002 3.459-.002.521-.036.55-.599.55-.545 0-.575-.027-.577-.568-.003-.675 0-1.35 0-2.022l-.004-.004zm-27.892-14.369c.604 0 1.209.014 1.813-.005.523-.018.433.338.453.657.021.349-.077.533-.467.495-.265-.025-.535.013-.801-.007-.335-.025-.441.123-.439.442.009 1.393.005 2.784 0 4.177-.001.183.083.438-.168.51-.297.086-.62.102-.908-.028-.142-.063-.087-.253-.087-.388-.003-1.393-.018-2.784.006-4.175.007-.434-.139-.591-.558-.538a2.196 2.196 0 0 1-.506 0c-.199-.019-.477.106-.577-.117-.12-.269-.087-.586-.016-.871.044-.178.252-.149.402-.15.615-.006 1.234-.002 1.853-.002zm42.847 3.142c-.002-.871-.004-1.742 0-2.615 0-.527.02-.543.589-.541.543 0 .579.029.579.568.003 1.293 0 2.586.002 3.879 0 .679.001.68.66.68.745.002 1.49.011 2.234-.003.311-.005.447.107.414.418a1.221 1.221 0 0 0 0 .296c.052.374-.115.485-.479.479a116.237 116.237 0 0 0-3.543 0c-.345.004-.471-.11-.464-.461.02-.899.008-1.798.008-2.7z"/><path d="M435.197 594.074c1.011-.008 1.651 1.061 1.172 1.981-.107.203-.127.317.053.497.48.479.552 1.235.214 1.826a1.646 1.646 0 0 1-1.763.784c-.704-.156-1.205-.704-1.27-1.396-.045-.47.045-.907.414-1.227.196-.169.176-.276.057-.487-.493-.873.139-1.972 1.123-1.978zm.757 3.493a.738.738 0 0 0-1.474.027c.002.417.343.731.771.712a.72.72 0 0 0 .703-.739zm-.716-1.631c.29-.034.468-.189.472-.485.002-.321-.194-.497-.502-.492-.287.007-.479.189-.479.48 0 .309.195.475.509.497zm7.416 2.231c.528.103.961.055 1.387.057.309.001.452.089.456.434.005.356-.163.429-.459.427-.717-.009-1.435.002-2.15-.007-.198-.003-.477.086-.549-.18-.075-.276-.107-.585.15-.824.495-.456.987-.919 1.479-1.381.194-.183.393-.363.513-.609.218-.444.08-.917-.312-1.077-.415-.17-.808.037-.981.517-.111.31-.389.438-.728.314-.313-.116-.187-.377-.133-.572.174-.641.602-1.05 1.254-1.164.647-.113 1.208.092 1.594.633.406.569.429 1.186.076 1.785-.273.467-.693.81-1.08 1.175-.15.137-.302.273-.517.472zm-3.017-4.005c.141.021.343-.082.424.067.082.152-.093.277-.172.403-.184.299-.378.591-.57.883-.116.177-.094.259.131.313 1.045.249 1.545 1.07 1.282 2.078-.239.924-1.126 1.462-2.038 1.24-.939-.229-1.482-1.183-1.236-2.166.07-.276.196-.524.35-.76.361-.554.732-1.101 1.077-1.664.179-.289.381-.482.752-.394zm-1.333 3.323c.007.492.344.835.807.825a.803.803 0 0 0 .791-.81c.003-.479-.388-.873-.844-.855-.443.019-.762.372-.754.84zm-13.554 52.21c0-.869.013-1.74-.006-2.608-.009-.372.095-.533.494-.527.778.008.778-.011.778.78 0 1.697-.011 3.394.007 5.092.003.396-.14.536-.512.502a1.18 1.18 0 0 0-.252 0c-.37.032-.528-.104-.518-.504.026-.911.009-1.823.009-2.735zm27.838.066c0 .887-.019 1.77.009 2.654.015.42-.15.561-.538.52a.828.828 0 0 0-.211 0c-.395.042-.538-.113-.533-.526.019-1.768.021-3.539-.001-5.307-.006-.442.155-.586.563-.536.082.008.167.008.253.001.339-.034.473.104.466.456-.02.912-.008 1.826-.008 2.738zm-45.7-10.679c0-.885.014-1.769-.006-2.653-.012-.463.257-.477.598-.479.346-.004.594.023.59.483a312.626 312.626 0 0 0 0 5.392c.003.444-.251.456-.574.451-.319-.007-.625.032-.613-.456.02-.913.005-1.826.005-2.738zm49.688-.004c0 .898-.01 1.799.006 2.693.005.355-.109.495-.485.485-.695-.021-.697 0-.697-.695 0-1.697 0-3.396.002-5.092 0-.19-.048-.443.198-.5.281-.064.592-.101.862.034.151.073.112.273.112.425.002.882.002 1.767.002 2.65zm-23.911-42.433c0 .674-.01 1.349.005 2.023.009.323-.146.412-.436.415-.295.002-.479-.06-.475-.418.014-1.039.001-2.081.003-3.119 0-.292.025-.554-.41-.57-.314-.012-.166-.326-.19-.511-.022-.175.043-.306.253-.304h.969c.264-.004.278.181.279.375.002.703.002 1.405.002 2.109zm8.724 24.766c-.146-.638-.295-1.272-.443-1.908-.28-1.233-.562-2.466-.846-3.699-.03-.128-.008-.314-.162-.357-.13-.034-.205.125-.292.21-.509.504-1.022 1.005-1.515 1.525-.222.236-.376.262-.609.012-.489-.523-1.004-1.022-1.517-1.524-.093-.095-.175-.275-.327-.214-.11.041-.106.215-.134.338a8360.66 8360.66 0 0 1-1.22 5.343.672.672 0 0 1-.121.275c-.226-.807-.68-1.537-.432-2.453.367-1.356.631-2.739.959-4.104.066-.283.01-.471-.194-.673a664.316 664.316 0 0 1-3.84-3.853c-.103-.104-.307-.197-.25-.355.062-.169.274-.091.419-.091a323.3 323.3 0 0 1 4.513.002c.359.003.537-.114.594-.477.06-.39.157-.772.26-1.151.127-.481.178-.919-.058-1.416-.32-.678-.009-1.494.614-1.935a1.814 1.814 0 0 1 2.162.068c.591.479.823 1.294.486 1.974-.181.362-.178.686-.084 1.051.118.461.244.926.317 1.397.06.391.256.493.627.49 1.448-.018 2.897-.007 4.346-.007.111 0 .224-.002.336.003.082.004.182-.016.226.079.045.097-.042.151-.095.21-.107.112-.217.222-.326.331-1.161 1.165-2.313 2.34-3.491 3.486-.338.329-.456.625-.331 1.104.319 1.222.55 2.468.867 3.693.154.598.165 1.152-.058 1.727-.114.294-.189.603-.283.905a1.66 1.66 0 0 0-.098-.006zm-3.556-10.526c-.237 0-.479.018-.716-.003-.348-.03-.498.123-.566.458-.165.811-.358 1.615-.548 2.422-.056.233-.049.429.144.613.483.468.96.946 1.426 1.435.194.205.333.174.514-.016.448-.466.902-.926 1.367-1.371.211-.2.255-.407.188-.679-.144-.572-.255-1.152-.398-1.725-.339-1.335-.011-1.107-1.411-1.134zm3.635.002c-.364 0-.729.002-1.094 0-.237-.002-.333.104-.278.344.134.575.263 1.149.393 1.724.059.256.173.249.339.083.611-.616 1.228-1.231 1.841-1.85.056-.057.146-.116.111-.207-.045-.11-.165-.09-.26-.092a61.485 61.485 0 0 0-1.052-.002zm-7.274 0c-.366 0-.729-.002-1.094.002-.082 0-.18-.014-.227.075-.052.096.034.153.09.21.623.629 1.248 1.254 1.871 1.879.203.203.279.08.326-.123.128-.561.253-1.122.384-1.681.062-.263-.041-.369-.299-.365-.35.005-.7.003-1.051.003zm3.637-1.012c.153 0 .31-.01.461.004.35.028.453-.118.364-.449a12.97 12.97 0 0 1-.244-1.067c-.054-.293-.209-.341-.493-.369-.483-.046-.7.126-.739.591-.011.126-.053.246-.08.37-.217 1.006-.327.917.731.92zm-.018-4.32a.755.755 0 0 0-.747.753c.004.406.351.74.766.734a.752.752 0 0 0 .747-.751.757.757 0 0 0-.766-.736z"/></g><radialGradient id="a" cx="-847.05" cy="62.172" r="161.229" gradientTransform="matrix(1.5744 0 0 -1 1771.42 642.067)" gradientUnits="userSpaceOnUse"><stop offset="0" stop-color="#fff"/><stop offset="1" stop-color="#fff" stop-opacity="0"/></radialGradient><path fill="url(#a)" d="M78.843 579.068h717.962v1.655H78.843z"/><linearGradient id="b" gradientUnits="userSpaceOnUse" x1="4149.326" y1="-2976.585" x2="4292.424" y2="-2976.585" gradientTransform="matrix(0 1 1 0 3215.035 -3810.539)"><stop offset="0" stop-color="#706dcb" stop-opacity="0"/><stop offset="1" stop-color="#706dcb" stop-opacity=".7"/></linearGradient><path fill="url(#b)" d="M176.074 481.885h-.024c-7.931 0-15.301-1.744-21.906-5.188-8.996-4.699-15.854-11.66-20.385-20.707-2.767-5.535-4.369-11.453-4.745-17.582l-.116-1.203.028-4.344c.222-2.631.609-6.082 1.573-9.572 1.875-6.783 5.196-12.902 9.86-18.195 4.006-4.549 8.854-8.271 14.415-11.051.371-.184.73-.354 1.085-.514.888-5.105 2.873-9.861 5.894-14.176 4.802-6.84 11.244-11.465 19.183-13.746 4.978-1.436 10.005-1.734 14.886-.916 2.752.473 5.447 1.313 8.166 2.541 7.141-11.229 16.876-19.346 29.018-24.207 12.255-4.908 25.271-5.561 38.249-1.92 13.635 3.811 24.761 11.609 33.083 23.178 7.104 9.879 10.913 20.877 11.372 32.773 8.032 2.1 14.988 6.225 20.72 12.293 6.813 7.213 10.667 15.863 11.433 25.709.605 7.707-.793 15.141-4.143 22.092-3.388 7.043-8.394 12.852-14.886 17.262-5.601 3.805-11.729 6.158-18.263 7.012a52.627 52.627 0 0 1-6.879.436c-26.589.02-53.17.023-79.765.023l-47.853.002z"/><path fill="#FFF" d="M175.873 491.182h-.017c-8.267 0-15.96-1.826-22.865-5.426-9.392-4.906-16.551-12.178-21.28-21.615a47.308 47.308 0 0 1-4.95-18.381l-.117-1.113a1.59 1.59 0 0 1-.011-.229l.032-4.346c.211-2.617.603-6.326 1.643-10.107 1.961-7.078 5.428-13.471 10.302-19.008 4.197-4.76 9.258-8.643 15.045-11.537.06-.025.118-.057.177-.084 1.023-5.002 3.053-9.689 6.039-13.945 5.076-7.229 11.902-12.123 20.294-14.547 5.246-1.506 10.628-1.834 15.8-.965a34.53 34.53 0 0 1 7.048 2.004c7.272-10.828 17.029-18.744 29.025-23.549 12.626-5.057 26.218-5.738 39.575-1.996 14.094 3.945 25.601 12.006 34.205 23.967 7.023 9.768 10.953 20.656 11.686 32.387 7.788 2.307 14.589 6.494 20.231 12.465 7.149 7.557 11.184 16.633 11.994 26.961.63 8.088-.832 15.879-4.347 23.156-3.549 7.377-8.794 13.455-15.585 18.07-5.867 3.986-12.312 6.461-19.147 7.354a54.68 54.68 0 0 1-7.154.451c-26.58.021-53.166.025-79.765.025l-47.858.008zm-45.111-46.851l.112 1.088a43.415 43.415 0 0 0 4.53 16.877c4.331 8.639 10.892 15.303 19.498 19.797 6.309 3.289 13.36 4.959 20.954 4.959l.017 2.064v-2.064l47.854-.012c26.597 0 53.182-.002 79.762-.023 2.3 0 4.525-.143 6.619-.418 6.194-.811 12.035-3.053 17.365-6.674 6.182-4.201 10.956-9.732 14.185-16.445 3.194-6.613 4.522-13.693 3.95-21.041-.733-9.363-4.394-17.59-10.878-24.445-5.455-5.773-12.095-9.715-19.74-11.715a2.065 2.065 0 0 1-1.54-1.916c-.449-11.484-4.146-22.129-10.99-31.646-8.039-11.178-18.795-18.713-31.964-22.398-12.486-3.498-25.136-2.863-36.924 1.854-11.711 4.689-21.144 12.564-28.035 23.396a2.07 2.07 0 0 1-2.591.775c-2.587-1.166-5.098-1.945-7.673-2.389-4.547-.768-9.316-.473-13.967.861-7.459 2.152-13.534 6.51-18.054 12.947-2.846 4.057-4.714 8.551-5.554 13.348a2.058 2.058 0 0 1-1.179 1.523c-.349.162-.696.326-1.042.494-5.285 2.645-9.925 6.201-13.768 10.561-4.458 5.063-7.627 10.91-9.418 17.377-.949 3.445-1.311 6.898-1.501 9.195l-.028 4.07z"/><path fill="#FFF" d="M193.547 425.516v15.906h-3.635v-15.906h3.635zm15.226 0v15.906h-2.728l-6.135-8.633v8.633h-3.635v-15.906h2.727l6.137 8.635v-8.635h3.634zm13.405 3.5h-4.09v12.406h-3.638v-12.406h-4.089v-3.5h11.816l.001 3.5zm11.587 8.908v3.498h-9.999v-15.906h9.884v3.5h-6.25v2.637h5.683v3.451H227.4v2.818l6.365.002zm7.407-1.726h-1.729v5.225h-3.635v-15.906h6.363a5.441 5.441 0 0 1 5.454 5.428v.025c0 1.953-1.182 3.727-2.931 4.611l3.385 5.84h-3.906l-3.001-5.223zm-1.729-3.182h2.728c.999 0 1.818-.887 1.818-2.045 0-1.162-.819-2.047-1.818-2.047h-2.728v4.092zm22.836-7.5v15.906h-2.727l-6.137-8.633v8.633h-3.634v-15.906h2.727l6.136 8.635v-8.635h3.635zm12.723 12.408v3.498h-9.999v-15.906h9.883v3.5h-6.248v2.637h5.682v3.451h-5.682v2.818l6.364.002zm12.723-8.908h-4.091v12.406h-3.637v-12.406h-4.089v-3.5h11.816l.001 3.5zm271.752 60.092v-.682c0-5.553-.021-11.098.007-16.648.021-5.055 3.178-8.947 8.051-9.99 4.131-.877 8.656 1.27 10.643 5.027.834 1.578 1.187 3.25 1.17 5.033-.024 5.494-.012 10.988-.006 16.484v.775h-19.865v.001zm16.273-35.49c-.018 3.463-2.9 6.287-6.385 6.258-3.482-.023-6.267-2.867-6.24-6.377.031-3.508 2.887-6.357 6.322-6.313a6.367 6.367 0 0 1 6.303 6.432zm11.463 35.49v-.682c0-5.553-.018-11.098.008-16.648.021-5.055 3.179-8.947 8.052-9.99 4.133-.877 8.659 1.27 10.645 5.027.836 1.578 1.176 3.25 1.166 5.033-.025 5.494-.004 10.988 0 16.484v.775h-19.871v.001zm16.273-35.49c-.019 3.463-2.898 6.287-6.383 6.258-3.484-.023-6.263-2.867-6.244-6.377.032-3.508 2.893-6.357 6.33-6.313 3.53.049 6.311 2.895 6.297 6.432zm-71.75 35.49v-.682c0-5.553-.021-11.098.006-16.648.02-5.055 3.184-8.947 8.053-9.99 4.135-.877 8.66 1.27 10.643 5.027.832 1.578 1.183 3.25 1.171 5.033-.029 5.494-.011 10.988-.009 16.484v.775h-19.864v.001zm16.274-35.49c-.018 3.463-2.897 6.287-6.377 6.258-3.486-.023-6.27-2.867-6.248-6.377.033-3.508 2.89-6.357 6.328-6.313 3.531.049 6.31 2.895 6.297 6.432z"/><path fill="#FFF" d="M576.373 471.702v-.482c0-3.869-.014-7.736.004-11.605.018-3.527 2.219-6.24 5.617-6.967 2.879-.615 6.035.883 7.42 3.506.584 1.1.824 2.266.816 3.51-.019 3.832-.009 7.666 0 11.498v.541h-13.857v-.001zm11.352-24.752c-.018 2.416-2.026 4.381-4.455 4.363a4.39 4.39 0 0 1-4.352-4.447c.02-2.443 2.018-4.434 4.408-4.4 2.467.029 4.403 2.013 4.399 4.484zm-39.192 24.752v-.482c0-3.869-.012-7.736.004-11.605.018-3.527 2.221-6.24 5.613-6.967 2.881-.615 6.039.883 7.424 3.506.578 1.1.817 2.266.813 3.51-.016 3.832-.008 7.666 0 11.498v.541h-13.854v-.001zm11.348-24.752c-.018 2.416-2.027 4.381-4.455 4.363-2.428-.02-4.365-2.002-4.352-4.447.021-2.443 2.018-4.434 4.414-4.4a4.435 4.435 0 0 1 4.393 4.475v.009zm-302.923-70.244a2.068 2.068 0 0 1-2.065-2.068l-.008-65.466a2.066 2.066 0 1 1 4.13 0l.008 65.466a2.064 2.064 0 0 1-2.065 2.068z"/><path fill="#FFF" d="M256.891 377.819l-8.385-10.26a2.065 2.065 0 1 1 3.199-2.615l5.322 6.514 5.599-6.283a2.066 2.066 0 0 1 3.084 2.748l-8.819 9.896zm6.975-58.223a2.072 2.072 0 0 1-1.601-.758l-5.326-6.514-5.595 6.284a2.068 2.068 0 0 1-2.916.168 2.064 2.064 0 0 1-.17-2.914l.002-.002 8.815-9.898 8.39 10.262a2.067 2.067 0 0 1-1.599 3.372z"/><linearGradient id="c" gradientUnits="userSpaceOnUse" x1="-676.616" y1="5508.532" x2="-624.36" y2="5508.532" gradientTransform="matrix(0 1 1 0 -5024.4 1018.626)"><stop offset="0" stop-color="#706dcb" stop-opacity="0"/><stop offset="1" stop-color="#706dcb" stop-opacity=".7"/></linearGradient><path fill="url(#c)" d="M613.756 373.36c0 11.549-9.359 20.906-20.906 20.906H375.416c-11.545 0-20.908-9.357-20.908-20.906v-10.447c0-11.545 9.36-20.902 20.908-20.902h217.436c11.543 0 20.904 9.357 20.904 20.902v10.447z"/><path fill="#FFF" d="M592.643 400.946h-217.44c-12.664 0-22.966-10.305-22.966-22.967V367.53c0-12.666 10.302-22.971 22.966-22.971h217.439c12.664 0 22.966 10.305 22.966 22.971v10.449c-.001 12.664-10.301 22.967-22.965 22.967zm-217.441-52.258c-10.386 0-18.835 8.451-18.835 18.84v10.447c0 10.389 8.451 18.842 18.835 18.842h217.439c10.386 0 18.834-8.453 18.834-18.842v-10.447c0-10.389-8.448-18.84-18.834-18.84H375.202z"/><path fill="#FFF" d="M433.087 376.713l3.135-1.816c.57 1.316 1.545 2.201 3.341 2.201 1.729 0 2.159-.68 2.159-1.295 0-.977-.909-1.363-3.297-2.023-2.362-.658-4.682-1.791-4.682-4.838 0-3.07 2.594-4.842 5.342-4.842 2.611 0 4.656 1.25 5.814 3.59l-3.066 1.797c-.545-1.139-1.295-1.84-2.75-1.84-1.139 0-1.705.564-1.705 1.203 0 .727.385 1.229 2.861 1.977 2.407.727 5.112 1.566 5.112 4.932 0 3.066-2.454 4.889-5.905 4.889-3.337-.001-5.472-1.595-6.359-3.935zm23.177 1.118h-5.905l-.798 2.496h-3.977l5.408-15.906h4.635l5.412 15.906h-3.979l-.796-2.496zm-1.09-3.413l-1.867-5.84-1.858 5.84h3.725zm19.719-9.998v15.906h-2.727l-6.137-8.633v8.633h-3.635V364.42h2.727l6.137 8.633v-8.633h3.635zm16.816 7.954c0 4.498-3.34 7.951-7.729 7.951h-6.361v-15.906h6.361c4.389.001 7.729 3.455 7.729 7.955zm-3.5 0c0-2.729-1.727-4.453-4.229-4.453h-2.728v8.908h2.728c2.502 0 4.229-1.729 4.229-4.455zm17.355 3.296c0 2.814-2.293 4.656-5.136 4.656h-6.68v-15.908h6.227c2.771 0 5.021 1.795 5.021 4.545 0 1.318-.521 2.363-1.385 3.115 1.18.749 1.953 1.979 1.953 3.592zm-8.179-7.843v2.818h2.592c.818 0 1.388-.588 1.388-1.408 0-.818-.543-1.41-1.388-1.41h-2.592zm4.547 7.568c0-.885-.59-1.521-1.502-1.521h-3.045v3.045h3.045c.912-.001 1.502-.635 1.502-1.524zm4.769-3.021c0-4.682 3.703-8.271 8.27-8.271 4.568 0 8.271 3.592 8.271 8.271s-3.703 8.271-8.271 8.271c-4.567.002-8.27-3.59-8.27-8.271zm12.906 0c0-2.842-2.045-4.727-4.638-4.727-2.59 0-4.637 1.885-4.637 4.727 0 2.838 2.047 4.725 4.637 4.725 2.594-.001 4.638-1.886 4.638-4.725zm13.131 7.953l-2.683-4.592-2.68 4.592h-4.135l4.748-8.156-4.521-7.748h4.135l2.453 4.205 2.455-4.205h4.136l-4.521 7.748 4.75 8.156h-4.137zm-141.586-3.61a2.065 2.065 0 0 1-2.065-2.064l-.012-65.469a2.066 2.066 0 1 1 4.132 0l.012 65.469c0 1.14-.926 2.064-2.067 2.064z"/><path fill="#FFF" d="M391.087 377.834l-8.391-10.262a2.065 2.065 0 0 1 3.197-2.613l5.327 6.512 5.597-6.283a2.064 2.064 0 0 1 2.919-.111c.815.754.889 2.02.165 2.861l-8.814 9.896zm6.976-58.224a2.06 2.06 0 0 1-1.601-.759l-5.33-6.517-5.598 6.282a2.065 2.065 0 1 1-3.085-2.747l8.815-9.898 8.393 10.263a2.063 2.063 0 0 1-.291 2.904 2.034 2.034 0 0 1-1.303.472zm171.468 111.537a2.07 2.07 0 0 1-2.068-2.068l-.008-65.471a2.066 2.066 0 0 1 4.131 0l.008 65.471a2.067 2.067 0 0 1-2.063 2.068z"/><path fill="#FFF" d="M569.463 432.26l-8.387-10.262a2.064 2.064 0 0 1 .354-2.902 2.065 2.065 0 0 1 2.847.287l5.321 6.516 5.601-6.283a2.062 2.062 0 0 1 2.916-.17c.854.76.93 2.064.17 2.916l-8.822 9.898zm6.975-58.226a2.073 2.073 0 0 1-1.6-.756l-5.326-6.516-5.598 6.283a2.064 2.064 0 0 1-2.916.166 2.06 2.06 0 0 1-.168-2.912l.002-.002 8.811-9.896 8.394 10.262a2.068 2.068 0 0 1-1.599 3.371zm54.103 76.461v15.906h-3.637v-15.906h3.637zm15.225 0v15.906h-2.727l-6.135-8.635v8.635h-3.638v-15.906h2.728l6.137 8.635v-8.635h3.635zm13.406 3.5h-4.092v12.406h-3.637v-12.406h-4.088v-3.5h11.815l.002 3.5zm11.586 8.908v3.498h-10v-15.906h9.881v3.5h-6.246v2.637h5.683v3.453h-5.683v2.816l6.365.002zm7.406-1.727h-1.727v5.227H672.8v-15.908h6.361a5.442 5.442 0 0 1 5.455 5.43v.025c0 1.951-1.185 3.727-2.931 4.609l3.386 5.842h-3.91l-2.997-5.225zm-1.726-3.183h2.726c1 0 1.82-.885 1.82-2.043s-.82-2.045-1.82-2.045h-2.726v4.088zm22.833-7.498v15.906h-2.728l-6.139-8.635v8.635h-3.636v-15.906h2.729l6.135 8.635v-8.635h3.639zm12.725 12.408v3.498h-10v-15.906h9.883v3.5h-6.25v2.637h5.682v3.453h-5.682v2.816l6.367.002zm12.723-8.908h-4.09v12.406h-3.637v-12.406h-4.09v-3.5h11.815l.002 3.5zM351.48 179.813a2.068 2.068 0 0 1-2.065-2.067l-.007-44.814a2.065 2.065 0 0 1 4.131 0l.009 44.814a2.069 2.069 0 0 1-2.068 2.067z"/><path fill="#FFF" d="M351.413 180.929l-8.387-10.264a2.066 2.066 0 1 1 3.201-2.612l5.322 6.512 5.599-6.283a2.066 2.066 0 1 1 3.085 2.75l-8.82 9.897zm6.976-37.572a2.06 2.06 0 0 1-1.601-.758l-5.325-6.515-5.595 6.283a2.067 2.067 0 0 1-2.917.168 2.063 2.063 0 0 1-.169-2.914v-.001l8.814-9.898 8.392 10.263a2.066 2.066 0 0 1-1.599 3.372zm313.457-10.302h-5.91l-.793 2.5h-3.979l5.41-15.906h4.635l5.41 15.906h-3.978l-.795-2.5zm-1.092-3.409l-1.865-5.84-1.86 5.84h3.725zm16.539 2.409v3.5h-9.316v-15.906h3.636v12.406h5.68zm16.432-3.998c0 4.861-3.389 7.815-7.842 7.815-4.998 0-8.59-3.682-8.59-8.247 0-4.613 3.658-8.295 8.34-8.295 3.047 0 5.613 1.499 6.953 3.636l-3.09 1.772c-.658-1.045-2.09-1.863-3.885-1.863-2.681 0-4.683 1.978-4.683 4.771 0 2.703 1.912 4.682 5 4.682 2.113 0 3.5-.931 4.066-2.454h-4.246v-3.181h7.977v1.364zm1.357-.455c0-4.682 3.703-8.271 8.273-8.271 4.565 0 8.27 3.59 8.27 8.271s-3.703 8.271-8.27 8.271c-4.57-.001-8.273-3.592-8.273-8.271zm12.908 0c0-2.84-2.045-4.727-4.635-4.727-2.595 0-4.642 1.887-4.642 4.727s2.047 4.727 4.642 4.727c2.59-.002 4.635-1.889 4.635-4.727zm11.041 2.725h-1.728v5.228h-3.639v-15.906h6.363a5.438 5.438 0 0 1 5.453 5.424v.029c0 1.953-1.183 3.727-2.931 4.611l3.388 5.842h-3.908l-2.998-5.228zm-1.726-3.181h2.726c1 0 1.817-.886 1.817-2.045 0-1.158-.817-2.045-1.817-2.045h-2.726v4.09zm13.968-7.498v15.906h-3.634v-15.906h3.634zm13.411 3.498h-4.092v12.408h-3.637v-12.408h-4.088v-3.5h11.815l.002 3.5zm13.859-3.498v15.906h-3.635v-6.318h-5v6.318h-3.637v-15.906h3.637v6.09h5v-6.09h3.635zm18.631 15.907h-3.637v-9.249l-4.113 6.749h-.408l-4.114-6.749v9.249h-3.636v-15.906h3.636l4.319 7.066 4.316-7.066h3.637v15.906zm7.722-7.953c0-4.682 3.702-8.271 8.271-8.271 4.566 0 8.271 3.59 8.271 8.271s-3.703 8.271-8.271 8.271c-4.567-.001-8.271-3.592-8.271-8.271zm12.907 0c0-2.84-2.043-4.727-4.633-4.727-2.596 0-4.639 1.887-4.639 4.727s2.043 4.727 4.639 4.727c2.588-.002 4.633-1.89 4.633-4.727zm9.314-4.456v3.068h5.908v3.498h-5.908v5.842h-3.635v-15.906h9.655v3.499l-6.02-.001zm-115.576 35.128h-3.639v-9.248l-4.111 6.748h-.41l-4.113-6.748v9.248h-3.637v-15.906h3.637l4.32 7.066 4.314-7.066h3.639v15.906zm2.609-5.134v-10.772h3.635v10.453c0 1.204.568 2.228 2.5 2.228s2.5-1.023 2.5-2.228v-10.453h3.637v10.772c0 3.408-2.637 5.454-6.137 5.454-3.502 0-6.135-2.046-6.135-5.454zm24.2 1.635v3.499h-9.317v-15.906h3.635v12.407h5.682zm10.679-8.908h-4.09v12.407h-3.642v-12.407h-4.086v-3.499h11.814l.004 3.499zm5.223-3.499v15.906h-3.635v-15.906h3.635zm12.045 12.407v3.499h-9.315v-15.906h3.635v12.407h5.68zm11.584 0v3.499h-9.996v-15.906h9.883v3.499h-6.25v2.638h5.685v3.451h-5.685v2.819h6.363zm.682-12.407h3.978l3.521 11.703 3.521-11.703h3.975l-5.18 15.906h-4.633l-5.182-15.906zm26.357 12.407v3.499h-9.998v-15.906h9.881v3.499h-6.248v2.638h5.683v3.451h-5.683v2.819h6.365zm11.361 0v3.499h-9.316v-15.906h3.633v12.407h5.683zm-134.758 10.314h3.977l3.521 11.704 3.522-11.704h3.973l-5.178 15.907h-4.637l-5.178-15.907zm26.358 12.407v3.499h-9.998v-15.906h9.883v3.497h-6.248v2.637h5.681v3.454h-5.681v2.818l6.363.001zm7.406-1.727h-1.728v5.227h-3.637V165.09h6.363a5.438 5.438 0 0 1 5.453 5.424v.029c0 1.953-1.183 3.725-2.931 4.611l3.386 5.841h-3.908l-2.998-5.226zm-1.726-3.182h2.728c.998 0 1.817-.885 1.817-2.044 0-1.158-.819-2.045-1.817-2.045h-2.728v4.089zm13.972-7.498v15.907h-3.635v-15.907h3.635zm6.36 3.499v3.069h5.91v3.498h-5.91v5.841h-3.635v-15.907h9.658v3.499h-6.023zm11.816-3.499v15.907h-3.637v-15.907h3.637zm2.045 7.953c0-4.681 3.479-8.271 8.271-8.271 2.885 0 5.432 1.431 6.817 3.681l-3.135 1.817c-.703-1.226-2.068-1.952-3.684-1.952-2.818 0-4.638 1.886-4.638 4.727 0 2.84 1.818 4.728 4.638 4.728 1.614 0 3-.728 3.684-1.954l3.135 1.817c-1.362 2.25-3.906 3.683-6.817 3.683-4.795-.004-8.271-3.595-8.271-8.276zm26.107 5.454h-5.908l-.797 2.499h-3.976l5.408-15.906h4.638l5.409 15.906h-3.979l-.795-2.499zm-1.091-3.409l-1.864-5.84-1.861 5.84h3.725zm16.769-6.499h-4.09v12.408h-3.638v-12.408h-4.088v-3.499h11.814l.002 3.499zm5.221-3.499v15.907h-3.633v-15.907h3.633zm2.047 7.953c0-4.681 3.705-8.271 8.271-8.271 4.568 0 8.271 3.591 8.271 8.271 0 4.681-3.705 8.272-8.271 8.272-4.566 0-8.271-3.591-8.271-8.272zm12.908 0c0-2.841-2.045-4.727-4.635-4.727-2.594 0-4.637 1.886-4.637 4.727 0 2.84 2.043 4.727 4.637 4.727 2.59 0 4.635-1.887 4.635-4.727zm18.176-7.953v15.907h-2.727l-6.137-8.635v8.635h-3.636v-15.907h2.726l6.139 8.634v-8.634h3.635z"/><path fill="none" stroke="#FFF" stroke-width="2" stroke-linecap="round" stroke-miterlimit="10" d="M621.672 244.66l73.863-.012m-8.058-7.149l8.091 7.21-8.392 6.854"/><g fill="#FFF"><path d="M735.432 264.746v-.681c0-5.551-.022-11.099.004-16.647.021-5.056 3.181-8.95 8.05-9.989 4.135-.879 8.664 1.27 10.646 5.025.834 1.577 1.183 3.254 1.164 5.035-.022 5.494-.006 10.991 0 16.483v.774h-19.864zm16.271-35.487c-.021 3.461-2.898 6.283-6.381 6.257-3.486-.026-6.271-2.869-6.246-6.378.031-3.506 2.887-6.359 6.326-6.31 3.534.048 6.313 2.891 6.301 6.431zm11.465 35.487v-.681c0-5.551-.021-11.098.008-16.647.021-5.056 3.178-8.95 8.053-9.989 4.132-.879 8.654 1.27 10.64 5.025.836 1.577 1.176 3.254 1.172 5.035-.031 5.494-.012 10.991 0 16.483v.774h-19.873zm16.27-35.487c-.018 3.461-2.896 6.283-6.379 6.257s-6.27-2.869-6.241-6.378c.028-3.506 2.889-6.359 6.321-6.31 3.535.048 6.314 2.891 6.299 6.431zm-71.749 35.487v-.681c0-5.551-.021-11.098.01-16.647.018-5.056 3.18-8.95 8.047-9.989 4.139-.879 8.666 1.27 10.648 5.025.825 1.577 1.176 3.254 1.166 5.035-.027 5.494-.015 10.991-.005 16.483v.774h-19.866zm16.278-35.487c-.022 3.461-2.899 6.283-6.387 6.257-3.482-.026-6.269-2.869-6.238-6.378.025-3.506 2.887-6.359 6.324-6.31 3.533.048 6.309 2.891 6.301 6.431z"/><path d="M752.328 247.339v-.479c0-3.869-.014-7.736.002-11.609.014-3.526 2.215-6.239 5.617-6.966 2.883-.616 6.039.884 7.422 3.507.576 1.099.82 2.265.811 3.512-.018 3.831-.004 7.663 0 11.494v.542l-13.852-.001zm11.348-24.75c-.014 2.417-2.021 4.383-4.453 4.365-2.428-.019-4.369-2.004-4.354-4.446.02-2.447 2.016-4.436 4.412-4.403 2.461.032 4.401 2.015 4.395 4.484zm-39.19 24.75v-.479c0-3.869-.017-7.736 0-11.609.018-3.526 2.219-6.239 5.621-6.966 2.879-.616 6.039.884 7.418 3.507.582 1.099.819 2.265.813 3.512-.018 3.831-.008 7.663 0 11.494v.542l-13.852-.001zm11.348-24.75c-.016 2.417-2.023 4.383-4.451 4.365a4.393 4.393 0 0 1-4.354-4.446c.02-2.447 2.012-4.436 4.41-4.403a4.437 4.437 0 0 1 4.395 4.484z"/></g><path fill="#FFF" d="M694.498 291.639c0-4.681 3.705-8.271 8.271-8.271 4.566 0 8.271 3.59 8.271 8.271 0 4.681-3.703 8.271-8.271 8.271-4.568.001-8.271-3.591-8.271-8.271zm12.908 0c0-2.837-2.045-4.726-4.635-4.726-2.593 0-4.64 1.887-4.64 4.726 0 2.84 2.047 4.729 4.64 4.729 2.59 0 4.635-1.889 4.635-4.729zm9.313-4.452v3.067h5.91v3.5h-5.91v5.839h-3.635v-15.906h9.66v3.5h-6.025zm11.814 0v3.067h5.91v3.5h-5.91v5.839h-3.637v-15.906h9.659v3.5h-6.022zm11.817-3.5v15.906h-3.635v-15.906h3.635zm2.043 7.952c0-4.681 3.479-8.271 8.271-8.271 2.883 0 5.43 1.431 6.814 3.683l-3.134 1.818c-.705-1.228-2.069-1.954-3.682-1.954-2.818 0-4.639 1.887-4.639 4.727 0 2.84 1.819 4.729 4.639 4.729 1.611 0 2.998-.729 3.682-1.955l3.134 1.819c-1.361 2.25-3.904 3.681-6.814 3.681-4.795-.005-8.271-3.597-8.271-8.277zm26.789 4.454v3.5h-10v-15.906h9.884v3.5h-6.248v2.637h5.68v3.453h-5.68v2.816h6.364zm7.406-1.726h-1.729v5.226h-3.636v-15.907h6.361a5.443 5.443 0 0 1 5.455 5.429v.024c0 1.953-1.184 3.729-2.932 4.613l3.385 5.839h-3.906l-2.998-5.224zm-1.729-3.182h2.727c1 0 1.822-.886 1.822-2.044 0-1.156-.822-2.043-1.822-2.043h-2.727v4.087zm9.317 4.796l3.138-1.82c.567 1.318 1.545 2.207 3.34 2.207 1.729 0 2.16-.683 2.16-1.298 0-.979-.91-1.364-3.296-2.022-2.364-.66-4.684-1.794-4.684-4.843 0-3.065 2.592-4.839 5.34-4.839 2.611 0 4.658 1.249 5.818 3.59l-3.07 1.796c-.543-1.138-1.297-1.841-2.75-1.841-1.137 0-1.703.569-1.703 1.203 0 .729.386 1.228 2.861 1.978 2.408.729 5.113 1.567 5.113 4.931 0 3.068-2.453 4.887-5.908 4.887-3.338.001-5.472-1.589-6.359-3.929z"/><linearGradient id="d" gradientUnits="userSpaceOnUse" x1="-5000.051" y1="-496.453" x2="-4895.232" y2="-496.453" gradientTransform="matrix(0 -1 -1 0 -147.61 -4708.718)"><stop offset="0" stop-color="#706dcb" stop-opacity=".3"/><stop offset="1" stop-color="#706dcb"/></linearGradient><path fill="url(#d)" d="M78.086 201.373c0-8.205 6.648-14.859 14.857-14.859h511.799c8.207 0 14.856 6.654 14.856 14.859v75.1c0 8.207-6.649 14.86-14.856 14.86H92.945c-8.21 0-14.857-6.653-14.857-14.86l-.002-75.1z"/><path fill="#FFF" d="M604.744 297.112H92.948c-9.335 0-16.928-7.59-16.928-16.925v-75.099c0-9.332 7.593-16.924 16.928-16.924h511.796c9.334 0 16.926 7.592 16.926 16.924v75.099c.002 9.334-7.592 16.925-16.926 16.925zM92.948 192.295c-7.056 0-12.797 5.74-12.797 12.794v75.097c0 7.057 5.741 12.797 12.797 12.797h511.796c7.055 0 12.797-5.74 12.797-12.797v-75.097c0-7.054-5.742-12.794-12.797-12.794H92.948z"/><path fill="#FFF" d="M275.128 234.244h-9.668l-1.302 4.09h-6.508l8.851-26.032h7.586l8.851 26.032h-6.507l-1.303-4.09zm-1.783-5.578l-3.051-9.558-3.05 9.558h6.101zm20.594 1.113h-2.826v8.555h-5.95v-26.032h10.415a8.904 8.904 0 0 1 8.925 8.925c0 3.197-1.935 6.102-4.798 7.55l5.542 9.558h-6.397l-4.911-8.556zm-2.826-5.206h4.464c1.635 0 2.975-1.448 2.975-3.345s-1.339-3.349-2.975-3.349h-4.464v6.694zm33.836-6.544h-6.695v20.305h-5.95v-20.305h-6.697v-5.728h19.341l.001 5.728zm8.547-5.727v26.032h-5.95v-26.032h5.95zm10.41 5.727v5.021h9.671v5.728h-9.671v9.559h-5.951v-26.032h15.806v5.727l-9.855-.003zm19.332-5.727v26.032h-5.951v-26.032h5.951zm3.345 13.016c0-7.66 5.69-13.537 13.538-13.537 4.725 0 8.89 2.343 11.159 6.025l-5.134 2.974c-1.15-2.008-3.384-3.199-6.024-3.199-4.611 0-7.585 3.086-7.585 7.737 0 4.649 2.976 7.735 7.585 7.735 2.64 0 4.91-1.19 6.024-3.198l5.134 2.974c-2.234 3.683-6.399 6.023-11.159 6.023-7.848.002-13.538-5.872-13.538-13.534zm33.425-13.016v26.032h-5.95v-26.032h5.95zm19.709 21.942h-9.67l-1.301 4.09h-6.51l8.852-26.032h7.585l8.854 26.032h-6.51l-1.3-4.09zm-1.785-5.578l-3.051-9.558-3.049 9.558h6.1zM445 232.608v5.728h-15.248v-26.032h5.949v20.305l9.299-.001zm-205.809 12.743v26.032h-5.951v-26.032h5.951zm24.915 0v26.032h-4.464L249.6 257.251v14.132h-5.95v-26.032h4.463l10.042 14.131v-14.131h5.951zm21.934 5.725h-6.695v20.305h-5.95v-20.305H266.7v-5.727h19.339l.001 5.727zm18.962 14.581v5.726h-16.363v-26.031h16.179v5.729h-10.229v4.314h9.299v5.652h-9.299v4.612l10.413-.002zm18.588 0v5.726h-15.249v-26.031h5.95v20.304l9.299.001zm17.848 0v5.726h-15.249v-26.031h5.951v20.304l9.298.001zm8.545-20.306v26.032h-5.95v-26.032h5.95zm30.233 13.76c0 7.957-5.54 12.792-12.831 12.792-8.18 0-14.056-6.023-14.056-13.502 0-7.546 5.988-13.572 13.649-13.572 4.982 0 9.187 2.455 11.381 5.95l-5.059 2.899c-1.079-1.71-3.421-3.048-6.36-3.048-4.387 0-7.661 3.237-7.661 7.811 0 4.424 3.125 7.659 8.183 7.659 3.459 0 5.729-1.524 6.659-4.015h-6.955v-5.209h13.053l-.003 2.235zm19.703 6.546v5.726h-16.364v-26.031h16.179v5.729h-10.229v4.314h9.299v5.652h-9.299v4.612l10.414-.002zm23.796-20.306v26.032h-4.464l-10.042-14.132v14.132h-5.949v-26.032h4.464l10.042 14.131v-14.131h5.949zm3.339 13.014c0-7.661 5.689-13.535 13.538-13.535 4.726 0 8.889 2.341 11.158 6.023l-5.133 2.973c-1.152-2.007-3.385-3.196-6.025-3.196-4.611 0-7.586 3.085-7.586 7.735 0 4.649 2.975 7.735 7.586 7.735 2.642 0 4.91-1.188 6.025-3.199l5.133 2.976c-2.232 3.684-6.398 6.024-11.158 6.024-7.848.004-13.538-5.873-13.538-13.536zm43.842 7.292v5.726h-16.365v-26.031h16.18v5.729h-10.23v4.314h9.302v5.652h-9.302v4.612l10.415-.002z"/><linearGradient id="e" gradientUnits="userSpaceOnUse" x1="-4825.93" y1="-496.454" x2="-4708.718" y2="-496.454" gradientTransform="matrix(0 -1 -1 0 -147.61 -4708.718)"><stop offset="0" stop-color="#706dcb" stop-opacity="0"/><stop offset="1" stop-color="#706dcb" stop-opacity=".7"/></linearGradient><path fill="url(#e)" d="M78.086 14.86C78.086 6.654 84.734 0 92.944 0h511.8c8.207 0 14.856 6.654 14.856 14.86v87.492c0 8.208-6.649 14.86-14.856 14.86H92.945c-8.21 0-14.857-6.652-14.857-14.86l-.002-87.492z"/><path fill="#FFF" d="M604.744 122.994H92.948c-9.335 0-16.928-7.594-16.928-16.93V18.576c0-9.334 7.593-16.926 16.928-16.926h511.796c9.334 0 16.926 7.592 16.926 16.926v87.488c.002 9.336-7.592 16.93-16.926 16.93zM92.948 5.782c-7.056 0-12.797 5.739-12.797 12.794v87.488c0 7.058 5.741 12.798 12.797 12.798h511.796c7.055 0 12.797-5.74 12.797-12.798V18.576c0-7.055-5.742-12.794-12.797-12.794H92.948z"/><defs><path id="f" d="M483.307 190.23h134.009v104.105H483.307z"/></defs><clipPath id="g"><use xlink:href="#f" overflow="visible"/></clipPath><g opacity=".4" clip-path="url(#g)"><path fill="#FFF" d="M539.887 280.409c2.049.438 4.099.865 6.142 1.337l6.131 1.381c4.086.901 8.146 1.894 12.221 2.851 4.066.989 8.135 1.954 12.191 2.975 4.057 1.026 8.127 2.028 12.168 3.071l-1.068 2.022-7.01-6.112c-2.334-2.028-4.65-4.094-6.978-6.145l-6.957-6.177-6.909-6.214-6.888-6.253c-2.299-2.082-4.565-4.199-6.848-6.305-2.289-2.094-4.525-4.245-6.781-6.365a404.37 404.37 0 0 1-6.735-6.421c2.436 1.928 4.829 3.894 7.233 5.857 2.394 1.972 4.813 3.916 7.178 5.913 2.386 1.983 4.771 3.965 7.138 5.97l7.09 6.028 7.057 6.056 7.004 6.108c2.339 2.036 4.687 4.067 6.992 6.129l6.967 6.159.011.008c.479.433.526 1.171.104 1.661-.301.329-.76.466-1.19.355-4.043-1.076-8.068-2.202-12.101-3.313-4.037-1.107-8.063-2.257-12.096-3.389-4.008-1.173-8.035-2.309-12.055-3.531l-6-1.801c-2.017-.594-4.009-1.228-6.011-1.855z"/><path fill="#FFF" d="M608.322 230.286c-.724 2.654-1.441 5.314-2.203 7.946l-2.242 7.938c-.738 2.648-1.533 5.276-2.301 7.92l-2.324 7.908a2002.539 2002.539 0 0 1-4.771 15.775c-1.591 5.266-3.25 10.505-4.894 15.752l-1.896-1.299c4.887-4 9.834-7.923 14.756-11.886l7.408-5.892 7.434-5.871 7.463-5.833 7.5-5.792 7.549-5.728a492.01 492.01 0 0 1 7.586-5.674 637.574 637.574 0 0 1-7.151 6.218l-7.187 6.177-7.231 6.108-7.271 6.076-7.307 6.035-7.312 6.007c-4.905 3.975-9.786 7.989-14.719 11.931l-.008.004a1.203 1.203 0 0 1-1.689-.191v-.003a1.232 1.232 0 0 1-.209-1.114c1.679-5.234 3.324-10.471 5.056-15.686a1492.345 1492.345 0 0 1 5.17-15.656l2.633-7.817c.893-2.599 1.742-5.212 2.666-7.798l2.721-7.792a544.01 544.01 0 0 1 2.773-7.763zm-46.593-43.943a558.506 558.506 0 0 1-5.872 7.706 788.43 788.43 0 0 1-5.966 7.628c-1.985 2.544-4.024 5.043-6.034 7.564-2.017 2.524-4.064 5.013-6.099 7.519l-.674-1.815c3.004.433 6.018.883 9.035 1.35l9.037 1.397 9.024 1.457c3.006.486 6.006 1.009 9.009 1.517 2.997.502 6.012 1.027 9.002 1.565 3.004.54 6 1.073 8.998 1.642a685.426 685.426 0 0 1 17.944 3.566 633.588 633.588 0 0 1-18.172-2.135 838.684 838.684 0 0 1-9.065-1.207 683.538 683.538 0 0 1-9.048-1.284c-3.022-.445-6.034-.859-9.041-1.329l-9.041-1.387-9.022-1.452a788.02 788.02 0 0 1-9.017-1.501l-.022-.006a1.103 1.103 0 0 1-.658-1.808c2.104-2.45 4.186-4.913 6.313-7.332 2.131-2.426 4.229-4.882 6.377-7.293a775.839 775.839 0 0 1 6.446-7.225 436.852 436.852 0 0 1 6.546-7.137zm-57.997 62.466a297.79 297.79 0 0 1 4.563 3.618l4.51 3.695 4.459 3.737 4.422 3.771c1.484 1.261 2.933 2.545 4.394 3.814l4.389 3.834c2.885 2.588 5.81 5.14 8.662 7.759l-1.971 1.204c-.857-3.33-1.75-6.646-2.558-9.993l-1.256-5.001-1.199-5.024c-.391-1.675-.803-3.343-1.17-5.021l-1.143-5.035c-.725-3.36-1.449-6.722-2.09-10.119 1.135 3.261 2.16 6.547 3.192 9.83l1.515 4.935c.508 1.639.99 3.289 1.473 4.943l1.438 4.946 1.397 4.97c.955 3.311 1.824 6.636 2.73 9.949a1.21 1.21 0 0 1-.845 1.487c-.401.104-.811 0-1.116-.262l-.009-.016c-2.909-2.571-5.741-5.212-8.629-7.811l-4.276-3.95c-1.416-1.326-2.845-2.627-4.246-3.97l-4.219-4.01-4.188-4.046-4.145-4.091a420.175 420.175 0 0 1-4.084-4.143z"/><path fill="#FFF" d="M517.771 215.438c-1.029 2.836-2.123 5.646-3.201 8.474-1.066 2.817-2.179 5.62-3.287 8.43-1.127 2.798-2.234 5.61-3.375 8.398-1.148 2.79-2.273 5.59-3.445 8.373l-.963-1.062a959.971 959.971 0 0 1 12.125-3.891 357.336 357.336 0 0 1 6.086-1.906l6.09-1.873-.41.878a965.525 965.525 0 0 1-4.186-11.562l-2.018-5.803a321.9 321.9 0 0 1-1.988-5.818 375.083 375.083 0 0 1 2.42 5.654l2.373 5.663c1.557 3.786 3.098 7.58 4.629 11.386a.644.644 0 0 1-.346.84l-.021.007-.039.019-.01.003-6.051 2.021a470.94 470.94 0 0 1-6.052 1.995c-4.034 1.32-8.079 2.618-12.129 3.896h-.008a.793.793 0 0 1-.965-1.063c1.166-2.779 2.379-5.546 3.578-8.313 1.197-2.771 2.426-5.523 3.639-8.293 1.232-2.747 2.453-5.507 3.729-8.244 1.277-2.737 2.513-5.494 3.825-8.209zm41.106-27.947a390.94 390.94 0 0 1-4.854 3.545l-4.88 3.515a1060.922 1060.922 0 0 1-9.838 6.922l-9.901 6.808c-3.326 2.253-6.627 4.521-9.963 6.736l-.332-1.462 8.944 1.336 8.939 1.397h.018a.654.654 0 0 1 .537.737c-.016.04-.022.091-.049.129a813.666 813.666 0 0 1-4.285 10.698c-1.483 3.547-2.918 7.113-4.447 10.642 1.175-3.661 2.457-7.283 3.681-10.926 1.27-3.633 2.549-7.259 3.846-10.87l.518.869-8.967-1.184-8.955-1.241a.797.797 0 0 1-.686-.893v-.012a.738.738 0 0 1 .334-.554l.016-.004c3.304-2.258 6.65-4.469 9.972-6.699l10.045-6.61a1151.28 1151.28 0 0 1 10.108-6.517l5.095-3.201a274.743 274.743 0 0 1 5.104-3.161zm-26.314 52.56a2754.337 2754.337 0 0 1 19.291-3.49l19.302-3.43 38.627-6.651c.184-.028.354-.008.522.051l.019.009c6.678 2.69 13.315 5.477 19.979 8.215l19.961 8.248c.494.205.765.695.699 1.19v.001l-2.787 22.529c-.916 7.507-1.92 15.008-2.887 22.515v.006a1.178 1.178 0 0 1-.617.885l-14.475 7.485.444-1.579 11.035 18.146 5.502 9.075 5.459 9.106.004.021a.886.886 0 0 1-.284 1.223l-.019.012a.918.918 0 0 1-.957-.007l-29.646-19.007-14.769-9.588a1657.514 1657.514 0 0 1-14.752-9.622 3108.384 3108.384 0 0 1 15.082 9.1l15.051 9.142 30 18.437-1.256 1.243-5.623-9.009-5.586-9.03-11.143-18.069a1.11 1.11 0 0 1 .35-1.531c.004-.001.006-.003.008-.005l.064-.035.01-.008 14.426-7.569-.62.887c.938-7.506 1.834-15.022 2.805-22.52l2.92-22.51.689 1.188-19.912-8.356c-6.631-2.806-13.285-5.561-19.898-8.405l.529.061-38.75 5.959-19.39 2.882c-6.476.96-12.935 1.894-19.407 2.805z"/><path fill="#FFF" d="M542.4 212.994l10.912-7.602 10.94-7.57c7.31-5.035 14.588-10.106 21.92-15.093a.664.664 0 0 1 .922.169l.002.005.033.057.014.008 22.896 41.543-1.336-.453 42.688-19.239c.578-.257 1.255 0 1.513.574.067.182.119.36.102.546v.004l-1.074 17.705-.541 8.855-.567 8.848-.459-1.022 31.477 25.111-1.772 1.021-3.699-26.668-3.566-26.681.595.683-20.312-6.255.81-.939c3.752 8.023 7.432 16.087 11.131 24.136l5.543 12.074 5.504 12.097-5.896-11.915-5.852-11.929c-3.887-7.96-7.809-15.903-11.656-23.884a.692.692 0 0 1 .318-.905.66.66 0 0 1 .477-.032h.008l20.396 5.944c.309.1.545.368.584.67v.021l3.969 26.614 3.824 26.649a1.098 1.098 0 0 1-1.766 1.025l-.009-.004-31.604-24.946a1.206 1.206 0 0 1-.453-1.006v-.015l.553-8.854.582-8.848 1.164-17.694 1.615 1.121-42.775 19.012-.016.004a1.024 1.024 0 0 1-1.32-.453l-22.27-41.883.965.237c-7.385 4.919-14.818 9.752-22.236 14.615l-11.129 7.292-11.149 7.25zm21.215-26.25l-.138-.813 18.525-3.045.139.8-18.526 3.058z"/><path fill="#FFF" d="M647.385 204.647a.393.393 0 0 1-.137-.021l-55.168-19.434.266-.767 53.734 18.929-13.344-15.478-42.566-4.186.08-.808 42.734 4.197c.104.01.196.062.264.142l14.451 16.757a.414.414 0 0 1 .022.498.408.408 0 0 1-.336.171zm-20.957 92.787h-.022l-32.972-2.444.063-.804 32.658 2.415 19.832-47.953.756.312-19.941 48.223c-.052.155-.214.251-.374.251zm25.041 30.596l-7.332-36.007a.406.406 0 0 1 .17-.421l34.808-23.336.438.685-34.563 23.176 7.272 35.745-.793.158zm18.08-117.336l-30.93-19.739.44-.687 30.925 19.737-.435.689z"/><radialGradient id="h" cx="484.769" cy="234.135" r="11.731" gradientTransform="matrix(1 0 0 -1 168 565.58)" gradientUnits="userSpaceOnUse"><stop offset=".317" stop-color="#fff" stop-opacity=".7"/><stop offset=".322" stop-color="#fff" stop-opacity=".696"/><stop offset="1" stop-color="#fff" stop-opacity="0"/></radialGradient><path fill="url(#h)" d="M664.502 331.447c0 6.475-5.256 11.725-11.729 11.725-6.479 0-11.734-5.25-11.734-11.725 0-6.48 5.256-11.732 11.734-11.732 6.473 0 11.729 5.252 11.729 11.732z"/><radialGradient id="i" cx="420.192" cy="274.683" r="10.789" gradientTransform="matrix(1 0 0 -1 168 565.58)" gradientUnits="userSpaceOnUse"><stop offset=".317" stop-color="#fff" stop-opacity=".7"/><stop offset=".322" stop-color="#fff" stop-opacity=".696"/><stop offset="1" stop-color="#fff" stop-opacity="0"/></radialGradient><path fill="url(#i)" d="M598.984 290.897c0 5.95-4.838 10.785-10.793 10.785-5.953 0-10.791-4.835-10.791-10.785 0-5.962 4.838-10.787 10.791-10.787 5.955 0 10.793 4.826 10.793 10.787z"/><radialGradient id="j" cx="437.606" cy="339.117" r="23.464" gradientTransform="matrix(1 0 0 -1 168 565.58)" gradientUnits="userSpaceOnUse"><stop offset=".317" stop-color="#fff" stop-opacity=".7"/><stop offset=".322" stop-color="#fff" stop-opacity=".696"/><stop offset="1" stop-color="#fff" stop-opacity="0"/></radialGradient><path fill="url(#j)" d="M629.07 226.462c0 12.963-10.502 23.465-23.472 23.465-12.957 0-23.457-10.502-23.457-23.465 0-12.96 10.5-23.463 23.457-23.463 12.97 0 23.472 10.503 23.472 23.463z"/><radialGradient id="k" cx="481.805" cy="321.52" r="8.085" gradientTransform="matrix(1 0 0 -1 168 565.58)" gradientUnits="userSpaceOnUse"><stop offset=".317" stop-color="#fff" stop-opacity=".7"/><stop offset=".322" stop-color="#fff" stop-opacity=".696"/><stop offset="1" stop-color="#fff" stop-opacity="0"/></radialGradient><path fill="url(#k)" d="M657.889 244.055c0 4.467-3.617 8.089-8.073 8.089a8.087 8.087 0 0 1-8.095-8.078v-.011c0-4.461 3.615-8.081 8.095-8.081 4.455 0 8.073 3.619 8.073 8.081z"/><radialGradient id="l" cx="512.839" cy="300.25" r="15.735" gradientTransform="matrix(1 0 0 -1 168 565.58)" gradientUnits="userSpaceOnUse"><stop offset=".317" stop-color="#fff" stop-opacity=".7"/><stop offset=".322" stop-color="#fff" stop-opacity=".696"/><stop offset="1" stop-color="#fff" stop-opacity="0"/></radialGradient><path fill="url(#l)" d="M696.574 265.325c0 8.693-7.049 15.739-15.732 15.739-8.69 0-15.738-7.046-15.738-15.739 0-8.684 7.05-15.73 15.738-15.73 8.683 0 15.732 7.047 15.732 15.73z"/><radialGradient id="m" cx="369.372" cy="286.324" r="15.737" gradientTransform="matrix(1 0 0 -1 168 565.58)" gradientUnits="userSpaceOnUse"><stop offset=".317" stop-color="#fff" stop-opacity=".7"/><stop offset=".322" stop-color="#fff" stop-opacity=".696"/><stop offset="1" stop-color="#fff" stop-opacity="0"/></radialGradient><path fill="url(#m)" d="M553.107 279.252c0 8.695-7.041 15.743-15.73 15.743-8.693 0-15.74-7.048-15.74-15.743 0-8.688 7.047-15.736 15.74-15.736 8.689 0 15.73 7.048 15.73 15.736z"/><radialGradient id="n" cx="370.532" cy="350.143" r="8.306" gradientTransform="matrix(1 0 0 -1 168 565.58)" gradientUnits="userSpaceOnUse"><stop offset=".317" stop-color="#fff" stop-opacity=".7"/><stop offset=".322" stop-color="#fff" stop-opacity=".696"/><stop offset="1" stop-color="#fff" stop-opacity="0"/></radialGradient><path fill="url(#n)" d="M546.84 215.438c0 4.582-3.723 8.302-8.303 8.302s-8.313-3.72-8.313-8.302c0-4.589 3.732-8.307 8.313-8.307a8.307 8.307 0 0 1 8.303 8.307z"/><radialGradient id="o" cx="418.285" cy="381.684" r="15.734" gradientTransform="matrix(1 0 0 -1 168 565.58)" gradientUnits="userSpaceOnUse"><stop offset=".317" stop-color="#fff" stop-opacity=".7"/><stop offset=".322" stop-color="#fff" stop-opacity=".696"/><stop offset="1" stop-color="#fff" stop-opacity="0"/></radialGradient><path fill="url(#o)" d="M602.02 183.894c0 8.692-7.036 15.735-15.723 15.735-8.688 0-15.746-7.043-15.746-15.735 0-8.686 7.058-15.733 15.746-15.733 8.685-.001 15.723 7.047 15.723 15.733z"/><radialGradient id="p" cx="484.772" cy="358.692" r="10.854" gradientTransform="matrix(1 0 0 -1 168 565.58)" gradientUnits="userSpaceOnUse"><stop offset=".317" stop-color="#fff" stop-opacity=".7"/><stop offset=".322" stop-color="#fff" stop-opacity=".696"/><stop offset="1" stop-color="#fff" stop-opacity="0"/></radialGradient><path fill="url(#p)" d="M663.627 206.888a10.848 10.848 0 0 1-10.854 10.852c-5.986 0-10.854-4.858-10.854-10.852 0-5.992 4.867-10.854 10.854-10.854 6.002 0 10.854 4.862 10.854 10.854z"/><radialGradient id="q" cx="347.809" cy="352.586" r="15.736" gradientTransform="matrix(1 0 0 -1 168 565.58)" gradientUnits="userSpaceOnUse"><stop offset=".317" stop-color="#fff" stop-opacity=".7"/><stop offset=".322" stop-color="#fff" stop-opacity=".696"/><stop offset="1" stop-color="#fff" stop-opacity="0"/></radialGradient><path fill="url(#q)" d="M531.545 212.994c0 8.688-7.049 15.735-15.742 15.735-8.682 0-15.729-7.047-15.729-15.735 0-8.692 7.049-15.738 15.729-15.738 8.693 0 15.742 7.046 15.742 15.738z"/></g><defs><path id="r" d="M79.262 190.23h134.007v104.105H79.262z"/></defs><clipPath id="s"><use xlink:href="#r" overflow="visible"/></clipPath><g opacity=".4" clip-path="url(#s)"><path fill="#FFF" d="M156.689 280.409c-2.05.438-4.099.865-6.139 1.337l-6.133 1.381c-4.083.901-8.146 1.894-12.22 2.851-4.067.989-8.133 1.954-12.192 2.975-4.058 1.026-8.125 2.028-12.167 3.071l1.069 2.022 7.008-6.112c2.336-2.028 4.652-4.094 6.975-6.145l6.959-6.177 6.91-6.214 6.886-6.253c2.299-2.082 4.567-4.199 6.846-6.305 2.292-2.094 4.527-4.245 6.786-6.365a419.824 419.824 0 0 0 6.732-6.421c-2.436 1.928-4.828 3.894-7.232 5.857-2.393 1.972-4.812 3.916-7.177 5.913-2.384 1.983-4.772 3.965-7.136 5.97l-7.088 6.028-7.056 6.056-7.007 6.108c-2.335 2.036-4.684 4.067-6.992 6.129l-6.967 6.159-.008.008a1.188 1.188 0 0 0-.104 1.661c.307.341.774.46 1.189.355 4.042-1.076 8.069-2.202 12.103-3.313 4.034-1.107 8.061-2.257 12.094-3.389 4.01-1.173 8.036-2.309 12.054-3.531l6.003-1.801c2.01-.594 4.003-1.228 6.004-1.855z"/><path fill="#FFF" d="M88.253 230.286c.723 2.654 1.44 5.314 2.203 7.946l2.243 7.938c.737 2.648 1.533 5.276 2.299 7.92l2.327 7.908c1.57 5.264 3.16 10.527 4.772 15.775 1.585 5.266 3.247 10.505 4.89 15.752l1.896-1.299c-4.886-4-9.831-7.923-14.756-11.886l-7.406-5.892-7.435-5.871-7.463-5.833-7.5-5.792-7.547-5.728a510.399 510.399 0 0 0-7.585-5.674 630.29 630.29 0 0 0 7.153 6.218l7.185 6.177 7.234 6.108 7.27 6.076 7.305 6.035 7.313 6.007c4.911 3.975 9.787 7.989 14.722 11.931l.008.004a1.202 1.202 0 0 0 1.69-.194c.255-.322.319-.744.206-1.114-1.678-5.234-3.324-10.471-5.055-15.686a1591.746 1591.746 0 0 0-5.167-15.656l-2.635-7.817c-.891-2.599-1.743-5.212-2.667-7.798l-2.718-7.792a703.565 703.565 0 0 0-2.782-7.763zm46.595-43.943a521.618 521.618 0 0 0 5.874 7.706 757.92 757.92 0 0 0 5.962 7.628c1.985 2.544 4.026 5.043 6.036 7.564 2.016 2.524 4.065 5.013 6.1 7.519l.673-1.815c-3.006.433-6.019.883-9.034 1.35l-9.041 1.397-9.025 1.457c-3.005.486-6.003 1.009-9.008 1.517a742.156 742.156 0 0 0-9 1.565c-3.004.54-6.002 1.073-9 1.642a683.862 683.862 0 0 0-17.945 3.566 633.45 633.45 0 0 0 18.17-2.135c3.031-.381 6.052-.794 9.065-1.207 3.019-.408 6.036-.836 9.049-1.284 3.021-.445 6.036-.859 9.041-1.329l9.04-1.387 9.024-1.452c3.008-.482 6.014-.983 9.016-1.501l.024-.006a1.109 1.109 0 0 0 .908-1.276 1.127 1.127 0 0 0-.251-.531c-2.101-2.45-4.184-4.913-6.313-7.332-2.13-2.426-4.228-4.882-6.374-7.293a761.935 761.935 0 0 0-6.448-7.225 441.277 441.277 0 0 0-6.543-7.138zm57.995 62.466a288.35 288.35 0 0 0-4.563 3.618l-4.51 3.695-4.458 3.737-4.421 3.771c-1.485 1.261-2.933 2.545-4.393 3.814l-4.389 3.834c-2.886 2.588-5.811 5.14-8.662 7.759l1.97 1.204c.86-3.33 1.75-6.646 2.562-9.993l1.254-5.001 1.199-5.024c.391-1.675.803-3.343 1.169-5.021l1.142-5.035c.725-3.36 1.449-6.722 2.09-10.119-1.134 3.261-2.163 6.547-3.193 9.83l-1.516 4.935c-.508 1.639-.988 3.289-1.472 4.943l-1.437 4.946-1.399 4.97c-.958 3.311-1.825 6.636-2.731 9.949a1.21 1.21 0 0 0 .842 1.487c.404.104.811 0 1.118-.262l.008-.016c2.909-2.571 5.745-5.212 8.629-7.811l4.277-3.95c1.416-1.326 2.844-2.627 4.243-3.97l4.22-4.01 4.188-4.046 4.144-4.091a371.541 371.541 0 0 0 4.089-4.143z"/><path fill="#FFF" d="M178.805 215.438c1.029 2.836 2.121 5.646 3.199 8.474 1.068 2.817 2.178 5.62 3.287 8.43 1.126 2.798 2.235 5.61 3.377 8.398 1.146 2.79 2.272 5.59 3.446 8.373l.964-1.062a965.966 965.966 0 0 0-12.126-3.891 359.85 359.85 0 0 0-6.083-1.906l-6.092-1.873.412.878a948.441 948.441 0 0 0 4.186-11.562l2.018-5.803c.682-1.941 1.34-3.873 1.985-5.818a419.356 419.356 0 0 0-2.421 5.654l-2.373 5.663c-1.558 3.789-3.1 7.584-4.627 11.386a.643.643 0 0 0 .348.841l.015.006.041.019.007.003 6.052 2.021a486.85 486.85 0 0 0 6.052 1.995c4.034 1.322 8.076 2.617 12.126 3.896h.008a.793.793 0 0 0 .964-1.063c-1.166-2.779-2.379-5.546-3.578-8.313-1.199-2.771-2.425-5.523-3.639-8.293-1.23-2.747-2.453-5.507-3.728-8.244-1.271-2.737-2.509-5.494-3.82-8.209zM137.7 187.491a383.492 383.492 0 0 0 4.853 3.545l4.877 3.515c3.271 2.332 6.552 4.634 9.839 6.922l9.9 6.808c3.329 2.253 6.628 4.521 9.965 6.736l.331-1.462-8.944 1.336-8.941 1.397h-.016a.653.653 0 0 0-.537.737c.016.04.024.091.048.129a827.79 827.79 0 0 0 4.285 10.698c1.485 3.547 2.917 7.113 4.45 10.642-1.175-3.661-2.458-7.283-3.68-10.926a1313.755 1313.755 0 0 0-3.848-10.87l-.517.869 8.968-1.184 8.953-1.241a.796.796 0 0 0 .687-.891l-.002-.014a.747.747 0 0 0-.33-.554l-.017-.004c-3.304-2.258-6.652-4.469-9.973-6.699l-10.045-6.61c-3.357-2.19-6.728-4.362-10.109-6.517l-5.095-3.201a272.331 272.331 0 0 0-5.102-3.161zm26.311 52.56a2791.192 2791.192 0 0 0-19.288-3.49l-19.304-3.43-38.628-6.651a1.072 1.072 0 0 0-.524.051l-.017.009c-6.676 2.69-13.317 5.477-19.979 8.215l-19.96 8.248a1.13 1.13 0 0 0-.699 1.19v.001l2.788 22.529c.916 7.507 1.92 15.008 2.885 22.515v.006c.048.391.298.715.617.885l14.476 7.485-.443-1.579L54.9 314.181l-5.501 9.075-5.459 9.106-.008.021a.89.89 0 0 0 .289 1.224l.019.011a.916.916 0 0 0 .956-.007l29.647-19.007 14.769-9.588c4.934-3.179 9.853-6.392 14.752-9.622a3242.47 3242.47 0 0 0-15.083 9.1l-15.052 9.142-29.999 18.433 1.255 1.243 5.623-9.009 5.588-9.03 11.141-18.069a1.112 1.112 0 0 0-.353-1.532l-.006-.004-.063-.035-.008-.008-14.426-7.569.621.887c-.94-7.506-1.835-15.022-2.808-22.52l-2.917-22.51-.689 1.188 19.913-8.356c6.631-2.806 13.284-5.561 19.896-8.405l-.529.061 38.752 5.959 19.389 2.882a2462.55 2462.55 0 0 0 19.402 2.809z"/><path fill="#FFF" d="M154.177 212.994l-10.914-7.602-10.94-7.57c-7.31-5.035-14.591-10.106-21.922-15.093a.663.663 0 0 0-.923.174l-.032.057-.016.008-22.895 41.543 1.336-.453-42.691-19.24a1.149 1.149 0 0 0-1.514.574c-.068.182-.116.36-.101.546v.004l1.073 17.705.541 8.855.569 8.848.459-1.022-31.479 25.111 1.774 1.021 3.7-26.668 3.566-26.681-.594.683 20.308-6.255-.806-.939c-3.752 8.023-7.431 16.087-11.13 24.136l-5.543 12.074-5.505 12.097 5.894-11.915 5.849-11.929c3.889-7.96 7.811-15.903 11.66-23.884a.69.69 0 0 0-.32-.905.656.656 0 0 0-.475-.032h-.009L22.7 212.187a.847.847 0 0 0-.584.67v.021l-3.969 26.614-3.824 26.649a1.098 1.098 0 0 0 1.768 1.025l.007-.004 31.604-24.946c.314-.255.477-.636.452-1.006v-.015l-.552-8.854-.582-8.848-1.166-17.694-1.614 1.121 42.774 19.012.017.004a1.025 1.025 0 0 0 1.32-.453L110.62 183.6l-.965.237c7.387 4.919 14.818 9.752 22.236 14.615l11.13 7.292 11.156 7.25zm-21.218-26.25l.137-.813-18.523-3.045-.138.8 18.524 3.058z"/><path fill="#FFF" d="M49.188 204.647a.432.432 0 0 0 .138-.021l55.167-19.434-.266-.767-53.736 18.929 13.345-15.479 42.569-4.186-.08-.808-42.735 4.197a.394.394 0 0 0-.265.143l-14.45 16.756a.42.42 0 0 0-.024.499.42.42 0 0 0 .337.171zm20.959 92.787h.023l32.973-2.444-.064-.804-32.657 2.415-19.832-47.954-.759.312 19.941 48.223c.052.156.214.252.375.252zm-25.04 30.596l7.33-36.007a.4.4 0 0 0-.169-.421l-34.807-23.336-.439.685 34.565 23.176-7.274 35.745.794.158zM27.025 210.694l30.93-19.739-.44-.687-30.926 19.737.436.689z"/><radialGradient id="t" cx="2826.934" cy="234.135" r="11.731" gradientTransform="rotate(180 1435.37 282.79)" gradientUnits="userSpaceOnUse"><stop offset=".317" stop-color="#fff" stop-opacity=".7"/><stop offset=".322" stop-color="#fff" stop-opacity=".696"/><stop offset="1" stop-color="#fff" stop-opacity="0"/></radialGradient><path fill="url(#t)" d="M32.073 331.447c0 6.475 5.256 11.725 11.732 11.725 6.479 0 11.735-5.25 11.735-11.725 0-6.48-5.256-11.732-11.735-11.732-6.476 0-11.732 5.252-11.732 11.732z"/><radialGradient id="u" cx="2762.357" cy="274.683" r="10.789" gradientTransform="rotate(180 1435.37 282.79)" gradientUnits="userSpaceOnUse"><stop offset=".317" stop-color="#fff" stop-opacity=".7"/><stop offset=".322" stop-color="#fff" stop-opacity=".696"/><stop offset="1" stop-color="#fff" stop-opacity="0"/></radialGradient><path fill="url(#u)" d="M97.592 290.897c0 5.95 4.836 10.785 10.792 10.785 5.954 0 10.791-4.835 10.791-10.785 0-5.962-4.837-10.787-10.791-10.787-5.956 0-10.792 4.826-10.792 10.787z"/><radialGradient id="v" cx="2779.769" cy="339.117" r="23.464" gradientTransform="rotate(180 1435.37 282.79)" gradientUnits="userSpaceOnUse"><stop offset=".317" stop-color="#fff" stop-opacity=".7"/><stop offset=".322" stop-color="#fff" stop-opacity=".696"/><stop offset="1" stop-color="#fff" stop-opacity="0"/></radialGradient><path fill="url(#v)" d="M67.506 226.462c0 12.963 10.501 23.465 23.471 23.465 12.959 0 23.459-10.502 23.459-23.465 0-12.96-10.5-23.463-23.459-23.463-12.971 0-23.471 10.503-23.471 23.463z"/><radialGradient id="w" cx="2823.972" cy="321.52" r="8.085" gradientTransform="rotate(180 1435.37 282.79)" gradientUnits="userSpaceOnUse"><stop offset=".317" stop-color="#fff" stop-opacity=".7"/><stop offset=".322" stop-color="#fff" stop-opacity=".696"/><stop offset="1" stop-color="#fff" stop-opacity="0"/></radialGradient><path fill="url(#w)" d="M38.684 244.055c0 4.467 3.619 8.089 8.076 8.089a8.086 8.086 0 0 0 8.093-8.078v-.011c0-4.461-3.616-8.081-8.093-8.081-4.458 0-8.076 3.619-8.076 8.081z"/><radialGradient id="x" cx="2855.005" cy="300.25" r="15.735" gradientTransform="rotate(180 1435.37 282.79)" gradientUnits="userSpaceOnUse"><stop offset=".317" stop-color="#fff" stop-opacity=".7"/><stop offset=".322" stop-color="#fff" stop-opacity=".696"/><stop offset="1" stop-color="#fff" stop-opacity="0"/></radialGradient><path fill="url(#x)" d="M0 265.325c0 8.693 7.047 15.739 15.734 15.739 8.69 0 15.737-7.046 15.737-15.739 0-8.684-7.047-15.73-15.737-15.73-8.687 0-15.734 7.047-15.734 15.73z"/><radialGradient id="y" cx="2711.534" cy="286.324" r="15.737" gradientTransform="rotate(180 1435.37 282.79)" gradientUnits="userSpaceOnUse"><stop offset=".317" stop-color="#fff" stop-opacity=".7"/><stop offset=".322" stop-color="#fff" stop-opacity=".696"/><stop offset="1" stop-color="#fff" stop-opacity="0"/></radialGradient><path fill="url(#y)" d="M143.47 279.252c0 8.695 7.041 15.743 15.729 15.743 8.694 0 15.742-7.048 15.742-15.743 0-8.688-7.047-15.736-15.742-15.736-8.691 0-15.729 7.048-15.729 15.736z"/><radialGradient id="z" cx="2712.697" cy="350.143" r="8.306" gradientTransform="rotate(180 1435.37 282.79)" gradientUnits="userSpaceOnUse"><stop offset=".317" stop-color="#fff" stop-opacity=".7"/><stop offset=".322" stop-color="#fff" stop-opacity=".696"/><stop offset="1" stop-color="#fff" stop-opacity="0"/></radialGradient><path fill="url(#z)" d="M149.737 215.438c0 4.582 3.72 8.302 8.303 8.302 4.578 0 8.31-3.72 8.31-8.302 0-4.589-3.731-8.307-8.31-8.307-4.582 0-8.303 3.718-8.303 8.307z"/><radialGradient id="A" cx="2760.448" cy="381.684" r="15.735" gradientTransform="rotate(180 1435.37 282.79)" gradientUnits="userSpaceOnUse"><stop offset=".317" stop-color="#fff" stop-opacity=".7"/><stop offset=".322" stop-color="#fff" stop-opacity=".696"/><stop offset="1" stop-color="#fff" stop-opacity="0"/></radialGradient><path fill="url(#A)" d="M94.556 183.894c0 8.692 7.04 15.735 15.725 15.735 8.69 0 15.746-7.043 15.746-15.735 0-8.686-7.056-15.733-15.746-15.733-8.686-.001-15.725 7.047-15.725 15.733z"/><radialGradient id="B" cx="2826.94" cy="358.692" r="10.854" gradientTransform="rotate(180 1435.37 282.79)" gradientUnits="userSpaceOnUse"><stop offset=".317" stop-color="#fff" stop-opacity=".7"/><stop offset=".322" stop-color="#fff" stop-opacity=".696"/><stop offset="1" stop-color="#fff" stop-opacity="0"/></radialGradient><path fill="url(#B)" d="M32.946 206.888c0 5.993 4.854 10.852 10.857 10.852 5.987 0 10.852-4.858 10.852-10.852 0-5.992-4.865-10.854-10.852-10.854-6.002 0-10.857 4.862-10.857 10.854z"/><radialGradient id="C" cx="2689.975" cy="352.586" r="15.736" gradientTransform="rotate(180 1435.37 282.79)" gradientUnits="userSpaceOnUse"><stop offset=".317" stop-color="#fff" stop-opacity=".7"/><stop offset=".322" stop-color="#fff" stop-opacity=".696"/><stop offset="1" stop-color="#fff" stop-opacity="0"/></radialGradient><path fill="url(#C)" d="M165.03 212.994c0 8.688 7.048 15.735 15.743 15.735 8.681 0 15.728-7.047 15.728-15.735 0-8.692-7.047-15.738-15.728-15.738-8.694 0-15.743 7.046-15.743 15.738z"/></g><path fill="#FFF" d="M198.723 36.82c0-4.68 3.477-8.271 8.272-8.271 2.885 0 5.429 1.432 6.816 3.683l-3.134 1.817c-.706-1.227-2.068-1.953-3.682-1.953-2.818 0-4.638 1.885-4.638 4.726s1.82 4.728 4.638 4.728c1.614 0 2.999-.728 3.682-1.954l3.134 1.817c-1.364 2.249-3.907 3.681-6.816 3.681-4.795-.002-8.272-3.592-8.272-8.274zm22.154 2.727h-1.729v5.228h-3.635V28.867h6.362a5.44 5.44 0 0 1 5.454 5.426v.027c0 1.953-1.181 3.727-2.931 4.613l3.385 5.841h-3.906l-3-5.227zm-1.729-3.182h2.728c1.001 0 1.819-.885 1.819-2.045 0-1.158-.818-2.045-1.819-2.045h-2.728v4.09zm17.498 2.297v6.113h-3.637v-6.113l-5.339-9.795h4.135l3.023 6.137 3.021-6.137h4.135l-5.338 9.795zm18.289-4.34c0 3.021-2.431 5.453-5.567 5.453h-2.386v5h-3.636V28.867h6.021c3.136 0 5.568 2.432 5.568 5.455zm-3.636 0c0-1.16-.819-2.045-1.932-2.045h-2.386v4.09h2.386c1.112-.002 1.932-.887 1.932-2.045zm15.907-1.955h-4.091v12.407h-3.637V32.367h-4.089v-3.5h11.817v3.5zm-.001 4.453c0-4.68 3.702-8.271 8.272-8.271 4.567 0 8.27 3.591 8.27 8.271 0 4.682-3.702 8.271-8.27 8.271-4.57.001-8.272-3.589-8.272-8.271zm12.907 0c0-2.84-2.046-4.726-4.635-4.726-2.593 0-4.638 1.886-4.638 4.726 0 2.842 2.045 4.728 4.638 4.728 2.589 0 4.635-1.886 4.635-4.728zm17.265-2.498c0 3.021-2.43 5.453-5.567 5.453h-2.386v5h-3.635V28.867h6.021c3.137 0 5.567 2.432 5.567 5.455zm-3.634 0c0-1.16-.819-2.045-1.932-2.045h-2.386v4.09h2.386c1.113-.002 1.932-.887 1.932-2.045zm4.655 2.498c0-4.68 3.704-8.271 8.272-8.271 4.567 0 8.271 3.591 8.271 8.271 0 4.682-3.704 8.271-8.271 8.271-4.568.001-8.272-3.589-8.272-8.271zm12.907 0c0-2.84-2.045-4.726-4.635-4.726-2.592 0-4.637 1.886-4.637 4.726 0 2.842 2.046 4.728 4.637 4.728 2.59 0 4.635-1.886 4.635-4.728zm14.997 4.454v3.5h-9.317V28.867h3.635v12.407h5.682zm5.223-12.407v15.907h-3.635V28.867h3.635zm2.045 7.953c0-4.68 3.478-8.271 8.272-8.271 2.883 0 5.43 1.431 6.815 3.682l-3.134 1.817c-.706-1.227-2.068-1.953-3.681-1.953-2.818 0-4.639 1.886-4.639 4.726 0 2.841 1.821 4.728 4.639 4.728 1.613 0 2.998-.727 3.681-1.954l3.134 1.817c-1.363 2.249-3.907 3.681-6.815 3.681-4.794-.001-8.272-3.591-8.272-8.273zm26.79 4.454v3.5h-10V28.867h9.884v3.5h-6.25v2.636h5.683v3.453h-5.683v2.818h6.366zm16.45 3.501l-5.091-7.363v7.363h-3.636V28.867h3.636v6.908l4.863-6.908h4.136l-5.364 7.748 5.59 8.159-4.134.001zm17.994-15.908v15.907h-2.727l-6.137-8.636v8.636h-3.635V28.867h2.726l6.137 8.635v-8.635h3.636zm2.043 7.953c0-4.68 3.704-8.271 8.273-8.271 4.565 0 8.27 3.591 8.27 8.271 0 4.682-3.702 8.271-8.27 8.271-4.569.001-8.273-3.589-8.273-8.271zm12.907 0c0-2.839-2.045-4.726-4.636-4.726-2.592 0-4.637 1.886-4.637 4.726 0 2.842 2.045 4.729 4.637 4.729 2.591 0 4.636-1.887 4.636-4.729zm3.862-7.953h3.813l2.75 11.134 3.068-11.134h2.956l3.069 11.134 2.748-11.134h3.817l-4.384 15.907h-4.136l-2.591-9.385-2.592 9.385h-4.136l-4.382-15.907zm33.126 12.407v3.5h-9.318V28.867h3.637v12.407h5.681zm11.59 0v3.5H448.33V28.867h9.885v3.5h-6.248v2.636h5.68v3.453h-5.68v2.818h6.365zm16.131-4.454c0 4.5-3.34 7.954-7.727 7.954h-6.361V28.867h6.361c4.387 0 7.727 3.454 7.727 7.953zm-3.5 0c0-2.727-1.725-4.453-4.227-4.453h-2.728v8.907h2.728c2.502 0 4.227-1.727 4.227-4.454zm21.291.455c0 4.863-3.389 7.816-7.842 7.816-4.996 0-8.588-3.682-8.588-8.248 0-4.612 3.656-8.294 8.336-8.294 3.047 0 5.615 1.501 6.955 3.636l-3.088 1.771c-.66-1.045-2.093-1.862-3.89-1.862-2.678 0-4.68 1.976-4.68 4.771 0 2.704 1.908 4.683 5.002 4.683 2.111 0 3.496-.934 4.063-2.456h-4.247v-3.181h7.979v1.364zm12.041 3.999v3.5h-10V28.867h9.883v3.5h-6.248v2.636h5.683v3.453h-5.683v2.818h6.365z"/><g fill="#FFF"><path d="M263.123 177.546c-.764 0-1.5-.425-1.858-1.158l-19.675-40.265a2.064 2.064 0 0 1 .948-2.761h.001a2.064 2.064 0 0 1 2.761.947v.001l19.675 40.264a2.066 2.066 0 0 1-1.852 2.972z"/><path d="M264.456 178.368l-12.043-5.537a2.067 2.067 0 0 1-.941-2.768c.485-.986 1.658-1.42 2.668-.986l7.645 3.517 2.272-8.102a2.064 2.064 0 0 1 2.579-1.373 2.064 2.064 0 0 1 1.398 2.488l-3.578 12.761zm-23.9-30.702a2.065 2.065 0 0 1-1.989-2.625l3.579-12.761 12.045 5.537a2.067 2.067 0 0 1 1.015 2.739 2.067 2.067 0 0 1-2.738 1.015l-7.65-3.518-2.271 8.102a2.073 2.073 0 0 1-1.991 1.511z"/></g><g fill="#FFF"><path d="M439.895 177.546a2.062 2.062 0 0 1-1.854-2.971l19.676-40.264a2.066 2.066 0 0 1 3.711 1.812l-19.676 40.265a2.067 2.067 0 0 1-1.857 1.158z"/><path d="M438.563 178.368l-3.584-12.761a2.066 2.066 0 0 1 3.98-1.117l2.275 8.103 7.641-3.516a2.067 2.067 0 0 1 1.725 3.753l-12.037 5.538zm23.89-30.702a2.067 2.067 0 0 1-1.988-1.51l-2.271-8.102-7.646 3.518a2.07 2.07 0 0 1-2.707-1.105 2.07 2.07 0 0 1 .979-2.648l12.045-5.537 3.578 12.761a2.066 2.066 0 0 1-1.99 2.623z"/></g><path fill="#FFF" d="M555.09 38.46h-3.098a2.067 2.067 0 1 1 0-4.133h3.098c1.144 0 2.068.925 2.068 2.066v.001a2.069 2.069 0 0 1-2.068 2.066zm249.098 208.251a2.068 2.068 0 0 1-.002-4.133l6.253-.012h.006a2.067 2.067 0 0 1 .002 4.132l-6.252.014-.007-.001zm12.503-.025a2.06 2.06 0 0 1-2.064-2.061 2.062 2.062 0 0 1 2.057-2.07h.004l6.255-.013h.006a2.065 2.065 0 0 1 .002 4.132l-6.254.011-.006.001zm12.504-.021a2.064 2.064 0 0 1-2.066-2.062 2.064 2.064 0 0 1 2.063-2.07l6.252-.013h.002a2.068 2.068 0 0 1 .004 4.134l-6.252.011h-.003zm12.504-.024a2.068 2.068 0 0 1-2.068-2.062c0-1.142.922-2.067 2.063-2.07l3.401-.005a18.715 18.715 0 0 0 2.558-.182 2.067 2.067 0 0 1 .577 4.09 22.67 22.67 0 0 1-3.125.222l-3.397.006-.009.001zm12.201-2.004a2.065 2.065 0 0 1-.89-3.929 18.653 18.653 0 0 0 4.646-3.146 2.066 2.066 0 1 1 2.801 3.039 22.785 22.785 0 0 1-5.67 3.836c-.287.136-.59.2-.887.2zm9.055-8.341a2.066 2.066 0 0 1-1.782-3.105 18.73 18.73 0 0 0 2.06-5.212 2.065 2.065 0 0 1 4.024.918 22.608 22.608 0 0 1-2.516 6.372 2.061 2.061 0 0 1-1.786 1.027zm2.801-12.003a2.064 2.064 0 0 1-2.063-2.066v-6.252a2.065 2.065 0 1 1 4.131 0v6.25a2.069 2.069 0 0 1-2.068 2.068zm0-12.505a2.062 2.062 0 0 1-2.063-2.065v-6.254a2.065 2.065 0 1 1 4.131 0v6.252a2.067 2.067 0 0 1-2.068 2.067zm0-12.504a2.062 2.062 0 0 1-2.063-2.064v-6.253a2.066 2.066 0 1 1 4.131 0v6.252a2.068 2.068 0 0 1-2.068 2.065zm0-12.502a2.064 2.064 0 0 1-2.063-2.065v-6.253c0-1.141.926-2.067 2.065-2.067s2.066.927 2.066 2.067v6.253c0 1.14-.926 2.065-2.068 2.065zm0-12.506a2.063 2.063 0 0 1-2.063-2.064v-6.252a2.066 2.066 0 0 1 2.129-2.003 2.069 2.069 0 0 1 2.004 2.003v6.251a2.07 2.07 0 0 1-2.07 2.065zm0-12.502a2.063 2.063 0 0 1-2.063-2.063v-6.255a2.067 2.067 0 1 1 4.133 0v6.253a2.07 2.07 0 0 1-2.07 2.065zm0-12.504a2.062 2.062 0 0 1-2.063-2.064v-6.252a2.066 2.066 0 0 1 4.131 0v6.252a2.067 2.067 0 0 1-2.068 2.064zm0-12.503a2.062 2.062 0 0 1-2.063-2.063v-6.253a2.065 2.065 0 1 1 4.131 0v6.251a2.067 2.067 0 0 1-2.068 2.065zm0-12.503a2.064 2.064 0 0 1-2.063-2.066v-6.251a2.068 2.068 0 1 1 4.133 0v6.251a2.07 2.07 0 0 1-2.07 2.066zm0-12.504a2.062 2.062 0 0 1-2.063-2.063v-6.253a2.066 2.066 0 1 1 4.131 0v6.252a2.066 2.066 0 0 1-2.068 2.064zm0-12.502a2.065 2.065 0 0 1-2.063-2.065V90.94a2.066 2.066 0 0 1 4.131 0v6.253a2.068 2.068 0 0 1-2.068 2.065zm0-12.505a2.063 2.063 0 0 1-2.063-2.066v-6.251a2.066 2.066 0 0 1 2.129-2.004 2.07 2.07 0 0 1 2.004 2.004v6.251a2.07 2.07 0 0 1-2.07 2.066zm0-12.503a2.062 2.062 0 0 1-2.063-2.064v-6.253a2.066 2.066 0 1 1 4.131 0v6.253a2.067 2.067 0 0 1-2.068 2.064zm0-12.503a2.063 2.063 0 0 1-2.063-2.066V57.04a19.786 19.786 0 0 0-.281-3.233 2.064 2.064 0 0 1 1.672-2.393 2.068 2.068 0 0 1 2.395 1.674c.226 1.291.345 2.619.347 3.948v2.644a2.066 2.066 0 0 1-2.064 2.067h-.006zm-2.32-12.126a2.06 2.06 0 0 1-1.832-1.111 18.566 18.566 0 0 0-3.307-4.529 2.067 2.067 0 0 1 2.937-2.906 22.814 22.814 0 0 1 4.032 5.529 2.063 2.063 0 0 1-1.83 3.017zm-8.665-8.75c-.328 0-.662-.078-.976-.245a18.325 18.325 0 0 0-5.279-1.858 2.062 2.062 0 0 1-1.649-2.406c0-.002 0-.004.002-.006a2.07 2.07 0 0 1 2.41-1.649c2.26.425 4.434 1.19 6.465 2.276a2.064 2.064 0 0 1 .85 2.793v.002a2.068 2.068 0 0 1-1.823 1.093zM573.848 38.46a2.065 2.065 0 1 1 0-4.132h6.25a2.067 2.067 0 0 1 0 4.132h-6.25zm-6.252 0h-6.256a2.067 2.067 0 1 1 0-4.133h6.256c1.142 0 2.064.926 2.064 2.066a2.065 2.065 0 0 1-2.064 2.067zm37.508-.001h-6.252a2.067 2.067 0 1 1-.002-4.132h6.252a2.063 2.063 0 0 1 2.109 2.021 2.064 2.064 0 0 1-2.02 2.111h-.087zm-12.5 0h-6.252a2.07 2.07 0 0 1-2.146-1.988 2.071 2.071 0 0 1 2.145-2.144h6.252a2.069 2.069 0 0 1 2.111 2.021 2.07 2.07 0 0 1-2.021 2.111h-.089zm43.761-.001a2.068 2.068 0 1 1-.002-4.132h6.25c1.141 0 2.063.924 2.063 2.064a2.064 2.064 0 0 1-2.063 2.066l-6.248.002zm-6.254 0h-6.252a2.066 2.066 0 1 1-.002-4.132h6.252c1.141 0 2.065.925 2.065 2.066a2.06 2.06 0 0 1-2.063 2.066zm-12.504 0h-6.255a2.07 2.07 0 0 1-1.987-2.144 2.07 2.07 0 0 1 1.987-1.988h6.255c1.143 0 2.065.926 2.065 2.066s-.922 2.066-2.065 2.066zm50.014-.001h-6.25a2.065 2.065 0 1 1 0-4.13h6.25a2.066 2.066 0 1 1 .09 4.131l-.09-.001zm-12.502 0h-6.254a2.066 2.066 0 0 1 0-4.131h6.254a2.068 2.068 0 0 1 0 4.131zm43.76-.001a2.065 2.065 0 1 1 0-4.131h6.25a2.064 2.064 0 0 1 2.021 2.11 2.07 2.07 0 0 1-2.021 2.021h-6.25zm-6.25 0h-6.254a2.068 2.068 0 0 1 0-4.132h6.254a2.067 2.067 0 0 1 0 4.132zm-12.504 0h-6.254a2.067 2.067 0 0 1-.088-4.132h6.344a2.07 2.07 0 0 1 2.144 1.988 2.07 2.07 0 0 1-2.146 2.144zm50.014-.001h-6.254a2.063 2.063 0 0 1-2.063-2.065c0-1.142.924-2.065 2.063-2.065h6.254a2.065 2.065 0 1 1 0 4.13zm-12.504 0h-6.252a2.065 2.065 0 1 1 .001-4.131h6.252a2.064 2.064 0 0 1 2.021 2.11 2.07 2.07 0 0 1-2.022 2.021zm43.763-.001a2.067 2.067 0 1 1 0-4.132h6.252a2.063 2.063 0 0 1 2.127 2.003 2.062 2.062 0 0 1-2.127 2.129h-6.252zm-6.252 0h-6.255a2.065 2.065 0 1 1 0-4.131h6.255a2.065 2.065 0 0 1 0 4.131zm-12.505 0h-6.252a2.063 2.063 0 0 1-2.108-2.021 2.066 2.066 0 0 1 2.02-2.111h6.342a2.069 2.069 0 0 1 .16 4.132c-.057.002-.11.002-.162 0zm50.015-.001h-6.252a2.067 2.067 0 1 1-.127-4.133h6.379a2.067 2.067 0 0 1 0 4.133zm-12.502 0H773.9a2.063 2.063 0 0 1-2.066-2.064v-.002c0-1.141.922-2.066 2.066-2.066h6.254c1.141 0 2.063.926 2.063 2.066a2.063 2.063 0 0 1-2.063 2.066zm43.76-.001a2.068 2.068 0 0 1 0-4.132h6.254a2.067 2.067 0 0 1 0 4.131l-6.254.001zm-6.252 0h-6.25a2.065 2.065 0 0 1-2.066-2.063v-.002c0-1.141.924-2.066 2.066-2.066h6.25a2.065 2.065 0 0 1 0 4.131zm-12.502 0h-6.252a2.061 2.061 0 0 1-2.064-2.063v-.002c0-1.141.924-2.066 2.064-2.066h6.252a2.067 2.067 0 1 1 0 4.131zm37.51-.001h-6.252a2.064 2.064 0 0 1 0-4.13h6.252a2.065 2.065 0 0 1 0 4.13zm-47.877 208.275a2.062 2.062 0 0 1-2.063-2.062v-.001a2.064 2.064 0 0 1 2.061-2.069l3.098-.006h.004c1.142 0 2.064.921 2.066 2.061a2.064 2.064 0 0 1-2.059 2.071h-.002l-3.101.006h-.004z"/><path fill="#FFF" d="M557.986 45.607c-.506 0-.994-.186-1.371-.523l-9.9-8.818 10.26-8.382a2.067 2.067 0 0 1 2.617 3.197l-.002.002-6.512 5.32 6.283 5.599a2.062 2.062 0 0 1-1.375 3.605z"/><linearGradient id="D" gradientUnits="userSpaceOnUse" x1="-955.126" y1="5376.058" x2="-916.939" y2="5376.058" gradientTransform="matrix(0 1 1 0 -5024.4 1018.626)"><stop offset="0" stop-color="#706dcb" stop-opacity=".3"/><stop offset="1" stop-color="#706dcb"/></linearGradient><path fill="url(#D)" d="M431.872 90.33c0 6.271-5.086 11.357-11.359 11.357H282.8c-6.27 0-11.355-5.086-11.355-11.357V74.854c0-6.271 5.086-11.354 11.355-11.354h137.712c6.275 0 11.359 5.082 11.359 11.354l.001 15.476z"/><path fill="#FFF" d="M292.097 88.803l-3.701-5.352v5.352h-2.642V77.24h2.642v5.021l3.534-5.021h3.006l-3.897 5.633 4.063 5.93h-3.005zm12.259-11.563v11.563h-1.98l-4.459-6.277v6.277h-2.643V77.24h1.983l4.458 6.277V77.24h2.641zm.668 5.781c0-3.403 2.691-6.012 6.011-6.012 3.321 0 6.012 2.608 6.012 6.012 0 3.402-2.691 6.011-6.012 6.011-3.321 0-6.011-2.608-6.011-6.011zm9.38 0c0-2.064-1.487-3.435-3.368-3.435-1.882 0-3.368 1.37-3.368 3.435 0 2.063 1.486 3.436 3.368 3.436 1.881 0 3.368-1.372 3.368-3.436zm1.987-5.781h2.774l1.999 8.094 2.229-8.094h2.15l2.228 8.094 2-8.094h2.773l-3.188 11.563h-3.005l-1.883-6.822-1.884 6.822h-3.004l-3.189-11.563zm23.261 9.018v2.543h-6.771V77.239h2.643v9.019h4.128zm7.602 0v2.543h-7.267V77.239h7.184v2.544h-4.542v1.916h4.129v2.512h-4.129v2.047h4.625zm10.903-3.237c0 3.27-2.426 5.78-5.614 5.78h-4.624V77.239h4.624c3.188.001 5.614 2.513 5.614 5.782zm-2.541 0c0-1.982-1.257-3.238-3.073-3.238h-1.983v6.475h1.983c1.817 0 3.073-1.255 3.073-3.237zm14.654.331c0 3.534-2.462 5.681-5.699 5.681-3.632 0-6.241-2.674-6.241-5.995 0-3.352 2.658-6.026 6.06-6.026 2.214 0 4.081 1.089 5.054 2.642l-2.248 1.287c-.478-.76-1.518-1.353-2.823-1.353-1.95 0-3.401 1.437-3.401 3.468 0 1.965 1.386 3.402 3.634 3.402 1.535 0 2.543-.678 2.955-1.784h-3.086v-2.312h5.796l-.001.99zm7.933 2.906v2.544h-7.266V77.239h7.185v2.544h-4.542v1.916h4.128v2.512h-4.128v2.047h4.623zm12.558-.842c0 2.049-1.668 3.386-3.733 3.386h-4.855V77.239h4.528c2.012 0 3.648 1.306 3.648 3.305 0 .956-.381 1.716-1.006 2.263.856.545 1.418 1.437 1.418 2.609zm-5.946-5.697v2.047h1.885c.593 0 1.006-.428 1.006-1.023s-.395-1.023-1.006-1.023h-1.885v-.001zm3.304 5.5c0-.645-.428-1.107-1.092-1.107h-2.213v2.213h2.213c.664-.001 1.092-.464 1.092-1.106zm9.913 1.766h-4.295l-.577 1.817h-2.89l3.931-11.563h3.367l3.932 11.563h-2.89l-.578-1.817zm-.793-2.477l-1.354-4.246-1.354 4.246h2.708zm3.607 1.668l2.278-1.322c.411.959 1.122 1.603 2.427 1.603 1.255 0 1.569-.497 1.569-.942 0-.71-.662-.99-2.395-1.469-1.719-.48-3.401-1.306-3.401-3.519 0-2.23 1.884-3.519 3.881-3.519 1.9 0 3.387.908 4.228 2.609l-2.229 1.305c-.396-.824-.942-1.336-1.999-1.336-.825 0-1.238.412-1.238.875 0 .527.28.891 2.082 1.436 1.75.529 3.715 1.141 3.715 3.585 0 2.229-1.782 3.549-4.293 3.549-2.43.001-3.983-1.154-4.625-2.855zm16.601.082v2.544h-7.268V77.239h7.187v2.544h-4.543v1.916h4.128v2.512h-4.128v2.047h4.624z"/><linearGradient id="E" gradientUnits="userSpaceOnUse" x1="-955.126" y1="5544.748" x2="-916.939" y2="5544.748" gradientTransform="matrix(0 1 1 0 -5024.4 1018.626)"><stop offset="0" stop-color="#706dcb" stop-opacity=".3"/><stop offset="1" stop-color="#706dcb"/></linearGradient><path fill="url(#E)" d="M600.563 90.33c0 6.271-5.086 11.357-11.358 11.357H451.49c-6.271 0-11.355-5.086-11.355-11.357V74.854c0-6.272 5.088-11.354 11.355-11.354h137.715c6.271 0 11.356 5.082 11.356 11.354l.002 15.476z"/><linearGradient id="F" gradientUnits="userSpaceOnUse" x1="-955.142" y1="5207.372" x2="-916.956" y2="5207.372" gradientTransform="matrix(0 1 1 0 -5024.4 1018.626)"><stop offset="0" stop-color="#706dcb" stop-opacity=".3"/><stop offset="1" stop-color="#706dcb"/></linearGradient><path fill="url(#F)" d="M263.184 90.314c0 6.27-5.086 11.357-11.36 11.357h-137.71c-6.27 0-11.356-5.088-11.356-11.357V74.838c0-6.271 5.086-11.353 11.356-11.353h137.711c6.274 0 11.36 5.083 11.36 11.353l-.001 15.476z"/><g fill="#FFF"><path d="M458.01 86.176l2.279-1.322c.412.959 1.121 1.603 2.426 1.603 1.256 0 1.57-.497 1.57-.942 0-.71-.662-.99-2.396-1.469-1.719-.48-3.401-1.306-3.401-3.519 0-2.23 1.881-3.519 3.881-3.519 1.9 0 3.387.908 4.229 2.609l-2.229 1.305c-.396-.824-.941-1.336-1.998-1.336-.824 0-1.238.412-1.238.875 0 .527.281.891 2.08 1.436 1.752.529 3.717 1.141 3.717 3.585 0 2.229-1.782 3.549-4.291 3.549-2.432.001-3.985-1.154-4.629-2.855z"/><path d="M466.854 83.021c0-3.403 2.523-6.012 6.011-6.012 2.098 0 3.948 1.041 4.955 2.676l-2.279 1.32c-.512-.891-1.502-1.419-2.676-1.419-2.047 0-3.367 1.37-3.367 3.435s1.32 3.436 3.367 3.436c1.172 0 2.182-.529 2.676-1.42l2.279 1.321c-.99 1.634-2.841 2.674-4.955 2.674-3.488 0-6.011-2.608-6.011-6.011zm18.152 3.964h-4.295l-.576 1.817h-2.891l3.93-11.563h3.369l3.928 11.563h-2.889l-.576-1.817zm-.793-2.477l-1.354-4.246-1.355 4.246h2.709zm15.99 4.295h-2.641v-6.722l-2.988 4.905h-.299l-2.99-4.905v6.722h-2.644V77.24h2.644l3.139 5.137 3.137-5.137h2.642v11.563zm14.709-5.782c0 3.27-2.43 5.78-5.613 5.78h-4.627V77.239h4.627c3.185.001 5.613 2.513 5.613 5.782zm-2.543 0c0-1.982-1.258-3.238-3.072-3.238h-1.981v6.475h1.981c1.814 0 3.072-1.255 3.072-3.237zm9.567 3.964h-4.293l-.578 1.817h-2.889l3.933-11.563h3.366l3.931 11.563h-2.892l-.578-1.817zm-.791-2.477l-1.354-4.246-1.355 4.246h2.709zm11.367-4.724h-2.971v9.019H526.9v-9.019h-2.976V77.24h8.588v2.544zm6.281 7.201h-4.295l-.578 1.817h-2.889l3.93-11.563h3.367l3.932 11.563h-2.891l-.576-1.817zm-.795-2.477l-1.352-4.246-1.357 4.246h2.709zm13.022.908c0 2.049-1.67 3.385-3.733 3.385h-4.854V77.239h4.525c2.016 0 3.65 1.306 3.65 3.305 0 .956-.384 1.716-1.009 2.263.856.545 1.421 1.437 1.421 2.609zm-5.948-5.697v2.047h1.883c.596 0 1.008-.428 1.008-1.023s-.396-1.023-1.008-1.023h-1.883v-.001zm3.305 5.5c0-.645-.43-1.107-1.092-1.107h-2.213v2.213h2.213c.662-.001 1.092-.464 1.092-1.106zm9.916 1.766h-4.297l-.576 1.817h-2.891l3.932-11.563h3.367l3.93 11.563h-2.891l-.574-1.817zm-.795-2.477l-1.354-4.246-1.354 4.246h2.708zm3.607 1.668l2.276-1.322c.414.959 1.121 1.603 2.43 1.603 1.253 0 1.566-.497 1.566-.942 0-.711-.662-.99-2.393-1.469-1.72-.48-3.402-1.306-3.402-3.519 0-2.23 1.881-3.519 3.881-3.519 1.902 0 3.389.908 4.23 2.609l-2.23 1.305c-.397-.824-.945-1.336-2-1.336-.824 0-1.238.412-1.238.875 0 .527.281.891 2.084 1.436 1.75.529 3.716 1.141 3.716 3.585 0 2.229-1.783 3.549-4.295 3.549-2.429.001-3.982-1.154-4.625-2.855zm16.6.082v2.543h-7.266V77.239h7.184v2.544h-4.541v1.916h4.127v2.512h-4.127v2.047h4.623z"/></g><g fill="#FFF"><path d="M121.157 81.203c0 2.197-1.768 3.965-4.046 3.965h-1.735v3.635h-2.642V77.24h4.377c2.277 0 4.046 1.768 4.046 3.963zm-2.644 0c0-.842-.595-1.485-1.403-1.485h-1.735v2.974h1.735c.809-.001 1.403-.645 1.403-1.489zm7.041 3.8h-1.256v3.8h-2.642V77.24h4.625a3.956 3.956 0 0 1 3.964 3.947v.018c0 1.421-.86 2.709-2.131 3.354l2.459 4.245h-2.84l-2.179-3.801zm-1.256-2.312h1.983c.725 0 1.321-.645 1.321-1.488 0-.842-.596-1.485-1.321-1.485h-1.983v2.973z"/><path d="M130.332 83.021c0-3.403 2.691-6.012 6.011-6.012 3.321 0 6.01 2.608 6.01 6.012 0 3.402-2.69 6.011-6.01 6.011s-6.011-2.608-6.011-6.011zm9.38 0c0-2.064-1.486-3.435-3.369-3.435-1.884 0-3.369 1.37-3.369 3.435s1.486 3.436 3.369 3.436c1.882 0 3.369-1.371 3.369-3.436z"/><path d="M141.368 86.786l2.295-1.321c.363.645.744.992 1.634.992 1.156 0 1.502-.66 1.502-1.371V77.24h2.643v7.846c0 2.544-1.783 3.946-4.161 3.946-1.831 0-3.153-.776-3.913-2.246zm16.422-.528v2.544h-7.268V77.239h7.185v2.544h-4.542v1.916h4.128v2.512h-4.128v2.047h4.625zm.088-3.237c0-3.403 2.525-6.012 6.011-6.012 2.098 0 3.948 1.041 4.954 2.676l-2.28 1.32c-.513-.891-1.503-1.419-2.674-1.419-2.047 0-3.369 1.37-3.369 3.435s1.322 3.436 3.369 3.436c1.171 0 2.181-.529 2.674-1.42l2.28 1.321c-.991 1.634-2.84 2.674-4.954 2.674-3.487 0-6.011-2.608-6.011-6.011z"/><path d="M177.023 79.784h-2.972v9.019h-2.643v-9.019h-2.973V77.24h8.587l.001 2.544zm13.879 3.237c0 3.27-2.428 5.78-5.615 5.78h-4.625V77.239h4.625c3.187.001 5.615 2.513 5.615 5.782zm-2.542 0c0-1.982-1.257-3.238-3.073-3.238h-1.982v6.475h1.982c1.816 0 3.073-1.255 3.073-3.237zm9.568 3.964h-4.294l-.577 1.817h-2.891l3.933-11.563h3.368l3.929 11.563h-2.888l-.58-1.817zm-.795-2.477l-1.354-4.246-1.355 4.246h2.709zm11.367-4.724h-2.971v9.019h-2.643v-9.019h-2.973V77.24h8.586l.001 2.544zm6.281 7.201h-4.294l-.577 1.817h-2.891l3.931-11.563h3.369l3.929 11.563h-2.889l-.578-1.817zm-.793-2.477l-1.353-4.246-1.354 4.246h2.707zm13.021.908c0 2.049-1.668 3.385-3.733 3.385h-4.856V77.239h4.527c2.015 0 3.649 1.306 3.649 3.305 0 .956-.379 1.716-1.006 2.263.856.545 1.419 1.437 1.419 2.609zm-5.946-5.697v2.047h1.883c.593 0 1.006-.428 1.006-1.023s-.395-1.023-1.006-1.023h-1.883v-.001zm3.305 5.5c0-.645-.43-1.107-1.091-1.107h-2.213v2.213h2.213c.66-.001 1.091-.464 1.091-1.106zm9.91 1.766h-4.293l-.577 1.817h-2.891l3.931-11.563h3.369l3.929 11.563h-2.888l-.58-1.817zm-.792-2.477l-1.353-4.246-1.355 4.246h2.708zm3.606 1.668l2.279-1.322c.412.959 1.123 1.603 2.427 1.603 1.254 0 1.569-.497 1.569-.942 0-.711-.661-.99-2.394-1.469-1.718-.48-3.403-1.306-3.403-3.519 0-2.23 1.882-3.519 3.882-3.519 1.898 0 3.386.908 4.227 2.609l-2.229 1.305c-.397-.824-.942-1.336-1.997-1.336-.825 0-1.24.412-1.24.875 0 .527.281.891 2.082 1.436 1.751.529 3.715 1.141 3.715 3.585 0 2.229-1.784 3.549-4.294 3.549-2.428.001-3.98-1.154-4.624-2.855zm16.603.082v2.543h-7.268V77.239h7.185v2.544h-4.543v1.916h4.13v2.512h-4.13v2.047h4.626z"/></g><path fill="#FFF" d="M626.904 483.993V473.22h3.637v10.453c0 1.205.568 2.23 2.5 2.23s2.5-1.025 2.5-2.23V473.22h3.637v10.773c0 3.406-2.637 5.451-6.137 5.451-3.502 0-6.137-2.043-6.137-5.451zm14.088 1.521l3.133-1.818c.57 1.316 1.547 2.207 3.34 2.207 1.73 0 2.16-.686 2.16-1.299 0-.979-.908-1.363-3.295-2.023-2.365-.658-4.684-1.793-4.684-4.84 0-3.068 2.594-4.842 5.342-4.842 2.61 0 4.655 1.254 5.815 3.594l-3.065 1.791c-.545-1.137-1.299-1.838-2.752-1.838-1.14 0-1.705.568-1.705 1.205 0 .727.385 1.225 2.862 1.977 2.406.729 5.111 1.568 5.111 4.93 0 3.064-2.453 4.887-5.906 4.887-3.336-.001-5.471-1.591-6.356-3.931zm23.971.111v3.5h-10v-15.908h9.885v3.5h-6.25v2.639h5.681v3.451h-5.681v2.816l6.365.002zm7.406-1.724h-1.729v5.225h-3.635v-15.908h6.361a5.44 5.44 0 0 1 5.453 5.432v.023c0 1.951-1.183 3.729-2.933 4.611l3.388 5.84h-3.908l-2.997-5.223zm-1.73-3.182h2.729c1 0 1.819-.887 1.819-2.045s-.819-2.045-1.819-2.045h-2.729v4.09zm9.318 4.795l3.135-1.818c.568 1.316 1.545 2.207 3.342 2.207 1.729 0 2.16-.686 2.16-1.299 0-.979-.912-1.363-3.297-2.023-2.363-.658-4.682-1.793-4.682-4.84 0-3.068 2.592-4.842 5.34-4.842 2.611 0 4.654 1.254 5.815 3.594l-3.067 1.791c-.545-1.137-1.297-1.838-2.75-1.838-1.139 0-1.707.568-1.707 1.205 0 .727.387 1.225 2.865 1.977 2.407.729 5.112 1.568 5.112 4.93 0 3.064-2.455 4.887-5.909 4.887-3.335-.001-5.47-1.591-6.357-3.931z"/></svg>