<svg xmlns="http://www.w3.org/2000/svg" width="803.411" height="181.478" viewBox="216.896 -360.311 803.411 181.478"><path fill="#FFF" d="M350.923-345.055h-3.418v-8.694l-3.868 6.346h-.385l-3.867-6.346v8.696h-3.418v-14.958h3.418l4.06 6.646 4.061-6.646h3.418l-.001 14.956zm5.983-14.956v14.958h-3.419v-14.958h3.419zm14.317 0v14.958h-2.564l-5.769-8.12v8.12h-3.419v-14.958h2.563l5.77 8.119v-8.119h3.419zm7.264 7.478c0-4.401 3.27-7.777 7.777-7.777 2.713 0 5.105 1.348 6.41 3.462l-2.949 1.708c-.663-1.152-1.945-1.837-3.461-1.837-2.649 0-4.358 1.773-4.358 4.444s1.709 4.444 4.358 4.444c1.517 0 2.82-.686 3.461-1.838l2.949 1.709c-1.282 2.113-3.675 3.461-6.41 3.461-4.507.002-7.777-3.375-7.777-7.776zm24.765 5.129h-5.557l-.747 2.352h-3.738l5.085-14.958h4.358l5.085 14.958h-3.74l-.746-2.352zm-1.025-3.204l-1.752-5.492-1.752 5.492h3.504zm17.691-4.274c0 2.84-2.286 5.127-5.234 5.127h-2.243v4.701h-3.418v-14.958h5.662c2.947.001 5.233 2.287 5.233 5.13zm-3.418 0c0-1.092-.77-1.925-1.816-1.925h-2.243v3.847h2.243c1.046 0 1.816-.834 1.816-1.922zm81.617 6.432l2.949-1.71c.533 1.238 1.453 2.072 3.141 2.072 1.624 0 2.03-.643 2.03-1.22 0-.918-.854-1.28-3.099-1.901-2.222-.618-4.4-1.688-4.4-4.55 0-2.887 2.437-4.553 5.021-4.553 2.457 0 4.38 1.176 5.47 3.376l-2.885 1.689c-.513-1.068-1.218-1.731-2.585-1.731-1.068 0-1.604.534-1.604 1.135 0 .684.362 1.152 2.691 1.857 2.266.685 4.809 1.476 4.809 4.637 0 2.885-2.309 4.595-5.556 4.595-3.139-.001-5.148-1.497-5.982-3.696zm12.608-4.083c0-4.401 3.481-7.777 7.777-7.777 4.295 0 7.777 3.376 7.777 7.777s-3.481 7.777-7.777 7.777c-4.295.001-7.777-3.376-7.777-7.777zm12.135 0c0-2.67-1.923-4.444-4.358-4.444-2.437 0-4.357 1.773-4.357 4.444s1.922 4.444 4.357 4.444c2.436.001 4.358-1.772 4.358-4.444zm8.761-4.186v2.884h5.556v3.291h-5.556v5.49h-3.419v-14.958h9.081v3.292l-5.662.001zm17.734 0h-3.847v11.665h-3.419v-11.666h-3.847v-3.292h11.111l.002 3.293zm6.199 4.186c0-4.401 3.27-7.777 7.776-7.777 2.714 0 5.107 1.348 6.41 3.462l-2.949 1.708c-.661-1.152-1.943-1.837-3.461-1.837-2.648 0-4.357 1.773-4.357 4.444s1.709 4.444 4.357 4.444c1.518 0 2.82-.686 3.461-1.838l2.949 1.709c-1.281 2.113-3.675 3.461-6.41 3.461-4.508.002-7.776-3.375-7.776-7.776zm24.762 5.129h-5.556l-.748 2.352h-3.738l5.085-14.958h4.358l5.085 14.958h-3.738l-.748-2.352zm-1.025-3.204l-1.753-5.492-1.751 5.492h3.504zm17.692-4.274c0 2.84-2.286 5.127-5.235 5.127h-2.243v4.701h-3.418v-14.958h5.661c2.949.001 5.235 2.287 5.235 5.13zm-3.419 0c0-1.092-.771-1.925-1.816-1.925h-2.243v3.847h2.243c1.048 0 1.816-.834 1.816-1.922zm252.599-5.129v14.958h-3.419v-5.939h-4.7v5.939h-3.419v-14.958h3.419v5.729h4.7v-5.729h3.419zm11.326 12.607h-5.558l-.748 2.352h-3.738l5.086-14.958h4.358l5.085 14.958h-3.738l-.747-2.352zm-1.025-3.204l-1.755-5.492-1.75 5.492h3.505zm11.838.639h-1.625v4.915h-3.419v-14.958h5.981a5.118 5.118 0 0 1 5.13 5.105v.024c0 1.837-1.112 3.503-2.757 4.337l3.183 5.491h-3.675l-2.818-4.914zm-1.625-2.991h2.563c.939 0 1.71-.833 1.71-1.922 0-1.092-.771-1.925-1.71-1.925h-2.563v3.847zm22.969.427c0 4.229-3.143 7.479-7.265 7.479h-5.982v-14.957h5.982c4.124 0 7.265 3.248 7.265 7.478zm-3.292 0c0-2.563-1.622-4.188-3.973-4.188h-2.565v8.376h2.565c2.349.001 3.973-1.624 3.973-4.188zm9.917 0c0-4.401 3.269-7.777 7.775-7.777 2.714 0 5.107 1.348 6.408 3.462l-2.946 1.708c-.663-1.152-1.943-1.837-3.462-1.837-2.648 0-4.356 1.773-4.356 4.444s1.708 4.444 4.356 4.444c1.519 0 2.819-.686 3.462-1.838l2.946 1.709c-1.279 2.113-3.675 3.461-6.408 3.461-4.507.002-7.775-3.375-7.775-7.776zm24.763 5.129h-5.556l-.748 2.352h-3.739l5.086-14.958h4.358l5.086 14.958h-3.739l-.748-2.352zm-1.025-3.204l-1.753-5.492-1.751 5.492h3.504zm17.69-4.274c0 2.84-2.283 5.127-5.231 5.127h-2.245v4.701h-3.417v-14.958h5.662c2.948.001 5.231 2.287 5.231 5.13zm-3.417 0c0-1.092-.77-1.925-1.814-1.925h-2.245v3.847h2.245c1.047 0 1.814-.834 1.814-1.922zm-266.953 0c0 2.84-2.285 5.127-5.233 5.127h-2.244v4.701h-3.418v-14.958h5.663c2.946.001 5.232 2.287 5.232 5.13zm-3.419 0c0-1.092-.77-1.925-1.815-1.925h-2.244v3.847h2.244c1.047 0 1.815-.834 1.815-1.922zm4.488 2.349c0-4.401 3.482-7.777 7.776-7.777s7.776 3.376 7.776 7.777-3.482 7.777-7.776 7.777-7.776-3.376-7.776-7.777zm12.136 0c0-2.67-1.923-4.444-4.358-4.444-2.438 0-4.358 1.773-4.358 4.444s1.922 4.444 4.358 4.444c2.435.001 4.358-1.772 4.358-4.444zm4.275-7.478h3.591l2.585 10.471 2.885-10.471h2.775l2.886 10.471 2.584-10.471h3.592l-4.125 14.958h-3.889l-2.437-8.824-2.437 8.824h-3.89l-4.12-14.958zm31.793 11.667v3.29h-9.399v-14.958h9.294v3.292h-5.876v2.479h5.343v3.248h-5.343v2.649h5.981zm6.965-1.625h-1.623v4.915h-3.419v-14.958h5.981a5.116 5.116 0 0 1 5.128 5.105v.024c0 1.837-1.111 3.503-2.757 4.337l3.184 5.491h-3.674l-2.82-4.914zm-1.623-2.991h2.563c.938 0 1.71-.833 1.71-1.922 0-1.092-.771-1.925-1.71-1.925h-2.563v3.847zm14.423.427c0-4.401 3.27-7.777 7.775-7.777 2.715 0 5.106 1.348 6.41 3.462l-2.949 1.708c-.661-1.152-1.943-1.837-3.461-1.837-2.648 0-4.357 1.773-4.357 4.444s1.709 4.444 4.357 4.444c1.518 0 2.82-.686 3.461-1.838l2.949 1.709c-1.282 2.113-3.675 3.461-6.41 3.461-4.505.002-7.775-3.375-7.775-7.776zm24.765 5.129h-5.557l-.747 2.352h-3.737l5.083-14.958h4.359l5.085 14.958h-3.738l-.748-2.352zm-1.027-3.204l-1.753-5.492-1.753 5.492h3.506zm17.694-4.274c0 2.84-2.286 5.127-5.234 5.127h-2.244v4.701h-3.42v-14.958h5.664c2.948.001 5.234 2.287 5.234 5.13zm-3.419 0c0-1.092-.771-1.925-1.815-1.925h-2.244v3.847h2.244c1.044 0 1.815-.834 1.815-1.922z"/><linearGradient id="a" gradientUnits="userSpaceOnUse" x1="-3399.627" y1="-737.343" x2="-3350.481" y2="-737.343" gradientTransform="rotate(-90 -1286.532 -2291.928)"><stop offset="0" stop-color="#706dcb" stop-opacity="0"/><stop offset="1" stop-color="#706dcb" stop-opacity=".7"/></linearGradient><path opacity=".2" fill="url(#a)" d="M294.794-227.979h-36.388c-9.441 0-17.094 7.654-17.094 17.094v14.958c0 9.44 7.653 17.094 17.094 17.094h36.388v-49.146z"/><linearGradient id="b" gradientUnits="userSpaceOnUse" x1="-3399.627" y1="-626.794" x2="-3350.481" y2="-626.794" gradientTransform="rotate(-90 -1286.532 -2291.928)"><stop offset="0" stop-color="#706dcb" stop-opacity="0"/><stop offset="1" stop-color="#706dcb" stop-opacity=".7"/></linearGradient><path opacity=".4" fill="url(#b)" d="M296.219-227.979h164.768v49.146H296.219v-49.146z"/><linearGradient id="c" gradientUnits="userSpaceOnUse" x1="-3399.627" y1="-460.366" x2="-3350.481" y2="-460.366" gradientTransform="rotate(-90 -1286.532 -2291.928)"><stop offset="0" stop-color="#706dcb" stop-opacity="0"/><stop offset="1" stop-color="#706dcb" stop-opacity=".7"/></linearGradient><path opacity=".6" fill="url(#c)" d="M462.409-227.979H627.65v49.146H462.409v-49.146z"/><linearGradient id="d" gradientUnits="userSpaceOnUse" x1="-3399.627" y1="-9.528" x2="-3350.481" y2="-9.528" gradientTransform="rotate(-90 -1286.532 -2291.928)"><stop offset="0" stop-color="#706dcb" stop-opacity="0"/><stop offset="1" stop-color="#706dcb" stop-opacity=".7"/></linearGradient><path opacity=".2" fill="url(#d)" d="M1003.214-227.979H971.43v49.146h31.784c9.439 0 17.093-7.651 17.093-17.094v-14.958c0-9.439-7.654-17.094-17.093-17.094z"/><linearGradient id="e" gradientUnits="userSpaceOnUse" x1="-3399.627" y1="-119.675" x2="-3350.481" y2="-119.675" gradientTransform="rotate(-90 -1286.532 -2291.928)"><stop offset="0" stop-color="#706dcb" stop-opacity="0"/><stop offset="1" stop-color="#706dcb" stop-opacity=".7"/></linearGradient><path fill="url(#e)" d="M801.438-227.979h168.567v49.146H801.438v-49.146z"/><linearGradient id="f" gradientUnits="userSpaceOnUse" x1="-3399.627" y1="-290.852" x2="-3350.481" y2="-290.852" gradientTransform="rotate(-90 -1286.532 -2291.928)"><stop offset="0" stop-color="#706dcb" stop-opacity="0"/><stop offset="1" stop-color="#706dcb" stop-opacity=".7"/></linearGradient><path opacity=".8" fill="url(#f)" d="M629.075-227.979h170.938v49.146H629.075v-49.146z"/><path fill="#FFF" d="M216.896-284.975c0-3.99 3.013-7.202 7.264-7.202 2.574 0 4.829 1.315 5.986 3.352l-.938.54c-.917-1.718-2.854-2.874-5.048-2.874-3.671 0-6.205 2.754-6.205 6.186 0 3.434 2.534 6.188 6.205 6.188 2.215 0 4.17-1.178 5.088-2.934l.938.537c-1.137 2.056-3.412 3.413-6.026 3.413-4.249-.002-7.264-3.214-7.264-7.206zm22.562 3.433h-7.003l-1.357 3.552h-1.118l5.427-13.969h1.118l5.407 13.969h-1.117l-1.357-3.552zm-.379-.997l-3.112-8.122-3.114 8.122h6.226zm12.724-5.089c0 2.453-1.835 4.31-4.35 4.31h-3.691v5.328h-1.058v-13.969h4.749c2.513 0 4.35 1.856 4.35 4.331zm-1.057 0c0-1.937-1.378-3.332-3.293-3.332h-3.691v6.645h3.691c1.915 0 3.293-1.398 3.293-3.313zm1.569 6.565l.918-.539c.479 1.678 1.896 2.813 4.189 2.813 2.335 0 3.512-1.197 3.512-2.794 0-1.676-1.477-2.314-3.611-2.991-2.335-.759-4.43-1.417-4.43-3.854 0-2.295 1.856-3.75 4.23-3.75 2.294 0 3.811 1.315 4.489 2.934l-.898.499c-.519-1.258-1.596-2.415-3.591-2.415-1.936 0-3.153 1.138-3.153 2.694 0 1.674 1.417 2.192 3.412 2.854 2.475.817 4.629 1.596 4.629 4.01 0 2.315-1.816 3.832-4.589 3.832-2.612-.001-4.467-1.318-5.107-3.293z"/><g fill="#FFF"><path d="M498.266-323.014c0 2.854-2.222 4.334-4.722 4.334-2.057 0-3.834-.869-4.631-2.776l2.557-1.482c.296.854.852 1.372 2.074 1.372s1.759-.647 1.759-1.444c0-.796-.537-1.444-1.667-1.444h-4.057l.538-7.444h7.5v2.776h-4.723l-.13 1.778h1.056c2.409-.003 4.446 1.479 4.446 4.33zm5.463-8.888v12.963h-2.963v-9.833l-2.296.63-.724-2.538 3.391-1.223 2.592.001zm4.147 6.482c0-4.001 1.926-6.74 5.277-6.74 3.353 0 5.277 2.739 5.277 6.74 0 4-1.926 6.739-5.277 6.739s-5.277-2.74-5.277-6.739zm7.593 0c0-2.501-.76-3.853-2.314-3.853-1.556 0-2.313 1.352-2.313 3.853 0 2.5.759 3.853 2.313 3.853 1.554-.001 2.314-1.354 2.314-3.853z"/><path d="M518.376-325.42c0-4.001 1.926-6.74 5.277-6.74 3.353 0 5.277 2.739 5.277 6.74 0 4-1.926 6.739-5.277 6.739s-5.277-2.74-5.277-6.739zm7.593 0c0-2.501-.76-3.853-2.313-3.853-1.557 0-2.314 1.352-2.314 3.853 0 2.5.759 3.853 2.314 3.853 1.553-.001 2.313-1.354 2.313-3.853z"/><path d="M528.875-325.42c0-4.001 1.926-6.74 5.277-6.74 3.353 0 5.277 2.739 5.277 6.74 0 4-1.926 6.739-5.277 6.739s-5.277-2.74-5.277-6.739zm7.593 0c0-2.501-.759-3.853-2.314-3.853-1.557 0-2.314 1.352-2.314 3.853 0 2.5.759 3.853 2.314 3.853 1.555-.001 2.314-1.354 2.314-3.853zm6.371 0c0-4.001 1.926-6.74 5.277-6.74 3.353 0 5.277 2.739 5.277 6.74 0 4-1.926 6.739-5.277 6.739s-5.277-2.74-5.277-6.739zm7.593 0c0-2.501-.76-3.853-2.314-3.853s-2.313 1.352-2.313 3.853c0 2.5.759 3.853 2.313 3.853 1.554-.001 2.314-1.354 2.314-3.853z"/><path d="M553.338-325.42c0-4.001 1.926-6.74 5.277-6.74 3.353 0 5.277 2.739 5.277 6.74 0 4-1.926 6.739-5.277 6.739-3.35.001-5.277-2.74-5.277-6.739zm7.593 0c0-2.501-.76-3.853-2.314-3.853-1.556 0-2.313 1.352-2.313 3.853 0 2.5.758 3.853 2.313 3.853 1.554-.001 2.314-1.354 2.314-3.853z"/><path d="M563.838-325.42c0-4.001 1.926-6.74 5.277-6.74 3.353 0 5.277 2.739 5.277 6.74 0 4-1.926 6.739-5.277 6.739s-5.277-2.74-5.277-6.739zm7.593 0c0-2.501-.76-3.853-2.313-3.853-1.557 0-2.314 1.352-2.314 3.853 0 2.5.759 3.853 2.314 3.853 1.553-.001 2.313-1.354 2.313-3.853zm10.508 1.993a4.604 4.604 0 0 1 4.578-4.63h.051a4.603 4.603 0 0 1 4.63 4.576v.054a4.603 4.603 0 0 1-4.577 4.629h-.053a4.602 4.602 0 0 1-4.629-4.629zm8.581 0c0-2.205-1.729-3.976-3.95-3.976-2.219 0-3.949 1.771-3.949 3.976s1.731 3.976 3.949 3.976c2.219-.001 3.95-1.771 3.95-3.976zm2.265-3.847v3.59h4.145v.642h-4.145v4.104h-.679v-8.978h4.976v.643h-4.297zm4.642 3.847c0-2.563 1.938-4.63 4.668-4.63 1.653 0 3.104.848 3.848 2.154l-.604.347c-.591-1.104-1.834-1.846-3.245-1.846-2.359 0-3.987 1.771-3.987 3.976s1.628 3.976 3.987 3.976c1.423 0 2.681-.757 3.271-1.885l.604.347c-.73 1.32-2.192 2.191-3.873 2.191-2.733-.002-4.669-2.065-4.669-4.63z"/></g><g fill="#FFF"><path d="M651.409-321.087l4.353-4.52c.76-.778 1.313-1.537 1.313-2.296 0-.814-.52-1.37-1.388-1.37-.908 0-1.557.593-1.907 1.407l-2.5-1.462c.833-1.928 2.573-2.833 4.37-2.833 2.314 0 4.389 1.518 4.389 4.13 0 1.555-.832 2.887-2.018 4.072l-2.148 2.168h4.353v2.852h-8.814l-.003-2.148zm8.853-4.333c0-4.001 1.927-6.74 5.277-6.74 3.353 0 5.278 2.739 5.278 6.74 0 4-1.927 6.739-5.278 6.739s-5.277-2.74-5.277-6.739zm7.592 0c0-2.501-.76-3.853-2.313-3.853-1.557 0-2.315 1.352-2.315 3.853 0 2.5.76 3.853 2.315 3.853 1.554-.001 2.313-1.354 2.313-3.853z"/><path d="M680.761-321.014h-1.296v2.074h-3v-2.074h-5.891v-2.739l4.13-8.148h3.186l-4.13 8.148h2.704v-2.777h3v2.777h1.296l.001 2.739zm3.037-4.406c0-4.001 1.926-6.74 5.276-6.74 3.354 0 5.276 2.739 5.276 6.74 0 4-1.925 6.739-5.276 6.739-3.35.001-5.276-2.74-5.276-6.739zm7.593 0c0-2.501-.76-3.853-2.314-3.853s-2.313 1.352-2.313 3.853c0 2.5.759 3.853 2.313 3.853s2.314-1.354 2.314-3.853z"/><path d="M694.298-325.42c0-4.001 1.926-6.74 5.276-6.74 3.352 0 5.276 2.739 5.276 6.74 0 4-1.926 6.739-5.276 6.739s-5.276-2.74-5.276-6.739zm7.593 0c0-2.501-.76-3.853-2.314-3.853s-2.313 1.352-2.313 3.853c0 2.5.759 3.853 2.313 3.853s2.314-1.354 2.314-3.853z"/><path d="M704.797-325.42c0-4.001 1.927-6.74 5.277-6.74 3.352 0 5.276 2.739 5.276 6.74 0 4-1.926 6.739-5.276 6.739s-5.277-2.74-5.277-6.739zm7.594 0c0-2.501-.76-3.853-2.314-3.853s-2.313 1.352-2.313 3.853c0 2.5.761 3.853 2.313 3.853 1.554-.001 2.314-1.354 2.314-3.853zm6.369 0c0-4.001 1.928-6.74 5.278-6.74s5.277 2.739 5.277 6.74c0 4-1.928 6.739-5.277 6.739-3.35.001-5.278-2.74-5.278-6.739zm7.594 0c0-2.501-.761-3.853-2.314-3.853-1.558 0-2.315 1.352-2.315 3.853 0 2.5.76 3.853 2.315 3.853 1.554-.001 2.314-1.354 2.314-3.853z"/><path d="M729.26-325.42c0-4.001 1.926-6.74 5.276-6.74 3.354 0 5.278 2.739 5.278 6.74 0 4-1.927 6.739-5.278 6.739-3.35.001-5.276-2.74-5.276-6.739zm7.592 0c0-2.501-.759-3.853-2.313-3.853s-2.313 1.352-2.313 3.853c0 2.5.76 3.853 2.313 3.853 1.554 0 2.313-1.354 2.313-3.853z"/><path d="M739.76-325.42c0-4.001 1.926-6.74 5.276-6.74 3.354 0 5.278 2.739 5.278 6.74 0 4-1.927 6.739-5.278 6.739-3.35.001-5.276-2.74-5.276-6.739zm7.592 0c0-2.501-.759-3.853-2.313-3.853s-2.313 1.352-2.313 3.853c0 2.5.761 3.853 2.313 3.853 1.554-.001 2.313-1.354 2.313-3.853zm10.509 1.993a4.604 4.604 0 0 1 4.578-4.63h.051a4.602 4.602 0 0 1 4.629 4.575v.055a4.601 4.601 0 0 1-4.573 4.629h-.056a4.602 4.602 0 0 1-4.629-4.575v-.054zm8.578 0c0-2.205-1.729-3.976-3.949-3.976-2.219 0-3.948 1.771-3.948 3.976s1.729 3.976 3.948 3.976c2.22-.001 3.949-1.771 3.949-3.976zm2.27-3.847v3.59h4.142v.642h-4.142v4.104h-.682v-8.978h4.977v.643h-4.295zm4.641 3.847c0-2.563 1.937-4.63 4.667-4.63 1.654 0 3.104.848 3.848 2.154l-.604.347c-.59-1.104-1.833-1.846-3.244-1.846-2.358 0-3.987 1.771-3.987 3.976s1.629 3.976 3.987 3.976c1.424 0 2.681-.757 3.271-1.885l.604.347c-.729 1.32-2.19 2.191-3.872 2.191-2.736-.002-4.67-2.065-4.67-4.63z"/></g><g fill="#FFF"><path d="M831.396-323.014c0 2.854-2.223 4.334-4.725 4.334-2.058 0-3.833-.869-4.63-2.776l2.557-1.482c.296.854.854 1.372 2.073 1.372 1.223 0 1.76-.647 1.76-1.444 0-.796-.537-1.444-1.666-1.444h-4.056l.536-7.444h7.499v2.776h-4.722l-.13 1.778h1.057c2.409-.003 4.447 1.479 4.447 4.33zm5.462-8.888v12.963h-2.964v-9.833l-2.295.63-.723-2.538 3.388-1.223 2.594.001zm.687 6.482c0-4.001 1.927-6.74 5.276-6.74 3.354 0 5.277 2.739 5.277 6.74 0 4-1.926 6.739-5.277 6.739-3.349.001-5.276-2.74-5.276-6.739zm7.592 0c0-2.501-.76-3.853-2.313-3.853-1.557 0-2.314 1.352-2.314 3.853 0 2.5.76 3.853 2.314 3.853 1.553-.001 2.313-1.354 2.313-3.853zm6.371 0c0-4.001 1.926-6.74 5.276-6.74 3.354 0 5.277 2.739 5.277 6.74 0 4-1.926 6.739-5.277 6.739-3.35.001-5.276-2.74-5.276-6.739zm7.593 0c0-2.501-.76-3.853-2.314-3.853-1.556 0-2.313 1.352-2.313 3.853 0 2.5.76 3.853 2.313 3.853 1.554 0 2.314-1.354 2.314-3.853z"/><path d="M862.007-325.42c0-4.001 1.927-6.74 5.277-6.74 3.352 0 5.276 2.739 5.276 6.74 0 4-1.927 6.739-5.276 6.739-3.35.001-5.277-2.74-5.277-6.739zm7.593 0c0-2.501-.76-3.853-2.313-3.853-1.558 0-2.313 1.352-2.313 3.853 0 2.5.759 3.853 2.313 3.853 1.553-.001 2.313-1.354 2.313-3.853z"/><path d="M872.507-325.42c0-4.001 1.927-6.74 5.277-6.74 3.352 0 5.276 2.739 5.276 6.74 0 4-1.927 6.739-5.276 6.739-3.35.001-5.277-2.74-5.277-6.739zm7.593 0c0-2.501-.76-3.853-2.313-3.853-1.558 0-2.313 1.352-2.313 3.853 0 2.5.759 3.853 2.313 3.853 1.553-.001 2.313-1.354 2.313-3.853zm6.369 0c0-4.001 1.927-6.74 5.277-6.74 3.353 0 5.277 2.739 5.277 6.74 0 4-1.926 6.739-5.277 6.739s-5.277-2.74-5.277-6.739zm7.594 0c0-2.501-.761-3.853-2.315-3.853s-2.313 1.352-2.313 3.853c0 2.5.761 3.853 2.313 3.853 1.555-.001 2.315-1.354 2.315-3.853z"/><path d="M896.97-325.42c0-4.001 1.925-6.74 5.275-6.74 3.354 0 5.278 2.739 5.278 6.74 0 4-1.926 6.739-5.278 6.739-3.35.001-5.275-2.74-5.275-6.739zm7.592 0c0-2.501-.76-3.853-2.315-3.853-1.554 0-2.313 1.352-2.313 3.853 0 2.5.762 3.853 2.313 3.853 1.556-.001 2.315-1.354 2.315-3.853z"/><path d="M907.471-325.42c0-4.001 1.924-6.74 5.275-6.74 3.353 0 5.278 2.739 5.278 6.74 0 4-1.927 6.739-5.278 6.739s-5.275-2.74-5.275-6.739zm7.592 0c0-2.501-.761-3.853-2.315-3.853-1.557 0-2.313 1.352-2.313 3.853 0 2.5.759 3.853 2.313 3.853 1.555-.001 2.315-1.354 2.315-3.853zm10.507 1.993a4.605 4.605 0 0 1 4.578-4.63h.051a4.604 4.604 0 0 1 4.631 4.577v.053a4.603 4.603 0 0 1-4.577 4.629h-.054a4.602 4.602 0 0 1-4.629-4.575v-.054zm8.58 0c0-2.205-1.731-3.976-3.951-3.976-2.217 0-3.948 1.771-3.948 3.976s1.731 3.976 3.948 3.976c2.22-.001 3.951-1.771 3.951-3.976zm2.266-3.847v3.59h4.143v.642h-4.143v4.104h-.681v-8.978h4.979v.643h-4.298zm4.645 3.847c0-2.563 1.937-4.63 4.666-4.63 1.654 0 3.104.848 3.848 2.154l-.604.347c-.591-1.104-1.834-1.846-3.244-1.846-2.36 0-3.987 1.771-3.987 3.976s1.627 3.976 3.987 3.976c1.424 0 2.681-.757 3.271-1.885l.604.347c-.729 1.32-2.193 2.191-3.872 2.191-2.735-.002-4.67-2.065-4.669-4.63z"/></g><g fill="#FFF"><path d="M325.625-331.902v12.963h-2.963v-9.833l-2.296.63-.722-2.536 3.389-1.224h2.592zm.538 10.815l4.352-4.52c.759-.778 1.314-1.537 1.314-2.296 0-.814-.518-1.37-1.389-1.37-.907 0-1.555.593-1.907 1.407l-2.5-1.462c.834-1.928 2.574-2.833 4.371-2.833 2.315 0 4.39 1.518 4.39 4.13 0 1.555-.833 2.887-2.02 4.072l-2.148 2.168h4.353v2.852h-8.814l-.002-2.148zm21.482-1.927c0 2.854-2.222 4.334-4.722 4.334-2.058 0-3.834-.869-4.631-2.776l2.556-1.482c.296.854.852 1.372 2.075 1.372 1.221 0 1.758-.647 1.758-1.444 0-.796-.537-1.444-1.666-1.444h-4.056l.536-7.444h7.5v2.776h-4.722l-.13 1.778h1.056c2.407-.003 4.446 1.479 4.446 4.33z"/><path d="M347.494-325.42c0-4.001 1.928-6.74 5.278-6.74s5.278 2.739 5.278 6.74c0 4-1.928 6.739-5.278 6.739s-5.278-2.74-5.278-6.739zm7.594 0c0-2.501-.761-3.853-2.315-3.853-1.556 0-2.315 1.352-2.315 3.853 0 2.5.76 3.853 2.315 3.853 1.555-.001 2.315-1.354 2.315-3.853z"/><path d="M357.995-325.42c0-4.001 1.927-6.74 5.278-6.74 3.353 0 5.278 2.739 5.278 6.74 0 4-1.926 6.739-5.278 6.739s-5.278-2.74-5.278-6.739zm7.593 0c0-2.501-.76-3.853-2.314-3.853-1.556 0-2.314 1.352-2.314 3.853 0 2.5.759 3.853 2.314 3.853 1.554-.001 2.314-1.354 2.314-3.853zm6.369 0c0-4.001 1.927-6.74 5.278-6.74 3.353 0 5.277 2.739 5.277 6.74 0 4-1.925 6.739-5.277 6.739-3.351.001-5.278-2.74-5.278-6.739zm7.594 0c0-2.501-.76-3.853-2.315-3.853s-2.314 1.352-2.314 3.853c0 2.5.759 3.853 2.314 3.853 1.555-.001 2.315-1.354 2.315-3.853z"/><path d="M382.457-325.42c0-4.001 1.927-6.74 5.278-6.74 3.353 0 5.278 2.739 5.278 6.74 0 4-1.926 6.739-5.278 6.739-3.351.001-5.278-2.74-5.278-6.739zm7.594 0c0-2.501-.76-3.853-2.315-3.853s-2.313 1.352-2.313 3.853c0 2.5.759 3.853 2.313 3.853 1.555 0 2.315-1.354 2.315-3.853z"/><path d="M392.957-325.42c0-4.001 1.927-6.74 5.278-6.74 3.353 0 5.277 2.739 5.277 6.74 0 4-1.926 6.739-5.277 6.739s-5.278-2.74-5.278-6.739zm7.593 0c0-2.501-.761-3.853-2.314-3.853-1.557 0-2.313 1.352-2.313 3.853 0 2.5.759 3.853 2.313 3.853 1.555-.001 2.314-1.354 2.314-3.853zm10.51 1.993a4.605 4.605 0 0 1 4.579-4.63h.051a4.603 4.603 0 0 1 4.629 4.575v.055a4.603 4.603 0 0 1-4.575 4.629h-.054a4.603 4.603 0 0 1-4.63-4.575v-.054zm8.579 0c0-2.205-1.73-3.976-3.949-3.976s-3.949 1.771-3.949 3.976 1.73 3.976 3.949 3.976c2.217-.001 3.949-1.771 3.949-3.976zm2.266-3.847v3.59h4.144v.642h-4.144v4.104h-.68v-8.978h4.977v.643h-4.297v-.001zm4.642 3.847c0-2.563 1.938-4.63 4.668-4.63 1.653 0 3.104.848 3.848 2.154l-.604.347c-.591-1.104-1.834-1.846-3.244-1.846-2.359 0-3.988 1.771-3.988 3.976s1.629 3.976 3.988 3.976c1.423 0 2.68-.757 3.271-1.885l.604.347c-.73 1.32-2.192 2.191-3.873 2.191-2.734-.002-4.67-2.065-4.67-4.63z"/></g><linearGradient id="g" gradientUnits="userSpaceOnUse" x1="119.305" y1="-779.229" x2="119.305" y2="-770.34" gradientTransform="translate(259 542.36)"><stop offset="0" stop-color="#706dcb"/><stop offset="1" stop-color="#706dcb" stop-opacity=".7"/></linearGradient><path opacity=".4" fill="url(#g)" d="M378.306-236.869l-8.179 8.89h16.357l-8.178-8.89z"/><linearGradient id="h" gradientUnits="userSpaceOnUse" x1="288.028" y1="-779.229" x2="288.028" y2="-770.34" gradientTransform="translate(259 542.36)"><stop offset="0" stop-color="#706dcb"/><stop offset="1" stop-color="#706dcb" stop-opacity=".7"/></linearGradient><path opacity=".6" fill="url(#h)" d="M547.028-236.869l-8.178 8.89h16.356l-8.178-8.89z"/><linearGradient id="i" gradientUnits="userSpaceOnUse" x1="457.688" y1="-779.229" x2="457.688" y2="-770.34" gradientTransform="translate(259 542.36)"><stop offset="0" stop-color="#706dcb"/><stop offset="1" stop-color="#706dcb" stop-opacity=".7"/></linearGradient><path opacity=".8" fill="url(#i)" d="M716.688-236.869l-8.178 8.89h16.356l-8.178-8.89z"/><linearGradient id="j" gradientUnits="userSpaceOnUse" x1="626.736" y1="-779.229" x2="626.736" y2="-770.34" gradientTransform="translate(259 542.36)"><stop offset="0" stop-color="#706dcb"/><stop offset="1" stop-color="#706dcb" stop-opacity=".7"/></linearGradient><path fill="url(#j)" d="M885.735-236.869l-8.177 8.89h16.355l-8.178-8.89z"/><path fill="#FFF" d="M352.108-212.152c0-2.848 2.15-5.141 5.184-5.141 1.836 0 3.444.939 4.27 2.394l-.669.384c-.654-1.224-2.036-2.051-3.601-2.051-2.621 0-4.429 1.966-4.429 4.414 0 2.449 1.809 4.415 4.429 4.415 1.579 0 2.976-.84 3.63-2.094l.669.384c-.813 1.468-2.436 2.437-4.299 2.437-3.033-.001-5.184-2.295-5.184-5.142zm15.168.897h-3.146v4.085h-.754v-9.966h3.929a2.952 2.952 0 0 1 2.947 2.945c0 1.354-.926 2.491-2.192 2.834l2.477 4.187h-.868l-2.393-4.085zm-3.145-.712h3.175c1.21 0 2.191-.996 2.191-2.223 0-1.237-.981-2.233-2.191-2.233h-3.175v4.456zm10.367.696v4.103h-.754v-4.103l-3.63-5.863h.854l3.161 5.141 3.146-5.141h.855l-3.632 5.863zm11.51-2.775c0 1.752-1.311 3.074-3.104 3.074h-2.634v3.803h-.754v-9.966h3.388c1.793 0 3.104 1.324 3.104 3.089zm-.755 0c0-1.38-.982-2.376-2.35-2.376h-2.634v4.74h2.634c1.368 0 2.35-.998 2.35-2.364zm8.745-2.377h-3.132v9.253h-.769v-9.253h-3.132v-.712h7.032l.001.712zm.218 4.271a5.112 5.112 0 0 1 5.083-5.141h.058a5.11 5.11 0 0 1 5.139 5.141 5.11 5.11 0 0 1-5.139 5.142 5.115 5.115 0 0 1-5.141-5.086v-.056zm9.524 0c0-2.448-1.922-4.414-4.385-4.414-2.464 0-4.386 1.966-4.386 4.414 0 2.449 1.922 4.415 4.386 4.415 2.463 0 4.385-1.966 4.385-4.415zm-56.333 9.261v9.967h-.755v-9.967h.755zm9.782 0v9.967h-.669l-5.88-8.57v8.57h-.754v-9.967h.654l5.895 8.571v-8.571h.754zm10.925 4.984c0 2.748-1.95 4.982-4.697 4.982h-3.744v-9.967h3.744c2.747.001 4.697 2.238 4.697 4.985zm-.741 0c0-2.363-1.608-4.271-3.957-4.271h-2.99v8.542h2.99c2.349 0 3.957-1.907 3.957-4.271zm2.513 1.651v-6.635h.755v6.635c0 1.624 1.011 2.764 2.89 2.764 1.895 0 2.904-1.14 2.904-2.764v-6.635h.755v6.635c0 2.106-1.467 3.488-3.659 3.488-2.192.001-3.645-1.38-3.645-3.488zm9.045 1.14l.656-.385c.342 1.194 1.352 2.008 2.989 2.008 1.666 0 2.506-.854 2.506-1.994 0-1.196-1.054-1.651-2.576-2.135-1.666-.541-3.161-1.012-3.161-2.749 0-1.639 1.324-2.678 3.018-2.678 1.638 0 2.721.939 3.204 2.095l-.641.354c-.37-.896-1.14-1.724-2.563-1.724-1.38 0-2.249.813-2.249 1.922 0 1.196 1.01 1.565 2.435 2.035 1.766.584 3.304 1.14 3.304 2.862 0 1.65-1.296 2.733-3.275 2.733-1.867.005-3.191-.935-3.647-2.344zm14.896-7.061h-3.132v9.254h-.769v-9.254h-3.132v-.713h7.031l.002.713zm5.473 5.167h-3.146v4.086h-.755v-9.967h3.929a2.954 2.954 0 0 1 2.947 2.947c0 1.354-.927 2.492-2.192 2.833l2.478 4.187h-.868l-2.393-4.086zm-3.147-.713h3.174c1.21 0 2.191-.995 2.191-2.221 0-1.238-.981-2.233-2.191-2.233h-3.174v4.454zm11.267.699v4.102h-.756v-4.102l-3.63-5.865h.854l3.161 5.141 3.146-5.141h.854l-3.629 5.865zm94.572-20.111h.799l2.576 8.954 2.775-8.954h.896l2.791 8.954 2.563-8.954h.799l-2.892 9.966h-.911l-2.791-8.983-2.805 8.983h-.911l-2.889-9.966zm14.346 4.983a5.111 5.111 0 0 1 5.081-5.141h.058a5.112 5.112 0 0 1 5.141 5.141 5.112 5.112 0 0 1-5.141 5.142 5.112 5.112 0 0 1-5.139-5.085v-.057zm9.524 0c0-2.448-1.923-4.414-4.387-4.414-2.463 0-4.384 1.966-4.384 4.414 0 2.449 1.921 4.415 4.384 4.415 2.464 0 4.387-1.966 4.387-4.415zm6.57.897h-3.146v4.085h-.755v-9.966h3.93a2.952 2.952 0 0 1 2.946 2.945c0 1.354-.927 2.491-2.192 2.834l2.479 4.187h-.869l-2.393-4.085zm-3.146-.712h3.175c1.209 0 2.191-.996 2.191-2.223 0-1.237-.982-2.233-2.191-2.233h-3.175v4.456zm13.43 4.085v.712h-5.452v-9.966h.755v9.253l4.697.001zm10.013-4.27c0 2.748-1.949 4.982-4.697 4.982h-3.745v-9.966h3.745c2.746.001 4.697 2.238 4.697 4.984zm-.742 0c0-2.363-1.608-4.271-3.958-4.271h-2.99v8.541h2.99c2.35 0 3.958-1.906 3.958-4.27zm5.69-4.983h.797l2.577 8.954 2.775-8.954h.896l2.791 8.954 2.563-8.954h.799l-2.892 9.966h-.911l-2.791-8.983-2.805 8.983h-.912l-2.887-9.966zm15.668 0v9.966h-.754v-9.966h.754zm10.922 4.983c0 2.748-1.949 4.982-4.697 4.982h-3.744v-9.966h3.744c2.744.001 4.697 2.238 4.697 4.984zm-.742 0c0-2.363-1.607-4.271-3.958-4.271h-2.99v8.541h2.99c2.349 0 3.958-1.906 3.958-4.27zm8.393 4.27v.712h-5.738v-9.966h5.666v.712h-4.911v3.871h4.557v.712h-4.557v3.958l4.983.001zm-59.726 4.991h.798l2.577 8.955 2.775-8.955h.896l2.791 8.955 2.563-8.955h.798l-2.891 9.967h-.91l-2.791-8.983-2.805 8.983h-.912l-2.889-9.967zm20.653 9.255v.712h-5.737v-9.967h5.667v.713h-4.912v3.871h4.557v.713h-4.557v3.958h4.982zm8.874-2.008a2.713 2.713 0 0 1-2.704 2.721h-4.316v-9.967h3.973a2.622 2.622 0 0 1 2.619 2.62c0 .969-.513 1.767-1.28 2.18.995.382 1.708 1.307 1.708 2.446zm-6.266-6.533v3.813h3.218c1.024 0 1.864-.854 1.864-1.907s-.84-1.906-1.864-1.906h-3.218zm5.511 6.533c0-1.109-.884-2.007-1.966-2.007h-3.544v4.016h3.544c1.082-.001 1.966-.897 1.966-2.009zm131.409-12.238v.712h-5.738v-9.966h5.666v.712h-4.911v3.871h4.557v.712h-4.557v3.958l4.983.001zm1.257-1.479l.653-.384c.342 1.194 1.354 2.007 2.99 2.007 1.666 0 2.506-.854 2.506-1.994 0-1.195-1.056-1.65-2.577-2.135-1.665-.541-3.161-1.012-3.161-2.749 0-1.639 1.324-2.678 3.02-2.678 1.639 0 2.721.939 3.203 2.094l-.641.355c-.37-.896-1.141-1.725-2.563-1.725-1.38 0-2.249.813-2.249 1.923 0 1.197 1.011 1.566 2.435 2.035 1.767.584 3.305 1.139 3.305 2.863 0 1.649-1.296 2.731-3.273 2.731-1.87.007-3.193-.934-3.648-2.343zm8.205-2.791c0-2.848 2.147-5.141 5.182-5.141 1.837 0 3.446.939 4.271 2.394l-.669.384c-.654-1.224-2.036-2.051-3.604-2.051-2.619 0-4.428 1.966-4.428 4.414 0 2.449 1.809 4.415 4.428 4.415 1.58 0 2.977-.84 3.631-2.094l.67.384c-.813 1.468-2.437 2.437-4.301 2.437-3.033-.001-5.18-2.295-5.18-5.142zm15.168.897h-3.146v4.085h-.755v-9.966h3.93a2.948 2.948 0 0 1 2.945 2.945c0 1.354-.924 2.491-2.19 2.834l2.479 4.187h-.868l-2.395-4.085zm-3.149-.712h3.175c1.211 0 2.191-.996 2.191-2.223 0-1.237-.98-2.233-2.191-2.233h-3.175v4.456zm7.41-.185a5.112 5.112 0 0 1 5.083-5.141h.058a5.111 5.111 0 0 1 5.14 5.141c0 2.849-2.264 5.142-5.14 5.142s-5.141-2.295-5.141-5.142zm9.524 0c0-2.448-1.923-4.414-4.386-4.414s-4.386 1.966-4.386 4.414c0 2.449 1.923 4.415 4.386 4.415s4.386-1.966 4.386-4.415zm1.9-4.983h.798l2.576 8.954 2.776-8.954h.896l2.789 8.954 2.563-8.954h.798l-2.892 9.966h-.911l-2.789-8.983-2.806 8.983h-.911l-2.887-9.966zm-58.168 19.228c0-2.849 2.15-5.141 5.183-5.141 1.836 0 3.446.939 4.271 2.394l-.669.384c-.654-1.225-2.034-2.05-3.603-2.05-2.619 0-4.427 1.965-4.427 4.414 0 2.447 1.808 4.414 4.427 4.414 1.581 0 2.977-.841 3.631-2.095l.67.385c-.813 1.468-2.435 2.437-4.301 2.437-3.033-.002-5.182-2.295-5.182-5.142zm10.697 0a5.112 5.112 0 0 1 5.083-5.141h.059a5.11 5.11 0 0 1 5.139 5.08v.061c0 2.848-2.263 5.141-5.139 5.141s-5.142-2.294-5.142-5.141zm9.524 0c0-2.449-1.923-4.414-4.385-4.414-2.464 0-4.386 1.965-4.386 4.414 0 2.447 1.922 4.414 4.386 4.414 2.462 0 4.385-1.966 4.385-4.414zm9.974-4.984v9.967h-.67l-5.881-8.57v8.57h-.754v-9.967h.654l5.895 8.571v-8.571h.756zm8.603.714h-3.133v9.254h-.769v-9.254h-3.134v-.713h7.033l.003.713zm5.471 5.167h-3.145v4.086h-.755v-9.967h3.929a2.954 2.954 0 0 1 2.947 2.947c0 1.354-.926 2.492-2.192 2.833l2.479 4.187h-.869l-2.394-4.086zm-3.143-.713h3.174c1.211 0 2.191-.995 2.191-2.221 0-1.238-.98-2.233-2.191-2.233h-3.174v4.454zm13.712 2.264h-4.997l-.969 2.535h-.798l3.873-9.967h.797l3.857 9.967h-.798l-.965-2.535zm-.269-.711l-2.222-5.795-2.222 5.795h4.444zm2.923-1.737c0-2.849 2.149-5.141 5.185-5.141 1.836 0 3.443.939 4.271 2.394l-.669.384c-.652-1.225-2.036-2.05-3.602-2.05-2.621 0-4.429 1.965-4.429 4.414 0 2.447 1.808 4.414 4.429 4.414 1.579 0 2.976-.841 3.629-2.095l.67.385c-.813 1.468-2.435 2.437-4.299 2.437-3.036-.002-5.185-2.295-5.185-5.142zm17.388-4.27h-3.133v9.254h-.771v-9.254h-3.132v-.713h7.033l.003.713zm.973 7.061l.654-.385c.341 1.194 1.353 2.008 2.99 2.008 1.666 0 2.506-.854 2.506-1.994 0-1.196-1.055-1.651-2.577-2.135-1.666-.541-3.161-1.012-3.161-2.749 0-1.639 1.324-2.678 3.02-2.678 1.638 0 2.721.939 3.203 2.095l-.643.354c-.37-.896-1.139-1.724-2.563-1.724-1.381 0-2.25.813-2.25 1.922 0 1.196 1.012 1.565 2.437 2.035 1.765.584 3.303 1.14 3.303 2.862 0 1.65-1.297 2.733-3.273 2.733-1.867.005-3.191-.935-3.646-2.344zm109.385-14.587h-4.997l-.968 2.534h-.8l3.874-9.966h.797l3.859 9.966h-.798l-.967-2.534zm-.272-.711l-2.22-5.796-2.223 5.796h4.443zm7.395-.841h-3.146v4.085h-.754v-9.966h3.929a2.952 2.952 0 0 1 2.946 2.945c0 1.354-.925 2.491-2.191 2.834l2.479 4.187h-.87l-2.393-4.085zm-3.147-.712h3.175c1.211 0 2.192-.996 2.192-2.223 0-1.237-.981-2.233-2.192-2.233h-3.175v4.456zm14.098-4.456h-3.131v9.253h-.769v-9.253H870.8v-.712h7.032v.712zm2.326-.712v9.966h-.754v-9.966h.754zm3.236.712v3.984h4.599v.712h-4.599v4.557h-.755v-9.966h5.522v.712l-4.767.001zm7.377-.712v9.966h-.754v-9.966h.754zm1.912 4.983c0-2.848 2.147-5.141 5.181-5.141 1.837 0 3.446.939 4.271 2.394l-.669.384c-.653-1.224-2.034-2.051-3.604-2.051-2.619 0-4.427 1.966-4.427 4.414 0 2.449 1.808 4.415 4.427 4.415 1.581 0 2.979-.84 3.632-2.094l.669.384c-.811 1.468-2.436 2.437-4.301 2.437-3.032-.001-5.179-2.295-5.179-5.142zm17.004 2.449h-4.998l-.97 2.534h-.796l3.873-9.966h.796l3.858 9.966h-.797l-.966-2.534zm-.274-.711l-2.22-5.796-2.221 5.796h4.441zm8.947 2.532v.712h-5.452v-9.966h.753v9.253l4.699.001zm-76.947 4.991v9.967h-.755v-9.967h.755zm9.782 0v9.967h-.67l-5.879-8.57v8.57h-.754v-9.967h.652l5.896 8.571v-8.571h.755zm8.604.714h-3.131v9.254h-.77v-9.254h-3.132v-.713h7.03l.003.713zm7.307 8.541v.712h-5.736v-9.967h5.667v.713h-4.913v3.871h4.558v.713h-4.558v3.958h4.982zm7.31 0v.712h-5.451v-9.967h.753v9.255h4.698zm7.022 0v.712h-5.454v-9.967h.755v9.255h4.699zm2.324-9.255v9.967h-.753v-9.967h.753zm11.961 5.709c0 2.407-1.836 4.415-4.812 4.415-3.091 0-5.239-2.292-5.239-5.141s2.148-5.141 5.184-5.141c1.853 0 3.461.969 4.284 2.406l-.669.399c-.654-1.254-2.051-2.08-3.615-2.08-2.62 0-4.428 1.965-4.428 4.414 0 2.447 1.808 4.414 4.483 4.414 2.42 0 3.889-1.496 4.043-3.361h-4.229v-.711h4.997l.001.386zm7.636 3.546v.712h-5.736v-9.967h5.666v.713h-4.912v3.871h4.559v.713h-4.559v3.958h4.982zm9.162-9.255v9.967h-.669l-5.881-8.57v8.57h-.755v-9.967h.652l5.896 8.571v-8.571h.757zm1.914 4.984c0-2.849 2.147-5.141 5.182-5.141 1.837 0 3.446.939 4.271 2.394l-.668.384c-.654-1.225-2.038-2.05-3.604-2.05-2.62 0-4.428 1.965-4.428 4.414 0 2.447 1.808 4.414 4.428 4.414 1.58 0 2.978-.841 3.63-2.095l.671.385c-.813 1.468-2.436 2.437-4.301 2.437-3.034-.002-5.182-2.295-5.181-5.142zm17.003 4.271v.712H925.7v-9.967h5.665v.713h-4.909v3.871h4.555v.713h-4.555v3.958h4.982zm46.289-81.28a.71.71 0 0 1-.444-1.271l12.047-9.546-12.045-9.414a.713.713 0 0 1 .879-1.123l12.758 9.973a.712.712 0 0 1 .001 1.121l-12.756 10.107a.707.707 0 0 1-.44.153zm-617.052-10.107h-85.46a.711.711 0 1 1 0-1.424h85.46a.71.71 0 0 1 .712.708v.004c0 .392-.32.712-.712.712z"/><path fill="#FFF" d="M378.306-267.396c-10.113 0-18.34-8.229-18.34-18.34 0-10.112 8.227-18.34 18.34-18.34s18.34 8.228 18.34 18.34-8.228 18.34-18.34 18.34zm0-35.255c-9.327 0-16.916 7.588-16.916 16.916s7.589 16.916 16.916 16.916c9.328 0 16.917-7.588 16.917-16.916s-7.59-16.916-16.917-16.916z"/><linearGradient id="k" gradientUnits="userSpaceOnUse" x1="-3364.029" y1="-386.831" x2="-3345.689" y2="-386.831" gradientTransform="rotate(-90 -1437.729 -2202.865)"><stop offset="0" stop-color="#706dcb" stop-opacity="0"/><stop offset="1" stop-color="#706dcb" stop-opacity=".7"/></linearGradient><circle fill="url(#k)" cx="378.306" cy="-285.735" r="9.17"/><path fill="#FFF" d="M547.498-267.396c-10.113 0-18.342-8.229-18.342-18.34 0-10.112 8.229-18.34 18.342-18.34 10.111 0 18.34 8.228 18.34 18.34s-8.229 18.34-18.34 18.34zm0-35.255c-9.328 0-16.918 7.588-16.918 16.916s7.589 16.916 16.918 16.916c9.326 0 16.915-7.588 16.915-16.916s-7.59-16.916-16.915-16.916z"/><linearGradient id="l" gradientUnits="userSpaceOnUse" x1="-3364.029" y1="-217.638" x2="-3345.689" y2="-217.638" gradientTransform="rotate(-90 -1437.729 -2202.865)"><stop offset="0" stop-color="#706dcb" stop-opacity="0"/><stop offset="1" stop-color="#706dcb" stop-opacity=".7"/></linearGradient><circle fill="url(#l)" cx="547.498" cy="-285.735" r="9.17"/><path fill="#FFF" d="M716.688-267.396c-10.112 0-18.34-8.229-18.34-18.34 0-10.112 8.228-18.34 18.34-18.34s18.342 8.228 18.342 18.34c-.002 10.112-8.229 18.34-18.342 18.34zm0-35.255c-9.326 0-16.916 7.588-16.916 16.916s7.59 16.916 16.916 16.916c9.328 0 16.916-7.588 16.916-16.916s-7.587-16.916-16.916-16.916z"/><linearGradient id="m" gradientUnits="userSpaceOnUse" x1="-3364.029" y1="-48.449" x2="-3345.689" y2="-48.449" gradientTransform="rotate(-90 -1437.729 -2202.865)"><stop offset="0" stop-color="#706dcb" stop-opacity="0"/><stop offset="1" stop-color="#706dcb" stop-opacity=".7"/></linearGradient><circle fill="url(#m)" cx="716.688" cy="-285.735" r="9.17"/><path fill="#FFF" d="M885.88-267.396c-10.114 0-18.342-8.229-18.342-18.34 0-10.112 8.228-18.34 18.342-18.34 10.112 0 18.34 8.228 18.34 18.34s-8.228 18.34-18.34 18.34zm0-35.255c-9.327 0-16.915 7.588-16.915 16.916s7.588 16.916 16.915 16.916c9.326 0 16.915-7.588 16.915-16.916s-7.588-16.916-16.915-16.916z"/><linearGradient id="n" gradientUnits="userSpaceOnUse" x1="-3364.029" y1="120.743" x2="-3345.689" y2="120.743" gradientTransform="rotate(-90 -1437.729 -2202.865)"><stop offset="0" stop-color="#706dcb" stop-opacity="0"/><stop offset="1" stop-color="#706dcb" stop-opacity=".7"/></linearGradient><circle fill="url(#n)" cx="885.88" cy="-285.735" r="9.17"/><path fill="#FFF" d="M988.967-285.023h-85.46a.711.711 0 1 1 0-1.424h85.46a.708.708 0 0 1 .713.707v.005c0 .392-.32.712-.713.712zm-459.099 0H397.357a.712.712 0 1 1 0-1.424h132.511a.711.711 0 1 1 0 1.424zm167.768 0H565.125a.711.711 0 1 1 0-1.424h132.51a.712.712 0 1 1 .001 1.424zm169.191 0H734.315a.711.711 0 1 1 0-1.424h132.512c.395 0 .711.317.711.712a.709.709 0 0 1-.708.712h-.003z"/><path fill="#D9D9D9" d="M377.949-268.701h.712v25.333h-.712v-25.333zm168.724 0h.712v25.333h-.712v-25.333zm169.659 0h.712v25.333h-.712v-25.333zm169.189 0h.713v25.333h-.713v-25.333z"/><path fill="#FFF" d="M440.287-322.546h-2.866v3.723h-.688v-9.079h3.581a2.69 2.69 0 0 1 2.685 2.685c0 1.232-.843 2.27-1.998 2.581l2.257 3.813h-.791l-2.18-3.723zm-2.866-.648h2.893c1.102 0 1.997-.908 1.997-2.023 0-1.128-.896-2.037-1.997-2.037h-2.893v4.06zm173.783.648h-2.866v3.723h-.688v-9.079h3.581a2.69 2.69 0 0 1 2.685 2.685c0 1.232-.843 2.27-1.998 2.581l2.257 3.813h-.791l-2.18-3.723zm-2.866-.648h2.893c1.102 0 1.997-.908 1.997-2.023 0-1.128-.896-2.037-1.997-2.037h-2.893v4.06zm178.824.648h-2.866v3.723h-.688v-9.079h3.581a2.69 2.69 0 0 1 2.685 2.685c0 1.232-.843 2.27-1.998 2.581l2.257 3.813h-.791l-2.18-3.723zm-2.866-.648h2.893c1.102 0 1.997-.908 1.997-2.023 0-1.128-.896-2.037-1.997-2.037h-2.893v4.06zm170.55.648h-2.866v3.723h-.688v-9.079h3.581a2.69 2.69 0 0 1 2.685 2.685c0 1.232-.843 2.27-1.998 2.581l2.257 3.813h-.791l-2.18-3.723zm-2.867-.648h2.893c1.102 0 1.997-.908 1.997-2.023 0-1.128-.896-2.037-1.997-2.037h-2.893v4.06z"/></svg>