<svg xmlns="http://www.w3.org/2000/svg" width="803.41" height="181.477" viewBox="216.896 -360.311 803.41 181.477"><path d="M350.923-345.055h-3.418v-8.695l-3.868 6.346h-.385l-3.867-6.346v8.696h-3.418v-14.958h3.418l4.06 6.646 4.061-6.646h3.418v14.957zm5.983-14.957v14.958h-3.419v-14.958h3.419zm14.317 0v14.958h-2.564l-5.769-8.12v8.12h-3.419v-14.958h2.563l5.77 8.12v-8.12h3.419zm7.264 7.479c0-4.401 3.27-7.777 7.777-7.777 2.713 0 5.105 1.347 6.41 3.462l-2.949 1.708c-.663-1.153-1.945-1.837-3.461-1.837-2.649 0-4.358 1.773-4.358 4.444s1.709 4.444 4.358 4.444c1.517 0 2.82-.685 3.461-1.838l2.949 1.709c-1.282 2.114-3.675 3.461-6.41 3.461-4.507.002-7.777-3.375-7.777-7.776zm24.765 5.129h-5.557l-.747 2.351h-3.738l5.085-14.958h4.358l5.085 14.958h-3.74l-.746-2.351zm-1.025-3.204l-1.752-5.492-1.752 5.492h3.504zm17.691-4.274c0 2.84-2.286 5.127-5.234 5.127h-2.244v4.701h-3.418v-14.958h5.663c2.947 0 5.233 2.287 5.233 5.13zm-3.418 0c0-1.091-.77-1.924-1.816-1.924h-2.244v3.846h2.244c1.046 0 1.816-.834 1.816-1.922zm81.617 6.432l2.949-1.71c.534 1.238 1.453 2.072 3.141 2.072 1.624 0 2.03-.642 2.03-1.219 0-.918-.854-1.281-3.098-1.902-2.222-.618-4.401-1.688-4.401-4.55 0-2.886 2.437-4.552 5.021-4.552 2.457 0 4.38 1.175 5.47 3.376l-2.885 1.689c-.513-1.068-1.218-1.731-2.585-1.731-1.069 0-1.604.534-1.604 1.134 0 .684.363 1.153 2.692 1.858 2.265.684 4.808 1.475 4.808 4.637 0 2.884-2.308 4.594-5.555 4.594-3.14-.001-5.149-1.497-5.983-3.696zm12.608-4.083c0-4.401 3.481-7.777 7.777-7.777 4.295 0 7.777 3.376 7.777 7.777s-3.481 7.777-7.777 7.777c-4.295.001-7.777-3.376-7.777-7.777zm12.135 0c0-2.67-1.923-4.444-4.358-4.444-2.437 0-4.358 1.773-4.358 4.444s1.922 4.444 4.358 4.444c2.436.001 4.358-1.772 4.358-4.444zm8.761-4.187v2.884h5.556v3.291h-5.556v5.491h-3.419v-14.958h9.081v3.292h-5.662zm17.734 0h-3.846v11.666h-3.419v-11.666h-3.847v-3.292h11.111v3.292h.001zm6.199 4.187c0-4.401 3.269-7.777 7.776-7.777 2.714 0 5.107 1.347 6.41 3.462l-2.949 1.708c-.661-1.153-1.943-1.837-3.461-1.837-2.648 0-4.357 1.773-4.357 4.444s1.709 4.444 4.357 4.444c1.518 0 2.82-.685 3.461-1.838l2.949 1.709c-1.281 2.114-3.675 3.461-6.41 3.461-4.508.002-7.776-3.375-7.776-7.776zm24.762 5.129h-5.555l-.748 2.351h-3.739l5.085-14.958h4.359l5.085 14.958h-3.739l-.748-2.351zm-1.025-3.204l-1.753-5.492-1.751 5.492h3.504zm17.692-4.274c0 2.84-2.286 5.127-5.235 5.127h-2.243v4.701h-3.418v-14.958h5.661c2.949 0 5.235 2.287 5.235 5.13zm-3.419 0c0-1.091-.77-1.924-1.816-1.924h-2.243v3.846h2.243c1.048 0 1.816-.834 1.816-1.922zm252.599-5.13v14.958h-3.419v-5.939h-4.7v5.939h-3.419v-14.958h3.419v5.729h4.7v-5.729h3.419zm11.326 12.608h-5.557l-.748 2.351h-3.739l5.086-14.958h4.359l5.085 14.958h-3.739l-.747-2.351zm-1.025-3.204l-1.755-5.492-1.75 5.492h3.505zm11.838.639h-1.625v4.915h-3.419v-14.958h5.981a5.118 5.118 0 0 1 5.13 5.13c0 1.837-1.112 3.503-2.757 4.337l3.183 5.491h-3.675l-2.818-4.915zm-1.625-2.991h2.563c.94 0 1.71-.833 1.71-1.922 0-1.091-.77-1.924-1.71-1.924h-2.563v3.846zm22.969.427c0 4.229-3.142 7.479-7.264 7.479h-5.983v-14.957h5.983c4.123-.001 7.264 3.248 7.264 7.478zm-3.292 0c0-2.563-1.623-4.188-3.973-4.188h-2.566v8.376h2.566c2.35.001 3.973-1.624 3.973-4.188zm9.917 0c0-4.401 3.269-7.777 7.776-7.777 2.714 0 5.107 1.347 6.408 3.462l-2.946 1.708c-.663-1.153-1.944-1.837-3.462-1.837-2.649 0-4.357 1.773-4.357 4.444s1.708 4.444 4.357 4.444c1.518 0 2.819-.685 3.462-1.838l2.946 1.709c-1.279 2.114-3.675 3.461-6.408 3.461-4.508.002-7.776-3.375-7.776-7.776zm24.763 5.129h-5.555l-.749 2.351h-3.739l5.086-14.958h4.359l5.085 14.958h-3.739l-.748-2.351zm-1.025-3.204l-1.753-5.492-1.751 5.492h3.504zm17.69-4.274c0 2.84-2.283 5.127-5.231 5.127h-2.245v4.701h-3.417v-14.958h5.662c2.948 0 5.231 2.287 5.231 5.13zm-3.417 0c0-1.091-.769-1.924-1.814-1.924h-2.245v3.846h2.245c1.047 0 1.814-.834 1.814-1.922zm-266.953 0c0 2.84-2.285 5.127-5.233 5.127h-2.244v4.701h-3.418v-14.958h5.663c2.946 0 5.232 2.287 5.232 5.13zm-3.419 0c0-1.091-.769-1.924-1.815-1.924h-2.244v3.846h2.244c1.047 0 1.815-.834 1.815-1.922zm4.488 2.349c0-4.401 3.483-7.777 7.777-7.777s7.776 3.376 7.776 7.777-3.482 7.777-7.776 7.777-7.777-3.376-7.777-7.777zm12.136 0c0-2.67-1.923-4.444-4.358-4.444-2.438 0-4.359 1.773-4.359 4.444s1.922 4.444 4.359 4.444c2.435.001 4.358-1.772 4.358-4.444zm4.275-7.479h3.59l2.585 10.471 2.885-10.471h2.776l2.885 10.471 2.584-10.471h3.592l-4.125 14.958h-3.889l-2.436-8.824-2.437 8.824h-3.889l-4.121-14.958zm31.793 11.668v3.29h-9.4v-14.958h9.294v3.292h-5.876v2.479h5.343v3.248h-5.343v2.649h5.982zm6.965-1.625h-1.623v4.915h-3.419v-14.958h5.982a5.117 5.117 0 0 1 5.128 5.13c0 1.837-1.111 3.503-2.757 4.337l3.184 5.491h-3.674l-2.821-4.915zm-1.623-2.991h2.563c.938 0 1.71-.833 1.71-1.922 0-1.091-.771-1.924-1.71-1.924h-2.563v3.846zm14.423.427c0-4.401 3.27-7.777 7.776-7.777 2.714 0 5.106 1.347 6.41 3.462l-2.949 1.708c-.662-1.153-1.944-1.837-3.461-1.837-2.649 0-4.358 1.773-4.358 4.444s1.709 4.444 4.358 4.444c1.517 0 2.82-.685 3.461-1.838l2.949 1.709c-1.282 2.114-3.675 3.461-6.41 3.461-4.506.002-7.776-3.375-7.776-7.776zm24.765 5.129h-5.557l-.747 2.351h-3.737l5.083-14.958h4.359l5.085 14.958h-3.738l-.748-2.351zm-1.027-3.204l-1.752-5.492-1.753 5.492h3.505zm17.694-4.274c0 2.84-2.286 5.127-5.234 5.127h-2.245v4.701h-3.42v-14.958h5.664c2.949 0 5.235 2.287 5.235 5.13zm-3.419 0c0-1.091-.771-1.924-1.815-1.924h-2.245v3.846h2.245c1.044 0 1.815-.834 1.815-1.922z" fill="#FFF"/><linearGradient id="a" gradientUnits="userSpaceOnUse" x1="-3107.07" y1="1102.377" x2="-3057.925" y2="1102.377" gradientTransform="matrix(0 -1 -1 0 1370.43 -3285.904)"><stop offset="0" stop-color="#706dcb" stop-opacity="0"/><stop offset="1" stop-color="#706dcb" stop-opacity=".7"/></linearGradient><path opacity=".2" fill="url(#a)" d="M294.794-227.979h-36.388c-9.441 0-17.094 7.654-17.094 17.093v14.958c0 9.441 7.653 17.094 17.094 17.094h36.388v-49.145z"/><linearGradient id="b" gradientUnits="userSpaceOnUse" x1="-3107.07" y1="991.829" x2="-3057.925" y2="991.829" gradientTransform="matrix(0 -1 -1 0 1370.43 -3285.904)"><stop offset="0" stop-color="#706dcb" stop-opacity="0"/><stop offset="1" stop-color="#706dcb" stop-opacity=".7"/></linearGradient><path opacity=".4" fill="url(#b)" d="M296.219-227.979h164.767v49.145H296.219z"/><linearGradient id="c" gradientUnits="userSpaceOnUse" x1="-3107.07" y1="825.401" x2="-3057.925" y2="825.401" gradientTransform="matrix(0 -1 -1 0 1370.43 -3285.904)"><stop offset="0" stop-color="#706dcb" stop-opacity="0"/><stop offset="1" stop-color="#706dcb" stop-opacity=".7"/></linearGradient><path opacity=".6" fill="url(#c)" d="M462.409-227.979H627.65v49.145H462.409z"/><linearGradient id="d" gradientUnits="userSpaceOnUse" x1="-3107.07" y1="374.562" x2="-3057.925" y2="374.562" gradientTransform="matrix(0 -1 -1 0 1370.43 -3285.904)"><stop offset="0" stop-color="#706dcb" stop-opacity="0"/><stop offset="1" stop-color="#706dcb" stop-opacity=".7"/></linearGradient><path opacity=".2" fill="url(#d)" d="M1003.214-227.979H971.43v49.145h31.784c9.439 0 17.093-7.651 17.093-17.094v-14.958c0-9.438-7.654-17.093-17.093-17.093z"/><linearGradient id="e" gradientUnits="userSpaceOnUse" x1="-3107.07" y1="484.709" x2="-3057.925" y2="484.709" gradientTransform="matrix(0 -1 -1 0 1370.43 -3285.904)"><stop offset="0" stop-color="#706dcb" stop-opacity="0"/><stop offset="1" stop-color="#706dcb" stop-opacity=".7"/></linearGradient><path fill="url(#e)" d="M801.438-227.979h168.567v49.145H801.438z"/><linearGradient id="f" gradientUnits="userSpaceOnUse" x1="-3107.07" y1="655.885" x2="-3057.925" y2="655.885" gradientTransform="matrix(0 -1 -1 0 1370.43 -3285.904)"><stop offset="0" stop-color="#706dcb" stop-opacity="0"/><stop offset="1" stop-color="#706dcb" stop-opacity=".7"/></linearGradient><path opacity=".8" fill="url(#f)" d="M629.075-227.979h170.938v49.145H629.075z"/><path d="M216.896-284.975c0-3.991 3.013-7.203 7.264-7.203 2.574 0 4.829 1.316 5.986 3.352l-.938.54c-.917-1.718-2.854-2.874-5.048-2.874-3.671 0-6.205 2.754-6.205 6.186 0 3.433 2.534 6.187 6.205 6.187 2.215 0 4.17-1.178 5.088-2.934l.938.538c-1.137 2.055-3.412 3.413-6.026 3.413-4.249-.001-7.264-3.213-7.264-7.205zm22.562 3.433h-7.003l-1.357 3.552h-1.118l5.427-13.969h1.118l5.407 13.969h-1.117l-1.357-3.552zm-.379-.997l-3.112-8.122-3.114 8.122h6.226zm12.724-5.089c0 2.453-1.835 4.31-4.35 4.31h-3.691v5.328h-1.058v-13.969h4.749c2.513 0 4.35 1.856 4.35 4.331zm-1.057 0c0-1.936-1.378-3.332-3.293-3.332h-3.691v6.645h3.691c1.915 0 3.293-1.398 3.293-3.313zm1.569 6.565l.918-.539c.479 1.677 1.896 2.813 4.189 2.813 2.335 0 3.512-1.197 3.512-2.794 0-1.676-1.477-2.314-3.611-2.991-2.335-.759-4.43-1.417-4.43-3.854 0-2.294 1.856-3.75 4.23-3.75 2.294 0 3.811 1.316 4.489 2.934l-.898.499c-.519-1.258-1.596-2.415-3.591-2.415-1.936 0-3.153 1.138-3.153 2.694 0 1.674 1.417 2.193 3.412 2.854 2.475.817 4.629 1.596 4.629 4.01 0 2.315-1.816 3.832-4.589 3.832-2.612-.001-4.467-1.318-5.107-3.293z" fill="#FFF"/><g fill="#FFF"><path d="M498.266-323.014c0 2.853-2.222 4.334-4.722 4.334-2.057 0-3.834-.87-4.631-2.777l2.557-1.482c.296.853.851 1.372 2.074 1.372 1.222 0 1.759-.648 1.759-1.445 0-.795-.537-1.444-1.667-1.444h-4.057l.538-7.444h7.5v2.776h-4.723l-.129 1.778h1.055c2.409-.001 4.446 1.481 4.446 4.332zm5.463-8.888v12.963h-2.963v-9.833l-2.296.63-.724-2.538 3.391-1.223 2.592.001zm4.147 6.482c0-4.001 1.926-6.74 5.277-6.74 3.353 0 5.278 2.739 5.278 6.74 0 4-1.926 6.74-5.278 6.74-3.351 0-5.277-2.741-5.277-6.74zm7.593 0c0-2.501-.76-3.852-2.315-3.852s-2.313 1.351-2.313 3.852c0 2.5.759 3.853 2.313 3.853 1.555-.001 2.315-1.354 2.315-3.853z"/><path d="M518.376-325.42c0-4.001 1.926-6.74 5.277-6.74 3.353 0 5.278 2.739 5.278 6.74 0 4-1.926 6.74-5.278 6.74-3.351 0-5.277-2.741-5.277-6.74zm7.593 0c0-2.501-.76-3.852-2.314-3.852-1.556 0-2.314 1.351-2.314 3.852 0 2.5.759 3.853 2.314 3.853 1.554-.001 2.314-1.354 2.314-3.853z"/><path d="M528.875-325.42c0-4.001 1.926-6.74 5.277-6.74 3.353 0 5.278 2.739 5.278 6.74 0 4-1.926 6.74-5.278 6.74-3.351 0-5.277-2.741-5.277-6.74zm7.593 0c0-2.501-.759-3.852-2.315-3.852s-2.314 1.351-2.314 3.852c0 2.5.759 3.853 2.314 3.853 1.556-.001 2.315-1.354 2.315-3.853zm6.371 0c0-4.001 1.926-6.74 5.277-6.74 3.353 0 5.278 2.739 5.278 6.74 0 4-1.926 6.74-5.278 6.74-3.351 0-5.277-2.741-5.277-6.74zm7.593 0c0-2.501-.76-3.852-2.315-3.852s-2.313 1.351-2.313 3.852c0 2.5.759 3.853 2.313 3.853 1.555-.001 2.315-1.354 2.315-3.853z"/><path d="M553.338-325.42c0-4.001 1.926-6.74 5.277-6.74 3.353 0 5.278 2.739 5.278 6.74 0 4-1.926 6.74-5.278 6.74-3.35 0-5.277-2.741-5.277-6.74zm7.593 0c0-2.501-.76-3.852-2.315-3.852s-2.313 1.351-2.313 3.852c0 2.5.758 3.853 2.313 3.853 1.555-.001 2.315-1.354 2.315-3.853z"/><path d="M563.838-325.42c0-4.001 1.926-6.74 5.277-6.74 3.353 0 5.278 2.739 5.278 6.74 0 4-1.926 6.74-5.278 6.74-3.351 0-5.277-2.741-5.277-6.74zm7.593 0c0-2.501-.76-3.852-2.314-3.852-1.556 0-2.314 1.351-2.314 3.852 0 2.5.759 3.853 2.314 3.853 1.554-.001 2.314-1.354 2.314-3.853zm10.508 1.992a4.604 4.604 0 0 1 4.629-4.629 4.603 4.603 0 0 1 4.63 4.629 4.603 4.603 0 0 1-4.63 4.629 4.602 4.602 0 0 1-4.629-4.629zm8.581 0c0-2.205-1.73-3.975-3.951-3.975-2.218 0-3.949 1.77-3.949 3.975 0 2.206 1.731 3.976 3.949 3.976 2.22 0 3.951-1.77 3.951-3.976zm2.265-3.846v3.59h4.145v.641h-4.145v4.104h-.679v-8.978h4.976v.643h-4.297zm4.642 3.846c0-2.563 1.937-4.629 4.668-4.629 1.653 0 3.104.847 3.847 2.154l-.603.347c-.591-1.104-1.834-1.846-3.245-1.846-2.36 0-3.988 1.77-3.988 3.975 0 2.206 1.628 3.976 3.988 3.976 1.423 0 2.68-.757 3.27-1.885l.604.347c-.731 1.32-2.193 2.191-3.873 2.191-2.732-.001-4.668-2.064-4.668-4.63z"/></g><g fill="#FFF"><path d="M651.409-321.087l4.353-4.519c.759-.779 1.313-1.537 1.313-2.296 0-.815-.519-1.37-1.388-1.37-.908 0-1.556.593-1.907 1.407l-2.5-1.462c.833-1.928 2.574-2.833 4.37-2.833 2.315 0 4.389 1.518 4.389 4.13 0 1.555-.832 2.887-2.018 4.072l-2.148 2.168h4.353v2.852h-8.815l-.002-2.149zm8.853-4.333c0-4.001 1.926-6.74 5.277-6.74 3.353 0 5.278 2.739 5.278 6.74 0 4-1.926 6.74-5.278 6.74-3.351 0-5.277-2.741-5.277-6.74zm7.592 0c0-2.501-.76-3.852-2.314-3.852-1.557 0-2.315 1.351-2.315 3.852 0 2.5.759 3.853 2.315 3.853 1.555-.001 2.314-1.354 2.314-3.853z"/><path d="M680.761-321.014h-1.296v2.074h-3v-2.074h-5.891v-2.74l4.13-8.148h3.186l-4.13 8.148h2.704v-2.777h3v2.777h1.296l.001 2.74zm3.037-4.406c0-4.001 1.926-6.74 5.276-6.74 3.354 0 5.277 2.739 5.277 6.74 0 4-1.925 6.74-5.277 6.74-3.35 0-5.276-2.741-5.276-6.74zm7.593 0c0-2.501-.76-3.852-2.315-3.852s-2.313 1.351-2.313 3.852c0 2.5.759 3.853 2.313 3.853 1.555 0 2.315-1.354 2.315-3.853z"/><path d="M694.298-325.42c0-4.001 1.926-6.74 5.276-6.74 3.352 0 5.277 2.739 5.277 6.74 0 4-1.926 6.74-5.277 6.74-3.35 0-5.276-2.741-5.276-6.74zm7.593 0c0-2.501-.76-3.852-2.315-3.852s-2.313 1.351-2.313 3.852c0 2.5.759 3.853 2.313 3.853 1.555 0 2.315-1.354 2.315-3.853z"/><path d="M704.797-325.42c0-4.001 1.927-6.74 5.277-6.74 3.352 0 5.277 2.739 5.277 6.74 0 4-1.926 6.74-5.277 6.74-3.35 0-5.277-2.741-5.277-6.74zm7.594 0c0-2.501-.76-3.852-2.315-3.852s-2.313 1.351-2.313 3.852c0 2.5.76 3.853 2.313 3.853 1.555-.001 2.315-1.354 2.315-3.853zm6.369 0c0-4.001 1.927-6.74 5.278-6.74s5.277 2.739 5.277 6.74c0 4-1.927 6.74-5.277 6.74-3.351 0-5.278-2.741-5.278-6.74zm7.593 0c0-2.501-.76-3.852-2.314-3.852-1.558 0-2.315 1.351-2.315 3.852 0 2.5.759 3.853 2.315 3.853 1.555-.001 2.314-1.354 2.314-3.853z"/><path d="M729.26-325.42c0-4.001 1.926-6.74 5.276-6.74 3.354 0 5.278 2.739 5.278 6.74 0 4-1.926 6.74-5.278 6.74-3.35 0-5.276-2.741-5.276-6.74zm7.592 0c0-2.501-.759-3.852-2.314-3.852-1.555 0-2.313 1.351-2.313 3.852 0 2.5.759 3.853 2.313 3.853 1.555 0 2.314-1.354 2.314-3.853z"/><path d="M739.76-325.42c0-4.001 1.926-6.74 5.276-6.74 3.354 0 5.278 2.739 5.278 6.74 0 4-1.926 6.74-5.278 6.74-3.35 0-5.276-2.741-5.276-6.74zm7.592 0c0-2.501-.759-3.852-2.314-3.852-1.555 0-2.313 1.351-2.313 3.852 0 2.5.76 3.853 2.313 3.853 1.555-.001 2.314-1.354 2.314-3.853zm10.509 1.992a4.604 4.604 0 0 1 4.629-4.629 4.602 4.602 0 0 1 4.629 4.629 4.601 4.601 0 0 1-4.629 4.629 4.602 4.602 0 0 1-4.629-4.629zm8.579 0c0-2.205-1.73-3.975-3.95-3.975-2.218 0-3.948 1.77-3.948 3.975 0 2.206 1.73 3.976 3.948 3.976 2.22 0 3.95-1.77 3.95-3.976zm2.269-3.846v3.59h4.142v.641h-4.142v4.104h-.682v-8.978h4.977v.643h-4.295zm4.641 3.846c0-2.563 1.936-4.629 4.667-4.629 1.654 0 3.104.847 3.847 2.154l-.603.347c-.59-1.104-1.833-1.846-3.244-1.846-2.359 0-3.988 1.77-3.988 3.975 0 2.206 1.629 3.976 3.988 3.976 1.424 0 2.68-.757 3.27-1.885l.604.347c-.729 1.32-2.191 2.191-3.872 2.191-2.735-.001-4.669-2.064-4.669-4.63z"/></g><g fill="#FFF"><path d="M831.396-323.014c0 2.853-2.222 4.334-4.724 4.334-2.058 0-3.833-.87-4.63-2.777l2.557-1.482c.296.853.853 1.372 2.073 1.372 1.223 0 1.76-.648 1.76-1.445 0-.795-.537-1.444-1.666-1.444h-4.056l.536-7.444h7.499v2.776h-4.722l-.129 1.778h1.056c2.408-.001 4.446 1.481 4.446 4.332zm5.462-8.888v12.963h-2.963v-9.833l-2.295.63-.723-2.538 3.388-1.223 2.593.001zm.687 6.482c0-4.001 1.927-6.74 5.276-6.74 3.354 0 5.278 2.739 5.278 6.74 0 4-1.926 6.74-5.278 6.74-3.349 0-5.276-2.741-5.276-6.74zm7.592 0c0-2.501-.76-3.852-2.314-3.852-1.556 0-2.314 1.351-2.314 3.852 0 2.5.76 3.853 2.314 3.853 1.554-.001 2.314-1.354 2.314-3.853zm6.371 0c0-4.001 1.926-6.74 5.276-6.74 3.354 0 5.278 2.739 5.278 6.74 0 4-1.926 6.74-5.278 6.74-3.35 0-5.276-2.741-5.276-6.74zm7.593 0c0-2.501-.76-3.852-2.315-3.852s-2.313 1.351-2.313 3.852c0 2.5.759 3.853 2.313 3.853 1.555 0 2.315-1.354 2.315-3.853z"/><path d="M862.007-325.42c0-4.001 1.927-6.74 5.277-6.74 3.352 0 5.277 2.739 5.277 6.74 0 4-1.927 6.74-5.277 6.74s-5.277-2.741-5.277-6.74zm7.593 0c0-2.501-.76-3.852-2.314-3.852-1.557 0-2.313 1.351-2.313 3.852 0 2.5.758 3.853 2.313 3.853 1.554-.001 2.314-1.354 2.314-3.853z"/><path d="M872.507-325.42c0-4.001 1.927-6.74 5.277-6.74 3.352 0 5.277 2.739 5.277 6.74 0 4-1.927 6.74-5.277 6.74s-5.277-2.741-5.277-6.74zm7.593 0c0-2.501-.76-3.852-2.314-3.852-1.557 0-2.313 1.351-2.313 3.852 0 2.5.758 3.853 2.313 3.853 1.554-.001 2.314-1.354 2.314-3.853zm6.369 0c0-4.001 1.926-6.74 5.277-6.74 3.353 0 5.277 2.739 5.277 6.74 0 4-1.925 6.74-5.277 6.74-3.351 0-5.277-2.741-5.277-6.74zm7.593 0c0-2.501-.76-3.852-2.315-3.852s-2.313 1.351-2.313 3.852c0 2.5.76 3.853 2.313 3.853 1.556-.001 2.315-1.354 2.315-3.853z"/><path d="M896.97-325.42c0-4.001 1.925-6.74 5.275-6.74 3.354 0 5.278 2.739 5.278 6.74 0 4-1.925 6.74-5.278 6.74-3.35 0-5.275-2.741-5.275-6.74zm7.592 0c0-2.501-.76-3.852-2.316-3.852-1.554 0-2.313 1.351-2.313 3.852 0 2.5.761 3.853 2.313 3.853 1.557-.001 2.316-1.354 2.316-3.853z"/><path d="M907.471-325.42c0-4.001 1.924-6.74 5.275-6.74 3.353 0 5.278 2.739 5.278 6.74 0 4-1.926 6.74-5.278 6.74-3.351 0-5.275-2.741-5.275-6.74zm7.591 0c0-2.501-.76-3.852-2.315-3.852-1.557 0-2.313 1.351-2.313 3.852 0 2.5.758 3.853 2.313 3.853 1.556-.001 2.315-1.354 2.315-3.853zm10.508 1.992a4.604 4.604 0 0 1 4.629-4.629 4.604 4.604 0 0 1 4.631 4.629 4.603 4.603 0 0 1-4.631 4.629 4.602 4.602 0 0 1-4.629-4.629zm8.58 0c0-2.205-1.731-3.975-3.951-3.975-2.217 0-3.948 1.77-3.948 3.975 0 2.206 1.731 3.976 3.948 3.976 2.22 0 3.951-1.77 3.951-3.976zm2.266-3.846v3.59h4.143v.641h-4.143v4.104h-.681v-8.978h4.979v.643h-4.298zm4.644 3.846c0-2.563 1.937-4.629 4.667-4.629 1.654 0 3.104.847 3.847 2.154l-.603.347c-.591-1.104-1.834-1.846-3.244-1.846-2.361 0-3.988 1.77-3.988 3.975 0 2.206 1.627 3.976 3.988 3.976 1.423 0 2.68-.757 3.27-1.885l.604.347c-.73 1.32-2.194 2.191-3.873 2.191-2.733-.001-4.668-2.064-4.668-4.63z"/></g><g fill="#FFF"><path d="M325.625-331.902v12.963h-2.963v-9.833l-2.296.63-.722-2.537 3.389-1.223h2.592zm.538 10.815l4.352-4.519c.759-.779 1.314-1.537 1.314-2.296 0-.815-.518-1.37-1.389-1.37-.907 0-1.555.593-1.907 1.407l-2.5-1.462c.834-1.928 2.574-2.833 4.371-2.833 2.315 0 4.39 1.518 4.39 4.13 0 1.555-.833 2.887-2.02 4.072l-2.148 2.168h4.353v2.852h-8.814l-.002-2.149zm21.482-1.927c0 2.853-2.222 4.334-4.722 4.334-2.058 0-3.834-.87-4.631-2.777l2.556-1.482c.296.853.852 1.372 2.075 1.372 1.221 0 1.758-.648 1.758-1.445 0-.795-.537-1.444-1.666-1.444h-4.056l.536-7.444h7.5v2.776h-4.722l-.13 1.778h1.056c2.407-.001 4.446 1.481 4.446 4.332z"/><path d="M347.494-325.42c0-4.001 1.928-6.74 5.278-6.74s5.278 2.739 5.278 6.74c0 4-1.928 6.74-5.278 6.74s-5.278-2.741-5.278-6.74zm7.594 0c0-2.501-.761-3.852-2.315-3.852-1.556 0-2.315 1.351-2.315 3.852 0 2.5.76 3.853 2.315 3.853 1.555-.001 2.315-1.354 2.315-3.853z"/><path d="M357.995-325.42c0-4.001 1.927-6.74 5.278-6.74 3.353 0 5.278 2.739 5.278 6.74 0 4-1.926 6.74-5.278 6.74s-5.278-2.741-5.278-6.74zm7.593 0c0-2.501-.76-3.852-2.314-3.852-1.556 0-2.314 1.351-2.314 3.852 0 2.5.759 3.853 2.314 3.853 1.554-.001 2.314-1.354 2.314-3.853zm6.369 0c0-4.001 1.927-6.74 5.278-6.74 3.353 0 5.277 2.739 5.277 6.74 0 4-1.925 6.74-5.277 6.74-3.351 0-5.278-2.741-5.278-6.74zm7.594 0c0-2.501-.76-3.852-2.315-3.852s-2.314 1.351-2.314 3.852c0 2.5.759 3.853 2.314 3.853 1.555-.001 2.315-1.354 2.315-3.853z"/><path d="M382.457-325.42c0-4.001 1.927-6.74 5.278-6.74 3.353 0 5.278 2.739 5.278 6.74 0 4-1.926 6.74-5.278 6.74-3.351 0-5.278-2.741-5.278-6.74zm7.594 0c0-2.501-.76-3.852-2.315-3.852s-2.313 1.351-2.313 3.852c0 2.5.759 3.853 2.313 3.853 1.555 0 2.315-1.354 2.315-3.853z"/><path d="M392.957-325.42c0-4.001 1.927-6.74 5.278-6.74 3.353 0 5.278 2.739 5.278 6.74 0 4-1.926 6.74-5.278 6.74-3.351 0-5.278-2.741-5.278-6.74zm7.593 0c0-2.501-.761-3.852-2.315-3.852-1.556 0-2.313 1.351-2.313 3.852 0 2.5.759 3.853 2.313 3.853 1.556-.001 2.315-1.354 2.315-3.853zm10.51 1.992a4.604 4.604 0 0 1 4.629-4.629 4.602 4.602 0 0 1 4.629 4.629 4.602 4.602 0 0 1-4.629 4.629 4.602 4.602 0 0 1-4.629-4.629zm8.579 0c0-2.205-1.731-3.975-3.95-3.975-2.218 0-3.949 1.77-3.949 3.975 0 2.206 1.731 3.976 3.949 3.976s3.95-1.77 3.95-3.976zm2.266-3.846v3.59h4.144v.641h-4.144v4.104h-.679v-8.978h4.976v.643h-4.297zm4.642 3.846c0-2.563 1.937-4.629 4.668-4.629 1.653 0 3.104.847 3.847 2.154l-.603.347c-.591-1.104-1.834-1.846-3.244-1.846-2.36 0-3.988 1.77-3.988 3.975 0 2.206 1.628 3.976 3.988 3.976 1.423 0 2.68-.757 3.27-1.885l.604.347c-.731 1.32-2.193 2.191-3.873 2.191-2.733-.001-4.669-2.064-4.669-4.63z"/></g><linearGradient id="g" gradientUnits="userSpaceOnUse" x1="203.306" y1="1365.23" x2="203.306" y2="1356.339" gradientTransform="matrix(1 0 0 -1 175 1128.36)"><stop offset="0" stop-color="#706dcb"/><stop offset="1" stop-color="#706dcb" stop-opacity=".7"/></linearGradient><path opacity=".4" fill="url(#g)" d="M378.306-236.869l-8.179 8.89h16.357z"/><linearGradient id="h" gradientUnits="userSpaceOnUse" x1="372.028" y1="1365.23" x2="372.028" y2="1356.339" gradientTransform="matrix(1 0 0 -1 175 1128.36)"><stop offset="0" stop-color="#706dcb"/><stop offset="1" stop-color="#706dcb" stop-opacity=".7"/></linearGradient><path opacity=".6" fill="url(#h)" d="M547.028-236.869l-8.177 8.89h16.356z"/><linearGradient id="i" gradientUnits="userSpaceOnUse" x1="541.688" y1="1365.23" x2="541.688" y2="1356.339" gradientTransform="matrix(1 0 0 -1 175 1128.36)"><stop offset="0" stop-color="#706dcb"/><stop offset="1" stop-color="#706dcb" stop-opacity=".7"/></linearGradient><path opacity=".8" fill="url(#i)" d="M716.688-236.869l-8.178 8.89h16.356z"/><linearGradient id="j" gradientUnits="userSpaceOnUse" x1="710.735" y1="1365.23" x2="710.735" y2="1356.339" gradientTransform="matrix(1 0 0 -1 175 1128.36)"><stop offset="0" stop-color="#706dcb"/><stop offset="1" stop-color="#706dcb" stop-opacity=".7"/></linearGradient><path fill="url(#j)" d="M885.735-236.869l-8.176 8.89h16.355z"/><path d="M352.108-212.152c0-2.848 2.15-5.141 5.184-5.141 1.836 0 3.444.94 4.27 2.394l-.669.384c-.654-1.224-2.036-2.051-3.601-2.051-2.621 0-4.429 1.966-4.429 4.414 0 2.449 1.809 4.415 4.429 4.415 1.579 0 2.976-.84 3.63-2.094l.669.384c-.813 1.468-2.436 2.436-4.299 2.436-3.033-.001-5.184-2.294-5.184-5.141zm15.168.897h-3.146v4.085h-.754v-9.966h3.929a2.953 2.953 0 0 1 2.947 2.946c0 1.354-.926 2.491-2.192 2.834l2.477 4.186h-.868l-2.393-4.085zm-3.145-.712h3.175c1.21 0 2.191-.996 2.191-2.222 0-1.238-.981-2.234-2.191-2.234h-3.175v4.456zm10.367.696v4.102h-.754v-4.102l-3.63-5.864h.854l3.161 5.141 3.146-5.141h.855l-3.632 5.864zm11.51-2.775c0 1.752-1.311 3.075-3.104 3.075h-2.634v3.802h-.754v-9.966h3.388c1.793 0 3.104 1.324 3.104 3.089zm-.755 0c0-1.38-.982-2.376-2.35-2.376h-2.634v4.741h2.634c1.368-.001 2.35-.999 2.35-2.365zm8.745-2.377h-3.132v9.253h-.769v-9.253h-3.132v-.712h7.032v.712zm.218 4.271a5.112 5.112 0 0 1 5.14-5.141c2.876 0 5.139 2.293 5.139 5.141s-2.263 5.141-5.139 5.141a5.113 5.113 0 0 1-5.14-5.141zm9.524 0c0-2.448-1.922-4.414-4.385-4.414s-4.385 1.966-4.385 4.414c0 2.449 1.922 4.415 4.385 4.415s4.385-1.966 4.385-4.415zm-56.333 9.261v9.966h-.755v-9.966h.755zm9.782 0v9.966h-.669l-5.88-8.57v8.57h-.754v-9.966h.654l5.895 8.571v-8.571h.754zm10.925 4.984c0 2.748-1.95 4.982-4.697 4.982h-3.744v-9.966h3.744c2.747 0 4.697 2.237 4.697 4.984zm-.741 0c0-2.363-1.608-4.271-3.957-4.271h-2.99v8.542h2.99c2.349-.001 3.957-1.907 3.957-4.271zm2.513 1.651v-6.634h.755v6.634c0 1.624 1.011 2.764 2.89 2.764 1.895 0 2.904-1.14 2.904-2.764v-6.634h.755v6.634c0 2.107-1.467 3.489-3.659 3.489-2.192 0-3.645-1.381-3.645-3.489zm9.045 1.14l.656-.385c.342 1.195 1.352 2.008 2.989 2.008 1.666 0 2.506-.854 2.506-1.994 0-1.196-1.054-1.651-2.576-2.135-1.666-.541-3.161-1.012-3.161-2.749 0-1.639 1.324-2.678 3.018-2.678 1.638 0 2.721.94 3.204 2.095l-.641.355c-.37-.897-1.14-1.724-2.563-1.724-1.38 0-2.249.812-2.249 1.922 0 1.196 1.01 1.565 2.435 2.035 1.766.584 3.304 1.14 3.304 2.862 0 1.651-1.296 2.734-3.275 2.734-1.867.003-3.191-.937-3.647-2.346zm14.896-7.062h-3.132v9.254h-.769v-9.254h-3.132v-.712h7.031l.002.712zm5.473 5.168h-3.146v4.086h-.755v-9.966h3.929a2.954 2.954 0 0 1 2.947 2.947c0 1.354-.926 2.492-2.192 2.833l2.478 4.186h-.869l-2.392-4.086zm-3.147-.713h3.174c1.21 0 2.192-.996 2.192-2.221 0-1.238-.982-2.234-2.192-2.234h-3.174v4.455zm11.267.699v4.101h-.756v-4.101l-3.63-5.865h.854l3.161 5.14 3.146-5.14h.855l-3.63 5.865zm94.572-20.111h.799l2.576 8.955 2.776-8.955h.896l2.791 8.955 2.563-8.955h.798l-2.891 9.966h-.911l-2.791-8.983-2.805 8.983h-.911l-2.89-9.966zm14.346 4.983a5.111 5.111 0 0 1 5.139-5.141c2.876 0 5.14 2.293 5.14 5.141s-2.263 5.141-5.14 5.141a5.112 5.112 0 0 1-5.139-5.141zm9.524 0c0-2.448-1.922-4.414-4.386-4.414-2.463 0-4.384 1.966-4.384 4.414 0 2.449 1.921 4.415 4.384 4.415 2.464 0 4.386-1.966 4.386-4.415zm6.57.897h-3.146v4.085h-.755v-9.966h3.93a2.952 2.952 0 0 1 2.946 2.946c0 1.354-.926 2.491-2.192 2.834l2.478 4.186h-.869l-2.392-4.085zm-3.146-.712h3.175c1.209 0 2.191-.996 2.191-2.222 0-1.238-.982-2.234-2.191-2.234h-3.175v4.456zm13.43 4.085v.712h-5.452v-9.966h.755v9.253l4.697.001zm10.013-4.27c0 2.748-1.95 4.982-4.698 4.982h-3.745v-9.966h3.745c2.747.001 4.698 2.238 4.698 4.984zm-.742 0c0-2.363-1.608-4.271-3.958-4.271h-2.99v8.541h2.99c2.35 0 3.958-1.906 3.958-4.27zm5.69-4.983h.797l2.577 8.955 2.775-8.955h.896l2.791 8.955 2.563-8.955h.799l-2.892 9.966h-.911l-2.791-8.983-2.804 8.983h-.912l-2.888-9.966zm15.668 0v9.966h-.754v-9.966h.754zm10.922 4.983c0 2.748-1.95 4.982-4.698 4.982h-3.744v-9.966h3.744c2.746.001 4.698 2.238 4.698 4.984zm-.742 0c0-2.363-1.607-4.271-3.958-4.271h-2.99v8.541h2.99c2.349 0 3.958-1.906 3.958-4.27zm8.393 4.27v.712h-5.738v-9.966h5.666v.712h-4.911v3.871h4.556v.712h-4.556v3.958l4.983.001zm-59.726 4.991h.798l2.577 8.955 2.776-8.955h.896l2.791 8.955 2.563-8.955h.798l-2.891 9.966h-.91l-2.791-8.983-2.805 8.983h-.912l-2.89-9.966zm20.653 9.254v.712h-5.738v-9.966h5.667v.712h-4.912v3.872h4.557v.712h-4.557v3.958h4.983zm8.874-2.007a2.712 2.712 0 0 1-2.721 2.72h-4.299v-9.966h3.973a2.622 2.622 0 0 1 2.619 2.62c0 .968-.513 1.766-1.28 2.179.995.383 1.708 1.308 1.708 2.447zm-6.266-6.534v3.814h3.218c1.024 0 1.864-.854 1.864-1.907s-.84-1.907-1.864-1.907h-3.218zm5.511 6.534c0-1.11-.884-2.007-1.966-2.007h-3.544v4.015h3.544c1.082-.001 1.966-.896 1.966-2.008zm131.409-12.238v.712h-5.738v-9.966h5.666v.712h-4.911v3.871h4.556v.712h-4.556v3.958l4.983.001zm1.257-1.479l.653-.384c.342 1.194 1.354 2.007 2.99 2.007 1.666 0 2.506-.854 2.506-1.994 0-1.196-1.055-1.651-2.577-2.135-1.665-.541-3.161-1.012-3.161-2.749 0-1.639 1.324-2.678 3.02-2.678 1.638 0 2.72.94 3.203 2.094l-.641.355c-.37-.896-1.141-1.724-2.563-1.724-1.38 0-2.249.813-2.249 1.923 0 1.197 1.01 1.566 2.434 2.035 1.767.584 3.305 1.139 3.305 2.863 0 1.65-1.296 2.732-3.274 2.732-1.868.004-3.191-.936-3.646-2.345zm8.205-2.791c0-2.848 2.147-5.141 5.182-5.141 1.836 0 3.446.94 4.271 2.394l-.669.384c-.654-1.224-2.036-2.051-3.603-2.051-2.62 0-4.428 1.966-4.428 4.414 0 2.449 1.808 4.415 4.428 4.415 1.58 0 2.976-.84 3.631-2.094l.669.384c-.812 1.468-2.436 2.436-4.3 2.436-3.034-.001-5.181-2.294-5.181-5.141zm15.168.897h-3.147v4.085h-.755v-9.966h3.93a2.951 2.951 0 0 1 2.946 2.946c0 1.354-.924 2.491-2.191 2.834l2.479 4.186h-.869l-2.393-4.085zm-3.149-.712h3.175c1.211 0 2.192-.996 2.192-2.222 0-1.238-.981-2.234-2.192-2.234h-3.175v4.456zm7.41-.185a5.112 5.112 0 0 1 5.14-5.141c2.876 0 5.14 2.293 5.14 5.141s-2.264 5.141-5.14 5.141-5.14-2.294-5.14-5.141zm9.524 0c0-2.448-1.923-4.414-4.386-4.414s-4.385 1.966-4.385 4.414c0 2.449 1.922 4.415 4.385 4.415s4.386-1.966 4.386-4.415zm1.9-4.983h.798l2.576 8.955 2.777-8.955h.896l2.789 8.955 2.563-8.955h.798l-2.892 9.966h-.911l-2.789-8.983-2.806 8.983h-.911l-2.888-9.966zm-58.168 19.228c0-2.849 2.15-5.141 5.182-5.141 1.836 0 3.446.94 4.271 2.394l-.669.384c-.655-1.225-2.035-2.05-3.603-2.05-2.619 0-4.427 1.965-4.427 4.414 0 2.447 1.808 4.414 4.427 4.414 1.581 0 2.977-.841 3.631-2.095l.67.385c-.812 1.468-2.435 2.437-4.301 2.437-3.032-.002-5.181-2.295-5.181-5.142zm10.697 0a5.112 5.112 0 0 1 5.141-5.141 5.11 5.11 0 0 1 5.139 5.141c0 2.848-2.263 5.141-5.139 5.141s-5.141-2.294-5.141-5.141zm9.524 0c0-2.449-1.923-4.414-4.385-4.414-2.463 0-4.385 1.965-4.385 4.414 0 2.447 1.922 4.414 4.385 4.414 2.462 0 4.385-1.966 4.385-4.414zm9.974-4.984v9.966h-.67l-5.881-8.57v8.57h-.754v-9.966h.654l5.895 8.571v-8.571h.756zm8.603.713h-3.133v9.254h-.768v-9.254h-3.134v-.712h7.033l.002.712zm5.471 5.168h-3.145v4.086h-.754v-9.966h3.928a2.954 2.954 0 0 1 2.948 2.947c0 1.354-.926 2.492-2.193 2.833l2.479 4.186h-.869l-2.394-4.086zm-3.144-.713h3.174c1.211 0 2.192-.996 2.192-2.221 0-1.238-.981-2.234-2.192-2.234h-3.174v4.455zm13.713 2.264h-4.997l-.969 2.535h-.797l3.873-9.966h.797l3.857 9.966h-.798l-.966-2.535zm-.269-.711l-2.222-5.795-2.222 5.795h4.444zm2.923-1.737c0-2.849 2.149-5.141 5.184-5.141 1.836 0 3.444.94 4.271 2.394l-.669.384c-.653-1.225-2.036-2.05-3.602-2.05-2.621 0-4.429 1.965-4.429 4.414 0 2.447 1.808 4.414 4.429 4.414 1.579 0 2.976-.841 3.629-2.095l.67.385c-.813 1.468-2.435 2.437-4.299 2.437-3.035-.002-5.184-2.295-5.184-5.142zm17.388-4.271h-3.133v9.254h-.77v-9.254h-3.132v-.712h7.033l.002.712zm.973 7.062l.654-.385c.341 1.195 1.353 2.008 2.99 2.008 1.666 0 2.506-.854 2.506-1.994 0-1.196-1.054-1.651-2.577-2.135-1.666-.541-3.161-1.012-3.161-2.749 0-1.639 1.324-2.678 3.02-2.678 1.637 0 2.72.94 3.203 2.095l-.643.355c-.37-.897-1.138-1.724-2.562-1.724-1.381 0-2.25.812-2.25 1.922 0 1.196 1.011 1.565 2.436 2.035 1.765.584 3.303 1.14 3.303 2.862 0 1.651-1.297 2.734-3.273 2.734-1.867.003-3.191-.937-3.646-2.346zm109.385-14.587h-4.997l-.968 2.534h-.8l3.874-9.966h.797l3.859 9.966h-.798l-.967-2.534zm-.272-.711l-2.22-5.796-2.222 5.796h4.442zm7.395-.841h-3.146v4.085h-.754v-9.966h3.929a2.952 2.952 0 0 1 2.946 2.946c0 1.354-.924 2.491-2.191 2.834l2.479 4.186h-.87l-2.393-4.085zm-3.147-.712h3.175c1.211 0 2.192-.996 2.192-2.222 0-1.238-.981-2.234-2.192-2.234h-3.175v4.456zm14.098-4.456h-3.131v9.253h-.769v-9.253H870.8v-.712h7.032v.712zm2.326-.712v9.966h-.754v-9.966h.754zm3.235.712v3.985h4.599v.712h-4.599v4.556h-.754v-9.966h5.522v.712l-4.768.001zm7.378-.712v9.966h-.754v-9.966h.754zm1.911 4.983c0-2.848 2.148-5.141 5.181-5.141 1.837 0 3.446.94 4.271 2.394l-.669.384c-.654-1.224-2.035-2.051-3.604-2.051-2.619 0-4.427 1.966-4.427 4.414 0 2.449 1.808 4.415 4.427 4.415 1.581 0 2.979-.84 3.632-2.094l.669.384c-.811 1.468-2.436 2.436-4.301 2.436-3.031-.001-5.179-2.294-5.179-5.141zm17.004 2.449h-4.998l-.969 2.534h-.796l3.873-9.966h.796l3.858 9.966h-.797l-.967-2.534zm-.273-.711l-2.22-5.796-2.221 5.796h4.441zm8.947 2.532v.712h-5.452v-9.966h.753v9.253l4.699.001zm-76.947 4.991v9.966h-.755v-9.966h.755zm9.782 0v9.966h-.67l-5.879-8.57v8.57h-.754v-9.966h.653l5.895 8.571v-8.571h.755zm8.604.713h-3.131v9.254h-.77v-9.254h-3.132v-.712h7.031l.002.712zm7.307 8.541v.712h-5.736v-9.966h5.667v.712h-4.913v3.872h4.558v.712h-4.558v3.958h4.982zm7.31 0v.712h-5.451v-9.966h.753v9.254h4.698zm7.022 0v.712h-5.454v-9.966h.755v9.254h4.699zm2.324-9.254v9.966h-.753v-9.966h.753zm11.961 5.709c0 2.407-1.836 4.415-4.812 4.415-3.091 0-5.239-2.292-5.239-5.141s2.148-5.141 5.183-5.141c1.853 0 3.461.969 4.285 2.407l-.669.399c-.655-1.254-2.051-2.08-3.616-2.08-2.62 0-4.427 1.965-4.427 4.414 0 2.447 1.807 4.414 4.483 4.414 2.42 0 3.889-1.496 4.043-3.361h-4.229v-.711h4.997v.385zm7.636 3.545v.712h-5.736v-9.966h5.666v.712h-4.912v3.872h4.558v.712h-4.558v3.958h4.982zm9.161-9.254v9.966h-.669l-5.88-8.57v8.57h-.755v-9.966h.652l5.896 8.571v-8.571h.756zm1.914 4.984c0-2.849 2.148-5.141 5.182-5.141 1.837 0 3.446.94 4.271 2.394l-.668.384c-.655-1.225-2.038-2.05-3.604-2.05-2.62 0-4.428 1.965-4.428 4.414 0 2.447 1.808 4.414 4.428 4.414 1.58 0 2.978-.841 3.63-2.095l.671.385c-.813 1.468-2.436 2.437-4.301 2.437-3.033-.002-5.181-2.295-5.181-5.142zm17.004 4.27v.712H925.7v-9.966h5.665v.712h-4.909v3.872h4.555v.712h-4.555v3.958h4.982zm46.288-81.279a.711.711 0 0 1-.443-1.27l12.047-9.546-12.045-9.414a.714.714 0 0 1-.123-1 .715.715 0 0 1 1.002-.123l12.758 9.972a.714.714 0 0 1 .001 1.121l-12.756 10.108a.717.717 0 0 1-.441.152zm-617.051-10.107h-85.46a.712.712 0 1 1 0-1.424h85.46a.71.71 0 0 1 .712.712c0 .392-.32.712-.712.712z" fill="#FFF"/><path fill="#FFF" d="M378.306-267.396c-10.113 0-18.34-8.229-18.34-18.34 0-10.112 8.227-18.34 18.34-18.34s18.34 8.228 18.34 18.34-8.228 18.34-18.34 18.34zm0-35.255c-9.327 0-16.916 7.588-16.916 16.916s7.589 16.916 16.916 16.916c9.328 0 16.917-7.588 16.917-16.916s-7.59-16.916-16.917-16.916z"/><linearGradient id="k" gradientUnits="userSpaceOnUse" x1="-3071.472" y1="751.865" x2="-3053.132" y2="751.865" gradientTransform="matrix(0 -1 -1 0 1130.17 -3348.038)"><stop offset="0" stop-color="#706dcb" stop-opacity="0"/><stop offset="1" stop-color="#706dcb" stop-opacity=".7"/></linearGradient><circle fill="url(#k)" cx="378.306" cy="-285.735" r="9.17"/><path fill="#FFF" d="M547.498-267.396c-10.113 0-18.342-8.229-18.342-18.34 0-10.112 8.229-18.34 18.342-18.34 10.111 0 18.34 8.228 18.34 18.34s-8.229 18.34-18.34 18.34zm0-35.255c-9.328 0-16.918 7.588-16.918 16.916s7.589 16.916 16.918 16.916c9.326 0 16.915-7.588 16.915-16.916s-7.59-16.916-16.915-16.916z"/><linearGradient id="l" gradientUnits="userSpaceOnUse" x1="-3071.472" y1="582.672" x2="-3053.132" y2="582.672" gradientTransform="matrix(0 -1 -1 0 1130.17 -3348.038)"><stop offset="0" stop-color="#706dcb" stop-opacity="0"/><stop offset="1" stop-color="#706dcb" stop-opacity=".7"/></linearGradient><circle fill="url(#l)" cx="547.498" cy="-285.735" r="9.17"/><path fill="#FFF" d="M716.688-267.396c-10.113 0-18.34-8.229-18.34-18.34 0-10.112 8.227-18.34 18.34-18.34 10.112 0 18.341 8.228 18.341 18.34-.001 10.112-8.228 18.34-18.341 18.34zm0-35.255c-9.327 0-16.916 7.588-16.916 16.916s7.589 16.916 16.916 16.916c9.328 0 16.916-7.588 16.916-16.916s-7.587-16.916-16.916-16.916z"/><linearGradient id="m" gradientUnits="userSpaceOnUse" x1="-3071.472" y1="413.483" x2="-3053.132" y2="413.483" gradientTransform="matrix(0 -1 -1 0 1130.17 -3348.038)"><stop offset="0" stop-color="#706dcb" stop-opacity="0"/><stop offset="1" stop-color="#706dcb" stop-opacity=".7"/></linearGradient><circle fill="url(#m)" cx="716.688" cy="-285.735" r="9.17"/><path fill="#FFF" d="M885.88-267.396c-10.114 0-18.342-8.229-18.342-18.34 0-10.112 8.228-18.34 18.342-18.34 10.112 0 18.34 8.228 18.34 18.34s-8.228 18.34-18.34 18.34zm0-35.255c-9.327 0-16.915 7.588-16.915 16.916s7.588 16.916 16.915 16.916c9.326 0 16.915-7.588 16.915-16.916s-7.588-16.916-16.915-16.916z"/><linearGradient id="n" gradientUnits="userSpaceOnUse" x1="-3071.472" y1="244.291" x2="-3053.132" y2="244.291" gradientTransform="matrix(0 -1 -1 0 1130.17 -3348.038)"><stop offset="0" stop-color="#706dcb" stop-opacity="0"/><stop offset="1" stop-color="#706dcb" stop-opacity=".7"/></linearGradient><circle fill="url(#n)" cx="885.88" cy="-285.735" r="9.17"/><path fill="#FFF" d="M988.967-285.023h-85.46a.712.712 0 1 1 0-1.424h85.46a.71.71 0 0 1 .713.712c0 .392-.32.712-.713.712zm-459.099 0H397.357a.712.712 0 1 1 0-1.424h132.511a.712.712 0 1 1 0 1.424zm167.768 0H565.125a.712.712 0 1 1 0-1.424h132.51a.711.711 0 1 1 .001 1.424zm169.191 0H734.315a.712.712 0 1 1 0-1.424h132.512c.395 0 .711.317.711.712a.71.71 0 0 1-.711.712z"/><path fill="#D9D9D9" d="M377.949-268.701h.712v25.333h-.712zm168.724 0h.712v25.333h-.712zm169.659 0h.712v25.333h-.712zm169.19 0h.712v25.333h-.712z"/></svg>