<svg xmlns="http://www.w3.org/2000/svg" viewBox="0 0 508 508"><circle cx="254" cy="254" r="254" fill="#324a5e"/><path d="M420.4 214.4v108c0 21.6-17.6 39.2-39.2 39.2v50.8l-62-50.8H206c-21.6 0-39.2-17.6-39.2-39.2V300l21.6-18H302c21.6 0 39.2-17.6 39.2-39.2v-68h40c21.6.4 39.2 18 39.2 39.6z" fill="#2c9984"/><path d="M302 95.6H126.8c-21.6 0-39.2 17.6-39.2 39.2v108c0 21.6 17.6 39.2 39.2 39.2v50.8l62-50.8H302c21.6 0 39.2-17.6 39.2-39.2v-108c0-21.6-17.6-39.2-39.2-39.2z" fill="#fff"/><g fill="#84dbff"><circle cx="141.6" cy="190" r="24.4"/><circle cx="214.4" cy="190" r="24.4"/><circle cx="286.8" cy="190" r="24.4"/></g></svg>