<svg xmlns="http://www.w3.org/2000/svg" width="473.817" height="321.962" viewBox="203.1 135.986 473.817 321.962"><path fill="#EFE2EC" d="M336.237 284.09h4.875v6.261h-4.875zm-16.441 20.277h4.873v6.262h-4.873zm194.732-20.279h4.874v6.263h-4.874zm16.818 20.279h4.873v6.262h-4.873zM230.567 345h4.873v6.264h-4.873zm72.412 0h4.873v6.264h-4.873zm81.321 0h4.874v6.264H384.3zm81.923 0h4.875v6.264h-4.875zm81.654 0h4.873v6.264h-4.873zm72.414 0h4.871v6.264h-4.871zm-194.797 13.349h4.874v55.539h-4.874zm.176-115.526h4.876v6.263h-4.876zm-17.049-20.154h4.875v6.262h-4.875zm16.873-61.166h4.874v27.896h-4.874zm-16.847 25.46h4.874v8.438h-4.874z"/><path fill="#EFE2EC" d="M408.621 186.962h21.747v4.873h-21.747zm105.682 59.69h4.871v8.442h-4.871zm-177.894 0h4.877v8.442h-4.877z"/><path fill="#EFE2EC" d="M336.505 246.654h182.67v4.873h-182.67zm130.032 62.127h4.876v8.44h-4.876zm81.34 0h4.873v8.44h-4.873zm72.414 0h4.871v8.44h-4.871z"/><path fill="#EFE2EC" d="M466.534 308.781h158.629v4.874H466.534zm-163.555 0h4.873v8.44h-4.873zm81.321 0h4.875v8.44H384.3zm-153.766 0h4.875v8.44h-4.875z"/><path fill="#EFE2EC" d="M230.629 308.781h158.546v4.874H230.629zm18.406 46.751h360.857v4.875H249.035z"/><path fill="#222" d="M244.396 340.542c0 .632-5.11 1.145-11.409 1.145-6.303 0-11.41-.513-11.41-1.145s5.107-1.145 11.41-1.145c6.299 0 11.409.513 11.409 1.145z"/><path fill="#80C6E8" d="M233.002 332.172l-.001-.054a.32.32 0 0 0 .001.054zm-.029 0v-.054.054z"/><ellipse fill="#222" cx="257.123" cy="340.542" rx="11.41" ry="1.144"/><ellipse fill="#222" cx="281.261" cy="340.542" rx="11.409" ry="1.144"/><path fill="#222" d="M316.809 340.542c0 .632-5.109 1.145-11.41 1.145-6.303 0-11.408-.513-11.408-1.145s5.105-1.145 11.408-1.145c6.301 0 11.41.513 11.41 1.145z"/><path fill="#80C6E8" d="M305.415 332.172l-.001-.054a.32.32 0 0 0 .001.054zm-.03 0v-.054a.408.408 0 0 0 0 .054z"/><ellipse fill="#222" cx="338.659" cy="340.887" rx="11.409" ry="1.145"/><path fill="#222" d="M374.206 340.887c0 .633-5.106 1.145-11.409 1.145-6.299 0-11.41-.512-11.41-1.145s5.111-1.145 11.41-1.145c6.302.001 11.409.512 11.409 1.145z"/><ellipse fill="#222" cx="386.935" cy="340.887" rx="11.409" ry="1.145"/><path fill="#80C6E8" d="M386.951 332.517c0-.032 0-.05-.003-.055 0 0 0 .019.003.055zm-.031 0l.001-.055-.001.055z"/><path fill="#222" d="M422.481 340.887c0 .633-5.11 1.145-11.407 1.145-6.304 0-11.41-.512-11.41-1.145s5.105-1.145 11.41-1.145c6.297.001 11.407.512 11.407 1.145z"/><path fill="#8D8AD5" d="M274.531 290.222h93.234v14.145h-93.234z"/><path fill="#222" d="M281.246 294.292h1.524l1.35 4.483 1.349-4.483h1.523l-1.984 6.094h-1.776l-1.986-6.094zm10.099 4.754v1.341h-3.831v-6.094h3.788v1.34h-2.395v1.009h2.177v1.324h-2.177v1.08h2.438zm2.837-.662h-.662v2.002h-1.393v-6.094h2.438c1.159 0 2.09.932 2.09 2.089 0 .748-.453 1.428-1.123 1.768l1.296 2.236h-1.497l-1.149-2.001zm-.662-1.218h1.044c.384 0 .697-.34.697-.783 0-.444-.313-.784-.697-.784h-1.044v1.567zm9.359.173c0 1.724-1.28 3.047-2.961 3.047h-2.438v-6.094h2.438c1.681 0 2.961 1.323 2.961 3.047zm-1.342 0c0-1.045-.661-1.707-1.619-1.707h-1.044v3.413h1.044c.958.001 1.619-.661 1.619-1.706zm3.517-3.047v6.094h-1.394v-6.094h1.394zm.783 3.047c0-1.793 1.332-3.168 3.169-3.168 1.105 0 2.08.548 2.611 1.41l-1.201.698c-.271-.472-.792-.75-1.41-.75-1.081 0-1.776.723-1.776 1.812s.696 1.812 1.776 1.812c.618 0 1.148-.279 1.41-.749l1.201.696c-.522.862-1.497 1.411-2.611 1.411-1.837-.002-3.169-1.379-3.169-3.172zm10.525-1.706h-1.567v4.754h-1.393v-4.754h-1.567v-1.34h4.527v1.34zm6.354 3.796h-2.264l-.305.958h-1.524l2.072-6.094h1.775l2.073 6.094h-1.524l-.303-.958zm-.417-1.305l-.715-2.239-.714 2.239h1.429zm7.207-1.742c0 1.158-.931 2.089-2.133 2.089h-.915v1.916h-1.394v-6.094h2.308c1.203-.001 2.134.931 2.134 2.089zm-1.393 0c0-.444-.313-.784-.739-.784h-.915v1.568h.915c.426 0 .739-.34.739-.784zm6.529 0c0 1.158-.931 2.089-2.133 2.089h-.915v1.916H330.2v-6.094h2.308c1.203-.001 2.134.931 2.134 2.089zm-1.393 0c0-.444-.313-.784-.739-.784h-.915v1.568h.915c.426 0 .739-.34.739-.784zm4.144 2.002h-.662v2.002h-1.393v-6.094h2.437c1.158 0 2.09.932 2.09 2.089 0 .748-.453 1.428-1.123 1.768l1.297 2.236h-1.497l-1.149-2.001zm-.662-1.218h1.044c.384 0 .697-.34.697-.783 0-.444-.313-.784-.697-.784h-1.044v1.567zm3.612.173a3.141 3.141 0 0 1 3.169-3.168 3.141 3.141 0 0 1 3.169 3.168 3.143 3.143 0 0 1-3.169 3.17 3.144 3.144 0 0 1-3.169-3.17zm4.946 0c0-1.089-.784-1.812-1.776-1.812-.993 0-1.775.723-1.775 1.812s.783 1.812 1.775 1.812c.991 0 1.776-.723 1.776-1.812zm1.391-3.047h1.523l1.35 4.483 1.35-4.483h1.523l-1.985 6.094h-1.776l-1.985-6.094zm9.489 5.137h-2.264l-.305.958h-1.523l2.072-6.094h1.775l2.073 6.094h-1.524l-.304-.958zm-.417-1.305l-.714-2.239-.714 2.239h1.428zm6.336.922v1.341h-3.569v-6.094h1.393v4.753h2.176zm77.023-141.698c0 .632-5.109 1.145-11.408 1.145-6.302 0-11.412-.513-11.412-1.145 0-.631 5.11-1.145 11.412-1.145 6.299.001 11.408.514 11.408 1.145z"/><path fill="#80C6E8" d="M427.72 148.978c0-.03 0-.048-.003-.053 0 0 0 .019.003.053zm-.032 0v-.053.053z"/><path fill="#B36FA2" d="M363.335 147.584l.401-.235c.208.731.827 1.229 1.828 1.229 1.019 0 1.532-.522 1.532-1.219 0-.732-.645-1.01-1.576-1.306-1.019-.33-1.932-.619-1.932-1.68 0-1.002.81-1.637 1.845-1.637 1.001 0 1.664.573 1.959 1.279l-.392.217c-.226-.548-.697-1.053-1.567-1.053-.845 0-1.376.497-1.376 1.176 0 .731.618.957 1.489 1.244 1.081.356 2.021.696 2.021 1.75 0 1.009-.792 1.673-2.002 1.673-1.142 0-1.952-.576-2.23-1.438zm5.78-4.753v6.094h-.461v-6.094h.461zm7.026 6.094h-.461v-5.414l-2.255 3.744h-.078l-2.255-3.744v5.414h-.461v-6.094h.575l2.177 3.605 2.176-3.605h.583v6.094h-.001zm5.483-4.205c0 1.071-.801 1.881-1.897 1.881h-1.611v2.323h-.461v-6.094h2.072c1.096.001 1.897.811 1.897 1.89zm-.461 0c0-.844-.601-1.454-1.436-1.454h-1.611v2.899h1.611c.835.001 1.436-.609 1.436-1.445zm4.936 3.771v.434h-3.334v-6.094h.461v5.66h2.873zm4.465 0v.434h-3.508v-6.094h3.465v.436h-3.003v2.368h2.786v.435h-2.786v2.421h3.046zm3.369-1.603v-4.057h.461v4.057c0 .993.619 1.689 1.767 1.689 1.159 0 1.776-.696 1.776-1.689v-4.057h.462v4.057c0 1.289-.896 2.134-2.238 2.134-1.34 0-2.228-.845-2.228-2.134zm5.527.696l.4-.235c.208.731.827 1.229 1.829 1.229 1.019 0 1.532-.522 1.532-1.219 0-.732-.644-1.01-1.576-1.306-1.018-.33-1.933-.619-1.933-1.68 0-1.002.811-1.637 1.845-1.637 1.002 0 1.663.573 1.959 1.279l-.392.217c-.226-.548-.697-1.053-1.567-1.053-.845 0-1.375.497-1.375 1.176 0 .731.618.957 1.488 1.244 1.081.356 2.021.696 2.021 1.75 0 1.009-.792 1.673-2.002 1.673-1.141 0-1.95-.576-2.229-1.438zm8.828.907v.434h-3.508v-6.094h3.465v.436h-3.003v2.368h2.786v.435h-2.786v2.421h3.046zm3.516-2.064h-1.924v2.498h-.461v-6.094h2.402c.993 0 1.803.81 1.803 1.803 0 .827-.565 1.524-1.341 1.732l1.515 2.559h-.531l-1.463-2.498zm-1.924-.435h1.941a1.35 1.35 0 0 0 1.341-1.358c0-.757-.601-1.367-1.341-1.367h-1.941v2.725z"/><path fill="#222" d="M350.068 218.722c0 .633-5.107 1.146-11.409 1.146s-11.409-.514-11.409-1.146c0-.631 5.107-1.145 11.409-1.145s11.409.514 11.409 1.145z"/><path fill="#80C6E8" d="M338.676 210.352a.156.156 0 0 0-.001-.054.316.316 0 0 0 .001.054zm-.03 0l.001-.054-.001.054z"/><path fill="#222" d="M374.206 218.722c0 .633-5.106 1.146-11.409 1.146-6.299 0-11.41-.514-11.41-1.146 0-.631 5.111-1.145 11.41-1.145 6.302 0 11.409.514 11.409 1.145z"/><path fill="#80C6E8" d="M362.813 210.352l-.001-.054a.316.316 0 0 0 .001.054zm-.029 0v-.054a.212.212 0 0 0 0 .054z"/><path fill="#222" d="M398.344 218.722c0 .633-5.109 1.146-11.41 1.146-6.302 0-11.409-.514-11.409-1.146 0-.631 5.107-1.145 11.409-1.145 6.301 0 11.41.514 11.41 1.145z"/><path fill="#80C6E8" d="M386.951 210.352c0-.031 0-.049-.003-.054 0 0 0 .019.003.054zm-.031 0l.001-.054-.001.054z"/><path fill="#222" d="M422.481 218.722c0 .633-5.11 1.146-11.407 1.146-6.304 0-11.41-.514-11.41-1.146 0-.631 5.105-1.145 11.41-1.145 6.297 0 11.407.514 11.407 1.145z"/><path fill="#80C6E8" d="M411.088 210.352l-.001-.054.001.054zm-.03 0l.001-.054-.001.054z"/><path fill="#222" d="M455.744 219.069c0 .63-5.109 1.145-11.411 1.145s-11.409-.515-11.409-1.145c0-.634 5.107-1.145 11.409-1.145s11.411.511 11.411 1.145z"/><path fill="#80C6E8" d="M444.349 210.697a.212.212 0 0 0 0-.054v.054zm-.031 0l.002-.054c-.002.004-.002.024-.002.054z"/><path fill="#222" d="M479.88 219.069c0 .63-5.107 1.145-11.409 1.145-6.303 0-11.41-.515-11.41-1.145 0-.634 5.107-1.145 11.41-1.145 6.301 0 11.409.511 11.409 1.145z"/><path fill="#80C6E8" d="M468.486 210.697c0-.031 0-.049-.002-.054l.002.054zm-.031 0c.004-.035.004-.054.004-.054-.004.004-.004.024-.004.054z"/><path fill="#222" d="M504.018 219.069c0 .63-5.106 1.145-11.411 1.145-6.3 0-11.408-.515-11.408-1.145 0-.634 5.108-1.145 11.408-1.145 6.304 0 11.411.511 11.411 1.145z"/><path fill="#80C6E8" d="M492.623 210.697a.212.212 0 0 0 0-.054v.054zm-.029 0v-.054.054z"/><path fill="#222" d="M528.155 219.069c0 .63-5.11 1.145-11.409 1.145-6.303 0-11.41-.515-11.41-1.145 0-.634 5.107-1.145 11.41-1.145 6.299 0 11.409.511 11.409 1.145z"/><path fill="#80C6E8" d="M516.762 210.697c0-.031 0-.049-.002-.054l.002.054zm-.031 0v-.054.054z"/><path fill="#C6C5EA" d="M397.507 168.401h59.745v14.147h-59.745z"/><path fill="#222" d="M411.645 176.566h-.661v2.002h-1.393v-6.095h2.438c1.158 0 2.09.933 2.09 2.09 0 .747-.453 1.427-1.123 1.767l1.296 2.238h-1.497l-1.15-2.002zm-.661-1.218h1.044c.383 0 .697-.34.697-.784s-.313-.785-.697-.785h-1.044v1.569zm7.791 1.879v1.342h-3.831v-6.095h3.788v1.341h-2.394v1.01h2.176v1.323h-2.176v1.08h2.437v-.001zm6.121.288l.61.644-1.002.889-.653-.688a3.245 3.245 0 0 1-1.427.331c-1.75 0-3.169-1.376-3.169-3.169s1.419-3.169 3.169-3.169 3.169 1.376 3.169 3.169a3.165 3.165 0 0 1-.697 1.993zm-2.046-.227l-.879-.931 1.002-.889.975 1.037c.157-.279.253-.61.253-.984 0-1.089-.784-1.811-1.776-1.811-.993 0-1.775.722-1.775 1.811s.782 1.81 1.775 1.81c.146 0 .285-.017.425-.043zm3.48-.688v-4.126h1.394v4.006c0 .461.217.852.958.852.74 0 .958-.392.958-.852v-4.006h1.392v4.126c0 1.307-1.009 2.09-2.351 2.09s-2.351-.783-2.351-2.09zm9.533.627v1.342h-3.83v-6.095h3.786v1.341h-2.394v1.01h2.178v1.323h-2.178v1.08h2.438v-.001zm.477-.044l1.203-.696c.217.505.593.844 1.278.844.663 0 .829-.26.829-.496 0-.374-.35-.521-1.264-.774-.905-.252-1.793-.688-1.793-1.854 0-1.175.993-1.855 2.045-1.855 1.001 0 1.784.478 2.229 1.376l-1.176.687c-.211-.435-.496-.705-1.053-.705-.436 0-.653.217-.653.461 0 .278.148.469 1.097.757.924.278 1.959.601 1.959 1.89 0 1.175-.939 1.871-2.265 1.871-1.277.001-2.095-.608-2.436-1.506zm9.272-3.369h-1.567v4.754h-1.393v-4.754h-1.567v-1.341h4.527v1.341z"/><ellipse fill="#222" cx="338.862" cy="278.411" rx="11.41" ry="1.147"/><path fill="#80C6E8" d="M338.878 270.042a.212.212 0 0 0 0-.054v.054zm-.029 0v-.054.054z"/><ellipse fill="#222" cx="363" cy="278.411" rx="11.408" ry="1.147"/><path fill="#666" d="M363.016 270.042v-.054.054zm-.029 0l.001-.054-.001.054z"/><ellipse fill="#222" cx="387.137" cy="278.411" rx="11.409" ry="1.147"/><path fill="#666" d="M387.153 270.042v-.054.054zm-.029 0l.001-.054-.001.054z"/><ellipse fill="#222" cx="411.275" cy="278.411" rx="11.41" ry="1.147"/><path fill="#666" d="M411.292 270.042c0-.03 0-.05-.004-.054l.004.054zm-.029 0v-.054a.215.215 0 0 0 0 .054z"/><path fill="#222" d="M455.945 278.759c0 .63-5.108 1.145-11.41 1.145-6.299 0-11.409-.514-11.409-1.145 0-.632 5.11-1.145 11.409-1.145 6.302 0 11.41.513 11.41 1.145z"/><path fill="#80C6E8" d="M444.552 270.389l-.001-.056.001.056zm-.029 0l.001-.056a.172.172 0 0 0-.001.056z"/><path fill="#222" d="M480.082 278.759c0 .63-5.107 1.145-11.407 1.145-6.302 0-11.411-.514-11.411-1.145 0-.632 5.109-1.145 11.411-1.145 6.3 0 11.407.513 11.407 1.145z"/><path fill="#80C6E8" d="M468.688 270.389a.156.156 0 0 0 0-.056v.056zm-.028 0l.002-.056c-.002.006-.002.025-.002.056z"/><path fill="#222" d="M504.22 278.759c0 .63-5.107 1.145-11.409 1.145-6.301 0-11.412-.514-11.412-1.145 0-.632 5.111-1.145 11.412-1.145 6.301 0 11.409.513 11.409 1.145z"/><path fill="#80C6E8" d="M492.826 270.389v-.056.056zm-.027 0v-.056a.233.233 0 0 0 0 .056z"/><path fill="#222" d="M528.357 278.759c0 .63-5.108 1.145-11.41 1.145-6.301 0-11.408-.514-11.408-1.145 0-.632 5.107-1.145 11.408-1.145 6.302 0 11.41.513 11.41 1.145z"/><path fill="#80C6E8" d="M516.964 270.389l-.001-.056.001.056zm-.03 0l.002-.056c-.002.006-.002.025-.002.056z"/><path fill="#A9A7E0" d="M397.711 228.672h59.744v14.146h-59.744z"/><path fill="#222" d="M409.985 232.743h1.524l1.35 4.483 1.349-4.483h1.524l-1.985 6.093h-1.776l-1.986-6.093zm10.099 4.754v1.34h-3.831v-6.093h3.787v1.34h-2.394v1.01h2.177v1.323h-2.177v1.08h2.438zm2.837-.663h-.662v2.002h-1.393v-6.093h2.438c1.159 0 2.091.931 2.091 2.089 0 .749-.454 1.428-1.124 1.768l1.296 2.237h-1.497l-1.149-2.003zm-.661-1.219h1.044c.384 0 .697-.34.697-.783 0-.444-.313-.783-.697-.783h-1.044v1.566zm9.358.175c0 1.724-1.278 3.047-2.961 3.047h-2.437v-6.093h2.437c1.682-.001 2.961 1.323 2.961 3.046zm-1.341 0c0-1.045-.662-1.706-1.62-1.706h-1.044v3.413h1.044c.958 0 1.62-.663 1.62-1.707zm3.516-3.047v6.093H432.4v-6.093h1.393zm.784 3.047c0-1.794 1.332-3.168 3.171-3.168 1.105 0 2.08.547 2.609 1.409l-1.2.697c-.271-.469-.793-.749-1.411-.749-1.08 0-1.776.723-1.776 1.811s.696 1.812 1.776 1.812c.618 0 1.148-.279 1.411-.75l1.2.696c-.522.862-1.496 1.411-2.609 1.411-1.839-.001-3.171-1.375-3.171-3.169zm10.525-1.707h-1.566v4.753h-1.393v-4.753h-1.567v-1.34h4.526v1.34zm10.843 106.459c0 .632-5.108 1.145-11.41 1.145-6.299 0-11.409-.513-11.409-1.145s5.11-1.145 11.409-1.145c6.302 0 11.41.513 11.41 1.145z"/><ellipse fill="#222" cx="468.674" cy="340.542" rx="11.41" ry="1.144"/><path fill="#80C6E8" d="M468.688 332.172c.003-.032.003-.052 0-.054v.054zm-.028 0l.002-.054c-.002.003-.002.022-.002.054z"/><path fill="#222" d="M504.219 340.542c0 .632-5.106 1.145-11.41 1.145-6.297 0-11.41-.513-11.41-1.145s5.113-1.145 11.41-1.145c6.303 0 11.41.513 11.41 1.145z"/><path fill="#666" d="M492.826 332.172v-.054.054zm-.027 0v-.054a.205.205 0 0 0 0 .054z"/><path fill="#222" d="M528.357 340.542c0 .632-5.108 1.145-11.408 1.145-6.303 0-11.41-.513-11.41-1.145s5.107-1.145 11.41-1.145c6.3 0 11.408.513 11.408 1.145zm33.26.345c0 .633-5.107 1.145-11.408 1.145-6.303 0-11.41-.512-11.41-1.145 0-.634 5.107-1.145 11.41-1.145 6.301.001 11.408.511 11.408 1.145z"/><path fill="#80C6E8" d="M550.227 332.517c0-.032 0-.052-.004-.055.002 0 .002.019.004.055zm-.031 0v-.055a.426.426 0 0 0 0 .055z"/><ellipse fill="#222" cx="574.347" cy="340.887" rx="11.408" ry="1.145"/><path fill="#80C6E8" d="M574.361 332.517a.214.214 0 0 0 0-.055v.055zm-.027 0v-.055.055z"/><path fill="#222" d="M609.893 340.887c0 .633-5.106 1.145-11.409 1.145-6.304 0-11.41-.512-11.41-1.145 0-.634 5.106-1.145 11.41-1.145 6.302.001 11.409.511 11.409 1.145zm24.136 0c0 .633-5.106 1.145-11.41 1.145-6.299 0-11.407-.512-11.407-1.145 0-.634 5.108-1.145 11.407-1.145 6.304.001 11.41.511 11.41 1.145z"/><path fill="#008DD2" d="M622.636 332.517c.003-.032.003-.052 0-.055v.055zm-.028 0v-.055a.214.214 0 0 0 0 .055z"/><path fill="#8D8AD5" d="M486.079 290.222h93.235v14.145h-93.235z"/><path fill="#222" d="M492.796 294.292h1.524l1.35 4.483 1.348-4.483h1.523l-1.984 6.094h-1.774l-1.987-6.094zm10.099 4.754v1.341h-3.831v-6.094h3.788v1.34h-2.395v1.009h2.178v1.324h-2.178v1.08h2.438zm2.837-.662h-.663v2.002h-1.392v-6.094h2.436c1.159 0 2.091.932 2.091 2.089 0 .748-.453 1.428-1.124 1.768l1.299 2.236h-1.498l-1.149-2.001zm-.662-1.218h1.045c.385 0 .696-.34.696-.783 0-.444-.312-.784-.696-.784h-1.045v1.567zm9.359.173c0 1.724-1.279 3.047-2.96 3.047h-2.438v-6.094h2.438c1.68 0 2.96 1.323 2.96 3.047zm-1.341 0c0-1.045-.662-1.707-1.619-1.707h-1.045v3.413h1.045c.957.001 1.619-.661 1.619-1.706zm3.516-3.047v6.094h-1.394v-6.094h1.394zm.785 3.047c0-1.793 1.331-3.168 3.168-3.168 1.106 0 2.082.548 2.611 1.41l-1.201.698c-.271-.472-.793-.75-1.41-.75-1.08 0-1.776.723-1.776 1.812s.696 1.812 1.776 1.812c.617 0 1.148-.279 1.41-.749l1.201.696c-.523.862-1.498 1.411-2.611 1.411-1.837-.002-3.168-1.379-3.168-3.172zm10.523-1.706h-1.568v4.754h-1.391v-4.754h-1.568v-1.34h4.527v1.34zm6.356 3.796h-2.264l-.307.958h-1.522l2.071-6.094h1.775l2.072 6.094h-1.524l-.301-.958zm-.418-1.305l-.715-2.239-.713 2.239h1.428zm7.207-1.742c0 1.158-.933 2.089-2.135 2.089h-.914v1.916h-1.393v-6.094h2.307c1.203-.001 2.135.931 2.135 2.089zm-1.393 0c0-.444-.314-.784-.74-.784h-.914v1.568h.914c.426 0 .74-.34.74-.784zm6.529 0c0 1.158-.932 2.089-2.133 2.089h-.916v1.916h-1.394v-6.094h2.31c1.202-.001 2.133.931 2.133 2.089zm-1.394 0c0-.444-.313-.784-.738-.784h-.915v1.568h.915c.425 0 .738-.34.738-.784zm4.144 2.002h-.662v2.002h-1.393v-6.094h2.438c1.158 0 2.089.932 2.089 2.089 0 .748-.453 1.428-1.122 1.768l1.297 2.236h-1.497l-1.15-2.001zm-.662-1.218h1.046c.384 0 .696-.34.696-.783 0-.444-.313-.784-.696-.784h-1.046v1.567zm3.613.173a3.142 3.142 0 0 1 3.171-3.168 3.141 3.141 0 0 1 3.168 3.168 3.143 3.143 0 0 1-3.168 3.17 3.143 3.143 0 0 1-3.171-3.17zm4.945 0c0-1.089-.782-1.812-1.774-1.812-.993 0-1.776.723-1.776 1.812s.783 1.812 1.776 1.812c.99 0 1.774-.723 1.774-1.812zm1.391-3.047h1.523l1.35 4.483 1.35-4.483h1.523l-1.984 6.094h-1.775l-1.987-6.094zm9.49 5.137h-2.264l-.306.958h-1.522l2.071-6.094h1.775l2.072 6.094h-1.523l-.303-.958zm-.417-1.305l-.715-2.239-.714 2.239h1.429zm6.337.922v1.341h-3.571v-6.094h1.395v4.753h2.176z"/><path fill="#B36FA2" d="M356.866 392.939h141.667v14.145H356.866z"/><path fill="#222" d="M377.704 400.055c0-1.792 1.332-3.167 3.169-3.167 1.106 0 2.081.548 2.612 1.41l-1.201.696c-.271-.47-.792-.75-1.411-.75-1.08 0-1.775.724-1.775 1.811 0 1.09.696 1.812 1.775 1.812.618 0 1.149-.279 1.411-.748l1.201.696c-.522.862-1.498 1.41-2.612 1.41-1.838 0-3.169-1.375-3.169-3.17zm8.487 1.047h-.661v2.001h-1.394v-6.095h2.438c1.158 0 2.09.933 2.09 2.09 0 .749-.453 1.428-1.123 1.768l1.297 2.237h-1.497l-1.15-2.001zm-.661-1.22h1.044c.384 0 .697-.34.697-.784 0-.443-.313-.783-.697-.783h-1.044v1.567zm6.703.88v2.341h-1.393v-2.341l-2.046-3.754h1.584l1.158 2.351 1.158-2.351h1.584l-2.045 3.754zm7.008-1.664c0 1.158-.931 2.089-2.133 2.089h-.914v1.916H394.8v-6.094h2.308c1.201 0 2.133.932 2.133 2.089zm-1.394 0c0-.443-.313-.783-.739-.783h-.914v1.569h.914c.426-.002.739-.342.739-.786zm6.093-.749h-1.567v4.754h-1.393v-4.754h-1.567v-1.341h4.527v1.341zm0 1.706a3.141 3.141 0 0 1 3.169-3.167 3.141 3.141 0 0 1 3.169 3.167 3.142 3.142 0 0 1-3.169 3.17 3.142 3.142 0 0 1-3.169-3.17zm4.946 0c0-1.087-.785-1.811-1.776-1.811-.993 0-1.776.724-1.776 1.811 0 1.09.783 1.812 1.776 1.812.991-.001 1.776-.722 1.776-1.812zm6.616-.957c0 1.158-.932 2.089-2.133 2.089h-.915v1.916h-1.393v-6.094h2.308c1.201 0 2.133.932 2.133 2.089zm-1.394 0c0-.443-.313-.783-.739-.783h-.915v1.569h.915c.425-.002.739-.342.739-.786zm1.785.957a3.141 3.141 0 0 1 3.169-3.167 3.141 3.141 0 0 1 3.169 3.167 3.142 3.142 0 0 1-3.169 3.17 3.142 3.142 0 0 1-3.169-3.17zm4.945 0c0-1.087-.785-1.811-1.776-1.811-.993 0-1.775.724-1.775 1.811 0 1.09.784 1.812 1.775 1.812.991-.001 1.776-.722 1.776-1.812zm5.744 1.707v1.341h-3.57v-6.094h1.394v4.755h2.176v-.002zm2.002-4.753v6.094h-1.394v-6.094h1.394zm.783 3.046c0-1.792 1.332-3.167 3.17-3.167 1.105 0 2.081.548 2.611 1.41l-1.202.696c-.271-.47-.792-.75-1.41-.75-1.081 0-1.776.724-1.776 1.811 0 1.09.695 1.812 1.776 1.812.618 0 1.148-.279 1.41-.748l1.202.696c-.523.862-1.498 1.41-2.611 1.41-1.838 0-3.17-1.375-3.17-3.17zm10.264 1.707v1.341h-3.83v-6.094h3.787v1.342h-2.395v1.008h2.179v1.323h-2.179v1.08h2.438zm6.529.384h-2.264l-.305.957h-1.524l2.072-6.094h1.774l2.072 6.094h-1.523l-.302-.957zm-.418-1.306l-.715-2.238-.713 2.238h1.428zm4.822.262h-.662v2.001h-1.393v-6.095h2.438c1.158 0 2.09.933 2.09 2.09 0 .749-.452 1.428-1.123 1.768l1.297 2.237h-1.497l-1.15-2.001zm-.662-1.22h1.045c.383 0 .696-.34.696-.784 0-.443-.313-.783-.696-.783h-1.045v1.567zm3.612.173c0-1.792 1.333-3.167 3.17-3.167 1.105 0 2.082.548 2.612 1.41l-1.2.696c-.271-.47-.795-.75-1.412-.75-1.08 0-1.777.724-1.777 1.811 0 1.09.697 1.812 1.777 1.812.617 0 1.148-.279 1.412-.748l1.2.696c-.522.862-1.499 1.41-2.612 1.41-1.837 0-3.17-1.375-3.17-3.17zm11.135-3.046v6.094h-1.394v-2.421h-1.915v2.421h-1.393v-6.094h1.393v2.334h1.915v-2.334h1.394zm2.437 0v6.094h-1.393v-6.094h1.393zm.521 0h1.523l1.35 4.484 1.35-4.484h1.523l-1.985 6.094h-1.774l-1.987-6.094zm10.1 4.753v1.341h-3.832v-6.094h3.787v1.342h-2.394v1.008h2.177v1.323h-2.177v1.08h2.439z"/><path fill="#C28CB5" d="M406.676 371.342h42.142v14.145h-42.142z"/><path fill="#222" d="M417.913 375.413v6.094h-1.394v-6.094h1.394zm2.437 1.339v1.176h2.266v1.342h-2.266v2.236h-1.392v-6.094h3.7v1.342h-2.308v-.002zm9.488 2.728c0 1.261-.923 2.15-2.265 2.15-1.349 0-2.264-.89-2.264-2.15 0-.473.131-.898.357-1.237l1.863-2.83h1.603l-1.323 1.924c1.211.096 2.029.956 2.029 2.143zm-1.393 0c0-.532-.41-.847-.871-.847-.469 0-.87.306-.87.847 0 .537.401.844.87.844.462-.001.871-.315.871-.844zm1.828 2.897l3.483-7.836h.522l-3.483 7.836h-.522zm8.966-2.897c0 1.261-.923 2.15-2.264 2.15-1.35 0-2.264-.89-2.264-2.15 0-.473.131-.898.356-1.237l1.864-2.83h1.601l-1.322 1.924c1.212.096 2.029.956 2.029 2.143zm-1.393 0c0-.532-.409-.847-.869-.847-.47 0-.87.306-.87.847 0 .537.4.844.87.844.46-.001.869-.315.869-.844z"/><path fill="#B36FA2" d="M527.709 207.562c0-1.166.927-2.103 2.104-2.103 1.179 0 2.105.937 2.105 2.103s-.927 2.105-2.105 2.105a2.093 2.093 0 0 1-2.104-2.105zm3.899 0a1.788 1.788 0 0 0-1.796-1.807 1.789 1.789 0 0 0-1.796 1.807c0 1.003.788 1.807 1.796 1.807 1.01 0 1.796-.804 1.796-1.807zm1.402-1.749v1.633h1.883v.29h-1.883v1.867h-.309v-4.081h2.262v.291h-1.953zm3.021 0v1.633h1.883v.29h-1.883v1.867h-.309v-4.081h2.263v.291h-1.954zm3.022-.291v4.081h-.31v-4.081h.31zm.781 2.04c0-1.166.881-2.103 2.121-2.103.753 0 1.412.384 1.75.978l-.274.158c-.269-.501-.834-.84-1.476-.84-1.072 0-1.813.805-1.813 1.807 0 1.003.74 1.807 1.813 1.807.646 0 1.219-.344 1.486-.856l.273.157c-.331.6-.996.997-1.759.997-1.24 0-2.121-.939-2.121-2.105zm6.962 1.749v.292h-2.35v-4.081h2.319v.292h-2.012v1.585h1.866v.292h-1.866v1.62h2.043zm2.356-1.382h-1.289v1.674h-.309v-4.081h1.609c.666 0 1.207.542 1.207 1.207 0 .554-.379 1.02-.897 1.16l1.015 1.714h-.356l-.98-1.674zm-1.289-.291h1.299a.904.904 0 0 0 .898-.909.905.905 0 0 0-.898-.915h-1.299v1.824zm2.964 1.067l.269-.158c.139.49.553.822 1.224.822.683 0 1.026-.349 1.026-.815 0-.49-.431-.677-1.055-.875-.682-.22-1.294-.413-1.294-1.124 0-.67.542-1.095 1.235-1.095.67 0 1.113.384 1.311.856l-.26.146c-.152-.367-.467-.706-1.051-.706-.565 0-.92.332-.92.788 0 .489.413.64.996.833.723.239 1.353.466 1.353 1.171 0 .676-.53 1.12-1.342 1.12-.764-.001-1.305-.386-1.492-.963zm-10.481 57.528c0-1.165.926-2.104 2.104-2.104s2.104.938 2.104 2.104-.926 2.103-2.104 2.103-2.104-.937-2.104-2.103zm3.898 0a1.788 1.788 0 0 0-1.796-1.808 1.789 1.789 0 0 0-1.795 1.808c0 1.003.787 1.807 1.795 1.807 1.01 0 1.796-.804 1.796-1.807zm1.402-1.748v1.632h1.882v.292h-1.882v1.865h-.311v-4.08h2.262v.292h-1.951zm3.022 0v1.632h1.882v.292h-1.882v1.865h-.311v-4.08h2.263v.292h-1.952zm3.02-.292v4.08h-.309v-4.08h.309zm.782 2.04c0-1.165.88-2.104 2.122-2.104.751 0 1.41.384 1.748.979l-.274.158c-.268-.501-.833-.84-1.474-.84-1.074 0-1.813.805-1.813 1.808 0 1.003.739 1.807 1.813 1.807.645 0 1.218-.344 1.486-.858l.273.158c-.333.6-.997.996-1.76.996-1.241-.001-2.121-.938-2.121-2.104zm6.962 1.748v.292h-2.35v-4.08h2.32v.292h-2.011v1.585h1.864v.291h-1.864v1.62h2.041zm2.356-1.381H560.5v1.673h-.309v-4.08h1.609a1.21 1.21 0 0 1 1.207 1.207c0 .554-.379 1.02-.896 1.16l1.014 1.713h-.355l-.982-1.673zm-1.288-.291h1.299a.904.904 0 0 0 .898-.91.906.906 0 0 0-.898-.915H560.5v1.825zm2.963 1.067l.268-.158c.141.49.553.822 1.225.822.682 0 1.025-.35 1.025-.816 0-.489-.431-.675-1.055-.875-.682-.22-1.295-.413-1.295-1.124 0-.67.543-1.095 1.236-1.095.67 0 1.113.384 1.313.856l-.262.146c-.151-.368-.467-.706-1.051-.706-.564 0-.921.332-.921.787 0 .49.414.641.997.834.723.238 1.353.465 1.353 1.171 0 .676-.53 1.118-1.341 1.118-.764 0-1.305-.383-1.492-.96zm81.787 62.426c0-1.165.927-2.104 2.104-2.104 1.178 0 2.104.938 2.104 2.104s-.927 2.104-2.104 2.104a2.091 2.091 0 0 1-2.104-2.104zm3.899 0a1.788 1.788 0 0 0-1.796-1.807c-1.008 0-1.796.805-1.796 1.807s.787 1.808 1.796 1.808 1.796-.806 1.796-1.808zm1.401-1.749v1.632h1.884v.292h-1.884v1.865h-.308v-4.081h2.262v.292h-1.954zm3.022 0v1.632h1.882v.292h-1.882v1.865h-.31v-4.081h2.262v.292h-1.952zm3.021-.292v4.081h-.309v-4.081h.309zm.781 2.041c0-1.165.881-2.104 2.122-2.104.752 0 1.412.385 1.749.979l-.273.157c-.269-.5-.834-.838-1.476-.838-1.072 0-1.813.805-1.813 1.807s.74 1.808 1.813 1.808c.646 0 1.218-.345 1.486-.858l.273.157c-.331.601-.997.998-1.76.998-1.24-.001-2.121-.94-2.121-2.106zm6.962 1.748v.293h-2.349v-4.081h2.318v.293h-2.011v1.585h1.865v.291h-1.865v1.619h2.042zm2.356-1.381h-1.288v1.674h-.309v-4.081h1.608a1.21 1.21 0 0 1 1.208 1.207c0 .554-.379 1.02-.897 1.161l1.014 1.713h-.355l-.981-1.674zm-1.288-.292h1.299a.903.903 0 0 0 .897-.909.907.907 0 0 0-.897-.916h-1.299v1.825zm2.963 1.068l.269-.157c.14.49.554.822 1.224.822.683 0 1.027-.35 1.027-.816 0-.49-.432-.677-1.055-.875-.683-.221-1.295-.414-1.295-1.125 0-.668.542-1.095 1.235-1.095.67 0 1.114.385 1.312.856l-.261.146c-.151-.367-.468-.705-1.051-.705-.564 0-.92.332-.92.787 0 .488.414.64.997.835.722.237 1.353.464 1.353 1.171 0 .676-.531 1.118-1.343 1.118-.763 0-1.304-.385-1.492-.962z"/><path fill="#8D8AD5" d="M357.098 413.888h141.667v14.146H357.098z"/><path fill="#222" d="M416.534 423.095h-2.264l-.305.957h-1.523l2.072-6.093h1.775l2.072 6.093h-1.523l-.304-.957zm-.418-1.305l-.714-2.239-.714 2.239h1.428zm7.208-1.742c0 1.158-.931 2.089-2.133 2.089h-.915v1.915h-1.394v-6.093h2.309c1.202-.001 2.133.932 2.133 2.089zm-1.393 0c0-.444-.313-.782-.739-.782h-.915v1.566h.915c.426 0 .739-.34.739-.784zm6.529 0c0 1.158-.933 2.089-2.134 2.089h-.915v1.915h-1.393v-6.093h2.308c1.203-.001 2.134.932 2.134 2.089zm-1.394 0c0-.444-.313-.782-.739-.782h-.915v1.566h.915c.427 0 .739-.34.739-.784zm5.92 2.664v1.34h-3.832v-6.093h3.788v1.34h-2.394v1.009h2.177v1.324h-2.177v1.08h2.438zm4.44.383h-2.264l-.305.957h-1.524l2.072-6.093h1.776l2.072 6.093h-1.523l-.304-.957zm-.418-1.305l-.715-2.239-.712 2.239h1.427zm6.336.922v1.34h-3.569v-6.093h1.394v4.753h2.175z"/><path fill="#D0A967" d="M439.41 142.279a4.339 4.339 0 0 0-4.35 4.341c-.012 2.395 1.938 4.348 4.344 4.352 2.397.007 4.346-1.944 4.348-4.348a4.344 4.344 0 0 0-4.342-4.345z"/><path fill="#222" d="M438.252 147.054c0 .358-.098.637-.291.838-.192.201-.453.301-.775.301-.323 0-.58-.1-.772-.301-.194-.201-.289-.48-.289-.838v-.853c0-.356.095-.636.289-.839.191-.204.448-.304.77-.304s.578.101.775.304c.194.204.293.483.293.839v.853zm-.593-.86c0-.218-.042-.383-.124-.495-.079-.111-.195-.167-.352-.167s-.274.055-.352.166c-.078.111-.118.276-.118.497v.86c0 .222.041.388.12.499.081.11.198.166.353.166a.403.403 0 0 0 .35-.166c.081-.11.124-.276.124-.499l-.001-.861zm2.611.689h-1.032v1.267h-.599v-3.048h1.813v.474h-1.214v.832h1.032v.475zm2.405.285l.007.012c.004.334-.077.586-.237.757-.159.171-.399.255-.717.255-.313 0-.565-.096-.756-.29-.188-.193-.282-.468-.282-.822v-.911c0-.352.092-.625.275-.821.18-.193.424-.292.73-.292.324 0 .566.086.733.259.167.174.25.43.257.77l-.007.012h-.574c.009-.201-.019-.346-.081-.433-.063-.089-.173-.133-.328-.133a.353.353 0 0 0-.309.158c-.07.104-.105.264-.105.476v.916c0 .214.038.374.113.48a.389.389 0 0 0 .333.157c.145 0 .245-.042.301-.125.057-.083.083-.225.074-.425h.573z"/><path fill="#D0A967" d="M421.64 203.025a4.343 4.343 0 0 0-4.351 4.342c-.011 2.394 1.939 4.348 4.343 4.352a4.348 4.348 0 0 0 .008-8.694z"/><path fill="#222" d="M420.481 207.801c0 .356-.096.637-.291.837-.192.201-.453.302-.774.302-.323 0-.58-.101-.773-.302-.194-.2-.289-.48-.289-.837v-.854c0-.357.095-.635.289-.839.192-.204.448-.305.77-.305s.58.101.776.305c.195.204.292.482.292.839v.854zm-.592-.86c0-.218-.042-.383-.122-.495a.407.407 0 0 0-.353-.167c-.157 0-.274.055-.353.167s-.118.276-.118.496v.86c0 .222.04.387.12.498a.41.41 0 0 0 .353.165.41.41 0 0 0 .351-.165c.08-.11.122-.275.122-.498v-.861zm2.611.689h-1.033v1.267h-.599v-3.049h1.814v.474h-1.215v.832h1.033v.476zm2.405.285l.007.011c.005.335-.078.586-.238.758-.159.17-.399.255-.717.255-.313 0-.565-.097-.754-.29-.188-.193-.283-.467-.283-.821v-.912c0-.351.092-.625.274-.821.18-.193.424-.292.732-.292.322 0 .566.087.733.26.167.173.249.429.257.769l-.008.012h-.573c.009-.201-.019-.345-.082-.433-.061-.089-.172-.133-.327-.133a.355.355 0 0 0-.309.157c-.071.104-.106.264-.106.477v.915c0 .214.038.374.113.48a.392.392 0 0 0 .333.156c.146 0 .245-.042.302-.124.056-.083.082-.226.074-.425l.572.001z"/><path fill="#D0A967" d="M349.831 263.688a4.34 4.34 0 0 0-4.351 4.34c-.01 2.396 1.94 4.348 4.344 4.352 2.398.007 4.346-1.944 4.348-4.348a4.341 4.341 0 0 0-4.341-4.344z"/><path fill="#222" d="M348.672 268.463c0 .358-.097.638-.291.839-.193.201-.453.3-.774.3-.323 0-.58-.1-.772-.3-.194-.201-.289-.48-.289-.839v-.853c0-.357.095-.635.289-.839.192-.203.448-.304.77-.304s.579.101.776.304c.195.204.292.482.292.839l-.001.853zm-.591-.86c0-.218-.042-.382-.123-.495a.407.407 0 0 0-.353-.167c-.157 0-.275.055-.352.165-.078.111-.118.277-.118.496v.86c0 .222.04.389.12.499a.41.41 0 0 0 .353.165.404.404 0 0 0 .35-.165c.081-.11.123-.277.123-.499v-.859zm2.61.688h-1.033v1.268h-.598v-3.048h1.813v.475h-1.215v.831h1.033v.474zm2.405.286l.008.013c.004.333-.078.586-.239.757-.159.171-.398.255-.716.255-.313 0-.565-.096-.755-.289-.188-.194-.282-.468-.282-.822v-.912c0-.352.091-.626.274-.821.181-.194.425-.292.731-.292.323 0 .566.085.733.259.166.174.25.43.257.77l-.007.012h-.574c.009-.201-.019-.346-.081-.433-.062-.09-.173-.133-.328-.133a.347.347 0 0 0-.308.158c-.071.104-.106.263-.106.476v.916c0 .214.038.374.113.479a.387.387 0 0 0 .333.157c.145 0 .245-.042.301-.124.057-.083.083-.225.074-.426h.572z"/><path fill="#D0A967" d="M527.591 263.926a4.34 4.34 0 0 0-4.349 4.34c-.012 2.395 1.938 4.348 4.343 4.353a4.35 4.35 0 0 0 4.349-4.348 4.345 4.345 0 0 0-4.343-4.345z"/><path fill="#222" d="M526.433 268.701c0 .356-.097.638-.29.838s-.453.301-.774.301c-.323 0-.581-.101-.772-.301-.194-.2-.289-.482-.289-.838v-.854c0-.356.095-.635.289-.837.191-.205.447-.305.77-.305.321 0 .578.101.775.305.193.202.292.48.292.837v.854zm-.593-.86c0-.219-.041-.383-.123-.495-.078-.111-.195-.167-.352-.167-.157 0-.274.056-.353.167-.077.11-.118.275-.118.496v.86c0 .222.041.387.121.499a.41.41 0 0 0 .353.165.407.407 0 0 0 .35-.165c.081-.111.124-.276.124-.499l-.002-.861zm2.611.69h-1.031v1.267h-.6v-3.048h1.814v.474h-1.215v.831h1.031v.476h.001zm2.404.284l.008.011c.004.336-.078.588-.237.759-.16.17-.399.255-.717.255-.313 0-.565-.097-.755-.289-.189-.194-.283-.468-.283-.822v-.912c0-.352.092-.625.274-.821.181-.194.425-.292.731-.292.323 0 .567.086.733.259s.249.43.257.77l-.008.011h-.572c.008-.2-.02-.345-.082-.433s-.173-.132-.327-.132a.349.349 0 0 0-.308.157c-.071.104-.107.263-.107.476v.915c0 .215.039.375.113.48a.39.39 0 0 0 .334.157c.145 0 .244-.041.301-.124s.082-.225.074-.425h.571z"/><path fill="#D0A967" d="M244.196 325.49a4.342 4.342 0 0 0-4.351 4.34c-.011 2.396 1.94 4.349 4.344 4.353 2.398.006 4.346-1.944 4.349-4.349a4.34 4.34 0 0 0-4.342-4.344z"/><path fill="#222" d="M243.038 330.264c0 .358-.097.638-.291.839-.193.201-.453.301-.774.301-.323 0-.58-.1-.773-.301-.194-.201-.289-.48-.289-.839v-.853c0-.356.095-.636.289-.839.193-.202.448-.304.77-.304.321 0 .579.102.775.304.195.203.293.482.293.839v.853zm-.592-.86c0-.217-.042-.382-.123-.493-.079-.112-.196-.168-.353-.168s-.274.056-.352.165c-.078.11-.118.276-.118.496v.86c0 .222.041.39.12.499.08.11.197.165.353.165a.404.404 0 0 0 .35-.165c.081-.109.123-.277.123-.499v-.86zm2.61.689h-1.032v1.266h-.598v-3.047h1.813v.476h-1.214v.831h1.032l-.001.474zm2.405.284l.008.014c.004.334-.078.586-.239.757-.159.17-.398.255-.717.255-.313 0-.564-.096-.755-.288-.188-.194-.282-.469-.282-.823v-.912c0-.352.091-.627.274-.821.18-.194.424-.291.73-.291.323 0 .567.085.733.258.166.175.25.429.256.769l-.006.014h-.574c.009-.201-.019-.345-.082-.433-.062-.089-.172-.133-.327-.133a.35.35 0 0 0-.309.158c-.071.104-.106.264-.106.474v.917c0 .214.038.374.113.479a.386.386 0 0 0 .333.157c.146 0 .245-.041.301-.125.057-.079.083-.224.074-.425l.575-.001z"/><path fill="#D0A967" d="M316.367 325.49a4.342 4.342 0 0 0-4.351 4.34c-.01 2.396 1.94 4.349 4.344 4.353 2.397.006 4.346-1.944 4.348-4.349a4.34 4.34 0 0 0-4.341-4.344z"/><path fill="#222" d="M315.209 330.264c0 .358-.097.638-.291.839-.193.201-.453.301-.774.301-.323 0-.58-.1-.772-.301-.194-.201-.289-.48-.289-.839v-.853c0-.356.095-.636.289-.839.192-.202.448-.304.77-.304s.579.102.776.304c.194.203.292.482.292.839v.853zm-.593-.86c0-.217-.042-.382-.122-.493-.079-.112-.196-.168-.353-.168s-.274.056-.352.165c-.078.11-.117.276-.117.496v.86c0 .222.04.39.12.499a.41.41 0 0 0 .353.165.404.404 0 0 0 .35-.165c.081-.109.123-.277.123-.499l-.002-.86zm2.611.689h-1.033v1.266h-.598v-3.047h1.813v.476h-1.215v.831h1.033v.474zm2.406.284l.007.014c.004.334-.078.586-.239.757-.159.17-.398.255-.716.255-.313 0-.565-.096-.755-.288-.188-.194-.282-.469-.282-.823v-.912c0-.352.092-.627.274-.821.18-.194.424-.291.731-.291.323 0 .566.085.733.258.166.175.25.429.257.769l-.007.014h-.573c.009-.201-.019-.345-.082-.433-.062-.089-.172-.133-.328-.133a.349.349 0 0 0-.308.158c-.071.104-.106.264-.106.474v.917c0 .214.038.374.113.479a.387.387 0 0 0 .333.157c.145 0 .245-.041.301-.125.057-.079.083-.224.074-.425l.573-.001z"/><path fill="#D0A967" d="M397.903 325.49a4.341 4.341 0 0 0-4.35 4.34c-.011 2.396 1.939 4.349 4.344 4.353 2.397.006 4.346-1.944 4.348-4.349a4.341 4.341 0 0 0-4.342-4.344z"/><path fill="#222" d="M396.745 330.264c0 .358-.097.638-.291.839s-.453.301-.775.301-.58-.1-.772-.301c-.193-.201-.289-.48-.289-.839v-.853c0-.356.095-.636.289-.839.193-.202.449-.304.77-.304s.579.102.775.304c.194.203.292.482.292.839v.853h.001zm-.593-.86c0-.217-.042-.382-.123-.493-.079-.112-.196-.168-.353-.168s-.274.056-.353.165c-.078.11-.118.276-.118.496v.86c0 .222.04.39.12.499a.41.41 0 0 0 .353.165.404.404 0 0 0 .35-.165c.081-.109.123-.277.123-.499v-.86zm2.611.689h-1.033v1.266h-.599v-3.047h1.813v.476h-1.215v.831h1.033v.474zm2.405.284l.007.014c.003.334-.078.586-.239.757-.159.17-.399.255-.717.255-.313 0-.565-.096-.755-.288-.188-.194-.282-.469-.282-.823v-.912c0-.352.091-.627.274-.821.181-.194.425-.291.731-.291.322 0 .566.085.733.258.166.175.25.429.256.769l-.006.014h-.574c.009-.201-.019-.345-.081-.433-.062-.089-.173-.133-.328-.133a.35.35 0 0 0-.309.158c-.071.104-.106.264-.106.474v.917c0 .214.038.374.113.479a.386.386 0 0 0 .333.157c.146 0 .245-.041.301-.125.057-.079.083-.224.075-.425l.574-.001z"/><path fill="#D0A967" d="M479.642 325.49a4.34 4.34 0 0 0-4.351 4.34c-.012 2.396 1.939 4.349 4.344 4.353 2.398.006 4.346-1.944 4.349-4.349a4.342 4.342 0 0 0-4.342-4.344z"/><path fill="#222" d="M478.482 330.264c0 .358-.096.638-.29.839-.192.201-.453.301-.774.301-.322 0-.58-.1-.772-.301-.194-.201-.289-.48-.289-.839v-.853c0-.356.095-.636.289-.839.192-.202.447-.304.77-.304.321 0 .579.102.775.304.195.203.292.482.292.839v.853zm-.591-.86c0-.217-.042-.382-.123-.493-.079-.112-.196-.168-.353-.168-.157 0-.274.056-.352.165-.078.11-.118.276-.118.496v.86c0 .222.04.39.119.499.082.11.197.165.354.165a.408.408 0 0 0 .351-.165c.079-.109.122-.277.122-.499v-.86zm2.609.689h-1.031v1.266h-.6v-3.047h1.814v.476h-1.215v.831h1.032v.474zm2.406.284l.008.014c.005.334-.078.586-.238.757-.159.17-.398.255-.717.255-.313 0-.564-.096-.755-.288-.188-.194-.282-.469-.282-.823v-.912c0-.352.092-.627.274-.821.18-.194.424-.291.731-.291.322 0 .566.085.733.258.167.175.249.429.257.769l-.008.014h-.573c.009-.201-.019-.345-.081-.433-.061-.089-.172-.133-.328-.133a.351.351 0 0 0-.309.158c-.07.104-.105.264-.105.474v.917c0 .214.037.374.113.479a.388.388 0 0 0 .332.157c.146 0 .245-.041.303-.125.057-.079.081-.224.074-.425l.571-.001z"/><path fill="#D0A967" d="M561.176 325.49a4.34 4.34 0 0 0-4.35 4.34c-.011 2.396 1.939 4.349 4.344 4.353 2.398.006 4.346-1.944 4.349-4.349a4.343 4.343 0 0 0-4.343-4.344z"/><path fill="#222" d="M560.018 330.264c0 .358-.097.638-.289.839-.193.201-.453.301-.775.301s-.58-.1-.773-.301-.288-.48-.288-.839v-.853c0-.356.095-.636.288-.839.191-.202.449-.304.771-.304s.578.102.774.304c.195.203.293.482.293.839v.853zm-.592-.86c0-.217-.042-.382-.123-.493-.079-.112-.196-.168-.353-.168-.157 0-.274.056-.353.165-.077.11-.117.276-.117.496v.86c0 .222.04.39.119.499a.41.41 0 0 0 .354.165.405.405 0 0 0 .35-.165c.08-.109.123-.277.123-.499v-.86zm2.61.689h-1.032v1.266h-.599v-3.047h1.814v.476h-1.215v.831h1.032v.474zm2.405.284l.008.014c.004.334-.078.586-.238.757-.16.17-.398.255-.717.255-.313 0-.564-.096-.756-.288-.188-.194-.282-.469-.282-.823v-.912c0-.352.093-.627.274-.821.181-.194.425-.291.73-.291.324 0 .568.085.734.258.166.175.25.429.257.769l-.007.014h-.573c.009-.201-.019-.345-.081-.433-.063-.089-.174-.133-.328-.133a.35.35 0 0 0-.309.158c-.07.104-.105.264-.105.474v.917c0 .214.037.374.113.479a.388.388 0 0 0 .332.157c.146 0 .245-.041.301-.125.058-.079.084-.224.076-.425l.571-.001z"/><path fill="#D0A967" d="M633.589 325.49a4.34 4.34 0 0 0-4.349 4.34 4.347 4.347 0 0 0 8.692.004 4.343 4.343 0 0 0-4.343-4.344z"/><path fill="#222" d="M632.431 330.264c0 .358-.097.638-.29.839s-.453.301-.774.301c-.323 0-.581-.1-.772-.301-.193-.201-.289-.48-.289-.839v-.853c0-.356.096-.636.289-.839.191-.202.446-.304.77-.304.321 0 .578.102.775.304.194.203.292.482.292.839v.853zm-.593-.86c0-.217-.041-.382-.123-.493-.078-.112-.195-.168-.352-.168-.157 0-.274.056-.353.165-.077.11-.117.276-.117.496v.86c0 .222.04.39.12.499.08.11.197.165.353.165a.405.405 0 0 0 .35-.165c.081-.109.123-.277.123-.499l-.001-.86zm2.611.689h-1.031v1.266h-.6v-3.047h1.813v.476h-1.214v.831h1.031v.474h.001zm2.405.284l.009.014c.003.334-.078.586-.238.757-.16.17-.399.255-.717.255-.313 0-.565-.096-.756-.288-.188-.194-.282-.469-.282-.823v-.912c0-.352.092-.627.274-.821.181-.194.425-.291.731-.291.323 0 .567.085.733.258.167.175.249.429.257.769l-.008.014h-.572c.008-.201-.02-.345-.082-.433-.062-.089-.173-.133-.328-.133a.35.35 0 0 0-.308.158c-.071.104-.106.264-.106.474v.917c0 .214.038.374.113.479a.386.386 0 0 0 .333.157c.146 0 .245-.041.302-.125.057-.079.082-.224.074-.425l.571-.001z"/><g fill="#FFF"><path d="M426.792 428.031h.972v1.458h-.972zm0 4.404h.972v2.947h-.972zm0 5.893h.972v2.946h-.972zm0 11.783h.972v2.946h-.972zm0-5.892h.972v2.945h-.972zm.971 11.783h-.971v1.946h1.943v-.974h-.972zm154.508.972h2.898v.974h-2.898zm-5.792 0h2.897v.974h-2.897zm-5.795 0h2.897v.974h-2.897zm23.173 0h2.898v.974h-2.898zm-5.792 0h2.897v.974h-2.897zm-23.174 0h2.896v.974h-2.896zm-11.588 0h2.898v.974h-2.898zm-11.588 0h2.896v.974h-2.896zm17.381 0h2.897v.974h-2.897zm-11.586 0h2.896v.974h-2.896zm86.906 0h2.897v.974h-2.897zm5.794 0h2.897v.974h-2.897zm5.794 0h2.896v.974h-2.896zm-46.35 0h2.896v.974h-2.896zm28.967 0h2.898v.974h-2.898zm-17.38 0h2.897v.974h-2.897zm11.587 0h2.897v.974h-2.897zm-17.381 0h2.896v.974h-2.896zm11.586 0h2.898v.974h-2.898zm-121.668 0h2.896v.974h-2.896zm-34.763 0h2.896v.974h-2.896zm5.794 0h2.897v.974h-2.897zm5.793 0h2.896v.974h-2.896zm5.793 0h2.897v.974h-2.897zm5.795 0h2.896v.974h-2.896zm-28.969 0h2.897v.974h-2.897zm-11.587 0h2.896v.974h-2.896zm-5.795 0h2.897v.974h-2.897zm11.588 0h2.896v.974h-2.896zm86.907 0h2.897v.974h-2.897zm-11.587 0h2.896v.974h-2.896zm-5.794 0h2.897v.974h-2.897zm-5.794 0h2.897v.974h-2.897zm17.381 0h2.896v.974h-2.896zm-98.495 0h2.897v.974h-2.897zm57.938 0h2.897v.974h-2.897zm11.589 0h2.896v.974h-2.896zm150.639 0h2.896v.974h-2.896zm-144.846 0h2.896v.974h-2.896zm150.64 0h2.897v.974h-2.897zm5.794 0h2.897v.974h-2.897zm5.794 0h2.896v.974h-2.896zm6.765 0h-.972v.974h1.944v-1.946h-.972zm0-135.168h.972v2.917h-.972zm0 46.676h.972v2.919h-.972zm0-52.511h.972v2.917h-.972zm0 11.67h.972v2.917h-.972zm0-23.34h.972v2.918h-.972zm0 52.514h.972v2.916h-.972zm0 5.834h.972v2.918h-.972zm0-11.67h.972v2.918h-.972zm0-17.504h.972v2.917h-.972zm0 11.67h.972v2.918h-.972zm0-5.836h.972v2.918h-.972zm0-29.173h.972v2.918h-.972zm0-11.669h.972v2.917h-.972zm0-40.842h.972v2.917h-.972zm0-11.67h.972v2.918h-.972zm0 17.504h.972v2.917h-.972zm0-23.339h.972v2.917h-.972zm0 11.67h.972v2.917h-.972zm0 35.008h.972v2.917h-.972zm0 5.835h.972v2.917h-.972zm0-17.505h.972v2.918h-.972zm0 5.835h.972v2.918h-.972zm0-11.67h.972v2.918h-.972zm0 105.025h.972v2.918h-.972zm0 58.347h.972v2.918h-.972zm0-5.835h.972v2.918h-.972zm0-5.834h.972v2.916h-.972zm0 23.337h.972v2.917h-.972zm0-5.833h.972v2.916h-.972zm0-23.339h.972v2.917h-.972zm0 35.007h.972v2.918h-.972zm0-64.181h.972v2.918h-.972zm0-5.834h.972v2.916h-.972zm0 11.67h.972v2.917h-.972zm0 17.503h.972v2.917h-.972zm0-5.834h.972v2.917h-.972zm0-5.835h.972v2.918h-.972zm-.972-162.398v.971h.972v.973h.972v-1.944zm-185.746 0h2.902v.972h-2.902zm58.044 0h2.902v.972h-2.902zm-63.849 0h2.901v.972h-2.901zm87.068 0h2.902v.972h-2.902zm-29.023 0h2.902v.972h-2.902zm-63.85 0h2.902v.972h-2.902zm87.069 0h2.902v.972h-2.902zm-92.873 0h2.902v.972h-2.902zm87.068 0h2.902v.972h-2.902zm-46.436 0h2.901v.972h-2.901zm5.804 0h2.901v.972h-2.901zm58.046 0h2.902v.972h-2.902zm-69.654 0h2.901v.972h-2.901zm17.413 0h2.901v.972h-2.901zm11.609 0h2.901v.972h-2.901zm-40.632 0h2.901v.972h-2.901zm34.827 0h2.901v.972h-2.901zm-29.022 0h2.902v.972h-2.902zm127.7 0h2.901v.972h-2.901zm29.024 0h2.901v.972h-2.901zm-34.828 0h2.901v.972h-2.901zm-17.414 0h2.902v.972h-2.902zm5.805 0h2.902v.972h-2.902zm5.804 0h2.901v.972h-2.901zm17.414 0h2.901v.972h-2.901zm34.827 0h2.902v.972h-2.902zm-5.805 0h2.902v.972h-2.902zm-110.287 0h2.902v.972h-2.902zm87.07 0h2.901v.972h-2.901zm-58.046 0h2.902v.972H582.1zm63.85 0h2.902v.972h-2.902zm-46.436 0h2.902v.972h-2.902zm52.241 0h2.901v.972h-2.901zm-63.851 0h2.902v.972h-2.902zm5.804 0h2.902v.972h-2.902zm-126.256 0h1.457v.972h-1.457zm-210.585 76.446v5.516h.487v-5.516h23.664v5.516h.486v-5.516h23.425v5.516h.972v-5.516h32.335v5.516h.486v-5.516h23.622v5.516h.487v-5.516h23.42v5.516h.973v-5.762h23.424v5.762h.486v-6.003h-.243v-.244h-24.153v-.242H322.72v-6.365h-.972v6.365h-16.364v.486h-.001v-.486h-72.41v.486h-.456v6.003h.971v-5.516zm81.527-27.487h.972v6.004h-.972zm.524-94.575h23.623v5.759h.485v-5.759h23.666v5.759h.486v-5.759h23.425v5.759h.971v-5.516h16.333v-.243h16.003v5.759h.486v-5.759h23.621v5.759h.485v-5.759h23.667v5.759h.486v-5.759h23.667v5.759h.487V189.4h-.274v-.243h-88.141v-6.609h-.973v6.366h-16.363v.243h-72.412v.243h-.213v6.002h.485zm.447 59.933h23.379v5.519h.485v-5.519h23.665v5.519h.486v-5.519h23.669v5.519h.486v-5.519h32.578v5.519h.486v-5.519h23.622v5.519h.485v-5.519h23.666v5.519h.485v-5.519h23.426v5.519h.972v-6.006h-.517v-.485h-88.144v-5.786h-.972v5.786h-88.773v.485h-.455v6.006h.971zm71.207-26.909h.972v6.005h-.972zm212.354 94.554v-6.003h-.515v-.486h-72.413v.486h-.002v-.486h-15.728v-6.365h-.973v6.365H468.66v.242h-24.108v.244l-.272.001.03 6.003.485-.002-.027-5.761h23.406v5.762h.972v-5.516h23.421v5.516h.486v-5.516h23.669v5.516h.485v-5.516h32.338v5.516h.971v-5.516h23.38v5.516h.486v-5.516h23.663v5.516h.484v-5.516h23.426v5.516zm-106.447-33.003h.973v6.004h-.973zM232.487 345h.972v5.426h-.972zm153.764 0h.972v5.426h-.972zm-81.322 0h.972v5.426h-.972zm163.245 0h.973v5.426h-.973zm153.978 0h.971v5.426h-.971zm-72.443 0h.971v5.426h-.971zm-122.492 40.487h.973v7.452h-.973zm.229-14.145h.971v-12.888h179.446v-.972H240.685v.972h186.761zm0-209.84h.972v6.852h-.972zm.005 245.581h.973v6.805h-.973z"/><path d="M467.744 233.339l-.688-.687-3.092 3.092 3.092 3.093.688-.687-2.406-2.406z"/></g><path fill="#D0A967" d="M439.41 142.279a4.34 4.34 0 0 0-4.35 4.342c-.012 2.394 1.938 4.348 4.344 4.351 2.397.007 4.346-1.944 4.348-4.348a4.344 4.344 0 0 0-4.342-4.345z"/><path fill="#222" d="M437.479 146.972c0 .286-.078.512-.233.673-.156.162-.365.243-.625.243-.259 0-.467-.081-.621-.243-.153-.162-.231-.387-.231-.673v-.688c0-.286.078-.512.231-.675.154-.164.361-.246.621-.246s.467.082.625.246c.156.163.235.389.235.675l-.002.688zm-.476-.693c0-.177-.034-.31-.097-.399-.066-.089-.162-.134-.287-.134s-.22.045-.283.134c-.062.087-.093.222-.093.399v.693c0 .178.032.311.095.4a.326.326 0 0 0 .282.133.332.332 0 0 0 .285-.133c.063-.089.097-.222.097-.4v-.693zm2.104.554h-.835v1.019h-.479v-2.455h1.459v.384h-.98v.668h.834l.001.384zm1.938.23l.005.01c.002.269-.063.472-.192.611-.131.137-.322.205-.576.205s-.457-.078-.608-.233c-.152-.156-.228-.376-.228-.664v-.733c0-.284.072-.505.219-.661.146-.157.344-.236.59-.236.26 0 .459.069.592.209.133.139.201.346.207.619l-.006.01h-.463c.008-.162-.016-.277-.066-.349-.051-.071-.139-.106-.264-.106a.283.283 0 0 0-.248.126c-.057.083-.086.213-.086.383v.736c0 .173.03.302.093.388.061.083.149.125.269.125.117 0 .197-.032.242-.101.045-.066.064-.18.059-.342h.463v.003h-.002zm.774-.187v.976h-.479V145.4h.802c.24 0 .43.065.568.192.14.126.208.305.208.531 0 .128-.03.239-.087.332s-.141.167-.25.22a.48.48 0 0 1 .271.213.761.761 0 0 1 .082.372v.173c0 .068.01.14.023.216a.303.303 0 0 0 .084.169v.034h-.496c-.04-.035-.064-.095-.074-.174a1.699 1.699 0 0 1-.016-.249v-.166a.478.478 0 0 0-.074-.287.259.259 0 0 0-.216-.101h-.346zm0-.381h.321c.096 0 .172-.03.222-.091a.385.385 0 0 0 .077-.254.437.437 0 0 0-.077-.268c-.05-.066-.124-.098-.22-.098h-.323v.711z"/><path fill="#D0A967" d="M421.64 203.026a4.34 4.34 0 0 0-4.351 4.34c-.011 2.395 1.939 4.348 4.343 4.352a4.347 4.347 0 0 0 4.349-4.348 4.342 4.342 0 0 0-4.341-4.344z"/><path fill="#222" d="M419.71 207.718c0 .287-.077.512-.233.674-.156.162-.365.242-.625.242-.258 0-.467-.08-.621-.242-.154-.162-.232-.387-.232-.674v-.688c0-.287.078-.512.232-.675.154-.164.362-.246.62-.246a.83.83 0 0 1 .626.246c.155.163.234.389.234.675l-.001.688zm-.476-.693c0-.176-.033-.309-.097-.398a.332.332 0 0 0-.287-.135c-.124 0-.221.044-.282.134-.062.088-.094.222-.094.399v.694c0 .177.032.311.096.399.063.089.16.134.282.134.125 0 .22-.045.286-.134.063-.088.097-.222.097-.399v-.694h-.001zm2.103.556h-.834v1.019h-.479v-2.455h1.46v.383h-.981v.668h.834v.385zm1.939.228l.004.011c.002.27-.063.472-.191.61-.132.137-.324.205-.578.205-.253 0-.458-.077-.608-.233-.152-.156-.227-.376-.227-.663v-.734c0-.283.072-.504.218-.66.147-.158.344-.237.59-.237.259 0 .458.07.59.209s.202.346.207.62l-.005.01h-.462c.006-.162-.016-.278-.065-.35-.052-.071-.14-.106-.265-.106a.283.283 0 0 0-.249.126c-.057.084-.085.213-.085.383v.737c0 .173.029.302.092.386.061.084.15.126.269.126.117 0 .197-.034.241-.101.047-.066.067-.181.06-.342h.463l.001.003zm.774-.185v.976h-.478v-2.453h.802c.24 0 .431.063.569.191.139.128.207.306.207.533a.577.577 0 0 1-.337.552.472.472 0 0 1 .271.213.737.737 0 0 1 .083.372v.173c0 .067.009.14.024.216s.044.133.083.168v.035h-.497c-.039-.036-.063-.095-.073-.176a1.82 1.82 0 0 1-.015-.247v-.167a.47.47 0 0 0-.076-.286.251.251 0 0 0-.214-.101h-.349zm0-.383h.321c.098 0 .173-.031.222-.09a.38.38 0 0 0 .078-.254.425.425 0 0 0-.078-.268c-.049-.067-.124-.1-.22-.1h-.323v.712z"/><path fill="#D0A967" d="M349.831 263.688a4.34 4.34 0 0 0-4.351 4.341c-.01 2.395 1.94 4.348 4.344 4.351 2.398.007 4.346-1.944 4.348-4.348a4.341 4.341 0 0 0-4.341-4.344z"/><path fill="#222" d="M347.901 268.38c0 .286-.077.512-.234.673-.156.162-.364.243-.625.243-.258 0-.467-.081-.621-.243s-.232-.387-.232-.673v-.688c0-.286.078-.512.232-.676.154-.163.361-.244.62-.244.26 0 .467.081.625.244.156.164.234.39.234.676v.688zm-.476-.693c0-.176-.034-.309-.097-.397a.336.336 0 0 0-.287-.135.327.327 0 0 0-.283.135c-.062.087-.093.222-.093.397v.693c0 .178.032.311.095.4.064.089.159.133.283.133.125 0 .22-.043.285-.133.063-.089.097-.223.097-.4v-.693zm2.103.555h-.835v1.02h-.479v-2.455h1.46v.384h-.981v.668h.835v.383zm1.938.229l.005.01c.001.27-.063.472-.192.611-.132.137-.323.205-.577.205s-.458-.078-.609-.234c-.152-.155-.227-.375-.227-.663v-.732c0-.285.072-.505.218-.662.148-.157.344-.235.591-.235.259 0 .457.068.59.208.133.139.202.346.207.619l-.005.01h-.462c.006-.162-.016-.277-.066-.35-.051-.07-.139-.105-.265-.105a.284.284 0 0 0-.249.127c-.057.083-.085.213-.085.383v.736c0 .172.029.302.092.387.06.084.149.125.269.125.116 0 .197-.032.241-.101.046-.066.066-.181.061-.342l.463.003zm.775-.185v.976h-.479v-2.453h.801c.241 0 .43.065.568.192.139.127.207.305.207.531a.618.618 0 0 1-.087.332.571.571 0 0 1-.25.221.476.476 0 0 1 .272.212.754.754 0 0 1 .083.373v.172c0 .069.008.142.023.216a.302.302 0 0 0 .083.169v.034h-.497c-.04-.036-.065-.095-.074-.174a1.86 1.86 0 0 1-.015-.249v-.166a.469.469 0 0 0-.075-.287.255.255 0 0 0-.215-.101l-.345.002zm0-.382h.32c.097 0 .173-.03.223-.091a.383.383 0 0 0 .077-.254.437.437 0 0 0-.077-.268c-.049-.067-.124-.099-.22-.099h-.322v.712z"/><path fill="#D0A967" d="M527.591 263.926a4.34 4.34 0 0 0-4.349 4.34c-.012 2.395 1.938 4.348 4.343 4.352a4.348 4.348 0 0 0 4.349-4.348 4.344 4.344 0 0 0-4.343-4.344z"/><path fill="#222" d="M525.661 268.618c0 .288-.077.513-.233.675s-.365.242-.625.242c-.258 0-.467-.08-.621-.242-.152-.162-.232-.387-.232-.675v-.688c0-.286.08-.512.232-.675.154-.164.362-.245.621-.245s.467.081.625.245c.154.164.234.389.234.675l-.001.688zm-.476-.693c0-.176-.034-.309-.097-.398a.334.334 0 0 0-.287-.134c-.124 0-.221.044-.282.133-.062.088-.093.222-.093.399v.694c0 .177.031.311.094.399.064.089.16.134.283.134a.33.33 0 0 0 .285-.134c.063-.088.097-.222.097-.399v-.694zm2.103.555h-.835v1.019h-.479v-2.455h1.459v.383h-.98v.669h.834l.001.384zm1.939.229l.004.011c.002.27-.063.472-.191.61-.132.137-.323.205-.577.205-.253 0-.458-.077-.608-.233-.152-.156-.227-.375-.227-.663v-.734c0-.283.072-.504.219-.66.146-.157.344-.235.59-.235.26 0 .457.069.59.208s.203.345.207.619l-.004.011h-.463c.008-.162-.016-.279-.065-.35-.052-.071-.14-.106-.265-.106a.283.283 0 0 0-.248.126c-.057.083-.086.212-.086.383v.737c0 .173.029.302.092.387.062.085.15.126.27.126.117 0 .197-.034.241-.101.046-.066.065-.181.06-.342l.461.001zm.773-.185v.976h-.479v-2.453h.803c.24 0 .43.064.568.191.139.128.207.305.207.532a.578.578 0 0 1-.337.553.477.477 0 0 1 .272.213.746.746 0 0 1 .082.371v.174c0 .067.01.139.025.215a.302.302 0 0 0 .082.169v.034h-.496c-.039-.035-.064-.095-.074-.176a1.671 1.671 0 0 1-.016-.247v-.167a.477.477 0 0 0-.074-.286.254.254 0 0 0-.215-.101H530zm0-.382h.322c.098 0 .172-.031.222-.091a.383.383 0 0 0 .077-.254.437.437 0 0 0-.077-.268.26.26 0 0 0-.22-.1H530v.713z"/><path fill="#D0A967" d="M244.196 325.49a4.342 4.342 0 0 0-4.351 4.341c-.011 2.395 1.94 4.348 4.344 4.352 2.398.006 4.346-1.944 4.349-4.349a4.34 4.34 0 0 0-4.342-4.344z"/><path fill="#222" d="M242.266 330.182c0 .286-.077.512-.233.674-.156.161-.365.243-.625.243-.259 0-.467-.082-.622-.243-.153-.162-.231-.388-.231-.674v-.688c0-.287.078-.513.231-.676.155-.164.362-.245.621-.245s.467.081.625.245c.156.163.234.389.234.676v.688zm-.476-.692c0-.177-.034-.31-.097-.399a.337.337 0 0 0-.287-.135.33.33 0 0 0-.283.135c-.062.088-.093.223-.093.399v.692c0 .179.031.311.095.399.065.09.16.133.283.133.125 0 .22-.043.284-.133.064-.089.097-.221.097-.399l.001-.692zm2.103.553h-.834v1.02h-.479v-2.454h1.459v.383h-.981v.668h.834l.001.383zm1.939.23l.005.01c.001.27-.063.473-.192.611-.132.137-.323.205-.577.205s-.458-.078-.609-.233c-.152-.155-.227-.376-.227-.663v-.733c0-.284.072-.505.219-.659.148-.158.343-.236.59-.236.26 0 .458.068.59.208s.202.347.207.62l-.005.009h-.462c.007-.16-.016-.277-.065-.349-.051-.071-.139-.107-.265-.107a.283.283 0 0 0-.249.128c-.057.084-.086.212-.086.384v.736c0 .172.029.302.092.388.061.083.15.124.269.124.116 0 .197-.032.241-.101.046-.066.066-.18.061-.342h.463zm.774-.186v.976h-.478v-2.452h.801c.241 0 .43.064.569.192.139.126.207.305.207.53a.613.613 0 0 1-.087.332.565.565 0 0 1-.25.221.472.472 0 0 1 .271.213.749.749 0 0 1 .083.373v.171c0 .069.009.142.024.218a.306.306 0 0 0 .083.168v.035h-.497c-.04-.036-.064-.095-.074-.175a2.03 2.03 0 0 1-.015-.249v-.165a.466.466 0 0 0-.075-.286.256.256 0 0 0-.216-.101l-.346-.001zm0-.381h.321c.097 0 .173-.031.222-.091a.39.39 0 0 0 .077-.256.426.426 0 0 0-.077-.267c-.049-.066-.124-.1-.22-.1h-.323v.714z"/><path fill="#D0A967" d="M316.367 325.472a4.342 4.342 0 0 0-4.351 4.34 4.346 4.346 0 0 0 8.692.006 4.343 4.343 0 0 0-4.341-4.346z"/><path fill="#222" d="M314.438 330.163c0 .289-.077.513-.234.677-.156.161-.364.24-.625.24-.258 0-.467-.079-.622-.24-.154-.164-.232-.388-.232-.677v-.687c0-.286.078-.513.232-.676.155-.164.361-.245.62-.245.26 0 .467.081.626.245.155.163.235.39.235.676v.687zm-.478-.693c0-.175-.033-.307-.097-.396-.066-.093-.161-.136-.287-.136-.124 0-.22.043-.283.133-.062.09-.093.222-.093.398v.694c0 .177.032.313.095.399a.328.328 0 0 0 .282.135.333.333 0 0 0 .285-.135c.063-.087.097-.223.097-.399v-.693h.001zm2.104.556h-.834v1.02h-.479v-2.454h1.46v.382h-.98v.67h.834v.382h-.001zm1.938.228l.005.011c.001.271-.063.474-.192.61-.132.138-.323.205-.577.205-.253 0-.458-.076-.608-.233-.152-.156-.227-.375-.227-.661v-.734c0-.282.072-.503.218-.661.148-.158.344-.235.59-.235.26 0 .458.07.591.209.132.14.202.345.206.618l-.005.012h-.462c.006-.161-.017-.279-.066-.35-.052-.071-.139-.105-.265-.105a.28.28 0 0 0-.248.125c-.057.086-.086.213-.086.383v.739c0 .172.029.302.092.385a.31.31 0 0 0 .269.128c.117 0 .198-.035.241-.103.046-.067.066-.183.061-.344h.463v.001zm.775-.184v.976h-.479v-2.452h.802c.241 0 .43.062.569.191.139.129.207.305.207.532a.608.608 0 0 1-.087.33.592.592 0 0 1-.25.222.469.469 0 0 1 .271.213.74.74 0 0 1 .083.372v.173c0 .066.009.14.024.216a.296.296 0 0 0 .083.167v.036h-.497c-.04-.036-.064-.095-.074-.176a1.82 1.82 0 0 1-.015-.247v-.167a.467.467 0 0 0-.075-.285.25.25 0 0 0-.215-.101h-.347zm0-.384h.32c.097 0 .173-.03.223-.089a.385.385 0 0 0 .077-.254.437.437 0 0 0-.077-.268c-.049-.067-.124-.101-.22-.101h-.322v.712z"/><path fill="#D0A967" d="M397.903 325.472a4.341 4.341 0 0 0-4.35 4.34c-.011 2.396 1.939 4.348 4.344 4.353a4.346 4.346 0 0 0 4.348-4.347 4.344 4.344 0 0 0-4.342-4.346z"/><path fill="#222" d="M395.973 330.163c0 .289-.077.513-.233.677-.156.161-.365.24-.625.24-.258 0-.467-.079-.622-.24-.154-.164-.231-.388-.231-.677v-.687c0-.286.078-.513.231-.676.154-.164.361-.245.62-.245.26 0 .467.081.625.245.156.163.235.39.235.676v.687zm-.476-.693c0-.175-.033-.307-.096-.396-.066-.093-.162-.136-.287-.136-.124 0-.221.043-.283.133-.062.09-.093.222-.093.398v.694c0 .177.031.313.095.399a.328.328 0 0 0 .283.135.333.333 0 0 0 .285-.135c.063-.087.096-.223.096-.399v-.693zm2.103.556h-.834v1.02h-.479v-2.454h1.46v.382h-.98v.67h.834v.382zm1.939.228l.005.011c.001.271-.063.474-.192.61-.132.138-.323.205-.578.205-.253 0-.458-.076-.608-.233-.152-.156-.227-.375-.227-.661v-.734c0-.282.072-.503.218-.661.148-.158.344-.235.59-.235.26 0 .458.07.59.209.133.14.202.345.207.618l-.005.012h-.462c.006-.161-.016-.279-.066-.35-.051-.071-.139-.105-.265-.105a.282.282 0 0 0-.249.125c-.057.086-.085.213-.085.383v.739c0 .172.029.302.091.385a.31.31 0 0 0 .269.128c.117 0 .197-.035.241-.103.047-.067.067-.183.061-.344h.464v.001h.001zm.774-.184v.976h-.478v-2.452h.801c.241 0 .43.062.569.191.139.129.207.305.207.532 0 .127-.03.238-.087.33a.605.605 0 0 1-.25.222.469.469 0 0 1 .271.213.75.75 0 0 1 .083.372v.173c0 .066.009.14.024.216a.296.296 0 0 0 .083.167v.036h-.497c-.04-.036-.064-.095-.074-.176a1.82 1.82 0 0 1-.015-.247v-.167a.467.467 0 0 0-.075-.285.252.252 0 0 0-.215-.101h-.347zm0-.384h.321c.097 0 .172-.03.223-.089a.385.385 0 0 0 .077-.254.43.43 0 0 0-.077-.268.26.26 0 0 0-.221-.101h-.322v.712z"/><path fill="#D0A967" d="M479.673 325.406a4.344 4.344 0 0 0-4.351 4.34c-.01 2.396 1.939 4.349 4.346 4.353a4.347 4.347 0 0 0 .005-8.693z"/><path fill="#222" d="M477.744 330.096c0 .289-.077.514-.234.677-.155.161-.363.241-.624.241-.259 0-.466-.08-.62-.241-.154-.163-.232-.388-.232-.677v-.688c0-.286.078-.511.232-.675.154-.163.361-.245.619-.245.26 0 .467.082.625.245.156.164.236.389.236.675v.688h-.002zm-.476-.692c0-.174-.033-.308-.098-.396-.065-.091-.16-.134-.286-.134-.124 0-.22.043-.282.132-.062.089-.094.222-.094.398v.695c0 .176.032.311.096.398.064.089.16.134.282.134a.33.33 0 0 0 .284-.134c.064-.088.098-.223.098-.398v-.695zm2.103.556h-.834v1.019h-.48v-2.454h1.459v.381h-.981v.67h.835v.385h.001zm1.938.228l.005.012c.003.268-.062.472-.191.607-.132.138-.322.207-.577.207-.254 0-.458-.078-.609-.235-.15-.155-.227-.375-.227-.66v-.735c0-.281.074-.504.219-.66.147-.158.344-.236.59-.236.261 0 .459.071.592.21.132.14.201.345.207.618l-.006.012h-.463c.008-.161-.016-.278-.064-.351-.051-.072-.14-.104-.266-.104a.287.287 0 0 0-.248.123c-.057.085-.085.214-.085.384v.737c0 .173.03.303.093.386.06.086.148.127.268.127.117 0 .197-.033.24-.101.047-.066.067-.182.061-.344h.463v.003h-.002zm.775-.185v.976h-.48v-2.452h.803c.24 0 .43.063.568.19.138.131.207.305.207.535a.6.6 0 0 1-.088.328.579.579 0 0 1-.25.222.461.461 0 0 1 .271.212.742.742 0 0 1 .084.372v.176c0 .064.01.139.023.214a.293.293 0 0 0 .084.167v.036h-.496c-.041-.036-.065-.094-.074-.177a1.65 1.65 0 0 1-.016-.246v-.167a.468.468 0 0 0-.074-.284.254.254 0 0 0-.216-.102h-.346zm0-.382h.32c.097 0 .172-.03.223-.09a.385.385 0 0 0 .076-.254.442.442 0 0 0-.076-.269.264.264 0 0 0-.221-.101h-.322v.714z"/><path fill="#D0A967" d="M561.176 325.49a4.34 4.34 0 0 0-4.35 4.341c-.011 2.395 1.939 4.348 4.344 4.352 2.398.006 4.346-1.944 4.349-4.349a4.343 4.343 0 0 0-4.343-4.344z"/><path fill="#222" d="M559.246 330.182c0 .286-.078.512-.233.674-.155.161-.366.243-.624.243-.26 0-.468-.082-.623-.243-.152-.162-.23-.388-.23-.674v-.688c0-.287.078-.513.23-.676.155-.164.362-.245.621-.245.26 0 .467.081.625.245.156.163.235.389.235.676l-.001.688zm-.476-.692c0-.177-.034-.31-.097-.399-.065-.088-.163-.135-.287-.135s-.22.047-.282.135c-.061.088-.093.223-.093.399v.692c0 .179.032.311.095.399.064.09.159.133.283.133.123 0 .219-.043.283-.133.063-.089.098-.221.098-.399v-.692zm2.103.553h-.834v1.02h-.479v-2.454h1.459v.383h-.981v.668h.835v.383zm1.938.23l.006.01c.002.27-.063.473-.192.611-.132.137-.323.205-.575.205-.254 0-.458-.078-.609-.233-.152-.155-.227-.376-.227-.663v-.733c0-.284.072-.505.217-.659.148-.158.345-.236.592-.236.26 0 .457.068.59.208s.203.347.207.62l-.004.009h-.463c.008-.16-.016-.277-.066-.349s-.139-.107-.264-.107a.28.28 0 0 0-.248.128c-.057.084-.086.212-.086.384v.736c0 .172.029.302.092.388.062.083.15.124.27.124.116 0 .197-.032.24-.101.047-.066.065-.18.061-.342h.463v.001h-.004zm.775-.186v.976h-.479v-2.452h.801c.242 0 .431.064.57.192.139.126.207.305.207.53a.622.622 0 0 1-.088.332.57.57 0 0 1-.25.221.478.478 0 0 1 .272.213.749.749 0 0 1 .083.373v.171c0 .069.009.142.024.218a.287.287 0 0 0 .083.168v.035h-.498c-.039-.036-.063-.095-.074-.175a2.03 2.03 0 0 1-.015-.249v-.165a.466.466 0 0 0-.075-.286.253.253 0 0 0-.215-.101l-.346-.001zm0-.381h.32c.098 0 .174-.031.223-.091a.384.384 0 0 0 .077-.256.426.426 0 0 0-.077-.267c-.049-.066-.123-.1-.221-.1h-.322v.714z"/><path fill="#D0A967" d="M633.589 325.49a4.34 4.34 0 0 0-4.349 4.341 4.347 4.347 0 0 0 8.692.003 4.343 4.343 0 0 0-4.343-4.344z"/><path fill="#222" d="M631.659 330.182c0 .286-.077.512-.233.674-.156.161-.365.243-.625.243-.259 0-.467-.082-.621-.243-.152-.162-.232-.388-.232-.674v-.688c0-.287.08-.513.232-.676.154-.164.361-.245.621-.245.259 0 .467.081.625.245.154.163.234.389.234.676l-.001.688zm-.476-.692c0-.177-.034-.31-.098-.399a.335.335 0 0 0-.286-.135.328.328 0 0 0-.282.135c-.062.088-.093.223-.093.399v.692c0 .179.031.311.095.399.063.09.159.133.282.133.125 0 .22-.043.285-.133.063-.089.097-.221.097-.399v-.692zm2.103.553h-.835v1.02h-.479v-2.454h1.459v.383h-.98v.668h.834l.001.383zm1.939.23l.005.01c.002.27-.063.473-.192.611-.131.137-.322.205-.576.205-.252 0-.457-.078-.607-.233-.152-.155-.227-.376-.227-.663v-.733c0-.284.071-.505.217-.659.148-.158.344-.236.592-.236.259 0 .457.068.59.208s.202.347.207.62l-.005.009h-.464c.008-.16-.014-.277-.064-.349-.052-.071-.141-.107-.264-.107a.282.282 0 0 0-.25.128c-.057.084-.085.212-.085.384v.736c0 .172.03.302.092.388.062.083.15.124.269.124.117 0 .197-.032.241-.101.048-.066.065-.18.061-.342h.46zm.773-.186v.976h-.478v-2.452h.802c.24 0 .43.064.568.192.139.127.207.305.207.53a.613.613 0 0 1-.087.332.573.573 0 0 1-.249.221.476.476 0 0 1 .271.213.749.749 0 0 1 .083.373v.171c0 .069.009.142.024.218a.299.299 0 0 0 .082.168v.035h-.496c-.04-.036-.064-.095-.074-.175a1.699 1.699 0 0 1-.016-.249v-.165a.473.473 0 0 0-.074-.286.259.259 0 0 0-.216-.101l-.347-.001zm0-.381h.322c.098 0 .173-.031.222-.091a.39.39 0 0 0 .077-.256.432.432 0 0 0-.077-.267c-.049-.066-.123-.1-.22-.1h-.324v.714z"/><path fill="#706DCB" d="M203.1 350.425h59.746v14.145H203.1z"/><path fill="#222" d="M214.77 359.633h-2.264l-.305.956h-1.524l2.073-6.095h1.776l2.072 6.095h-1.524l-.304-.956zm-.417-1.306l-.715-2.239-.713 2.239h1.428zm7.207-1.741c0 1.157-.932 2.088-2.133 2.088h-.915v1.915h-1.393v-6.095h2.308c1.201.001 2.133.934 2.133 2.092zm-1.393 0c0-.445-.313-.785-.739-.785h-.915v1.567h.915c.425.001.739-.339.739-.782zm6.529 0c0 1.157-.931 2.088-2.133 2.088h-.914v1.915h-1.394v-6.095h2.307c1.203.001 2.134.934 2.134 2.092zm-1.394 0c0-.445-.313-.785-.739-.785h-.914v1.567h.914c.426.001.739-.339.739-.782zm4.144 2.001h-.662v2.002h-1.393v-6.095h2.437c1.158 0 2.09.934 2.09 2.092 0 .747-.453 1.427-1.123 1.767l1.296 2.236h-1.497l-1.148-2.002zm-.661-1.218h1.044c.384 0 .697-.34.697-.782 0-.444-.313-.784-.697-.784h-1.044v1.566zm3.612.173a3.141 3.141 0 0 1 3.17-3.168 3.141 3.141 0 0 1 3.168 3.168 3.142 3.142 0 0 1-3.168 3.17 3.143 3.143 0 0 1-3.17-3.17zm4.945 0c0-1.088-.784-1.812-1.775-1.812-.993 0-1.776.724-1.776 1.812s.783 1.812 1.776 1.812c.992 0 1.775-.724 1.775-1.812zm1.392-3.047h1.524l1.35 4.485 1.348-4.485h1.524l-1.985 6.095h-1.776l-1.985-6.095zm10.098 4.754v1.341h-3.831v-6.095h3.788v1.343h-2.394v1.008h2.176v1.324h-2.176v1.079h2.437zm6.181-1.707c0 1.724-1.279 3.047-2.96 3.047h-2.438v-6.095h2.438c1.68.001 2.96 1.325 2.96 3.048zm-1.341 0c0-1.044-.662-1.706-1.619-1.706h-1.044v3.413h1.044c.957 0 1.619-.662 1.619-1.707z"/><path fill="#706DCB" d="M356.866 350.425h59.746v14.145h-59.746z"/><path fill="#222" d="M368.537 359.633h-2.264l-.305.956h-1.524l2.072-6.095h1.776l2.072 6.095h-1.523l-.304-.956zm-.418-1.306l-.714-2.239-.714 2.239h1.428zm7.208-1.741c0 1.157-.931 2.088-2.133 2.088h-.914v1.915h-1.394v-6.095h2.308c1.202.001 2.133.934 2.133 2.092zm-1.394 0c0-.445-.313-.785-.74-.785h-.914v1.567h.914c.427.001.74-.339.74-.782zm6.53 0c0 1.157-.931 2.088-2.132 2.088h-.915v1.915h-1.393v-6.095h2.308c1.201.001 2.132.934 2.132 2.092zm-1.394 0c0-.445-.313-.785-.739-.785h-.915v1.567h.915c.426.001.739-.339.739-.782zm4.144 2.001h-.662v2.002h-1.394v-6.095h2.438c1.158 0 2.09.934 2.09 2.092 0 .747-.453 1.427-1.123 1.767l1.296 2.236h-1.497l-1.148-2.002zm-.662-1.218h1.044c.383 0 .696-.34.696-.782 0-.444-.313-.784-.696-.784h-1.044v1.566zm3.612.173a3.14 3.14 0 0 1 3.169-3.168 3.14 3.14 0 0 1 3.168 3.168 3.142 3.142 0 0 1-3.168 3.17 3.142 3.142 0 0 1-3.169-3.17zm4.945 0c0-1.088-.784-1.812-1.776-1.812-.993 0-1.776.724-1.776 1.812s.783 1.812 1.776 1.812c.992 0 1.776-.724 1.776-1.812zm1.393-3.047h1.524l1.35 4.485 1.349-4.485h1.524l-1.985 6.095h-1.776l-1.986-6.095zm10.098 4.754v1.341h-3.831v-6.095h3.788v1.343h-2.395v1.008h2.177v1.324h-2.177v1.079h2.438zm6.181-1.707c0 1.724-1.279 3.047-2.961 3.047h-2.437v-6.095h2.437c1.681.001 2.961 1.325 2.961 3.048zm-1.341 0c0-1.044-.662-1.706-1.62-1.706h-1.044v3.413h1.044c.958 0 1.62-.662 1.62-1.707z"/><path fill="#706DCB" d="M275.543 350.425h59.742v14.145h-59.742z"/><path fill="#222" d="M287.211 359.633h-2.264l-.305.956h-1.523l2.072-6.095h1.775l2.072 6.095h-1.524l-.303-.956zm-.417-1.306l-.715-2.239-.714 2.239h1.429zm7.207-1.741c0 1.157-.931 2.088-2.133 2.088h-.914v1.915h-1.394v-6.095h2.308c1.202.001 2.133.934 2.133 2.092zm-1.393 0c0-.445-.313-.785-.739-.785h-.914v1.567h.914c.425.001.739-.339.739-.782zm6.53 0c0 1.157-.93 2.088-2.133 2.088h-.914v1.915h-1.394v-6.095h2.308c1.202.001 2.133.934 2.133 2.092zm-1.394 0c0-.445-.313-.785-.739-.785h-.914v1.567h.914c.426.001.739-.339.739-.782zm4.143 2.001h-.661v2.002h-1.394v-6.095h2.438c1.159 0 2.09.934 2.09 2.092 0 .747-.453 1.427-1.123 1.767l1.296 2.236h-1.497l-1.149-2.002zm-.661-1.218h1.044c.384 0 .697-.34.697-.782 0-.444-.313-.784-.697-.784h-1.044v1.566zm3.612.173a3.141 3.141 0 0 1 3.169-3.168 3.14 3.14 0 0 1 3.168 3.168 3.142 3.142 0 0 1-3.168 3.17 3.142 3.142 0 0 1-3.169-3.17zm4.945 0c0-1.088-.784-1.812-1.776-1.812-.993 0-1.776.724-1.776 1.812s.783 1.812 1.776 1.812c.992 0 1.776-.724 1.776-1.812zm1.393-3.047h1.523l1.35 4.485 1.349-4.485h1.524l-1.985 6.095h-1.776l-1.985-6.095zm10.098 4.754v1.341h-3.831v-6.095h3.788v1.343h-2.395v1.008h2.177v1.324h-2.177v1.079h2.438zm6.181-1.707c0 1.724-1.28 3.047-2.961 3.047h-2.438v-6.095h2.438c1.681.001 2.961 1.325 2.961 3.048zm-1.342 0c0-1.044-.661-1.706-1.619-1.706h-1.044v3.413h1.044c.958 0 1.619-.662 1.619-1.707z"/><path fill="#706DCB" d="M438.788 350.425h59.745v14.145h-59.745z"/><path fill="#222" d="M450.459 359.633h-2.265l-.306.956h-1.523l2.072-6.095h1.775l2.071 6.095h-1.522l-.302-.956zm-.418-1.306l-.715-2.239-.713 2.239h1.428zm7.207-1.741c0 1.157-.932 2.088-2.133 2.088h-.915v1.915h-1.394v-6.095h2.309c1.201.001 2.133.934 2.133 2.092zm-1.394 0c0-.445-.313-.785-.737-.785h-.915v1.567h.915c.424.001.737-.339.737-.782zm6.531 0c0 1.157-.932 2.088-2.134 2.088h-.913v1.915h-1.394v-6.095h2.307c1.202.001 2.134.934 2.134 2.092zm-1.395 0c0-.445-.313-.785-.739-.785h-.914v1.567h.914c.427.001.739-.339.739-.782zm4.144 2.001h-.661v2.002h-1.394v-6.095h2.438c1.157 0 2.09.934 2.09 2.092 0 .747-.453 1.427-1.124 1.767l1.298 2.236h-1.498l-1.149-2.002zm-.661-1.218h1.045c.383 0 .696-.34.696-.782 0-.444-.313-.784-.696-.784h-1.045v1.566zm3.611.173a3.141 3.141 0 0 1 3.17-3.168 3.14 3.14 0 0 1 3.168 3.168 3.141 3.141 0 0 1-3.168 3.17 3.143 3.143 0 0 1-3.17-3.17zm4.945 0c0-1.088-.783-1.812-1.775-1.812-.993 0-1.776.724-1.776 1.812s.783 1.812 1.776 1.812c.992 0 1.775-.724 1.775-1.812zm1.393-3.047h1.525l1.35 4.485 1.348-4.485h1.523l-1.983 6.095h-1.776l-1.987-6.095zm10.099 4.754v1.341h-3.831v-6.095h3.787v1.343h-2.394v1.008h2.177v1.324h-2.177v1.079h2.438zm6.18-1.707c0 1.724-1.277 3.047-2.961 3.047h-2.438v-6.095h2.438c1.682.001 2.961 1.325 2.961 3.048zm-1.341 0c0-1.044-.663-1.706-1.62-1.706h-1.043v3.413h1.043c.958 0 1.62-.662 1.62-1.707z"/><path fill="#706DCB" d="M592.766 350.425h59.745v14.145h-59.745z"/><path fill="#222" d="M604.436 359.633h-2.265l-.305.956h-1.524l2.071-6.095h1.776l2.07 6.095h-1.522l-.301-.956zm-.418-1.306l-.715-2.239-.712 2.239h1.427zm7.207-1.741c0 1.157-.931 2.088-2.133 2.088h-.914v1.915h-1.393v-6.095h2.307c1.202.001 2.133.934 2.133 2.092zm-1.393 0c0-.445-.313-.785-.738-.785h-.916v1.567h.916c.425.001.738-.339.738-.782zm6.529 0c0 1.157-.932 2.088-2.134 2.088h-.914v1.915h-1.394v-6.095h2.308c1.203.001 2.134.934 2.134 2.092zm-1.393 0c0-.445-.313-.785-.739-.785h-.914v1.567h.914c.425.001.739-.339.739-.782zm4.143 2.001h-.662v2.002h-1.393v-6.095h2.438c1.159 0 2.09.934 2.09 2.092 0 .747-.453 1.427-1.123 1.767l1.297 2.236h-1.496l-1.151-2.002zm-.662-1.218h1.045c.383 0 .697-.34.697-.782 0-.444-.314-.784-.697-.784h-1.045v1.566zm3.614.173a3.141 3.141 0 0 1 3.17-3.168 3.141 3.141 0 0 1 3.169 3.168 3.142 3.142 0 0 1-3.169 3.17 3.142 3.142 0 0 1-3.17-3.17zm4.945 0c0-1.088-.784-1.812-1.775-1.812-.993 0-1.775.724-1.775 1.812s.782 1.812 1.775 1.812c.991 0 1.775-.724 1.775-1.812zm1.391-3.047h1.523l1.351 4.485 1.348-4.485h1.524l-1.985 6.095h-1.775l-1.986-6.095zm10.099 4.754v1.341h-3.832v-6.095h3.788v1.343h-2.395v1.008h2.177v1.324h-2.177v1.079h2.439zm6.181-1.707c0 1.724-1.278 3.047-2.961 3.047h-2.438v-6.095h2.438c1.681.001 2.961 1.325 2.961 3.048zm-1.341 0c0-1.044-.662-1.706-1.62-1.706h-1.044v3.413h1.044c.958 0 1.62-.662 1.62-1.707z"/><path fill="#706DCB" d="M520.324 350.425h59.744v14.145h-59.744z"/><path fill="#222" d="M531.995 359.633h-2.265l-.304.956h-1.524l2.072-6.095h1.775l2.072 6.095h-1.525l-.301-.956zm-.417-1.306l-.716-2.239-.712 2.239h1.428zm7.207-1.741c0 1.157-.932 2.088-2.133 2.088h-.916v1.915h-1.393v-6.095h2.309c1.202.001 2.133.934 2.133 2.092zm-1.394 0c0-.445-.313-.785-.738-.785h-.914v1.567h.914c.425.001.738-.339.738-.782zm6.53 0c0 1.157-.931 2.088-2.133 2.088h-.915v1.915h-1.393v-6.095h2.308c1.202.001 2.133.934 2.133 2.092zm-1.394 0c0-.445-.313-.785-.739-.785h-.915v1.567h.915c.427.001.739-.339.739-.782zm4.145 2.001h-.663v2.002h-1.394v-6.095h2.438c1.158 0 2.09.934 2.09 2.092 0 .747-.452 1.427-1.122 1.767l1.296 2.236h-1.497l-1.148-2.002zm-.663-1.218h1.045c.383 0 .696-.34.696-.782 0-.444-.313-.784-.696-.784h-1.045v1.566zm3.613.173a3.141 3.141 0 0 1 3.169-3.168 3.141 3.141 0 0 1 3.17 3.168 3.143 3.143 0 0 1-3.17 3.17 3.142 3.142 0 0 1-3.169-3.17zm4.945 0c0-1.088-.784-1.812-1.776-1.812s-1.775.724-1.775 1.812.783 1.812 1.775 1.812 1.776-.724 1.776-1.812zm1.392-3.047h1.525l1.35 4.485 1.348-4.485h1.523l-1.984 6.095h-1.775l-1.987-6.095zm10.098 4.754v1.341h-3.83v-6.095h3.787v1.343h-2.394v1.008h2.177v1.324h-2.177v1.079h2.437zm6.181-1.707c0 1.724-1.279 3.047-2.961 3.047h-2.438v-6.095h2.438c1.682.001 2.961 1.325 2.961 3.048zm-1.342 0c0-1.044-.662-1.706-1.619-1.706h-1.044v3.413h1.044c.958 0 1.619-.662 1.619-1.707z"/><g fill-rule="evenodd" clip-rule="evenodd" fill="#C28CB5"><path d="M431.272 142.175c-.02-1.007-.75-1.674-1.76-1.688-.562-.007-3.022-.007-3.584 0-1.01.014-1.74.681-1.76 1.688-.036 1.824.002 5.5.002 5.513 0 .492.357.891.798.891a.751.751 0 0 0 .549-.245c.183 2.599.364 5.139.535 7.678.025.361.033.716.322.95.239.229.751.387 1.347.387.595 0 1.107-.158 1.346-.387.289-.234.297-.589.322-.951.171-2.539.353-5.079.535-7.678a.751.751 0 0 0 .549.245c.441 0 .798-.399.798-.891-.001-.013.037-3.688.001-5.512z"/><circle cx="427.72" cy="138.034" r="2.048"/></g><g fill-rule="evenodd" clip-rule="evenodd" fill="#C28CB5"><path d="M414.125 203.506c-.021-1.008-.75-1.675-1.76-1.688-.562-.007-3.022-.007-3.584 0-1.01.014-1.74.681-1.76 1.688-.037 1.823.001 5.499.001 5.513 0 .492.357.891.798.891a.751.751 0 0 0 .549-.245c.183 2.599.363 5.139.535 7.678.025.361.033.716.321.951.239.228.752.387 1.347.387s1.107-.158 1.347-.386c.289-.235.297-.59.322-.951.171-2.539.353-5.079.535-7.678a.751.751 0 0 0 .549.245c.441 0 .798-.399.798-.891 0-.015.038-3.69.002-5.514z"/><circle cx="410.572" cy="199.365" r="2.048"/></g><g fill-rule="evenodd" clip-rule="evenodd" fill="#C28CB5"><path d="M342.227 263.543c-.02-1.007-.75-1.675-1.76-1.688-.562-.008-3.022-.008-3.584 0-1.01.013-1.741.681-1.761 1.688-.036 1.824.002 5.5.002 5.513 0 .492.357.891.798.891a.755.755 0 0 0 .549-.245c.183 2.599.364 5.138.535 7.678.024.361.033.715.321.95.239.229.751.387 1.347.387s1.107-.159 1.347-.387c.289-.235.297-.589.322-.951.171-2.54.352-5.079.535-7.678a.757.757 0 0 0 .549.245c.441 0 .798-.399.798-.891 0-.013.038-3.688.002-5.512z"/><circle cx="338.675" cy="259.402" r="2.048"/></g><g fill-rule="evenodd" clip-rule="evenodd" fill="#C28CB5"><path d="M520.518 263.541c-.021-1.007-.75-1.674-1.76-1.688-.563-.007-3.023-.007-3.584 0-1.011.014-1.741.681-1.762 1.688-.035 1.824.002 5.5.002 5.513 0 .492.357.891.799.891a.751.751 0 0 0 .549-.245c.183 2.599.363 5.139.535 7.678.024.361.033.716.321.95.239.229.751.387 1.347.387.595 0 1.107-.158 1.347-.387.289-.234.298-.589.321-.951.172-2.539.354-5.079.535-7.678a.753.753 0 0 0 .549.245c.441 0 .799-.399.799-.891 0-.012.038-3.688.002-5.512z"/><circle cx="516.965" cy="259.4" r="2.048"/></g><g fill-rule="evenodd" clip-rule="evenodd" fill="#C28CB5"><path d="M236.525 325.327c-.02-1.008-.75-1.676-1.76-1.688-.562-.008-3.022-.008-3.584 0-1.01.013-1.74.681-1.76 1.688-.036 1.823.002 5.499.002 5.513 0 .492.357.891.798.891a.755.755 0 0 0 .549-.245c.183 2.599.364 5.139.535 7.678.025.361.033.715.322.95.239.229.751.387 1.347.387.595 0 1.107-.158 1.346-.386.289-.234.297-.59.322-.951.171-2.539.353-5.079.535-7.678a.755.755 0 0 0 .549.245c.441 0 .798-.398.798-.891-.001-.014.038-3.69.001-5.513z"/><circle cx="232.973" cy="321.185" r="2.048"/></g><g fill-rule="evenodd" clip-rule="evenodd" fill="#C28CB5"><path d="M308.938 325.326c-.02-1.008-.75-1.676-1.76-1.688-.562-.008-3.022-.008-3.584 0-1.01.013-1.74.681-1.76 1.688-.036 1.822.002 5.499.002 5.513 0 .491.357.891.798.891a.755.755 0 0 0 .549-.245c.183 2.599.364 5.139.535 7.678.024.361.033.715.321.95.239.229.751.387 1.347.387.595 0 1.107-.158 1.346-.386.289-.235.297-.59.322-.951.171-2.539.352-5.079.535-7.678a.755.755 0 0 0 .549.245c.441 0 .798-.399.798-.891 0-.014.038-3.691.002-5.513z"/><circle cx="305.385" cy="321.184" r="2.048"/></g><g fill-rule="evenodd" clip-rule="evenodd" fill="#C28CB5"><path d="M390.289 325.326c-.02-1.008-.75-1.676-1.76-1.688-.562-.008-3.022-.008-3.584 0-1.01.013-1.74.681-1.761 1.688-.036 1.822.002 5.499.002 5.513 0 .491.357.891.798.891a.755.755 0 0 0 .549-.245c.183 2.599.364 5.139.535 7.678.024.361.033.715.321.95.239.229.752.387 1.347.387s1.107-.158 1.347-.386c.289-.235.297-.59.322-.951.171-2.539.352-5.079.535-7.678a.757.757 0 0 0 .549.245c.441 0 .798-.399.798-.891 0-.014.038-3.691.002-5.513z"/><circle cx="386.737" cy="321.184" r="2.048"/></g><g fill-rule="evenodd" clip-rule="evenodd" fill="#C28CB5"><path d="M472.242 325.328c-.02-1.008-.75-1.675-1.76-1.688-.563-.008-3.021-.008-3.584 0-1.01.014-1.74.681-1.761 1.688-.036 1.823.003 5.499.003 5.513 0 .492.357.891.798.891a.757.757 0 0 0 .549-.245c.183 2.599.364 5.139.535 7.678.024.361.032.716.321.95.238.229.752.387 1.346.387.596 0 1.107-.158 1.348-.386.289-.234.297-.59.322-.951.171-2.539.352-5.079.534-7.678a.759.759 0 0 0 .55.245c.439 0 .798-.398.798-.891 0-.014.038-3.69.001-5.513z"/><circle cx="468.69" cy="321.186" r="2.048"/></g><g fill-rule="evenodd" clip-rule="evenodd" fill="#C28CB5"><path d="M553.746 325.258c-.02-1.007-.75-1.675-1.76-1.688-.563-.008-3.022-.008-3.584 0-1.01.013-1.74.681-1.761 1.688-.036 1.823.002 5.499.002 5.514 0 .491.357.89.798.89a.758.758 0 0 0 .55-.244c.183 2.598.363 5.138.535 7.678.024.36.032.715.321.95.238.229.751.387 1.346.387.596 0 1.107-.158 1.348-.387.289-.234.297-.589.321-.95.171-2.54.353-5.08.534-7.678a.761.761 0 0 0 .55.244c.44 0 .798-.398.798-.89 0-.015.039-3.69.002-5.514z"/><circle cx="550.194" cy="321.117" r="2.048"/></g><g fill-rule="evenodd" clip-rule="evenodd" fill="#C28CB5"><path d="M626.159 325.31c-.021-1.008-.75-1.675-1.761-1.688-.562-.007-3.021-.007-3.584 0-1.01.014-1.74.681-1.76 1.688-.036 1.823.002 5.499.002 5.513 0 .492.357.891.798.891a.76.76 0 0 0 .55-.245c.182 2.599.363 5.139.535 7.678.023.361.032.716.32.95.239.229.752.388 1.347.388s1.107-.158 1.347-.387c.289-.234.297-.589.322-.951.172-2.539.352-5.079.534-7.678a.759.759 0 0 0 .55.245c.44 0 .799-.398.799-.891 0-.014.037-3.69.001-5.513z"/><circle cx="622.607" cy="321.168" r="2.048"/></g><g fill-rule="evenodd" clip-rule="evenodd" fill="#666"><path d="M390.001 203.506c-.02-1.008-.75-1.675-1.76-1.688-.562-.007-3.022-.007-3.583 0-1.011.014-1.741.681-1.761 1.688-.036 1.823.002 5.499.002 5.513 0 .492.357.891.798.891a.751.751 0 0 0 .549-.245c.183 2.599.364 5.139.535 7.678.024.361.033.716.321.951.239.228.751.387 1.347.387s1.107-.158 1.347-.386c.289-.235.297-.59.322-.951.171-2.539.352-5.079.535-7.678a.753.753 0 0 0 .549.245c.441 0 .798-.399.798-.891 0-.015.038-3.69.001-5.514z"/><circle cx="386.449" cy="199.365" r="2.048"/></g><g fill-rule="evenodd" clip-rule="evenodd" fill="#666"><path d="M365.789 203.506c-.02-1.008-.75-1.675-1.76-1.688-.562-.007-3.022-.007-3.584 0-1.01.014-1.74.681-1.76 1.688-.036 1.823.002 5.499.002 5.513 0 .492.357.891.798.891a.751.751 0 0 0 .549-.245c.183 2.599.364 5.139.535 7.678.024.361.033.716.321.951.239.228.751.387 1.347.387.595 0 1.107-.158 1.346-.386.289-.235.297-.59.322-.951.171-2.539.353-5.079.535-7.678a.751.751 0 0 0 .549.245c.441 0 .798-.399.798-.891 0-.015.038-3.69.002-5.514z"/><circle cx="362.236" cy="199.365" r="2.048"/></g><g fill-rule="evenodd" clip-rule="evenodd" fill="#666"><path d="M341.946 203.506c-.02-1.008-.75-1.675-1.76-1.688-.562-.007-3.022-.007-3.583 0-1.011.014-1.741.681-1.761 1.688-.036 1.823.002 5.499.002 5.513 0 .492.357.891.798.891a.751.751 0 0 0 .549-.245c.183 2.599.364 5.139.535 7.678.024.361.033.716.321.951.239.228.751.387 1.347.387.595 0 1.107-.158 1.346-.386.289-.235.297-.59.322-.951.171-2.539.352-5.079.535-7.678a.751.751 0 0 0 .549.245c.441 0 .798-.399.798-.891 0-.015.038-3.69.002-5.514z"/><circle cx="338.394" cy="199.365" r="2.048"/></g><g fill-rule="evenodd" clip-rule="evenodd" fill="#666"><path d="M496.037 203.506c-.02-1.008-.75-1.675-1.76-1.688-.563-.007-3.021-.007-3.584 0-1.01.014-1.74.681-1.761 1.688-.036 1.823.002 5.499.002 5.513 0 .492.358.891.798.891a.755.755 0 0 0 .55-.245c.183 2.599.363 5.139.534 7.678.025.361.033.716.321.951.239.228.752.387 1.347.387.596 0 1.107-.158 1.348-.386.288-.235.297-.59.321-.951.171-2.539.353-5.079.534-7.678a.757.757 0 0 0 .55.245c.44 0 .798-.399.798-.891 0-.015.039-3.69.002-5.514z"/><circle cx="492.486" cy="199.365" r="2.048"/></g><g fill-rule="evenodd" clip-rule="evenodd" fill="#666"><path d="M471.824 203.506c-.021-1.008-.75-1.675-1.76-1.688-.563-.007-3.023-.007-3.584 0-1.01.014-1.74.681-1.761 1.688-.036 1.823.002 5.499.002 5.513 0 .492.356.891.798.891a.751.751 0 0 0 .549-.245c.184 2.599.364 5.139.536 7.678.024.361.032.716.321.951.238.228.751.387 1.346.387.596 0 1.107-.158 1.348-.386.289-.235.297-.59.321-.951.171-2.539.353-5.079.534-7.678a.757.757 0 0 0 .55.245c.44 0 .798-.399.798-.891 0-.015.039-3.69.002-5.514z"/><circle cx="468.271" cy="199.365" r="2.048"/></g><g fill-rule="evenodd" clip-rule="evenodd" fill="#666"><path d="M447.982 203.506c-.021-1.008-.752-1.675-1.762-1.688-.561-.007-3.021-.007-3.584 0-1.01.014-1.739.681-1.76 1.688-.037 1.823.002 5.499.002 5.513 0 .492.357.891.798.891a.752.752 0 0 0 .55-.245c.182 2.599.363 5.139.535 7.678.023.361.032.716.321.951.239.228.751.387 1.347.387s1.106-.158 1.346-.386c.289-.235.297-.59.322-.951.171-2.539.352-5.079.535-7.678a.751.751 0 0 0 .549.245c.441 0 .798-.399.798-.891 0-.015.039-3.69.003-5.514z"/><circle cx="444.43" cy="199.365" r="2.048"/></g><g fill-rule="evenodd" clip-rule="evenodd" fill="#666"><path d="M414.177 263.543c-.02-1.007-.75-1.675-1.76-1.688-.562-.008-3.022-.008-3.584 0-1.01.013-1.74.681-1.761 1.688-.036 1.824.002 5.5.002 5.513 0 .492.357.891.798.891a.757.757 0 0 0 .549-.245c.183 2.599.364 5.138.535 7.678.024.361.033.715.321.95.239.229.752.387 1.347.387s1.107-.159 1.347-.387c.289-.235.298-.589.322-.951.172-2.54.353-5.079.535-7.678a.755.755 0 0 0 .549.245c.44 0 .798-.399.798-.891.001-.013.039-3.688.002-5.512z"/><circle cx="410.625" cy="259.402" r="2.048"/></g><g fill-rule="evenodd" clip-rule="evenodd" fill="#666"><path d="M389.964 263.543c-.02-1.007-.75-1.675-1.76-1.688-.562-.008-3.022-.008-3.584 0-1.01.013-1.74.681-1.76 1.688-.037 1.824.002 5.5.002 5.513 0 .492.357.891.798.891a.755.755 0 0 0 .549-.245c.183 2.599.364 5.138.535 7.678.025.361.033.715.321.95.239.229.752.387 1.347.387s1.107-.159 1.346-.387c.289-.235.297-.589.322-.951.171-2.54.353-5.079.535-7.678a.755.755 0 0 0 .549.245c.441 0 .798-.399.798-.891 0-.013.038-3.688.002-5.512z"/><circle cx="386.412" cy="259.402" r="2.048"/></g><g fill-rule="evenodd" clip-rule="evenodd" fill="#666"><path d="M366.122 263.543c-.02-1.007-.75-1.675-1.76-1.688-.562-.008-3.022-.008-3.584 0-1.01.013-1.74.681-1.76 1.688-.036 1.824.002 5.5.002 5.513 0 .492.357.891.798.891a.755.755 0 0 0 .549-.245c.183 2.599.364 5.138.535 7.678.025.361.033.715.322.95.239.229.751.387 1.347.387.595 0 1.107-.159 1.346-.387.289-.235.297-.589.322-.951.171-2.54.353-5.079.535-7.678a.755.755 0 0 0 .549.245c.441 0 .798-.399.798-.891-.001-.013.037-3.688.001-5.512z"/><circle cx="362.569" cy="259.402" r="2.048"/></g><g fill-rule="evenodd" clip-rule="evenodd" fill="#666"><path d="M496.271 263.541c-.021-1.007-.749-1.674-1.759-1.688-.563-.007-3.023-.007-3.584 0-1.011.014-1.741.681-1.762 1.688-.035 1.824.002 5.5.002 5.513 0 .492.357.891.799.891a.751.751 0 0 0 .549-.245c.183 2.599.363 5.139.535 7.678.024.361.033.716.321.95.239.229.751.387 1.347.387.595 0 1.107-.158 1.347-.387.289-.234.298-.589.321-.951.172-2.539.354-5.079.535-7.678a.751.751 0 0 0 .549.245c.441 0 .799-.399.799-.891 0-.012.038-3.688.001-5.512z"/><circle cx="492.719" cy="259.4" r="2.048"/></g><g fill-rule="evenodd" clip-rule="evenodd" fill="#666"><path d="M472.058 263.541c-.021-1.007-.75-1.674-1.76-1.688-.563-.007-3.022-.007-3.584 0-1.011.014-1.741.681-1.761 1.688-.036 1.824.002 5.5.002 5.513 0 .492.357.891.799.891a.753.753 0 0 0 .549-.245c.183 2.599.363 5.139.535 7.678.024.361.032.716.32.95.24.229.752.387 1.348.387.594 0 1.107-.158 1.346-.387.289-.234.297-.589.322-.951.171-2.539.352-5.079.535-7.678a.751.751 0 0 0 .549.245c.441 0 .798-.399.798-.891 0-.012.038-3.688.002-5.512z"/><circle cx="468.506" cy="259.4" r="2.048"/></g><g fill-rule="evenodd" clip-rule="evenodd" fill="#666"><path d="M448.215 263.541c-.02-1.007-.75-1.674-1.76-1.688-.563-.007-3.022-.007-3.584 0-1.011.014-1.74.681-1.761 1.688-.036 1.824.002 5.5.002 5.513 0 .492.357.891.798.891a.755.755 0 0 0 .55-.245c.183 2.599.363 5.139.534 7.678.025.361.033.716.322.95.238.229.751.387 1.346.387.596 0 1.107-.158 1.347-.387.289-.234.298-.589.321-.951.172-2.539.354-5.079.535-7.678a.757.757 0 0 0 .55.245c.44 0 .798-.399.798-.891 0-.012.039-3.688.002-5.512z"/><circle cx="444.663" cy="259.4" r="2.048"/></g><g fill-rule="evenodd" clip-rule="evenodd" fill="#666"><path d="M520.283 203.506c-.02-1.008-.75-1.675-1.76-1.688-.563-.007-3.021-.007-3.584 0-1.01.014-1.74.681-1.761 1.688-.036 1.823.002 5.499.002 5.513 0 .492.358.891.798.891a.755.755 0 0 0 .55-.245c.183 2.599.363 5.139.534 7.678.025.361.033.716.321.951.239.228.752.387 1.347.387.596 0 1.107-.158 1.347-.386.289-.235.298-.59.322-.951.171-2.539.353-5.079.534-7.678a.757.757 0 0 0 .55.245c.44 0 .798-.399.798-.891 0-.015.039-3.69.002-5.514z"/><circle cx="516.732" cy="199.365" r="2.048"/></g><g fill-rule="evenodd" clip-rule="evenodd" fill="#666"><path d="M284.548 325.343c-.02-1.008-.75-1.675-1.76-1.688-.562-.007-3.022-.007-3.584 0-1.01.014-1.741.681-1.761 1.688-.036 1.823.002 5.499.002 5.513 0 .492.357.891.798.891a.754.754 0 0 0 .549-.244c.183 2.598.364 5.138.535 7.677.024.361.033.716.321.95.239.229.751.388 1.347.388s1.107-.158 1.347-.387c.289-.234.297-.589.322-.951.171-2.539.352-5.079.535-7.677a.756.756 0 0 0 .549.244c.441 0 .798-.398.798-.891.001-.014.039-3.689.002-5.513z"/><circle cx="280.997" cy="321.202" r="2.048"/></g><g fill-rule="evenodd" clip-rule="evenodd" fill="#666"><path d="M260.706 325.343c-.021-1.008-.75-1.675-1.76-1.688-.562-.007-3.022-.007-3.584 0-1.01.014-1.74.681-1.761 1.688-.036 1.823.002 5.499.002 5.513 0 .492.357.891.798.891a.754.754 0 0 0 .549-.244c.183 2.598.364 5.138.535 7.677.024.361.033.716.321.95.239.229.752.388 1.347.388s1.107-.158 1.347-.387c.289-.234.297-.589.322-.951.171-2.539.352-5.079.535-7.677a.754.754 0 0 0 .549.244c.441 0 .798-.398.798-.891 0-.014.038-3.689.002-5.513z"/><circle cx="257.154" cy="321.202" r="2.048"/></g><g fill-rule="evenodd" clip-rule="evenodd" fill="#666"><path d="M366.301 325.326c-.021-1.008-.75-1.675-1.76-1.688-.562-.008-3.022-.008-3.584 0-1.01.014-1.74.681-1.761 1.688-.036 1.823.002 5.499.002 5.513 0 .491.357.891.798.891a.755.755 0 0 0 .549-.245c.183 2.599.364 5.139.535 7.678.024.361.033.716.321.95.239.229.752.387 1.347.387s1.107-.158 1.347-.386c.289-.235.297-.59.322-.951.171-2.539.352-5.079.535-7.678a.755.755 0 0 0 .549.245c.441 0 .798-.399.798-.891 0-.014.038-3.69.002-5.513z"/><circle cx="362.749" cy="321.184" r="2.048"/></g><g fill-rule="evenodd" clip-rule="evenodd" fill="#666"><path d="M342.458 325.326c-.021-1.008-.75-1.675-1.76-1.688-.562-.008-3.022-.008-3.584 0-1.01.014-1.74.681-1.76 1.688-.037 1.823.001 5.499.001 5.513 0 .491.357.891.798.891a.755.755 0 0 0 .549-.245c.183 2.599.363 5.139.535 7.678.025.361.033.716.321.95.239.229.752.387 1.347.387s1.107-.158 1.347-.386c.289-.235.297-.59.322-.951.171-2.539.353-5.079.535-7.678a.755.755 0 0 0 .549.245c.441 0 .798-.399.798-.891.001-.014.039-3.69.002-5.513z"/><circle cx="338.906" cy="321.184" r="2.048"/></g><g fill-rule="evenodd" clip-rule="evenodd" fill="#666"><path d="M414.625 325.344c-.021-1.008-.75-1.675-1.76-1.688-.562-.008-3.022-.008-3.584 0-1.01.014-1.74.681-1.76 1.688-.037 1.823.001 5.499.001 5.513 0 .491.357.891.798.891a.755.755 0 0 0 .549-.245c.183 2.599.363 5.139.535 7.678.025.361.033.716.321.95.239.229.752.387 1.347.387s1.107-.158 1.347-.386c.289-.235.297-.59.322-.951.171-2.539.353-5.079.535-7.678a.755.755 0 0 0 .549.245c.441 0 .798-.399.798-.891 0-.014.038-3.69.002-5.513z"/><circle cx="411.073" cy="321.203" r="2.048"/></g><g fill-rule="evenodd" clip-rule="evenodd" fill="#666"><path d="M447.832 325.344c-.02-1.008-.749-1.675-1.76-1.688-.562-.008-3.021-.008-3.584 0-1.01.014-1.74.681-1.76 1.688-.036 1.823.002 5.499.002 5.513 0 .491.357.891.799.891a.755.755 0 0 0 .548-.245c.183 2.599.364 5.139.536 7.678.023.361.032.716.32.95.239.229.752.387 1.347.387s1.107-.158 1.347-.386c.289-.235.298-.59.322-.951.172-2.539.353-5.079.535-7.678a.755.755 0 0 0 .549.245c.44 0 .799-.399.799-.891 0-.014.037-3.69 0-5.513z"/><circle cx="444.28" cy="321.203" r="2.048"/></g><g fill-rule="evenodd" clip-rule="evenodd" fill="#666"><path d="M496.348 325.344c-.021-1.008-.75-1.675-1.76-1.688-.563-.008-3.023-.008-3.584 0-1.01.014-1.74.681-1.761 1.688-.036 1.823.002 5.499.002 5.513 0 .491.356.891.798.891a.755.755 0 0 0 .549-.245c.184 2.599.364 5.139.536 7.678.024.361.032.716.321.95.238.229.751.387 1.346.387.596 0 1.107-.158 1.348-.386.289-.235.297-.59.321-.951.171-2.539.353-5.079.534-7.678a.76.76 0 0 0 .55.245c.44 0 .798-.399.798-.891 0-.014.039-3.69.002-5.513z"/><circle cx="492.795" cy="321.203" r="2.048"/></g><g fill-rule="evenodd" clip-rule="evenodd" fill="#666"><path d="M520.5 325.344c-.021-1.008-.75-1.675-1.76-1.688-.563-.008-3.023-.008-3.584 0-1.01.014-1.74.681-1.761 1.688-.036 1.823.002 5.499.002 5.513 0 .491.356.891.798.891a.755.755 0 0 0 .549-.245c.184 2.599.364 5.139.536 7.678.024.361.032.716.321.95.238.229.751.387 1.346.387.596 0 1.107-.158 1.348-.386.289-.235.297-.59.321-.951.172-2.539.353-5.079.534-7.678a.761.761 0 0 0 .551.245c.439 0 .798-.399.798-.891 0-.014.038-3.69.001-5.513z"/><circle cx="516.947" cy="321.203" r="2.048"/></g><g fill-rule="evenodd" clip-rule="evenodd" fill="#666"><path d="M577.772 325.342c-.021-1.007-.75-1.674-1.76-1.688-.563-.008-3.022-.008-3.584 0-1.011.014-1.741.681-1.761 1.688-.036 1.824.002 5.5.002 5.514 0 .491.357.891.799.891a.757.757 0 0 0 .549-.245c.183 2.599.363 5.139.535 7.678.024.361.033.716.32.95.24.229.752.387 1.348.387.595 0 1.107-.158 1.346-.387.289-.234.298-.589.322-.95.172-2.539.353-5.079.535-7.678a.755.755 0 0 0 .549.245c.441 0 .799-.399.799-.891 0-.014.039-3.689.001-5.514z"/><circle cx="574.221" cy="321.202" r="2.048"/></g><g fill-rule="evenodd" clip-rule="evenodd" fill="#666"><path d="M601.925 325.342c-.021-1.007-.75-1.674-1.76-1.688-.562-.008-3.022-.008-3.584 0-1.01.014-1.741.681-1.761 1.688-.036 1.824.002 5.5.002 5.514 0 .491.357.891.799.891a.757.757 0 0 0 .549-.245c.183 2.599.363 5.139.535 7.678.024.361.033.716.32.95.24.229.752.387 1.348.387.595 0 1.107-.158 1.346-.387.289-.234.298-.589.322-.95.172-2.539.353-5.079.535-7.678a.755.755 0 0 0 .549.245c.441 0 .799-.399.799-.891 0-.014.038-3.689.001-5.514z"/><circle cx="598.373" cy="321.202" r="2.048"/></g></svg>