<svg xmlns="http://www.w3.org/2000/svg" xmlns:xlink="http://www.w3.org/1999/xlink" width="342.473" height="154.517" viewBox="0 0 342.473 154.517"><linearGradient id="a" gradientUnits="userSpaceOnUse" x1="39.458" y1="-222.663" x2="310.771" y2="-222.663" gradientTransform="rotate(-45.001 535.241 -68.003)"><stop offset="0" stop-color="#6b4c2d"/><stop offset=".562" stop-color="#e5d4b5"/><stop offset=".833" stop-color="#a1795a"/><stop offset=".955" stop-color="#814f2f"/></linearGradient><path fill="url(#a)" d="M171.445 15.192l.395.689 6.337 10.97 10.072 17.444 1.113 1.929h35.831l-.475.818-5.931 10.273-3.34 5.788h120.596v28.303H215.446l3.34 5.785 5.997 10.386.408.706H189.36l-1.113 1.928-10.072 17.448-6.337 10.967-.397.69-.398-.69-6.337-10.967-10.068-17.448-1.113-1.928h-35.826l.469-.815 5.932-10.276 3.337-5.785H6.427l.003-6.135V69.291l-.003-6.186H127.44l-3.34-5.788-5.993-10.383-.411-.709h35.83l1.113-1.929 10.068-17.444 6.337-10.97.401-.69m-16.081 34.216h-32.147l3.331 5.781.635 1.102 10.068 17.444 2.034 3.521-2.034 3.522-10.068 17.444-.635 1.098-3.337 5.781h32.156l.105.187 1.925 3.337 10.072 17.448.635 1.094 3.337 5.778 3.336-5.778.636-1.097 10.075-17.445 1.925-3.337.106-.187h32.165l-3.344-5.785-.636-1.094-10.071-17.447-2.034-3.52 2.034-3.521 10.071-17.444.636-1.098 3.336-5.785H187.52l-2.031-3.52-10.072-17.441-.632-1.101-3.343-5.788-3.34 5.788-.632 1.097-10.068 17.445-2.038 3.521M171.442 0a7.478 7.478 0 0 0-7.482 7.479 7.479 7.479 0 0 0 3.744 6.475l-6.333 10.97-10.072 17.445h-32.804a7.483 7.483 0 0 0-14.964.025 7.479 7.479 0 0 0 11.233 6.469l5.997 10.386H12.617l2.57-2.573H0v15.186l2.57-2.57v15.982L0 82.703v15.189l15.187-.004-2.625-2.624 108.198-.003-5.933 10.283a7.413 7.413 0 0 0-3.815-1.056 7.48 7.48 0 0 0-7.482 7.479 7.484 7.484 0 0 0 7.482 7.484 7.474 7.474 0 0 0 7.473-7.312h12.67l20.143.003 10.072 17.445 6.333 10.97a7.477 7.477 0 0 0-3.744 6.472 7.482 7.482 0 0 0 7.482 7.482 7.485 7.485 0 0 0 7.485-7.482 7.473 7.473 0 0 0-3.748-6.472l6.333-10.97 10.072-17.448 20.143.003 12.665-.003a7.479 7.479 0 0 0 14.958-.022 7.479 7.479 0 0 0-7.479-7.482 7.452 7.452 0 0 0-3.748 1.014l-5.996-10.389H329.91l-2.628 2.631 15.189-.004V82.703l-2.57 2.57-.001-15.982 2.573 2.57V56.675h-15.189l2.573 2.573h-107.73l5.933-10.28a7.43 7.43 0 0 0 3.812 1.059 7.484 7.484 0 0 0 7.479-7.485 7.476 7.476 0 0 0-7.479-7.479 7.47 7.47 0 0 0-7.469 7.307h-32.818l-10.068-17.445-6.337-10.97a7.476 7.476 0 0 0 3.748-6.475A7.482 7.482 0 0 0 171.442 0z"/><linearGradient id="b" gradientUnits="userSpaceOnUse" x1="373.686" y1="284.87" x2="388.62" y2="299.803" gradientTransform="rotate(45.001 535.645 -68.03)"><stop offset="0" stop-color="#e5d4b5"/><stop offset="1" stop-color="#6b4c2d"/></linearGradient><path fill="url(#b)" d="M238.141 74.554c0 3.797-3.058 6.856-7.001 6.856h-3.003v6.288h-4.572V67.693l7.575.002c3.943-.002 7.001 3.056 7.001 6.859zm-4.572 0c0-1.459-1.029-2.574-2.429-2.575h-3.003v5.146h3.003c1.4 0 2.429-1.114 2.429-2.571zm7.857 3.143c0-5.888 4.659-10.405 10.406-10.405 5.742 0 10.401 4.517 10.401 10.405 0 5.888-4.659 10.404-10.401 10.404-5.747 0-10.406-4.517-10.406-10.404zm16.236 0c0-3.572-2.573-5.945-5.833-5.947-3.257.002-5.83 2.375-5.83 5.947 0 3.57 2.573 5.945 5.83 5.943 3.259.002 5.83-2.373 5.833-5.943zm20.862 5.603l-.004 4.398-11.717.002V67.695h4.572V83.3h7.149zm8.566-15.605v20.006h-4.572V67.693l4.572.002zm4.573 10c0-5.887 4.377-10.403 10.405-10.403 3.632 0 6.831 1.802 8.576 4.632l-3.942 2.287c-.89-1.545-2.605-2.459-4.634-2.461-3.546 0-5.83 2.375-5.83 5.947-.003 3.57 2.288 5.945 5.83 5.945 2.03 0 3.773-.914 4.634-2.459l3.942 2.285c-1.716 2.834-4.915 4.633-8.576 4.633-6.028 0-10.405-4.518-10.405-10.406zm35.695 5.603V87.7h-12.574V67.695h12.436v4.401l-7.864-.001v3.315l7.149-.001v4.344l-7.149-.002V83.3l8.002-.002zm-311.539-5.91c0-5.889 4.373-10.403 10.402-10.404 3.632.001 6.834 1.801 8.573 4.631l-3.94 2.285c-.889-1.542-2.602-2.455-4.63-2.457-3.545 0-5.833 2.373-5.833 5.945 0 3.573 2.288 5.945 5.833 5.945 2.028.002 3.773-.914 4.63-2.457l3.943 2.284c-1.717 2.831-4.916 4.632-8.577 4.63-6.028.002-10.401-4.513-10.401-10.402zm27.866 3.431H41.51v6.572h-4.572V67.382h8.002a6.846 6.846 0 0 1 6.86 6.86c0 2.46-1.485 4.689-3.687 5.806l4.258 7.343-4.916.002-3.77-6.574zm-2.175-4.005h3.43c1.258.002 2.288-1.109 2.288-2.57 0-1.455-1.03-2.57-2.288-2.569h-3.43v5.139zm22.007 2.89v7.689l-4.576-.002.003-7.687-6.719-12.32 5.201-.002 3.802 7.722 3.802-7.722h5.201l-6.714 12.322zm23.005-5.461c0 3.802-3.061 6.86-7.004 6.86h-3.003l.003 6.288-4.572.002V67.384l7.572-.002c3.943 0 7.004 3.061 7.004 6.861zm-4.572.001c0-1.455-1.03-2.57-2.432-2.569h-3v5.14h3c1.399-.001 2.429-1.112 2.432-2.571zm20.002-2.457h-5.143v15.606h-4.575V71.787l-5.144-.002v-4.4l14.862-.002v4.404zm-.003 5.601c0-5.889 4.662-10.404 10.405-10.404s10.405 4.516 10.405 10.406c0 5.888-4.662 10.4-10.405 10.4-5.743.002-10.405-4.513-10.405-10.402zm16.238.002c0-3.576-2.573-5.947-5.833-5.945-3.257 0-5.83 2.371-5.83 5.943 0 3.574 2.573 5.947 5.83 5.947 3.256 0 5.833-2.374 5.833-5.945z"/><linearGradient id="c" gradientUnits="userSpaceOnUse" x1="667.955" y1="335.837" x2="693.697" y2="335.837" gradientTransform="rotate(90 535.295 -68.142)"><stop offset="0" stop-color="#6b4c2d"/><stop offset=".562" stop-color="#e5d4b5"/><stop offset=".833" stop-color="#a1795a"/><stop offset=".955" stop-color="#814f2f"/></linearGradient><path fill="url(#c)" d="M135.032 77.39l-7.431-12.873 4.874 12.873-4.874 12.869z"/><linearGradient id="d" gradientUnits="userSpaceOnUse" x1="667.826" y1="255.806" x2="693.57" y2="255.806" gradientTransform="rotate(90 535.295 -68.142)"><stop offset="0" stop-color="#6b4c2d"/><stop offset=".562" stop-color="#e5d4b5"/><stop offset=".833" stop-color="#a1795a"/><stop offset=".955" stop-color="#814f2f"/></linearGradient><path fill="url(#d)" d="M207.631 77.26l7.431 12.872-4.877-12.872 4.877-12.871z"/><linearGradient id="e" gradientUnits="userSpaceOnUse" x1="657.671" y1="295.677" x2="704.597" y2="295.677" gradientTransform="rotate(90 535.295 -68.142)"><stop offset="0" stop-color="#6b4c2d"/><stop offset=".205" stop-color="#6e4f30"/><stop offset=".375" stop-color="#77593a"/><stop offset=".532" stop-color="#876b4c"/><stop offset=".68" stop-color="#9c8364"/><stop offset=".824" stop-color="#b8a283"/><stop offset=".961" stop-color="#dac8a9"/><stop offset="1" stop-color="#e5d4b5"/></linearGradient><path fill="url(#e)" d="M194.938 77.697c0 12.938-10.524 23.464-23.46 23.464-12.94 0-23.464-10.525-23.464-23.464 0-12.936 10.524-23.463 23.464-23.463 12.936 0 23.46 10.527 23.46 23.463z"/><linearGradient id="f" gradientUnits="userSpaceOnUse" x1="632.863" y1="295.823" x2="728.826" y2="295.823" gradientTransform="rotate(90 535.442 -68.142)"><stop offset="0" stop-color="#6b4c2d"/><stop offset=".433" stop-color="#e5d4b5"/><stop offset=".793" stop-color="#a1795a"/><stop offset=".955" stop-color="#814f2f"/></linearGradient><path fill="url(#f)" d="M170.842 30.376l.635-1.098.632 1.098 10.075 17.445 2.641 4.573c-3.985-2.106-8.525-3.305-13.347-3.305s-9.363 1.198-13.348 3.305l2.641-4.573 10.071-17.445zm-40.918 22.895l.635 1.096 10.068 17.445 2.313 4.002c.619-9.555 5.923-17.828 13.646-22.543h-26.662zm21.41 47.98h3.914c-7.2-4.971-12.003-13.148-12.35-22.473l-2.271 3.931-10.068 17.442-.635 1.1h21.41zm30.85 5.448l1.925-3.334c-3.812 1.879-8.098 2.938-12.632 2.938s-8.82-1.06-12.632-2.938l1.925 3.334 10.072 17.445.635 1.098.632-1.098 10.075-17.445zm30.847-5.448l-.635-1.1-10.068-17.442-2.271-3.933c-.347 9.322-5.153 17.504-12.35 22.475h25.324zm0-47.98h-26.663c7.72 4.715 13.027 12.991 13.646 22.545l2.313-4.004 10.068-17.445.636-1.096z"/><linearGradient id="g" gradientUnits="userSpaceOnUse" x1="663.21" y1="294.254" x2="696.524" y2="294.254" gradientTransform="rotate(90 535.295 -68.142)"><stop offset="0" stop-color="#e5d4b5"/><stop offset=".052" stop-color="#e5d4b5"/><stop offset=".059" stop-color="#e5d4b5"/></linearGradient><path fill-rule="evenodd" clip-rule="evenodd" fill="url(#g)" d="M182.178 75.98c1.319-1.146 2.118-2.743 2.118-4.755 0-4.2-3.436-6.943-7.671-6.943h-.147v-4.508h-4.098v4.508h-2.073v-4.508h-4.097v4.508h-5.573v24.295h5.573v4.511h4.097v-4.511h2.073v4.511h4.098v-4.511h.844c4.338 0 7.841-2.808 7.841-7.113-.001-2.464-1.182-4.339-2.985-5.484zm-15.988-6.49h10.434c1.283 0 2.118.901 2.118 2.149 0 1.251-.87 2.153-2.118 2.153H166.19V69.49zm11.13 13.883h-11.13V78.72h11.13c1.386 0 2.288.973 2.288 2.326s-.902 2.327-2.288 2.327z"/><defs><path id="h" d="M342.473 56.675h-15.189l2.573 2.573h-107.73l5.933-10.28a7.43 7.43 0 0 0 3.812 1.059 7.484 7.484 0 0 0 7.479-7.485 7.476 7.476 0 0 0-7.479-7.479 7.47 7.47 0 0 0-7.469 7.307h-32.818l-10.068-17.445-6.337-10.97a7.476 7.476 0 0 0 3.748-6.475 7.482 7.482 0 0 0-7.485-7.479 7.478 7.478 0 0 0-7.482 7.479 7.479 7.479 0 0 0 3.744 6.475l-6.333 10.97L151.3 42.37h-32.804a7.483 7.483 0 0 0-14.964.025 7.479 7.479 0 0 0 11.233 6.469l5.997 10.386H12.617l2.57-2.573H0v15.186l2.57-2.57v15.982L0 82.703v15.189l15.187-.004-2.625-2.624 108.198-.003-5.933 10.283a7.413 7.413 0 0 0-3.815-1.056 7.48 7.48 0 0 0-7.482 7.479 7.484 7.484 0 0 0 7.482 7.484 7.474 7.474 0 0 0 7.473-7.312h12.67l20.143.003 10.072 17.445 6.333 10.97a7.477 7.477 0 0 0-3.744 6.472 7.482 7.482 0 0 0 7.482 7.482 7.485 7.485 0 0 0 7.485-7.482 7.473 7.473 0 0 0-3.748-6.472l6.333-10.97 10.072-17.448 20.143.003 12.665-.003a7.479 7.479 0 0 0 14.958-.022 7.479 7.479 0 0 0-7.479-7.482 7.452 7.452 0 0 0-3.748 1.014l-5.996-10.389H329.91l-2.628 2.631 15.189-.004V82.703l-2.57 2.57-.001-15.982 2.573 2.57V56.675zm-6.431 12.616v22.117H215.446l3.34 5.785 5.997 10.386.408.706H189.36l-1.113 1.928-10.072 17.448-6.337 10.967-.397.69-.398-.69-6.337-10.967-10.068-17.448-1.113-1.928h-35.826l.469-.815 5.932-10.276 3.337-5.785H6.427l.003-6.135V69.291l-.003-6.186H127.44l-3.34-5.788-5.993-10.383-.411-.709h35.83l1.113-1.929 10.068-17.444 6.337-10.97.401-.689.395.689 6.337 10.97 10.072 17.444 1.113 1.929h35.831l-.475.818-5.931 10.273-3.34 5.788h120.596v6.187zm-97.901 5.263c0 3.797-3.058 6.856-7.001 6.856h-3.003v6.288h-4.572V67.693l7.575.002c3.943-.002 7.001 3.056 7.001 6.859zm-4.572 0c0-1.459-1.029-2.574-2.429-2.575h-3.003v5.146h3.003c1.4 0 2.429-1.114 2.429-2.571zm7.857 3.143c0-5.888 4.659-10.405 10.406-10.405 5.742 0 10.401 4.517 10.401 10.405 0 5.888-4.659 10.404-10.401 10.404-5.747 0-10.406-4.517-10.406-10.404zm16.236 0c0-3.572-2.573-5.945-5.833-5.947-3.257.002-5.83 2.375-5.83 5.947 0 3.57 2.573 5.945 5.83 5.943 3.259.002 5.83-2.373 5.833-5.943zm20.862 5.603l-.004 4.398-11.717.002V67.695h4.572V83.3h7.149zm8.566-15.605v20.006h-4.572V67.693l4.572.002zm4.573 10c0-5.887 4.377-10.403 10.405-10.403 3.632 0 6.831 1.802 8.576 4.632l-3.942 2.287c-.89-1.545-2.605-2.459-4.634-2.461-3.546 0-5.83 2.375-5.83 5.947-.003 3.57 2.288 5.945 5.83 5.945 2.03 0 3.773-.914 4.634-2.459l3.942 2.285c-1.716 2.834-4.915 4.633-8.576 4.633-6.028 0-10.405-4.518-10.405-10.406zm35.695 5.603V87.7h-12.574V67.695h12.436v4.401l-7.864-.001v3.315l7.149-.001v4.344l-7.149-.002V83.3l8.002-.002zm-311.539-5.91c0-5.889 4.373-10.403 10.402-10.404 3.632.001 6.834 1.801 8.573 4.631l-3.94 2.285c-.889-1.542-2.602-2.455-4.63-2.457-3.545 0-5.833 2.373-5.833 5.945 0 3.573 2.288 5.945 5.833 5.945 2.028.002 3.773-.914 4.63-2.457l3.943 2.284c-1.717 2.831-4.916 4.632-8.577 4.63-6.028.002-10.401-4.513-10.401-10.402zm27.866 3.431H41.51v6.572h-4.572V67.382h8.002a6.846 6.846 0 0 1 6.86 6.86c0 2.46-1.485 4.689-3.687 5.806l4.258 7.343-4.916.002-3.77-6.574zm-2.175-4.005h3.43c1.258.002 2.288-1.109 2.288-2.57 0-1.455-1.03-2.57-2.288-2.569h-3.43v5.139zm22.007 2.89v7.689l-4.576-.002.003-7.687-6.719-12.32 5.201-.002 3.802 7.722 3.802-7.722h5.201l-6.714 12.322zm23.005-5.461c0 3.802-3.061 6.86-7.004 6.86h-3.003l.003 6.288-4.572.002V67.384l7.572-.002c3.943 0 7.004 3.061 7.004 6.861zm-4.572.001c0-1.455-1.03-2.57-2.432-2.569h-3v5.14h3c1.399-.001 2.429-1.112 2.432-2.571zm20.002-2.457h-5.143v15.606h-4.575V71.787l-5.144-.002v-4.4l14.862-.002v4.404zm-.003 5.601c0-5.889 4.662-10.404 10.405-10.404s10.405 4.516 10.405 10.406c0 5.888-4.662 10.4-10.405 10.4-5.743.002-10.405-4.513-10.405-10.402zm16.238.002c0-3.576-2.573-5.947-5.833-5.945-3.257 0-5.83 2.371-5.83 5.943 0 3.574 2.573 5.947 5.83 5.947 3.256 0 5.833-2.374 5.833-5.945zm9.414 12.869l4.874-12.869-4.874-12.873 7.431 12.873-7.431 12.869zm87.461-25.87l-4.877 12.871 4.877 12.872-7.431-12.872 7.431-12.871zm-44.22-34.013l.635-1.098.632 1.098 10.075 17.445 2.641 4.573c-3.985-2.106-8.525-3.305-13.347-3.305s-9.363 1.198-13.348 3.305l2.641-4.573 10.071-17.445zm-40.918 22.895l.635 1.096 10.068 17.445 2.313 4.002c.619-9.555 5.923-17.828 13.646-22.543h-26.662zm21.41 47.98h3.914c-7.2-4.971-12.003-13.148-12.35-22.473l-2.271 3.931-10.068 17.442-.635 1.1h21.41zm30.85 5.448l1.925-3.334c-3.812 1.879-8.098 2.938-12.632 2.938s-8.82-1.06-12.632-2.938l1.925 3.334 10.072 17.445.635 1.098.632-1.098 10.075-17.445zm30.847-5.448l-.635-1.1-10.068-17.442-2.271-3.933c-.347 9.322-5.153 17.504-12.35 22.475h25.324zm0-47.98h-26.663c7.72 4.715 13.027 12.991 13.646 22.545l2.313-4.004 10.068-17.445.636-1.096zm-36.407 20.521H166.19V69.49h10.434c1.283 0 2.118.901 2.118 2.149 0 1.251-.87 2.153-2.118 2.153zm2.984 7.254c0 1.354-.902 2.326-2.288 2.326h-11.13V78.72h11.13c1.386 0 2.288.973 2.288 2.326zm-8.13-26.812c-12.94 0-23.464 10.527-23.464 23.463 0 12.938 10.524 23.464 23.464 23.464 12.937 0 23.46-10.525 23.46-23.464 0-12.936-10.524-23.463-23.46-23.463zm5.842 34.343h-.844v4.511h-4.098v-4.511h-2.073v4.511h-4.097v-4.511h-5.573V64.282h5.573v-4.508h4.097v4.508h2.073v-4.508h4.098v4.508h.147c4.235 0 7.671 2.743 7.671 6.943 0 2.012-.799 3.609-2.118 4.755 1.803 1.146 2.984 3.02 2.984 5.483.002 4.306-3.502 7.114-7.84 7.114z"/></defs><clipPath id="i"><use xlink:href="#h" overflow="visible"/></clipPath><radialGradient id="j" cx="171.236" cy="32.818" r="121.695" gradientUnits="userSpaceOnUse"><stop offset="0" stop-color="#b88c94"/><stop offset=".021" stop-color="#b88c94" stop-opacity=".979"/><stop offset="1" stop-color="#b88c94" stop-opacity="0"/></radialGradient><circle clip-path="url(#i)" fill="url(#j)" cx="171.236" cy="32.818" r="121.695"/><linearGradient id="k" gradientUnits="userSpaceOnUse" x1="1083.702" y1="-952.758" x2="1155.582" y2="-952.758" gradientTransform="rotate(90 136.57 -917.852)"><stop offset="0" stop-color="#020202"/><stop offset="1" stop-opacity="0"/></linearGradient><path opacity=".5" fill="url(#k)" d="M170.842 30.376l.636-1.098.632 1.098 10.074 17.445 2.641 4.572c-3.984-2.105-8.524-3.305-13.347-3.305s-9.362 1.199-13.348 3.305l2.641-4.572 10.071-17.445zm-40.918 22.895l.635 1.096 10.068 17.445 2.314 4.002c.619-9.555 5.922-17.828 13.646-22.543h-26.663zm83.107 0h-26.663c7.72 4.715 13.028 12.99 13.647 22.545l2.313-4.004 10.068-17.445.635-1.096zm-34.289 18.367c0-1.248-.835-2.148-2.118-2.148h-10.435v4.303h10.435c1.248-.001 2.118-.903 2.118-2.155zm-1.422 7.082h-11.131v4.652h11.131c1.386 0 2.287-.973 2.287-2.326s-.901-2.326-2.287-2.326zm-5.842-24.486c-12.94 0-23.464 10.527-23.464 23.463 0 12.938 10.523 23.463 23.464 23.463 12.937 0 23.461-10.525 23.461-23.463-.001-12.936-10.525-23.463-23.461-23.463zm5.842 34.342h-.844v4.512h-4.098v-4.512h-2.072v4.512h-4.098v-4.512h-5.573V64.281h5.573v-4.508h4.098v4.508h2.072v-4.508h4.098v4.508h.147c4.235 0 7.671 2.744 7.671 6.943 0 2.012-.799 3.609-2.117 4.756 1.803 1.145 2.984 3.02 2.984 5.482.001 4.307-3.503 7.114-7.841 7.114z"/><linearGradient id="l" gradientUnits="userSpaceOnUse" x1="-469.671" y1="-665.045" x2="-315.159" y2="-665.045" gradientTransform="rotate(-90 260.563 -575.718)"><stop offset="0" stop-color="#020202"/><stop offset=".007" stop-color="#060606"/><stop offset=".126" stop-color="#3f3f3f"/><stop offset=".248" stop-color="#737373"/><stop offset=".37" stop-color="#9e9e9e"/><stop offset=".493" stop-color="#c1c1c1"/><stop offset=".617" stop-color="#dcdcdc"/><stop offset=".742" stop-color="#f0f0f0"/><stop offset=".868" stop-color="#fbfbfb"/><stop offset="1" stop-color="#fff"/></linearGradient><path opacity=".5" fill="url(#l)" d="M171.442 1.004c3.576 0 6.486 2.906 6.486 6.479a6.504 6.504 0 0 1-3.25 5.609l-.865.5.5.865 6.338 10.971 10.068 17.444.289.5h34.374l.021-.979c.076-3.489 2.979-6.327 6.469-6.327a6.486 6.486 0 0 1 6.479 6.479c0 3.573-2.906 6.483-6.477 6.486a6.461 6.461 0 0 1-3.301-.918l-.871-.521-.508.879-5.934 10.28-.865 1.5H332.27l-1.707-1.707-.865-.866h11.775v11.774l-.867-.866-1.707-1.705v2.413l.004 15.981v2.414l1.707-1.707.863-.863v11.772l-11.777.003.924-.924 1.703-1.707H220.395l.865 1.5 5.996 10.39.502.867.867-.502a6.481 6.481 0 0 1 3.246-.88c3.572 0 6.479 2.908 6.479 6.482s-2.906 6.482-6.479 6.482c-3.563 0-6.469-2.899-6.479-6.463l-.004-.997h-.996l-12.664.004-20.145-.004h-.576l-.289.5-10.072 17.448-6.334 10.97-.5.866.865.5a6.502 6.502 0 0 1 3.25 5.605c0 3.574-2.91 6.482-6.486 6.482a6.49 6.49 0 0 1-6.482-6.482 6.503 6.503 0 0 1 3.244-5.606l.865-.5-.5-.865-6.332-10.97-10.072-17.444-.289-.5h-.576l-20.145-.004h-13.649l-.021.979c-.078 3.492-2.98 6.334-6.473 6.334a6.49 6.49 0 0 1-6.482-6.485 6.487 6.487 0 0 1 6.482-6.479c1.156 0 2.299.316 3.303.915l.871.52.508-.879 5.932-10.283.865-1.5h-1.73l-108.198.004h-2.414l1.707 1.707.918.918L1 96.896V85.122l.862.862 1.707 1.708V66.88l-1.707 1.708-.862.863V57.679h11.774l-.865.867-1.705 1.706h112.288l-.867-1.5-5.996-10.386-.5-.867-.867.501a6.502 6.502 0 0 1-3.25.877 6.487 6.487 0 0 1-6.482-6.479c.003-3.575 2.91-6.483 6.482-6.483 3.561 0 6.469 2.898 6.482 6.461l.004.996h34.377l.289-.5 10.072-17.444 6.332-10.971.5-.864-.865-.501a6.505 6.505 0 0 1-3.244-5.609c0-3.572 2.909-6.479 6.483-6.479m-18.494 44.225H115.96l.871 1.502.41.707 5.992 10.383 2.475 4.288H5.426l.001 1.001.003 6.186v15.981l-.003 6.135-.001 1h120.279l-2.473 4.285-5.932 10.278-.469.815-.861 1.498h36.977l.824 1.429 10.068 17.448 6.338 10.965.396.69.865 1.502.867-1.501.398-.689 6.336-10.968 10.072-17.447.824-1.429h36.986l-.867-1.5-.408-.706-5.996-10.386-2.473-4.285h119.861V62.108h-119.86l2.475-4.288 5.93-10.271.475-.818.871-1.502h-36.99l-.824-1.428-10.072-17.445-6.334-10.967-.395-.689-.859-1.504-.873 1.498-.402.692-6.338 10.97-10.068 17.445-.826 1.428M171.442.004a7.478 7.478 0 0 0-7.482 7.479 7.48 7.48 0 0 0 3.744 6.475l-6.334 10.971-10.07 17.444h-32.805a7.482 7.482 0 0 0-14.964.025 7.479 7.479 0 0 0 11.234 6.468l5.996 10.386H12.616l2.57-2.573H0v15.187l2.569-2.57v15.981L0 82.707v15.189l15.187-.003-2.625-2.625 108.199-.003-5.934 10.283a7.416 7.416 0 0 0-3.814-1.056 7.48 7.48 0 0 0-7.482 7.479 7.484 7.484 0 0 0 7.482 7.485 7.476 7.476 0 0 0 7.473-7.313h12.67l20.145.004 10.07 17.444 6.334 10.97a7.48 7.48 0 0 0-3.744 6.472c0 4.133 3.35 7.482 7.482 7.482s7.486-3.35 7.486-7.482a7.475 7.475 0 0 0-3.748-6.472l6.334-10.97 10.07-17.448 20.145.004 12.664-.004a7.479 7.479 0 0 0 14.958-.022 7.479 7.479 0 0 0-7.479-7.482 7.452 7.452 0 0 0-3.748 1.015l-5.996-10.39h107.783l-2.627 2.631 15.189-.003V82.707l-2.57 2.57-.004-15.981 2.574 2.57V56.679h-15.189l2.572 2.573h-107.73l5.932-10.28a7.447 7.447 0 0 0 3.813 1.06 7.485 7.485 0 0 0 7.479-7.486 7.476 7.476 0 0 0-7.479-7.479 7.47 7.47 0 0 0-7.469 7.306h-32.819l-10.068-17.444-6.336-10.971a7.475 7.475 0 0 0 3.748-6.475c0-4.133-3.353-7.479-7.486-7.479zM6.427 91.412l.003-6.135V69.295l-.003-6.187H127.44l-3.34-5.788-5.994-10.383-.41-.709h35.831l1.113-1.928 10.068-17.445 6.336-10.97.402-.689.395.689 6.336 10.97L188.249 44.3l1.113 1.928h35.831l-.475.818-5.93 10.273-3.34 5.788h120.595V91.41H215.447l3.34 5.785 5.996 10.386.408.706H189.36l-1.113 1.929-10.072 17.447-6.336 10.967-.398.69-.398-.69-6.336-10.967-10.068-17.447-1.113-1.929H117.7l.469-.815 5.932-10.276 3.336-5.785H6.427v.001zm105.927-23.424c5.273 0 9.404 4.132 9.404 9.406 0 5.271-4.131 9.4-9.408 9.4-5.272 0-9.402-4.13-9.402-9.401 0-5.274 4.132-9.405 9.406-9.405m0 16.352c3.959 0 6.832-2.921 6.832-6.946 0-4.024-2.871-6.945-6.832-6.945-3.959 0-6.831 2.921-6.831 6.944 0 4.025 2.872 6.947 6.831 6.947M26.221 67.988c2.87.001 5.465 1.223 7.13 3.313l-2.21 1.281c-1.146-1.35-2.918-2.133-4.917-2.134-4.087 0-6.833 2.791-6.833 6.945s2.746 6.945 6.84 6.945c2.02 0 3.791-.781 4.92-2.131l2.208 1.279c-1.648 2.088-4.245 3.308-7.142 3.308-5.445 0-9.398-3.954-9.398-9.401-.001-5.448 3.953-9.404 9.402-9.405m275.846.307c2.867 0 5.463 1.222 7.133 3.313l-2.211 1.283c-1.148-1.353-2.92-2.137-4.922-2.139-4.084 0-6.83 2.792-6.83 6.946-.002 2.023.645 3.757 1.871 5.012 1.234 1.266 2.951 1.935 4.959 1.935 2.023 0 3.799-.781 4.93-2.132l2.209 1.281c-1.648 2.089-4.246 3.31-7.139 3.31-5.449 0-9.404-3.956-9.404-9.405s3.955-9.404 9.404-9.404m-50.234 0c5.271 0 9.4 4.132 9.4 9.405s-4.129 9.404-9.4 9.404c-5.275 0-9.406-4.131-9.406-9.404s4.13-9.405 9.406-9.405m-.008 16.35h.006c3.955 0 6.828-2.92 6.83-6.944 0-4.022-2.873-6.944-6.834-6.947-3.957.003-6.828 2.925-6.828 6.947 0 4.023 2.871 6.944 6.826 6.944M68.548 68.387l-5.909 10.842-.122.224v6.944l-2.575-.001.003-6.687v-.255l-.122-.225-5.913-10.841 2.895-.001 3.527 7.163.896 1.821.897-1.821 3.527-7.163h2.896m-23.61 0a5.868 5.868 0 0 1 5.86 5.859c0 2.019-1.231 3.947-3.139 4.914l-.943.479.53.915 3.388 5.842-2.601.001-3.481-6.071-.289-.503H40.51v6.572h-2.572V68.387h7m-4.428 9.432h4.432c1.843 0 3.285-1.568 3.285-3.57s-1.442-3.57-3.287-3.57h-4.43v7.14m39.008-9.432c3.367 0 6.004 2.573 6.004 5.859s-2.637 5.86-6.004 5.86h-4.004l.001 1 .002 5.289-2.571.001V68.388l6.572-.001m-4 9.432h4c1.952 0 3.428-1.534 3.432-3.57 0-2.035-1.474-3.57-3.432-3.57h-4v7.14m25.433-9.432v2.403h-5.143v15.606h-2.575V70.792l-1-.001-4.143-.001v-2.401l12.861-.002m123.614.31l6.578.002c3.363 0 5.998 2.573 5.998 5.859 0 3.284-2.637 5.856-6.002 5.856h-4.002v6.289h-2.572V68.697m2.572 9.432h4.002c1.955 0 3.43-1.535 3.43-3.571s-1.475-3.573-3.43-3.575h-4.002v7.146m56.381-9.432l2.572.001v18.007h-2.572V68.697m42.701.002V71.1l-6.865-.001h-1v5.315h1l6.15-.001v2.344l-6.15-.001h-1v5.548h1l7.004-.001v2.401h-10.574l-.001-18.006h10.436m-55.844.001v15.605h7.146l-.002 2.399-9.717.001V68.699h2.573m-158.021-1.711c-5.744 0-10.406 4.516-10.406 10.405 0 5.887 4.66 10.401 10.402 10.401h.004c5.742 0 10.404-4.513 10.404-10.4 0-5.891-4.662-10.406-10.404-10.406zm0 16.352c-3.258 0-5.831-2.373-5.831-5.947 0-3.573 2.573-5.944 5.831-5.944h.002c3.258 0 5.83 2.371 5.83 5.945 0 3.571-2.576 5.946-5.832 5.946zM26.221 66.988c-6.029.001-10.402 4.516-10.402 10.405 0 5.887 4.371 10.401 10.398 10.401h.01c3.658 0 6.854-1.8 8.57-4.63l-3.943-2.284c-.855 1.542-2.598 2.458-4.623 2.458h-.007c-3.545 0-5.833-2.373-5.833-5.945 0-3.573 2.288-5.945 5.833-5.945 2.028.001 3.741.914 4.63 2.456l3.94-2.285c-1.739-2.829-4.941-4.63-8.573-4.631zm275.846.307c-6.027 0-10.404 4.517-10.404 10.404s4.377 10.405 10.404 10.405c3.662 0 6.861-1.799 8.576-4.632l-3.941-2.286c-.861 1.545-2.604 2.459-4.635 2.459-3.541 0-5.832-2.374-5.83-5.945 0-3.572 2.285-5.947 5.83-5.947 2.029.002 3.744.916 4.635 2.461l3.941-2.287c-1.744-2.83-4.943-4.632-8.576-4.632zm-50.234 0c-5.748 0-10.406 4.518-10.406 10.405s4.658 10.404 10.406 10.404c5.742 0 10.4-4.517 10.4-10.404 0-5.888-4.658-10.405-10.4-10.405zm-.008 16.35c-3.254 0-5.826-2.375-5.826-5.944 0-3.572 2.572-5.945 5.83-5.947 3.26.002 5.832 2.375 5.832 5.947-.002 3.57-2.57 5.944-5.83 5.944h-.006zM101.951 67.387l-14.861.001v4.401l5.144.001v15.606h4.575V71.791h5.143v-4.404h-.001zm-22.433 0l-7.572.001v20.009l4.572-.002-.003-6.288h3.003c3.943 0 7.004-3.058 7.004-6.86-.001-3.8-3.061-6.86-7.004-6.86zm-3 9.432v-5.141h3.003c1.4 0 2.429 1.116 2.429 2.57-.003 1.458-1.033 2.57-2.432 2.57h-3v.001zm-6.286-9.432h-5.201l-3.803 7.721-3.802-7.721-5.201.001 6.719 12.321-.003 7.686 4.575.002v-7.689l6.716-12.321zm-25.293 0h-8.002v20.008h4.572v-6.572h2.175l3.771 6.574 4.915-.002-4.258-7.343c2.201-1.116 3.687-3.346 3.687-5.806a6.845 6.845 0 0 0-6.86-6.859zm-3.429 9.432v-5.141h3.432c1.257 0 2.285 1.116 2.285 2.57 0 1.459-1.028 2.57-2.285 2.57H41.51v.001zm241.008-9.122v20.008h4.572V67.699l-4.572-.002zm-58.953 0v20.007h4.572v-6.289h3.002c3.943 0 7.002-3.06 7.002-6.856 0-3.801-3.057-6.859-6.998-6.859h-.004l-7.574-.003zm4.572 9.432v-5.146h3.002c1.4.002 2.43 1.117 2.43 2.575 0 1.457-1.029 2.571-2.43 2.571h-3.002zm99.082-9.43h-12.437l.001 20.006h12.574v-4.401l-8.004.001v-3.548l7.15.001v-4.344l-7.15.001V72.1l7.865.001v-4.402h.001zm-55.844 0h-4.572v20.006l11.717-.001.004-4.399h-7.148V67.699h-.001zm-138.466 8.02l.969 1.675-.967 1.674.5-1.319.133-.354-.133-.354-.502-1.322M127.6 64.522l4.875 12.872-4.875 12.87 7.432-12.87-7.432-12.872zm82.145 11.081l-.496 1.307-.133.354.133.354.496 1.308-.959-1.662.959-1.661m5.316-11.21l-7.43 12.871 7.43 12.873-4.877-12.873 4.877-12.871zm-43.586-33.11l9.842 17.043 1.07 1.853c-3.459-1.369-7.176-2.084-10.91-2.084s-7.451.715-10.912 2.084l1.07-1.853 9.84-17.043m39.82 22.992l-9.834 17.04-.807 1.396a29.652 29.652 0 0 0-11.076-18.437h21.717m-57.92.001a29.648 29.648 0 0 0-11.076 18.436l-.807-1.395-9.834-17.041h21.717m47.385 27.726l.701 1.212 9.836 17.042h-20.652a29.81 29.81 0 0 0 10.115-18.254m-58.566.001a29.795 29.795 0 0 0 10.115 18.253h-20.653l9.836-17.041.702-1.212m19.023 23.477c3.271 1.215 6.711 1.828 10.26 1.828s6.986-.613 10.258-1.828l-.418.725-9.842 17.042-9.84-17.042-.418-.725m10.26-76.195l-.635 1.097-10.072 17.445-2.641 4.573c3.984-2.106 8.525-3.305 13.348-3.305s9.363 1.198 13.348 3.305l-2.641-4.573L172.11 30.38l-.633-1.096zm41.555 23.991h-26.664c7.721 4.715 13.027 12.991 13.646 22.545l2.313-4.004 10.068-17.445.637-1.096zm-56.446 0h-26.662l.635 1.096 10.068 17.445 2.313 4.002c.619-9.555 5.924-17.828 13.646-22.543zm43.469 25.507c-.346 9.322-5.152 17.504-12.35 22.474h25.327l-.637-1.099-10.068-17.443-2.272-3.932zm-57.156.001l-2.271 3.931-10.068 17.443-.635 1.099h25.325c-7.201-4.97-12.005-13.149-12.351-22.473zm41.211 24.586c-3.813 1.88-8.1 2.938-12.633 2.938s-8.82-1.059-12.631-2.938l1.924 3.335 10.072 17.444.635 1.098.633-1.098 10.074-17.444 1.926-3.335zm-7.486-32.875c.699 0 1.117.43 1.117 1.149 0 .711-.428 1.153-1.117 1.153h-9.434v-2.303h9.434m0-.999H166.19v4.303h10.434c1.248 0 2.117-.902 2.117-2.153 0-1.249-.834-2.15-2.117-2.15zm.697 10.23c.805 0 1.287.496 1.287 1.326 0 .831-.482 1.326-1.287 1.326H167.19v-2.652h10.131m0-1H166.19v4.652h11.131c1.385 0 2.287-.972 2.287-2.326 0-1.353-.902-2.326-2.287-2.326zm-5.844-23.485c12.385 0 22.461 10.076 22.461 22.462 0 12.387-10.076 22.464-22.461 22.464-12.387 0-22.463-10.077-22.463-22.464 0-12.386 10.076-22.462 22.463-22.462m-.098 8.047h-.074v-4.508h-6.096v4.508h-5.574v26.295h5.574v4.512h6.096v-4.512h.074v4.512h6.098V89.58c5.041-.068 8.684-3.459 8.684-8.112 0-2.248-.869-4.198-2.475-5.602 1.057-1.279 1.609-2.86 1.609-4.637 0-4.338-3.24-7.555-7.818-7.91v-4.541h-6.098v4.508m.098-9.047c-12.939 0-23.463 10.527-23.463 23.462 0 12.938 10.523 23.464 23.463 23.464 12.938 0 23.461-10.525 23.461-23.464 0-12.935-10.523-23.462-23.461-23.462zm-1.172 10.047h2.074v-4.508h4.098v4.508h.146c4.236 0 7.672 2.744 7.672 6.943 0 2.012-.799 3.609-2.117 4.755 1.803 1.146 2.982 3.02 2.982 5.483 0 4.307-3.502 7.113-7.84 7.113h-.844v4.512h-4.098V88.58h-2.074v4.512h-4.096V88.58h-5.574V64.286h5.574v-4.508h4.096v4.508h.001z"/></svg>