<svg xmlns="http://www.w3.org/2000/svg" width="408.141" height="252.065" viewBox="10.54 280.893 408.141 252.065"><linearGradient id="a" gradientUnits="userSpaceOnUse" x1="4517.543" y1="2983.061" x2="4726.983" y2="2983.061" gradientTransform="rotate(90 3717.203 -519.447)"><stop offset="0" stop-color="#4b48bf"/><stop offset="1" stop-color="#5248bb" stop-opacity="0"/></linearGradient><path fill="url(#a)" d="M10.708 490.334V288.978a8.085 8.085 0 0 1 8.086-8.085h391.803a8.081 8.081 0 0 1 8.084 8.08v201.36H10.708z"/><linearGradient id="b" gradientUnits="userSpaceOnUse" x1="4212.498" y1="-853.967" x2="4514.636" y2="-853.967" gradientTransform="rotate(180 2262.588 -253.928)"><stop offset="0" stop-color="#4b48bf"/><stop offset="1" stop-color="#5248bb" stop-opacity="0"/></linearGradient><path fill="url(#b)" d="M18.625 280.893h294.053L10.54 411.328v-122.35a8.084 8.084 0 0 1 8.085-8.085z"/><path fill="#FFF" d="M271.794 354.998l2.416-1.4c.438 1.016 1.189 1.698 2.576 1.698 1.332 0 1.664-.524 1.664-.999 0-.753-.701-1.051-2.541-1.561-1.82-.508-3.607-1.384-3.607-3.729 0-2.364 1.996-3.73 4.117-3.73 2.015 0 3.59.964 4.48 2.77l-2.361 1.385c-.42-.876-1-1.42-2.121-1.42-.875 0-1.313.438-1.313.929 0 .563.299.945 2.207 1.523 1.856.562 3.94 1.209 3.94 3.802 0 2.364-1.895 3.766-4.554 3.766-2.574-.005-4.22-1.23-4.903-3.034zm10.511-8.321c0-.857.719-1.576 1.577-1.576.859 0 1.576.718 1.576 1.576 0 .859-.718 1.577-1.576 1.577a1.595 1.595 0 0 1-1.577-1.577zm.261 2.346h2.627v8.761h-2.627v-8.761zm17.693 3.381v5.38h-2.627v-5.15c0-.876-.42-1.438-1.26-1.438-.877 0-1.367.613-1.367 1.646v4.938h-2.627v-5.148c0-.876-.42-1.438-1.261-1.438-.878 0-1.366.613-1.366 1.646v4.938h-2.627v-8.759h2.627v.808c.4-.598 1.174-1.053 2.349-1.053 1.032 0 1.803.42 2.293 1.156.491-.701 1.297-1.156 2.541-1.156 2.011.004 3.325 1.442 3.325 3.63zm11.231.999c0 2.61-1.894 4.625-4.188 4.625-1.174 0-2.032-.401-2.61-1.066v4.327h-2.627v-12.266h2.627v.824c.578-.666 1.438-1.069 2.61-1.069 2.295 0 4.188 2.016 4.188 4.625zm-2.629 0c0-1.313-.875-2.137-2.084-2.137s-2.084.823-2.084 2.137.875 2.139 2.084 2.139 2.084-.824 2.084-2.139zm4.117-8.407h2.628v12.788h-2.628v-12.788zm9.004 10.684c.719 0 1.332-.28 1.682-.666l2.103 1.208c-.856 1.19-2.151 1.804-3.815 1.804-2.996 0-4.854-2.015-4.854-4.625 0-2.608 1.894-4.625 4.66-4.625 2.56 0 4.448 1.979 4.448 4.625 0 .368-.034.72-.104 1.053h-6.219c.329.912 1.136 1.226 2.099 1.226zm1.611-3.187c-.278-1.018-1.067-1.386-1.854-1.386-1 0-1.664.49-1.91 1.386h3.764zm-22.405 10.681v8.76h-2.627v-.824c-.474.647-1.349 1.067-2.504 1.067-1.771 0-3.277-1.261-3.277-3.626v-5.378h2.629v4.993c0 1.086.683 1.594 1.523 1.594.963 0 1.629-.561 1.629-1.805v-4.782l2.627.001zm8.637 6.129c0 2.015-1.754 2.873-3.646 2.873-1.751 0-3.083-.666-3.768-2.084l2.275-1.296c.229.666.72 1.034 1.488 1.034.631 0 .946-.193.946-.543 0-.963-4.311-.456-4.311-3.486 0-1.909 1.61-2.873 3.435-2.873 1.419 0 2.68.632 3.415 1.875l-2.241 1.208c-.246-.454-.597-.771-1.174-.771-.455 0-.736.175-.736.488.008 1.001 4.317.335 4.317 3.575zm5.675.528c.718 0 1.332-.28 1.683-.666l2.103 1.208c-.856 1.189-2.153 1.804-3.817 1.804-2.996 0-4.854-2.014-4.854-4.625 0-2.609 1.894-4.625 4.66-4.625 2.559 0 4.448 1.979 4.448 4.625 0 .368-.032.719-.104 1.052h-6.221c.334.91 1.14 1.227 2.102 1.227zm1.613-3.189c-.279-1.017-1.067-1.385-1.856-1.385-.998 0-1.664.49-1.908 1.385h3.764zm9.353-3.643v2.979c-1.086-.176-2.627.264-2.627 1.997v3.959h-2.628v-8.76h2.628v1.56c.352-1.175 1.524-1.735 2.627-1.735zM159.527 373.17c0 2.436-1.907 4.293-4.26 4.293-1.597 0-2.862-.822-3.537-2.089v5.196h-.822v-11.514h.822v1.907c.674-1.269 1.94-2.089 3.537-2.089 2.352.003 4.26 1.86 4.26 4.296zm-.822 0c0-1.958-1.53-3.503-3.486-3.503-1.957 0-3.488 1.546-3.488 3.503s1.531 3.504 3.488 3.504c1.955 0 3.486-1.547 3.486-3.504zm10.578.033c0 .131-.017.263-.017.396h-7.451c.197 1.858 1.611 3.075 3.486 3.075 1.35 0 2.369-.625 2.846-1.497l.726.429c-.675 1.119-1.958 1.858-3.586 1.858-2.533 0-4.326-1.812-4.326-4.293 0-2.418 1.743-4.293 4.26-4.293 2.499-.001 4.062 2.07 4.062 4.325zm-7.467-.411h6.613c-.182-2.007-1.597-3.125-3.209-3.125-1.875 0-3.24 1.299-3.404 3.125zm12.964-3.851v.79c-1.415 0-2.747.872-2.747 2.979v4.572h-.821v-8.226h.821v1.611c.558-1.297 1.628-1.726 2.747-1.726zm17.831 3.126v5.214h-.82v-5.214c0-1.563-.905-2.399-2.188-2.399-1.381 0-2.467.921-2.467 3.024v4.589h-.822v-5.214c0-1.563-.838-2.399-2.104-2.399-1.35 0-2.551.921-2.551 3.024v4.589h-.821v-8.225h.821v1.414c.609-1.135 1.597-1.595 2.648-1.595 1.2 0 2.137.592 2.565 1.678.592-1.15 1.646-1.678 2.747-1.678 1.742.002 2.992 1.135 2.992 3.192zm1.764 1.103c0-2.437 1.924-4.293 4.326-4.293 2.385 0 4.31 1.856 4.31 4.293 0 2.436-1.925 4.293-4.31 4.293-2.402 0-4.326-1.86-4.326-4.293zm7.796 0c0-1.958-1.514-3.503-3.472-3.503-1.956 0-3.486 1.546-3.486 3.503s1.53 3.504 3.486 3.504c1.96 0 3.472-1.547 3.472-3.504zm9.774-1.003v5.115h-.838v-5.115c0-1.515-.873-2.5-2.418-2.5-1.611 0-2.879 1.053-2.879 3.271v4.345h-.822v-8.227h.822v1.563c.625-1.219 1.678-1.744 2.942-1.744 1.959.002 3.193 1.301 3.193 3.292zm4.082-2.304v5.348c0 1.447.772 1.479 2.451 1.333v.739c-2.154.328-3.291-.196-3.291-2.072v-5.347h-1.81v-.807h1.81V367l.84-.247v2.304h2.451v.807l-2.451-.001zm11.385 2.304v5.115h-.841v-5.115c0-1.515-.87-2.5-2.418-2.5-1.61 0-2.879 1.053-2.879 3.271v4.345h-.821v-11.517h.821v4.854c.625-1.219 1.679-1.744 2.942-1.744 1.961.001 3.196 1.3 3.196 3.291zm5.545-4.229l-1.563-.033.871 1.301-.642.378-.809-1.382-.791 1.382-.654-.378.87-1.301-1.563.033v-.708l1.563.032-.87-1.299.654-.378.791 1.365.809-1.365.642.378-.871 1.299 1.563-.032v.708z"/><linearGradient id="c" gradientUnits="userSpaceOnUse" x1="4216.404" y1="349.16" x2="4222.581" y2="349.16" gradientTransform="matrix(0 1 1 0 -197.505 -3871.606)"><stop offset="0" stop-color="#fff"/><stop offset=".545" stop-color="#eee"/><stop offset="1" stop-color="#e6e6e6"/></linearGradient><path fill="url(#c)" d="M159.375 346.521c-1.101 4.246-4.156 5.229-7.396 3.859-3-1.247-3.711-1.515-4.482.595l-3.563-1.723c1.1-4.246 4.157-5.229 7.396-3.86 2.999 1.248 3.682 1.484 4.481-.594l3.564 1.723z"/><linearGradient id="d" gradientUnits="userSpaceOnUse" x1="4209.042" y1="365.276" x2="4229.828" y2="365.276" gradientTransform="matrix(0 1 1 0 -197.505 -3871.606)"><stop offset="0" stop-color="#fff"/><stop offset=".545" stop-color="#eee"/><stop offset="1" stop-color="#e6e6e6"/></linearGradient><path fill="url(#d)" d="M172.566 337.436v20.786h-4.75v-15.769l-3.683 1.01-1.157-4.068 5.435-1.959h4.155z"/><linearGradient id="e" gradientUnits="userSpaceOnUse" x1="4208.625" y1="382.215" x2="4230.244" y2="382.215" gradientTransform="matrix(0 1 1 0 -197.505 -3871.606)"><stop offset="0" stop-color="#fff"/><stop offset=".545" stop-color="#eee"/><stop offset="1" stop-color="#e6e6e6"/></linearGradient><path fill="url(#e)" d="M176.247 347.83c0-6.414 3.088-10.811 8.462-10.811 5.375 0 8.463 4.396 8.463 10.811s-3.087 10.809-8.463 10.809c-5.376-.002-8.462-4.395-8.462-10.809zm12.173 0c0-4.011-1.218-6.178-3.712-6.178s-3.711 2.167-3.711 6.178c0 4.008 1.217 6.176 3.711 6.176 2.496 0 3.712-2.168 3.712-6.176z"/><linearGradient id="f" gradientUnits="userSpaceOnUse" x1="4208.625" y1="400.921" x2="4230.244" y2="400.921" gradientTransform="matrix(0 1 1 0 -197.505 -3871.606)"><stop offset="0" stop-color="#fff"/><stop offset=".545" stop-color="#eee"/><stop offset="1" stop-color="#e6e6e6"/></linearGradient><path fill="url(#f)" d="M194.952 347.83c0-6.414 3.088-10.811 8.462-10.811 5.375 0 8.464 4.396 8.464 10.811s-3.088 10.809-8.464 10.809c-5.374-.002-8.462-4.395-8.462-10.809zm12.174 0c0-4.011-1.218-6.178-3.713-6.178-2.493 0-3.71 2.167-3.71 6.178 0 4.008 1.217 6.176 3.71 6.176 2.496 0 3.713-2.168 3.713-6.176z"/><linearGradient id="g" gradientUnits="userSpaceOnUse" x1="4206.068" y1="422.655" x2="4232.795" y2="422.655" gradientTransform="matrix(0 1 1 0 -197.505 -3871.606)"><stop offset="0" stop-color="#fff"/><stop offset=".545" stop-color="#eee"/><stop offset="1" stop-color="#e6e6e6"/></linearGradient><path fill="url(#g)" d="M226.605 358.578v2.611h-2.078v-2.584c-3.354-.235-5.851-1.959-6.92-4.811l4.099-2.375c.625 1.425 1.483 2.256 2.821 2.494v-4.1c-.116-.06-.269-.088-.387-.146-2.582-1.04-5.67-2.495-5.67-6.476 0-3.858 2.907-5.851 6.057-6.146v-2.583h2.078v2.644c2.556.326 4.692 1.691 5.853 4.307l-4.01 2.346c-.386-1.039-.98-1.633-1.843-1.93v4.009c2.584 1.1 6.088 2.079 6.088 6.414 0 3.714-2.554 5.911-6.088 6.326zm-2.078-13.719v-3.116c-.86.208-1.307.771-1.307 1.482.001.566.268 1.04 1.307 1.634zm3.414 7.453c0-.743-.442-1.188-1.336-1.633v3.177c1.01-.266 1.336-.921 1.336-1.544z"/><path opacity=".5" d="M348.495 430.681c0-5.329 2.871-9.986 7.146-12.517h-13.516a8.67 8.67 0 0 1-6.406 6.406v12.222a8.668 8.668 0 0 1 6.406 6.406h13.516c-4.275-2.528-7.146-7.188-7.146-12.517zm29.068 0c0 5.329-2.869 9.988-7.146 12.52h13.517a8.663 8.663 0 0 1 6.406-6.406v-12.222a8.67 8.67 0 0 1-6.406-6.406h-13.517c4.276 2.527 7.146 7.185 7.146 12.514z"/><linearGradient id="h" gradientUnits="userSpaceOnUse" x1="1060.767" y1="3288.092" x2="1085.805" y2="3288.092" gradientTransform="matrix(0 -1 -1 0 3651.121 1503.969)"><stop offset="0" stop-color="#4b48bf"/><stop offset="1" stop-color="#a14b8a"/></linearGradient><circle fill="url(#h)" cx="363.029" cy="430.683" r="12.519"/><linearGradient id="i" gradientUnits="userSpaceOnUse" x1="975.164" y1="2987.113" x2="1004.229" y2="2987.113" gradientTransform="matrix(0 -1 -1 0 3351.953 1418.451)"><stop offset="0" stop-color="#4b48bf"/><stop offset="1" stop-color="#a14b8a"/></linearGradient><path fill="url(#i)" d="M335.517 414.222h58.647v29.064h-58.647v-29.064z"/><path opacity=".2" d="M350.308 428.756c0-5.329 2.871-9.987 7.147-12.518H343.94a8.669 8.669 0 0 1-6.408 6.405v12.225a8.667 8.667 0 0 1 6.408 6.405h13.516c-4.277-2.529-7.148-7.188-7.148-12.517zm29.067 0c0 5.33-2.869 9.988-7.146 12.52h13.517a8.664 8.664 0 0 1 6.408-6.405v-12.223a8.673 8.673 0 0 1-6.408-6.407h-13.517a14.52 14.52 0 0 1 7.146 12.515z"/><path opacity=".1" fill="#FFF" d="M335.517 443.445v-29.223h58.813l-58.813 29.223z"/><linearGradient id="j" gradientUnits="userSpaceOnUse" x1="1062.693" y1="3286.281" x2="1087.731" y2="3286.281" gradientTransform="matrix(0 -1 -1 0 3651.121 1503.969)"><stop offset="0" stop-color="#4b48bf"/><stop offset="1" stop-color="#a14b8a"/></linearGradient><circle fill="url(#j)" cx="364.841" cy="428.757" r="12.519"/><path fill="#FFF" d="M369.636 431.43c0 2.904-2.265 4.413-4.81 4.413-2.094 0-3.903-.886-4.715-2.828l2.603-1.51c.303.868.868 1.396 2.112 1.396s1.791-.659 1.791-1.474c0-.811-.547-1.471-1.696-1.471h-4.13l.548-7.582h7.639v2.829h-4.812l-.131 1.811h1.074c2.454.003 4.527 1.514 4.527 4.416z"/><path opacity=".7" fill="#FFF" d="M344.573 434.375v1.272h-.664v-1.262c-1.558-.068-2.717-.792-3.153-2.008l.649-.368c.326.991 1.188 1.584 2.504 1.656v-4.202c-1.442-.51-2.688-1.032-2.688-2.716 0-1.472 1.188-2.462 2.688-2.563v-1.271h.664v1.271c1.119.129 2.065.724 2.504 1.782l-.637.354c-.324-.809-.961-1.287-1.867-1.4v4.02c1.442.51 2.746 1.073 2.746 2.759.001 1.486-1.131 2.52-2.746 2.676zm-.664-5.673v-3.791c-1.159.099-1.938.849-1.938 1.839-.001 1.118.821 1.542 1.938 1.952zm2.645 2.999c0-1.133-.819-1.601-1.979-2.01v3.945c1.272-.137 1.979-.917 1.979-1.935zm38.687 2.674v1.272h-.666v-1.262c-1.555-.068-2.715-.792-3.153-2.008l.649-.368c.326.991 1.188 1.584 2.504 1.656v-4.202c-1.442-.51-2.688-1.032-2.688-2.716 0-1.472 1.188-2.462 2.688-2.563v-1.271h.666v1.271c1.117.129 2.063.724 2.504 1.782l-.637.354c-.326-.809-.963-1.287-1.869-1.4v4.02c1.442.51 2.746 1.073 2.746 2.759.001 1.486-1.13 2.52-2.744 2.676zm-.664-5.673v-3.791c-1.159.099-1.938.849-1.938 1.839-.001 1.118.818 1.542 1.938 1.952zm2.645 2.999c0-1.133-.819-1.601-1.979-2.01v3.945c1.272-.137 1.979-.917 1.979-1.935z"/><path fill="#4B48BF" d="M235.785 431.378l1.95-1.132c.354.82.964 1.372 2.08 1.372 1.074 0 1.345-.425 1.345-.809 0-.605-.564-.849-2.052-1.259-1.471-.41-2.914-1.118-2.914-3.013 0-1.91 1.613-3.014 3.324-3.014 1.625 0 2.899.776 3.621 2.233l-1.91 1.118c-.34-.708-.808-1.146-1.711-1.146-.707 0-1.062.354-1.062.75 0 .451.239.765 1.78 1.229 1.5.453 3.185.977 3.185 3.068 0 1.91-1.526 3.043-3.678 3.043-2.077.007-3.408-.983-3.958-2.44zm8.561-1.287c0-2.106 1.598-3.732 3.747-3.732 1.373 0 2.589.722 3.197 1.812l-1.854 1.075c-.24-.495-.75-.792-1.371-.792-.92 0-1.6.664-1.6 1.641 0 .978.68 1.643 1.6 1.643.621 0 1.146-.297 1.371-.792l1.854 1.062c-.606 1.104-1.813 1.825-3.197 1.825-2.15-.008-3.747-1.635-3.747-3.742zm14.909-3.538v7.072h-2.121v-.665c-.467.538-1.159.863-2.106.863-1.854 0-3.381-1.628-3.381-3.734s1.526-3.733 3.381-3.733c.947 0 1.642.324 2.106.862v-.665h2.121zm-2.121 3.538c0-1.062-.709-1.727-1.684-1.727-.979 0-1.686.665-1.686 1.727 0 1.063.707 1.728 1.686 1.728.977-.003 1.684-.668 1.684-1.728zm14.289-.806v4.342H269.3v-4.159c0-.707-.34-1.16-1.019-1.16-.71 0-1.104.495-1.104 1.33v3.989h-2.12v-4.159c0-.707-.341-1.16-1.021-1.16-.707 0-1.104.495-1.104 1.33v3.989h-2.121v-7.072h2.121v.65c.326-.481.947-.85 1.896-.85.834 0 1.457.339 1.852.935.396-.566 1.047-.935 2.051-.935 1.63.001 2.692 1.16 2.692 2.93zm4.785-4.626c0-.693.58-1.273 1.271-1.273.693 0 1.273.58 1.273 1.273 0 .69-.58 1.271-1.273 1.271a1.284 1.284 0 0 1-1.271-1.271zm.213 1.894h2.121v7.072h-2.121v-7.072zm9.097 4.952c0 1.626-1.414 2.32-2.94 2.32-1.414 0-2.49-.538-3.041-1.687l1.838-1.046c.184.537.58.834 1.203.834.51 0 .764-.154.764-.438 0-.777-3.479-.367-3.479-2.814 0-1.542 1.302-2.318 2.771-2.318 1.146 0 2.164.509 2.759 1.515l-1.812.976c-.197-.366-.479-.623-.947-.623-.366 0-.594.144-.594.396-.001.806 3.478.266 3.478 2.885zm6.196 0c0 1.626-1.414 2.32-2.94 2.32-1.416 0-2.489-.538-3.043-1.687l1.84-1.046c.185.537.58.834 1.203.834.511 0 .765-.154.765-.438 0-.777-3.479-.367-3.479-2.814 0-1.542 1.301-2.318 2.771-2.318 1.146 0 2.164.509 2.758 1.515l-1.813.976c-.195-.366-.479-.623-.945-.623-.367 0-.596.144-.596.396-.001.806 3.479.266 3.479 2.885zm7.754-4.952v7.072h-2.12v-.665c-.384.522-1.091.863-2.021.863-1.431 0-2.646-1.021-2.646-2.931v-4.342h2.121v4.031c0 .877.553 1.287 1.23 1.287.776 0 1.313-.453 1.313-1.457v-3.861l2.123.003zm1.346-1.894c0-.693.58-1.273 1.272-1.273s1.271.58 1.271 1.273c0 .69-.579 1.271-1.271 1.271a1.285 1.285 0 0 1-1.272-1.271zm.213 1.894h2.121v7.072h-2.121v-7.072zm10.468 2.732v4.342h-2.122v-4.031c0-.877-.552-1.287-1.23-1.287-.776 0-1.313.453-1.313 1.457v3.861h-2.12v-7.072h2.12v.665c.384-.521 1.091-.861 2.021-.861 1.428-.003 2.644 1.016 2.644 2.926zm8.715-2.732v6.721c0 2.376-1.853 3.38-3.734 3.38-1.471 0-2.7-.553-3.353-1.711l1.812-1.049c.271.495.681.894 1.613.894.989 0 1.601-.51 1.601-1.514v-.65c-.47.58-1.146.919-2.065.919-2.009 0-3.479-1.642-3.479-3.594 0-1.951 1.472-3.593 3.479-3.593.92 0 1.6.339 2.065.919v-.723l2.061.001zm-2.064 3.395c0-.978-.707-1.643-1.712-1.643-1.004 0-1.713.665-1.713 1.643 0 .977.709 1.642 1.713 1.642 1.005 0 1.712-.665 1.712-1.642z"/><path opacity=".5" d="M349.202 475.44c0-5.329 2.869-9.987 7.146-12.52h-13.517a8.669 8.669 0 0 1-6.407 6.407v12.221a8.672 8.672 0 0 1 6.407 6.406h13.517a14.519 14.519 0 0 1-7.146-12.514zm29.065 0c0 5.327-2.866 9.987-7.146 12.519h13.517a8.67 8.67 0 0 1 6.406-6.407V469.33a8.67 8.67 0 0 1-6.406-6.407h-13.517c4.279 2.53 7.146 7.188 7.146 12.517z"/><linearGradient id="k" gradientUnits="userSpaceOnUse" x1="1016.009" y1="3287.385" x2="1041.047" y2="3287.385" gradientTransform="matrix(0 -1 -1 0 3651.121 1503.969)"><stop offset="0" stop-color="#4b48bf"/><stop offset="1" stop-color="#a14b8a"/></linearGradient><circle fill="url(#k)" cx="363.736" cy="475.441" r="12.519"/><linearGradient id="l" gradientUnits="userSpaceOnUse" x1="930.408" y1="2986.406" x2="959.47" y2="2986.406" gradientTransform="matrix(0 -1 -1 0 3351.953 1418.451)"><stop offset="0" stop-color="#4b48bf"/><stop offset="1" stop-color="#a14b8a"/></linearGradient><path fill="url(#l)" d="M336.224 458.981h58.647v29.063h-58.647v-29.063z"/><path opacity=".2" d="M351.015 473.512c0-5.329 2.869-9.985 7.146-12.518h-13.517a8.665 8.665 0 0 1-6.405 6.406v12.223a8.662 8.662 0 0 1 6.405 6.404h13.517a14.513 14.513 0 0 1-7.146-12.515zm29.066 0c0 5.33-2.868 9.988-7.147 12.52h13.519a8.665 8.665 0 0 1 6.406-6.405v-12.223a8.668 8.668 0 0 1-6.406-6.406h-13.519c4.278 2.528 7.147 7.185 7.147 12.514z"/><path opacity=".1" fill="#FFF" d="M336.224 488.204V458.98h58.813l-58.813 29.224z"/><linearGradient id="m" gradientUnits="userSpaceOnUse" x1="1017.936" y1="3285.574" x2="1042.974" y2="3285.574" gradientTransform="matrix(0 -1 -1 0 3651.121 1503.969)"><stop offset="0" stop-color="#4b48bf"/><stop offset="1" stop-color="#a14b8a"/></linearGradient><circle fill="url(#m)" cx="365.548" cy="473.514" r="12.519"/><path fill="#FFF" d="M368.111 467.135v13.202h-3.021v-10.016l-2.338.643-.736-2.584 3.453-1.245h2.642z"/><path opacity=".7" fill="#FFF" d="M345.281 479.133v1.272h-.666v-1.259c-1.558-.069-2.715-.794-3.153-2.011l.649-.367c.326.99 1.188 1.584 2.504 1.655v-4.202c-1.442-.509-2.688-1.03-2.688-2.716 0-1.472 1.188-2.462 2.688-2.561v-1.272h.666v1.272c1.117.126 2.063.722 2.504 1.78l-.637.354c-.326-.807-.964-1.287-1.869-1.4v4.021c1.442.509 2.746 1.074 2.746 2.758 0 1.488-1.131 2.518-2.744 2.676zm-.665-5.674v-3.791c-1.16.1-1.938.849-1.938 1.839-.001 1.119.819 1.543 1.938 1.952zm2.645 3c0-1.132-.819-1.599-1.979-2.009v3.946c1.272-.14 1.979-.92 1.979-1.937zm38.687 2.674v1.272h-.664v-1.259c-1.558-.069-2.717-.794-3.155-2.011l.649-.367c.326.99 1.188 1.584 2.504 1.655v-4.202c-1.442-.509-2.688-1.03-2.688-2.716 0-1.472 1.188-2.462 2.688-2.561v-1.272h.664v1.272c1.119.126 2.065.722 2.504 1.78l-.637.354c-.324-.807-.964-1.287-1.867-1.4v4.021c1.442.509 2.744 1.074 2.744 2.758.003 1.488-1.13 2.518-2.742 2.676zm-.664-5.674v-3.791c-1.162.1-1.938.849-1.938 1.839-.001 1.119.82 1.543 1.938 1.952zm2.645 3c0-1.132-.819-1.599-1.979-2.009v3.946c1.272-.14 1.979-.92 1.979-1.937z"/><path fill="#4B48BF" d="M234.548 471.877c0 1.881-1.514 3.396-3.465 3.396h-1.485v3.11h-2.263v-9.899h3.748c1.952-.001 3.465 1.513 3.465 3.393zm-2.263 0c0-.722-.511-1.273-1.201-1.273h-1.486v2.548h1.486c.691-.001 1.201-.555 1.201-1.275zm7.429-.707v2.405c-.877-.145-2.123.212-2.123 1.609v3.197h-2.12v-7.072h2.12v1.261c.284-.947 1.233-1.4 2.123-1.4zm.427 3.676c0-2.106 1.668-3.732 3.748-3.732 2.079 0 3.75 1.626 3.75 3.732 0 2.107-1.671 3.734-3.75 3.734-2.08.003-3.748-1.624-3.748-3.734zm5.375 0c0-1.004-.707-1.669-1.627-1.669-.918 0-1.627.665-1.627 1.669s.709 1.669 1.627 1.669c.92 0 1.627-.664 1.627-1.669zm3.325-3.536h2.123v7.072c0 2.207-1.021 3.154-3.254 3.027v-2.037c.778.042 1.133-.241 1.133-.99l-.002-7.072zm-.213-1.893c0-.693.58-1.273 1.271-1.273.693 0 1.273.58 1.273 1.273 0 .692-.58 1.272-1.273 1.272a1.288 1.288 0 0 1-1.271-1.272zm7.485 7.268c.58 0 1.074-.227 1.357-.536l1.698.977c-.692.962-1.739 1.457-3.084 1.457-2.418 0-3.918-1.627-3.918-3.734 0-2.106 1.525-3.732 3.763-3.732 2.065 0 3.594 1.6 3.594 3.732 0 .298-.026.58-.086.851h-5.021c.27.73.919.985 1.697.985zm1.301-2.573c-.228-.819-.863-1.116-1.498-1.116-.808 0-1.347.396-1.543 1.116h3.041zm2.888.734c0-2.106 1.601-3.732 3.75-3.732 1.371 0 2.589.722 3.197 1.812L265.396 474c-.242-.495-.75-.792-1.373-.792-.918 0-1.599.665-1.599 1.641 0 .979.679 1.643 1.599 1.643.623 0 1.146-.297 1.373-.792l1.854 1.063c-.609 1.104-1.813 1.825-3.197 1.825-2.153-.005-3.751-1.632-3.751-3.742zm10.485-1.499v2.504c0 .608.521.665 1.457.608v1.924c-2.773.283-3.58-.552-3.58-2.532v-2.504h-1.131v-2.037h1.131v-1.344l2.123-.637v1.979h1.457v2.037l-1.457.002zm6.127-3.93c0-.693.58-1.273 1.272-1.273s1.272.58 1.272 1.273c0 .692-.58 1.272-1.272 1.272a1.288 1.288 0 0 1-1.272-1.272zm.211 1.893h2.123v7.072h-2.123v-7.072zm9.098 4.951c0 1.626-1.416 2.32-2.943 2.32-1.413 0-2.487-.538-3.041-1.685l1.841-1.048c.184.537.58.834 1.2.834.511 0 .767-.154.767-.438 0-.778-3.48-.368-3.48-2.815 0-1.542 1.305-2.318 2.773-2.318 1.145 0 2.164.51 2.758 1.515l-1.811.978c-.199-.368-.48-.623-.947-.623-.369 0-.594.143-.594.396-.002.804 3.477.268 3.477 2.884zm6.196 0c0 1.626-1.416 2.32-2.942 2.32-1.414 0-2.49-.538-3.041-1.685l1.838-1.048c.187.537.58.834 1.203.834.51 0 .767-.154.767-.438 0-.778-3.48-.368-3.48-2.815 0-1.542 1.301-2.318 2.773-2.318 1.145 0 2.164.51 2.758 1.515l-1.813.978c-.196-.368-.479-.623-.944-.623-.369 0-.597.143-.597.396-.002.804 3.478.268 3.478 2.884zm7.754-4.951v7.072h-2.123v-.665c-.381.523-1.088.863-2.021.863-1.43 0-2.646-1.021-2.646-2.929v-4.344h2.121v4.031c0 .877.554 1.287 1.229 1.287.777 0 1.314-.453 1.314-1.457v-3.861l2.126.003zm1.347-1.893c0-.693.58-1.273 1.272-1.273.689 0 1.271.58 1.271 1.273 0 .692-.58 1.272-1.271 1.272a1.284 1.284 0 0 1-1.272-1.272zm.21 1.893h2.123v7.072h-2.123v-7.072zm10.47 2.732v4.342h-2.123v-4.031c0-.877-.553-1.285-1.229-1.285-.776 0-1.313.451-1.313 1.457v3.859h-2.12v-7.071h2.12v.664c.384-.521 1.091-.861 2.021-.861 1.426-.002 2.644 1.016 2.644 2.926zm8.715-2.732v6.721c0 2.376-1.854 3.381-3.733 3.381-1.471 0-2.703-.552-3.354-1.711l1.812-1.048c.271.495.681.892 1.613.892.989 0 1.598-.509 1.598-1.514v-.65c-.467.58-1.146.919-2.063.919-2.008 0-3.479-1.641-3.479-3.593s1.472-3.594 3.479-3.594c.92 0 1.601.34 2.063.919v-.722h2.064zm-2.064 3.397c0-.977-.709-1.642-1.711-1.642-1.004 0-1.713.665-1.713 1.642 0 .976.709 1.641 1.713 1.641 1.002-.002 1.711-.667 1.711-1.641z"/><path opacity=".5" d="M348.732 520.198c0-5.327 2.868-9.987 7.146-12.52h-13.517a8.67 8.67 0 0 1-6.408 6.406v12.223a8.674 8.674 0 0 1 6.408 6.404h13.517a14.515 14.515 0 0 1-7.146-12.513zm29.064 0c0 5.328-2.869 9.984-7.146 12.519h13.516a8.668 8.668 0 0 1 6.406-6.405v-12.224a8.665 8.665 0 0 1-6.406-6.405H370.65a14.511 14.511 0 0 1 7.146 12.515z"/><linearGradient id="n" gradientUnits="userSpaceOnUse" x1="971.252" y1="3287.857" x2="996.29" y2="3287.857" gradientTransform="matrix(0 -1 -1 0 3651.121 1503.969)"><stop offset="0" stop-color="#4b48bf"/><stop offset="1" stop-color="#a14b8a"/></linearGradient><circle fill="url(#n)" cx="363.265" cy="520.198" r="12.519"/><linearGradient id="o" gradientUnits="userSpaceOnUse" x1="885.65" y1="2986.877" x2="914.712" y2="2986.877" gradientTransform="matrix(0 -1 -1 0 3351.953 1418.451)"><stop offset="0" stop-color="#4b48bf"/><stop offset="1" stop-color="#a14b8a"/></linearGradient><path fill="url(#o)" d="M335.753 503.739H394.4v29.063h-58.647v-29.063z"/><path opacity=".2" d="M350.544 518.269c0-5.328 2.868-9.984 7.146-12.519h-13.517a8.667 8.667 0 0 1-6.408 6.406v12.223a8.667 8.667 0 0 1 6.408 6.406h13.517a14.518 14.518 0 0 1-7.146-12.516zm29.067 0c0 5.33-2.871 9.988-7.147 12.521h13.519a8.666 8.666 0 0 1 6.403-6.408V512.16a8.66 8.66 0 0 1-6.403-6.406h-13.519c4.277 2.53 7.147 7.188 7.147 12.515z"/><path opacity=".1" fill="#FFF" d="M335.753 532.959v-29.221h58.813l-58.813 29.221z"/><linearGradient id="p" gradientUnits="userSpaceOnUse" x1="973.177" y1="3286.043" x2="998.217" y2="3286.043" gradientTransform="matrix(0 -1 -1 0 3651.121 1503.969)"><stop offset="0" stop-color="#4b48bf"/><stop offset="1" stop-color="#a14b8a"/></linearGradient><circle fill="url(#p)" cx="365.077" cy="518.272" r="12.52"/><path fill="#FFF" d="M370.005 521.381c0 2.414-1.733 3.979-4.849 3.979-3.11 0-4.847-1.564-4.847-3.979 0-1.301.604-2.451 1.716-3.168-.772-.604-1.265-1.471-1.265-2.659 0-2.563 1.961-3.923 4.396-3.923 2.433 0 4.396 1.356 4.396 3.923 0 1.188-.49 2.058-1.265 2.659 1.115.715 1.718 1.868 1.718 3.168zm-3.017-.433c0-.999-.772-1.584-1.83-1.584s-1.828.585-1.828 1.584c0 1 .773 1.586 1.828 1.586 1.056-.001 1.83-.586 1.83-1.586zm-3.206-5.205c0 .732.526 1.281 1.375 1.281.851 0 1.377-.549 1.377-1.281 0-.735-.526-1.282-1.377-1.282-.847-.001-1.375.546-1.375 1.282z"/><path opacity=".7" fill="#FFF" d="M344.808 523.89v1.272h-.664v-1.261c-1.557-.069-2.717-.793-3.153-2.012l.649-.365c.326.988 1.188 1.584 2.504 1.654v-4.203c-1.442-.51-2.688-1.029-2.688-2.715 0-1.473 1.188-2.461 2.688-2.563v-1.271h.664v1.271c1.119.127 2.065.723 2.507 1.779l-.64.354c-.324-.808-.961-1.286-1.867-1.399v4.021c1.442.51 2.744 1.073 2.744 2.758.002 1.494-1.129 2.523-2.744 2.68zm-.664-5.673v-3.79c-1.159.1-1.938.85-1.938 1.838.001 1.118.821 1.541 1.938 1.952zm2.647 2.998c0-1.131-.82-1.598-1.98-2.008v3.944c1.271-.138 1.98-.916 1.98-1.936zm38.687 2.675v1.272h-.665v-1.261c-1.558-.069-2.718-.793-3.154-2.012l.647-.365c.326.988 1.188 1.584 2.507 1.654v-4.203c-1.443-.51-2.689-1.029-2.689-2.715 0-1.473 1.189-2.461 2.689-2.563v-1.271h.663v1.271c1.117.127 2.066.723 2.505 1.779l-.638.354c-.326-.808-.963-1.286-1.867-1.399v4.021c1.443.51 2.744 1.073 2.744 2.758.002 1.494-1.131 2.523-2.742 2.68zm-.665-5.673v-3.79c-1.16.1-1.938.85-1.938 1.838 0 1.118.82 1.541 1.938 1.952zm2.644 2.998c0-1.131-.82-1.598-1.98-2.008v3.944c1.274-.138 1.98-.916 1.98-1.936z"/><path fill="#4B48BF" d="M205.893 516.635c0 1.881-1.515 3.396-3.466 3.396h-1.486v3.109h-2.262v-9.896h3.748c1.951-.004 3.466 1.51 3.466 3.391zm-2.265 0c0-.722-.509-1.271-1.201-1.271h-1.486v2.547h1.486c.693-.002 1.201-.555 1.201-1.276zm10.018-.566v7.07h-2.123v-.664c-.381.521-1.088.861-2.021.861-1.429 0-2.646-1.02-2.646-2.928v-4.344h2.123v4.029c0 .877.554 1.287 1.229 1.287.777 0 1.314-.453 1.314-1.457v-3.859l2.124.005zm9.168 3.537c0 2.104-1.526 3.73-3.381 3.73-.947 0-1.642-.324-2.104-.861v.664h-2.123v-9.897h2.123v3.493c.467-.539 1.157-.862 2.104-.862 1.854-.001 3.381 1.626 3.381 3.733zm-2.121 0c0-1.063-.707-1.729-1.685-1.729-.975 0-1.682.664-1.682 1.729 0 1.062.707 1.728 1.682 1.728.978-.001 1.685-.667 1.685-1.728zm3.327-6.791h2.121v10.324h-2.121v-10.324zm3.466 1.359c0-.69.58-1.271 1.272-1.271.693 0 1.272.58 1.272 1.271 0 .693-.579 1.271-1.272 1.271a1.282 1.282 0 0 1-1.272-1.271zm.213 1.895h2.12v7.07h-2.12v-7.07zm3.324 3.537c0-2.106 1.601-3.733 3.748-3.733 1.373 0 2.588.722 3.196 1.813l-1.852 1.074c-.242-.495-.75-.793-1.373-.793-.918 0-1.602.666-1.602 1.644 0 .979.68 1.643 1.602 1.643.623 0 1.146-.297 1.373-.791l1.852 1.063c-.606 1.104-1.812 1.823-3.196 1.823-2.148-.009-3.748-1.636-3.748-3.743zm14.911-3.537v7.07h-2.121v-.664c-.467.537-1.16.861-2.106.861-1.854 0-3.381-1.627-3.381-3.73 0-2.106 1.526-3.733 3.381-3.733.946 0 1.641.323 2.106.862v-.666h2.121zm-2.121 3.537c0-1.063-.707-1.729-1.685-1.729-.979 0-1.686.664-1.686 1.729 0 1.062.707 1.728 1.686 1.728.978 0 1.685-.667 1.685-1.728zm6.367-1.5v2.504c0 .605.522.664 1.457.605v1.924c-2.771.283-3.578-.553-3.578-2.529v-2.504h-1.132v-2.037h1.132v-1.346l2.121-.639v1.979h1.457v2.035h-1.457v.008zm2.448-3.932c0-.69.58-1.271 1.271-1.271.693 0 1.273.58 1.273 1.271 0 .693-.58 1.271-1.273 1.271a1.282 1.282 0 0 1-1.271-1.271zm.213 1.895h2.121v7.07h-2.121v-7.07zm3.325 3.537c0-2.106 1.67-3.733 3.75-3.733 2.078 0 3.748 1.627 3.748 3.733 0 2.104-1.67 3.73-3.748 3.73-2.081.004-3.75-1.623-3.75-3.73zm5.375 0c0-1.006-.707-1.672-1.625-1.672-.92 0-1.627.666-1.627 1.672 0 1.004.707 1.668 1.627 1.668.917 0 1.625-.664 1.625-1.668zm10.117-.807v4.343h-2.123v-4.029c0-.877-.554-1.287-1.23-1.287-.777 0-1.313.453-1.313 1.457v3.859h-2.121v-7.07h2.121v.666c.383-.521 1.09-.861 2.021-.861 1.428-.005 2.645 1.011 2.645 2.922zm4.783-4.625c0-.69.58-1.271 1.272-1.271s1.271.58 1.271 1.271c0 .693-.579 1.271-1.271 1.271a1.285 1.285 0 0 1-1.272-1.271zm.213 1.895h2.121v7.07h-2.121v-7.07zm9.096 4.95c0 1.629-1.414 2.319-2.941 2.319-1.416 0-2.49-.536-3.043-1.685l1.84-1.047c.186.535.58.834 1.203.834.508 0 .766-.153.766-.438 0-.777-3.479-.367-3.479-2.813 0-1.544 1.301-2.319 2.771-2.319 1.146 0 2.163.51 2.758 1.515l-1.812.979c-.196-.367-.479-.622-.946-.622-.367 0-.595.142-.595.396-.001.802 3.478.265 3.478 2.881zm6.199 0c0 1.629-1.416 2.319-2.943 2.319-1.414 0-2.49-.536-3.041-1.685l1.838-1.047c.188.535.58.834 1.203.834.51 0 .764-.153.764-.438 0-.777-3.479-.367-3.479-2.813 0-1.544 1.301-2.319 2.771-2.319 1.146 0 2.164.51 2.761 1.515l-1.813.979c-.197-.367-.479-.622-.947-.622-.366 0-.594.142-.594.396-.001.802 3.48.265 3.48 2.881zm7.752-4.95v7.07h-2.121v-.664c-.383.521-1.09.861-2.023.861-1.428 0-2.645-1.02-2.645-2.928v-4.344h2.123v4.029c0 .877.551 1.287 1.229 1.287.779 0 1.316-.453 1.316-1.457v-3.859l2.121.005zm1.347-1.895c0-.69.58-1.271 1.271-1.271s1.271.58 1.271 1.271c0 .693-.58 1.271-1.271 1.271a1.283 1.283 0 0 1-1.271-1.271zm.211 1.895h2.123v7.07h-2.123v-7.07zm10.469 2.73v4.343h-2.122v-4.029c0-.877-.552-1.287-1.229-1.287-.779 0-1.316.453-1.316 1.457v3.859h-2.12v-7.07h2.12v.666c.384-.521 1.091-.861 2.023-.861 1.427-.005 2.644 1.011 2.644 2.922zm8.717-2.73v6.722c0 2.375-1.854 3.379-3.733 3.379-1.472 0-2.703-.551-3.354-1.711l1.812-1.047c.27.493.68.892 1.612.892.99 0 1.599-.509 1.599-1.513v-.651c-.468.58-1.146.921-2.063.921-2.009 0-3.479-1.643-3.479-3.596 0-1.95 1.471-3.592 3.479-3.592.92 0 1.601.338 2.063.918v-.722h2.064zm-2.067 3.394c0-.978-.707-1.642-1.711-1.642-1.005 0-1.712.664-1.712 1.642 0 .979.707 1.644 1.712 1.644 1.004-.004 1.711-.667 1.711-1.644z"/><linearGradient id="q" gradientUnits="userSpaceOnUse" x1="362.636" y1="-827.372" x2="717.122" y2="-827.372" gradientTransform="matrix(1 0 0 -1 -298.622 -507.856)"><stop offset="0" stop-color="#4b48bf"/><stop offset="1" stop-color="#5248bb" stop-opacity="0"/></linearGradient><path fill="url(#q)" d="M410.415 280.893H64.014L418.5 358.138v-69.16a8.085 8.085 0 0 0-8.085-8.085z"/><linearGradient id="r" gradientUnits="userSpaceOnUse" x1="3896.194" y1="-204.988" x2="3961.559" y2="-204.988" gradientTransform="matrix(0 1 1 0 570.066 -3573.426)"><stop offset="0" stop-color="#fff"/><stop offset="1" stop-color="#fff" stop-opacity="0"/></linearGradient><path fill="url(#r)" d="M339.105 387.911c.006-4.353.021-8.701-.005-13.054-.01-1.816.604-3.367 1.798-4.708 1.266-1.424 2.838-2.428 4.536-3.241 3.773-1.811 7.806-2.667 11.918-3.204.142-.021.24.01.349.109 1.933 1.82 3.868 3.636 5.81 5.446.149.139.137.211-.002.346-.938.932-1.867 1.874-2.81 2.805-.297.292-.433.618-.344 1.03.106.298.256.562.573.678-.043.108.058.146.108.199.308.312.617.616.925.925l.729.726c.284.192.313.444.226.764-.107.391-.162.791-.24 1.188-.043.05-.039.107-.037.168-.09.406-.187.812-.271 1.219-.604 2.888-1.211 5.774-1.803 8.665a.629.629 0 0 1-.037.111h2.024a.441.441 0 0 1 .017-.14c.433-2.021.853-4.044 1.272-6.065l.58-2.78c.019-.192.159-.359.116-.563l.384-1.854c.056-.275.159-.545.121-.833a.762.762 0 0 0-.222-.524c-.229-.25-.457-.503-.729-.713-.181-.199-.342-.421-.584-.558-.168-.297-.453-.484-.681-.728-.102-.108-.102-.167.002-.271.712-.705 1.423-1.414 2.125-2.128.048-.046.085-.067.123-.073.039.005.076.026.123.073.706.714 1.415 1.423 2.127 2.128.104.104.104.16.002.271-.229.24-.514.431-.68.728-.244.137-.406.355-.586.558-.271.21-.498.466-.729.713a.758.758 0 0 0-.22.524c-.041.288.063.558.119.833l.383 1.854c-.043.202.101.369.117.563l.58 2.78c.422 2.021.84 4.046 1.272 6.065a.553.553 0 0 1 .017.14h2.024a.5.5 0 0 1-.037-.111 1957.65 1957.65 0 0 0-1.804-8.665c-.086-.408-.182-.813-.271-1.219.003-.062.007-.118-.036-.168-.078-.396-.134-.799-.24-1.188-.088-.317-.062-.569.228-.764l.729-.726c.31-.31.617-.614.924-.925.054-.054.152-.091.109-.199.317-.116.467-.38.571-.678.091-.412-.045-.737-.342-1.03-.94-.931-1.869-1.873-2.812-2.805-.14-.134-.149-.207-.002-.346a1997.91 1997.91 0 0 0 5.809-5.446.373.373 0 0 1 .349-.109c4.115.538 8.146 1.396 11.918 3.204 1.699.813 3.271 1.817 4.539 3.241 1.19 1.341 1.808 2.892 1.795 4.708-.019 3.282-.014 8.863-.008 13.274h1.967v-13.518c0-.532-.045-1.063-.146-1.586-.401-2.078-1.521-3.734-3.065-5.134-1.728-1.564-3.752-2.646-5.897-3.507-3.469-1.395-7.099-2.157-10.793-2.626-.226-.029-.312-.083-.31-.335.019-1.295.013-2.59.004-3.885 0-.165.052-.274.169-.387a20.325 20.325 0 0 0 2.622-3.114c.229-.313.464-.631.646-.979.341-.486.64-1 .9-1.535.444-.708.79-1.466 1.102-2.239.072-.162.146-.321.212-.483.926-2.271 1.592-4.613 1.747-7.071.08-1.25.063-2.502.043-3.754h.021c-.288-8.452-7.032-15.212-15.313-15.212-8.237 0-14.687 6.688-15.041 15.075h-.006c0 .036 0 .072-.002.108v.026c-.021 1.252-.037 2.504.043 3.754.158 2.458.824 4.8 1.748 7.071.065.162.142.321.211.483.313.772.656 1.531 1.103 2.239.262.535.563 1.047.901 1.535.181.351.412.666.644.979a20.223 20.223 0 0 0 2.625 3.113.48.48 0 0 1 .166.388c-.008 1.295-.008 2.59.004 3.885.002.251-.084.307-.31.334-3.694.47-7.323 1.233-10.793 2.626-2.146.862-4.172 1.941-5.897 3.508-1.543 1.397-2.662 3.056-3.063 5.134a8.422 8.422 0 0 0-.146 1.585v13.467h1.974a.891.891 0 0 1-.015-.171h.004v.006h.002zm31.601-25.147c-1.829 1.71-3.653 3.424-5.477 5.141-.06.059-.104.081-.148.088a.26.26 0 0 1-.149-.088c-1.819-1.718-3.647-3.43-5.478-5.141a.38.38 0 0 1-.135-.313c.006-.54 0-1.08 0-1.621 0-.561.006-1.118 0-1.678-.002-.188.032-.231.211-.123.354.222.715.438 1.088.628 1.418.724 2.894 1.122 4.443 1.126v.003l.018-.001.021.001v-.003c1.55-.005 3.027-.403 4.443-1.126.37-.188.729-.406 1.086-.628.178-.108.215-.065.213.123-.006.561-.002 1.117-.002 1.678 0 .541-.004 1.081.002 1.621a.384.384 0 0 1-.136.313zm-14.249-9.444c-.6-.807-1.104-1.674-1.635-2.524-.037-.154-.131-.279-.209-.414-.174-.325-.297-.679-.522-.978.024-.092-.035-.159-.067-.232a24.2 24.2 0 0 1-.867-2.087c-.604-1.669-1.049-3.375-1.213-5.147-.123-1.315-.058-2.638-.074-3.955.291-7.285 5.974-13.124 13.09-13.124 7.115 0 13.048 5.837 13.337 13.123-.021 1.318.047 2.64-.076 3.956-.164 1.772-.604 3.479-1.211 5.147a24.2 24.2 0 0 1-.867 2.087c-.032.073-.096.143-.069.232-.228.299-.351.65-.521.978-.08.134-.174.259-.209.414-.531.853-1.037 1.72-1.638 2.524-1.229 1.659-2.631 3.142-4.409 4.226-1.222.744-2.531 1.22-3.972 1.271-.076.002-.147 0-.224 0h-.037c-.071 0-.146.003-.221 0-1.44-.053-2.752-.526-3.972-1.271-1.78-1.086-3.18-2.567-4.414-4.226z"/><linearGradient id="s" gradientUnits="userSpaceOnUse" x1="4036.184" y1="3313.25" x2="4106.148" y2="3313.25" gradientTransform="rotate(90 3643.83 -76.442)"><stop offset="0" stop-color="#fff" stop-opacity=".048"/><stop offset=".489" stop-color="#fff"/><stop offset="1" stop-color="#fff" stop-opacity="0"/></linearGradient><path fill="url(#s)" d="M253.464 315.911h1.349v69.964h-1.349v-69.964z"/><linearGradient id="t" gradientUnits="userSpaceOnUse" x1="3544.44" y1="-221.063" x2="3933.507" y2="-221.063" gradientTransform="rotate(180 1977.305 30.254)"><stop offset="0" stop-color="#fff" stop-opacity=".048"/><stop offset=".489" stop-color="#fff"/><stop offset="1" stop-color="#fff" stop-opacity="0"/></linearGradient><path fill="url(#t)" d="M21.103 280.895H410.17v1.35H21.103v-1.35z"/><path fill="#FFF" d="M121.44 312.815h-2.396v7.082h-.588v-7.082h-2.397v-.544h5.382v.544zm5.456 1.634v5.447h-.556v-1.231c-.458.817-1.297 1.353-2.343 1.353a2.814 2.814 0 0 1-2.822-2.845 2.814 2.814 0 0 1 2.822-2.844c1.046 0 1.885.534 2.343 1.353v-1.231l.556-.002zm-.556 2.724c0-1.297-1.002-2.319-2.299-2.319s-2.311 1.022-2.311 2.319a2.292 2.292 0 0 0 2.311 2.32c1.296 0 2.299-1.023 2.299-2.32zm4.593-2.8v.522c-.937 0-1.819.578-1.819 1.973v3.028h-.545v-5.447h.545v1.067c.369-.86 1.078-1.143 1.819-1.143zm6.153.076v5.186c0 1.636-1.209 2.562-2.712 2.562-1.275 0-2.18-.512-2.571-1.308l.479-.272c.282.578.893 1.057 2.092 1.057 1.361 0 2.168-.795 2.168-2.036v-1.003c-.447.84-1.286 1.385-2.342 1.385-1.559 0-2.822-1.231-2.822-2.845 0-1.612 1.264-2.844 2.822-2.844 1.057 0 1.896.545 2.342 1.384v-1.264l.544-.002zm-.544 2.724a2.29 2.29 0 0 0-2.264-2.319h-.047a2.29 2.29 0 0 0-2.31 2.319 2.291 2.291 0 0 0 2.31 2.32 2.293 2.293 0 0 0 2.311-2.273v-.047zm7.36.022c0 .087-.011.175-.011.262h-4.935c.13 1.231 1.066 2.037 2.31 2.037.895 0 1.569-.414 1.885-.991l.479.283c-.447.741-1.296 1.231-2.375 1.231-1.678 0-2.866-1.198-2.866-2.845 0-1.602 1.155-2.844 2.822-2.844 1.656.001 2.691 1.374 2.691 2.867zm-4.946-.273h4.379c-.12-1.329-1.058-2.068-2.125-2.068-1.241-.001-2.146.859-2.254 2.068zm7.218-1.938v3.54c0 .959.512.979 1.624.883v.49c-1.427.218-2.179-.131-2.179-1.373v-3.54h-1.199v-.534h1.199v-1.362l.555-.163v1.525h1.624v.534h-1.624zm8.2-.611v.522c-.938 0-1.819.578-1.819 1.973v3.028h-.545v-5.447h.545v1.067c.369-.86 1.078-1.143 1.819-1.143zm5.913 2.822c0 .087-.012.175-.012.262h-4.935c.13 1.231 1.067 2.037 2.31 2.037.895 0 1.569-.414 1.886-.991l.479.283c-.447.741-1.296 1.231-2.375 1.231-1.678 0-2.866-1.198-2.866-2.845 0-1.602 1.155-2.844 2.822-2.844 1.656.001 2.691 1.374 2.691 2.867zm-4.946-.273h4.379c-.12-1.329-1.057-2.068-2.125-2.068-1.241-.001-2.145.859-2.254 2.068zm13.189-2.473l-1.721 5.447h-.599l-1.516-4.643-1.514 4.643h-.599l-1.723-5.447h.578l1.449 4.739 1.525-4.739h.565l1.525 4.739 1.449-4.739h.581zm6.325 0v5.447h-.555v-1.231c-.458.817-1.297 1.353-2.343 1.353a2.814 2.814 0 0 1-2.822-2.845 2.814 2.814 0 0 1 2.822-2.844c1.046 0 1.885.534 2.343 1.353v-1.231l.555-.002zm-.555 2.724c0-1.297-1.002-2.319-2.299-2.319s-2.311 1.022-2.311 2.319a2.292 2.292 0 0 0 2.311 2.32c1.296 0 2.299-1.023 2.299-2.32zm4.593-2.8v.522c-.937 0-1.818.578-1.818 1.973v3.028h-.546v-5.447h.546v1.067c.368-.86 1.077-1.143 1.818-1.143zm6.12-2.102v7.626h-.544v-1.265c-.447.84-1.286 1.385-2.342 1.385-1.559 0-2.822-1.231-2.822-2.845 0-1.612 1.264-2.844 2.822-2.844 1.057 0 1.896.545 2.342 1.384v-3.441h.544zm-.545 4.902a2.29 2.29 0 0 0-2.264-2.319h-.046a2.291 2.291 0 0 0-2.311 2.319 2.291 2.291 0 0 0 2.311 2.32 2.292 2.292 0 0 0 2.31-2.273v-.047zm10.474-2.724v5.447h-.555v-1.231c-.458.817-1.297 1.353-2.343 1.353a2.814 2.814 0 0 1-2.822-2.845 2.814 2.814 0 0 1 2.822-2.844c1.046 0 1.885.534 2.343 1.353v-1.231l.555-.002zm-.555 2.724c0-1.297-1.002-2.319-2.299-2.319s-2.311 1.022-2.311 2.319c0 1.298 1.014 2.32 2.311 2.32s2.299-1.023 2.299-2.32zm10.03-.73v3.454h-.545v-3.454c0-1.034-.6-1.59-1.449-1.59-.916 0-1.634.608-1.634 2.004v3.04h-.545v-3.454c0-1.034-.557-1.59-1.396-1.59-.893 0-1.688.608-1.688 2.004v3.04h-.545v-5.447h.545v.938c.402-.751 1.057-1.058 1.754-1.058.795 0 1.417.394 1.699 1.111.393-.763 1.09-1.111 1.819-1.111 1.156-.001 1.985.751 1.985 2.113zm1.159.73c0-1.611 1.273-2.844 2.864-2.844 1.58 0 2.854 1.231 2.854 2.844 0 1.613-1.274 2.845-2.854 2.845-1.589-.001-2.864-1.233-2.864-2.845zm5.164 0c0-1.297-1.002-2.319-2.299-2.319s-2.311 1.022-2.311 2.319c0 1.298 1.014 2.32 2.311 2.32s2.299-1.023 2.299-2.32zm6.325-2.724v5.447h-.544v-1.035c-.414.807-1.11 1.155-1.951 1.155-1.297 0-2.112-.861-2.112-2.181v-3.388h.556v3.388c0 1.003.577 1.656 1.602 1.656 1.067 0 1.907-.697 1.907-2.168v-2.876l.542.002zm6.283 2.059v3.39h-.556v-3.39c0-1.002-.577-1.654-1.603-1.654-1.066 0-1.905.696-1.905 2.168v2.876h-.546v-5.447h.546v1.035c.413-.807 1.11-1.155 1.949-1.155 1.298-.002 2.115.859 2.115 2.177zm2.698-1.524v3.54c0 .959.512.979 1.623.883v.49c-1.427.218-2.18-.131-2.18-1.373v-3.54h-1.198v-.534h1.198v-1.362l.557-.163v1.525h1.623v.534h-1.623z"/><path fill="#A68846" d="M103.408 340.042c-1.087-1.052-3.427-1.779-6.146-1.779s-5.058.729-6.146 1.779h-.813l.162 1.317c0 1.712 3.042 3.1 6.797 3.1s6.797-1.388 6.797-3.1l.162-1.317h-.813z"/><ellipse fill="#E2C79A" cx="97.263" cy="339.908" rx="6.959" ry="3.173"/><linearGradient id="u" gradientUnits="userSpaceOnUse" x1="2654.454" y1="4880.797" x2="2665.462" y2="4880.797" gradientTransform="matrix(-1 0 0 1 2757.221 -4541.201)"><stop offset=".005" stop-color="#a68846"/><stop offset="1" stop-color="#a68846" stop-opacity="0"/></linearGradient><ellipse fill="url(#u)" cx="97.263" cy="339.595" rx="5.504" ry="2.509"/><linearGradient id="v" gradientUnits="userSpaceOnUse" x1="-68.337" y1="-846.94" x2="-55.418" y2="-846.94" gradientTransform="matrix(1 0 0 -1 159.64 -507.856)"><stop offset=".005" stop-color="#fff"/><stop offset="1" stop-color="#fff" stop-opacity="0"/></linearGradient><path opacity=".7" fill="url(#v)" d="M103.386 341.426c.533-.448.836-.963.836-1.51 0-1.753-3.116-3.173-6.959-3.173-2.533 0-4.743.618-5.96 1.542l12.083 3.141z"/><path fill="#A68846" d="M87.314 338.86c-1.305-1.505-4.115-2.549-7.381-2.549s-6.076 1.044-7.381 2.549h-.977l.193 1.886c0 2.448 3.655 4.436 8.164 4.436 4.508 0 8.164-1.985 8.164-4.436l.194-1.886h-.976z"/><ellipse fill="#E2C79A" cx="79.934" cy="338.669" rx="8.358" ry="4.54"/><linearGradient id="w" gradientUnits="userSpaceOnUse" x1="2670.676" y1="4879.422" x2="2683.899" y2="4879.422" gradientTransform="matrix(-1 0 0 1 2757.221 -4541.201)"><stop offset=".005" stop-color="#a68846"/><stop offset="1" stop-color="#a68846" stop-opacity="0"/></linearGradient><ellipse fill="url(#w)" cx="79.934" cy="338.221" rx="6.611" ry="3.59"/><linearGradient id="x" gradientUnits="userSpaceOnUse" x1="-86.865" y1="-845.347" x2="-71.348" y2="-845.347" gradientTransform="matrix(1 0 0 -1 159.64 -507.856)"><stop offset=".005" stop-color="#fff"/><stop offset="1" stop-color="#fff" stop-opacity="0"/></linearGradient><path opacity=".7" fill="url(#x)" d="M87.288 340.84c.64-.644 1.004-1.377 1.004-2.157 0-2.508-3.742-4.54-8.358-4.54-3.042 0-5.697.886-7.159 2.205l14.513 4.492z"/><path fill="#A68846" d="M84.872 335.292c-1.306-1.265-4.115-2.141-7.38-2.141-3.267 0-6.075.876-7.382 2.141h-.977l.194 1.582c0 2.058 3.654 3.725 8.164 3.725 4.509 0 8.164-1.667 8.164-3.725l.193-1.582h-.976z"/><ellipse fill="#E2C79A" cx="77.491" cy="335.131" rx="8.357" ry="3.811"/><linearGradient id="y" gradientUnits="userSpaceOnUse" x1="2673.119" y1="4875.957" x2="2686.339" y2="4875.957" gradientTransform="matrix(-1 0 0 1 2757.221 -4541.201)"><stop offset=".005" stop-color="#a68846"/><stop offset="1" stop-color="#a68846" stop-opacity="0"/></linearGradient><ellipse fill="url(#y)" cx="77.492" cy="334.756" rx="6.609" ry="3.014"/><linearGradient id="z" gradientUnits="userSpaceOnUse" x1="-89.308" y1="-841.996" x2="-73.791" y2="-841.996" gradientTransform="matrix(1 0 0 -1 159.64 -507.856)"><stop offset=".005" stop-color="#fff"/><stop offset="1" stop-color="#fff" stop-opacity="0"/></linearGradient><path opacity=".7" fill="url(#z)" d="M84.846 336.953c.64-.539 1.003-1.155 1.003-1.813 0-2.104-3.741-3.813-8.357-3.813-3.042 0-5.697.742-7.159 1.853l14.513 3.773z"/><path fill="#A68846" d="M87.314 332.483c-1.305-1.265-4.115-2.141-7.381-2.141s-6.076.876-7.381 2.141h-.977l.193 1.583c0 2.056 3.655 3.723 8.164 3.723 4.508 0 8.164-1.667 8.164-3.723l.194-1.583h-.976z"/><ellipse fill="#E2C79A" cx="79.934" cy="332.323" rx="8.358" ry="3.811"/><linearGradient id="A" gradientUnits="userSpaceOnUse" x1="2670.676" y1="4873.149" x2="2683.899" y2="4873.149" gradientTransform="matrix(-1 0 0 1 2757.221 -4541.201)"><stop offset=".005" stop-color="#a68846"/><stop offset="1" stop-color="#a68846" stop-opacity="0"/></linearGradient><ellipse fill="url(#A)" cx="79.934" cy="331.948" rx="6.611" ry="3.015"/><linearGradient id="B" gradientUnits="userSpaceOnUse" x1="-86.865" y1="-839.188" x2="-71.348" y2="-839.188" gradientTransform="matrix(1 0 0 -1 159.64 -507.856)"><stop offset=".005" stop-color="#fff"/><stop offset="1" stop-color="#fff" stop-opacity="0"/></linearGradient><path opacity=".7" fill="url(#B)" d="M87.288 334.144c.64-.539 1.004-1.157 1.004-1.813 0-2.104-3.742-3.812-8.358-3.812-3.042 0-5.697.744-7.159 1.853l14.513 3.772z"/><path fill="#A68846" d="M87.314 329.675c-1.305-1.264-4.115-2.14-7.381-2.14s-6.076.876-7.381 2.14h-.977l.193 1.583c0 2.057 3.655 3.723 8.164 3.723 4.508 0 8.164-1.666 8.164-3.723l.194-1.583h-.976z"/><ellipse fill="#E2C79A" cx="79.934" cy="329.513" rx="8.358" ry="3.812"/><linearGradient id="C" gradientUnits="userSpaceOnUse" x1="2670.676" y1="4870.34" x2="2683.899" y2="4870.34" gradientTransform="matrix(-1 0 0 1 2757.221 -4541.201)"><stop offset=".005" stop-color="#a68846"/><stop offset="1" stop-color="#a68846" stop-opacity="0"/></linearGradient><ellipse fill="url(#C)" cx="79.934" cy="329.138" rx="6.611" ry="3.015"/><linearGradient id="D" gradientUnits="userSpaceOnUse" x1="-86.865" y1="-836.379" x2="-71.348" y2="-836.379" gradientTransform="matrix(1 0 0 -1 159.64 -507.856)"><stop offset=".005" stop-color="#fff"/><stop offset="1" stop-color="#fff" stop-opacity="0"/></linearGradient><path opacity=".7" fill="url(#D)" d="M87.288 331.335c.64-.538 1.004-1.154 1.004-1.813 0-2.104-3.742-3.812-8.358-3.812-3.042 0-5.697.743-7.159 1.853l14.513 3.772z"/><path fill="#A68846" d="M85.471 326.868c-1.305-1.264-4.115-2.141-7.381-2.141s-6.075.876-7.38 2.141h-.979l.194 1.583c0 2.057 3.655 3.723 8.164 3.723s8.164-1.667 8.164-3.723l.195-1.583h-.977z"/><ellipse fill="#E2C79A" cx="78.091" cy="326.707" rx="8.358" ry="3.811"/><linearGradient id="E" gradientUnits="userSpaceOnUse" x1="2672.522" y1="4867.533" x2="2685.742" y2="4867.533" gradientTransform="matrix(-1 0 0 1 2757.221 -4541.201)"><stop offset=".005" stop-color="#a68846"/><stop offset="1" stop-color="#a68846" stop-opacity="0"/></linearGradient><ellipse fill="url(#E)" cx="78.089" cy="326.332" rx="6.61" ry="3.015"/><linearGradient id="F" gradientUnits="userSpaceOnUse" x1="-88.709" y1="-833.573" x2="-73.191" y2="-833.573" gradientTransform="matrix(1 0 0 -1 159.64 -507.856)"><stop offset=".005" stop-color="#fff"/><stop offset="1" stop-color="#fff" stop-opacity="0"/></linearGradient><path opacity=".7" fill="url(#F)" d="M85.445 328.529c.641-.538 1.005-1.154 1.005-1.813 0-2.104-3.742-3.812-8.359-3.812-3.042 0-5.697.743-7.159 1.853l14.513 3.772z"/><path fill="#A68846" d="M95.672 347.233c-1.305-1.525-4.115-2.585-7.381-2.585-3.267 0-6.075 1.06-7.381 2.585h-.978l.194 1.912c0 2.483 3.655 4.498 8.164 4.498s8.164-2.015 8.164-4.498l.194-1.912h-.976z"/><ellipse fill="#E2C79A" cx="88.292" cy="347.038" rx="8.357" ry="4.605"/><linearGradient id="G" gradientUnits="userSpaceOnUse" x1="2662.32" y1="4887.787" x2="2675.539" y2="4887.787" gradientTransform="matrix(-1 0 0 1 2757.221 -4541.201)"><stop offset=".005" stop-color="#a68846"/><stop offset="1" stop-color="#a68846" stop-opacity="0"/></linearGradient><ellipse fill="url(#G)" cx="88.292" cy="346.585" rx="6.609" ry="3.642"/><linearGradient id="H" gradientUnits="userSpaceOnUse" x1="-78.507" y1="-853.699" x2="-62.99" y2="-853.699" gradientTransform="matrix(1 0 0 -1 159.64 -507.856)"><stop offset=".005" stop-color="#fff"/><stop offset="1" stop-color="#fff" stop-opacity="0"/></linearGradient><path opacity=".7" fill="url(#H)" d="M95.646 349.24c.641-.65 1.004-1.396 1.004-2.188 0-2.543-3.741-4.604-8.357-4.604-3.042 0-5.697.898-7.159 2.237l14.512 4.555z"/><path fill="#A68846" d="M95.672 343.596c-1.305-1.265-4.115-2.142-7.381-2.142-3.267 0-6.075.876-7.381 2.142h-.978l.194 1.583c0 2.056 3.655 3.723 8.164 3.723s8.164-1.667 8.164-3.723l.194-1.583h-.976z"/><ellipse fill="#E2C79A" cx="88.292" cy="343.436" rx="8.357" ry="3.811"/><linearGradient id="I" gradientUnits="userSpaceOnUse" x1="2662.32" y1="4884.262" x2="2675.539" y2="4884.262" gradientTransform="matrix(-1 0 0 1 2757.221 -4541.201)"><stop offset=".005" stop-color="#a68846"/><stop offset="1" stop-color="#a68846" stop-opacity="0"/></linearGradient><ellipse fill="url(#I)" cx="88.292" cy="343.06" rx="6.609" ry="3.013"/><linearGradient id="J" gradientUnits="userSpaceOnUse" x1="-78.507" y1="-850.302" x2="-62.99" y2="-850.302" gradientTransform="matrix(1 0 0 -1 159.64 -507.856)"><stop offset=".005" stop-color="#fff"/><stop offset="1" stop-color="#fff" stop-opacity="0"/></linearGradient><path opacity=".7" fill="url(#J)" d="M95.646 345.258c.641-.537 1.004-1.155 1.004-1.813 0-2.104-3.741-3.812-8.357-3.812-3.042 0-5.697.742-7.159 1.853l14.512 3.772z"/><path fill="#A68846" d="M103.907 331.186c-1.087-1.052-3.427-1.781-6.146-1.781-2.718 0-5.058.729-6.145 1.781h-.813l.162 1.317c0 1.712 3.042 3.101 6.796 3.101 3.755 0 6.798-1.389 6.798-3.101l.162-1.317h-.814z"/><ellipse fill="#E2C79A" cx="97.763" cy="331.052" rx="6.959" ry="3.174"/><linearGradient id="K" gradientUnits="userSpaceOnUse" x1="2653.955" y1="4871.941" x2="2664.963" y2="4871.941" gradientTransform="matrix(-1 0 0 1 2757.221 -4541.201)"><stop offset=".005" stop-color="#a68846"/><stop offset="1" stop-color="#a68846" stop-opacity="0"/></linearGradient><ellipse fill="url(#K)" cx="97.762" cy="330.74" rx="5.504" ry="2.509"/><linearGradient id="L" gradientUnits="userSpaceOnUse" x1="-67.839" y1="-838.085" x2="-54.919" y2="-838.085" gradientTransform="matrix(1 0 0 -1 159.64 -507.856)"><stop offset=".005" stop-color="#fff"/><stop offset="1" stop-color="#fff" stop-opacity="0"/></linearGradient><path opacity=".7" fill="url(#L)" d="M103.885 332.57c.533-.447.836-.962.836-1.509 0-1.752-3.116-3.173-6.96-3.173-2.533 0-4.743.618-5.96 1.542l12.084 3.14z"/><linearGradient id="M" gradientUnits="userSpaceOnUse" x1="3742.738" y1="3243.955" x2="3799.113" y2="3243.955" gradientTransform="rotate(-45.001 -1550.857 6259.497)"><stop offset="0" stop-color="#4b48bf"/><stop offset="1" stop-color="#a14b8a"/></linearGradient><path fill="url(#M)" d="M125.851 370.227L95.42 382.125l-61.404-24.008 30.432-11.896 61.403 24.006z"/><path opacity=".2" d="M74.563 372.319l14.15 5.532c4.102-.985 9.311-.985 13.416 0l12.796-5.003c-2.523-1.604-2.523-3.643 0-5.245l-14.151-5.532c1.828 2.787-.045 5.867-5.623 8.051-5.579 2.18-13.461 2.913-20.588 2.197zm10.745-16.296l-14.149-5.531c-4.103.986-9.312.986-13.416 0l-12.796 5.004c2.521 1.604 2.521 3.642 0 5.243l14.15 5.533c-1.83-2.787.041-5.868 5.623-8.049 5.58-2.181 13.461-2.914 20.588-2.2z"/><path opacity=".1" fill="#FFF" d="M64.274 346.153l61.577 24.074-30.594 11.961-30.983-36.035z"/><linearGradient id="N" gradientUnits="userSpaceOnUse" x1="3842.367" y1="3543.13" x2="3870.52" y2="3543.13" gradientTransform="rotate(-45.001 -1869.235 6512.31)"><stop offset="0" stop-color="#4b48bf"/><stop offset="1" stop-color="#a14b8a"/></linearGradient><ellipse fill="url(#N)" cx="79.935" cy="364.174" rx="18.535" ry="7.247"/><path opacity=".2" d="M125.851 370.227l-30.433 11.896-61.402-24.007 30.432-11.897 61.403 24.008z"/><linearGradient id="O" gradientUnits="userSpaceOnUse" x1="3744.983" y1="3241.712" x2="3801.356" y2="3241.712" gradientTransform="rotate(-45.001 -1550.857 6259.497)"><stop offset="0" stop-color="#4b48bf"/><stop offset="1" stop-color="#a14b8a"/></linearGradient><path fill="url(#O)" d="M125.851 367.055L95.42 378.953l-61.404-24.009 30.432-11.896 61.403 24.007z"/><path opacity=".2" d="M74.563 369.147l14.15 5.532c4.102-.986 9.311-.986 13.416 0l12.796-5.004c-2.523-1.604-2.523-3.642 0-5.244l-14.151-5.532c1.828 2.787-.045 5.867-5.623 8.051-5.579 2.181-13.461 2.913-20.588 2.197zm10.745-16.296l-14.149-5.532c-4.103.987-9.312.987-13.416 0l-12.796 5.005c2.521 1.604 2.521 3.641 0 5.243l14.15 5.533c-1.83-2.787.041-5.868 5.623-8.05 5.58-2.18 13.461-2.913 20.588-2.199z"/><path opacity=".1" fill="#FFF" d="M64.274 342.981l61.577 24.074-30.594 11.961-30.983-36.035z"/><linearGradient id="P" gradientUnits="userSpaceOnUse" x1="3844.611" y1="3540.887" x2="3872.763" y2="3540.887" gradientTransform="rotate(-45.001 -1869.235 6512.31)"><stop offset="0" stop-color="#4b48bf"/><stop offset="1" stop-color="#a14b8a"/></linearGradient><ellipse fill="url(#P)" cx="79.935" cy="361.001" rx="18.535" ry="7.247"/><path opacity=".2" d="M125.851 367.055l-30.433 11.896-61.402-24.008 30.432-11.896 61.403 24.008z"/><linearGradient id="Q" gradientUnits="userSpaceOnUse" x1="3747.225" y1="3239.47" x2="3803.599" y2="3239.47" gradientTransform="rotate(-45.001 -1550.857 6259.497)"><stop offset="0" stop-color="#4b48bf"/><stop offset="1" stop-color="#a14b8a"/></linearGradient><path fill="url(#Q)" d="M125.851 363.884L95.42 375.781l-61.404-24.009 30.432-11.897 61.403 24.009z"/><path opacity=".2" d="M74.563 365.975l14.15 5.531c4.102-.985 9.311-.985 13.416 0l12.796-5.003c-2.523-1.604-2.523-3.643 0-5.245l-14.151-5.531c1.828 2.787-.045 5.867-5.623 8.05-5.579 2.181-13.461 2.914-20.588 2.198zm10.745-16.296l-14.149-5.532c-4.103.986-9.312.986-13.416 0l-12.796 5.004c2.521 1.604 2.521 3.641 0 5.244l14.15 5.532c-1.83-2.786.041-5.867 5.623-8.049 5.58-2.18 13.461-2.912 20.588-2.199z"/><path opacity=".1" fill="#FFF" d="M64.274 339.809l61.577 24.073-30.594 11.961-30.983-36.034z"/><linearGradient id="R" gradientUnits="userSpaceOnUse" x1="3846.853" y1="3538.644" x2="3875.006" y2="3538.644" gradientTransform="rotate(-45.001 -1869.235 6512.31)"><stop offset="0" stop-color="#4b48bf"/><stop offset="1" stop-color="#a14b8a"/></linearGradient><ellipse fill="url(#R)" cx="79.935" cy="357.829" rx="18.535" ry="7.247"/></svg>