<svg xmlns="http://www.w3.org/2000/svg" width="452.613" height="252.308" viewBox="563.694 49.894 452.613 252.308"><linearGradient id="a" gradientUnits="userSpaceOnUse" x1="4075.45" y1="1188.562" x2="4284.89" y2="1188.562" gradientTransform="rotate(90 3002.06 -1023.497)"><stop offset="0" stop-color="#a14b8a"/><stop offset="1" stop-color="#a14b8a" stop-opacity="0"/></linearGradient><path fill="url(#a)" d="M1016.223 259.334V57.979a8.085 8.085 0 0 0-8.084-8.085H571.864a8.087 8.087 0 0 0-8.086 8.085v201.355h452.445z"/><linearGradient id="b" gradientUnits="userSpaceOnUse" x1="437.911" y1="1204.731" x2="764.307" y2="1204.731" gradientTransform="translate(252 -1084.87)"><stop offset="0" stop-color="#a14b8a"/><stop offset="1" stop-color="#a14b8a" stop-opacity="0"/></linearGradient><path fill="url(#b)" d="M1008.223 49.894H689.911l326.396 139.934V57.979a8.084 8.084 0 0 0-8.084-8.085z"/><path fill="#FFF" d="M656.172 120.651c0-3.607 2.854-6.376 6.377-6.376 3.521 0 6.377 2.769 6.377 6.376 0 3.608-2.855 6.376-6.377 6.376-3.523 0-6.377-2.766-6.377-6.376zm9.948 0c0-2.189-1.574-3.644-3.57-3.644s-3.574 1.454-3.574 3.644 1.578 3.645 3.574 3.645 3.57-1.455 3.57-3.645zm17.257 6.132h-2.627v-6.236h-2.242v6.236h-2.627v-6.236h-2.277v6.236h-2.627v-6.236h-1.174v-2.522h1.174c0-2.451 1.348-3.924 4.256-3.749v2.522c-.979-.087-1.629.21-1.629 1.226h2.277v-.175c0-2.453 1.348-3.749 4.256-3.749.719 0 1.438.088 2.188.246v2.417a20.022 20.022 0 0 0-2.188-.141c-.98 0-1.629.21-1.629 1.227v.175h4.867v8.76h.002zm1.487-4.38c0-2.609 1.979-4.625 4.646-4.625 1.699 0 3.205.895 3.957 2.242l-2.293 1.332c-.301-.612-.934-.98-1.699-.98-1.139 0-1.98.822-1.98 2.031s.846 2.032 1.98 2.032c.77 0 1.418-.368 1.699-.98l2.293 1.313c-.752 1.367-2.242 2.26-3.957 2.26-2.664-.001-4.646-2.014-4.646-4.625zm13.931 2.278c.717 0 1.33-.28 1.682-.666l2.102 1.208c-.855 1.191-2.15 1.804-3.814 1.804-2.994 0-4.854-2.014-4.854-4.625 0-2.609 1.896-4.625 4.66-4.625 2.563 0 4.449 1.979 4.449 4.625 0 .368-.035.719-.104 1.052h-6.221c.329.911 1.132 1.227 2.1 1.227zm1.608-3.188c-.277-1.017-1.064-1.385-1.854-1.385-.998 0-1.664.49-1.91 1.385h3.764zm9.357-3.643v2.979c-1.086-.176-2.627.263-2.627 1.997v3.959h-2.627v-8.76h2.627v1.56c.348-1.175 1.52-1.735 2.627-1.735zm61.551 30.077l6.58-14.804h.658l-6.58 14.804h-.658zm17.846-5.758c0 2.435-1.904 4.293-4.26 4.293-1.598 0-2.863-.823-3.537-2.089v5.197h-.818v-11.514h.818v1.908c.674-1.267 1.939-2.089 3.537-2.089 2.355.001 4.26 1.859 4.26 4.294zm-.819 0c0-1.958-1.531-3.503-3.488-3.503s-3.486 1.546-3.486 3.503 1.529 3.504 3.486 3.504 3.488-1.547 3.488-3.504zm10.579.034c0 .131-.021.263-.021.395h-7.451c.195 1.859 1.611 3.076 3.486 3.076 1.35 0 2.369-.625 2.848-1.497l.727.428c-.678 1.119-1.957 1.859-3.586 1.859-2.533 0-4.326-1.811-4.326-4.293 0-2.418 1.744-4.293 4.264-4.293 2.494-.002 4.059 2.07 4.059 4.325zm-7.473-.411h6.611c-.182-2.007-1.596-3.125-3.205-3.125-1.873 0-3.24 1.298-3.406 3.125zm12.965-3.851v.79c-1.41 0-2.744.872-2.744 2.979v4.573h-.822v-8.226h.822v1.612c.56-1.299 1.628-1.728 2.744-1.728zm17.832 3.126v5.215h-.818v-5.215c0-1.563-.902-2.4-2.188-2.4-1.381 0-2.469.921-2.469 3.025v4.59h-.82v-5.215c0-1.563-.84-2.4-2.105-2.4-1.352 0-2.551.921-2.551 3.025v4.59h-.822v-8.226h.822v1.415c.607-1.135 1.596-1.595 2.646-1.595 1.199 0 2.139.592 2.564 1.678.592-1.151 1.646-1.678 2.748-1.678 1.743 0 2.993 1.136 2.993 3.191zm1.767 1.102c0-2.436 1.926-4.293 4.326-4.293 2.387 0 4.311 1.857 4.311 4.293 0 2.435-1.924 4.293-4.311 4.293-2.4 0-4.326-1.858-4.326-4.293zm7.797 0c0-1.958-1.512-3.503-3.471-3.503-1.957 0-3.486 1.546-3.486 3.503s1.529 3.504 3.486 3.504c1.959 0 3.471-1.547 3.471-3.504zm9.77-1.002v5.116h-.838v-5.116c0-1.514-.873-2.5-2.418-2.5-1.609 0-2.879 1.053-2.879 3.272v4.344h-.822v-8.226h.822v1.563c.625-1.218 1.678-1.744 2.941-1.744 1.965 0 3.194 1.3 3.194 3.291zm4.082-2.303v5.346c0 1.448.771 1.479 2.451 1.333v.74c-2.156.328-3.291-.197-3.291-2.073v-5.346h-1.811v-.807h1.811v-2.056l.84-.247v2.303h2.451v.807h-2.451zm11.386 2.303v5.116h-.842v-5.116c0-1.514-.869-2.5-2.418-2.5-1.609 0-2.879 1.053-2.879 3.272v4.344h-.818v-11.516h.818v4.854c.625-1.218 1.682-1.744 2.941-1.744 1.966-.001 3.198 1.299 3.198 3.29zm5.547-4.229l-1.564-.032.873 1.299-.643.378-.809-1.382-.791 1.382-.652-.378.867-1.299-1.564.032v-.708l1.564.033-.867-1.299.652-.378.791 1.365.809-1.365.643.378-.873 1.299 1.564-.033v.708z"/><linearGradient id="c" gradientUnits="userSpaceOnUse" x1="3770.118" y1="975.447" x2="3777.98" y2="975.447" gradientTransform="rotate(90 2697.737 -962.777)"><stop offset="0" stop-color="#fff"/><stop offset=".545" stop-color="#eee"/><stop offset="1" stop-color="#e6e6e6"/></linearGradient><path fill="url(#c)" d="M769.342 111.796c-1.398 5.405-5.293 6.653-9.412 4.914-3.82-1.587-4.729-1.928-5.709.756l-4.537-2.192c1.398-5.405 5.293-6.653 9.414-4.915 3.813 1.589 4.688 1.891 5.707-.755l4.537 2.192z"/><linearGradient id="d" gradientUnits="userSpaceOnUse" x1="3760.743" y1="954.933" x2="3787.205" y2="954.933" gradientTransform="rotate(90 2697.737 -962.777)"><stop offset="0" stop-color="#fff"/><stop offset=".545" stop-color="#eee"/><stop offset="1" stop-color="#e6e6e6"/></linearGradient><path fill="url(#d)" d="M786.135 100.229v26.462h-6.049v-20.072l-4.688 1.285-1.479-5.179 6.92-2.495 5.296-.001z"/><linearGradient id="e" gradientUnits="userSpaceOnUse" x1="3760.213" y1="934.275" x2="3787.734" y2="934.275" gradientTransform="rotate(90 2697.737 -962.777)"><stop offset="0" stop-color="#fff"/><stop offset=".545" stop-color="#eee"/><stop offset="1" stop-color="#e6e6e6"/></linearGradient><path fill="url(#e)" d="M789.915 113.46c0-8.166 3.932-13.761 10.771-13.761s10.771 5.595 10.771 13.761-3.938 13.76-10.771 13.76c-6.84.001-10.771-5.595-10.771-13.76zm15.5 0c0-5.104-1.553-7.863-4.729-7.863-3.178 0-4.727 2.76-4.727 7.863 0 5.103 1.549 7.863 4.727 7.863 3.176 0 4.729-2.76 4.729-7.863z"/><linearGradient id="f" gradientUnits="userSpaceOnUse" x1="3760.213" y1="910.46" x2="3787.734" y2="910.46" gradientTransform="rotate(90 2697.737 -962.777)"><stop offset="0" stop-color="#fff"/><stop offset=".545" stop-color="#eee"/><stop offset="1" stop-color="#e6e6e6"/></linearGradient><path fill="url(#f)" d="M813.729 113.46c0-8.166 3.93-13.761 10.773-13.761 6.842 0 10.77 5.595 10.77 13.761s-3.93 13.76-10.77 13.76c-6.845.001-10.773-5.595-10.773-13.76zm15.5 0c0-5.104-1.551-7.863-4.727-7.863-3.182 0-4.729 2.76-4.729 7.863 0 5.103 1.549 7.863 4.729 7.863 3.178 0 4.727-2.76 4.727-7.863z"/><linearGradient id="g" gradientUnits="userSpaceOnUse" x1="3760.213" y1="886.646" x2="3787.734" y2="886.646" gradientTransform="rotate(90 2697.737 -962.777)"><stop offset="0" stop-color="#fff"/><stop offset=".545" stop-color="#eee"/><stop offset="1" stop-color="#e6e6e6"/></linearGradient><path fill="url(#g)" d="M837.543 113.46c0-8.166 3.932-13.761 10.771-13.761s10.771 5.595 10.771 13.761-3.936 13.76-10.771 13.76c-6.839.001-10.771-5.595-10.771-13.76zm15.502 0c0-5.104-1.557-7.863-4.729-7.863-3.18 0-4.729 2.76-4.729 7.863 0 5.103 1.549 7.863 4.729 7.863 3.173 0 4.729-2.76 4.729-7.863z"/><linearGradient id="h" gradientUnits="userSpaceOnUse" x1="3756.963" y1="858.975" x2="3790.986" y2="858.975" gradientTransform="rotate(90 2697.737 -962.777)"><stop offset="0" stop-color="#fff"/><stop offset=".545" stop-color="#eee"/><stop offset="1" stop-color="#e6e6e6"/></linearGradient><path fill="url(#h)" d="M877.842 127.145v3.327h-2.646v-3.289c-4.271-.302-7.447-2.495-8.809-6.124l5.215-3.022c.795 1.813 1.893 2.873 3.594 3.175v-5.216c-.15-.076-.342-.114-.492-.189-3.289-1.323-7.221-3.175-7.221-8.241 0-4.915 3.705-7.447 7.713-7.825v-3.29h2.646v3.363c3.252.416 5.975 2.155 7.443 5.482l-5.105 2.986c-.488-1.323-1.248-2.08-2.346-2.457v5.104c3.289 1.399 7.75 2.646 7.75 8.166.008 4.723-3.242 7.521-7.742 8.05zm-2.648-17.465v-3.969c-1.098.265-1.664.981-1.664 1.89 0 .717.34 1.322 1.664 2.079zm4.349 9.488c0-.945-.564-1.512-1.701-2.079v4.044c1.285-.34 1.701-1.172 1.701-1.965z"/><linearGradient id="i" gradientUnits="userSpaceOnUse" x1="2719.975" y1="1173.388" x2="3103.631" y2="1173.388" gradientTransform="matrix(-1 0 0 1 3667.325 -1084.871)"><stop offset="0" stop-color="#a14b8a"/><stop offset="1" stop-color="#a14b8a" stop-opacity="0"/></linearGradient><path fill="url(#i)" d="M571.778 49.894H947.35l-383.656 77.245v-69.16a8.084 8.084 0 0 1 8.084-8.085z"/><linearGradient id="j" gradientUnits="userSpaceOnUse" x1="3436.769" y1="830.92" x2="3509.601" y2="830.92" gradientTransform="rotate(90 2400.399 -952.196)"><stop offset="0" stop-color="#fff"/><stop offset="1" stop-color="#fff" stop-opacity="0"/></linearGradient><path fill="url(#j)" d="M591.323 157.005c.008-4.392.014-9.897-.01-13.147-.012-1.816.604-3.366 1.797-4.707 1.27-1.424 2.838-2.428 4.537-3.242 3.771-1.81 7.803-2.667 11.918-3.204a.39.39 0 0 1 .352.109c1.934 1.82 3.865 3.637 5.811 5.447.146.139.135.21-.002.346-.941.931-1.869 1.873-2.813 2.803-.297.293-.432.619-.344 1.031.105.298.256.562.574.677-.043.108.057.146.109.199.305.311.613.616.924.925l.729.726c.285.192.313.443.229.763-.107.391-.162.792-.24 1.188-.041.05-.039.108-.037.168-.09.407-.186.811-.27 1.219-.605 2.887-1.209 5.775-1.811 8.665-.002.015-.008.023-.014.036h2.012c.002-.021 0-.036.008-.063.438-2.02.854-4.044 1.271-6.066l.58-2.781c.018-.192.158-.358.117-.563l.381-1.852c.059-.276.16-.544.121-.834a.746.746 0 0 0-.219-.522c-.23-.25-.459-.504-.729-.714-.182-.2-.342-.422-.586-.557-.168-.298-.453-.486-.68-.729-.105-.107-.105-.166.002-.269.713-.706 1.422-1.415 2.125-2.128.047-.046.084-.068.123-.074.035.005.074.027.119.074.707.713 1.416 1.422 2.131 2.128.102.103.102.161 0 .269-.23.241-.518.431-.686.729-.24.135-.398.355-.584.557-.271.21-.498.465-.729.714a.748.748 0 0 0-.219.522c-.039.29.063.558.121.834l.381 1.852c-.041.204.1.37.117.563l.578 2.781c.426 2.021.844 4.047 1.273 6.066.004.026.004.041.008.063h2.008c-.002-.013-.008-.021-.012-.036-.592-2.89-1.199-5.777-1.803-8.665-.088-.408-.188-.812-.273-1.219.002-.06.006-.119-.035-.168-.078-.397-.133-.799-.238-1.188-.09-.319-.064-.569.225-.763.242-.242.484-.484.729-.726.313-.309.619-.614.93-.925.053-.054.146-.091.104-.199.318-.116.469-.379.572-.677.088-.412-.045-.738-.344-1.031-.939-.93-1.867-1.873-2.809-2.803-.139-.135-.152-.207-.002-.346 1.939-1.811 3.877-3.627 5.809-5.447a.378.378 0 0 1 .35-.109c4.113.537 8.146 1.395 11.916 3.204 1.699.814 3.271 1.818 4.539 3.242 1.191 1.341 1.809 2.891 1.795 4.707-.021 4.352-.01 8.702-.002 13.054 0 .037-.004.063-.006.095h1.967v-13.39a8.24 8.24 0 0 0-.145-1.584c-.402-2.081-1.521-3.736-3.066-5.135-1.727-1.565-3.752-2.646-5.895-3.507-3.473-1.394-7.102-2.157-10.793-2.626-.229-.029-.314-.083-.311-.334.02-1.294.01-2.59.002-3.885a.5.5 0 0 1 .166-.386c.98-.95 1.855-1.986 2.625-3.114.232-.314.463-.631.646-.98.338-.487.639-1 .896-1.534.445-.708.791-1.467 1.105-2.241.068-.162.145-.321.213-.483.924-2.272 1.59-4.614 1.746-7.072.121-1.926.02-3.854.02-5.781 0-.169.039-.271.18-.372a40.11 40.11 0 0 0 2.195-1.72c1.113-.935 2.227-1.875 3.107-3.044.303-.401.42-.844.311-1.339-.096-.432-.395-.724-.686-1.033-2.111-2.271-3.719-4.837-4.521-7.856-.219-.817-.754-1.26-1.539-1.438-.402-.093-.82-.141-1.234-.206-4.125-.652-8.08-1.871-11.904-3.532a2.737 2.737 0 0 0-1.035-.235v-.004l-.02.002-.021-.002v.004a2.864 2.864 0 0 0-1.037.235c-3.818 1.662-7.775 2.88-11.898 3.532-.414.065-.832.113-1.238.206-.787.178-1.322.62-1.541 1.438-.805 3.02-2.41 5.585-4.521 7.856-.281.31-.59.602-.688 1.033-.107.495.008.938.313 1.339.889 1.169 1.992 2.109 3.104 3.044a41.318 41.318 0 0 0 2.201 1.72c.137.101.176.203.176.372.002 1.928-.098 3.855.023 5.781.154 2.458.82 4.8 1.746 7.072.064.162.141.321.213.483.311.774.652 1.533 1.102 2.241.264.534.564 1.046.9 1.534.182.351.414.666.646.98a20.327 20.327 0 0 0 2.621 3.114.47.47 0 0 1 .168.386 193.5 193.5 0 0 0 .004 3.885c.002.251-.084.305-.311.334-3.695.47-7.322 1.232-10.791 2.626-2.146.862-4.172 1.941-5.898 3.507-1.543 1.397-2.664 3.054-3.063 5.135a8.086 8.086 0 0 0-.146 1.584v13.39l1.978-.002zm31.599-25.241c-1.83 1.71-3.656 3.424-5.479 5.143-.061.057-.105.079-.148.085-.043-.006-.09-.028-.146-.085-1.82-1.719-3.646-3.433-5.477-5.143a.382.382 0 0 1-.141-.313c.008-.541.002-1.08.002-1.621 0-.56.006-1.117 0-1.677-.004-.191.033-.233.211-.122.355.22.717.437 1.09.626 1.414.723 2.896 1.123 4.441 1.126v.003l.02-.001.021.001v-.003c1.547-.003 3.023-.404 4.439-1.126.373-.189.73-.406 1.088-.626.178-.111.213-.069.211.122-.006.56-.002 1.117-.002 1.677 0 .541-.002 1.08.002 1.621a.368.368 0 0 1-.132.313zm-20.048-32.057c-.492.155-.723.485-.725 1.004v1.464c-.055 0-.074.007-.086 0-1.232-.978-2.463-1.96-3.518-3.142-.145-.159-.078-.236.035-.359 2.236-2.445 3.938-5.204 4.838-8.417.037-.138.1-.191.24-.213.697-.104 1.396-.208 2.096-.338a51.697 51.697 0 0 0 11.203-3.462c.105-.046.219-.074.334-.083.105.01.219.032.334.083a51.876 51.876 0 0 0 11.203 3.462c.695.13 1.396.233 2.096.338.145.021.203.075.24.213.898 3.214 2.598 5.972 4.838 8.417.113.123.178.2.035.359-1.055 1.182-2.281 2.164-3.518 3.142-.012.008-.035 0-.088 0 0-.488.002-.976 0-1.464-.002-.519-.227-.849-.721-1.004a51.785 51.785 0 0 0-6.605-1.634c-.053-.011-.109.001-.166.002a9.942 9.942 0 0 0-2.021-.298c-.188-.014-.361-.124-.561-.062-.02-.015-.045-.04-.064-.042-.809-.082-1.607-.181-2.42-.191-.383-.058-.771-.056-1.154-.049-.469-.045-.938-.049-1.406-.045h-.039c-.473-.004-.938 0-1.41.045-.385-.006-.771-.009-1.148.049-.814.011-1.615.109-2.42.191-.023.003-.045.028-.068.042-.195-.063-.371.048-.557.062a9.95 9.95 0 0 0-2.025.298c-.055-.001-.113-.013-.166-.002a51.395 51.395 0 0 0-6.604 1.634h-.002zm1.285 1.707c.174-.189.541-.204.824-.287 1.1-.321 2.215-.57 3.328-.838.361-.001.697-.153 1.055-.198.113-.013.242.018.35-.065l1.061-.183.898-.116c.109-.002.229.04.332-.052.375-.029.752-.042 1.113-.145.24.011.48-.003.715-.058.396.021.795-.033 1.188-.053l.496-.03c.316-.02.641.048.953-.056.27.022.535.023.803.014h.041c.271.01.535.009.801-.014.313.104.643.036.955.056l.496.03c.396.021.793.073 1.189.053.23.054.473.067.713.058.363.104.742.115 1.117.145.102.092.217.05.332.052l.896.116 1.063.183c.102.083.229.053.342.065.355.045.691.196 1.059.198 1.113.268 2.229.517 3.328.838.281.083.65.098.822.287.164.182.043.552.047.839.006.771.002 1.544.002 2.338-.781-.202-1.531-.407-2.289-.593a47.74 47.74 0 0 0-5.156-.961c-.09-.013-.188.004-.273.005a1.015 1.015 0 0 0-.688-.088c-.639-.136-1.287-.152-1.936-.193a43.437 43.437 0 0 0-2.818-.079h-.041a44.844 44.844 0 0 0-2.818.079c-.646.041-1.301.058-1.938.193a1.014 1.014 0 0 0-.688.088c-.092-.001-.188-.018-.277-.005a47.613 47.613 0 0 0-5.154.961c-.756.186-1.51.391-2.289.593 0-.794-.004-1.566.002-2.338.001-.289-.12-.657.044-.839zm20.279 3.859c-.352.268-.727.445-1.111.604-1.479.61-3.033.884-4.621.989a24.53 24.53 0 0 1-1.41.048 23.8 23.8 0 0 1-1.41-.048c-1.586-.105-3.145-.379-4.623-.989-.383-.159-.758-.338-1.109-.604a34.652 34.652 0 0 1 14.284 0zm-15.762 17.047c-.604-.808-1.107-1.674-1.641-2.525-.031-.156-.131-.281-.209-.414-.172-.327-.297-.679-.521-.977.023-.093-.035-.16-.068-.234a27.955 27.955 0 0 1-.867-2.087c-.604-1.668-1.049-3.376-1.211-5.148-.127-1.368-.051-2.736-.072-4.105-.004-.151.084-.187.193-.221a63.978 63.978 0 0 1 3.352-.882c.15-.036.256-.014.346.135.193.311.451.565.734.798.973.796 2.109 1.243 3.307 1.563 1.74.464 3.496.668 5.264.663v.001h.039v-.001c1.775.012 3.545-.21 5.264-.663 1.191-.318 2.336-.766 3.309-1.563.281-.231.543-.487.732-.798.092-.148.191-.171.348-.135a64.22 64.22 0 0 1 3.35.882c.113.035.201.069.197.221-.027 1.369.049 2.737-.076 4.105-.164 1.772-.604 3.479-1.213 5.148a25.48 25.48 0 0 1-.867 2.087c-.031.074-.096.142-.066.234-.229.298-.354.649-.521.977-.08.133-.174.257-.211.414-.527.852-1.035 1.718-1.635 2.525-1.23 1.658-2.633 3.14-4.412 4.224-1.219.744-2.529 1.218-3.973 1.271-.072.002-.146 0-.221 0h-.041c-.068 0-.146.002-.219 0-1.443-.053-2.752-.526-3.975-1.271-1.785-1.085-3.191-2.565-4.416-4.224z"/><linearGradient id="k" gradientUnits="userSpaceOnUse" x1="3594.091" y1="880.691" x2="3664.055" y2="880.691" gradientTransform="rotate(90 2559.055 -950.125)"><stop offset="0" stop-color="#fff" stop-opacity=".048"/><stop offset=".489" stop-color="#fff"/><stop offset="1" stop-color="#fff" stop-opacity="0"/></linearGradient><path fill="url(#k)" d="M727.565 84.911h1.348v69.964h-1.348V84.911z"/><linearGradient id="l" gradientUnits="userSpaceOnUse" x1="2649.579" y1="567.077" x2="3086.608" y2="567.077" gradientTransform="matrix(-1 0 0 1 3657.997 -516.507)"><stop offset="0" stop-color="#fff" stop-opacity=".048"/><stop offset=".489" stop-color="#fff"/><stop offset="1" stop-color="#fff" stop-opacity="0"/></linearGradient><path fill="url(#l)" d="M571.389 49.896h437.029v1.349H571.389v-1.349z"/><linearGradient id="m" gradientUnits="userSpaceOnUse" x1="2754.166" y1="-1471.638" x2="2791.318" y2="-1471.638" gradientTransform="rotate(-134.999 2182.844 -297.326)"><stop offset="0" stop-color="#4b48bf"/><stop offset="1" stop-color="#a14b8a"/></linearGradient><path fill="url(#m)" d="M945.524 104.028l20.057 7.843-40.469 15.821-20.053-7.841 40.465-15.823z"/><path opacity=".2" d="M925.292 119.781c-3.68-1.438-4.91-3.47-3.707-5.307l-9.324 3.646c1.664 1.057 1.664 2.399 0 3.457l8.434 3.297c2.705-.65 6.139-.65 8.842 0l9.324-3.646c-4.702.475-9.892-.009-13.569-1.447zm20.056-7.842c3.68 1.438 4.912 3.469 3.707 5.306l9.322-3.647c-1.66-1.057-1.66-2.398 0-3.456l-8.434-3.298c-2.707.651-6.141.651-8.844 0l-9.324 3.646c4.702-.47 9.893.012 13.573 1.449z"/><path opacity=".1" fill="#FFF" d="M925.223 127.734l-20.162-7.883 40.58-15.866-20.418 23.749z"/><linearGradient id="n" gradientUnits="userSpaceOnUse" x1="2849.028" y1="-1770.809" x2="2867.584" y2="-1770.809" gradientTransform="rotate(-134.999 2287.565 -429.198)"><stop offset="0" stop-color="#4b48bf"/><stop offset="1" stop-color="#a14b8a"/></linearGradient><ellipse fill="url(#n)" cx="935.319" cy="115.862" rx="12.215" ry="4.776"/><path opacity=".2" d="M945.524 104.028l20.057 7.842-40.467 15.821-20.053-7.84 40.463-15.823z"/><linearGradient id="o" gradientUnits="userSpaceOnUse" x1="2755.666" y1="-1470.139" x2="2792.818" y2="-1470.139" gradientTransform="rotate(-134.999 2182.844 -297.326)"><stop offset="0" stop-color="#4b48bf"/><stop offset="1" stop-color="#a14b8a"/></linearGradient><path fill="url(#o)" d="M945.524 101.91l20.057 7.841-40.469 15.822-20.053-7.842 40.465-15.821z"/><path opacity=".2" d="M925.292 117.662c-3.68-1.439-4.91-3.47-3.707-5.306l-9.324 3.646c1.664 1.057 1.664 2.398 0 3.456l8.434 3.297c2.705-.65 6.139-.65 8.842 0l9.324-3.646c-4.702.474-9.892-.01-13.569-1.447zm20.056-7.843c3.68 1.438 4.912 3.469 3.707 5.306l9.322-3.647c-1.66-1.057-1.66-2.398 0-3.456l-8.434-3.298c-2.707.651-6.141.651-8.844 0l-9.324 3.646c4.702-.471 9.893.012 13.573 1.449z"/><path opacity=".1" fill="#FFF" d="M925.223 125.615l-20.162-7.884 40.58-15.865-20.418 23.749z"/><linearGradient id="p" gradientUnits="userSpaceOnUse" x1="2850.525" y1="-1769.31" x2="2869.08" y2="-1769.31" gradientTransform="rotate(-134.999 2287.565 -429.198)"><stop offset="0" stop-color="#4b48bf"/><stop offset="1" stop-color="#a14b8a"/></linearGradient><ellipse fill="url(#p)" cx="935.319" cy="113.741" rx="12.215" ry="4.776"/><path opacity=".2" d="M945.524 101.909l20.057 7.841-40.467 15.822-20.053-7.841 40.463-15.822z"/><linearGradient id="q" gradientUnits="userSpaceOnUse" x1="2757.164" y1="-1468.64" x2="2794.316" y2="-1468.64" gradientTransform="rotate(-134.999 2182.844 -297.326)"><stop offset="0" stop-color="#4b48bf"/><stop offset="1" stop-color="#a14b8a"/></linearGradient><path fill="url(#q)" d="M945.524 99.79l20.057 7.841-40.469 15.822-20.053-7.842 40.465-15.821z"/><path opacity=".2" d="M925.292 115.542c-3.68-1.439-4.91-3.469-3.707-5.306l-9.324 3.646c1.664 1.057 1.664 2.4 0 3.457l8.434 3.297c2.705-.649 6.139-.649 8.842 0l9.324-3.646c-4.702.471-9.892-.011-13.569-1.448zm20.056-7.842c3.68 1.438 4.912 3.468 3.707 5.305l9.322-3.646c-1.66-1.057-1.66-2.399 0-3.456l-8.434-3.298c-2.707.651-6.141.651-8.844 0l-9.324 3.646c4.702-.472 9.893.013 13.573 1.449z"/><path opacity=".1" fill="#FFF" d="M925.223 123.495l-20.162-7.884 40.58-15.865-20.418 23.749z"/><linearGradient id="r" gradientUnits="userSpaceOnUse" x1="2852.027" y1="-1767.812" x2="2870.582" y2="-1767.812" gradientTransform="rotate(-134.999 2287.565 -429.198)"><stop offset="0" stop-color="#4b48bf"/><stop offset="1" stop-color="#a14b8a"/></linearGradient><ellipse fill="url(#r)" cx="935.319" cy="111.622" rx="12.215" ry="4.776"/><path opacity=".2" d="M945.524 99.789l20.057 7.841-40.467 15.822-20.053-7.841 40.463-15.822z"/><linearGradient id="s" gradientUnits="userSpaceOnUse" x1="2758.662" y1="-1467.14" x2="2795.812" y2="-1467.14" gradientTransform="rotate(-134.999 2182.844 -297.326)"><stop offset="0" stop-color="#4b48bf"/><stop offset="1" stop-color="#a14b8a"/></linearGradient><path fill="url(#s)" d="M945.524 97.668l20.057 7.841-40.469 15.823-20.053-7.842 40.465-15.822z"/><path opacity=".2" d="M925.292 113.421c-3.68-1.439-4.91-3.469-3.707-5.306l-9.324 3.646c1.664 1.057 1.664 2.4 0 3.457l8.434 3.297c2.705-.648 6.139-.648 8.842 0l9.324-3.646c-4.702.472-9.892-.011-13.569-1.448zm20.056-7.84c3.68 1.437 4.912 3.468 3.707 5.305l9.322-3.646c-1.66-1.059-1.66-2.4 0-3.457l-8.434-3.298c-2.707.65-6.141.65-8.844 0l-9.324 3.646c4.702-.471 9.893.012 13.573 1.45z"/><path opacity=".1" fill="#FFF" d="M925.223 121.374l-20.162-7.883 40.58-15.865-20.418 23.748z"/><linearGradient id="t" gradientUnits="userSpaceOnUse" x1="2853.526" y1="-1766.312" x2="2872.081" y2="-1766.312" gradientTransform="rotate(-134.999 2287.565 -429.198)"><stop offset="0" stop-color="#4b48bf"/><stop offset="1" stop-color="#a14b8a"/></linearGradient><ellipse fill="url(#t)" cx="935.319" cy="109.501" rx="12.215" ry="4.776"/><path opacity=".2" d="M945.524 97.667l20.057 7.842-40.467 15.822-20.053-7.841 40.463-15.823z"/><linearGradient id="u" gradientUnits="userSpaceOnUse" x1="2760.164" y1="-1465.64" x2="2797.316" y2="-1465.64" gradientTransform="rotate(-134.999 2182.844 -297.326)"><stop offset="0" stop-color="#4b48bf"/><stop offset="1" stop-color="#a14b8a"/></linearGradient><path fill="url(#u)" d="M945.524 95.548l20.057 7.841-40.469 15.823-20.053-7.842 40.465-15.822z"/><path opacity=".2" d="M925.292 111.302c-3.68-1.439-4.91-3.468-3.707-5.306l-9.324 3.646c1.664 1.058 1.664 2.4 0 3.457l8.434 3.297c2.705-.649 6.139-.649 8.842 0l9.324-3.646c-4.702.472-9.892-.012-13.569-1.448zm20.056-7.843c3.68 1.437 4.912 3.468 3.707 5.305l9.322-3.646c-1.66-1.058-1.66-2.4 0-3.457l-8.434-3.297c-2.707.649-6.141.649-8.844 0l-9.324 3.646c4.702-.47 9.893.012 13.573 1.449z"/><path opacity=".1" fill="#FFF" d="M925.223 119.253l-20.162-7.883 40.58-15.865-20.418 23.748z"/><linearGradient id="v" gradientUnits="userSpaceOnUse" x1="2855.022" y1="-1764.813" x2="2873.577" y2="-1764.813" gradientTransform="rotate(-134.999 2287.565 -429.198)"><stop offset="0" stop-color="#4b48bf"/><stop offset="1" stop-color="#a14b8a"/></linearGradient><ellipse fill="url(#v)" cx="935.319" cy="107.382" rx="12.215" ry="4.776"/><path opacity=".2" d="M945.524 95.548l20.057 7.841-40.467 15.821-20.053-7.84 40.463-15.822z"/><linearGradient id="w" gradientUnits="userSpaceOnUse" x1="2761.735" y1="-1464.142" x2="2798.887" y2="-1464.142" gradientTransform="rotate(-134.999 2182.844 -297.326)"><stop offset="0" stop-color="#4b48bf"/><stop offset="1" stop-color="#a14b8a"/></linearGradient><path fill="url(#w)" d="M945.524 93.429l20.057 7.842-40.469 15.822-20.053-7.842 40.465-15.822z"/><path opacity=".2" d="M925.292 109.182c-3.68-1.438-4.91-3.468-3.707-5.305l-9.324 3.646c1.664 1.058 1.664 2.399 0 3.456l8.434 3.297c2.705-.649 6.139-.649 8.842 0l9.324-3.646c-4.702.472-9.892-.011-13.569-1.448zm20.056-7.843c3.68 1.438 4.912 3.468 3.707 5.305l9.322-3.646c-1.66-1.059-1.66-2.4 0-3.457l-8.434-3.297c-2.707.649-6.141.649-8.844 0l-9.324 3.646c4.702-.472 9.893.012 13.573 1.449z"/><path opacity=".1" fill="#FFF" d="M925.223 117.134l-20.162-7.883 40.58-15.865-20.418 23.748z"/><linearGradient id="x" gradientUnits="userSpaceOnUse" x1="2856.524" y1="-1763.313" x2="2875.079" y2="-1763.313" gradientTransform="rotate(-134.999 2287.565 -429.198)"><stop offset="0" stop-color="#4b48bf"/><stop offset="1" stop-color="#a14b8a"/></linearGradient><ellipse fill="url(#x)" cx="935.319" cy="105.26" rx="12.215" ry="4.776"/><path opacity=".2" d="M945.524 93.429l20.057 7.841-40.467 15.821-20.053-7.84 40.463-15.822z"/><linearGradient id="y" gradientUnits="userSpaceOnUse" x1="2763.161" y1="-1462.643" x2="2800.313" y2="-1462.643" gradientTransform="rotate(-134.999 2182.844 -297.326)"><stop offset="0" stop-color="#4b48bf"/><stop offset="1" stop-color="#a14b8a"/></linearGradient><path fill="url(#y)" d="M945.524 91.309l20.057 7.841-40.469 15.823-20.053-7.842 40.465-15.822z"/><path opacity=".2" d="M925.292 107.062c-3.68-1.438-4.91-3.468-3.707-5.305l-9.324 3.646c1.664 1.058 1.664 2.4 0 3.456l8.434 3.298c2.705-.649 6.139-.649 8.842 0l9.324-3.646c-4.702.47-9.892-.012-13.569-1.449zm20.056-7.842c3.68 1.438 4.912 3.468 3.707 5.305l9.322-3.646c-1.66-1.057-1.66-2.4 0-3.456l-8.434-3.298c-2.707.65-6.141.65-8.844 0l-9.324 3.646c4.702-.473 9.893.012 13.573 1.449z"/><path opacity=".1" fill="#FFF" d="M925.223 115.014l-20.162-7.883 40.58-15.865-20.418 23.748z"/><linearGradient id="z" gradientUnits="userSpaceOnUse" x1="2858.023" y1="-1761.814" x2="2876.578" y2="-1761.814" gradientTransform="rotate(-134.999 2287.565 -429.198)"><stop offset="0" stop-color="#4b48bf"/><stop offset="1" stop-color="#a14b8a"/></linearGradient><ellipse fill="url(#z)" cx="935.319" cy="103.14" rx="12.215" ry="4.776"/><path opacity=".2" d="M945.524 91.308l20.057 7.842-40.467 15.821-20.053-7.84 40.463-15.823z"/><linearGradient id="A" gradientUnits="userSpaceOnUse" x1="2764.66" y1="-1461.143" x2="2801.812" y2="-1461.143" gradientTransform="rotate(-134.999 2182.844 -297.326)"><stop offset="0" stop-color="#4b48bf"/><stop offset="1" stop-color="#a14b8a"/></linearGradient><path fill="url(#A)" d="M945.524 89.188l20.057 7.841-40.469 15.823-20.053-7.842 40.465-15.822z"/><path opacity=".2" d="M925.292 104.941c-3.68-1.438-4.91-3.469-3.707-5.306l-9.324 3.646c1.664 1.057 1.664 2.399 0 3.457l8.434 3.297c2.705-.649 6.139-.649 8.842 0l9.324-3.646c-4.702.472-9.892-.011-13.569-1.448zm20.056-7.84c3.68 1.438 4.912 3.468 3.707 5.305l9.322-3.646c-1.66-1.057-1.66-2.399 0-3.456l-8.434-3.298c-2.707.651-6.141.651-8.844 0l-9.324 3.646c4.702-.472 9.893.011 13.573 1.449z"/><path opacity=".1" fill="#FFF" d="M925.223 112.894l-20.162-7.883 40.58-15.865-20.418 23.748z"/><linearGradient id="B" gradientUnits="userSpaceOnUse" x1="2859.521" y1="-1760.315" x2="2878.077" y2="-1760.315" gradientTransform="rotate(-134.999 2287.565 -429.198)"><stop offset="0" stop-color="#4b48bf"/><stop offset="1" stop-color="#a14b8a"/></linearGradient><ellipse fill="url(#B)" cx="935.319" cy="101.021" rx="12.215" ry="4.776"/><path opacity=".2" d="M945.524 89.188l20.057 7.843-40.467 15.821-20.053-7.841 40.463-15.823z"/><linearGradient id="C" gradientUnits="userSpaceOnUse" x1="2766.16" y1="-1459.644" x2="2803.312" y2="-1459.644" gradientTransform="rotate(-134.999 2182.844 -297.326)"><stop offset="0" stop-color="#4b48bf"/><stop offset="1" stop-color="#a14b8a"/></linearGradient><path fill="url(#C)" d="M945.524 87.068l20.057 7.842-40.469 15.821-20.053-7.841 40.465-15.822z"/><path opacity=".2" d="M925.292 102.821c-3.68-1.438-4.91-3.469-3.707-5.306l-9.324 3.646c1.664 1.057 1.664 2.399 0 3.456l8.434 3.297c2.705-.65 6.139-.65 8.842 0l9.324-3.646c-4.702.474-9.892-.011-13.569-1.447zm20.056-7.842c3.68 1.438 4.912 3.469 3.707 5.306l9.322-3.646c-1.66-1.057-1.66-2.4 0-3.456l-8.434-3.298c-2.707.651-6.141.651-8.844 0l-9.324 3.646c4.702-.472 9.893.011 13.573 1.448z"/><path opacity=".1" fill="#FFF" d="M925.223 110.773l-20.162-7.883 40.58-15.866-20.418 23.749z"/><linearGradient id="D" gradientUnits="userSpaceOnUse" x1="2861.021" y1="-1758.816" x2="2879.575" y2="-1758.816" gradientTransform="rotate(-134.999 2287.565 -429.198)"><stop offset="0" stop-color="#4b48bf"/><stop offset="1" stop-color="#a14b8a"/></linearGradient><ellipse fill="url(#D)" cx="935.319" cy="98.901" rx="12.215" ry="4.776"/><path opacity=".2" d="M945.524 87.067l20.057 7.843-40.467 15.82-20.053-7.84 40.463-15.823z"/><linearGradient id="E" gradientUnits="userSpaceOnUse" x1="2767.659" y1="-1458.145" x2="2804.811" y2="-1458.145" gradientTransform="rotate(-134.999 2182.844 -297.326)"><stop offset="0" stop-color="#4b48bf"/><stop offset="1" stop-color="#a14b8a"/></linearGradient><path fill="url(#E)" d="M945.524 84.948l20.057 7.841-40.469 15.822-20.053-7.842 40.465-15.821z"/><path opacity=".2" d="M925.292 100.702c-3.68-1.439-4.91-3.47-3.707-5.307l-9.324 3.646c1.664 1.057 1.664 2.399 0 3.456l8.434 3.297c2.705-.649 6.139-.649 8.842 0l9.324-3.646c-4.702.474-9.892-.01-13.569-1.446zm20.056-7.843c3.68 1.438 4.912 3.469 3.707 5.306l9.322-3.646c-1.66-1.057-1.66-2.399 0-3.456l-8.434-3.298c-2.707.651-6.141.651-8.844 0l-9.324 3.646c4.702-.473 9.893.011 13.573 1.448z"/><path opacity=".1" fill="#FFF" d="M925.223 108.653l-20.162-7.883 40.58-15.866-20.418 23.749z"/><linearGradient id="F" gradientUnits="userSpaceOnUse" x1="2862.519" y1="-1757.317" x2="2881.074" y2="-1757.317" gradientTransform="rotate(-134.999 2287.565 -429.198)"><stop offset="0" stop-color="#4b48bf"/><stop offset="1" stop-color="#a14b8a"/></linearGradient><ellipse fill="url(#F)" cx="935.319" cy="96.781" rx="12.215" ry="4.776"/><path opacity=".2" d="M945.524 84.948l20.057 7.842-40.467 15.82-20.053-7.84 40.463-15.822z"/><linearGradient id="G" gradientUnits="userSpaceOnUse" x1="2769.158" y1="-1456.647" x2="2806.31" y2="-1456.647" gradientTransform="rotate(-134.999 2182.844 -297.326)"><stop offset="0" stop-color="#4b48bf"/><stop offset="1" stop-color="#a14b8a"/></linearGradient><path fill="url(#G)" d="M945.524 82.829l20.057 7.841-40.469 15.823-20.053-7.843 40.465-15.821z"/><path opacity=".2" d="M925.292 98.582c-3.68-1.439-4.91-3.47-3.707-5.306l-9.324 3.646c1.664 1.057 1.664 2.4 0 3.457l8.434 3.297c2.705-.649 6.139-.649 8.842 0l9.324-3.646c-4.702.47-9.892-.011-13.569-1.448zm20.056-7.842c3.68 1.438 4.912 3.468 3.707 5.305l9.322-3.646c-1.66-1.057-1.66-2.398 0-3.456l-8.434-3.298c-2.707.651-6.141.651-8.844 0l-9.324 3.646c4.702-.473 9.893.012 13.573 1.449z"/><path opacity=".1" fill="#FFF" d="M925.223 106.534l-20.162-7.884 40.58-15.865-20.418 23.749z"/><linearGradient id="H" gradientUnits="userSpaceOnUse" x1="2864.017" y1="-1755.818" x2="2882.572" y2="-1755.818" gradientTransform="rotate(-134.999 2287.565 -429.198)"><stop offset="0" stop-color="#4b48bf"/><stop offset="1" stop-color="#a14b8a"/></linearGradient><ellipse fill="url(#H)" cx="935.319" cy="94.661" rx="12.215" ry="4.776"/><linearGradient id="I" gradientUnits="userSpaceOnUse" x1="2721.294" y1="-1477.881" x2="2777.67" y2="-1477.881" gradientTransform="rotate(-134.999 2182.844 -297.326)"><stop offset="0" stop-color="#4b48bf"/><stop offset="1" stop-color="#a14b8a"/></linearGradient><path fill="url(#I)" d="M962.836 118.771l30.436 11.898-61.408 24.008-30.428-11.898 61.4-24.008z"/><path opacity=".2" d="M932.135 142.672c-5.578-2.183-7.451-5.263-5.623-8.05l-14.15 5.531c2.523 1.604 2.523 3.643 0 5.245l12.795 5.003c4.105-.985 9.314-.985 13.416 0l14.15-5.531c-7.127.716-15.008-.016-20.588-2.198zm30.43-11.898c5.582 2.182 7.451 5.263 5.623 8.05l14.146-5.533c-2.52-1.604-2.52-3.642 0-5.244l-12.795-5.004c-4.104.986-9.313.986-13.416 0l-14.148 5.532c7.129-.715 15.01.019 20.59 2.199z"/><path opacity=".1" fill="#FFF" d="M932.026 154.74l-30.592-11.962 61.576-24.073-30.984 36.035z"/><linearGradient id="J" gradientUnits="userSpaceOnUse" x1="2820.966" y1="-1777.053" x2="2849.119" y2="-1777.053" gradientTransform="rotate(-134.999 2287.565 -429.198)"><stop offset="0" stop-color="#4b48bf"/><stop offset="1" stop-color="#a14b8a"/></linearGradient><ellipse fill="url(#J)" cx="947.352" cy="136.725" rx="18.535" ry="7.247"/><path opacity=".2" d="M962.836 118.77l30.436 11.898-61.404 24.007-30.432-11.896 61.4-24.009z"/><linearGradient id="K" gradientUnits="userSpaceOnUse" x1="2723.569" y1="-1475.606" x2="2779.944" y2="-1475.606" gradientTransform="rotate(-134.999 2182.844 -297.326)"><stop offset="0" stop-color="#4b48bf"/><stop offset="1" stop-color="#a14b8a"/></linearGradient><path fill="url(#K)" d="M962.836 115.554l30.436 11.898-61.408 24.008-30.428-11.898 61.4-24.008z"/><path opacity=".2" d="M932.135 139.457c-5.578-2.184-7.451-5.264-5.623-8.05l-14.15 5.531c2.523 1.604 2.523 3.643 0 5.245l12.795 5.003c4.105-.985 9.314-.985 13.416 0l14.15-5.531c-7.127.715-15.008-.018-20.588-2.198zm30.43-11.899c5.582 2.182 7.451 5.262 5.623 8.049l14.146-5.532c-2.52-1.604-2.52-3.642 0-5.244l-12.795-5.004c-4.104.986-9.313.986-13.416 0l-14.148 5.531c7.129-.714 15.01.018 20.59 2.2z"/><path opacity=".1" fill="#FFF" d="M932.026 151.522l-30.592-11.961 61.576-24.074-30.984 36.035z"/><linearGradient id="L" gradientUnits="userSpaceOnUse" x1="2823.244" y1="-1774.778" x2="2851.396" y2="-1774.778" gradientTransform="rotate(-134.999 2287.565 -429.198)"><stop offset="0" stop-color="#4b48bf"/><stop offset="1" stop-color="#a14b8a"/></linearGradient><ellipse fill="url(#L)" cx="947.352" cy="133.508" rx="18.535" ry="7.247"/><path opacity=".2" d="M962.836 115.553l30.436 11.898-61.404 24.007-30.43-11.896 61.398-24.009z"/><linearGradient id="M" gradientUnits="userSpaceOnUse" x1="2725.842" y1="-1473.331" x2="2782.217" y2="-1473.331" gradientTransform="rotate(-134.999 2182.844 -297.326)"><stop offset="0" stop-color="#4b48bf"/><stop offset="1" stop-color="#a14b8a"/></linearGradient><path fill="url(#M)" d="M962.836 112.336l30.436 11.897-61.408 24.01-30.428-11.899 61.4-24.008z"/><path opacity=".2" d="M932.135 136.24c-5.578-2.184-7.451-5.264-5.623-8.051l-14.15 5.532c2.523 1.604 2.523 3.642 0 5.245l12.795 5.003c4.105-.986 9.314-.986 13.416 0l14.15-5.532c-7.127.715-15.008-.018-20.588-2.197zm30.43-11.9c5.582 2.181 7.451 5.262 5.623 8.049l14.146-5.533c-2.52-1.604-2.52-3.641 0-5.244l-12.795-5.004c-4.104.987-9.313.987-13.416 0l-14.148 5.532c7.129-.713 15.01.021 20.59 2.2z"/><path opacity=".1" fill="#FFF" d="M932.026 148.307l-30.592-11.962 61.576-24.074-30.984 36.036z"/><linearGradient id="N" gradientUnits="userSpaceOnUse" x1="2825.512" y1="-1772.504" x2="2853.666" y2="-1772.504" gradientTransform="rotate(-134.999 2287.565 -429.198)"><stop offset="0" stop-color="#4b48bf"/><stop offset="1" stop-color="#a14b8a"/></linearGradient><ellipse fill="url(#N)" cx="947.352" cy="130.292" rx="18.535" ry="7.247"/><path opacity=".2" d="M962.836 112.335l30.436 11.897-61.404 24.009-30.43-11.897 61.398-24.009z"/><linearGradient id="O" gradientUnits="userSpaceOnUse" x1="2728.12" y1="-1471.056" x2="2784.495" y2="-1471.056" gradientTransform="rotate(-134.999 2182.844 -297.326)"><stop offset="0" stop-color="#4b48bf"/><stop offset="1" stop-color="#a14b8a"/></linearGradient><path fill="url(#O)" d="M962.836 109.12l30.436 11.897-61.408 24.008-30.428-11.897 61.4-24.008z"/><path opacity=".2" d="M932.135 133.021c-5.578-2.183-7.451-5.263-5.623-8.05l-14.15 5.532c2.523 1.604 2.523 3.642 0 5.245l12.795 5.003c4.105-.986 9.314-.986 13.416 0l14.15-5.532c-7.127.717-15.008-.016-20.588-2.198zm30.43-11.897c5.582 2.181 7.451 5.262 5.623 8.049l14.146-5.533c-2.52-1.604-2.52-3.641 0-5.244l-12.795-5.004c-4.104.987-9.313.987-13.416 0l-14.148 5.532c7.129-.715 15.01.018 20.59 2.2z"/><path opacity=".1" fill="#FFF" d="M932.026 145.088l-30.592-11.961 61.576-24.074-30.984 36.035z"/><linearGradient id="P" gradientUnits="userSpaceOnUse" x1="2827.791" y1="-1770.228" x2="2855.945" y2="-1770.228" gradientTransform="rotate(-134.999 2287.565 -429.198)"><stop offset="0" stop-color="#4b48bf"/><stop offset="1" stop-color="#a14b8a"/></linearGradient><ellipse fill="url(#P)" cx="947.352" cy="127.073" rx="18.535" ry="7.247"/><path opacity=".2" d="M962.836 109.119l30.436 11.897-61.404 24.007-30.43-11.896 61.398-24.008z"/><linearGradient id="Q" gradientUnits="userSpaceOnUse" x1="2730.392" y1="-1468.781" x2="2786.768" y2="-1468.781" gradientTransform="rotate(-134.999 2182.844 -297.326)"><stop offset="0" stop-color="#4b48bf"/><stop offset="1" stop-color="#a14b8a"/></linearGradient><path fill="url(#Q)" d="M962.836 105.902l30.436 11.898-61.408 24.009-30.428-11.898 61.4-24.009z"/><path opacity=".2" d="M932.135 129.806c-5.578-2.183-7.451-5.263-5.623-8.05l-14.15 5.532c2.523 1.604 2.523 3.642 0 5.245l12.795 5.003c4.105-.986 9.314-.986 13.416 0l14.15-5.532c-7.127.715-15.008-.019-20.588-2.198zm30.43-11.9c5.582 2.181 7.451 5.262 5.623 8.049l14.146-5.533c-2.52-1.604-2.52-3.641 0-5.244l-12.795-5.004c-4.104.987-9.313.987-13.416 0l-14.148 5.532c7.129-.713 15.01.021 20.59 2.2z"/><path opacity=".1" fill="#FFF" d="M932.026 141.873l-30.592-11.962 61.576-24.074-30.984 36.036z"/><linearGradient id="R" gradientUnits="userSpaceOnUse" x1="2830.068" y1="-1767.953" x2="2858.221" y2="-1767.953" gradientTransform="rotate(-134.999 2287.565 -429.198)"><stop offset="0" stop-color="#4b48bf"/><stop offset="1" stop-color="#a14b8a"/></linearGradient><ellipse fill="url(#R)" cx="947.352" cy="123.856" rx="18.535" ry="7.247"/><path opacity=".2" d="M962.836 105.901l30.436 11.898-61.404 24.008-30.43-11.896 61.398-24.01z"/><linearGradient id="S" gradientUnits="userSpaceOnUse" x1="2732.666" y1="-1466.507" x2="2789.041" y2="-1466.507" gradientTransform="rotate(-134.999 2182.844 -297.326)"><stop offset="0" stop-color="#4b48bf"/><stop offset="1" stop-color="#a14b8a"/></linearGradient><path fill="url(#S)" d="M962.836 102.687l30.436 11.897-61.408 24.009-30.428-11.899 61.4-24.007z"/><path opacity=".2" d="M932.135 126.588c-5.578-2.183-7.451-5.263-5.623-8.05l-14.15 5.531c2.523 1.604 2.523 3.643 0 5.245l12.795 5.003c4.105-.985 9.314-.985 13.416 0l14.15-5.531c-7.127.715-15.008-.016-20.588-2.198zm30.43-11.899c5.582 2.182 7.451 5.263 5.623 8.05l14.146-5.533c-2.52-1.604-2.52-3.642 0-5.244l-12.795-5.004c-4.104.986-9.313.986-13.416 0l-14.148 5.532c7.129-.715 15.01.02 20.59 2.199z"/><path opacity=".1" fill="#FFF" d="M932.026 138.656l-30.592-11.963 61.576-24.072-30.984 36.035z"/><linearGradient id="T" gradientUnits="userSpaceOnUse" x1="2832.338" y1="-1765.68" x2="2860.491" y2="-1765.68" gradientTransform="rotate(-134.999 2287.565 -429.198)"><stop offset="0" stop-color="#4b48bf"/><stop offset="1" stop-color="#a14b8a"/></linearGradient><ellipse fill="url(#T)" cx="947.352" cy="120.641" rx="18.535" ry="7.247"/><path opacity=".2" d="M962.836 102.686l30.436 11.897-61.404 24.008-30.43-11.897 61.398-24.008z"/><linearGradient id="U" gradientUnits="userSpaceOnUse" x1="2734.943" y1="-1464.233" x2="2791.319" y2="-1464.233" gradientTransform="rotate(-134.999 2182.844 -297.326)"><stop offset="0" stop-color="#4b48bf"/><stop offset="1" stop-color="#a14b8a"/></linearGradient><path fill="url(#U)" d="M962.836 99.469l30.436 11.899-61.408 24.007-30.428-11.898 61.4-24.008z"/><path opacity=".2" d="M932.135 123.372c-5.578-2.184-7.451-5.264-5.623-8.05l-14.15 5.531c2.523 1.604 2.523 3.643 0 5.244l12.795 5.003c4.105-.984 9.314-.984 13.416 0l14.15-5.531c-7.127.717-15.008-.017-20.588-2.197zm30.43-11.899c5.582 2.183 7.451 5.263 5.623 8.05l14.146-5.532c-2.52-1.604-2.52-3.643 0-5.244l-12.795-5.004c-4.104.986-9.313.986-13.416 0l-14.148 5.531c7.129-.715 15.01.018 20.59 2.199z"/><path opacity=".1" fill="#FFF" d="M932.026 135.438l-30.592-11.962 61.576-24.073-30.984 36.035z"/><linearGradient id="V" gradientUnits="userSpaceOnUse" x1="2834.617" y1="-1763.404" x2="2862.769" y2="-1763.404" gradientTransform="rotate(-134.999 2287.565 -429.198)"><stop offset="0" stop-color="#4b48bf"/><stop offset="1" stop-color="#a14b8a"/></linearGradient><ellipse fill="url(#V)" cx="947.352" cy="117.423" rx="18.535" ry="7.247"/><path opacity=".2" d="M962.836 99.468l30.436 11.899-61.404 24.007-30.43-11.897 61.398-24.009z"/><linearGradient id="W" gradientUnits="userSpaceOnUse" x1="2737.215" y1="-1461.958" x2="2793.592" y2="-1461.958" gradientTransform="rotate(-134.999 2182.844 -297.326)"><stop offset="0" stop-color="#4b48bf"/><stop offset="1" stop-color="#a14b8a"/></linearGradient><path fill="url(#W)" d="M962.836 96.252l30.436 11.897-61.408 24.009-30.43-11.898 61.402-24.008z"/><path opacity=".2" d="M932.135 120.154c-5.578-2.183-7.451-5.263-5.623-8.05l-14.15 5.532c2.523 1.604 2.523 3.642 0 5.245l12.795 5.003c4.105-.986 9.314-.986 13.416 0l14.15-5.532c-7.127.716-15.008-.017-20.588-2.198zm30.43-11.898c5.582 2.181 7.451 5.262 5.623 8.049l14.146-5.533c-2.52-1.604-2.52-3.641 0-5.244l-12.795-5.004c-4.104.987-9.313.987-13.416 0l-14.148 5.532c7.129-.713 15.01.02 20.59 2.2z"/><path opacity=".1" fill="#FFF" d="M932.026 132.222l-30.592-11.961 61.576-24.074-30.984 36.035z"/><linearGradient id="X" gradientUnits="userSpaceOnUse" x1="2836.89" y1="-1761.13" x2="2865.044" y2="-1761.13" gradientTransform="rotate(-134.999 2287.565 -429.198)"><stop offset="0" stop-color="#4b48bf"/><stop offset="1" stop-color="#a14b8a"/></linearGradient><ellipse fill="url(#X)" cx="947.352" cy="114.207" rx="18.535" ry="7.247"/><path opacity=".2" d="M962.836 96.251l30.436 11.897-61.404 24.008-30.43-11.896 61.398-24.009z"/><linearGradient id="Y" gradientUnits="userSpaceOnUse" x1="2739.492" y1="-1459.683" x2="2795.868" y2="-1459.683" gradientTransform="rotate(-134.999 2182.844 -297.326)"><stop offset="0" stop-color="#4b48bf"/><stop offset="1" stop-color="#a14b8a"/></linearGradient><path fill="url(#Y)" d="M962.836 93.036l30.436 11.897-61.408 24.008-30.428-11.898 61.4-24.007z"/><path opacity=".2" d="M932.135 116.938c-5.578-2.183-7.451-5.263-5.623-8.05l-14.15 5.532c2.523 1.604 2.523 3.642 0 5.245l12.795 5.003c4.105-.986 9.314-.986 13.416 0l14.15-5.532c-7.127.716-15.008-.017-20.588-2.198zm30.43-11.898c5.582 2.181 7.451 5.262 5.623 8.049l14.146-5.533c-2.52-1.604-2.52-3.641 0-5.244l-12.795-5.004c-4.104.987-9.313.987-13.416 0l-14.148 5.532c7.129-.715 15.01.018 20.59 2.2z"/><path opacity=".1" fill="#FFF" d="M932.026 129.004l-30.592-11.962 61.576-24.073-30.984 36.035z"/><linearGradient id="Z" gradientUnits="userSpaceOnUse" x1="2839.163" y1="-1758.855" x2="2867.316" y2="-1758.855" gradientTransform="rotate(-134.999 2287.565 -429.198)"><stop offset="0" stop-color="#4b48bf"/><stop offset="1" stop-color="#a14b8a"/></linearGradient><ellipse fill="url(#Z)" cx="947.352" cy="110.99" rx="18.535" ry="7.247"/><path opacity=".2" d="M962.836 93.035l30.436 11.897-61.404 24.007-30.43-11.896 61.398-24.008z"/><linearGradient id="aa" gradientUnits="userSpaceOnUse" x1="2741.768" y1="-1457.408" x2="2798.143" y2="-1457.408" gradientTransform="rotate(-134.999 2182.844 -297.326)"><stop offset="0" stop-color="#4b48bf"/><stop offset="1" stop-color="#a14b8a"/></linearGradient><path fill="url(#aa)" d="M962.836 89.818l30.436 11.898-61.408 24.008-30.428-11.897 61.4-24.009z"/><path opacity=".2" d="M932.135 113.721c-5.578-2.183-7.451-5.263-5.623-8.05l-14.15 5.532c2.523 1.604 2.523 3.642 0 5.245l12.795 5.003c4.105-.986 9.314-.986 13.416 0l14.15-5.532c-7.127.716-15.008-.018-20.588-2.198zm30.43-11.898c5.582 2.181 7.451 5.262 5.623 8.049l14.146-5.533c-2.52-1.604-2.52-3.641 0-5.244L969.54 94.09c-4.104.987-9.313.987-13.416 0l-14.148 5.532c7.128-.713 15.009.02 20.589 2.201z"/><path opacity=".1" fill="#FFF" d="M932.026 125.788l-30.592-11.961 61.576-24.074-30.984 36.035z"/><linearGradient id="ab" gradientUnits="userSpaceOnUse" x1="2841.437" y1="-1756.58" x2="2869.59" y2="-1756.58" gradientTransform="rotate(-134.999 2287.565 -429.198)"><stop offset="0" stop-color="#4b48bf"/><stop offset="1" stop-color="#a14b8a"/></linearGradient><ellipse fill="url(#ab)" cx="947.352" cy="107.772" rx="18.535" ry="7.247"/><path opacity=".2" d="M962.836 89.817l30.436 11.898-61.404 24.007-30.43-11.896 61.398-24.009z"/><linearGradient id="ac" gradientUnits="userSpaceOnUse" x1="2744.04" y1="-1455.133" x2="2800.415" y2="-1455.133" gradientTransform="rotate(-134.999 2182.844 -297.326)"><stop offset="0" stop-color="#4b48bf"/><stop offset="1" stop-color="#a14b8a"/></linearGradient><path fill="url(#ac)" d="M962.836 86.602L993.272 98.5l-61.408 24.008-30.428-11.898 61.4-24.008z"/><path opacity=".2" d="M932.135 110.503c-5.578-2.184-7.451-5.263-5.623-8.05l-14.15 5.531c2.523 1.604 2.523 3.643 0 5.245l12.795 5.003c4.105-.985 9.314-.985 13.416 0l14.15-5.531c-7.127.716-15.008-.016-20.588-2.198zm30.43-11.898c5.582 2.182 7.451 5.263 5.623 8.049l14.146-5.532c-2.52-1.604-2.52-3.642 0-5.244l-12.795-5.004c-4.104.986-9.313.986-13.416 0l-14.148 5.532c7.129-.715 15.01.018 20.59 2.199z"/><path opacity=".1" fill="#FFF" d="M932.026 122.57l-30.592-11.961 61.576-24.073-30.984 36.034z"/><linearGradient id="ad" gradientUnits="userSpaceOnUse" x1="2843.713" y1="-1754.305" x2="2871.868" y2="-1754.305" gradientTransform="rotate(-134.999 2287.565 -429.198)"><stop offset="0" stop-color="#4b48bf"/><stop offset="1" stop-color="#a14b8a"/></linearGradient><ellipse fill="url(#ad)" cx="947.352" cy="104.556" rx="18.535" ry="7.247"/><path d="M778.678 80.963h-2.396v7.082h-.588v-7.082h-2.397v-.544h5.382v.544zm5.455 1.635v5.447h-.555v-1.231c-.459.817-1.297 1.352-2.344 1.352-1.547 0-2.821-1.231-2.821-2.844s1.274-2.844 2.821-2.844c1.047 0 1.885.534 2.344 1.352v-1.231h.555zm-.554 2.724c0-1.297-1.003-2.32-2.299-2.32-1.297 0-2.311 1.023-2.311 2.32s1.014 2.32 2.311 2.32c1.296 0 2.299-1.024 2.299-2.32zm4.591-2.8v.522c-.937 0-1.818.578-1.818 1.973v3.028h-.545v-5.447h.545v1.067c.369-.86 1.078-1.143 1.818-1.143zm6.155.076v5.186c0 1.635-1.209 2.561-2.713 2.561-1.275 0-2.18-.512-2.571-1.308l.479-.272c.283.578.893 1.057 2.092 1.057 1.361 0 2.168-.795 2.168-2.037v-1.002c-.447.839-1.285 1.384-2.342 1.384-1.559 0-2.822-1.231-2.822-2.844s1.264-2.844 2.822-2.844c1.057 0 1.895.545 2.342 1.384v-1.264h.545zm-.545 2.724a2.292 2.292 0 0 0-2.31-2.32c-1.297 0-2.31 1.023-2.31 2.32s1.013 2.32 2.31 2.32a2.293 2.293 0 0 0 2.31-2.32zm7.36.021c0 .087-.011.175-.011.262h-4.936c.131 1.231 1.067 2.037 2.31 2.037.894 0 1.569-.414 1.885-.991l.479.283c-.447.741-1.297 1.231-2.375 1.231-1.678 0-2.865-1.198-2.865-2.844 0-1.602 1.154-2.844 2.821-2.844 1.657.001 2.692 1.374 2.692 2.866zm-4.946-.272h4.379c-.119-1.329-1.057-2.069-2.124-2.069-1.241-.001-2.146.86-2.255 2.069zm7.219-1.939v3.54c0 .959.512.98 1.623.883v.49c-1.428.218-2.179-.131-2.179-1.373v-3.54h-1.198v-.534h1.198v-1.362l.556-.163v1.525h1.623v.534h-1.623zm8.199-.61v.522c-.938 0-1.819.578-1.819 1.973v3.028h-.545v-5.447h.545v1.067c.37-.86 1.079-1.143 1.819-1.143zm5.914 2.821c0 .087-.012.175-.012.262h-4.936c.131 1.231 1.068 2.037 2.311 2.037.893 0 1.568-.414 1.885-.991l.479.283c-.446.741-1.296 1.231-2.375 1.231-1.678 0-2.865-1.198-2.865-2.844 0-1.602 1.155-2.844 2.822-2.844 1.656.001 2.691 1.374 2.691 2.866zm-4.947-.272h4.38c-.12-1.329-1.057-2.069-2.124-2.069-1.243-.001-2.147.86-2.256 2.069zm13.189-2.473l-1.721 5.447h-.6l-1.514-4.642-1.515 4.642h-.599l-1.723-5.447h.578l1.449 4.739 1.525-4.739h.566l1.525 4.739 1.449-4.739h.58zm6.326 0v5.447h-.557v-1.231c-.457.817-1.297 1.352-2.342 1.352-1.547 0-2.822-1.231-2.822-2.844s1.275-2.844 2.822-2.844c1.045 0 1.885.534 2.342 1.352v-1.231h.557zm-.556 2.724c0-1.297-1.002-2.32-2.299-2.32s-2.31 1.023-2.31 2.32 1.013 2.32 2.31 2.32 2.299-1.024 2.299-2.32zm4.593-2.8v.522c-.938 0-1.82.578-1.82 1.973v3.028h-.545v-5.447h.545v1.067c.371-.86 1.079-1.143 1.82-1.143zm6.119-2.103v7.626h-.544v-1.264c-.446.839-1.286 1.384-2.343 1.384-1.558 0-2.821-1.231-2.821-2.844s1.264-2.844 2.821-2.844c1.057 0 1.896.545 2.343 1.384v-3.442h.544zm-.543 4.903c0-1.297-1.013-2.32-2.31-2.32s-2.311 1.023-2.311 2.32 1.014 2.32 2.311 2.32 2.31-1.024 2.31-2.32zm10.473-2.724v5.447h-.555v-1.231c-.458.817-1.297 1.352-2.343 1.352-1.547 0-2.821-1.231-2.821-2.844s1.274-2.844 2.821-2.844c1.046 0 1.885.534 2.343 1.352v-1.231h.555zm-.555 2.724c0-1.297-1.002-2.32-2.299-2.32s-2.311 1.023-2.311 2.32 1.014 2.32 2.311 2.32 2.299-1.024 2.299-2.32zm10.03-.731v3.454h-.545v-3.454c0-1.034-.6-1.59-1.449-1.59-.915 0-1.634.609-1.634 2.004v3.04h-.545v-3.454c0-1.034-.556-1.59-1.395-1.59-.894 0-1.688.609-1.688 2.004v3.04h-.545v-5.447h.545v.937c.402-.751 1.057-1.057 1.754-1.057.795 0 1.416.393 1.699 1.111.393-.763 1.09-1.111 1.82-1.111 1.155 0 1.983.752 1.983 2.113zm1.159.731c0-1.612 1.274-2.844 2.866-2.844 1.579 0 2.854 1.231 2.854 2.844s-1.274 2.844-2.854 2.844c-1.592-.001-2.866-1.232-2.866-2.844zm5.165 0c0-1.297-1.003-2.32-2.299-2.32-1.297 0-2.311 1.023-2.311 2.32s1.014 2.32 2.311 2.32c1.296 0 2.299-1.024 2.299-2.32zm6.324-2.724v5.447h-.544V87.01c-.414.807-1.111 1.155-1.95 1.155-1.297 0-2.113-.861-2.113-2.18v-3.388h.555v3.388c0 1.003.578 1.656 1.602 1.656 1.068 0 1.907-.697 1.907-2.168v-2.876h.543zm6.283 2.058v3.389h-.557v-3.389c0-1.002-.576-1.655-1.602-1.655-1.066 0-1.906.697-1.906 2.168v2.876h-.545v-5.447h.545v1.035c.414-.807 1.111-1.155 1.951-1.155 1.297 0 2.114.86 2.114 2.178zm2.698-1.524v3.54c0 .959.512.98 1.623.883v.49c-1.427.218-2.178-.131-2.178-1.373v-3.54h-1.199v-.534h1.199v-1.362l.555-.163v1.525h1.623v.534h-1.623z" fill="#FFF"/><path opacity=".5" d="M812.932 198.832c0-5.328 2.869-9.985 7.145-12.518h-13.516a8.672 8.672 0 0 1-6.408 6.406v12.221a8.669 8.669 0 0 1 6.408 6.406h13.516c-4.276-2.528-7.145-7.185-7.145-12.515zm29.061 0c0 5.33-2.865 9.986-7.146 12.519h13.518a8.67 8.67 0 0 1 6.406-6.406v-12.223a8.668 8.668 0 0 1-6.406-6.406H834.85a14.515 14.515 0 0 1 7.143 12.516z"/><linearGradient id="ae" gradientUnits="userSpaceOnUse" x1="1114.741" y1="-1704.497" x2="1139.781" y2="-1704.497" gradientTransform="rotate(-90 1929.028 -602.934)"><stop offset="0" stop-color="#4b48bf"/><stop offset="1" stop-color="#a14b8a"/></linearGradient><circle fill="url(#ae)" cx="827.465" cy="198.833" r="12.52"/><linearGradient id="af" gradientUnits="userSpaceOnUse" x1="1029.136" y1="-1403.523" x2="1058.199" y2="-1403.523" gradientTransform="rotate(-90 1736.685 -496.111)"><stop offset="0" stop-color="#4b48bf"/><stop offset="1" stop-color="#a14b8a"/></linearGradient><path fill="url(#af)" d="M799.95 182.375h58.646v29.063H799.95v-29.063z"/><path opacity=".2" d="M814.741 196.906c0-5.33 2.869-9.988 7.146-12.518h-13.514a8.669 8.669 0 0 1-6.406 6.401v12.226a8.665 8.665 0 0 1 6.406 6.403h13.516a14.511 14.511 0 0 1-7.148-12.512zm29.068 0c0 5.328-2.869 9.986-7.146 12.518h13.52a8.677 8.677 0 0 1 6.406-6.405v-12.224a8.668 8.668 0 0 1-6.406-6.405h-13.52c4.275 2.527 7.146 7.186 7.146 12.516z"/><path opacity=".1" fill="#FFF" d="M799.95 211.593v-29.218h58.813l-58.813 29.218z"/><linearGradient id="ag" gradientUnits="userSpaceOnUse" x1="1116.668" y1="-1702.687" x2="1141.707" y2="-1702.687" gradientTransform="rotate(-90 1929.028 -602.934)"><stop offset="0" stop-color="#4b48bf"/><stop offset="1" stop-color="#a14b8a"/></linearGradient><circle fill="url(#ag)" cx="829.276" cy="196.906" r="12.519"/><path fill="#FFF" d="M826.836 190.528v13.201h-3.02v-10.017l-2.34.644-.734-2.584 3.451-1.244h2.643zm.889 6.602c0-4.074 1.963-6.865 5.375-6.865 3.414 0 5.375 2.791 5.375 6.865 0 4.073-1.961 6.864-5.375 6.864-3.412 0-5.375-2.791-5.375-6.864zm7.733 0c0-2.547-.773-3.923-2.357-3.923s-2.357 1.376-2.357 3.923c0 2.546.773 3.924 2.357 3.924s2.357-1.378 2.357-3.924z"/><path opacity=".7" fill="#FFF" d="M809.008 202.524v1.271h-.664v-1.26c-1.561-.07-2.717-.793-3.154-2.014l.65-.363c.324.984 1.188 1.584 2.504 1.65v-4.201c-1.443-.51-2.689-1.029-2.689-2.717 0-1.472 1.189-2.461 2.689-2.562v-1.272h.664v1.272c1.119.127 2.063.722 2.504 1.782l-.639.354c-.322-.809-.963-1.286-1.865-1.399v4.02c1.439.511 2.746 1.076 2.746 2.761 0 1.489-1.134 2.523-2.746 2.678zm-.664-5.671v-3.793c-1.16.104-1.939.854-1.939 1.84-.004 1.117.822 1.542 1.939 1.953zm2.641 2.998c0-1.133-.814-1.6-1.979-2.01v3.947c1.272-.141 1.979-.919 1.979-1.937zm38.691 2.673v1.271h-.664v-1.26c-1.561-.07-2.717-.793-3.154-2.014l.65-.363c.322.984 1.188 1.584 2.504 1.65v-4.201c-1.443-.51-2.689-1.029-2.689-2.717 0-1.472 1.189-2.461 2.689-2.562v-1.272h.664v1.272c1.117.127 2.063.722 2.504 1.782l-.637.354c-.324-.809-.963-1.286-1.867-1.399v4.02c1.439.511 2.746 1.076 2.746 2.761 0 1.489-1.136 2.523-2.746 2.678zm-.664-5.671v-3.793c-1.16.104-1.939.854-1.939 1.84-.004 1.117.822 1.542 1.939 1.953zm2.641 2.998c0-1.133-.816-1.6-1.979-2.01v3.947c1.272-.141 1.979-.919 1.979-1.937z"/><path opacity=".5" d="M602.645 199.788c0-5.328 2.869-9.986 7.146-12.518h-13.52a8.662 8.662 0 0 1-6.402 6.407V205.9a8.669 8.669 0 0 1 6.402 6.405h13.52a14.521 14.521 0 0 1-7.146-12.517zm29.066.002c0 5.328-2.867 9.987-7.146 12.517h13.518a8.67 8.67 0 0 1 6.406-6.405V193.68a8.67 8.67 0 0 1-6.406-6.407h-13.52c4.281 2.529 7.148 7.188 7.148 12.517z"/><linearGradient id="ah" gradientUnits="userSpaceOnUse" x1="1113.785" y1="-1914.784" x2="1138.823" y2="-1914.784" gradientTransform="rotate(-90 1929.028 -602.934)"><stop offset="0" stop-color="#4b48bf"/><stop offset="1" stop-color="#a14b8a"/></linearGradient><circle fill="url(#ah)" cx="617.178" cy="199.79" r="12.519"/><linearGradient id="ai" gradientUnits="userSpaceOnUse" x1="1028.179" y1="-1613.804" x2="1057.243" y2="-1613.804" gradientTransform="rotate(-90 1736.685 -496.111)"><stop offset="0" stop-color="#4b48bf"/><stop offset="1" stop-color="#a14b8a"/></linearGradient><path fill="url(#ai)" d="M589.668 183.331h58.646v29.063h-58.646v-29.063z"/><path opacity=".2" d="M604.459 197.862c0-5.327 2.871-9.987 7.145-12.517h-13.516a8.675 8.675 0 0 1-6.408 6.406v12.222a8.675 8.675 0 0 1 6.408 6.406h13.516c-4.273-2.528-7.145-7.188-7.145-12.517zm29.063 0c0 5.329-2.869 9.988-7.146 12.52h13.518a8.668 8.668 0 0 1 6.406-6.406v-12.222a8.67 8.67 0 0 1-6.406-6.406h-13.518a14.517 14.517 0 0 1 7.146 12.514z"/><path opacity=".1" fill="#FFF" d="M589.668 212.552v-29.221h58.811l-58.811 29.221z"/><linearGradient id="aj" gradientUnits="userSpaceOnUse" x1="1115.71" y1="-1912.972" x2="1140.748" y2="-1912.972" gradientTransform="rotate(-90 1929.028 -602.934)"><stop offset="0" stop-color="#4b48bf"/><stop offset="1" stop-color="#a14b8a"/></linearGradient><circle fill="url(#aj)" cx="618.991" cy="197.864" r="12.519"/><path fill="#FFF" d="M623.975 200.292c0 2.733-2 4.658-4.904 4.658-2.924 0-4.902-1.925-4.902-4.658 0-1.02.281-1.941.771-2.678l4.037-6.13h3.469l-2.865 4.168c2.623.21 4.394 2.077 4.394 4.64zm-3.017 0c0-1.149-.889-1.828-1.889-1.828-1.021 0-1.887.66-1.887 1.828 0 1.171.865 1.83 1.887 1.83 1 0 1.889-.678 1.889-1.83z"/><path opacity=".7" fill="#FFF" d="M598.723 203.482v1.273h-.666v-1.259c-1.557-.07-2.715-.793-3.154-2.009l.65-.368c.326.989 1.189 1.584 2.504 1.654v-4.201c-1.441-.51-2.688-1.031-2.688-2.717 0-1.471 1.188-2.462 2.688-2.56v-1.273h.666v1.273c1.117.126 2.066.721 2.504 1.781l-.637.354c-.326-.806-.963-1.287-1.867-1.398v4.018c1.443.51 2.744 1.076 2.744 2.758.002 1.486-1.129 2.519-2.744 2.674zm-.666-5.673v-3.792c-1.16.101-1.938.851-1.938 1.839.003 1.119.819 1.542 1.938 1.953zm2.649 2.999c0-1.131-.82-1.598-1.98-2.008v3.947c1.273-.143 1.98-.92 1.98-1.939zm38.685 2.674v1.273h-.666v-1.259c-1.557-.07-2.715-.793-3.154-2.009l.65-.368c.326.989 1.189 1.584 2.504 1.654v-4.201c-1.441-.51-2.688-1.031-2.688-2.717 0-1.471 1.188-2.462 2.688-2.56v-1.273h.666v1.273c1.117.126 2.064.721 2.504 1.781l-.639.354c-.324-.806-.961-1.287-1.865-1.398v4.018c1.443.51 2.744 1.076 2.744 2.758.002 1.486-1.129 2.519-2.744 2.674zm-.666-5.673v-3.792c-1.16.101-1.938.851-1.938 1.839.003 1.119.819 1.542 1.938 1.953zm2.649 2.999c0-1.131-.82-1.598-1.98-2.008v3.947c1.273-.143 1.98-.92 1.98-1.939z"/><path fill="#A04B8A" d="M661.547 200.485l1.953-1.133c.354.821.961 1.372 2.078 1.372 1.072 0 1.344-.424 1.344-.806 0-.608-.564-.851-2.051-1.26-1.475-.41-2.914-1.117-2.914-3.014 0-1.909 1.609-3.013 3.32-3.013 1.629 0 2.9.777 3.621 2.234l-1.906 1.118c-.342-.709-.809-1.146-1.715-1.146-.705 0-1.061.354-1.061.75 0 .453.238.764 1.781 1.229 1.498.452 3.184.977 3.184 3.068 0 1.91-1.525 3.042-3.68 3.042-2.073.006-3.403-.985-3.954-2.441zm8.557-1.287c0-2.108 1.602-3.734 3.748-3.734 1.373 0 2.59.721 3.195 1.811l-1.854 1.075c-.234-.495-.75-.792-1.365-.792-.92 0-1.605.665-1.605 1.642s.686 1.642 1.605 1.642c.615 0 1.145-.298 1.365-.792l1.854 1.061c-.605 1.104-1.811 1.825-3.195 1.825-2.146-.004-3.748-1.631-3.748-3.738zm14.912-3.537v7.07h-2.121v-.665c-.467.538-1.16.863-2.105.863-1.854 0-3.381-1.627-3.381-3.733 0-2.107 1.525-3.733 3.381-3.733.945 0 1.643.325 2.105.862v-.664h2.121zm-2.121 3.537c0-1.063-.707-1.728-1.684-1.728-.98 0-1.688.665-1.688 1.728 0 1.061.707 1.726 1.688 1.726.977 0 1.684-.666 1.684-1.726zm14.289-.807v4.342h-2.121v-4.158c0-.707-.34-1.16-1.02-1.16-.707 0-1.105.496-1.105 1.33v3.988h-2.123v-4.158c0-.707-.34-1.16-1.018-1.16-.707 0-1.104.496-1.104 1.33v3.988h-2.121v-7.07h2.121v.648c.322-.48.945-.849 1.895-.849.836 0 1.457.339 1.855.934.395-.565 1.053-.934 2.057-.934 1.625.001 2.684 1.16 2.684 2.929zm4.787-4.625c0-.691.58-1.271 1.273-1.271.689 0 1.27.58 1.27 1.271 0 .692-.58 1.272-1.27 1.272-.693 0-1.273-.58-1.273-1.272zm.211 1.895h2.121v7.07h-2.121v-7.07zm9.096 4.951c0 1.625-1.416 2.319-2.939 2.319-1.414 0-2.488-.538-3.041-1.685l1.84-1.045c.184.537.58.834 1.201.834.51 0 .764-.156.764-.438 0-.778-3.479-.368-3.479-2.814 0-1.541 1.301-2.319 2.77-2.319 1.146 0 2.164.509 2.758 1.514l-1.811.977c-.197-.367-.48-.623-.947-.623-.367 0-.594.143-.594.396.001.804 3.478.267 3.478 2.884zm6.199 0c0 1.625-1.416 2.319-2.941 2.319-1.414 0-2.488-.538-3.041-1.685l1.84-1.045c.186.537.58.834 1.201.834.51 0 .764-.156.764-.438 0-.778-3.479-.368-3.479-2.814 0-1.541 1.305-2.319 2.771-2.319 1.146 0 2.164.509 2.758 1.514l-1.811.977c-.197-.367-.48-.623-.947-.623-.367 0-.594.143-.594.396.001.804 3.479.267 3.479 2.884zm7.752-4.951v7.07h-2.121v-.665c-.385.523-1.092.863-2.021.863-1.428 0-2.646-1.02-2.646-2.928v-4.342h2.121v4.03c0 .877.553 1.286 1.23 1.286.773 0 1.313-.452 1.313-1.457v-3.859l2.124.002zm1.348-1.895c0-.691.58-1.271 1.27-1.271.693 0 1.273.58 1.273 1.271 0 .692-.58 1.272-1.273 1.272-.69 0-1.27-.58-1.27-1.272zm.213 1.895h2.121v7.07h-2.121v-7.07zm10.468 2.73v4.342h-2.123v-4.029c0-.877-.551-1.287-1.23-1.287-.773 0-1.313.453-1.313 1.457v3.859h-2.121v-7.07h2.121v.664c.381-.522 1.09-.862 2.021-.862 1.429-.002 2.645 1.016 2.645 2.926zm8.713-2.73v6.719c0 2.376-1.852 3.38-3.734 3.38-1.471 0-2.699-.552-3.352-1.711l1.811-1.048c.271.496.682.892 1.613.892.99 0 1.6-.509 1.6-1.513v-.651c-.469.58-1.146.919-2.063.919-2.012 0-3.479-1.641-3.479-3.593s1.475-3.593 3.479-3.593c.918 0 1.598.339 2.063.919v-.722l2.062.002zm-2.062 3.395c0-.977-.707-1.641-1.715-1.641-1.006 0-1.713.664-1.713 1.641 0 .978.707 1.642 1.713 1.642 1.008-.002 1.715-.666 1.715-1.642z"/><path opacity=".5" d="M603.352 244.548c0-5.33 2.869-9.988 7.146-12.518H596.98a8.67 8.67 0 0 1-6.402 6.405v12.222a8.667 8.667 0 0 1 6.402 6.405h13.52c-4.279-2.528-7.148-7.186-7.148-12.514zm29.066 0c0 5.328-2.869 9.986-7.146 12.516h13.52a8.672 8.672 0 0 1 6.404-6.403v-12.223a8.671 8.671 0 0 1-6.404-6.406h-13.52c4.277 2.528 7.146 7.186 7.146 12.516z"/><linearGradient id="ak" gradientUnits="userSpaceOnUse" x1="1069.028" y1="-1914.075" x2="1094.066" y2="-1914.075" gradientTransform="rotate(-90 1929.028 -602.934)"><stop offset="0" stop-color="#4b48bf"/><stop offset="1" stop-color="#a14b8a"/></linearGradient><circle fill="url(#ak)" cx="617.887" cy="244.547" r="12.519"/><linearGradient id="al" gradientUnits="userSpaceOnUse" x1="983.421" y1="-1613.098" x2="1012.485" y2="-1613.098" gradientTransform="rotate(-90 1736.685 -496.111)"><stop offset="0" stop-color="#4b48bf"/><stop offset="1" stop-color="#a14b8a"/></linearGradient><path fill="url(#al)" d="M590.375 228.089h58.645v29.063h-58.645v-29.063z"/><path opacity=".2" d="M605.167 242.62c0-5.33 2.867-9.987 7.145-12.519h-13.516a8.673 8.673 0 0 1-6.408 6.407v12.221a8.679 8.679 0 0 1 6.408 6.408h13.516c-4.278-2.529-7.145-7.187-7.145-12.517zm29.062 0c0 5.33-2.869 9.987-7.146 12.519H640.6a8.673 8.673 0 0 1 6.406-6.408v-12.22a8.67 8.67 0 0 1-6.406-6.407h-13.516c4.274 2.53 7.145 7.186 7.145 12.516z"/><path opacity=".1" fill="#FFF" d="M590.375 257.308v-29.219h58.811l-58.811 29.219z"/><linearGradient id="am" gradientUnits="userSpaceOnUse" x1="1070.953" y1="-1912.266" x2="1095.991" y2="-1912.266" gradientTransform="rotate(-90 1929.028 -602.934)"><stop offset="0" stop-color="#4b48bf"/><stop offset="1" stop-color="#a14b8a"/></linearGradient><circle fill="url(#am)" cx="619.696" cy="242.622" r="12.519"/><path fill="#FFF" d="M616.221 236.243v13.202h-3.018V239.43l-2.338.644-.736-2.584 3.451-1.246h2.641zm3.436 15.842h-2.266l.754-5.563h3.021l-1.509 5.563zm11.261-6.789c0 2.904-2.268 4.412-4.813 4.412-2.094 0-3.9-.885-4.715-2.827l2.604-1.511c.303.869.867 1.396 2.111 1.396 1.242 0 1.791-.66 1.791-1.472 0-.813-.549-1.472-1.695-1.472h-4.133l.547-7.582h7.641v2.829h-4.811l-.133 1.812h1.074c2.458.002 4.532 1.511 4.532 4.415z"/><path opacity=".7" fill="#FFF" d="M599.428 248.24v1.272h-.664v-1.259c-1.557-.07-2.717-.792-3.154-2.009l.65-.369c.324.99 1.188 1.585 2.504 1.656v-4.201c-1.443-.511-2.688-1.032-2.688-2.718 0-1.472 1.188-2.461 2.688-2.561v-1.273h.664v1.273c1.119.127 2.066.721 2.504 1.783l-.637.354c-.324-.806-.961-1.287-1.867-1.399v4.019c1.443.511 2.746 1.076 2.746 2.758.002 1.486-1.129 2.519-2.746 2.674zm-.664-5.674v-3.792c-1.16.101-1.938.851-1.938 1.841.003 1.117.821 1.542 1.938 1.951zm2.649 2.999c0-1.131-.82-1.599-1.98-2.009v3.947c1.273-.141 1.98-.918 1.98-1.938zm38.683 2.675v1.272h-.664v-1.259c-1.557-.07-2.717-.792-3.154-2.009l.65-.369c.326.99 1.188 1.584 2.504 1.656v-4.201c-1.443-.511-2.688-1.032-2.688-2.718 0-1.472 1.188-2.461 2.688-2.561v-1.273h.664v1.273c1.119.127 2.066.721 2.506 1.783l-.639.354c-.324-.806-.961-1.287-1.867-1.399v4.019c1.445.511 2.746 1.076 2.746 2.758.002 1.486-1.131 2.519-2.746 2.674zm-.664-5.674v-3.792c-1.16.101-1.938.851-1.938 1.841.003 1.117.819 1.542 1.938 1.951zm2.647 2.999c0-1.131-.82-1.599-1.98-2.009v3.947c1.275-.141 1.98-.918 1.98-1.938z"/><path fill="#A04B8A" d="M669.963 240.985c0 1.882-1.518 3.396-3.465 3.396h-1.484v3.111h-2.264v-9.9h3.748c1.948-.001 3.465 1.512 3.465 3.393zm-2.263 0c0-.722-.512-1.272-1.201-1.272h-1.484v2.546h1.484c.689 0 1.201-.553 1.201-1.274zm7.429-.707v2.404c-.877-.143-2.121.212-2.121 1.612v3.196h-2.121v-7.071h2.121v1.259c.284-.948 1.227-1.4 2.121-1.4zm.424 3.678c0-2.108 1.67-3.734 3.748-3.734 2.08 0 3.748 1.626 3.748 3.734 0 2.105-1.668 3.732-3.748 3.732-2.078.001-3.748-1.625-3.748-3.732zm5.375 0c0-1.004-.707-1.67-1.627-1.67s-1.627.666-1.627 1.67.707 1.668 1.627 1.668 1.627-.664 1.627-1.668zm3.328-3.536h2.123v7.071c0 2.207-1.021 3.153-3.254 3.026v-2.037c.773.042 1.131-.239 1.131-.989v-7.071zm-.211-1.897c0-.691.58-1.271 1.27-1.271.693 0 1.273.58 1.273 1.271 0 .693-.58 1.273-1.273 1.273a1.284 1.284 0 0 1-1.27-1.273zm7.481 7.272c.58 0 1.074-.229 1.357-.538l1.695.976c-.691.962-1.74 1.457-3.084 1.457-2.418 0-3.918-1.627-3.918-3.732 0-2.108 1.523-3.734 3.762-3.734 2.066 0 3.596 1.601 3.596 3.734 0 .297-.027.58-.084.849h-5.021c.269.733.921.988 1.697.988zm1.305-2.575c-.23-.82-.863-1.117-1.5-1.117-.811 0-1.348.396-1.541 1.117h3.041zm2.888.736c0-2.108 1.598-3.734 3.748-3.734 1.371 0 2.588.721 3.195 1.812l-1.855 1.074c-.238-.494-.75-.792-1.373-.792-.92 0-1.598.665-1.598 1.642s.678 1.642 1.598 1.642c.623 0 1.146-.297 1.373-.792l1.855 1.062c-.607 1.104-1.814 1.824-3.195 1.824-2.154-.005-3.748-1.631-3.748-3.738zm10.481-1.5v2.504c0 .606.521.664 1.457.606v1.925c-2.771.282-3.576-.553-3.576-2.531v-2.504h-1.137v-2.037h1.137v-1.344l2.119-.639v1.979h1.457v2.037l-1.457.004zm6.129-3.933c0-.691.578-1.271 1.27-1.271.693 0 1.273.58 1.273 1.271 0 .693-.58 1.273-1.273 1.273-.692 0-1.27-.579-1.27-1.273zm.213 1.897h2.121v7.071h-2.121v-7.071zm9.095 4.95c0 1.625-1.416 2.318-2.943 2.318-1.414 0-2.486-.538-3.041-1.684l1.842-1.046c.186.537.578.834 1.199.834.512 0 .766-.156.766-.438 0-.777-3.479-.368-3.479-2.814 0-1.541 1.303-2.319 2.771-2.319 1.146 0 2.164.509 2.758 1.514l-1.813.977c-.191-.367-.48-.622-.941-.622-.367 0-.6.142-.6.396.001.804 3.481.267 3.481 2.884zm6.199 0c0 1.625-1.416 2.318-2.943 2.318-1.414 0-2.488-.538-3.041-1.684l1.84-1.046c.188.537.58.834 1.201.834.51 0 .764-.156.764-.438 0-.777-3.479-.368-3.479-2.814 0-1.541 1.301-2.319 2.77-2.319 1.146 0 2.164.509 2.76 1.514l-1.813.977c-.197-.367-.479-.622-.947-.622-.365 0-.594.142-.594.396 0 .804 3.482.267 3.482 2.884zm7.752-4.95v7.071h-2.121v-.664c-.383.521-1.09.861-2.023.861-1.428 0-2.645-1.019-2.645-2.928v-4.342h2.121v4.03c0 .877.553 1.286 1.229 1.286.779 0 1.316-.452 1.316-1.457v-3.859l2.123.002zm1.344-1.897c0-.691.58-1.271 1.273-1.271.688 0 1.27.58 1.27 1.271 0 .693-.58 1.273-1.27 1.273a1.285 1.285 0 0 1-1.273-1.273zm.213 1.897h2.121v7.071h-2.121v-7.071zm10.467 2.729v4.343h-2.121v-4.031c0-.877-.553-1.286-1.23-1.286-.775 0-1.313.452-1.313 1.457v3.86h-2.117v-7.072h2.117v.666c.385-.523 1.094-.863 2.021-.863 1.428-.001 2.643 1.017 2.643 2.926zm8.719-2.729v6.719c0 2.376-1.855 3.38-3.734 3.38-1.471 0-2.701-.551-3.352-1.711l1.811-1.047c.27.495.68.891 1.613.891.988 0 1.598-.509 1.598-1.513v-.65c-.467.579-1.145.92-2.063.92-2.016 0-3.48-1.643-3.48-3.595 0-1.95 1.471-3.593 3.48-3.593.918 0 1.598.339 2.063.919v-.721l2.064.001zm-2.067 3.393c0-.976-.707-1.641-1.711-1.641-1.006 0-1.713.665-1.713 1.641 0 .978.707 1.642 1.713 1.642 1.004-.001 1.711-.665 1.711-1.642z"/><path opacity=".5" d="M602.883 289.305c0-5.328 2.869-9.985 7.145-12.517h-13.516a8.67 8.67 0 0 1-6.408 6.405v12.222a8.666 8.666 0 0 1 6.408 6.405h13.516c-4.276-2.528-7.145-7.185-7.145-12.515zm29.061 0c0 5.33-2.865 9.987-7.146 12.52h13.518a8.668 8.668 0 0 1 6.406-6.406v-12.224a8.666 8.666 0 0 1-6.406-6.405H624.8a14.51 14.51 0 0 1 7.144 12.515z"/><linearGradient id="an" gradientUnits="userSpaceOnUse" x1="1024.267" y1="-1914.546" x2="1049.307" y2="-1914.546" gradientTransform="rotate(-90 1929.028 -602.934)"><stop offset="0" stop-color="#4b48bf"/><stop offset="1" stop-color="#a14b8a"/></linearGradient><circle fill="url(#an)" cx="617.417" cy="289.306" r="12.52"/><linearGradient id="ao" gradientUnits="userSpaceOnUse" x1="938.663" y1="-1613.572" x2="967.726" y2="-1613.572" gradientTransform="rotate(-90 1736.685 -496.111)"><stop offset="0" stop-color="#4b48bf"/><stop offset="1" stop-color="#a14b8a"/></linearGradient><path fill="url(#ao)" d="M589.901 272.848h58.646v29.063h-58.646v-29.063z"/><path opacity=".2" d="M604.692 287.379c0-5.33 2.869-9.988 7.146-12.518h-13.514a8.667 8.667 0 0 1-6.406 6.401v12.227a8.664 8.664 0 0 1 6.406 6.402h13.516a14.514 14.514 0 0 1-7.148-12.512zm29.068 0c0 5.329-2.869 9.987-7.146 12.518h13.52a8.674 8.674 0 0 1 6.406-6.404v-12.225a8.667 8.667 0 0 1-6.406-6.404h-13.52a14.52 14.52 0 0 1 7.146 12.515z"/><path opacity=".1" fill="#FFF" d="M589.901 302.065v-29.218h58.813l-58.813 29.218z"/><linearGradient id="ap" gradientUnits="userSpaceOnUse" x1="1026.196" y1="-1912.735" x2="1051.234" y2="-1912.735" gradientTransform="rotate(-90 1929.028 -602.934)"><stop offset="0" stop-color="#4b48bf"/><stop offset="1" stop-color="#a14b8a"/></linearGradient><circle fill="url(#ap)" cx="619.227" cy="287.379" r="12.519"/><path fill="#FFF" d="M616.788 281.001v13.201h-3.02v-10.018l-2.34.645-.734-2.584 3.451-1.244h2.643zm.888 6.602c0-4.074 1.963-6.865 5.375-6.865 3.414 0 5.375 2.791 5.375 6.865 0 4.073-1.961 6.864-5.375 6.864-3.412 0-5.375-2.791-5.375-6.864zm7.733 0c0-2.547-.773-3.923-2.357-3.923s-2.357 1.376-2.357 3.923c0 2.546.773 3.924 2.357 3.924s2.357-1.379 2.357-3.924z"/><path opacity=".7" fill="#FFF" d="M598.959 292.997v1.271h-.664v-1.26c-1.561-.07-2.717-.793-3.154-2.013l.65-.364c.324.985 1.188 1.584 2.504 1.651v-4.201c-1.443-.511-2.689-1.03-2.689-2.718 0-1.472 1.189-2.461 2.689-2.562v-1.272h.664v1.272c1.119.127 2.063.722 2.504 1.783l-.639.354c-.322-.809-.963-1.286-1.865-1.398v4.019c1.439.511 2.746 1.076 2.746 2.761.001 1.488-1.134 2.522-2.746 2.677zm-.664-5.672v-3.793c-1.16.104-1.939.854-1.939 1.84-.002 1.118.822 1.543 1.939 1.953zm2.643 2.998c0-1.134-.816-1.601-1.98-2.011v3.947c1.271-.139 1.98-.917 1.98-1.936zm38.689 2.674v1.271h-.664v-1.26c-1.561-.07-2.717-.793-3.154-2.013l.65-.364c.322.985 1.188 1.584 2.504 1.651v-4.201c-1.443-.511-2.689-1.03-2.689-2.718 0-1.472 1.189-2.461 2.689-2.562v-1.272h.664v1.272c1.117.127 2.063.722 2.504 1.783l-.637.354c-.324-.809-.963-1.286-1.867-1.398v4.019c1.439.511 2.746 1.076 2.746 2.761.001 1.488-1.136 2.522-2.746 2.677zm-.664-5.672v-3.793c-1.16.104-1.939.854-1.939 1.84-.002 1.118.822 1.543 1.939 1.953zm2.641 2.998c0-1.134-.816-1.601-1.979-2.011v3.947c1.272-.139 1.979-.917 1.979-1.936z"/><path opacity=".5" d="M813.01 288.426c0-5.328 2.869-9.988 7.146-12.521H806.64a8.668 8.668 0 0 1-6.406 6.404v12.225a8.675 8.675 0 0 1 6.406 6.402h13.516a14.514 14.514 0 0 1-7.146-12.51zm29.069 0c0 5.329-2.869 9.983-7.146 12.519h13.52a8.668 8.668 0 0 1 6.404-6.405v-12.225a8.661 8.661 0 0 1-6.404-6.404h-13.52a14.521 14.521 0 0 1 7.146 12.515z"/><linearGradient id="aq" gradientUnits="userSpaceOnUse" x1="1025.147" y1="-1704.419" x2="1050.188" y2="-1704.419" gradientTransform="rotate(-90 1929.028 -602.934)"><stop offset="0" stop-color="#4b48bf"/><stop offset="1" stop-color="#a14b8a"/></linearGradient><circle fill="url(#aq)" cx="827.543" cy="288.426" r="12.521"/><linearGradient id="ar" gradientUnits="userSpaceOnUse" x1="939.544" y1="-1403.438" x2="968.607" y2="-1403.438" gradientTransform="rotate(-90 1736.685 -496.111)"><stop offset="0" stop-color="#4b48bf"/><stop offset="1" stop-color="#a14b8a"/></linearGradient><path fill="url(#ar)" d="M800.036 271.967h58.645v29.063h-58.645v-29.063z"/><path opacity=".2" d="M814.827 286.497c0-5.326 2.869-9.983 7.145-12.518h-13.516a8.664 8.664 0 0 1-6.406 6.406v12.221a8.67 8.67 0 0 1 6.406 6.406h13.516c-4.276-2.527-7.145-7.185-7.145-12.515zm29.06 0c0 5.33-2.865 9.987-7.145 12.521h13.516a8.666 8.666 0 0 1 6.406-6.405v-12.222a8.663 8.663 0 0 1-6.406-6.405h-13.516a14.506 14.506 0 0 1 7.145 12.511z"/><path opacity=".1" fill="#FFF" d="M800.036 301.187v-29.22h58.811l-58.811 29.22z"/><linearGradient id="as" gradientUnits="userSpaceOnUse" x1="1027.074" y1="-1702.603" x2="1052.114" y2="-1702.603" gradientTransform="rotate(-90 1929.028 -602.934)"><stop offset="0" stop-color="#4b48bf"/><stop offset="1" stop-color="#a14b8a"/></linearGradient><circle fill="url(#as)" cx="829.36" cy="286.5" r="12.52"/><path fill="#FFF" d="M834.717 291.212h-1.316v2.111h-3.059v-2.111h-5.998v-2.791l4.207-8.299h3.24l-4.205 8.299h2.756v-2.829h3.059v2.829h1.316v2.791z"/><path opacity=".7" fill="#FFF" d="M809.086 292.116v1.274h-.664v-1.26c-1.555-.072-2.715-.793-3.15-2.012l.646-.365c.326.988 1.188 1.584 2.504 1.652v-4.199c-1.439-.513-2.688-1.033-2.688-2.72 0-1.473 1.188-2.463 2.688-2.563v-1.271h.664v1.271c1.119.127 2.064.721 2.506 1.781l-.637.354c-.326-.807-.963-1.287-1.869-1.396v4.019c1.445.511 2.746 1.076 2.746 2.758.002 1.491-1.128 2.523-2.746 2.677zm-.664-5.672v-3.793c-1.16.104-1.938.854-1.938 1.841.005 1.116.823 1.542 1.938 1.952zm2.651 2.998c0-1.131-.82-1.598-1.982-2.008v3.947c1.275-.14 1.982-.919 1.982-1.939zm38.681 2.674v1.274h-.664v-1.26c-1.557-.072-2.717-.793-3.15-2.012l.646-.365c.326.988 1.188 1.584 2.504 1.652v-4.199c-1.439-.513-2.688-1.033-2.688-2.72 0-1.473 1.188-2.463 2.688-2.563v-1.271h.664v1.271c1.117.127 2.064.721 2.506 1.781l-.637.354c-.326-.807-.963-1.287-1.869-1.396v4.019c1.441.511 2.746 1.076 2.746 2.758.002 1.491-1.13 2.523-2.746 2.677zm-.664-5.672v-3.793c-1.158.104-1.938.854-1.938 1.841.005 1.116.823 1.542 1.938 1.952zm2.651 2.998c0-1.131-.82-1.598-1.982-2.008v3.947c1.275-.14 1.982-.919 1.982-1.939z"/><path opacity=".5" d="M812.932 243.813c0-5.329 2.871-9.987 7.146-12.517h-13.516a8.672 8.672 0 0 1-6.406 6.406v12.222a8.67 8.67 0 0 1 6.406 6.406h13.516c-4.275-2.53-7.146-7.188-7.146-12.517zm29.067 0c0 5.329-2.869 9.988-7.146 12.519h13.516a8.664 8.664 0 0 1 6.406-6.406v-12.222a8.67 8.67 0 0 1-6.406-6.406h-13.516a14.517 14.517 0 0 1 7.146 12.515z"/><linearGradient id="at" gradientUnits="userSpaceOnUse" x1="1725.103" y1="-2492.296" x2="1750.141" y2="-2492.296" gradientTransform="rotate(-90 2650.598 -669.163)"><stop offset="0" stop-color="#4b48bf"/><stop offset="1" stop-color="#a14b8a"/></linearGradient><circle fill="url(#at)" cx="827.465" cy="243.813" r="12.519"/><linearGradient id="au" gradientUnits="userSpaceOnUse" x1="1639.502" y1="-2191.316" x2="1668.566" y2="-2191.316" gradientTransform="rotate(-90 2458.256 -562.337)"><stop offset="0" stop-color="#4b48bf"/><stop offset="1" stop-color="#a14b8a"/></linearGradient><path fill="url(#au)" d="M799.954 227.354H858.6v29.064h-58.646v-29.064z"/><path opacity=".2" d="M814.745 241.886c0-5.329 2.871-9.987 7.146-12.518h-13.516a8.67 8.67 0 0 1-6.408 6.406v12.224a8.67 8.67 0 0 1 6.408 6.404h13.516c-4.275-2.528-7.146-7.187-7.146-12.516zm29.066 0c0 5.33-2.869 9.988-7.146 12.518h13.516a8.666 8.666 0 0 1 6.408-6.404v-12.224a8.67 8.67 0 0 1-6.408-6.406h-13.516c4.277 2.528 7.146 7.187 7.146 12.516z"/><path opacity=".1" fill="#FFF" d="M799.954 256.574v-29.222h58.813l-58.813 29.222z"/><linearGradient id="av" gradientUnits="userSpaceOnUse" x1="1727.03" y1="-2490.484" x2="1752.068" y2="-2490.484" gradientTransform="rotate(-90 2650.598 -669.163)"><stop offset="0" stop-color="#4b48bf"/><stop offset="1" stop-color="#a14b8a"/></linearGradient><circle fill="url(#av)" cx="829.278" cy="241.886" r="12.519"/><path fill="#FFF" d="M834.073 244.562c0 2.904-2.266 4.413-4.811 4.413-2.094 0-3.902-.886-4.715-2.828l2.604-1.51c.303.868.867 1.396 2.111 1.396s1.791-.659 1.791-1.473c0-.811-.547-1.471-1.695-1.471h-4.131l.549-7.582h7.639v2.829h-4.813l-.131 1.811h1.074c2.454.001 4.528 1.51 4.528 4.415z"/><path opacity=".7" fill="#FFF" d="M809.01 247.505v1.271h-.664v-1.26c-1.557-.069-2.717-.792-3.154-2.008l.65-.368c.326.991 1.188 1.584 2.504 1.656v-4.202c-1.443-.51-2.689-1.032-2.689-2.716 0-1.472 1.189-2.462 2.689-2.562v-1.271h.664v1.271c1.119.127 2.066.723 2.504 1.782l-.637.354c-.324-.808-.961-1.287-1.867-1.4v4.019c1.443.51 2.746 1.074 2.746 2.759 0 1.486-1.132 2.519-2.746 2.675zm-.664-5.673v-3.791c-1.16.099-1.939.849-1.939 1.839 0 1.118.822 1.542 1.939 1.952zm2.645 2.999c0-1.133-.82-1.6-1.98-2.011v3.947c1.273-.138 1.98-.917 1.98-1.936zm38.687 2.674v1.271h-.666v-1.26c-1.555-.069-2.715-.792-3.154-2.008l.65-.368c.326.991 1.188 1.584 2.504 1.656v-4.202c-1.443-.51-2.688-1.032-2.688-2.716 0-1.472 1.188-2.462 2.688-2.562v-1.271h.666v1.271c1.117.127 2.064.723 2.504 1.782l-.637.354c-.326-.808-.963-1.287-1.869-1.4v4.019c1.443.51 2.746 1.074 2.746 2.759 0 1.486-1.13 2.519-2.744 2.675zm-.664-5.673v-3.791c-1.16.099-1.939.849-1.939 1.839 0 1.118.82 1.542 1.939 1.952zm2.645 2.999c0-1.133-.82-1.6-1.98-2.011v3.947c1.273-.138 1.98-.917 1.98-1.936z"/><path d="M669.567 284.816c0 1.871-1.508 3.377-3.447 3.377h-1.479v3.096h-2.252v-9.849h3.73c1.942 0 3.448 1.505 3.448 3.376zm-2.252 0c0-.718-.508-1.266-1.195-1.266h-1.479v2.532h1.479c.689.001 1.195-.548 1.195-1.266zm9.963-.562v7.034h-2.109v-.661c-.381.521-1.084.857-2.014.857-1.42 0-2.629-1.014-2.629-2.911v-4.319h2.107v4.01c0 .872.549 1.28 1.227 1.28.771 0 1.309-.45 1.309-1.449v-3.841h2.109zm9.119 3.517c0 2.098-1.521 3.715-3.363 3.715-.941 0-1.631-.323-2.096-.857v.661h-2.111v-9.849h2.111v3.476c.465-.534 1.152-.858 2.096-.858 1.843-.002 3.363 1.616 3.363 3.712zm-2.111 0c0-1.055-.703-1.716-1.674-1.716s-1.674.661-1.674 1.716c0 1.057.703 1.717 1.674 1.717s1.674-.662 1.674-1.717zm3.308-6.753h2.111v10.271h-2.111v-10.271zm3.449 1.35a1.28 1.28 0 0 1 1.268-1.267 1.28 1.28 0 0 1 1.266 1.267 1.28 1.28 0 0 1-1.266 1.267 1.28 1.28 0 0 1-1.268-1.267zm.211 1.886h2.109v7.034h-2.109v-7.034zm3.307 3.517c0-2.096 1.59-3.714 3.729-3.714 1.365 0 2.574.718 3.18 1.801l-1.844 1.069c-.238-.492-.744-.788-1.363-.788-.914 0-1.59.661-1.59 1.632 0 .972.676 1.633 1.59 1.633.619 0 1.141-.296 1.363-.787l1.844 1.055c-.604 1.098-1.801 1.814-3.18 1.814-2.139-.001-3.729-1.619-3.729-3.715zm14.83-3.517v7.034h-2.109v-.661c-.465.534-1.154.857-2.096.857-1.844 0-3.363-1.617-3.363-3.715 0-2.096 1.52-3.714 3.363-3.714.941 0 1.631.324 2.096.858v-.661l2.109.002zm-2.109 3.517c0-1.055-.703-1.716-1.676-1.716-.971 0-1.674.661-1.674 1.716 0 1.057.703 1.717 1.674 1.717.973-.001 1.676-.662 1.676-1.717zm6.334-1.492v2.49c0 .605.52.661 1.447.605v1.913c-2.758.28-3.559-.55-3.559-2.52v-2.49h-1.127v-2.024h1.127v-1.337l2.109-.633v1.97h1.447v2.024l-1.444.002zm2.433-3.911c0-.688.578-1.267 1.268-1.267s1.266.577 1.266 1.267c0 .688-.576 1.267-1.266 1.267s-1.268-.577-1.268-1.267zm.211 1.886h2.111v7.034h-2.111v-7.034zm3.309 3.517c0-2.096 1.658-3.714 3.729-3.714 2.068 0 3.729 1.618 3.729 3.714 0 2.098-1.66 3.715-3.729 3.715-2.071 0-3.729-1.619-3.729-3.715zm5.346 0c0-.998-.703-1.66-1.617-1.66-.916 0-1.619.662-1.619 1.66 0 .999.703 1.66 1.619 1.66.913 0 1.617-.661 1.617-1.66zm10.06-.802v4.319h-2.109v-4.011c0-.872-.547-1.279-1.225-1.279-.771 0-1.309.45-1.309 1.448v3.842h-2.109v-7.034h2.109v.661c.381-.521 1.084-.858 2.012-.858 1.422 0 2.631 1.012 2.631 2.912zm4.76-4.601a1.28 1.28 0 0 1 1.266-1.267c.691 0 1.266.577 1.266 1.267 0 .688-.574 1.267-1.266 1.267-.69 0-1.266-.577-1.266-1.267zm.211 1.886h2.109v7.034h-2.109v-7.034zm9.047 4.924c0 1.618-1.408 2.308-2.928 2.308-1.406 0-2.477-.534-3.023-1.675l1.828-1.041c.184.535.578.83 1.195.83.508 0 .76-.153.76-.436 0-.774-3.461-.366-3.461-2.8 0-1.533 1.295-2.309 2.758-2.309 1.141 0 2.152.507 2.744 1.506l-1.801.972c-.197-.366-.48-.619-.943-.619-.365 0-.59.141-.59.394 0 .801 3.461.267 3.461 2.87zm6.164 0c0 1.618-1.408 2.308-2.928 2.308-1.406 0-2.477-.534-3.023-1.675l1.828-1.041c.184.535.578.83 1.195.83.508 0 .76-.153.76-.436 0-.774-3.461-.366-3.461-2.8 0-1.533 1.295-2.309 2.758-2.309 1.141 0 2.152.507 2.744 1.506l-1.803.972c-.195-.366-.479-.619-.941-.619-.365 0-.59.141-.59.394 0 .801 3.461.267 3.461 2.87zm7.711-4.924v7.034h-2.109v-.661c-.381.521-1.084.857-2.014.857-1.42 0-2.629-1.014-2.629-2.911v-4.319h2.107v4.01c0 .872.551 1.28 1.227 1.28.771 0 1.309-.45 1.309-1.449v-3.841h2.109zm1.34-1.886a1.28 1.28 0 0 1 1.266-1.267 1.28 1.28 0 0 1 1.268 1.267 1.28 1.28 0 0 1-1.268 1.267c-.69 0-1.266-.577-1.266-1.267zm.21 1.886h2.109v7.034h-2.109v-7.034zm10.411 2.715v4.319h-2.109v-4.011c0-.872-.549-1.279-1.225-1.279-.773 0-1.309.45-1.309 1.448v3.842h-2.109v-7.034h2.109v.661c.381-.521 1.084-.858 2.012-.858 1.422 0 2.631 1.012 2.631 2.912zm8.67-2.715v6.683c0 2.363-1.842 3.362-3.713 3.362-1.465 0-2.689-.549-3.336-1.702l1.801-1.041c.27.492.676.886 1.605.886.982 0 1.588-.506 1.588-1.505v-.646c-.463.577-1.139.915-2.055.915-1.998 0-3.461-1.633-3.461-3.574s1.463-3.573 3.461-3.573c.916 0 1.592.338 2.055.915v-.718l2.055-.002zm-2.055 3.376c0-.971-.703-1.632-1.701-1.632-1 0-1.703.661-1.703 1.632s.703 1.633 1.703 1.633c.998 0 1.701-.662 1.701-1.633zm89.933-94.682h2.461l2.182 7.244 2.182-7.244h2.461l-3.207 9.848h-2.869l-3.21-9.848zm12.791 8.158c.576 0 1.068-.225 1.352-.533l1.688.971c-.689.956-1.73 1.449-3.066 1.449-2.406 0-3.896-1.618-3.896-3.716 0-2.096 1.52-3.714 3.742-3.714 2.055 0 3.572 1.59 3.572 3.714 0 .297-.027.577-.084.846h-4.994c.265.731.911.983 1.686.983zm1.293-2.56c-.225-.815-.857-1.111-1.49-1.111-.803 0-1.338.396-1.533 1.111h3.023zm7.516-2.926v2.392c-.871-.141-2.109.211-2.109 1.604v3.18h-2.111v-7.034h2.111v1.252c.279-.944 1.222-1.394 2.109-1.394zm7.992-2.672v9.848h-2.109v-.661c-.465.534-1.154.858-2.098.858-1.842 0-3.361-1.618-3.361-3.716 0-2.096 1.52-3.714 3.361-3.714.943 0 1.633.324 2.098.858v-3.475l2.109.002zm-2.109 6.329c0-1.055-.703-1.716-1.676-1.716-.971 0-1.674.661-1.674 1.716 0 1.057.703 1.718 1.674 1.718.973-.001 1.676-.662 1.676-1.718zm3.449-5.402a1.28 1.28 0 0 1 1.268-1.267 1.28 1.28 0 0 1 1.266 1.267 1.28 1.28 0 0 1-1.266 1.267 1.28 1.28 0 0 1-1.268-1.267zm.211 1.886h2.109v7.034h-2.109v-7.034zm3.307 3.516c0-2.096 1.59-3.714 3.729-3.714 1.363 0 2.574.719 3.18 1.802l-1.844 1.068c-.238-.492-.744-.788-1.363-.788-.914 0-1.592.661-1.592 1.632 0 .972.678 1.634 1.592 1.634.619 0 1.139-.296 1.363-.788l1.844 1.055c-.605 1.098-1.801 1.815-3.18 1.815-2.139-.001-3.729-1.619-3.729-3.716zm10.427-1.491v2.489c0 .605.521.661 1.447.605v1.913c-2.756.281-3.559-.549-3.559-2.52v-2.489h-1.127v-2.025h1.127v-1.337l2.109-.633v1.97h1.449v2.025l-1.446.002zm6.094-3.911a1.28 1.28 0 0 1 1.268-1.267 1.28 1.28 0 0 1 1.266 1.267 1.28 1.28 0 0 1-1.266 1.267 1.28 1.28 0 0 1-1.268-1.267zm.211 1.886h2.109v7.034h-2.109v-7.034zm9.047 4.924c0 1.618-1.406 2.309-2.928 2.309-1.404 0-2.475-.535-3.023-1.676l1.83-1.041c.182.535.576.83 1.193.83.508 0 .762-.153.762-.436 0-.774-3.461-.366-3.461-2.8 0-1.533 1.295-2.309 2.758-2.309 1.139 0 2.15.507 2.742 1.506l-1.801.972c-.195-.366-.479-.619-.941-.619-.365 0-.592.141-.592.394.002.801 3.461.267 3.461 2.87zm6.164 0c0 1.618-1.406 2.309-2.928 2.309-1.404 0-2.475-.535-3.023-1.676l1.83-1.041c.182.535.576.83 1.193.83.508 0 .762-.153.762-.436 0-.774-3.463-.366-3.463-2.8 0-1.533 1.297-2.309 2.76-2.309 1.139 0 2.15.507 2.742 1.506l-1.801.972c-.195-.366-.479-.619-.941-.619-.365 0-.592.141-.592.394 0 .801 3.461.267 3.461 2.87zm7.713-4.924v7.034h-2.111v-.661c-.379.521-1.084.858-2.012.858-1.422 0-2.631-1.015-2.631-2.912v-4.319h2.109v4.01c0 .872.549 1.28 1.225 1.28.773 0 1.309-.45 1.309-1.449v-3.841h2.111zm1.338-1.886a1.28 1.28 0 0 1 1.266-1.267 1.28 1.28 0 0 1 1.268 1.267 1.28 1.28 0 0 1-1.268 1.267 1.28 1.28 0 0 1-1.266-1.267zm.211 1.886h2.109v7.034h-2.109v-7.034zm10.412 2.715v4.319h-2.111v-4.01c0-.872-.547-1.28-1.223-1.28-.773 0-1.311.45-1.311 1.449v3.841h-2.109v-7.034h2.109v.661c.381-.521 1.084-.858 2.014-.858 1.42-.001 2.631 1.012 2.631 2.912zm8.668-2.715v6.683c0 2.363-1.844 3.362-3.713 3.362-1.465 0-2.689-.549-3.336-1.702l1.801-1.041c.268.492.676.887 1.604.887.984 0 1.59-.507 1.59-1.506v-.646c-.465.577-1.139.915-2.055.915-1.998 0-3.461-1.633-3.461-3.574s1.463-3.573 3.461-3.573c.916 0 1.59.338 2.055.915v-.718l2.054-.002zm-2.055 3.376c0-.971-.701-1.632-1.701-1.632-.998 0-1.701.661-1.701 1.632s.703 1.633 1.701 1.633c1 0 1.701-.663 1.701-1.633zm-92.744 38.568h2.461l2.182 7.245 2.18-7.245h2.463l-3.207 9.848h-2.869l-3.21-9.848zm12.791 8.16c.574 0 1.066-.226 1.35-.534l1.688.971c-.688.956-1.729 1.449-3.064 1.449-2.406 0-3.898-1.618-3.898-3.715s1.521-3.715 3.742-3.715c2.057 0 3.574 1.591 3.574 3.715 0 .296-.027.576-.084.845h-4.994c.262.73.911.984 1.686.984zm1.293-2.561c-.227-.814-.859-1.111-1.492-1.111-.803 0-1.336.396-1.533 1.111h3.025zm7.514-2.926v2.392c-.871-.141-2.109.211-2.109 1.604v3.18h-2.109v-7.034h2.109v1.252c.281-.944 1.224-1.394 2.109-1.394zm7.994-2.673v9.848h-2.111v-.661c-.465.534-1.154.858-2.096.858-1.844 0-3.363-1.618-3.363-3.715s1.521-3.714 3.363-3.714c.941 0 1.631.323 2.096.857v-3.475l2.111.002zm-2.112 6.33c0-1.056-.703-1.717-1.674-1.717s-1.674.661-1.674 1.717.703 1.717 1.674 1.717 1.674-.661 1.674-1.717zm3.45-5.402c0-.688.578-1.266 1.268-1.266s1.266.576 1.266 1.266-.576 1.267-1.266 1.267-1.268-.577-1.268-1.267zm.211 1.886h2.111v7.034h-2.111v-7.034zm3.306 3.516c0-2.097 1.59-3.715 3.73-3.715 1.363 0 2.574.719 3.18 1.802l-1.844 1.068c-.238-.491-.746-.788-1.365-.788-.914 0-1.59.661-1.59 1.633 0 .971.676 1.633 1.59 1.633.619 0 1.141-.296 1.365-.788l1.844 1.055c-.605 1.099-1.801 1.815-3.18 1.815-2.14 0-3.73-1.618-3.73-3.715zm10.428-1.491v2.49c0 .604.521.66 1.447.604v1.913c-2.756.281-3.559-.549-3.559-2.519v-2.49h-1.125v-2.025h1.125v-1.337l2.109-.633v1.97h1.449v2.025l-1.446.002zm13.523-2.025v7.034H927.6v-.661c-.465.534-1.152.858-2.096.858-1.844 0-3.363-1.618-3.363-3.715s1.521-3.715 3.363-3.715c.941 0 1.631.324 2.096.858v-.661l2.111.002zm-2.111 3.516c0-1.056-.701-1.717-1.674-1.717-.971 0-1.674.661-1.674 1.717s.703 1.717 1.674 1.717 1.674-.661 1.674-1.717zm11.231 0c0 2.097-1.521 3.715-3.363 3.715-.941 0-1.631-.324-2.096-.858v3.476h-2.111v-9.849h2.111v.661c.465-.534 1.154-.857 2.096-.857 1.843-.002 3.363 1.616 3.363 3.712zm-2.112 0c0-1.056-.703-1.717-1.674-1.717s-1.674.661-1.674 1.717.703 1.717 1.674 1.717 1.674-.661 1.674-1.717zm10.877 0c0 2.097-1.52 3.715-3.361 3.715-.941 0-1.633-.324-2.098-.858v3.476h-2.109v-9.849h2.109v.661c.467-.534 1.154-.857 2.098-.857 1.842-.002 3.361 1.616 3.361 3.712zm-2.109 0c0-1.056-.703-1.717-1.674-1.717-.973 0-1.676.661-1.676 1.717s.703 1.717 1.676 1.717c.971 0 1.674-.661 1.674-1.717zm7.529-3.657v2.392c-.873-.141-2.109.211-2.109 1.604v3.18h-2.111v-7.034h2.111v1.252c.281-.944 1.222-1.394 2.109-1.394zm.424 3.657c0-2.097 1.658-3.715 3.729-3.715 2.068 0 3.729 1.618 3.729 3.715s-1.66 3.715-3.729 3.715c-2.071 0-3.729-1.618-3.729-3.715zm5.346 0c0-.998-.703-1.66-1.617-1.66-.916 0-1.619.662-1.619 1.66 0 .999.703 1.659 1.619 1.659.914.001 1.617-.66 1.617-1.659zm9.849-3.516l-2.602 7.034h-2.393l-2.604-7.034h2.336l1.463 4.46 1.463-4.46h2.337zm7.713 0v7.034h-2.109v-.661c-.465.534-1.154.858-2.098.858-1.844 0-3.361-1.618-3.361-3.715s1.52-3.715 3.361-3.715c.941 0 1.633.324 2.098.858v-.661l2.109.002zm-2.111 3.516c0-1.056-.703-1.717-1.674-1.717-.973 0-1.676.661-1.676 1.717s.703 1.717 1.676 1.717c.971 0 1.674-.661 1.674-1.717zm3.66-6.753h2.109v10.271h-2.109v-10.271zm-106.234 42.98l1.941-1.125c.352.815.957 1.364 2.068 1.364 1.068 0 1.336-.422 1.336-.802 0-.604-.563-.845-2.039-1.252-1.465-.408-2.898-1.111-2.898-2.997 0-1.898 1.604-2.996 3.307-2.996 1.617 0 2.885.772 3.602 2.223l-1.898 1.111c-.338-.703-.803-1.141-1.703-1.141-.703 0-1.055.353-1.055.746 0 .45.24.76 1.771 1.225 1.492.449 3.166.971 3.166 3.053 0 1.898-1.52 3.024-3.658 3.024-2.069.001-3.392-.984-3.94-2.433zm15.308-4.797v7.034h-2.107v-.661c-.381.521-1.084.857-2.014.857-1.422 0-2.631-1.014-2.631-2.911v-4.319h2.109v4.01c0 .872.549 1.28 1.225 1.28.773 0 1.311-.45 1.311-1.449v-3.841h2.107zm9.119 3.516c0 2.098-1.52 3.715-3.361 3.715-.941 0-1.633-.323-2.098-.857v3.475h-2.109v-9.848h2.109v.661c.465-.534 1.154-.858 2.098-.858 1.842-.001 3.361 1.617 3.361 3.712zm-2.109 0c0-1.055-.703-1.716-1.676-1.716-.971 0-1.674.661-1.674 1.716 0 1.057.703 1.718 1.674 1.718.973-.001 1.676-.662 1.676-1.718zm6.883 1.83c.576 0 1.066-.225 1.35-.534l1.689.972c-.689.956-1.73 1.449-3.066 1.449-2.406 0-3.896-1.618-3.896-3.716 0-2.096 1.52-3.714 3.74-3.714 2.057 0 3.574 1.59 3.574 3.714 0 .296-.027.577-.084.846h-4.994c.265.73.911.983 1.687.983zm1.293-2.561c-.227-.815-.857-1.111-1.49-1.111-.803 0-1.338.396-1.533 1.111h3.023zm7.515-2.926v2.392c-.873-.141-2.109.211-2.109 1.604v3.181h-2.111v-7.034h2.111v1.252c.279-.945 1.223-1.395 2.109-1.395zm.776-1.745a1.28 1.28 0 0 1 1.266-1.267 1.28 1.28 0 0 1 1.268 1.267 1.28 1.28 0 0 1-1.268 1.267c-.69 0-1.266-.577-1.266-1.267zm.211 1.886h2.109v7.034h-2.109v-7.034zm3.306 3.516c0-2.096 1.66-3.714 3.729-3.714s3.729 1.618 3.729 3.714c0 2.098-1.66 3.715-3.729 3.715s-3.729-1.618-3.729-3.715zm5.348 0c0-.998-.705-1.66-1.619-1.66s-1.617.662-1.617 1.66c0 .999.703 1.66 1.617 1.66.914.001 1.619-.661 1.619-1.66zm7.527-3.657v2.392c-.871-.141-2.109.211-2.109 1.604v3.181h-2.109v-7.034h2.109v1.252c.281-.945 1.225-1.395 2.109-1.395zm11.328.141l-2.604 7.034h-2.393l-2.602-7.034h2.334l1.465 4.46 1.463-4.46h2.337zm4.069 5.346c.576 0 1.068-.225 1.352-.534l1.688.972c-.689.956-1.73 1.449-3.066 1.449-2.406 0-3.896-1.618-3.896-3.716 0-2.096 1.52-3.714 3.742-3.714 2.055 0 3.572 1.59 3.572 3.714 0 .296-.025.577-.084.846h-4.994c.264.73.912.983 1.686.983zm1.295-2.561c-.227-.815-.859-1.111-1.492-1.111-.801 0-1.336.396-1.533 1.111h3.025zm7.513-2.926v2.392c-.871-.141-2.109.211-2.109 1.604v3.181h-2.109v-7.034h2.109v1.252c.281-.945 1.225-1.395 2.109-1.395zm7.993-2.673v9.849h-2.109v-.661c-.465.534-1.152.857-2.098.857-1.842 0-3.361-1.617-3.361-3.715 0-2.096 1.52-3.714 3.361-3.714.943 0 1.633.324 2.098.858v-3.476l2.109.002zm-2.11 6.33c0-1.055-.705-1.716-1.676-1.716s-1.674.661-1.674 1.716c0 1.057.703 1.718 1.674 1.718s1.676-.662 1.676-1.718zm3.449-5.402a1.28 1.28 0 0 1 1.268-1.267 1.28 1.28 0 0 1 1.266 1.267 1.28 1.28 0 0 1-1.266 1.267 1.28 1.28 0 0 1-1.268-1.267zm.211 1.886h2.109v7.034h-2.109v-7.034zm3.309 3.516c0-2.096 1.59-3.714 3.729-3.714 1.363 0 2.574.718 3.18 1.801l-1.844 1.069c-.238-.492-.746-.788-1.365-.788-.914 0-1.59.661-1.59 1.632 0 .972.676 1.633 1.59 1.633.619 0 1.141-.296 1.365-.787l1.844 1.055c-.605 1.098-1.801 1.814-3.18 1.814-2.141 0-3.729-1.618-3.729-3.715zm10.426-1.491v2.489c0 .605.521.661 1.449.605v1.913c-2.758.28-3.561-.549-3.561-2.52v-2.489h-1.125v-2.025h1.125v-1.337l2.111-.633v1.97h1.447v2.025l-1.446.002zm-95.02 14.863v7.034h-2.109v-.661c-.467.534-1.154.858-2.098.858-1.844 0-3.361-1.618-3.361-3.715s1.52-3.715 3.361-3.715c.941 0 1.633.324 2.098.858v-.661l2.109.002zm-2.111 3.516c0-1.056-.703-1.717-1.676-1.717-.971 0-1.674.661-1.674 1.717s.703 1.717 1.674 1.717c.973 0 1.676-.661 1.676-1.717zm11.23 0c0 2.097-1.52 3.715-3.363 3.715-.941 0-1.631-.324-2.096-.858v3.476h-2.109v-9.849h2.109v.661c.465-.534 1.154-.857 2.096-.857 1.844-.002 3.363 1.616 3.363 3.712zm-2.109 0c0-1.056-.703-1.717-1.676-1.717-.971 0-1.674.661-1.674 1.717s.703 1.717 1.674 1.717c.973 0 1.676-.661 1.676-1.717zm10.875 0c0 2.097-1.52 3.715-3.361 3.715-.943 0-1.633-.324-2.098-.858v3.476h-2.109v-9.849h2.109v.661c.465-.534 1.154-.857 2.098-.857 1.841-.002 3.361 1.616 3.361 3.712zm-2.109 0c0-1.056-.703-1.717-1.674-1.717-.973 0-1.676.661-1.676 1.717s.703 1.717 1.676 1.717c.97 0 1.674-.661 1.674-1.717zm7.529-3.657v2.392c-.873-.141-2.111.211-2.111 1.604v3.18h-2.109v-7.034h2.109v1.252c.281-.944 1.224-1.394 2.111-1.394zm.424 3.657c0-2.097 1.66-3.715 3.729-3.715s3.729 1.618 3.729 3.715-1.66 3.715-3.729 3.715-3.729-1.618-3.729-3.715zm5.345 0c0-.998-.703-1.659-1.617-1.659-.916 0-1.619.661-1.619 1.659 0 .999.703 1.659 1.619 1.659.914.001 1.617-.66 1.617-1.659zm9.852-3.516l-2.604 7.034h-2.393l-2.604-7.034h2.336l1.463 4.46 1.463-4.46h2.339zm7.711 0v7.034h-2.111v-.661c-.465.534-1.154.858-2.096.858-1.844 0-3.363-1.618-3.363-3.715s1.52-3.715 3.363-3.715c.941 0 1.631.324 2.096.858v-.661l2.111.002zm-2.111 3.516c0-1.056-.703-1.717-1.674-1.717-.973 0-1.674.661-1.674 1.717s.701 1.717 1.674 1.717c.97 0 1.674-.661 1.674-1.717zm3.66-6.753h2.109v10.271h-2.109v-10.271z" fill="#A04B8A"/></svg>