<svg xmlns="http://www.w3.org/2000/svg" width="408.142" height="239.98" viewBox="0 0 408.142 239.98"><linearGradient id="a" gradientUnits="userSpaceOnUse" x1="3717.547" y1="-2757.759" x2="3914.903" y2="-2757.759" gradientTransform="matrix(0 1 1 0 2961.914 -3717.548)"><stop offset="0" stop-color="#4b48bf"/><stop offset="1" stop-color="#5248bb" stop-opacity="0"/></linearGradient><path fill="url(#a)" d="M.169 197.355V8.085A8.086 8.086 0 0 1 8.255 0h391.802a8.084 8.084 0 0 1 8.085 8.085v189.271H.169v-.001z"/><linearGradient id="b" gradientUnits="userSpaceOnUse" x1="4823.977" y1="292.131" x2="5126.114" y2="292.131" gradientTransform="matrix(-1 0 0 1 5126.114 -232.956)"><stop offset="0" stop-color="#4b48bf"/><stop offset="1" stop-color="#5248bb" stop-opacity="0"/></linearGradient><path fill="url(#b)" d="M8.085 0h294.052L0 118.349V8.085A8.085 8.085 0 0 1 8.085 0z"/><path d="M261.254 62.019l2.417-1.401c.438 1.016 1.191 1.699 2.575 1.699 1.332 0 1.664-.525 1.664-.999 0-.753-.701-1.051-2.54-1.559-1.821-.508-3.608-1.384-3.608-3.731 0-2.365 1.997-3.731 4.117-3.731 2.014 0 3.591.963 4.484 2.768l-2.365 1.384c-.42-.876-.999-1.419-2.12-1.419-.876 0-1.314.438-1.314.928 0 .561.298.946 2.207 1.524 1.857.561 3.941 1.209 3.941 3.801 0 2.365-1.892 3.766-4.554 3.766-2.575 0-4.221-1.226-4.904-3.03zm10.511-8.321c0-.858.718-1.577 1.577-1.577s1.577.718 1.577 1.577-.718 1.577-1.577 1.577a1.593 1.593 0 0 1-1.577-1.577zm.262 2.347h2.627v8.759h-2.627v-8.759zm17.693 3.381v5.378h-2.627v-5.15c0-.876-.42-1.437-1.261-1.437-.876 0-1.366.613-1.366 1.646v4.94h-2.627v-5.15c0-.876-.42-1.437-1.261-1.437-.876 0-1.367.613-1.367 1.646v4.94h-2.627v-8.759h2.627v.806c.403-.596 1.174-1.051 2.348-1.051 1.033 0 1.804.42 2.294 1.156.491-.701 1.296-1.156 2.54-1.156 2.013.002 3.327 1.439 3.327 3.628zm11.229.999c0 2.61-1.892 4.625-4.187 4.625-1.174 0-2.032-.403-2.61-1.068v4.327h-2.627V56.045h2.627v.824c.578-.666 1.437-1.069 2.61-1.069 2.295 0 4.187 2.015 4.187 4.625zm-2.627 0c0-1.313-.876-2.137-2.084-2.137-1.209 0-2.085.824-2.085 2.137 0 1.314.876 2.137 2.085 2.137 1.208 0 2.084-.823 2.084-2.137zm4.117-8.408h2.627v12.788h-2.627V52.017zm9.003 10.685c.718 0 1.332-.28 1.682-.666l2.102 1.208c-.858 1.191-2.154 1.804-3.818 1.804-2.996 0-4.853-2.014-4.853-4.625 0-2.61 1.892-4.625 4.66-4.625 2.558 0 4.449 1.979 4.449 4.625 0 .368-.035.718-.105 1.051h-6.219c.333.913 1.139 1.228 2.102 1.228zm1.612-3.188c-.28-1.016-1.069-1.384-1.857-1.384-.999 0-1.664.49-1.909 1.384h3.766zm-22.406 10.681v8.759h-2.627v-.824c-.473.648-1.349 1.068-2.505 1.068-1.77 0-3.276-1.261-3.276-3.626v-5.378h2.627v4.993c0 1.086.683 1.594 1.524 1.594.964 0 1.629-.561 1.629-1.805v-4.782l2.628.001zm8.637 6.131c0 2.014-1.752 2.873-3.644 2.873-1.752 0-3.083-.666-3.767-2.084l2.277-1.296c.228.666.718 1.034 1.489 1.034.63 0 .946-.193.946-.543 0-.963-4.309-.456-4.309-3.486 0-1.91 1.611-2.873 3.433-2.873 1.419 0 2.68.631 3.416 1.875l-2.242 1.208c-.246-.455-.596-.771-1.174-.771-.456 0-.736.175-.736.49.002.998 4.311.332 4.311 3.573zm5.676.526c.718 0 1.332-.28 1.682-.666l2.102 1.208c-.858 1.191-2.154 1.804-3.818 1.804-2.996 0-4.853-2.014-4.853-4.625 0-2.61 1.892-4.625 4.66-4.625 2.558 0 4.449 1.979 4.449 4.625 0 .368-.035.718-.105 1.051h-6.219c.333.912 1.139 1.228 2.102 1.228zm1.612-3.188c-.28-1.016-1.069-1.384-1.857-1.384-.999 0-1.664.49-1.909 1.384h3.766zm9.354-3.644v2.978c-1.086-.175-2.628.263-2.628 1.997v3.959h-2.627v-8.759h2.627v1.559c.351-1.173 1.524-1.734 2.628-1.734zM131.138 85.948l6.58-14.804h.658l-6.58 14.804h-.658zm17.849-5.757c0 2.435-1.908 4.293-4.26 4.293-1.596 0-2.862-.823-3.537-2.089v5.198h-.822V76.079h.822v1.908c.674-1.267 1.941-2.089 3.537-2.089 2.352 0 4.26 1.858 4.26 4.293zm-.822 0c0-1.958-1.53-3.503-3.487-3.503s-3.487 1.546-3.487 3.503 1.53 3.504 3.487 3.504 3.487-1.547 3.487-3.504zm10.579.033c0 .131-.016.263-.016.395h-7.452c.198 1.859 1.612 3.076 3.487 3.076 1.349 0 2.369-.625 2.846-1.497l.724.428c-.674 1.119-1.958 1.859-3.586 1.859-2.533 0-4.326-1.81-4.326-4.293 0-2.418 1.743-4.293 4.26-4.293 2.5-.001 4.063 2.071 4.063 4.325zm-7.468-.411h6.613c-.181-2.007-1.596-3.125-3.208-3.125-1.875 0-3.241 1.299-3.405 3.125zm12.964-3.85v.79c-1.415 0-2.747.872-2.747 2.978v4.573h-.822v-8.225h.822v1.612c.559-1.3 1.628-1.728 2.747-1.728zm17.832 3.126v5.214h-.822v-5.214c0-1.563-.905-2.401-2.188-2.401-1.381 0-2.467.921-2.467 3.026v4.589h-.822v-5.214c0-1.563-.839-2.401-2.105-2.401-1.349 0-2.55.921-2.55 3.026v4.589h-.822v-8.225h.822v1.415c.609-1.135 1.596-1.595 2.648-1.595 1.201 0 2.138.592 2.566 1.678.592-1.151 1.645-1.678 2.747-1.678 1.743 0 2.993 1.135 2.993 3.191zm1.764 1.102c0-2.435 1.924-4.293 4.326-4.293 2.385 0 4.31 1.858 4.31 4.293s-1.925 4.293-4.31 4.293c-2.402 0-4.326-1.859-4.326-4.293zm7.796 0c0-1.958-1.513-3.503-3.471-3.503-1.957 0-3.487 1.546-3.487 3.503s1.53 3.504 3.487 3.504c1.958 0 3.471-1.547 3.471-3.504zm9.774-1.003v5.116h-.839v-5.116c0-1.513-.872-2.5-2.418-2.5-1.612 0-2.879 1.053-2.879 3.273v4.343h-.822v-8.225h.822v1.563c.625-1.217 1.678-1.744 2.944-1.744 1.958 0 3.192 1.299 3.192 3.29zm4.081-2.303v5.346c0 1.448.773 1.48 2.451 1.333v.74c-2.155.329-3.29-.197-3.29-2.073v-5.346h-1.809v-.806h1.809v-2.056l.839-.247v2.303h2.451v.806h-2.451zm11.384 2.303v5.116h-.839v-5.116c0-1.513-.872-2.5-2.418-2.5-1.612 0-2.879 1.053-2.879 3.273v4.343h-.822V72.789h.822v4.853c.625-1.217 1.678-1.744 2.944-1.744 1.958 0 3.192 1.299 3.192 3.29zm5.546-4.228l-1.563-.033.872 1.299-.642.378-.806-1.382-.79 1.382-.658-.378.872-1.299-1.563.033v-.708l1.563.033-.872-1.299.658-.378.79 1.365.806-1.365.642.378-.872 1.299 1.563-.033v.708z" fill="#FFF"/><linearGradient id="c" gradientUnits="userSpaceOnUse" x1="3404.327" y1="506.519" x2="3410.502" y2="506.519" gradientTransform="rotate(90 2000.07 -1352.435)"><stop offset="0" stop-color="#fff"/><stop offset=".545" stop-color="#eee"/><stop offset="1" stop-color="#e6e6e6"/></linearGradient><path fill="url(#c)" d="M148.835 53.543c-1.099 4.246-4.157 5.227-7.394 3.86-3-1.247-3.712-1.515-4.484.594l-3.563-1.722c1.098-4.246 4.157-5.227 7.394-3.861 2.999 1.248 3.681 1.485 4.483-.593l3.564 1.722z"/><linearGradient id="d" gradientUnits="userSpaceOnUse" x1="3396.963" y1="490.404" x2="3417.749" y2="490.404" gradientTransform="rotate(90 2000.07 -1352.435)"><stop offset="0" stop-color="#fff"/><stop offset=".545" stop-color="#eee"/><stop offset="1" stop-color="#e6e6e6"/></linearGradient><path fill="url(#d)" d="M162.026 44.458v20.786h-4.75V49.476l-3.682 1.01-1.158-4.069 5.434-1.959h4.156z"/><linearGradient id="e" gradientUnits="userSpaceOnUse" x1="3396.547" y1="473.465" x2="3418.165" y2="473.465" gradientTransform="rotate(90 2000.07 -1352.435)"><stop offset="0" stop-color="#fff"/><stop offset=".545" stop-color="#eee"/><stop offset="1" stop-color="#e6e6e6"/></linearGradient><path fill="url(#e)" d="M165.707 54.851c0-6.414 3.088-10.809 8.462-10.809 5.375 0 8.463 4.395 8.463 10.809s-3.087 10.808-8.463 10.808c-5.375 0-8.462-4.394-8.462-10.808zm12.174 0c0-4.009-1.218-6.176-3.712-6.176s-3.711 2.167-3.711 6.176c0 4.008 1.217 6.176 3.711 6.176 2.495 0 3.712-2.168 3.712-6.176z"/><linearGradient id="f" gradientUnits="userSpaceOnUse" x1="3396.547" y1="454.76" x2="3418.165" y2="454.76" gradientTransform="rotate(90 2000.07 -1352.435)"><stop offset="0" stop-color="#fff"/><stop offset=".545" stop-color="#eee"/><stop offset="1" stop-color="#e6e6e6"/></linearGradient><path fill="url(#f)" d="M184.412 54.851c0-6.414 3.088-10.809 8.462-10.809 5.375 0 8.464 4.395 8.464 10.809s-3.088 10.808-8.464 10.808c-5.374 0-8.462-4.394-8.462-10.808zm12.175 0c0-4.009-1.218-6.176-3.713-6.176-2.493 0-3.71 2.167-3.71 6.176 0 4.008 1.217 6.176 3.71 6.176 2.495 0 3.713-2.168 3.713-6.176z"/><linearGradient id="g" gradientUnits="userSpaceOnUse" x1="3393.995" y1="433.024" x2="3420.717" y2="433.024" gradientTransform="rotate(90 2000.07 -1352.435)"><stop offset="0" stop-color="#fff"/><stop offset=".545" stop-color="#eee"/><stop offset="1" stop-color="#e6e6e6"/></linearGradient><path fill="url(#g)" d="M216.066 65.599v2.613h-2.079v-2.584c-3.355-.237-5.85-1.959-6.919-4.81l4.097-2.375c.624 1.425 1.485 2.256 2.822 2.494v-4.098c-.118-.059-.267-.088-.386-.147-2.583-1.04-5.671-2.495-5.671-6.474 0-3.86 2.909-5.85 6.057-6.146v-2.583h2.079v2.643c2.554.326 4.692 1.692 5.85 4.305l-4.009 2.346c-.385-1.039-.98-1.633-1.841-1.93v4.009c2.583 1.099 6.087 2.079 6.087 6.414 0 3.711-2.554 5.908-6.087 6.323zm-2.079-13.718v-3.118c-.861.208-1.306.771-1.306 1.484 0 .565.267 1.04 1.306 1.634zm3.415 7.453c0-.743-.445-1.188-1.336-1.633v3.177c1.009-.267 1.336-.921 1.336-1.544z"/><path opacity=".5" d="M337.956 137.704c0-5.329 2.87-9.988 7.147-12.517h-13.516a8.672 8.672 0 0 1-6.407 6.407v12.221a8.672 8.672 0 0 1 6.407 6.406h13.516c-4.277-2.53-7.147-7.188-7.147-12.517zm29.065 0c0 5.329-2.869 9.988-7.146 12.517h13.516a8.667 8.667 0 0 1 6.407-6.406v-12.221a8.67 8.67 0 0 1-6.407-6.407h-13.516c4.277 2.528 7.146 7.188 7.146 12.517z"/><linearGradient id="h" gradientUnits="userSpaceOnUse" x1="2465.424" y1="-3062.79" x2="2490.461" y2="-3062.79" gradientTransform="rotate(-90 3015.463 -399.816)"><stop offset="0" stop-color="#4b48bf"/><stop offset="1" stop-color="#a14b8a"/></linearGradient><circle fill="url(#h)" cx="352.489" cy="137.704" r="12.519"/><linearGradient id="i" gradientUnits="userSpaceOnUse" x1="2379.823" y1="-2761.81" x2="2408.886" y2="-2761.81" gradientTransform="rotate(-90 2823.121 -292.99)"><stop offset="0" stop-color="#4b48bf"/><stop offset="1" stop-color="#a14b8a"/></linearGradient><path fill="url(#i)" d="M324.978 121.245h58.647v29.064h-58.647z"/><path opacity=".2" d="M339.769 135.777c0-5.329 2.87-9.987 7.147-12.517H333.4a8.672 8.672 0 0 1-6.407 6.407v12.222a8.67 8.67 0 0 1 6.407 6.406h13.516c-4.277-2.53-7.147-7.189-7.147-12.518zm29.065 0c0 5.33-2.869 9.988-7.146 12.518h13.516a8.667 8.667 0 0 1 6.407-6.406v-12.222a8.67 8.67 0 0 1-6.407-6.407h-13.516c4.277 2.53 7.146 7.188 7.146 12.517z"/><path opacity=".1" fill="#FFF" d="M324.978 150.466v-29.221h58.812z"/><linearGradient id="j" gradientUnits="userSpaceOnUse" x1="2467.35" y1="-3060.977" x2="2492.388" y2="-3060.977" gradientTransform="rotate(-90 3015.463 -399.816)"><stop offset="0" stop-color="#4b48bf"/><stop offset="1" stop-color="#a14b8a"/></linearGradient><circle fill="url(#j)" cx="354.302" cy="135.778" r="12.519"/><path fill="#FFF" d="M359.096 138.453c0 2.904-2.263 4.413-4.809 4.413-2.094 0-3.904-.886-4.715-2.828l2.603-1.51c.302.868.868 1.396 2.112 1.396s1.792-.66 1.792-1.472c0-.811-.547-1.471-1.697-1.471h-4.13l.547-7.582h7.638v2.829h-4.809l-.132 1.811h1.075c2.45.001 4.525 1.51 4.525 4.414z"/><path fill="#FFF" d="M334.034 141.396v1.273h-.665v-1.26c-1.556-.07-2.716-.792-3.154-2.008l.65-.368c.326.991 1.188 1.584 2.504 1.656v-4.202c-1.443-.51-2.688-1.032-2.688-2.716 0-1.471 1.188-2.462 2.688-2.56v-1.273h.665v1.273c1.118.127 2.066.721 2.504 1.782l-.637.354c-.325-.806-.962-1.287-1.867-1.4v4.018c1.443.509 2.745 1.075 2.745 2.758 0 1.485-1.132 2.517-2.745 2.673zm-.665-5.673v-3.791c-1.16.099-1.939.849-1.939 1.839 0 1.118.822 1.542 1.939 1.952zm2.645 2.999c0-1.132-.82-1.598-1.98-2.009v3.947c1.274-.14 1.98-.919 1.98-1.938zm38.687 2.674v1.273h-.665v-1.26c-1.556-.07-2.716-.792-3.154-2.008l.65-.368c.326.991 1.188 1.584 2.504 1.656v-4.202c-1.443-.51-2.688-1.032-2.688-2.716 0-1.471 1.188-2.462 2.688-2.56v-1.273h.665v1.273c1.118.127 2.066.721 2.504 1.782l-.637.354c-.325-.806-.962-1.287-1.868-1.4v4.018c1.443.509 2.745 1.075 2.745 2.758.001 1.485-1.13 2.517-2.744 2.673zm-.664-5.673v-3.791c-1.16.099-1.938.849-1.938 1.839-.001 1.118.82 1.542 1.938 1.952zm2.645 2.999c0-1.132-.82-1.598-1.98-2.009v3.947c1.273-.14 1.98-.919 1.98-1.938z" opacity=".7"/><path d="M225.245 138.399l1.952-1.132c.354.821.962 1.372 2.079 1.372 1.075 0 1.344-.424 1.344-.806 0-.608-.565-.849-2.051-1.259-1.471-.41-2.914-1.118-2.914-3.013 0-1.91 1.613-3.013 3.324-3.013 1.626 0 2.9.778 3.621 2.235l-1.91 1.118c-.339-.708-.806-1.146-1.711-1.146-.707 0-1.061.354-1.061.75 0 .453.241.764 1.782 1.23 1.5.453 3.183.976 3.183 3.069 0 1.91-1.527 3.042-3.678 3.042-2.079 0-3.409-.99-3.96-2.447zm8.56-1.287c0-2.108 1.599-3.734 3.749-3.734 1.372 0 2.588.721 3.197 1.811l-1.853 1.075c-.241-.495-.75-.792-1.372-.792-.919 0-1.599.665-1.599 1.641s.679 1.641 1.599 1.641c.622 0 1.146-.297 1.372-.792l1.853 1.061c-.608 1.103-1.811 1.825-3.197 1.825-2.151-.002-3.749-1.629-3.749-3.736zm14.911-3.536v7.072h-2.122v-.665c-.467.538-1.16.863-2.107.863-1.853 0-3.381-1.627-3.381-3.734 0-2.108 1.528-3.734 3.381-3.734.948 0 1.641.325 2.107.863v-.665h2.122zm-2.122 3.536c0-1.061-.708-1.726-1.683-1.726-.976 0-1.684.665-1.684 1.726s.708 1.726 1.684 1.726c.976-.001 1.683-.666 1.683-1.726zm14.289-.806v4.342h-2.122v-4.159c0-.707-.34-1.16-1.019-1.16-.708 0-1.104.495-1.104 1.33v3.989h-2.122v-4.159c0-.707-.339-1.16-1.019-1.16-.707 0-1.103.495-1.103 1.33v3.989h-2.122v-7.072h2.122v.65c.325-.481.947-.849 1.895-.849.835 0 1.457.339 1.853.934.396-.566 1.047-.934 2.051-.934 1.629 0 2.69 1.161 2.69 2.929zm4.786-4.626c0-.693.58-1.273 1.273-1.273s1.273.58 1.273 1.273-.58 1.273-1.273 1.273-1.273-.58-1.273-1.273zm.212 1.896h2.122v7.072h-2.122v-7.072zm9.097 4.95c0 1.626-1.415 2.32-2.942 2.32-1.415 0-2.49-.538-3.042-1.684l1.839-1.046c.184.537.58.834 1.203.834.509 0 .764-.156.764-.438 0-.778-3.479-.368-3.479-2.815 0-1.542 1.301-2.32 2.772-2.32 1.146 0 2.164.509 2.758 1.514l-1.811.976c-.198-.368-.481-.623-.947-.623-.368 0-.594.142-.594.396-.001.807 3.479.269 3.479 2.886zm6.197 0c0 1.626-1.415 2.32-2.942 2.32-1.415 0-2.49-.538-3.042-1.684l1.839-1.046c.184.537.58.834 1.203.834.509 0 .764-.156.764-.438 0-.778-3.479-.368-3.479-2.815 0-1.542 1.301-2.32 2.772-2.32 1.146 0 2.164.509 2.758 1.514l-1.811.976c-.198-.368-.481-.623-.947-.623-.368 0-.594.142-.594.396-.001.807 3.479.269 3.479 2.886zm7.754-4.95v7.072h-2.122v-.665c-.382.523-1.089.863-2.022.863-1.429 0-2.646-1.019-2.646-2.928v-4.342h2.122v4.031c0 .877.552 1.287 1.23 1.287.778 0 1.315-.453 1.315-1.457v-3.861h2.123zm1.346-1.896c0-.693.58-1.273 1.273-1.273s1.273.58 1.273 1.273-.58 1.273-1.273 1.273c-.694 0-1.273-.58-1.273-1.273zm.212 1.896h2.122v7.072h-2.122v-7.072zm10.468 2.73v4.342h-2.122v-4.031c0-.877-.552-1.287-1.23-1.287-.778 0-1.315.453-1.315 1.457v3.861h-2.122v-7.072h2.122v.665c.382-.523 1.089-.863 2.022-.863 1.429-.001 2.645 1.018 2.645 2.928zm8.716-2.73v6.719c0 2.376-1.853 3.38-3.734 3.38-1.471 0-2.702-.551-3.352-1.711l1.811-1.047c.269.495.679.891 1.612.891.99 0 1.599-.509 1.599-1.513v-.651c-.467.58-1.146.919-2.065.919-2.008 0-3.479-1.641-3.479-3.593s1.471-3.593 3.479-3.593c.919 0 1.599.339 2.065.919v-.721l2.064.001zm-2.065 3.394c0-.976-.708-1.641-1.711-1.641-1.004 0-1.712.665-1.712 1.641s.708 1.641 1.712 1.641c1.003 0 1.711-.665 1.711-1.641z" fill="#4B48BF"/><path opacity=".5" d="M338.663 182.461c0-5.329 2.869-9.988 7.146-12.518h-13.516a8.672 8.672 0 0 1-6.407 6.407v12.221a8.675 8.675 0 0 1 6.407 6.406h13.516a14.52 14.52 0 0 1-7.146-12.516zm29.065 0c0 5.329-2.869 9.989-7.146 12.518h13.516a8.672 8.672 0 0 1 6.407-6.407v-12.221a8.67 8.67 0 0 1-6.407-6.407h-13.516c4.277 2.53 7.146 7.188 7.146 12.517z"/><linearGradient id="k" gradientUnits="userSpaceOnUse" x1="2420.666" y1="-3062.084" x2="2445.704" y2="-3062.084" gradientTransform="rotate(-90 3015.463 -399.816)"><stop offset="0" stop-color="#4b48bf"/><stop offset="1" stop-color="#a14b8a"/></linearGradient><circle fill="url(#k)" cx="353.195" cy="182.462" r="12.519"/><linearGradient id="l" gradientUnits="userSpaceOnUse" x1="2335.065" y1="-2761.102" x2="2364.129" y2="-2761.102" gradientTransform="rotate(-90 2823.121 -292.99)"><stop offset="0" stop-color="#4b48bf"/><stop offset="1" stop-color="#a14b8a"/></linearGradient><path fill="url(#l)" d="M325.685 166.002h58.647v29.064h-58.647z"/><path opacity=".2" d="M340.476 180.535c0-5.329 2.869-9.987 7.146-12.518h-13.516a8.669 8.669 0 0 1-6.407 6.407v12.222a8.67 8.67 0 0 1 6.407 6.405h13.516c-4.277-2.528-7.146-7.187-7.146-12.516zm29.065 0c0 5.33-2.869 9.988-7.147 12.518h13.517a8.668 8.668 0 0 1 6.406-6.406v-12.222a8.669 8.669 0 0 1-6.406-6.407h-13.517c4.278 2.529 7.147 7.188 7.147 12.517z"/><path opacity=".1" fill="#FFF" d="M325.685 195.225v-29.223h58.812z"/><linearGradient id="m" gradientUnits="userSpaceOnUse" x1="2422.592" y1="-3060.269" x2="2447.631" y2="-3060.269" gradientTransform="rotate(-90 3015.463 -399.816)"><stop offset="0" stop-color="#4b48bf"/><stop offset="1" stop-color="#a14b8a"/></linearGradient><circle fill="url(#m)" cx="355.009" cy="180.535" r="12.519"/><path fill="#FFF" d="M357.57 174.158v13.202h-3.018v-10.015l-2.338.642-.736-2.584 3.452-1.245h2.64z"/><path fill="#FFF" d="M334.74 186.154v1.273h-.665v-1.259c-1.557-.07-2.716-.792-3.154-2.009l.65-.367c.326.99 1.188 1.584 2.504 1.655v-4.202c-1.443-.509-2.688-1.032-2.688-2.716 0-1.472 1.188-2.462 2.688-2.56v-1.273h.665v1.273c1.118.126 2.066.721 2.504 1.782l-.637.353c-.325-.806-.962-1.287-1.868-1.4v4.018c1.444.509 2.745 1.075 2.745 2.758.001 1.486-1.13 2.518-2.744 2.674zm-.664-5.674v-3.791c-1.16.1-1.938.849-1.938 1.839-.001 1.119.82 1.543 1.938 1.952zm2.645 3c0-1.132-.82-1.598-1.98-2.009v3.947c1.273-.141 1.98-.919 1.98-1.938zm38.687 2.674v1.273h-.664v-1.259c-1.556-.07-2.717-.792-3.155-2.009l.65-.367c.326.99 1.188 1.584 2.504 1.655v-4.202c-1.443-.509-2.688-1.032-2.688-2.716 0-1.472 1.188-2.462 2.688-2.56v-1.273h.664v1.273c1.118.126 2.066.721 2.504 1.782l-.637.353c-.325-.806-.962-1.287-1.868-1.4v4.018c1.444.509 2.745 1.075 2.745 2.758.002 1.486-1.13 2.518-2.743 2.674zm-.664-5.674v-3.791c-1.161.1-1.938.849-1.938 1.839-.001 1.119.82 1.543 1.938 1.952zm2.645 3c0-1.132-.82-1.598-1.981-2.009v3.947c1.274-.141 1.981-.919 1.981-1.938z" opacity=".7"/><path d="M224.008 178.898c0 1.881-1.513 3.395-3.465 3.395h-1.485v3.112h-2.263v-9.901h3.749c1.951 0 3.464 1.514 3.464 3.394zm-2.263 0c0-.721-.509-1.273-1.202-1.273h-1.485v2.546h1.485c.693.001 1.202-.551 1.202-1.273zm7.429-.707v2.405c-.877-.142-2.122.212-2.122 1.612v3.197h-2.122v-7.072h2.122v1.259c.283-.948 1.231-1.401 2.122-1.401zm.426 3.678c0-2.108 1.669-3.734 3.749-3.734 2.079 0 3.749 1.626 3.749 3.734 0 2.107-1.669 3.734-3.749 3.734-2.08.001-3.749-1.626-3.749-3.734zm5.375 0c0-1.004-.707-1.669-1.626-1.669s-1.627.665-1.627 1.669.708 1.669 1.627 1.669 1.626-.664 1.626-1.669zm3.327-3.536h2.122v7.072c0 2.207-1.019 3.154-3.253 3.027v-2.037c.778.042 1.132-.241 1.132-.99l-.001-7.072zm-.213-1.895c0-.693.58-1.273 1.273-1.273s1.273.58 1.273 1.273-.58 1.273-1.273 1.273a1.287 1.287 0 0 1-1.273-1.273zm7.484 7.27c.58 0 1.075-.227 1.358-.538l1.698.976c-.693.962-1.74 1.457-3.084 1.457-2.418 0-3.918-1.627-3.918-3.734 0-2.108 1.528-3.734 3.763-3.734 2.065 0 3.593 1.599 3.593 3.734 0 .297-.028.58-.085.849h-5.021c.268.735.918.99 1.696.99zm1.301-2.575c-.226-.82-.863-1.117-1.499-1.117-.806 0-1.344.396-1.542 1.117h3.041zm2.889.736c0-2.108 1.599-3.734 3.749-3.734 1.372 0 2.588.721 3.197 1.811l-1.853 1.075c-.241-.495-.75-.792-1.372-.792-.919 0-1.599.665-1.599 1.641s.679 1.641 1.599 1.641c.622 0 1.146-.297 1.372-.792l1.853 1.063c-.608 1.103-1.811 1.825-3.197 1.825-2.151-.003-3.749-1.63-3.749-3.738zm10.483-1.499v2.504c0 .608.523.665 1.457.608v1.924c-2.772.283-3.579-.552-3.579-2.532v-2.504h-1.131v-2.037h1.131v-1.344l2.122-.637v1.98h1.457v2.037l-1.457.001zm6.128-3.932c0-.693.58-1.273 1.273-1.273s1.273.58 1.273 1.273-.58 1.273-1.273 1.273a1.287 1.287 0 0 1-1.273-1.273zm.211 1.895h2.122v7.072h-2.122v-7.072zm9.097 4.951c0 1.626-1.415 2.32-2.942 2.32-1.415 0-2.49-.538-3.042-1.684l1.839-1.046c.184.537.58.834 1.203.834.509 0 .764-.156.764-.438 0-.778-3.479-.368-3.479-2.815 0-1.542 1.301-2.32 2.772-2.32 1.146 0 2.164.509 2.758 1.514l-1.811.976c-.198-.368-.48-.623-.947-.623-.368 0-.594.142-.594.396 0 .806 3.479.269 3.479 2.886zm6.197 0c0 1.626-1.415 2.32-2.942 2.32-1.415 0-2.49-.538-3.042-1.684l1.839-1.046c.184.537.58.834 1.203.834.509 0 .764-.156.764-.438 0-.778-3.479-.368-3.479-2.815 0-1.542 1.301-2.32 2.772-2.32 1.146 0 2.164.509 2.758 1.514l-1.811.976c-.198-.368-.48-.623-.947-.623-.368 0-.594.142-.594.396 0 .806 3.479.269 3.479 2.886zm7.754-4.951v7.072h-2.122v-.665c-.382.523-1.089.863-2.022.863-1.429 0-2.645-1.019-2.645-2.928v-4.342h2.122v4.031c0 .877.552 1.287 1.23 1.287.778 0 1.315-.453 1.315-1.457v-3.861h2.122zm1.346-1.895c0-.693.58-1.273 1.273-1.273s1.273.58 1.273 1.273-.58 1.273-1.273 1.273a1.287 1.287 0 0 1-1.273-1.273zm.212 1.895h2.122v7.072h-2.122v-7.072zm10.469 2.73v4.342h-2.122v-4.031c0-.877-.552-1.287-1.23-1.287-.778 0-1.315.453-1.315 1.457v3.861h-2.122v-7.072h2.122v.665c.382-.523 1.089-.863 2.022-.863 1.428 0 2.645 1.018 2.645 2.928zm8.715-2.73v6.719c0 2.376-1.853 3.38-3.734 3.38-1.471 0-2.702-.551-3.353-1.711l1.811-1.047c.269.495.679.891 1.612.891.99 0 1.599-.509 1.599-1.513v-.651c-.467.58-1.146.919-2.065.919-2.008 0-3.479-1.641-3.479-3.593s1.471-3.593 3.479-3.593c.919 0 1.599.339 2.065.919v-.721l2.065.001zm-2.064 3.395c0-.976-.708-1.641-1.711-1.641-1.004 0-1.712.665-1.712 1.641s.708 1.641 1.712 1.641c1.003 0 1.711-.665 1.711-1.641z" fill="#4B48BF"/><path opacity=".5" d="M338.192 227.219c0-5.328 2.869-9.988 7.146-12.518h-13.516a8.669 8.669 0 0 1-6.407 6.406v12.223a8.67 8.67 0 0 1 6.407 6.404h13.516a14.519 14.519 0 0 1-7.146-12.515zm29.065 0c0 5.328-2.869 9.986-7.146 12.518h13.516a8.668 8.668 0 0 1 6.407-6.405v-12.224a8.668 8.668 0 0 1-6.407-6.405H360.11a14.52 14.52 0 0 1 7.147 12.516z"/><linearGradient id="n" gradientUnits="userSpaceOnUse" x1="2375.909" y1="-3062.554" x2="2400.947" y2="-3062.554" gradientTransform="rotate(-90 3015.463 -399.816)"><stop offset="0" stop-color="#4b48bf"/><stop offset="1" stop-color="#a14b8a"/></linearGradient><circle fill="url(#n)" cx="352.725" cy="227.219" r="12.519"/><linearGradient id="o" gradientUnits="userSpaceOnUse" x1="2290.307" y1="-2761.573" x2="2319.372" y2="-2761.573" gradientTransform="rotate(-90 2823.121 -292.99)"><stop offset="0" stop-color="#4b48bf"/><stop offset="1" stop-color="#a14b8a"/></linearGradient><path fill="url(#o)" d="M325.214 210.76h58.647v29.064h-58.647z"/><path opacity=".2" d="M340.004 225.292c0-5.33 2.87-9.987 7.147-12.519h-13.516a8.667 8.667 0 0 1-6.407 6.406v12.223a8.67 8.67 0 0 1 6.407 6.406h13.516a14.521 14.521 0 0 1-7.147-12.516zm29.066 0c0 5.33-2.87 9.988-7.147 12.519h13.516a8.673 8.673 0 0 1 6.406-6.408V219.18a8.666 8.666 0 0 1-6.406-6.406h-13.516c4.278 2.531 7.147 7.189 7.147 12.518z"/><path opacity=".1" fill="#FFF" d="M325.214 239.98v-29.22h58.811z"/><linearGradient id="p" gradientUnits="userSpaceOnUse" x1="2377.834" y1="-3060.741" x2="2402.874" y2="-3060.741" gradientTransform="rotate(-90 3015.463 -399.816)"><stop offset="0" stop-color="#4b48bf"/><stop offset="1" stop-color="#a14b8a"/></linearGradient><circle fill="url(#p)" cx="354.538" cy="225.293" r="12.52"/><path fill="#FFF" d="M359.465 228.402c0 2.414-1.735 3.979-4.847 3.979s-4.847-1.565-4.847-3.979c0-1.301.604-2.451 1.716-3.168-.773-.604-1.264-1.471-1.264-2.659 0-2.565 1.961-3.923 4.394-3.923s4.395 1.357 4.395 3.923c0 1.188-.49 2.056-1.264 2.659 1.114.717 1.717 1.868 1.717 3.168zm-3.017-.433c0-.999-.773-1.584-1.83-1.584s-1.829.585-1.829 1.584c0 1 .773 1.585 1.829 1.585s1.83-.585 1.83-1.585zm-3.206-5.205c0 .735.528 1.282 1.376 1.282.849 0 1.377-.547 1.377-1.282s-.528-1.282-1.377-1.282c-.848-.001-1.376.546-1.376 1.282z"/><path opacity=".7" fill="#FFF" d="M334.269 230.913v1.272h-.665v-1.26c-1.556-.07-2.716-.793-3.154-2.01l.65-.367c.326.99 1.188 1.584 2.504 1.656v-4.203c-1.443-.51-2.688-1.031-2.688-2.715 0-1.473 1.188-2.461 2.688-2.563v-1.271h.665v1.271c1.118.127 2.066.723 2.504 1.782l-.637.354c-.325-.807-.962-1.286-1.868-1.399v4.019c1.443.51 2.745 1.074 2.745 2.758.001 1.488-1.13 2.517-2.744 2.676zm-.665-5.675v-3.79c-1.16.098-1.938.848-1.938 1.838 0 1.118.821 1.543 1.938 1.952zm2.646 2.998c0-1.131-.82-1.598-1.98-2.008v3.945c1.273-.137 1.98-.917 1.98-1.937zm38.687 2.677v1.272h-.665v-1.26c-1.556-.07-2.716-.793-3.154-2.01l.649-.367c.326.99 1.188 1.584 2.504 1.656v-4.203c-1.443-.51-2.688-1.031-2.688-2.715 0-1.473 1.188-2.461 2.688-2.563v-1.271h.665v1.271c1.118.127 2.066.723 2.504 1.782l-.637.354c-.325-.807-.962-1.286-1.867-1.399v4.019c1.443.51 2.745 1.074 2.745 2.758.001 1.488-1.131 2.517-2.744 2.676zm-.665-5.675v-3.79c-1.16.098-1.938.848-1.938 1.838 0 1.118.821 1.543 1.938 1.952zm2.645 2.998c0-1.131-.82-1.598-1.98-2.008v3.945c1.274-.137 1.98-.917 1.98-1.937z"/><path d="M195.352 223.657c0 1.881-1.513 3.395-3.465 3.395h-1.485v3.111h-2.263v-9.899h3.749c1.951-.002 3.464 1.511 3.464 3.393zm-2.263 0c0-.722-.509-1.273-1.202-1.273h-1.485v2.546h1.485c.693 0 1.202-.553 1.202-1.273zm10.017-.567v7.072h-2.122v-.664c-.382.521-1.089.861-2.022.861-1.429 0-2.646-1.019-2.646-2.928v-4.343h2.122v4.031c0 .877.552 1.287 1.23 1.287.778 0 1.315-.453 1.315-1.457v-3.861l2.123.002zm9.168 3.537c0 2.105-1.527 3.732-3.38 3.732-.948 0-1.641-.324-2.107-.861v.664h-2.122v-9.9h2.122v3.494c.467-.539 1.16-.863 2.107-.863 1.853 0 3.38 1.627 3.38 3.734zm-2.121 0c0-1.063-.707-1.727-1.683-1.727-.976 0-1.683.664-1.683 1.727 0 1.061.707 1.727 1.683 1.727.976 0 1.683-.666 1.683-1.727zm3.326-6.791h2.122v10.326h-2.122v-10.326zm3.467 1.359c0-.692.58-1.272 1.273-1.272s1.273.58 1.273 1.272c0 .693-.58 1.271-1.273 1.271a1.283 1.283 0 0 1-1.273-1.271zm.212 1.895h2.122v7.072h-2.122v-7.072zm3.325 3.537c0-2.107 1.599-3.734 3.749-3.734 1.372 0 2.588.722 3.197 1.812l-1.853 1.075c-.241-.495-.75-.793-1.372-.793-.919 0-1.599.666-1.599 1.642 0 .978.679 1.642 1.599 1.642.622 0 1.146-.297 1.372-.791l1.853 1.061c-.608 1.104-1.811 1.825-3.197 1.825-2.15-.005-3.749-1.632-3.749-3.739zm14.911-3.537v7.072h-2.122v-.664c-.467.537-1.16.861-2.107.861-1.853 0-3.381-1.627-3.381-3.732 0-2.107 1.528-3.734 3.381-3.734.947 0 1.641.324 2.107.863v-.666h2.122zm-2.122 3.537c0-1.063-.707-1.727-1.683-1.727s-1.684.664-1.684 1.727c0 1.061.708 1.727 1.684 1.727s1.683-.666 1.683-1.727zm6.368-1.5v2.504c0 .607.523.664 1.457.607v1.924c-2.772.283-3.579-.553-3.579-2.531v-2.504h-1.131v-2.037h1.131v-1.344l2.122-.639v1.979h1.457v2.037h-1.457v.004zm2.449-3.932c0-.692.58-1.272 1.273-1.272s1.273.58 1.273 1.272c0 .693-.58 1.271-1.273 1.271a1.282 1.282 0 0 1-1.273-1.271zm.212 1.895h2.122v7.072h-2.122v-7.072zm3.325 3.537c0-2.107 1.669-3.734 3.749-3.734 2.079 0 3.748 1.627 3.748 3.734 0 2.105-1.669 3.732-3.748 3.732-2.08.002-3.749-1.625-3.749-3.732zm5.375 0c0-1.004-.707-1.67-1.626-1.67s-1.627.666-1.627 1.67.708 1.668 1.627 1.668 1.626-.664 1.626-1.668zm10.116-.807v4.343h-2.122v-4.031c0-.877-.552-1.287-1.23-1.287-.778 0-1.315.453-1.315 1.457v3.861h-2.122v-7.072h2.122v.666c.382-.522 1.089-.862 2.022-.862 1.429-.002 2.645 1.016 2.645 2.925zm4.785-4.625c0-.692.58-1.272 1.273-1.272s1.273.58 1.273 1.272c0 .693-.58 1.271-1.273 1.271a1.283 1.283 0 0 1-1.273-1.271zm.212 1.895h2.122v7.072h-2.122v-7.072zm9.096 4.952c0 1.627-1.415 2.319-2.942 2.319-1.415 0-2.49-.536-3.042-1.684l1.839-1.047c.184.537.58.834 1.203.834.509 0 .764-.154.764-.438 0-.777-3.479-.367-3.479-2.814 0-1.543 1.301-2.32 2.772-2.32 1.146 0 2.164.51 2.758 1.515l-1.811.977c-.198-.368-.48-.622-.947-.622-.368 0-.594.141-.594.396 0 .803 3.479.266 3.479 2.884zm6.198 0c0 1.627-1.415 2.319-2.942 2.319-1.415 0-2.49-.536-3.042-1.684l1.839-1.047c.184.537.58.834 1.203.834.509 0 .764-.154.764-.438 0-.777-3.479-.367-3.479-2.814 0-1.543 1.301-2.32 2.772-2.32 1.146 0 2.164.51 2.758 1.515l-1.811.977c-.198-.368-.48-.622-.947-.622-.368 0-.594.141-.594.396-.001.803 3.479.266 3.479 2.884zm7.753-4.952v7.072h-2.122v-.664c-.382.521-1.089.861-2.022.861-1.429 0-2.645-1.019-2.645-2.928v-4.343h2.122v4.031c0 .877.552 1.287 1.23 1.287.778 0 1.315-.453 1.315-1.457v-3.861l2.122.002zm1.347-1.895c0-.692.58-1.272 1.273-1.272s1.273.58 1.273 1.272c0 .693-.58 1.271-1.273 1.271a1.282 1.282 0 0 1-1.273-1.271zm.212 1.895h2.122v7.072h-2.122v-7.072zm10.468 2.73v4.343h-2.122v-4.031c0-.877-.552-1.287-1.23-1.287-.778 0-1.315.453-1.315 1.457v3.861h-2.122v-7.072h2.122v.666c.382-.522 1.089-.862 2.022-.862 1.429-.002 2.645 1.016 2.645 2.925zm8.716-2.73v6.721c0 2.375-1.853 3.379-3.734 3.379-1.471 0-2.702-.551-3.353-1.711l1.811-1.047c.269.494.679.892 1.612.892.99 0 1.599-.509 1.599-1.513v-.651c-.467.58-1.146.92-2.065.92-2.008 0-3.479-1.642-3.479-3.595 0-1.95 1.471-3.592 3.479-3.592.919 0 1.599.338 2.065.918v-.721h2.065zm-2.065 3.394c0-.977-.708-1.641-1.711-1.641-1.004 0-1.712.664-1.712 1.641 0 .978.708 1.642 1.712 1.642 1.003-.001 1.711-.665 1.711-1.642z" fill="#4B48BF"/><linearGradient id="q" gradientUnits="userSpaceOnUse" x1="343.736" y1="265.536" x2="698.221" y2="265.536" gradientTransform="translate(-290.262 -232.956)"><stop offset="0" stop-color="#4b48bf"/><stop offset="1" stop-color="#5248bb" stop-opacity="0"/></linearGradient><path fill="url(#q)" d="M399.875 0H53.474L407.96 65.16V8.085A8.085 8.085 0 0 0 399.875 0z"/><linearGradient id="r" gradientUnits="userSpaceOnUse" x1="3084.113" y1="1060.664" x2="3149.479" y2="1060.664" gradientTransform="rotate(90 2234.765 -819.56)"><stop offset="0" stop-color="#fff"/><stop offset="1" stop-color="#fff" stop-opacity="0"/></linearGradient><path fill="url(#r)" d="M328.564 94.932c.007-4.351.022-8.701-.002-13.052-.011-1.818.604-3.368 1.796-4.708 1.266-1.424 2.838-2.428 4.538-3.243 3.772-1.809 7.803-2.667 11.917-3.204.14-.019.24.01.348.111 1.932 1.82 3.868 3.635 5.809 5.447.149.138.136.21-.002.345-.941.93-1.868 1.874-2.81 2.803-.297.292-.431.62-.343 1.032.108.298.255.56.575.676-.043.11.056.146.109.201.306.31.616.616.924.923l.729.726c.286.192.314.444.225.763-.107.389-.162.791-.24 1.188-.042.05-.039.109-.036.168-.091.406-.187.811-.273 1.218-.604 2.888-1.21 5.775-1.803 8.665-.009.047-.023.079-.036.112h2.025a.514.514 0 0 1 .016-.138c.432-2.021.851-4.044 1.274-6.067l.579-2.781c.018-.192.16-.359.118-.563l.382-1.852c.056-.275.161-.544.121-.833a.757.757 0 0 0-.22-.524c-.229-.25-.457-.503-.728-.713-.18-.201-.342-.421-.585-.557-.167-.297-.453-.485-.68-.728-.102-.108-.102-.167.002-.269.712-.706 1.422-1.415 2.126-2.128.046-.046.084-.068.123-.074.038.005.076.027.123.074.705.713 1.414 1.422 2.126 2.128.104.102.104.16.002.269-.228.242-.513.431-.68.728-.243.136-.405.355-.585.557-.27.21-.498.464-.728.713a.753.753 0 0 0-.22.524c-.04.289.064.558.12.833l.382 1.852c-.042.204.1.371.118.563l.579 2.781c.423 2.022.841 4.046 1.274 6.067a.564.564 0 0 1 .016.138h2.025a.509.509 0 0 1-.036-.112c-.594-2.89-1.199-5.777-1.804-8.665-.085-.408-.182-.812-.272-1.218.002-.06.006-.118-.036-.168-.078-.397-.133-.799-.24-1.188-.089-.319-.06-.571.226-.763l.728-.726c.309-.308.618-.614.924-.923.054-.054.152-.091.109-.201.32-.116.467-.378.574-.676.088-.412-.045-.739-.342-1.032-.943-.929-1.869-1.873-2.811-2.803-.138-.134-.15-.207-.002-.345 1.941-1.812 3.877-3.626 5.809-5.447a.378.378 0 0 1 .348-.111c4.115.538 8.146 1.395 11.917 3.204 1.7.815 3.272 1.819 4.539 3.243 1.192 1.34 1.807 2.89 1.795 4.708-.018 3.282-.014 8.863-.008 13.275h1.967V81.637c0-.532-.044-1.06-.145-1.584-.401-2.08-1.521-3.736-3.065-5.134-1.728-1.566-3.752-2.645-5.9-3.507-3.469-1.394-7.097-2.157-10.792-2.626-.225-.029-.311-.083-.308-.334.016-1.295.01-2.59.003-3.885 0-.165.051-.275.167-.387a20.29 20.29 0 0 0 2.624-3.114c.231-.314.463-.631.644-.98.34-.488.64-1 .901-1.535.446-.708.791-1.466 1.102-2.241.071-.162.145-.321.211-.483.925-2.273 1.591-4.614 1.748-7.072.079-1.25.063-2.502.043-3.754h.021c-.29-8.452-7.034-15.212-15.315-15.212-8.237 0-14.686 6.688-15.041 15.076h-.005c-.001.036 0 .072-.002.108l-.001.028h.001c-.02 1.252-.037 2.504.043 3.754.157 2.458.823 4.799 1.748 7.072.066.162.14.321.211.483.312.774.656 1.533 1.102 2.241.261.535.562 1.046.901 1.535.181.349.412.666.644.98a20.186 20.186 0 0 0 2.624 3.114.482.482 0 0 1 .167.387 239.58 239.58 0 0 0 .003 3.885c.002.251-.083.306-.308.334-3.696.469-7.324 1.233-10.793 2.626-2.147.862-4.172 1.941-5.899 3.507-1.543 1.398-2.663 3.054-3.064 5.134a8.263 8.263 0 0 0-.145 1.584v13.466h1.973a.843.843 0 0 1-.013-.171zm31.602-25.146a1900.588 1900.588 0 0 0-5.476 5.141c-.059.057-.105.081-.149.086-.045-.005-.091-.029-.15-.086-1.821-1.718-3.648-3.43-5.476-5.141a.382.382 0 0 1-.136-.315c.006-.54.001-1.08.001-1.621 0-.559.006-1.118-.001-1.676-.002-.19.034-.233.212-.123.356.22.715.438 1.088.627 1.417.723 2.893 1.123 4.442 1.126v.002l.019-.001.019.001v-.002c1.549-.004 3.027-.404 4.443-1.126.372-.188.731-.407 1.087-.627.178-.11.215-.067.212.123-.006.559-.001 1.117-.001 1.676 0 .541-.004 1.081.002 1.621a.38.38 0 0 1-.136.315zm-14.247-9.444c-.601-.807-1.106-1.674-1.636-2.526-.036-.155-.13-.28-.209-.414-.173-.326-.296-.679-.522-.976.024-.092-.036-.161-.07-.234a24.008 24.008 0 0 1-.866-2.087c-.605-1.669-1.049-3.375-1.213-5.148-.123-1.317-.056-2.637-.075-3.955h.001c.29-7.285 5.973-13.124 13.089-13.124s13.047 5.837 13.337 13.123c-.02 1.319.046 2.638-.076 3.956-.164 1.773-.607 3.479-1.212 5.148a24.017 24.017 0 0 1-.867 2.087c-.034.073-.095.142-.071.234-.226.297-.349.65-.521.976-.079.133-.174.258-.209.414-.53.852-1.036 1.719-1.636 2.526-1.231 1.659-2.632 3.14-4.411 4.224-1.22.744-2.53 1.219-3.971 1.271-.075.002-.147 0-.221 0h-.038c-.073 0-.146.003-.221 0-1.441-.053-2.751-.528-3.971-1.271-1.779-1.085-3.18-2.565-4.411-4.224z"/><linearGradient id="s" gradientUnits="userSpaceOnUse" x1="3224.104" y1="-3087.949" x2="3294.068" y2="-3087.949" gradientTransform="matrix(0 1 1 0 3331.546 -3201.172)"><stop offset="0" stop-color="#fff" stop-opacity=".048"/><stop offset=".489" stop-color="#fff"/><stop offset="1" stop-color="#fff" stop-opacity="0"/></linearGradient><path fill="url(#s)" d="M242.925 22.932h1.347v69.964h-1.347z"/><linearGradient id="t" gradientUnits="userSpaceOnUse" x1="4155.915" y1="-334.731" x2="4544.981" y2="-334.731" gradientTransform="matrix(-1 0 0 1 4555.544 335.407)"><stop offset="0" stop-color="#fff" stop-opacity=".048"/><stop offset=".489" stop-color="#fff"/><stop offset="1" stop-color="#fff" stop-opacity="0"/></linearGradient><path fill="url(#t)" d="M10.563.002H399.63V1.35H10.563z"/><path fill="#A68846" d="M101.974 38.218c-1.086-1.052-3.426-1.781-6.145-1.781-2.719 0-5.058.729-6.146 1.781h-.813l.162 1.318c0 1.712 3.042 3.099 6.797 3.099s6.797-1.387 6.797-3.099l.162-1.318h-.814z"/><ellipse fill="#E2C79A" cx="95.829" cy="38.084" rx="6.959" ry="3.173"/><linearGradient id="u" gradientUnits="userSpaceOnUse" x1="3256.829" y1="-3223.091" x2="3267.836" y2="-3223.091" gradientTransform="rotate(180 1679.08 -1592.66)"><stop offset=".005" stop-color="#a68846"/><stop offset="1" stop-color="#a68846" stop-opacity="0"/></linearGradient><ellipse fill="url(#u)" cx="95.829" cy="37.771" rx="5.504" ry="2.509"/><linearGradient id="v" gradientUnits="userSpaceOnUse" x1="-78.131" y1="270.216" x2="-65.212" y2="270.216" gradientTransform="translate(168 -232.956)"><stop offset=".005" stop-color="#fff"/><stop offset="1" stop-color="#fff" stop-opacity="0"/></linearGradient><path opacity=".7" fill="url(#v)" d="M101.952 39.601c.533-.449.836-.963.836-1.509 0-1.753-3.116-3.173-6.959-3.173-2.533 0-4.743.619-5.96 1.542l12.083 3.14z"/><path fill="#A68846" d="M85.881 37.036c-1.305-1.505-4.116-2.549-7.381-2.549-3.266 0-6.076 1.044-7.381 2.549h-.977l.194 1.885c0 2.449 3.655 4.434 8.164 4.434 4.508 0 8.164-1.985 8.164-4.434l.194-1.885h-.977z"/><ellipse fill="#E2C79A" cx="78.5" cy="36.845" rx="8.358" ry="4.54"/><linearGradient id="w" gradientUnits="userSpaceOnUse" x1="3273.05" y1="-3221.716" x2="3286.272" y2="-3221.716" gradientTransform="rotate(180 1679.08 -1592.66)"><stop offset=".005" stop-color="#a68846"/><stop offset="1" stop-color="#a68846" stop-opacity="0"/></linearGradient><ellipse fill="url(#w)" cx="78.5" cy="36.397" rx="6.611" ry="3.59"/><linearGradient id="x" gradientUnits="userSpaceOnUse" x1="-96.659" y1="268.622" x2="-81.142" y2="268.622" gradientTransform="translate(168 -232.956)"><stop offset=".005" stop-color="#fff"/><stop offset="1" stop-color="#fff" stop-opacity="0"/></linearGradient><path opacity=".7" fill="url(#x)" d="M85.854 39.015c.64-.642 1.004-1.377 1.004-2.158 0-2.507-3.742-4.54-8.358-4.54-3.042 0-5.697.886-7.159 2.205l14.513 4.493z"/><path fill="#A68846" d="M83.438 33.468c-1.305-1.264-4.115-2.14-7.38-2.14-3.266 0-6.075.876-7.381 2.14H67.7l.194 1.582c0 2.056 3.655 3.723 8.164 3.723s8.164-1.667 8.164-3.723l.194-1.582h-.978z"/><ellipse fill="#E2C79A" cx="76.057" cy="33.307" rx="8.358" ry="3.811"/><linearGradient id="y" gradientUnits="userSpaceOnUse" x1="3275.493" y1="-3218.251" x2="3288.713" y2="-3218.251" gradientTransform="rotate(180 1679.08 -1592.66)"><stop offset=".005" stop-color="#a68846"/><stop offset="1" stop-color="#a68846" stop-opacity="0"/></linearGradient><ellipse fill="url(#y)" cx="76.058" cy="32.932" rx="6.61" ry="3.014"/><linearGradient id="z" gradientUnits="userSpaceOnUse" x1="-99.102" y1="265.273" x2="-83.585" y2="265.273" gradientTransform="translate(168 -232.956)"><stop offset=".005" stop-color="#fff"/><stop offset="1" stop-color="#fff" stop-opacity="0"/></linearGradient><path opacity=".7" fill="url(#z)" d="M83.412 35.129c.64-.539 1.003-1.156 1.003-1.813 0-2.104-3.741-3.811-8.358-3.811-3.042 0-5.697.743-7.159 1.851l14.514 3.773z"/><path fill="#A68846" d="M85.881 30.659c-1.305-1.264-4.116-2.14-7.381-2.14-3.266 0-6.076.876-7.381 2.14h-.977l.194 1.583c0 2.055 3.655 3.722 8.164 3.722 4.508 0 8.164-1.667 8.164-3.722l.194-1.583h-.977z"/><ellipse fill="#E2C79A" cx="78.5" cy="30.498" rx="8.358" ry="3.811"/><linearGradient id="A" gradientUnits="userSpaceOnUse" x1="3273.05" y1="-3215.442" x2="3286.272" y2="-3215.442" gradientTransform="rotate(180 1679.08 -1592.66)"><stop offset=".005" stop-color="#a68846"/><stop offset="1" stop-color="#a68846" stop-opacity="0"/></linearGradient><ellipse fill="url(#A)" cx="78.5" cy="30.123" rx="6.611" ry="3.015"/><linearGradient id="B" gradientUnits="userSpaceOnUse" x1="-96.659" y1="262.465" x2="-81.142" y2="262.465" gradientTransform="translate(168 -232.956)"><stop offset=".005" stop-color="#fff"/><stop offset="1" stop-color="#fff" stop-opacity="0"/></linearGradient><path opacity=".7" fill="url(#B)" d="M85.854 32.32c.64-.539 1.004-1.157 1.004-1.812 0-2.105-3.742-3.811-8.358-3.811-3.042 0-5.697.744-7.159 1.852l14.513 3.771z"/><path fill="#A68846" d="M85.881 27.85c-1.305-1.263-4.116-2.139-7.381-2.139-3.266 0-6.076.876-7.381 2.139h-.977l.194 1.583c0 2.056 3.655 3.722 8.164 3.722 4.508 0 8.164-1.666 8.164-3.722l.194-1.583h-.977z"/><ellipse fill="#E2C79A" cx="78.5" cy="27.689" rx="8.358" ry="3.812"/><linearGradient id="C" gradientUnits="userSpaceOnUse" x1="3273.05" y1="-3212.633" x2="3286.272" y2="-3212.633" gradientTransform="rotate(180 1679.08 -1592.66)"><stop offset=".005" stop-color="#a68846"/><stop offset="1" stop-color="#a68846" stop-opacity="0"/></linearGradient><ellipse fill="url(#C)" cx="78.5" cy="27.314" rx="6.611" ry="3.015"/><linearGradient id="D" gradientUnits="userSpaceOnUse" x1="-96.659" y1="259.655" x2="-81.142" y2="259.655" gradientTransform="translate(168 -232.956)"><stop offset=".005" stop-color="#fff"/><stop offset="1" stop-color="#fff" stop-opacity="0"/></linearGradient><path opacity=".7" fill="url(#D)" d="M85.854 29.511c.64-.539 1.004-1.156 1.004-1.813 0-2.104-3.742-3.811-8.358-3.811-3.042 0-5.697.744-7.159 1.852l14.513 3.772z"/><path fill="#A68846" d="M84.037 25.044c-1.305-1.263-4.115-2.14-7.381-2.14s-6.075.876-7.38 2.14h-.978l.194 1.583c0 2.056 3.655 3.722 8.164 3.722s8.164-1.667 8.164-3.722l.195-1.583h-.978z"/><ellipse fill="#E2C79A" cx="76.657" cy="24.883" rx="8.358" ry="3.811"/><linearGradient id="E" gradientUnits="userSpaceOnUse" x1="3274.895" y1="-3209.827" x2="3288.116" y2="-3209.827" gradientTransform="rotate(180 1679.08 -1592.66)"><stop offset=".005" stop-color="#a68846"/><stop offset="1" stop-color="#a68846" stop-opacity="0"/></linearGradient><ellipse fill="url(#E)" cx="76.656" cy="24.508" rx="6.61" ry="3.015"/><linearGradient id="F" gradientUnits="userSpaceOnUse" x1="-98.503" y1="256.85" x2="-82.985" y2="256.85" gradientTransform="translate(168 -232.956)"><stop offset=".005" stop-color="#fff"/><stop offset="1" stop-color="#fff" stop-opacity="0"/></linearGradient><path opacity=".7" fill="url(#F)" d="M84.011 26.705c.64-.539 1.004-1.155 1.004-1.812 0-2.104-3.742-3.81-8.359-3.81-3.042 0-5.697.743-7.159 1.851l14.514 3.771z"/><path fill="#A68846" d="M94.239 45.409c-1.305-1.526-4.115-2.585-7.381-2.585s-6.075 1.059-7.381 2.585H78.5l.194 1.912c0 2.484 3.655 4.498 8.164 4.498s8.164-2.014 8.164-4.498l.195-1.912h-.978z"/><ellipse fill="#E2C79A" cx="86.858" cy="45.214" rx="8.358" ry="4.605"/><linearGradient id="G" gradientUnits="userSpaceOnUse" x1="3264.694" y1="-3230.08" x2="3277.913" y2="-3230.08" gradientTransform="rotate(180 1679.08 -1592.66)"><stop offset=".005" stop-color="#a68846"/><stop offset="1" stop-color="#a68846" stop-opacity="0"/></linearGradient><ellipse fill="url(#G)" cx="86.858" cy="44.761" rx="6.61" ry="3.642"/><linearGradient id="H" gradientUnits="userSpaceOnUse" x1="-88.301" y1="276.975" x2="-72.784" y2="276.975" gradientTransform="translate(168 -232.956)"><stop offset=".005" stop-color="#fff"/><stop offset="1" stop-color="#fff" stop-opacity="0"/></linearGradient><path opacity=".7" fill="url(#H)" d="M94.212 47.416c.64-.651 1.004-1.396 1.004-2.189 0-2.543-3.742-4.605-8.358-4.605-3.042 0-5.697.898-7.159 2.237l14.513 4.557z"/><path fill="#A68846" d="M94.239 41.772c-1.305-1.263-4.115-2.14-7.381-2.14s-6.075.876-7.381 2.14H78.5l.194 1.583c0 2.056 3.655 3.723 8.164 3.723s8.164-1.667 8.164-3.723l.195-1.583h-.978z"/><ellipse fill="#E2C79A" cx="86.858" cy="41.612" rx="8.358" ry="3.811"/><linearGradient id="I" gradientUnits="userSpaceOnUse" x1="3264.694" y1="-3226.556" x2="3277.913" y2="-3226.556" gradientTransform="rotate(180 1679.08 -1592.66)"><stop offset=".005" stop-color="#a68846"/><stop offset="1" stop-color="#a68846" stop-opacity="0"/></linearGradient><ellipse fill="url(#I)" cx="86.858" cy="41.236" rx="6.61" ry="3.013"/><linearGradient id="J" gradientUnits="userSpaceOnUse" x1="-88.301" y1="273.577" x2="-72.784" y2="273.577" gradientTransform="translate(168 -232.956)"><stop offset=".005" stop-color="#fff"/><stop offset="1" stop-color="#fff" stop-opacity="0"/></linearGradient><path opacity=".7" fill="url(#J)" d="M94.212 43.433c.64-.538 1.004-1.156 1.004-1.812 0-2.104-3.742-3.811-8.358-3.811-3.042 0-5.697.743-7.159 1.852l14.513 3.771z"/><path fill="#A68846" d="M102.473 29.362c-1.086-1.051-3.426-1.781-6.146-1.781-2.718 0-5.058.73-6.145 1.781h-.812l.162 1.318c0 1.712 3.042 3.1 6.796 3.1 3.755 0 6.798-1.388 6.798-3.1l.162-1.318h-.815z"/><ellipse fill="#E2C79A" cx="96.329" cy="29.228" rx="6.959" ry="3.174"/><linearGradient id="K" gradientUnits="userSpaceOnUse" x1="3256.329" y1="-3214.235" x2="3267.336" y2="-3214.235" gradientTransform="rotate(180 1679.08 -1592.66)"><stop offset=".005" stop-color="#a68846"/><stop offset="1" stop-color="#a68846" stop-opacity="0"/></linearGradient><ellipse fill="url(#K)" cx="96.328" cy="28.916" rx="5.504" ry="2.509"/><linearGradient id="L" gradientUnits="userSpaceOnUse" x1="-77.633" y1="261.361" x2="-64.713" y2="261.361" gradientTransform="translate(168 -232.956)"><stop offset=".005" stop-color="#fff"/><stop offset="1" stop-color="#fff" stop-opacity="0"/></linearGradient><path opacity=".7" fill="url(#L)" d="M102.451 30.746c.533-.448.836-.962.836-1.509 0-1.752-3.116-3.173-6.96-3.173-2.533 0-4.743.619-5.96 1.542l12.084 3.14z"/><linearGradient id="M" gradientUnits="userSpaceOnUse" x1="4612.467" y1="-1696.941" x2="4668.84" y2="-1696.941" gradientTransform="scale(1 -1) rotate(45 386.45 -6386.652)"><stop offset="0" stop-color="#4b48bf"/><stop offset="1" stop-color="#a14b8a"/></linearGradient><path fill="url(#M)" d="M124.417 68.403l-30.43 11.898-61.404-24.008 30.432-11.898z"/><path opacity=".2" d="M73.13 70.495l14.15 5.532c4.102-.986 9.311-.986 13.416 0l12.795-5.003c-2.523-1.603-2.523-3.641 0-5.245l-14.15-5.532c1.828 2.787-.045 5.867-5.623 8.05-5.58 2.181-13.461 2.914-20.588 2.198zm10.744-16.296l-14.15-5.532c-4.102.987-9.311.987-13.416 0l-12.795 5.004c2.521 1.603 2.521 3.64 0 5.244l14.15 5.533c-1.83-2.787.041-5.868 5.623-8.049 5.58-2.181 13.461-2.914 20.588-2.2z"/><path opacity=".1" fill="#FFF" d="M62.841 44.329l61.576 24.074-30.594 11.961z"/><linearGradient id="N" gradientUnits="userSpaceOnUse" x1="4712.094" y1="-1996.112" x2="4740.247" y2="-1996.112" gradientTransform="scale(1 -1) rotate(45 68.08 -6639.465)"><stop offset="0" stop-color="#4b48bf"/><stop offset="1" stop-color="#a14b8a"/></linearGradient><ellipse fill="url(#N)" cx="78.501" cy="62.349" rx="18.535" ry="7.247"/><path opacity=".2" d="M124.417 68.403L93.985 80.299 32.583 56.292l30.432-11.898z"/><linearGradient id="O" gradientUnits="userSpaceOnUse" x1="4614.709" y1="-1694.697" x2="4671.084" y2="-1694.697" gradientTransform="scale(1 -1) rotate(45 386.45 -6386.652)"><stop offset="0" stop-color="#4b48bf"/><stop offset="1" stop-color="#a14b8a"/></linearGradient><path fill="url(#O)" d="M124.417 65.231l-30.43 11.898-61.404-24.008 30.432-11.898z"/><path opacity=".2" d="M73.13 67.323l14.15 5.532c4.102-.986 9.311-.986 13.416 0l12.795-5.003c-2.523-1.603-2.523-3.641 0-5.245l-14.15-5.532c1.828 2.787-.045 5.867-5.623 8.05-5.58 2.181-13.461 2.914-20.588 2.198zm10.744-16.296l-14.15-5.532c-4.102.987-9.311.987-13.416 0l-12.795 5.004c2.521 1.603 2.521 3.64 0 5.244l14.15 5.533c-1.83-2.787.041-5.868 5.623-8.049 5.58-2.181 13.461-2.914 20.588-2.2z"/><path opacity=".1" fill="#FFF" d="M62.841 41.157l61.576 24.074-30.594 11.961z"/><linearGradient id="P" gradientUnits="userSpaceOnUse" x1="4714.337" y1="-1993.869" x2="4742.49" y2="-1993.869" gradientTransform="scale(1 -1) rotate(45 68.08 -6639.465)"><stop offset="0" stop-color="#4b48bf"/><stop offset="1" stop-color="#a14b8a"/></linearGradient><ellipse fill="url(#P)" cx="78.501" cy="59.177" rx="18.535" ry="7.247"/><path opacity=".2" d="M124.417 65.231L93.985 77.127 32.583 53.12l30.432-11.898z"/><linearGradient id="Q" gradientUnits="userSpaceOnUse" x1="4616.953" y1="-1692.455" x2="4673.327" y2="-1692.455" gradientTransform="scale(1 -1) rotate(45 386.45 -6386.652)"><stop offset="0" stop-color="#4b48bf"/><stop offset="1" stop-color="#a14b8a"/></linearGradient><path fill="url(#Q)" d="M124.417 62.059l-30.43 11.898-61.404-24.008 30.432-11.898z"/><path opacity=".2" d="M73.13 64.151l14.15 5.532c4.102-.986 9.311-.986 13.416 0l12.795-5.003c-2.523-1.603-2.523-3.641 0-5.245l-14.15-5.532c1.828 2.787-.045 5.867-5.623 8.05-5.58 2.181-13.461 2.914-20.588 2.198zm10.744-16.296l-14.15-5.532c-4.102.987-9.311.987-13.416 0l-12.795 5.004c2.521 1.603 2.521 3.64 0 5.244l14.15 5.533c-1.83-2.787.041-5.868 5.623-8.049 5.58-2.181 13.461-2.914 20.588-2.2z"/><path opacity=".1" fill="#FFF" d="M62.841 37.985l61.576 24.074L93.823 74.02z"/><linearGradient id="R" gradientUnits="userSpaceOnUse" x1="4716.58" y1="-1991.626" x2="4744.733" y2="-1991.626" gradientTransform="scale(1 -1) rotate(45 68.08 -6639.465)"><stop offset="0" stop-color="#4b48bf"/><stop offset="1" stop-color="#a14b8a"/></linearGradient><ellipse fill="url(#R)" cx="78.501" cy="56.005" rx="18.535" ry="7.247"/></svg>