<svg xmlns="http://www.w3.org/2000/svg" width="452.613" height="252.308" viewBox="563.694 49.894 452.613 252.308"><linearGradient id="a" gradientUnits="userSpaceOnUse" x1="4274.549" y1="-562.355" x2="4483.988" y2="-562.355" gradientTransform="matrix(0 1 1 0 1352.355 -4224.654)"><stop offset="0" stop-color="#a14b8a"/><stop offset="1" stop-color="#a14b8a" stop-opacity="0"/></linearGradient><path fill="url(#a)" d="M1016.223 259.334V57.979a8.084 8.084 0 0 0-8.084-8.085H571.864a8.086 8.086 0 0 0-8.086 8.085v201.354h452.445z"/><linearGradient id="b" gradientUnits="userSpaceOnUse" x1="446.271" y1="-928.368" x2="772.668" y2="-928.368" gradientTransform="matrix(1 0 0 -1 243.64 -808.507)"><stop offset="0" stop-color="#a14b8a"/><stop offset="1" stop-color="#a14b8a" stop-opacity="0"/></linearGradient><path fill="url(#b)" d="M1008.223 49.894H689.911l326.396 139.934V57.979a8.084 8.084 0 0 0-8.084-8.085z"/><path fill="#FFF" d="M656.173 120.651c0-3.607 2.854-6.376 6.377-6.376 3.521 0 6.377 2.769 6.377 6.376s-2.855 6.376-6.377 6.376c-3.524 0-6.377-2.767-6.377-6.376zm9.947 0c0-2.189-1.573-3.645-3.569-3.645s-3.574 1.454-3.574 3.645c0 2.189 1.578 3.645 3.574 3.645s3.569-1.455 3.569-3.645zm17.258 6.132h-2.627v-6.236h-2.242v6.236h-2.627v-6.236h-2.277v6.236h-2.627v-6.236h-1.174v-2.521h1.174c0-2.451 1.348-3.924 4.256-3.749v2.521c-.979-.087-1.629.21-1.629 1.227h2.277v-.175c0-2.453 1.348-3.749 4.256-3.749.719 0 1.438.088 2.188.246v2.417a19.991 19.991 0 0 0-2.188-.142c-.98 0-1.629.21-1.629 1.228v.175h4.866v8.76l.003-.002zm1.486-4.38c0-2.609 1.979-4.625 4.646-4.625 1.699 0 3.205.895 3.957 2.242l-2.293 1.332c-.302-.612-.935-.98-1.699-.98-1.139 0-1.98.822-1.98 2.031s.847 2.032 1.98 2.032c.77 0 1.418-.368 1.699-.98l2.293 1.313c-.752 1.366-2.242 2.26-3.957 2.26-2.664-.001-4.646-2.014-4.646-4.625zm13.932 2.278c.717 0 1.33-.28 1.682-.666l2.102 1.208c-.854 1.19-2.149 1.804-3.813 1.804-2.994 0-4.854-2.014-4.854-4.625 0-2.609 1.896-4.625 4.66-4.625 2.563 0 4.449 1.979 4.449 4.625 0 .368-.035.719-.104 1.052h-6.221c.327.911 1.13 1.227 2.099 1.227zm1.607-3.188c-.276-1.017-1.063-1.385-1.854-1.385-.998 0-1.664.49-1.91 1.385h3.764zm9.357-3.643v2.979c-1.086-.176-2.627.263-2.627 1.997v3.959h-2.627v-8.76h2.627v1.56c.348-1.175 1.52-1.735 2.627-1.735zm79.397 24.319c0 2.436-1.903 4.293-4.26 4.293-1.598 0-2.863-.822-3.537-2.089v5.197h-.817v-11.514h.817v1.907c.674-1.267 1.939-2.089 3.537-2.089 2.356.002 4.26 1.86 4.26 4.295zm-.818 0c0-1.958-1.531-3.503-3.488-3.503s-3.486 1.546-3.486 3.503 1.529 3.504 3.486 3.504 3.488-1.547 3.488-3.504zm10.579.034c0 .131-.021.263-.021.396h-7.451c.195 1.858 1.611 3.075 3.486 3.075 1.35 0 2.369-.625 2.848-1.497l.728.429c-.678 1.119-1.957 1.858-3.586 1.858-2.533 0-4.326-1.811-4.326-4.293 0-2.418 1.744-4.293 4.264-4.293 2.492-.002 4.058 2.07 4.058 4.325zm-7.474-.411h6.611c-.182-2.007-1.596-3.125-3.205-3.125-1.873 0-3.24 1.298-3.406 3.125zm12.965-3.851v.79c-1.409 0-2.744.872-2.744 2.979v4.573h-.821v-8.226h.821v1.611c.56-1.298 1.629-1.727 2.744-1.727zm17.832 3.126v5.215h-.817v-5.215c0-1.563-.902-2.4-2.188-2.4-1.381 0-2.469.921-2.469 3.025v4.59h-.82v-5.215c0-1.563-.84-2.4-2.104-2.4-1.353 0-2.551.921-2.551 3.025v4.59h-.822v-8.226h.822v1.415c.606-1.136 1.596-1.596 2.646-1.596 1.199 0 2.139.592 2.564 1.679.592-1.151 1.646-1.679 2.748-1.679 1.741.001 2.991 1.137 2.991 3.192zm1.768 1.102c0-2.436 1.926-4.293 4.326-4.293 2.387 0 4.311 1.857 4.311 4.293s-1.924 4.293-4.311 4.293c-2.401 0-4.326-1.858-4.326-4.293zm7.796 0c0-1.958-1.512-3.503-3.471-3.503-1.957 0-3.486 1.546-3.486 3.503s1.529 3.504 3.486 3.504c1.96 0 3.471-1.547 3.471-3.504zm9.77-1.002v5.116h-.838v-5.116c0-1.514-.873-2.5-2.418-2.5-1.608 0-2.879 1.054-2.879 3.272v4.344h-.822v-8.226h.822v1.563c.625-1.218 1.678-1.744 2.941-1.744 1.965 0 3.194 1.3 3.194 3.291zm4.082-2.303v5.346c0 1.448.771 1.479 2.451 1.333v.74c-2.156.328-3.291-.197-3.291-2.073v-5.346h-1.811v-.807h1.811V136l.84-.247v2.304h2.451v.807h-2.451zm11.387 2.303v5.116h-.843v-5.116c0-1.514-.868-2.5-2.418-2.5-1.608 0-2.879 1.054-2.879 3.272v4.344h-.817v-11.516h.817v4.854c.625-1.218 1.683-1.744 2.941-1.744 1.966-.001 3.199 1.299 3.199 3.29zm5.547-4.229l-1.564-.032.873 1.299-.643.378-.81-1.382-.791 1.382-.651-.378.866-1.299-1.563.032v-.708l1.563.033-.866-1.3.651-.378.791 1.365.81-1.365.643.378-.873 1.3 1.564-.033v.708z"/><linearGradient id="c" gradientUnits="userSpaceOnUse" x1="3969.217" y1="-349.24" x2="3977.078" y2="-349.24" gradientTransform="matrix(0 1 1 0 1108.753 -3859.612)"><stop offset="0" stop-color="#fff"/><stop offset=".545" stop-color="#eee"/><stop offset="1" stop-color="#e6e6e6"/></linearGradient><path fill="url(#c)" d="M769.343 111.796c-1.398 5.405-5.293 6.653-9.412 4.914-3.82-1.587-4.729-1.928-5.709.756l-4.537-2.191c1.398-5.405 5.293-6.653 9.414-4.915 3.813 1.589 4.688 1.891 5.707-.755l4.537 2.191z"/><linearGradient id="d" gradientUnits="userSpaceOnUse" x1="3959.842" y1="-328.725" x2="3986.302" y2="-328.725" gradientTransform="matrix(0 1 1 0 1108.753 -3859.612)"><stop offset="0" stop-color="#fff"/><stop offset=".545" stop-color="#eee"/><stop offset="1" stop-color="#e6e6e6"/></linearGradient><path fill="url(#d)" d="M786.135 100.229v26.462h-6.049v-20.072l-4.688 1.285-1.479-5.179 6.92-2.495 5.296-.001z"/><linearGradient id="e" gradientUnits="userSpaceOnUse" x1="3959.31" y1="-308.067" x2="3986.832" y2="-308.067" gradientTransform="matrix(0 1 1 0 1108.753 -3859.612)"><stop offset="0" stop-color="#fff"/><stop offset=".545" stop-color="#eee"/><stop offset="1" stop-color="#e6e6e6"/></linearGradient><path fill="url(#e)" d="M789.915 113.46c0-8.166 3.933-13.761 10.771-13.761s10.771 5.595 10.771 13.761-3.938 13.76-10.771 13.76c-6.84.001-10.771-5.595-10.771-13.76zm15.5 0c0-5.104-1.553-7.862-4.729-7.862-3.178 0-4.727 2.76-4.727 7.862 0 5.104 1.549 7.863 4.727 7.863 3.176 0 4.729-2.76 4.729-7.863z"/><linearGradient id="f" gradientUnits="userSpaceOnUse" x1="3959.31" y1="-284.252" x2="3986.832" y2="-284.252" gradientTransform="matrix(0 1 1 0 1108.753 -3859.612)"><stop offset="0" stop-color="#fff"/><stop offset=".545" stop-color="#eee"/><stop offset="1" stop-color="#e6e6e6"/></linearGradient><path fill="url(#f)" d="M813.729 113.46c0-8.166 3.93-13.761 10.773-13.761 6.842 0 10.77 5.595 10.77 13.761s-3.93 13.76-10.77 13.76c-6.845.001-10.773-5.595-10.773-13.76zm15.5 0c0-5.104-1.551-7.862-4.727-7.862-3.183 0-4.729 2.76-4.729 7.862 0 5.104 1.549 7.863 4.729 7.863 3.178 0 4.727-2.76 4.727-7.863z"/><linearGradient id="g" gradientUnits="userSpaceOnUse" x1="3959.31" y1="-260.438" x2="3986.832" y2="-260.438" gradientTransform="matrix(0 1 1 0 1108.753 -3859.612)"><stop offset="0" stop-color="#fff"/><stop offset=".545" stop-color="#eee"/><stop offset="1" stop-color="#e6e6e6"/></linearGradient><path fill="url(#g)" d="M837.544 113.46c0-8.166 3.932-13.761 10.771-13.761s10.771 5.595 10.771 13.761-3.937 13.76-10.771 13.76c-6.84.001-10.771-5.595-10.771-13.76zm15.502 0c0-5.104-1.558-7.862-4.729-7.862-3.18 0-4.729 2.76-4.729 7.862 0 5.104 1.549 7.863 4.729 7.863 3.172 0 4.729-2.76 4.729-7.863z"/><linearGradient id="h" gradientUnits="userSpaceOnUse" x1="3956.062" y1="-232.767" x2="3990.084" y2="-232.767" gradientTransform="matrix(0 1 1 0 1108.753 -3859.612)"><stop offset="0" stop-color="#fff"/><stop offset=".545" stop-color="#eee"/><stop offset="1" stop-color="#e6e6e6"/></linearGradient><path fill="url(#h)" d="M877.843 127.145v3.327h-2.646v-3.289c-4.271-.303-7.447-2.495-8.809-6.124l5.215-3.022c.795 1.813 1.893 2.873 3.594 3.175v-5.216c-.149-.076-.342-.114-.492-.188-3.289-1.323-7.221-3.176-7.221-8.241 0-4.915 3.705-7.447 7.713-7.825v-3.29h2.646v3.363c3.252.416 5.975 2.154 7.442 5.481l-5.104 2.986c-.488-1.323-1.248-2.08-2.346-2.457v5.104c3.288 1.398 7.75 2.646 7.75 8.165.008 4.724-3.242 7.522-7.742 8.051zm-2.649-17.465v-3.97c-1.098.266-1.664.981-1.664 1.891 0 .717.34 1.322 1.664 2.079zm4.35 9.488c0-.944-.564-1.512-1.701-2.079v4.044c1.285-.34 1.701-1.172 1.701-1.965z"/><linearGradient id="i" gradientUnits="userSpaceOnUse" x1="2569.227" y1="-897.025" x2="2952.883" y2="-897.025" gradientTransform="rotate(180 1758.289 -404.254)"><stop offset="0" stop-color="#a14b8a"/><stop offset="1" stop-color="#a14b8a" stop-opacity="0"/></linearGradient><path fill="url(#i)" d="M571.778 49.894H947.35l-383.656 77.245v-69.16a8.084 8.084 0 0 1 8.084-8.085z"/><linearGradient id="j" gradientUnits="userSpaceOnUse" x1="3635.868" y1="-204.713" x2="3708.699" y2="-204.713" gradientTransform="matrix(0 1 1 0 821.995 -3551.693)"><stop offset="0" stop-color="#fff"/><stop offset="1" stop-color="#fff" stop-opacity="0"/></linearGradient><path fill="url(#j)" d="M591.323 157.005c.008-4.392.015-9.896-.01-13.146-.012-1.816.604-3.366 1.797-4.707 1.271-1.424 2.838-2.428 4.537-3.242 3.771-1.81 7.803-2.667 11.918-3.204a.395.395 0 0 1 .352.109c1.935 1.819 3.865 3.637 5.812 5.446.146.14.135.211-.002.347-.941.931-1.869 1.873-2.813 2.803-.297.293-.432.619-.344 1.031.105.298.256.562.574.677-.043.108.057.146.109.199.305.311.612.616.924.925l.729.726c.285.192.313.443.229.764-.107.391-.162.792-.24 1.188-.041.05-.039.108-.037.168-.09.407-.186.812-.27 1.22-.605 2.887-1.209 5.774-1.812 8.665-.002.015-.008.022-.014.035h2.012c.002-.021 0-.035.008-.063.438-2.021.854-4.044 1.271-6.066l.58-2.78c.018-.192.158-.358.117-.563l.381-1.852c.059-.276.16-.545.121-.834a.747.747 0 0 0-.22-.522c-.229-.25-.459-.504-.729-.714-.183-.2-.342-.422-.586-.558-.168-.298-.453-.485-.681-.729-.104-.107-.104-.166.002-.269.714-.706 1.423-1.415 2.125-2.129.048-.046.084-.067.123-.073.035.005.074.026.119.073.707.714 1.416 1.423 2.131 2.129.103.103.103.16 0 .269-.229.241-.518.431-.686.729-.24.136-.398.355-.584.558-.271.21-.498.465-.729.714a.749.749 0 0 0-.22.522c-.039.289.063.558.121.834l.381 1.852c-.041.204.101.37.117.563l.578 2.78c.426 2.021.844 4.047 1.272 6.066.005.025.005.041.009.063h2.008c-.002-.013-.008-.021-.012-.035-.593-2.891-1.199-5.777-1.804-8.665-.088-.408-.188-.813-.272-1.22.002-.06.006-.119-.035-.168-.078-.396-.133-.799-.238-1.188-.09-.319-.063-.569.226-.764.241-.241.483-.483.729-.726.313-.309.619-.614.93-.925.054-.054.146-.091.104-.199.318-.116.469-.379.572-.677.088-.412-.045-.738-.345-1.031-.938-.93-1.866-1.873-2.809-2.803-.139-.135-.152-.207-.002-.347 1.939-1.811 3.877-3.627 5.809-5.446a.377.377 0 0 1 .351-.109c4.112.537 8.146 1.396 11.916 3.204 1.698.814 3.271 1.818 4.539 3.242 1.19 1.341 1.809 2.891 1.795 4.707-.021 4.352-.011 8.702-.002 13.054 0 .037-.004.063-.006.095h1.967v-13.39a8.177 8.177 0 0 0-.146-1.584c-.401-2.081-1.521-3.736-3.065-5.135-1.728-1.565-3.752-2.646-5.896-3.507-3.473-1.395-7.102-2.157-10.793-2.626-.229-.029-.313-.083-.311-.334.02-1.295.01-2.591.002-3.886a.502.502 0 0 1 .166-.386 20.249 20.249 0 0 0 2.625-3.114c.231-.313.463-.631.646-.979.338-.487.64-1 .896-1.534.444-.708.791-1.467 1.104-2.241.068-.162.146-.321.213-.482.925-2.272 1.591-4.614 1.746-7.072.121-1.926.021-3.854.021-5.781 0-.169.039-.271.18-.372a40.39 40.39 0 0 0 2.195-1.72c1.112-.936 2.227-1.875 3.106-3.044.304-.401.42-.844.312-1.339-.097-.433-.396-.725-.687-1.033-2.11-2.271-3.719-4.837-4.521-7.856-.219-.816-.754-1.26-1.539-1.438-.402-.093-.82-.141-1.234-.206-4.125-.652-8.08-1.871-11.903-3.532a2.725 2.725 0 0 0-1.035-.234v-.005l-.021.002-.021-.002v.005a2.874 2.874 0 0 0-1.037.234c-3.818 1.662-7.775 2.88-11.898 3.532-.414.065-.832.113-1.237.206-.787.178-1.322.62-1.541 1.438-.806 3.021-2.41 5.585-4.521 7.856-.281.31-.59.602-.688 1.033-.107.495.008.938.313 1.339.889 1.169 1.992 2.108 3.104 3.044a41.006 41.006 0 0 0 2.2 1.72c.138.102.177.203.177.372.002 1.928-.099 3.855.022 5.781.154 2.458.82 4.8 1.746 7.072.064.161.142.32.213.482.312.774.652 1.533 1.103 2.241.264.534.563 1.046.899 1.534.183.351.414.666.646.979a20.318 20.318 0 0 0 2.621 3.114.472.472 0 0 1 .168.386c-.012 1.295-.011 2.591.004 3.886.002.251-.084.305-.312.334-3.694.47-7.321 1.231-10.791 2.626-2.146.861-4.172 1.94-5.897 3.507-1.543 1.396-2.664 3.054-3.063 5.135a8.093 8.093 0 0 0-.146 1.584v13.39l1.982-.003zm31.6-25.241c-1.83 1.71-3.656 3.424-5.479 5.143-.061.057-.104.079-.147.085a.251.251 0 0 1-.146-.085c-1.82-1.719-3.646-3.433-5.477-5.143a.385.385 0 0 1-.142-.313c.008-.541.002-1.08.002-1.621 0-.56.006-1.117 0-1.677-.004-.191.033-.233.211-.122.355.22.718.437 1.091.626 1.414.723 2.896 1.123 4.44 1.126v.003l.021-.001.021.001v-.003c1.547-.003 3.023-.404 4.439-1.126.373-.189.729-.406 1.088-.626.178-.111.213-.069.211.122-.006.56-.002 1.117-.002 1.677 0 .541-.002 1.08.002 1.621a.377.377 0 0 1-.133.313zm-20.049-32.057c-.491.155-.723.485-.725 1.004v1.464c-.055 0-.074.008-.086 0-1.232-.978-2.463-1.96-3.518-3.142-.146-.159-.078-.236.034-.359 2.236-2.444 3.938-5.204 4.839-8.417.036-.138.1-.19.239-.213.697-.104 1.396-.208 2.097-.338a51.748 51.748 0 0 0 11.203-3.462c.104-.046.219-.074.334-.083.104.01.219.032.334.083a51.868 51.868 0 0 0 11.202 3.462c.695.13 1.396.233 2.097.338.145.021.203.075.239.213.898 3.215 2.599 5.973 4.839 8.417.112.123.178.2.034.359-1.055 1.182-2.28 2.164-3.518 3.142-.012.009-.035 0-.088 0 0-.487.002-.976 0-1.464-.002-.519-.228-.849-.722-1.004a52.024 52.024 0 0 0-6.604-1.634c-.053-.011-.109.001-.166.002a9.922 9.922 0 0 0-2.021-.298c-.188-.014-.361-.124-.562-.063-.02-.015-.045-.04-.063-.042-.81-.082-1.607-.181-2.421-.19-.383-.059-.771-.057-1.153-.049-.469-.045-.938-.05-1.406-.045h-.039c-.473-.005-.938 0-1.41.045-.385-.007-.771-.01-1.147.049-.814.011-1.615.108-2.42.19-.023.003-.045.028-.068.042-.195-.063-.371.049-.557.063a9.891 9.891 0 0 0-2.025.298c-.055-.001-.113-.013-.166-.002a51.354 51.354 0 0 0-6.604 1.634h-.002zm1.285 1.707c.174-.188.541-.204.824-.287 1.1-.32 2.215-.569 3.328-.838.361-.001.697-.153 1.055-.198.113-.013.242.019.351-.064l1.061-.184.898-.115c.108-.002.229.04.332-.053.375-.028.752-.042 1.112-.145.24.011.48-.003.715-.058.396.021.795-.033 1.188-.054l.496-.029c.315-.021.641.048.953-.057.27.022.534.023.803.015h.041c.271.01.535.009.801-.015.313.104.644.036.955.057l.496.029c.396.021.793.073 1.189.054.229.054.473.066.713.058.362.104.741.115 1.116.145.103.093.218.051.332.053l.896.115 1.063.184c.103.083.229.053.343.064.354.045.69.196 1.059.198 1.113.269 2.229.518 3.328.838.281.083.65.099.822.287.164.183.043.552.047.839.006.771.002 1.544.002 2.338-.781-.201-1.531-.406-2.289-.593a47.985 47.985 0 0 0-5.156-.961c-.09-.013-.188.004-.272.005a1.013 1.013 0 0 0-.688-.088c-.639-.136-1.287-.152-1.936-.193a42.717 42.717 0 0 0-2.818-.078h-.041c-.939-.004-1.88.022-2.818.078-.646.041-1.301.059-1.938.193a1.012 1.012 0 0 0-.688.088c-.092-.001-.188-.018-.276-.005a47.704 47.704 0 0 0-5.154.961c-.756.187-1.51.392-2.289.593 0-.794-.004-1.565.002-2.338-.001-.289-.122-.657.042-.839zm20.279 3.859c-.352.268-.727.444-1.111.604-1.479.61-3.033.884-4.621.989-.469.029-.939.046-1.409.048-.471-.002-.94-.018-1.41-.048-1.586-.105-3.146-.379-4.623-.989-.383-.159-.758-.338-1.109-.604a34.647 34.647 0 0 1 14.283 0zm-15.761 17.047c-.604-.808-1.107-1.674-1.642-2.525-.03-.155-.131-.28-.209-.414-.172-.326-.297-.679-.521-.977.022-.093-.035-.16-.068-.234a28.568 28.568 0 0 1-.867-2.087c-.604-1.668-1.049-3.376-1.211-5.147-.127-1.368-.051-2.736-.071-4.105-.005-.15.084-.187.192-.221a64.538 64.538 0 0 1 3.353-.882c.149-.036.256-.015.346.135.193.311.451.564.734.798.973.796 2.108 1.243 3.307 1.563 1.74.464 3.496.668 5.264.662v.002h.039v-.002c1.775.013 3.545-.21 5.265-.662 1.19-.318 2.336-.767 3.309-1.563.281-.23.543-.487.732-.798.092-.148.19-.171.348-.135 1.124.264 2.241.558 3.35.882.113.035.201.068.197.221-.027 1.369.049 2.737-.076 4.105-.164 1.771-.604 3.479-1.213 5.147a25.48 25.48 0 0 1-.867 2.087c-.031.074-.096.143-.065.234-.229.298-.354.648-.521.977-.08.134-.174.258-.211.414-.526.853-1.035 1.719-1.635 2.525-1.23 1.658-2.633 3.14-4.412 4.224-1.219.744-2.529 1.219-3.973 1.271-.072.002-.146 0-.222 0h-.041c-.067 0-.146.002-.219 0-1.443-.053-2.752-.526-3.975-1.271-1.787-1.085-3.193-2.565-4.417-4.224z"/><linearGradient id="k" gradientUnits="userSpaceOnUse" x1="3793.188" y1="-254.484" x2="3863.152" y2="-254.484" gradientTransform="matrix(0 1 1 0 982.723 -3708.278)"><stop offset="0" stop-color="#fff" stop-opacity=".048"/><stop offset=".489" stop-color="#fff"/><stop offset="1" stop-color="#fff" stop-opacity="0"/></linearGradient><path fill="url(#k)" d="M727.565 84.911h1.348v69.964h-1.348V84.911z"/><linearGradient id="l" gradientUnits="userSpaceOnUse" x1="2498.831" y1="-290.715" x2="2935.86" y2="-290.715" gradientTransform="rotate(180 1753.625 -120.072)"><stop offset="0" stop-color="#fff" stop-opacity=".048"/><stop offset=".489" stop-color="#fff"/><stop offset="1" stop-color="#fff" stop-opacity="0"/></linearGradient><path fill="url(#l)" d="M571.389 49.896h437.029v1.349H571.389v-1.349z"/><linearGradient id="m" gradientUnits="userSpaceOnUse" x1="2435.592" y1="2153.157" x2="2472.744" y2="2153.157" gradientTransform="scale(-1 1) rotate(-45 -1699.732 5226.115)"><stop offset="0" stop-color="#4b48bf"/><stop offset="1" stop-color="#a14b8a"/></linearGradient><path fill="url(#m)" d="M945.524 104.028l20.057 7.843-40.469 15.821-20.053-7.841 40.465-15.823z"/><path opacity=".2" d="M925.292 119.781c-3.68-1.438-4.909-3.47-3.706-5.307l-9.324 3.646c1.664 1.057 1.664 2.399 0 3.457l8.434 3.297c2.705-.649 6.14-.649 8.842 0l9.324-3.646c-4.703.475-9.893-.009-13.57-1.447zm20.056-7.842c3.68 1.438 4.912 3.469 3.707 5.306l9.322-3.646c-1.66-1.058-1.66-2.398 0-3.456l-8.435-3.299c-2.707.651-6.141.651-8.844 0l-9.324 3.646c4.703-.47 9.895.012 13.574 1.449z"/><path opacity=".1" fill="#FFF" d="M925.223 127.734l-20.162-7.883 40.58-15.866-20.418 23.749z"/><linearGradient id="n" gradientUnits="userSpaceOnUse" x1="2530.458" y1="2452.33" x2="2549.01" y2="2452.33" gradientTransform="scale(-1 1) rotate(-45 -2018.1 5478.94)"><stop offset="0" stop-color="#4b48bf"/><stop offset="1" stop-color="#a14b8a"/></linearGradient><ellipse fill="url(#n)" cx="935.319" cy="115.862" rx="12.215" ry="4.776"/><path opacity=".2" d="M945.524 104.028l20.057 7.842-40.467 15.821-20.053-7.84 40.463-15.823z"/><linearGradient id="o" gradientUnits="userSpaceOnUse" x1="2437.093" y1="2151.658" x2="2474.244" y2="2151.658" gradientTransform="scale(-1 1) rotate(-45 -1699.732 5226.115)"><stop offset="0" stop-color="#4b48bf"/><stop offset="1" stop-color="#a14b8a"/></linearGradient><path fill="url(#o)" d="M945.524 101.91l20.057 7.841-40.469 15.822-20.053-7.842 40.465-15.821z"/><path opacity=".2" d="M925.292 117.662c-3.68-1.438-4.909-3.47-3.706-5.306l-9.324 3.646c1.664 1.058 1.664 2.398 0 3.456l8.434 3.297c2.705-.649 6.14-.649 8.842 0l9.324-3.646c-4.703.474-9.893-.01-13.57-1.447zm20.056-7.843c3.68 1.438 4.912 3.469 3.707 5.306l9.322-3.646c-1.66-1.058-1.66-2.398 0-3.456l-8.435-3.298c-2.707.65-6.141.65-8.844 0l-9.324 3.646c4.703-.472 9.895.011 13.574 1.448z"/><path opacity=".1" fill="#FFF" d="M925.223 125.615l-20.162-7.884 40.58-15.865-20.418 23.749z"/><linearGradient id="p" gradientUnits="userSpaceOnUse" x1="2531.958" y1="2450.83" x2="2550.51" y2="2450.83" gradientTransform="scale(-1 1) rotate(-45 -2018.1 5478.94)"><stop offset="0" stop-color="#4b48bf"/><stop offset="1" stop-color="#a14b8a"/></linearGradient><ellipse fill="url(#p)" cx="935.319" cy="113.741" rx="12.215" ry="4.776"/><path opacity=".2" d="M945.524 101.909l20.057 7.841-40.467 15.822-20.053-7.841 40.463-15.822z"/><linearGradient id="q" gradientUnits="userSpaceOnUse" x1="2438.59" y1="2150.159" x2="2475.742" y2="2150.159" gradientTransform="scale(-1 1) rotate(-45 -1699.732 5226.115)"><stop offset="0" stop-color="#4b48bf"/><stop offset="1" stop-color="#a14b8a"/></linearGradient><path fill="url(#q)" d="M945.524 99.79l20.057 7.841-40.469 15.822-20.053-7.842 40.465-15.821z"/><path opacity=".2" d="M925.292 115.542c-3.68-1.438-4.909-3.469-3.706-5.306l-9.324 3.646c1.664 1.058 1.664 2.4 0 3.457l8.434 3.297c2.705-.648 6.14-.648 8.842 0l9.324-3.646c-4.703.471-9.893-.011-13.57-1.448zm20.056-7.842c3.68 1.438 4.912 3.468 3.707 5.305l9.322-3.646c-1.66-1.058-1.66-2.399 0-3.456l-8.435-3.298c-2.707.65-6.141.65-8.844 0l-9.324 3.646c4.703-.472 9.895.013 13.574 1.449z"/><path opacity=".1" fill="#FFF" d="M925.223 123.495l-20.162-7.884 40.58-15.865-20.418 23.749z"/><linearGradient id="r" gradientUnits="userSpaceOnUse" x1="2533.456" y1="2449.332" x2="2552.008" y2="2449.332" gradientTransform="scale(-1 1) rotate(-45 -2018.1 5478.94)"><stop offset="0" stop-color="#4b48bf"/><stop offset="1" stop-color="#a14b8a"/></linearGradient><ellipse fill="url(#r)" cx="935.319" cy="111.622" rx="12.215" ry="4.776"/><path opacity=".2" d="M945.524 99.789l20.057 7.841-40.467 15.822-20.053-7.841 40.463-15.822z"/><linearGradient id="s" gradientUnits="userSpaceOnUse" x1="2440.09" y1="2148.659" x2="2477.24" y2="2148.659" gradientTransform="scale(-1 1) rotate(-45 -1699.732 5226.115)"><stop offset="0" stop-color="#4b48bf"/><stop offset="1" stop-color="#a14b8a"/></linearGradient><path fill="url(#s)" d="M945.524 97.668l20.057 7.841-40.469 15.823-20.053-7.842 40.465-15.822z"/><path opacity=".2" d="M925.292 113.421c-3.68-1.438-4.909-3.469-3.706-5.306l-9.324 3.646c1.664 1.058 1.664 2.4 0 3.457l8.434 3.298c2.705-.648 6.14-.648 8.842 0l9.324-3.646c-4.703.471-9.893-.012-13.57-1.449zm20.056-7.84c3.68 1.438 4.912 3.468 3.707 5.305l9.322-3.646c-1.66-1.059-1.66-2.4 0-3.457l-8.435-3.298c-2.707.649-6.141.649-8.844 0l-9.324 3.646c4.703-.471 9.895.012 13.574 1.45z"/><path opacity=".1" fill="#FFF" d="M925.223 121.374l-20.162-7.883 40.58-15.865-20.418 23.748z"/><linearGradient id="t" gradientUnits="userSpaceOnUse" x1="2534.956" y1="2447.832" x2="2553.508" y2="2447.832" gradientTransform="scale(-1 1) rotate(-45 -2018.1 5478.94)"><stop offset="0" stop-color="#4b48bf"/><stop offset="1" stop-color="#a14b8a"/></linearGradient><ellipse fill="url(#t)" cx="935.319" cy="109.501" rx="12.215" ry="4.776"/><path opacity=".2" d="M945.524 97.667l20.057 7.842-40.467 15.822-20.053-7.841 40.463-15.823z"/><linearGradient id="u" gradientUnits="userSpaceOnUse" x1="2441.591" y1="2147.16" x2="2478.741" y2="2147.16" gradientTransform="scale(-1 1) rotate(-45 -1699.732 5226.115)"><stop offset="0" stop-color="#4b48bf"/><stop offset="1" stop-color="#a14b8a"/></linearGradient><path fill="url(#u)" d="M945.524 95.548l20.057 7.842-40.469 15.822-20.053-7.842 40.465-15.822z"/><path opacity=".2" d="M925.292 111.302c-3.68-1.438-4.909-3.468-3.706-5.306l-9.324 3.646c1.664 1.058 1.664 2.399 0 3.457l8.434 3.297c2.705-.649 6.14-.649 8.842 0l9.324-3.646c-4.703.472-9.893-.012-13.57-1.448zm20.056-7.843c3.68 1.438 4.912 3.468 3.707 5.306l9.322-3.646c-1.66-1.058-1.66-2.4 0-3.457l-8.435-3.297c-2.707.649-6.141.649-8.844 0l-9.324 3.646c4.703-.471 9.895.011 13.574 1.448z"/><path opacity=".1" fill="#FFF" d="M925.223 119.253l-20.162-7.883 40.58-15.865-20.418 23.748z"/><linearGradient id="v" gradientUnits="userSpaceOnUse" x1="2536.454" y1="2446.333" x2="2555.008" y2="2446.333" gradientTransform="scale(-1 1) rotate(-45 -2018.1 5478.94)"><stop offset="0" stop-color="#4b48bf"/><stop offset="1" stop-color="#a14b8a"/></linearGradient><ellipse fill="url(#v)" cx="935.319" cy="107.382" rx="12.215" ry="4.776"/><path opacity=".2" d="M945.524 95.548l20.057 7.842-40.467 15.82-20.053-7.84 40.463-15.822z"/><linearGradient id="w" gradientUnits="userSpaceOnUse" x1="2443.135" y1="2145.662" x2="2480.286" y2="2145.662" gradientTransform="scale(-1 1) rotate(-45 -1699.732 5226.115)"><stop offset="0" stop-color="#4b48bf"/><stop offset="1" stop-color="#a14b8a"/></linearGradient><path fill="url(#w)" d="M945.524 93.429l20.057 7.842-40.469 15.821-20.053-7.842 40.465-15.821z"/><path opacity=".2" d="M925.292 109.182c-3.68-1.438-4.909-3.469-3.706-5.306l-9.324 3.646c1.664 1.058 1.664 2.398 0 3.456l8.434 3.297c2.705-.649 6.14-.649 8.842 0l9.324-3.646c-4.703.473-9.893-.01-13.57-1.447zm20.056-7.843c3.68 1.438 4.912 3.469 3.707 5.306l9.322-3.646c-1.66-1.059-1.66-2.399 0-3.457l-8.435-3.297c-2.707.649-6.141.649-8.844 0l-9.324 3.646c4.703-.473 9.895.011 13.574 1.448z"/><path opacity=".1" fill="#FFF" d="M925.223 117.134l-20.162-7.883 40.58-15.865-20.418 23.748z"/><linearGradient id="x" gradientUnits="userSpaceOnUse" x1="2537.954" y1="2444.832" x2="2556.508" y2="2444.832" gradientTransform="scale(-1 1) rotate(-45 -2018.1 5478.94)"><stop offset="0" stop-color="#4b48bf"/><stop offset="1" stop-color="#a14b8a"/></linearGradient><ellipse fill="url(#x)" cx="935.319" cy="105.26" rx="12.215" ry="4.776"/><path opacity=".2" d="M945.524 93.429l20.057 7.841-40.467 15.82-20.053-7.84 40.463-15.821z"/><linearGradient id="y" gradientUnits="userSpaceOnUse" x1="2444.589" y1="2144.163" x2="2481.739" y2="2144.163" gradientTransform="scale(-1 1) rotate(-45 -1699.732 5226.115)"><stop offset="0" stop-color="#4b48bf"/><stop offset="1" stop-color="#a14b8a"/></linearGradient><path fill="url(#y)" d="M945.524 91.309l20.057 7.841-40.469 15.823-20.053-7.843 40.465-15.821z"/><path opacity=".2" d="M925.292 107.062c-3.68-1.438-4.909-3.469-3.706-5.306l-9.324 3.646c1.664 1.058 1.664 2.399 0 3.456l8.434 3.298c2.705-.649 6.14-.649 8.842 0l9.324-3.646c-4.703.471-9.893-.011-13.57-1.448zm20.056-7.843c3.68 1.438 4.912 3.469 3.707 5.306l9.322-3.646c-1.66-1.057-1.66-2.399 0-3.456l-8.435-3.298c-2.707.65-6.141.65-8.844 0l-9.324 3.646c4.703-.473 9.895.012 13.574 1.448z"/><path opacity=".1" fill="#FFF" d="M925.223 115.014l-20.162-7.884 40.58-15.864-20.418 23.748z"/><linearGradient id="z" gradientUnits="userSpaceOnUse" x1="2539.453" y1="2443.334" x2="2558.007" y2="2443.334" gradientTransform="scale(-1 1) rotate(-45 -2018.1 5478.94)"><stop offset="0" stop-color="#4b48bf"/><stop offset="1" stop-color="#a14b8a"/></linearGradient><ellipse fill="url(#z)" cx="935.319" cy="103.14" rx="12.215" ry="4.776"/><path opacity=".2" d="M945.524 91.308l20.057 7.842-40.467 15.821-20.053-7.841 40.463-15.822z"/><linearGradient id="A" gradientUnits="userSpaceOnUse" x1="2446.087" y1="2142.663" x2="2483.238" y2="2142.663" gradientTransform="scale(-1 1) rotate(-45 -1699.732 5226.115)"><stop offset="0" stop-color="#4b48bf"/><stop offset="1" stop-color="#a14b8a"/></linearGradient><path fill="url(#A)" d="M945.524 89.188l20.057 7.841-40.469 15.823-20.053-7.843 40.465-15.821z"/><path opacity=".2" d="M925.292 104.941c-3.68-1.438-4.909-3.469-3.706-5.307l-9.324 3.646c1.664 1.057 1.664 2.399 0 3.457l8.434 3.297c2.705-.649 6.14-.649 8.842 0l9.324-3.646c-4.703.473-9.893-.01-13.57-1.447zm20.056-7.84c3.68 1.438 4.912 3.468 3.707 5.305l9.322-3.646c-1.66-1.057-1.66-2.398 0-3.455l-8.435-3.299c-2.707.651-6.141.651-8.844 0l-9.324 3.646c4.703-.472 9.895.011 13.574 1.449z"/><path opacity=".1" fill="#FFF" d="M925.223 112.894l-20.162-7.884 40.58-15.864-20.418 23.748z"/><linearGradient id="B" gradientUnits="userSpaceOnUse" x1="2540.952" y1="2441.836" x2="2559.505" y2="2441.836" gradientTransform="scale(-1 1) rotate(-45 -2018.1 5478.94)"><stop offset="0" stop-color="#4b48bf"/><stop offset="1" stop-color="#a14b8a"/></linearGradient><ellipse fill="url(#B)" cx="935.319" cy="101.021" rx="12.215" ry="4.776"/><path opacity=".2" d="M945.524 89.188l20.057 7.843-40.467 15.821-20.053-7.842 40.463-15.822z"/><linearGradient id="C" gradientUnits="userSpaceOnUse" x1="2447.588" y1="2141.164" x2="2484.738" y2="2141.164" gradientTransform="scale(-1 1) rotate(-45 -1699.732 5226.115)"><stop offset="0" stop-color="#4b48bf"/><stop offset="1" stop-color="#a14b8a"/></linearGradient><path fill="url(#C)" d="M945.524 87.068l20.057 7.842-40.469 15.821-20.053-7.841 40.465-15.822z"/><path opacity=".2" d="M925.292 102.821c-3.68-1.438-4.909-3.469-3.706-5.306l-9.324 3.646c1.664 1.057 1.664 2.399 0 3.456l8.434 3.297c2.705-.649 6.14-.649 8.842 0l9.324-3.646c-4.703.474-9.893-.011-13.57-1.447zm20.056-7.842c3.68 1.438 4.912 3.469 3.707 5.306l9.322-3.646c-1.66-1.058-1.66-2.4 0-3.456l-8.435-3.299c-2.707.651-6.141.651-8.844 0l-9.324 3.646c4.703-.471 9.895.012 13.574 1.449z"/><path opacity=".1" fill="#FFF" d="M925.223 110.773l-20.162-7.883 40.58-15.866-20.418 23.749z"/><linearGradient id="D" gradientUnits="userSpaceOnUse" x1="2542.451" y1="2440.336" x2="2561.005" y2="2440.336" gradientTransform="scale(-1 1) rotate(-45 -2018.1 5478.94)"><stop offset="0" stop-color="#4b48bf"/><stop offset="1" stop-color="#a14b8a"/></linearGradient><ellipse fill="url(#D)" cx="935.319" cy="98.901" rx="12.215" ry="4.776"/><path opacity=".2" d="M945.524 87.067l20.057 7.843-40.467 15.82-20.053-7.84 40.463-15.823z"/><linearGradient id="E" gradientUnits="userSpaceOnUse" x1="2449.087" y1="2139.665" x2="2486.237" y2="2139.665" gradientTransform="scale(-1 1) rotate(-45 -1699.732 5226.115)"><stop offset="0" stop-color="#4b48bf"/><stop offset="1" stop-color="#a14b8a"/></linearGradient><path fill="url(#E)" d="M945.524 84.948l20.057 7.841-40.469 15.822-20.053-7.842 40.465-15.821z"/><path opacity=".2" d="M925.292 100.702c-3.68-1.438-4.909-3.47-3.706-5.307l-9.324 3.646c1.664 1.058 1.664 2.399 0 3.456l8.434 3.297c2.705-.648 6.14-.648 8.842 0l9.324-3.646c-4.703.474-9.893-.01-13.57-1.446zm20.056-7.843c3.68 1.438 4.912 3.469 3.707 5.306l9.322-3.646c-1.66-1.058-1.66-2.399 0-3.456l-8.435-3.298c-2.707.65-6.141.65-8.844 0l-9.324 3.646c4.703-.473 9.895.011 13.574 1.448z"/><path opacity=".1" fill="#FFF" d="M925.223 108.653l-20.162-7.883 40.58-15.866-20.418 23.749z"/><linearGradient id="F" gradientUnits="userSpaceOnUse" x1="2543.95" y1="2438.838" x2="2562.503" y2="2438.838" gradientTransform="scale(-1 1) rotate(-45 -2018.1 5478.94)"><stop offset="0" stop-color="#4b48bf"/><stop offset="1" stop-color="#a14b8a"/></linearGradient><ellipse fill="url(#F)" cx="935.319" cy="96.781" rx="12.215" ry="4.776"/><path opacity=".2" d="M945.524 84.948l20.057 7.842-40.467 15.82-20.053-7.84 40.463-15.822z"/><linearGradient id="G" gradientUnits="userSpaceOnUse" x1="2450.585" y1="2138.166" x2="2487.736" y2="2138.166" gradientTransform="scale(-1 1) rotate(-45 -1699.732 5226.115)"><stop offset="0" stop-color="#4b48bf"/><stop offset="1" stop-color="#a14b8a"/></linearGradient><path fill="url(#G)" d="M945.524 82.829l20.057 7.841-40.469 15.823-20.053-7.843 40.465-15.821z"/><path opacity=".2" d="M925.292 98.582c-3.68-1.438-4.909-3.47-3.706-5.306l-9.324 3.646c1.664 1.058 1.664 2.4 0 3.457l8.434 3.297c2.705-.648 6.14-.648 8.842 0l9.324-3.646c-4.703.47-9.893-.011-13.57-1.448zm20.056-7.842c3.68 1.438 4.912 3.468 3.707 5.305l9.322-3.646c-1.66-1.058-1.66-2.398 0-3.456l-8.435-3.298c-2.707.65-6.141.65-8.844 0l-9.324 3.646c4.703-.473 9.895.011 13.574 1.449z"/><path opacity=".1" fill="#FFF" d="M925.223 106.534l-20.162-7.884 40.58-15.865-20.418 23.749z"/><linearGradient id="H" gradientUnits="userSpaceOnUse" x1="2545.449" y1="2437.338" x2="2564.003" y2="2437.338" gradientTransform="scale(-1 1) rotate(-45 -2018.1 5478.94)"><stop offset="0" stop-color="#4b48bf"/><stop offset="1" stop-color="#a14b8a"/></linearGradient><ellipse fill="url(#H)" cx="935.319" cy="94.661" rx="12.215" ry="4.776"/><linearGradient id="I" gradientUnits="userSpaceOnUse" x1="2402.765" y1="2159.399" x2="2459.139" y2="2159.399" gradientTransform="scale(-1 1) rotate(-45 -1699.732 5226.115)"><stop offset="0" stop-color="#4b48bf"/><stop offset="1" stop-color="#a14b8a"/></linearGradient><path fill="url(#I)" d="M962.837 118.771l30.436 11.897-61.408 24.008-30.428-11.897 61.4-24.008z"/><path opacity=".2" d="M932.135 142.672c-5.578-2.183-7.451-5.263-5.623-8.05l-14.15 5.531c2.523 1.604 2.523 3.643 0 5.245l12.795 5.003c4.105-.985 9.314-.985 13.416 0l14.15-5.531c-7.127.716-15.007-.016-20.588-2.198zm30.43-11.898c5.582 2.182 7.451 5.263 5.623 8.05l14.146-5.533c-2.521-1.604-2.521-3.642 0-5.244l-12.796-5.004c-4.104.986-9.313.986-13.416 0l-14.147 5.532c7.129-.715 15.01.019 20.59 2.199z"/><path opacity=".1" fill="#FFF" d="M932.026 154.74l-30.592-11.962 61.576-24.073-30.984 36.035z"/><linearGradient id="J" gradientUnits="userSpaceOnUse" x1="2502.397" y1="2458.573" x2="2530.55" y2="2458.573" gradientTransform="scale(-1 1) rotate(-45 -2018.1 5478.94)"><stop offset="0" stop-color="#4b48bf"/><stop offset="1" stop-color="#a14b8a"/></linearGradient><ellipse fill="url(#J)" cx="947.352" cy="136.725" rx="18.535" ry="7.247"/><path opacity=".2" d="M962.837 118.77l30.436 11.897-61.404 24.007-30.432-11.896 61.4-24.008z"/><linearGradient id="K" gradientUnits="userSpaceOnUse" x1="2405.041" y1="2157.125" x2="2461.414" y2="2157.125" gradientTransform="scale(-1 1) rotate(-45 -1699.732 5226.115)"><stop offset="0" stop-color="#4b48bf"/><stop offset="1" stop-color="#a14b8a"/></linearGradient><path fill="url(#K)" d="M962.837 115.554l30.436 11.897-61.408 24.008-30.428-11.897 61.4-24.008z"/><path opacity=".2" d="M932.135 139.457c-5.578-2.184-7.451-5.264-5.623-8.05l-14.15 5.531c2.523 1.604 2.523 3.643 0 5.245l12.795 5.003c4.105-.985 9.314-.985 13.416 0l14.15-5.531c-7.127.715-15.007-.019-20.588-2.198zm30.43-11.899c5.582 2.182 7.451 5.262 5.623 8.049l14.146-5.532c-2.521-1.604-2.521-3.642 0-5.244l-12.796-5.004c-4.104.986-9.313.986-13.416 0l-14.147 5.531c7.129-.714 15.01.018 20.59 2.2z"/><path opacity=".1" fill="#FFF" d="M932.026 151.522l-30.592-11.961 61.576-24.074-30.984 36.035z"/><linearGradient id="L" gradientUnits="userSpaceOnUse" x1="2504.672" y1="2456.298" x2="2532.824" y2="2456.298" gradientTransform="scale(-1 1) rotate(-45 -2018.1 5478.94)"><stop offset="0" stop-color="#4b48bf"/><stop offset="1" stop-color="#a14b8a"/></linearGradient><ellipse fill="url(#L)" cx="947.352" cy="133.508" rx="18.535" ry="7.247"/><path opacity=".2" d="M962.837 115.552l30.436 11.898-61.404 24.007-30.43-11.896 61.398-24.009z"/><linearGradient id="M" gradientUnits="userSpaceOnUse" x1="2407.316" y1="2154.848" x2="2463.69" y2="2154.848" gradientTransform="scale(-1 1) rotate(-45 -1699.732 5226.115)"><stop offset="0" stop-color="#4b48bf"/><stop offset="1" stop-color="#a14b8a"/></linearGradient><path fill="url(#M)" d="M962.837 112.336l30.436 11.897-61.408 24.01-30.428-11.899 61.4-24.008z"/><path opacity=".2" d="M932.135 136.24c-5.578-2.184-7.451-5.264-5.623-8.051l-14.15 5.532c2.523 1.604 2.523 3.642 0 5.244l12.795 5.003c4.105-.985 9.314-.985 13.416 0l14.15-5.531c-7.127.715-15.007-.018-20.588-2.197zm30.43-11.9c5.582 2.182 7.451 5.263 5.623 8.05l14.146-5.533c-2.521-1.604-2.521-3.642 0-5.244l-12.796-5.004c-4.104.987-9.313.987-13.416 0l-14.147 5.532c7.129-.714 15.01.02 20.59 2.199z"/><path opacity=".1" fill="#FFF" d="M932.026 148.307l-30.592-11.963 61.576-24.073-30.984 36.036z"/><linearGradient id="N" gradientUnits="userSpaceOnUse" x1="2506.946" y1="2454.023" x2="2535.098" y2="2454.023" gradientTransform="scale(-1 1) rotate(-45 -2018.1 5478.94)"><stop offset="0" stop-color="#4b48bf"/><stop offset="1" stop-color="#a14b8a"/></linearGradient><ellipse fill="url(#N)" cx="947.352" cy="130.292" rx="18.535" ry="7.247"/><path opacity=".2" d="M962.837 112.335l30.436 11.897-61.404 24.009-30.43-11.897 61.398-24.009z"/><linearGradient id="O" gradientUnits="userSpaceOnUse" x1="2409.591" y1="2152.575" x2="2465.965" y2="2152.575" gradientTransform="scale(-1 1) rotate(-45 -1699.732 5226.115)"><stop offset="0" stop-color="#4b48bf"/><stop offset="1" stop-color="#a14b8a"/></linearGradient><path fill="url(#O)" d="M962.837 109.12l30.436 11.897-61.408 24.008-30.428-11.897 61.4-24.008z"/><path opacity=".2" d="M932.135 133.021c-5.578-2.184-7.451-5.264-5.623-8.05l-14.15 5.531c2.523 1.604 2.523 3.643 0 5.245l12.795 5.003c4.105-.985 9.314-.985 13.416 0l14.15-5.532c-7.127.718-15.007-.015-20.588-2.197zm30.43-11.897c5.582 2.182 7.451 5.262 5.623 8.049l14.146-5.532c-2.521-1.604-2.521-3.642 0-5.244l-12.796-5.004c-4.104.986-9.313.986-13.416 0l-14.147 5.531c7.129-.715 15.01.018 20.59 2.2z"/><path opacity=".1" fill="#FFF" d="M932.026 145.088l-30.592-11.961 61.576-24.074-30.984 36.035z"/><linearGradient id="P" gradientUnits="userSpaceOnUse" x1="2509.221" y1="2451.748" x2="2537.374" y2="2451.748" gradientTransform="scale(-1 1) rotate(-45 -2018.1 5478.94)"><stop offset="0" stop-color="#4b48bf"/><stop offset="1" stop-color="#a14b8a"/></linearGradient><ellipse fill="url(#P)" cx="947.352" cy="127.073" rx="18.535" ry="7.247"/><path opacity=".2" d="M962.837 109.119l30.436 11.897-61.404 24.007-30.43-11.896 61.398-24.008z"/><linearGradient id="Q" gradientUnits="userSpaceOnUse" x1="2411.866" y1="2150.3" x2="2468.239" y2="2150.3" gradientTransform="scale(-1 1) rotate(-45 -1699.732 5226.115)"><stop offset="0" stop-color="#4b48bf"/><stop offset="1" stop-color="#a14b8a"/></linearGradient><path fill="url(#Q)" d="M962.837 105.902l30.436 11.897-61.408 24.01-30.428-11.898 61.4-24.009z"/><path opacity=".2" d="M932.135 129.806c-5.578-2.184-7.451-5.264-5.623-8.051l-14.15 5.532c2.523 1.604 2.523 3.643 0 5.245l12.795 5.003c4.105-.986 9.314-.986 13.416 0l14.15-5.532c-7.127.716-15.007-.018-20.588-2.197zm30.43-11.9c5.582 2.181 7.451 5.262 5.623 8.049l14.146-5.533c-2.521-1.604-2.521-3.641 0-5.244l-12.796-5.004c-4.104.987-9.313.987-13.416 0l-14.147 5.532c7.129-.713 15.01.021 20.59 2.2z"/><path opacity=".1" fill="#FFF" d="M932.026 141.873l-30.592-11.962 61.576-24.074-30.984 36.036z"/><linearGradient id="R" gradientUnits="userSpaceOnUse" x1="2511.497" y1="2449.472" x2="2539.649" y2="2449.472" gradientTransform="scale(-1 1) rotate(-45 -2018.1 5478.94)"><stop offset="0" stop-color="#4b48bf"/><stop offset="1" stop-color="#a14b8a"/></linearGradient><ellipse fill="url(#R)" cx="947.352" cy="123.856" rx="18.535" ry="7.247"/><path opacity=".2" d="M962.837 105.901l30.436 11.897-61.404 24.009-30.43-11.896 61.398-24.01z"/><linearGradient id="S" gradientUnits="userSpaceOnUse" x1="2414.14" y1="2148.026" x2="2470.513" y2="2148.026" gradientTransform="scale(-1 1) rotate(-45 -1699.732 5226.115)"><stop offset="0" stop-color="#4b48bf"/><stop offset="1" stop-color="#a14b8a"/></linearGradient><path fill="url(#S)" d="M962.837 102.687l30.436 11.896-61.408 24.009-30.428-11.898 61.4-24.007z"/><path opacity=".2" d="M932.135 126.588c-5.578-2.183-7.451-5.263-5.623-8.05l-14.15 5.531c2.523 1.604 2.523 3.643 0 5.245l12.795 5.003c4.105-.985 9.314-.985 13.416 0l14.15-5.531c-7.127.715-15.007-.016-20.588-2.198zm30.43-11.899c5.582 2.182 7.451 5.263 5.623 8.05l14.146-5.533c-2.521-1.604-2.521-3.642 0-5.244l-12.796-5.004c-4.104.986-9.313.986-13.416 0l-14.147 5.532c7.129-.715 15.01.02 20.59 2.199z"/><path opacity=".1" fill="#FFF" d="M932.026 138.656l-30.592-11.963 61.576-24.072-30.984 36.035z"/><linearGradient id="T" gradientUnits="userSpaceOnUse" x1="2513.77" y1="2447.199" x2="2541.923" y2="2447.199" gradientTransform="scale(-1 1) rotate(-45 -2018.1 5478.94)"><stop offset="0" stop-color="#4b48bf"/><stop offset="1" stop-color="#a14b8a"/></linearGradient><ellipse fill="url(#T)" cx="947.352" cy="120.641" rx="18.535" ry="7.247"/><path opacity=".2" d="M962.837 102.686l30.436 11.896-61.404 24.008-30.43-11.896 61.398-24.008z"/><linearGradient id="U" gradientUnits="userSpaceOnUse" x1="2416.414" y1="2145.752" x2="2472.789" y2="2145.752" gradientTransform="scale(-1 1) rotate(-45 -1699.732 5226.115)"><stop offset="0" stop-color="#4b48bf"/><stop offset="1" stop-color="#a14b8a"/></linearGradient><path fill="url(#U)" d="M962.837 99.469l30.436 11.899-61.408 24.007-30.428-11.897 61.4-24.009z"/><path opacity=".2" d="M932.135 123.372c-5.578-2.184-7.451-5.264-5.623-8.05l-14.15 5.531c2.523 1.604 2.523 3.643 0 5.244l12.795 5.003c4.105-.984 9.314-.984 13.416 0l14.15-5.531c-7.127.717-15.007-.017-20.588-2.197zm30.43-11.899c5.582 2.183 7.451 5.263 5.623 8.05l14.146-5.532c-2.521-1.604-2.521-3.643 0-5.244l-12.796-5.004c-4.104.986-9.313.986-13.416 0l-14.147 5.531c7.129-.715 15.01.018 20.59 2.199z"/><path opacity=".1" fill="#FFF" d="M932.026 135.438l-30.592-11.962 61.576-24.073-30.984 36.035z"/><linearGradient id="V" gradientUnits="userSpaceOnUse" x1="2516.046" y1="2444.924" x2="2544.198" y2="2444.924" gradientTransform="scale(-1 1) rotate(-45 -2018.1 5478.94)"><stop offset="0" stop-color="#4b48bf"/><stop offset="1" stop-color="#a14b8a"/></linearGradient><ellipse fill="url(#V)" cx="947.352" cy="117.423" rx="18.535" ry="7.247"/><path opacity=".2" d="M962.837 99.468l30.436 11.899-61.404 24.007-30.43-11.896 61.398-24.01z"/><linearGradient id="W" gradientUnits="userSpaceOnUse" x1="2418.689" y1="2143.476" x2="2475.064" y2="2143.476" gradientTransform="scale(-1 1) rotate(-45 -1699.732 5226.115)"><stop offset="0" stop-color="#4b48bf"/><stop offset="1" stop-color="#a14b8a"/></linearGradient><path fill="url(#W)" d="M962.837 96.252l30.436 11.897-61.408 24.009-30.43-11.898 61.402-24.008z"/><path opacity=".2" d="M932.135 120.154c-5.578-2.183-7.451-5.263-5.623-8.05l-14.15 5.531c2.523 1.604 2.523 3.643 0 5.245l12.795 5.003c4.105-.985 9.314-.985 13.416 0l14.15-5.531c-7.127.716-15.007-.017-20.588-2.198zm30.43-11.898c5.582 2.182 7.451 5.263 5.623 8.05l14.146-5.533c-2.521-1.604-2.521-3.642 0-5.244l-12.796-5.004c-4.104.986-9.313.986-13.416 0l-14.147 5.532c7.129-.714 15.01.019 20.59 2.199z"/><path opacity=".1" fill="#FFF" d="M932.026 132.222l-30.592-11.962 61.576-24.073-30.984 36.035z"/><linearGradient id="X" gradientUnits="userSpaceOnUse" x1="2518.319" y1="2442.65" x2="2546.471" y2="2442.65" gradientTransform="scale(-1 1) rotate(-45 -2018.1 5478.94)"><stop offset="0" stop-color="#4b48bf"/><stop offset="1" stop-color="#a14b8a"/></linearGradient><ellipse fill="url(#X)" cx="947.352" cy="114.207" rx="18.535" ry="7.247"/><path opacity=".2" d="M962.837 96.251l30.436 11.897-61.404 24.008-30.43-11.896 61.398-24.009z"/><linearGradient id="Y" gradientUnits="userSpaceOnUse" x1="2420.964" y1="2141.202" x2="2477.338" y2="2141.202" gradientTransform="scale(-1 1) rotate(-45 -1699.732 5226.115)"><stop offset="0" stop-color="#4b48bf"/><stop offset="1" stop-color="#a14b8a"/></linearGradient><path fill="url(#Y)" d="M962.837 93.036l30.436 11.897-61.408 24.008-30.428-11.898 61.4-24.007z"/><path opacity=".2" d="M932.135 116.938c-5.578-2.184-7.451-5.264-5.623-8.05l-14.15 5.531c2.523 1.604 2.523 3.643 0 5.245l12.795 5.003c4.105-.985 9.314-.985 13.416 0l14.15-5.532c-7.127.717-15.007-.016-20.588-2.197zm30.43-11.898c5.582 2.182 7.451 5.262 5.623 8.049l14.146-5.532c-2.521-1.604-2.521-3.642 0-5.244l-12.796-5.004c-4.104.986-9.313.986-13.416 0l-14.147 5.531c7.129-.715 15.01.018 20.59 2.2z"/><path opacity=".1" fill="#FFF" d="M932.026 129.004l-30.592-11.962 61.576-24.073-30.984 36.035z"/><linearGradient id="Z" gradientUnits="userSpaceOnUse" x1="2520.595" y1="2440.375" x2="2548.747" y2="2440.375" gradientTransform="scale(-1 1) rotate(-45 -2018.1 5478.94)"><stop offset="0" stop-color="#4b48bf"/><stop offset="1" stop-color="#a14b8a"/></linearGradient><ellipse fill="url(#Z)" cx="947.352" cy="110.99" rx="18.535" ry="7.247"/><path opacity=".2" d="M962.837 93.035l30.436 11.897-61.404 24.007-30.43-11.896 61.398-24.008z"/><linearGradient id="aa" gradientUnits="userSpaceOnUse" x1="2423.239" y1="2138.927" x2="2479.612" y2="2138.927" gradientTransform="scale(-1 1) rotate(-45 -1699.732 5226.115)"><stop offset="0" stop-color="#4b48bf"/><stop offset="1" stop-color="#a14b8a"/></linearGradient><path fill="url(#aa)" d="M962.837 89.818l30.436 11.897-61.408 24.009-30.428-11.897 61.4-24.009z"/><path opacity=".2" d="M932.135 113.721c-5.578-2.184-7.451-5.264-5.623-8.051l-14.15 5.532c2.523 1.604 2.523 3.642 0 5.245l12.795 5.003c4.105-.986 9.314-.986 13.416 0l14.15-5.532c-7.127.717-15.007-.017-20.588-2.197zm30.43-11.898c5.582 2.181 7.451 5.262 5.623 8.049l14.146-5.533c-2.521-1.604-2.521-3.641 0-5.244L969.54 94.09c-4.104.987-9.313.987-13.416 0l-14.147 5.532c7.127-.713 15.008.02 20.588 2.201z"/><path opacity=".1" fill="#FFF" d="M932.026 125.788l-30.592-11.961 61.576-24.074-30.984 36.035z"/><linearGradient id="ab" gradientUnits="userSpaceOnUse" x1="2522.87" y1="2438.1" x2="2551.022" y2="2438.1" gradientTransform="scale(-1 1) rotate(-45 -2018.1 5478.94)"><stop offset="0" stop-color="#4b48bf"/><stop offset="1" stop-color="#a14b8a"/></linearGradient><ellipse fill="url(#ab)" cx="947.352" cy="107.772" rx="18.535" ry="7.247"/><path opacity=".2" d="M962.837 89.817l30.436 11.897-61.404 24.008-30.43-11.896 61.398-24.009z"/><linearGradient id="ac" gradientUnits="userSpaceOnUse" x1="2425.513" y1="2136.653" x2="2481.887" y2="2136.653" gradientTransform="scale(-1 1) rotate(-45 -1699.732 5226.115)"><stop offset="0" stop-color="#4b48bf"/><stop offset="1" stop-color="#a14b8a"/></linearGradient><path fill="url(#ac)" d="M962.837 86.602L993.272 98.5l-61.408 24.008-30.428-11.897 61.401-24.009z"/><path opacity=".2" d="M932.135 110.503c-5.578-2.184-7.451-5.263-5.623-8.05l-14.15 5.531c2.523 1.604 2.523 3.643 0 5.245l12.795 5.003c4.105-.985 9.314-.985 13.416 0l14.15-5.531c-7.127.716-15.007-.016-20.588-2.198zm30.43-11.898c5.582 2.182 7.451 5.263 5.623 8.049l14.146-5.532c-2.521-1.604-2.521-3.642 0-5.244l-12.796-5.004c-4.104.986-9.313.986-13.416 0l-14.147 5.532c7.129-.715 15.01.018 20.59 2.199z"/><path opacity=".1" fill="#FFF" d="M932.026 122.57l-30.592-11.961 61.576-24.073-30.984 36.034z"/><linearGradient id="ad" gradientUnits="userSpaceOnUse" x1="2525.144" y1="2435.826" x2="2553.296" y2="2435.826" gradientTransform="scale(-1 1) rotate(-45 -2018.1 5478.94)"><stop offset="0" stop-color="#4b48bf"/><stop offset="1" stop-color="#a14b8a"/></linearGradient><ellipse fill="url(#ad)" cx="947.352" cy="104.556" rx="18.535" ry="7.247"/><path fill="#FFF" d="M778.678 80.963h-2.396v7.082h-.588v-7.082h-2.396v-.544h5.382l-.002.544zm5.456 1.635v5.446h-.556v-1.23c-.459.816-1.297 1.352-2.344 1.352-1.547 0-2.821-1.23-2.821-2.844s1.274-2.844 2.821-2.844c1.047 0 1.885.533 2.344 1.352V82.6l.556-.002zm-.555 2.724c0-1.297-1.003-2.32-2.299-2.32-1.297 0-2.311 1.023-2.311 2.32s1.014 2.32 2.311 2.32c1.296 0 2.299-1.024 2.299-2.32zm4.592-2.8v.521c-.938 0-1.818.578-1.818 1.974v3.027h-.545v-5.446h.545v1.066c.368-.859 1.077-1.142 1.818-1.142zm6.154.076v5.186c0 1.635-1.209 2.561-2.713 2.561-1.274 0-2.18-.512-2.57-1.308l.479-.271c.283.577.893 1.057 2.092 1.057 1.361 0 2.168-.795 2.168-2.037v-1.002c-.447.839-1.285 1.384-2.342 1.384-1.559 0-2.822-1.23-2.822-2.844s1.265-2.844 2.822-2.844c1.057 0 1.896.545 2.342 1.384V82.6l.544-.002zm-.545 2.724a2.291 2.291 0 0 0-2.264-2.32h-.046c-1.297 0-2.311 1.023-2.311 2.32s1.014 2.32 2.311 2.32a2.293 2.293 0 0 0 2.31-2.276v-.044zm7.36.021c0 .088-.011.176-.011.263h-4.937c.131 1.23 1.067 2.037 2.311 2.037.894 0 1.568-.414 1.885-.991l.479.283c-.446.74-1.297 1.23-2.375 1.23-1.678 0-2.864-1.198-2.864-2.844 0-1.603 1.153-2.844 2.82-2.844 1.657.001 2.692 1.374 2.692 2.866zm-4.946-.272h4.379c-.119-1.329-1.057-2.069-2.124-2.069-1.241-.001-2.146.86-2.255 2.069zm7.219-1.939v3.54c0 .959.513.98 1.623.884v.489c-1.428.219-2.179-.131-2.179-1.373v-3.54h-1.198v-.533h1.198v-1.362l.556-.163v1.525h1.623v.533h-1.623zm8.199-.61v.521c-.938 0-1.818.578-1.818 1.974v3.027h-.545v-5.446h.545v1.066c.369-.859 1.078-1.142 1.818-1.142zm5.914 2.821c0 .088-.012.176-.012.263h-4.937c.132 1.23 1.068 2.037 2.312 2.037.893 0 1.567-.414 1.885-.991l.479.283c-.446.74-1.297 1.23-2.375 1.23-1.679 0-2.865-1.198-2.865-2.844 0-1.603 1.155-2.844 2.822-2.844 1.656.001 2.691 1.374 2.691 2.866zm-4.947-.272h4.381c-.12-1.329-1.058-2.069-2.125-2.069-1.242-.001-2.147.86-2.256 2.069zm13.189-2.473l-1.721 5.446h-.601l-1.514-4.642-1.515 4.642h-.6l-1.723-5.446h.578l1.448 4.738 1.525-4.738h.566l1.524 4.738 1.449-4.738h.584zm6.326 0v5.446h-.558v-1.23c-.457.816-1.297 1.352-2.342 1.352-1.547 0-2.822-1.23-2.822-2.844s1.275-2.844 2.822-2.844c1.045 0 1.885.533 2.342 1.352V82.6l.558-.002zm-.556 2.724c0-1.297-1.002-2.32-2.299-2.32s-2.31 1.023-2.31 2.32 1.013 2.32 2.31 2.32 2.299-1.024 2.299-2.32zm4.594-2.8v.521c-.938 0-1.82.578-1.82 1.974v3.027h-.545v-5.446h.545v1.066c.37-.859 1.078-1.142 1.82-1.142zm6.119-2.103v7.626h-.545v-1.264c-.445.839-1.285 1.384-2.343 1.384-1.558 0-2.821-1.23-2.821-2.844s1.265-2.844 2.821-2.844c1.058 0 1.896.545 2.343 1.384v-3.442h.545zm-.544 4.903c0-1.297-1.013-2.32-2.31-2.32s-2.311 1.023-2.311 2.32 1.014 2.32 2.311 2.32 2.31-1.024 2.31-2.32zm10.473-2.724v5.446h-.555v-1.23c-.459.816-1.298 1.352-2.344 1.352-1.547 0-2.82-1.23-2.82-2.844s1.273-2.844 2.82-2.844c1.046 0 1.885.533 2.344 1.352V82.6l.555-.002zm-.554 2.724c0-1.297-1.003-2.32-2.3-2.32s-2.311 1.023-2.311 2.32 1.014 2.32 2.311 2.32 2.3-1.024 2.3-2.32zm10.029-.731v3.454h-.545v-3.454c0-1.033-.6-1.59-1.449-1.59-.914 0-1.634.609-1.634 2.004v3.04h-.545v-3.454c0-1.033-.556-1.59-1.395-1.59-.895 0-1.688.609-1.688 2.004v3.04h-.545v-5.446h.545v.937c.402-.751 1.058-1.057 1.754-1.057.795 0 1.416.393 1.699 1.11.393-.763 1.09-1.11 1.82-1.11 1.155-.001 1.983.751 1.983 2.112zm1.159.731c0-1.612 1.274-2.844 2.866-2.844 1.579 0 2.854 1.23 2.854 2.844s-1.273 2.844-2.854 2.844c-1.591-.001-2.866-1.232-2.866-2.844zm5.165 0c0-1.297-1.003-2.32-2.299-2.32-1.297 0-2.312 1.023-2.312 2.32s1.015 2.32 2.312 2.32c1.296 0 2.299-1.024 2.299-2.32zm6.324-2.724v5.446h-.544V87.01c-.414.808-1.111 1.155-1.95 1.155-1.297 0-2.113-.86-2.113-2.18v-3.388h.555v3.388c0 1.003.578 1.656 1.603 1.656 1.068 0 1.907-.697 1.907-2.168v-2.876l.542.001zm6.284 2.058v3.389h-.558v-3.389c0-1.002-.576-1.655-1.602-1.655-1.066 0-1.906.697-1.906 2.168v2.876h-.545v-5.446h.545v1.034c.414-.807 1.111-1.154 1.951-1.154 1.297-.001 2.115.859 2.115 2.177zm2.697-1.524v3.54c0 .959.513.98 1.623.884v.489c-1.427.219-2.178-.131-2.178-1.373v-3.54h-1.199v-.533h1.199v-1.362l.555-.163v1.525h1.623v.533h-1.623z"/><path opacity=".5" d="M812.932 198.832c0-5.328 2.869-9.984 7.145-12.518h-13.516a8.669 8.669 0 0 1-6.408 6.405v12.222a8.669 8.669 0 0 1 6.408 6.406h13.516c-4.275-2.528-7.145-7.185-7.145-12.515zm29.061 0c0 5.33-2.864 9.986-7.146 12.52h13.518a8.67 8.67 0 0 1 6.406-6.406v-12.223a8.668 8.668 0 0 1-6.406-6.406H834.85a14.51 14.51 0 0 1 7.143 12.515z"/><linearGradient id="ae" gradientUnits="userSpaceOnUse" x1="773.256" y1="2171.597" x2="798.296" y2="2171.597" gradientTransform="matrix(0 -1 -1 0 2999.062 984.609)"><stop offset="0" stop-color="#4b48bf"/><stop offset="1" stop-color="#a14b8a"/></linearGradient><circle fill="url(#ae)" cx="827.466" cy="198.833" r="12.52"/><linearGradient id="af" gradientUnits="userSpaceOnUse" x1="687.651" y1="1870.625" x2="716.715" y2="1870.625" gradientTransform="matrix(0 -1 -1 0 2699.898 899.09)"><stop offset="0" stop-color="#4b48bf"/><stop offset="1" stop-color="#a14b8a"/></linearGradient><path fill="url(#af)" d="M799.95 182.375h58.646v29.063H799.95v-29.063z"/><path opacity=".2" d="M814.741 196.906c0-5.33 2.869-9.988 7.146-12.518h-13.514a8.668 8.668 0 0 1-6.406 6.4v12.227a8.663 8.663 0 0 1 6.406 6.402h13.516a14.511 14.511 0 0 1-7.148-12.511zm29.068 0c0 5.328-2.869 9.986-7.146 12.518h13.521a8.674 8.674 0 0 1 6.406-6.404v-12.225a8.667 8.667 0 0 1-6.406-6.404h-13.521a14.52 14.52 0 0 1 7.146 12.515z"/><path opacity=".1" fill="#FFF" d="M799.95 211.593v-29.218h58.813l-58.813 29.218z"/><linearGradient id="ag" gradientUnits="userSpaceOnUse" x1="775.184" y1="2169.785" x2="800.221" y2="2169.785" gradientTransform="matrix(0 -1 -1 0 2999.062 984.609)"><stop offset="0" stop-color="#4b48bf"/><stop offset="1" stop-color="#a14b8a"/></linearGradient><circle fill="url(#ag)" cx="829.276" cy="196.906" r="12.519"/><path fill="#FFF" d="M826.837 190.528v13.201h-3.021v-10.018l-2.34.645-.734-2.584 3.451-1.244h2.644zm.888 6.602c0-4.073 1.963-6.864 5.375-6.864 3.414 0 5.375 2.791 5.375 6.864s-1.961 6.864-5.375 6.864c-3.412 0-5.375-2.791-5.375-6.864zm7.733 0c0-2.547-.772-3.923-2.356-3.923s-2.357 1.376-2.357 3.923c0 2.546.773 3.925 2.357 3.925s2.356-1.379 2.356-3.925z"/><path opacity=".7" fill="#FFF" d="M809.009 202.524v1.271h-.664v-1.26c-1.562-.07-2.717-.793-3.154-2.014l.65-.363c.323.984 1.188 1.584 2.504 1.65v-4.201c-1.443-.51-2.689-1.029-2.689-2.717 0-1.473 1.189-2.462 2.689-2.563v-1.271h.664v1.271c1.119.127 2.063.722 2.504 1.782l-.639.354c-.322-.809-.964-1.286-1.865-1.398v4.02c1.438.512 2.746 1.076 2.746 2.762 0 1.488-1.135 2.522-2.746 2.677zm-.665-5.671v-3.793c-1.16.104-1.939.854-1.939 1.84-.004 1.117.822 1.542 1.939 1.953zm2.641 2.998c0-1.134-.813-1.601-1.979-2.011v3.947c1.272-.14 1.979-.918 1.979-1.936zm38.692 2.673v1.271h-.664v-1.26c-1.562-.07-2.717-.793-3.154-2.014l.65-.363c.321.984 1.188 1.584 2.504 1.65v-4.201c-1.443-.51-2.689-1.029-2.689-2.717 0-1.473 1.189-2.462 2.689-2.563v-1.271h.664v1.271c1.117.127 2.063.722 2.504 1.782l-.637.354c-.324-.809-.964-1.286-1.867-1.398v4.02c1.438.512 2.746 1.076 2.746 2.762 0 1.488-1.137 2.522-2.746 2.677zm-.665-5.671v-3.793c-1.16.104-1.939.854-1.939 1.84-.004 1.117.822 1.542 1.939 1.953zm2.641 2.998c0-1.134-.815-1.601-1.979-2.011v3.947c1.272-.14 1.979-.918 1.979-1.936z"/><path opacity=".5" d="M602.645 199.788c0-5.328 2.869-9.986 7.146-12.518H596.27a8.66 8.66 0 0 1-6.402 6.406V205.9a8.666 8.666 0 0 1 6.402 6.405h13.521a14.52 14.52 0 0 1-7.146-12.517zm29.067.002c0 5.328-2.867 9.987-7.146 12.518h13.518a8.67 8.67 0 0 1 6.406-6.405V193.68a8.672 8.672 0 0 1-6.406-6.407h-13.52c4.28 2.529 7.148 7.188 7.148 12.517z"/><linearGradient id="ah" gradientUnits="userSpaceOnUse" x1="772.3" y1="2381.885" x2="797.338" y2="2381.885" gradientTransform="matrix(0 -1 -1 0 2999.062 984.609)"><stop offset="0" stop-color="#4b48bf"/><stop offset="1" stop-color="#a14b8a"/></linearGradient><circle fill="url(#ah)" cx="617.178" cy="199.79" r="12.519"/><linearGradient id="ai" gradientUnits="userSpaceOnUse" x1="686.695" y1="2080.906" x2="715.759" y2="2080.906" gradientTransform="matrix(0 -1 -1 0 2699.898 899.09)"><stop offset="0" stop-color="#4b48bf"/><stop offset="1" stop-color="#a14b8a"/></linearGradient><path fill="url(#ai)" d="M589.669 183.331h58.646v29.063h-58.646v-29.063z"/><path opacity=".2" d="M604.46 197.862c0-5.327 2.87-9.987 7.145-12.518h-13.516a8.675 8.675 0 0 1-6.408 6.406v12.223a8.672 8.672 0 0 1 6.408 6.405h13.516c-4.274-2.527-7.145-7.187-7.145-12.516zm29.062 0c0 5.329-2.869 9.988-7.146 12.52h13.519a8.665 8.665 0 0 1 6.406-6.405v-12.223a8.666 8.666 0 0 1-6.406-6.405h-13.519a14.514 14.514 0 0 1 7.146 12.513z"/><path opacity=".1" fill="#FFF" d="M589.669 212.552v-29.221h58.811l-58.811 29.221z"/><linearGradient id="aj" gradientUnits="userSpaceOnUse" x1="774.226" y1="2380.07" x2="799.264" y2="2380.07" gradientTransform="matrix(0 -1 -1 0 2999.062 984.609)"><stop offset="0" stop-color="#4b48bf"/><stop offset="1" stop-color="#a14b8a"/></linearGradient><circle fill="url(#aj)" cx="618.991" cy="197.864" r="12.519"/><path fill="#FFF" d="M623.975 200.292c0 2.733-2 4.658-4.904 4.658-2.924 0-4.901-1.925-4.901-4.658 0-1.02.28-1.94.771-2.678l4.037-6.13h3.469l-2.865 4.168c2.622.21 4.393 2.077 4.393 4.64zm-3.017 0c0-1.148-.889-1.828-1.889-1.828-1.021 0-1.887.66-1.887 1.828 0 1.171.865 1.83 1.887 1.83 1 0 1.889-.678 1.889-1.83z"/><path opacity=".7" fill="#FFF" d="M598.723 203.482v1.272h-.666v-1.259c-1.557-.07-2.715-.793-3.154-2.009l.65-.368c.326.989 1.188 1.584 2.504 1.654v-4.201c-1.441-.51-2.688-1.031-2.688-2.717 0-1.472 1.188-2.462 2.688-2.561v-1.272h.666v1.272c1.117.126 2.066.722 2.504 1.781l-.637.354c-.326-.807-.963-1.287-1.867-1.398v4.018c1.443.511 2.744 1.076 2.744 2.759.002 1.487-1.128 2.52-2.744 2.675zm-.666-5.673v-3.792c-1.16.101-1.938.851-1.938 1.839.003 1.119.819 1.542 1.938 1.953zm2.649 2.999c0-1.132-.819-1.599-1.979-2.009v3.947c1.272-.142 1.979-.919 1.979-1.938zm38.685 2.674v1.272h-.666v-1.259c-1.557-.07-2.715-.793-3.154-2.009l.65-.368c.326.989 1.188 1.584 2.504 1.654v-4.201c-1.441-.51-2.688-1.031-2.688-2.717 0-1.472 1.188-2.462 2.688-2.561v-1.272h.666v1.272c1.117.126 2.064.722 2.504 1.781l-.639.354c-.324-.807-.961-1.287-1.865-1.398v4.018c1.443.511 2.744 1.076 2.744 2.759.002 1.487-1.128 2.52-2.744 2.675zm-.666-5.673v-3.792c-1.16.101-1.938.851-1.938 1.839.003 1.119.819 1.542 1.938 1.953zm2.649 2.999c0-1.132-.819-1.599-1.979-2.009v3.947c1.272-.142 1.979-.919 1.979-1.938z"/><path fill="#A04B8A" d="M661.548 200.485l1.953-1.133c.354.82.961 1.372 2.077 1.372 1.072 0 1.345-.425 1.345-.807 0-.607-.564-.851-2.052-1.26-1.475-.41-2.914-1.117-2.914-3.014 0-1.909 1.609-3.014 3.32-3.014 1.629 0 2.9.777 3.621 2.234l-1.906 1.118c-.342-.709-.809-1.146-1.715-1.146-.705 0-1.061.354-1.061.75 0 .453.237.765 1.78 1.229 1.498.452 3.185.977 3.185 3.067 0 1.91-1.525 3.042-3.681 3.042-2.072.009-3.402-.982-3.952-2.438zm8.556-1.287c0-2.108 1.602-3.734 3.748-3.734 1.373 0 2.59.722 3.195 1.812l-1.854 1.075c-.233-.495-.75-.792-1.365-.792-.92 0-1.604.665-1.604 1.642s.686 1.642 1.604 1.642c.615 0 1.146-.298 1.365-.792l1.854 1.062c-.605 1.104-1.812 1.825-3.195 1.825-2.146-.006-3.748-1.633-3.748-3.74zm14.912-3.537v7.07h-2.121v-.665c-.467.538-1.16.863-2.105.863-1.854 0-3.381-1.628-3.381-3.733 0-2.107 1.525-3.733 3.381-3.733.945 0 1.644.325 2.105.862v-.664h2.121zm-2.121 3.537c0-1.063-.707-1.729-1.684-1.729-.98 0-1.688.665-1.688 1.729 0 1.061.707 1.726 1.688 1.726.977 0 1.684-.666 1.684-1.726zm14.289-.807v4.342h-2.121v-4.158c0-.707-.34-1.16-1.02-1.16-.707 0-1.105.496-1.105 1.33v3.988h-2.123v-4.158c0-.707-.34-1.16-1.018-1.16-.707 0-1.104.496-1.104 1.33v3.988h-2.121v-7.07h2.121v.648c.322-.48.945-.85 1.896-.85.836 0 1.457.339 1.854.935.396-.565 1.053-.935 2.058-.935 1.625.002 2.683 1.161 2.683 2.93zm4.787-4.625c0-.691.58-1.271 1.272-1.271.689 0 1.271.58 1.271 1.271s-.58 1.271-1.271 1.271a1.285 1.285 0 0 1-1.272-1.271zm.211 1.895h2.121v7.07h-2.121v-7.07zm9.096 4.951c0 1.625-1.416 2.319-2.938 2.319-1.414 0-2.488-.538-3.041-1.686l1.84-1.045c.184.537.58.834 1.201.834.51 0 .764-.156.764-.438 0-.778-3.479-.368-3.479-2.814 0-1.541 1.302-2.319 2.771-2.319 1.146 0 2.164.51 2.758 1.515l-1.811.977c-.197-.367-.48-.623-.947-.623-.367 0-.594.144-.594.396 0 .804 3.476.267 3.476 2.884zm6.199 0c0 1.625-1.416 2.319-2.941 2.319-1.414 0-2.487-.538-3.041-1.686l1.841-1.045c.186.537.579.834 1.2.834.511 0 .765-.156.765-.438 0-.778-3.479-.368-3.479-2.814 0-1.541 1.305-2.319 2.771-2.319 1.146 0 2.164.51 2.758 1.515l-1.812.977c-.196-.367-.479-.623-.946-.623-.367 0-.595.144-.595.396.001.804 3.479.267 3.479 2.884zm7.752-4.951v7.07h-2.121v-.665c-.385.522-1.092.863-2.021.863-1.429 0-2.646-1.021-2.646-2.929v-4.342h2.121v4.03c0 .877.553 1.286 1.229 1.286.773 0 1.313-.452 1.313-1.457v-3.859l2.125.003zm1.348-1.895c0-.691.58-1.271 1.271-1.271.692 0 1.272.58 1.272 1.271s-.58 1.271-1.272 1.271a1.284 1.284 0 0 1-1.271-1.271zm.213 1.895h2.121v7.07h-2.121v-7.07zm10.469 2.73v4.342h-2.123v-4.029c0-.877-.551-1.287-1.23-1.287-.772 0-1.313.453-1.313 1.457v3.859h-2.121v-7.07h2.121v.664c.381-.522 1.09-.862 2.021-.862 1.429-.002 2.645 1.016 2.645 2.926zm8.712-2.73v6.719c0 2.376-1.853 3.38-3.734 3.38-1.471 0-2.699-.552-3.352-1.711l1.811-1.048c.271.496.683.893 1.613.893.99 0 1.6-.51 1.6-1.514v-.65c-.469.58-1.146.919-2.063.919-2.012 0-3.479-1.642-3.479-3.593 0-1.952 1.476-3.594 3.479-3.594.918 0 1.598.339 2.063.919v-.722l2.062.002zm-2.062 3.395c0-.978-.707-1.642-1.715-1.642-1.006 0-1.713.664-1.713 1.642s.707 1.642 1.713 1.642c1.008-.002 1.715-.666 1.715-1.642z"/><path opacity=".5" d="M603.352 244.548c0-5.33 2.869-9.987 7.146-12.518H596.98a8.67 8.67 0 0 1-6.402 6.405v12.222a8.664 8.664 0 0 1 6.402 6.405h13.521c-4.28-2.528-7.149-7.186-7.149-12.514zm29.067 0c0 5.328-2.869 9.986-7.146 12.517h13.52a8.672 8.672 0 0 1 6.404-6.403v-12.223a8.673 8.673 0 0 1-6.404-6.406h-13.52c4.277 2.527 7.146 7.185 7.146 12.515z"/><linearGradient id="ak" gradientUnits="userSpaceOnUse" x1="727.543" y1="2381.175" x2="752.581" y2="2381.175" gradientTransform="matrix(0 -1 -1 0 2999.062 984.609)"><stop offset="0" stop-color="#4b48bf"/><stop offset="1" stop-color="#a14b8a"/></linearGradient><circle fill="url(#ak)" cx="617.887" cy="244.547" r="12.519"/><linearGradient id="al" gradientUnits="userSpaceOnUse" x1="641.937" y1="2080.2" x2="671.001" y2="2080.2" gradientTransform="matrix(0 -1 -1 0 2699.898 899.09)"><stop offset="0" stop-color="#4b48bf"/><stop offset="1" stop-color="#a14b8a"/></linearGradient><path fill="url(#al)" d="M590.376 228.089h58.645v29.063h-58.645v-29.063z"/><path opacity=".2" d="M605.167 242.62c0-5.33 2.867-9.987 7.146-12.519h-13.516a8.672 8.672 0 0 1-6.408 6.406v12.222a8.677 8.677 0 0 1 6.408 6.407h13.516a14.516 14.516 0 0 1-7.146-12.516zm29.062 0c0 5.33-2.869 9.987-7.146 12.52H640.6a8.672 8.672 0 0 1 6.406-6.408V236.51a8.666 8.666 0 0 1-6.406-6.406h-13.516c4.274 2.53 7.145 7.186 7.145 12.516z"/><path opacity=".1" fill="#FFF" d="M590.376 257.308v-29.22h58.811l-58.811 29.22z"/><linearGradient id="am" gradientUnits="userSpaceOnUse" x1="729.467" y1="2379.365" x2="754.506" y2="2379.365" gradientTransform="matrix(0 -1 -1 0 2999.062 984.609)"><stop offset="0" stop-color="#4b48bf"/><stop offset="1" stop-color="#a14b8a"/></linearGradient><circle fill="url(#am)" cx="619.696" cy="242.622" r="12.519"/><path fill="#FFF" d="M616.221 236.243v13.202h-3.019V239.43l-2.338.644-.735-2.584 3.45-1.246 2.642-.001zm14.698 9.053c0 2.904-2.269 4.412-4.813 4.412-2.094 0-3.9-.885-4.715-2.827l2.604-1.511c.304.869.867 1.396 2.111 1.396 1.242 0 1.791-.66 1.791-1.473s-.549-1.472-1.695-1.472h-4.133l.547-7.582h7.642v2.829h-4.812l-.133 1.812h1.074c2.457.003 4.532 1.512 4.532 4.416z"/><path opacity=".7" fill="#FFF" d="M599.428 248.24v1.272h-.664v-1.26c-1.558-.069-2.717-.792-3.154-2.009l.65-.369c.324.99 1.188 1.585 2.504 1.656v-4.201c-1.443-.511-2.688-1.032-2.688-2.718 0-1.472 1.188-2.461 2.688-2.562v-1.272h.664v1.272c1.119.127 2.065.722 2.504 1.783l-.637.354c-.324-.807-.961-1.287-1.867-1.399v4.02c1.442.511 2.746 1.075 2.746 2.758.003 1.487-1.128 2.52-2.746 2.675zm-.664-5.674v-3.792c-1.16.101-1.938.851-1.938 1.841.003 1.117.821 1.542 1.938 1.951zm2.649 2.999c0-1.131-.819-1.6-1.979-2.009v3.946c1.272-.14 1.979-.917 1.979-1.937zm38.683 2.675v1.272h-.664v-1.26c-1.558-.069-2.717-.792-3.154-2.009l.65-.369c.326.99 1.188 1.584 2.504 1.656v-4.201c-1.443-.511-2.688-1.032-2.688-2.718 0-1.472 1.188-2.461 2.688-2.562v-1.272h.664v1.272c1.119.127 2.065.722 2.506 1.783l-.639.354c-.324-.807-.961-1.287-1.867-1.399v4.02c1.445.511 2.746 1.075 2.746 2.758.002 1.487-1.13 2.52-2.746 2.675zm-.664-5.674v-3.792c-1.16.101-1.938.851-1.938 1.841.003 1.117.819 1.542 1.938 1.951zm2.647 2.999c0-1.131-.819-1.6-1.979-2.009v3.946c1.274-.14 1.979-.917 1.979-1.937z"/><path fill="#A04B8A" d="M669.964 240.985c0 1.882-1.519 3.396-3.466 3.396h-1.483v3.111h-2.264v-9.9h3.747c1.948-.001 3.466 1.512 3.466 3.393zm-2.264 0c0-.722-.512-1.272-1.201-1.272h-1.483v2.546h1.483c.689 0 1.201-.553 1.201-1.274zm7.43-.707v2.404c-.877-.144-2.121.212-2.121 1.611v3.196h-2.121v-7.071h2.121v1.259c.284-.947 1.226-1.399 2.121-1.399zm.423 3.678c0-2.107 1.67-3.733 3.748-3.733 2.08 0 3.748 1.626 3.748 3.733 0 2.105-1.668 3.732-3.748 3.732-2.078.001-3.748-1.625-3.748-3.732zm5.375 0c0-1.004-.707-1.67-1.627-1.67s-1.627.666-1.627 1.67.707 1.668 1.627 1.668 1.627-.664 1.627-1.668zm3.329-3.536h2.123v7.071c0 2.207-1.021 3.153-3.254 3.026v-2.037c.772.042 1.131-.239 1.131-.989v-7.071zm-.211-1.897c0-.691.58-1.271 1.27-1.271.693 0 1.273.58 1.273 1.271 0 .692-.58 1.272-1.273 1.272a1.282 1.282 0 0 1-1.27-1.272zm7.48 7.272c.58 0 1.074-.229 1.357-.538l1.694.977c-.69.962-1.739 1.457-3.084 1.457-2.418 0-3.918-1.627-3.918-3.732 0-2.107 1.523-3.733 3.763-3.733 2.065 0 3.596 1.601 3.596 3.733 0 .297-.027.58-.084.85h-5.021c.269.731.922.986 1.697.986zm1.305-2.576c-.229-.819-.862-1.116-1.5-1.116-.811 0-1.348.396-1.541 1.116h3.041zm2.888.737c0-2.107 1.598-3.733 3.748-3.733 1.371 0 2.588.721 3.194 1.812l-1.854 1.074c-.238-.494-.75-.792-1.373-.792-.92 0-1.598.665-1.598 1.642 0 .978.678 1.643 1.598 1.643.623 0 1.146-.298 1.373-.792l1.854 1.062c-.606 1.104-1.813 1.824-3.194 1.824-2.154-.007-3.748-1.633-3.748-3.74zm10.481-1.5v2.504c0 .606.521.664 1.457.606v1.925c-2.771.282-3.576-.553-3.576-2.531v-2.504h-1.137v-2.037h1.137v-1.344l2.119-.639v1.979h1.457v2.037l-1.457.004zm6.129-3.933c0-.691.578-1.271 1.271-1.271s1.273.58 1.273 1.271c0 .692-.58 1.272-1.273 1.272a1.282 1.282 0 0 1-1.271-1.272zm.214 1.897h2.12v7.071h-2.12v-7.071zm9.094 4.95c0 1.625-1.416 2.318-2.943 2.318-1.414 0-2.485-.538-3.041-1.685l1.842-1.046c.187.537.578.834 1.199.834.512 0 .767-.156.767-.438 0-.777-3.479-.368-3.479-2.814 0-1.541 1.303-2.319 2.771-2.319 1.146 0 2.164.51 2.758 1.515l-1.813.977c-.19-.367-.479-.622-.94-.622-.367 0-.601.143-.601.396 0 .804 3.48.267 3.48 2.884zm6.2 0c0 1.625-1.416 2.318-2.943 2.318-1.414 0-2.488-.538-3.041-1.685l1.84-1.046c.188.537.58.834 1.201.834.51 0 .764-.156.764-.438 0-.777-3.479-.368-3.479-2.814 0-1.541 1.301-2.319 2.77-2.319 1.146 0 2.164.51 2.761 1.515l-1.813.977c-.197-.367-.479-.622-.947-.622-.364 0-.594.143-.594.396-.002.804 3.481.267 3.481 2.884zm7.752-4.95v7.071h-2.121v-.664c-.383.521-1.09.861-2.023.861-1.428 0-2.645-1.02-2.645-2.929v-4.342h2.121v4.03c0 .877.553 1.286 1.229 1.286.779 0 1.316-.452 1.316-1.457v-3.859l2.123.003zm1.343-1.897c0-.691.58-1.271 1.273-1.271.688 0 1.27.58 1.27 1.271 0 .692-.58 1.272-1.27 1.272a1.284 1.284 0 0 1-1.273-1.272zm.213 1.897h2.121v7.071h-2.121v-7.071zm10.467 2.729v4.343h-2.121v-4.031c0-.877-.553-1.286-1.229-1.286-.775 0-1.313.452-1.313 1.457v3.86h-2.116v-7.072h2.116v.666c.386-.522 1.095-.862 2.021-.862 1.427-.002 2.642 1.016 2.642 2.925zm8.719-2.729v6.72c0 2.376-1.854 3.38-3.733 3.38-1.471 0-2.701-.552-3.353-1.711l1.812-1.048c.27.495.68.892 1.613.892.987 0 1.598-.509 1.598-1.513v-.65c-.467.579-1.146.92-2.063.92-2.016 0-3.479-1.643-3.479-3.595 0-1.95 1.471-3.593 3.479-3.593.918 0 1.599.339 2.063.919v-.722l2.063.001zm-2.067 3.393c0-.977-.707-1.642-1.711-1.642-1.006 0-1.713.665-1.713 1.642 0 .978.707 1.642 1.713 1.642 1.004-.001 1.711-.665 1.711-1.642z"/><path opacity=".5" d="M602.884 289.305c0-5.328 2.869-9.985 7.145-12.518h-13.516a8.67 8.67 0 0 1-6.408 6.405v12.222a8.666 8.666 0 0 1 6.408 6.405h13.516c-4.276-2.527-7.145-7.184-7.145-12.514zm29.06 0c0 5.329-2.865 9.986-7.146 12.52h13.518a8.668 8.668 0 0 1 6.406-6.406v-12.224a8.666 8.666 0 0 1-6.406-6.405H624.8a14.51 14.51 0 0 1 7.144 12.515z"/><linearGradient id="an" gradientUnits="userSpaceOnUse" x1="682.783" y1="2381.644" x2="707.823" y2="2381.644" gradientTransform="matrix(0 -1 -1 0 2999.062 984.609)"><stop offset="0" stop-color="#4b48bf"/><stop offset="1" stop-color="#a14b8a"/></linearGradient><circle fill="url(#an)" cx="617.417" cy="289.306" r="12.52"/><linearGradient id="ao" gradientUnits="userSpaceOnUse" x1="597.178" y1="2080.674" x2="626.241" y2="2080.674" gradientTransform="matrix(0 -1 -1 0 2699.898 899.09)"><stop offset="0" stop-color="#4b48bf"/><stop offset="1" stop-color="#a14b8a"/></linearGradient><path fill="url(#ao)" d="M589.901 272.848h58.646v29.063h-58.646v-29.063z"/><path opacity=".2" d="M604.692 287.379c0-5.33 2.869-9.987 7.146-12.518h-13.515a8.663 8.663 0 0 1-6.405 6.4v12.228a8.66 8.66 0 0 1 6.405 6.402h13.517a14.515 14.515 0 0 1-7.148-12.512zm29.068 0c0 5.329-2.869 9.987-7.146 12.519h13.521a8.673 8.673 0 0 1 6.405-6.404v-12.225a8.667 8.667 0 0 1-6.405-6.404h-13.521a14.515 14.515 0 0 1 7.146 12.514z"/><path opacity=".1" fill="#FFF" d="M589.901 302.065v-29.218h58.813l-58.813 29.218z"/><linearGradient id="ap" gradientUnits="userSpaceOnUse" x1="684.711" y1="2379.836" x2="709.749" y2="2379.836" gradientTransform="matrix(0 -1 -1 0 2999.062 984.609)"><stop offset="0" stop-color="#4b48bf"/><stop offset="1" stop-color="#a14b8a"/></linearGradient><circle fill="url(#ap)" cx="619.227" cy="287.379" r="12.519"/><path fill="#FFF" d="M616.788 281.001v13.201h-3.02v-10.018l-2.34.645-.734-2.584 3.451-1.244h2.643zm.889 6.602c0-4.074 1.963-6.865 5.375-6.865 3.414 0 5.375 2.791 5.375 6.865 0 4.072-1.961 6.863-5.375 6.863-3.413.001-5.375-2.79-5.375-6.863zm7.732 0c0-2.547-.772-3.923-2.356-3.923s-2.357 1.376-2.357 3.923c0 2.546.773 3.924 2.357 3.924s2.356-1.379 2.356-3.924z"/><path opacity=".7" fill="#FFF" d="M598.96 292.997v1.271h-.664v-1.261c-1.562-.069-2.718-.793-3.154-2.013l.65-.364c.323.985 1.188 1.584 2.504 1.651v-4.201c-1.443-.511-2.689-1.03-2.689-2.718 0-1.472 1.189-2.461 2.689-2.563v-1.271h.664v1.271c1.118.127 2.063.723 2.504 1.783l-.64.354c-.321-.81-.963-1.286-1.864-1.398v4.02c1.438.511 2.746 1.075 2.746 2.761 0 1.489-1.135 2.523-2.746 2.678zm-.664-5.672v-3.793c-1.16.104-1.939.854-1.939 1.84-.003 1.118.821 1.543 1.939 1.953zm2.642 2.998c0-1.134-.816-1.601-1.98-2.011v3.946c1.271-.138 1.98-.916 1.98-1.935zm38.69 2.674v1.271h-.664v-1.261c-1.562-.069-2.718-.793-3.154-2.013l.65-.364c.321.985 1.188 1.584 2.504 1.651v-4.201c-1.443-.511-2.689-1.03-2.689-2.718 0-1.472 1.189-2.461 2.689-2.563v-1.271h.664v1.271c1.116.127 2.063.723 2.504 1.783l-.638.354c-.323-.81-.963-1.286-1.866-1.398v4.02c1.438.511 2.746 1.075 2.746 2.761 0 1.489-1.137 2.523-2.746 2.678zm-.664-5.672v-3.793c-1.16.104-1.939.854-1.939 1.84-.003 1.118.821 1.543 1.939 1.953zm2.64 2.998c0-1.134-.816-1.601-1.979-2.011v3.946c1.272-.138 1.979-.916 1.979-1.935z"/><path opacity=".5" d="M813.01 288.426c0-5.327 2.869-9.987 7.146-12.521H806.64a8.668 8.668 0 0 1-6.406 6.404v12.225a8.675 8.675 0 0 1 6.406 6.402h13.516a14.515 14.515 0 0 1-7.146-12.51zm29.069 0c0 5.329-2.869 9.983-7.146 12.52h13.52a8.668 8.668 0 0 1 6.404-6.405v-12.225a8.66 8.66 0 0 1-6.404-6.404h-13.52a14.516 14.516 0 0 1 7.146 12.514z"/><linearGradient id="aq" gradientUnits="userSpaceOnUse" x1="683.662" y1="2171.519" x2="708.704" y2="2171.519" gradientTransform="matrix(0 -1 -1 0 2999.062 984.609)"><stop offset="0" stop-color="#4b48bf"/><stop offset="1" stop-color="#a14b8a"/></linearGradient><circle fill="url(#aq)" cx="827.544" cy="288.426" r="12.521"/><linearGradient id="ar" gradientUnits="userSpaceOnUse" x1="598.059" y1="1870.539" x2="627.123" y2="1870.539" gradientTransform="matrix(0 -1 -1 0 2699.898 899.09)"><stop offset="0" stop-color="#4b48bf"/><stop offset="1" stop-color="#a14b8a"/></linearGradient><path fill="url(#ar)" d="M800.036 271.967h58.646v29.063h-58.646v-29.063z"/><path opacity=".2" d="M814.827 286.497c0-5.326 2.869-9.982 7.146-12.518h-13.517a8.662 8.662 0 0 1-6.405 6.405v12.222a8.666 8.666 0 0 1 6.405 6.406h13.517c-4.277-2.527-7.146-7.185-7.146-12.515zm29.06 0c0 5.33-2.865 9.987-7.146 12.521h13.517a8.663 8.663 0 0 1 6.405-6.405v-12.222a8.662 8.662 0 0 1-6.405-6.405h-13.517a14.504 14.504 0 0 1 7.146 12.511z"/><path opacity=".1" fill="#FFF" d="M800.036 301.187v-29.221h58.812l-58.812 29.221z"/><linearGradient id="as" gradientUnits="userSpaceOnUse" x1="685.589" y1="2169.701" x2="710.629" y2="2169.701" gradientTransform="matrix(0 -1 -1 0 2999.062 984.609)"><stop offset="0" stop-color="#4b48bf"/><stop offset="1" stop-color="#a14b8a"/></linearGradient><circle fill="url(#as)" cx="829.36" cy="286.5" r="12.52"/><path fill="#FFF" d="M834.718 291.212h-1.316v2.111h-3.059v-2.111h-5.998v-2.791l4.207-8.299h3.239l-4.204 8.299h2.756v-2.829h3.059v2.829h1.316v2.791z"/><path opacity=".7" fill="#FFF" d="M809.087 292.116v1.274h-.664v-1.261c-1.556-.071-2.716-.793-3.15-2.012l.646-.365c.325.988 1.188 1.584 2.504 1.652v-4.199c-1.439-.513-2.688-1.033-2.688-2.72 0-1.473 1.188-2.463 2.688-2.563v-1.271h.664v1.271c1.118.127 2.063.722 2.506 1.781l-.638.354c-.325-.808-.963-1.287-1.868-1.396v4.02c1.444.511 2.745 1.075 2.745 2.758.002 1.491-1.128 2.523-2.745 2.677zm-.664-5.672v-3.793c-1.16.104-1.938.854-1.938 1.841.004 1.116.822 1.542 1.938 1.952zm2.65 2.998c0-1.131-.819-1.599-1.981-2.008v3.946c1.274-.139 1.981-.918 1.981-1.938zm38.682 2.674v1.274h-.664v-1.261c-1.558-.071-2.717-.793-3.15-2.012l.646-.365c.325.988 1.188 1.584 2.504 1.652v-4.199c-1.439-.513-2.688-1.033-2.688-2.72 0-1.473 1.188-2.463 2.688-2.563v-1.271h.664v1.271c1.116.127 2.063.722 2.506 1.781l-.638.354c-.325-.808-.963-1.287-1.868-1.396v4.02c1.44.511 2.745 1.075 2.745 2.758.003 1.491-1.13 2.523-2.745 2.677zm-.664-5.672v-3.793c-1.158.104-1.938.854-1.938 1.841.004 1.116.822 1.542 1.938 1.952zm2.65 2.998c0-1.131-.819-1.599-1.981-2.008v3.946c1.274-.139 1.981-.918 1.981-1.938z"/><path opacity=".5" d="M812.932 243.813c0-5.329 2.871-9.987 7.146-12.518h-13.516a8.67 8.67 0 0 1-6.406 6.406v12.222a8.67 8.67 0 0 1 6.406 6.406h13.516c-4.275-2.529-7.146-7.187-7.146-12.516zm29.067 0c0 5.329-2.868 9.987-7.146 12.519h13.516a8.666 8.666 0 0 1 6.406-6.406v-12.222a8.67 8.67 0 0 1-6.406-6.406h-13.516a14.514 14.514 0 0 1 7.146 12.515z"/><linearGradient id="at" gradientUnits="userSpaceOnUse" x1="1383.617" y1="2959.398" x2="1408.655" y2="2959.398" gradientTransform="matrix(0 -1 -1 0 3786.863 1639.949)"><stop offset="0" stop-color="#4b48bf"/><stop offset="1" stop-color="#a14b8a"/></linearGradient><circle fill="url(#at)" cx="827.466" cy="243.813" r="12.519"/><linearGradient id="au" gradientUnits="userSpaceOnUse" x1="1298.015" y1="2658.418" x2="1327.079" y2="2658.418" gradientTransform="matrix(0 -1 -1 0 3487.695 1554.433)"><stop offset="0" stop-color="#4b48bf"/><stop offset="1" stop-color="#a14b8a"/></linearGradient><path fill="url(#au)" d="M799.954 227.354H858.6v29.063h-58.646v-29.063z"/><path opacity=".2" d="M814.745 241.885c0-5.328 2.871-9.986 7.146-12.518h-13.516a8.67 8.67 0 0 1-6.408 6.406v12.224a8.67 8.67 0 0 1 6.408 6.404h13.516c-4.275-2.527-7.146-7.186-7.146-12.516zm29.066 0c0 5.33-2.869 9.988-7.146 12.519h13.517A8.664 8.664 0 0 1 856.59 248v-12.224a8.67 8.67 0 0 1-6.408-6.406h-13.517c4.277 2.528 7.146 7.187 7.146 12.515z"/><path opacity=".1" fill="#FFF" d="M799.954 256.574v-29.222h58.813l-58.813 29.222z"/><linearGradient id="av" gradientUnits="userSpaceOnUse" x1="1385.544" y1="2957.584" x2="1410.582" y2="2957.584" gradientTransform="matrix(0 -1 -1 0 3786.863 1639.949)"><stop offset="0" stop-color="#4b48bf"/><stop offset="1" stop-color="#a14b8a"/></linearGradient><circle fill="url(#av)" cx="829.278" cy="241.886" r="12.519"/><path fill="#FFF" d="M834.073 244.562c0 2.903-2.266 4.413-4.811 4.413-2.094 0-3.902-.887-4.715-2.828l2.604-1.511c.303.868.867 1.396 2.111 1.396s1.791-.659 1.791-1.473c0-.812-.547-1.472-1.695-1.472h-4.131l.549-7.582h7.639v2.829h-4.813l-.131 1.812h1.074c2.454.002 4.528 1.511 4.528 4.416z"/><path opacity=".7" fill="#FFF" d="M809.01 247.505v1.271h-.664v-1.26c-1.558-.069-2.717-.792-3.154-2.009l.65-.367c.326.99 1.188 1.584 2.504 1.655v-4.202c-1.443-.51-2.689-1.031-2.689-2.716 0-1.472 1.189-2.462 2.689-2.562v-1.271h.664v1.271c1.119.127 2.065.723 2.504 1.782l-.637.354c-.324-.808-.961-1.287-1.867-1.4v4.02c1.442.51 2.746 1.074 2.746 2.759.001 1.486-1.132 2.519-2.746 2.675zm-.664-5.673v-3.791c-1.16.1-1.939.85-1.939 1.839 0 1.118.822 1.542 1.939 1.952zm2.645 2.999c0-1.133-.819-1.6-1.979-2.011v3.947c1.272-.138 1.979-.917 1.979-1.936zm38.687 2.674v1.271h-.666v-1.26c-1.555-.069-2.715-.792-3.154-2.009l.65-.367c.326.99 1.188 1.584 2.504 1.655v-4.202c-1.443-.51-2.688-1.031-2.688-2.716 0-1.472 1.188-2.462 2.688-2.562v-1.271h.666v1.271c1.117.127 2.063.723 2.504 1.782l-.637.354c-.326-.808-.963-1.287-1.869-1.4v4.02c1.442.51 2.746 1.074 2.746 2.759.001 1.486-1.129 2.519-2.744 2.675zm-.664-5.673v-3.791c-1.16.1-1.939.85-1.939 1.839 0 1.118.82 1.542 1.939 1.952zm2.645 2.999c0-1.133-.819-1.6-1.979-2.011v3.947c1.272-.138 1.979-.917 1.979-1.936z"/><path fill="#A04B8A" d="M669.567 284.816c0 1.871-1.508 3.377-3.447 3.377h-1.479v3.096h-2.252v-9.849h3.729c1.943 0 3.449 1.505 3.449 3.376zm-2.252 0c0-.718-.508-1.267-1.195-1.267h-1.479v2.532h1.479c.689.002 1.195-.547 1.195-1.265zm9.963-.562v7.034h-2.108v-.661c-.382.521-1.084.857-2.015.857-1.42 0-2.629-1.015-2.629-2.911v-4.319h2.107v4.011c0 .871.549 1.279 1.227 1.279.771 0 1.31-.45 1.31-1.449v-3.841h2.108zm9.119 3.517c0 2.098-1.521 3.715-3.363 3.715-.94 0-1.631-.323-2.096-.857v.661h-2.111v-9.849h2.111v3.476c.465-.534 1.152-.857 2.096-.857 1.844-.003 3.363 1.615 3.363 3.711zm-2.111 0c0-1.056-.703-1.716-1.674-1.716s-1.674.66-1.674 1.716c0 1.057.703 1.717 1.674 1.717s1.674-.662 1.674-1.717zm3.308-6.753h2.11v10.271h-2.11v-10.271zm3.45 1.35a1.28 1.28 0 0 1 1.268-1.267 1.28 1.28 0 0 1 1.266 1.267 1.28 1.28 0 0 1-1.266 1.267 1.28 1.28 0 0 1-1.268-1.267zm.211 1.886h2.108v7.034h-2.108v-7.034zm3.306 3.517c0-2.097 1.59-3.714 3.729-3.714 1.365 0 2.574.718 3.181 1.801l-1.845 1.068c-.237-.491-.743-.787-1.362-.787-.914 0-1.59.66-1.59 1.632s.676 1.633 1.59 1.633c.619 0 1.141-.296 1.362-.787l1.845 1.055c-.604 1.099-1.802 1.814-3.181 1.814-2.139-.001-3.729-1.619-3.729-3.715zm14.83-3.517v7.034h-2.109v-.661c-.465.534-1.153.857-2.096.857-1.844 0-3.363-1.617-3.363-3.715 0-2.097 1.521-3.714 3.363-3.714.941 0 1.631.323 2.096.857v-.661l2.109.003zm-2.109 3.517c0-1.056-.703-1.716-1.676-1.716-.971 0-1.674.66-1.674 1.716 0 1.057.703 1.717 1.674 1.717.973-.001 1.676-.662 1.676-1.717zm6.334-1.492v2.49c0 .604.521.661 1.447.604v1.913c-2.758.28-3.559-.55-3.559-2.52v-2.49h-1.127v-2.024h1.127v-1.337l2.108-.633v1.97h1.447v2.024l-1.443.003zm2.434-3.911c0-.688.578-1.267 1.268-1.267.69 0 1.266.576 1.266 1.267a1.28 1.28 0 0 1-1.266 1.267 1.28 1.28 0 0 1-1.268-1.267zm.21 1.886h2.11v7.034h-2.11v-7.034zm3.309 3.517c0-2.097 1.658-3.714 3.729-3.714 2.067 0 3.729 1.617 3.729 3.714 0 2.098-1.66 3.715-3.729 3.715-2.071 0-3.729-1.619-3.729-3.715zm5.346 0c0-.998-.702-1.66-1.616-1.66-.916 0-1.619.662-1.619 1.66 0 .999.703 1.66 1.619 1.66.913 0 1.616-.661 1.616-1.66zm10.06-.802v4.319h-2.109v-4.011c0-.872-.547-1.279-1.225-1.279-.771 0-1.31.45-1.31 1.448v3.842h-2.108v-7.034h2.108v.661c.382-.521 1.084-.857 2.013-.857 1.422-.001 2.631 1.011 2.631 2.911zm4.76-4.601a1.28 1.28 0 0 1 1.266-1.267c.691 0 1.267.576 1.267 1.267 0 .688-.574 1.267-1.267 1.267-.69 0-1.266-.577-1.266-1.267zm.211 1.886h2.109v7.034h-2.109v-7.034zm9.047 4.923c0 1.618-1.408 2.309-2.928 2.309-1.406 0-2.477-.534-3.023-1.675l1.828-1.041c.185.535.578.83 1.195.83.508 0 .76-.153.76-.437 0-.773-3.461-.366-3.461-2.8 0-1.533 1.295-2.309 2.758-2.309 1.142 0 2.152.507 2.744 1.506l-1.801.972c-.197-.366-.479-.619-.943-.619-.364 0-.59.142-.59.395 0 .801 3.461.267 3.461 2.869zm6.164 0c0 1.618-1.408 2.309-2.928 2.309-1.406 0-2.477-.534-3.023-1.675l1.828-1.041c.185.535.578.83 1.195.83.508 0 .76-.153.76-.437 0-.773-3.461-.366-3.461-2.8 0-1.533 1.295-2.309 2.758-2.309 1.142 0 2.152.507 2.744 1.506l-1.803.972c-.195-.366-.479-.619-.941-.619-.364 0-.59.142-.59.395 0 .801 3.461.267 3.461 2.869zm7.711-4.923v7.034h-2.108v-.661c-.381.521-1.084.857-2.015.857-1.42 0-2.629-1.015-2.629-2.911v-4.319h2.107v4.01c0 .872.551 1.28 1.227 1.28.771 0 1.31-.45 1.31-1.449v-3.841h2.108zm1.34-1.886c.008-.696.57-1.26 1.267-1.267a1.28 1.28 0 0 1 1.268 1.267 1.28 1.28 0 0 1-1.268 1.267 1.279 1.279 0 0 1-1.267-1.267zm.211 1.886h2.108v7.034h-2.108v-7.034zm10.41 2.715v4.319h-2.108v-4.011c0-.872-.549-1.279-1.226-1.279-.772 0-1.309.45-1.309 1.448v3.842h-2.109v-7.034h2.109v.661c.381-.521 1.084-.857 2.012-.857 1.422-.001 2.631 1.011 2.631 2.911zm8.67-2.715v6.684c0 2.362-1.842 3.361-3.713 3.361-1.465 0-2.688-.549-3.336-1.702l1.802-1.04c.27.491.676.886 1.604.886.982 0 1.588-.506 1.588-1.505v-.646c-.463.577-1.139.915-2.055.915-1.998 0-3.461-1.633-3.461-3.574 0-1.94 1.463-3.572 3.461-3.572.916 0 1.592.338 2.055.915v-.719l2.055-.003zm-2.055 3.376c0-.971-.703-1.632-1.701-1.632-1 0-1.703.661-1.703 1.632 0 .972.703 1.633 1.703 1.633.998-.001 1.701-.662 1.701-1.633zm89.934-94.682h2.461l2.182 7.244 2.182-7.244h2.461l-3.207 9.848h-2.868l-3.211-9.848zm12.791 8.158c.575 0 1.067-.226 1.352-.533l1.688.971c-.688.956-1.729 1.449-3.065 1.449-2.406 0-3.896-1.618-3.896-3.716 0-2.097 1.521-3.714 3.742-3.714 2.056 0 3.572 1.59 3.572 3.714 0 .297-.027.577-.084.846h-4.994c.263.731.909.983 1.685.983zm1.293-2.56c-.226-.814-.857-1.11-1.49-1.11-.803 0-1.338.396-1.533 1.11h3.023zm7.515-2.926v2.392c-.871-.141-2.109.212-2.109 1.604v3.18h-2.11v-7.034h2.11v1.252c.279-.944 1.223-1.394 2.109-1.394zm7.992-2.672v9.848h-2.109v-.661c-.465.534-1.154.858-2.098.858-1.842 0-3.361-1.618-3.361-3.716 0-2.096 1.521-3.714 3.361-3.714.942 0 1.633.323 2.098.857v-3.475l2.109.003zm-2.109 6.329c0-1.056-.703-1.716-1.676-1.716-.971 0-1.674.66-1.674 1.716 0 1.057.703 1.718 1.674 1.718.973-.001 1.676-.662 1.676-1.718zm3.449-5.402a1.28 1.28 0 0 1 1.268-1.267 1.28 1.28 0 0 1 1.267 1.267 1.281 1.281 0 0 1-1.267 1.268 1.282 1.282 0 0 1-1.268-1.268zm.211 1.885h2.109v7.034h-2.109v-7.034zm3.307 3.517c0-2.096 1.591-3.714 3.729-3.714 1.363 0 2.574.719 3.18 1.802l-1.844 1.068c-.238-.492-.744-.788-1.363-.788-.914 0-1.592.661-1.592 1.632 0 .972.678 1.634 1.592 1.634.619 0 1.14-.296 1.363-.788l1.844 1.055c-.604 1.099-1.801 1.815-3.18 1.815-2.138-.001-3.729-1.619-3.729-3.716zm10.428-1.491v2.489c0 .604.521.661 1.446.604v1.913c-2.756.281-3.559-.549-3.559-2.52v-2.489h-1.127v-2.025h1.127v-1.337l2.109-.633v1.97h1.448v2.025l-1.444.003zm6.093-3.911a1.28 1.28 0 0 1 1.268-1.267c.696.008 1.26.57 1.267 1.267a1.282 1.282 0 0 1-1.267 1.268 1.282 1.282 0 0 1-1.268-1.268zm.211 1.885h2.109v7.034h-2.109v-7.034zm9.047 4.925c0 1.617-1.406 2.309-2.928 2.309-1.404 0-2.476-.535-3.023-1.676l1.83-1.041c.183.535.576.83 1.193.83.508 0 .762-.153.762-.437 0-.773-3.461-.365-3.461-2.8 0-1.533 1.295-2.309 2.758-2.309 1.14 0 2.15.507 2.742 1.506l-1.801.972c-.195-.366-.479-.619-.941-.619-.365 0-.592.142-.592.395.002.801 3.461.267 3.461 2.87zm6.164 0c0 1.617-1.406 2.309-2.928 2.309-1.404 0-2.476-.535-3.023-1.676l1.83-1.041c.182.535.576.83 1.193.83.508 0 .762-.153.762-.437 0-.773-3.463-.365-3.463-2.8 0-1.533 1.297-2.309 2.76-2.309 1.139 0 2.15.507 2.742 1.506l-1.801.972c-.195-.366-.479-.619-.941-.619-.365 0-.592.142-.592.395 0 .801 3.461.267 3.461 2.87zm7.713-4.925v7.034h-2.111v-.661c-.379.521-1.084.858-2.012.858-1.422 0-2.631-1.015-2.631-2.912v-4.319h2.109v4.011c0 .872.549 1.279 1.225 1.279.773 0 1.309-.449 1.309-1.448v-3.842h2.111zm1.338-1.885a1.281 1.281 0 0 1 1.267-1.267 1.28 1.28 0 0 1 1.268 1.267 1.28 1.28 0 0 1-1.268 1.268 1.282 1.282 0 0 1-1.267-1.268zm.211 1.885h2.109v7.034h-2.109v-7.034zm10.412 2.716v4.318h-2.111v-4.01c0-.872-.547-1.28-1.223-1.28-.772 0-1.311.45-1.311 1.449v3.841h-2.109v-7.034h2.109v.661c.381-.521 1.084-.857 2.014-.857 1.42-.001 2.631 1.012 2.631 2.912zm8.668-2.716v6.684c0 2.363-1.844 3.362-3.713 3.362-1.465 0-2.688-.55-3.336-1.702l1.801-1.041c.269.492.677.887 1.604.887.983 0 1.59-.507 1.59-1.506v-.646c-.465.577-1.139.915-2.055.915-1.998 0-3.461-1.633-3.461-3.573 0-1.941 1.463-3.573 3.461-3.573.916 0 1.59.338 2.055.915v-.719l2.054-.003zm-2.055 3.376c0-.971-.701-1.632-1.701-1.632-.998 0-1.701.661-1.701 1.632 0 .972.703 1.634 1.701 1.634 1 0 1.701-.663 1.701-1.634zm-92.744 38.569h2.461l2.182 7.245 2.181-7.245h2.463l-3.207 9.848h-2.869l-3.211-9.848zm12.791 8.16c.574 0 1.066-.226 1.35-.534l1.688.971c-.688.956-1.729 1.449-3.064 1.449-2.405 0-3.897-1.618-3.897-3.715s1.521-3.715 3.742-3.715c2.057 0 3.573 1.591 3.573 3.715 0 .296-.026.576-.084.845h-4.993c.261.73.91.984 1.685.984zm1.293-2.562c-.227-.813-.859-1.11-1.492-1.11-.803 0-1.336.396-1.533 1.11h3.025zm7.514-2.925v2.393c-.87-.142-2.108.211-2.108 1.604v3.18h-2.109v-7.033h2.109v1.252c.281-.946 1.223-1.396 2.108-1.396zm7.994-2.673v9.848h-2.11v-.66c-.466.533-1.154.857-2.097.857-1.844 0-3.362-1.618-3.362-3.715s1.521-3.714 3.362-3.714c.941 0 1.631.323 2.097.856v-3.475l2.11.003zm-2.111 6.33c0-1.056-.703-1.717-1.675-1.717-.971 0-1.674.661-1.674 1.717s.703 1.717 1.674 1.717c.972 0 1.675-.661 1.675-1.717zm3.449-5.402c0-.688.578-1.266 1.269-1.266.689 0 1.266.576 1.266 1.266a1.28 1.28 0 0 1-1.266 1.268 1.282 1.282 0 0 1-1.269-1.268zm.211 1.886h2.111v7.033h-2.111v-7.033zm3.306 3.516c0-2.097 1.59-3.715 3.729-3.715 1.363 0 2.574.719 3.181 1.802l-1.845 1.068c-.237-.491-.745-.788-1.364-.788-.914 0-1.59.661-1.59 1.633 0 .971.676 1.633 1.59 1.633.619 0 1.141-.296 1.364-.788l1.845 1.056c-.605 1.099-1.802 1.814-3.181 1.814-2.139 0-3.729-1.618-3.729-3.715zm10.428-1.491v2.49c0 .604.521.66 1.447.604v1.912c-2.756.281-3.56-.549-3.56-2.519v-2.49h-1.125v-2.024h1.125v-1.337l2.109-.634v1.971h1.449v2.024l-1.445.003zm13.524-2.025v7.033H927.6v-.66c-.465.533-1.152.857-2.096.857-1.845 0-3.363-1.618-3.363-3.715s1.521-3.715 3.363-3.715c.94 0 1.631.324 2.096.858v-.661l2.112.003zm-2.112 3.516c0-1.056-.701-1.717-1.674-1.717-.971 0-1.674.661-1.674 1.717s.703 1.717 1.674 1.717 1.674-.661 1.674-1.717zm11.232 0c0 2.097-1.521 3.715-3.363 3.715-.941 0-1.631-.324-2.096-.857v3.476h-2.111v-9.849h2.111v.661c.465-.534 1.153-.857 2.096-.857 1.842-.003 3.363 1.615 3.363 3.711zm-2.113 0c0-1.056-.703-1.717-1.674-1.717-.972 0-1.674.661-1.674 1.717s.702 1.717 1.674 1.717c.971 0 1.674-.661 1.674-1.717zm10.877 0c0 2.097-1.521 3.715-3.361 3.715-.94 0-1.633-.324-2.098-.857v3.476h-2.109v-9.849h2.109v.661c.467-.534 1.154-.857 2.098-.857 1.842-.003 3.361 1.615 3.361 3.711zm-2.109 0c0-1.056-.703-1.717-1.674-1.717-.973 0-1.676.661-1.676 1.717s.703 1.717 1.676 1.717c.971 0 1.674-.661 1.674-1.717zm7.529-3.657v2.393c-.873-.142-2.109.211-2.109 1.604v3.181h-2.11v-7.034h2.11v1.252c.281-.946 1.223-1.396 2.109-1.396zm.424 3.657c0-2.097 1.658-3.715 3.729-3.715 2.067 0 3.729 1.618 3.729 3.715s-1.66 3.715-3.729 3.715c-2.071 0-3.729-1.618-3.729-3.715zm5.346 0c0-.998-.702-1.66-1.616-1.66-.916 0-1.619.662-1.619 1.66 0 .999.703 1.659 1.619 1.659.914.001 1.616-.66 1.616-1.659zm9.849-3.516l-2.603 7.033h-2.393l-2.604-7.033h2.337l1.463 4.46 1.463-4.46h2.337zm7.713 0v7.033h-2.109v-.66c-.465.533-1.153.857-2.098.857-1.844 0-3.361-1.618-3.361-3.715s1.521-3.715 3.361-3.715c.941 0 1.633.324 2.098.858v-.661l2.109.003zm-2.111 3.516c0-1.056-.703-1.717-1.674-1.717-.973 0-1.676.661-1.676 1.717s.703 1.717 1.676 1.717c.971 0 1.674-.661 1.674-1.717zm3.66-6.753h2.109v10.271h-2.109v-10.271zm-106.234 42.98l1.941-1.125c.352.814.957 1.363 2.068 1.363 1.067 0 1.336-.422 1.336-.802 0-.604-.563-.845-2.039-1.252-1.465-.408-2.898-1.111-2.898-2.997 0-1.898 1.604-2.996 3.308-2.996 1.616 0 2.885.772 3.602 2.223l-1.897 1.111c-.339-.703-.804-1.141-1.703-1.141-.703 0-1.056.353-1.056.746 0 .449.24.76 1.771 1.225 1.492.449 3.166.971 3.166 3.053 0 1.898-1.521 3.024-3.658 3.024-2.07.002-3.392-.983-3.941-2.432zm15.308-4.797v7.034h-2.107v-.661c-.381.521-1.084.857-2.014.857-1.422 0-2.631-1.014-2.631-2.911v-4.319h2.109v4.011c0 .872.549 1.279 1.225 1.279.772 0 1.311-.449 1.311-1.448v-3.842h2.107zm9.12 3.516c0 2.098-1.521 3.715-3.361 3.715-.941 0-1.633-.323-2.098-.857v3.476h-2.109v-9.849h2.109v.661c.465-.534 1.153-.857 2.098-.857 1.841-.002 3.361 1.616 3.361 3.711zm-2.11 0c0-1.056-.703-1.716-1.676-1.716-.971 0-1.674.66-1.674 1.716 0 1.057.703 1.718 1.674 1.718.973-.001 1.676-.662 1.676-1.718zm6.883 1.83c.576 0 1.066-.226 1.351-.534l1.688.972c-.688.956-1.729 1.449-3.065 1.449-2.406 0-3.896-1.618-3.896-3.716 0-2.097 1.521-3.714 3.74-3.714 2.057 0 3.574 1.59 3.574 3.714 0 .296-.027.577-.084.846h-4.994c.264.73.911.983 1.686.983zm1.293-2.561c-.227-.814-.856-1.11-1.489-1.11-.804 0-1.339.396-1.533 1.11h3.022zm7.516-2.926v2.392c-.873-.141-2.109.211-2.109 1.604v3.181h-2.111v-7.034h2.111v1.252c.279-.945 1.222-1.395 2.109-1.395zm.775-1.745c.008-.696.57-1.26 1.267-1.267a1.28 1.28 0 0 1 1.268 1.267 1.28 1.28 0 0 1-1.268 1.268 1.28 1.28 0 0 1-1.267-1.268zm.211 1.886h2.109v7.034h-2.109v-7.034zm3.307 3.516c0-2.097 1.66-3.714 3.729-3.714s3.729 1.617 3.729 3.714c0 2.098-1.66 3.715-3.729 3.715s-3.729-1.618-3.729-3.715zm5.347 0c0-.998-.705-1.66-1.619-1.66s-1.617.662-1.617 1.66c0 .999.703 1.66 1.617 1.66.914.001 1.619-.661 1.619-1.66zm7.528-3.657v2.392c-.871-.141-2.109.211-2.109 1.604v3.181h-2.108v-7.034h2.108v1.252c.28-.945 1.225-1.395 2.109-1.395zm11.328.141l-2.604 7.034h-2.393l-2.603-7.034h2.334l1.465 4.46 1.464-4.46h2.337zm4.068 5.346c.576 0 1.068-.226 1.353-.534l1.688.972c-.688.956-1.729 1.449-3.065 1.449-2.406 0-3.896-1.618-3.896-3.716 0-2.097 1.521-3.714 3.742-3.714 2.055 0 3.572 1.59 3.572 3.714 0 .296-.025.577-.084.846h-4.994c.262.73.911.983 1.684.983zm1.295-2.561c-.227-.814-.858-1.11-1.491-1.11-.802 0-1.337.396-1.533 1.11h3.024zm7.514-2.926v2.392c-.871-.141-2.109.211-2.109 1.604v3.181h-2.109v-7.034h2.109v1.252c.281-.945 1.224-1.395 2.109-1.395zm7.992-2.673v9.849h-2.108v-.661c-.465.534-1.152.857-2.099.857-1.842 0-3.36-1.617-3.36-3.715 0-2.097 1.52-3.714 3.36-3.714.943 0 1.634.323 2.099.857v-3.476l2.108.003zm-2.11 6.33c0-1.056-.705-1.716-1.676-1.716-.972 0-1.675.66-1.675 1.716 0 1.057.703 1.718 1.675 1.718.971 0 1.676-.662 1.676-1.718zm3.45-5.402a1.28 1.28 0 0 1 1.268-1.267 1.28 1.28 0 0 1 1.266 1.267 1.28 1.28 0 0 1-1.266 1.267 1.28 1.28 0 0 1-1.268-1.267zm.211 1.886h2.108v7.034h-2.108v-7.034zm3.308 3.516c0-2.097 1.59-3.714 3.729-3.714 1.362 0 2.573.718 3.18 1.801l-1.844 1.068c-.238-.491-.746-.787-1.365-.787-.914 0-1.59.66-1.59 1.632s.676 1.633 1.59 1.633c.619 0 1.141-.296 1.365-.787l1.844 1.055c-.605 1.099-1.801 1.814-3.18 1.814-2.141 0-3.729-1.618-3.729-3.715zm10.426-1.491v2.489c0 .604.521.661 1.449.604v1.913c-2.758.28-3.561-.549-3.561-2.52v-2.489h-1.125v-2.025h1.125v-1.337l2.11-.633v1.97h1.447v2.025l-1.445.003zm-95.02 14.863v7.033h-2.109v-.66c-.467.533-1.153.857-2.098.857-1.844 0-3.361-1.618-3.361-3.715s1.521-3.715 3.361-3.715c.94 0 1.633.324 2.098.857v-.66l2.109.003zm-2.111 3.516c0-1.056-.703-1.717-1.676-1.717-.971 0-1.674.661-1.674 1.717s.703 1.717 1.674 1.717c.973 0 1.676-.661 1.676-1.717zm11.231 0c0 2.097-1.521 3.715-3.363 3.715-.941 0-1.631-.324-2.096-.857v3.476h-2.109v-9.849h2.109v.66c.465-.533 1.153-.856 2.096-.856 1.843-.003 3.363 1.615 3.363 3.711zm-2.11 0c0-1.056-.703-1.717-1.676-1.717-.971 0-1.674.661-1.674 1.717s.703 1.717 1.674 1.717c.973 0 1.676-.661 1.676-1.717zm10.875 0c0 2.097-1.52 3.715-3.361 3.715-.942 0-1.633-.324-2.098-.857v3.476h-2.109v-9.849h2.109v.66c.465-.533 1.154-.856 2.098-.856 1.842-.003 3.361 1.615 3.361 3.711zm-2.109 0c0-1.056-.702-1.717-1.674-1.717-.973 0-1.676.661-1.676 1.717s.703 1.717 1.676 1.717c.971 0 1.674-.661 1.674-1.717zm7.529-3.657v2.393c-.873-.142-2.111.211-2.111 1.604v3.18h-2.108v-7.033h2.108v1.252c.281-.946 1.224-1.396 2.111-1.396zm.424 3.657c0-2.097 1.66-3.715 3.729-3.715s3.729 1.618 3.729 3.715-1.659 3.715-3.729 3.715-3.729-1.618-3.729-3.715zm5.346 0c0-.998-.703-1.659-1.617-1.659-.916 0-1.619.661-1.619 1.659 0 .999.703 1.659 1.619 1.659.914.001 1.617-.66 1.617-1.659zm9.851-3.516l-2.604 7.033h-2.394l-2.604-7.033h2.336l1.463 4.46 1.463-4.46h2.34zm7.711 0v7.033h-2.111v-.66c-.465.533-1.153.857-2.096.857-1.844 0-3.363-1.618-3.363-3.715s1.521-3.715 3.363-3.715c.941 0 1.631.324 2.096.857v-.66l2.111.003zm-2.111 3.516c0-1.056-.703-1.717-1.674-1.717-.973 0-1.674.661-1.674 1.717s.701 1.717 1.674 1.717c.97 0 1.674-.661 1.674-1.717zm3.66-6.753h2.109v10.271h-2.109v-10.271z"/><circle fill="#FFF" cx="619.05" cy="248.223" r="1.319"/></svg>