<svg xmlns="http://www.w3.org/2000/svg" width="21.997" height="21.997"><path fill-rule="evenodd" clip-rule="evenodd" fill="#EAEAEA" d="M10.999 0C4.934 0 0 4.934 0 10.999s4.934 10.999 10.999 10.999 10.999-4.934 10.999-10.999S17.063 0 10.999 0zM3.755 10.999a7.2 7.2 0 0 1 .965-3.605l1.134 1.134 8.75 8.75a7.192 7.192 0 0 1-3.605.965c-3.995-.001-7.244-3.25-7.244-7.244zm13.521 3.605l-.821-.821-9.062-9.062a7.192 7.192 0 0 1 3.605-.965c3.994 0 7.243 3.249 7.243 7.243a7.18 7.18 0 0 1-.965 3.605z"/></svg>