<svg xmlns="http://www.w3.org/2000/svg" width="181.305" height="244.982"><path fill="#FFF" d="M4.983 4.318h169.346v234.098H4.983z"/><path d="M58.299 41.813v3.374h-9.633V29.859h9.523v3.372h-6.021v2.539h5.474v3.331h-5.474v2.712h6.131zm1.21-.109l3.021-1.751c.548 1.271 1.489 2.125 3.218 2.125 1.664 0 2.081-.655 2.081-1.248 0-.939-.876-1.315-3.175-1.95-2.276-.635-4.51-1.729-4.51-4.664 0-2.956 2.497-4.664 5.146-4.664 2.519 0 4.488 1.206 5.605 3.464l-2.956 1.729c-.526-1.096-1.248-1.775-2.649-1.775-1.095 0-1.643.549-1.643 1.161 0 .699.373 1.182 2.759 1.905 2.322.698 4.927 1.512 4.927 4.749 0 2.956-2.365 4.71-5.691 4.71-3.221-.001-5.279-1.534-6.133-3.791zm12.816-4.179c0-4.511 3.35-7.975 7.971-7.975 2.779 0 5.231 1.381 6.568 3.549l-3.022 1.751c-.679-1.182-1.99-1.883-3.546-1.883-2.717 0-4.468 1.817-4.468 4.558 0 2.732 1.751 4.553 4.468 4.553 1.556 0 2.889-.702 3.546-1.883l3.022 1.752c-1.314 2.166-3.766 3.547-6.568 3.547-4.621 0-7.971-3.459-7.971-7.969zm21.356 2.624h-1.663v5.038h-3.503V29.859h6.129a5.243 5.243 0 0 1 5.256 5.256c0 1.882-1.138 3.59-2.824 4.445l3.263 5.627h-3.766l-2.892-5.038zm-1.663-3.063h2.626c.965 0 1.753-.854 1.753-1.971s-.788-1.973-1.753-1.973h-2.626v3.944zm9.094.439c0-4.511 3.569-7.975 7.969-7.975s7.97 3.464 7.97 7.975c0 4.51-3.568 7.969-7.97 7.969-4.4 0-7.969-3.459-7.969-7.969zm12.435 0c0-2.739-1.97-4.558-4.467-4.558-2.495 0-4.467 1.817-4.467 4.558 0 2.732 1.972 4.553 4.467 4.553 2.498 0 4.467-1.819 4.467-4.553zm3.732-7.666h3.68l2.649 10.729 2.955-10.729h2.846l2.956 10.729 2.649-10.729h3.68l-4.228 15.328h-3.983l-2.497-9.043-2.495 9.043h-3.986l-4.226-15.328zM58.414 63.611l3.022-1.751c.548 1.269 1.488 2.124 3.218 2.124 1.664 0 2.081-.654 2.081-1.247 0-.94-.876-1.315-3.175-1.95-2.276-.636-4.511-1.729-4.511-4.664 0-2.956 2.497-4.664 5.146-4.664 2.517 0 4.488 1.206 5.604 3.463l-2.955 1.729c-.526-1.096-1.249-1.776-2.649-1.776-1.095 0-1.643.549-1.643 1.162 0 .699.372 1.182 2.759 1.904 2.32.698 4.927 1.512 4.927 4.75 0 2.956-2.365 4.71-5.692 4.71-3.219 0-5.277-1.533-6.132-3.79zm28.799 3.483H83.71v-8.908l-3.963 6.499h-.392l-3.965-6.499v8.908h-3.502V51.766h3.502l4.16 6.811 4.159-6.811h3.503v15.328h.001zm11.614-2.41h-5.69l-.768 2.409h-3.833l5.213-15.327h4.466l5.211 15.327h-3.833l-.766-2.409zm-1.05-3.284l-1.796-5.627-1.795 5.627h3.591zm12.14.657h-1.666v5.036h-3.501V51.766h6.129a5.244 5.244 0 0 1 5.256 5.256c0 1.883-1.14 3.591-2.823 4.445l3.261 5.626h-3.766l-2.89-5.036zm-1.667-3.063h2.628c.963 0 1.751-.855 1.751-1.973 0-1.115-.788-1.973-1.751-1.973h-2.628v3.946zm19.933-3.854h-3.941v11.953h-3.504V55.14h-3.94v-3.374h11.387l-.002 3.374zM36.661 81.339c0-4.511 3.351-7.973 7.97-7.973 2.78 0 5.232 1.381 6.567 3.548l-3.021 1.751c-.679-1.181-1.991-1.883-3.546-1.883-2.715 0-4.467 1.819-4.467 4.557 0 2.735 1.752 4.555 4.467 4.555 1.555 0 2.891-.703 3.546-1.884l3.021 1.751c-1.313 2.169-3.765 3.549-6.567 3.549-4.62-.001-7.97-3.46-7.97-7.971zm15.313 0c0-4.511 3.568-7.973 7.97-7.973s7.969 3.462 7.969 7.973c0 4.512-3.567 7.971-7.969 7.971s-7.97-3.46-7.97-7.971zm12.436 0c0-2.736-1.97-4.557-4.466-4.557-2.497 0-4.466 1.819-4.466 4.557 0 2.735 1.97 4.555 4.466 4.555s4.466-1.82 4.466-4.555zm17.526-7.666v15.328h-2.628l-5.912-8.32v8.32h-3.503V73.673h2.626l5.912 8.322v-8.322h3.505zm12.925 3.374h-3.94v11.954h-3.505V77.047h-3.939v-3.374h11.385v3.374zm6.708 6.917h-1.666v5.037h-3.501V73.673h6.13a5.244 5.244 0 0 1 5.256 5.257c0 1.883-1.14 3.591-2.824 4.445l3.261 5.626h-3.766l-2.89-5.037zm-1.666-3.063h2.629c.962 0 1.75-.856 1.75-1.973 0-1.115-.788-1.973-1.75-1.973h-2.629v3.946zm18.948 5.691h-5.694l-.767 2.409h-3.829l5.21-15.328h4.467l5.211 15.328h-3.831l-.767-2.409zm-1.052-3.284l-1.795-5.626-1.796 5.626h3.591zm5.765-1.969c0-4.511 3.353-7.973 7.972-7.973 2.78 0 5.233 1.381 6.568 3.548l-3.021 1.751c-.678-1.181-1.992-1.883-3.547-1.883-2.716 0-4.466 1.819-4.466 4.557 0 2.735 1.75 4.555 4.466 4.555 1.555 0 2.892-.703 3.547-1.884l3.021 1.751c-1.314 2.169-3.767 3.549-6.568 3.549-4.619-.001-7.972-3.46-7.972-7.971zm26.482-4.292h-3.94v11.954h-3.503V77.047h-3.94v-3.374h11.385l-.002 3.374z" fill="#62688F"/><linearGradient id="a" gradientUnits="userSpaceOnUse" x1="-1352.101" y1="-188.665" x2="-1050.667" y2="-188.665" gradientTransform="scale(1 -1) rotate(-45 -475.488 -1715.204)"><stop offset="0" stop-color="#fff"/><stop offset="1" stop-color="#e6e6e6"/></linearGradient><path fill="url(#a)" d="M171.341 9.958v225.061H9.963V9.958h161.378M181.304 0H0v244.982h181.305V0h-.001z"/><g fill="#62688F"><path d="M31.044 184.682L55.59 219.19l24.546-34.508-24.546 14.584z"/><path d="M80.136 179.879L55.59 139.268l-24.546 40.611 24.546 14.676z"/></g><path fill="#8A92B2" d="M55.59 168.762l-24.546 11.117 24.546-40.611z"/><path fill="#62688F" d="M55.59 194.555l-24.546-14.676 24.546-11.117z"/><path fill="#8A92B2" d="M31.044 184.682l24.546 14.584v19.924z"/><path fill="#62688F" d="M55.59 168.762l24.546 11.117-24.546-40.611z"/><path fill="#454A75" d="M55.59 194.555l24.546-14.676-24.546-11.117z"/><path fill="#62688F" d="M80.136 184.682L55.59 199.266v19.924z"/><path d="M29.389 109.864h123.524v5.171H29.389zm0 10.245h123.524v5.165H29.389zm66.91 19.159h56.114v5.166H96.299zm0 10.677h56.114v5.17H96.299zm0 10.68h56.114v5.17H96.299zm0 10.677h56.114v5.169H96.299zm0 10.681h56.114v5.169H96.299zm0 10.679h56.114v5.17H96.299zm0 10.679h56.114v5.172H96.299zm0 10.679h56.114v5.171H96.299z" fill="#CCC"/></svg>