<svg xmlns="http://www.w3.org/2000/svg" width="204.75" height="145.657" viewBox="0 0 204.75 145.657"><path d="M50.078 130.025v15.325h-3.503v-15.325h3.503zm14.672 0v15.325h-2.626l-5.912-8.318v8.318h-3.503v-15.325h2.627l5.911 8.319v-8.319h3.503zm1.322 0h3.831l3.395 11.275 3.394-11.275h3.832l-4.992 15.325h-4.467l-4.993-15.325zm25.406 11.956v3.369h-9.634v-15.325h9.524v3.37h-6.021v2.541h5.473v3.327h-5.473v2.718h6.131zm1.21-.111l3.022-1.75c.547 1.27 1.489 2.122 3.218 2.122 1.665 0 2.081-.657 2.081-1.249 0-.941-.876-1.313-3.175-1.946-2.276-.635-4.51-1.729-4.51-4.665 0-2.954 2.496-4.662 5.146-4.662 2.518 0 4.488 1.205 5.605 3.458l-2.956 1.729c-.526-1.095-1.248-1.772-2.649-1.772-1.096 0-1.643.546-1.643 1.159 0 .703.373 1.184 2.759 1.903 2.321.703 4.927 1.513 4.927 4.755 0 2.954-2.365 4.705-5.692 4.705-3.22 0-5.279-1.533-6.133-3.787zm23.326-8.475h-3.94v11.955h-3.503v-11.955h-3.941v-3.37h11.385v3.37zm.006 4.293c0-4.511 3.57-7.969 7.97-7.969 4.401 0 7.969 3.458 7.969 7.969s-3.568 7.969-7.969 7.969c-4.4 0-7.97-3.458-7.97-7.969zm12.437 0c0-2.738-1.97-4.554-4.466-4.554-2.496 0-4.466 1.815-4.466 4.554s1.971 4.554 4.466 4.554 4.466-1.816 4.466-4.554zm10.65 2.627h-1.663v5.035h-3.503v-15.325h6.13a5.243 5.243 0 0 1 5.255 5.257c0 1.883-1.138 3.59-2.824 4.441l3.263 5.627h-3.766l-2.892-5.035zm-1.663-3.066h2.627c.963 0 1.751-.852 1.751-1.967 0-1.121-.788-1.973-1.751-1.973h-2.627v3.94zm8.983 4.621l3.021-1.75c.548 1.27 1.489 2.122 3.218 2.122 1.664 0 2.081-.657 2.081-1.249 0-.941-.876-1.313-3.175-1.946-2.276-.635-4.51-1.729-4.51-4.665 0-2.954 2.496-4.662 5.146-4.662 2.517 0 4.488 1.205 5.605 3.458l-2.956 1.729c-.526-1.095-1.249-1.772-2.649-1.772-1.096 0-1.643.546-1.643 1.159 0 .703.373 1.184 2.759 1.903 2.321.703 4.927 1.513 4.927 4.755 0 2.954-2.365 4.705-5.692 4.705-3.22 0-5.278-1.533-6.132-3.787z" fill="#706DCB"/><path d="M158.609 21.203c-.384-.978-.727-1.852-1.233-3.134 1.286.057 2.285.124 3.287.143 2.622.035 5.298.402 7.854.007 4.65-.725 8.265.345 10.651 4.6.177.316.47.691.785.788 4.888 1.501 5.233 5.451 5.243 9.605.003 2.271-.092 4.36.69 6.768.778 2.4-.604 5.879-1.885 8.465-1.513 3.056-3.017 5.933-3.101 9.445-.023.959-.682 2.192-1.447 2.81-2.875 2.304-5.914 4.407-8.984 6.649.597.824 1.011 1.634 1.635 2.214 2.024 1.891 2.278 3.73.435 5.973-.564.685-.669 1.983-.559 2.949.467 4.05 1.096 8.08 1.699 12.337h-8.92c.56-4.086 1.198-8.019 1.583-11.969.121-1.234-.072-2.8-.76-3.748-1.388-1.918-1.444-3.388.308-5.014.768-.717 1.315-1.668 2.107-2.699-3.061-2.25-6.048-4.374-8.941-6.621-.679-.528-1.482-1.473-1.467-2.214.079-4.054-1.701-7.328-3.529-10.789-1.477-2.797-3.462-5.98-.719-9.464.591-.753.048-2.425-.03-3.67-.334-5.309.608-10.112 5.298-13.431zm46.139 69.682h-26.807l5.08-27.719c1.734.898 3.235 1.515 4.56 2.396a888.564 888.564 0 0 1 13.957 9.514c2.25 1.559 3.218 3.815 3.212 6.518-.005 2.997-.002 5.996-.002 9.291zm-71.11 0h26.807l-5.08-27.719c-1.736.898-3.234 1.515-4.56 2.396a883.913 883.913 0 0 0-13.957 9.514c-2.25 1.559-3.217 3.815-3.213 6.518.005 2.997.003 5.996.003 9.291zM24.973 21.17l-1.233-3.135c1.286.058 2.285.125 3.287.14 2.622.043 5.299.406 7.854.007 4.65-.72 8.265.35 10.65 4.604.176.313.47.691.786.788 4.888 1.501 5.233 5.451 5.242 9.606.004 2.27-.092 4.359.69 6.77.779 2.396-.603 5.877-1.883 8.463-1.513 3.055-3.018 5.936-3.102 9.441-.024.966-.683 2.196-1.446 2.81-2.876 2.307-5.915 4.407-8.986 6.652.599.825 1.012 1.634 1.636 2.215 2.024 1.89 2.277 3.729.435 5.973-.564.685-.669 1.982-.559 2.948.467 4.047 1.097 8.077 1.699 12.337h-8.921c.561-4.089 1.199-8.015 1.584-11.97.12-1.233-.072-2.799-.76-3.747-1.388-1.919-1.444-3.384.308-5.013.769-.714 1.315-1.669 2.107-2.699-3.061-2.25-6.049-4.375-8.941-6.621-.678-.528-1.481-1.473-1.466-2.212.078-4.054-1.701-7.331-3.529-10.793-1.477-2.795-3.461-5.979-.72-9.463.591-.749.048-2.425-.03-3.67-.336-5.306.608-10.115 5.298-13.431zm46.138 69.683H44.305l5.079-27.723c1.735.902 3.234 1.52 4.559 2.399a890.84 890.84 0 0 1 13.958 9.514c2.25 1.559 3.218 3.815 3.212 6.518-.005 2.999-.002 5.997-.002 9.292zm-71.109 0h26.807l-5.08-27.723c-1.735.902-3.234 1.52-4.56 2.399a895.477 895.477 0 0 0-13.957 9.514C.962 76.602-.005 78.859 0 81.561c.003 2.999.002 5.997.002 9.292z" fill-rule="evenodd" clip-rule="evenodd" fill="#9B99DB"/><path fill-rule="evenodd" clip-rule="evenodd" fill="#706DCB" d="M73.136 65.027c-.203-.905-.396-1.811-.593-2.713-.047-.224-.098-.446-.151-.688a8.541 8.541 0 0 1-2.369.72c-1.085.178-2.165.164-3.226-.153-1.498-.453-2.554-1.391-3.067-2.888-.081-.24-.141-.482-.219-.749h8.066v-2.275h-8.484v-1.526h8.484v-2.271h-7.988l.106-.372c.253-.845.69-1.575 1.348-2.166 1.039-.936 2.275-1.306 3.65-1.281 1.104.021 2.162.278 3.189.667.08.032.159.061.249.093.021-.071.037-.114.048-.16.271-1.106.537-2.211.815-3.316.036-.146.008-.203-.132-.26a12.497 12.497 0 0 0-5.464-.856c-1.021.071-2.015.274-2.957.671-2.957 1.24-4.841 3.443-5.754 6.5-.049.152-.046.371-.152.452-.106.082-.316.033-.479.033h-1.638v2.285h1.756v1.508h-1.76v2.286h.209c.554 0 1.111.003 1.666-.004.16-.007.229.036.252.203.04.25.097.496.165.742.601 2.246 1.878 4.011 3.807 5.298 1.525 1.024 3.234 1.508 5.052 1.598 1.903.089 3.726-.268 5.439-1.119.122-.062.163-.122.132-.259zm70.554 0c-.202-.905-.395-1.811-.593-2.713-.047-.224-.098-.446-.151-.688a8.541 8.541 0 0 1-2.369.72c-1.086.178-2.166.164-3.226-.153-1.498-.453-2.554-1.391-3.067-2.888-.083-.24-.141-.482-.22-.749h8.067v-2.275h-8.484v-1.526h8.484v-2.271h-7.988c.037-.136.071-.253.106-.372.252-.845.691-1.575 1.348-2.166 1.04-.936 2.276-1.306 3.651-1.281 1.103.021 2.161.278 3.188.667.08.032.159.061.25.093.021-.071.037-.114.048-.16.271-1.106.538-2.211.816-3.316.036-.146.007-.203-.133-.26a12.497 12.497 0 0 0-5.464-.856c-1.02.071-2.015.274-2.957.671-2.958 1.24-4.841 3.443-5.754 6.5-.048.152-.046.371-.151.452-.107.082-.316.033-.479.033h-1.639v2.285h1.757v1.508h-1.762v2.286h.211c.554 0 1.11.003 1.665-.004.16-.007.229.036.253.203.039.25.097.496.163.742.602 2.246 1.88 4.011 3.808 5.298 1.525 1.024 3.233 1.508 5.053 1.598 1.903.089 3.725-.268 5.439-1.119.122-.062.162-.122.13-.259zM86.378 4.776c-.574-1.459-1.086-2.768-1.842-4.689 1.92.086 3.416.189 4.912.21 3.921.061 7.925.606 11.748.015 6.955-1.08 12.361.521 15.927 6.882.265.471.702 1.031 1.175 1.177 7.312 2.246 7.828 8.154 7.839 14.366.006 3.394-.137 6.521 1.034 10.122 1.164 3.584-.901 8.794-2.817 12.658-2.264 4.571-4.512 8.875-4.639 14.123-.034 1.441-1.019 3.285-2.163 4.201-4.3 3.447-8.846 6.592-13.437 9.948.893 1.233 1.512 2.442 2.444 3.315 3.028 2.824 3.406 5.581.649 8.929-.842 1.022-1 2.963-.833 4.41.699 6.055 1.64 12.081 2.541 18.452H95.573c.839-6.118 1.792-11.995 2.37-17.902.181-1.848-.109-4.187-1.138-5.609-2.076-2.867-2.159-5.063.459-7.495 1.15-1.069 1.97-2.492 3.154-4.036-4.579-3.361-9.046-6.539-13.374-9.901-1.014-.784-2.215-2.203-2.193-3.309.117-6.062-2.543-10.961-5.277-16.136-2.209-4.182-5.179-8.944-1.078-14.15.885-1.128.072-3.631-.044-5.492-.499-7.942.911-15.126 7.926-20.089zm69.001 104.212h-40.091l7.597-41.457c2.595 1.347 4.837 2.268 6.818 3.586 7.01 4.665 13.955 9.429 20.874 14.224 3.364 2.336 4.812 5.706 4.804 9.753-.007 4.485-.002 8.966-.002 13.894zm-106.348 0h40.093l-7.598-41.457c-2.595 1.347-4.836 2.268-6.818 3.586-7.009 4.665-13.953 9.429-20.874 14.224-3.362 2.336-4.811 5.706-4.804 9.753.007 4.485.001 8.966.001 13.894z"/></svg>