<svg xmlns="http://www.w3.org/2000/svg" width="203.664" height="91.887"><linearGradient id="a" gradientUnits="userSpaceOnUse" x1="-2589.479" y1="-3739.227" x2="-2497.593" y2="-3739.227" gradientTransform="rotate(90 -3113.437 -523.957)"><stop offset="0" stop-color="#4b48bf"/><stop offset=".283" stop-color="#6e49a9"/><stop offset=".566" stop-color="#8a4a98"/><stop offset=".815" stop-color="#9b4b8e"/><stop offset="1" stop-color="#a14b8a"/></linearGradient><path fill="url(#a)" d="M203.665 33.707h-9.033l1.523 1.529h-64.059l3.527-6.111a4.427 4.427 0 0 0 2.264.63 4.454 4.454 0 0 0 4.45-4.452 4.447 4.447 0 0 0-4.45-4.446 4.44 4.44 0 0 0-4.439 4.342h-19.519l-5.986-10.371-3.765-6.525a4.442 4.442 0 0 0 2.221-3.854 4.447 4.447 0 1 0-6.671 3.854l-3.766 6.525-5.99 10.371H70.465a4.45 4.45 0 0 0-4.446-4.435 4.454 4.454 0 0 0-4.452 4.45 4.448 4.448 0 0 0 4.452 4.445c.809 0 1.573-.217 2.228-.598l3.566 6.175H7.502l1.53-1.529H0v9.028l1.522-1.527v9.507L0 49.185v9.032l9.033-.003-1.561-1.563h64.34l-3.525 6.115a4.426 4.426 0 0 0-2.268-.628 4.453 4.453 0 0 0-4.452 4.45 4.446 4.446 0 0 0 4.452 4.446 4.438 4.438 0 0 0 4.438-4.347h7.538l11.978.007 5.99 10.373 3.766 6.524a4.446 4.446 0 1 0 6.671 3.844 4.43 4.43 0 0 0-2.221-3.844l3.761-6.524 5.99-10.38 11.978.007 7.534-.007a4.45 4.45 0 0 0 4.446 4.439 4.45 4.45 0 0 0 4.45-4.45 4.448 4.448 0 0 0-4.45-4.449c-.813 0-1.572.224-2.229.603l-3.563-6.18h64.094l-1.559 1.565 9.033-.003v-9.029l-1.531 1.53v-9.507l1.531 1.527v-9.026zm-3.829 7.501V54.36H128.12l1.987 3.439 3.564 6.181.239.416h-21.301l-.663 1.149-5.987 10.379-3.772 6.521-.235.406-.235-.406-3.769-6.521-5.988-10.379-.664-1.149H69.988l.285-.485 3.524-6.111 1.986-3.439H3.822l.003-3.645v-9.507l-.003-3.679h71.966l-1.99-3.441-3.562-6.172-.247-.425h21.309l.664-1.145 5.988-10.372 3.769-6.528.235-.41.235.41 3.772 6.528 5.987 10.372.663 1.145h21.301l-.282.488-3.521 6.108-1.987 3.441h71.717v3.679zm-58.222 3.135c0 2.254-1.815 4.075-4.162 4.075h-1.782v3.737h-2.725V40.26h4.507c2.346 0 4.162 1.815 4.162 4.083zm-2.718 0c0-.869-.609-1.533-1.444-1.536h-1.782v3.06h1.782c.835-.001 1.444-.661 1.444-1.524zm4.671 1.865c0-3.502 2.774-6.187 6.19-6.187s6.187 2.685 6.187 6.187c0 3.498-2.771 6.186-6.187 6.186s-6.19-2.688-6.19-6.186zm9.66 0c0-2.126-1.53-3.537-3.47-3.537-1.936 0-3.466 1.411-3.466 3.537 0 2.121 1.53 3.533 3.466 3.533 1.94 0 3.466-1.412 3.47-3.533zm12.4 3.334v2.613h-6.963V40.26h2.721v9.282h4.242zm5.1-9.282v11.896h-2.721V40.26h2.721zm2.721 5.948c0-3.502 2.6-6.187 6.184-6.187 2.164 0 4.064 1.069 5.102 2.753l-2.346 1.361c-.523-.92-1.549-1.465-2.756-1.465-2.104 0-3.467 1.411-3.467 3.537 0 2.121 1.363 3.533 3.467 3.533 1.207 0 2.25-.545 2.756-1.462l2.346 1.362c-1.023 1.683-2.92 2.752-5.102 2.752-3.585.002-6.184-2.686-6.184-6.184zm21.222 3.33v2.617h-7.477V40.26h7.398v2.618h-4.678v1.971l4.254-.003v2.589h-4.254v2.107l4.757-.004zM9.408 46.026c0-3.506 2.597-6.19 6.18-6.19 2.164 0 4.07 1.073 5.1 2.756l-2.339 1.355c-.527-.917-1.546-1.455-2.761-1.459-2.104 0-3.465 1.412-3.465 3.538 0 2.125 1.361 3.533 3.465 3.533 1.214 0 2.251-.545 2.761-1.458l2.345 1.357c-1.025 1.684-2.928 2.753-5.106 2.753-3.584.001-6.18-2.687-6.18-6.185zm16.569 2.04h-1.294v3.907h-2.716V40.075h4.757a4.068 4.068 0 0 1 4.077 4.078c0 1.462-.882 2.792-2.19 3.452l2.53 4.368H28.22l-2.243-3.907zm-1.294-2.386h2.041c.746 0 1.358-.652 1.358-1.526 0-.866-.612-1.526-1.358-1.526h-2.041v3.052zm13.086 1.722v4.571H35.05v-4.571l-3.992-7.327h3.09l2.264 4.592 2.259-4.592h3.094l-3.996 7.327zm13.678-3.249c0 2.261-1.814 4.08-4.159 4.08H45.5l.001 3.74h-2.715V40.075h4.502c2.345 0 4.159 1.819 4.159 4.078zm-2.715 0c0-.866-.612-1.526-1.444-1.526h-1.787v3.053h1.787c.833 0 1.444-.659 1.444-1.527zm11.897-1.461h-3.06v9.281h-2.723v-9.281h-3.058v-2.617h8.841v2.617zm-.003 3.334c0-3.506 2.771-6.19 6.188-6.19 3.414 0 6.188 2.685 6.188 6.193 0 3.501-2.774 6.183-6.188 6.183-3.417 0-6.188-2.688-6.188-6.186zm9.658.003c0-2.129-1.533-3.541-3.47-3.537-1.938 0-3.468 1.408-3.468 3.534 0 2.125 1.53 3.533 3.468 3.533 1.937.001 3.47-1.408 3.47-3.53zm5.598 7.653l2.9-7.652-2.9-7.659 4.412 7.659-4.412 7.652zm52.011-15.39l-2.899 7.659 2.899 7.651-4.422-7.651 4.422-7.659zm-26.297-20.228l.378-.649.378.649 5.987 10.38 1.572 2.716c-2.371-1.25-5.071-1.96-7.938-1.96s-5.573.71-7.939 1.96l1.573-2.716 5.989-10.38zM77.261 31.682l.377.652 5.99 10.376 1.378 2.382c.364-5.688 3.522-10.607 8.111-13.41H77.261zm12.737 28.536h2.323c-4.28-2.956-7.137-7.82-7.345-13.364l-1.348 2.335-5.99 10.373-.377.656h12.737zm18.341 3.241l1.148-1.99c-2.268 1.12-4.818 1.751-7.514 1.751s-5.249-.631-7.516-1.751l1.15 1.99 5.988 10.372.378.651.378-.651 5.988-10.372zm18.345-3.241l-.374-.656-5.99-10.373-1.348-2.335c-.207 5.54-3.07 10.408-7.35 13.364h15.062zm0-28.536h-15.852c4.585 2.803 7.744 7.727 8.111 13.41l1.377-2.382 5.99-10.376.374-.652zm-21.636 12.772h-6.215v-2.561h6.215c.763 0 1.258.538 1.258 1.279 0 .746-.516 1.282-1.258 1.282zm1.776 4.315c0 .805-.539 1.383-1.362 1.383h-6.628v-2.767h6.628c.823 0 1.362.581 1.362 1.384zm-4.85-16.513c-7.694 0-13.956 6.261-13.956 13.952 0 7.694 6.262 13.955 13.956 13.955 7.695 0 13.956-6.261 13.956-13.955 0-7.691-6.261-13.952-13.956-13.952zm3.487 20.994h-.502v2.685h-2.439V53.25h-1.23v2.685h-2.435v-2.682H93.98v-3.084h1.551v-8.283H93.98v-3.095h4.875v-2.678h2.435v2.678h1.23v-2.678h2.439v2.678h.089c2.517 0 4.561 1.634 4.561 4.133 0 1.197-.472 2.15-1.256 2.831 1.069.681 1.775 1.794 1.775 3.263 0 2.559-2.088 4.232-4.667 4.232z"/></svg>