<svg xmlns="http://www.w3.org/2000/svg" width="204.748" height="184.905"><path d="M172.105 87.391c-.439-.41-.789-.94-1.158-1.501-1.164-.043-2.326-.046-3.48.063-.525.735-1.002 1.431-1.576 1.966-1.752 1.629-1.697 3.095-.311 5.013.691.949.885 2.515.762 3.747-.385 3.954-1.023 7.885-1.582 11.971h8.918c-.6-4.258-1.23-8.287-1.697-12.337-.111-.967-.008-2.265.561-2.949 1.837-2.239 1.589-4.082-.437-5.973zm32.643 21.322h-26.807l5.078-27.719c1.736.898 3.238 1.516 4.561 2.396a872.117 872.117 0 0 1 13.955 9.513c2.25 1.558 3.221 3.815 3.213 6.519-.004 2.998 0 5.997 0 9.291zm-71.109 0h26.807l-5.082-27.719c-1.736.898-3.232 1.516-4.561 2.396a909.715 909.715 0 0 0-13.955 9.513c-2.25 1.558-3.217 3.815-3.213 6.519.004 2.998.004 5.997.004 9.291zm-95.17-21.354c-.543-.506-.941-1.191-1.424-1.897H34.16c-.676.921-1.211 1.776-1.906 2.426-1.75 1.63-1.697 3.095-.311 5.013.691.952.885 2.515.764 3.747-.387 3.954-1.023 7.885-1.584 11.971h8.918c-.6-4.258-1.23-8.287-1.697-12.334-.111-.97-.008-2.268.561-2.952 1.839-2.241 1.589-4.081-.436-5.974zm32.642 21.323H44.304l5.078-27.719c1.736.897 3.238 1.514 4.561 2.396a865.558 865.558 0 0 1 13.955 9.513c2.25 1.558 3.221 3.814 3.213 6.521-.004 2.995 0 5.994 0 9.289zm-71.109 0h26.807c-1.686-9.211-3.346-18.246-5.08-27.719-1.736.897-3.234 1.514-4.561 2.396a893.204 893.204 0 0 0-13.957 9.513C.961 94.429-.006 96.686 0 99.393c.002 2.995.002 5.994.002 9.289zm146.551-54.159v-1.134c.354-1.262.682-2.524 1.061-3.776.602-1.996.813-2.182 2.867-1.868 1.422.221 2.541-.234 3.453-1.23 1.459-1.597 2.469-3.287 1.424-5.601-.664-1.469-.469-1.804.916-2.668a46.088 46.088 0 0 1 3.236-1.843c1.582-.81 1.938-.738 2.975.749.688.987 1.594 1.437 2.738 1.565 2.863.32 4.283-.45 5.563-3.053.436-.88.939-1.494 2.1-1.123 1.213.389 2.492.577 3.713.956 2.051.626 2.129.73 1.846 2.884-.152 1.188.193 2.143.932 3.021 1.672 1.988 3.459 2.488 5.984 1.604.961-.335 1.721-.321 2.271.721.697 1.329 1.471 2.624 2.252 3.908.662 1.087.215 1.814-.645 2.506-.486.393-1.027.823-1.291 1.362-1.266 2.567-.068 5.801 2.506 6.971.984.446 1.625 1.026 1.199 2.274-.436 1.277-.695 2.617-1.117 3.901-.559 1.693-.912 1.937-2.621 1.562-1.418-.311-2.512.167-3.516 1.055-1.459 1.302-2.574 3.799-1.232 5.784.783 1.17.563 1.644-.646 2.413a40.164 40.164 0 0 1-3.836 2.154c-1.494.728-1.752.652-2.668-.76-.623-.97-1.465-1.479-2.553-1.676-2.596-.456-4.682.671-5.754 3.156-.424.987-.988 1.54-2.162 1.177-1.293-.4-2.631-.656-3.918-1.07-1.727-.556-1.996-1.009-1.611-2.821.256-1.232-.1-2.234-.842-3.151-1.615-1.985-3.527-2.467-6.008-1.533-1.412.528-1.729.457-2.539-.767a34.79 34.79 0 0 1-1.637-2.709c-1.309-2.414-1.287-2.41.91-4.098 1.361-1.044 1.764-2.514 1.572-4.132-.189-1.594-.977-2.796-2.561-3.435-.824-.33-1.576-.843-2.361-1.275zm23.148 14.366c6.672-.092 12.014-5.599 11.906-12.27-.107-6.646-5.602-11.916-12.346-11.83-6.496.078-11.848 5.59-11.791 12.154.059 6.655 5.571 12.039 12.231 11.946zM12.918 54.523v-1.134c.352-1.262.68-2.524 1.059-3.776.602-1.996.813-2.182 2.867-1.868 1.422.221 2.541-.234 3.453-1.23 1.459-1.597 2.465-3.287 1.424-5.601-.664-1.469-.467-1.804.916-2.668a45.681 45.681 0 0 1 3.238-1.843c1.58-.81 1.936-.738 2.973.749.688.987 1.596 1.437 2.736 1.565 2.865.32 4.285-.45 5.564-3.053.432-.88.939-1.494 2.102-1.123 1.211.389 2.492.577 3.711.956 2.051.626 2.129.73 1.848 2.884-.154 1.188.191 2.143.93 3.021 1.672 1.988 3.459 2.488 5.984 1.604.963-.335 1.721-.321 2.271.721.699 1.329 1.473 2.624 2.254 3.908.662 1.087.213 1.814-.646 2.506-.484.393-1.027.823-1.291 1.362-1.266 2.567-.068 5.801 2.506 6.971.984.446 1.623 1.026 1.199 2.274-.436 1.277-.695 2.617-1.117 3.901-.559 1.693-.912 1.937-2.619 1.562-1.42-.311-2.514.167-3.518 1.055-1.457 1.302-2.574 3.799-1.232 5.784.785 1.17.563 1.644-.646 2.413a40.042 40.042 0 0 1-3.836 2.154c-1.494.728-1.752.652-2.668-.76-.623-.97-1.465-1.479-2.553-1.676-2.594-.456-4.684.671-5.754 3.156-.424.987-.988 1.54-2.16 1.177-1.295-.4-2.633-.656-3.92-1.07-1.725-.556-1.996-1.009-1.611-2.821.258-1.232-.1-2.234-.842-3.151-1.615-1.985-3.527-2.467-6.008-1.533-1.412.528-1.729.457-2.539-.767a34.79 34.79 0 0 1-1.637-2.709c-1.309-2.414-1.287-2.41.91-4.098 1.361-1.044 1.764-2.514 1.572-4.132-.189-1.594-.977-2.796-2.561-3.435-.822-.33-1.576-.843-2.359-1.275zm23.146 14.366c6.672-.092 12.014-5.599 11.906-12.27-.105-6.646-5.602-11.916-12.344-11.83-6.496.078-11.85 5.59-11.791 12.154.058 6.655 5.569 12.039 12.229 11.946z" fill-rule="evenodd" clip-rule="evenodd" fill="#BC81AD"/><path d="M101.959 22.037c8.582.278 15.221 3.997 19.521 11.442 4.133 7.148 3.615 14.217-1.074 20.995-.883 1.275-1.572 2.72-2.609 3.847-3.822 4.146-5.26 8.957-4.588 14.522.33 2.753-.379 5.017-3.742 5.202-1.611.09-1.75 1.498-2.432 2.475-2.787 4.015-6.996 3.973-9.824-.074-.438-.625-.727-1.83-1.189-1.884-6.443-.763-4.953-5.629-4.918-9.569.025-2.639-.688-4.795-2.314-6.843-1.732-2.182-3.244-4.542-4.834-6.835-4.789-6.893-5.344-14.138-1.32-21.482 4.135-7.545 10.731-11.358 19.323-11.796zm-.664 41.796c6.047 0 6.023-.015 9.029-4.578 1.533-2.332 3.166-4.6 4.781-6.875 6.977-9.813 3.262-20.784-8.303-24.507-6.543-2.104-14.016.549-18.465 6.561-4.326 5.841-4.23 11.721.277 17.957 1.729 2.386 3.73 4.628 5.088 7.209 1.849 3.498 4.349 5.05 7.593 4.233zm-17.879 2.825c-.148.288-.363 1.072-.859 1.59-2.428 2.56-4.891 5.091-7.428 7.552-1.25 1.216-2.809 1.462-4.074.089-1.037-1.123-1.076-2.639-.018-3.779 2.502-2.703 5.105-5.309 7.73-7.894.982-.971 2.268-.978 3.424-.34.83.46 1.282 1.301 1.225 2.782zM67.09 41.527c2.332.427 6.982-1.401 7.117 2.855.146 4.661-4.596 2.496-7.299 2.92-1.648.265-3.377.086-5.066.008-1.771-.082-3.535-.402-3.578-2.692-.045-2.475 1.73-3.006 3.738-3.08 1.537-.057 3.076-.011 5.088-.011zm66.848 32.472c-.023.971-.268 1.848-1.188 2.344-1.211.651-2.438.573-3.408-.379a341.24 341.24 0 0 1-7.754-7.891c-.945-.991-1.057-2.192-.297-3.388.535-.852 1.34-1.206 2.338-1.19 1.947.028 10.316 8.543 10.309 10.504zm3.773-26.576c-1.848-.082-3.705-.07-5.539-.285-1.328-.156-2.273-.983-2.338-2.452-.072-1.644.824-2.839 2.369-2.902 3.846-.16 7.707-.16 11.555.003 1.559.067 2.396 1.284 2.314 2.932-.07 1.49-1.041 2.317-2.35 2.424-1.99.168-4.006.043-6.008.043.001.081-.003.159-.003.237zM72.873 12.22c1.002-.039 1.797.39 2.479 1.081 2.289 2.318 4.607 4.605 6.859 6.96 1.309 1.365 1.939 2.944.297 4.464-1.406 1.298-2.902.853-4.137-.356-2.432-2.393-4.803-4.846-7.191-7.28-1.002-1.024-.959-2.248-.51-3.47.363-.988 1.205-1.349 2.203-1.399zm48.002 10.02c.162-.303.402-1.072.9-1.598a308.723 308.723 0 0 1 7.428-7.537c1.102-1.076 2.521-1.366 3.744-.331 1.369 1.161 1.465 2.805.289 4.093-2.482 2.714-5.113 5.295-7.752 7.858-.975.948-2.25 1.009-3.402.285-.803-.499-1.283-1.308-1.207-2.77zM99.344 7.977c0-1.544-.01-3.084 0-4.628.016-1.953.777-3.397 2.924-3.348 1.881.043 2.646 1.365 2.658 3.13.021 3.391.014 6.786-.008 10.176-.01 1.776-.863 3.125-2.664 3.167-2.09.047-2.881-1.473-2.906-3.409-.022-1.696-.004-3.39-.004-5.088z" fill-rule="evenodd" clip-rule="evenodd" fill="#A04B8A"/><path d="M69.695 152.622c0 2.908-2.342 5.252-5.363 5.252h-2.299v4.816h-3.504v-15.325h5.803c3.022 0 5.363 2.343 5.363 5.257zm-3.502 0c0-1.121-.789-1.973-1.861-1.973h-2.299v3.939h2.299c1.072 0 1.861-.851 1.861-1.966zm10.43 5.033h-1.664v5.035h-3.504v-15.325h6.131a5.243 5.243 0 0 1 5.254 5.257c0 1.883-1.139 3.59-2.824 4.441l3.262 5.627h-3.766l-2.889-5.035zm-1.664-3.067h2.627c.965 0 1.752-.852 1.752-1.967 0-1.121-.787-1.973-1.752-1.973h-2.627v3.94zm9.092.44c0-4.511 3.57-7.969 7.971-7.969s7.969 3.458 7.969 7.969-3.568 7.969-7.969 7.969-7.971-3.458-7.971-7.969zm12.437 0c0-2.738-1.971-4.554-4.467-4.554s-4.467 1.815-4.467 4.554 1.971 4.554 4.467 4.554 4.467-1.816 4.467-4.554zm3.293 4.992l3.043-1.75c.48.852.984 1.312 2.168 1.312 1.533 0 1.992-.874 1.992-1.815v-10.401h3.502v10.401c0 3.369-2.363 5.23-5.516 5.23-2.431 0-4.181-1.028-5.189-2.977zm22.865-.699v3.369h-9.635v-15.325h9.523v3.37h-6.018v2.541h5.473v3.327h-5.473v2.718h6.13zm1.213-4.293c0-4.511 3.348-7.969 7.969-7.969 2.781 0 5.232 1.379 6.568 3.547l-3.021 1.752c-.68-1.185-1.992-1.884-3.547-1.884-2.717 0-4.469 1.815-4.469 4.554s1.752 4.554 4.469 4.554c1.555 0 2.889-.699 3.547-1.884l3.021 1.751c-1.313 2.169-3.766 3.548-6.568 3.548-4.621 0-7.969-3.458-7.969-7.969zm26.477-4.293h-3.939v11.955h-3.504v-11.955h-3.941v-3.37h11.385v3.37zm-91.205 26.2c0-4.511 3.57-7.97 7.971-7.97 4.402 0 7.969 3.459 7.969 7.97s-3.566 7.97-7.969 7.97c-4.401 0-7.971-3.459-7.971-7.97zm12.437 0c0-2.739-1.971-4.554-4.467-4.554-2.494 0-4.465 1.814-4.465 4.554s1.971 4.554 4.465 4.554c2.497 0 4.467-1.815 4.467-4.554zm3.733-7.662h3.676l2.65 10.729 2.955-10.729h2.846l2.955 10.729 2.65-10.729h3.68l-4.225 15.325h-3.986l-2.496-9.043-2.496 9.043h-3.984l-4.225-15.325zm35 0v15.325h-2.627l-5.912-8.319v8.319h-3.504v-15.325h2.627l5.912 8.317v-8.317h3.504zm12.269 11.956v3.369h-9.635v-15.325h9.525v3.369h-6.023v2.542h5.475v3.327h-5.475v2.718h6.133zm7.143-1.666h-1.664v5.035h-3.502v-15.325h6.129a5.243 5.243 0 0 1 5.256 5.255c0 1.883-1.137 3.592-2.824 4.443l3.262 5.627h-3.764l-2.893-5.035zm-1.664-3.066h2.627c.965 0 1.752-.853 1.752-1.969 0-1.119-.787-1.972-1.752-1.972h-2.627v3.941zm8.984 4.621l3.021-1.751c.549 1.269 1.488 2.122 3.219 2.122 1.664 0 2.08-.656 2.08-1.249 0-.94-.875-1.312-3.174-1.946-2.277-.635-4.512-1.729-4.512-4.664 0-2.955 2.496-4.664 5.146-4.664 2.516 0 4.488 1.206 5.604 3.459l-2.955 1.729c-.525-1.095-1.248-1.772-2.648-1.772-1.096 0-1.645.545-1.645 1.16 0 .701.373 1.183 2.76 1.903 2.32.702 4.928 1.512 4.928 4.753 0 2.955-2.365 4.707-5.693 4.707-3.217 0-5.277-1.533-6.131-3.787z" fill="#A04B8A"/><path d="M106.559 94.932c-.932-.873-1.551-2.082-2.443-3.312l.246-.183h-4.279c.115.082.223.164.336.246-1.184 1.541-2.004 2.967-3.152 4.033-2.621 2.432-2.535 4.628-.459 7.498 1.025 1.42 1.314 3.762 1.137 5.605-.578 5.912-1.529 11.785-2.371 17.903h13.342c-.898-6.373-1.84-12.397-2.537-18.452-.168-1.444-.012-3.388.83-4.411 2.758-3.347 2.377-6.103-.65-8.927zm48.82 31.885h-40.092c2.523-13.774 5.002-27.285 7.598-41.458 2.596 1.348 4.84 2.271 6.816 3.587 7.01 4.664 13.957 9.432 20.879 14.228 3.361 2.331 4.809 5.704 4.803 9.748-.008 4.485-.004 8.97-.004 13.895zm-106.35 0h40.092l-7.594-41.458c-2.596 1.348-4.84 2.271-6.82 3.587-7.008 4.664-13.953 9.432-20.875 14.228-3.361 2.331-4.809 5.704-4.803 9.748.008 4.485 0 8.97 0 13.895z" fill-rule="evenodd" clip-rule="evenodd" fill="#A04B8A"/></svg>