<svg xmlns="http://www.w3.org/2000/svg" width="385.207" height="199.602" viewBox="0 99.771 385.207 199.602"><path d="M368.882 210.958c-.219-.204-.393-.47-.579-.75a13.482 13.482 0 0 0-1.741.03c-.261.368-.5.716-.788.984-.875.814-.848 1.548-.155 2.506.345.476.442 1.259.381 1.875-.192 1.978-.511 3.943-.792 5.986h4.46c-.3-2.131-.615-4.145-.848-6.17-.055-.483-.004-1.133.28-1.475.92-1.118.795-2.04-.218-2.986zm16.325 10.665h-13.406l2.538-13.862c.87.448 1.619.758 2.281 1.197a441.906 441.906 0 0 1 6.979 4.758c1.125.779 1.61 1.908 1.607 3.26-.001 1.499.001 2.998.001 4.647zm-35.561 0h13.407l-2.542-13.862c-.868.448-1.617.758-2.281 1.197a451.354 451.354 0 0 0-6.979 4.758c-1.125.779-1.608 1.908-1.607 3.26.002 1.499.002 2.998.002 4.647zm-47.593-10.68c-.271-.253-.471-.596-.711-.949H299.9c-.339.461-.606.889-.955 1.214-.875.815-.849 1.548-.155 2.507.345.476.442 1.258.382 1.874-.192 1.978-.512 3.943-.792 5.986h4.46c-.3-2.129-.615-4.144-.849-6.168-.055-.485-.003-1.135.281-1.477.919-1.12.794-2.04-.219-2.987zm16.325 10.664h-13.406c.844-4.606 1.67-9.125 2.539-13.862.869.448 1.619.757 2.28 1.197a435.224 435.224 0 0 1 6.979 4.758c1.125.779 1.61 1.907 1.607 3.261-.001 1.497.001 2.997.001 4.646zm-35.562 0h13.406l-2.541-13.862c-.868.448-1.617.757-2.281 1.197a449.113 449.113 0 0 0-6.979 4.758c-1.125.779-1.609 1.907-1.607 3.261.002 1.497.002 2.997.002 4.646zm73.288-27.085v-.567c.177-.631.34-1.262.53-1.889.302-.998.407-1.091 1.434-.934.711.111 1.272-.117 1.728-.615.73-.799 1.234-1.644.712-2.801-.331-.735-.234-.902.458-1.334a22.424 22.424 0 0 1 1.619-.921c.79-.406.968-.369 1.487.375.344.493.797.719 1.37.783 1.432.16 2.141-.225 2.782-1.527.217-.44.469-.747 1.05-.562.607.194 1.247.289 1.856.478 1.026.313 1.065.365.925 1.443-.077.594.096 1.072.466 1.51.836.995 1.729 1.245 2.991.803.482-.168.862-.161 1.136.36.349.665.737 1.312 1.126 1.954.333.543.107.907-.322 1.253-.242.197-.514.412-.646.682-.633 1.284-.033 2.901 1.254 3.486.491.223.812.513.599 1.137-.219.639-.348 1.309-.558 1.951-.281.847-.457.968-1.311.782-.71-.156-1.257.083-1.758.527-.73.65-1.288 1.899-.618 2.892.393.586.282.823-.323 1.208-.619.392-1.26.754-1.918 1.076-.747.364-.876.326-1.334-.38-.313-.484-.733-.74-1.276-.838-1.299-.228-2.341.336-2.878 1.578-.212.493-.494.771-1.08.589-.647-.2-1.316-.328-1.96-.535-.863-.278-.999-.505-.806-1.41.129-.617-.049-1.118-.421-1.577-.806-.992-1.762-1.233-3.004-.767-.706.265-.864.229-1.269-.382a17.793 17.793 0 0 1-.819-1.355c-.654-1.208-.643-1.206.455-2.05.681-.522.883-1.257.786-2.066-.093-.797-.488-1.398-1.281-1.718-.412-.166-.789-.423-1.182-.639zm11.577 7.185a6.045 6.045 0 0 0 5.954-6.136c-.055-3.324-2.803-5.959-6.174-5.916-3.249.039-5.925 2.795-5.896 6.078.028 3.327 2.784 6.019 6.116 5.974zm-78.406-7.185v-.567c.177-.631.341-1.262.529-1.889.302-.998.407-1.091 1.434-.934.711.111 1.272-.117 1.728-.615.73-.799 1.231-1.644.711-2.801-.331-.735-.233-.902.458-1.334a22.466 22.466 0 0 1 1.621-.921c.789-.406.968-.369 1.487.375.344.493.797.719 1.368.783 1.434.16 2.144-.225 2.783-1.527.216-.44.469-.747 1.05-.562.606.194 1.247.289 1.857.478 1.024.313 1.064.365.923 1.443-.076.594.097 1.072.466 1.51.835.995 1.729 1.245 2.991.803.481-.168.861-.161 1.136.36.35.665.736 1.312 1.127 1.954.331.543.106.907-.323 1.253-.243.197-.514.412-.646.682-.633 1.284-.033 2.901 1.254 3.486.492.223.81.513.599 1.137-.218.639-.347 1.309-.558 1.951-.281.847-.457.968-1.311.782-.709-.156-1.257.083-1.758.527-.729.65-1.287 1.899-.617 2.892.393.586.282.823-.323 1.208-.619.392-1.26.754-1.918 1.076-.748.364-.876.326-1.334-.38-.313-.484-.733-.74-1.276-.838-1.299-.228-2.344.336-2.878 1.578-.213.493-.494.771-1.081.589-.647-.2-1.315-.328-1.959-.535-.864-.278-.998-.505-.807-1.41.129-.617-.05-1.118-.42-1.577-.808-.992-1.764-1.233-3.005-.767-.706.265-.865.229-1.269-.382a17.793 17.793 0 0 1-.819-1.355c-.654-1.208-.643-1.206.454-2.05.682-.522.884-1.257.786-2.066-.093-.797-.488-1.398-1.279-1.718-.412-.166-.789-.423-1.181-.639zm11.577 7.185a6.044 6.044 0 0 0 5.953-6.136c-.053-3.324-2.802-5.959-6.173-5.916-3.249.039-5.925 2.795-5.896 6.078.028 3.327 2.785 6.019 6.116 5.974z" fill="#BC81AD"/><path fill="#FFF" d="M147.921 179.02h84.686v117.067h-84.686z"/><path d="M333.803 178.276c4.292.139 7.613 1.999 9.762 5.722 2.067 3.575 1.808 7.11-.536 10.499-.443.638-.786 1.36-1.305 1.924-1.912 2.074-2.63 4.479-2.295 7.262.167 1.377-.189 2.51-1.87 2.601-.807.046-.876.75-1.216 1.239-1.395 2.007-3.499 1.986-4.913-.038-.219-.313-.365-.915-.596-.941-3.222-.382-2.477-2.814-2.458-4.785.012-1.32-.344-2.398-1.157-3.422-.866-1.091-1.623-2.271-2.417-3.418-2.395-3.447-2.673-7.07-.661-10.743 2.068-3.774 5.367-5.68 9.662-5.9zm-.331 20.902c3.024 0 3.011-.008 4.514-2.29.767-1.167 1.583-2.301 2.391-3.438 3.49-4.907 1.632-10.393-4.151-12.255-3.272-1.052-7.008.274-9.235 3.281-2.162 2.921-2.115 5.861.14 8.98.864 1.193 1.864 2.314 2.544 3.605.924 1.75 2.174 2.525 3.797 2.117zm-8.941 1.412c-.075.145-.182.536-.43.795a125.91 125.91 0 0 1-3.714 3.776c-.625.607-1.404.731-2.038.045-.519-.562-.539-1.319-.009-1.89 1.252-1.352 2.554-2.655 3.865-3.948.492-.486 1.134-.489 1.712-.17.416.231.643.652.614 1.392zm-8.164-12.567c1.166.214 3.491-.7 3.559 1.428.073 2.331-2.299 1.248-3.649 1.46-.824.133-1.689.043-2.535.004-.885-.042-1.767-.202-1.788-1.347-.023-1.238.865-1.503 1.868-1.54.768-.028 1.538-.005 2.545-.005zm33.429 16.238c-.012.485-.134.925-.594 1.172-.606.326-1.22.287-1.704-.189a169.692 169.692 0 0 1-3.879-3.945c-.473-.496-.527-1.098-.148-1.695.268-.426.671-.603 1.17-.595.974.014 5.159 4.272 5.155 5.252zm1.886-13.289c-.923-.042-1.852-.035-2.77-.143-.665-.078-1.138-.492-1.17-1.226-.035-.822.413-1.42 1.185-1.452 1.924-.08 3.855-.08 5.779.002.779.033 1.198.642 1.157 1.466-.036.745-.521 1.158-1.176 1.212-.994.084-2.002.022-3.004.022.001.041-.001.08-.001.119zm-32.424-17.605c.502-.02.9.195 1.24.541 1.145 1.159 2.303 2.302 3.431 3.48.654.683.97 1.472.147 2.232-.702.649-1.451.427-2.067-.178-1.217-1.196-2.403-2.423-3.598-3.64-.5-.512-.479-1.124-.255-1.736.182-.493.603-.674 1.102-.699zm24.005 5.01c.082-.151.202-.536.451-.799a155.298 155.298 0 0 1 3.715-3.769c.551-.538 1.259-.683 1.871-.165.685.58.732 1.402.145 2.046-1.24 1.357-2.557 2.648-3.876 3.93-.487.475-1.125.504-1.701.143-.402-.249-.643-.655-.605-1.386zm-10.767-7.131c0-.772-.006-1.542 0-2.314.007-.977.389-1.699 1.462-1.674.94.021 1.323.683 1.328 1.565.011 1.696.007 3.394-.002 5.089-.006.889-.433 1.563-1.333 1.584-1.045.023-1.442-.736-1.454-1.705-.01-.85-.001-1.696-.001-2.545z" fill="#A04B8A"/><path d="M174.584 197.771v1.687h-4.818v-7.666h4.762v1.687h-3.011v1.27h2.737v1.666h-2.737v1.356h3.067zm.605-.056l1.511-.875c.274.635.745 1.063 1.609 1.063.832 0 1.041-.328 1.041-.624 0-.47-.438-.659-1.588-.975-1.139-.318-2.256-.865-2.256-2.333 0-1.478 1.249-2.333 2.573-2.333 1.26 0 2.245.603 2.803 1.731l-1.478.865c-.263-.548-.624-.888-1.325-.888-.548 0-.821.274-.821.581 0 .35.187.59 1.379.953 1.161.349 2.464.756 2.464 2.375 0 1.478-1.183 2.355-2.847 2.355-1.608.001-2.637-.766-3.065-1.895zm6.409-2.089c0-2.256 1.675-3.988 3.986-3.988 1.39 0 2.616.69 3.284 1.774l-1.51.875c-.34-.59-.996-.941-1.774-.941-1.359 0-2.233.909-2.233 2.279 0 1.367.875 2.277 2.233 2.277.778 0 1.445-.351 1.774-.942l1.51.876c-.657 1.083-1.883 1.774-3.284 1.774-2.311.001-3.986-1.729-3.986-3.984zm10.68 1.312h-.832v2.52h-1.752v-7.666h3.065a2.622 2.622 0 0 1 2.629 2.629c0 .941-.569 1.795-1.413 2.223l1.632 2.814h-1.883l-1.446-2.52zm-.832-1.531h1.313c.483 0 .877-.428.877-.986s-.394-.987-.877-.987h-1.313v1.973zm4.548.219a3.953 3.953 0 0 1 3.984-3.988c2.201 0 3.986 1.731 3.986 3.988 0 2.255-1.785 3.985-3.986 3.985-2.199 0-3.984-1.73-3.984-3.985zm6.219 0c0-1.37-.986-2.279-2.235-2.279-1.247 0-2.234.909-2.234 2.279 0 1.367.987 2.277 2.234 2.277 1.249 0 2.235-.91 2.235-2.277zm1.866-3.834h1.841l1.324 5.365 1.478-5.365h1.423l1.479 5.365 1.325-5.365h1.84l-2.114 7.666h-1.993l-1.249-4.522-1.248 4.522h-1.993l-2.113-7.666zm-29.437 16.88l1.511-.876c.274.634.744 1.062 1.609 1.062.833 0 1.041-.327 1.041-.624 0-.47-.439-.657-1.588-.975-1.138-.318-2.256-.865-2.256-2.332 0-1.479 1.25-2.333 2.574-2.333 1.259 0 2.244.604 2.802 1.731l-1.478.865c-.262-.548-.624-.888-1.324-.888-.548 0-.822.274-.822.581 0 .35.187.591 1.38.951 1.161.35 2.463.757 2.463 2.376 0 1.479-1.182 2.355-2.846 2.355-1.61.002-2.639-.766-3.066-1.893zm14.401 1.741h-1.752v-4.455l-1.981 3.25h-.196l-1.983-3.25v4.455h-1.75v-7.665h1.75l2.082 3.405 2.079-3.405h1.752v7.665zm5.808-1.205h-2.846l-.383 1.205h-1.917l2.606-7.665h2.234l2.606 7.665h-1.917l-.383-1.205zm-.525-1.642l-.898-2.813-.897 2.813h1.795zm6.071.328h-.833v2.519h-1.751v-7.665h3.065a2.623 2.623 0 0 1 2.628 2.629c0 .94-.57 1.796-1.412 2.222l1.63 2.814h-1.883l-1.444-2.519zm-.833-1.532h1.314c.481 0 .875-.429.875-.986s-.394-.986-.875-.986h-1.314v1.972zm9.968-1.927h-1.971v5.978h-1.752v-5.978h-1.97v-1.688h5.694l-.001 1.688zm-45.769 13.101c0-2.256 1.675-3.986 3.986-3.986 1.389 0 2.616.69 3.283 1.774l-1.511.876c-.339-.591-.996-.942-1.773-.942-1.358 0-2.235.91-2.235 2.278 0 1.369.876 2.278 2.235 2.278.777 0 1.444-.352 1.773-.941l1.511.875c-.656 1.084-1.883 1.774-3.283 1.774-2.311 0-3.986-1.73-3.986-3.986zm7.658 0c0-2.256 1.785-3.986 3.986-3.986 2.201 0 3.985 1.73 3.985 3.986 0 2.257-1.784 3.986-3.985 3.986-2.201 0-3.986-1.73-3.986-3.986zm6.219 0c0-1.367-.986-2.278-2.234-2.278-1.249 0-2.234.91-2.234 2.278 0 1.369.985 2.278 2.234 2.278 1.248 0 2.234-.909 2.234-2.278zm8.764-3.833v7.666h-1.314l-2.956-4.161v4.161h-1.752v-7.666h1.313l2.957 4.162v-4.162h1.752zm6.464 1.687h-1.97v5.979h-1.753v-5.979h-1.97v-1.688h5.694l-.001 1.688zm3.354 3.459h-.833v2.52h-1.751v-7.666h3.065a2.622 2.622 0 0 1 2.629 2.628c0 .942-.57 1.797-1.413 2.225l1.63 2.813h-1.882l-1.445-2.52zm-.833-1.531h1.314c.481 0 .875-.428.875-.987 0-.557-.394-.985-.875-.985h-1.314v1.972zm9.476 2.846h-2.848l-.383 1.205h-1.915l2.606-7.666h2.233l2.606 7.666h-1.916l-.383-1.205zm-.526-1.643l-.898-2.813-.898 2.813h1.796zm2.882-.985c0-2.256 1.677-3.986 3.987-3.986 1.391 0 2.618.69 3.285 1.774l-1.511.876c-.339-.591-.996-.942-1.773-.942-1.358 0-2.233.91-2.233 2.278 0 1.369.875 2.278 2.233 2.278.777 0 1.445-.352 1.773-.941l1.511.875c-.657 1.084-1.883 1.774-3.285 1.774-2.31 0-3.987-1.73-3.987-3.986zm13.244-2.146h-1.971v5.979h-1.752v-5.979h-1.97v-1.688h5.693v1.688z" fill="#62688F"/><linearGradient id="a" gradientUnits="userSpaceOnUse" x1="-2211.441" y1="4011.849" x2="-2165.492" y2="4011.849" gradientTransform="matrix(0 1 1 0 -3819.841 2311.211)"><stop offset="0" stop-color="#4b48bf"/><stop offset=".283" stop-color="#6e49a9"/><stop offset=".566" stop-color="#8a4a98"/><stop offset=".815" stop-color="#9b4b8e"/><stop offset="1" stop-color="#a14b8a"/></linearGradient><path fill="url(#a)" d="M242.931 116.626h-4.516l.761.764h-32.035l1.765-3.056a2.21 2.21 0 0 0 1.132.315 2.228 2.228 0 0 0 2.225-2.227 2.224 2.224 0 0 0-4.445-.052h-9.762l-2.993-5.187-1.883-3.264a2.225 2.225 0 1 0-2.225 0l-1.883 3.264-2.996 5.187h-9.755a2.226 2.226 0 0 0-2.223-2.218 2.224 2.224 0 1 0 1.114 4.15l1.783 3.088h-32.16l.765-.764h-4.517v4.514l.761-.764v4.754l-.761-.765v4.517l4.517-.001-.781-.782h32.175l-1.762 3.058a2.218 2.218 0 0 0-1.135-.314 2.224 2.224 0 1 0 0 4.449c1.21 0 2.194-.967 2.219-2.174h3.77l5.99.003 2.996 5.188 1.883 3.263a2.223 2.223 0 1 0 2.224 0l1.881-3.263 2.995-5.191 5.991.003 3.767-.003a2.226 2.226 0 1 0 1.109-1.93l-1.782-3.091h32.052l-.778.783 4.516-.001v-4.515l-.766.765v-4.754l.766.764.001-4.513zm-1.913 3.75v6.577h-35.864l.993 1.72 1.783 3.091.12.208h-10.652l-.333.575-2.994 5.19-1.885 3.261-.118.203-.118-.203-1.885-3.261-2.995-5.19-.332-.575h-10.656l.143-.243 1.762-3.056.993-1.72h-35.986l.001-1.823v-4.754l-.001-1.84h35.989l-.995-1.721-1.781-3.087-.124-.212h10.657l.332-.572 2.995-5.187 1.885-3.265.118-.205.118.205 1.885 3.265 2.994 5.187.333.572h10.652l-.141.244-1.761 3.055-.993 1.721h35.865l-.004 1.84zm-29.117 1.568c0 1.127-.908 2.038-2.082 2.038h-.891v1.869h-1.363v-5.949h2.254c1.174 0 2.082.909 2.082 2.042zm-1.359 0c0-.435-.304-.766-.722-.768h-.891v1.531h.891c.418 0 .722-.331.722-.763zm2.336.933a3.069 3.069 0 0 1 3.095-3.094 3.068 3.068 0 0 1 3.094 3.094 3.068 3.068 0 0 1-3.094 3.093 3.069 3.069 0 0 1-3.095-3.093zm4.831 0c0-1.063-.766-1.769-1.736-1.769-.968 0-1.733.706-1.733 1.769 0 1.06.765 1.767 1.733 1.767.97 0 1.734-.706 1.736-1.767zm6.201 1.667v1.307h-3.482v-5.949h1.36v4.642h2.122zm2.55-4.642v5.95h-1.36v-5.95h1.36zm1.361 2.975c0-1.751 1.299-3.094 3.091-3.094 1.083 0 2.033.534 2.552 1.376l-1.173.681c-.262-.46-.774-.732-1.379-.732-1.052 0-1.732.706-1.732 1.769 0 1.061.681 1.767 1.732 1.767.605 0 1.125-.272 1.379-.731l1.173.681c-.511.842-1.46 1.376-2.552 1.376-1.792 0-3.091-1.344-3.091-3.093zm10.613 1.665v1.309h-3.74v-5.949h3.7v1.31h-2.34v.986l2.127-.001v1.294h-2.127v1.054l2.38-.003zm-92.646-1.756c0-1.753 1.299-3.095 3.091-3.095 1.082 0 2.035.537 2.55 1.378l-1.169.678c-.264-.458-.774-.728-1.381-.73-1.053 0-1.733.707-1.733 1.769 0 1.063.681 1.767 1.733 1.767.607 0 1.126-.272 1.381-.729l1.172.679c-.513.842-1.464 1.376-2.554 1.376-1.792 0-3.09-1.344-3.09-3.093zm8.286 1.02h-.647v1.954h-1.358v-5.95h2.379c1.129 0 2.038.909 2.038 2.039 0 .731-.441 1.396-1.094 1.727l1.264 2.185h-1.461l-1.121-1.955zm-.648-1.193h1.021c.373 0 .679-.327.679-.764 0-.433-.306-.763-.679-.763h-1.021v1.527zm6.545.861v2.286h-1.36v-2.286l-1.997-3.664h1.545l1.133 2.296 1.129-2.296h1.547l-1.997 3.664zm6.839-1.625c0 1.131-.906 2.041-2.079 2.041h-.895v1.871h-1.358v-5.95h2.252c1.173 0 2.08.909 2.08 2.038zm-1.357 0c0-.433-.306-.763-.722-.763h-.894v1.527h.894c.416 0 .722-.329.722-.764zm5.949-.73h-1.53v4.642h-1.362v-4.642h-1.528v-1.308h4.42v1.308zm-.001 1.667a3.068 3.068 0 0 1 3.095-3.095 3.068 3.068 0 0 1 3.094 3.097 3.067 3.067 0 0 1-3.094 3.092 3.07 3.07 0 0 1-3.095-3.094zm4.83.002c0-1.064-.766-1.771-1.736-1.769-.969 0-1.734.704-1.734 1.767s.765 1.767 1.734 1.767c.97 0 1.736-.704 1.736-1.765zm2.799 3.827l1.45-3.827-1.45-3.83 2.207 3.83-2.207 3.827zm26.01-7.697l-1.449 3.83 1.449 3.826-2.211-3.826 2.211-3.83zm-13.151-10.115l.188-.324.189.324 2.994 5.191.786 1.358a8.489 8.489 0 0 0-3.97-.98 8.486 8.486 0 0 0-3.97.98l.787-1.358 2.996-5.191zm-12.17 6.81l.189.326 2.995 5.188.689 1.191a8.496 8.496 0 0 1 4.056-6.706h-7.929zm6.37 14.27h1.161a8.5 8.5 0 0 1-3.673-6.683l-.674 1.167-2.995 5.188-.189.328h6.37zm9.172 1.621l.574-.996a8.462 8.462 0 0 1-3.758.875 8.465 8.465 0 0 1-3.758-.875l.574.996 2.995 5.187.189.325.189-.325 2.995-5.187zm9.174-1.621l-.187-.328-2.995-5.188-.675-1.167a8.506 8.506 0 0 1-3.675 6.683h7.532zm0-14.27h-7.927a8.504 8.504 0 0 1 4.056 6.706l.689-1.191 2.995-5.188.187-.327zM193.615 122h-3.108v-1.281h3.108c.382 0 .629.269.629.64.001.373-.257.641-.629.641zm.888 2.158c0 .403-.269.691-.681.691h-3.314v-1.384h3.314c.412 0 .681.291.681.693zm-2.425-8.258c-3.847 0-6.979 3.131-6.979 6.978s3.131 6.979 6.979 6.979c3.849 0 6.979-3.132 6.979-6.979s-3.13-6.978-6.979-6.978zm1.744 10.499h-.251v1.343h-1.22v-1.343h-.615v1.343h-1.218V126.4h-2.438v-1.542h.775v-4.142h-.775v-1.547h2.438v-1.339h1.218v1.339h.615v-1.339h1.22v1.339h.044c1.259 0 2.281.817 2.281 2.067 0 .598-.236 1.075-.628 1.416.535.34.888.897.888 1.631 0 1.279-1.045 2.116-2.334 2.116z"/><path d="M25.043 240.951v7.664h-1.751v-7.664h1.751zm7.337 0v7.664h-1.314l-2.957-4.16v4.16h-1.752v-7.664h1.314l2.956 4.159v-4.159h1.753zm.662 0h1.916l1.697 5.638 1.698-5.638h1.916l-2.497 7.664h-2.234l-2.496-7.664zm12.705 5.978v1.686h-4.818v-7.664h4.763v1.685h-3.011v1.271h2.736v1.664h-2.736v1.358h3.066zm.605-.055l1.511-.875c.274.635.745 1.062 1.609 1.062.832 0 1.041-.329 1.041-.624 0-.472-.438-.657-1.587-.975-1.139-.317-2.256-.864-2.256-2.332 0-1.478 1.248-2.332 2.573-2.332 1.26 0 2.245.603 2.804 1.729l-1.479.864c-.263-.547-.624-.886-1.325-.886-.548 0-.821.273-.821.58 0 .352.187.592 1.379.951 1.161.352 2.464.757 2.464 2.378 0 1.478-1.183 2.353-2.847 2.353-1.61 0-2.639-.767-3.066-1.893zm11.665-4.238h-1.971v5.979h-1.751v-5.979h-1.971v-1.686h5.694l-.001 1.686zm.003 2.146c0-2.256 1.785-3.985 3.986-3.985 2.201 0 3.985 1.729 3.985 3.985s-1.784 3.985-3.985 3.985c-2.201 0-3.986-1.729-3.986-3.985zm6.219 0c0-1.368-.985-2.276-2.233-2.276-1.249 0-2.234.907-2.234 2.276 0 1.37.986 2.278 2.234 2.278s2.233-.908 2.233-2.278zm5.325 1.313h-.831v2.52h-1.752v-7.664h3.066a2.622 2.622 0 0 1 2.628 2.628c0 .942-.569 1.796-1.412 2.222l1.631 2.814h-1.883l-1.447-2.52zm-.831-1.532h1.313c.482 0 .875-.427.875-.983 0-.561-.394-.986-.875-.986h-1.313v1.969zm4.492 2.311l1.511-.875c.274.635.745 1.062 1.609 1.062.832 0 1.041-.329 1.041-.624 0-.472-.438-.657-1.588-.975-1.138-.317-2.256-.864-2.256-2.332 0-1.478 1.249-2.332 2.574-2.332 1.259 0 2.244.603 2.803 1.729l-1.478.864c-.264-.547-.625-.886-1.326-.886-.548 0-.822.273-.822.58 0 .352.187.592 1.381.951 1.16.352 2.463.757 2.463 2.378 0 1.478-1.183 2.353-2.846 2.353-1.609 0-2.638-.767-3.066-1.893z" fill="#706DCB"/><path d="M317.67 243.58c0 1.454-1.173 2.626-2.683 2.626h-1.149v2.409h-1.753v-7.664h2.902c1.511 0 2.683 1.172 2.683 2.629zm-1.753 0c0-.561-.395-.986-.931-.986h-1.149v1.97h1.149c.537-.001.931-.428.931-.984zm5.216 2.515h-.832v2.52h-1.752v-7.664h3.066a2.621 2.621 0 0 1 2.627 2.628c0 .942-.568 1.796-1.412 2.222l1.632 2.814h-1.883l-1.446-2.52zm-.832-1.532h1.313c.482 0 .876-.427.876-.983 0-.561-.394-.986-.876-.986h-1.313v1.969zm4.548.219c0-2.256 1.785-3.985 3.985-3.985 2.201 0 3.985 1.729 3.985 3.985s-1.784 3.985-3.985 3.985c-2.201 0-3.985-1.729-3.985-3.985zm6.218 0c0-1.368-.986-2.276-2.234-2.276s-2.233.907-2.233 2.276c0 1.37.985 2.278 2.233 2.278 1.248 0 2.234-.908 2.234-2.278zm1.648 2.497l1.521-.874c.24.425.491.656 1.084.656.767 0 .997-.438.997-.909v-5.201h1.751v5.201c0 1.685-1.182 2.615-2.758 2.615-1.217 0-2.092-.514-2.595-1.488zm11.433-.35v1.686h-4.818v-7.664h4.763v1.685h-3.011v1.271h2.737v1.664h-2.737v1.358h3.066zm.607-2.147c0-2.256 1.674-3.985 3.985-3.985 1.391 0 2.616.691 3.284 1.774l-1.51.876c-.341-.592-.997-.941-1.774-.941-1.358 0-2.233.907-2.233 2.276 0 1.37.875 2.278 2.233 2.278.777 0 1.445-.35 1.774-.942l1.51.875c-.656 1.085-1.883 1.774-3.284 1.774-2.311 0-3.985-1.729-3.985-3.985zm13.242-2.146h-1.971v5.979h-1.752v-5.979h-1.971v-1.686h5.694v1.686zm-45.61 13.102c0-2.255 1.785-3.984 3.986-3.984 2.202 0 3.986 1.729 3.986 3.984 0 2.257-1.784 3.986-3.986 3.986s-3.986-1.729-3.986-3.986zm6.219 0c0-1.369-.986-2.276-2.234-2.276s-2.233.907-2.233 2.276c0 1.37.986 2.277 2.233 2.277 1.249 0 2.234-.907 2.234-2.277zm1.866-3.832h1.839l1.324 5.367 1.479-5.367h1.423l1.478 5.367 1.325-5.367h1.84l-2.113 7.664h-1.994l-1.249-4.521-1.248 4.521h-1.992l-2.112-7.664zm17.503 0v7.664h-1.314l-2.957-4.159v4.159h-1.752v-7.664h1.313l2.957 4.16v-4.16h1.753zm6.135 5.979v1.685h-4.818v-7.664h4.763v1.686h-3.011v1.271h2.737v1.663h-2.737v1.359h3.066zm3.573-.833h-.832v2.518h-1.752v-7.664h3.065a2.622 2.622 0 0 1 2.628 2.629c0 .941-.568 1.796-1.411 2.222l1.631 2.813h-1.884l-1.445-2.518zm-.832-1.533h1.313c.482 0 .877-.428.877-.986s-.395-.984-.877-.984h-1.313v1.97zm4.493 2.311l1.51-.876c.273.635.745 1.062 1.609 1.062.833 0 1.041-.327 1.041-.625 0-.469-.438-.656-1.588-.973-1.138-.317-2.255-.865-2.255-2.332 0-1.479 1.248-2.332 2.572-2.332 1.26 0 2.245.602 2.803 1.729l-1.478.864c-.262-.548-.625-.886-1.325-.886-.547 0-.821.272-.821.58 0 .351.187.591 1.379.951 1.161.351 2.464.756 2.464 2.378 0 1.477-1.182 2.354-2.846 2.354-1.609 0-2.638-.766-3.065-1.894z" fill="#A04B8A"/><linearGradient id="b" gradientUnits="userSpaceOnUse" x1="-1129.276" y1="-536.889" x2="-978.536" y2="-536.889" gradientTransform="scale(1 -1) rotate(-45 -70.924 -1889.953)"><stop offset="0" stop-color="#fff"/><stop offset="1" stop-color="#e6e6e6"/></linearGradient><path fill="url(#b)" d="M231.113 181.84v112.548h-80.701V181.84h80.701m4.983-4.979H145.43v122.512h90.666V176.861z"/><g fill="#62688F"><path d="M160.955 269.216l12.274 17.257 12.275-17.257-12.275 7.293z"/><path d="M185.504 266.815l-12.275-20.31-12.274 20.31 12.274 7.339z"/></g><path fill="#8A92B2" d="M173.229 261.254l-12.274 5.561 12.274-20.31z"/><path fill="#62688F" d="M173.229 274.154l-12.274-7.339 12.274-5.561z"/><path fill="#8A92B2" d="M160.955 269.216l12.274 7.293v9.964z"/><path fill="#62688F" d="M173.229 261.254l12.275 5.561-12.275-20.31z"/><path fill="#454A75" d="M173.229 274.154l12.275-7.339-12.275-5.561z"/><path fill="#62688F" d="M185.504 269.216l-12.275 7.293v9.964z"/><path d="M160.127 231.801h61.772v2.586h-61.772zm0 5.124h61.772v2.583h-61.772zm33.46 9.58h28.063v2.583h-28.063zm0 5.341h28.063v2.585h-28.063zm0 5.34h28.063v2.586h-28.063zm0 5.34h28.063v2.584h-28.063zm0 5.341h28.063v2.585h-28.063zm0 5.341h28.063v2.586h-28.063zm0 5.339h28.063v2.586h-28.063zm0 5.34h28.063v2.586h-28.063z" fill="#CCC"/><path d="M79.318 186.531c-.192-.489-.363-.926-.617-1.568.644.029 1.143.063 1.644.072 1.312.018 2.65.201 3.928.003 2.326-.362 4.133.173 5.327 2.3.089.158.234.346.393.394 2.444.751 2.616 2.726 2.621 4.803.002 1.136-.046 2.18.345 3.385.389 1.2-.302 2.94-.943 4.232-.756 1.529-1.508 2.968-1.55 4.724-.012.479-.342 1.097-.724 1.405-1.438 1.152-2.958 2.204-4.493 3.325.299.413.505.817.817 1.107 1.012.945 1.139 1.865.218 2.987-.282.342-.335.991-.279 1.475.234 2.024.548 4.04.85 6.169h-4.461c.28-2.043.6-4.01.792-5.985.061-.617-.036-1.399-.38-1.874-.695-.96-.723-1.695.153-2.507.385-.359.658-.834 1.053-1.351-1.53-1.125-3.025-2.187-4.471-3.312-.34-.263-.741-.736-.734-1.106.039-2.026-.85-3.665-1.765-5.396-.739-1.398-1.731-2.99-.359-4.732.295-.377.024-1.213-.015-1.835-.167-2.654.304-5.056 2.65-6.715zm23.073 34.846H88.985l2.54-13.861c.867.448 1.618.758 2.281 1.197a451.415 451.415 0 0 1 6.979 4.759c1.125.779 1.609 1.908 1.606 3.259-.002 1.499 0 2.999 0 4.646zm-35.561 0h13.406l-2.541-13.861c-.868.448-1.617.758-2.281 1.197a451.415 451.415 0 0 0-6.979 4.759c-1.125.779-1.609 1.908-1.606 3.259.002 1.499.001 2.999.001 4.646zm-54.342-34.862l-.616-1.568c.643.028 1.142.063 1.643.069 1.312.022 2.65.204 3.928.004 2.326-.36 4.134.175 5.327 2.303.088.156.234.345.392.394 2.444.75 2.617 2.726 2.622 4.804.002 1.135-.046 2.18.344 3.385.39 1.199-.301 2.939-.941 4.231-.757 1.528-1.509 2.97-1.551 4.722-.011.484-.342 1.099-.723 1.406-1.438 1.153-2.958 2.203-4.493 3.326.299.413.506.816.817 1.107 1.013.944 1.139 1.865.218 2.987-.282.342-.335.991-.279 1.474.233 2.023.548 4.039.85 6.17h-4.462c.28-2.046.6-4.008.792-5.986.061-.616-.036-1.399-.38-1.873-.695-.961-.723-1.692.153-2.507.385-.357.658-.835 1.054-1.351-1.531-1.125-3.025-2.188-4.471-3.312-.339-.263-.74-.736-.733-1.105.039-2.027-.851-3.666-1.765-5.397-.739-1.397-1.731-2.99-.36-4.732.295-.375.024-1.212-.015-1.835-.168-2.654.304-5.059 2.649-6.716zm23.074 34.847H22.157l2.54-13.864c.868.451 1.617.761 2.279 1.2a441.992 441.992 0 0 1 6.98 4.758c1.125.779 1.609 1.908 1.606 3.26-.002 1.499 0 2.997 0 4.646zm-35.561 0h13.406l-2.541-13.864c-.868.451-1.617.761-2.28 1.2a441.906 441.906 0 0 0-6.979 4.758c-1.125.779-1.609 1.908-1.606 3.26v4.646z" fill="#9B99DB"/><path fill="#706DCB" d="M36.573 208.446c-.101-.452-.197-.905-.295-1.356-.024-.112-.05-.223-.077-.344a4.264 4.264 0 0 1-1.185.36c-.542.088-1.082.081-1.612-.077-.75-.227-1.278-.696-1.535-1.444-.04-.12-.07-.24-.11-.375h4.034v-1.138H31.55v-.762h4.243v-1.136h-3.995l.053-.187a2.32 2.32 0 0 1 .674-1.084c.52-.468 1.138-.653 1.825-.641.552.011 1.081.14 1.595.334.04.017.079.03.124.047.01-.036.019-.058.025-.08.135-.553.268-1.106.407-1.658.018-.073.004-.102-.066-.13a6.247 6.247 0 0 0-2.732-.428 4.6 4.6 0 0 0-1.479.335c-1.479.621-2.42 1.722-2.877 3.25-.024.076-.023.186-.076.227s-.157.017-.24.017h-.819v1.143h.879v.754h-.88v1.144h.104c.277 0 .556.001.833-.002.08-.004.114.018.126.102.02.125.048.247.082.371a4.486 4.486 0 0 0 1.904 2.649c.762.513 1.617.754 2.527.8a5.475 5.475 0 0 0 2.72-.56c.062-.032.083-.063.066-.131zm35.284 0c-.101-.452-.198-.905-.296-1.356-.023-.112-.049-.223-.076-.344a4.257 4.257 0 0 1-1.184.36c-.542.088-1.083.081-1.613-.077-.749-.227-1.278-.696-1.534-1.444-.042-.12-.071-.24-.11-.375h4.034v-1.138h-4.243v-.762h4.243v-1.136h-3.994a8.43 8.43 0 0 1 .053-.187 2.32 2.32 0 0 1 .674-1.084c.52-.468 1.137-.653 1.825-.641.552.011 1.081.14 1.595.334.04.017.079.03.124.047l.024-.08c.136-.553.269-1.106.408-1.658.018-.073.003-.102-.066-.13a6.254 6.254 0 0 0-2.733-.428 4.594 4.594 0 0 0-1.478.335c-1.479.621-2.421 1.722-2.878 3.25-.023.076-.022.186-.075.227-.054.041-.158.017-.24.017h-.82v1.143h.879v.754h-.881v1.144h.105c.278 0 .556.001.832-.002.08-.004.116.018.127.102.019.125.049.247.081.371a4.499 4.499 0 0 0 1.904 2.649c.763.513 1.617.754 2.527.8a5.473 5.473 0 0 0 2.72-.56c.062-.032.082-.063.066-.131z"/><path d="M336.104 214.73c-.466-.437-.776-1.041-1.221-1.657l.123-.09h-2.14c.057.04.11.081.168.121-.593.771-1.003 1.484-1.577 2.018-1.309 1.216-1.267 2.315-.229 3.75.514.71.658 1.881.569 2.803-.288 2.956-.765 5.894-1.186 8.953h6.673c-.449-3.188-.92-6.199-1.27-9.227-.084-.723-.006-1.695.416-2.206 1.378-1.675 1.187-3.053-.326-4.465zm24.413 15.945h-20.049c1.263-6.888 2.502-13.645 3.799-20.732 1.299.674 2.42 1.136 3.41 1.794a668.217 668.217 0 0 1 10.44 7.114c1.681 1.166 2.406 2.854 2.401 4.876-.002 2.241-.001 4.484-.001 6.948zm-53.182 0h20.048l-3.798-20.732c-1.298.674-2.419 1.136-3.41 1.794a677.628 677.628 0 0 0-10.438 7.114c-1.682 1.166-2.406 2.854-2.401 4.876.002 2.241-.001 4.484-.001 6.948z" fill="#A04B8A"/><path fill="#9B99DB" d="M139.954 205.43l-8.635-8.62v6.236H114.06v-6.236l-8.634 8.62 8.634 8.618v-6.234h17.259v6.234z"/><path fill="#BC81AD" d="M276.102 205.43l-8.634-8.62v6.236h-17.26v-6.236l-8.634 8.62 8.634 8.618v-6.234h17.26v6.234z"/><path d="M43.195 178.315l-.921-2.345c.96.043 1.708.094 2.457.105 1.961.03 3.963.303 5.875.007 3.478-.54 6.181.261 7.965 3.441.132.236.351.516.586.589 3.657 1.123 3.915 4.078 3.921 7.185.003 1.697-.069 3.261.517 5.062.582 1.792-.45 4.397-1.409 6.33-1.133 2.286-2.256 4.438-2.32 7.063-.017.721-.51 1.643-1.082 2.101-2.15 1.724-4.424 3.296-6.72 4.975.447.617.756 1.221 1.222 1.658 1.514 1.412 1.704 2.791.324 4.465-.421.512-.5 1.481-.416 2.205.35 3.028.821 6.042 1.271 9.228h-6.673c.42-3.06.896-5.998 1.185-8.951.091-.925-.053-2.095-.569-2.807-1.038-1.433-1.08-2.531.23-3.748.575-.534.985-1.246 1.577-2.018-2.291-1.682-4.524-3.271-6.689-4.951-.507-.393-1.107-1.102-1.096-1.655.059-3.031-1.272-5.481-2.638-8.069-1.105-2.092-2.59-4.473-.539-7.076.442-.564.036-1.816-.022-2.747-.249-3.972.457-7.565 3.964-10.047zm34.507 52.115H57.653l3.799-20.731c1.298.674 2.42 1.133 3.41 1.793a672.74 672.74 0 0 1 10.438 7.113c1.682 1.168 2.407 2.853 2.403 4.877-.003 2.243-.001 4.484-.001 6.948zm-53.182 0h20.049c-1.262-6.889-2.5-13.645-3.8-20.731-1.297.674-2.418 1.133-3.409 1.793a672.74 672.74 0 0 0-10.438 7.113c-1.682 1.168-2.406 2.853-2.403 4.877.004 2.243.001 4.484.001 6.948z" fill="#706DCB"/><linearGradient id="c" gradientUnits="userSpaceOnUse" x1="-4129.986" y1="2034.017" x2="-4104.091" y2="2034.017" gradientTransform="matrix(0 1 1 0 -1842.011 4275.483)"><stop offset="0" stop-color="#706dcb" stop-opacity="0"/><stop offset="1" stop-color="#706dcb" stop-opacity=".7"/></linearGradient><path fill="url(#c)" d="M192.007 171.392l8.619-8.634h-6.237v-17.261h-4.766v17.261h-6.236z"/></svg>