<svg xmlns="http://www.w3.org/2000/svg" width="26" height="26"><linearGradient id="a" gradientUnits="userSpaceOnUse" x1="400.5" y1="494.666" x2="426.501" y2="494.666" gradientTransform="rotate(90 454.083 53.582)"><stop offset="0" stop-color="#89347b"/><stop offset="1" stop-color="#4130aa"/></linearGradient><path fill-rule="evenodd" clip-rule="evenodd" fill="url(#a)" d="M13 0C5.82 0 0 5.82 0 13s5.82 13 13 13 13-5.82 13-13S20.18 0 13 0zm3.851 23.898c-.072.027-.146.055-.222.07-.449.096-.774-.146-.784-.605-.012-.586-.002-1.172-.002-1.834-.033-.617.054-1.316-.054-2.01-.069-.449-.212-.871-.503-1.227-.146-.18-.098-.244.109-.271a9.146 9.146 0 0 0 1.463-.307c1.943-.58 3.076-1.873 3.408-3.868.117-.707.165-1.418.072-2.133a4.257 4.257 0 0 0-.924-2.182c-.131-.162-.174-.313-.117-.519.231-.841.14-1.669-.119-2.49-.067-.215-.188-.302-.414-.295-.43.014-.829.144-1.221.303-.479.195-.93.447-1.364.728a.605.605 0 0 1-.514.085 10.445 10.445 0 0 0-5.384.02c-.169.045-.299-.009-.435-.096-.58-.371-1.185-.696-1.849-.9a3.133 3.133 0 0 0-.733-.138c-.245-.016-.378.077-.451.316-.253.823-.344 1.65-.108 2.491a.454.454 0 0 1-.09.453c-.867 1.057-1.095 2.29-.975 3.613.027.308.068.616.127.919.358 1.885 1.467 3.102 3.295 3.67.485.15.981.254 1.485.324.307.041.32.072.142.313a2.71 2.71 0 0 0-.465 1.082.38.38 0 0 1-.27.311c-1.219.436-2.413.236-3.154-1.012-.369-.623-.893-1.066-1.637-1.188a.943.943 0 0 0-.483.039c-.183.066-.222.191-.097.338.088.104.193.199.308.271a2.995 2.995 0 0 1 1.256 1.563c.465 1.289 1.68 1.896 3.071 1.811.214-.014.43-.035.641-.076.237-.047.307.047.303.271-.009.508.002 1.016-.004 1.523-.008.59-.388.852-.953.658a10.526 10.526 0 0 1-2.322-1.111c-3.155-2.051-4.975-4.949-5.375-8.686C.839 7.878 5.456 2.164 11.697 1.503c3.524-.373 6.622.646 9.222 3.071 2.105 1.964 3.297 4.407 3.578 7.269.522 5.321-2.608 10.235-7.646 12.055z"/></svg>