<svg xmlns="http://www.w3.org/2000/svg" width="138.195" height="138.197" viewBox="0 0 138.195 138.197"><linearGradient id="a" gradientUnits="userSpaceOnUse" x1="201.832" y1="828.966" x2="340.028" y2="828.966" gradientTransform="matrix(-1 0 0 .8257 340.028 -615.378)"><stop offset="0" stop-color="#4b48bf"/><stop offset="1" stop-color="#a14b8a"/></linearGradient><ellipse opacity=".4" fill="url(#a)" cx="69.098" cy="69.099" rx="69.098" ry="57.051"/><linearGradient id="b" gradientUnits="userSpaceOnUse" x1="416.29" y1="569.235" x2="554.489" y2="569.235" gradientTransform="matrix(0 1 -.8257 0 539.116 -416.29)"><stop offset="0" stop-color="#4b48bf"/><stop offset="1" stop-color="#a14b8a"/></linearGradient><ellipse opacity=".4" fill="url(#b)" cx="69.098" cy="69.099" rx="57.051" ry="69.099"/><linearGradient id="c" gradientUnits="userSpaceOnUse" x1="-130.096" y1="17.895" x2="-15.819" y2="17.895" gradientTransform="matrix(1 0 0 -1 142.056 86.993)"><stop offset="0" stop-color="#4b48bf"/><stop offset="1" stop-color="#a14b8a"/></linearGradient><circle opacity=".6" fill="url(#c)" cx="69.098" cy="69.098" r="57.139"/><linearGradient id="d" gradientUnits="userSpaceOnUse" x1="-118.016" y1="17.895" x2="-27.898" y2="17.895" gradientTransform="matrix(1 0 0 -1 142.056 86.993)"><stop offset="0" stop-color="#4b48bf"/><stop offset="1" stop-color="#a14b8a"/></linearGradient><circle opacity=".8" fill="url(#d)" cx="69.098" cy="69.098" r="45.059"/><path fill="#FFF" d="M109.132 56.985L70.535 37.687a3.222 3.222 0 0 0-2.877 0L29.065 56.985a3.214 3.214 0 0 0-1.777 2.875 3.22 3.22 0 0 0 1.777 2.878l17.521 8.759v12.484c0 .499.116.991.34 1.44.233.465 5.899 11.426 22.173 11.426 16.276 0 21.94-10.961 22.174-11.426a3.21 3.21 0 0 0 .34-1.44v-14.47a3.22 3.22 0 0 0-4.655-2.878L69.1 75.563l-17.801-8.901c-.039-.021-.08-.041-.12-.061L37.696 59.86l31.402-15.7 31.404 15.701-3.896 1.949a3.217 3.217 0 0 0-1.438 4.314 3.198 3.198 0 0 0 2.071 1.673v8.717a2.767 2.767 0 0 0-.765 4.936l-1.057 7.821c0 1.195 1.176 2.164 2.628 2.164 1.449 0 2.624-.969 2.624-2.164l-1.057-7.821a2.774 2.774 0 0 0 1.209-2.29c0-1.253-.834-2.3-1.976-2.646v-8.716c.216-.055.429-.133.636-.235l9.649-4.824a3.222 3.222 0 0 0 1.777-2.878 3.212 3.212 0 0 0-1.775-2.876z"/></svg>