<svg xmlns="http://www.w3.org/2000/svg" width="138.195" height="138.197"><linearGradient id="a" gradientUnits="userSpaceOnUse" x1="201.832" y1="828.966" x2="340.028" y2="828.966" gradientTransform="matrix(-1 0 0 .8257 340.028 -615.378)"><stop offset="0" stop-color="#4b48bf"/><stop offset="1" stop-color="#a14b8a"/></linearGradient><ellipse opacity=".4" fill="url(#a)" cx="69.098" cy="69.099" rx="69.098" ry="57.051"/><linearGradient id="b" gradientUnits="userSpaceOnUse" x1="416.29" y1="569.235" x2="554.489" y2="569.235" gradientTransform="matrix(0 1 -.8257 0 539.116 -416.29)"><stop offset="0" stop-color="#4b48bf"/><stop offset="1" stop-color="#a14b8a"/></linearGradient><ellipse opacity=".4" fill="url(#b)" cx="69.098" cy="69.099" rx="57.051" ry="69.099"/><linearGradient id="c" gradientUnits="userSpaceOnUse" x1="-130.096" y1="17.895" x2="-15.819" y2="17.895" gradientTransform="matrix(1 0 0 -1 142.056 86.993)"><stop offset="0" stop-color="#4b48bf"/><stop offset="1" stop-color="#a14b8a"/></linearGradient><circle opacity=".6" fill="url(#c)" cx="69.098" cy="69.098" r="57.139"/><linearGradient id="d" gradientUnits="userSpaceOnUse" x1="-118.016" y1="17.895" x2="-27.898" y2="17.895" gradientTransform="matrix(1 0 0 -1 142.056 86.993)"><stop offset="0" stop-color="#4b48bf"/><stop offset="1" stop-color="#a14b8a"/></linearGradient><circle opacity=".8" fill="url(#d)" cx="69.098" cy="69.098" r="45.059"/><path d="M32.345 70.991c.146 1.382.29 2.729.437 4.076.015.141.052.276.076.415.049.258-.009.433-.217.649-.734.77-1.497 1.535-2.087 2.412-.79 1.173-.593 1.732.676 2.447 1.164.654 2.449.971 3.755 1.159 1.439.206 2.889.341 4.365.509-4.649-11.672-3.808-22.707 3.557-32.902 5.114-7.078 12.156-11.346 20.78-12.802 18.566-3.132 35.891 10.017 37.886 28.91.762-.528 1.506-1.016 2.221-1.545 1.328-.981 2.604-2.025 3.573-3.381.244-.342.438-.727.618-1.106.234-.499.13-.94-.29-1.312a5.35 5.35 0 0 0-2.79-1.277c-1.064-.157-1.554-.685-1.876-1.665-.349-1.062-.901-2.059-1.403-3.167.508.058.993.098 1.473.169 2.009.302 3.986.72 5.801 1.687 1.711.911 2.99 2.18 3.33 4.179.244 1.423-.113 2.74-.814 3.976-.993 1.75-2.404 3.131-3.951 4.378-3.458 2.784-7.335 4.874-11.32 6.78-4.934 2.361-10.034 4.293-15.229 5.986a164.72 164.72 0 0 1-19.609 5.083c-3.987.774-7.994 1.435-12.041 1.761-2.904.234-5.823.373-8.735.391-3.22.018-6.427-.264-9.509-1.318-1.422-.486-2.756-1.143-3.766-2.307-1.59-1.832-1.721-3.862-.752-6.008.684-1.514 1.759-2.743 2.972-3.85.705-.645 1.462-1.231 2.2-1.837.213-.176.445-.328.669-.49zm32.049-4.02h9.535l-.616-10.697h-5.958c-.677 0-1.353-.014-2.027.014-.129.004-.355.162-.366.266a162.705 162.705 0 0 0-.369 4.349 95.757 95.757 0 0 0-.192 3.47c-.031.857-.007 1.718-.007 2.598zm-23.685.014h7.748c.157-3.627.658-7.182 1.588-10.711h-.514c-1.774 0-3.549.009-5.322-.009-.33-.003-.503.098-.642.389-.971 2.031-1.744 4.13-2.191 6.337-.263 1.298-.44 2.615-.667 3.994zm56.691.002c0-.16.008-.27-.002-.378-.302-3.522-1.26-6.86-2.792-10.04-.127-.266-.307-.299-.56-.299-1.76.009-3.518.005-5.277.005h-.611c.955 3.544 1.42 7.101 1.609 10.713l7.633-.001zm-56.612 4.255c.035.355.061.648.09.94.34 3.273 1.257 6.381 2.693 9.34.131.271.281.387.603.384 1.79-.021 3.581-.009 5.373-.011.148 0 .297-.017.495-.027-.938-3.52-1.419-7.057-1.587-10.626h-7.667zm36.743-14.941l.596 10.683h7.428c-.05-.678-.094-1.329-.145-1.978a43.37 43.37 0 0 0-1.497-8.355c-.084-.298-.228-.385-.528-.383-1.838.014-3.676.006-5.512.008-.124.001-.245.017-.342.025zm-16.854.002c-.075-.009-.149-.026-.224-.026-1.901-.003-3.801.005-5.702-.011-.32-.003-.383.162-.453.409a42.613 42.613 0 0 0-1.457 7.836c-.073.818-.125 1.639-.187 2.466h7.43l.593-10.674zM52.72 71.237c-.172 1.92.941 8.84 1.669 10.354 2.059-.351 4.134-.704 6.18-1.054-.157-3.16-.313-6.232-.467-9.301l-7.382.001zm11.585.008c.138 2.836.273 5.599.415 8.465 2.945-.766 5.783-1.498 8.615-2.252.125-.033.283-.253.289-.392.084-1.753.145-3.507.207-5.261.006-.18-.017-.363-.027-.561l-9.499.001zm4.92-30.458l-.243.02c-2.171 3.419-2.721 7.345-3.474 11.242h7.168c-.075-.446-.136-.844-.206-1.241-.492-2.748-1.062-5.479-2.178-8.055-.294-.682-.709-1.312-1.067-1.966zm5.564 1.739c1.03 3.121 1.644 6.314 2.142 9.532h5.318c-1.752-3.808-3.935-7.191-7.46-9.532zm-13.511 9.538c.498-3.229 1.12-6.427 2.141-9.541-3.536 2.356-5.713 5.742-7.46 9.541h5.319zM77.9 76.055c.109 0 .16.013.201-.001 2.354-.805 4.71-1.607 7.062-2.42.098-.034.228-.15.235-.236.063-.711.099-1.422.143-2.139h-7.469l-.172 4.796zM46.374 52.088c1.692 0 3.258.008 4.822-.014.114-.001.27-.18.333-.313.663-1.383 1.256-2.803 1.976-4.155.636-1.194 1.408-2.317 2.148-3.515-3.652 1.987-6.701 4.618-9.279 7.997zm36.199-7.987c.758 1.242 1.556 2.431 2.229 3.685.68 1.27 1.245 2.602 1.84 3.915.127.279.26.403.586.398 1.383-.02 2.766-.008 4.147-.011.116 0 .233-.02.435-.038-2.567-3.334-5.606-5.984-9.237-7.949zm7.199 27.711c.415-.171.821-.34 1.337-.555h-1.318c-.023.167-.043.289-.055.411-.004.028.013.058.036.144zM65.739 87.54c.746 3.412 1.283 6.855 3.315 9.926.242-.313.445-.523.59-.768 1.023-1.736 1.586-3.652 2.045-5.594.374-1.582.652-3.191.969-4.789.012-.057-.012-.119-.021-.205l-.606-.053c5.53-1.543 10.993-3.283 16.427-5.379l-.264 1.188c.15.012.271.029.394.029 1.823.002 3.646-.006 5.469.008.293.002.468-.081.577-.355a204.489 204.489 0 0 1 1.545-3.834c.092-.221.271-.457.475-.568 1.369-.735 2.754-1.438 4.134-2.152.108-.057.222-.104.417-.197-.753 4.234-2.242 8.101-4.51 11.654-3.943 6.18-9.335 10.633-16.213 13.188-13.852 5.146-28.005.133-35.836-9.064.668-.047 1.298-.09 1.929-.139 1.062-.078 2.122-.172 3.186-.23a.86.86 0 0 1 .562.182 29.819 29.819 0 0 0 5.197 3.633c.038.021.083.029.121.043-.864-1.389-1.724-2.773-2.637-4.238.656-.1 1.207-.184 1.756-.27.775-.117 1.553-.221 2.324-.359.307-.057.478.014.642.291.972 1.641 2.107 3.16 3.503 4.467.67.627 1.408 1.184 2.115 1.771l.116-.09c-.182-.574-.397-1.141-.537-1.725a272.749 272.749 0 0 1-1.192-5.176c-.026-.115.075-.363.154-.381 1.278-.289 2.565-.548 3.854-.814zm9.052 8.182c3.53-2.434 5.733-5.803 7.458-9.613h-5.281c-.307 1.627-.563 3.236-.922 4.82-.357 1.582-.817 3.14-1.255 4.793zm17.045-9.643h-.417c-1.397 0-2.795.013-4.191-.009-.326-.005-.465.112-.578.403-.857 2.195-1.914 4.289-3.229 6.252-.148.221-.29.445-.442.666-.151.213-.31.422-.464.635a27.316 27.316 0 0 0 9.321-7.947z" fill-rule="evenodd" clip-rule="evenodd" fill="#FFF"/></svg>