<svg id="Слой_1" xmlns="http://www.w3.org/2000/svg" viewBox="0 0 138.2 138.2"><style>.st4{fill:#fff}</style><linearGradient id="SVGID_1_" gradientUnits="userSpaceOnUse" x1="-269.691" y1="-758.238" x2="-131.495" y2="-758.238" gradientTransform="matrix(-1 0 0 -.8257 -131.972 -556.602)"><stop offset="0" stop-color="#4b48bf"/><stop offset="1" stop-color="#a14b8a"/></linearGradient><ellipse cx="68.6" cy="69.5" rx="69.1" ry="57.1" opacity=".4" fill="url(#SVGID_1_)"/><linearGradient id="SVGID_2_" gradientUnits="userSpaceOnUse" x1="506.666" y1="182.005" x2="644.864" y2="182.005" gradientTransform="matrix(0 1 .8257 0 -81.66 -506.29)"><stop offset="0" stop-color="#4b48bf"/><stop offset="1" stop-color="#a14b8a"/></linearGradient><ellipse cx="68.6" cy="69.5" rx="57.1" ry="69.1" opacity=".4" fill="url(#SVGID_2_)"/><linearGradient id="SVGID_3_" gradientUnits="userSpaceOnUse" x1="-130.574" y1="774.482" x2="-16.296" y2="774.482" gradientTransform="translate(142.056 -705.007)"><stop offset="0" stop-color="#4b48bf"/><stop offset="1" stop-color="#a14b8a"/></linearGradient><circle cx="68.6" cy="69.5" r="57.1" opacity=".6" fill="url(#SVGID_3_)"/><linearGradient id="SVGID_4_" gradientUnits="userSpaceOnUse" x1="-118.494" y1="774.482" x2="-28.376" y2="774.482" gradientTransform="translate(142.056 -705.007)"><stop offset="0" stop-color="#4b48bf"/><stop offset="1" stop-color="#a14b8a"/></linearGradient><circle cx="68.6" cy="69.5" r="45.1" opacity=".8" fill="url(#SVGID_4_)"/><g id="Layer_1_155_"><path class="st4" d="M79.7 46.6H55.5c-1.8 0-3.2 1.4-3.2 3.2s1.4 3.2 3.2 3.2h24.2c1.8 0 3.2-1.4 3.2-3.2 0-1.8-1.4-3.2-3.2-3.2zm3.2 15.3c0-1.8-1.4-3.2-3.2-3.2H55.5c-1.8 0-3.2 1.4-3.2 3.2 0 1.8 1.4 3.2 3.2 3.2h24.2c1.8.1 3.2-1.4 3.2-3.2zM67.6 77.3c1.8 0 3.2-1.4 3.2-3.2 0-1.8-1.4-3.2-3.2-3.2H55.5c-1.8 0-3.2 1.4-3.2 3.2s1.4 3.2 3.2 3.2h12.1z"/><path class="st4" d="M92 88.3l-3.4 2.2v8h-42V40.4h42v12.8L95 42v-4.8c0-1.8-1.4-3.2-3.2-3.2H43.4c-1.8 0-3.2 1.4-3.2 3.2v64.6c0 1.8 1.4 3.2 3.2 3.2h48.5c1.8 0 3.2-1.4 3.2-3.2V84l-1.5 2.7c-.5.6-1 1.2-1.6 1.6z"/><path class="st4" d="M111.1 48.9c-.1-.3-.7-2.9-4.9-5.3-4.1-2.4-6.7-1.7-7-1.6-.4.1-.7.4-.9.7l-20.2 35c-.1.2-.2.5-.2.7L77.1 91c0 .6.3 1.2.8 1.5.5.3 1.2.3 1.7 0l10.6-7c.2-.1.4-.3.5-.5l20.2-35c.2-.3.3-.7.2-1.1zm-27.4 38c-.5-.4-1.1-.8-1.8-1.2-.7-.4-1.3-.7-2-.9l.2-3.8c.8.1 2.1.5 3.7 1.4 1.6.9 2.5 1.8 3 2.5l-3.1 2zm-21.1 5.3c.1.6.9.8 1.4 1.1.5.2 1.1-.2 1.5-.4 2.5-1.2 5.8.2 8.4.2 1.6 0 1.6-2.4 0-2.4-3.1 0-5.6-.8-8.7-.3 0-.2-.1-.4-.3-.7-.6-1-1.3-1.3-2-1.1 0-.1-.1-.2-.2-.3-.2-.3-.5-.5-.8-.5.9-1.5 1.4-3.1.8-4.3-.2-.4-.7-.6-1-.6-1.6-.1-3 1.6-4 2.7-2.6 2.6-4.9 5.4-7.1 8.3-1 1.2 1.2 2.4 2.1 1.2 2-2.6 4-5 6.3-7.4-.5.9-1.1 1.8-1.7 2.6-.9 1.3 1.2 2.5 2.1 1.2.2-.3.5-.6.8-.8-.1.1-.1.3-.2.4 0 .1-.1.2-.1.3-.5 1.4 1.5 2 2.2.9.2-.3.4-.5.5-.8v.7z"/></g></svg>