<svg xmlns="http://www.w3.org/2000/svg" width="138.195" height="138.197"><linearGradient id="a" gradientUnits="userSpaceOnUse" x1="201.832" y1="828.966" x2="340.028" y2="828.966" gradientTransform="matrix(-1 0 0 .8257 340.028 -615.378)"><stop offset="0" stop-color="#4b48bf"/><stop offset="1" stop-color="#a14b8a"/></linearGradient><ellipse opacity=".4" fill="url(#a)" cx="69.098" cy="69.099" rx="69.098" ry="57.051"/><linearGradient id="b" gradientUnits="userSpaceOnUse" x1="416.29" y1="569.235" x2="554.489" y2="569.235" gradientTransform="matrix(0 1 -.8257 0 539.116 -416.29)"><stop offset="0" stop-color="#4b48bf"/><stop offset="1" stop-color="#a14b8a"/></linearGradient><ellipse opacity=".4" fill="url(#b)" cx="69.098" cy="69.099" rx="57.051" ry="69.099"/><linearGradient id="c" gradientUnits="userSpaceOnUse" x1="-130.096" y1="17.895" x2="-15.819" y2="17.895" gradientTransform="matrix(1 0 0 -1 142.056 86.993)"><stop offset="0" stop-color="#4b48bf"/><stop offset="1" stop-color="#a14b8a"/></linearGradient><circle opacity=".6" fill="url(#c)" cx="69.098" cy="69.098" r="57.139"/><linearGradient id="d" gradientUnits="userSpaceOnUse" x1="-118.016" y1="17.895" x2="-27.898" y2="17.895" gradientTransform="matrix(1 0 0 -1 142.056 86.993)"><stop offset="0" stop-color="#4b48bf"/><stop offset="1" stop-color="#a14b8a"/></linearGradient><circle opacity=".8" fill="url(#d)" cx="69.098" cy="69.098" r="45.059"/><path d="M55.323 93.841v-.949c0-7.692-.026-15.388.005-23.08.032-7.014 4.413-12.409 11.168-13.851 5.729-1.22 12.009 1.759 14.754 6.971 1.153 2.19 1.636 4.503 1.622 6.982-.042 7.617-.01 15.235-.008 22.854v1.074l-27.541-.001zM83.36 62.313c2.382-.778 4.554-.552 6.635.445 3.339 1.602 5.275 4.319 5.383 7.991.165 5.711.053 11.432.053 17.146 0 .142-.056.285-.102.496H85.124v-1.205c0-4.932-.051-9.863.016-14.793.045-3.453-.03-6.858-1.78-10.08zM42.81 88.384c-.021-.352-.057-.645-.057-.936-.005-5.303.009-10.603-.008-15.905-.016-4.918 3.32-8.801 8.026-9.547 1.281-.206 2.627 0 4.025.019-.52 1.689-1.05 3.072-1.354 4.503-.253 1.191-.333 2.438-.341 3.661-.032 5.673-.013 11.349-.016 17.024v1.181H42.81zm35.071-43.748c-.024 4.793-4.019 8.708-8.847 8.67-4.833-.035-8.691-3.978-8.654-8.841.037-4.863 4.002-8.814 8.771-8.748 4.898.07 8.756 4.011 8.73 8.919zm-37.347 39.1h-6.678c-.021-.322-.064-.642-.064-.964-.005-3.582-.019-7.163-.002-10.742.019-3.997 2.858-6.839 6.834-6.839.453 0 .906.202 1.52.352-1.312 2.249-1.645 4.564-1.62 6.973.034 3.317.011 6.638.011 9.958l-.001 1.262zm57.145.005V73.137c0-4.032-.003-4.032-1.477-7.565 2.401-1.148 6.644.331 7.877 4.093.205.626.309 1.313.314 1.971.029 3.806.016 7.607.011 11.41 0 .217-.048.43-.08.695h-6.645zM58.163 53.573a5.919 5.919 0 0 1-5.889 5.923c-3.268.024-5.979-2.705-5.958-5.996.021-3.216 2.741-5.878 5.979-5.846 3.291.033 5.868 2.631 5.868 5.919zm21.913.134c-.088-3.331 2.489-5.993 5.854-6.051 3.237-.056 5.907 2.539 6.003 5.827.094 3.174-2.553 5.899-5.838 6.017-3.199.114-5.931-2.516-6.019-5.793zm17.789 1.214a3.966 3.966 0 0 1 3.994 3.973c-.005 2.198-1.83 4-4.016 3.97-2.15-.029-3.928-1.796-3.954-3.931-.025-2.178 1.778-3.998 3.976-4.012zM36.42 58.918c-.014-2.238 1.713-3.992 3.938-4a3.893 3.893 0 0 1 3.933 3.877c.029 2.259-1.66 4.037-3.869 4.071-2.212.036-3.989-1.718-4.002-3.948z" fill-rule="evenodd" clip-rule="evenodd" fill="#FFF"/></svg>