<svg xmlns="http://www.w3.org/2000/svg" xmlns:xlink="http://www.w3.org/1999/xlink" viewBox="0 0 138.2 138.2"><linearGradient id="a" gradientUnits="userSpaceOnUse" x1="-269.691" y1="-760.645" x2="-131.495" y2="-760.645" gradientTransform="matrix(-1 0 0 -.8257 -131.972 -556.602)"><stop offset="0" stop-color="#4b48bf"/><stop offset="1" stop-color="#a14b8a"/></linearGradient><ellipse cx="68.6" cy="71.5" rx="69.1" ry="57.1" opacity=".4" fill="url(#a)"/><linearGradient id="b" gradientUnits="userSpaceOnUse" x1="508.654" y1="182.005" x2="646.851" y2="182.005" gradientTransform="matrix(0 1 .8257 0 -81.66 -506.29)"><stop offset="0" stop-color="#4b48bf"/><stop offset="1" stop-color="#a14b8a"/></linearGradient><ellipse cx="68.6" cy="71.5" rx="57.1" ry="69.1" opacity=".4" fill="url(#b)"/><linearGradient id="c" gradientUnits="userSpaceOnUse" x1="-130.574" y1="776.47" x2="-16.296" y2="776.47" gradientTransform="translate(142.056 -705.007)"><stop offset="0" stop-color="#4b48bf"/><stop offset="1" stop-color="#a14b8a"/></linearGradient><circle cx="68.6" cy="71.5" r="57.1" opacity=".6" fill="url(#c)"/><linearGradient id="d" gradientUnits="userSpaceOnUse" x1="-118.494" y1="776.47" x2="-28.376" y2="776.47" gradientTransform="translate(142.056 -705.007)"><stop offset="0" stop-color="#4b48bf"/><stop offset="1" stop-color="#a14b8a"/></linearGradient><circle cx="68.6" cy="71.5" r="45.1" opacity=".8" fill="url(#d)"/><defs><path id="e" d="M69.8 52c-.2.4-.4.7-.4 1.1V90c0 1 1.1 1.9 1.1 1.9.8.8 1.9 1.1 3.1.8 2.5-.5 3.6-3.8 1.7-5.7-.5-.6-.5-1.3 0-1.8s1.2-.4 1.7.2c.8.8 1.2 1.7 1.5 2.8.1.3.2.3.4.4 1.3.2 2.6-.1 3.7-.8 2.1-1.4 3.1-3.9 2.5-6.3-.6-2.4-2.8-4.1-5.4-4.2-.9 0-1.4-.5-1.4-1.2s.6-1.2 1.4-1.1c1.2 0 2.4.3 3.4.9 1.2.6 2.2 1.5 3 2.6.1-.1.2-.1.2-.1 2.6-1.9 3.9-4.5 3.5-7.7-.4-3.3-2.3-5.6-5.5-6.6s-6-.2-8.3 2.1c-1.5 1.5-2.1 3.4-2.2 5.5 0 .7-.6 1.2-1.2 1.2-.7 0-1.2-.5-1.1-1.2 0-.8.1-1.5.3-2.2 1-5 6.1-8.6 11.1-8l2.1.3s0-.1.1-.1c.9-3.9-2.4-7.5-6.3-6.9-.2 0-.3.1-.4.4-.2 1.1-.7 2.1-1.5 2.9-.4.4-1 .5-1.4.2-.5-.3-.7-.8-.5-1.3.1-.3.3-.5.5-.7.9-1.1 1.1-2.3.5-3.6-.6-1.3-1.6-2-3-2.1h-.1c-1.4-.4-2.4.3-3.1 1.4"/></defs><use xlink:href="#e" overflow="visible" fill="#fff"/><clipPath id="f"><use xlink:href="#e" overflow="visible"/></clipPath><path clip-path="url(#f)" fill="#fff" d="M69.4 50.2h21v42.6h-21z"/><defs><path id="g" d="M63.5 50.2c-1.4 0-2.4.8-3 2.1-.5 1.3-.4 2.5.5 3.6.2.2.4.5.5.7.2.5-.1 1.1-.5 1.3-.5.3-1 .2-1.4-.2-.8-.8-1.3-1.8-1.5-2.9 0-.2-.1-.3-.4-.4-3.9-.5-7.2 3-6.3 6.9 0 0 0 .1.1.1.7-.1 1.4-.3 2.1-.3 5.1-.6 10.1 3 11.1 8 .2.7.2 1.5.3 2.2 0 .7-.5 1.2-1.1 1.2-.6 0-1.2-.5-1.2-1.2 0-2.1-.7-4-2.2-5.5-2.3-2.4-5.1-3.2-8.3-2.1-3.2 1-5.1 3.3-5.5 6.6-.4 3.2.9 5.8 3.5 7.7.1 0 .1.1.2.1.8-1.1 1.8-2 3-2.6 1.1-.6 2.2-.9 3.4-.9.8 0 1.4.4 1.4 1.1 0 .7-.5 1.2-1.4 1.2-2.5.1-4.7 1.8-5.4 4.2-.6 2.4.4 5 2.5 6.3 1.1.7 2.4 1 3.7.8.2 0 .3-.1.4-.4.2-1.1.7-2 1.5-2.8.5-.6 1.2-.6 1.7-.2.5.5.5 1.2 0 1.8-1.9 1.9-.8 5.2 1.7 5.7 1.2.2 2.2 0 3-.8 0 0 1.1-.9 1.1-1.9V52.8c0-.4-.2-.8-.4-1.1-.7-1.2-1.7-1.8-3-1.8 0 .3-.1.3-.1.3"/></defs><use xlink:href="#g" overflow="visible" fill="#fff"/><clipPath id="h"><use xlink:href="#g" overflow="visible"/></clipPath><path clip-path="url(#h)" fill="#fff" d="M46.1 50.2h21v42.6h-21z"/><defs><path id="i" d="M70.5 48.4c3.1-1.4 6.6.1 7.8 3.3.1.3.3.4.6.4 4.4-.3 8 2.5 8.7 6.8.2 1.1.1 2.2-.2 3.2-.1.3 0 .5.2.6 6.3 4.1 6.3 13.3 0 17.4-.3.2-.3.3-.2.6 1.4 5.2-2.8 10.3-8.2 10-.8 0-.8 0-1.1.7-1.7 3.9-6.8 4.7-9.6 1.6l-.3-.3-.3.3c-2.8 3.2-7.9 2.3-9.6-1.6-.3-.7-.3-.7-1.1-.7-5.4.3-9.5-4.8-8.2-10 .1-.3 0-.5-.2-.6-6.3-4.1-6.3-13.3 0-17.4.3-.2.3-.3.2-.6-.3-1.1-.4-2.1-.2-3.2.7-4.3 4.3-7.1 8.7-6.8.3 0 .5-.1.6-.4 1.1-3.2 4.7-4.7 7.8-3.3.9.4 1.6 1 2.2 1.7.8-.7 1.5-1.3 2.4-1.7m9.3-15.6v9.5h-8v-9.5h-7.2v9.5h-8v-9.5h-7.2v9.5H39.1v10.3h-9.5v7.2h9.5v8h-9.5V75h9.5v8h-9.5v7.2h9.5v10.3h10.3v9.5h7.2v-9.5h8v9.5h7.2v-9.5h8v9.5H87v-9.5h10.3V90.3h9.5v-7.2h-9.5v-8h9.5v-7.2h-9.5v-8h9.5v-7.2h-9.5V42.3H87.1v-9.5h-7.3z"/></defs><use xlink:href="#i" overflow="visible" fill="#fff"/><clipPath id="j"><use xlink:href="#i" overflow="visible"/></clipPath><path clip-path="url(#j)" fill="#fff" d="M29.6 32.8h77.2V110H29.6z"/></svg>