<svg xmlns="http://www.w3.org/2000/svg" width="138.195" height="138.197"><linearGradient id="a" gradientUnits="userSpaceOnUse" x1="201.832" y1="828.966" x2="340.028" y2="828.966" gradientTransform="matrix(-1 0 0 .8257 340.028 -615.378)"><stop offset="0" stop-color="#4b48bf"/><stop offset="1" stop-color="#a14b8a"/></linearGradient><ellipse opacity=".4" fill="url(#a)" cx="69.098" cy="69.099" rx="69.098" ry="57.051"/><linearGradient id="b" gradientUnits="userSpaceOnUse" x1="416.29" y1="569.235" x2="554.489" y2="569.235" gradientTransform="matrix(0 1 -.8257 0 539.116 -416.29)"><stop offset="0" stop-color="#4b48bf"/><stop offset="1" stop-color="#a14b8a"/></linearGradient><ellipse opacity=".4" fill="url(#b)" cx="69.098" cy="69.099" rx="57.051" ry="69.099"/><linearGradient id="c" gradientUnits="userSpaceOnUse" x1="-130.096" y1="17.895" x2="-15.819" y2="17.895" gradientTransform="matrix(1 0 0 -1 142.056 86.993)"><stop offset="0" stop-color="#4b48bf"/><stop offset="1" stop-color="#a14b8a"/></linearGradient><circle opacity=".6" fill="url(#c)" cx="69.098" cy="69.098" r="57.139"/><linearGradient id="d" gradientUnits="userSpaceOnUse" x1="-118.016" y1="17.895" x2="-27.898" y2="17.895" gradientTransform="matrix(1 0 0 -1 142.056 86.993)"><stop offset="0" stop-color="#4b48bf"/><stop offset="1" stop-color="#a14b8a"/></linearGradient><circle opacity=".8" fill="url(#d)" cx="69.098" cy="69.098" r="45.059"/><g fill-rule="evenodd" clip-rule="evenodd" fill="#FFF"><path d="M101.523 68.076c.01 17.88-14.503 32.392-32.407 32.405-17.902.012-32.408-14.463-32.441-32.371-.032-17.92 14.502-32.45 32.445-32.437 17.915.015 32.391 14.492 32.403 32.403zm-57.775-.003c0 13.99 11.378 25.318 25.411 25.303 13.931-.014 25.295-11.369 25.286-25.264-.01-14.018-11.384-25.383-25.369-25.35-13.998.034-25.327 11.356-25.328 25.311zm21.289-34.32c0-.199-.013-.415.002-.627.114-1.612-.163-2.903-1.42-4.245-2.621-2.799-2.029-7.315.935-9.795 2.922-2.443 7.318-2.125 9.83.715 2.572 2.909 2.403 7.301-.46 9.875-.596.536-.821 1.046-.773 1.8.049.777.01 1.56.01 2.277h-8.124zm4.076-5.193c2.221.006 4.045-1.808 4.045-4.025a4.042 4.042 0 0 0-4.029-4.037c-2.237-.015-4.067 1.768-4.087 3.98-.021 2.259 1.792 4.076 4.071 4.082z"/><path d="M88.471 39.58c1.021-1.008 1.931-1.935 2.875-2.828.681-.642 1.497-.637 2.177.032 2.142 2.11 4.27 4.234 6.381 6.376.667.679.661 1.496.021 2.176-.871.927-1.776 1.82-2.735 2.797-2.425-3.379-5.312-6.186-8.719-8.553zm-30.238 7.098c.257.355.541.693.77 1.067 2.948 4.833 5.893 9.667 8.821 14.512.265.436.527.63 1.076.621 2.319-.036 4.267 1.443 4.911 3.645.668 2.29-.261 4.771-2.258 6.034-1.899 1.2-4.388 1.01-6.041-.463-1.757-1.566-2.297-4.118-1.202-6.228.367-.705.355-1.255.084-1.961-2.063-5.354-4.089-10.721-6.122-16.086-.121-.318-.201-.651-.301-.978l.262-.163z"/></g></svg>