<svg xmlns="http://www.w3.org/2000/svg" width="138.195" height="138.197"><linearGradient id="a" gradientUnits="userSpaceOnUse" x1="201.832" y1="828.966" x2="340.028" y2="828.966" gradientTransform="matrix(-1 0 0 .8257 340.028 -615.378)"><stop offset="0" stop-color="#4b48bf"/><stop offset="1" stop-color="#a14b8a"/></linearGradient><ellipse opacity=".4" fill="url(#a)" cx="69.098" cy="69.099" rx="69.098" ry="57.051"/><linearGradient id="b" gradientUnits="userSpaceOnUse" x1="416.29" y1="569.235" x2="554.489" y2="569.235" gradientTransform="matrix(0 1 -.8257 0 539.116 -416.29)"><stop offset="0" stop-color="#4b48bf"/><stop offset="1" stop-color="#a14b8a"/></linearGradient><ellipse opacity=".4" fill="url(#b)" cx="69.098" cy="69.099" rx="57.051" ry="69.099"/><linearGradient id="c" gradientUnits="userSpaceOnUse" x1="-130.096" y1="17.895" x2="-15.819" y2="17.895" gradientTransform="matrix(1 0 0 -1 142.056 86.993)"><stop offset="0" stop-color="#4b48bf"/><stop offset="1" stop-color="#a14b8a"/></linearGradient><circle opacity=".6" fill="url(#c)" cx="69.098" cy="69.098" r="57.139"/><linearGradient id="d" gradientUnits="userSpaceOnUse" x1="-118.016" y1="17.895" x2="-27.898" y2="17.895" gradientTransform="matrix(1 0 0 -1 142.056 86.993)"><stop offset="0" stop-color="#4b48bf"/><stop offset="1" stop-color="#a14b8a"/></linearGradient><circle opacity=".8" fill="url(#d)" cx="69.098" cy="69.098" r="45.059"/><path fill-rule="evenodd" clip-rule="evenodd" fill="#FFF" d="M90.963 44.906c-1.24.312-1.057 1.263-1.051 2.153.01 1.757.002 3.514.002 5.318 1.558-.348 2.005-.897 1.989-2.212-.017-1.497-.049-2.994-.03-4.49.004-.29.123-.708.335-.848 2.919-1.933 5.864-3.83 8.805-5.731.074-.048.174-.056.406-.125v6.086l1.795-1.061c.523.834 1.01 1.608 1.515 2.408l-1.569 1.113c1.892.874 3.669 1.695 5.617 2.593-1.771 1.188-3.403 2.292-5.043 3.378-1.24.821-2.509 1.599-3.734 2.442-.517.356-.933.436-1.526.123-1.225-.643-2.528-1.137-3.752-1.784-.813-.432-1.473-.325-2.197.156-3.938 2.621-7.885 5.224-11.832 7.827-3.617 2.387-7.24 4.767-10.909 7.184l.778 1.262 5.949-3.887c.691 1.723.584 3.372-.045 4.956-1.426 3.603-4.727 5.221-7.835 4.865-4.31-.493-6.669-3.756-6.822-7.189-.133-2.953 1.134-5.378 3.716-6.889 2.614-1.531 5.311-1.474 7.892.182.496.318.813.34 1.297-.01 1.098-.792 2.25-1.506 3.555-2.369-.662-.563-1.215-1.111-1.842-1.552-2.088-1.469-4.463-2.253-6.979-2.213-5.091.083-9.573 2.623-11.638 7.925-2.937 7.54 1.581 15.518 9.623 16.863 5.822.971 11.122-2.064 13.441-7.461 1.283-2.982 1.355-6.02.214-9.059-.244-.647-.155-.994.441-1.371 1.868-1.179 3.697-2.419 5.545-3.64 4.47 7.713 2.821 19.015-5.679 25.334a19.979 19.979 0 0 1-27.542-3.384c-7.304-9.023-5.323-20.999 2.059-27.611 8.905-7.979 21.721-6.379 28.758 1.942l3.801-2.464c-1.132-1.14-2.13-2.291-3.273-3.271-3.489-2.994-7.531-4.927-12.075-5.576-6.902-.985-13.233.578-18.764 4.882-5.311 4.13-8.473 9.61-9.312 16.273-.889 7.075 1.032 13.414 5.621 18.919 3.684 4.419 8.389 7.231 13.985 8.26 8.347 1.533 15.746-.625 21.875-6.593 5.513-5.365 7.823-12 7.305-19.617a21.853 21.853 0 0 0-2.417-8.61c-.37-.713-.386-1.152.402-1.674.87-.577 1.551-.754 2.481-.165.829.524 1.811.809 2.674 1.288.933.519 1.81 1.003 2.705-.037 4.594 10.546 2.717 27.297-10.854 37.402-14.221 10.591-33.35 7.831-44.239-5.042-11.616-13.73-9.865-33.428 2.845-45.026 12.994-11.854 31.939-10.886 43.533-.173z"/></svg>