<svg xmlns="http://www.w3.org/2000/svg" width="138.195" height="138.197"><linearGradient id="a" gradientUnits="userSpaceOnUse" x1="201.832" y1="828.966" x2="340.028" y2="828.966" gradientTransform="matrix(-1 0 0 .8257 340.028 -615.378)"><stop offset="0" stop-color="#4b48bf"/><stop offset="1" stop-color="#a14b8a"/></linearGradient><ellipse opacity=".4" fill="url(#a)" cx="69.098" cy="69.099" rx="69.098" ry="57.051"/><linearGradient id="b" gradientUnits="userSpaceOnUse" x1="416.29" y1="569.235" x2="554.489" y2="569.235" gradientTransform="matrix(0 1 -.8257 0 539.116 -416.29)"><stop offset="0" stop-color="#4b48bf"/><stop offset="1" stop-color="#a14b8a"/></linearGradient><ellipse opacity=".4" fill="url(#b)" cx="69.098" cy="69.099" rx="57.051" ry="69.099"/><linearGradient id="c" gradientUnits="userSpaceOnUse" x1="-130.096" y1="17.895" x2="-15.819" y2="17.895" gradientTransform="matrix(1 0 0 -1 142.056 86.993)"><stop offset="0" stop-color="#4b48bf"/><stop offset="1" stop-color="#a14b8a"/></linearGradient><circle opacity=".6" fill="url(#c)" cx="69.098" cy="69.098" r="57.139"/><linearGradient id="d" gradientUnits="userSpaceOnUse" x1="-118.016" y1="17.895" x2="-27.898" y2="17.895" gradientTransform="matrix(1 0 0 -1 142.056 86.993)"><stop offset="0" stop-color="#4b48bf"/><stop offset="1" stop-color="#a14b8a"/></linearGradient><circle opacity=".8" fill="url(#d)" cx="69.098" cy="69.098" r="45.059"/><g fill="#FFF"><circle fill-rule="evenodd" clip-rule="evenodd" cx="53.145" cy="53.146" r="8.537"/><path d="M88.916 49.281a5.54 5.54 0 0 1 0 7.823 5.539 5.539 0 0 1-7.824 0c-2.156-2.156-2.156-5.667 0-7.823s5.666-2.156 7.824 0m2.125-2.125A8.538 8.538 0 0 0 78.967 59.23c3.334 3.333 8.738 3.332 12.072-.002s3.334-8.738.002-12.072zm13.826 18.078a5.535 5.535 0 0 1 0 7.822 5.536 5.536 0 0 1-7.822 0 5.538 5.538 0 0 1-.002-7.823 5.539 5.539 0 0 1 7.824.001m2.125-2.125a8.535 8.535 0 0 0-12.072 0 8.535 8.535 0 0 0 0 12.072c3.332 3.334 8.738 3.334 12.072 0s3.334-8.739 0-12.072zm-34.029-29.78a5.54 5.54 0 0 1 0 7.823 5.54 5.54 0 0 1-7.823 0 5.54 5.54 0 0 1-.001-7.824 5.539 5.539 0 0 1 7.824.001m2.125-2.125a8.538 8.538 0 1 0-12.074 12.075 8.538 8.538 0 0 0 12.074-12.075zM73.01 65.188a5.54 5.54 0 0 1 0 7.823 5.539 5.539 0 0 1-7.824 0 5.54 5.54 0 0 1 0-7.823 5.537 5.537 0 0 1 7.824 0m2.125-2.125a8.538 8.538 0 0 0-12.074 12.073 8.535 8.535 0 0 0 12.072-.001c3.334-3.334 3.336-8.739.002-12.072zM88.961 81.14a5.536 5.536 0 0 1 0 7.823 5.538 5.538 0 0 1-7.822 0 5.539 5.539 0 0 1-.002-7.824 5.538 5.538 0 0 1 7.824.001m2.127-2.125a8.537 8.537 0 1 0-.002 12.073 8.538 8.538 0 0 0 .002-12.073zM41.153 65.141a5.538 5.538 0 0 1 0 7.822 5.539 5.539 0 0 1-7.824.002 5.54 5.54 0 0 1 0-7.826 5.537 5.537 0 0 1 7.824.002m2.123-2.125a8.537 8.537 0 1 0-12.072 12.073 8.537 8.537 0 0 0 12.072-12.073zm13.828 18.076a5.539 5.539 0 0 1 0 7.824 5.539 5.539 0 0 1-7.824 0 5.539 5.539 0 0 1 .002-7.824 5.538 5.538 0 0 1 7.822 0m2.125-2.123a8.537 8.537 0 1 0 0 12.071 8.534 8.534 0 0 0 0-12.071zm13.828 18.076c2.156 2.156 2.156 5.666 0 7.823s-5.667 2.157-7.824.001a5.54 5.54 0 0 1 0-7.825 5.539 5.539 0 0 1 7.824.001m2.125-2.124a8.538 8.538 0 0 0-12.074 12.072 8.538 8.538 0 0 0 12.074-12.072z"/></g></svg>