<svg xmlns="http://www.w3.org/2000/svg" width="138.195" height="138.197"><linearGradient id="a" gradientUnits="userSpaceOnUse" x1="201.832" y1="828.966" x2="340.028" y2="828.966" gradientTransform="matrix(-1 0 0 .8257 340.028 -615.378)"><stop offset="0" stop-color="#4b48bf"/><stop offset="1" stop-color="#a14b8a"/></linearGradient><ellipse opacity=".4" fill="url(#a)" cx="69.098" cy="69.099" rx="69.098" ry="57.051"/><linearGradient id="b" gradientUnits="userSpaceOnUse" x1="416.29" y1="569.235" x2="554.489" y2="569.235" gradientTransform="matrix(0 1 -.8257 0 539.116 -416.29)"><stop offset="0" stop-color="#4b48bf"/><stop offset="1" stop-color="#a14b8a"/></linearGradient><ellipse opacity=".4" fill="url(#b)" cx="69.098" cy="69.099" rx="57.051" ry="69.099"/><linearGradient id="c" gradientUnits="userSpaceOnUse" x1="-130.096" y1="17.895" x2="-15.819" y2="17.895" gradientTransform="matrix(1 0 0 -1 142.056 86.993)"><stop offset="0" stop-color="#4b48bf"/><stop offset="1" stop-color="#a14b8a"/></linearGradient><circle opacity=".6" fill="url(#c)" cx="69.098" cy="69.098" r="57.139"/><linearGradient id="d" gradientUnits="userSpaceOnUse" x1="-118.016" y1="17.895" x2="-27.898" y2="17.895" gradientTransform="matrix(1 0 0 -1 142.056 86.993)"><stop offset="0" stop-color="#4b48bf"/><stop offset="1" stop-color="#a14b8a"/></linearGradient><circle opacity=".8" fill="url(#d)" cx="69.098" cy="69.098" r="45.059"/><g fill-rule="evenodd" clip-rule="evenodd" fill="#FFF"><path d="M74.844 28.228L28.552 74.519l26.443 26.444 46.292-46.292-26.443-26.443zM58.157 91.176c-.678-1.254-1.72-1.965-3.157-1.968-1.438-.001-2.481.706-3.17 1.972L38.335 77.685c2.544-1.226 2.701-4.943.001-6.336L71.68 38.007c.679 1.253 1.722 1.963 3.159 1.964 1.436 0 2.482-.701 3.168-1.971l13.5 13.5c-1.25.682-1.967 1.716-1.971 3.151-.004 1.439.696 2.484 1.968 3.177L58.157 91.176zm43.151-33.182l-3.304 3.303 1.784 1.785c-.918.472-1.537 1.172-1.833 2.138-.296.962-.167 1.889.3 2.771l-.154.11c-1.633 1.116-3.29 2.198-4.893 3.354a395.86 395.86 0 0 0-7.281 5.4 192.898 192.898 0 0 0-5.193 4.096 372.071 372.071 0 0 0-5.729 4.772 243.865 243.865 0 0 0-4.804 4.17c-2.085 1.864-4.167 3.736-6.204 5.654-2.429 2.287-4.808 4.627-7.208 6.945-.043.041-.081.088-.123.136l3.301 3.302.191-.191c.839-.838 1.663-1.689 2.521-2.507a867.465 867.465 0 0 1 6.834-6.457 253.145 253.145 0 0 1 4.577-4.142 325.91 325.91 0 0 1 4.749-4.123 292.06 292.06 0 0 1 4.644-3.888 237.347 237.347 0 0 1 4.785-3.818 265.984 265.984 0 0 1 5.589-4.232c1.662-1.221 3.358-2.396 5.056-3.57a124.733 124.733 0 0 1 8.021-5.094c.894-.522 1.787-1.042 2.709-1.578-2.787-2.789-5.558-5.56-8.335-8.336z"/><path d="M73.206 59.646l-.899-.899c-.628-.626-1.244-1.267-1.973-1.786-3.566-2.537-8.464-2.262-11.693.691-1.844 1.687-2.886 3.791-3.051 6.292-.168 2.514.552 4.763 2.198 6.678.664.773 1.418 1.467 2.133 2.195.009.01.029.008.052.016.167-.104.235-.354.563-.186 3.297 1.697 6.551 1.672 9.699-.376 1.523-.991 2.617-2.372 3.28-4.063 1.044-2.664.846-5.278-.434-7.819-.146-.289-.306-.536.125-.743zm-5.329 8.572c-.853.736-1.84 1.16-2.982 1.153-1.306-.008-2.367-.579-3.306-1.489-.995-1.029-1.588-2.25-1.426-3.747.143-1.327.836-2.359 1.832-3.202.788-.667 1.691-1.076 2.737-1.121 1.197-.051 2.23.372 3.127 1.136 1.074.916 1.786 2.043 1.833 3.491.052 1.565-.664 2.786-1.815 3.779zm-17.008 5.463a3.505 3.505 0 0 0-.019 4.959 3.512 3.512 0 0 0 4.962.019 3.515 3.515 0 0 0 .017-4.962 3.503 3.503 0 0 0-4.96-.016zm23.17-23.17a3.504 3.504 0 0 0-.03 4.976 3.513 3.513 0 0 0 4.963.012 3.514 3.514 0 0 0 .011-4.962c-1.363-1.366-3.587-1.377-4.944-.026z"/></g></svg>