<svg xmlns="http://www.w3.org/2000/svg" width="138.195" height="138.197" viewBox="0 0 138.195 138.197"><linearGradient id="a" gradientUnits="userSpaceOnUse" x1="201.832" y1="828.966" x2="340.028" y2="828.966" gradientTransform="matrix(-1 0 0 .8257 340.028 -615.378)"><stop offset="0" stop-color="#4b48bf"/><stop offset="1" stop-color="#a14b8a"/></linearGradient><ellipse opacity=".4" fill="url(#a)" cx="69.098" cy="69.099" rx="69.098" ry="57.051"/><linearGradient id="b" gradientUnits="userSpaceOnUse" x1="416.29" y1="569.235" x2="554.489" y2="569.235" gradientTransform="matrix(0 1 -.8257 0 539.116 -416.29)"><stop offset="0" stop-color="#4b48bf"/><stop offset="1" stop-color="#a14b8a"/></linearGradient><ellipse opacity=".4" fill="url(#b)" cx="69.098" cy="69.099" rx="57.051" ry="69.099"/><linearGradient id="c" gradientUnits="userSpaceOnUse" x1="-130.096" y1="17.895" x2="-15.819" y2="17.895" gradientTransform="matrix(1 0 0 -1 142.056 86.993)"><stop offset="0" stop-color="#4b48bf"/><stop offset="1" stop-color="#a14b8a"/></linearGradient><circle opacity=".6" fill="url(#c)" cx="69.098" cy="69.098" r="57.139"/><linearGradient id="d" gradientUnits="userSpaceOnUse" x1="-118.016" y1="17.895" x2="-27.898" y2="17.895" gradientTransform="matrix(1 0 0 -1 142.056 86.993)"><stop offset="0" stop-color="#4b48bf"/><stop offset="1" stop-color="#a14b8a"/></linearGradient><circle opacity=".8" fill="url(#d)" cx="69.098" cy="69.098" r="45.059"/><path fill-rule="evenodd" clip-rule="evenodd" fill="#FFF" d="M35.941 51.222c0-1.554-.02-3.107.007-4.661.024-1.465.201-1.62 1.672-1.724 5.001-.354 9.912-1.209 14.723-2.635a59.439 59.439 0 0 0 16.896-8.054c1.011-.695 1.1-.688 2.129.023 8.745 6.051 18.388 9.635 29.007 10.525.928.078 1.859.118 2.787.202.813.074 1.113.385 1.101 1.198-.197 13.116-2.437 25.755-8.825 37.409-4.773 8.708-11.406 15.717-19.581 21.303a83.925 83.925 0 0 1-4.931 3.102c-.516.302-.971.347-1.528.083-8.326-3.925-15.569-9.233-21.24-16.56-4.714-6.092-7.834-12.951-9.766-20.378-1.693-6.503-2.378-13.132-2.451-19.833zm34.145 19.209v5.283c0 8.057-.002 16.111.005 24.168.001 1.285.649 1.675 1.718 1.038 10.099-6.012 17.553-14.318 21.943-25.286 3.142-7.846 4.388-16.05 4.602-24.446.056-2.161.036-2.163-2.146-2.304-6.582-.424-12.79-2.172-18.617-5.264a52.474 52.474 0 0 1-5.804-3.606c-.351-.25-.717-.435-1.152-.223-.465.227-.556.644-.547 1.111.007.285-.002.569-.002.855v28.674z"/></svg>