<svg xmlns="http://www.w3.org/2000/svg" width="138.195" height="138.197" viewBox="0 0 138.195 138.197"><linearGradient id="a" gradientUnits="userSpaceOnUse" x1="201.832" y1="828.966" x2="340.028" y2="828.966" gradientTransform="matrix(-1 0 0 .8257 340.028 -615.378)"><stop offset="0" stop-color="#4b48bf"/><stop offset="1" stop-color="#a14b8a"/></linearGradient><ellipse opacity=".4" fill="url(#a)" cx="69.098" cy="69.099" rx="69.098" ry="57.051"/><linearGradient id="b" gradientUnits="userSpaceOnUse" x1="416.29" y1="569.235" x2="554.489" y2="569.235" gradientTransform="matrix(0 1 -.8257 0 539.116 -416.29)"><stop offset="0" stop-color="#4b48bf"/><stop offset="1" stop-color="#a14b8a"/></linearGradient><ellipse opacity=".4" fill="url(#b)" cx="69.098" cy="69.099" rx="57.051" ry="69.099"/><linearGradient id="c" gradientUnits="userSpaceOnUse" x1="-130.096" y1="17.895" x2="-15.819" y2="17.895" gradientTransform="matrix(1 0 0 -1 142.056 86.993)"><stop offset="0" stop-color="#4b48bf"/><stop offset="1" stop-color="#a14b8a"/></linearGradient><circle opacity=".6" fill="url(#c)" cx="69.098" cy="69.098" r="57.139"/><linearGradient id="d" gradientUnits="userSpaceOnUse" x1="-118.016" y1="17.895" x2="-27.898" y2="17.895" gradientTransform="matrix(1 0 0 -1 142.056 86.993)"><stop offset="0" stop-color="#4b48bf"/><stop offset="1" stop-color="#a14b8a"/></linearGradient><circle opacity=".8" fill="url(#d)" cx="69.098" cy="69.098" r="45.059"/><g fill-rule="evenodd" clip-rule="evenodd" fill="#FFF"><path d="M53.084 36.771c.883 4.52 2.661 5.973 7.146 5.973 5.861-.001 11.724-.002 17.585 0 4.646.001 6.385-1.391 7.274-5.861 2.225 0 4.478-.186 6.687.049 2.51.267 4.248 2.693 4.255 5.525.018 6.791.006 13.58.006 20.371 0 11.719.001 23.438-.001 35.158 0 4.091-2.142 6.263-6.202 6.265-13.873.006-27.747.008-41.62.002-3.856-.002-6.058-2.233-6.057-6.121.003-10.355.021-20.711.021-31.065 0-8.058-.019-16.115-.021-24.172-.001-3.945 2.107-6.087 6.013-6.121 1.649-.015 3.298-.003 4.914-.003zm-5.616 12.385v49.451h43.278V49.156H47.468z"/><path d="M63.579 33.524c.822-3.609 2.792-5.455 5.591-5.404 2.78.05 4.627 1.828 5.44 5.402 1.348 0 2.747-.018 4.146.004 2.49.039 4.129 1.51 4.069 3.623-.058 2.07-1.691 3.499-4.061 3.504-6.445.012-12.888.014-19.331.002-2.438-.004-4.11-1.527-4.073-3.648.035-2.057 1.646-3.444 4.07-3.479 1.361-.019 2.722-.004 4.149-.004zm3.412-.121h4.194c-.135-1.346-.908-1.991-2.007-2.028-1.174-.039-1.993.597-2.187 2.028zm7.373 57.16c-3.268 0-5.07.011-8.337-.004-1.63-.007-2.506-.731-2.5-2.003.005-1.258.927-2.084 2.482-2.088 6.633-.02 11.8-.02 18.433.001 1.509.005 2.495.917 2.454 2.138-.039 1.169-.979 1.945-2.438 1.951-3.364.014-6.729.005-10.094.005zm.13-32.648c3.316 0 6.633-.008 9.949.004 1.491.006 2.4.738 2.446 1.922.05 1.254-.933 2.145-2.433 2.146-6.582.01-11.698.002-18.281.013-1.225.002-2.254-.308-2.6-1.633-.339-1.299.637-2.429 2.143-2.442 3.415-.029 5.363-.01 8.776-.01zm.03 18.039c-3.465 0-5.463.021-8.928-.011-1.266-.01-2.03-.729-2.048-1.998-.019-1.21.732-1.895 1.904-1.999 1.161-.103 2.333-.117 3.501-.123 2.768-.013 4.07.006 6.838.006 2.923 0 5.847-.047 8.769.012 1.399.027 2.363 1.006 2.339 2.136-.027 1.18-.954 1.97-2.421 1.978-3.318.019-6.636.006-9.954.006v-.007zM62.362 54.636a.961.961 0 0 0-1.362 0l-6.68 6.68-2.866-2.865a.964.964 0 0 0-1.362 1.363l3.542 3.541a.958.958 0 0 0 .687.281.958.958 0 0 0 .685-.281l7.357-7.356a.965.965 0 0 0-.001-1.363zm0 14.093a.965.965 0 0 0-1.362 0l-6.68 6.68-2.866-2.865a.963.963 0 0 0-1.362 1.362l3.542 3.543a.97.97 0 0 0 .687.281.97.97 0 0 0 .685-.281l7.357-7.357a.965.965 0 0 0-.001-1.363zm0 14.095a.961.961 0 0 0-1.362 0l-6.68 6.68-2.866-2.865A.963.963 0 0 0 50.092 88l3.542 3.543a.958.958 0 0 0 .687.281.96.96 0 0 0 .685-.282l7.357-7.355a.965.965 0 0 0-.001-1.363z"/></g></svg>