<svg xmlns="http://www.w3.org/2000/svg" width="138.195" height="138.197"><linearGradient id="a" gradientUnits="userSpaceOnUse" x1="201.832" y1="828.966" x2="340.028" y2="828.966" gradientTransform="matrix(-1 0 0 .8257 340.028 -615.378)"><stop offset="0" stop-color="#4b48bf"/><stop offset="1" stop-color="#a14b8a"/></linearGradient><ellipse opacity=".4" fill="url(#a)" cx="69.098" cy="69.099" rx="69.098" ry="57.051"/><linearGradient id="b" gradientUnits="userSpaceOnUse" x1="416.29" y1="569.235" x2="554.489" y2="569.235" gradientTransform="matrix(0 1 -.8257 0 539.116 -416.29)"><stop offset="0" stop-color="#4b48bf"/><stop offset="1" stop-color="#a14b8a"/></linearGradient><ellipse opacity=".4" fill="url(#b)" cx="69.098" cy="69.099" rx="57.051" ry="69.099"/><linearGradient id="c" gradientUnits="userSpaceOnUse" x1="-130.096" y1="17.895" x2="-15.819" y2="17.895" gradientTransform="matrix(1 0 0 -1 142.056 86.993)"><stop offset="0" stop-color="#4b48bf"/><stop offset="1" stop-color="#a14b8a"/></linearGradient><circle opacity=".6" fill="url(#c)" cx="69.098" cy="69.098" r="57.139"/><linearGradient id="d" gradientUnits="userSpaceOnUse" x1="-118.016" y1="17.895" x2="-27.898" y2="17.895" gradientTransform="matrix(1 0 0 -1 142.056 86.993)"><stop offset="0" stop-color="#4b48bf"/><stop offset="1" stop-color="#a14b8a"/></linearGradient><circle opacity=".8" fill="url(#d)" cx="69.098" cy="69.098" r="45.059"/><g fill-rule="evenodd" clip-rule="evenodd" fill="#FFF"><path d="M83.819 26.671c-.054.463.388.41.613.534 1.342.73 1.668 1.751.921 3.061a2145.48 2145.48 0 0 1-4.313 7.513c-.446.771-1.121 1.135-2.014 1.009-.828-.119-1.335-.626-1.578-1.411-.138-.456-.057-.897.129-1.329 1.161-2.702 2.342-5.394 3.465-8.112.206-.5.779-.706.845-1.264l1.932-.001zm16.757 47.293c.026 4.764-3.315 7.477-8.238 6.725-3.822-.582-7.229-2.194-10.409-4.277-8.883-5.828-16.19-13.195-21.506-22.445-1.45-2.524-2.524-5.209-2.932-8.122a9.829 9.829 0 0 1-.015-2.809c.487-3.298 2.806-5.325 6.16-5.432 3.327-.106 6.317 1.045 9.205 2.517 5.483 2.799 10.157 6.679 14.474 11.013 4.219 4.239 7.98 8.835 10.738 14.187 1.654 3.21 2.509 6.164 2.523 8.643zm-8.997.213c2.163.029 2.439-.244 2.398-1.926a7.733 7.733 0 0 0-.131-1.195c-.328-1.73-1.028-3.33-1.904-4.84-4.479-7.734-10.6-13.909-18.026-18.819-2.132-1.409-4.36-2.724-6.924-3.083-2.993-.417-3.267-.07-2.871 2.883.257 1.909 1.14 3.624 2.093 5.277 2.822 4.901 6.463 9.138 10.637 12.929 3.126 2.838 6.453 5.408 10.249 7.307 1.564.783 3.179 1.424 4.479 1.467z"/><path d="M86.748 81.979c-1.8.067-3.592.131-5.377.324-5.59.602-10.251 3.1-14.238 6.968-1.595 1.549-3.223 3.077-4.714 4.727-1.942 2.146-4.3 2.603-6.953 1.945-4.717-1.172-8.176-4.109-10.896-8.006-1.306-1.865-2.218-3.915-2.525-6.196-.294-2.194.196-4.105 1.855-5.713 2.114-2.055 4.254-4.092 6.195-6.316 3.987-4.565 5.792-9.935 5.862-15.942.01-.934 0-1.867 0-2.927.339.334.369.667.471.953.858 2.353 2.018 4.555 3.358 6.66.229.359.309.694.25 1.127-.487 3.524-1.576 6.834-3.463 9.861-.313.505-.397.968-.209 1.511 1.851 5.33 5.454 8.925 10.729 10.872.602.221 1.096.111 1.648-.233 3.046-1.905 6.389-2.994 9.937-3.477.31-.042.569-.024.838.147 2.284 1.464 4.673 2.717 7.232 3.715z"/><path d="M64.364 96.184c1.839-1.855 3.563-3.652 5.353-5.385 1.055-1.023 2.366-1.053 3.687-.584 1.714.608 3.422 1.246 5.119 1.901.898.345 1.775.332 2.671.031.431-.146.869-.274 1.302-.417 1.918-.633 3.533.018 4.972 1.244.913.776 1.022 1.688.417 2.738a5.977 5.977 0 0 1-.706.975 781.261 781.261 0 0 1-5.35 5.896c-1.11 1.21-2.503 1.579-4.097 1.256-.926-.188-1.789-.548-2.626-.979-1.002-.516-1.947-1.127-2.881-1.756-2.553-1.715-4.929-3.704-7.861-4.92zm37.019-35.396c-.959-.017-1.707-.575-1.944-1.351-.271-.888.046-1.763.909-2.27 1.89-1.113 3.798-2.192 5.701-3.286.697-.398 1.383-.815 2.091-1.188 1.045-.553 2.094-.235 2.678.791.185.325.354.662.499 1.007.425 1.006.095 2.078-.895 2.52-2.832 1.256-5.694 2.454-8.549 3.667-.191.081-.412.093-.49.11zM98.35 36.973c1.028-.004 2.321 1 2.712 1.975.339.858.1 1.601-.796 2.396-2.098 1.872-4.191 3.747-6.298 5.604-.99.873-2.158.834-2.913-.056-.604-.716-.672-1.695-.029-2.433 2.021-2.321 4.077-4.608 6.131-6.902.354-.395.83-.574 1.193-.584zm-22.612 18.63c4.04.005 7.7 4.623 6.628 8.214-.57 1.913-.824 1.988-2.286.688a76.629 76.629 0 0 1-7.104-7.188c-.391-.452-.363-.679.136-.961.858-.481 1.754-.78 2.626-.753z"/></g></svg>