<svg xmlns="http://www.w3.org/2000/svg" width="138.195" height="138.197" viewBox="0 0 138.195 138.197"><linearGradient id="a" gradientUnits="userSpaceOnUse" x1="201.832" y1="828.966" x2="340.028" y2="828.966" gradientTransform="matrix(-1 0 0 .8257 340.028 -615.378)"><stop offset="0" stop-color="#4b48bf"/><stop offset="1" stop-color="#a14b8a"/></linearGradient><ellipse opacity=".4" fill="url(#a)" cx="69.098" cy="69.099" rx="69.098" ry="57.051"/><linearGradient id="b" gradientUnits="userSpaceOnUse" x1="416.29" y1="569.235" x2="554.489" y2="569.235" gradientTransform="matrix(0 1 -.8257 0 539.116 -416.29)"><stop offset="0" stop-color="#4b48bf"/><stop offset="1" stop-color="#a14b8a"/></linearGradient><ellipse opacity=".4" fill="url(#b)" cx="69.098" cy="69.099" rx="57.051" ry="69.099"/><linearGradient id="c" gradientUnits="userSpaceOnUse" x1="-130.096" y1="17.895" x2="-15.819" y2="17.895" gradientTransform="matrix(1 0 0 -1 142.056 86.993)"><stop offset="0" stop-color="#4b48bf"/><stop offset="1" stop-color="#a14b8a"/></linearGradient><circle opacity=".6" fill="url(#c)" cx="69.098" cy="69.098" r="57.139"/><linearGradient id="d" gradientUnits="userSpaceOnUse" x1="-118.016" y1="17.895" x2="-27.898" y2="17.895" gradientTransform="matrix(1 0 0 -1 142.056 86.993)"><stop offset="0" stop-color="#4b48bf"/><stop offset="1" stop-color="#a14b8a"/></linearGradient><circle opacity=".8" fill="url(#d)" cx="69.098" cy="69.098" r="45.059"/><path fill-rule="evenodd" clip-rule="evenodd" fill="#FFF" d="M69.344 76.749c3.66-2.803 7.22-5.658 10.926-8.309 1.679-1.199 2.552-2.222 1.811-4.486-.462-1.41.091-3.144.14-4.734.013-.387-.022-.958-.269-1.147-4.754-3.702-9.543-7.357-14.34-11.035-2.813 1.882-5.755 2.286-8.829.84-3.955-1.858-5.786-6.497-4.231-10.594 1.558-4.107 6.059-6.333 10.313-5.1 4.143 1.203 6.759 5.574 5.853 9.812-.114.532-.219.948.329 1.365 4.688 3.56 9.352 7.15 14.093 10.785 2.77-2.583 6.041-3.679 9.777-3.125 2.716.403 4.999 1.698 6.785 3.792a11.301 11.301 0 0 1-.09 14.838c-3.401 3.88-10.199 5.706-16.05 1.007-4.35 3.332-8.712 6.672-13.12 10.051 2.154 4.361 2.443 8.781.553 13.246-1.457 3.436-3.907 5.979-7.257 7.631-6.696 3.303-14.866 1.182-19.129-4.951-4.283-6.162-3.425-14.443 2.002-19.656 5.189-4.984 14.018-6.017 20.733-.23z"/></svg>