<svg xmlns="http://www.w3.org/2000/svg" width="98.003" height="68.78" viewBox="0 0 98.003 68.78"><path fill-rule="evenodd" clip-rule="evenodd" fill="#F7F7F7" d="M97.81 29.087c-.237-4.215-.537-8.442-1.043-12.635h.001c-.159-1.209-.254-2.418-.452-3.625a20.23 20.23 0 0 0-.301-1.456c-.311-1.461-.813-2.766-1.502-3.904-1.966-3.472-5.289-5.534-9.954-5.917C76.248.867 67.912.335 59.577.115A358.75 358.75 0 0 0 49.359.011 29.987 29.987 0 0 1 49.054 0v.012a682.22 682.22 0 0 0-14.376.213C28.181.383 21.682.777 15.2 1.296c-2.305.184-4.707.713-6.803 1.665-3.154 1.435-4.918 3.853-5.916 6.801-.039.11-.076.222-.112.334-.046.146-.088.296-.131.444-.057.197-.114.396-.163.599a23.991 23.991 0 0 0-.463 2.361c-.089.608-.171 1.218-.256 1.826l-.073.52c-.027.202-.06.404-.085.606h.011c-.425 3.246-.708 6.519-.91 9.782-.608 9.94-.337 19.867 1.282 29.719C2.683 62.659 6.735 66.68 13.447 67.23c8.311.683 16.647 1.215 24.982 1.435 8.293.22 16.601.092 24.898-.109 6.497-.158 12.996-.553 19.478-1.071 2.305-.184 4.708-.713 6.803-1.665 4.409-2.006 6.28-5.926 6.956-10.539 1.273-8.691 1.74-17.432 1.246-26.194zm-58.681 20.3V19.68c8.619 4.973 17.04 9.829 25.738 14.846-8.633 4.986-17.044 9.844-25.738 14.861z"/></svg>