<svg xmlns="http://www.w3.org/2000/svg" width="571.896" height="78.541" viewBox="0 0 571.896 78.541"><linearGradient id="a" gradientUnits="userSpaceOnUse" x1="571.574" y1="121.223" x2="623.631" y2="121.223" gradientTransform="rotate(-90 400.888 235.27)"><stop offset="0" stop-color="#4b48bf"/><stop offset="1" stop-color="#a14b8a"/></linearGradient><path opacity=".8" fill="url(#a)" d="M531.869 12.527H41.812c-14.376 0-26.029 11.653-26.029 26.028 0 14.376 11.653 26.029 26.029 26.029l490.058-.001c14.375 0 26.028-11.652 26.028-26.029-.001-14.374-11.654-26.027-26.029-26.027z"/><linearGradient id="b" gradientUnits="userSpaceOnUse" x1="564.596" y1="120.699" x2="630.61" y2="120.699" gradientTransform="rotate(-90 400.888 235.27)"><stop offset="0" stop-color="#4b48bf"/><stop offset="1" stop-color="#a14b8a"/></linearGradient><path opacity=".6" fill="url(#b)" d="M532.752 5.549H39.883c-18.229 0-33.007 14.777-33.007 33.007s14.777 33.007 33.007 33.007h492.869c18.229 0 33.006-14.777 33.006-33.008 0-18.229-14.778-33.006-33.006-33.006z"/><linearGradient id="c" gradientUnits="userSpaceOnUse" x1="570.145" y1="120.331" x2="625.063" y2="120.331" gradientTransform="rotate(-90 400.888 235.27)"><stop offset="0" stop-color="#4b48bf"/><stop offset="1" stop-color="#a14b8a"/></linearGradient><path opacity=".4" fill="url(#c)" d="M544.438 11.096l-516.979.001C12.293 11.097 0 23.39 0 38.555c0 15.166 12.293 27.459 27.459 27.459h516.979c15.165 0 27.458-12.293 27.458-27.459s-12.292-27.459-27.458-27.459z"/><linearGradient id="d" gradientUnits="userSpaceOnUse" x1="557.618" y1="120.777" x2="636.159" y2="120.777" gradientTransform="rotate(-90 400.888 235.27)"><stop offset="0" stop-color="#4b48bf"/><stop offset="1" stop-color="#a14b8a"/></linearGradient><path opacity=".4" fill="url(#d)" d="M566.281 33.006C566.281 14.777 551.504 0 533.273 0H40.405C22.176 0 7.398 14.777 7.398 33.007c0 1.335.089 2.649.243 3.943a33.061 33.061 0 0 0-1.135 8.584c0 18.229 14.777 33.007 33.007 33.007h492.868c18.229 0 33.007-14.777 33.007-33.008 0-1.334-.088-2.648-.242-3.943a33.013 33.013 0 0 0 1.135-8.584z"/></svg>