<svg xmlns="http://www.w3.org/2000/svg" width="46.43" height="38.111" viewBox="90.353 -23.453 46.43 38.111"><path fill-rule="evenodd" clip-rule="evenodd" fill="#EAEAEA" d="M90.353 10.452c5.072.232 9.708-.937 13.93-4.072-.676-.09-1.198-.129-1.707-.234-3.299-.679-5.631-2.563-7.008-5.639-.246-.55-.219-.744.479-.655 1.179.148 2.354.039 3.74-.38-3.05-.732-5.259-2.264-6.676-4.839-.783-1.424-1.172-2.947-1.146-4.671 1.363.631 2.681 1.145 4.188 1.127-.114-.335-.399-.425-.601-.585-3.493-2.773-4.589-7.591-2.646-11.554.274-.559.427-.657.896-.132 4.942 5.53 11.123 8.648 18.494 9.442.563.061.747-.015.664-.653-.551-4.21 1.454-8.08 5.119-9.972 3.693-1.906 8.021-1.277 11.151 1.645.303.284.571.329.953.249a15.995 15.995 0 0 0 4.621-1.73c.208-.117.383-.331.664-.309-.278 1.595-1.425 3.135-3.701 4.963.589.185 1.101-.068 1.613-.17.573-.113 1.136-.28 1.692-.457.527-.167 1.042-.378 1.709-.624-.163.296-.245.487-.361.655-.976 1.412-2.126 2.672-3.535 3.652-.567.395-.697.82-.691 1.451.059 5.346-1.277 10.32-4.137 14.843-8.138 12.881-24.615 16.687-37.704 8.649z"/></svg>