<svg xmlns="http://www.w3.org/2000/svg" width="134.713" height="48.646" viewBox="0 0 134.713 48.646"><g fill-rule="evenodd" clip-rule="evenodd" fill="#EAEAEA"><path d="M7.06 48.646c-.63-.496-.621-1.188-.509-1.867.271-1.664 1.802-2.965 3.648-3.146.28-.028.562-.043.913-.069-.213-.579-.401-1.126-.618-1.663-.04-.101-.178-.187-.288-.229-2.754-1.061-4.058-3.222-4.363-6.008-.283-2.587.451-4.886 2.449-6.672.337-.3.732-.533 1.18-.852-.205-.094-.376-.174-.551-.25-1.952-.853-3.721-1.967-5.117-3.605-1.438-1.687-2.188-3.612-2.001-5.863.017-.204-.073-.496-.221-.622-1.773-1.516-2.101-3.837-.758-5.579 1.341-1.744 3.668-2.034 5.579-.699.046.033.096.061.159.098 3.062-1.873 6.426-2.724 9.993-2.826.363-.01.436-.201.516-.463.692-2.203 1.387-4.407 2.083-6.611.258-.815.458-.925 1.293-.729 1.733.406 3.471.796 5.197 1.229.385.097.56.025.765-.31A3.198 3.198 0 0 1 30.112.513c1.374.42 2.344 1.765 2.299 3.185a3.26 3.26 0 0 1-2.489 3.09c-1.813.461-3.694-.77-3.956-2.628-.059-.415-.219-.559-.614-.646-1.642-.363-3.276-.767-4.984-1.172-.686 2.162-1.355 4.279-2.037 6.432 2.341.147 4.583.507 6.708 1.375.944.387 1.836.898 2.766 1.319.177.077.479.077.632-.022 1.918-1.271 4.279-.913 5.563.864 1.29 1.786.891 4.154-.918 5.556-.139.107-.284.328-.272.484.261 3.488-1.466 5.947-4.141 7.858-1.056.756-2.248 1.319-3.495 2.037.029.007.132.013.21.062 2.511 1.515 3.507 3.853 3.483 6.665-.02 2.194-.785 4.134-2.499 5.585-.521.442-1.202.696-1.789 1.072-.228.147-.452.361-.574.599-.206.399-.328.842-.495 1.298.559.08 1.103.112 1.623.243 1.858.466 3.104 1.963 2.987 3.641-.028.421-.292.826-.447 1.237L7.06 48.646zM17.309 10.11c-1.906-.009-3.784.216-5.619.736-2.614.743-4.999 1.893-6.83 3.976-2.267 2.573-2.335 5.716-.205 8.396.985 1.24 2.22 2.186 3.629 2.875 5.247 2.574 10.646 2.735 16.123.854 2.368-.814 4.451-2.118 5.92-4.226 1.569-2.257 1.567-4.861.021-7.13-.962-1.411-2.259-2.447-3.739-3.259-2.896-1.588-6.028-2.207-9.3-2.222zm-6.451 18.491c-.075.694-.169 1.33-.214 1.971-.277 4.011.022 7.957 1.441 11.756.62 1.664 1.435 3.218 2.783 4.434.411.374.845.588 1.428.544.678-.05 1.367-.049 2.046 0 .563.041.979-.166 1.378-.523 1.381-1.239 2.2-2.832 2.832-4.532 1.377-3.711 1.669-7.565 1.433-11.479-.044-.708-.153-1.412-.235-2.161-4.318 1.203-8.562 1.217-12.892-.01zm13.729 11.605c2.125-1.332 2.942-3.206 2.948-5.454.006-1.922-.656-3.592-2.29-4.967.322 3.563.149 6.931-.658 10.421zM9.348 29.938c-1.564.964-2.48 3.51-2.159 5.883.27 1.99 1.607 3.858 2.793 4.203-.767-3.32-.928-6.671-.634-10.086zm19.811-28.22a1.916 1.916 0 0 0-1.928 1.904 1.933 1.933 0 0 0 1.918 1.923 1.93 1.93 0 0 0 1.928-1.913 1.914 1.914 0 0 0-1.918-1.914zm-7.913 45.553h5.632c-.136-.385-.194-.727-.362-1.004-.715-1.181-2.381-1.562-3.624-1.234-.096.025-.192.118-.254.206-.458.659-.909 1.325-1.392 2.032zm-7.874.009c-.481-.704-.91-1.346-1.358-1.976-.089-.126-.237-.263-.38-.293-1.157-.233-2.224-.021-3.115.784-.425.382-.709.858-.643 1.484l5.496.001zm19.034-30.617c1.19-1.026 1.31-2.647.369-3.753-.874-1.028-2.623-1.203-3.443-.353 1.354 1.1 2.416 2.427 3.074 4.106zM5.351 12.489c-.964-.815-2.646-.54-3.461.527-.843 1.106-.695 2.694.363 3.516.658-1.633 1.748-2.939 3.098-4.043zm81.816 16.21v-.715c.001-2.77-.007-5.538.004-8.308.006-1.345.603-2.104 1.744-2.278 1.235-.191 2.271.608 2.395 1.845.018.188.018.38.018.568V46.16c-.003 1.405-.755 2.267-2.024 2.332-1.056.053-1.809-.605-2.173-1.904-.036.005-.086-.006-.104.014-2.317 2.596-7.164 2.299-9.894.419-2.394-1.649-3.646-4.001-4.18-6.784-.616-3.222-.25-6.326 1.408-9.182 1.81-3.116 4.508-4.728 8.186-4.506 1.562.093 2.695.605 4.62 2.15zm-10.32 8.509c.003 2.174.362 3.859 1.281 5.399.63 1.059 1.523 1.776 2.739 2.056 2.548.585 4.872-.62 5.899-3.083.568-1.364.799-2.808.787-4.276-.016-1.792-.386-3.504-1.438-5.005-1.985-2.829-5.854-2.828-7.818.015-1.098 1.586-1.401 3.409-1.45 4.894zm32.018-8.486v-.707c0-2.828.004-5.654-.003-8.481-.001-.849.299-1.523 1.075-1.919.756-.385 1.51-.323 2.217.127.493.313.77.78.818 1.364.028.319.035.645.035.966.003 8.596.003 17.192.001 25.788 0 .17.004.341-.002.512-.044 1.232-.753 2.005-1.939 2.113-1.063.095-1.962-.639-2.193-1.79-.009-.048-.031-.094-.063-.189-1.801 1.913-4.058 2.215-6.462 1.859-2.69-.398-4.755-1.82-6.18-4.124-2.704-4.368-2.301-10.805.888-14.652 2.197-2.65 5.731-3.766 8.86-2.681.872.304 1.64.912 2.449 1.391.155.09.277.23.499.423zm.377 8.683c.001-1.897-.46-3.642-1.304-4.931-1.274-1.943-3.468-2.759-5.595-2.029-1.638.561-2.562 1.841-3.137 3.388a10.571 10.571 0 0 0-.332 6.483c.391 1.485.986 2.887 2.345 3.774 2.599 1.696 6.118.401 7.309-2.679.499-1.286.699-2.631.714-4.006zm-52.953 1.79c-.174 2.579 1.775 4.971 4.416 5.464 2.359.438 4.471-.146 6.37-1.578.349-.262.695-.531 1.071-.746 1.206-.689 2.366-.041 2.445 1.354.042.753-.272 1.368-.814 1.864-1.718 1.572-3.759 2.486-6.045 2.808-2.927.41-5.686-.024-8.034-1.979-1.821-1.516-2.842-3.521-3.355-5.8-.828-3.677-.174-7.119 1.963-10.18 3.948-5.653 11.959-5.076 15.294 1.035.952 1.747 1.45 3.618 1.459 5.611.006 1.359-.67 2.076-2.037 2.133-.775.032-1.555.012-2.334.013h-9.79l-.609.001zm-.007-3.348h10.529c.333-2.816-2.008-5.518-4.865-5.636-3.602-.148-5.583 2.508-5.664 5.636zm71.156-5.444c-.494 0-.927.031-1.355-.006-1.026-.091-1.856-.944-1.829-1.845.03-1.006.741-1.722 1.833-1.808.429-.034.861-.006 1.352-.006 0-1.426-.041-2.771.021-4.11.022-.5.168-1.083.47-1.462.57-.726 1.427-.808 2.285-.56.836.243 1.321.813 1.358 1.692.036.91.026 1.821.035 2.73.005.529.001 1.058.001 1.651.5.023.966.023 1.427.073 1.265.129 1.998 1.292 1.557 2.477-.281.752-.854 1.14-1.651 1.178-.413.02-.829.004-1.332.004v.696c0 5.029.002 10.059-.002 15.086-.002 1.384-.752 2.203-2.068 2.294-.973.068-1.796-.526-2.004-1.48a4.923 4.923 0 0 1-.093-1.015c-.006-4.935-.003-9.868-.003-14.802-.002-.225-.002-.452-.002-.787zm-82.225-1.196c.684-.638 1.261-1.244 1.907-1.764.788-.631 1.703-.987 2.742-.897 1.399.118 2.349 1.388 1.933 2.688-.132.41-.474.864-.847 1.063-.69.37-1.463.608-2.223.834-1.98.588-3.055 1.946-3.392 3.929-.09.522-.107 1.06-.108 1.588-.011 3.264.002 6.527-.014 9.79-.005 1.177-.691 1.926-1.794 2.043a2.033 2.033 0 0 1-2.22-1.609 4.454 4.454 0 0 1-.076-.849c-.003-5.69.001-11.382-.006-17.076-.001-.988.278-1.804 1.253-2.218 1.343-.571 2.775.353 2.843 1.813.011.201.002.405.002.665zm71.828 8.222c0-2.96-.014-5.921.005-8.879.009-1.436 1.255-2.388 2.582-1.995.819.24 1.312.801 1.444 1.651.033.205.039.415.039.623.001 5.787.002 11.574 0 17.36 0 1.127-.438 1.86-1.289 2.196a2.011 2.011 0 0 1-2.771-1.852c-.033-2.01-.011-4.022-.012-6.033-.001-1.022.001-2.047.002-3.071zm2.033-12.365c-2.065.007-3.765-1.68-3.786-3.757-.021-2.09 1.696-3.806 3.797-3.794 2.077.012 3.766 1.708 3.761 3.775-.003 2.066-1.706 3.772-3.772 3.776zm.012-5.602a1.81 1.81 0 0 0-1.848 1.815c-.004 1.011.832 1.851 1.836 1.846.978-.006 1.802-.819 1.824-1.805.026-1.007-.794-1.847-1.812-1.856z"/><path d="M9.801 17.273c-.009-1.325 1.063-2.416 2.357-2.403 1.274.015 2.352 1.103 2.349 2.377a2.352 2.352 0 0 1-2.35 2.349c-1.316.003-2.349-1.014-2.356-2.323zm12.829 2.323a2.319 2.319 0 0 1-2.354-2.325c-.007-1.323 1.067-2.417 2.361-2.4a2.384 2.384 0 0 1 2.333 2.381 2.33 2.33 0 0 1-2.34 2.344zm-5.358 6.398c-1.253-.265-2.528-.452-3.751-.821-.624-.188-1.17-.671-1.711-1.077-.311-.231-.32-.606-.062-.908.261-.306.617-.347.909-.079 1.054.976 2.356 1.309 3.718 1.324a19.89 19.89 0 0 0 3.718-.292c.652-.116 1.264-.56 1.846-.931.381-.242.701-.394 1.057-.038.304.303.224.708-.193 1.079-1.098.979-2.442 1.334-3.855 1.495-.545.063-1.098.075-1.646.112-.011.044-.02.09-.03.136z"/></g></svg>