<svg xmlns="http://www.w3.org/2000/svg" width="63.128" height="52.94" viewBox="35.538 41.417 63.128 52.94"><path d="M53.342 72.124c-.017-2.406 1.93-4.388 4.281-4.365 2.313.027 4.271 2.004 4.266 4.318a4.273 4.273 0 0 1-4.268 4.268c-2.39.005-4.265-1.844-4.279-4.221zm23.302 4.221c-2.39.003-4.261-1.849-4.277-4.224-.01-2.403 1.939-4.39 4.289-4.36 2.335.032 4.247 1.98 4.239 4.324a4.236 4.236 0 0 1-4.251 4.26zM66.91 87.964c-2.273-.48-4.59-.821-6.811-1.492-1.136-.34-2.125-1.218-3.107-1.954-.566-.421-.582-1.102-.114-1.649.474-.557 1.121-.631 1.651-.144 1.914 1.772 4.28 2.376 6.753 2.405 2.249.026 4.535-.135 6.753-.531 1.185-.211 2.297-1.018 3.354-1.691.692-.439 1.274-.715 1.92-.069.552.552.407 1.286-.352 1.96-1.993 1.779-4.435 2.423-7.001 2.716-.991.115-1.995.137-2.99.204-.019.079-.036.162-.056.245z" fill="#EAEAEA"/><path fill="#EAEAEA" d="M38.815 74.21c-.339 4.089 1.023 7.587 3.636 10.65 1.864 2.187 4.098 3.853 6.558 5.202l.391.208a37.152 37.152 0 0 0 6.38 2.559c6.675 1.808 13.241 2.005 19.879.621.172-.039.353-.082.539-.126.103-.022.204-.052.307-.074 2.629-.658 6.364-1.911 10.061-4.209.355-.224.71-.445 1.049-.688 4.858-3.471 7.994-7.938 7.522-14.271-.023-.283.241-.685.493-.88 3.284-2.547 4.01-6.847 1.667-10.091-2.332-3.229-6.62-3.879-10.104-1.57-.278.179-.826.179-1.149.039-1.688-.765-3.31-1.692-5.023-2.395-3.859-1.577-7.932-2.231-12.184-2.498 1.24-3.911 2.453-7.756 3.7-11.684 3.103.736 6.069 1.47 9.052 2.13.718.158 1.009.418 1.115 1.172.478 3.375 3.894 5.61 7.186 4.773 2.632-.668 4.435-2.905 4.521-5.612.081-2.579-1.68-5.021-4.178-5.784-2.571-.79-5.296.206-6.724 2.536-.373.608-.69.74-1.389.563-3.137-.786-6.294-1.494-9.44-2.231-1.519-.356-1.88-.156-2.349 1.323-1.265 4.003-2.525 8.007-3.785 12.008-.144.475-.276.823-.937.841-6.478.186-12.588 1.731-18.148 5.133-.115-.067-.206-.117-.291-.178-3.47-2.424-7.696-1.897-10.132 1.27-2.44 3.163-1.845 7.378 1.376 10.132.27.231.433.761.401 1.131zm49.687-30.339a3.477 3.477 0 0 1 3.484 3.477c-.006 1.912-1.586 3.482-3.503 3.475-1.912-.007-3.487-1.584-3.484-3.493.008-1.916 1.573-3.463 3.503-3.459zm6.569 20.328c1.708 2.01 1.49 4.954-.67 6.817-1.195-3.05-3.126-5.46-5.584-7.458 1.49-1.544 4.665-1.226 6.254.641zm-38.299-3.747c3.335-.946 6.744-1.354 10.206-1.337 5.944.026 11.633 1.151 16.894 4.035 2.688 1.476 5.045 3.357 6.79 5.919 2.81 4.122 2.813 8.851-.037 12.952-2.67 3.828-6.451 6.195-10.753 7.675-9.948 3.416-19.754 3.124-29.284-1.552-2.56-1.251-4.802-2.97-6.593-5.223-3.867-4.867-3.745-10.574.372-15.249 3.327-3.783 7.659-5.873 12.405-7.22zm-17.798 3.941c1.479-1.938 4.534-2.438 6.286-.958-2.453 2.004-4.433 4.377-5.628 7.343-1.921-1.493-2.19-4.378-.658-6.385z"/></svg>