<svg xmlns="http://www.w3.org/2000/svg" width="134.713" height="62.31"><g fill-rule="evenodd" clip-rule="evenodd" fill="#EAEAEA"><path d="M87.33 22.773c.023 12.885-10.458 22.958-22.827 22.939-12.627-.016-22.891-10.226-22.896-22.818C41.602 10.258 51.796.025 64.412 0c12.65-.028 22.893 10.153 22.918 22.773zm-43.719.059C43.6 34.391 53.14 43.686 64.456 43.676c11.477-.01 20.84-9.315 20.854-20.754.014-11.531-9.343-20.971-20.827-20.92-11.666.05-20.865 9.527-20.872 20.83zM7.959 57.122c1.125.811 1.385 1.846 1.015 3.001-.375 1.163-1.257 1.794-2.459 1.982-2.005.312-4.024.072-6.035.14-.72.026-.418-.431-.344-.772.644-2.927 1.302-5.849 1.918-8.78.12-.574.352-.782.937-.764 1.287.037 2.575 0 3.863.014 1.753.02 2.78.667 3.115 1.93.323 1.218-.292 2.272-2.01 3.249zm-3.592 3.29a.123.123 0 0 1 .002.027c.512-.033 1.041.011 1.525-.116.74-.191 1.186-.705 1.063-1.517-.113-.746-.677-.912-1.331-.908-.471.003-.941 0-1.412 0-1.196.007-1.622.467-1.565 1.977.044 1.15 1.004.253 1.465.53.064.038.167.007.253.007zm-.786-4.357c1.045 0 1.986.017 2.926-.006.709-.019 1.092-.446 1.197-1.116.085-.553-.238-.905-.708-1.09-1.855-.725-3.161.042-3.415 1.986-.006.042 0 .085 0 .226zm50.134-.752c-.385 1.753-.762 3.44-1.126 5.128-.432 1.989-.429 1.989-2.526 1.704.686-3.132 1.359-6.26 2.06-9.383.082-.369.068-.947.732-.807.673.145 1.522-.445 1.97.636.734 1.777 1.577 3.512 2.387 5.258.136.285.158.659.626.859.459-2.018.976-3.984 1.339-5.983.255-1.406 1.281-.739 1.89-.711.707.034.249.723.167 1.1a532.409 532.409 0 0 1-1.838 8.267c-.08.342.09.996-.627.869-.644-.114-1.461.432-1.887-.582-.726-1.732-1.516-3.44-2.319-5.142-.189-.395-.248-.902-.848-1.213zm78.257 3.082h-2.562c-.129-1.526.543-2.059 1.944-1.85.502.076 1.027.013 1.544.013 1.696 0 1.617-.011 1.384 1.671-.47 3.374-1.776 3.819-4.38 4.221-2.044.316-4.205-.897-4.995-2.653-.912-2.026-.315-4.801 1.372-6.386 2.305-2.165 6.193-2.251 7.988-.141.221.257.912.636.335.985-.521.315-1.123 1.04-1.898.418-1.586-1.269-2.636-1.419-4.07-.557-1.39.838-2.15 2.596-1.825 4.221.406 2.026 2.901 2.963 4.569 1.743.583-.425.544-1.008.594-1.685zm-91.655-6.698c2.854-.019 5.067 2.057 5.045 4.723-.026 3.349-2.762 6.111-6.034 6.097-2.886-.013-5.066-2.056-5.046-4.722.027-3.357 2.72-6.077 6.035-6.098zm-3.713 5.846c-.022 1.84 1.117 3.075 2.859 3.096 1.913.024 3.547-1.791 3.575-3.971.022-1.812-1.15-3.08-2.865-3.099-1.918-.017-3.54 1.79-3.569 3.974zm77.025-1.105c-.046 3.358-2.791 6.114-6.054 6.078-2.899-.031-5.063-2.074-5.028-4.744.046-3.363 2.751-6.076 6.058-6.075 2.858 0 5.063 2.08 5.024 4.741zm-8.756 1.119c-.021 1.836 1.127 3.071 2.869 3.082 1.916.014 3.539-1.801 3.563-3.981.02-1.811-1.162-3.08-2.876-3.088-1.919-.008-3.533 1.799-3.556 3.987zm8.955 4.577c.706-3.21 1.416-6.414 2.106-9.624.092-.417.286-.571.696-.563 1.411.028 2.832-.058 4.229.086 1.621.168 2.616 1.182 2.795 2.554.164 1.269-.622 2.788-1.932 3.327-.898.368-1.009.766-.621 1.581.363.768.592 1.601.875 2.405.028.078.024.168.038.272-.119.027-.234.058-.351.081-1.462.281-2.34-.22-2.511-1.788-.056-.499-.317-.971-.438-1.467-.177-.732-.742-.526-1.229-.583-.533-.06-.781.167-.877.666-.094.505-.224 1-.331 1.501-.395 1.864-.393 1.864-2.449 1.552zm3.353-5.548c.768 0 1.441.003 2.117 0 .212 0 .429.016.638-.022.841-.156 1.428-.585 1.409-1.521-.019-.935-.659-1.194-1.456-1.252-1.995-.151-1.995-.152-2.474 1.821-.061.244-.117.491-.234.974zm-25.145-.289c.889-.974 1.85-1.895 2.65-2.938 1.036-1.361 2.342-1.662 4.07-1.291-1.48 1.396-2.85 2.775-4.323 4.032-.657.56-.596.942-.199 1.583.893 1.446 1.713 2.938 2.58 4.442-2.336.339-2.335.336-3.388-1.617-.362-.677-.737-1.349-1.11-2.021-.061-.108-.141-.205-.221-.317-1.273.488-1.437 1.68-1.529 2.736-.116 1.33-.81 1.482-1.871 1.364-.397-.044-.629-.039-.509-.569.696-3.037 1.305-6.1 2.054-9.123.316-1.272 1.442-.327 2.284-.723l-.865 4.12c.128.108.252.215.377.322zM78.822 62.25c-.521 0-.987-.04-1.444.01-.646.069-.944-.139-.907-.818.049-.837-.394-1.084-1.189-1.01-.725.07-1.467.088-2.184-.003-1.074-.135-1.746.201-2.201 1.227-.542 1.221-1.685.301-2.491.624-.205-.465.136-.685.299-.953 1.729-2.854 3.536-5.661 5.175-8.564.758-1.34 1.866-.775 2.818-.771.792.002.55.9.643 1.435.501 2.897.976 5.8 1.481 8.823zm-6.136-3.761c3.406.263 3.411.263 3.032-2.88-.062-.513-.18-1.02-.318-1.772l-2.714 4.652zm-39.69 2.126c-1.626 1.722-3.606 2.217-5.844 1.614-1.917-.516-3.038-1.813-3.372-3.791-.382-2.278.942-4.858 3.118-6.013 2.175-1.155 4.937-.871 6.457.673.388.394.935.869.797 1.38-.148.546-.946.415-1.422.663-.349.181-.484.031-.713-.23-1.147-1.328-2.103-1.614-3.477-1.114-1.439.523-2.432 1.94-2.497 3.568-.1 2.552 2.166 4.128 4.265 2.791 1.221-.776 1.878-.453 2.688.459zm-16.213 1.534c.524-2.414.99-4.84 1.598-7.228.262-1.031-.093-1.204-.959-1.109-.211.022-.448.06-.639-.011-.373-.14-1.215.45-1.045-.552.097-.571-.06-1.376 1.066-1.339 2.434.088 4.873.029 7.322.029-.249 1.871-.254 1.942-2.07 1.847-1.027-.056-1.418.304-1.591 1.27-.323 1.805-.753 3.592-1.137 5.387-.416 1.952-.416 1.952-2.545 1.706zm46.885 0c.525-2.414.989-4.84 1.598-7.226.263-1.033-.093-1.206-.958-1.111-.21.022-.449.06-.639-.011-.371-.14-1.214.45-1.045-.552.096-.571-.062-1.376 1.063-1.339 2.437.088 4.877.029 7.324.029-.248 1.871-.252 1.944-2.066 1.847-1.031-.056-1.421.305-1.593 1.27-.327 1.805-.754 3.592-1.139 5.387-.416 1.952-.414 1.952-2.545 1.706zm16.447.101c.709-3.237 1.403-6.359 2.078-9.484.338-1.571 1.5-.514 2.351-.875-.565 2.601-1.048 5.06-1.652 7.489-.22.881.033 1.047.819 1.002a17.952 17.952 0 0 1 2.308.011c.313.025 1-.354.868.441-.09.538.211 1.414-.84 1.414-1.96.004-3.92.002-5.932.002zM14.646 52.048c-.705 3.164-1.435 6.317-2.098 9.483-.269 1.282-1.22.689-1.835.672-.888-.02-.281-.685-.211-1.028.521-2.514 1.079-5.018 1.624-7.526.403-1.858.403-1.858 2.52-1.601zm35.292 0c-.702 3.164-1.435 6.317-2.096 9.483-.271 1.282-1.222.689-1.834.672-.888-.02-.281-.685-.212-1.028.519-2.514 1.077-5.018 1.623-7.526.403-1.858.403-1.858 2.519-1.601zm50.554 9.09c-.134.753-.558 1.287-1.321 1.335-.693.042-1.139-.444-1.138-1.116.004-.769.454-1.298 1.269-1.318.707-.02 1.058.437 1.19 1.099z"/><path d="M48.11 22.766c-.109-8.074 6.154-15.272 14.214-16.159 5.263-.578 9.955.808 13.748 4.639 3.228 3.261 4.842 7.226 4.815 11.821-.053 8.962-7.544 16.28-16.557 16.206-9.025-.073-16.266-7.44-16.22-16.507zm23.189-.943c1.837-1.194 2.497-2.804 2.077-4.741-.388-1.806-1.878-2.573-3.456-3.135a7.501 7.501 0 0 0-1.752-.388c-.737-.073-1.066-.357-1-1.143.066-.766-.027-1.545.027-2.314.051-.703-.245-.861-.893-.873-1.598-.032-1.596-.064-1.596 1.57 0 .472-.008.942.002 1.416.012.608.116 1.154-.858 1.163-.95.009-1.054-.412-1.004-1.158.042-.641-.06-1.297.026-1.929.136-1.041-.442-1.091-1.223-1.06-.699.029-1.41-.125-1.276 1.003.09.762-.013 1.545.024 2.315.033.624-.224.819-.824.802-1.159-.033-2.318-.019-3.477-.005-.318.005-.679-.108-.861.348-.496 1.248.113 2.188 1.459 2.202 1.612.019 1.781.183 1.783 1.762.004 3.392.004 6.783 0 10.172-.002 1.626-.143 1.746-1.758 1.797-.424.014-.975-.246-1.223.387-.534 1.37.046 2.269 1.462 2.271h.515c2.898 0 2.934 0 2.895 2.944-.014.92.168 1.258 1.181 1.268 1.089.007 1.462-.325 1.318-1.376-.066-.463.012-.943-.018-1.415-.042-.713-.004-1.204.981-1.186.948.019.896.532.878 1.157-.015.604.061 1.213-.017 1.804-.133 1.002.46 1.021 1.164.977.638-.042 1.438.256 1.344-.933-.078-.981-.349-2.201.108-2.899.519-.798 1.879-.378 2.86-.582 2.631-.55 4.28-2.218 4.56-4.728.309-2.734-.557-4.169-3.428-5.493z"/><path d="M62.856 26.57c0-2.788 0-2.8 2.802-2.766.724.008 1.463.034 2.161.201 1.088.264 2.005.779 2.066 2.105.063 1.391-.573 2.448-1.845 2.915-1.531.564-3.136.282-4.709.323-.508.016-.475-.381-.475-.725-.002-.683 0-1.366 0-2.053zm0-8.035c.128-.716-.416-2.022.223-2.291 1.132-.479 2.519-.274 3.766.086 1.884.545 2.446 2.573 1.151 4.055-.437.5-.983.813-1.658.859-.298.019-.597.009-.896.009-2.586.004-2.586.004-2.586-2.718z"/></g></svg>