<svg xmlns="http://www.w3.org/2000/svg" width="38.375" height="38.375" viewBox="61.916 22.357 38.375 38.375"><path fill-rule="evenodd" clip-rule="evenodd" fill="#EAEAEA" d="M61.916 54.97V28.12c.036-.137.076-.272.107-.409.61-2.622 2.208-4.326 4.77-5.131.29-.092.591-.149.886-.223h26.85c.076.023.152.053.23.069 2.757.584 4.538 2.226 5.341 4.926.075.253.128.512.191.768v26.85c-.026.097-.059.191-.08.289-.598 2.714-2.226 4.474-4.887 5.275-.261.079-.53.133-.796.198h-7.417c-.01-.11-.026-.222-.026-.333-.002-4.587-.002-9.174-.002-13.761v-.398h.395c1.88 0 3.759-.005 5.639.006.271.002.367-.059.364-.352-.013-1.9-.006-3.801-.007-5.701 0-.108-.009-.217-.016-.365H87.11c0-.989-.045-1.941.013-2.887.058-.902.629-1.365 1.521-1.365l4.414-.001c.13 0 .259-.014.394-.021v-6.379h-.325c-1.563 0-3.126.001-4.689-.001a6.4 6.4 0 0 0-3.787 1.196c-1.938 1.374-3.062 3.273-3.41 5.587-.172 1.153-.099 2.342-.135 3.515-.004.117-.001.235-.001.383h-4.674c-.009.101-.021.171-.021.239-.001 1.952.004 3.903-.007 5.854-.001.264.11.297.328.296 1.329-.007 2.656-.003 3.984-.003h.39v14.491H67.68c-.087-.024-.172-.056-.26-.074-2.729-.59-4.499-2.22-5.305-4.893-.08-.26-.133-.53-.199-.795z"/></svg>