<svg xmlns="http://www.w3.org/2000/svg" width="37.963" height="37.963" viewBox="32.322 -23.941 37.963 37.963"><path fill="#EAEAEA" d="M66.735-23.941H35.872a3.555 3.555 0 0 0-3.551 3.55v30.862a3.555 3.555 0 0 0 3.551 3.551h30.862a3.555 3.555 0 0 0 3.55-3.551v-30.862a3.554 3.554 0 0 0-3.549-3.55zM44.845 5.374a181.625 181.625 0 0 0-4.043 0c-.255 0-.324-.071-.324-.339V-9.249c0-.267.084-.339.339-.339 1.337.016 2.689.016 4.028 0 .267 0 .337.086.323.339v7.155c0 2.382 0 4.762.014 7.142 0 .254-.085.326-.337.326zm-2.016-16.876c-1.493.015-2.718-1.239-2.718-2.719.014-1.423 1.099-2.705 2.704-2.719 1.521-.013 2.733 1.142 2.733 2.719.001 1.55-1.183 2.704-2.719 2.719zM62.072 5.374h-3.958c-.323 0-.339-.015-.339-.353v-7.24c0-.677-.014-1.353-.211-2.015-.31-1.027-.973-1.521-2.057-1.549-.76-.015-1.478.127-2.014.719-.436.465-.619 1.026-.705 1.647a16.54 16.54 0 0 0-.098 1.676 512.121 512.121 0 0 0 0 6.789c0 .254-.072.325-.311.325a183.97 183.97 0 0 0-4.069 0c-.24 0-.326-.071-.326-.325.015-4.76.015-9.535 0-14.312 0-.252.1-.324.326-.324 1.295.016 2.591.016 3.886 0 .255 0 .339.1.325.339-.014.521 0 1.057 0 1.577.732-1.084 1.72-1.774 2.957-2.084 1.438-.352 2.859-.239 4.212.352 1.311.563 2.015 1.635 2.381 2.959.254.858.367 1.747.381 2.647.015 2.917.028 5.832.042 8.762 0 .41 0 .41-.422.41z"/></svg>