<svg xmlns="http://www.w3.org/2000/svg" width="38.391" height="38.38" viewBox="35.538 1.663 38.391 38.38"><g fill="#EAEAEA"><path d="M73.929 20.784c.019 10.818-8.78 19.275-19.166 19.259-10.602-.013-19.22-8.585-19.225-19.157-.003-10.61 8.556-19.202 19.148-19.223 10.621-.023 19.222 8.525 19.243 19.121zm-36.708.049c-.008 9.705 8.001 17.51 17.503 17.501 9.636-.008 17.497-7.82 17.509-17.425.012-9.683-7.845-17.608-17.486-17.565-9.796.042-17.519 8-17.526 17.489z"/><path d="M40.999 20.777c-.092-6.779 5.167-12.822 11.935-13.566 4.418-.486 8.357.678 11.542 3.895 2.711 2.737 4.066 6.067 4.044 9.925-.045 7.525-6.335 13.67-13.902 13.607-7.578-.062-13.658-6.248-13.619-13.861zm19.47-.792c1.542-1.002 2.097-2.353 1.744-3.979-.326-1.518-1.577-2.162-2.902-2.632a6.287 6.287 0 0 0-1.471-.327c-.619-.061-.895-.3-.84-.959.055-.643-.021-1.297.022-1.943.043-.59-.205-.723-.75-.732-1.341-.026-1.339-.055-1.339 1.318 0 .396-.007.79.001 1.188.01.51.098.97-.72.976-.799.009-.886-.346-.843-.973.034-.537-.051-1.089.021-1.618.113-.874-.371-.917-1.026-.891-.588.024-1.185-.104-1.072.843.075.64-.011 1.298.021 1.943.028.523-.188.688-.692.674-.973-.027-1.946-.016-2.919-.005-.267.005-.57-.09-.723.292-.417 1.048.095 1.837 1.225 1.85 1.354.016 1.496.153 1.497 1.479.004 2.847.004 5.695 0 8.541-.001 1.364-.12 1.466-1.476 1.509-.356.011-.819-.207-1.027.324-.448 1.149.038 1.905 1.228 1.907h.433c2.433 0 2.464 0 2.431 2.472-.012.772.141 1.056.991 1.063.914.007 1.228-.271 1.106-1.154-.056-.389.011-.792-.016-1.188-.034-.599-.003-1.011.824-.996.797.017.752.446.737.972-.013.508.051 1.02-.015 1.515-.111.842.387.857.978.82.536-.034 1.208.215 1.129-.782-.065-.825-.293-1.849.091-2.436.436-.669 1.578-.316 2.401-.488 2.209-.461 3.593-1.861 3.829-3.969.26-2.296-.468-3.501-2.878-4.614z"/><path d="M53.38 23.973c0-2.342 0-2.353 2.353-2.322.607.006 1.229.027 1.814.167.914.223 1.684.654 1.734 1.768.054 1.168-.481 2.057-1.549 2.448-1.286.473-2.634.236-3.954.271-.426.014-.398-.319-.398-.608v-1.724zm0-6.747c.106-.602-.349-1.697.188-1.924.95-.401 2.115-.23 3.161.072 1.583.458 2.055 2.16.967 3.404-.366.42-.825.683-1.393.722-.25.017-.5.007-.751.007-2.172.003-2.172.003-2.172-2.281z"/></g></svg>