<svg xmlns="http://www.w3.org/2000/svg" width="115.532" height="62.021" viewBox="5.185 0 115.532 62.021"><g fill-rule="evenodd" clip-rule="evenodd" fill="#EAEAEA"><path d="M109.03 22.805v-.632l-.246.23.246.402z"/><path d="M67.265 20.388c13.432.025 26.865.017 40.298.021.445 0 .891.043 1.468.074v1.69l11.687-10.911L108.898 0v2.443h-1.784c-16.865 0-33.73.006-50.595-.018-.856-.001-1.358.253-1.842.981-4.663 7.016-9.37 14.004-14.068 20.998-.241.36-.512.7-.836 1.141-5.073-7.451-10.036-14.723-14.96-22.021-.458-.679-.922-.933-1.738-.927-5.551.037-11.102.019-16.653.019H5.185v59.316h19.039V37.994l.308-.08 14.707 23.224c.311-.429.538-.718.74-1.024 8.49-12.909 16.983-25.815 25.446-38.742.478-.73.982-.986 1.84-.984z"/><path d="M70.354 24.187c-.509.001-1.207.398-1.495.827-3.523 5.232-7 10.496-10.445 15.781a3.664 3.664 0 0 0-.557 1.868c-.045 4.787-.025 9.576-.025 14.364v4.994h51.608v-16.67H73.406v-4.047h36.036V24.229c-.371-.03-.661-.075-.95-.075-12.712-.003-25.425-.012-38.138.033z"/></g></svg>