<svg xmlns="http://www.w3.org/2000/svg" width="134.713" height="34.937" viewBox="0 0 134.713 34.937"><g fill="#EAEAEA"><path d="M67.202 9.986c-.806-.322-1.506-.434-2.408-.381-2.411.14-4.552 1.743-6.094 4.563-.256.467-.521.851-.588.853-.1 0-.111-.538-.059-2.678l.067-2.677-.234.056c-.129.031-2.07.424-4.313.874-4.813.966-5.481 1.106-5.596 1.178-.048.029-.087.202-.087.386 0 .366-.042.345 1.05.521 1.503.243 2.034.976 2.259 3.118.291 2.793.176 13.682-.163 15.169-.173.759-.621 1.491-1.069 1.752-.167.097-.69.251-1.165.345l-.862.167-.03.511-.028.51h14.287V33.2l-.752-.064c-1.737-.146-2.212-.32-2.669-.978-.66-.95-.805-2.706-.805-9.821v-5.552l.241-.256c.304-.324 1.254-.776 1.926-.914 1.363-.286 3.105-.04 4.469.628.392.192.729.335.748.313.04-.041 2.281-5.958 2.349-6.208.031-.113-.097-.21-.474-.362z"/><path d="M83.766 10.148c-1.903-.395-4.352-.085-6.212.787-.464.217-.908.395-.986.395-.126 0-.139-.719-.107-5.665L76.496 0l-.389.078c-.215.044-2.4.45-4.858.904-2.456.456-4.563.85-4.68.878-.18.042-.21.109-.19.413.021.34.049.37.407.449 1.231.271 1.45.367 1.908.84.561.579.814 1.319.979 2.863.133 1.229.162 22.425.036 25.553l-.075 1.854 1.002.216c3.793.811 7.572 1.091 9.938.736 2.95-.442 5.114-1.457 6.946-3.253 2.65-2.599 3.926-6.263 3.753-10.781-.089-2.325-.468-3.845-1.433-5.729-1.305-2.554-3.539-4.345-6.074-4.873zm.224 15.116c-.446 2.829-1.259 5.014-2.39 6.426-.55.684-1.459 1.33-2.172 1.542-.458.137-1.443.169-2.319.076-.197-.021-.408-.099-.468-.17-.165-.201-.346-13.385-.235-17.242l.089-3.06.775-.224c1.146-.331 2.382-.279 3.256.135 1.757.833 2.911 2.89 3.512 6.256.194 1.096.165 4.905-.048 6.261zM19.579 2.93l.831.297c1.921.688 3.305 2.094 4.459 4.533.261.549.594 1.346.74 1.774.147.428.277.79.289.806.013.018.331-.063.71-.177l.686-.209-.047-3.173a283.281 283.281 0 0 0-.105-4.654l-.056-1.48H0l.028.606.03.607.874.11c1.166.146 1.594.272 2.063.613.712.515 1.15 1.272 1.425 2.465.429 1.854.582 6.034.511 13.858-.075 8.268-.18 9.987-.706 11.655-.434 1.371-1.24 2.099-2.574 2.318-.365.061-.886.158-1.154.216L.01 33.2v1.052h17.385v-.534h-.001c0-.294-.025-.535-.057-.535-.463 0-2.62-.464-2.967-.639-1.233-.621-1.803-2.097-2.026-5.241-.155-2.236-.313-8.803-.211-8.905.093-.091 4.197.072 4.678.187 1.328.318 2.35 1.623 2.862 3.652l.227.894.593.03.593.028V11.913h-.632c-.59 0-.631.014-.631.219 0 .368-.368 1.532-.718 2.268-.546 1.149-1.314 1.844-2.294 2.069-.24.055-1.375.145-2.521.197-1.616.075-2.102.07-2.162-.022-.112-.169.144-12.955.272-13.55l.048-.225 3.566.029 3.565.032zm24.366 9.565c-2.021-1.904-4.564-2.816-7.855-2.816-3.486 0-6.294 1.081-8.455 3.257-2.314 2.328-3.539 5.577-3.539 9.391 0 3.956 1.105 7.149 3.252 9.388 1.182 1.233 2.333 1.975 3.985 2.561.583.209 1.011.308 2.572.599.134.023 1.029.027 1.99.01 1.303-.026 1.96-.085 2.575-.228 1.723-.403 3.097-1.017 4.324-1.935 2.987-2.23 4.624-5.65 4.775-9.978.151-4.267-1.137-7.905-3.624-10.249zm-3.536 12.901c-.32 4.532-1.305 6.99-3.14 7.844-.665.312-1.841.327-2.485.036-1.594-.726-2.726-2.925-3.292-6.405-.359-2.206-.395-7.114-.066-9.518.46-3.377 1.432-5.371 2.944-6.045 1.036-.464 2.474-.189 3.398.645 2.052 1.854 3.087 7.126 2.641 13.443zm68.505-15.129c-1.132-.413-2.204-.588-3.617-.588-3.344 0-6.076 1.098-8.188 3.29-1.686 1.748-2.686 3.712-3.296 6.472-.184.831-.215 1.265-.215 3.01 0 1.734.031 2.183.21 2.984 1.133 5.095 4.484 8.448 9.3 9.309 1.219.217 3.018.233 4.222.038 2.25-.365 4.466-1.444 6.059-2.953.873-.826 1.162-1.226 1.041-1.434-.323-.558-.31-.558-1.136-.049-1.316.809-1.977 1.032-3.522 1.189-1.807.187-3.473-.115-5.012-.908-1.022-.524-2.246-1.733-2.858-2.819-.834-1.482-1.287-3.213-1.423-5.439-.057-.935-.044-1.167.065-1.236.074-.049 3.313-.088 7.25-.089l7.115-.001v-.28c0-.639-.21-2.355-.398-3.256-.756-3.621-2.752-6.202-5.597-7.24zm-1.981 9.063c-2.027.112-6.381.171-6.435.085-.073-.119.108-1.848.288-2.742.432-2.158 1.125-3.718 2.077-4.678.512-.516.746-.677 1.164-.801.287-.086.613-.155.724-.155.445.001.972.229 1.363.59 1.05.968 1.651 3.048 1.771 6.126l.059 1.519-1.011.056zm21.572.403c-2.545-1.076-4.07-1.987-4.695-2.808-.516-.676-.684-1.197-.678-2.1.012-1.359.527-2.402 1.512-3.053.825-.544 1.858-.677 3.062-.394 1.454.343 2.548 1.236 3.535 2.885.313.524.96 1.999 1.274 2.909.05.142.106.147.444.047.214-.063.419-.146.456-.181.035-.038.034-1.429-.006-3.093l-.072-3.025-.353-.15c-.594-.25-2.146-.673-3.169-.861-.768-.142-1.446-.178-3.254-.176-2.157.003-2.333.018-3.224.259-2.59.702-4.509 2.163-5.512 4.195-.533 1.079-.718 1.911-.711 3.213.008 1.846.512 3.211 1.625 4.402.958 1.025 2.204 1.757 4.325 2.54 1.669.616 3.393 1.478 4.046 2.021.384.32.685.684.91 1.1.319.589.337.668.337 1.591 0 .891-.025 1.025-.309 1.623-.737 1.559-2.214 2.331-4.148 2.173-2.627-.215-4.477-1.952-5.983-5.621-.393-.956-.42-.976-1.017-.749l-.274.104.069 3.422c.061 3.035.087 3.435.231 3.545.432.331 3.227.995 5.166 1.227 1.507.18 3.815.187 4.954.013 4.127-.627 6.791-2.839 7.49-6.22.337-1.634.179-3.449-.405-4.662-.817-1.702-2.199-2.727-5.626-4.176z"/></g></svg>