<svg xmlns="http://www.w3.org/2000/svg" width="225.364" height="62.056" viewBox="-18.502 0 225.364 62.056"><g fill="#EAEAEA"><path d="M205.718 21.271c-4.412.007-8.822.019-13.231-.011-.726-.004-.981.183-.952.935a48.976 48.976 0 0 1 0 4.198c-.035.775.258.953.963.908.871-.054 1.751.04 2.62-.029.816-.066 1.056.184 1.048 1.025-.046 4.131-.004 8.262-.037 12.393-.007.728.178.971.925.938 1.363-.06 2.735-.07 4.094.005.854.043 1.128-.172 1.115-1.076-.052-4.129-.008-8.263-.037-12.392-.002-.661.139-.926.857-.892 1.258.059 2.52.015 3.78.015v-6.094c-.382.026-.763.077-1.145.077zm-44.788-5.162c-2.588.016-5.18.07-7.768-.023-1.072-.039-1.51.298-1.804 1.316-.702 2.452-1.543 4.867-2.394 7.499-.155-.45-.243-.675-.312-.907-.702-2.377-1.409-4.754-2.091-7.136-.126-.437-.231-.755-.803-.752-3.182.022-6.364.011-9.646.011.396 1.446 12.288 30.373 12.765 31.069.066-.081.151-.145.187-.228 4.141-10.038 8.276-20.083 12.43-30.117.289-.698 0-.735-.564-.732zm-35.567 4.238c-6.11.049-10.79 4.638-10.794 10.635-.003 6.053 4.667 10.736 10.687 10.725 5.991-.015 10.605-4.658 10.605-10.671.362-5.102-4.277-10.738-10.498-10.689zm-.227 15.219c-2.438-.029-4.303-2.03-4.284-4.598.019-2.504 1.991-4.527 4.41-4.52 2.386.008 4.348 2.085 4.338 4.593-.011 2.604-1.934 4.553-4.464 4.525zM59.849 32.25c2.026-1.942 2.508-4.323 1.632-6.929-.88-2.615-2.853-3.993-5.538-4.339-2.962-.383-5.943-.094-8.916-.182-.733-.023-.643.471-.643.919-.002 6.196.01 12.394-.015 18.59-.002.71.237.888.909.865 1.364-.048 2.732-.068 4.095.004.922.048 1.245-.171 1.23-1.179-.064-4.131-.029-8.263-.027-12.394.001-1.263.001-1.263 1.299-1.144 1.361.124 1.896.651 1.733 1.695-.147.929-.836 1.174-1.611 1.177-.63.004-.781.26-.737.818.035.453-.017.911.013 1.365.07 1.145-.265 2.337.184 3.43.785 1.906 1.669 3.77 2.514 5.653.126.276.223.568.646.566 1.983-.017 3.966-.009 6.091-.009-1.078-2.58-2.082-5.029-3.133-7.462-.257-.592-.22-.973.274-1.444zm29.449-11.878c-3.862-.188-7.252 2.198-7.923 5.643-.494 2.531-.085 5.101-.219 7.178 0 2.716.017 4.957-.015 7.197-.004.579.15.798.76.781 1.436-.039 2.875-.068 4.309.008.872.046 1.107-.204 1.095-1.084-.05-4.1-.024-8.196-.019-12.294 0-.821.302-1.474 1.219-1.542.68-.052 1.264.155 1.354.979.104.917-.38 1.403-1.229 1.49-.491.051-.55.279-.545.676.012 1.4.014 2.801 0 4.203-.007.432.123.586.586.628 4.813.43 7.989-2.762 7.465-7.529-.39-3.545-3.211-6.158-6.838-6.334zm82.464 6.921c1.084-.014 2.171-.038 3.255.009.615.026.769-.198.756-.779a103.059 103.059 0 0 1-.002-4.517c.011-.53-.135-.75-.702-.741-1.682.03-3.364-.059-5.042.029-3.846.205-5.864 2.295-5.998 6.148-.043 1.293-.006 2.591-.006 3.888-.002 1.33-.029 2.66.004 3.99.093 3.646 1.89 5.796 5.403 6.182 1.904.213 3.846.068 5.771.116.605.015.563-.355.56-.752-.002-1.471-.024-2.943.013-4.414.015-.589-.157-.791-.762-.771a73.283 73.283 0 0 1-3.78-.004c-.582-.015-1.156-.12-1.167-.9-.006-.818.541-.969 1.198-.973 1.121-.002 2.243-.025 3.362.008.531.017.748-.124.728-.696a44.748 44.748 0 0 1-.003-3.256c.02-.544-.148-.744-.708-.724-.979.034-1.962.042-2.939-.022-.569-.037-1.293-.073-1.245-.937.041-.805.684-.876 1.304-.884zm-58.906-5.5c.033-.77-.174-1.03-.985-1.009-2.238.057-4.478.019-6.717.019h-5.039c-2.663 0-2.68.001-2.654 2.662.01 1.077-.455 2.463.188 3.146.648.69 2.056.243 3.119.198.977-.042 1.303.184 1.284 1.24-.067 4.059-.01 8.118-.043 12.177-.006.724.174.983.928.95a45.169 45.169 0 0 1 4.196.002c.872.046 1.116-.21 1.105-1.093-.05-4.059.004-8.12-.043-12.179-.011-.894.26-1.158 1.119-1.083.834.072 1.681-.032 2.518.028.754.056 1.07-.133 1.026-.965-.07-1.36-.061-2.73-.002-4.093zm-34.129-.98c-1.365-.022-2.73.027-4.096-.025-.65-.025-1.021.22-1.351.747-.7 1.115-1.456 2.193-2.251 3.381-.791-1.265-1.502-2.387-2.198-3.516-.208-.337-.406-.612-.882-.606-1.849.024-3.699.01-5.787.01 1.847 2.886 3.553 5.567 5.281 8.233.376.579.556 1.159.55 1.859-.033 3.116.01 6.233-.031 9.348-.011.742.206.959.939.932a56.887 56.887 0 0 1 4.41 0c.725.031.878-.235.871-.895-.028-3.116.002-6.233-.022-9.35a3.2 3.2 0 0 1 .541-1.863c1.56-2.406 3.088-4.834 4.618-7.26.161-.255.511-.515.359-.82-.189-.378-.627-.17-.951-.175zm110.716.458c-.758-.632-1.923-.542-2.937-.443-.977.096-1.917.354-2.778.869-3.203 1.917-4.42 5.541-3.021 9.22.396 1.04.993 2.001 1.443 3.023.401.907.021 1.641-.898 1.997-.782.302-1.421-.091-2.257-.441 0 1.638-.003 3.138 0 4.635 0 1.479.049 1.563 1.503 1.847 2.904.57 5.354-.277 7.213-2.558 1.861-2.29 1.938-4.861.812-7.502-.367-.864-.9-1.656-1.308-2.505-.304-.63-.336-1.293.137-1.878.467-.574 1.062-.766 1.78-.518.126.043.272.024.498.04 0-1.18.026-2.33-.009-3.479-.024-.79.376-1.845-.178-2.307zm-162.32 9.578a194.774 194.774 0 0 1-6.708-.207c-1.019-.053-1.765.006-1.719 1.332.016.494-.251 1.009-.433 1.497-1.65 4.425-7.147 4.311-9.324 1.843-1.486-1.684-1.87-3.609-1.728-5.736.268-4.012 4.122-6.718 7.78-5.454 1.767.61 2.734 1.979 3.371 3.637.187.486.35.826 1.013.765 2.575-.239 5.153-.412 7.731-.605.373-.029.798.089.625-.59-1.091-4.242-3.035-7.942-7.026-10.094-1.318-.712-1.61-1.51-1.54-2.853.105-2.012.026-2.029-1.982-2.01-.762.007-1.712-.313-2.235.14-.497.431-.159 1.387-.152 2.109.004.57-.201.715-.732.696-.907-.032-1.844-.141-2.714.039-1.057.219-1.266-.054-1.221-1.077.088-1.911.025-1.914-1.877-1.914-2.509 0-2.509 0-2.509 2.463 0 .56-.023 1.122.008 1.68.023.43-.121.678-.496.926-4.877 3.237-7.247 7.777-7.084 13.649.138 4.989 2.204 8.977 6.245 11.854 1.01.717 1.408 1.38 1.357 2.597-.103 2.342-.029 2.345 2.281 2.345 1.962 0 1.963.004 2.101-1.926.022-.308-.056-.645.48-.537 1.455.29 2.929.168 4.394.092.489-.027.631.086.595.541-.021.278.036.565-.011.838-.15.874.268 1.111 1.047.998.171-.024.35 0 .525-.006.904-.019 2.104.301 2.636-.155.623-.535.187-1.774.195-2.704.006-.645.137-1.036.752-1.419 4.464-2.764 6.26-7.119 7.039-12.059.087-.567-.155-.687-.684-.695z"/><path d="M12.526 0C-4.583 0-18.502 13.919-18.502 31.028s13.919 31.028 31.028 31.028 31.028-13.919 31.028-31.028S29.635 0 12.526 0zm22.847 30.887c-.027 12.685-10.189 22.677-23.048 22.669C.063 53.55-10.021 43.303-10.021 30.849A22.632 22.632 0 0 1 12.676 8.162c12.537.002 22.725 10.203 22.697 22.725z"/></g></svg>