<svg xmlns="http://www.w3.org/2000/svg" width="122.088" height="62.021"><path d="M28.07 1.238c-.316 2.821-.807 5.622-.595 8.49.335 4.525 2.576 8.342 4.448 12.294 2.907 6.142 6.082 12.162 8.344 18.593a30.245 30.245 0 0 1 1.236 4.648c.295 1.625-.023 3.087-.8 4.458-2.522 4.469-5.941 8.188-9.834 11.486-.44.373-.987 1.058-1.577.727-.8-.45-.182-1.256-.025-1.839.604-2.266 1.383-4.48 1.744-6.813.644-4.16-1.014-7.774-2.689-11.367-3.084-6.607-6.594-13.022-9.128-19.874-1.274-3.443-3.012-6.948-1.533-10.736 1.81-4.64 5.24-8.021 9.187-10.916.287-.21.583-.5.998-.344.236.09.257.277.224 1.193zM49.137 55.52c-.402-1.155.078-1.942.356-2.721 1.564-4.358 1.312-8.5-.782-12.71-2.582-5.191-5.251-10.352-7.339-15.778-2.825-7.334-2.169-10.221 3.707-15.55.842-.765 1.858-2.257 2.763-1.793.979.503.137 2.108.021 3.218-.373 3.582.086 6.971 1.68 10.265a732.472 732.472 0 0 1 7.708 16.422c2.318 5.108 1.658 9.372-2.243 13.309-1.843 1.858-3.47 3.94-5.871 5.338zm-39.803-.194c-.375-.91.068-1.671.345-2.375 1.828-4.627 1.287-8.991-.953-13.383-2.438-4.78-4.828-9.596-6.841-14.584-.07-.172-.14-.344-.207-.515C-1.195 17.207-.582 14.374 5.103 9c.918-.867 1.977-2.474 3.031-2.004.927.412.128 2.216-.02 3.388-.493 3.944.425 7.559 2.153 11.099 2.842 5.816 5.815 11.575 8.019 17.694 1.181 3.277.87 6.094-1.321 8.826-1.783 2.223-3.596 4.401-5.764 6.261-.539.463-1.051 1.042-1.867 1.062zM99.313 31.24c0-.555-.014-1.11.003-1.666.042-1.363-.438-3.154 2.15-2.002.66.296 1.739-1.027 2.574-.545 1.399.81 2.544.554 3.943.02 1.383-.527 2.695.551 2.808 2.124.114 1.598.03 3.208.04 4.813.004.72-.354 1.276-1.033 1.299-.816.025-1.133-.618-1.14-1.386-.009-1.172-.01-2.346-.004-3.518.002-.721-.053-1.477-.991-1.438-.833.032-1.597.363-1.612 1.412-.016 1.048-.01 2.1-.007 3.147 0 .81.086 1.808-1.047 1.776-1.11-.03-.999-1.054-1.013-1.847-.019-.986.011-1.976-.016-2.962-.02-.762-.08-1.605-1.135-1.526-.884.067-1.483.563-1.476 1.565.01 1.111.006 2.224-.005 3.334-.009.728-.168 1.461-1.047 1.454-.88-.006-1.014-.718-.997-1.462.02-.863.006-1.728.005-2.592zm-17.604.748c1.018 1.817 2.141 1.877 3.482 1.249.633-.295 1.434-.964 1.912-.016.52 1.032-.521 1.386-1.208 1.688-1.682.739-3.352.782-4.865-.46-1.412-1.161-1.646-2.737-1.291-4.372.354-1.64 1.477-2.666 3.145-3.015 1.61-.337 2.918.2 3.896 1.496.613.811 1.068 1.774.662 2.753-.419 1.012-1.482.631-2.302.666-1.035.044-2.071.011-3.431.011zm1.936-1.585c.541-.307 1.572.43 1.635-.549.05-.778-.815-1.102-1.612-1.108-.813-.007-1.667.394-1.636 1.111.041.988 1.081.234 1.613.546zm7.682 1.585c1.03 1.828 2.153 1.873 3.487 1.243.628-.296 1.431-.959 1.899-.007.505 1.027-.521 1.38-1.216 1.687-1.684.739-3.343.776-4.856-.462-1.419-1.16-1.627-2.733-1.286-4.366.345-1.647 1.476-2.656 3.131-3.017 1.609-.347 2.917.191 3.896 1.479.613.81 1.063 1.773.669 2.753-.412 1.02-1.475.646-2.294.681-1.03.042-2.065.009-3.43.009zm2.049-1.602c.527-.216 1.491.367 1.509-.522.015-.804-.832-1.14-1.644-1.113-.798.025-1.682.393-1.571 1.178.124.862 1.143.207 1.706.457zM68.828 35.42c-1.015.034-1.958-.198-2.809-.762-.471-.312-.676-.762-.391-1.271.286-.507.741-.58 1.261-.281.713.412 1.476.613 2.307.501.382-.054.757-.144.815-.596.063-.483-.344-.622-.687-.731-.704-.222-1.437-.354-2.129-.604-1.003-.358-1.672-.996-1.657-2.178.016-1.152.649-1.824 1.637-2.229 1.42-.579 2.786-.364 4.066.418.367.224.714.568.453 1.068-.229.433-.636.592-1.103.425-.695-.251-1.367-.568-2.142-.438-.392.064-.74.205-.752.641-.01.371.338.464.643.544.417.108.835.212 1.249.327 1.458.407 2.73 1.031 2.56 2.851-.132 1.412-1.474 2.294-3.321 2.315zm51.414.009c-1.134-.04-1.952-.671-1.976-2.124-.015-.861-.006-1.724-.007-2.584-.002-.31-.027-.618 0-.924.09-1.021-1.631-.724-1.354-1.88.193-.813 1.681-.586 1.393-1.846-.138-.608.326-1.027 1.002-1.037.608-.011 1.041.434.948.905-.282 1.428 1.337 1.043 1.628 1.843.506 1.401-1.59 1.01-1.437 1.84.255 1.38-1.342 3.423 1.3 4.07.336.083.426.601.282.975-.269.705-.9.74-1.779.762zm-43.591-.006c-1.331-.044-2.035-.778-2.133-2.065-.066-.86-.021-1.729-.024-2.594-.001-.37.134-.981-.028-1.074-2.258-1.305-.181-2.493.065-3.713.104-.518.385-.912.978-.944.694-.037.979.404 1.127.992.016.059.034.129.016.183-.452 1.31 2.766 1.153 1.229 2.43-1.021.847-1.294 1.511-1.212 2.604.076.998-.497 2.336 1.322 2.445.293.019.542.499.37.912-.321.767-.994.839-1.71.824zm38.688-4.168v2.948c0 .657-.35 1.088-.976 1.099-.644.015-.992-.441-.996-1.082a609.888 609.888 0 0 1-.02-5.896c.002-.712.304-1.214 1.086-1.168.677.043.92.512.914 1.15-.01.983-.003 1.966-.003 2.948l-.005.001zm-1.07-4.717c-.668-.045-1.126-.451-1.13-1.141-.006-.802.511-1.209 1.317-1.158.735.045 1.146.522 1.095 1.201-.05.66-.493 1.098-1.282 1.098z" fill-rule="evenodd" clip-rule="evenodd" fill="#EAEAEA"/></svg>