<svg xmlns="http://www.w3.org/2000/svg" width="230" height="310.498" viewBox="32.235 2.459 230 310.498"><path d="M121.148 6.871c0-2.443 1.845-4.411 4.448-4.411 1.576 0 2.958.807 3.666 2.053l-.575.33c-.562-1.052-1.749-1.76-3.091-1.76-2.249 0-3.802 1.687-3.802 3.788s1.553 3.789 3.802 3.789c1.355 0 2.553-.722 3.115-1.796l.575.329c-.697 1.259-2.09 2.09-3.69 2.09-2.603 0-4.448-1.969-4.448-4.412zm13.814 2.101h-4.288l-.832 2.175h-.685l3.323-8.553h.685l3.311 8.553h-.684l-.83-2.175zm-.231-.611l-1.906-4.974-1.906 4.974h3.812zm7.792-3.115c0 1.503-1.124 2.639-2.665 2.639h-2.26v3.263h-.648V2.595h2.908c1.541 0 2.665 1.135 2.665 2.651zm-.647 0c0-1.185-.845-2.041-2.018-2.041h-2.26v4.069h2.26c1.174 0 2.018-.856 2.018-2.028zm.961 4.021l.562-.331c.293 1.026 1.161 1.722 2.565 1.722 1.431 0 2.151-.732 2.151-1.71 0-1.025-.905-1.417-2.21-1.833-1.432-.464-2.715-.867-2.715-2.359 0-1.404 1.138-2.296 2.59-2.296 1.405 0 2.334.807 2.75 1.796l-.55.306c-.318-.769-.977-1.479-2.2-1.479-1.186 0-1.931.698-1.931 1.65 0 1.025.868 1.344 2.09 1.748 1.515.5 2.834.977 2.834 2.456 0 1.416-1.112 2.346-2.81 2.346-1.599 0-2.734-.808-3.126-2.016zM51.673 114.082l1.806-1.047c.328.759.89 1.271 1.924 1.271.995 0 1.244-.394 1.244-.748 0-.561-.524-.784-1.898-1.165-1.361-.377-2.695-1.031-2.695-2.785 0-1.768 1.491-2.788 3.076-2.788 1.504 0 2.682.72 3.349 2.067l-1.767 1.034c-.314-.654-.746-1.059-1.583-1.059-.656 0-.983.326-.983.693 0 .418.223.707 1.65 1.139 1.386.417 2.944.903 2.944 2.839 0 1.766-1.414 2.813-3.403 2.813-1.924.001-3.154-.917-3.664-2.264zm7.721-2.5c0-2.695 2.131-4.762 4.763-4.762 2.63 0 4.763 2.067 4.763 4.762 0 2.695-2.133 4.763-4.763 4.763-2.632.002-4.763-2.068-4.763-4.763zm7.432 0c0-1.635-1.178-2.722-2.668-2.722-1.493 0-2.669 1.086-2.669 2.722 0 1.638 1.177 2.724 2.669 2.724 1.49-.001 2.668-1.087 2.668-2.724zm5.364-2.562v1.764h3.404v2.016H72.19v3.364h-2.094v-9.161h5.561v2.017H72.19zm10.859 0h-2.354v7.144h-2.094v-7.144h-2.354v-2.017h6.802v2.017zm3.797 2.562c0-2.695 2.003-4.762 4.763-4.762 1.661 0 3.126.825 3.924 2.119l-1.806 1.047c-.404-.706-1.189-1.126-2.118-1.126-1.622 0-2.669 1.086-2.669 2.722 0 1.638 1.047 2.724 2.669 2.724.929 0 1.727-.42 2.118-1.126l1.806 1.045c-.785 1.295-2.25 2.12-3.924 2.12-2.76.002-4.763-2.068-4.763-4.763zm15.164 3.141h-3.401l-.457 1.44h-2.291l3.114-9.161h2.669l3.113 9.161h-2.288l-.459-1.44zm-.627-1.961l-1.074-3.364-1.073 3.364h2.147zm10.835-2.618c0 1.74-1.401 3.141-3.207 3.141h-1.373v2.878h-2.094v-9.161h3.467c1.806 0 3.207 1.402 3.207 3.142zm-2.094 0c0-.667-.473-1.179-1.113-1.179h-1.373v2.357h1.373c.642 0 1.113-.512 1.113-1.178z" fill="#FFF"/><g fill="#FFF"><path d="M46.262 129.659c0 1.746-1.361 2.656-2.892 2.656-1.258 0-2.348-.534-2.833-1.701l1.565-.909c.181.522.52.841 1.269.841.749 0 1.078-.398 1.078-.885 0-.488-.329-.885-1.021-.885h-2.484l.33-4.558h4.593v1.698h-2.892l-.079 1.091h.646c1.474 0 2.72.906 2.72 2.652zm3.346-5.443v7.939h-1.814v-6.022l-1.406.387-.443-1.557 2.077-.748h1.586v.001zm2.54 3.97c0-2.451 1.179-4.127 3.231-4.127 2.054 0 3.232 1.676 3.232 4.127s-1.179 4.129-3.232 4.129c-2.052 0-3.231-1.679-3.231-4.129zm4.649 0c0-1.53-.465-2.358-1.418-2.358-.952 0-1.417.828-1.417 2.358 0 1.532.466 2.361 1.417 2.361.953-.003 1.418-.831 1.418-2.361z"/><path d="M58.578 128.186c0-2.451 1.179-4.127 3.231-4.127 2.053 0 3.233 1.676 3.233 4.127s-1.181 4.129-3.233 4.129-3.231-1.679-3.231-4.129zm4.65 0c0-1.53-.466-2.358-1.419-2.358-.951 0-1.416.828-1.416 2.358 0 1.532.465 2.361 1.416 2.361.953-.003 1.419-.831 1.419-2.361z"/><path d="M65.007 128.186c0-2.451 1.178-4.127 3.231-4.127s3.233 1.676 3.233 4.127-1.18 4.129-3.233 4.129c-2.052 0-3.231-1.679-3.231-4.129zm4.649 0c0-1.53-.464-2.358-1.418-2.358-.952 0-1.417.828-1.417 2.358 0 1.532.464 2.361 1.417 2.361.954-.003 1.418-.831 1.418-2.361zm3.903 0c0-2.451 1.179-4.127 3.23-4.127 2.055 0 3.233 1.676 3.233 4.127s-1.179 4.129-3.233 4.129c-2.051 0-3.23-1.679-3.23-4.129zm4.649 0c0-1.53-.466-2.358-1.419-2.358-.952 0-1.416.828-1.416 2.358 0 1.532.466 2.361 1.416 2.361.953-.003 1.419-.831 1.419-2.361z"/><path d="M79.987 128.186c0-2.451 1.181-4.127 3.233-4.127s3.232 1.676 3.232 4.127-1.18 4.129-3.232 4.129-3.233-1.679-3.233-4.129zm4.65 0c0-1.53-.465-2.358-1.417-2.358-.954 0-1.417.828-1.417 2.358 0 1.532.463 2.361 1.417 2.361.952-.003 1.417-.831 1.417-2.361z"/><path d="M86.418 128.186c0-2.451 1.179-4.127 3.231-4.127 2.054 0 3.232 1.676 3.232 4.127s-1.179 4.129-3.232 4.129c-2.052 0-3.231-1.679-3.231-4.129zm4.649 0c0-1.53-.465-2.358-1.416-2.358-.954 0-1.419.828-1.419 2.358 0 1.532.466 2.361 1.419 2.361.951-.003 1.416-.831 1.416-2.361zm6.435 1.219a2.817 2.817 0 0 1 2.835-2.833 2.817 2.817 0 0 1 2.835 2.833 2.819 2.819 0 0 1-2.835 2.835 2.818 2.818 0 0 1-2.835-2.835zm5.255 0a2.408 2.408 0 0 0-2.419-2.433 2.409 2.409 0 0 0-2.419 2.433 2.41 2.41 0 0 0 2.419 2.435c1.359 0 2.419-1.084 2.419-2.435zm1.387-2.354v2.197h2.539v.393h-2.539v2.514h-.415v-5.497h3.048v.394h-2.633zm2.843 2.354c0-1.57 1.186-2.833 2.86-2.833 1.012 0 1.899.519 2.354 1.318l-.368.212c-.361-.675-1.122-1.13-1.987-1.13-1.446 0-2.442 1.084-2.442 2.435s.997 2.433 2.442 2.433c.872 0 1.641-.463 2.002-1.154l.37.212c-.448.809-1.343 1.345-2.372 1.345-1.673-.003-2.859-1.266-2.859-2.838z"/></g><path d="M44.568 179.98c0 1.74-1.399 3.14-3.205 3.14h-1.375v2.878h-2.093v-9.16h3.468c1.805.001 3.205 1.402 3.205 3.142zm-2.094 0c0-.668-.47-1.178-1.111-1.178h-1.374v2.355h1.374c.641 0 1.111-.511 1.111-1.177zm2.749 1.438c0-2.695 2.132-4.762 4.762-4.762s4.763 2.067 4.763 4.762c0 2.695-2.133 4.764-4.763 4.764s-4.762-2.069-4.762-4.764zm7.432 0c0-1.635-1.177-2.721-2.67-2.721-1.492 0-2.669 1.085-2.669 2.721 0 1.637 1.177 2.723 2.669 2.723 1.493 0 2.67-1.086 2.67-2.723zm2.617-4.579h2.198l1.584 6.412 1.766-6.412h1.701l1.767 6.412 1.582-6.412h2.199l-2.526 9.16h-2.381l-1.491-5.403-1.493 5.403h-2.38l-2.526-9.16zm19.47 7.146v2.014h-5.757v-9.16h5.692v2.016h-3.598v1.517h3.272v1.99h-3.272v1.623h3.663zm4.264-.996h-.992v3.009H75.92v-9.16h3.663c1.74 0 3.14 1.401 3.14 3.141 0 1.125-.68 2.146-1.688 2.656l1.95 3.363h-2.249l-1.73-3.009zm-.992-1.832h1.569c.575 0 1.047-.511 1.047-1.177 0-.668-.472-1.178-1.047-1.178h-1.569v2.355zm8.831.261c0-2.695 2.003-4.762 4.763-4.762 1.661 0 3.127.824 3.926 2.119l-1.807 1.046c-.405-.706-1.19-1.125-2.119-1.125-1.623 0-2.669 1.085-2.669 2.721 0 1.637 1.046 2.723 2.669 2.723.929 0 1.727-.42 2.119-1.126l1.807 1.046c-.786 1.295-2.251 2.121-3.926 2.121-2.76.002-4.763-2.068-4.763-4.763zm15.166 3.142h-3.402l-.458 1.439h-2.289l3.112-9.16h2.67l3.114 9.16h-2.288l-.459-1.439zm-.627-1.962l-1.074-3.363-1.073 3.363h2.147zm10.834-2.618c0 1.74-1.4 3.14-3.205 3.14h-1.375v2.878h-2.095v-9.16h3.47c1.805.001 3.205 1.402 3.205 3.142zm-2.093 0c0-.668-.473-1.178-1.112-1.178h-1.375v2.355h1.375c.639 0 1.112-.511 1.112-1.177z" fill="#FFF"/><g fill="#FFF"><path d="M32.314 200.676l2.665-2.767c.465-.477.804-.941.804-1.406 0-.5-.317-.839-.849-.839-.556 0-.952.363-1.168.861l-1.53-.895c.51-1.181 1.576-1.735 2.676-1.735 1.418 0 2.687.929 2.687 2.53 0 .951-.511 1.769-1.236 2.494l-1.315 1.327h2.666v1.747h-5.399v-1.317h-.001zm5.421-2.654c0-2.451 1.179-4.129 3.231-4.129 2.054 0 3.232 1.678 3.232 4.129 0 2.449-1.179 4.128-3.232 4.128-2.051 0-3.231-1.679-3.231-4.128zm4.65 0c0-1.532-.466-2.359-1.419-2.359s-1.416.827-1.416 2.359c0 1.531.463 2.359 1.416 2.359.953 0 1.419-.829 1.419-2.359z"/><path d="M50.289 200.721h-.793v1.27h-1.839v-1.27H44.05v-1.678l2.529-4.99h1.951l-2.529 4.99h1.655v-1.701h1.838v1.701h.793v1.678h.002zm1.86-2.699c0-2.451 1.178-4.129 3.231-4.129 2.054 0 3.231 1.678 3.231 4.129 0 2.449-1.179 4.128-3.231 4.128s-3.231-1.679-3.231-4.128zm4.649 0c0-1.532-.465-2.359-1.418-2.359-.951 0-1.417.827-1.417 2.359 0 1.531.465 2.359 1.417 2.359.953.001 1.418-.829 1.418-2.359z"/><path d="M58.578 198.022c0-2.451 1.18-4.129 3.231-4.129 2.053 0 3.232 1.678 3.232 4.129 0 2.449-1.18 4.128-3.232 4.128-2.051 0-3.231-1.679-3.231-4.128zm4.65 0c0-1.532-.464-2.359-1.417-2.359-.953 0-1.417.827-1.417 2.359 0 1.531.464 2.359 1.417 2.359.953.001 1.417-.829 1.417-2.359z"/><path d="M65.008 198.022c0-2.451 1.179-4.129 3.231-4.129 2.052 0 3.233 1.678 3.233 4.129 0 2.449-1.181 4.128-3.233 4.128-2.051 0-3.231-1.679-3.231-4.128zm4.65 0c0-1.532-.465-2.359-1.417-2.359s-1.417.827-1.417 2.359c0 1.531.465 2.359 1.417 2.359.951 0 1.417-.829 1.417-2.359zm3.901 0c0-2.451 1.179-4.129 3.231-4.129 2.053 0 3.233 1.678 3.233 4.129 0 2.449-1.181 4.128-3.233 4.128s-3.231-1.679-3.231-4.128zm4.65 0c0-1.532-.466-2.359-1.419-2.359-.953 0-1.417.827-1.417 2.359 0 1.531.464 2.359 1.417 2.359.954 0 1.419-.829 1.419-2.359z"/><path d="M79.988 198.022c0-2.451 1.18-4.129 3.231-4.129 2.054 0 3.233 1.678 3.233 4.129 0 2.449-1.18 4.128-3.233 4.128-2.051 0-3.231-1.679-3.231-4.128zm4.649 0c0-1.532-.464-2.359-1.417-2.359-.952 0-1.417.827-1.417 2.359 0 1.531.464 2.359 1.417 2.359.953.001 1.417-.829 1.417-2.359z"/><path d="M86.419 198.022c0-2.451 1.178-4.129 3.231-4.129s3.232 1.678 3.232 4.129c0 2.449-1.18 4.128-3.232 4.128-2.053 0-3.231-1.679-3.231-4.128zm4.648 0c0-1.532-.464-2.359-1.417-2.359-.952 0-1.417.827-1.417 2.359 0 1.531.466 2.359 1.417 2.359.953 0 1.417-.829 1.417-2.359zm6.437 1.22a2.819 2.819 0 0 1 2.835-2.834 2.818 2.818 0 0 1 2.834 2.834 2.817 2.817 0 0 1-2.834 2.835 2.817 2.817 0 0 1-2.835-2.835zm5.253 0c0-1.35-1.059-2.434-2.418-2.434-1.359 0-2.418 1.084-2.418 2.434 0 1.351 1.059 2.434 2.418 2.434 1.359 0 2.418-1.083 2.418-2.434zm1.389-2.355v2.198h2.536v.394h-2.536v2.512h-.417v-5.498h3.047v.394h-2.63zm2.842 2.355c0-1.569 1.185-2.834 2.859-2.834 1.013 0 1.9.518 2.354 1.319l-.368.212c-.361-.677-1.122-1.13-1.986-1.13-1.445 0-2.443 1.083-2.443 2.434 0 1.351.998 2.434 2.443 2.434.872 0 1.64-.463 2.001-1.154l.37.212c-.446.809-1.341 1.343-2.37 1.343-1.675-.001-2.86-1.264-2.86-2.836z"/></g><path d="M56.163 246.473v9.16h-2.094v-3.639h-2.877v3.639h-2.093v-9.16h2.093v3.508h2.877v-3.508h2.094zm6.936 7.721h-3.402l-.458 1.439h-2.291l3.115-9.16h2.67l3.114 9.16h-2.291l-.457-1.439zm-.627-1.963l-1.075-3.363-1.071 3.363h2.146zm7.248.393h-.995v3.01h-2.094v-9.16h3.664a3.134 3.134 0 0 1 3.141 3.141c0 1.125-.68 2.146-1.688 2.656l1.949 3.363h-2.25l-1.727-3.01zm-.995-1.832h1.57c.576 0 1.047-.512 1.047-1.178 0-.668-.471-1.178-1.047-1.178h-1.57v2.356zm14.067.261c0 2.59-1.924 4.58-4.448 4.58H74.68v-9.16h3.664c2.524 0 4.448 1.988 4.448 4.58zm-2.015 0c0-1.57-.995-2.564-2.433-2.564h-1.572v5.129h1.572c1.438 0 2.433-.994 2.433-2.565zm6.072 0c0-2.695 2.002-4.762 4.763-4.762 1.661 0 3.126.822 3.924 2.119l-1.806 1.045c-.404-.707-1.189-1.125-2.119-1.125-1.624 0-2.668 1.086-2.668 2.723 0 1.635 1.044 2.723 2.668 2.723.929 0 1.725-.42 2.119-1.127l1.806 1.047c-.785 1.295-2.252 2.121-3.924 2.121-2.761 0-4.763-2.07-4.763-4.764zm15.165 3.141h-3.403l-.457 1.439h-2.291l3.115-9.16h2.668l3.116 9.16h-2.291l-.457-1.439zm-.629-1.963l-1.074-3.363-1.071 3.363h2.145zm10.833-2.617c0 1.742-1.397 3.141-3.202 3.141h-1.375v2.879h-2.094v-9.16h3.468c1.806-.001 3.203 1.401 3.203 3.14zm-2.092 0c0-.668-.47-1.178-1.11-1.178h-1.375v2.355h1.375c.64.001 1.11-.511 1.11-1.177z" fill="#FFF"/><g fill="#FFF"><path d="M39.83 269.129c0 1.748-1.359 2.656-2.892 2.656-1.261 0-2.348-.533-2.835-1.701l1.565-.908c.181.521.522.84 1.27.84s1.078-.396 1.078-.885c0-.486-.33-.885-1.021-.885h-2.483l.328-4.559h4.593v1.699h-2.892l-.079 1.09h.647c1.474.001 2.721.907 2.721 2.653zm3.345-5.441v7.936h-1.814v-6.02l-1.406.387-.441-1.557 2.074-.746h1.587zm.422 3.969c0-2.451 1.18-4.127 3.231-4.127 2.052 0 3.233 1.676 3.233 4.127 0 2.449-1.181 4.129-3.233 4.129s-3.231-1.68-3.231-4.129zm4.648 0c0-1.531-.465-2.359-1.417-2.359-.954 0-1.417.828-1.417 2.359s.464 2.359 1.417 2.359c.952-.002 1.417-.83 1.417-2.359zm3.902 0c0-2.451 1.179-4.127 3.232-4.127 2.052 0 3.231 1.676 3.231 4.127 0 2.449-1.179 4.129-3.231 4.129-2.053 0-3.232-1.68-3.232-4.129zm4.649 0c0-1.531-.464-2.359-1.417-2.359s-1.417.828-1.417 2.359.464 2.359 1.417 2.359 1.417-.83 1.417-2.359z"/><path d="M58.577 267.657c0-2.451 1.179-4.127 3.23-4.127 2.052 0 3.233 1.676 3.233 4.127 0 2.449-1.181 4.129-3.233 4.129-2.051 0-3.23-1.68-3.23-4.129zm4.649 0c0-1.531-.466-2.359-1.418-2.359-.953 0-1.416.828-1.416 2.359s.464 2.359 1.416 2.359c.952-.002 1.418-.83 1.418-2.359z"/><path d="M65.006 267.657c0-2.451 1.179-4.127 3.232-4.127 2.052 0 3.23 1.676 3.23 4.127 0 2.449-1.179 4.129-3.23 4.129-2.052 0-3.232-1.68-3.232-4.129zm4.649 0c0-1.531-.464-2.359-1.417-2.359-.953 0-1.417.828-1.417 2.359s.463 2.359 1.417 2.359c.953-.002 1.417-.83 1.417-2.359zm3.901 0c0-2.451 1.18-4.127 3.232-4.127 2.054 0 3.232 1.676 3.232 4.127 0 2.449-1.178 4.129-3.232 4.129-2.052 0-3.232-1.68-3.232-4.129zm4.649 0c0-1.531-.465-2.359-1.417-2.359s-1.417.828-1.417 2.359.465 2.359 1.417 2.359c.952-.002 1.417-.83 1.417-2.359z"/><path d="M79.987 267.657c0-2.451 1.178-4.127 3.231-4.127 2.054 0 3.23 1.676 3.23 4.127 0 2.449-1.178 4.129-3.23 4.129-2.053 0-3.231-1.68-3.231-4.129zm4.649 0c0-1.531-.465-2.359-1.418-2.359-.954 0-1.417.828-1.417 2.359s.465 2.359 1.417 2.359c.953-.002 1.418-.83 1.418-2.359z"/><path d="M86.418 267.657c0-2.451 1.178-4.127 3.231-4.127s3.23 1.676 3.23 4.127c0 2.449-1.178 4.129-3.23 4.129s-3.231-1.68-3.231-4.129zm4.647 0c0-1.531-.466-2.359-1.417-2.359-.954 0-1.417.828-1.417 2.359s.463 2.359 1.417 2.359c.954-.002 1.417-.83 1.417-2.359zm6.435 1.22a2.82 2.82 0 0 1 2.835-2.836c1.587 0 2.837 1.266 2.837 2.836s-1.25 2.834-2.837 2.834a2.819 2.819 0 0 1-2.835-2.834zm5.255 0a2.409 2.409 0 0 0-2.419-2.434c-1.358 0-2.418 1.084-2.418 2.434s1.06 2.434 2.418 2.434a2.408 2.408 0 0 0 2.419-2.434zm1.388-2.357v2.199h2.536v.393h-2.536v2.512h-.417v-5.496h3.05v.393h-2.633zm2.844 2.357c0-1.57 1.185-2.836 2.857-2.836 1.014 0 1.901.52 2.356 1.32l-.369.211c-.36-.676-1.124-1.129-1.987-1.129-1.445 0-2.441 1.084-2.441 2.434 0 1.352.997 2.434 2.441 2.434.873 0 1.642-.463 2.002-1.154l.372.213c-.448.809-1.344 1.344-2.371 1.344-1.675-.003-2.86-1.266-2.86-2.837z"/></g><path d="M69.966 45.928h-2.094v-5.325l-2.368 3.886h-.234l-2.37-3.886v5.325h-2.091v-9.16H62.9l2.488 4.07 2.485-4.07h2.094v9.16zm3.665-9.16v9.16h-2.094v-9.16h2.094zm8.767 0v9.16h-1.571l-3.533-4.973v4.973h-2.093v-9.16h1.571l3.532 4.973v-4.973h2.094zm4.448 4.58c0-2.695 2.003-4.762 4.763-4.762 1.661 0 3.127.824 3.925 2.12l-1.805 1.046c-.406-.706-1.191-1.125-2.12-1.125-1.622 0-2.669 1.085-2.669 2.722 0 1.636 1.047 2.723 2.669 2.723.929 0 1.727-.42 2.12-1.125l1.805 1.046c-.784 1.295-2.25 2.12-3.925 2.12-2.76-.002-4.763-2.07-4.763-4.765zm15.166 3.141h-3.403l-.457 1.439h-2.29l3.113-9.16h2.669l3.115 9.16h-2.291l-.456-1.439zm-.627-1.962l-1.074-3.363-1.073 3.363h2.147zm10.833-2.618c0 1.74-1.401 3.141-3.204 3.141h-1.375v2.879h-2.094v-9.16h3.469c1.803-.001 3.204 1.4 3.204 3.14zm-2.093 0c0-.667-.472-1.178-1.111-1.178h-1.375v2.355h1.375c.639 0 1.111-.51 1.111-1.177z" fill="#FFF"/><g fill="#FFF"><path d="M45.185 53.982v7.938h-1.816v-6.021l-1.404.386-.443-1.554 2.075-.748h1.588zm.329 6.623l2.665-2.767c.466-.477.807-.941.807-1.406 0-.499-.318-.839-.852-.839-.556 0-.952.363-1.168.861l-1.53-.896c.511-1.181 1.576-1.734 2.675-1.734 1.418 0 2.688.929 2.688 2.529 0 .952-.511 1.769-1.237 2.495l-1.316 1.327h2.666v1.747h-5.397l-.001-1.317zm13.154-1.18c0 1.746-1.36 2.654-2.892 2.654-1.259 0-2.347-.533-2.835-1.7l1.565-.908c.181.521.522.84 1.27.84.749 0 1.078-.397 1.078-.885 0-.487-.329-.885-1.021-.885H53.35l.329-4.558h4.594v1.699H55.38l-.08 1.09h.646c1.474 0 2.722.907 2.722 2.653z"/><path d="M58.577 57.951c0-2.45 1.18-4.127 3.232-4.127 2.053 0 3.233 1.677 3.233 4.127s-1.181 4.128-3.233 4.128-3.232-1.678-3.232-4.128zm4.651 0c0-1.531-.466-2.358-1.419-2.358-.953 0-1.418.827-1.418 2.358 0 1.532.465 2.36 1.418 2.36.953-.001 1.419-.83 1.419-2.36z"/><path d="M65.007 57.951c0-2.45 1.18-4.127 3.233-4.127 2.052 0 3.232 1.677 3.232 4.127s-1.18 4.128-3.232 4.128c-2.054 0-3.233-1.678-3.233-4.128zm4.649 0c0-1.531-.465-2.358-1.416-2.358-.953 0-1.417.827-1.417 2.358 0 1.532.464 2.36 1.417 2.36.951-.001 1.416-.83 1.416-2.36zm3.902 0c0-2.45 1.179-4.127 3.231-4.127 2.054 0 3.233 1.677 3.233 4.127s-1.18 4.128-3.233 4.128c-2.052 0-3.231-1.678-3.231-4.128zm4.65 0c0-1.531-.466-2.358-1.419-2.358-.952 0-1.416.827-1.416 2.358 0 1.532.464 2.36 1.416 2.36.953-.001 1.419-.83 1.419-2.36z"/><path d="M79.987 57.951c0-2.45 1.181-4.127 3.233-4.127s3.233 1.677 3.233 4.127-1.181 4.128-3.233 4.128-3.233-1.678-3.233-4.128zm4.652 0c0-1.531-.466-2.358-1.418-2.358-.954 0-1.417.827-1.417 2.358 0 1.532.463 2.36 1.417 2.36.952 0 1.418-.83 1.418-2.36z"/><path d="M86.418 57.951c0-2.45 1.178-4.127 3.232-4.127 2.053 0 3.231 1.677 3.231 4.127s-1.178 4.128-3.231 4.128c-2.054 0-3.232-1.678-3.232-4.128zm4.649 0c0-1.531-.465-2.358-1.418-2.358-.952 0-1.417.827-1.417 2.358 0 1.532.466 2.36 1.417 2.36.953-.001 1.418-.83 1.418-2.36zm6.435 1.22a2.818 2.818 0 0 1 2.835-2.833 2.818 2.818 0 0 1 2.835 2.833 2.818 2.818 0 0 1-2.835 2.835 2.818 2.818 0 0 1-2.835-2.835zm5.255 0c0-1.35-1.06-2.434-2.419-2.434a2.408 2.408 0 0 0-2.418 2.434c0 1.351 1.06 2.435 2.418 2.435a2.41 2.41 0 0 0 2.419-2.435zm1.389-2.355v2.198h2.538v.394h-2.538v2.513h-.416v-5.497h3.047v.393h-2.631zm2.841 2.355c0-1.569 1.188-2.833 2.86-2.833 1.012 0 1.899.518 2.354 1.319l-.368.212c-.361-.677-1.123-1.131-1.986-1.131-1.445 0-2.443 1.083-2.443 2.434 0 1.352.998 2.435 2.443 2.435.871 0 1.641-.464 2.001-1.154l.37.212c-.448.809-1.342 1.343-2.371 1.343-1.673-.002-2.86-1.265-2.86-2.837z"/></g><linearGradient id="a" gradientUnits="userSpaceOnUse" x1="206.213" y1="64.817" x2="206.213" y2="34.722"><stop offset="0" stop-color="#706dcb"/><stop offset="1" stop-color="#706dcb" stop-opacity=".7"/></linearGradient><path opacity=".4" fill="url(#a)" d="M171.014 34.722v9.821l-5.446 5.009 5.446 5.009v10.256h75.843V34.722z"/><linearGradient id="b" gradientUnits="userSpaceOnUse" x1="206.213" y1="134.634" x2="206.213" y2="104.539"><stop offset="0" stop-color="#706dcb"/><stop offset="1" stop-color="#706dcb" stop-opacity=".7"/></linearGradient><path opacity=".6" fill="url(#b)" d="M171.014 104.539v9.753l-5.446 5.008 5.446 5.008v10.326h75.843v-30.095z"/><linearGradient id="c" gradientUnits="userSpaceOnUse" x1="206.213" y1="204.888" x2="206.213" y2="174.792"><stop offset="0" stop-color="#706dcb"/><stop offset="1" stop-color="#706dcb" stop-opacity=".7"/></linearGradient><path opacity=".8" fill="url(#c)" d="M171.014 174.792v9.822l-5.446 5.008 5.446 5.007v10.259h75.843v-30.096z"/><linearGradient id="d" gradientUnits="userSpaceOnUse" x1="206.213" y1="274.922" x2="206.213" y2="244.827"><stop offset="0" stop-color="#706dcb"/><stop offset="1" stop-color="#706dcb" stop-opacity=".7"/></linearGradient><path fill="url(#d)" d="M171.014 244.827v9.734l-5.446 5.006 5.446 5.012v10.343h75.843v-30.095z"/><path fill="#FFF" d="M142.177 304.983l-6.19 7.809a.437.437 0 0 1-.687 0l-6.106-7.811a.437.437 0 0 1 .687-.539l5.766 7.375 5.846-7.377a.433.433 0 0 1 .611-.072.443.443 0 0 1 .073.615zM135.645 39.19a.435.435 0 0 1-.437-.436V19.996a.436.436 0 1 1 .873 0v18.759a.436.436 0 0 1-.436.435z"/><path fill="#FFF" d="M135.645 60.783c-6.193 0-11.232-5.039-11.232-11.231 0-6.193 5.04-11.232 11.232-11.232 6.191 0 11.231 5.039 11.231 11.232 0 6.192-5.04 11.231-11.231 11.231zm0-.872c5.712 0 10.358-4.648 10.358-10.359 0-5.712-4.646-10.359-10.358-10.359-5.713 0-10.359 4.647-10.359 10.359 0 5.711 4.646 10.359 10.359 10.359z"/><linearGradient id="e" gradientUnits="userSpaceOnUse" x1="-4487.182" y1="-391.457" x2="-4475.951" y2="-391.457" gradientTransform="rotate(-90 -1952.457 -2479.557)"><stop offset="0" stop-color="#706dcb" stop-opacity="0"/><stop offset="1" stop-color="#706dcb" stop-opacity=".7"/></linearGradient><circle fill="url(#e)" cx="135.643" cy="49.552" r="5.615"/><path fill="#FFF" d="M135.645 130.817c-6.193 0-11.232-5.039-11.232-11.231s5.04-11.231 11.232-11.231c6.191 0 11.231 5.039 11.231 11.231s-5.04 11.231-11.231 11.231zm0-.872c5.712 0 10.358-4.646 10.358-10.358s-4.646-10.359-10.358-10.359c-5.713 0-10.359 4.647-10.359 10.359s4.646 10.358 10.359 10.358z"/><linearGradient id="f" gradientUnits="userSpaceOnUse" x1="-4489.314" y1="-459.359" x2="-4478.083" y2="-459.359" gradientTransform="rotate(-90 -1884.555 -2479.558)"><stop offset="0" stop-color="#706dcb" stop-opacity="0"/><stop offset="1" stop-color="#706dcb" stop-opacity=".7"/></linearGradient><circle fill="url(#f)" cx="135.644" cy="119.586" r="5.616"/><path fill="#FFF" d="M135.645 200.853c-6.193 0-11.232-5.038-11.232-11.231 0-6.192 5.04-11.231 11.232-11.231 6.191 0 11.231 5.039 11.231 11.231s-5.04 11.231-11.231 11.231zm0-.873c5.712 0 10.358-4.647 10.358-10.359s-4.646-10.359-10.358-10.359c-5.713 0-10.359 4.647-10.359 10.359s4.646 10.359 10.359 10.359z"/><linearGradient id="g" gradientUnits="userSpaceOnUse" x1="-4491.445" y1="-527.263" x2="-4480.214" y2="-527.263" gradientTransform="rotate(-90 -1816.65 -2479.557)"><stop offset="0" stop-color="#706dcb" stop-opacity="0"/><stop offset="1" stop-color="#706dcb" stop-opacity=".7"/></linearGradient><circle fill="url(#g)" cx="135.643" cy="189.622" r="5.615"/><path fill="#FFF" d="M135.645 270.887c-6.193 0-11.232-5.037-11.232-11.23s5.04-11.232 11.232-11.232c6.191 0 11.231 5.039 11.231 11.232s-5.04 11.23-11.231 11.23zm0-.871c5.712 0 10.358-4.648 10.358-10.359s-4.646-10.359-10.358-10.359c-5.713 0-10.359 4.648-10.359 10.359s4.646 10.359 10.359 10.359z"/><linearGradient id="h" gradientUnits="userSpaceOnUse" x1="-4493.576" y1="-595.168" x2="-4482.346" y2="-595.168" gradientTransform="rotate(-90 -1748.744 -2479.557)"><stop offset="0" stop-color="#706dcb" stop-opacity="0"/><stop offset="1" stop-color="#706dcb" stop-opacity=".7"/></linearGradient><circle fill="url(#h)" cx="135.644" cy="259.659" r="5.616"/><path fill="#FFF" d="M135.645 312.03a.435.435 0 0 1-.437-.436v-41.143a.436.436 0 1 1 .873 0v41.143c0 .24-.196.436-.436.436zm0-202.802a.436.436 0 0 1-.437-.438V61.22a.436.436 0 1 1 .873 0v47.57a.437.437 0 0 1-.436.438zm0 69.163a.437.437 0 0 1-.437-.437v-47.571a.436.436 0 1 1 .873 0v47.571c0 .24-.196.437-.436.437zm0 70.033a.434.434 0 0 1-.437-.434v-47.575a.436.436 0 1 1 .873 0v47.575a.435.435 0 0 1-.436.434zm10.431-199.091h15.514v.437h-15.514zm0 69.749h15.514v.437h-15.514zm0 70.321h15.514v.438h-15.514zm0 70.035h15.514v.436h-15.514zM192.593 45.19c0-1.744 1.315-3.148 3.172-3.148 1.124 0 2.109.576 2.615 1.466l-.409.235c-.402-.75-1.249-1.256-2.206-1.256-1.605 0-2.711 1.204-2.711 2.703 0 1.499 1.105 2.704 2.711 2.704.968 0 1.823-.515 2.223-1.283l.41.236c-.497.898-1.492 1.491-2.633 1.491-1.857 0-3.172-1.404-3.172-3.148zm9.286.55h-1.926v2.501h-.461v-6.103h2.405a1.81 1.81 0 0 1 1.805 1.805c0 .829-.566 1.524-1.342 1.735l1.517 2.563h-.533l-1.465-2.501zm-1.926-.437h1.944c.741 0 1.343-.609 1.343-1.36 0-.758-.602-1.369-1.343-1.369h-1.944v2.729zm6.35.427v2.511h-.464V45.73l-2.222-3.592h.523l1.937 3.148 1.926-3.148h.523l-2.223 3.592zm7.046-1.7c0 1.074-.799 1.884-1.899 1.884h-1.613v2.328h-.461v-6.103h2.074c1.1-.001 1.899.81 1.899 1.891zm-.463 0c0-.844-.601-1.454-1.437-1.454h-1.613v2.903h1.613c.836 0 1.437-.611 1.437-1.449zm5.358-1.456h-1.92v5.667h-.469v-5.667h-1.92v-.436h4.309v.436zm.131 2.616a3.132 3.132 0 0 1 3.148-3.148 3.129 3.129 0 0 1 3.146 3.148 3.13 3.13 0 0 1-3.146 3.148 3.132 3.132 0 0 1-3.148-3.148zm5.836 0c0-1.5-1.179-2.703-2.688-2.703s-2.683 1.204-2.683 2.703c0 1.499 1.174 2.704 2.683 2.704s2.688-1.205 2.688-2.704zm-34.499 5.671v6.104h-.464v-6.104h.464zm5.988 0v6.104h-.406l-3.602-5.249v5.249h-.462v-6.104h.401l3.607 5.25v-5.25h.462zm6.693 3.052c0 1.683-1.192 3.052-2.877 3.052h-2.292v-6.104h2.292c1.684 0 2.877 1.371 2.877 3.052zm-.455 0c0-1.446-.983-2.615-2.422-2.615h-1.833v5.231h1.833c1.438 0 2.422-1.168 2.422-2.616zm1.539 1.011v-4.063h.463v4.063c0 .995.618 1.692 1.771 1.692 1.161 0 1.777-.698 1.777-1.692v-4.063h.463v4.063c0 1.291-.898 2.137-2.24 2.137-1.345.001-2.234-.846-2.234-2.137zm5.539.698l.403-.235c.209.733.828 1.229 1.829 1.229 1.02 0 1.537-.522 1.537-1.22 0-.733-.646-1.012-1.579-1.308-1.021-.331-1.937-.618-1.937-1.683 0-1.003.811-1.639 1.85-1.639 1.001 0 1.666.576 1.96 1.282l-.391.219c-.228-.551-.697-1.056-1.569-1.056-.846 0-1.38.498-1.38 1.177 0 .732.62.958 1.49 1.246 1.084.357 2.025.698 2.025 1.753 0 1.011-.794 1.675-2.007 1.675-1.14 0-1.951-.577-2.231-1.44zm9.124-4.324h-1.92v5.667h-.47v-5.667h-1.917v-.437h4.305v.437h.002zm3.349 3.165h-1.926v2.502h-.461v-6.104h2.405c.993 0 1.803.813 1.803 1.805 0 .83-.566 1.526-1.342 1.736l1.517 2.563h-.531l-1.465-2.502zm-1.926-.437h1.944c.741 0 1.342-.61 1.342-1.36 0-.759-.601-1.368-1.342-1.368h-1.944v2.728zm6.9.428v2.512H226v-2.512l-2.223-3.592h.522l1.936 3.147 1.926-3.147h.525l-2.223 3.592zm-45.03 57.768h.489l1.577 5.484 1.702-5.484h.548l1.709 5.484 1.57-5.484h.488l-1.771 6.103h-.558l-1.71-5.501-1.715 5.501h-.56l-1.769-6.103zm8.785 3.051a3.13 3.13 0 0 1 3.146-3.147 3.128 3.128 0 0 1 3.148 3.147 3.128 3.128 0 0 1-3.148 3.147 3.128 3.128 0 0 1-3.146-3.147zm5.833 0c0-1.5-1.176-2.704-2.687-2.704-1.507 0-2.684 1.205-2.684 2.704s1.177 2.704 2.684 2.704c1.511.001 2.687-1.204 2.687-2.704zm4.023.549h-1.928v2.503h-.464v-6.103h2.407a1.81 1.81 0 0 1 1.808 1.803c0 .829-.568 1.526-1.344 1.736l1.517 2.564h-.532l-1.464-2.503zm-1.928-.435h1.945c.739 0 1.342-.61 1.342-1.362 0-.758-.603-1.368-1.342-1.368h-1.945v2.73zm8.225 2.501v.437h-3.338v-6.103h.463v5.666h2.875zm6.132-2.615c0 1.683-1.194 3.051-2.879 3.051h-2.29v-6.103h2.29c1.685.001 2.879 1.369 2.879 3.052zm-.453 0c0-1.447-.985-2.616-2.426-2.616h-1.829v5.23h1.829c1.44.001 2.426-1.166 2.426-2.614zm3.485-3.051h.485l1.579 5.484 1.702-5.484h.548l1.708 5.484 1.569-5.484h.487l-1.769 6.103h-.558l-1.71-5.501-1.717 5.501h-.56l-1.764-6.103zm9.593 0v6.103h-.462v-6.103h.462zm6.689 3.051c0 1.683-1.194 3.051-2.877 3.051h-2.294v-6.103h2.294c1.683.001 2.877 1.369 2.877 3.052zm-.453 0c0-1.447-.985-2.616-2.426-2.616h-1.831v5.23h1.831c1.441.001 2.426-1.166 2.426-2.614zm5.139 2.615v.437h-3.516v-6.103h3.472v.435h-3.008v2.372h2.79v.435h-2.79v2.424h3.052zm-36.576 3.056h.489l1.58 5.484 1.698-5.484h.55l1.708 5.484 1.569-5.484h.489l-1.771 6.103h-.558l-1.709-5.502-1.718 5.502h-.559l-1.768-6.103zm12.648 5.668v.435h-3.515v-6.103h3.471v.437h-3.01v2.372h2.792v.435h-2.792v2.424h3.054zm5.434-1.229c0 .923-.741 1.666-1.666 1.666h-2.631v-6.103h2.432c.888 0 1.604.723 1.604 1.604a1.49 1.49 0 0 1-.782 1.333 1.6 1.6 0 0 1 1.043 1.5zm-3.836-4.002v2.336h1.968a1.16 1.16 0 0 0 1.145-1.167c0-.647-.516-1.169-1.145-1.169h-1.968zm3.374 4.002c0-.68-.542-1.228-1.204-1.228h-2.17v2.457h2.17c.662 0 1.204-.549 1.204-1.229zm-22.988 62.349v.437h-3.516v-6.103h3.471v.436h-3.007v2.371h2.788v.436h-2.788v2.423h3.052zm.767-.906l.4-.236c.21.732.83 1.23 1.831 1.23 1.021 0 1.535-.523 1.535-1.221 0-.733-.646-1.011-1.577-1.309-1.021-.331-1.936-.618-1.936-1.683 0-1.003.81-1.639 1.847-1.639 1.004 0 1.666.576 1.964 1.282l-.395.218c-.226-.549-.697-1.055-1.569-1.055-.844 0-1.378.497-1.378 1.177 0 .733.621.958 1.493 1.246 1.082.358 2.022.697 2.022 1.753 0 1.012-.794 1.674-2.007 1.674-1.138.001-1.948-.574-2.23-1.437zm5.026-1.71c0-1.743 1.315-3.147 3.173-3.147 1.124 0 2.111.576 2.615 1.466l-.409.235c-.4-.75-1.247-1.255-2.206-1.255-1.605 0-2.711 1.203-2.711 2.702 0 1.5 1.105 2.705 2.711 2.705.967 0 1.821-.515 2.225-1.283l.408.236c-.497.898-1.49 1.49-2.633 1.49-1.858-.001-3.173-1.404-3.173-3.149zm9.287.551h-1.926v2.501h-.462v-6.103h2.407c.993 0 1.804.811 1.804 1.805 0 .828-.566 1.524-1.342 1.735l1.519 2.563h-.534l-1.466-2.501zm-1.926-.437h1.945c.739 0 1.342-.609 1.342-1.36 0-.759-.603-1.369-1.342-1.369h-1.945v2.729zm4.536-.114c0-1.743 1.388-3.147 3.148-3.147s3.146 1.405 3.146 3.147a3.129 3.129 0 0 1-3.146 3.148 3.13 3.13 0 0 1-3.148-3.148zm5.832 0c0-1.499-1.177-2.702-2.686-2.702-1.507 0-2.685 1.203-2.685 2.702 0 1.5 1.178 2.705 2.685 2.705 1.509 0 2.686-1.205 2.686-2.705zm1.164-3.051h.487l1.58 5.484 1.702-5.484h.546l1.708 5.484 1.569-5.484h.489l-1.771 6.103h-.558l-1.709-5.501-1.718 5.501h-.559l-1.766-6.103zm-35.621 11.775c0-1.744 1.317-3.148 3.173-3.148 1.124 0 2.111.576 2.616 1.467l-.41.235c-.401-.751-1.245-1.256-2.206-1.256-1.604 0-2.71 1.204-2.71 2.703 0 1.498 1.106 2.703 2.71 2.703.969 0 1.823-.515 2.224-1.282l.411.234c-.497.9-1.49 1.493-2.635 1.493-1.856-.001-3.173-1.405-3.173-3.149zm6.551 0c0-1.744 1.388-3.148 3.148-3.148s3.146 1.404 3.146 3.148-1.386 3.148-3.146 3.148-3.148-1.404-3.148-3.148zm5.832 0c0-1.5-1.177-2.702-2.686-2.702-1.507 0-2.683 1.203-2.683 2.702 0 1.499 1.176 2.703 2.683 2.703 1.509-.001 2.686-1.204 2.686-2.703zm6.109-3.052v6.103h-.41l-3.603-5.248v5.248h-.463v-6.103h.402l3.61 5.249v-5.249h.464zm5.269.437h-1.92v5.667h-.47v-5.667h-1.92v-.436h4.31v.436zm3.349 3.165h-1.926v2.501h-.461v-6.103h2.405a1.81 1.81 0 0 1 1.807 1.804c0 .83-.568 1.525-1.346 1.736l1.519 2.563h-.531l-1.467-2.501zm-1.925-.437h1.944a1.35 1.35 0 0 0 1.341-1.359c0-.758-.6-1.369-1.341-1.369h-1.944v2.728zm8.4 1.386h-3.063l-.594 1.553h-.487l2.371-6.103h.489l2.36 6.103h-.487l-.589-1.553zm-.167-.435l-1.36-3.548-1.361 3.548h2.721zm1.79-1.064c0-1.744 1.315-3.148 3.173-3.148 1.126 0 2.109.576 2.617 1.467l-.411.235c-.398-.751-1.247-1.256-2.206-1.256-1.604 0-2.711 1.204-2.711 2.703 0 1.498 1.107 2.703 2.711 2.703.969 0 1.823-.515 2.225-1.282l.408.234c-.497.9-1.49 1.493-2.633 1.493-1.858-.001-3.173-1.405-3.173-3.149zm10.647-2.615h-1.916v5.667h-.473v-5.667h-1.918v-.436h4.307v.436zm.598 4.324l.398-.235c.21.732.828 1.229 1.831 1.229 1.021 0 1.535-.522 1.535-1.22 0-.733-.645-1.012-1.579-1.308-1.018-.331-1.934-.619-1.934-1.683 0-1.003.81-1.639 1.849-1.639 1.001 0 1.666.576 1.962 1.282l-.395.218c-.228-.55-.697-1.055-1.569-1.055-.846 0-1.376.498-1.376 1.177 0 .733.619.959 1.491 1.247 1.079.357 2.022.698 2.022 1.753 0 1.011-.796 1.674-2.007 1.674-1.14-.001-1.951-.577-2.228-1.44zm-37.209 59.907h-3.06l-.593 1.553h-.491l2.373-6.104h.487l2.363 6.104h-.487l-.592-1.553zm-.165-.436l-1.359-3.547-1.362 3.547h2.721zm4.526-.514h-1.926v2.502h-.461v-6.104h2.405a1.81 1.81 0 0 1 1.805 1.805c0 .83-.566 1.525-1.342 1.736l1.517 2.563h-.533l-1.465-2.502zm-1.925-.435h1.944c.741 0 1.341-.611 1.341-1.361 0-.758-.6-1.367-1.341-1.367h-1.944v2.728zm8.632-2.729h-1.916v5.666h-.471v-5.666h-1.92v-.438h4.307v.438zm1.426-.437v6.104h-.462v-6.104h.462zm1.98.437v2.439h2.816v.436h-2.816v2.791h-.461v-6.104h3.382v.438h-2.921zm4.518-.437v6.104h-.461v-6.104h.461zm1.168 3.053c0-1.744 1.315-3.148 3.175-3.148 1.126 0 2.109.576 2.617 1.465l-.411.236c-.4-.75-1.247-1.256-2.206-1.256-1.605 0-2.713 1.203-2.713 2.703 0 1.498 1.107 2.703 2.713 2.703.968 0 1.823-.516 2.223-1.283l.408.236c-.495.898-1.49 1.49-2.631 1.49-1.859 0-3.175-1.402-3.175-3.146zm10.413 1.498h-3.06l-.593 1.553h-.485l2.371-6.104h.487l2.363 6.104h-.492l-.591-1.553zm-.165-.436l-1.36-3.547-1.359 3.547h2.719zm5.48 1.553v.436h-3.341v-6.104h.462v5.666h2.879v.002zm-47.122 3.054v6.104h-.461v-6.104h.461zm5.991 0v6.104h-.411l-3.6-5.248v5.248h-.462v-6.104h.401l3.609 5.25v-5.25h.463zm5.268.438h-1.916v5.668h-.471v-5.668h-1.92v-.436h4.307v.436zm4.475 5.23v.436h-3.513v-6.104h3.471v.438h-3.01v2.371h2.792v.436h-2.792v2.424h3.052zm4.475 0v.436h-3.336v-6.104h.461v5.668h2.875zm4.303 0v.436h-3.34v-6.104h.461v5.668h2.879zm1.421-5.668v6.104h-.461v-6.104h.461zm7.326 3.497c0 1.475-1.124 2.705-2.947 2.705-1.892 0-3.207-1.404-3.207-3.15 0-1.742 1.315-3.146 3.173-3.146 1.136 0 2.119.594 2.624 1.475l-.408.244c-.403-.768-1.257-1.273-2.216-1.273-1.604 0-2.71 1.203-2.71 2.701 0 1.5 1.106 2.705 2.744 2.705 1.482 0 2.383-.916 2.478-2.057h-2.591v-.438h3.061v.234zm4.676 2.171v.436h-3.513v-6.104h3.469v.438h-3.008v2.371h2.792v.436h-2.792v2.424h3.052zm5.609-5.668v6.104h-.409l-3.602-5.248v5.248h-.461v-6.104h.398l3.612 5.25v-5.25h.462zm1.173 3.051c0-1.742 1.315-3.146 3.175-3.146 1.124 0 2.11.576 2.614 1.467l-.409.234c-.4-.75-1.247-1.256-2.205-1.256-1.605 0-2.712 1.203-2.712 2.703 0 1.498 1.106 2.703 2.712 2.703.967 0 1.82-.514 2.222-1.283l.411.236c-.5.898-1.491 1.492-2.633 1.492-1.86.001-3.175-1.404-3.175-3.15zm10.412 2.617v.436h-3.511v-6.104h3.469v.438h-3.008v2.371h2.788v.436h-2.788v2.424h3.05z"/><linearGradient id="i" gradientUnits="userSpaceOnUse" x1="-4907.417" y1="-425.594" x2="-4877.118" y2="-425.594" gradientTransform="rotate(90 -2556.007 2385.928)"><stop offset="0" stop-color="#706dcb" stop-opacity="0"/><stop offset="1" stop-color="#706dcb" stop-opacity=".7"/></linearGradient><path opacity=".2" fill="url(#i)" d="M248.793 64.817h2.903c5.821 0 10.539-4.719 10.539-10.539v-9.223c0-5.82-4.718-10.538-10.539-10.538h-2.903v30.3z"/><linearGradient id="j" gradientUnits="userSpaceOnUse" x1="-4837.498" y1="-425.594" x2="-4807.199" y2="-425.594" gradientTransform="rotate(90 -2556.007 2385.928)"><stop offset="0" stop-color="#706dcb" stop-opacity="0"/><stop offset="1" stop-color="#706dcb" stop-opacity=".7"/></linearGradient><path opacity=".2" fill="url(#j)" d="M248.793 134.736h2.903c5.821 0 10.539-4.718 10.539-10.539v-9.222c0-5.821-4.718-10.539-10.539-10.539h-2.903v30.3z"/><linearGradient id="k" gradientUnits="userSpaceOnUse" x1="-4767.143" y1="-425.594" x2="-4736.843" y2="-425.594" gradientTransform="rotate(90 -2556.007 2385.928)"><stop offset="0" stop-color="#706dcb" stop-opacity="0"/><stop offset="1" stop-color="#706dcb" stop-opacity=".7"/></linearGradient><path opacity=".2" fill="url(#k)" d="M248.793 205.092h2.903c5.821 0 10.539-4.718 10.539-10.538v-9.223c0-5.821-4.718-10.539-10.539-10.539h-2.903v30.3z"/><linearGradient id="l" gradientUnits="userSpaceOnUse" x1="-4697.224" y1="-425.594" x2="-4666.925" y2="-425.594" gradientTransform="rotate(90 -2556.007 2385.928)"><stop offset="0" stop-color="#706dcb" stop-opacity="0"/><stop offset="1" stop-color="#706dcb" stop-opacity=".7"/></linearGradient><path opacity=".2" fill="url(#l)" d="M248.793 275.01h2.903c5.821 0 10.539-4.717 10.539-10.537v-9.223c0-5.822-4.718-10.539-10.539-10.539h-2.903v30.299z"/></svg>