<svg xmlns="http://www.w3.org/2000/svg" width="229.998" height="310.498" viewBox="296.236 11.283 229.998 310.498"><path d="M385.148 15.694c0-2.443 1.845-4.411 4.447-4.411 1.576 0 2.959.807 3.666 2.053l-.574.33c-.563-1.052-1.75-1.76-3.092-1.76-2.248 0-3.802 1.687-3.802 3.788s1.554 3.789 3.802 3.789c1.355 0 2.553-.722 3.115-1.796l.575.329c-.697 1.259-2.091 2.09-3.69 2.09-2.602 0-4.447-1.969-4.447-4.412zm13.814 2.101h-4.288l-.832 2.175h-.685l3.323-8.553h.685l3.312 8.553h-.685l-.83-2.175zm-.232-.611l-1.905-4.974-1.906 4.974h3.811zm7.793-3.115c0 1.503-1.125 2.639-2.666 2.639h-2.26v3.263h-.647v-8.553h2.907c1.541 0 2.666 1.135 2.666 2.651zm-.647 0c0-1.185-.845-2.041-2.019-2.041h-2.26v4.069h2.26c1.175 0 2.019-.856 2.019-2.028zm.961 4.021l.562-.331c.293 1.026 1.162 1.722 2.565 1.722 1.431 0 2.151-.732 2.151-1.71 0-1.025-.905-1.417-2.211-1.833-1.432-.464-2.715-.867-2.715-2.359 0-1.404 1.139-2.296 2.59-2.296 1.406 0 2.334.807 2.75 1.796l-.549.306c-.318-.769-.978-1.479-2.201-1.479-1.186 0-1.93.698-1.93 1.65 0 1.025.867 1.344 2.09 1.748 1.515.5 2.834.977 2.834 2.456 0 1.416-1.112 2.346-2.811 2.346-1.599 0-2.733-.808-3.125-2.016zm-91.164 104.815l1.806-1.047c.328.759.891 1.271 1.924 1.271.996 0 1.244-.394 1.244-.748 0-.561-.523-.784-1.897-1.165-1.36-.377-2.694-1.031-2.694-2.785 0-1.768 1.49-2.788 3.075-2.788 1.504 0 2.683.72 3.349 2.067l-1.767 1.034c-.313-.654-.746-1.059-1.583-1.059-.656 0-.982.326-.982.693 0 .418.223.707 1.649 1.139 1.386.417 2.944.903 2.944 2.839 0 1.766-1.414 2.813-3.403 2.813-1.925.001-3.154-.917-3.665-2.264zm7.722-2.5c0-2.695 2.131-4.762 4.763-4.762 2.63 0 4.763 2.067 4.763 4.762s-2.133 4.763-4.763 4.763c-2.633.002-4.763-2.068-4.763-4.763zm7.431 0c0-1.635-1.178-2.722-2.668-2.722-1.493 0-2.67 1.086-2.67 2.722 0 1.638 1.178 2.724 2.67 2.724 1.49-.001 2.668-1.087 2.668-2.724zm5.363-2.562v1.764h3.404v2.016h-3.404v3.364h-2.094v-9.161h5.562v2.017h-3.468zm10.86 0h-2.354v7.144h-2.094v-7.144h-2.354v-2.017h6.802v2.017zm3.797 2.562c0-2.695 2.004-4.762 4.764-4.762 1.66 0 3.125.825 3.924 2.119l-1.807 1.047c-.403-.706-1.188-1.126-2.117-1.126-1.623 0-2.67 1.086-2.67 2.722 0 1.638 1.047 2.724 2.67 2.724.929 0 1.727-.42 2.117-1.126l1.807 1.045c-.785 1.295-2.25 2.12-3.924 2.12-2.76.002-4.764-2.068-4.764-4.763zm15.164 3.141h-3.4l-.457 1.44h-2.291l3.113-9.161h2.67l3.112 9.161h-2.288l-.459-1.44zm-.627-1.961l-1.074-3.364-1.072 3.364h2.146zm10.835-2.618c0 1.74-1.401 3.141-3.206 3.141h-1.373v2.878h-2.095v-9.161h3.468c1.804 0 3.206 1.402 3.206 3.142zm-2.094 0c0-.667-.474-1.179-1.112-1.179h-1.373v2.357h1.373c.64 0 1.112-.512 1.112-1.178z" fill="#FFF"/><g fill="#FFF"><path d="M310.262 138.482c0 1.746-1.361 2.656-2.892 2.656-1.259 0-2.349-.534-2.833-1.701l1.564-.909c.182.522.521.841 1.27.841s1.078-.398 1.078-.885c0-.488-.329-.885-1.021-.885h-2.484l.33-4.558h4.594v1.698h-2.893l-.078 1.091h.646c1.473 0 2.719.906 2.719 2.652zm3.345-5.443v7.939h-1.813v-6.022l-1.405.387-.443-1.557 2.076-.748 1.585.001zm2.541 3.97c0-2.451 1.179-4.127 3.23-4.127 2.055 0 3.232 1.676 3.232 4.127s-1.18 4.129-3.232 4.129c-2.051 0-3.23-1.679-3.23-4.129zm4.649 0c0-1.53-.465-2.358-1.418-2.358-.952 0-1.417.828-1.417 2.358 0 1.532.466 2.361 1.417 2.361.953-.003 1.418-.831 1.418-2.361z"/><path d="M322.578 137.009c0-2.451 1.179-4.127 3.23-4.127 2.053 0 3.233 1.676 3.233 4.127s-1.181 4.129-3.233 4.129c-2.051 0-3.23-1.679-3.23-4.129zm4.651 0c0-1.53-.467-2.358-1.42-2.358-.951 0-1.416.828-1.416 2.358 0 1.532.465 2.361 1.416 2.361.953-.003 1.42-.831 1.42-2.361z"/><path d="M329.007 137.009c0-2.451 1.179-4.127 3.231-4.127s3.232 1.676 3.232 4.127-1.18 4.129-3.232 4.129-3.231-1.679-3.231-4.129zm4.649 0c0-1.53-.465-2.358-1.418-2.358-.952 0-1.418.828-1.418 2.358 0 1.532.465 2.361 1.418 2.361.953-.003 1.418-.831 1.418-2.361zm3.903 0c0-2.451 1.18-4.127 3.23-4.127 2.055 0 3.232 1.676 3.232 4.127s-1.179 4.129-3.232 4.129c-2.051 0-3.23-1.679-3.23-4.129zm4.649 0c0-1.53-.466-2.358-1.419-2.358-.952 0-1.416.828-1.416 2.358 0 1.532.466 2.361 1.416 2.361.953-.003 1.419-.831 1.419-2.361z"/><path d="M343.986 137.009c0-2.451 1.182-4.127 3.234-4.127 2.051 0 3.231 1.676 3.231 4.127s-1.181 4.129-3.231 4.129c-2.052 0-3.234-1.679-3.234-4.129zm4.651 0c0-1.53-.465-2.358-1.416-2.358-.955 0-1.418.828-1.418 2.358 0 1.532.463 2.361 1.418 2.361.951-.003 1.416-.831 1.416-2.361z"/><path d="M350.418 137.009c0-2.451 1.18-4.127 3.23-4.127 2.055 0 3.232 1.676 3.232 4.127s-1.179 4.129-3.232 4.129c-2.05 0-3.23-1.679-3.23-4.129zm4.648 0c0-1.53-.465-2.358-1.416-2.358-.953 0-1.418.828-1.418 2.358 0 1.532.466 2.361 1.418 2.361.952-.003 1.416-.831 1.416-2.361zm6.436 1.219c0-1.57 1.248-2.833 2.835-2.833s2.835 1.263 2.835 2.833a2.819 2.819 0 0 1-2.835 2.835 2.818 2.818 0 0 1-2.835-2.835zm5.255 0a2.408 2.408 0 0 0-2.419-2.433 2.41 2.41 0 0 0-2.419 2.433 2.41 2.41 0 0 0 2.419 2.435c1.359 0 2.419-1.084 2.419-2.435zm1.388-2.354v2.197h2.539v.393h-2.539v2.514h-.416v-5.497h3.049v.394l-2.633-.001zm2.841 2.354c0-1.57 1.187-2.833 2.861-2.833 1.012 0 1.898.519 2.354 1.318l-.368.212c-.36-.675-1.122-1.13-1.987-1.13-1.445 0-2.441 1.084-2.441 2.435s.996 2.433 2.441 2.433c.872 0 1.641-.463 2.002-1.154l.37.212c-.448.809-1.343 1.345-2.372 1.345-1.673-.003-2.86-1.266-2.86-2.838z"/></g><path d="M308.568 188.803c0 1.74-1.399 3.141-3.205 3.141h-1.375v2.878h-2.094v-9.16h3.469c1.805 0 3.205 1.401 3.205 3.141zm-2.093 0c0-.668-.471-1.178-1.111-1.178h-1.375v2.355h1.375c.64 0 1.111-.511 1.111-1.177zm2.748 1.438c0-2.694 2.133-4.762 4.762-4.762 2.631 0 4.764 2.067 4.764 4.762s-2.133 4.765-4.764 4.765c-2.63 0-4.762-2.07-4.762-4.765zm7.431 0c0-1.635-1.176-2.721-2.67-2.721-1.491 0-2.668 1.085-2.668 2.721 0 1.638 1.177 2.724 2.668 2.724 1.495 0 2.67-1.086 2.67-2.724zm2.617-4.579h2.199l1.584 6.412 1.766-6.412h1.701l1.767 6.412 1.582-6.412h2.198l-2.525 9.16h-2.381l-1.491-5.402-1.493 5.402h-2.38l-2.527-9.16zm19.471 7.147v2.014h-5.758v-9.16h5.692v2.016h-3.598v1.518h3.272v1.99h-3.272v1.623h3.664zm4.264-.996h-.992v3.009h-2.094v-9.16h3.663c1.74 0 3.14 1.401 3.14 3.142 0 1.125-.68 2.146-1.688 2.655l1.949 3.363h-2.248l-1.73-3.009zm-.992-1.833h1.569c.575 0 1.047-.512 1.047-1.178 0-.668-.472-1.178-1.047-1.178h-1.569v2.356zm8.832.261c0-2.694 2.002-4.762 4.762-4.762 1.662 0 3.127.823 3.927 2.118l-1.808 1.047c-.404-.706-1.189-1.125-2.119-1.125-1.623 0-2.668 1.085-2.668 2.721 0 1.637 1.045 2.723 2.668 2.723.93 0 1.728-.42 2.119-1.125l1.808 1.045c-.786 1.295-2.251 2.121-3.927 2.121-2.76.002-4.762-2.068-4.762-4.763zm15.166 3.142h-3.402l-.459 1.439h-2.289l3.113-9.16h2.67l3.113 9.16h-2.287l-.459-1.439zm-.628-1.961l-1.073-3.363-1.074 3.363h2.147zm10.834-2.619c0 1.74-1.399 3.141-3.204 3.141h-1.375v2.878h-2.096v-9.16h3.471c1.804 0 3.204 1.401 3.204 3.141zm-2.093 0c0-.668-.473-1.178-1.111-1.178h-1.375v2.355h1.375c.638 0 1.111-.511 1.111-1.177z" fill="#FFF"/><g fill="#FFF"><path d="M296.314 209.499l2.664-2.767c.465-.477.805-.941.805-1.406 0-.5-.317-.839-.85-.839-.556 0-.951.362-1.168.86l-1.529-.895c.51-1.181 1.576-1.734 2.676-1.734 1.418 0 2.688.929 2.688 2.529 0 .951-.512 1.77-1.236 2.494l-1.315 1.327h2.666v1.747h-5.399v-1.316h-.002zm5.42-2.653c0-2.451 1.18-4.129 3.231-4.129 2.054 0 3.232 1.678 3.232 4.129 0 2.449-1.179 4.127-3.232 4.127-2.05 0-3.231-1.678-3.231-4.127zm4.651 0c0-1.532-.466-2.359-1.419-2.359-.952 0-1.416.827-1.416 2.359 0 1.531.464 2.358 1.416 2.358.953 0 1.419-.829 1.419-2.358z"/><path d="M314.289 209.545h-.793v1.27h-1.839v-1.27h-3.607v-1.679l2.529-4.99h1.95l-2.528 4.99h1.655v-1.701h1.838v1.701h.793v1.679h.002zm1.859-2.699c0-2.451 1.179-4.129 3.231-4.129 2.054 0 3.231 1.678 3.231 4.129 0 2.449-1.18 4.127-3.231 4.127s-3.231-1.678-3.231-4.127zm4.65 0c0-1.532-.465-2.359-1.418-2.359-.95 0-1.417.827-1.417 2.359 0 1.531.465 2.358 1.417 2.358.953.001 1.418-.829 1.418-2.358z"/><path d="M322.578 206.846c0-2.451 1.18-4.129 3.23-4.129 2.053 0 3.232 1.678 3.232 4.129 0 2.449-1.18 4.127-3.232 4.127-2.05 0-3.23-1.678-3.23-4.127zm4.651 0c0-1.532-.465-2.359-1.418-2.359s-1.416.827-1.416 2.359c0 1.531.463 2.358 1.416 2.358.953.001 1.418-.829 1.418-2.358z"/><path d="M329.008 206.846c0-2.451 1.18-4.129 3.231-4.129s3.233 1.678 3.233 4.129c0 2.449-1.182 4.127-3.233 4.127s-3.231-1.678-3.231-4.127zm4.65 0c0-1.532-.465-2.359-1.417-2.359s-1.417.827-1.417 2.359c0 1.531.465 2.358 1.417 2.358.95 0 1.417-.829 1.417-2.358zm3.901 0c0-2.451 1.18-4.129 3.231-4.129 2.053 0 3.233 1.678 3.233 4.129 0 2.449-1.182 4.127-3.233 4.127s-3.231-1.678-3.231-4.127zm4.65 0c0-1.532-.466-2.359-1.419-2.359s-1.417.827-1.417 2.359c0 1.531.464 2.358 1.417 2.358.954 0 1.419-.829 1.419-2.358z"/><path d="M343.988 206.846c0-2.451 1.18-4.129 3.23-4.129 2.055 0 3.233 1.678 3.233 4.129 0 2.449-1.181 4.127-3.233 4.127-2.05 0-3.23-1.678-3.23-4.127zm4.649 0c0-1.532-.464-2.359-1.416-2.359-.953 0-1.418.827-1.418 2.359 0 1.531.465 2.358 1.418 2.358.952.001 1.416-.829 1.416-2.358z"/><path d="M350.419 206.846c0-2.451 1.179-4.129 3.231-4.129s3.231 1.678 3.231 4.129c0 2.449-1.18 4.127-3.231 4.127-2.052 0-3.231-1.678-3.231-4.127zm4.647 0c0-1.532-.463-2.359-1.416-2.359-.952 0-1.418.827-1.418 2.359 0 1.531.467 2.358 1.418 2.358.954 0 1.416-.829 1.416-2.358zm6.438 1.219c0-1.569 1.248-2.834 2.835-2.834s2.834 1.265 2.834 2.834a2.818 2.818 0 0 1-2.834 2.835 2.817 2.817 0 0 1-2.835-2.835zm5.253 0c0-1.351-1.059-2.435-2.418-2.435-1.358 0-2.418 1.084-2.418 2.435s1.06 2.434 2.418 2.434c1.359 0 2.418-1.083 2.418-2.434zm1.389-2.354v2.197h2.535v.395h-2.535v2.512h-.418v-5.498h3.047v.394h-2.629zm2.842 2.354c0-1.569 1.185-2.834 2.859-2.834 1.012 0 1.899.518 2.354 1.319l-.368.211c-.36-.676-1.122-1.129-1.985-1.129-1.445 0-2.443 1.082-2.443 2.434 0 1.351.998 2.434 2.443 2.434.871 0 1.639-.463 2-1.154l.37.213c-.446.809-1.341 1.343-2.37 1.343-1.675-.002-2.86-1.265-2.86-2.837z"/></g><path d="M320.163 255.297v9.159h-2.095v-3.639h-2.877v3.639H313.1v-9.159h2.092v3.508h2.877v-3.508h2.094zm6.937 7.721h-3.402l-.459 1.438h-2.29l3.114-9.159h2.67l3.115 9.159h-2.291l-.457-1.438zm-.627-1.963l-1.076-3.363-1.07 3.363h2.146zm7.248.392h-.996v3.01h-2.094v-9.16h3.664a3.134 3.134 0 0 1 3.141 3.142c0 1.125-.68 2.146-1.688 2.655l1.949 3.363h-2.25l-1.726-3.01zm-.996-1.832h1.57c.576 0 1.047-.512 1.047-1.178 0-.668-.471-1.178-1.047-1.178h-1.57v2.356zm14.067.261c0 2.591-1.924 4.58-4.448 4.58h-3.664v-9.159h3.664c2.524 0 4.448 1.987 4.448 4.579zm-2.015 0c0-1.569-.995-2.563-2.434-2.563h-1.572v5.129h1.572c1.439-.001 2.434-.995 2.434-2.566zm6.073 0c0-2.694 2.002-4.762 4.762-4.762 1.662 0 3.127.821 3.925 2.119l-1.806 1.045c-.404-.707-1.189-1.125-2.119-1.125-1.625 0-2.668 1.086-2.668 2.724 0 1.635 1.043 2.723 2.668 2.723.929 0 1.725-.42 2.119-1.127l1.806 1.047c-.785 1.295-2.252 2.121-3.925 2.121-2.76 0-4.762-2.071-4.762-4.765zm15.164 3.142h-3.402l-.457 1.438h-2.291l3.115-9.159h2.668l3.115 9.159h-2.291l-.457-1.438zm-.629-1.963l-1.074-3.363-1.07 3.363h2.144zm10.833-2.617c0 1.742-1.397 3.141-3.202 3.141h-1.375v2.879h-2.094v-9.16h3.469c1.804-.001 3.202 1.4 3.202 3.14zm-2.092 0c0-.668-.47-1.178-1.11-1.178h-1.375v2.354h1.375c.64.001 1.11-.51 1.11-1.176z" fill="#FFF"/><g fill="#FFF"><path d="M303.83 277.952c0 1.748-1.359 2.656-2.893 2.656-1.261 0-2.348-.533-2.834-1.701l1.564-.908c.182.521.521.841 1.27.841s1.078-.396 1.078-.886c0-.485-.33-.885-1.021-.885h-2.483l.328-4.56h4.594v1.699h-2.893l-.079 1.09h.647c1.475.003 2.722.908 2.722 2.654zm3.345-5.44v7.936h-1.813v-6.02l-1.406.387-.441-1.557 2.074-.746h1.586zm.423 3.968c0-2.451 1.18-4.127 3.23-4.127 2.052 0 3.232 1.676 3.232 4.127 0 2.449-1.181 4.129-3.232 4.129-2.053 0-3.23-1.679-3.23-4.129zm4.647 0c0-1.531-.466-2.359-1.417-2.359-.954 0-1.417.828-1.417 2.359s.464 2.359 1.417 2.359c.951-.001 1.417-.829 1.417-2.359zm3.901 0c0-2.451 1.18-4.127 3.232-4.127s3.23 1.676 3.23 4.127c0 2.449-1.178 4.129-3.23 4.129s-3.232-1.679-3.232-4.129zm4.65 0c0-1.531-.464-2.359-1.417-2.359s-1.417.828-1.417 2.359.464 2.359 1.417 2.359 1.417-.829 1.417-2.359z"/><path d="M322.577 276.48c0-2.451 1.179-4.127 3.229-4.127 2.053 0 3.233 1.676 3.233 4.127 0 2.449-1.181 4.129-3.233 4.129-2.05 0-3.229-1.679-3.229-4.129zm4.65 0c0-1.531-.467-2.359-1.418-2.359-.953 0-1.416.828-1.416 2.359s.463 2.359 1.416 2.359c.951-.001 1.418-.829 1.418-2.359z"/><path d="M329.006 276.48c0-2.451 1.18-4.127 3.232-4.127 2.052 0 3.229 1.676 3.229 4.127 0 2.449-1.179 4.129-3.229 4.129-2.052 0-3.232-1.679-3.232-4.129zm4.648 0c0-1.531-.463-2.359-1.416-2.359s-1.418.828-1.418 2.359.464 2.359 1.418 2.359c.953-.001 1.416-.829 1.416-2.359zm3.903 0c0-2.451 1.18-4.127 3.231-4.127 2.054 0 3.231 1.676 3.231 4.127 0 2.449-1.178 4.129-3.231 4.129-2.052 0-3.231-1.679-3.231-4.129zm4.648 0c0-1.531-.465-2.359-1.417-2.359s-1.417.828-1.417 2.359.465 2.359 1.417 2.359c.952-.001 1.417-.829 1.417-2.359z"/><path d="M343.986 276.48c0-2.451 1.179-4.127 3.231-4.127 2.054 0 3.23 1.676 3.23 4.127 0 2.449-1.179 4.129-3.23 4.129-2.052 0-3.231-1.679-3.231-4.129zm4.651 0c0-1.531-.466-2.359-1.419-2.359-.954 0-1.417.828-1.417 2.359s.465 2.359 1.417 2.359c.953-.001 1.419-.829 1.419-2.359z"/><path d="M350.418 276.48c0-2.451 1.178-4.127 3.23-4.127 2.054 0 3.23 1.676 3.23 4.127 0 2.449-1.178 4.129-3.23 4.129-2.05 0-3.23-1.679-3.23-4.129zm4.646 0c0-1.531-.465-2.359-1.416-2.359-.955 0-1.418.828-1.418 2.359s.463 2.359 1.418 2.359c.954-.001 1.416-.829 1.416-2.359zm6.436 1.22a2.822 2.822 0 0 1 2.835-2.836 2.822 2.822 0 0 1 2.837 2.836 2.82 2.82 0 0 1-2.837 2.834 2.819 2.819 0 0 1-2.835-2.834zm5.255 0c0-1.351-1.062-2.435-2.419-2.435s-2.418 1.084-2.418 2.435 1.061 2.435 2.418 2.435c1.359 0 2.419-1.084 2.419-2.435zm1.388-2.356v2.198h2.537v.394h-2.537v2.512h-.416v-5.496h3.049v.393h-2.633v-.001zm2.843 2.356c0-1.569 1.186-2.836 2.857-2.836 1.014 0 1.901.521 2.356 1.319l-.369.212c-.36-.677-1.124-1.13-1.987-1.13-1.445 0-2.441 1.084-2.441 2.435 0 1.353.998 2.435 2.441 2.435.873 0 1.643-.463 2.002-1.154l.372.213c-.448.809-1.344 1.344-2.37 1.344-1.675-.004-2.861-1.267-2.861-2.838z"/></g><path d="M333.966 54.751h-2.094v-5.325l-2.368 3.886h-.234l-2.369-3.886v5.325h-2.092v-9.16h2.092l2.488 4.07 2.484-4.07h2.094l-.001 9.16zm3.665-9.16v9.16h-2.094v-9.16h2.094zm8.767 0v9.16h-1.571l-3.533-4.973v4.973h-2.093v-9.16h1.57l3.533 4.973v-4.973h2.094zm4.448 4.58c0-2.695 2.004-4.762 4.764-4.762 1.66 0 3.127.824 3.925 2.12l-1.806 1.046c-.405-.706-1.19-1.125-2.119-1.125-1.623 0-2.67 1.085-2.67 2.722 0 1.636 1.047 2.723 2.67 2.723.929 0 1.727-.42 2.119-1.125l1.806 1.046c-.784 1.295-2.25 2.12-3.925 2.12-2.76-.002-4.764-2.07-4.764-4.765zm15.166 3.142h-3.402l-.457 1.438h-2.291l3.113-9.16h2.67l3.114 9.16h-2.291l-.456-1.438zm-.627-1.963l-1.074-3.363-1.072 3.363h2.146zm10.833-2.618c0 1.74-1.401 3.141-3.204 3.141h-1.375v2.879h-2.094v-9.16h3.469c1.802-.001 3.204 1.4 3.204 3.14zm-2.093 0c0-.667-.473-1.178-1.111-1.178h-1.375v2.355h1.375c.638 0 1.111-.51 1.111-1.177z" fill="#FFF"/><g fill="#FFF"><path d="M309.186 62.805v7.938h-1.816v-6.021l-1.404.386-.443-1.554 2.076-.748 1.587-.001zm.328 6.623l2.666-2.767c.465-.477.807-.941.807-1.406 0-.499-.318-.839-.853-.839-.556 0-.952.363-1.168.861l-1.53-.896c.512-1.181 1.576-1.734 2.676-1.734 1.418 0 2.688.929 2.688 2.529 0 .952-.511 1.769-1.236 2.495l-1.316 1.327h2.666v1.747h-5.396l-.004-1.317zm13.154-1.18c0 1.746-1.359 2.654-2.893 2.654-1.258 0-2.346-.533-2.834-1.7l1.564-.908c.182.521.521.84 1.27.84.75 0 1.078-.397 1.078-.885 0-.487-.328-.885-1.021-.885h-2.483l.33-4.558h4.594v1.699h-2.894l-.08 1.09h.646c1.475 0 2.723.907 2.723 2.653z"/><path d="M322.577 66.774c0-2.45 1.18-4.127 3.231-4.127 2.053 0 3.233 1.677 3.233 4.127 0 2.45-1.181 4.128-3.233 4.128-2.051 0-3.231-1.678-3.231-4.128zm4.652 0c0-1.531-.467-2.358-1.42-2.358s-1.418.827-1.418 2.358c0 1.532.465 2.36 1.418 2.36.953-.001 1.42-.83 1.42-2.36z"/><path d="M329.007 66.774c0-2.45 1.181-4.127 3.233-4.127s3.232 1.677 3.232 4.127c0 2.45-1.181 4.128-3.232 4.128-2.054 0-3.233-1.678-3.233-4.128zm4.649 0c0-1.531-.465-2.358-1.416-2.358-.953 0-1.417.827-1.417 2.358 0 1.532.464 2.36 1.417 2.36.951-.001 1.416-.83 1.416-2.36zm3.903 0c0-2.45 1.178-4.127 3.23-4.127 2.054 0 3.232 1.677 3.232 4.127 0 2.45-1.18 4.128-3.232 4.128s-3.23-1.678-3.23-4.128zm4.649 0c0-1.531-.466-2.358-1.419-2.358-.952 0-1.416.827-1.416 2.358 0 1.532.464 2.36 1.416 2.36.953-.001 1.419-.83 1.419-2.36z"/><path d="M343.986 66.774c0-2.45 1.182-4.127 3.234-4.127 2.051 0 3.232 1.677 3.232 4.127 0 2.45-1.182 4.128-3.232 4.128-2.052 0-3.234-1.678-3.234-4.128zm4.653 0c0-1.531-.466-2.358-1.418-2.358-.953 0-1.416.827-1.416 2.358 0 1.532.463 2.36 1.416 2.36.952 0 1.418-.83 1.418-2.36z"/><path d="M350.418 66.774c0-2.45 1.178-4.127 3.232-4.127 2.053 0 3.23 1.677 3.23 4.127 0 2.45-1.178 4.128-3.23 4.128-2.054 0-3.232-1.678-3.232-4.128zm4.648 0c0-1.531-.465-2.358-1.418-2.358-.951 0-1.416.827-1.416 2.358 0 1.532.466 2.36 1.416 2.36.954-.001 1.418-.83 1.418-2.36zm6.436 1.22a2.818 2.818 0 0 1 2.835-2.833 2.818 2.818 0 0 1 2.835 2.833c0 1.572-1.249 2.835-2.835 2.835s-2.835-1.263-2.835-2.835zm5.255 0c0-1.35-1.06-2.434-2.419-2.434a2.409 2.409 0 0 0-2.418 2.434c0 1.351 1.061 2.435 2.418 2.435a2.41 2.41 0 0 0 2.419-2.435zm1.389-2.355v2.198h2.537v.394h-2.537v2.513h-.416v-5.497h3.047v.393l-2.631-.001zm2.84 2.355c0-1.569 1.188-2.833 2.861-2.833 1.012 0 1.898.518 2.354 1.319l-.368.212c-.36-.677-1.123-1.131-1.985-1.131-1.445 0-2.443 1.083-2.443 2.434 0 1.352.998 2.435 2.443 2.435.87 0 1.641-.464 2-1.154l.37.212c-.448.809-1.342 1.343-2.37 1.343-1.674-.002-2.862-1.265-2.862-2.837z"/></g><linearGradient id="a" gradientUnits="userSpaceOnUse" x1="386.214" y1="211.857" x2="386.214" y2="241.952" gradientTransform="matrix(1 0 0 -1 84 285.498)"><stop offset="0" stop-color="#706dcb"/><stop offset="1" stop-color="#706dcb" stop-opacity=".7"/></linearGradient><path opacity=".4" fill="url(#a)" d="M435.014 43.545v9.821l-5.446 5.009 5.446 5.009V73.64h75.843V43.545z"/><linearGradient id="b" gradientUnits="userSpaceOnUse" x1="386.214" y1="142.041" x2="386.214" y2="172.136" gradientTransform="matrix(1 0 0 -1 84 285.498)"><stop offset="0" stop-color="#706dcb"/><stop offset="1" stop-color="#706dcb" stop-opacity=".7"/></linearGradient><path opacity=".6" fill="url(#b)" d="M435.014 113.362v9.753l-5.446 5.008 5.446 5.008v10.326h75.843v-30.095z"/><linearGradient id="c" gradientUnits="userSpaceOnUse" x1="386.214" y1="71.788" x2="386.214" y2="101.883" gradientTransform="matrix(1 0 0 -1 84 285.498)"><stop offset="0" stop-color="#706dcb"/><stop offset="1" stop-color="#706dcb" stop-opacity=".7"/></linearGradient><path opacity=".8" fill="url(#c)" d="M435.014 183.615v9.823l-5.446 5.007 5.446 5.007v10.259h75.843v-30.096z"/><linearGradient id="d" gradientUnits="userSpaceOnUse" x1="386.214" y1="1.753" x2="386.214" y2="31.848" gradientTransform="matrix(1 0 0 -1 84 285.498)"><stop offset="0" stop-color="#706dcb"/><stop offset="1" stop-color="#706dcb" stop-opacity=".7"/></linearGradient><path fill="url(#d)" d="M435.014 253.65v9.735l-5.446 5.006 5.446 5.011v10.343h75.843V253.65z"/><path fill="#FFF" d="M406.177 313.807l-6.19 7.809a.44.44 0 0 1-.687 0l-6.106-7.811a.436.436 0 1 1 .687-.539l5.766 7.375 5.847-7.377a.43.43 0 0 1 .61-.072c.11.086.166.213.166.342a.45.45 0 0 1-.093.273zm-6.532-265.794a.435.435 0 0 1-.437-.436V28.819a.437.437 0 1 1 .874 0v18.759a.437.437 0 0 1-.437.435z"/><path fill="#FFF" d="M399.645 69.606c-6.192 0-11.231-5.039-11.231-11.231 0-6.193 5.04-11.232 11.231-11.232s11.231 5.039 11.231 11.232c0 6.192-5.04 11.231-11.231 11.231zm0-.872c5.713 0 10.358-4.648 10.358-10.359 0-5.712-4.646-10.359-10.358-10.359s-10.358 4.647-10.358 10.359c-.001 5.711 4.645 10.359 10.358 10.359z"/><linearGradient id="e" gradientUnits="userSpaceOnUse" x1="-5010.755" y1="282.706" x2="-4999.525" y2="282.706" gradientTransform="matrix(0 -1 -1 0 682.349 -4946.765)"><stop offset="0" stop-color="#706dcb" stop-opacity="0"/><stop offset="1" stop-color="#706dcb" stop-opacity=".7"/></linearGradient><circle fill="url(#e)" cx="399.643" cy="58.375" r="5.615"/><path fill="#FFF" d="M399.645 139.64c-6.192 0-11.231-5.039-11.231-11.231s5.04-11.231 11.231-11.231 11.231 5.039 11.231 11.231-5.04 11.231-11.231 11.231zm0-.872c5.713 0 10.358-4.646 10.358-10.358s-4.646-10.359-10.358-10.359-10.358 4.647-10.358 10.359 4.645 10.358 10.358 10.358z"/><linearGradient id="f" gradientUnits="userSpaceOnUse" x1="-5012.888" y1="350.609" x2="-5001.656" y2="350.609" gradientTransform="matrix(0 -1 -1 0 750.253 -4878.863)"><stop offset="0" stop-color="#706dcb" stop-opacity="0"/><stop offset="1" stop-color="#706dcb" stop-opacity=".7"/></linearGradient><circle fill="url(#f)" cx="399.645" cy="128.409" r="5.616"/><path fill="#FFF" d="M399.645 209.676c-6.192 0-11.231-5.037-11.231-11.23 0-6.191 5.04-11.23 11.231-11.23s11.231 5.039 11.231 11.23-5.04 11.23-11.231 11.23zm0-.873c5.713 0 10.358-4.646 10.358-10.358s-4.646-10.358-10.358-10.358-10.358 4.646-10.358 10.358 4.645 10.358 10.358 10.358z"/><linearGradient id="g" gradientUnits="userSpaceOnUse" x1="-5015.02" y1="418.513" x2="-5003.789" y2="418.513" gradientTransform="matrix(0 -1 -1 0 818.155 -4810.958)"><stop offset="0" stop-color="#706dcb" stop-opacity="0"/><stop offset="1" stop-color="#706dcb" stop-opacity=".7"/></linearGradient><circle fill="url(#g)" cx="399.643" cy="198.445" r="5.615"/><path fill="#FFF" d="M399.645 279.711c-6.192 0-11.231-5.037-11.231-11.23s5.04-11.232 11.231-11.232 11.231 5.039 11.231 11.232-5.04 11.23-11.231 11.23zm0-.871c5.713 0 10.358-4.648 10.358-10.359s-4.646-10.359-10.358-10.359-10.358 4.648-10.358 10.359 4.645 10.359 10.358 10.359z"/><linearGradient id="h" gradientUnits="userSpaceOnUse" x1="-5017.15" y1="486.418" x2="-5005.919" y2="486.418" gradientTransform="matrix(0 -1 -1 0 886.062 -4743.052)"><stop offset="0" stop-color="#706dcb" stop-opacity="0"/><stop offset="1" stop-color="#706dcb" stop-opacity=".7"/></linearGradient><circle fill="url(#h)" cx="399.645" cy="268.482" r="5.616"/><path fill="#FFF" d="M399.645 320.854a.435.435 0 0 1-.437-.437v-41.143a.437.437 0 1 1 .874 0v41.143a.44.44 0 0 1-.437.437zm0-202.803a.436.436 0 0 1-.437-.438v-47.57a.436.436 0 1 1 .874 0v47.57a.438.438 0 0 1-.437.438zm0 69.164a.438.438 0 0 1-.437-.438v-47.571a.438.438 0 0 1 .874 0v47.571a.44.44 0 0 1-.437.438zm0 70.032a.434.434 0 0 1-.437-.434v-47.575a.437.437 0 1 1 .874 0v47.575a.436.436 0 0 1-.437.434zm10.431-199.091h15.514v.437h-15.514zm0 69.749h15.514v.437h-15.514zm0 70.322h15.514v.438h-15.514zm0 70.035h15.514v.436h-15.514zm46.517-214.249c0-1.744 1.315-3.148 3.173-3.148 1.123 0 2.108.576 2.614 1.466l-.409.235c-.402-.75-1.248-1.256-2.205-1.256-1.605 0-2.711 1.204-2.711 2.703s1.104 2.704 2.711 2.704c.967 0 1.822-.515 2.223-1.283l.41.236c-.498.898-1.492 1.491-2.633 1.491-1.858 0-3.173-1.404-3.173-3.148zm9.286.55h-1.926v2.501h-.461v-6.103h2.404a1.81 1.81 0 0 1 1.806 1.805c0 .829-.566 1.524-1.343 1.735l1.518 2.563h-.533l-1.465-2.501zm-1.926-.437h1.943c.742 0 1.344-.609 1.344-1.36 0-.758-.602-1.369-1.344-1.369h-1.943v2.729zm6.35.427v2.511h-.464v-2.511l-2.222-3.592h.523l1.937 3.148 1.926-3.148h.522l-2.222 3.592zm7.047-1.699c0 1.074-.8 1.884-1.899 1.884h-1.613v2.328h-.461v-6.103h2.074c1.099-.002 1.899.809 1.899 1.891zm-.464 0c0-.844-.601-1.454-1.437-1.454h-1.613v2.903h1.613c.836-.001 1.437-.612 1.437-1.449zm5.358-1.457h-1.92v5.667h-.469v-5.667h-1.92v-.436h4.309v.436zm.131 2.616a3.133 3.133 0 0 1 3.148-3.148c1.761 0 3.146 1.404 3.146 3.148s-1.386 3.148-3.146 3.148a3.133 3.133 0 0 1-3.148-3.148zm5.836 0c0-1.5-1.179-2.703-2.688-2.703-1.51 0-2.684 1.204-2.684 2.703s1.174 2.704 2.684 2.704c1.509 0 2.688-1.205 2.688-2.704zm-34.499 5.671v6.104h-.464v-6.104h.464zm5.988 0v6.104h-.406l-3.603-5.249v5.249h-.461v-6.104h.4l3.607 5.25v-5.25h.463zm6.693 3.052c0 1.683-1.191 3.052-2.877 3.052h-2.291v-6.104h2.291c1.684 0 2.877 1.371 2.877 3.052zm-.455 0c0-1.446-.982-2.615-2.422-2.615h-1.832v5.231h1.832c1.438 0 2.422-1.168 2.422-2.616zm1.539 1.011v-4.063h.463v4.063c0 .995.619 1.692 1.771 1.692 1.161 0 1.777-.698 1.777-1.692v-4.063h.463v4.063c0 1.291-.898 2.137-2.24 2.137-1.345.001-2.234-.846-2.234-2.137zm5.539.698l.403-.235c.209.733.828 1.229 1.829 1.229 1.02 0 1.537-.522 1.537-1.22 0-.733-.646-1.012-1.579-1.308-1.021-.331-1.937-.618-1.937-1.683 0-1.003.811-1.639 1.85-1.639 1.001 0 1.666.576 1.96 1.282l-.392.219c-.228-.551-.696-1.056-1.568-1.056-.846 0-1.38.498-1.38 1.177 0 .732.62.958 1.489 1.246 1.084.357 2.025.698 2.025 1.753 0 1.011-.794 1.675-2.007 1.675-1.139 0-1.95-.577-2.23-1.44zm9.125-4.324h-1.92v5.667h-.471v-5.667h-1.917v-.437h4.306v.437h.002zm3.348 3.165h-1.927v2.502h-.461v-6.104h2.405a1.81 1.81 0 0 1 1.804 1.805c0 .83-.566 1.526-1.343 1.736l1.517 2.563h-.53l-1.465-2.502zm-1.926-.437h1.944c.741 0 1.343-.61 1.343-1.36 0-.759-.602-1.368-1.343-1.368h-1.944v2.728zm6.9.428v2.512H490v-2.512l-2.223-3.592h.521l1.936 3.147 1.927-3.147h.524l-2.222 3.592zm-45.029 57.768h.488l1.577 5.484 1.702-5.484h.548l1.709 5.484 1.569-5.484h.488l-1.771 6.103h-.558l-1.711-5.501-1.715 5.501h-.56l-1.766-6.103zm8.784 3.051a3.13 3.13 0 0 1 3.146-3.147 3.127 3.127 0 0 1 3.147 3.147 3.128 3.128 0 0 1-3.147 3.147 3.128 3.128 0 0 1-3.146-3.147zm5.833 0c0-1.5-1.176-2.704-2.687-2.704-1.507 0-2.685 1.205-2.685 2.704s1.178 2.704 2.685 2.704c1.511.001 2.687-1.204 2.687-2.704zm4.023.549h-1.928v2.503h-.465v-6.103h2.407a1.81 1.81 0 0 1 1.808 1.803c0 .829-.567 1.526-1.344 1.736l1.518 2.564h-.532l-1.464-2.503zm-1.928-.435h1.944c.739 0 1.343-.61 1.343-1.362 0-.758-.604-1.368-1.343-1.368h-1.944v2.73zm8.225 2.501v.437h-3.338v-6.103h.463v5.666h2.875zm6.132-2.615c0 1.683-1.194 3.051-2.879 3.051h-2.29v-6.103h2.29c1.685.001 2.879 1.369 2.879 3.052zm-.453 0c0-1.447-.985-2.616-2.426-2.616h-1.829v5.23h1.829c1.44.001 2.426-1.166 2.426-2.614zm3.485-3.051h.484l1.58 5.484 1.701-5.484h.549l1.707 5.484 1.569-5.484h.487l-1.77 6.103h-.558l-1.71-5.501-1.717 5.501h-.561l-1.761-6.103zm9.593 0v6.103h-.462v-6.103h.462zm6.688 3.051c0 1.683-1.193 3.051-2.877 3.051h-2.293v-6.103h2.293c1.684.001 2.877 1.369 2.877 3.052zm-.452 0c0-1.447-.985-2.616-2.427-2.616h-1.83v5.23h1.83c1.442.001 2.427-1.166 2.427-2.614zm5.139 2.615v.437h-3.517v-6.103h3.473v.435h-3.008v2.372h2.79v.435h-2.79v2.424h3.052zm-36.576 3.056h.489l1.58 5.484 1.697-5.484h.551l1.708 5.484 1.569-5.484h.488l-1.771 6.103h-.558l-1.709-5.502-1.719 5.502h-.559l-1.766-6.103zm12.648 5.668v.435h-3.515v-6.103h3.471v.437h-3.01v2.372h2.791v.435h-2.791v2.424h3.054zm5.434-1.229c0 .923-.741 1.666-1.666 1.666h-2.631v-6.103h2.433c.888 0 1.604.723 1.604 1.604a1.49 1.49 0 0 1-.782 1.333 1.6 1.6 0 0 1 1.042 1.5zm-3.836-4.002v2.336h1.968a1.16 1.16 0 0 0 1.146-1.167 1.16 1.16 0 0 0-1.146-1.169h-1.968zm3.374 4.002c0-.68-.542-1.228-1.204-1.228h-2.17v2.457h2.17c.662 0 1.204-.549 1.204-1.229zm-22.988 62.349v.438h-3.516v-6.104h3.471v.437h-3.007v2.371h2.788v.437h-2.788v2.422h3.052v-.001zm.767-.906l.4-.236c.209.732.83 1.229 1.83 1.229 1.021 0 1.535-.522 1.535-1.221 0-.732-.646-1.011-1.576-1.309-1.021-.331-1.937-.618-1.937-1.684 0-1.002.81-1.639 1.847-1.639 1.004 0 1.666.576 1.965 1.282l-.396.218c-.226-.549-.697-1.055-1.569-1.055-.844 0-1.378.497-1.378 1.177 0 .733.621.958 1.493 1.246 1.082.358 2.021.697 2.021 1.753 0 1.012-.793 1.674-2.006 1.674-1.137.004-1.948-.572-2.229-1.435zm5.026-1.71c0-1.743 1.315-3.147 3.174-3.147 1.123 0 2.111.576 2.615 1.466l-.41.235c-.399-.75-1.246-1.255-2.205-1.255-1.605 0-2.711 1.203-2.711 2.702 0 1.5 1.104 2.704 2.711 2.704.967 0 1.82-.514 2.225-1.282l.408.235c-.497.898-1.49 1.49-2.633 1.49-1.859.001-3.174-1.403-3.174-3.148zm9.287.551h-1.926v2.501h-.462v-6.103h2.407a1.81 1.81 0 0 1 1.804 1.805c0 .828-.565 1.523-1.342 1.734l1.519 2.563h-.533l-1.467-2.5zm-1.926-.437h1.945c.738 0 1.342-.608 1.342-1.359 0-.76-.604-1.369-1.342-1.369h-1.945v2.728zm4.536-.114a3.13 3.13 0 0 1 3.147-3.147 3.13 3.13 0 0 1 3.146 3.147 3.13 3.13 0 0 1-3.146 3.148 3.128 3.128 0 0 1-3.147-3.148zm5.832 0c0-1.499-1.177-2.702-2.687-2.702-1.506 0-2.685 1.203-2.685 2.702 0 1.5 1.179 2.705 2.685 2.705 1.51.001 2.687-1.205 2.687-2.705zm1.164-3.05h.487l1.58 5.483 1.701-5.483h.547l1.707 5.483 1.569-5.483h.489l-1.771 6.103h-.558l-1.709-5.501-1.718 5.501h-.56l-1.764-6.103zm-35.621 11.774c0-1.743 1.317-3.147 3.173-3.147 1.124 0 2.111.576 2.616 1.467l-.41.234c-.401-.75-1.245-1.256-2.206-1.256-1.604 0-2.71 1.204-2.71 2.703 0 1.498 1.106 2.703 2.71 2.703.969 0 1.823-.516 2.225-1.281l.41.233c-.496.899-1.49 1.493-2.635 1.493-1.856-.001-3.173-1.405-3.173-3.149zm6.551 0a3.13 3.13 0 0 1 3.148-3.147 3.13 3.13 0 0 1 3.146 3.147 3.128 3.128 0 0 1-3.146 3.147 3.13 3.13 0 0 1-3.148-3.147zm5.832 0c0-1.5-1.177-2.702-2.687-2.702-1.506 0-2.682 1.203-2.682 2.702s1.176 2.703 2.682 2.703c1.51-.001 2.687-1.204 2.687-2.703zm6.109-3.052v6.104h-.41l-3.603-5.248v5.248h-.463v-6.104h.401l3.61 5.249v-5.249h.465zm5.269.438h-1.92v5.666h-.47v-5.666h-1.92v-.437h4.31v.437zm3.349 3.164h-1.926v2.502h-.461v-6.104h2.404a1.81 1.81 0 0 1 1.807 1.804c0 .83-.567 1.525-1.346 1.736l1.52 2.563h-.531l-1.467-2.501zm-1.925-.437h1.944a1.35 1.35 0 0 0 1.341-1.359c0-.758-.6-1.368-1.341-1.368h-1.944v2.727zm8.4 1.386h-3.063l-.595 1.553h-.487l2.371-6.103h.489l2.36 6.103h-.487l-.588-1.553zm-.167-.435l-1.36-3.547-1.361 3.547h2.721zm1.79-1.064c0-1.743 1.314-3.147 3.173-3.147 1.126 0 2.109.576 2.617 1.467l-.411.234c-.398-.75-1.247-1.256-2.206-1.256-1.604 0-2.711 1.204-2.711 2.703 0 1.498 1.106 2.703 2.711 2.703.97 0 1.823-.516 2.226-1.281l.408.233c-.498.899-1.49 1.493-2.634 1.493-1.859-.001-3.173-1.405-3.173-3.149zm10.647-2.614h-1.916v5.666h-.473v-5.666h-1.918v-.437h4.307v.437zm.598 4.323l.397-.235c.211.732.828 1.229 1.832 1.229 1.021 0 1.534-.522 1.534-1.22 0-.733-.646-1.012-1.579-1.309-1.018-.33-1.934-.619-1.934-1.683 0-1.003.811-1.64 1.849-1.64 1.001 0 1.666.576 1.962 1.283l-.395.217c-.229-.549-.697-1.055-1.569-1.055-.846 0-1.376.498-1.376 1.178 0 .732.619.959 1.491 1.246 1.079.357 2.022.698 2.022 1.754 0 1.011-.797 1.674-2.008 1.674-1.138 0-1.949-.576-2.226-1.439zm-37.209 59.907h-3.06l-.594 1.553h-.49l2.373-6.104h.486l2.363 6.104h-.487l-.591-1.553zm-.165-.435l-1.359-3.547-1.361 3.547h2.72zm4.526-.515h-1.926v2.502h-.461v-6.104h2.405a1.81 1.81 0 0 1 1.805 1.806 1.8 1.8 0 0 1-1.342 1.735l1.517 2.563h-.533l-1.465-2.502zm-1.924-.434h1.943c.741 0 1.341-.611 1.341-1.361 0-.758-.6-1.367-1.341-1.367h-1.943v2.728zm8.631-2.73h-1.916v5.666h-.471v-5.666h-1.92v-.438h4.307v.438zm1.425-.436v6.104h-.461v-6.104h.461zm1.981.436v2.439h2.816v.436h-2.816v2.791h-.461v-6.104h3.383v.438h-2.922zm4.517-.436v6.104h-.461v-6.104h.461zm1.168 3.052c0-1.744 1.315-3.148 3.176-3.148 1.126 0 2.109.576 2.617 1.465l-.411.236c-.4-.75-1.247-1.256-2.206-1.256-1.605 0-2.713 1.203-2.713 2.703 0 1.498 1.107 2.703 2.713 2.703.968 0 1.822-.516 2.223-1.283l.408.236c-.495.897-1.49 1.49-2.631 1.49-1.859.001-3.176-1.402-3.176-3.146zm10.414 1.498h-3.061l-.593 1.553h-.485l2.371-6.104h.487l2.362 6.104h-.491l-.59-1.553zm-.166-.435l-1.359-3.547-1.359 3.547h2.718zm5.481 1.552v.436h-3.341v-6.104h.462v5.666h2.879v.002zm-47.122 3.054v6.104h-.461v-6.104h.461zm5.991 0v6.104h-.411l-3.6-5.248v5.248h-.462v-6.104h.4l3.609 5.25v-5.25h.464zm5.268.439h-1.916v5.668h-.471v-5.668h-1.92v-.437h4.307v.437zm4.475 5.229v.437h-3.513v-6.104h3.471v.438h-3.01v2.371h2.791v.436h-2.791v2.424l3.052-.002zm4.475 0v.437h-3.336v-6.104h.461v5.668h2.875zm4.303 0v.437h-3.34v-6.104h.461v5.668h2.879zm1.42-5.668v6.104h-.461v-6.104h.461zm7.327 3.497c0 1.475-1.123 2.705-2.947 2.705-1.891 0-3.206-1.404-3.206-3.15 0-1.742 1.315-3.146 3.173-3.146 1.136 0 2.119.594 2.624 1.475l-.408.244c-.403-.769-1.257-1.272-2.216-1.272-1.604 0-2.71 1.203-2.71 2.701 0 1.5 1.106 2.704 2.743 2.704 1.482 0 2.384-.916 2.479-2.057h-2.591v-.438h3.062v.234h-.003zm4.675 2.171v.437h-3.512v-6.104h3.469v.438h-3.008v2.371h2.791v.436h-2.791v2.424l3.051-.002zm5.61-5.668v6.104h-.408l-3.603-5.248v5.248h-.461v-6.104h.397l3.612 5.25v-5.25h.463zm1.174 3.052c0-1.742 1.314-3.146 3.174-3.146 1.125 0 2.11.576 2.615 1.467l-.41.234c-.399-.75-1.246-1.256-2.205-1.256-1.604 0-2.711 1.203-2.711 2.703 0 1.498 1.105 2.702 2.711 2.702.968 0 1.82-.514 2.223-1.282l.411.235c-.5.897-1.491 1.492-2.634 1.492-1.86.001-3.174-1.404-3.174-3.149zm10.412 2.616v.437h-3.512v-6.104h3.469v.438h-3.008v2.371h2.788v.436h-2.788v2.424l3.051-.002z"/><linearGradient id="i" gradientUnits="userSpaceOnUse" x1="-5112.844" y1="1405.843" x2="-5082.544" y2="1405.843" gradientTransform="matrix(0 1 1 0 -886.33 5156.185)"><stop offset="0" stop-color="#706dcb" stop-opacity="0"/><stop offset="1" stop-color="#706dcb" stop-opacity=".7"/></linearGradient><path opacity=".2" fill="url(#i)" d="M512.793 73.64h2.902c5.822 0 10.539-4.719 10.539-10.539v-9.223c0-5.82-4.717-10.538-10.539-10.538h-2.902v30.3z"/><linearGradient id="j" gradientUnits="userSpaceOnUse" x1="-5042.925" y1="1405.843" x2="-5012.626" y2="1405.843" gradientTransform="matrix(0 1 1 0 -886.33 5156.185)"><stop offset="0" stop-color="#706dcb" stop-opacity="0"/><stop offset="1" stop-color="#706dcb" stop-opacity=".7"/></linearGradient><path opacity=".2" fill="url(#j)" d="M512.793 143.559h2.902c5.822 0 10.539-4.718 10.539-10.539v-9.222c0-5.821-4.717-10.539-10.539-10.539h-2.902v30.3z"/><linearGradient id="k" gradientUnits="userSpaceOnUse" x1="-4972.569" y1="1405.843" x2="-4942.27" y2="1405.843" gradientTransform="matrix(0 1 1 0 -886.33 5156.185)"><stop offset="0" stop-color="#706dcb" stop-opacity="0"/><stop offset="1" stop-color="#706dcb" stop-opacity=".7"/></linearGradient><path opacity=".2" fill="url(#k)" d="M512.793 213.915h2.902c5.822 0 10.539-4.718 10.539-10.538v-9.223c0-5.821-4.717-10.539-10.539-10.539h-2.902v30.3z"/><linearGradient id="l" gradientUnits="userSpaceOnUse" x1="-4902.65" y1="1405.843" x2="-4872.352" y2="1405.843" gradientTransform="matrix(0 1 1 0 -886.33 5156.185)"><stop offset="0" stop-color="#706dcb" stop-opacity="0"/><stop offset="1" stop-color="#706dcb" stop-opacity=".7"/></linearGradient><path opacity=".2" fill="url(#l)" d="M512.793 283.833h2.902c5.822 0 10.539-4.717 10.539-10.536v-9.224c0-5.821-4.717-10.539-10.539-10.539h-2.902v30.299z"/><path fill="#FFF" d="M379.386 68.496h-1.731v2.247h-.414v-5.481h2.161c.893 0 1.62.729 1.62 1.621 0 .744-.508 1.37-1.205 1.558l1.362 2.302h-.478l-1.315-2.247zm-1.732-.392h1.747c.666 0 1.205-.548 1.205-1.221 0-.682-.539-1.229-1.205-1.229h-1.747v2.45zm1.675 70.62h-1.731v2.247h-.414v-5.481h2.161c.893 0 1.62.729 1.62 1.621 0 .744-.508 1.37-1.205 1.558l1.362 2.302h-.478l-1.315-2.247zm-1.731-.391h1.747c.666 0 1.205-.548 1.205-1.221 0-.682-.539-1.229-1.205-1.229h-1.747v2.45zm1.732 70.226h-1.731v2.247h-.414v-5.48h2.161c.893 0 1.62.729 1.62 1.621a1.62 1.62 0 0 1-1.205 1.558l1.362 2.302h-.478l-1.315-2.248zm-1.731-.392h1.747c.666 0 1.205-.548 1.205-1.221 0-.682-.539-1.23-1.205-1.23h-1.747v2.451zm1.73 70.025h-1.731v2.247h-.414v-5.48h2.161c.893 0 1.62.729 1.62 1.621a1.62 1.62 0 0 1-1.205 1.558l1.362 2.302h-.478l-1.315-2.248zm-1.731-.391h1.747c.666 0 1.205-.548 1.205-1.221 0-.682-.539-1.23-1.205-1.23h-1.747v2.451z"/></svg>