<svg xmlns="http://www.w3.org/2000/svg" width="774.43" height="381.678" viewBox="0 0 774.43 381.678"><linearGradient id="a" gradientUnits="userSpaceOnUse" x1="-76.045" y1="85.475" x2="688.93" y2="85.475" gradientTransform="matrix(1 0 0 -1 84 356.678)"><stop offset="0" stop-color="#fff" stop-opacity=".2"/><stop offset=".5" stop-color="#fff" stop-opacity="0"/><stop offset="1" stop-color="#fff" stop-opacity=".2"/></linearGradient><path fill="none" stroke="url(#a)" stroke-width="3" stroke-miterlimit="10" d="M772.93 271.203H7.955"/><linearGradient id="b" gradientUnits="userSpaceOnUse" x1="-76.045" y1="118.989" x2="688.93" y2="118.989" gradientTransform="matrix(1 0 0 -1 84 356.678)"><stop offset="0" stop-color="#fff" stop-opacity=".2"/><stop offset=".5" stop-color="#fff" stop-opacity="0"/><stop offset="1" stop-color="#fff" stop-opacity=".2"/></linearGradient><path fill="none" stroke="url(#b)" stroke-width="3" stroke-miterlimit="10" d="M772.93 237.688H7.955"/><linearGradient id="c" gradientUnits="userSpaceOnUse" x1="-76.045" y1="152.504" x2="688.93" y2="152.504" gradientTransform="matrix(1 0 0 -1 84 356.678)"><stop offset="0" stop-color="#fff" stop-opacity=".2"/><stop offset=".5" stop-color="#fff" stop-opacity="0"/><stop offset="1" stop-color="#fff" stop-opacity=".2"/></linearGradient><path fill="none" stroke="url(#c)" stroke-width="3" stroke-miterlimit="10" d="M772.93 204.174H7.955"/><linearGradient id="d" gradientUnits="userSpaceOnUse" x1="-76.045" y1="186.018" x2="688.93" y2="186.018" gradientTransform="matrix(1 0 0 -1 84 356.678)"><stop offset="0" stop-color="#fff" stop-opacity=".2"/><stop offset=".5" stop-color="#fff" stop-opacity="0"/><stop offset="1" stop-color="#fff" stop-opacity=".2"/></linearGradient><path fill="none" stroke="url(#d)" stroke-width="3" stroke-miterlimit="10" d="M772.93 170.66H7.955"/><linearGradient id="e" gradientUnits="userSpaceOnUse" x1="-76.045" y1="219.532" x2="688.93" y2="219.532" gradientTransform="matrix(1 0 0 -1 84 356.678)"><stop offset="0" stop-color="#fff" stop-opacity=".2"/><stop offset=".5" stop-color="#fff" stop-opacity="0"/><stop offset="1" stop-color="#fff" stop-opacity=".2"/></linearGradient><path fill="none" stroke="url(#e)" stroke-width="3" stroke-miterlimit="10" d="M772.93 137.146H7.955"/><linearGradient id="f" gradientUnits="userSpaceOnUse" x1="-76.045" y1="253.045" x2="688.93" y2="253.045" gradientTransform="matrix(1 0 0 -1 84 356.678)"><stop offset="0" stop-color="#fff" stop-opacity=".2"/><stop offset=".5" stop-color="#fff" stop-opacity="0"/><stop offset="1" stop-color="#fff" stop-opacity=".2"/></linearGradient><path fill="none" stroke="url(#f)" stroke-width="3" stroke-miterlimit="10" d="M772.93 103.633H7.955"/><linearGradient id="g" gradientUnits="userSpaceOnUse" x1="-76.045" y1="286.56" x2="688.93" y2="286.56" gradientTransform="matrix(1 0 0 -1 84 356.678)"><stop offset="0" stop-color="#fff" stop-opacity=".2"/><stop offset=".5" stop-color="#fff" stop-opacity="0"/><stop offset="1" stop-color="#fff" stop-opacity=".2"/></linearGradient><path fill="none" stroke="url(#g)" stroke-width="3" stroke-miterlimit="10" d="M772.93 70.118H7.955"/><linearGradient id="h" gradientUnits="userSpaceOnUse" x1="-76.045" y1="320.073" x2="688.93" y2="320.073" gradientTransform="matrix(1 0 0 -1 84 356.678)"><stop offset="0" stop-color="#fff" stop-opacity=".2"/><stop offset=".5" stop-color="#fff" stop-opacity="0"/><stop offset="1" stop-color="#fff" stop-opacity=".2"/></linearGradient><path fill="none" stroke="url(#h)" stroke-width="3" stroke-miterlimit="10" d="M772.93 36.604H7.955"/><linearGradient id="i" gradientUnits="userSpaceOnUse" x1="-76.045" y1="353.589" x2="688.93" y2="353.589" gradientTransform="matrix(1 0 0 -1 84 356.678)"><stop offset="0" stop-color="#fff" stop-opacity=".2"/><stop offset=".5" stop-color="#fff" stop-opacity="0"/><stop offset="1" stop-color="#fff" stop-opacity=".2"/></linearGradient><path fill="none" stroke="url(#i)" stroke-width="3" stroke-miterlimit="10" d="M772.93 3.089H7.955"/><path fill="none" stroke="#FFF" stroke-width="3" stroke-miterlimit="10" d="M7.954 3.089v301.628"/><path d="M121.481 241.331v5.662l-9.634 23.914h-7.183l9.296-23.069h-11.915v-6.507h19.436zm3.505 5.831c0-3.507 2.746-6.296 6.464-6.296 3.719 0 6.465 2.789 6.465 6.296s-2.662 6.295-6.465 6.295c-3.718 0-6.464-2.788-6.464-6.295zm21.675-2.62l1.437.803-20.111 22.563-1.395-.804 20.069-22.562zm-10.816 2.62c0-2.451-1.816-4.353-4.395-4.353-2.535 0-4.352 1.9-4.352 4.353 0 2.45 1.816 4.353 4.352 4.353 2.578 0 4.395-1.903 4.395-4.353zm1.098 17.914c0-3.507 2.746-6.296 6.465-6.296 3.718 0 6.464 2.789 6.464 6.296s-2.746 6.296-6.464 6.296c-3.719 0-6.465-2.789-6.465-6.296zm10.859 0c0-2.45-1.816-4.353-4.394-4.353-2.535 0-4.353 1.901-4.353 4.353 0 2.45 1.817 4.353 4.353 4.353 2.577 0 4.394-1.903 4.394-4.353z" fill="#A04B8A"/><path d="M105.526 343.391h-4.344l-.585 1.838h-2.924l3.977-11.695h3.408l3.977 11.695h-2.924l-.585-1.838zm-.801-2.506l-1.37-4.295-1.37 4.295h2.74zm13.421-3.342c0 2.222-1.787 4.01-4.093 4.01h-1.755v3.676h-2.673v-11.695h4.428c2.305-.002 4.093 1.786 4.093 4.009zm-2.673 0c0-.853-.602-1.504-1.42-1.504h-1.755v3.008h1.755c.818 0 1.42-.652 1.42-1.504zm12.116 0c0 2.222-1.787 4.01-4.093 4.01h-1.755v3.676h-2.673v-11.695h4.428c2.306-.002 4.093 1.786 4.093 4.009zm-2.673 0c0-.853-.602-1.504-1.42-1.504h-1.755v3.008h1.755c.818 0 1.42-.652 1.42-1.504zm10.947 5.112v2.572h-7.352v-11.695h7.268v2.573h-4.595v1.938h4.177v2.54h-4.177v2.071l4.679.001zm8.107.736h-4.344l-.585 1.838h-2.924l3.977-11.695h3.408l3.977 11.695h-2.924l-.585-1.838zm-.802-2.506l-1.37-4.295-1.37 4.295h2.74zm11.749 1.77v2.572h-6.85v-11.695h2.673v9.123h4.177zm-42.327 11.558v2.256h4.344v2.573h-4.344v4.294h-2.673V351.64h7.101v2.573h-4.428zm12.952 6.55v2.573h-7.352V351.64h7.268v2.573h-4.595v1.938h4.177v2.54h-4.177v2.07l4.679.002zm8.44 0v2.573h-7.352V351.64h7.268v2.573h-4.595v1.938h4.177v2.54h-4.177v2.07l4.679.002zm.505-.083l2.306-1.337c.418.969 1.136 1.62 2.456 1.62 1.27 0 1.587-.501 1.587-.952 0-.718-.668-1.002-2.423-1.486-1.737-.484-3.441-1.319-3.441-3.56 0-2.256 1.904-3.559 3.927-3.559 1.921 0 3.425.919 4.277 2.64l-2.256 1.32c-.401-.836-.952-1.354-2.021-1.354-.836 0-1.254.418-1.254.887 0 .533.284.901 2.105 1.452 1.771.535 3.76 1.153 3.76 3.626 0 2.257-1.805 3.594-4.345 3.594-2.456-.001-4.026-1.171-4.678-2.891zm143.884-23.137c0 2.222-1.787 4.01-4.093 4.01h-1.755v3.676h-2.673v-11.695h4.428c2.306-.002 4.093 1.786 4.093 4.009zm-2.673 0c0-.853-.602-1.504-1.42-1.504h-1.755v3.008h1.755c.819 0 1.42-.652 1.42-1.504zm7.538 3.843h-1.27v3.843h-2.673v-11.695h4.678a4 4 0 0 1 4.01 4.011c0 1.437-.868 2.74-2.155 3.392l2.49 4.294h-2.874l-2.206-3.845zm-1.269-2.339h2.005c.735 0 1.337-.652 1.337-1.504 0-.853-.602-1.504-1.337-1.504h-2.005v3.008zm6.519.334c0-3.441 2.724-6.082 6.082-6.082s6.082 2.641 6.082 6.082-2.724 6.082-6.082 6.082-6.082-2.641-6.082-6.082zm9.491 0c0-2.089-1.503-3.476-3.408-3.476-1.904 0-3.408 1.387-3.408 3.476 0 2.088 1.504 3.476 3.408 3.476 1.905-.002 3.408-1.388 3.408-3.476zm2.092 3.809l2.322-1.338c.368.651.752 1.003 1.654 1.003 1.17 0 1.521-.668 1.521-1.388v-7.937h2.674v7.937c0 2.573-1.805 3.994-4.211 3.994-1.854.002-3.191-.784-3.96-2.271zm17.031-.535v2.572h-7.352v-11.695h7.268v2.573h-4.595v1.938h4.177v2.54h-4.177v2.071l4.679.001zm.504-3.274c0-3.441 2.557-6.082 6.082-6.082 2.122 0 3.993 1.053 5.013 2.707l-2.306 1.336c-.519-.901-1.521-1.437-2.707-1.437-2.071 0-3.408 1.387-3.408 3.476 0 2.088 1.337 3.476 3.408 3.476 1.187 0 2.206-.534 2.707-1.438l2.306 1.337c-1.003 1.654-2.874 2.707-5.013 2.707-3.526 0-6.082-2.641-6.082-6.082zm19.787-3.276h-3.008v9.122h-2.673v-9.122h-3.008v-2.573h8.688l.001 2.573zm-79.409 21.383c0-3.442 2.724-6.082 6.082-6.082s6.082 2.64 6.082 6.082c0 3.44-2.724 6.082-6.082 6.082s-6.082-2.64-6.082-6.082zm9.491 0c0-2.089-1.503-3.477-3.408-3.477-1.904 0-3.408 1.388-3.408 3.477 0 2.088 1.504 3.475 3.408 3.475 1.905 0 3.408-1.387 3.408-3.475zm2.427-5.848h2.807l2.022 8.188 2.255-8.188h2.173l2.255 8.188 2.022-8.188h2.807l-3.225 11.696h-3.041l-1.904-6.9-1.905 6.9h-3.041L269.9 351.64zm26.288 0v11.696h-2.005l-4.512-6.35v6.35h-2.673V351.64h2.005l4.511 6.351v-6.351h2.674zm8.944 9.123v2.573h-7.352V351.64h7.268v2.573h-4.595v1.938h4.177v2.54h-4.177v2.07l4.679.002zm5.031-1.27h-1.27v3.843h-2.673V351.64h4.678a4 4 0 0 1 4.01 4.012c0 1.437-.868 2.739-2.155 3.392l2.49 4.294h-2.874l-2.206-3.845zm-1.269-2.339h2.005c.735 0 1.337-.652 1.337-1.504 0-.854-.602-1.504-1.337-1.504h-2.005v3.008zm6.436 3.526l2.306-1.337c.418.969 1.136 1.62 2.456 1.62 1.27 0 1.587-.501 1.587-.952 0-.718-.668-1.002-2.423-1.486-1.737-.484-3.441-1.319-3.441-3.56 0-2.256 1.904-3.559 3.927-3.559 1.921 0 3.425.919 4.277 2.64l-2.256 1.32c-.401-.836-.952-1.354-2.021-1.354-.836 0-1.254.418-1.254.887 0 .533.284.901 2.105 1.452 1.771.535 3.76 1.153 3.76 3.626 0 2.257-1.805 3.594-4.345 3.594-2.456-.001-4.027-1.171-4.678-2.891zm18.884-9.04v11.696h-2.674v-4.645h-3.676v4.645h-2.673V351.64h2.673v4.479h3.676v-4.479h2.674zm4.264 0v11.696h-2.673V351.64h2.673zm10.11 4.01c0 2.222-1.787 4.01-4.093 4.01h-1.755v3.676h-2.673V351.64h4.428c2.306 0 4.093 1.788 4.093 4.01zm-2.673 0c0-.854-.602-1.504-1.42-1.504h-1.755v3.008h1.755c.818 0 1.42-.652 1.42-1.504zm-107.212 14.097h2.924l2.59 8.604 2.59-8.604h2.924l-3.81 11.696h-3.408l-3.81-11.696zm17.798 9.858h-4.344l-.585 1.838h-2.924l3.977-11.696h3.408l3.977 11.696h-2.924l-.585-1.838zm-.802-2.505l-1.37-4.295-1.37 4.295h2.74zm11.749 1.77v2.573h-6.85v-11.696h2.673v9.123h4.177zm3.429-9.123v11.696h-2.673v-11.696h2.673zm11.947 5.849c0 3.309-2.456 5.849-5.681 5.849h-4.678v-11.696h4.678c3.225-.002 5.681 2.538 5.681 5.847zm-2.572 0c0-2.005-1.271-3.274-3.108-3.274h-2.005v6.55h2.005c1.837-.002 3.108-1.271 3.108-3.276zm10.096 4.009h-4.344l-.585 1.838h-2.924l3.977-11.696h3.408l3.977 11.696h-2.924l-.585-1.838zm-.802-2.505l-1.37-4.295-1.37 4.295h2.74zm11.917-4.78h-3.008v9.123h-2.673v-9.123h-3.008v-2.573h8.688l.001 2.573zm3.428-2.573v11.696h-2.673v-11.696h2.673zm1.088 5.849c0-3.441 2.724-6.082 6.082-6.082s6.082 2.641 6.082 6.082-2.724 6.082-6.082 6.082-6.082-2.641-6.082-6.082zm9.49 0c0-2.089-1.503-3.476-3.408-3.476-1.904 0-3.408 1.387-3.408 3.476 0 2.088 1.504 3.476 3.408 3.476 1.905-.002 3.408-1.388 3.408-3.476zm12.954-5.849v11.696h-2.005l-4.512-6.351v6.351h-2.673v-11.696h2.005l4.511 6.35v-6.35h2.674zm8.024 2.573v2.256h4.344v2.573h-4.344v4.294h-2.673v-11.696h7.101v2.573h-4.428zm12.952 6.55v2.573h-7.352v-11.696h7.268v2.573h-4.595v1.938h4.177v2.54h-4.177v2.071l4.679.001zm8.442 0v2.573h-7.352v-11.696h7.268v2.573h-4.595v1.938h4.177v2.54h-4.177v2.071l4.679.001zm.504-.083l2.306-1.337c.418.969 1.136 1.62 2.456 1.62 1.27 0 1.587-.501 1.587-.952 0-.718-.668-1.002-2.423-1.487-1.737-.484-3.441-1.319-3.441-3.559 0-2.256 1.904-3.56 3.927-3.56 1.921 0 3.425.919 4.277 2.641l-2.256 1.319c-.401-.836-.952-1.354-2.021-1.354-.836 0-1.254.418-1.254.886 0 .534.284.902 2.105 1.453 1.771.535 3.76 1.153 3.76 3.626 0 2.256-1.805 3.593-4.345 3.593-2.457.002-4.027-1.168-4.678-2.889zm74.64-45.255h2.807l2.023 8.188 2.254-8.188h2.174l2.254 8.188 2.023-8.188h2.807l-3.227 11.696h-3.039l-1.904-6.9-1.906 6.9h-3.041l-3.225-11.696zm23.281 9.859h-4.344l-.586 1.838h-2.924l3.977-11.695h3.408l3.979 11.695h-2.926l-.584-1.838zm-.803-2.506l-1.369-4.295-1.371 4.295h2.74zm11.918-4.78h-3.008v9.122H461.7v-9.122h-3.008v-2.573h8.688v2.573h.001zm-.416 3.276c0-3.441 2.559-6.082 6.082-6.082 2.123 0 3.994 1.053 5.014 2.707l-2.307 1.336c-.518-.901-1.52-1.437-2.707-1.437-2.07 0-3.408 1.387-3.408 3.476 0 2.088 1.338 3.476 3.408 3.476 1.188 0 2.207-.534 2.707-1.438l2.307 1.337c-1.004 1.654-2.873 2.707-5.014 2.707-3.525 0-6.082-2.641-6.082-6.082zm20.957-5.849v11.696h-2.674v-4.646h-3.676v4.646H478.9v-11.696h2.672v4.479h3.676v-4.479h2.674zm11.95 5.849c0 3.309-2.455 5.848-5.68 5.848h-4.68v-11.695h4.68c3.225-.002 5.68 2.538 5.68 5.847zm-2.573 0c0-2.005-1.27-3.274-3.107-3.274h-2.004v6.55h2.004c1.838-.002 3.107-1.271 3.107-3.276zm3.162 0c0-3.441 2.723-6.082 6.082-6.082 3.357 0 6.082 2.641 6.082 6.082s-2.725 6.082-6.082 6.082c-3.359 0-6.082-2.641-6.082-6.082zm9.491 0c0-2.089-1.504-3.476-3.408-3.476s-3.408 1.387-3.408 3.476c0 2.088 1.504 3.476 3.408 3.476 1.904-.002 3.408-1.388 3.408-3.476zm15.341.334c0 3.575-2.488 5.748-5.764 5.748-3.676 0-6.316-2.707-6.316-6.064 0-3.393 2.691-6.1 6.133-6.1 2.238 0 4.127 1.104 5.113 2.673l-2.271 1.305c-.484-.77-1.537-1.37-2.857-1.37-1.973 0-3.441 1.453-3.441 3.509 0 1.988 1.402 3.441 3.676 3.441 1.555 0 2.572-.686 2.99-1.805h-3.125v-2.34h5.865v1.003h-.003zm-69.623 23.621h-2.672v-6.801l-3.025 4.963h-.301l-3.023-4.963v6.801h-2.674V351.64h2.674l3.176 5.196 3.174-5.196h2.674v11.696h-.003zm1.092-5.848c0-3.442 2.725-6.082 6.082-6.082s6.082 2.64 6.082 6.082c0 3.44-2.725 6.082-6.082 6.082s-6.082-2.64-6.082-6.082zm9.49 0c0-2.089-1.504-3.477-3.408-3.477s-3.408 1.388-3.408 3.477c0 2.088 1.504 3.475 3.408 3.475s3.408-1.387 3.408-3.475zm12.954-5.848v11.696h-2.004l-4.512-6.35v6.35h-2.674V351.64h2.006l4.51 6.351v-6.351h2.674zm9.445 2.573h-3.01v9.123h-2.672v-9.123h-3.008v-2.573h8.688v2.573h.002zm9.777-2.573v11.696h-2.674v-4.645h-3.676v4.645h-2.674V351.64h2.674v4.479h3.676v-4.479h2.674zm8.44 9.123v2.573h-6.85V351.64h2.674v9.123h4.176zm4.847-1.921v4.494h-2.672v-4.494l-3.928-7.202h3.041l2.223 4.513 2.223-4.513h3.041l-3.928 7.202zm-91.675 19.945l2.307-1.337c.418.969 1.137 1.62 2.455 1.62 1.271 0 1.588-.501 1.588-.952 0-.718-.668-1.002-2.424-1.487-1.736-.484-3.439-1.319-3.439-3.559 0-2.256 1.902-3.56 3.926-3.56 1.922 0 3.426.919 4.277 2.641l-2.256 1.319c-.4-.836-.951-1.354-2.021-1.354-.836 0-1.254.418-1.254.886 0 .534.285.902 2.105 1.453 1.771.535 3.76 1.153 3.76 3.626 0 2.256-1.805 3.593-4.346 3.593-2.456.002-4.026-1.168-4.678-2.889zm9.861-1.12v-7.92h2.674v7.687c0 .887.418 1.638 1.838 1.638s1.838-.751 1.838-1.638v-7.687h2.674v7.92c0 2.507-1.938 4.011-4.512 4.011-2.573 0-4.512-1.504-4.512-4.011zm19.219.352c0 2.071-1.689 3.426-3.775 3.426h-4.912v-11.696h4.578c2.037 0 3.691 1.32 3.691 3.342 0 .97-.385 1.738-1.02 2.289.869.55 1.438 1.452 1.438 2.639zm-6.016-5.765v2.071h1.904c.602 0 1.02-.435 1.02-1.035s-.4-1.036-1.02-1.036h-1.904zm3.342 5.563c0-.651-.436-1.119-1.104-1.119h-2.238v2.239h2.238c.67.001 1.104-.467 1.104-1.12zm2.844.97l2.307-1.337c.418.969 1.137 1.62 2.455 1.62 1.271 0 1.588-.501 1.588-.952 0-.718-.668-1.002-2.424-1.487-1.736-.484-3.439-1.319-3.439-3.559 0-2.256 1.902-3.56 3.926-3.56 1.922 0 3.426.919 4.277 2.641l-2.256 1.319c-.4-.836-.951-1.354-2.021-1.354-.836 0-1.254.418-1.254.886 0 .534.285.902 2.105 1.453 1.771.535 3.76 1.153 3.76 3.626 0 2.256-1.805 3.593-4.346 3.593-2.456.002-4.026-1.168-4.678-2.889zm9.359-3.191c0-3.441 2.557-6.082 6.082-6.082 2.123 0 3.992 1.054 5.014 2.707l-2.307 1.336c-.52-.901-1.521-1.437-2.707-1.437-2.07 0-3.408 1.387-3.408 3.476 0 2.088 1.338 3.476 3.408 3.476 1.188 0 2.207-.534 2.707-1.438l2.307 1.337c-1.004 1.654-2.875 2.707-5.014 2.707-3.525 0-6.082-2.641-6.082-6.082zm15.877 2.005h-1.27v3.844h-2.674v-11.696h4.678a4 4 0 0 1 4.012 4.011c0 1.438-.869 2.74-2.156 3.393l2.49 4.294h-2.873l-2.207-3.846zm-1.27-2.339h2.006c.734 0 1.336-.651 1.336-1.504s-.602-1.504-1.336-1.504h-2.006v3.008zm9.864-5.515v11.696h-2.674v-11.696h2.674zm10.109 4.011c0 2.223-1.787 4.01-4.094 4.01h-1.754v3.677h-2.674v-11.696h4.428c2.307-.002 4.094 1.786 4.094 4.009zm-2.674 0c0-.853-.602-1.504-1.42-1.504h-1.754v3.008h1.754c.819 0 1.42-.653 1.42-1.504zm11.281-1.438h-3.008v9.123h-2.672v-9.123h-3.008v-2.573h8.688v2.573zm3.43-2.573v11.696h-2.674v-11.696h2.674zm1.088 5.849c0-3.441 2.723-6.082 6.08-6.082 3.359 0 6.082 2.641 6.082 6.082s-2.723 6.082-6.082 6.082c-3.357 0-6.08-2.641-6.08-6.082zm9.488 0c0-2.089-1.502-3.476-3.408-3.476-1.902 0-3.406 1.387-3.406 3.476 0 2.088 1.504 3.476 3.406 3.476 1.906-.002 3.408-1.388 3.408-3.476zm12.955-5.849v11.696h-2.006l-4.512-6.351v6.351h-2.672v-11.696h2.004l4.512 6.35v-6.35h2.674zm.84 9.04l2.307-1.337c.418.969 1.135 1.62 2.455 1.62 1.27 0 1.588-.501 1.588-.952 0-.718-.668-1.002-2.424-1.487-1.736-.484-3.441-1.319-3.441-3.559 0-2.256 1.904-3.56 3.928-3.56 1.92 0 3.424.919 4.277 2.641l-2.256 1.319c-.402-.836-.953-1.354-2.021-1.354-.836 0-1.254.418-1.254.886 0 .534.283.902 2.105 1.453 1.77.535 3.76 1.153 3.76 3.626 0 2.256-1.805 3.593-4.346 3.593-2.457.002-4.027-1.168-4.678-2.889zm99.547-36.132v2.572h-7.352v-11.695h7.268v2.573h-4.594v1.938h4.176v2.54h-4.176v2.071l4.678.001zm.504-.083l2.307-1.337c.418.969 1.135 1.62 2.455 1.62 1.27 0 1.588-.502 1.588-.952 0-.719-.668-1.002-2.424-1.487-1.736-.484-3.441-1.319-3.441-3.559 0-2.257 1.904-3.56 3.928-3.56 1.922 0 3.426.919 4.277 2.641l-2.256 1.319c-.402-.836-.953-1.354-2.021-1.354-.836 0-1.254.418-1.254.886 0 .534.283.902 2.105 1.453 1.77.535 3.76 1.153 3.76 3.626 0 2.256-1.805 3.593-4.346 3.593-2.455.002-4.026-1.168-4.678-2.889zm9.361-3.191c0-3.441 2.557-6.082 6.082-6.082 2.121 0 3.992 1.053 5.012 2.707l-2.305 1.336c-.52-.901-1.521-1.437-2.707-1.437-2.072 0-3.408 1.387-3.408 3.476 0 2.088 1.336 3.476 3.408 3.476 1.188 0 2.205-.534 2.707-1.438l2.305 1.337c-1.002 1.654-2.873 2.707-5.012 2.707-3.525 0-6.082-2.641-6.082-6.082zm15.877 2.005h-1.27v3.843h-2.674v-11.695h4.678a4 4 0 0 1 4.01 4.011c0 1.437-.867 2.74-2.154 3.392l2.49 4.294h-2.875l-2.205-3.845zm-1.269-2.339h2.004c.736 0 1.338-.652 1.338-1.504 0-.853-.602-1.504-1.338-1.504h-2.004v3.008zm6.519.334c0-3.441 2.725-6.082 6.082-6.082s6.082 2.641 6.082 6.082-2.725 6.082-6.082 6.082-6.082-2.641-6.082-6.082zm9.491 0c0-2.089-1.504-3.476-3.408-3.476s-3.408 1.387-3.408 3.476c0 2.088 1.504 3.476 3.408 3.476 1.904-.002 3.408-1.388 3.408-3.476zm2.425-5.849h2.809l2.021 8.188 2.254-8.188h2.174l2.256 8.188 2.021-8.188h2.807l-3.225 11.696h-3.041l-1.904-6.9-1.904 6.9h-3.041l-3.227-11.696zm-31.164 20.681v2.256h4.344v2.573h-4.344v4.294h-2.674V351.64h7.102v2.573h-4.428zm12.951 6.55v2.573h-7.352V351.64h7.268v2.573h-4.594v1.938h4.176v2.54h-4.176v2.07l4.678.002zm8.442 0v2.573h-7.354V351.64h7.27v2.573h-4.596v1.938h4.178v2.54h-4.178v2.07l4.68.002zm.504-.083l2.307-1.337c.418.969 1.135 1.62 2.455 1.62 1.271 0 1.588-.501 1.588-.952 0-.718-.668-1.002-2.424-1.486-1.736-.484-3.439-1.319-3.439-3.56 0-2.256 1.902-3.559 3.926-3.559 1.922 0 3.426.919 4.277 2.64l-2.256 1.32c-.4-.836-.953-1.354-2.021-1.354-.836 0-1.254.418-1.254.887 0 .533.283.901 2.105 1.452 1.771.535 3.76 1.153 3.76 3.626 0 2.257-1.805 3.594-4.346 3.594-2.456-.001-4.026-1.171-4.678-2.891z" fill="#706DCB"/><path d="M266.449 211.551l9.929-10.31c1.732-1.774 3-3.508 3-5.239 0-1.858-1.183-3.126-3.169-3.126-2.07 0-3.549 1.352-4.352 3.211l-5.704-3.338c1.901-4.395 5.873-6.465 9.972-6.465 5.281 0 10.014 3.465 10.014 9.423 0 3.549-1.901 6.591-4.605 9.295l-4.901 4.942h9.929v6.508h-20.111v-4.901h-.002zm43.137-4.394c0 6.506-5.069 9.887-10.773 9.887-4.69 0-8.746-1.986-10.563-6.338l5.831-3.38c.676 1.942 1.943 3.126 4.732 3.126 2.788 0 4.014-1.479 4.014-3.295 0-1.817-1.226-3.297-3.803-3.297h-9.253l1.226-16.984h17.111v6.338h-10.774l-.295 4.057h2.408c5.491 0 10.139 3.378 10.139 9.886zm3.716-14.45c0-3.507 2.746-6.296 6.464-6.296 3.719 0 6.465 2.789 6.465 6.296s-2.662 6.295-6.465 6.295c-3.718 0-6.464-2.788-6.464-6.295zm21.675-2.62l1.437.803-20.111 22.563-1.395-.804 20.069-22.562zm-10.817 2.62c0-2.451-1.816-4.353-4.395-4.353-2.535 0-4.352 1.901-4.352 4.353 0 2.45 1.816 4.353 4.352 4.353 2.579 0 4.395-1.903 4.395-4.353zm1.099 17.914c0-3.507 2.746-6.295 6.465-6.295 3.718 0 6.464 2.788 6.464 6.295s-2.746 6.296-6.464 6.296c-3.719 0-6.465-2.789-6.465-6.296zm10.858 0c0-2.45-1.816-4.353-4.394-4.353-2.535 0-4.353 1.901-4.353 4.353s1.817 4.353 4.353 4.353c2.578 0 4.394-1.902 4.394-4.353zm127.372-24.256c0 6.506-5.07 9.887-10.773 9.887-4.479 0-8.535-1.985-10.352-6.338l5.83-3.38c.676 1.943 1.943 3.126 4.521 3.126 2.789 0 4.016-1.479 4.016-3.295 0-1.817-1.227-3.296-4.016-3.296h-1.395l-2.578-3.845 5.367-6.803h-10.816v-6.338h19.014v5.493l-5.111 6.507c3.631 1.268 6.293 4.184 6.293 8.282zm1.773 4.394l9.93-10.31c1.73-1.774 3-3.507 3-5.239 0-1.858-1.184-3.126-3.17-3.126-2.07 0-3.549 1.352-4.352 3.211l-5.705-3.338c1.902-4.395 5.873-6.465 9.973-6.465 5.281 0 10.014 3.465 10.014 9.423 0 3.549-1.9 6.591-4.605 9.295l-4.9 4.943h9.93v6.507h-20.111v-4.901h-.004zm24.25-18.844c0-3.507 2.746-6.296 6.465-6.296s6.465 2.789 6.465 6.296-2.662 6.295-6.465 6.295c-3.719 0-6.465-2.788-6.465-6.295zm21.676-2.62l1.438.803-20.111 22.563-1.395-.803 20.068-22.563zm-10.816 2.62c0-2.451-1.816-4.353-4.396-4.353-2.533 0-4.352 1.901-4.352 4.353 0 2.45 1.816 4.352 4.352 4.352 2.579 0 4.396-1.902 4.396-4.352zm1.097 17.914c0-3.507 2.746-6.295 6.465-6.295s6.465 2.788 6.465 6.295-2.746 6.296-6.465 6.296-6.465-2.789-6.465-6.296zm10.86 0c0-2.45-1.816-4.352-4.395-4.352-2.535 0-4.354 1.901-4.354 4.352s1.818 4.354 4.354 4.354c2.578 0 4.395-1.903 4.395-4.354zM638.118 174.3c0 6.506-5.07 9.887-10.773 9.887-4.479 0-8.535-1.986-10.352-6.338l5.83-3.38c.676 1.943 1.943 3.126 4.521 3.126 2.789 0 4.016-1.479 4.016-3.295 0-1.817-1.227-3.296-4.016-3.296h-1.395l-2.578-3.845 5.367-6.803h-10.816v-6.338h19.014v5.493l-5.111 6.506c3.631 1.268 6.293 4.184 6.293 8.283zm24.082-.55c0 6.127-4.48 10.437-10.986 10.437-6.549 0-10.984-4.31-10.984-10.437 0-2.281.635-4.352 1.732-6l9.041-13.731h7.775l-6.422 9.338c5.873.464 9.844 4.647 9.844 10.393zm-6.76 0c0-2.577-1.986-4.099-4.227-4.099-2.281 0-4.225 1.479-4.225 4.099s1.941 4.099 4.225 4.099c2.241 0 4.227-1.522 4.227-4.099zm10.266-13.9c0-3.507 2.746-6.296 6.463-6.296 3.719 0 6.465 2.789 6.465 6.296s-2.662 6.295-6.465 6.295c-3.717 0-6.463-2.789-6.463-6.295zm21.673-2.621l1.438.803-20.111 22.563-1.395-.803 20.068-22.563zm-10.816 2.621c0-2.451-1.816-4.353-4.395-4.353-2.535 0-4.352 1.901-4.352 4.353 0 2.45 1.814 4.352 4.352 4.352 2.579-.001 4.395-1.902 4.395-4.352zm1.1 17.914c0-3.507 2.746-6.295 6.465-6.295 3.717 0 6.463 2.788 6.463 6.295s-2.746 6.296-6.463 6.296c-3.719 0-6.465-2.789-6.465-6.296zm10.859 0c0-2.45-1.816-4.352-4.395-4.352-2.535 0-4.354 1.901-4.354 4.352 0 2.451 1.816 4.353 4.354 4.353 2.577-.001 4.395-1.902 4.395-4.353z" fill="#A04B8A"/><linearGradient id="j" gradientUnits="userSpaceOnUse" x1="1948.734" y1="1567.562" x2="2045.254" y2="1567.562" gradientTransform="matrix(0 -1 -1 0 2046.873 2252.617)"><stop offset="0" stop-color="#4b48bf"/><stop offset="1" stop-color="#a14b8a"/></linearGradient><path fill="url(#j)" d="M434.938 207.362h88.746v96.521h-88.746z"/><path opacity=".5" fill="#FFF" d="M479.311 221.377l-44.346-14.015h88.69z"/><path opacity=".2" d="M479.311 303.884h-44.346v-96.522l44.346 14.015z"/><linearGradient id="k" gradientUnits="userSpaceOnUse" x1="1948.822" y1="1392.175" x2="2056.487" y2="1392.175" gradientTransform="matrix(0 -1 -1 0 2046.873 2252.617)"><stop offset="0" stop-color="#4b48bf"/><stop offset="1" stop-color="#a14b8a"/></linearGradient><path fill="url(#k)" d="M610.325 196.13h88.746v107.665h-88.746z"/><path opacity=".5" fill="#FFF" d="M654.698 210.146l-44.344-14.016h88.689z"/><path opacity=".2" d="M654.698 303.795h-44.344V196.13l44.344 14.016z"/><linearGradient id="l" gradientUnits="userSpaceOnUse" x1="1948.481" y1="1743.668" x2="2023.413" y2="1743.668" gradientTransform="matrix(0 -1 -1 0 2046.873 2252.617)"><stop offset="0" stop-color="#4b48bf"/><stop offset="1" stop-color="#a14b8a"/></linearGradient><path fill="url(#l)" d="M258.831 229.204h88.747v74.932h-88.747z"/><path opacity=".5" fill="#FFF" d="M303.205 243.219l-44.346-14.015h88.691z"/><path opacity=".2" d="M303.205 304.136h-44.344v-74.932l44.344 14.015z"/><linearGradient id="m" gradientUnits="userSpaceOnUse" x1="1948.596" y1="1920.492" x2="1969.206" y2="1920.492" gradientTransform="matrix(0 -1 -1 0 2046.873 2252.617)"><stop offset="0" stop-color="#4b48bf"/><stop offset="1" stop-color="#a14b8a"/></linearGradient><path fill="url(#m)" d="M82.007 283.411h88.747v20.609H82.007z"/><path opacity=".5" fill="#FFF" d="M126.381 297.427l-44.345-14.016h88.69z"/><path opacity=".2" d="M126.381 304.021H82.037v-20.61l44.344 14.016z"/><path fill="none" stroke="#FFF" stroke-width="3" stroke-miterlimit="10" d="M772.93 304.717H7.954"/><path d="M26.488 12.993v12.679h-.96V14.044l-2.935.924-.235-.833 3.314-1.142h.816zm2.534 6.34c0-3.913 1.702-6.539 4.745-6.539s4.746 2.626 4.746 6.539c0 3.912-1.703 6.538-4.746 6.538s-4.745-2.626-4.745-6.538zm8.513 0c0-3.551-1.413-5.615-3.768-5.615S30 15.782 30 19.333c0 3.55 1.412 5.614 3.767 5.614s3.768-2.064 3.768-5.614zm2.895 0c0-3.913 1.702-6.539 4.745-6.539s4.746 2.626 4.746 6.539c0 3.912-1.703 6.538-4.746 6.538s-4.745-2.626-4.745-6.538zm8.512 0c0-3.551-1.413-5.615-3.768-5.615s-3.767 2.064-3.767 5.615c0 3.55 1.412 5.614 3.767 5.614s3.768-2.064 3.768-5.614zm7.911-3.84c0-1.504 1.178-2.699 2.771-2.699s2.771 1.195 2.771 2.699c0 1.503-1.142 2.698-2.771 2.698-1.594 0-2.771-1.195-2.771-2.698zm9.292-1.123l.616.344-8.622 9.672-.598-.344 8.604-9.672zm-4.637 1.123c0-1.051-.779-1.866-1.884-1.866-1.087 0-1.865.815-1.865 1.866 0 1.05.778 1.865 1.865 1.865 1.105 0 1.884-.815 1.884-1.865zm.471 7.68c0-1.504 1.178-2.699 2.771-2.699s2.771 1.195 2.771 2.699c0 1.503-1.178 2.698-2.771 2.698s-2.771-1.195-2.771-2.698zm4.655 0c0-1.051-.779-1.866-1.884-1.866-1.087 0-1.865.815-1.865 1.866 0 1.05.778 1.865 1.865 1.865 1.104 0 1.884-.815 1.884-1.865zm12.202-6.684v.869c-1.558 0-3.025.96-3.025 3.278v5.035h-.905v-9.056h.905v1.774c.616-1.429 1.793-1.9 3.025-1.9zm9.833 4.691c0 .146-.018.29-.018.436h-8.205c.218 2.046 1.775 3.387 3.84 3.387 1.485 0 2.608-.688 3.134-1.648l.797.471c-.743 1.231-2.156 2.047-3.949 2.047-2.789 0-4.763-1.992-4.763-4.728 0-2.662 1.919-4.727 4.69-4.727 2.753-.001 4.474 2.28 4.474 4.762zm-8.223-.452h7.281c-.199-2.21-1.757-3.441-3.532-3.441-2.064-.001-3.568 1.43-3.749 3.441zm17.585-4.112l-3.822 9.056h-1.104l-3.84-9.056h.979l3.404 8.114 3.424-8.114h.959zm9.832 4.564c0 .146-.018.29-.018.436H99.64c.218 2.046 1.775 3.387 3.84 3.387 1.485 0 2.608-.688 3.133-1.648l.798.471c-.743 1.231-2.156 2.047-3.949 2.047-2.789 0-4.763-1.992-4.763-4.728 0-2.662 1.919-4.727 4.69-4.727 2.754-.001 4.474 2.28 4.474 4.762zm-8.222-.452h7.281c-.199-2.21-1.757-3.441-3.532-3.441-2.065-.001-3.569 1.43-3.749 3.441zm18-.689v5.633h-.923v-5.633c0-1.666-.96-2.753-2.663-2.753-1.774 0-3.17 1.159-3.17 3.604v4.781h-.905v-9.056h.905v1.721c.688-1.341 1.848-1.92 3.242-1.92 2.155.001 3.514 1.432 3.514 3.623zm9.976-3.423v9.056h-.905v-1.721c-.688 1.341-1.848 1.92-3.242 1.92-2.155 0-3.514-1.431-3.514-3.622v-5.633h.924v5.633c0 1.666.96 2.753 2.662 2.753 1.775 0 3.17-1.159 3.17-3.604v-4.781l.905-.001zm11.336 4.564c0 .146-.018.29-.018.436h-8.205c.218 2.046 1.775 3.387 3.84 3.387 1.485 0 2.608-.688 3.133-1.648l.798.471c-.743 1.231-2.156 2.047-3.949 2.047-2.789 0-4.763-1.992-4.763-4.728 0-2.662 1.919-4.727 4.69-4.727 2.753-.001 4.474 2.28 4.474 4.762zm-8.223-.452h7.281c-.199-2.21-1.757-3.441-3.532-3.441-2.064-.001-3.568 1.43-3.749 3.441zm24.068-4.112v9.056h-.924v-2.047c-.761 1.358-2.155 2.246-3.895 2.246-2.571 0-4.69-2.047-4.69-4.728s2.119-4.727 4.69-4.727c1.739 0 3.134.887 3.895 2.245v-2.046l.924.001zm-.924 4.528c0-2.155-1.667-3.857-3.822-3.857-2.155 0-3.84 1.702-3.84 3.857s1.685 3.858 3.84 3.858 3.822-1.703 3.822-3.858zm16.678-1.213v5.741h-.906v-5.741c0-1.721-.996-2.645-2.408-2.645-1.521 0-2.717 1.014-2.717 3.332v5.054h-.906v-5.741c0-1.721-.924-2.645-2.318-2.645-1.485 0-2.808 1.014-2.808 3.332v5.054h-.905v-9.056h.905v1.558c.671-1.25 1.758-1.757 2.916-1.757 1.322 0 2.355.651 2.826 1.847.652-1.268 1.811-1.847 3.024-1.847 1.92 0 3.297 1.249 3.297 3.514zm1.933 1.213c0-2.681 2.118-4.727 4.763-4.727 2.627 0 4.746 2.046 4.746 4.727s-2.119 4.728-4.746 4.728c-2.644-.001-4.763-2.048-4.763-4.728zm8.585 0c0-2.155-1.667-3.857-3.822-3.857-2.155 0-3.84 1.702-3.84 3.857s1.685 3.858 3.84 3.858 3.822-1.703 3.822-3.858zm10.52-4.528v9.056h-.905v-1.721c-.688 1.341-1.848 1.92-3.242 1.92-2.155 0-3.514-1.431-3.514-3.622v-5.633h.924v5.633c0 1.666.96 2.753 2.662 2.753 1.775 0 3.17-1.159 3.17-3.604v-4.781l.905-.001zm10.448 3.423v5.633h-.923v-5.633c0-1.666-.96-2.753-2.663-2.753-1.774 0-3.17 1.159-3.17 3.604v4.781h-.905v-9.056h.905v1.721c.688-1.341 1.848-1.92 3.242-1.92 2.156.001 3.514 1.432 3.514 3.623zm4.49-2.536v5.887c0 1.594.851 1.63 2.698 1.467v.815c-2.373.362-3.622-.218-3.622-2.282v-5.887h-1.992v-.887h1.992v-2.265l.924-.271v2.536h2.698v.887h-2.698zm9.326-2.119l-1.721-.036.96 1.431-.707.417-.887-1.521-.87 1.521-.725-.417.96-1.431-1.721.036v-.778l1.721.036-.96-1.431.725-.417.87 1.504.887-1.504.707.417-.96 1.431 1.721-.036v.778z" fill="#A04B8A"/><path fill="none" stroke="#FFF" stroke-width="3" stroke-miterlimit="10" d="M14.85 9.016L7.955 2.121 1.061 9.016M772.93 3.089v301.628"/></svg>