<svg xmlns="http://www.w3.org/2000/svg" width="774.43" height="381.678" viewBox="0 0 774.43 381.678"><linearGradient id="a" gradientUnits="userSpaceOnUse" x1="-76.045" y1="-323.847" x2="688.93" y2="-323.847" gradientTransform="matrix(1 0 0 -1 84 -52.644)"><stop offset="0" stop-color="#fff" stop-opacity=".2"/><stop offset=".5" stop-color="#fff" stop-opacity="0"/><stop offset="1" stop-color="#fff" stop-opacity=".2"/></linearGradient><path fill="none" stroke="url(#a)" stroke-width="3" stroke-miterlimit="10" d="M772.93 271.203H7.955"/><linearGradient id="b" gradientUnits="userSpaceOnUse" x1="-76.045" y1="-290.332" x2="688.93" y2="-290.332" gradientTransform="matrix(1 0 0 -1 84 -52.644)"><stop offset="0" stop-color="#fff" stop-opacity=".2"/><stop offset=".5" stop-color="#fff" stop-opacity="0"/><stop offset="1" stop-color="#fff" stop-opacity=".2"/></linearGradient><path fill="none" stroke="url(#b)" stroke-width="3" stroke-miterlimit="10" d="M772.93 237.688H7.955"/><linearGradient id="c" gradientUnits="userSpaceOnUse" x1="-76.045" y1="-256.818" x2="688.93" y2="-256.818" gradientTransform="matrix(1 0 0 -1 84 -52.644)"><stop offset="0" stop-color="#fff" stop-opacity=".2"/><stop offset=".5" stop-color="#fff" stop-opacity="0"/><stop offset="1" stop-color="#fff" stop-opacity=".2"/></linearGradient><path fill="none" stroke="url(#c)" stroke-width="3" stroke-miterlimit="10" d="M772.93 204.174H7.955"/><linearGradient id="d" gradientUnits="userSpaceOnUse" x1="-76.045" y1="-223.304" x2="688.93" y2="-223.304" gradientTransform="matrix(1 0 0 -1 84 -52.644)"><stop offset="0" stop-color="#fff" stop-opacity=".2"/><stop offset=".5" stop-color="#fff" stop-opacity="0"/><stop offset="1" stop-color="#fff" stop-opacity=".2"/></linearGradient><path fill="none" stroke="url(#d)" stroke-width="3" stroke-miterlimit="10" d="M772.93 170.66H7.955"/><linearGradient id="e" gradientUnits="userSpaceOnUse" x1="-76.045" y1="-189.79" x2="688.93" y2="-189.79" gradientTransform="matrix(1 0 0 -1 84 -52.644)"><stop offset="0" stop-color="#fff" stop-opacity=".2"/><stop offset=".5" stop-color="#fff" stop-opacity="0"/><stop offset="1" stop-color="#fff" stop-opacity=".2"/></linearGradient><path fill="none" stroke="url(#e)" stroke-width="3" stroke-miterlimit="10" d="M772.93 137.146H7.955"/><linearGradient id="f" gradientUnits="userSpaceOnUse" x1="-76.045" y1="-156.277" x2="688.93" y2="-156.277" gradientTransform="matrix(1 0 0 -1 84 -52.644)"><stop offset="0" stop-color="#fff" stop-opacity=".2"/><stop offset=".5" stop-color="#fff" stop-opacity="0"/><stop offset="1" stop-color="#fff" stop-opacity=".2"/></linearGradient><path fill="none" stroke="url(#f)" stroke-width="3" stroke-miterlimit="10" d="M772.93 103.633H7.955"/><linearGradient id="g" gradientUnits="userSpaceOnUse" x1="-76.045" y1="-122.763" x2="688.93" y2="-122.763" gradientTransform="matrix(1 0 0 -1 84 -52.644)"><stop offset="0" stop-color="#fff" stop-opacity=".2"/><stop offset=".5" stop-color="#fff" stop-opacity="0"/><stop offset="1" stop-color="#fff" stop-opacity=".2"/></linearGradient><path fill="none" stroke="url(#g)" stroke-width="3" stroke-miterlimit="10" d="M772.93 70.118H7.955"/><linearGradient id="h" gradientUnits="userSpaceOnUse" x1="-76.045" y1="-89.248" x2="688.93" y2="-89.248" gradientTransform="matrix(1 0 0 -1 84 -52.644)"><stop offset="0" stop-color="#fff" stop-opacity=".2"/><stop offset=".5" stop-color="#fff" stop-opacity="0"/><stop offset="1" stop-color="#fff" stop-opacity=".2"/></linearGradient><path fill="none" stroke="url(#h)" stroke-width="3" stroke-miterlimit="10" d="M772.93 36.604H7.955"/><linearGradient id="i" gradientUnits="userSpaceOnUse" x1="-76.045" y1="-55.733" x2="688.93" y2="-55.733" gradientTransform="matrix(1 0 0 -1 84 -52.644)"><stop offset="0" stop-color="#fff" stop-opacity=".2"/><stop offset=".5" stop-color="#fff" stop-opacity="0"/><stop offset="1" stop-color="#fff" stop-opacity=".2"/></linearGradient><path fill="none" stroke="url(#i)" stroke-width="3" stroke-miterlimit="10" d="M772.93 3.089H7.955"/><path fill="none" stroke="#FFF" stroke-width="3" stroke-miterlimit="10" d="M7.954 3.089v301.628"/><path fill="#706DCB" d="M282.436 343.158h-4.344l-.585 1.838h-2.924l3.977-11.694h3.408l3.977 11.694h-2.924l-.585-1.838zm-.801-2.505l-1.37-4.295-1.37 4.295h2.74zm13.421-3.342c0 2.223-1.787 4.01-4.093 4.01h-1.755v3.677h-2.673v-11.694h4.428c2.305-.005 4.093 1.783 4.093 4.007zm-2.673 0c0-.854-.602-1.504-1.42-1.504h-1.755v3.008h1.755c.818 0 1.42-.653 1.42-1.504zm12.116 0c0 2.223-1.787 4.01-4.093 4.01h-1.755v3.677h-2.673v-11.694h4.428c2.305-.005 4.093 1.783 4.093 4.007zm-2.673 0c0-.854-.602-1.504-1.42-1.504h-1.755v3.008h1.755c.818 0 1.42-.653 1.42-1.504zm10.946 5.111v2.572h-7.353v-11.695h7.269v2.573h-4.596v1.938h4.177v2.54h-4.177v2.07l4.68.002zm8.108.736h-4.344l-.585 1.838h-2.924l3.977-11.694h3.408l3.977 11.694h-2.924l-.585-1.838zm-.802-2.505l-1.37-4.295-1.37 4.295h2.74zm11.749 1.769v2.572h-6.851v-11.695h2.674v9.123h4.177zM289.5 353.981v2.256h4.344v2.573H289.5v4.294h-2.673v-11.695h7.101v2.572H289.5zm12.952 6.55v2.572H295.1v-11.695h7.268v2.572h-4.595v1.938h4.177v2.54h-4.177v2.069l4.679.004zm8.44 0v2.572h-7.352v-11.695h7.268v2.572h-4.595v1.938h4.177v2.54h-4.177v2.069l4.679.004zm.504-.083l2.306-1.338c.418.97 1.136 1.62 2.456 1.62 1.27 0 1.587-.501 1.587-.952 0-.718-.668-1.002-2.423-1.485-1.737-.483-3.441-1.318-3.441-3.561 0-2.256 1.904-3.56 3.927-3.56 1.921 0 3.426.92 4.277 2.641l-2.256 1.32c-.401-.837-.952-1.354-2.021-1.354-.836 0-1.254.419-1.254.888 0 .533.284.9 2.105 1.452 1.771.534 3.76 1.152 3.76 3.626 0 2.257-1.805 3.594-4.345 3.594-2.455-.002-4.025-1.172-4.678-2.891z"/><path fill="none" stroke="#FFF" stroke-width="3" stroke-miterlimit="10" d="M772.93 304.717H7.954"/><path fill="#A04B8A" d="M26.488 12.993v12.679h-.96V14.044l-2.935.924-.235-.833 3.314-1.142h.816zm2.534 6.34c0-3.913 1.702-6.539 4.745-6.539s4.746 2.626 4.746 6.539c0 3.912-1.703 6.538-4.746 6.538s-4.745-2.626-4.745-6.538zm8.513 0c0-3.551-1.413-5.615-3.768-5.615S30 15.782 30 19.333c0 3.55 1.412 5.614 3.767 5.614s3.768-2.064 3.768-5.614zm2.895 0c0-3.913 1.702-6.539 4.745-6.539s4.746 2.626 4.746 6.539c0 3.912-1.703 6.538-4.746 6.538s-4.745-2.626-4.745-6.538zm8.512 0c0-3.551-1.413-5.615-3.768-5.615s-3.767 2.064-3.767 5.615c0 3.55 1.412 5.614 3.767 5.614s3.768-2.064 3.768-5.614zm7.911-3.84c0-1.504 1.178-2.699 2.771-2.699s2.771 1.195 2.771 2.699c0 1.503-1.142 2.696-2.771 2.696-1.594.002-2.771-1.193-2.771-2.696zm9.292-1.123l.616.344-8.622 9.672-.598-.344 8.604-9.672zm-4.637 1.123c0-1.053-.779-1.866-1.884-1.866-1.087 0-1.865.813-1.865 1.866 0 1.05.778 1.863 1.865 1.863 1.105.002 1.884-.813 1.884-1.863zm.471 7.68c0-1.504 1.178-2.699 2.771-2.699s2.771 1.195 2.771 2.699c0 1.503-1.178 2.698-2.771 2.698s-2.771-1.195-2.771-2.698zm4.655 0c0-1.051-.779-1.866-1.884-1.866-1.087 0-1.865.815-1.865 1.866 0 1.05.778 1.865 1.865 1.865 1.104 0 1.884-.815 1.884-1.865zm12.202-6.683v.867c-1.558 0-3.025.96-3.025 3.278v5.035h-.905v-9.056h.905v1.772c.616-1.426 1.793-1.896 3.025-1.896zm9.833 4.69c0 .146-.018.29-.018.438h-8.205c.218 2.046 1.775 3.387 3.84 3.387 1.485 0 2.608-.688 3.134-1.648l.797.473c-.743 1.229-2.156 2.047-3.949 2.047-2.789 0-4.763-1.992-4.763-4.729 0-2.662 1.919-4.727 4.69-4.727 2.753-.004 4.474 2.277 4.474 4.759zm-8.223-.452h7.281c-.199-2.21-1.757-3.439-3.532-3.439-2.064-.003-3.568 1.428-3.749 3.439zm17.585-4.112l-3.822 9.056h-1.104l-3.84-9.056h.979l3.404 8.112 3.424-8.112h.959zm9.832 4.564c0 .146-.018.29-.018.438H99.64c.218 2.046 1.775 3.387 3.84 3.387 1.485 0 2.608-.688 3.133-1.648l.798.473c-.743 1.229-2.156 2.047-3.949 2.047-2.789 0-4.763-1.992-4.763-4.729 0-2.662 1.919-4.727 4.69-4.727 2.754-.004 4.474 2.277 4.474 4.759zm-8.222-.452h7.281c-.199-2.21-1.757-3.439-3.532-3.439-2.065-.003-3.569 1.428-3.749 3.439zm18-.689v5.633h-.923v-5.633c0-1.666-.96-2.753-2.663-2.753-1.774 0-3.17 1.157-3.17 3.604v4.781h-.905v-9.056h.905v1.721c.688-1.341 1.848-1.92 3.242-1.92 2.155.001 3.514 1.432 3.514 3.623zm9.976-3.423v9.056h-.905v-1.721c-.688 1.341-1.848 1.92-3.242 1.92-2.155 0-3.514-1.433-3.514-3.622v-5.633h.924v5.633c0 1.666.96 2.753 2.662 2.753 1.775 0 3.17-1.159 3.17-3.604v-4.779l.905-.003zm11.336 4.564c0 .146-.018.29-.018.438h-8.205c.218 2.046 1.775 3.387 3.84 3.387 1.485 0 2.608-.688 3.133-1.648l.798.473c-.743 1.229-2.156 2.047-3.949 2.047-2.789 0-4.763-1.992-4.763-4.729 0-2.662 1.919-4.727 4.69-4.727 2.753-.004 4.474 2.277 4.474 4.759zm-8.223-.452h7.281c-.199-2.21-1.757-3.439-3.532-3.439-2.064-.003-3.568 1.428-3.749 3.439zm24.068-4.112v9.056h-.924v-2.047c-.761 1.356-2.155 2.246-3.895 2.246-2.571 0-4.69-2.047-4.69-4.729 0-2.681 2.119-4.727 4.69-4.727 1.739 0 3.134.887 3.895 2.245v-2.046l.924.002zm-.924 4.528c0-2.153-1.667-3.855-3.822-3.855-2.155 0-3.84 1.702-3.84 3.855 0 2.155 1.685 3.858 3.84 3.858s3.822-1.703 3.822-3.858zm16.678-1.213v5.741h-.906v-5.741c0-1.721-.996-2.645-2.408-2.645-1.521 0-2.717 1.014-2.717 3.332v5.054h-.906v-5.741c0-1.721-.924-2.645-2.318-2.645-1.485 0-2.808 1.014-2.808 3.332v5.054h-.905v-9.056h.905v1.558c.671-1.25 1.758-1.757 2.916-1.757 1.322 0 2.355.649 2.826 1.847.652-1.268 1.811-1.847 3.024-1.847 1.92 0 3.297 1.249 3.297 3.514zm1.933 1.213c0-2.681 2.118-4.727 4.763-4.727 2.627 0 4.746 2.046 4.746 4.727 0 2.683-2.119 4.729-4.746 4.729-2.644-.002-4.763-2.049-4.763-4.729zm8.585 0c0-2.153-1.667-3.855-3.822-3.855-2.155 0-3.84 1.702-3.84 3.855 0 2.155 1.685 3.858 3.84 3.858s3.822-1.703 3.822-3.858zm10.52-4.528v9.056h-.905v-1.721c-.688 1.341-1.848 1.92-3.242 1.92-2.155 0-3.514-1.433-3.514-3.622v-5.633h.924v5.633c0 1.666.96 2.753 2.662 2.753 1.775 0 3.17-1.159 3.17-3.604v-4.779l.905-.003zm10.448 3.423v5.633h-.923v-5.633c0-1.666-.96-2.753-2.663-2.753-1.774 0-3.17 1.157-3.17 3.604v4.781h-.905v-9.056h.905v1.721c.688-1.341 1.848-1.92 3.242-1.92 2.156.001 3.514 1.432 3.514 3.623zm4.49-2.536v5.887c0 1.594.851 1.63 2.698 1.467v.815c-2.373.362-3.622-.218-3.622-2.282v-5.887h-1.992v-.887h1.992V14.35l.924-.271v2.536h2.698v.887l-2.698.001zm9.326-2.119l-1.721-.036.96 1.431-.707.417-.887-1.521-.87 1.521-.725-.417.96-1.431-1.721.036v-.778l1.721.036-.96-1.431.725-.417.87 1.504.887-1.504.707.417-.96 1.431 1.721-.036v.778z"/><path fill="none" stroke="#FFF" stroke-width="3" stroke-miterlimit="10" d="M14.85 9.016L7.955 2.121 1.061 9.016M772.93 3.089v301.628"/><linearGradient id="j" gradientUnits="userSpaceOnUse" x1="96.51" y1="-54.235" x2="113.16" y2="-54.235" gradientTransform="matrix(0 -1 -1 0 72.145 399.682)"><stop offset="0" stop-color="#4b48bf"/><stop offset="1" stop-color="#a14b8a"/></linearGradient><path fill="url(#j)" d="M82.022 286.522h88.717v16.65H82.022z"/><linearGradient id="k" gradientUnits="userSpaceOnUse" x1="81.397" y1="121.87" x2="114.695" y2="121.87" gradientTransform="matrix(0 -1 -1 0 424.357 384.57)"><stop offset="0" stop-color="#4b48bf"/><stop offset="1" stop-color="#a14b8a"/></linearGradient><path fill="url(#k)" d="M258.113 269.873h88.749v33.298h-88.749z"/><linearGradient id="l" gradientUnits="userSpaceOnUse" x1="-9.267" y1="298.531" x2="123.923" y2="298.531" gradientTransform="matrix(0 -1 -1 0 777.679 293.905)"><stop offset="0" stop-color="#4b48bf"/><stop offset="1" stop-color="#a14b8a"/></linearGradient><path fill="url(#l)" d="M434.788 169.982h88.719v133.189h-88.719z"/><linearGradient id="m" gradientUnits="userSpaceOnUse" x1="-24.381" y1="474.066" x2="125.46" y2="474.066" gradientTransform="matrix(0 -1 -1 0 1128.75 278.792)"><stop offset="0" stop-color="#4b48bf"/><stop offset="1" stop-color="#a14b8a"/></linearGradient><path fill="url(#m)" d="M610.325 153.331h88.717v149.841h-88.717z"/><path d="M281.878 228.273v29.021h-6.633v-22.016l-5.141 1.41-1.617-5.681 7.587-2.735h5.804zm4.143 14.509c0-8.954 4.312-15.092 11.815-15.092 7.504 0 11.816 6.138 11.816 15.092s-4.313 15.091-11.816 15.091c-7.503 0-11.815-6.134-11.815-15.091zm16.998 0c0-5.598-1.7-8.623-5.183-8.623-3.482 0-5.182 3.025-5.182 8.623s1.7 8.624 5.182 8.624c3.483 0 5.183-3.026 5.183-8.624zm10.484-8.789c0-3.44 2.695-6.178 6.343-6.178s6.344 2.736 6.344 6.178c0 3.44-2.612 6.178-6.344 6.178-3.648 0-6.343-2.736-6.343-6.178zm21.268-2.57l1.409.788-19.733 22.139-1.368-.788 19.692-22.139zm-10.613 2.57c0-2.404-1.783-4.271-4.313-4.271-2.487 0-4.271 1.866-4.271 4.271 0 2.404 1.783 4.271 4.271 4.271 2.53 0 4.313-1.865 4.313-4.271zm1.078 17.58c0-3.44 2.693-6.178 6.343-6.178 3.648 0 6.343 2.736 6.343 6.178 0 3.44-2.695 6.178-6.343 6.178-3.648-.001-6.343-2.738-6.343-6.178zm10.655 0c0-2.404-1.781-4.271-4.312-4.271-2.487 0-4.271 1.865-4.271 4.271 0 2.404 1.783 4.271 4.271 4.271 2.529-.002 4.312-1.867 4.312-4.271zm-213.088 12.958c0 6.385-4.975 9.7-10.572 9.7-4.602 0-8.582-1.947-10.365-6.219l5.721-3.315c.664 1.906 1.907 3.067 4.644 3.067 2.736 0 3.938-1.451 3.938-3.233s-1.203-3.233-3.731-3.233h-9.079l1.202-16.666h16.791v6.219H110.78l-.29 3.979h2.363c5.39-.001 9.95 3.317 9.95 9.701zm3.644-14.179c0-3.44 2.695-6.177 6.343-6.177s6.343 2.735 6.343 6.177c0 3.442-2.612 6.179-6.343 6.179-3.648 0-6.343-2.738-6.343-6.179zm21.268-2.571l1.41.787-19.734 22.14-1.368-.788 19.692-22.139zm-10.613 2.571c0-2.403-1.783-4.27-4.312-4.27-2.488 0-4.271 1.865-4.271 4.27 0 2.405 1.783 4.271 4.271 4.271 2.529-.001 4.312-1.866 4.312-4.271zm1.078 17.578c0-3.439 2.694-6.177 6.343-6.177s6.343 2.736 6.343 6.177c0 3.441-2.695 6.178-6.343 6.178s-6.343-2.737-6.343-6.178zm10.654 0c0-2.404-1.782-4.27-4.312-4.27-2.487 0-4.27 1.864-4.27 4.27s1.783 4.271 4.27 4.271c2.53-.001 4.312-1.866 4.312-4.271zm314.937-114.924h-2.902v4.644h-6.717v-4.644h-13.185v-6.136l9.246-18.241h7.131L448.1 146.87h6.054v-6.22h6.717v6.22h2.902l-.002 6.136zm1.655-9.867c0-8.954 4.312-15.091 11.814-15.091s11.815 6.137 11.815 15.091c0 8.955-4.313 15.091-11.815 15.091s-11.814-6.136-11.814-15.091zm16.998 0c0-5.597-1.7-8.623-5.184-8.623-3.482 0-5.183 3.026-5.183 8.623 0 5.598 1.699 8.624 5.183 8.624s5.184-3.026 5.184-8.624zm10.484-8.789c0-3.439 2.693-6.177 6.343-6.177 3.647 0 6.343 2.736 6.343 6.177 0 3.441-2.61 6.178-6.343 6.178-3.648 0-6.343-2.737-6.343-6.178zm21.268-2.569l1.41.787-19.734 22.14-1.367-.788 19.691-22.139zm-10.613 2.569c0-2.404-1.782-4.271-4.312-4.271-2.487 0-4.271 1.865-4.271 4.271s1.782 4.271 4.271 4.271c2.528-.001 4.312-1.866 4.312-4.271zm1.078 17.578c0-3.44 2.694-6.177 6.344-6.177 3.648 0 6.343 2.735 6.343 6.177s-2.694 6.178-6.343 6.178c-3.65 0-6.344-2.737-6.344-6.178zm10.654 0c0-2.404-1.783-4.27-4.312-4.27-2.487 0-4.271 1.864-4.271 4.27s1.783 4.271 4.271 4.271c2.529-.001 4.312-1.866 4.312-4.271zm125.671-15.821h-2.901v4.645h-6.718v-4.645h-13.184v-6.136l9.246-18.241h7.131l-9.246 18.241h6.053v-6.219h6.718v6.219h2.901v6.136zm22.176-4.478c0 6.385-4.975 9.701-10.571 9.701-4.603 0-8.582-1.948-10.364-6.22l5.722-3.315c.663 1.907 1.906 3.068 4.644 3.068 2.736 0 3.938-1.451 3.938-3.234 0-1.782-1.203-3.233-3.731-3.233h-9.08l1.201-16.666h16.791v6.22H651.12l-.289 3.979h2.362c5.388-.001 9.949 3.316 9.949 9.7zm3.644-14.179c0-3.44 2.695-6.178 6.344-6.178 3.649 0 6.342 2.736 6.342 6.178 0 3.44-2.61 6.178-6.342 6.178-3.649 0-6.344-2.736-6.344-6.178zm21.268-2.57l1.41.788-19.733 22.139-1.367-.788 19.69-22.139zm-10.614 2.57c0-2.404-1.782-4.271-4.312-4.271-2.488 0-4.271 1.866-4.271 4.271 0 2.404 1.782 4.271 4.271 4.271 2.53 0 4.312-1.865 4.312-4.271zm1.079 17.579c0-3.439 2.695-6.177 6.345-6.177 3.648 0 6.343 2.736 6.343 6.177 0 3.441-2.694 6.179-6.343 6.179-3.65-.001-6.345-2.738-6.345-6.179zm10.654 0c0-2.403-1.781-4.27-4.311-4.27-2.488 0-4.271 1.865-4.271 4.27 0 2.405 1.782 4.271 4.271 4.271 2.53-.001 4.311-1.866 4.311-4.271z" fill="#A04B8A"/><path fill="#706DCB" d="M101.717 337.543c0 2.222-1.787 4.01-4.093 4.01h-1.755v3.676h-2.673v-11.693h4.428c2.306-.005 4.093 1.784 4.093 4.007zm-2.673 0c0-.854-.602-1.504-1.42-1.504h-1.755v3.008h1.755c.819 0 1.42-.652 1.42-1.504zm7.538 3.843h-1.27v3.843h-2.673v-11.694h4.678a4 4 0 0 1 4.01 3.989v.021c0 1.437-.868 2.739-2.155 3.392l2.49 4.294h-2.874l-2.206-3.845zm-1.269-2.339h2.005c.735 0 1.337-.652 1.337-1.504 0-.854-.602-1.504-1.337-1.504h-2.005v3.008zm6.519.334c0-3.441 2.724-6.082 6.082-6.082s6.082 2.641 6.082 6.082c0 3.439-2.724 6.082-6.082 6.082s-6.082-2.641-6.082-6.082zm9.491 0c0-2.089-1.503-3.478-3.408-3.478-1.904 0-3.408 1.389-3.408 3.478 0 2.088 1.504 3.476 3.408 3.476 1.905-.002 3.408-1.388 3.408-3.476zm2.092 3.809l2.322-1.338c.368.651.752 1.003 1.654 1.003 1.17 0 1.521-.668 1.521-1.388v-7.938h2.674v7.938c0 2.573-1.806 3.994-4.211 3.994-1.854.002-3.191-.784-3.96-2.271zm17.03-.535v2.572h-7.352v-11.694h7.268v2.572h-4.595v1.938h4.177v2.54h-4.177v2.069l4.679.003zm.504-3.274c0-3.441 2.558-6.082 6.082-6.082 2.122 0 3.993 1.053 5.014 2.707l-2.307 1.336c-.519-.901-1.521-1.438-2.707-1.438-2.07 0-3.407 1.389-3.407 3.478 0 2.088 1.337 3.476 3.407 3.476 1.188 0 2.206-.533 2.707-1.438l2.307 1.337c-1.003 1.654-2.874 2.707-5.014 2.707-3.525-.001-6.082-2.642-6.082-6.083zm19.787-3.276h-3.008v9.122h-2.673v-9.122h-3.008v-2.572h8.688l.001 2.572zm-79.408 21.383c0-3.44 2.724-6.081 6.082-6.081 3.358 0 6.082 2.641 6.082 6.081s-2.724 6.082-6.082 6.082c-3.358 0-6.082-2.64-6.082-6.082zm9.491 0c0-2.089-1.503-3.477-3.408-3.477-1.904 0-3.408 1.388-3.408 3.477 0 2.09 1.504 3.477 3.408 3.477 1.905-.002 3.408-1.389 3.408-3.477zm2.427-5.848h2.807l2.022 8.188 2.255-8.188h2.173l2.255 8.188 2.022-8.188h2.807l-3.225 11.696h-3.041l-1.904-6.9-1.905 6.9h-3.041l-3.225-11.696zm26.288 0v11.696h-2.005l-4.512-6.352v6.352h-2.673V351.64h2.005l4.511 6.353v-6.353h2.674zm8.944 9.123v2.573h-7.352V351.64h7.268v2.573h-4.595v1.938h4.177v2.54h-4.177v2.07l4.679.002zm5.031-1.27h-1.271v3.843h-2.673V351.64h4.679a4 4 0 0 1 4.01 3.99v.021c0 1.438-.868 2.739-2.155 3.394l2.49 4.294h-2.874l-2.206-3.846zm-1.27-2.339h2.006c.734 0 1.337-.65 1.337-1.504s-.603-1.504-1.337-1.504h-2.006v3.008zm6.437 3.526l2.306-1.337c.418.969 1.136 1.62 2.456 1.62 1.271 0 1.587-.501 1.587-.952 0-.718-.668-1.002-2.423-1.486-1.737-.482-3.44-1.317-3.44-3.56 0-2.256 1.903-3.561 3.927-3.561 1.921 0 3.425.921 4.276 2.642l-2.256 1.32c-.4-.838-.952-1.354-2.021-1.354-.836 0-1.254.418-1.254.887 0 .533.283.901 2.104 1.452 1.771.535 3.76 1.153 3.76 3.626 0 2.257-1.805 3.594-4.345 3.594-2.456-.001-4.026-1.171-4.677-2.891zm18.884-9.04v11.696h-2.674v-4.646h-3.676v4.646h-2.673V351.64h2.673v4.479h3.676v-4.479h2.674zm4.263 0v11.696h-2.673V351.64h2.673zm10.111 4.01c0 2.224-1.787 4.012-4.093 4.012h-1.755v3.676h-2.673V351.64h4.428c2.305 0 4.093 1.788 4.093 4.01zm-2.673 0c0-.854-.603-1.504-1.42-1.504h-1.755v3.008h1.755c.817 0 1.42-.652 1.42-1.504zM62.049 369.747h2.924l2.59 8.604 2.59-8.604h2.924l-3.81 11.694h-3.408l-3.81-11.694zm17.798 9.858h-4.344l-.585 1.838h-2.924l3.977-11.694h3.408l3.977 11.694h-2.924l-.585-1.838zm-.802-2.505l-1.37-4.295-1.37 4.295h2.74zm11.748 1.77v2.571h-6.85v-11.694h2.673v9.123h4.177zm3.43-9.123v11.694H91.55v-11.694h2.673zm11.946 5.849c0 3.309-2.456 5.849-5.681 5.849H95.81V369.75h4.678c3.226-.003 5.681 2.537 5.681 5.846zm-2.571 0c0-2.005-1.271-3.273-3.108-3.273h-2.005v6.551h2.005c1.837-.004 3.108-1.273 3.108-3.278zm10.096 4.009h-4.344l-.585 1.838h-2.924l3.977-11.694h3.408l3.977 11.694h-2.924l-.585-1.838zm-.802-2.505l-1.37-4.295-1.37 4.295h2.74zm11.917-4.78h-3.008v9.123h-2.673v-9.123h-3.008v-2.571h8.688l.001 2.571zm3.428-2.573v11.694h-2.673v-11.694h2.673zm1.088 5.849c0-3.441 2.724-6.082 6.082-6.082 3.358 0 6.082 2.641 6.082 6.082s-2.724 6.082-6.082 6.082c-3.358 0-6.082-2.641-6.082-6.082zm9.489 0c0-2.089-1.503-3.476-3.408-3.476-1.903 0-3.407 1.387-3.407 3.476 0 2.088 1.504 3.477 3.407 3.477 1.906-.003 3.408-1.389 3.408-3.477zm12.955-5.849v11.694h-2.005l-4.512-6.351v6.351h-2.673v-11.694h2.005l4.511 6.35v-6.35h2.674zm8.024 2.573v2.258h4.344v2.571h-4.344v4.294h-2.673v-11.694h7.101v2.571h-4.428zm12.952 6.55v2.571h-7.353v-11.694h7.269v2.571h-4.596v1.938h4.177v2.54h-4.177v2.071l4.68.003zm8.442 0v2.571h-7.352v-11.694h7.268v2.571h-4.595v1.938h4.177v2.54h-4.177v2.071l4.679.003zm.503-.083l2.307-1.338c.418.97 1.136 1.619 2.456 1.619 1.27 0 1.587-.501 1.587-.95 0-.72-.668-1.003-2.424-1.487-1.736-.484-3.44-1.319-3.44-3.561 0-2.256 1.904-3.56 3.927-3.56 1.921 0 3.425.919 4.277 2.641l-2.256 1.319c-.401-.836-.952-1.354-2.021-1.354-.836 0-1.254.418-1.254.886 0 .534.284.9 2.105 1.453 1.771.533 3.76 1.151 3.76 3.626 0 2.256-1.806 3.593-4.345 3.593-2.457.004-4.027-1.166-4.679-2.887zm426.643-45.256h2.807l2.022 8.188 2.255-8.188h2.174l2.254 8.188 2.022-8.188h2.808l-3.228 11.695h-3.039l-1.903-6.898-1.906 6.898h-3.041l-3.225-11.695zm23.28 9.86h-4.345l-.586 1.838h-2.924l3.978-11.693h3.407l3.979 11.693h-2.927l-.582-1.838zm-.802-2.506l-1.368-4.295-1.371 4.295h2.739zm11.918-4.78h-3.008v9.122h-2.673v-9.122h-3.008v-2.572h8.688v2.572h.001zm-.416 3.276c0-3.441 2.56-6.082 6.082-6.082 2.123 0 3.994 1.053 5.015 2.707l-2.308 1.336c-.518-.901-1.52-1.438-2.707-1.438-2.069 0-3.407 1.389-3.407 3.478 0 2.088 1.338 3.476 3.407 3.476 1.188 0 2.207-.533 2.707-1.438l2.308 1.337c-1.004 1.654-2.873 2.707-5.015 2.707-3.526-.001-6.082-2.642-6.082-6.083zm20.957-5.85v11.695h-2.674v-4.646h-3.676v4.646h-2.672v-11.695h2.672v4.479h3.676v-4.479h2.674zm11.95 5.85c0 3.309-2.455 5.848-5.68 5.848h-4.681v-11.694h4.681c3.225-.004 5.68 2.537 5.68 5.846zm-2.574 0c0-2.005-1.271-3.274-3.106-3.274h-2.005v6.551h2.005c1.838-.003 3.106-1.272 3.106-3.277zm3.163 0c0-3.441 2.724-6.082 6.082-6.082 3.357 0 6.082 2.641 6.082 6.082 0 3.439-2.725 6.082-6.082 6.082-3.36 0-6.082-2.641-6.082-6.082zm9.491 0c0-2.089-1.504-3.478-3.408-3.478-1.903 0-3.407 1.389-3.407 3.478 0 2.088 1.504 3.476 3.407 3.476 1.904-.002 3.408-1.388 3.408-3.476zm15.341.334c0 3.575-2.487 5.748-5.764 5.748-3.677 0-6.316-2.707-6.316-6.064 0-3.393 2.691-6.1 6.134-6.1 2.237 0 4.127 1.104 5.112 2.673l-2.271 1.305c-.483-.77-1.536-1.369-2.856-1.369-1.974 0-3.44 1.452-3.44 3.51 0 1.986 1.401 3.439 3.677 3.439 1.555 0 2.571-.686 2.989-1.805h-3.125v-2.34h5.864v1.003h-.004zm-69.623 23.621h-2.672v-6.801l-3.024 4.963h-.302l-3.022-4.963v6.801h-2.674V351.64h2.674l3.177 5.196 3.174-5.196h2.674v11.696h-.005zm1.091-5.848c0-3.44 2.726-6.081 6.082-6.081s6.082 2.641 6.082 6.081-2.726 6.082-6.082 6.082-6.082-2.64-6.082-6.082zm9.491 0c0-2.089-1.504-3.477-3.407-3.477-1.904 0-3.408 1.388-3.408 3.477 0 2.09 1.504 3.477 3.408 3.477 1.903-.001 3.407-1.389 3.407-3.477zm12.954-5.848v11.696h-2.004l-4.513-6.352v6.352h-2.674V351.64h2.006l4.511 6.353v-6.353h2.674zm9.445 2.573h-3.011v9.123h-2.672v-9.123h-3.009v-2.573h8.688v2.573h.004zm9.776-2.573v11.696H671.1v-4.646h-3.676v4.646h-2.674V351.64h2.674v4.479h3.676v-4.479h2.675zm8.441 9.123v2.573h-6.851V351.64h2.675v9.123h4.176zm4.847-1.921v4.494h-2.672v-4.494l-3.928-7.202h3.041l2.223 4.513 2.224-4.513h3.041l-3.929 7.202zm-91.675 19.945l2.308-1.337c.418.969 1.138 1.618 2.455 1.618 1.271 0 1.588-.501 1.588-.95 0-.72-.668-1.003-2.424-1.487-1.735-.484-3.438-1.319-3.438-3.561 0-2.256 1.901-3.56 3.926-3.56 1.922 0 3.427.919 4.277 2.641l-2.257 1.319c-.399-.836-.95-1.354-2.021-1.354-.836 0-1.254.418-1.254.886 0 .534.285.9 2.104 1.453 1.771.535 3.761 1.151 3.761 3.626 0 2.256-1.807 3.593-4.347 3.593-2.457.004-4.026-1.166-4.678-2.887zm9.861-1.12v-7.92h2.674v7.687c0 .887.418 1.638 1.838 1.638s1.838-.751 1.838-1.638v-7.687h2.675v7.92c0 2.507-1.938 4.011-4.513 4.011-2.573 0-4.512-1.504-4.512-4.011zm19.219.352c0 2.071-1.688 3.426-3.774 3.426h-4.912V369.75h4.578c2.037 0 3.69 1.318 3.69 3.342 0 .97-.385 1.738-1.021 2.289.869.549 1.439 1.451 1.439 2.638zm-6.017-5.765v2.071h1.904c.603 0 1.021-.437 1.021-1.035 0-.602-.4-1.036-1.021-1.036h-1.904zm3.343 5.563c0-.649-.437-1.118-1.104-1.118h-2.238v2.238h2.238c.669.001 1.104-.467 1.104-1.12zm2.844.97l2.308-1.338c.418.97 1.138 1.619 2.455 1.619 1.271 0 1.588-.501 1.588-.95 0-.72-.668-1.003-2.424-1.487-1.735-.484-3.438-1.319-3.438-3.561 0-2.256 1.901-3.56 3.926-3.56 1.922 0 3.427.919 4.277 2.641l-2.257 1.319c-.399-.836-.95-1.354-2.021-1.354-.836 0-1.254.418-1.254.886 0 .534.285.9 2.104 1.453 1.771.533 3.761 1.151 3.761 3.626 0 2.256-1.807 3.593-4.347 3.593-2.457.004-4.026-1.166-4.678-2.887zm9.359-3.191c0-3.441 2.557-6.082 6.082-6.082 2.122 0 3.991 1.054 5.014 2.707l-2.308 1.336c-.521-.9-1.521-1.437-2.706-1.437-2.07 0-3.408 1.387-3.408 3.476 0 2.088 1.338 3.477 3.408 3.477 1.188 0 2.206-.533 2.706-1.438l2.308 1.337c-1.004 1.654-2.875 2.707-5.014 2.707-3.525-.001-6.082-2.642-6.082-6.083zm15.877 2.005h-1.271v3.844h-2.675V369.75h4.679a4 4 0 0 1 4.013 3.986v.023c0 1.438-.869 2.74-2.156 3.393l2.49 4.295h-2.873l-2.207-3.846zm-1.27-2.339h2.007c.733 0 1.336-.651 1.336-1.504 0-.854-.603-1.504-1.336-1.504h-2.007v3.008zm9.864-5.515v11.694h-2.674v-11.694h2.674zm10.109 4.011c0 2.223-1.787 4.01-4.095 4.01h-1.754v3.677h-2.675V369.75h4.429c2.308-.003 4.095 1.785 4.095 4.008zm-2.675 0c0-.854-.603-1.504-1.42-1.504h-1.755v3.008h1.755c.82 0 1.42-.653 1.42-1.504zm11.282-1.438h-3.008v9.123h-2.672v-9.123h-3.008v-2.571h8.688v2.571zm3.429-2.573v11.694h-2.674v-11.694h2.674zm1.089 5.849c0-3.441 2.723-6.082 6.079-6.082 3.358 0 6.082 2.641 6.082 6.082s-2.724 6.082-6.082 6.082c-3.356 0-6.079-2.641-6.079-6.082zm9.487 0c0-2.089-1.502-3.476-3.408-3.476-1.901 0-3.405 1.387-3.405 3.476 0 2.088 1.504 3.477 3.405 3.477 1.907-.003 3.408-1.389 3.408-3.477zm12.956-5.849v11.694h-2.006l-4.512-6.351v6.351h-2.672v-11.694h2.004l4.512 6.35v-6.35h2.674zm.839 9.04l2.308-1.338c.418.97 1.135 1.619 2.455 1.619 1.27 0 1.588-.501 1.588-.95 0-.72-.668-1.003-2.424-1.487-1.736-.484-3.441-1.319-3.441-3.561 0-2.256 1.904-3.56 3.929-3.56 1.92 0 3.425.919 4.276 2.641l-2.256 1.319c-.402-.836-.953-1.354-2.021-1.354-.836 0-1.255.418-1.255.886 0 .534.283.9 2.105 1.453 1.77.533 3.76 1.151 3.76 3.626 0 2.256-1.805 3.593-4.346 3.593-2.456.004-4.026-1.166-4.678-2.887zm-251.623-36.248v2.571h-7.353v-11.694h7.269v2.572h-4.595v1.938h4.177v2.54h-4.177v2.07l4.679.003zm.505-.083l2.307-1.337c.418.97 1.135 1.619 2.455 1.619 1.271 0 1.588-.502 1.588-.951 0-.72-.668-1.002-2.424-1.486-1.736-.484-3.441-1.319-3.441-3.56 0-2.258 1.904-3.561 3.93-3.561 1.922 0 3.426.919 4.275 2.641l-2.256 1.319c-.401-.836-.953-1.354-2.021-1.354-.836 0-1.255.418-1.255.887 0 .533.282.901 2.104 1.452 1.771.535 3.76 1.152 3.76 3.627 0 2.256-1.805 3.593-4.346 3.593-2.453.003-4.024-1.167-4.676-2.889zm9.361-3.19c0-3.44 2.559-6.082 6.082-6.082 2.121 0 3.992 1.053 5.014 2.707l-2.307 1.336c-.52-.9-1.521-1.438-2.707-1.438-2.07 0-3.407 1.388-3.407 3.477 0 2.088 1.337 3.477 3.407 3.477 1.188 0 2.205-.534 2.707-1.438l2.307 1.337c-1.003 1.654-2.873 2.707-5.014 2.707-3.525-.001-6.082-2.643-6.082-6.083zm15.877 2.005h-1.27v3.843h-2.674V333.42h4.678a4 4 0 0 1 4.01 3.99v.021c0 1.438-.866 2.739-2.153 3.392l2.489 4.295h-2.875l-2.205-3.847zm-1.269-2.339h2.004c.736 0 1.338-.652 1.338-1.504 0-.854-.602-1.504-1.338-1.504h-2.004v3.008zm6.519.334c0-3.44 2.727-6.082 6.082-6.082 3.357 0 6.082 2.642 6.082 6.082s-2.725 6.082-6.082 6.082c-3.357 0-6.082-2.642-6.082-6.082zm9.491 0c0-2.089-1.504-3.477-3.407-3.477s-3.407 1.388-3.407 3.477c0 2.088 1.504 3.477 3.407 3.477 1.903-.003 3.407-1.389 3.407-3.477zm2.425-5.85h2.811l2.021 8.188 2.255-8.188h2.175l2.256 8.188 2.021-8.188h2.809l-3.227 11.695h-3.041l-1.902-6.898-1.904 6.898H499.5l-3.23-11.695zm-31.165 20.682v2.256h4.345v2.573h-4.345v4.294h-2.675v-11.696h7.104v2.573h-4.429zm12.952 6.55v2.573h-7.352v-11.696h7.268v2.573h-4.594v1.938h4.176v2.54h-4.176v2.069l4.678.003zm8.442 0v2.573h-7.354v-11.696h7.271v2.573h-4.596v1.938h4.178v2.54h-4.178v2.069l4.679.003zm.504-.083l2.307-1.337c.418.969 1.137 1.62 2.455 1.62 1.271 0 1.588-.501 1.588-.952 0-.718-.668-1.002-2.424-1.485-1.734-.483-3.438-1.318-3.438-3.561 0-2.256 1.9-3.56 3.926-3.56 1.922 0 3.426.92 4.277 2.641l-2.257 1.32c-.399-.837-.952-1.354-2.021-1.354-.836 0-1.254.418-1.254.888 0 .532.283.9 2.104 1.451 1.771.535 3.762 1.153 3.762 3.626 0 2.258-1.807 3.595-4.348 3.595-2.455-.003-4.025-1.173-4.677-2.892z"/><path opacity=".5" fill="#FFF" d="M126.381 300.537L82.036 286.52h88.69l-44.345 14.017zm176.106-16.648l-44.345-14.016h88.69l-44.345 14.016zm176.659-99.892l-44.345-14.017h88.689l-44.344 14.017zm175.537-16.562l-44.344-14.016h88.689l-44.345 14.016z"/><path opacity=".2" d="M302.486 303.171h-44.344v-33.298l44.344 14.016v19.282zm-176.12.001H82.022v-16.65l44.344 14.017v2.633zm352.945-.001h-44.344V170.23l44.344 14.017v118.924zm175.358 0h-44.344V153.419l44.344 14.016v135.736z"/></svg>