<svg xmlns="http://www.w3.org/2000/svg" width="138.196" height="138.197" viewBox="0 0 138.196 138.197"><linearGradient id="a" gradientUnits="userSpaceOnUse" x1="674.636" y1="31.936" x2="812.832" y2="31.936" gradientTransform="matrix(-1 0 0 -.8257 812.832 95.468)"><stop offset="0" stop-color="#4b48bf"/><stop offset="1" stop-color="#a14b8a"/></linearGradient><ellipse opacity=".4" fill="url(#a)" cx="69.098" cy="69.099" rx="69.098" ry="57.051"/><linearGradient id="b" gradientUnits="userSpaceOnUse" x1="326.291" y1="-389.942" x2="464.488" y2="-389.942" gradientTransform="matrix(0 1 .8257 0 391.073 -326.291)"><stop offset="0" stop-color="#4b48bf"/><stop offset="1" stop-color="#a14b8a"/></linearGradient><ellipse opacity=".4" fill="url(#b)" cx="69.098" cy="69.099" rx="57.051" ry="69.099"/><linearGradient id="c" gradientUnits="userSpaceOnUse" x1="-130.097" y1="121.303" x2="-15.819" y2="121.303" gradientTransform="translate(142.056 -52.204)"><stop offset="0" stop-color="#4b48bf"/><stop offset="1" stop-color="#a14b8a"/></linearGradient><circle opacity=".6" fill="url(#c)" cx="69.098" cy="69.098" r="57.139"/><linearGradient id="d" gradientUnits="userSpaceOnUse" x1="-118.017" y1="121.303" x2="-27.898" y2="121.303" gradientTransform="translate(142.056 -52.204)"><stop offset="0" stop-color="#4b48bf"/><stop offset="1" stop-color="#a14b8a"/></linearGradient><circle opacity=".8" fill="url(#d)" cx="69.098" cy="69.098" r="45.059"/><g fill="#FFF"><path d="M72.765 34.396h-3.177L46.917 57.067v41.212H91.28V34.396H72.765zm-4.259 7.188v14.153H54.354l14.152-14.153zm18.515 52.437H51.176V59.997h21.589V38.655h14.256v55.366z"/><path d="M64.029 76.208v2.149c0 2.646-1.274 4.087-3.875 4.087h-1.227v6.212h-2.598V72.121h3.825c2.6 0 3.875 1.441 3.875 4.087zm-5.102-1.725v5.599h1.227c.828 0 1.277-.379 1.277-1.56v-2.479c0-1.183-.449-1.561-1.277-1.561h-1.227zm6.428-2.362h4.109c2.598 0 3.875 1.44 3.875 4.087v8.361c0 2.646-1.277 4.087-3.875 4.087h-4.109V72.121zm2.599 2.362v11.811h1.464c.828 0 1.324-.426 1.324-1.605v-8.6c0-1.18-.496-1.605-1.324-1.605h-1.464zm9.64 4.985h3.354v2.362h-3.354v6.826h-2.599V72.121h6.875v2.362h-4.276v4.985z"/></g></svg>