<svg xmlns="http://www.w3.org/2000/svg" width="52.834" height="76.081" viewBox="150.166 21.982 52.834 76.081"><g fill="#EAEAEA"><path d="M180.95 21.982h-3.785l-27 27v49.08H203v-76.08h-22.05zm-5.072 8.56v16.856h-16.855l16.855-16.856zm22.05 62.449h-42.689v-40.52h25.712V27.055h16.978v65.936z"/><path d="M170.545 71.778v2.56c0 3.151-1.518 4.867-4.614 4.867h-1.462v7.398h-3.094V66.911h4.556c3.097 0 4.614 1.717 4.614 4.867zm-6.076-2.053v6.667h1.462c.985 0 1.521-.45 1.521-1.856v-2.953c0-1.407-.535-1.857-1.521-1.857h-1.462zm7.656-2.814h4.894c3.095 0 4.615 1.717 4.615 4.867v9.959c0 3.15-1.521 4.866-4.615 4.866h-4.894V66.911zm3.094 2.814v14.066h1.744c.985 0 1.576-.507 1.576-1.913v-10.24c0-1.406-.591-1.913-1.576-1.913h-1.744zm11.482 5.935h3.993v2.813h-3.993v8.13h-3.096V66.911h8.188v2.813h-5.092v5.936z"/></g></svg>