<svg xmlns="http://www.w3.org/2000/svg" width="138.195" height="138.197"><linearGradient id="a" gradientUnits="userSpaceOnUse" x1="-534.974" y1="-765.673" x2="-396.778" y2="-765.673" gradientTransform="matrix(-1 0 0 -.8257 -396.778 -563.117)"><stop offset="0" stop-color="#4b48bf"/><stop offset="1" stop-color="#a14b8a"/></linearGradient><ellipse opacity=".4" fill="url(#a)" cx="69.098" cy="69.099" rx="69.098" ry="57.051"/><linearGradient id="b" gradientUnits="userSpaceOnUse" x1="242.289" y1="175.667" x2="380.487" y2="175.667" gradientTransform="matrix(0 1 .8257 0 -75.95 -242.289)"><stop offset="0" stop-color="#4b48bf"/><stop offset="1" stop-color="#a14b8a"/></linearGradient><ellipse opacity=".4" fill="url(#b)" cx="69.098" cy="69.099" rx="57.051" ry="69.099"/><linearGradient id="c" gradientUnits="userSpaceOnUse" x1="-214.097" y1="568.105" x2="-99.819" y2="568.105" gradientTransform="translate(226.056 -499.007)"><stop offset="0" stop-color="#4b48bf"/><stop offset="1" stop-color="#a14b8a"/></linearGradient><circle opacity=".6" fill="url(#c)" cx="69.098" cy="69.098" r="57.139"/><linearGradient id="d" gradientUnits="userSpaceOnUse" x1="-202.017" y1="568.105" x2="-111.899" y2="568.105" gradientTransform="translate(226.056 -499.007)"><stop offset="0" stop-color="#4b48bf"/><stop offset="1" stop-color="#a14b8a"/></linearGradient><circle opacity=".8" fill="url(#d)" cx="69.098" cy="69.098" r="45.059"/><g fill-rule="evenodd" clip-rule="evenodd" fill="#FFF"><path d="M69.322 99.927h-1.916c-.288-.035-.576-.072-.864-.104-1.42-.158-2.804-.467-4.132-1.002-.979-.395-1.892-.902-2.688-1.604-.856-.758-1.286-1.705-1.286-2.848V58.712c0-.091.001-.183-.001-.273-.018-.989.352-1.812 1.065-2.485.47-.445 1.022-.76 1.612-1.015l14.909-6.446c2.952-1.277 5.908-2.546 8.856-3.835.835-.365 1.672.019 2.038.74.151.3.217.617.217.951l-.001 3.776c0 .057-.018.115-.03.189-.099-.037-.175-.063-.249-.095-.905-.386-1.813-.768-2.714-1.163a.491.491 0 0 0-.436.003c-7.143 3.094-14.286 6.185-21.43 9.276-.063.028-.121.067-.2.112.063.049.102.088.147.113.338.18.667.381 1.018.529 1.724.725 3.527 1.034 5.392.989 1.148-.027 2.269-.215 3.329-.675 6.148-2.663 12.295-5.326 18.441-7.99 1.689-.731 3.379-1.461 5.067-2.197.274-.12.554-.181.851-.146.38.046.679.236.947.5.227.222.206.488.206.762v37.355c0 .092.015.186-.004.273a.916.916 0 0 1-.118.322c-.177.252-.428.414-.71.535-7.694 3.334-15.39 6.666-23.08 10.008-1.171.51-2.373.879-3.644 1.021-.197.022-.395.053-.592.081z"/><path d="M70.088 36.269c.03.018.058.045.09.053.721.174 1.259.875 1.272 1.749.012.729.003 1.459.003 2.189v1.643c0 .054-.004.108-.009.198-.1-.036-.183-.061-.262-.095-.897-.383-1.796-.761-2.688-1.157-.188-.083-.331-.071-.513.008-7.116 3.086-14.234 6.167-21.353 9.25-.072.031-.142.068-.258.125.197.121.353.227.517.316.725.395 1.497.668 2.294.874 1.207.311 2.433.473 3.681.443a9.716 9.716 0 0 0 3.69-.792c7.691-3.343 15.388-6.672 23.081-10.006.286-.124.571-.25.892-.229.495.033.889.254 1.173.661.207.298.318.63.334 1.014-.085.04-.164.08-.245.115l-17.009 7.378c-1.639.711-3.278 1.421-4.918 2.13-.852.368-1.642.834-2.334 1.456-1.429 1.284-2.163 2.886-2.163 4.81-.002 10.874-.001 21.748-.001 32.621v.414c-.341.057-.668.125-.999.164-2.806.328-5.506-.088-8.104-1.188a8.17 8.17 0 0 1-2.173-1.355c-.691-.602-1.15-1.334-1.275-2.258-.013-.096-.061-.188-.092-.281V49.791c.032-.074.08-.146.094-.223.174-.929.687-1.632 1.438-2.182.445-.326.938-.556 1.442-.773 7.209-3.118 14.417-6.24 21.625-9.36l2.277-.981c.165-.003.329-.003.493-.003z"/></g></svg>