<svg xmlns="http://www.w3.org/2000/svg" width="159.691" height="203.711"><linearGradient id="a" gradientUnits="userSpaceOnUse" x1="-367.256" y1="6.719" x2="-212.307" y2="6.719" gradientTransform="matrix(1 0 0 -1 372 132.956)"><stop offset="0" stop-color="#9b4b8d"/><stop offset="1" stop-color="#a14b8a"/></linearGradient><path fill="url(#a)" d="M4.744 126.236c0-42.783 34.688-77.472 77.472-77.472 42.79 0 77.477 34.688 77.477 77.472 0 42.787-34.687 77.475-77.477 77.475-42.785 0-77.472-34.688-77.472-77.475z"/><g fill="#FFF"><path d="M101.29 106.35c.003 10.519-8.532 19.058-19.066 19.063-10.529.008-19.063-8.511-19.082-19.043-.021-10.543 8.528-19.09 19.087-19.082 10.534.01 19.05 8.525 19.061 19.062zm-33.99-.002c0 8.229 6.696 14.897 14.952 14.887 8.189-.008 14.876-6.688 14.873-14.86-.006-8.248-6.696-14.935-14.924-14.912-8.233.015-14.898 6.677-14.901 14.885zm12.527-20.186c0-.119-.012-.248 0-.373.063-.947-.098-1.707-.837-2.496-1.54-1.646-1.192-4.303.55-5.762 1.72-1.438 4.305-1.25 5.782.42 1.515 1.711 1.414 4.297-.271 5.809-.348.316-.479.617-.456 1.059.031.457.006.921.006 1.345-1.605-.002-3.163-.002-4.774-.002zm2.394-3.058a2.38 2.38 0 0 0 2.382-2.368 2.373 2.373 0 0 0-2.368-2.371 2.368 2.368 0 0 0-2.405 2.333v.006a2.376 2.376 0 0 0 2.391 2.4z"/><path d="M93.609 89.588c.602-.596 1.14-1.139 1.689-1.662.404-.377.884-.377 1.284.016a349.558 349.558 0 0 1 3.752 3.755c.392.396.389.879.014 1.278-.515.543-1.047 1.068-1.611 1.646a20.763 20.763 0 0 0-5.128-5.033zm-17.787 4.173c.148.211.316.41.452.629 1.731 2.84 3.469 5.688 5.188 8.535.153.259.313.375.636.369 1.359-.024 2.509.847 2.892 2.142a3.173 3.173 0 0 1-1.333 3.551c-1.115.705-2.582.597-3.554-.272-1.033-.918-1.352-2.42-.706-3.66.218-.418.208-.737.053-1.155-1.214-3.146-2.409-6.308-3.604-9.463-.069-.186-.118-.381-.177-.576.05-.035.104-.066.153-.1z"/></g><linearGradient id="b" gradientUnits="userSpaceOnUse" x1="740.887" y1="1479.498" x2="891.188" y2="1479.498" gradientTransform="matrix(0 1 1 0 -1397.298 -691.383)"><stop offset="0" stop-opacity="0"/><stop offset="1"/></linearGradient><path opacity=".2" fill="url(#b)" d="M157.349 124.656c0-41.504-33.646-75.152-75.147-75.152s-75.15 33.648-75.15 75.152 33.646 75.148 75.149 75.148c41.502.001 75.148-33.644 75.148-75.148zm-138.826 0c0-35.168 28.511-63.681 63.677-63.681 35.171 0 63.678 28.513 63.678 63.681 0 35.168-28.507 63.678-63.678 63.678-35.167 0-63.677-28.51-63.677-63.678z"/><linearGradient id="c" gradientUnits="userSpaceOnUse" x1="-1817.368" y1="1518.059" x2="-1756.117" y2="1518.059" gradientTransform="scale(1 -1) rotate(90 -47.725 1648)"><stop offset="0" stop-color="#fff" stop-opacity="0"/><stop offset="1" stop-color="#fff"/></linearGradient><path opacity=".5" fill="url(#c)" d="M82.215 60.392c-33.823 0-61.25 27.422-61.25 61.25h122.503c0-33.829-27.422-61.25-61.253-61.25z"/><g fill="#333"><path d="M0 6.445A6.441 6.441 0 0 1 6.439 0h.006a6.446 6.446 0 0 1 6.446 6.445 6.448 6.448 0 0 1-6.446 6.444A6.441 6.441 0 0 1 0 6.45v-.005z"/><path d="M83.59 39.205h-2.195V17.307c0-5.453-4.435-9.885-9.887-9.885H6.714V5.225h64.794c6.662 0 12.082 5.42 12.082 12.082v21.898z"/><path d="M82.392 37.965l-5.95-5.952-1.552 1.55 5.95 5.952 1.552 1.55 1.552-1.55 5.953-5.952-1.552-1.55-5.953 5.952z"/></g><path d="M48.178 147.842h-1.371v4.148h-2.886v-12.625h5.05a4.318 4.318 0 0 1 4.329 4.328c0 1.552-.938 2.958-2.327 3.662l2.688 4.635h-3.102l-2.381-4.148zm-1.371-2.525h2.164c.794 0 1.443-.704 1.443-1.624s-.649-1.623-1.443-1.623h-2.164v3.247zm15.604 4.689h-4.689l-.631 1.984h-3.156l4.293-12.625h3.679L66.2 151.99h-3.156l-.633-1.984zm-.865-2.705l-1.479-4.635-1.479 4.635h2.958zm14.938-3.608c0 2.399-1.93 4.329-4.419 4.329h-1.894v3.968h-2.886v-12.625h4.779c2.49 0 4.42 1.93 4.42 4.328zm-2.886 0c0-.92-.649-1.623-1.533-1.623h-1.894v3.247h1.894c.883 0 1.533-.704 1.533-1.624zm7.218-4.328v12.625H77.93v-12.625h2.886zm13.348 6.313c0 3.571-2.651 6.313-6.133 6.313h-5.05v-12.625h5.05c3.482-.001 6.133 2.74 6.133 6.312zm-2.777 0c0-2.164-1.371-3.535-3.355-3.535h-2.164v7.07h2.164c1.984 0 3.355-1.371 3.355-3.535zm7.29-6.313v12.625h-2.886v-12.625h2.886zm10.643 2.778h-3.246v9.848h-2.886v-9.848h-3.246v-2.777h9.378v2.777zm7.307 4.996v4.852h-2.886v-4.852l-4.238-7.773h3.282l2.399 4.869 2.398-4.869h3.282l-4.237 7.773z" fill="#FFF"/></svg>