<svg xmlns="http://www.w3.org/2000/svg" width="404.43" height="226.553" viewBox="0 0 404.43 226.553"><linearGradient id="a" gradientUnits="userSpaceOnUse" x1="28.338" y1="150.908" x2="236.43" y2="150.908" gradientTransform="translate(168 -79.755)"><stop offset="0" stop-color="#4b48bf"/><stop offset="1" stop-color="#a14b8a"/></linearGradient><path fill="url(#a)" d="M196.338 71.152c0 10.269 8.324 18.591 18.59 18.591h170.911c10.271 0 18.591-8.322 18.591-18.591 0-10.269-8.319-18.589-18.591-18.589H214.928c-10.265 0-18.59 8.321-18.59 18.589z"/><linearGradient id="b" gradientUnits="userSpaceOnUse" x1="28.338" y1="203.47" x2="236.43" y2="203.47" gradientTransform="translate(168 -79.755)"><stop offset="0" stop-color="#4b48bf"/><stop offset="1" stop-color="#a14b8a"/></linearGradient><path fill="url(#b)" d="M196.338 123.717c0 10.265 8.324 18.588 18.59 18.588h170.911c10.271 0 18.591-8.323 18.591-18.588 0-10.266-8.319-18.593-18.591-18.593H214.928c-10.265 0-18.59 8.327-18.59 18.593z"/><linearGradient id="c" gradientUnits="userSpaceOnUse" x1="28.338" y1="256.035" x2="236.43" y2="256.035" gradientTransform="translate(168 -79.755)"><stop offset="0" stop-color="#4b48bf"/><stop offset="1" stop-color="#a14b8a"/></linearGradient><path fill="url(#c)" d="M196.338 176.278c0 10.266 8.324 18.591 18.59 18.591h170.911c10.271 0 18.591-8.325 18.591-18.591 0-10.266-8.319-18.587-18.591-18.587H214.928c-10.265 0-18.59 8.321-18.59 18.587z"/><linearGradient id="d" gradientUnits="userSpaceOnUse" x1="28.338" y1="98.345" x2="236.43" y2="98.345" gradientTransform="translate(168 -79.755)"><stop offset="0" stop-color="#4b48bf"/><stop offset="1" stop-color="#a14b8a"/></linearGradient><path fill="url(#d)" d="M196.338 18.589c0 10.266 8.324 18.59 18.59 18.59h170.911c10.271 0 18.591-8.324 18.591-18.59S396.109 0 385.839 0H214.928c-10.265 0-18.59 8.323-18.59 18.589z"/><circle fill="#333" cx="138.609" cy="18.589" r="6.447"/><circle fill="#333" cx="174.808" cy="71.152" r="6.447"/><circle fill="#333" cx="174.808" cy="123.716" r="6.447"/><circle fill="#333" cx="138.609" cy="176.278" r="6.447"/><path fill="none" d="M196.338 18.589h-51.282"/><path fill="#333" d="M145.056 17.489h51.282v2.197h-51.282z"/><path fill="none" d="M196.608 71.152h-15.354"/><path fill="#333" d="M181.254 70.057h15.354v2.195h-15.354z"/><path fill="none" d="M196.608 123.716h-15.354"/><path fill="#333" d="M181.254 122.617h15.354v2.198h-15.354z"/><path fill="none" d="M196.338 176.278h-51.282"/><path fill="#333" d="M145.056 175.18h51.282v2.198h-51.282z"/><linearGradient id="e" gradientUnits="userSpaceOnUse" x1="-165.278" y1="177.744" x2="-10.332" y2="177.744" gradientTransform="translate(168 -79.755)"><stop offset="0" stop-color="#4b48bf"/><stop offset="1" stop-color="#4e48bd"/></linearGradient><circle fill="url(#e)" cx="80.195" cy="97.989" r="77.473"/><path d="M25.388 114.098h-3.164v9.598h-2.813v-9.598h-3.164v-2.707h9.141v2.707zm8.962 6.89v2.707h-7.732V111.39h7.646v2.707H29.43v2.039h4.396v2.672H29.43v2.18h4.92zm.964-3.445c0-3.621 2.688-6.398 6.396-6.398 2.232 0 4.201 1.107 5.273 2.848l-2.428 1.406c-.545-.949-1.6-1.512-2.848-1.512-2.18 0-3.586 1.459-3.586 3.656s1.406 3.656 3.586 3.656c1.248 0 2.32-.563 2.848-1.512l2.428 1.406c-1.057 1.74-3.023 2.848-5.273 2.848-3.707 0-6.396-2.777-6.396-6.398zm22.478-6.152v12.305h-2.813v-4.887h-3.867v4.887h-2.813v-12.305h2.813v4.711h3.867v-4.711h2.813zm11.774 0v12.305h-2.109l-4.746-6.68v6.68h-2.813v-12.305h2.107l4.746 6.68v-6.68h2.815zm1.579 6.152c0-3.621 2.864-6.398 6.397-6.398s6.398 2.777 6.398 6.398-2.865 6.398-6.398 6.398-6.397-2.777-6.397-6.398zm9.983 0c0-2.197-1.582-3.656-3.586-3.656s-3.586 1.459-3.586 3.656 1.582 3.656 3.586 3.656 3.586-1.459 3.586-3.656zm11.598 3.445v2.707H85.52V111.39h2.813v9.598h4.393zm-.003-3.445c0-3.621 2.865-6.398 6.398-6.398s6.398 2.777 6.398 6.398-2.865 6.398-6.398 6.398-6.398-2.777-6.398-6.398zm9.984 0c0-2.197-1.582-3.656-3.586-3.656s-3.586 1.459-3.586 3.656 1.582 3.656 3.586 3.656 3.586-1.459 3.586-3.656zm16.573.352c0 3.762-2.619 6.047-6.064 6.047-3.867 0-6.645-2.848-6.645-6.381 0-3.568 2.83-6.416 6.45-6.416 2.354 0 4.343 1.16 5.38 2.813l-2.393 1.371c-.51-.809-1.617-1.441-3.006-1.441-2.074 0-3.621 1.529-3.621 3.691 0 2.092 1.479 3.621 3.867 3.621 1.635 0 2.707-.721 3.146-1.898h-3.286v-2.461h6.17l.002 1.054zm4.389-6.504v12.305h-2.813v-12.305h2.813zm9.842 9.597v2.707h-7.732V111.39h7.646v2.707h-4.834v2.039h4.396v2.672h-4.396v2.18h4.92zm.964-.088l2.428-1.406c.438 1.02 1.193 1.705 2.584 1.705 1.336 0 1.67-.527 1.67-1.002 0-.756-.703-1.055-2.549-1.564-1.828-.51-3.621-1.389-3.621-3.744 0-2.373 2.004-3.744 4.131-3.744 2.021 0 3.604.967 4.5 2.777l-2.373 1.389c-.422-.879-1.002-1.424-2.127-1.424-.879 0-1.318.439-1.318.932 0 .563.299.949 2.215 1.529 1.863.563 3.955 1.213 3.955 3.814 0 2.373-1.896 3.779-4.568 3.779-2.589 0-4.241-1.23-4.927-3.041z" fill="#FFF"/><g fill="#FFF"><path d="M65.585 56.229c2.619 0 5.241.02 7.86-.012.617-.011.98.199 1.333.698 1.264 1.799 2.599 3.549 3.852 5.356.396.574.795.787 1.503.765 2.403-.071 4.399 1.685 4.658 4 .268 2.466-1.229 4.625-3.619 5.119-1.725.354-3.254-.107-4.436-1.438-1.198-1.351-1.467-2.945-.89-4.639.159-.481.132-.806-.168-1.21a180.453 180.453 0 0 1-2.995-4.149c-.246-.352-.507-.528-.965-.525-3.437.02-6.873.02-10.309-.006-.587-.003-.758.185-.755.763.017 3.904.012 7.812.003 11.715 0 .393.1.713.333 1.028 1.905 2.586 3.807 5.18 5.692 7.776.247.337.511.454.933.449 2.625-.037 4.638 1.785 4.828 4.332.183 2.433-1.657 4.588-4.187 4.91-3.388.427-6.03-3.066-4.746-6.317.202-.51.153-.841-.158-1.266-2.097-2.817-4.153-5.661-6.24-8.484a1.833 1.833 0 0 1-.389-1.157c.016-5.611.021-11.22-.009-16.832-.006-.741.239-.902.929-.894 2.65.038 5.298.017 7.942.018zm14.631 9.301c-1.23-.008-2.229.965-2.229 2.181 0 1.19.957 2.158 2.153 2.182a2.194 2.194 0 0 0 2.26-2.153c.019-1.245-.928-2.203-2.184-2.21zM67.837 88.728c1.216-.011 2.173-.972 2.155-2.161-.014-1.211-1.03-2.215-2.229-2.201-1.203.016-2.132.958-2.132 2.176.003 1.248.962 2.196 2.206 2.186zm26.945 9.348c-2.674.006-5.342-.008-8.013.017-.521.003-.854-.151-1.16-.586-1.364-1.944-2.773-3.855-4.145-5.788-.281-.396-.544-.581-1.085-.552-2.038.117-3.855-1.136-4.541-3.033-.692-1.932-.051-4.093 1.58-5.308 1.599-1.193 3.847-1.214 5.479-.054 1.649 1.176 2.364 3.331 1.658 5.272-.223.618-.146 1.035.233 1.538a137.914 137.914 0 0 1 2.906 4.028c.266.378.55.558 1.033.555 3.409-.017 6.817-.017 10.23 0 .575.005.774-.168.771-.757-.022-3.927-.014-7.857-.008-11.789 0-.362-.097-.664-.313-.957a1116.54 1116.54 0 0 1-5.834-7.95c-.27-.369-.563-.464-.993-.468-2.491-.029-4.447-1.916-4.55-4.359-.1-2.474 1.611-4.561 3.975-4.838 2.548-.302 4.774 1.307 5.204 3.782.159.945.08 1.888-.37 2.75-.216.416-.143.709.122 1.065 2.097 2.818 4.166 5.651 6.266 8.465.296.397.43.79.43 1.288-.011 5.611-.021 11.224.006 16.834.006.698-.219.869-.877.863-2.666-.032-5.334-.018-8.004-.018zm-14.585-9.348c1.224 0 2.218-.989 2.203-2.199a2.194 2.194 0 0 0-2.169-2.164c-1.23-.017-2.226.937-2.238 2.164-.014 1.213.97 2.199 2.204 2.199zm12.48-23.198c-1.236-.008-2.227.955-2.229 2.174a2.184 2.184 0 0 0 2.213 2.189c1.198-.001 2.188-.969 2.194-2.134.006-1.241-.953-2.222-2.178-2.229z"/><path d="M79.146 79.091c-1.608 0-3.219-.026-4.82.013-.566.013-.896-.185-1.216-.638-1.295-1.836-2.647-3.633-3.945-5.472-.373-.531-.746-.774-1.44-.766-2.426.026-4.33-1.817-4.541-4.29-.191-2.303 1.479-4.444 3.792-4.864a4.628 4.628 0 0 1 5.271 3.202c.319 1.058.288 2.106-.165 3.112-.182.418-.146.714.12 1.076a149.897 149.897 0 0 1 2.972 4.166c.29.421.618.551 1.107.549 3.243-.019 6.48.001 9.72-.02.572-.006.945.148 1.29.632 1.301 1.836 2.664 3.627 3.971 5.46.35.487.688.698 1.327.678 2.438-.068 4.492 1.808 4.669 4.165.193 2.585-1.441 4.652-3.983 5.042-2.36.356-4.624-1.207-5.141-3.584-.192-.911-.171-1.831.216-2.693.199-.447.125-.769-.157-1.145a135.887 135.887 0 0 1-2.962-4.083c-.294-.413-.614-.558-1.112-.552-1.66.028-3.316.012-4.973.012zm13.515 9.637c1.204-.005 2.209-.989 2.194-2.151-.016-1.221-1.021-2.223-2.229-2.212a2.19 2.19 0 0 0-2.181 2.161 2.19 2.19 0 0 0 2.216 2.202zM67.809 69.893c1.221-.001 2.183-.938 2.186-2.137.003-1.238-.968-2.226-2.188-2.226-1.242 0-2.188.965-2.172 2.215a2.142 2.142 0 0 0 2.174 2.148z"/></g><path d="M243.24 177.724h-1.002v3.032h-2.109v-9.229h3.691a3.157 3.157 0 0 1 3.164 3.164c0 1.134-.688 2.162-1.7 2.677l1.964 3.388h-2.268l-1.74-3.032zm-1.002-1.846h1.582c.58 0 1.055-.514 1.055-1.187 0-.672-.475-1.187-1.055-1.187h-1.582v2.374zm11.797 2.848v2.03h-5.801v-9.229h5.733v2.03h-3.626v1.529h3.296v2.004h-3.296v1.635l3.694.001zm.526-7.199h2.216l1.595 6.46 1.78-6.46h1.714l1.777 6.46 1.598-6.46h2.215l-2.545 9.229h-2.398l-1.504-5.444-1.502 5.444h-2.398l-2.548-9.229zm18.688 7.779h-3.428l-.462 1.45h-2.309l3.14-9.229h2.688l3.139 9.229h-2.308l-.46-1.45zm-.632-1.978l-1.081-3.388-1.081 3.388h2.162zm7.3.396h-1.002v3.032h-2.109v-9.229h3.691a3.157 3.157 0 0 1 3.164 3.164c0 1.134-.688 2.162-1.7 2.677l1.964 3.388h-2.268l-1.74-3.032zm-1.002-1.846h1.582c.58 0 1.055-.514 1.055-1.187 0-.672-.475-1.187-1.055-1.187h-1.582v2.374zm14.17.264c0 2.61-1.938 4.614-4.481 4.614h-3.69v-9.229h3.69c2.543 0 4.481 2.004 4.481 4.615zm-2.03 0c0-1.582-1.002-2.584-2.45-2.584h-1.582v5.168h1.582c1.448 0 2.45-1.002 2.45-2.584zm6.047 2.518l1.82-1.055c.329.765.896 1.278 1.938 1.278 1.002 0 1.252-.396 1.252-.751 0-.567-.527-.791-1.911-1.174-1.371-.382-2.716-1.041-2.716-2.808 0-1.78 1.503-2.809 3.098-2.809 1.517 0 2.703.726 3.375 2.083l-1.779 1.042c-.314-.659-.752-1.068-1.596-1.068-.658 0-.988.33-.988.699 0 .422.227.712 1.661 1.146 1.397.422 2.966.91 2.966 2.861 0 1.779-1.424 2.834-3.428 2.834-1.938.002-3.177-.92-3.692-2.278zm12.193-1.45v3.546h-2.109v-3.546l-3.099-5.683h2.399l1.754 3.56 1.753-3.56h2.397l-3.095 5.683zm2.899 1.45l1.816-1.055c.33.765.896 1.278 1.938 1.278 1.002 0 1.253-.396 1.253-.751 0-.567-.527-.791-1.912-1.174-1.371-.382-2.716-1.041-2.716-2.808 0-1.78 1.503-2.809 3.099-2.809 1.518 0 2.702.726 3.375 2.083l-1.78 1.042c-.314-.659-.751-1.068-1.595-1.068-.66 0-.989.33-.989.699 0 .422.226.712 1.661 1.146 1.397.422 2.968.91 2.968 2.861 0 1.779-1.425 2.834-3.429 2.834-1.936.002-3.176-.92-3.689-2.278zm14.037-5.102h-2.373v7.198h-2.109v-7.198h-2.373v-2.03h6.855v2.03zm6.722 5.168v2.03h-5.801v-9.229h5.733v2.03h-3.626v1.529h3.296v2.004h-3.296v1.635l3.694.001zm10.413 2.03h-2.109v-5.365l-2.387 3.915h-.236l-2.387-3.915v5.365h-2.109v-9.229h2.109l2.505 4.101 2.505-4.101h2.109v9.229z" fill="#FFF"/><g fill="#FFF"><path d="M246.984 72.132c0 1.635-1.331 2.702-2.979 2.702h-3.876v-9.229h3.612c1.606 0 2.914 1.042 2.914 2.637 0 .765-.306 1.371-.807 1.807.688.434 1.136 1.146 1.136 2.083zm-4.746-4.549v1.635h1.503c.475 0 .805-.343.805-.817s-.314-.817-.805-.817l-1.503-.001zm2.636 4.391c0-.515-.343-.884-.87-.884h-1.767v1.767h1.767c.528-.001.87-.37.87-.883zm8.567.83v2.03h-5.405v-9.229h2.107v7.198h3.298v.001zm-.001-2.584c0-2.716 2.146-4.799 4.799-4.799 2.649 0 4.799 2.083 4.799 4.799s-2.148 4.799-4.799 4.799c-2.651 0-4.799-2.083-4.799-4.799zm7.488 0c0-1.646-1.187-2.742-2.688-2.742s-2.689 1.095-2.689 2.742c0 1.648 1.188 2.742 2.689 2.742s2.688-1.094 2.688-2.742zm2.897 0c0-2.716 2.018-4.799 4.799-4.799 1.674 0 3.15.831 3.955 2.136l-1.819 1.055c-.408-.712-1.198-1.134-2.136-1.134-1.635 0-2.688 1.095-2.688 2.742 0 1.648 1.055 2.742 2.688 2.742.938 0 1.74-.422 2.136-1.134l1.819 1.055c-.791 1.306-2.269 2.136-3.955 2.136-2.782 0-4.799-2.083-4.799-4.799zm14.802 4.614l-2.953-4.271v4.271h-2.107v-9.229h2.107v4.008l2.821-4.008h2.397l-3.109 4.496 3.243 4.732-2.399.001z"/><path d="M280.628 70.22c0-2.716 2.019-4.799 4.799-4.799 1.675 0 3.151.831 3.955 2.136l-1.817 1.055c-.408-.712-1.199-1.134-2.138-1.134-1.635 0-2.688 1.095-2.688 2.742 0 1.648 1.055 2.742 2.688 2.742.938 0 1.74-.422 2.138-1.134l1.817 1.055c-.791 1.306-2.268 2.136-3.955 2.136-2.782 0-4.799-2.083-4.799-4.799zm16.86-4.615v9.229h-2.109v-3.665h-2.9v3.665h-2.107v-9.229h2.107v3.533h2.9v-3.533h2.109zm6.984 7.779h-3.428l-.462 1.45h-2.307l3.138-9.229h2.689l3.138 9.229h-2.307l-.461-1.45zm-.633-1.978l-1.081-3.388-1.081 3.388h2.162zm6.299-5.801v9.229h-2.107v-9.229h2.107zm8.832 0v9.229h-1.582l-3.56-5.01v5.01h-2.109v-9.229h1.582l3.562 5.01v-5.01h2.107z"/></g><g fill="#FFF"><path d="M249.355 21.684h-2.109v-5.365l-2.386 3.915h-.238l-2.386-3.915v5.365h-2.109v-9.229h2.109l2.505 4.101 2.505-4.101h2.109v9.229zm.854-2.98v-6.249h2.109v6.064c0 .699.329 1.292 1.447 1.292 1.121 0 1.451-.593 1.451-1.292v-6.064h2.109v6.249c0 1.978-1.529 3.164-3.563 3.164-2.023 0-3.553-1.186-3.553-3.164zm13.378.949v2.03h-5.405v-9.229h2.109v7.198l3.296.001zm5.537-5.168h-2.373v7.198h-2.109v-7.198h-2.372v-2.03h6.854v2.03zm2.37-2.03v9.229h-2.109v-9.229h2.109zm8.963 7.198v2.03h-5.405v-9.229h2.109v7.198l3.296.001zm6.063 0v2.03h-5.801v-9.229h5.734v2.03h-3.625v1.529h3.296v2.004h-3.296v1.635l3.692.001z"/><path d="M286.254 12.455h2.307l2.046 6.79 2.044-6.79h2.307l-3.006 9.229h-2.689l-3.009-9.229zm14.631 7.198v2.03h-5.801v-9.229h5.734v2.03h-3.625v1.529h3.296v2.004h-3.296v1.635l3.692.001zm5.931 0v2.03h-5.405v-9.229h2.107v7.198l3.298.001zm2.106-7.198h2.309l2.044 6.79 2.044-6.79h2.307l-3.006 9.229h-2.689l-3.009-9.229zm14.632 7.198v2.03h-5.801v-9.229h5.735v2.03h-3.626v1.529h3.296v2.004h-3.296v1.635l3.692.001zm3.636-1.002h-1.003v3.032h-2.108v-9.229h3.69a3.155 3.155 0 0 1 3.163 3.164c0 1.134-.686 2.162-1.699 2.677l1.965 3.388h-2.27l-1.738-3.032zm-1.002-1.845h1.581c.579 0 1.056-.514 1.056-1.187 0-.672-.477-1.187-1.056-1.187h-1.581v2.374zm7.446-4.351v9.229h-2.107v-9.229h2.107zm3.031 2.03v1.78h3.428v2.03h-3.428v3.388h-2.109v-9.229h5.604v2.03l-3.495.001zm6.195-2.03v9.229h-2.109v-9.229h2.109zm.526 4.614c0-2.716 2.019-4.799 4.8-4.799 1.676 0 3.15.831 3.954 2.136l-1.817 1.055c-.408-.712-1.199-1.134-2.137-1.134-1.636 0-2.688 1.095-2.688 2.742 0 1.648 1.055 2.742 2.688 2.742.938 0 1.739-.422 2.137-1.134l1.817 1.055c-.791 1.306-2.268 2.136-3.954 2.136-2.783 0-4.8-2.083-4.8-4.799zm14.487 3.164h-3.428l-.462 1.45h-2.309l3.14-9.229h2.688l3.138 9.229h-2.307l-.46-1.45zm-.633-1.977l-1.081-3.388-1.081 3.388h2.162zm9.068-3.771h-2.372v7.198h-2.108v-7.198h-2.373v-2.03h6.854v2.03zm2.371-2.03v9.229h-2.107v-9.229h2.107zm.527 4.614c0-2.716 2.148-4.799 4.799-4.799 2.651 0 4.799 2.083 4.799 4.799s-2.146 4.799-4.799 4.799c-2.651 0-4.799-2.083-4.799-4.799zm7.488 0c0-1.647-1.188-2.742-2.689-2.742s-2.688 1.095-2.688 2.742c0 1.648 1.187 2.742 2.688 2.742s2.689-1.093 2.689-2.742zm9.884-4.614v9.229h-1.582l-3.561-5.01v5.01h-2.108v-9.229h1.582l3.56 5.01v-5.01h2.109z"/></g><path d="M248.302 122.533c0 2.61-1.938 4.614-4.48 4.614h-3.691v-9.229h3.691c2.542.001 4.48 2.005 4.48 4.615zm-2.03 0c0-1.582-1.003-2.584-2.452-2.584h-1.582v5.168h1.582c1.45 0 2.452-1.002 2.452-2.584zm9.015 2.584v2.03h-5.801v-9.229h5.733v2.03h-3.626v1.529h3.296v2.004h-3.296v1.635l3.694.001zm.722-2.584c0-2.716 2.019-4.799 4.799-4.799 1.677 0 3.151.831 3.955 2.136l-1.817 1.055c-.408-.712-1.199-1.134-2.137-1.134-1.636 0-2.688 1.095-2.688 2.742 0 1.648 1.055 2.742 2.688 2.742.938 0 1.739-.422 2.137-1.134l1.817 1.055c-.791 1.306-2.268 2.136-3.955 2.136-2.782 0-4.799-2.083-4.799-4.799zm15.541 2.584v2.03h-5.801v-9.229h5.735v2.03h-3.626v1.529h3.296v2.004h-3.296v1.635l3.692.001zm8.436-7.198v9.229h-1.582l-3.562-5.01v5.01h-2.107v-9.229h1.582l3.56 5.01v-5.01h2.109zm7.775 2.03h-2.373v7.198h-2.107v-7.198h-2.373v-2.03h6.854v2.03h-.001zm4.031 4.166h-1.002v3.032h-2.109v-9.229h3.691a3.157 3.157 0 0 1 3.164 3.164c0 1.134-.688 2.162-1.7 2.677l1.964 3.388h-2.268l-1.74-3.032zm-1.002-1.845h1.582c.58 0 1.055-.514 1.055-1.187 0-.672-.475-1.187-1.055-1.187h-1.582v2.374zm11.402 3.427h-3.43l-.461 1.45h-2.308l3.138-9.229h2.689l3.138 9.229h-2.308l-.458-1.45zm-.633-1.977l-1.08-3.388-1.08 3.388h2.16zm9.595 1.397v2.03h-5.405v-9.229h2.109v7.198l3.296.001zm3.03-7.198v9.229h-2.107v-9.229h2.107zm7.58 7.198v2.03h-6.328v-1.635l3.533-5.563h-3.468v-2.03h6.196v1.635l-3.533 5.563h3.6zm6.59.58h-3.43l-.462 1.45h-2.307l3.138-9.229h2.689l3.138 9.229h-2.307l-.459-1.45zm-.634-1.977l-1.081-3.388-1.081 3.388h2.162zm9.727-3.771h-2.373v7.198h-2.109v-7.198h-2.373v-2.03h6.855v2.03zm3.03-2.03v9.229h-2.107v-9.229h2.107zm1.186 4.614c0-2.716 2.146-4.799 4.799-4.799s4.799 2.083 4.799 4.799-2.146 4.799-4.799 4.799-4.799-2.083-4.799-4.799zm7.488 0c0-1.647-1.188-2.742-2.689-2.742s-2.688 1.095-2.688 2.742c0 1.648 1.187 2.742 2.688 2.742s2.689-1.093 2.689-2.742zm10.543-4.614v9.229h-1.582l-3.562-5.01v5.01h-2.107v-9.229h1.582l3.56 5.01v-5.01h2.109z" fill="#FFF"/><path opacity=".25" d="M201.614 17.736c0 7.811 6.331 14.14 14.144 14.14 7.808 0 14.139-6.329 14.139-14.14 0-7.809-6.331-14.139-14.139-14.139-7.813 0-14.144 6.33-14.144 14.139zm0 52.599c0 7.812 6.331 14.141 14.144 14.141 7.808 0 14.139-6.329 14.139-14.141 0-7.809-6.331-14.138-14.139-14.138-7.813 0-14.144 6.329-14.144 14.138zm0 52.564c0 7.812 6.331 14.141 14.144 14.141 7.808 0 14.139-6.329 14.139-14.141 0-7.809-6.331-14.141-14.139-14.141-7.813 0-14.144 6.332-14.144 14.141zm0 52.565c0 7.809 6.331 14.138 14.144 14.138 7.808 0 14.139-6.329 14.139-14.138 0-7.812-6.331-14.14-14.139-14.14-7.813 0-14.144 6.328-14.144 14.14z"/><path fill="#FFF" d="M220.979 183.991c-.979.544-2.638 1.088-4.469 1.088-2.804 0-5.378-1.147-6.979-3.266-.774-.971-1.349-2.204-1.604-3.718h-1.857v-2.033h1.572v-.484c0-.285.025-.572.025-.86h-1.6v-2.033h1.919c.37-1.543 1.056-2.861 1.973-3.917 1.632-1.833 3.918-2.918 6.608-2.918 1.748 0 3.265.398 4.293.857l-.8 3.263c-.743-.316-1.916-.689-3.18-.689-1.372 0-2.631.461-3.519 1.546-.401.458-.718 1.119-.914 1.859h7.123v2.033h-7.553c-.031.288-.031.601-.031.888v.456h7.584v2.033h-7.184c.201.86.516 1.515.944 2.004.916 1.031 2.26 1.458 3.692 1.458 1.313 0 2.655-.427 3.26-.743l.697 3.176zm5.554-171.147l-3.347-3.349-9.857 9.849-5.253-5.256-3.351 3.348 5.256 5.26-.006.007 3.354 3.348v-.006l.008.006 3.351-3.348-.006-.007zm-12.165 59.615c1.057-.809 2.081-1.633 3.151-2.4.482-.345.732-.638.521-1.29-.134-.41.025-.907.04-1.366.005-.111-.003-.276-.077-.331-1.372-1.067-2.753-2.124-4.131-3.183-.814.546-1.663.658-2.548.245a2.43 2.43 0 0 1-1.224-3.058c.447-1.185 1.748-1.825 2.974-1.469 1.199.346 1.95 1.604 1.688 2.828-.029.152-.063.273.099.393 1.35 1.026 2.694 2.063 4.063 3.11.798-.743 1.74-1.059 2.819-.903.778.12 1.438.493 1.952 1.093a3.267 3.267 0 0 1-.022 4.283c-.98 1.116-2.938 1.642-4.632.288-1.253.959-2.509 1.926-3.781 2.897.621 1.258.703 2.534.16 3.821a4.229 4.229 0 0 1-2.093 2.2 4.374 4.374 0 1 1-4.942-7.095c1.501-1.434 4.049-1.734 5.983-.063zm1.376 56.285l-6.071-6.07 6.07-6.071 6.071 6.07zm.013-17.036l-3.881 3.88h7.761zm0 21.921l3.88-3.882h-7.761zm7.077-14.841v7.763l3.883-3.883zm-14.155 7.763v-7.763l-3.883 3.88z"/><path fill="#333" d="M138.607 17.336v2.696c23.679 17.568 39.058 45.721 39.058 77.403 0 31.681-15.379 59.832-39.058 77.399v2.696c24.949-17.896 41.256-47.119 41.256-80.096s-16.305-62.202-41.256-80.098z"/><linearGradient id="f" gradientUnits="userSpaceOnUse" x1="741.752" y1="-590.567" x2="892.053" y2="-590.567" gradientTransform="rotate(90 105.43 -615.805)"><stop offset="0" stop-opacity="0"/><stop offset="1"/></linearGradient><path opacity=".2" fill="url(#f)" d="M155.341 95.669c0-41.504-33.646-75.152-75.146-75.152-41.508 0-75.151 33.648-75.151 75.152 0 41.503 33.646 75.149 75.151 75.149 41.499 0 75.146-33.646 75.146-75.149zm-138.824 0c0-35.17 28.51-63.679 63.679-63.679 35.171 0 63.678 28.509 63.678 63.679 0 35.167-28.507 63.677-63.678 63.677-35.171 0-63.679-28.51-63.679-63.677z"/><linearGradient id="g" gradientUnits="userSpaceOnUse" x1="-911.138" y1="-1133.196" x2="-849.887" y2="-1133.196" gradientTransform="rotate(-90 197.951 -1015.465)"><stop offset="0" stop-color="#fff" stop-opacity="0"/><stop offset="1" stop-color="#fff"/></linearGradient><path opacity=".5" fill="url(#g)" d="M80.219 32.373c-33.823 0-61.25 27.423-61.25 61.251h122.502c0-33.829-27.422-61.251-61.252-61.251z"/><g fill="#333"><circle cx="78.479" cy="191.031" r="6.446"/><path d="M2.702 220.089h64.795c6.661 0 12.082-5.417 12.082-12.078v-23.356h-2.198v23.356c0 5.449-4.436 9.885-9.884 9.885H2.702v2.193z"/><path d="M3.104 219.05l5.949 5.951-1.552 1.552-5.95-5.951L0 219.05l1.551-1.552 5.95-5.952 1.552 1.552z"/></g></svg>