<svg xmlns="http://www.w3.org/2000/svg" width="159.692" height="203.711" viewBox="0 0 159.692 203.711"><linearGradient id="a" gradientUnits="userSpaceOnUse" x1="-163.256" y1="205.992" x2="-8.308" y2="205.992" gradientTransform="translate(168 -79.755)"><stop offset="0" stop-color="#9b4b8d"/><stop offset="1" stop-color="#a14b8a"/></linearGradient><path fill="url(#a)" d="M4.744 126.236c0-42.783 34.688-77.472 77.472-77.472 42.79 0 77.477 34.688 77.477 77.472 0 42.788-34.687 77.475-77.477 77.475-42.785 0-77.472-34.687-77.472-77.475z"/><path d="M56.822 149.149l2.426-1.403c.439 1.02 1.195 1.705 2.584 1.705 1.336 0 1.67-.527 1.67-1.002 0-.759-.703-1.058-2.549-1.564-1.828-.51-3.621-1.389-3.621-3.744 0-2.373 2.004-3.744 4.131-3.744 2.021 0 3.604.968 4.5 2.777l-2.373 1.389c-.422-.879-1.002-1.424-2.127-1.424-.879 0-1.316.439-1.316.933 0 .563.299.948 2.215 1.528 1.861.563 3.955 1.213 3.955 3.814 0 2.373-1.898 3.776-4.57 3.776-2.587 0-4.24-1.229-4.925-3.041zm19.772-5.291c0 2.341-1.881 4.222-4.307 4.222h-1.846v3.867h-2.813V139.64h4.658c2.427 0 4.308 1.881 4.308 4.218zm-2.812 0c0-.895-.633-1.581-1.494-1.581h-1.846v3.163h1.846c.861 0 1.494-.684 1.494-1.582zm11.949 5.38v2.707h-7.734V139.64h7.646v2.707H80.81v2.039h4.395v2.672H80.81v2.181h4.921zm9.313 0v2.707h-7.732V139.64h7.646v2.707h-4.834v2.039h4.396v2.672h-4.396v2.181h4.92zm12.478-3.445c0 3.479-2.584 6.152-5.979 6.152h-4.922V139.64h4.922c3.395 0 5.979 2.672 5.979 6.153zm-2.707 0c0-2.109-1.336-3.445-3.271-3.445h-2.107v6.894h2.107c1.935-.004 3.271-1.34 3.271-3.449z" fill="#FFF"/><g fill="#FFF"><path d="M101.29 106.349c.003 10.519-8.532 19.058-19.066 19.064-10.529.008-19.063-8.511-19.082-19.043-.021-10.543 8.528-19.09 19.087-19.082 10.534.01 19.05 8.525 19.061 19.061zm-33.99-.002c0 8.23 6.696 14.898 14.952 14.887 8.19-.008 14.876-6.688 14.873-14.86-.006-8.248-6.696-14.935-14.924-14.912-8.233.016-14.898 6.678-14.901 14.885zm12.527-20.185c0-.119-.011-.248 0-.373.064-.947-.097-1.707-.837-2.496-1.54-1.646-1.192-4.303.55-5.762 1.72-1.437 4.305-1.25 5.782.42 1.515 1.711 1.415 4.297-.271 5.809-.348.316-.479.617-.456 1.059.031.457.006.921.006 1.345-1.605-.002-3.163-.002-4.774-.002zm2.394-3.058a2.38 2.38 0 0 0 2.382-2.368 2.373 2.373 0 0 0-2.368-2.371 2.37 2.37 0 0 0-2.406 2.34 2.377 2.377 0 0 0 2.392 2.399z"/><path d="M93.609 89.588c.601-.596 1.139-1.139 1.689-1.662.404-.377.884-.377 1.284.016a349.573 349.573 0 0 1 3.752 3.755c.392.396.389.879.014 1.278-.515.543-1.047 1.068-1.611 1.646a20.762 20.762 0 0 0-5.128-5.033zm-17.787 4.173c.148.211.316.41.452.629 1.731 2.84 3.468 5.688 5.188 8.535.153.258.313.375.636.369 1.359-.025 2.509.846 2.891 2.141a3.172 3.172 0 0 1-1.333 3.551c-1.115.705-2.582.597-3.553-.272-1.033-.918-1.352-2.42-.706-3.66.217-.418.208-.738.052-1.156-1.213-3.146-2.409-6.307-3.604-9.463-.069-.186-.118-.381-.177-.576.051-.033.105-.064.154-.098z"/></g><linearGradient id="b" gradientUnits="userSpaceOnUse" x1="1056.896" y1="-747.488" x2="1207.198" y2="-747.488" gradientTransform="rotate(90 171.052 -836.34)"><stop offset="0" stop-opacity="0"/><stop offset="1"/></linearGradient><path opacity=".2" fill="url(#b)" d="M157.349 124.656c0-41.504-33.646-75.152-75.148-75.152s-75.15 33.648-75.15 75.152 33.646 75.149 75.149 75.149 75.149-33.645 75.149-75.149zm-138.826 0c0-35.168 28.51-63.681 63.676-63.681 35.171 0 63.678 28.513 63.678 63.681s-28.507 63.678-63.678 63.678c-35.166 0-63.676-28.51-63.676-63.678z"/><linearGradient id="c" gradientUnits="userSpaceOnUse" x1="-1094.068" y1="-1417.357" x2="-1032.818" y2="-1417.357" gradientTransform="rotate(-90 263.573 -1236)"><stop offset="0" stop-color="#fff" stop-opacity="0"/><stop offset="1" stop-color="#fff"/></linearGradient><path opacity=".5" fill="url(#c)" d="M82.215 60.392c-33.823 0-61.25 27.422-61.25 61.25h122.503c0-33.829-27.422-61.25-61.253-61.25z"/><g fill="#333"><path d="M0 6.445A6.442 6.442 0 0 1 6.445 0a6.447 6.447 0 0 1 6.446 6.445 6.448 6.448 0 0 1-6.446 6.444A6.442 6.442 0 0 1 0 6.445z"/><path d="M83.59 39.205h-2.195V17.307c0-5.453-4.435-9.885-9.887-9.885H6.714V5.225h64.794c6.662 0 12.082 5.42 12.082 12.082v21.898z"/><path d="M82.392 37.965l-5.95-5.952-1.552 1.55 5.95 5.952 1.552 1.55 1.552-1.55 5.953-5.952-1.552-1.55z"/></g></svg>