<svg xmlns="http://www.w3.org/2000/svg" width="403.981" height="226.271"><linearGradient id="a" gradientUnits="userSpaceOnUse" x1="79.836" y1="177.462" x2="234.782" y2="177.462" gradientTransform="translate(168 -79.755)"><stop offset="0" stop-color="#4b48bf"/><stop offset="1" stop-color="#4e48bd"/></linearGradient><circle fill="url(#a)" cx="325.309" cy="97.707" r="77.473"/><path d="M274.021 117.261c0-3.621 2.689-6.398 6.398-6.398 2.232 0 4.201 1.107 5.273 2.848l-2.426 1.406c-.545-.949-1.6-1.512-2.848-1.512-2.18 0-3.586 1.459-3.586 3.656s1.406 3.656 3.586 3.656c1.248 0 2.32-.563 2.848-1.512l2.426 1.406c-1.055 1.74-3.023 2.848-5.273 2.848-3.708 0-6.398-2.777-6.398-6.398zm12.284 0c0-3.621 2.865-6.398 6.398-6.398 3.533 0 6.398 2.777 6.398 6.398s-2.865 6.398-6.398 6.398c-3.533 0-6.398-2.777-6.398-6.398zm9.984 0c0-2.197-1.582-3.656-3.586-3.656s-3.586 1.459-3.586 3.656 1.582 3.656 3.586 3.656 3.586-1.459 3.586-3.656zm16.695 6.152h-2.813v-7.154l-3.182 5.221h-.316l-3.182-5.221v7.154h-2.813v-12.305h2.813l3.34 5.467 3.34-5.467h2.813v12.305zm14.41 0h-2.813v-7.154l-3.182 5.221h-.316l-3.182-5.221v7.154h-2.813v-12.305h2.813l3.34 5.467 3.34-5.467h2.813v12.305zm2.017-3.972v-8.332h2.813v8.086c0 .932.439 1.723 1.934 1.723 1.495 0 1.934-.791 1.934-1.723v-8.086h2.813v8.332c0 2.637-2.039 4.219-4.746 4.219s-4.748-1.583-4.748-4.219zm21.177-8.332v12.305h-2.109l-4.746-6.68v6.68h-2.813v-12.305h2.109l4.746 6.68v-6.68h2.813zm4.919 0v12.305h-2.813v-12.305h2.813zm10.369 2.707h-3.164v9.598h-2.813v-9.598h-3.164v-2.707h9.141v2.707zm7.116 4.869v4.729h-2.813v-4.729l-4.131-7.576h3.199l2.338 4.746 2.338-4.746h3.199l-4.13 7.576zm-56.425-21.554v-.575c0-4.664-.017-9.324.003-13.984.02-4.248 2.673-7.519 6.768-8.39 3.47-.742 7.276 1.063 8.939 4.222.697 1.325.991 2.728.982 4.228-.025 4.618-.008 9.233-.003 13.848v.652l-16.689-.001zm16.988-19.102c1.44-.474 2.758-.336 4.017.269 2.024.971 3.197 2.614 3.263 4.84.103 3.462.034 6.928.034 10.389 0 .088-.034.177-.063.302h-6.184V93.1c0-2.988-.031-5.976.011-8.965.027-2.092-.016-4.154-1.078-6.106zm-24.569 15.796c-.012-.216-.034-.393-.034-.569-.003-3.211.003-6.423-.003-9.634-.014-2.984 2.01-5.335 4.86-5.785.777-.125 1.591 0 2.44.01-.313 1.025-.635 1.86-.82 2.729-.154.72-.202 1.478-.205 2.218-.02 3.436-.011 6.875-.011 10.312v.72l-6.227-.001zm21.249-26.507c-.014 2.904-2.434 5.277-5.361 5.252-2.927-.02-5.264-2.408-5.244-5.355.023-2.947 2.426-5.342 5.315-5.301a5.341 5.341 0 0 1 5.29 5.404zm-22.627 23.689h-4.046c-.011-.193-.037-.387-.037-.583a705.889 705.889 0 0 1-.003-6.508c.008-2.42 1.731-4.146 4.139-4.146.273 0 .547.126.92.216-.794 1.362-.994 2.766-.982 4.224.023 2.01.009 4.024.009 6.035v.762zm34.621.003v-6.426c0-2.442 0-2.442-.894-4.583 1.455-.695 4.026.202 4.771 2.481.125.379.185.799.191 1.194.017 2.306.011 4.609.009 6.914 0 .132-.029.26-.051.42h-4.026zm-23.942-18.277a3.581 3.581 0 0 1-3.567 3.588c-1.979.016-3.621-1.636-3.607-3.634.011-1.947 1.66-3.562 3.622-3.54a3.551 3.551 0 0 1 3.552 3.586zm13.278.082c-.054-2.019 1.509-3.633 3.547-3.668 1.961-.036 3.582 1.539 3.641 3.529.051 1.924-1.549 3.577-3.542 3.648-1.938.07-3.595-1.526-3.646-3.509zm10.778.733a2.405 2.405 0 0 1 2.42 2.407 2.42 2.42 0 0 1-2.434 2.408c-1.301-.019-2.377-1.09-2.394-2.383-.017-1.317 1.076-2.422 2.408-2.432zm-37.229 2.424c-.008-1.357 1.039-2.42 2.389-2.424a2.36 2.36 0 0 1 2.38 2.35c.017 1.368-1.005 2.443-2.343 2.465a2.382 2.382 0 0 1-2.426-2.391z" fill="#FFF"/><linearGradient id="b" gradientUnits="userSpaceOnUse" x1="-168" y1="150.908" x2="40.092" y2="150.908" gradientTransform="translate(168 -79.755)"><stop offset="0" stop-color="#a14b8a"/><stop offset="1" stop-color="#4b48bf"/></linearGradient><path fill="url(#b)" d="M208.092 71.153c0 10.269-8.324 18.589-18.587 18.589H18.591C8.325 89.741 0 81.421 0 71.153c0-10.269 8.325-18.589 18.591-18.589h170.914c10.263-.001 18.587 8.32 18.587 18.589z"/><linearGradient id="c" gradientUnits="userSpaceOnUse" x1="-168" y1="203.47" x2="40.092" y2="203.47" gradientTransform="translate(168 -79.755)"><stop offset="0" stop-color="#a14b8a"/><stop offset="1" stop-color="#4b48bf"/></linearGradient><path fill="url(#c)" d="M208.092 123.718c0 10.265-8.324 18.588-18.587 18.588H18.591C8.325 142.306 0 133.983 0 123.718c0-10.266 8.325-18.593 18.591-18.593h170.914c10.263 0 18.587 8.327 18.587 18.593z"/><linearGradient id="d" gradientUnits="userSpaceOnUse" x1="-168" y1="256.034" x2="40.092" y2="256.034" gradientTransform="translate(168 -79.755)"><stop offset="0" stop-color="#a14b8a"/><stop offset="1" stop-color="#4b48bf"/></linearGradient><path fill="url(#d)" d="M208.092 176.279c0 10.266-8.324 18.59-18.587 18.59H18.591C8.325 194.869 0 186.545 0 176.279c0-10.267 8.325-18.59 18.591-18.59h170.914c10.263 0 18.587 8.323 18.587 18.59z"/><linearGradient id="e" gradientUnits="userSpaceOnUse" x1="-168" y1="98.345" x2="40.092" y2="98.345" gradientTransform="translate(168 -79.755)"><stop offset="0" stop-color="#a14b8a"/><stop offset="1" stop-color="#4b48bf"/></linearGradient><path fill="url(#e)" d="M208.092 18.589c0 10.266-8.324 18.591-18.587 18.591H18.591C8.325 37.18 0 28.855 0 18.589 0 8.323 8.325 0 18.591 0h170.914c10.263 0 18.587 8.323 18.587 18.589z"/><path d="M105.694 176.957c0-2.716 2.149-4.799 4.799-4.799 2.65 0 4.799 2.083 4.799 4.799s-2.149 4.799-4.799 4.799c-2.65 0-4.799-2.083-4.799-4.799zm7.489 0c0-1.647-1.187-2.742-2.689-2.742s-2.689 1.095-2.689 2.742c0 1.648 1.187 2.742 2.689 2.742s2.689-1.093 2.689-2.742zm5.401-2.584v1.78h3.428v2.03h-3.428v3.388h-2.109v-9.229h5.603v2.03l-3.494.001zm6.854 0v1.78h3.428v2.03h-3.428v3.388h-2.109v-9.229h5.603v2.03l-3.494.001zm6.853-2.03v9.229h-2.109v-9.229h2.109zm1.185 4.614c0-2.716 2.017-4.799 4.799-4.799 1.674 0 3.151.831 3.955 2.136l-1.819 1.055c-.409-.712-1.2-1.134-2.136-1.134-1.635 0-2.689 1.095-2.689 2.742 0 1.648 1.055 2.742 2.689 2.742.936 0 1.74-.422 2.136-1.134l1.819 1.055c-.791 1.306-2.268 2.136-3.955 2.136-2.782 0-4.799-2.083-4.799-4.799zm15.541 2.584v2.03h-5.801v-9.229h5.735v2.03h-3.625v1.529h3.296v2.004h-3.296v1.635h3.691v.001zm4.296-1.002h-1.002v3.032h-2.109v-9.229h3.691a3.157 3.157 0 0 1 3.164 3.164c0 1.134-.686 2.162-1.701 2.677l1.964 3.388h-2.268l-1.739-3.032zm-1.002-1.845h1.582c.58 0 1.055-.514 1.055-1.187 0-.672-.475-1.187-1.055-1.187h-1.582v2.374zm5.402 2.782l1.819-1.055c.33.765.896 1.278 1.938 1.278 1.002 0 1.252-.396 1.252-.751 0-.567-.527-.791-1.912-1.174-1.371-.382-2.716-1.041-2.716-2.808 0-1.78 1.503-2.809 3.098-2.809 1.516 0 2.703.726 3.375 2.083l-1.78 1.042c-.316-.659-.751-1.068-1.595-1.068-.659 0-.989.33-.989.699 0 .422.224.712 1.661 1.146 1.397.422 2.966.91 2.966 2.861 0 1.779-1.424 2.834-3.428 2.834-1.935.002-3.174-.921-3.689-2.278zM58.514 69.586c0 1.754-1.411 3.164-3.23 3.164H53.9v2.9h-2.109v-9.229h3.494c1.819.001 3.229 1.412 3.229 3.165zm-2.109 0c0-.672-.475-1.187-1.121-1.187H53.9v2.373h1.384c.646.001 1.121-.513 1.121-1.186zm6.273 3.032h-1.002v3.032h-2.109v-9.229h3.691a3.157 3.157 0 0 1 3.164 3.164c0 1.134-.686 2.162-1.701 2.677l1.964 3.388h-2.268l-1.739-3.032zm-1.002-1.845h1.582c.58 0 1.055-.514 1.055-1.187 0-.672-.475-1.187-1.055-1.187h-1.582v2.374zm5.469.263c0-2.716 2.149-4.799 4.799-4.799s4.799 2.083 4.799 4.799-2.149 4.799-4.799 4.799-4.799-2.083-4.799-4.799zm7.488 0c0-1.647-1.187-2.742-2.689-2.742s-2.689 1.095-2.689 2.742c0 1.648 1.187 2.742 2.689 2.742s2.689-1.093 2.689-2.742zm1.974 3.006l1.833-1.055c.29.515.593.791 1.305.791.923 0 1.2-.527 1.2-1.094v-6.263h2.109v6.263c0 2.03-1.424 3.15-3.322 3.15-1.463.001-2.518-.618-3.125-1.792zm13.762-.422v2.03h-5.801v-9.229h5.735v2.03h-3.625v1.529h3.296v2.004h-3.296v1.635l3.691.001zm.723-2.584c0-2.716 2.017-4.799 4.799-4.799 1.674 0 3.151.831 3.955 2.136l-1.819 1.055c-.409-.712-1.2-1.134-2.136-1.134-1.635 0-2.689 1.095-2.689 2.742 0 1.648 1.055 2.742 2.689 2.742.936 0 1.74-.422 2.136-1.134l1.819 1.055c-.791 1.306-2.268 2.136-3.955 2.136-2.782 0-4.799-2.083-4.799-4.799zm15.936-2.584h-2.373v7.198h-2.109v-7.198h-2.373v-2.03h6.855v2.03zm3.82 2.584c0-2.716 2.149-4.799 4.799-4.799s4.799 2.083 4.799 4.799-2.149 4.799-4.799 4.799-4.799-2.083-4.799-4.799zm7.488 0c0-1.647-1.187-2.742-2.689-2.742s-2.689 1.095-2.689 2.742c0 1.648 1.187 2.742 2.689 2.742s2.689-1.093 2.689-2.742zm2.238-4.614h2.215l1.595 6.46 1.78-6.46h1.714l1.78 6.46 1.595-6.46h2.215l-2.544 9.229h-2.399l-1.503-5.444-1.503 5.444h-2.399l-2.546-9.229zm21.063 0v9.229h-1.582l-3.56-5.01v5.01h-2.109v-9.229h1.582l3.56 5.01v-5.01h2.109zm7.38 7.198v2.03h-5.801v-9.229h5.735v2.03h-3.625v1.529h3.296v2.004h-3.296v1.635l3.691.001zm4.296-1.002h-1.002v3.032h-2.109v-9.229h3.691a3.157 3.157 0 0 1 3.164 3.164c0 1.134-.686 2.162-1.701 2.677l1.964 3.388h-2.268l-1.739-3.032zm-1.002-1.845h1.582c.58 0 1.055-.514 1.055-1.187 0-.672-.475-1.187-1.055-1.187h-1.582v2.374zm5.402 2.782l1.819-1.055c.33.765.896 1.278 1.938 1.278 1.002 0 1.252-.396 1.252-.751 0-.567-.527-.791-1.912-1.174-1.371-.382-2.716-1.041-2.716-2.808 0-1.78 1.503-2.809 3.098-2.809 1.516 0 2.703.726 3.375 2.083l-1.78 1.042c-.316-.659-.751-1.068-1.595-1.068-.659 0-.989.33-.989.699 0 .422.224.712 1.661 1.146 1.397.422 2.966.91 2.966 2.861 0 1.779-1.424 2.834-3.428 2.834-1.935.002-3.174-.921-3.689-2.278zm-57.962 46.282v9.229h-2.109v-9.229h2.109zm8.832 0v9.229h-1.582l-3.56-5.01v5.01h-2.109v-9.229h1.582l3.56 5.01v-5.01h2.109zm.789 0h2.307l2.043 6.79 2.043-6.79h2.307l-3.006 9.229h-2.689l-3.005-9.229zm15.29 7.198v2.03h-5.801v-9.229h5.735v2.03h-3.625v1.529h3.296v2.004h-3.296v1.635l3.691.001zm.723-.065l1.819-1.055c.33.765.896 1.278 1.938 1.278 1.002 0 1.252-.396 1.252-.751 0-.567-.527-.791-1.912-1.174-1.371-.382-2.716-1.041-2.716-2.808 0-1.78 1.503-2.809 3.098-2.809 1.516 0 2.703.726 3.375 2.083l-1.78 1.042c-.316-.659-.751-1.068-1.595-1.068-.659 0-.989.33-.989.699 0 .422.224.712 1.661 1.146 1.397.422 2.966.91 2.966 2.861 0 1.779-1.424 2.834-3.428 2.834-1.936.002-3.175-.921-3.689-2.278zm14.038-5.103h-2.373v7.198h-2.109v-7.198h-2.373v-2.03h6.855v2.03zm-.002 2.584c0-2.716 2.149-4.799 4.799-4.799 2.65 0 4.799 2.083 4.799 4.799s-2.149 4.799-4.799 4.799c-2.65 0-4.799-2.083-4.799-4.799zm7.488 0c0-1.647-1.187-2.742-2.689-2.742s-2.689 1.095-2.689 2.742c0 1.648 1.187 2.742 2.689 2.742s2.689-1.093 2.689-2.742zm6.404 1.582h-1.002v3.032h-2.109v-9.229h3.691a3.157 3.157 0 0 1 3.164 3.164c0 1.134-.686 2.162-1.701 2.677l1.964 3.388h-2.268l-1.739-3.032zm-1.002-1.845h1.582c.58 0 1.055-.514 1.055-1.187 0-.672-.475-1.187-1.055-1.187h-1.582v2.374zm5.403 2.782l1.819-1.055c.33.765.896 1.278 1.938 1.278 1.002 0 1.252-.396 1.252-.751 0-.567-.527-.791-1.912-1.174-1.371-.382-2.716-1.041-2.716-2.808 0-1.78 1.503-2.809 3.098-2.809 1.516 0 2.703.726 3.375 2.083l-1.78 1.042c-.316-.659-.751-1.068-1.595-1.068-.659 0-.989.33-.989.699 0 .422.224.712 1.661 1.146 1.397.422 2.966.91 2.966 2.861 0 1.779-1.424 2.834-3.428 2.834-1.936.002-3.175-.921-3.689-2.278zM80.021 19.8l1.819-1.055c.33.765.896 1.278 1.938 1.278 1.002 0 1.252-.396 1.252-.751 0-.567-.527-.791-1.912-1.174-1.371-.382-2.716-1.041-2.716-2.808 0-1.78 1.503-2.809 3.098-2.809 1.516 0 2.703.726 3.375 2.083l-1.78 1.042c-.316-.659-.751-1.068-1.595-1.068-.659 0-.989.33-.989.699 0 .422.224.712 1.661 1.146 1.397.422 2.966.91 2.966 2.861 0 1.779-1.424 2.834-3.428 2.834-1.936.002-3.175-.921-3.689-2.278zm10.214-7.133v9.229h-2.109v-9.229h2.109zm10.81 9.229h-2.109v-5.365l-2.386 3.915h-.237l-2.386-3.915v5.365h-2.109v-9.229h2.109l2.505 4.101 2.505-4.101h2.109l-.001 9.229zm8.302-6.065c0 1.754-1.411 3.164-3.23 3.164h-1.384v2.9h-2.109v-9.229h3.494c1.819.001 3.229 1.412 3.229 3.165zm-2.109 0c0-.672-.475-1.187-1.121-1.187h-1.384v2.374h1.384c.646 0 1.121-.514 1.121-1.187zm8.567 4.034v2.03H110.4v-9.229h2.109v7.198l3.296.001zm6.721 0v2.03h-5.801v-9.229h5.735v2.03h-3.625v1.529h3.296v2.004h-3.296v1.635l3.691.001zm4.413-.949v-6.249h2.109v6.064c0 .699.33 1.292 1.45 1.292s1.45-.593 1.45-1.292v-6.064h2.109v6.249c0 1.978-1.529 3.164-3.56 3.164s-3.558-1.186-3.558-3.164zm8.171.884l1.819-1.055c.33.765.896 1.278 1.938 1.278 1.002 0 1.252-.396 1.252-.751 0-.567-.527-.791-1.912-1.174-1.371-.382-2.716-1.041-2.716-2.808 0-1.78 1.503-2.809 3.098-2.809 1.516 0 2.703.726 3.375 2.083l-1.78 1.042c-.316-.659-.751-1.068-1.595-1.068-.659 0-.989.33-.989.699 0 .422.224.712 1.661 1.146 1.397.422 2.966.91 2.966 2.861 0 1.779-1.424 2.834-3.428 2.834-1.935.002-3.174-.921-3.689-2.278zm13.907.065v2.03h-5.801v-9.229h5.735v2.03h-3.625v1.529h3.296v2.004h-3.296v1.635l3.691.001zm4.296-1.001h-1.002v3.032h-2.109v-9.229h3.691a3.157 3.157 0 0 1 3.164 3.164c0 1.134-.686 2.162-1.701 2.677l1.964 3.388h-2.268l-1.739-3.032zm-1.002-1.846h1.582c.58 0 1.055-.514 1.055-1.187 0-.672-.475-1.187-1.055-1.187h-1.582v2.374zm5.402 2.782l1.819-1.055c.33.765.896 1.278 1.938 1.278 1.002 0 1.252-.396 1.252-.751 0-.567-.527-.791-1.912-1.174-1.371-.382-2.716-1.041-2.716-2.808 0-1.78 1.503-2.809 3.098-2.809 1.516 0 2.703.726 3.375 2.083l-1.78 1.042c-.316-.659-.751-1.068-1.595-1.068-.659 0-.989.33-.989.699 0 .422.224.712 1.661 1.146 1.397.422 2.966.91 2.966 2.861 0 1.779-1.424 2.834-3.428 2.834-1.935.002-3.174-.921-3.689-2.278z" fill="#FFF"/><path opacity=".25" d="M202.814 18.553c0 7.811-6.329 14.139-14.138 14.139s-14.144-6.329-14.144-14.139c0-7.809 6.334-14.141 14.144-14.141 7.81 0 14.138 6.332 14.138 14.141z"/><circle opacity=".25" cx="188.673" cy="71.153" r="14.141"/><path opacity=".25" d="M202.814 123.716c0 7.81-6.329 14.14-14.138 14.14s-14.144-6.33-14.144-14.14c0-7.809 6.334-14.142 14.144-14.142 7.81 0 14.138 6.332 14.138 14.142z"/><circle opacity=".25" cx="188.673" cy="176.279" r="14.141"/><path d="M183.606 28.713v-.353c0-2.838-.012-5.681.003-8.523.011-2.588 1.628-4.584 4.125-5.118 2.115-.448 4.436.651 5.446 2.575.427.81.604 1.666.601 2.58-.017 2.813-.003 5.63-.003 8.444v.396l-10.172-.001zm8.336-18.172c-.012 1.768-1.486 3.214-3.271 3.2s-3.208-1.469-3.197-3.265c.014-1.796 1.478-3.254 3.245-3.231 1.802.022 3.228 1.479 3.223 3.296zm4.708 169.353a.979.979 0 0 0-.495.131l-2.172-3.715 2.167-3.767a.989.989 0 1 0-.484-.868h-4.33l-1.333-2.306-.834-1.449a.988.988 0 1 0-.986 0l-.834 1.449-1.335 2.306h-4.333a.982.982 0 0 0-.979-.988.989.989 0 1 0 0 1.976.968.968 0 0 0 .492-.134l2.169 3.781-2.161 3.704a.985.985 0 0 0-1.492.849c0 .543.441.985.991.985.532 0 .971-.43.979-.962h4.333l1.335 2.3.834 1.449a.986.986 0 0 0 .493 1.842.987.987 0 0 0 .493-1.842l.834-1.449 1.333-2.3h4.33a.987.987 0 1 0 1.976-.006.987.987 0 0 0-.991-.986z" fill="#FFF"/><circle fill="#333" cx="265.823" cy="18.589" r="6.446"/><path fill="#333" d="M236.069 71.153a6.445 6.445 0 1 1-12.89 0 6.442 6.442 0 0 1 6.445-6.446 6.443 6.443 0 0 1 6.445 6.446zm0 52.563a6.446 6.446 0 1 1-12.89 0 6.444 6.444 0 1 1 12.89 0z"/><circle fill="#333" cx="265.823" cy="176.279" r="6.446"/><path fill="none" d="M208.092 18.589h51.285"/><path fill="#333" d="M208.092 17.489h51.285v2.197h-51.285z"/><path fill="none" d="M207.822 71.153h15.357"/><path fill="#333" d="M207.822 70.056h15.357v2.195h-15.357z"/><path fill="none" d="M207.822 123.716h15.357"/><path fill="#333" d="M207.822 122.617h15.357v2.198h-15.357z"/><path fill="none" d="M208.092 176.279h51.285"/><path fill="#333" d="M208.092 175.179h51.285v2.198h-51.285z"/><path d="M190.14 127.047h-2.868v-.729h-8.979v3.845h20.826v-3.845h-8.979zm1.591-9.077v-3.33h-6.049v3.33h-7.388v6.782h8.979v-1.741h2.867v1.741h8.979v-6.782h-7.388zm-1.591 0h-2.867v-1.742h2.867v1.742zm-5.355-36.594v-.273c0-2.192-.012-4.386.002-6.577.006-1.996 1.256-3.535 3.18-3.946 1.631-.348 3.422.501 4.202 1.984.333.625.467 1.284.464 1.99-.014 2.169 0 4.339 0 6.511v.31l-7.848.001zm6.428-14.024c-.006 1.366-1.145 2.479-2.522 2.471a2.485 2.485 0 0 1-2.465-2.52c.008-1.385 1.139-2.511 2.5-2.491a2.511 2.511 0 0 1 2.487 2.54z" fill="#FFF"/><path fill="#FFF" d="M197.135 82.22h-16.86V60.086h16.86V82.22zm-15.16-1.695h13.469V61.779h-13.469v18.746z"/><path fill="#333" d="M226.766 97.435c0-30.804 14.548-58.251 37.113-75.898v-2.794c-23.854 17.999-39.311 46.573-39.311 78.692 0 32.975 16.305 62.201 41.255 80.096v-2.696c-23.678-17.568-39.057-45.719-39.057-77.4z"/><linearGradient id="f" gradientUnits="userSpaceOnUse" x1="1210.045" y1="-367.673" x2="1360.346" y2="-367.673" gradientTransform="rotate(90 573.723 -616.087)"><stop offset="0" stop-opacity="0"/><stop offset="1"/></linearGradient><path opacity=".2" fill="url(#f)" d="M400.458 95.387c0-41.504-33.648-75.152-75.15-75.152-41.504 0-75.149 33.648-75.149 75.152 0 41.503 33.645 75.149 75.149 75.149 41.502 0 75.15-33.646 75.15-75.149zm-138.826 0c0-35.17 28.509-63.679 63.676-63.679 35.171 0 63.678 28.509 63.678 63.679 0 35.167-28.507 63.677-63.678 63.677-35.166 0-63.676-28.51-63.676-63.677z"/><linearGradient id="g" gradientUnits="userSpaceOnUse" x1="-444.521" y1="-1357.05" x2="-383.269" y2="-1357.05" gradientTransform="rotate(-90 666.244 -1015.747)"><stop offset="0" stop-color="#fff" stop-opacity="0"/><stop offset="1" stop-color="#fff"/></linearGradient><path opacity=".5" fill="url(#g)" d="M324.941 33.767c-33.826 0-61.251 27.423-61.251 61.251h122.502c0-33.828-27.42-61.251-61.251-61.251z"/><g fill="#333"><circle cx="325.501" cy="190.749" r="6.446"/><path d="M401.28 219.807h-64.795c-6.662 0-12.081-5.417-12.081-12.078v-23.356h2.196v23.356c0 5.449 4.436 9.885 9.885 9.885h64.795v2.193z"/><path d="M400.878 218.768l-5.951 5.951 1.552 1.552 5.951-5.951 1.551-1.552-1.551-1.552-5.951-5.952-1.552 1.552z"/></g></svg>