<svg xmlns="http://www.w3.org/2000/svg" width="872.723" height="531.246" viewBox="0 0 872.723 531.246"><linearGradient id="a" gradientUnits="userSpaceOnUse" x1="88.631" y1="230.662" x2="296.723" y2="230.662" gradientTransform="translate(576 -159.509)"><stop offset="0" stop-color="#4b48bf"/><stop offset="1" stop-color="#a14b8a"/></linearGradient><path fill="url(#a)" d="M664.631 71.152c0 10.269 8.324 18.591 18.59 18.591h170.911c10.271 0 18.591-8.322 18.591-18.591s-8.317-18.589-18.591-18.589H683.221c-10.265 0-18.59 8.321-18.59 18.589z"/><linearGradient id="b" gradientUnits="userSpaceOnUse" x1="88.631" y1="283.224" x2="296.723" y2="283.224" gradientTransform="translate(576 -159.509)"><stop offset="0" stop-color="#4b48bf"/><stop offset="1" stop-color="#a14b8a"/></linearGradient><path fill="url(#b)" d="M664.631 123.717c0 10.265 8.324 18.588 18.59 18.588h170.911c10.271 0 18.591-8.323 18.591-18.588 0-10.266-8.317-18.593-18.591-18.593H683.221c-10.265 0-18.59 8.327-18.59 18.593z"/><linearGradient id="c" gradientUnits="userSpaceOnUse" x1="88.631" y1="335.789" x2="296.723" y2="335.789" gradientTransform="translate(576 -159.509)"><stop offset="0" stop-color="#4b48bf"/><stop offset="1" stop-color="#a14b8a"/></linearGradient><path fill="url(#c)" d="M664.631 176.278c0 10.266 8.324 18.591 18.59 18.591h170.911c10.271 0 18.591-8.325 18.591-18.591 0-10.266-8.317-18.587-18.591-18.587H683.221c-10.265 0-18.59 8.321-18.59 18.587z"/><linearGradient id="d" gradientUnits="userSpaceOnUse" x1="88.631" y1="178.099" x2="296.723" y2="178.099" gradientTransform="translate(576 -159.509)"><stop offset="0" stop-color="#4b48bf"/><stop offset="1" stop-color="#a14b8a"/></linearGradient><path fill="url(#d)" d="M664.631 18.589c0 10.266 8.324 18.59 18.59 18.59h170.911c10.271 0 18.591-8.324 18.591-18.59S864.402 0 854.132 0H683.221c-10.265 0-18.59 8.323-18.59 18.589z"/><circle fill="#333" cx="606.902" cy="18.589" r="6.447"/><circle fill="#333" cx="643.101" cy="71.152" r="6.447"/><circle fill="#333" cx="643.101" cy="123.716" r="6.447"/><circle fill="#333" cx="606.902" cy="176.278" r="6.447"/><path fill="none" d="M664.631 18.589h-51.282"/><path fill="#333" d="M613.349 17.489h51.282v2.197h-51.282v-2.197z"/><path fill="none" d="M664.901 71.152h-15.354"/><path fill="#333" d="M649.547 70.057h15.354v2.195h-15.354v-2.195z"/><path fill="none" d="M664.901 123.716h-15.354"/><path fill="#333" d="M649.547 122.617h15.354v2.198h-15.354v-2.198z"/><path fill="none" d="M664.631 176.278h-51.282"/><path fill="#333" d="M613.349 175.18h51.282v2.198h-51.282v-2.198z"/><linearGradient id="e" gradientUnits="userSpaceOnUse" x1="-104.985" y1="257.498" x2="49.961" y2="257.498" gradientTransform="translate(576 -159.509)"><stop offset="0" stop-color="#4b48bf"/><stop offset="1" stop-color="#4e48bd"/></linearGradient><circle fill="url(#e)" cx="548.488" cy="97.989" r="77.473"/><path fill="#FFF" d="M493.681 114.098h-3.164v9.598h-2.813v-9.598h-3.164v-2.707h9.141v2.707zm8.962 6.89v2.707h-7.73V111.39h7.646v2.707h-4.834v2.039h4.396v2.672h-4.396v2.18h4.918zm.964-3.445c0-3.621 2.688-6.398 6.396-6.398 2.232 0 4.201 1.107 5.273 2.848l-2.43 1.406c-.545-.949-1.6-1.512-2.848-1.512-2.18 0-3.586 1.459-3.586 3.656s1.406 3.656 3.586 3.656c1.248 0 2.32-.563 2.848-1.512l2.43 1.406c-1.059 1.74-3.023 2.848-5.273 2.848-3.707 0-6.396-2.777-6.396-6.398zm22.478-6.152v12.305h-2.813v-4.887h-3.867v4.887h-2.813v-12.305h2.813v4.711h3.867v-4.711h2.813zm11.774 0v12.305h-2.109l-4.746-6.68v6.68h-2.813v-12.305h2.105l4.746 6.68v-6.68h2.817zm1.579 6.152c0-3.621 2.864-6.398 6.397-6.398s6.398 2.777 6.398 6.398-2.865 6.398-6.398 6.398-6.397-2.777-6.397-6.398zm9.983 0c0-2.197-1.582-3.656-3.586-3.656s-3.586 1.459-3.586 3.656 1.582 3.656 3.586 3.656 3.586-1.459 3.586-3.656zm11.598 3.445v2.707h-7.206V111.39h2.813v9.598h4.393zm-.003-3.445c0-3.621 2.865-6.398 6.398-6.398s6.398 2.777 6.398 6.398-2.865 6.398-6.398 6.398-6.398-2.777-6.398-6.398zm9.984 0c0-2.197-1.582-3.656-3.586-3.656s-3.586 1.459-3.586 3.656 1.582 3.656 3.586 3.656S571 119.74 571 117.543zm16.573.352c0 3.762-2.619 6.047-6.064 6.047-3.867 0-6.645-2.848-6.645-6.381 0-3.568 2.83-6.416 6.45-6.416 2.354 0 4.343 1.16 5.38 2.813l-2.395 1.371c-.51-.809-1.617-1.441-3.006-1.441-2.074 0-3.621 1.529-3.621 3.691 0 2.092 1.479 3.621 3.867 3.621 1.635 0 2.707-.721 3.146-1.898H581.4v-2.461h6.17l.003 1.054zm4.389-6.504v12.305h-2.813v-12.305h2.813zm9.842 9.597v2.707h-7.73V111.39h7.646v2.707h-4.834v2.039h4.396v2.672h-4.396v2.18h4.918zm.964-.088l2.43-1.406c.438 1.02 1.191 1.705 2.584 1.705 1.336 0 1.67-.527 1.67-1.002 0-.756-.703-1.055-2.55-1.564-1.827-.51-3.62-1.389-3.62-3.744 0-2.373 2.004-3.744 4.131-3.744 2.021 0 3.604.967 4.5 2.777l-2.373 1.389c-.422-.879-1.002-1.424-2.127-1.424-.879 0-1.318.439-1.318.932 0 .563.299.949 2.215 1.529 1.863.563 3.955 1.213 3.955 3.814 0 2.373-1.896 3.779-4.566 3.779-2.594 0-4.245-1.23-4.931-3.041z"/><g fill="#FFF"><path d="M533.878 56.229c2.619 0 5.241.02 7.86-.012.617-.011.979.199 1.333.698 1.264 1.799 2.599 3.549 3.852 5.356.396.574.795.787 1.503.765 2.403-.071 4.399 1.685 4.658 4 .268 2.466-1.229 4.625-3.619 5.119-1.725.354-3.254-.107-4.436-1.438-1.198-1.351-1.467-2.945-.892-4.639.159-.481.134-.806-.168-1.21a181.805 181.805 0 0 1-2.995-4.149c-.244-.352-.507-.528-.965-.525-3.437.02-6.873.02-10.309-.006-.587-.003-.758.185-.755.763.017 3.904.012 7.812.003 11.715 0 .393.1.713.333 1.028 1.903 2.586 3.807 5.18 5.69 7.776.247.337.513.454.935.449 2.625-.037 4.638 1.785 4.828 4.332.183 2.433-1.657 4.588-4.188 4.91-3.388.427-6.03-3.066-4.746-6.317.202-.51.153-.841-.158-1.266-2.097-2.817-4.151-5.661-6.238-8.484a1.83 1.83 0 0 1-.391-1.157c.018-5.611.021-11.22-.009-16.832-.006-.741.239-.902.929-.894 2.653.038 5.301.017 7.945.018zm14.631 9.301c-1.229-.008-2.229.965-2.229 2.181 0 1.19.957 2.158 2.151 2.182a2.195 2.195 0 0 0 2.261-2.126l.001-.026c.019-1.246-.928-2.204-2.184-2.211zM536.13 88.728c1.216-.011 2.173-.972 2.155-2.161-.014-1.211-1.03-2.215-2.229-2.201-1.202.016-2.132.958-2.132 2.176.003 1.248.962 2.196 2.206 2.186zm26.945 9.348c-2.674.006-5.342-.008-8.013.017-.521.003-.854-.151-1.16-.586-1.364-1.944-2.773-3.855-4.146-5.788-.281-.396-.544-.581-1.085-.552-2.038.117-3.854-1.136-4.541-3.033-.69-1.932-.051-4.093 1.58-5.308 1.599-1.193 3.847-1.214 5.479-.054 1.647 1.176 2.362 3.331 1.656 5.272-.223.618-.146 1.035.233 1.538a136.574 136.574 0 0 1 2.906 4.028c.266.378.55.558 1.031.555 3.409-.017 6.817-.017 10.23 0 .575.005.773-.168.771-.757-.021-3.927-.015-7.857-.009-11.789 0-.362-.097-.664-.313-.957a1157.233 1157.233 0 0 1-5.834-7.95c-.271-.369-.563-.464-.993-.468-2.491-.029-4.447-1.916-4.55-4.359-.102-2.474 1.609-4.561 3.975-4.838 2.548-.302 4.774 1.307 5.204 3.782.159.945.08 1.888-.37 2.75-.216.416-.143.709.122 1.065 2.097 2.818 4.166 5.651 6.266 8.465.297.397.432.79.432 1.288-.012 5.611-.021 11.224.006 16.834.006.698-.219.869-.877.863-2.662-.032-5.33-.018-8-.018zm-14.585-9.348c1.224 0 2.218-.989 2.203-2.199a2.196 2.196 0 0 0-2.169-2.164c-1.23-.017-2.228.937-2.238 2.164-.015 1.213.97 2.199 2.204 2.199zm12.48-23.198c-1.234-.008-2.227.955-2.229 2.174a2.184 2.184 0 0 0 2.179 2.189h.034c1.198-.001 2.188-.969 2.194-2.134.006-1.241-.953-2.222-2.178-2.229z"/><path d="M547.439 79.091c-1.608 0-3.221-.026-4.82.013-.566.013-.896-.185-1.216-.638-1.295-1.836-2.647-3.633-3.945-5.472-.373-.531-.746-.774-1.44-.766-2.426.026-4.33-1.817-4.541-4.29-.189-2.303 1.479-4.444 3.792-4.864a4.627 4.627 0 0 1 5.271 3.202c.319 1.058.288 2.106-.165 3.112-.182.418-.146.714.12 1.076a149.897 149.897 0 0 1 2.972 4.166c.29.421.618.551 1.107.549 3.243-.019 6.479.001 9.72-.02.572-.006.945.148 1.29.632 1.301 1.836 2.664 3.627 3.971 5.46.352.487.688.698 1.327.678 2.438-.068 4.492 1.808 4.669 4.165.193 2.585-1.439 4.652-3.981 5.042-2.36.356-4.624-1.207-5.143-3.584-.19-.911-.171-1.831.216-2.693.199-.447.125-.769-.155-1.145-1.014-1.342-2-2.704-2.962-4.083-.295-.413-.614-.558-1.112-.552-1.662.028-3.318.012-4.975.012zm13.515 9.637c1.204-.005 2.209-.989 2.194-2.151-.018-1.221-1.021-2.223-2.229-2.212a2.19 2.19 0 0 0-2.181 2.161 2.189 2.189 0 0 0 2.178 2.202h.038zm-24.852-18.835c1.223-.001 2.185-.938 2.188-2.137.003-1.238-.968-2.226-2.188-2.226-1.24 0-2.188.965-2.172 2.215a2.142 2.142 0 0 0 2.137 2.148h.035z"/></g><linearGradient id="f" gradientUnits="userSpaceOnUse" x1="-489.387" y1="474.606" x2="-334.441" y2="474.606" gradientTransform="translate(576 -159.509)"><stop offset="0" stop-color="#9b4b8d"/><stop offset="1" stop-color="#a14b8a"/></linearGradient><circle fill="url(#f)" cx="164.086" cy="315.096" r="77.473"/><path fill="#FFF" d="M121.907 331.207v2.373h4.57v2.707h-4.57v4.518h-2.813V328.5h7.471v2.707h-4.658zm13.532 6.89v2.707h-7.207V328.5h2.813v9.598l4.394-.001zm8.962 0v2.707h-7.734V328.5h7.646v2.707h-4.834v2.039h4.395v2.672h-4.395v2.18l4.922-.001zm8.048 2.707l-2.074-3.551-2.074 3.551h-3.199l3.674-6.311-3.498-5.994h3.199l1.898 3.252 1.898-3.252h3.199l-3.498 5.994 3.674 6.311h-3.199zm7.239-12.304v12.305h-2.813V328.5h2.813zm11.249 8.701c0 2.18-1.775 3.604-3.973 3.604h-5.168V328.5h4.816c2.145 0 3.885 1.389 3.885 3.516 0 1.021-.404 1.828-1.072 2.408.914.579 1.512 1.529 1.512 2.777zm-6.329-6.065v2.183h2.004c.633 0 1.072-.457 1.072-1.093 0-.633-.422-1.09-1.072-1.09h-2.004zm3.516 5.854c0-.688-.457-1.183-1.16-1.183h-2.355v2.355h2.355c.703.005 1.16-.487 1.16-1.172zm7.028-8.49v12.305h-2.813V328.5h2.813zm9.315 9.597v2.707h-7.207V328.5h2.813v9.598l4.394-.001zm4.04-9.597v12.305h-2.813V328.5h2.813zm10.369 2.707h-3.164v9.598H192.9v-9.598h-3.164V328.5h9.141l-.001 2.707zm7.117 4.869v4.729h-2.813v-4.729l-4.131-7.576h3.199l2.338 4.746 2.338-4.746h3.199l-4.13 7.576zm-18.757-52.409c-3.34-1.06-6.676-2.121-10.019-3.183-.851-.271-1.708-.528-2.682-.832.114.315.179.509.253.688.396.977.769 1.955 1.196 2.918.177.404.071.574-.29.768-.894.472-1.777.959-2.639 1.48-5.688 3.469-9.728 8.279-11.926 14.594-1.597 4.582-2.206 9.33-2.391 14.146h8.914c.1-2.537.382-5.049.874-7.543 1.272-6.412 4.689-11.254 10.491-14.367.41-.215.598-.239.783.266.424 1.15.92 2.277 1.426 3.519.166-.274.285-.461.387-.654 1.913-3.559 3.821-7.12 5.748-10.67.103-.19.077-.563.47-.504v-.496c-.2-.044-.405-.068-.595-.13zm-26.711 8.272c-.569-.627-1.096-1.287-1.688-1.896-2.412-2.479-5.227-4.405-8.299-5.971-.501-.259-.555-.5-.325-.951.179-.353.311-.722.458-1.082.302-.752.604-1.506.902-2.267-.293-.108-.481.021-.666.078-2.861.865-5.714 1.75-8.578 2.604-1.381.416-2.73.926-4.145 1.211v.494c.364-.074.353.267.45.44 1.973 3.621 3.935 7.248 5.902 10.869.105.189.148.438.421.553.47-1.151.948-2.293 1.398-3.438.148-.383.288-.51.708-.281 4.12 2.234 7.297 5.344 9.125 9.728.065.159.074.364.302.469.877-3.53 2.172-6.883 4.103-9.974.152-.231.106-.393-.068-.586zm-2.507-17.834c.484-.017.612.119.609.604-.025 3.197-.005 6.395-.02 9.588 0 .336.088.563.361.781a27.067 27.067 0 0 1 3.767 3.648c.282.336.418.303.678-.011a27.022 27.022 0 0 1 3.727-3.604c.313-.25.398-.514.396-.895-.014-3.176.003-6.352-.02-9.523-.002-.465.111-.586.572-.571 1.267.037 2.537.008 3.906.008-.222-.28-.367-.475-.518-.661-2.631-3.277-5.27-6.556-7.895-9.835-.114-.142-.37-.248-.262-.518h-.248c.12.193-.085.248-.157.342-2.5 3.042-5.005 6.075-7.499 9.12-.39.479-.845.914-1.178 1.539 1.318.004 2.548.026 3.781-.012z"/><linearGradient id="g" gradientUnits="userSpaceOnUse" x1="-328.164" y1="257.498" x2="-173.218" y2="257.498" gradientTransform="translate(576 -159.509)"><stop offset="0" stop-color="#4b48bf"/><stop offset="1" stop-color="#4e48bd"/></linearGradient><circle fill="url(#g)" cx="325.309" cy="97.989" r="77.473"/><path fill="#FFF" d="M274.021 117.543c0-3.621 2.689-6.398 6.398-6.398 2.232 0 4.201 1.107 5.273 2.848l-2.426 1.406c-.545-.949-1.6-1.512-2.848-1.512-2.18 0-3.586 1.459-3.586 3.656s1.406 3.656 3.586 3.656c1.248 0 2.32-.563 2.848-1.512l2.426 1.406c-1.055 1.74-3.023 2.848-5.273 2.848-3.708 0-6.398-2.777-6.398-6.398zm12.284 0c0-3.621 2.865-6.398 6.398-6.398 3.533 0 6.398 2.777 6.398 6.398s-2.865 6.398-6.398 6.398c-3.533 0-6.398-2.777-6.398-6.398zm9.984 0c0-2.197-1.582-3.656-3.586-3.656s-3.586 1.459-3.586 3.656 1.582 3.656 3.586 3.656 3.586-1.459 3.586-3.656zm16.695 6.152h-2.813v-7.154l-3.182 5.221h-.316l-3.182-5.221v7.154h-2.813V111.39h2.813l3.34 5.467 3.34-5.467h2.813v12.305zm14.41 0h-2.813v-7.154l-3.182 5.221h-.316l-3.182-5.221v7.154h-2.813V111.39h2.813l3.34 5.467 3.34-5.467h2.813v12.305zm2.017-3.972v-8.332h2.813v8.086c0 .932.439 1.723 1.934 1.723 1.495 0 1.934-.791 1.934-1.723v-8.086h2.813v8.332c0 2.637-2.039 4.219-4.746 4.219s-4.748-1.583-4.748-4.219zm21.177-8.332v12.305h-2.109l-4.746-6.68v6.68h-2.813v-12.305h2.109l4.746 6.68v-6.68h2.813zm4.919 0v12.305h-2.813v-12.305h2.813zm10.369 2.707h-3.164v9.598h-2.813v-9.598h-3.164v-2.707h9.141v2.707zm7.116 4.869v4.729h-2.813v-4.729l-4.131-7.576h3.199l2.338 4.746 2.338-4.746h3.199l-4.13 7.576zm-56.425-21.554v-.575c0-4.664-.017-9.324.003-13.984.02-4.248 2.673-7.519 6.768-8.39 3.47-.742 7.276 1.063 8.939 4.222.697 1.325.991 2.728.982 4.228-.025 4.618-.008 9.233-.003 13.848v.652l-16.689-.001zm16.988-19.102c1.44-.474 2.758-.336 4.017.269 2.023.971 3.197 2.614 3.263 4.84.103 3.462.034 6.928.034 10.389 0 .088-.034.177-.063.302h-6.184v-.729c0-2.988-.031-5.976.011-8.965.027-2.092-.016-4.154-1.078-6.106zm-24.569 15.796c-.012-.216-.034-.393-.034-.569-.003-3.211.003-6.423-.003-9.634-.014-2.984 2.01-5.335 4.86-5.785.777-.125 1.591 0 2.44.01-.313 1.025-.635 1.86-.82 2.729-.154.72-.202 1.478-.205 2.218-.02 3.436-.011 6.875-.011 10.312v.72l-6.227-.001zM330.235 67.6c-.014 2.904-2.434 5.277-5.361 5.252-2.927-.02-5.264-2.408-5.244-5.355.023-2.947 2.426-5.342 5.315-5.301a5.342 5.342 0 0 1 5.291 5.392l-.001.012zm-22.627 23.689h-4.046c-.011-.193-.037-.387-.037-.583a705.905 705.905 0 0 1-.003-6.508c.008-2.42 1.731-4.146 4.139-4.146.273 0 .547.126.92.216-.794 1.362-.994 2.766-.982 4.224.023 2.01.009 4.024.009 6.035v.762zm34.621.003v-6.426c0-2.442 0-2.442-.894-4.583 1.455-.695 4.026.202 4.771 2.481.125.379.185.799.191 1.194.017 2.306.011 4.609.009 6.914 0 .132-.029.26-.051.42h-4.026zm-23.942-18.277a3.581 3.581 0 0 1-3.567 3.588c-1.979.016-3.621-1.636-3.605-3.634.011-1.947 1.66-3.562 3.622-3.54a3.55 3.55 0 0 1 3.552 3.55c-.002.012-.002.024-.002.036zm13.278.082c-.054-2.019 1.509-3.633 3.547-3.668 1.961-.036 3.582 1.539 3.641 3.529.051 1.924-1.549 3.577-3.542 3.648-1.938.07-3.595-1.526-3.646-3.509zm10.778.733a2.405 2.405 0 0 1 2.42 2.39v.017a2.42 2.42 0 0 1-2.432 2.408h-.002c-1.301-.019-2.377-1.09-2.394-2.383-.017-1.317 1.076-2.422 2.408-2.432zm-37.229 2.424c-.008-1.357 1.039-2.42 2.389-2.424a2.36 2.36 0 0 1 2.38 2.34v.01c.017 1.368-1.005 2.443-2.343 2.465a2.383 2.383 0 0 1-2.426-2.337v-.054z"/><linearGradient id="h" gradientUnits="userSpaceOnUse" x1="1396.106" y1="-197.67" x2="1549.227" y2="-197.67" gradientTransform="rotate(90 717.79 -479.53)"><stop offset="0" stop-color="#4b48bf"/><stop offset="1" stop-color="#a14b8a"/></linearGradient><path fill="url(#h)" d="M605.622 254.951h-15.049l2.546 2.551H486.365l5.88-10.189a7.37 7.37 0 0 0 3.771 1.05 7.415 7.415 0 0 0 7.416-7.416v-.003a7.405 7.405 0 0 0-7.402-7.408h-.014a7.398 7.398 0 0 0-7.396 7.237h-32.526l-9.976-17.287-6.28-10.873a7.404 7.404 0 0 0 3.715-6.417 7.414 7.414 0 0 0-7.417-7.411 7.413 7.413 0 0 0-7.419 7.405v.006a7.415 7.415 0 0 0 3.709 6.417l-6.271 10.873-9.984 17.287h-32.507a7.41 7.41 0 0 0-7.416-7.388 7.411 7.411 0 0 0-7.411 7.411v.002a7.407 7.407 0 0 0 7.403 7.411h.008a7.401 7.401 0 0 0 3.718-.999l5.945 10.292H278.737l2.551-2.551h-15.052V270l2.551-2.547v15.84l-2.551-2.551v15.055l15.052-.006-2.599-2.6 107.222-.004-5.882 10.192a7.303 7.303 0 0 0-3.781-1.047 7.408 7.408 0 0 0-7.411 7.405v.005a7.414 7.414 0 0 0 7.41 7.418h.001a7.413 7.413 0 0 0 7.411-7.246h12.555l19.958.004 9.984 17.285 6.271 10.873a7.411 7.411 0 0 0-3.709 6.416 7.416 7.416 0 0 0 7.418 7.412h.001a7.416 7.416 0 0 0 7.417-7.412 7.4 7.4 0 0 0-3.715-6.416l6.277-10.873 9.979-17.291 19.967.006 12.552-.006a7.415 7.415 0 1 0 14.825-.023 7.41 7.41 0 0 0-7.409-7.413h-.007a7.406 7.406 0 0 0-3.719 1.008l-5.938-10.297h106.807l-2.6 2.604 15.049-.004v-15.052l-2.542 2.554-.006-15.84 2.548 2.547v-15.045zm-6.372 12.502v21.916H479.743l3.311 5.734 5.941 10.293.407.694H453.89l-1.102 1.91-9.984 17.293-6.271 10.869-.396.684-.396-.684-6.28-10.869L419.482 308l-1.104-1.91h-35.502l.464-.807 5.876-10.187 3.308-5.733H272.61l.002-6.076v-15.84l-.002-6.125h119.922l-3.313-5.737-5.936-10.289-.407-.703h35.505l1.104-1.913 9.979-17.287 6.28-10.873.396-.683.396.683 6.271 10.873 9.984 17.287 1.102 1.913h35.514l-.479.809-5.873 10.184-3.311 5.737H599.25v6.13zm-97.015 5.214c0 3.765-3.029 6.799-6.938 6.799h-2.972v6.229h-4.539v-19.826h7.511c3.909 0 6.938 3.029 6.938 6.798zm-4.532 0c0-1.442-1.022-2.545-2.406-2.551h-2.972v5.1h2.972c1.383 0 2.406-1.101 2.406-2.549zm7.786 3.116c0-5.834 4.618-10.31 10.313-10.31 5.688 0 10.308 4.476 10.308 10.31 0 5.836-4.615 10.313-10.308 10.313-5.695-.003-10.313-4.477-10.313-10.313zm16.088 0c0-3.539-2.551-5.891-5.776-5.891-3.229 0-5.776 2.352-5.776 5.891 0 3.541 2.547 5.893 5.776 5.893 3.225-.001 5.776-2.352 5.776-5.893zm20.674 5.554l-.003 4.356h-11.609v-19.825h4.532v15.468l7.08.001zm8.485-15.468v19.826h-4.524v-19.826h4.524zm4.538 9.91c0-5.83 4.333-10.306 10.309-10.306 3.599 0 6.771 1.778 8.498 4.589l-3.903 2.266c-.885-1.531-2.582-2.438-4.595-2.438-3.516 0-5.776 2.354-5.776 5.891 0 3.541 2.27 5.895 5.776 5.895 2.013 0 3.741-.904 4.595-2.438l3.903 2.266c-1.696 2.809-4.868 4.59-8.498 4.59-5.976-.001-10.309-4.475-10.309-10.315zm35.372 5.558v4.356H578.18v-19.825h12.324v4.364h-7.798v3.285l7.089-.002v4.305h-7.089v3.517h7.94zm-308.732-5.858c0-5.836 4.333-10.31 10.309-10.31 3.599 0 6.776 1.782 8.496 4.586l-3.906 2.267c-.877-1.527-2.576-2.435-4.583-2.435-3.513 0-5.782 2.349-5.782 5.89 0 3.543 2.269 5.896 5.782 5.896 2.007 0 3.735-.908 4.583-2.438l3.909 2.269c-1.697 2.803-4.871 4.586-8.499 4.586-5.976-.003-10.309-4.476-10.309-10.311zm27.613 3.401h-2.152v6.511h-4.533v-19.826h7.929a6.78 6.78 0 0 1 6.801 6.759v.033c0 2.44-1.475 4.647-3.653 5.758l4.216 7.275-4.871.006-3.737-6.516zm-2.152-3.972h3.396c1.252.006 2.269-1.102 2.269-2.545s-1.016-2.549-2.269-2.549h-3.396v5.094zm21.807 2.863v7.625l-4.535-.006.005-7.615-6.659-12.211h5.156l3.769 7.65 3.767-7.65h5.153l-6.656 12.207zm22.798-5.414c0 3.771-3.035 6.801-6.941 6.801h-2.978l.006 6.232-4.53.006v-19.833h7.502c3.907.001 6.941 3.03 6.941 6.794zm-4.529.006c0-1.443-1.022-2.549-2.411-2.549h-2.972v5.094h2.972c1.386 0 2.405-1.101 2.411-2.545zm19.82-2.44h-5.099v15.474h-4.532v-15.474h-5.096v-4.359h14.728l-.001 4.359zm-.002 5.556c0-5.836 4.621-10.31 10.312-10.31 5.688 0 10.309 4.474 10.309 10.312 0 5.836-4.621 10.309-10.309 10.309-5.692-.003-10.312-4.476-10.312-10.311zm16.09.001c0-3.545-2.551-5.896-5.779-5.896-3.231 0-5.779 2.351-5.779 5.892 0 3.543 2.548 5.895 5.779 5.895 3.226 0 5.779-2.351 5.779-5.891zm9.333 12.754l4.83-12.754-4.83-12.756 7.359 12.756-7.359 12.754zm86.67-25.636l-4.832 12.751 4.832 12.76L472 275.35l7.362-12.752zm-43.82-33.705l.629-1.09.626 1.09 9.984 17.287 2.615 4.53c-3.945-2.087-8.446-3.277-13.229-3.277s-9.278 1.19-13.224 3.277l2.615-4.53 9.984-17.287zm-40.553 22.685l.632 1.084 9.979 17.291 2.292 3.965c.615-9.468 5.871-17.667 13.523-22.339h-25.167l-1.259-.001zm21.219 47.548h3.88c-7.137-4.924-11.896-13.03-12.236-22.272l-2.252 3.899-9.979 17.283-.632 1.09h21.219zm30.573 5.399l1.906-3.31a28.206 28.206 0 0 1-12.521 2.914c-4.489 0-8.74-1.051-12.518-2.914l1.909 3.31 9.979 17.284.629 1.091.626-1.091 9.99-17.284zm30.568-5.399l-.629-1.09-9.976-17.283-2.255-3.899c-.343 9.24-5.104 17.352-12.236 22.272h25.096zm0-47.548h-26.423c7.653 4.672 12.908 12.874 13.521 22.343l2.297-3.969 9.976-17.291.629-1.083zm-36.059 21.277h-10.343v-4.269h10.343c1.281 0 2.101.896 2.101 2.136 0 1.244-.86 2.133-2.101 2.133zm2.966 7.195c0 1.345-.896 2.31-2.277 2.31H430.95v-4.613h11.028c1.381-.003 2.278.96 2.278 2.303zm-8.086-27.513c-12.823 0-23.251 10.428-23.251 23.246 0 12.824 10.428 23.254 23.251 23.254 12.82 0 23.251-10.43 23.251-23.254 0-12.818-10.431-23.246-23.251-23.246zm5.809 34.981h-.825v4.477h-4.068v-4.477h-2.053v4.477h-4.063v-4.473h-8.107v-5.138h2.579V268.58h-2.579v-5.153h8.107v-4.467h4.063v4.467h2.053v-4.467h4.068v4.467h.14c4.199 0 7.61 2.726 7.61 6.888 0 1.996-.792 3.582-2.104 4.713 1.793 1.143 2.961 2.992 2.961 5.438-.002 4.266-3.475 7.052-7.782 7.052z"/><linearGradient id="i" gradientUnits="userSpaceOnUse" x1="-328.497" y1="613.281" x2="-173.552" y2="613.281" gradientTransform="translate(576 -159.509)"><stop offset="0" stop-color="#9b4b8d"/><stop offset="1" stop-color="#a14b8a"/></linearGradient><path fill="url(#i)" d="M247.503 453.771c0-42.783 34.685-77.474 77.471-77.474 42.787 0 77.474 34.688 77.474 77.474s-34.688 77.475-77.474 77.475-77.471-34.686-77.471-77.475z"/><linearGradient id="j" gradientUnits="userSpaceOnUse" x1="-106.585" y1="613.281" x2="48.365" y2="613.281" gradientTransform="translate(576 -159.509)"><stop offset="0" stop-color="#9b4b8d"/><stop offset="1" stop-color="#a14b8a"/></linearGradient><path fill="url(#j)" d="M469.415 453.771c0-42.783 34.688-77.474 77.472-77.474 42.79 0 77.479 34.688 77.479 77.474s-34.688 77.475-77.479 77.475c-42.785 0-77.472-34.686-77.472-77.475z"/><path fill="#FFF" d="M303.642 434.367c.085.803.171 1.582.253 2.365.005.077.031.155.045.235.025.152-.006.25-.125.377-.424.447-.868.896-1.212 1.4-.458.684-.345 1.008.393 1.42.675.381 1.421.563 2.178.678.837.117 1.68.193 2.534.291-2.693-6.772-2.209-13.176 2.067-19.094 2.966-4.109 7.052-6.582 12.057-7.428 10.776-1.82 20.829 5.813 21.987 16.772.444-.307.876-.588 1.29-.895.771-.572 1.512-1.176 2.073-1.963.145-.201.256-.42.361-.646.131-.289.074-.545-.171-.764a3.148 3.148 0 0 0-1.62-.742c-.615-.086-.9-.393-1.088-.963-.202-.617-.523-1.195-.814-1.836.296.031.578.057.854.098 1.165.175 2.314.418 3.365.979.996.524 1.736 1.264 1.936 2.424.14.824-.071 1.59-.472 2.309-.575 1.021-1.398 1.816-2.298 2.541-2.004 1.615-4.253 2.828-6.568 3.937-2.861 1.371-5.822 2.488-8.837 3.475a95.519 95.519 0 0 1-11.376 2.949c-2.317.447-4.641.832-6.989 1.021-1.688.14-3.38.215-5.073.227-1.868.012-3.727-.154-5.515-.768-.828-.281-1.603-.662-2.187-1.341-.922-1.063-.999-2.237-.436-3.481.396-.879 1.02-1.599 1.726-2.234.407-.377.845-.715 1.275-1.063.125-.099.259-.187.387-.28zm18.602-2.334h5.531c-.119-2.082-.239-4.131-.358-6.207h-3.459c-.39 0-.78-.008-1.173.006-.077.006-.208.096-.21.154a82.578 82.578 0 0 0-.216 2.524 61.467 61.467 0 0 0-.114 2.017c-.013.494-.001.996-.001 1.506zm-13.745.008h4.495c.088-2.104.381-4.164.919-6.215h-.293c-1.034 0-2.064.006-3.092-.006-.194-.002-.291.057-.373.225-.566 1.178-1.011 2.398-1.271 3.678-.152.755-.254 1.521-.385 2.318zm32.899 0c0-.09.002-.154-.003-.219-.174-2.043-.732-3.98-1.617-5.824-.077-.154-.182-.174-.33-.174-1.022.006-2.036.004-3.063.004h-.354c.555 2.057.826 4.119.937 6.215 1.49-.002 2.944-.002 4.43-.002zm-32.856 2.468c.023.209.037.377.054.549.2 1.885.729 3.719 1.563 5.418.077.158.162.228.35.228 1.036-.016 2.078-.004 3.118-.004.085 0 .17-.017.285-.021-.544-2.041-.82-4.09-.92-6.166-1.49-.004-2.945-.004-4.45-.004zm21.323-8.67c.117 2.078.229 4.139.347 6.201h4.308a48.25 48.25 0 0 0-.083-1.146 25.178 25.178 0 0 0-.868-4.848c-.048-.174-.131-.225-.308-.225-1.068.008-2.132.006-3.197.006-.068.001-.142.01-.199.012zm-9.779.004c-.042-.006-.088-.016-.131-.016-1.102-.002-2.204 0-3.308-.008-.188-.002-.225.094-.262.235a24.46 24.46 0 0 0-.845 4.554c-.046.469-.077.944-.111 1.426h4.313c.113-2.072.23-4.126.344-6.191zm-4.618 8.666c-.1 1.115.546 5.133.968 6.01 1.196-.198 2.4-.403 3.584-.608-.088-1.83-.179-3.619-.271-5.398-1.431-.004-2.849-.004-4.281-.004zm6.725.002c.08 1.648.156 3.252.239 4.914 1.668-.428 3.334-.864 4.999-1.307.071-.021.165-.146.168-.229.048-1.016.085-2.03.123-3.051 0-.104-.012-.211-.017-.328l-5.512.001zm2.855-17.676l-.143.014c-1.261 1.984-1.58 4.265-2.016 6.521h4.157c-.043-.258-.077-.49-.114-.717-.291-1.599-.621-3.185-1.27-4.679-.167-.391-.412-.756-.614-1.139zm3.226 1.012c.601 1.812.957 3.662 1.244 5.529h3.086c-1.016-2.209-2.283-4.169-4.33-5.529zm-7.841 5.533c.291-1.871.655-3.729 1.242-5.537-2.053 1.365-3.314 3.332-4.325 5.537h3.083zm9.646 13.922c.063 0 .094.011.12 0 1.367-.465 2.729-.932 4.097-1.397.06-.021.134-.092.137-.144.037-.41.06-.826.085-1.235h-4.339c-.032.936-.066 1.849-.1 2.776zm-18.295-13.904c.982 0 1.893.002 2.801-.013.063 0 .154-.104.188-.182.39-.803.732-1.625 1.147-2.412.373-.695.82-1.344 1.247-2.041-2.117 1.16-3.885 2.685-5.383 4.648zm21.008-4.637c.441.717.902 1.41 1.292 2.142.396.731.723 1.51 1.07 2.271.074.162.151.234.339.23.803-.015 1.606-.009 2.406-.009.068 0 .137-.012.253-.021-1.491-1.936-3.251-3.472-5.36-4.613zm4.176 16.08c.242-.1.479-.199.777-.315h-.766c-.012.092-.023.159-.031.233-.002.014.009.032.02.082zm-13.947 9.127c.436 1.982.746 3.98 1.928 5.767.137-.187.256-.31.341-.447.595-1.006.92-2.121 1.185-3.246.216-.92.378-1.854.566-2.779.003-.031-.008-.063-.017-.119-.12-.014-.236-.02-.35-.028 3.208-.896 6.38-1.906 9.535-3.123-.06.26-.105.467-.154.688.088.009.156.021.225.021 1.062 0 2.118-.002 3.177.002.168 0 .273-.045.333-.205.293-.742.589-1.486.9-2.226a.65.65 0 0 1 .273-.327c.797-.435 1.6-.839 2.4-1.255.063-.03.125-.063.239-.112a18.37 18.37 0 0 1-2.614 6.764c-2.289 3.586-5.42 6.168-9.409 7.656-8.042 2.983-16.253.076-20.8-5.267.387-.022.757-.049 1.119-.077.618-.048 1.233-.101 1.851-.138a.537.537 0 0 1 .328.105c.931.809 1.93 1.518 3.015 2.109l.071.022c-.509-.82-1.02-1.641-1.532-2.459.382-.061.701-.107 1.02-.16.45-.063.899-.125 1.349-.209.177-.029.276.008.373.168.564.955 1.221 1.836 2.033 2.597.39.362.817.688 1.227 1.024l.065-.051c-.104-.332-.229-.66-.31-.998-.242-1.002-.47-2.004-.695-3.006-.014-.066.048-.209.091-.219.745-.165 1.491-.317 2.237-.472zm5.253 4.75c2.053-1.412 3.331-3.369 4.33-5.58h-3.066c-.177.945-.328 1.879-.533 2.8-.207.919-.475 1.817-.731 2.78zm9.893-5.593h-.242c-.808 0-1.62.002-2.431-.006-.188-.002-.271.063-.336.229a18.647 18.647 0 0 1-1.873 3.627 9.786 9.786 0 0 1-.256.392c-.085.125-.179.244-.271.367a15.814 15.814 0 0 0 5.409-4.609z"/><g fill="#FFF"><path d="M565.961 433.884c.003 10.521-8.532 19.06-19.066 19.064-10.527.008-19.063-8.511-19.082-19.043-.021-10.543 8.528-19.09 19.089-19.082 10.532.01 19.048 8.526 19.059 19.061zm-33.99-.002c0 8.23 6.696 14.898 14.952 14.887 8.19-.008 14.876-6.688 14.873-14.858-.006-8.248-6.696-14.937-14.924-14.912-8.233.014-14.898 6.676-14.901 14.883zm12.527-20.185c0-.119-.011-.248 0-.373.064-.947-.097-1.707-.837-2.496-1.54-1.646-1.192-4.303.55-5.762 1.72-1.438 4.305-1.25 5.782.42 1.515 1.711 1.415 4.297-.271 5.809-.348.316-.479.617-.456 1.059.031.457.006.923.006 1.347-1.605-.004-3.163-.004-4.774-.004zm2.394-3.057a2.382 2.382 0 0 0 2.384-2.367 2.373 2.373 0 0 0-2.368-2.37 2.367 2.367 0 0 0-2.406 2.333v.007c-.015 1.323 1.049 2.391 2.39 2.397z"/><path d="M558.28 417.123c.601-.596 1.139-1.139 1.688-1.662.404-.377.886-.377 1.284.016a324.16 324.16 0 0 1 3.752 3.757c.394.396.391.879.016 1.276-.517.543-1.049 1.068-1.611 1.646a20.784 20.784 0 0 0-5.129-5.033zm-17.787 4.173c.146.211.314.41.452.629 1.729 2.84 3.468 5.688 5.188 8.535.153.258.313.375.637.369 1.358-.025 2.51.846 2.892 2.141a3.17 3.17 0 0 1-1.333 3.551c-1.115.705-2.582.599-3.553-.271-1.033-.918-1.354-2.42-.706-3.66.217-.418.208-.738.052-1.156-1.213-3.146-2.409-6.307-3.604-9.463-.067-.186-.116-.381-.177-.576.049-.034.103-.065.152-.099z"/></g><linearGradient id="k" gradientUnits="userSpaceOnUse" x1="55.842" y1="474.606" x2="210.786" y2="474.606" gradientTransform="translate(576 -159.509)"><stop offset="0" stop-color="#9b4b8d"/><stop offset="1" stop-color="#a14b8a"/></linearGradient><circle fill="url(#k)" cx="709.314" cy="315.096" r="77.472"/><g fill="#FFF"><path d="M714.467 275.99c1.109-.045 2.166.268 3.154.797 1.045.559 2.063 1.152 3.031 1.846.902.643 1.851 1.213 3.021 1.229a3.324 3.324 0 0 0 2.104-.678c.317-.232.458-.191.641.157 1.825 3.519 3.658 7.025 5.506 10.531.523.996 1.104 1.963 1.657 2.942.605 1.076.549 1.754-.308 2.646a660.383 660.383 0 0 1-4.875 5.028c-.521.531-.574.521-1.063-.006-4.611-5.094-9.229-10.18-13.842-15.274-1.426-1.582-1.699-1.617-3.593-.601-2.646 1.418-5.313 2.804-7.973 4.201-.672.354-1.378.596-2.148.555-.942-.047-1.641-.61-1.816-1.555-.21-1.055.026-2.02.908-2.684 3.872-2.918 7.707-5.896 12.026-8.162 1.116-.576 2.263-1.009 3.57-.972zm26.513 15.278c.049.442-.174.791-.523.989-1.113.615-2.2 1.296-3.405 1.724-.772.272-1.198.1-1.585-.646-.854-1.627-1.697-3.265-2.543-4.897-1.659-3.215-3.325-6.437-4.984-9.65-.806-1.559-.691-1.908.854-2.748.66-.355 1.326-.704 1.996-1.041 1.264-.641 1.742-.49 2.392.756 1.44 2.768 2.869 5.533 4.299 8.301a1073.24 1073.24 0 0 1 3.202 6.203c.163.313.334.628.297 1.009zm-61.688.39c-.048-.242.055-.488.146-.732 1.913-5.107 3.826-10.215 5.742-15.314.455-1.209.945-1.428 2.169-1.004.813.285 1.635.543 2.438.855.988.383 1.185.787.822 1.791-.739 2.063-1.519 4.111-2.283 6.168-1.167 3.143-2.344 6.279-3.493 9.432-.207.568-.601.938-1.027 1.303-.146.121-.268.093-.413.043-1.093-.396-2.193-.762-3.271-1.192-.627-.258-.846-.695-.83-1.35z"/><path d="M686.407 293.49c-.022-.449.146-.811.285-1.178 1.754-4.662 3.514-9.324 5.274-13.984.134-.363.269-.742.532-1.045.604-.686 1.461-.717 2.104-.02.787.854 1.714 1.344 2.895 1.219.678-.07 1.31-.316 1.913-.625 1.188-.604 2.354-1.252 3.559-1.818 1.41-.666 2.886-.965 4.407-.355.157.063.313.131.459.215.281.15.7.318.669.613-.04.344-.456.498-.797.633-.282.109-.59.133-.886.07-1.35-.275-2.619-.039-3.823.57-.892.445-1.751.949-2.631 1.402-1.478.758-3.001 1.186-4.66.664a5.024 5.024 0 0 1-1.677-.896c-.376-.313-.559-.293-.737.205a1995.506 1995.506 0 0 1-4.294 11.529c-.242.647-.518 1.287-.771 1.932-.229.574-.149 1.078.291 1.549 1.171 1.252 2.31 2.533 3.481 3.773.287.309.287.479-.003.771-.794.806-.773.815-1.534-.043a1145.491 1145.491 0 0 0-3.591-4.063c-.283-.335-.536-.678-.465-1.118zm27.149 19.109c.26-1.19.611-1.489 1.729-1.463a1.32 1.32 0 0 0 .932-.336c1.064-.896 1.263-2.477.378-3.539-1.218-1.461-2.438-2.918-3.746-4.297-.547-.573-.311-1.146-.313-1.733 0-.191.188-.15.305-.125.386.088.74.205 1.025.526a552.107 552.107 0 0 0 4.335 4.828c.269.293.538.588.84.84.764.65 1.609.777 2.278.373.809-.492 1.286-1.57 1.102-2.473-.117-.546-.339-1.035-.715-1.447-1.396-1.549-2.768-3.129-4.205-4.642-.495-.522-.489-1.061-.287-1.604.199-.524.636-.082.962-.084.108 0 .236.168.345.274 1.604 1.794 3.204 3.597 4.813 5.39.236.267.473.535.74.771 1.136 1.027 2.175.94 3.107-.271.421-.537.834-1.063 1.375-1.48.349-.272.404-.156.453.197.281 2.021-1.142 3.771-3.233 3.709-1.164-.031-1.854.328-2.313 1.334-.147.32-.396.603-.611.877-1.03 1.336-1.937 1.636-3.548 1.105-.44-.146-.587-.084-.721.377-.373 1.311-.993 2.451-2.448 2.844-.857.237-1.714.018-2.579.049zm-10.218-1.445c-1.229.006-2.241-1.205-2.173-2.523.04-.703.285-1.313.789-1.813 1.491-1.48 3.074-2.877 4.657-4.264 1.122-.974 2.567-.603 3.334.68.733 1.242.156 2.223-.604 3.073-1.427 1.605-3.077 2.98-4.721 4.355-.37.314-.827.521-1.282.492zm-.658-11.987c1.771.054 2.272.914 2.423 2.342.068.664-.482 1.367-.979 1.908-1.093 1.199-2.32 2.267-3.569 3.289-1.06.865-2.102.803-2.916-.072-.879-.938-.974-2.452-.149-3.344a33.059 33.059 0 0 1 4.168-3.799 1.605 1.605 0 0 1 1.022-.324z"/><path d="M709.137 314.091c-1.082-.014-1.665-.506-2.068-1.231-.407-.722-.481-1.453.021-2.177.823-1.178 1.733-2.271 2.876-3.153.905-.697 1.818-.625 2.596.217.367.396.59.865.732 1.377.091.322.021.604-.107.914-.6 1.418-1.651 2.455-2.76 3.451-.413.365-.894.626-1.29.602zm-17.198-12.185c-.022-.959.33-1.65 1.02-2.176.238-.18.483-.357.737-.521.938-.611 1.768-.578 2.604.09.771.609 1.063 1.639.729 2.592-.381 1.109-1.901 2.336-2.938 2.355-1.247.031-2.152-.989-2.152-2.34z"/></g><path fill="#FFF" d="M711.533 177.724h-1.002v3.032h-2.109v-9.229h3.691a3.158 3.158 0 0 1 3.164 3.15v.014c0 1.134-.688 2.162-1.7 2.677l1.964 3.388h-2.268l-1.74-3.032zm-1.002-1.846h1.582c.58 0 1.055-.514 1.055-1.187 0-.672-.475-1.187-1.055-1.187h-1.582v2.374zm11.797 2.848v2.03h-5.801v-9.229h5.731v2.03h-3.626v1.529h3.296v2.004h-3.296v1.635l3.696.001zm.526-7.199h2.218l1.595 6.46 1.78-6.46h1.714l1.775 6.46 1.6-6.46h2.215l-2.545 9.229h-2.398l-1.504-5.444-1.502 5.444h-2.4l-2.548-9.229zm18.688 7.779h-3.428l-.462 1.45h-2.311l3.142-9.229h2.688l3.139 9.229h-2.308l-.46-1.45zm-.632-1.978l-1.081-3.388-1.081 3.388h2.162zm7.3.396h-1.002v3.032h-2.109v-9.229h3.691a3.158 3.158 0 0 1 3.164 3.15v.014c0 1.134-.688 2.162-1.7 2.677l1.964 3.388h-2.268l-1.74-3.032zm-1.002-1.846h1.582c.58 0 1.055-.514 1.055-1.187 0-.672-.475-1.187-1.055-1.187h-1.582v2.374zm14.17.264c0 2.61-1.938 4.614-4.481 4.614h-3.688v-9.229h3.688c2.542 0 4.481 2.004 4.481 4.615zm-2.03 0c0-1.582-1.002-2.584-2.449-2.584h-1.581v5.168h1.581c1.447 0 2.449-1.002 2.449-2.584zm6.047 2.518l1.82-1.055c.329.765.896 1.278 1.938 1.278 1.002 0 1.252-.396 1.252-.751 0-.567-.527-.791-1.911-1.174-1.371-.382-2.716-1.041-2.716-2.808 0-1.78 1.503-2.809 3.098-2.809 1.517 0 2.703.726 3.375 2.083l-1.779 1.042c-.313-.659-.752-1.068-1.596-1.068-.658 0-.988.33-.988.699 0 .422.229.712 1.661 1.146 1.397.422 2.966.91 2.966 2.861 0 1.779-1.424 2.834-3.428 2.834-1.938.002-3.177-.92-3.692-2.278zm12.193-1.45v3.546h-2.109v-3.546l-3.099-5.683h2.399l1.754 3.56 1.753-3.56h2.396l-3.094 5.683zm2.899 1.45l1.814-1.055c.33.765.896 1.278 1.938 1.278 1.002 0 1.253-.396 1.253-.751 0-.567-.527-.791-1.912-1.174-1.371-.382-2.716-1.041-2.716-2.808 0-1.78 1.503-2.809 3.099-2.809 1.519 0 2.702.726 3.375 2.083l-1.78 1.042c-.313-.659-.751-1.068-1.595-1.068-.66 0-.989.33-.989.699 0 .422.228.712 1.661 1.146 1.397.422 2.968.91 2.968 2.861 0 1.779-1.425 2.834-3.429 2.834-1.934.002-3.174-.92-3.687-2.278zm14.036-5.102h-2.373v7.198h-2.108v-7.198h-2.373v-2.03h6.854v2.03zm6.723 5.168v2.03h-5.801v-9.229h5.731v2.03h-3.626v1.529h3.296v2.004h-3.296v1.635l3.696.001zm10.413 2.03h-2.109v-5.365l-2.387 3.915h-.236l-2.387-3.915v5.365h-2.109v-9.229h2.109l2.505 4.101 2.505-4.101h2.109v9.229z"/><g fill="#FFF"><path d="M715.277 72.132c0 1.635-1.331 2.702-2.979 2.702h-3.876v-9.229h3.612c1.604 0 2.914 1.042 2.914 2.637 0 .765-.308 1.371-.809 1.807.69.434 1.138 1.146 1.138 2.083zm-4.746-4.549v1.635h1.503c.475 0 .805-.343.805-.817s-.313-.817-.805-.817l-1.503-.001zm2.636 4.391c0-.515-.343-.884-.87-.884h-1.767v1.767h1.767c.528-.001.87-.37.87-.883zm8.567.83v2.03h-5.405v-9.229h2.105v7.198h3.3v.001zm-.001-2.584c0-2.716 2.146-4.799 4.799-4.799 2.647 0 4.799 2.083 4.799 4.799s-2.148 4.799-4.799 4.799c-2.651 0-4.799-2.083-4.799-4.799zm7.488 0c0-1.646-1.187-2.742-2.688-2.742s-2.689 1.095-2.689 2.742c0 1.648 1.188 2.742 2.689 2.742s2.688-1.094 2.688-2.742zm2.897 0c0-2.716 2.018-4.799 4.799-4.799 1.674 0 3.15.831 3.955 2.136l-1.819 1.055c-.408-.712-1.196-1.134-2.136-1.134-1.635 0-2.688 1.095-2.688 2.742 0 1.648 1.055 2.742 2.688 2.742.938 0 1.74-.422 2.136-1.134l1.819 1.055c-.791 1.306-2.269 2.136-3.955 2.136-2.782 0-4.799-2.083-4.799-4.799zm14.802 4.614l-2.953-4.271v4.271h-2.105v-9.229h2.105v4.008l2.821-4.008h2.396l-3.107 4.496 3.243 4.732-2.4.001z"/><path d="M748.921 70.22c0-2.716 2.021-4.799 4.799-4.799 1.675 0 3.151.831 3.955 2.136l-1.815 1.055c-.408-.712-1.199-1.134-2.14-1.134-1.635 0-2.688 1.095-2.688 2.742 0 1.648 1.055 2.742 2.688 2.742.938 0 1.74-.422 2.14-1.134l1.815 1.055c-.791 1.306-2.268 2.136-3.955 2.136-2.782 0-4.799-2.083-4.799-4.799zm16.86-4.615v9.229h-2.109v-3.665h-2.9v3.665h-2.105v-9.229h2.105v3.533h2.9v-3.533h2.109zm6.984 7.779h-3.428l-.462 1.45h-2.307l3.138-9.229h2.689l3.138 9.229h-2.307l-.461-1.45zm-.633-1.978l-1.081-3.388-1.081 3.388h2.162zm6.299-5.801v9.229h-2.105v-9.229h2.105zm8.832 0v9.229h-1.582l-3.56-5.01v5.01h-2.109v-9.229h1.582l3.563 5.01v-5.01h2.106z"/></g><g fill="#FFF"><path d="M717.648 21.684h-2.109v-5.365l-2.386 3.915h-.238l-2.386-3.915v5.365h-2.109v-9.229h2.109l2.505 4.101 2.505-4.101h2.109v9.229zm.854-2.98v-6.249h2.109v6.064c0 .699.329 1.292 1.445 1.292 1.121 0 1.451-.593 1.451-1.292v-6.064h2.109v6.249c0 1.978-1.529 3.164-3.563 3.164-2.021 0-3.551-1.186-3.551-3.164zm13.378.949v2.03h-5.405v-9.229h2.109v7.198l3.296.001zm5.537-5.168h-2.373v7.198h-2.109v-7.198h-2.372v-2.03h6.854v2.03zm2.37-2.03v9.229h-2.109v-9.229h2.109zm8.963 7.198v2.03h-5.405v-9.229h2.109v7.198l3.296.001zm6.063 0v2.03h-5.801v-9.229h5.734v2.03h-3.625v1.529h3.296v2.004h-3.296v1.635l3.692.001z"/><path d="M754.547 12.455h2.307l2.048 6.79 2.044-6.79h2.307l-3.006 9.229h-2.689l-3.011-9.229zm14.631 7.198v2.03h-5.801v-9.229h5.734v2.03h-3.625v1.529h3.296v2.004h-3.296v1.635l3.692.001zm5.931 0v2.03h-5.405v-9.229h2.105v7.198l3.3.001zm2.106-7.198h2.311l2.044 6.79 2.044-6.79h2.307l-3.006 9.229h-2.689l-3.011-9.229zm14.632 7.198v2.03h-5.801v-9.229h5.735v2.03h-3.626v1.529h3.296v2.004h-3.296v1.635l3.692.001zm3.636-1.002h-1.003v3.032h-2.108v-9.229h3.69a3.154 3.154 0 0 1 3.161 3.147v.017c0 1.134-.686 2.162-1.697 2.677l1.965 3.388h-2.271l-1.737-3.032zm-1.002-1.845h1.581c.577 0 1.056-.514 1.056-1.187 0-.672-.479-1.187-1.056-1.187h-1.581v2.374zm7.446-4.351v9.229h-2.105v-9.229h2.105zm3.031 2.03v1.78h3.428v2.03h-3.428v3.388h-2.109v-9.229h5.604v2.03l-3.495.001zm6.195-2.03v9.229h-2.109v-9.229h2.109zm.526 4.614c0-2.716 2.021-4.799 4.8-4.799 1.678 0 3.15.831 3.954 2.136l-1.815 1.055c-.408-.712-1.199-1.134-2.139-1.134-1.636 0-2.688 1.095-2.688 2.742 0 1.648 1.055 2.742 2.688 2.742.938 0 1.739-.422 2.139-1.134l1.815 1.055c-.791 1.306-2.268 2.136-3.954 2.136-2.783 0-4.8-2.083-4.8-4.799zm14.487 3.164h-3.428l-.462 1.45h-2.311l3.142-9.229h2.688l3.139 9.229h-2.308l-.46-1.45zm-.633-1.977l-1.081-3.388-1.081 3.388h2.162zm9.069-3.771h-2.373v7.198h-2.106v-7.198h-2.373v-2.03h6.854v2.03h-.002zm2.37-2.03v9.229h-2.105v-9.229h2.105zm.527 4.614c0-2.716 2.147-4.799 4.799-4.799 2.652 0 4.799 2.083 4.799 4.799s-2.146 4.799-4.799 4.799c-2.652 0-4.799-2.083-4.799-4.799zm7.488 0c0-1.647-1.188-2.742-2.689-2.742s-2.688 1.095-2.688 2.742c0 1.648 1.188 2.742 2.688 2.742s2.689-1.093 2.689-2.742zm9.884-4.614v9.229h-1.582l-3.561-5.01v5.01h-2.108v-9.229h1.582l3.56 5.01v-5.01h2.109z"/></g><path fill="#FFF" d="M716.595 122.533c0 2.61-1.938 4.614-4.479 4.614h-3.691v-9.229h3.691c2.541.001 4.479 2.005 4.479 4.615zm-2.031 0c0-1.582-1.004-2.584-2.451-2.584h-1.582v5.168h1.582c1.45 0 2.451-1.002 2.451-2.584zm9.016 2.584v2.03h-5.801v-9.229h5.731v2.03h-3.626v1.529h3.296v2.004h-3.296v1.635l3.696.001zm.722-2.584c0-2.716 2.021-4.799 4.799-4.799 1.679 0 3.151.831 3.955 2.136l-1.815 1.055c-.408-.712-1.199-1.134-2.139-1.134-1.636 0-2.688 1.095-2.688 2.742 0 1.648 1.055 2.742 2.688 2.742.938 0 1.739-.422 2.139-1.134l1.815 1.055c-.791 1.306-2.268 2.136-3.955 2.136-2.782 0-4.799-2.083-4.799-4.799zm15.541 2.584v2.03h-5.801v-9.229h5.735v2.03h-3.626v1.529h3.296v2.004h-3.296v1.635l3.692.001zm8.436-7.198v9.229h-1.582l-3.563-5.01v5.01h-2.105v-9.229h1.582l3.56 5.01v-5.01h2.108zm7.775 2.03h-2.373v7.198h-2.105v-7.198H749.2v-2.03h6.854v2.03zm4.031 4.166h-1.002v3.032h-2.109v-9.229h3.691a3.157 3.157 0 0 1 3.164 3.15v.014c0 1.134-.688 2.162-1.7 2.677l1.964 3.388h-2.268l-1.74-3.032zm-1.002-1.845h1.582c.58 0 1.055-.514 1.055-1.187 0-.672-.475-1.187-1.055-1.187h-1.582v2.374zm11.402 3.427h-3.432l-.461 1.45h-2.308l3.138-9.229h2.689l3.138 9.229h-2.308l-.456-1.45zm-.633-1.977l-1.08-3.388-1.079 3.388h2.159zm9.595 1.397v2.03h-5.405v-9.229h2.108v7.198l3.297.001zm3.03-7.198v9.229h-2.105v-9.229h2.105zm7.58 7.198v2.03h-6.328v-1.635l3.533-5.563h-3.468v-2.03h6.196v1.635l-3.533 5.563h3.6zm6.589.58h-3.431l-.462 1.45h-2.307l3.138-9.229h2.689l3.138 9.229h-2.307l-.458-1.45zm-.633-1.977l-1.081-3.388-1.081 3.388h2.162zm9.727-3.771h-2.373v7.198h-2.109v-7.198h-2.373v-2.03h6.855v2.03zm3.03-2.03v9.229h-2.105v-9.229h2.105zm1.186 4.614c0-2.716 2.146-4.799 4.799-4.799s4.799 2.083 4.799 4.799-2.146 4.799-4.799 4.799-4.799-2.083-4.799-4.799zm7.488 0c0-1.647-1.188-2.742-2.689-2.742s-2.688 1.095-2.688 2.742c0 1.648 1.188 2.742 2.688 2.742s2.689-1.093 2.689-2.742zm10.543-4.614v9.229h-1.582l-3.563-5.01v5.01h-2.105v-9.229h1.582l3.56 5.01v-5.01h2.108z"/><path opacity=".25" d="M669.907 17.736c0 7.811 6.331 14.14 14.144 14.14 7.81 0 14.139-6.329 14.139-14.14 0-7.809-6.329-14.139-14.139-14.139-7.813 0-14.144 6.33-14.144 14.139zm0 52.599c0 7.812 6.331 14.141 14.144 14.141 7.81 0 14.139-6.329 14.139-14.141 0-7.809-6.329-14.138-14.139-14.138-7.813 0-14.144 6.329-14.144 14.138zm0 52.564c0 7.812 6.331 14.141 14.144 14.141 7.81 0 14.139-6.329 14.139-14.141 0-7.809-6.329-14.141-14.139-14.141-7.813 0-14.144 6.332-14.144 14.141zm0 52.565c0 7.809 6.331 14.138 14.144 14.138 7.81 0 14.139-6.329 14.139-14.138 0-7.812-6.329-14.14-14.139-14.14-7.813 0-14.144 6.328-14.144 14.14z"/><path fill="#FFF" d="M689.271 183.991c-.979.544-2.64 1.088-4.471 1.088-2.804 0-5.378-1.147-6.979-3.266-.774-.971-1.351-2.204-1.604-3.718h-1.855v-2.033h1.57v-.484c0-.285.025-.572.025-.86h-1.6v-2.033h1.919c.37-1.543 1.056-2.861 1.973-3.917 1.632-1.833 3.918-2.918 6.608-2.918 1.748 0 3.265.398 4.293.857l-.8 3.263c-.743-.316-1.916-.689-3.182-.689-1.372 0-2.631.461-3.519 1.546-.401.458-.719 1.119-.914 1.859h7.123v2.033h-7.554c-.03.288-.03.601-.03.888v.456h7.584v2.033h-7.186c.201.86.518 1.515.944 2.004.916 1.031 2.26 1.458 3.691 1.458 1.313 0 2.654-.427 3.261-.743l.703 3.176zm5.555-171.147l-3.349-3.349-9.855 9.849-5.253-5.256-3.353 3.348 5.258 5.26-.008.007 3.354 3.348v-.006l.008.006 3.352-3.348-.007-.007 9.853-9.852zm-12.165 59.615c1.057-.809 2.081-1.633 3.151-2.4.48-.345.73-.638.521-1.29-.134-.41.025-.907.04-1.366.005-.111-.003-.276-.077-.331-1.372-1.067-2.753-2.124-4.131-3.183-.814.546-1.663.658-2.548.245a2.43 2.43 0 0 1-1.226-3.058c.447-1.185 1.748-1.825 2.976-1.469 1.199.346 1.95 1.604 1.688 2.828-.027.152-.063.273.101.393 1.35 1.026 2.692 2.063 4.063 3.11.798-.743 1.74-1.059 2.819-.903a3.15 3.15 0 0 1 1.952 1.093 3.267 3.267 0 0 1-.022 4.283c-.979 1.116-2.938 1.642-4.632.288-1.253.959-2.509 1.926-3.781 2.897.621 1.258.703 2.534.16 3.821a4.225 4.225 0 0 1-2.093 2.2 4.376 4.376 0 0 1-6.034-6.336 4.36 4.36 0 0 1 1.09-.759c1.501-1.434 4.049-1.734 5.983-.063zm1.359 56.309l-6.069-6.07 6.069-6.072 6.07 6.07-6.07 6.072zm.03-17.06l-3.881 3.88h7.761l-3.88-3.88zm0 21.921l3.88-3.882h-7.761l3.881 3.882zm7.077-14.841v7.763l3.883-3.883-3.883-3.88zm-14.155 7.763v-7.763l-3.883 3.88 3.883 3.883z"/><linearGradient id="l" gradientUnits="userSpaceOnUse" x1="-576" y1="230.944" x2="-367.908" y2="230.944" gradientTransform="translate(576 -159.509)"><stop offset="0" stop-color="#a14b8a"/><stop offset="1" stop-color="#4b48bf"/></linearGradient><path fill="url(#l)" d="M208.092 71.435c0 10.269-8.324 18.589-18.587 18.589H18.591C8.325 90.023 0 81.703 0 71.435c0-10.269 8.325-18.589 18.591-18.589h170.914c10.263-.001 18.587 8.32 18.587 18.589z"/><linearGradient id="m" gradientUnits="userSpaceOnUse" x1="-576" y1="283.506" x2="-367.908" y2="283.506" gradientTransform="translate(576 -159.509)"><stop offset="0" stop-color="#a14b8a"/><stop offset="1" stop-color="#4b48bf"/></linearGradient><path fill="url(#m)" d="M208.092 124c0 10.265-8.324 18.588-18.587 18.588H18.591C8.325 142.588 0 134.265 0 124c0-10.266 8.325-18.593 18.591-18.593h170.914c10.263 0 18.587 8.327 18.587 18.593z"/><linearGradient id="n" gradientUnits="userSpaceOnUse" x1="-576" y1="336.07" x2="-367.908" y2="336.07" gradientTransform="translate(576 -159.509)"><stop offset="0" stop-color="#a14b8a"/><stop offset="1" stop-color="#4b48bf"/></linearGradient><path fill="url(#n)" d="M208.092 176.561c0 10.266-8.324 18.59-18.587 18.59H18.591C8.325 195.151 0 186.827 0 176.561c0-10.267 8.325-18.59 18.591-18.59h170.914c10.263 0 18.587 8.323 18.587 18.59z"/><linearGradient id="o" gradientUnits="userSpaceOnUse" x1="-576" y1="178.381" x2="-367.908" y2="178.381" gradientTransform="translate(576 -159.509)"><stop offset="0" stop-color="#a14b8a"/><stop offset="1" stop-color="#4b48bf"/></linearGradient><path fill="url(#o)" d="M208.092 18.871c0 10.266-8.324 18.591-18.587 18.591H18.591C8.325 37.462 0 29.137 0 18.871S8.325.282 18.591.282h170.914c10.263 0 18.587 8.323 18.587 18.589z"/><path fill="#FFF" d="M105.694 177.239c0-2.716 2.149-4.799 4.799-4.799 2.65 0 4.799 2.083 4.799 4.799s-2.149 4.799-4.799 4.799c-2.65 0-4.799-2.083-4.799-4.799zm7.489 0c0-1.647-1.187-2.742-2.689-2.742s-2.689 1.095-2.689 2.742c0 1.648 1.187 2.742 2.689 2.742s2.689-1.093 2.689-2.742zm5.401-2.584v1.78h3.428v2.03h-3.428v3.388h-2.109v-9.229h5.603v2.03l-3.494.001zm6.854 0v1.78h3.428v2.03h-3.428v3.388h-2.109v-9.229h5.603v2.03l-3.494.001zm6.853-2.03v9.229h-2.109v-9.229h2.109zm1.185 4.614c0-2.716 2.017-4.799 4.799-4.799 1.674 0 3.151.831 3.955 2.136l-1.819 1.055c-.409-.712-1.2-1.134-2.136-1.134-1.635 0-2.689 1.095-2.689 2.742 0 1.648 1.055 2.742 2.689 2.742.936 0 1.74-.422 2.136-1.134l1.819 1.055c-.791 1.306-2.268 2.136-3.955 2.136-2.782 0-4.799-2.083-4.799-4.799zm15.541 2.584v2.03h-5.801v-9.229h5.735v2.03h-3.625v1.529h3.296v2.004h-3.296v1.635h3.691v.001zm4.296-1.002h-1.002v3.032h-2.109v-9.229h3.691a3.156 3.156 0 0 1 3.164 3.15v.014c0 1.134-.686 2.162-1.701 2.677l1.964 3.388h-2.268l-1.739-3.032zm-1.002-1.845h1.582c.58 0 1.055-.514 1.055-1.187 0-.672-.475-1.187-1.055-1.187h-1.582v2.374zm5.402 2.782l1.819-1.055c.33.765.896 1.278 1.938 1.278 1.002 0 1.252-.396 1.252-.751 0-.567-.527-.791-1.912-1.174-1.371-.382-2.716-1.041-2.716-2.808 0-1.78 1.503-2.809 3.098-2.809 1.516 0 2.703.726 3.375 2.083l-1.78 1.042c-.316-.659-.751-1.068-1.595-1.068-.659 0-.989.33-.989.699 0 .422.224.712 1.661 1.146 1.396.422 2.966.91 2.966 2.861 0 1.779-1.424 2.834-3.428 2.834-1.935.002-3.174-.921-3.689-2.278zM58.514 69.868c0 1.754-1.411 3.164-3.23 3.164H53.9v2.9h-2.109v-9.229h3.494c1.819.001 3.229 1.412 3.229 3.165zm-2.109 0c0-.672-.475-1.187-1.121-1.187H53.9v2.373h1.384c.646.001 1.121-.513 1.121-1.186zm6.273 3.032h-1.002v3.032h-2.109v-9.229h3.691a3.156 3.156 0 0 1 3.164 3.15v.014c0 1.134-.686 2.162-1.701 2.677l1.964 3.388h-2.268L62.678 72.9zm-1.002-1.845h1.582c.58 0 1.055-.514 1.055-1.187 0-.672-.475-1.187-1.055-1.187h-1.582v2.374zm5.469.263c0-2.716 2.149-4.799 4.799-4.799s4.799 2.083 4.799 4.799-2.149 4.799-4.799 4.799-4.799-2.083-4.799-4.799zm7.488 0c0-1.647-1.187-2.742-2.689-2.742s-2.689 1.095-2.689 2.742c0 1.648 1.187 2.742 2.689 2.742s2.689-1.093 2.689-2.742zm1.974 3.006l1.833-1.055c.29.515.593.791 1.305.791.923 0 1.2-.527 1.2-1.094v-6.263h2.109v6.263c0 2.03-1.424 3.15-3.322 3.15-1.463.001-2.518-.618-3.125-1.792zm13.762-.422v2.03h-5.801v-9.229h5.735v2.03h-3.625v1.529h3.296v2.004h-3.296v1.635l3.691.001zm.723-2.584c0-2.716 2.017-4.799 4.799-4.799 1.674 0 3.151.831 3.955 2.136l-1.819 1.055c-.409-.712-1.2-1.134-2.136-1.134-1.635 0-2.689 1.095-2.689 2.742 0 1.648 1.055 2.742 2.689 2.742.936 0 1.74-.422 2.136-1.134l1.819 1.055c-.791 1.306-2.268 2.136-3.955 2.136-2.782 0-4.799-2.083-4.799-4.799zm15.936-2.584h-2.373v7.198h-2.109v-7.198h-2.373v-2.03h6.855v2.03zm3.82 2.584c0-2.716 2.149-4.799 4.799-4.799s4.799 2.083 4.799 4.799-2.149 4.799-4.799 4.799-4.799-2.083-4.799-4.799zm7.488 0c0-1.647-1.187-2.742-2.689-2.742s-2.689 1.095-2.689 2.742c0 1.648 1.187 2.742 2.689 2.742s2.689-1.093 2.689-2.742zm2.238-4.614h2.215l1.595 6.46 1.78-6.46h1.714l1.78 6.46 1.595-6.46h2.215l-2.544 9.229h-2.399l-1.503-5.444-1.503 5.444h-2.399l-2.546-9.229zm21.063 0v9.229h-1.582l-3.56-5.01v5.01h-2.109v-9.229h1.582l3.56 5.01v-5.01h2.109zm7.38 7.198v2.03h-5.801v-9.229h5.735v2.03h-3.625v1.529h3.296v2.004h-3.296v1.635l3.691.001zm4.296-1.002h-1.002v3.032h-2.109v-9.229h3.691a3.156 3.156 0 0 1 3.164 3.15v.014c0 1.134-.686 2.162-1.701 2.677l1.964 3.388h-2.268l-1.739-3.032zm-1.002-1.845h1.582c.58 0 1.055-.514 1.055-1.187 0-.672-.475-1.187-1.055-1.187h-1.582v2.374zm5.402 2.782l1.819-1.055c.33.765.896 1.278 1.938 1.278 1.002 0 1.252-.396 1.252-.751 0-.567-.527-.791-1.912-1.174-1.371-.382-2.716-1.041-2.716-2.808 0-1.78 1.503-2.809 3.098-2.809 1.516 0 2.703.726 3.375 2.083l-1.78 1.042c-.316-.659-.751-1.068-1.595-1.068-.659 0-.989.33-.989.699 0 .422.224.712 1.661 1.146 1.396.422 2.966.91 2.966 2.861 0 1.779-1.424 2.834-3.428 2.834-1.935.002-3.174-.921-3.689-2.278zm-57.962 46.282v9.229h-2.109v-9.229h2.109zm8.832 0v9.229h-1.582l-3.56-5.01v5.01h-2.109v-9.229h1.582l3.56 5.01v-5.01h2.109zm.789 0h2.307l2.043 6.79 2.043-6.79h2.307l-3.006 9.229h-2.689l-3.005-9.229zm15.29 7.198v2.03h-5.801v-9.229h5.735v2.03h-3.625v1.529h3.296v2.004h-3.296v1.635l3.691.001zm.723-.065l1.819-1.055c.33.765.896 1.278 1.938 1.278 1.002 0 1.252-.396 1.252-.751 0-.567-.527-.791-1.912-1.174-1.371-.382-2.716-1.041-2.716-2.808 0-1.78 1.503-2.809 3.098-2.809 1.516 0 2.703.726 3.375 2.083l-1.78 1.042c-.316-.659-.751-1.068-1.595-1.068-.659 0-.989.33-.989.699 0 .422.224.712 1.661 1.146 1.397.422 2.966.91 2.966 2.861 0 1.779-1.424 2.834-3.428 2.834-1.936.002-3.175-.921-3.689-2.278zm14.038-5.103h-2.373v7.198h-2.109v-7.198h-2.373v-2.03h6.855v2.03zm-.002 2.584c0-2.716 2.149-4.799 4.799-4.799 2.65 0 4.799 2.083 4.799 4.799s-2.149 4.799-4.799 4.799c-2.65 0-4.799-2.083-4.799-4.799zm7.488 0c0-1.647-1.187-2.742-2.689-2.742s-2.689 1.095-2.689 2.742c0 1.648 1.187 2.742 2.689 2.742s2.689-1.093 2.689-2.742zm6.404 1.582h-1.002v3.032h-2.109v-9.229h3.691a3.156 3.156 0 0 1 3.164 3.15v.014c0 1.134-.686 2.162-1.701 2.677l1.964 3.388h-2.268l-1.739-3.032zm-1.002-1.845h1.582c.58 0 1.055-.514 1.055-1.187 0-.672-.475-1.187-1.055-1.187h-1.582v2.374zm5.403 2.782l1.819-1.055c.33.765.896 1.278 1.938 1.278 1.002 0 1.252-.396 1.252-.751 0-.567-.527-.791-1.912-1.174-1.371-.382-2.716-1.041-2.716-2.808 0-1.78 1.503-2.809 3.098-2.809 1.516 0 2.703.726 3.375 2.083l-1.78 1.042c-.316-.659-.751-1.068-1.595-1.068-.659 0-.989.33-.989.699 0 .422.224.712 1.661 1.146 1.397.422 2.966.91 2.966 2.861 0 1.779-1.424 2.834-3.428 2.834-1.936.002-3.175-.921-3.689-2.278zM80.021 20.082l1.819-1.055c.33.765.896 1.278 1.938 1.278 1.002 0 1.252-.396 1.252-.751 0-.567-.527-.791-1.912-1.174-1.371-.382-2.716-1.041-2.716-2.808 0-1.78 1.503-2.809 3.098-2.809 1.516 0 2.703.726 3.375 2.083l-1.78 1.042c-.316-.659-.751-1.068-1.595-1.068-.659 0-.989.33-.989.699 0 .422.224.712 1.661 1.146 1.397.422 2.966.91 2.966 2.861 0 1.779-1.424 2.834-3.428 2.834-1.936.002-3.175-.921-3.689-2.278zm10.214-7.133v9.229h-2.109v-9.229h2.109zm10.81 9.229h-2.109v-5.365l-2.386 3.915h-.237l-2.386-3.915v5.365h-2.109v-9.229h2.109l2.505 4.101 2.505-4.101h2.109l-.001 9.229zm8.302-6.065c0 1.754-1.411 3.164-3.23 3.164h-1.384v2.9h-2.109v-9.229h3.494c1.819.001 3.229 1.412 3.229 3.165zm-2.109 0c0-.672-.475-1.187-1.121-1.187h-1.384V17.3h1.384c.646 0 1.121-.514 1.121-1.187zm8.567 4.034v2.03H110.4v-9.229h2.109v7.198l3.296.001zm6.721 0v2.03h-5.801v-9.229h5.735v2.03h-3.625v1.529h3.296v2.004h-3.296v1.635l3.691.001zm4.413-.949v-6.249h2.109v6.064c0 .699.33 1.292 1.45 1.292s1.45-.593 1.45-1.292v-6.064h2.109v6.249c0 1.978-1.529 3.164-3.56 3.164s-3.558-1.186-3.558-3.164zm8.171.884l1.819-1.055c.33.765.896 1.278 1.938 1.278 1.002 0 1.252-.396 1.252-.751 0-.567-.527-.791-1.912-1.174-1.371-.382-2.716-1.041-2.716-2.808 0-1.78 1.503-2.809 3.098-2.809 1.516 0 2.703.726 3.375 2.083l-1.78 1.042c-.316-.659-.751-1.068-1.595-1.068-.659 0-.989.33-.989.699 0 .422.224.712 1.661 1.146 1.397.422 2.966.91 2.966 2.861 0 1.779-1.424 2.834-3.428 2.834-1.935.002-3.174-.921-3.689-2.278zm13.907.065v2.03h-5.801v-9.229h5.735v2.03h-3.625v1.529h3.296v2.004h-3.296v1.635l3.691.001zm4.296-1.001h-1.002v3.032h-2.109v-9.229h3.691a3.156 3.156 0 0 1 3.164 3.15v.014c0 1.134-.686 2.162-1.701 2.677l1.964 3.388h-2.268l-1.739-3.032zm-1.002-1.846h1.582c.58 0 1.055-.514 1.055-1.187 0-.672-.475-1.187-1.055-1.187h-1.582V17.3zm5.402 2.782l1.819-1.055c.33.765.896 1.278 1.938 1.278 1.002 0 1.252-.396 1.252-.751 0-.567-.527-.791-1.912-1.174-1.371-.382-2.716-1.041-2.716-2.808 0-1.78 1.503-2.809 3.098-2.809 1.516 0 2.703.726 3.375 2.083l-1.78 1.042c-.316-.659-.751-1.068-1.595-1.068-.659 0-.989.33-.989.699 0 .422.224.712 1.661 1.146 1.396.422 2.966.91 2.966 2.861 0 1.779-1.424 2.834-3.428 2.834-1.935.002-3.174-.921-3.689-2.278z"/><path opacity=".25" d="M202.814 18.835c0 7.811-6.329 14.139-14.138 14.139s-14.144-6.329-14.144-14.139c0-7.809 6.334-14.141 14.144-14.141 7.81 0 14.138 6.332 14.138 14.141z"/><circle opacity=".25" cx="188.673" cy="71.435" r="14.141"/><path opacity=".25" d="M202.814 123.998c0 7.81-6.329 14.14-14.138 14.14s-14.144-6.33-14.144-14.14c0-7.809 6.334-14.142 14.144-14.142 7.81 0 14.138 6.332 14.138 14.142z"/><circle opacity=".25" cx="188.673" cy="176.561" r="14.141"/><path fill="#FFF" d="M183.606 28.995v-.353c0-2.838-.012-5.681.003-8.523.011-2.588 1.628-4.584 4.125-5.118 2.115-.448 4.436.651 5.446 2.575.427.81.604 1.666.601 2.58-.017 2.813-.003 5.63-.003 8.444v.396l-10.172-.001zm8.336-18.172c-.012 1.768-1.486 3.214-3.271 3.2s-3.208-1.469-3.197-3.265c.014-1.796 1.478-3.254 3.245-3.231 1.802.022 3.228 1.479 3.223 3.296zm4.708 169.353a.98.98 0 0 0-.495.131l-2.172-3.715 2.167-3.767a.988.988 0 1 0-.485-.868h-4.33l-1.333-2.306-.834-1.449a.988.988 0 1 0-.986-.001l-.834 1.449-1.335 2.306h-4.333a.982.982 0 0 0-.976-.988h-.003a.99.99 0 1 0 0 1.976.967.967 0 0 0 .492-.134l2.169 3.781-2.161 3.704a.986.986 0 0 0-1.493.849c0 .543.441.985.991.985.532 0 .971-.43.979-.962h4.333l1.335 2.3.834 1.449a.986.986 0 0 0 .492 1.842.987.987 0 0 0 .493-1.842l.834-1.449 1.333-2.3h4.33a.987.987 0 1 0 1.976-.006.985.985 0 0 0-.988-.985c.002 0 .001 0 0 0z"/><circle fill="#333" cx="265.823" cy="18.871" r="6.446"/><path fill="#333" d="M236.069 71.435a6.446 6.446 0 0 1-12.89.006v-.005a6.442 6.442 0 0 1 6.438-6.446h.007a6.442 6.442 0 0 1 6.445 6.445zm0 52.563a6.446 6.446 0 1 1-12.89 0c0-3.56 2.885-6.445 6.445-6.445s6.445 2.885 6.445 6.445z"/><circle fill="#333" cx="265.823" cy="176.561" r="6.446"/><path fill="none" d="M208.092 18.871h51.285"/><path fill="#333" d="M208.092 17.771h51.285v2.197h-51.285v-2.197z"/><path fill="none" d="M207.822 71.435h15.357"/><path fill="#333" d="M207.822 70.338h15.357v2.195h-15.357v-2.195z"/><path fill="none" d="M207.822 123.998h15.357"/><path fill="#333" d="M207.822 122.899h15.357v2.198h-15.357v-2.198z"/><path fill="none" d="M208.092 176.561h51.285"/><path fill="#333" d="M208.092 175.461h51.285v2.198h-51.285v-2.198z"/><path fill="#FFF" d="M190.14 127.329h-2.868v-.729h-8.979v3.845h20.826V126.6h-8.979v.729zm1.591-9.077v-3.33h-6.049v3.33h-7.388v6.782h8.979v-1.741h2.867v1.741h8.979v-6.782h-7.388zm-1.591 0h-2.867v-1.742h2.867v1.742z"/><g fill="#FFF"><path d="M184.785 81.658v-.273c0-2.192-.012-4.386.002-6.577.006-1.996 1.256-3.535 3.18-3.946 1.631-.348 3.422.501 4.202 1.984.333.625.467 1.284.464 1.99-.014 2.169 0 4.339 0 6.511v.31l-7.848.001zm6.428-14.024c-.006 1.366-1.145 2.479-2.522 2.471a2.484 2.484 0 0 1-2.465-2.504v-.016c.008-1.385 1.139-2.511 2.5-2.491a2.511 2.511 0 0 1 2.487 2.535v.005z"/><path d="M197.135 82.502h-16.86V60.368h16.86v22.134zm-15.16-1.695h13.469V62.061h-13.469v18.746z"/></g><path fill="#333" d="M226.766 97.717c0-30.804 14.548-58.251 37.113-75.898v-2.794c-23.854 17.999-39.311 46.573-39.311 78.692 0 32.975 16.305 62.201 41.255 80.096v-2.696c-23.678-17.568-39.057-45.719-39.057-77.4zM606.9 17.336v2.696c23.679 17.568 39.058 45.721 39.058 77.403 0 31.681-15.379 59.832-39.058 77.399v2.696c24.947-17.896 41.256-47.119 41.256-80.096S631.851 35.232 606.9 17.336z"/><linearGradient id="p" gradientUnits="userSpaceOnUse" x1="1177.366" y1="-59.456" x2="1327.665" y2="-59.456" gradientTransform="rotate(90 522.184 -417.559)"><stop offset="0" stop-opacity="0"/><stop offset="1"/></linearGradient><path opacity=".2" fill="url(#p)" d="M239.231 312.777c0-41.504-33.648-75.153-75.149-75.153-41.504 0-75.15 33.647-75.15 75.153 0 41.504 33.646 75.146 75.15 75.146 41.501.004 75.149-33.642 75.149-75.146zm-138.826 0c0-35.17 28.51-63.68 63.677-63.68 35.171 0 63.678 28.51 63.678 63.68 0 35.168-28.507 63.676-63.678 63.676-35.167.002-63.677-28.508-63.677-63.676z"/><linearGradient id="q" gradientUnits="userSpaceOnUse" x1="1316.781" y1="-220.347" x2="1467.081" y2="-220.347" gradientTransform="rotate(90 522.184 -417.559)"><stop offset="0" stop-opacity="0"/><stop offset="1"/></linearGradient><path opacity=".2" fill="url(#q)" d="M400.121 452.191c0-41.504-33.648-75.152-75.15-75.152-41.504 0-75.149 33.648-75.149 75.152s33.645 75.147 75.149 75.147c41.502.003 75.15-33.643 75.15-75.147zm-138.826 0c0-35.168 28.509-63.683 63.676-63.683 35.171 0 63.678 28.515 63.678 63.683s-28.507 63.678-63.678 63.678c-35.167 0-63.676-28.51-63.676-63.678z"/><linearGradient id="r" gradientUnits="userSpaceOnUse" x1="1316.781" y1="-442.247" x2="1467.081" y2="-442.247" gradientTransform="rotate(90 522.184 -417.559)"><stop offset="0" stop-opacity="0"/><stop offset="1"/></linearGradient><path opacity=".2" fill="url(#r)" d="M622.02 452.191c0-41.504-33.646-75.152-75.146-75.152s-75.149 33.648-75.149 75.152 33.646 75.147 75.149 75.147 75.146-33.643 75.146-75.147zm-138.826 0c0-35.168 28.51-63.683 63.676-63.683 35.171 0 63.678 28.515 63.678 63.683s-28.507 63.678-63.678 63.678c-35.166 0-63.676-28.51-63.676-63.678z"/><linearGradient id="s" gradientUnits="userSpaceOnUse" x1="1178.684" y1="-604.689" x2="1328.985" y2="-604.689" gradientTransform="rotate(90 522.184 -417.559)"><stop offset="0" stop-opacity="0"/><stop offset="1"/></linearGradient><path opacity=".2" fill="url(#s)" d="M784.462 314.093c0-41.504-33.646-75.151-75.147-75.151-41.507 0-75.148 33.647-75.148 75.151s33.646 75.15 75.148 75.15c41.499.001 75.147-33.646 75.147-75.15zm-138.826 0c0-35.17 28.509-63.678 63.682-63.678 35.171 0 63.678 28.508 63.678 63.678 0 35.168-28.507 63.679-63.678 63.679-35.173-.001-63.682-28.511-63.682-63.679z"/><linearGradient id="t" gradientUnits="userSpaceOnUse" x1="960.26" y1="-220.684" x2="1110.561" y2="-220.684" gradientTransform="rotate(90 522.184 -417.559)"><stop offset="0" stop-opacity="0"/><stop offset="1"/></linearGradient><path opacity=".2" fill="url(#t)" d="M400.458 95.669c0-41.504-33.648-75.152-75.15-75.152-41.504 0-75.149 33.648-75.149 75.152 0 41.503 33.645 75.149 75.149 75.149 41.502 0 75.15-33.646 75.15-75.149zm-138.826 0c0-35.17 28.509-63.679 63.676-63.679 35.171 0 63.678 28.509 63.678 63.679 0 35.167-28.507 63.677-63.678 63.677-35.166 0-63.676-28.51-63.676-63.677z"/><linearGradient id="u" gradientUnits="userSpaceOnUse" x1="960.26" y1="-443.86" x2="1110.561" y2="-443.86" gradientTransform="rotate(90 522.184 -417.559)"><stop offset="0" stop-opacity="0"/><stop offset="1"/></linearGradient><path opacity=".2" fill="url(#u)" d="M623.634 95.669c0-41.504-33.646-75.152-75.146-75.152-41.508 0-75.151 33.648-75.151 75.152 0 41.503 33.646 75.149 75.151 75.149 41.499 0 75.146-33.646 75.146-75.149zm-138.824 0c0-35.17 28.512-63.679 63.681-63.679 35.171 0 63.678 28.509 63.678 63.679 0 35.167-28.507 63.677-63.678 63.677s-63.681-28.51-63.681-63.677z"/><linearGradient id="v" gradientUnits="userSpaceOnUse" x1="-785.567" y1="-1435.231" x2="-724.316" y2="-1435.231" gradientTransform="rotate(-90 534.952 -1225.22)"><stop offset="0" stop-color="#fff" stop-opacity="0"/><stop offset="1" stop-color="#fff"/></linearGradient><path opacity=".5" fill="url(#v)" d="M324.941 34.049c-33.826 0-61.251 27.423-61.251 61.251h122.502c0-33.828-27.42-61.251-61.251-61.251z"/><linearGradient id="w" gradientUnits="userSpaceOnUse" x1="-783.892" y1="-1211.659" x2="-722.641" y2="-1211.659" gradientTransform="rotate(-90 534.952 -1225.22)"><stop offset="0" stop-color="#fff" stop-opacity="0"/><stop offset="1" stop-color="#fff"/></linearGradient><path opacity=".5" fill="url(#w)" d="M548.512 32.373c-33.821 0-61.25 27.423-61.25 61.251h122.502c0-33.829-27.422-61.251-61.252-61.251z"/><linearGradient id="x" gradientUnits="userSpaceOnUse" x1="-1002.088" y1="-1595.076" x2="-940.835" y2="-1595.076" gradientTransform="rotate(-90 534.952 -1225.22)"><stop offset="0" stop-color="#fff" stop-opacity="0"/><stop offset="1" stop-color="#fff"/></linearGradient><path opacity=".5" fill="url(#x)" d="M165.095 250.568c-33.826 0-61.25 27.424-61.25 61.252h122.501c0-33.828-27.421-61.252-61.251-61.252z"/><linearGradient id="y" gradientUnits="userSpaceOnUse" x1="-1139.444" y1="-1434.864" x2="-1078.194" y2="-1434.864" gradientTransform="rotate(-90 534.952 -1225.22)"><stop offset="0" stop-color="#fff" stop-opacity="0"/><stop offset="1" stop-color="#fff"/></linearGradient><path opacity=".5" fill="url(#y)" d="M325.307 387.927c-33.826 0-61.25 27.422-61.25 61.25h122.501c0-33.828-27.42-61.25-61.251-61.25z"/><linearGradient id="z" gradientUnits="userSpaceOnUse" x1="-1139.444" y1="-1213.285" x2="-1078.194" y2="-1213.285" gradientTransform="rotate(-90 534.952 -1225.22)"><stop offset="0" stop-color="#fff" stop-opacity="0"/><stop offset="1" stop-color="#fff"/></linearGradient><path opacity=".5" fill="url(#z)" d="M546.886 387.927c-33.823 0-61.25 27.422-61.25 61.25h122.503c0-33.828-27.422-61.25-61.253-61.25z"/><linearGradient id="A" gradientUnits="userSpaceOnUse" x1="-1002.088" y1="-1050.859" x2="-940.835" y2="-1050.859" gradientTransform="rotate(-90 534.952 -1225.22)"><stop offset="0" stop-color="#fff" stop-opacity="0"/><stop offset="1" stop-color="#fff"/></linearGradient><path opacity=".5" fill="url(#A)" d="M709.314 250.568c-33.827 0-61.252 27.424-61.252 61.252h122.5c.001-33.828-27.417-61.252-61.248-61.252z"/><g fill="#333"><path d="M464.671 333.98a6.44 6.44 0 0 1 6.439-6.445h.006a6.448 6.448 0 0 1 6.446 6.445 6.448 6.448 0 0 1-6.446 6.442 6.44 6.44 0 0 1-6.445-6.438v-.004z"/><circle cx="400.86" cy="333.98" r="6.445"/><path d="M548.261 366.74h-2.193v-21.898c0-5.453-4.437-9.885-9.889-9.885h-64.794v-2.197h64.794c6.662 0 12.082 5.42 12.082 12.082v21.898zm-222.08 0h-2.198v-21.898c0-6.662 5.42-12.082 12.08-12.082h64.8v2.197h-64.8c-5.449 0-9.882 4.434-9.882 9.885v21.898z"/><circle cx="325.501" cy="191.031" r="6.446"/><path d="M401.28 220.089h-64.795c-6.662 0-12.081-5.417-12.081-12.078v-23.356h2.196v23.356c0 5.449 4.436 9.885 9.885 9.885h64.795v2.193z"/><path d="M400.878 219.05l-5.951 5.951 1.552 1.552 5.951-5.951 1.551-1.552-1.551-1.552-5.951-5.952-1.552 1.552 5.951 5.952z"/><circle cx="546.771" cy="191.031" r="6.446"/><path d="M470.995 220.089h64.795c6.661 0 12.082-5.417 12.082-12.078v-23.356h-2.198v23.356c0 5.449-4.436 9.885-9.884 9.885h-64.795v2.193z"/><path d="M471.396 219.05l5.948 5.951-1.552 1.552-5.95-5.951-1.551-1.552 1.551-1.552 5.95-5.952 1.552 1.552-5.948 5.952zM325.165 365.5l-5.952-5.952-1.551 1.551 5.951 5.951 1.552 1.551 1.551-1.551 5.951-5.951-1.552-1.551-5.95 5.952zm221.898 0l-5.948-5.952-1.554 1.551 5.95 5.951 1.553 1.551 1.553-1.551 5.953-5.951-1.554-1.551-5.953 5.952z"/><circle cx="345.652" cy="309.839" r="6.446"/><path d="M254.279 308.621h92.833v2.197h-92.833v-2.197z"/><path d="M254.444 309.839l5.95-5.948-1.552-1.552-5.95 5.95-1.552 1.55 1.552 1.553 5.95 5.951 1.552-1.551-5.95-5.953zm278.979.004a6.444 6.444 0 0 1-6.447 6.443h-.001a6.439 6.439 0 0 1-6.438-6.44v-.003a6.443 6.443 0 1 1 12.886 0z"/><path d="M525.517 308.865h92.834v2.194h-92.834v-2.194z"/><path d="M618.186 309.839l-5.948 5.953 1.552 1.551 5.949-5.951 1.552-1.553-1.552-1.55-5.949-5.95-1.552 1.552 5.948 5.948z"/></g><g fill="#FFF"><path d="M655.366 328.386v12.528h-2.146l-4.834-6.802v6.802h-2.861v-12.528h2.146l4.832 6.802v-6.802h2.863zm.718 6.264c0-3.688 2.918-6.517 6.516-6.517 3.6 0 6.517 2.827 6.517 6.517 0 3.688-2.917 6.516-6.517 6.516-3.598 0-6.516-2.829-6.516-6.516zm10.166 0c0-2.237-1.611-3.725-3.65-3.725-2.041 0-3.649 1.484-3.649 3.725 0 2.237 1.608 3.723 3.649 3.723 2.039 0 3.65-1.485 3.65-3.723zm6.623 0c0-3.688 2.738-6.517 6.516-6.517 2.272 0 4.277 1.127 5.369 2.898l-2.471 1.432c-.555-.967-1.628-1.538-2.898-1.538-2.219 0-3.649 1.484-3.649 3.725 0 2.237 1.433 3.723 3.649 3.723 1.271 0 2.363-.571 2.898-1.539l2.471 1.433c-1.074 1.771-3.078 2.899-5.369 2.899-3.778-.001-6.516-2.829-6.516-6.516z"/><path d="M684.49 334.65c0-3.688 2.917-6.517 6.516-6.517 3.598 0 6.516 2.827 6.516 6.517 0 3.688-2.918 6.516-6.516 6.516-3.599 0-6.516-2.829-6.516-6.516zm10.166 0c0-2.237-1.609-3.725-3.65-3.725s-3.652 1.484-3.652 3.725c0 2.237 1.611 3.723 3.652 3.723 2.041-.001 3.65-1.485 3.65-3.723zm7.805 2.148h-1.359v4.116h-2.861v-12.528h5.012a4.284 4.284 0 0 1 4.295 4.273v.021c0 1.539-.931 2.938-2.309 3.636l2.667 4.6h-3.079l-2.366-4.118zm-1.361-2.506h2.148c.787 0 1.432-.697 1.432-1.61s-.645-1.608-1.432-1.608H701.1v3.218zm11.475 2.506h-1.36v4.116h-2.863v-12.528h5.015a4.286 4.286 0 0 1 4.295 4.275v.021c0 1.539-.933 2.938-2.312 3.636l2.668 4.6h-3.077l-2.366-4.12zm-1.36-2.506h2.148c.787 0 1.432-.697 1.432-1.61s-.645-1.608-1.432-1.608h-2.148v3.218zm7.07 2.577v-8.483h2.864v8.232c0 .949.444 1.754 1.969 1.754 1.521 0 1.97-.805 1.97-1.754v-8.232h2.862v8.483c0 2.686-2.076 4.296-4.832 4.296-2.757 0-4.833-1.61-4.833-4.296zm19.958-4.187c0 2.382-1.915 4.296-4.385 4.296h-1.882v3.938h-2.861v-12.529h4.743c2.47-.001 4.385 1.914 4.385 4.295zm-2.862 0c0-.913-.646-1.608-1.521-1.608h-1.88v3.222h1.88c.875-.004 1.521-.701 1.521-1.614z"/><path d="M747.014 331.143h-3.223v9.771h-2.863v-9.771h-3.223v-2.757h9.309v2.757zm3.222-2.757v12.528h-2.863v-12.528h2.863zm.717 6.264c0-3.688 2.917-6.517 6.516-6.517 3.6 0 6.518 2.827 6.518 6.517 0 3.688-2.919 6.516-6.518 6.516s-6.516-2.829-6.516-6.516zm10.166 0c0-2.237-1.609-3.725-3.65-3.725s-3.649 1.484-3.649 3.725c0 2.237 1.608 3.723 3.649 3.723 2.041-.001 3.65-1.485 3.65-3.723zm13.426-6.264v12.528h-2.146l-4.833-6.802v6.802h-2.863v-12.528h2.146l4.834 6.802v-6.802h2.862z"/></g><g fill="#FFF"><path d="M264.019 473.411c0-3.734 2.773-6.599 6.598-6.599 2.302 0 4.333 1.143 5.438 2.938l-2.501 1.449c-.562-.979-1.65-1.56-2.937-1.56-2.248 0-3.698 1.505-3.698 3.771s1.45 3.771 3.698 3.771c1.287 0 2.393-.58 2.937-1.559l2.501 1.45c-1.088 1.794-3.118 2.937-5.438 2.937-3.825.001-6.598-2.863-6.598-6.598z"/><path d="M275.782 473.411c0-3.734 2.955-6.599 6.598-6.599s6.599 2.863 6.599 6.599-2.955 6.599-6.599 6.599-6.598-2.864-6.598-6.599zm10.297 0c0-2.267-1.632-3.771-3.698-3.771s-3.698 1.505-3.698 3.771 1.631 3.771 3.698 3.771 3.698-1.505 3.698-3.771zm16.312 6.345h-2.9v-7.378l-3.281 5.384h-.326l-3.281-5.384v7.378h-2.9v-12.688h2.9l3.444 5.638 3.444-5.638h2.9v12.688zm10.512-8.339c0 2.411-1.939 4.351-4.441 4.351h-1.904v3.988h-2.9v-12.688h4.804c2.501-.002 4.441 1.938 4.441 4.349zm-2.901 0c0-.924-.652-1.631-1.541-1.631h-1.904v3.263h1.904c.889 0 1.541-.707 1.541-1.632zm10.876 5.547v2.792h-7.432v-12.688h2.9v9.896h4.532zm8.337 0v2.792h-7.977v-12.688h7.886v2.792h-4.985v2.103h4.532v2.756h-4.532v2.247l5.076-.002z"/><path d="M338.459 469.858h-3.263v9.896h-2.9v-9.896h-3.263v-2.792h9.426v2.792zm8.337 7.106v2.792h-7.977v-12.688h7.886v2.792h-4.985v2.103h4.532v2.756h-4.532v2.247l5.076-.002zm10.694-9.898v12.688h-2.175l-4.895-6.889v6.889h-2.9v-12.688h2.176l4.894 6.889v-6.889h2.9zm9.244 9.898v2.792h-7.977v-12.688h7.886v2.792h-4.985v2.103h4.532v2.756h-4.532v2.247l5.076-.002zm.089-.09l2.501-1.45c.453 1.051 1.233 1.758 2.665 1.758 1.377 0 1.722-.544 1.722-1.032 0-.779-.725-1.089-2.628-1.613-1.886-.525-3.734-1.433-3.734-3.861 0-2.447 2.066-3.86 4.26-3.86 2.085 0 3.716.996 4.641 2.863l-2.447 1.434c-.435-.906-1.033-1.47-2.193-1.47-.906 0-1.359.453-1.359.962 0 .579.308.979 2.284 1.576 1.921.58 4.079 1.251 4.079 3.935 0 2.446-1.958 3.896-4.713 3.896-2.667-.002-4.371-1.272-5.078-3.138z"/><path d="M376.158 476.874l2.501-1.45c.454 1.051 1.233 1.758 2.665 1.758 1.377 0 1.722-.544 1.722-1.032 0-.779-.725-1.089-2.629-1.613-1.885-.525-3.734-1.433-3.734-3.861 0-2.447 2.066-3.86 4.26-3.86 2.084 0 3.716.996 4.641 2.863l-2.447 1.434c-.435-.906-1.033-1.47-2.193-1.47-.906 0-1.359.453-1.359.962 0 .579.308.979 2.284 1.576 1.922.58 4.079 1.251 4.079 3.935 0 2.446-1.958 3.896-4.713 3.896-2.666-.002-4.37-1.272-5.077-3.138z"/></g><g fill="#FFF"><path d="M515.688 475.557h-1.378v4.17h-2.899v-12.688h5.075a4.34 4.34 0 0 1 4.351 4.351c0 1.56-.942 2.974-2.338 3.681l2.701 4.659h-3.118l-2.394-4.173zm-1.378-2.537h2.176c.798 0 1.449-.707 1.449-1.632s-.651-1.632-1.449-1.632h-2.176v3.264z"/><path d="M529.081 477.732h-4.713l-.635 1.993h-3.173l4.314-12.688h3.697l4.313 12.688h-3.172l-.631-1.993zm-.869-2.719l-1.487-4.659-1.485 4.659h2.972zm14.101-3.625c0 2.411-1.938 4.352-4.44 4.352h-1.903v3.987h-2.899v-12.688h4.804c2.499-.002 4.438 1.938 4.438 4.349zm-2.9 0c0-.925-.652-1.632-1.541-1.632h-1.903v3.264h1.903c.889 0 1.541-.707 1.541-1.632zm6.343-4.351v12.688h-2.9v-12.688h2.9zm12.507 6.344c0 3.59-2.664 6.346-6.163 6.346h-5.074v-12.688h5.074c3.499-.002 6.163 2.753 6.163 6.342zm-2.791 0c0-2.175-1.378-3.553-3.372-3.553h-2.175v7.105h2.175c1.994.002 3.372-1.376 3.372-3.552zm6.415-6.344v12.688h-2.899v-12.688h2.899zm9.788 2.791h-3.263v9.897h-2.9v-9.897h-3.263v-2.791h9.426v2.791z"/><path d="M578.108 474.85v4.877h-2.9v-4.877l-4.26-7.813h3.3l2.411 4.895 2.41-4.895h3.3l-4.261 7.813z"/></g></svg>