<svg xmlns="http://www.w3.org/2000/svg" width="266.252" height="154.944" viewBox="0 0 266.252 154.944"><linearGradient id="a" gradientUnits="userSpaceOnUse" x1="-56.692" y1="157.227" x2="98.252" y2="157.227" gradientTransform="translate(168 -79.755)"><stop offset="0" stop-color="#9b4b8d"/><stop offset="1" stop-color="#a14b8a"/></linearGradient><circle fill="url(#a)" cx="188.78" cy="77.472" r="77.472"/><path d="M160.857 90.876v12.305h-2.813v-4.887h-3.867v4.887h-2.812V90.876h2.813v4.711h3.867v-4.711h2.812zm1.579 6.152c0-3.621 2.865-6.398 6.398-6.398s6.396 2.777 6.396 6.398-2.863 6.396-6.396 6.396-6.398-2.775-6.398-6.396zm9.985 0c0-2.197-1.582-3.656-3.586-3.656s-3.586 1.459-3.586 3.656c0 2.194 1.582 3.653 3.586 3.653s3.586-1.456 3.586-3.653zm14.058-6.152v12.305h-2.107l-4.746-6.68v6.68h-2.813V90.876h2.109l4.746 6.68v-6.68h2.811zm9.84 9.597v2.707h-7.733V90.876h7.646v2.707h-4.834v2.039h4.396v2.672h-4.396v2.18l4.921-.001zm.964-.088l2.426-1.406c.438 1.021 1.195 1.705 2.584 1.705 1.336 0 1.67-.526 1.67-1.002 0-.756-.703-1.055-2.549-1.563-1.828-.51-3.621-1.39-3.621-3.744 0-2.373 2.004-3.744 4.131-3.744 2.021 0 3.604.967 4.5 2.777l-2.373 1.389c-.422-.879-1.002-1.424-2.127-1.424-.879 0-1.318.438-1.318.932 0 .564.301.949 2.217 1.529 1.861.563 3.954 1.213 3.954 3.814 0 2.372-1.897 3.778-4.569 3.778-2.587 0-4.24-1.23-4.925-3.041zm18.718-6.802h-3.164v9.598h-2.813v-9.598h-3.164v-2.707h9.143l-.002 2.707zm7.116 4.869v4.729h-2.813v-4.729l-4.131-7.576h3.199l2.338 4.746 2.338-4.746h3.199l-4.13 7.576z" fill="#FFF"/><g fill="#FFF"><path d="M193.933 38.366c1.109-.045 2.166.268 3.154.797 1.045.559 2.064 1.152 3.031 1.846.904.643 1.851 1.213 3.021 1.229a3.329 3.329 0 0 0 2.104-.678c.319-.234.458-.193.641.157 1.825 3.519 3.658 7.025 5.506 10.531.523.996 1.104 1.963 1.657 2.942.607 1.076.549 1.754-.308 2.646a642.323 642.323 0 0 1-4.875 5.028c-.521.531-.574.523-1.061-.006-4.611-5.094-9.229-10.178-13.842-15.274-1.426-1.582-1.699-1.617-3.593-.601-2.646 1.418-5.312 2.804-7.971 4.201-.672.354-1.378.596-2.15.555-.942-.047-1.639-.61-1.816-1.555-.21-1.053.026-2.018.908-2.682 3.872-2.918 7.707-5.895 12.026-8.162 1.114-.578 2.261-1.011 3.568-.974zm26.514 15.278c.048.442-.173.791-.524.989-1.113.615-2.2 1.296-3.405 1.724-.774.272-1.198.098-1.585-.646-.855-1.627-1.697-3.264-2.543-4.898-1.659-3.215-3.325-6.436-4.984-9.651-.806-1.558-.693-1.908.853-2.748a80.266 80.266 0 0 1 1.996-1.041c1.264-.64 1.742-.49 2.392.756 1.44 2.767 2.869 5.533 4.299 8.299 1.073 2.068 2.143 4.136 3.202 6.205.164.315.334.629.299 1.011zm-61.689.39c-.048-.242.055-.488.146-.732 1.913-5.107 3.826-10.215 5.742-15.314.455-1.209.945-1.428 2.169-1.004.813.285 1.634.543 2.438.855.988.383 1.185.787.822 1.791-.739 2.063-1.517 4.111-2.283 6.168-1.167 3.143-2.343 6.279-3.493 9.432-.207.568-.601.938-1.027 1.301-.146.123-.268.093-.413.043-1.093-.395-2.195-.76-3.271-1.192-.627-.256-.846-.694-.83-1.348z"/><path d="M165.873 55.866c-.022-.449.146-.811.285-1.178 1.754-4.662 3.514-9.324 5.276-13.984.134-.363.267-.742.532-1.045.606-.686 1.461-.717 2.106-.02.787.854 1.712 1.344 2.893 1.219.678-.07 1.31-.316 1.913-.625 1.188-.604 2.354-1.252 3.559-1.818 1.41-.666 2.884-.965 4.407-.355.157.062.313.131.459.215.281.15.7.318.669.613-.04.344-.456.498-.797.633a1.568 1.568 0 0 1-.886.07c-1.348-.275-2.619-.039-3.823.57-.892.445-1.751.949-2.631 1.402-1.476.758-3.001 1.186-4.66.664a4.99 4.99 0 0 1-1.677-.896c-.376-.313-.557-.293-.737.205a1976.815 1976.815 0 0 1-4.294 11.529c-.242.649-.518 1.287-.771 1.932-.23.574-.15 1.078.291 1.549 1.17 1.252 2.309 2.533 3.482 3.773.287.309.287.479-.003.771-.794.805-.773.816-1.534-.043a1269.962 1269.962 0 0 0-3.591-4.064c-.286-.334-.539-.677-.468-1.117zm27.148 19.109c.258-1.192.611-1.491 1.729-1.463.354.013.663-.11.932-.336 1.064-.896 1.262-2.477.378-3.539-1.218-1.461-2.438-2.918-3.746-4.297-.547-.573-.311-1.146-.313-1.733 0-.193.188-.152.305-.125.386.088.74.205 1.025.526a560.483 560.483 0 0 0 4.335 4.828c.269.293.538.588.84.84.764.65 1.609.777 2.278.373.809-.492 1.286-1.57 1.102-2.473-.117-.546-.339-1.035-.715-1.447-1.396-1.549-2.768-3.129-4.205-4.642-.495-.522-.489-1.059-.287-1.604.199-.525.636-.082.962-.084.108 0 .236.168.344.275 1.603 1.793 3.205 3.596 4.812 5.389.236.266.473.535.74.771 1.136 1.027 2.175.94 3.109-.273.421-.537.834-1.061 1.375-1.482.347-.272.404-.156.453.199.281 2.02-1.142 3.771-3.235 3.709-1.164-.033-1.853.328-2.311 1.334-.149.32-.396.601-.611.877-1.032 1.336-1.937 1.634-3.548 1.105-.442-.146-.587-.084-.721.377-.373 1.311-.993 2.451-2.448 2.844-.856.239-1.713.02-2.579.051zm-10.217-1.445c-1.231.006-2.241-1.205-2.173-2.523.04-.703.285-1.313.789-1.813 1.491-1.48 3.074-2.876 4.657-4.263 1.122-.973 2.569-.602 3.334.68.735 1.242.158 2.222-.603 3.074-1.427 1.605-3.077 2.98-4.721 4.355-.371.312-.828.519-1.283.49zm-.658-11.987c1.771.054 2.272.914 2.423 2.342.068.664-.484 1.367-.98 1.908-1.093 1.199-2.32 2.267-3.569 3.289-1.06.865-2.102.803-2.916-.072-.879-.938-.974-2.452-.151-3.344a33.198 33.198 0 0 1 4.168-3.799 1.62 1.62 0 0 1 1.025-.324z"/><path d="M188.603 76.467c-1.082-.014-1.665-.506-2.07-1.233-.407-.72-.481-1.453.021-2.175.823-1.178 1.733-2.272 2.876-3.155.905-.697 1.818-.625 2.596.217.367.396.588.865.732 1.377.091.322.02.604-.108.914-.599 1.418-1.652 2.455-2.759 3.451-.412.366-.892.628-1.288.604zm-17.198-12.185c-.022-.959.33-1.65 1.02-2.176.238-.178.483-.357.737-.521.94-.612 1.768-.578 2.604.09.771.609 1.062 1.638.729 2.591-.381 1.11-1.901 2.336-2.937 2.356-1.248.031-2.153-.989-2.153-2.34z"/></g><linearGradient id="b" gradientUnits="userSpaceOnUse" x1="862.936" y1="-820.019" x2="1013.237" y2="-820.019" gradientTransform="rotate(90 115.189 -746.429)"><stop offset="0" stop-opacity="0"/><stop offset="1"/></linearGradient><path opacity=".2" fill="url(#b)" d="M263.928 76.469c0-41.504-33.646-75.151-75.147-75.151-41.507 0-75.15 33.647-75.15 75.151s33.646 75.15 75.15 75.15c41.499.001 75.147-33.646 75.147-75.15zm-138.826 0c0-35.17 28.509-63.678 63.68-63.678s63.678 28.508 63.678 63.678c0 35.168-28.507 63.679-63.678 63.679s-63.68-28.511-63.68-63.679z"/><linearGradient id="c" gradientUnits="userSpaceOnUse" x1="-1012.575" y1="-1165.021" x2="-951.323" y2="-1165.021" gradientTransform="rotate(-90 207.71 -1146.089)"><stop offset="0" stop-color="#fff" stop-opacity="0"/><stop offset="1" stop-color="#fff"/></linearGradient><path opacity=".5" fill="url(#c)" d="M188.78 12.944c-33.827 0-61.252 27.424-61.252 61.252h122.5c0-33.828-27.419-61.252-61.248-61.252z"/><g fill="#333"><path d="M12.889 72.219a6.445 6.445 0 0 1-6.448 6.443 6.44 6.44 0 0 1-6.44-6.443 6.443 6.443 0 1 1 12.888 0z"/><path d="M4.982 71.241h92.834v2.196H4.982z"/><path d="M97.651 72.215l-5.949 5.953 1.552 1.551 5.949-5.951 1.552-1.553-1.552-1.55-5.949-5.95-1.552 1.552z"/></g></svg>