<svg xmlns="http://www.w3.org/2000/svg" width="159.802" height="203.711" viewBox="0 0 159.802 203.711"><linearGradient id="a" gradientUnits="userSpaceOnUse" x1="-168" y1="205.992" x2="-13.055" y2="205.992" gradientTransform="translate(168 -79.755)"><stop offset="0" stop-color="#9b4b8d"/><stop offset="1" stop-color="#a14b8a"/></linearGradient><path fill="url(#a)" d="M0 126.236c0-42.783 34.685-77.472 77.471-77.472 42.787 0 77.474 34.688 77.474 77.472 0 42.788-34.688 77.475-77.474 77.475S0 169.024 0 126.236z"/><path d="M41.291 151.945h-2.813v-7.154l-3.182 5.221h-.316l-3.182-5.221v7.154h-2.813V139.64h2.813l3.34 5.467 3.34-5.467h2.813v12.305zm9.312-1.934h-4.57l-.615 1.937h-3.076l4.184-12.308h3.586l4.184 12.308H51.22l-.617-1.937zm-.844-2.636l-1.441-4.519-1.441 4.519h2.882zm17.328-1.231c0 3.765-2.619 6.047-6.064 6.047-3.867 0-6.645-2.848-6.645-6.381 0-3.565 2.83-6.416 6.451-6.416 2.355 0 4.342 1.16 5.379 2.814l-2.391 1.371c-.51-.812-1.617-1.441-3.006-1.441-2.074 0-3.621 1.529-3.621 3.691 0 2.092 1.477 3.621 3.867 3.621 1.635 0 2.707-.724 3.146-1.898h-3.287v-2.461h6.17l.001 1.053zm11.246-6.504v12.308h-2.109l-4.746-6.683v6.683h-2.813V139.64h2.109l4.746 6.683v-6.683h2.813zm4.918 0v12.308h-2.813V139.64h2.813zm10.37 2.707h-3.164v9.601h-2.813v-9.601H84.48v-2.707h9.141v2.707zm1.139 5.625v-8.332h2.813v8.086c0 .935.439 1.726 1.934 1.726 1.495 0 1.934-.791 1.934-1.726v-8.086h2.813v8.332c0 2.637-2.039 4.219-4.746 4.219s-4.748-1.583-4.748-4.219zm22.409-2.179c0 3.479-2.584 6.152-5.977 6.152h-4.922V139.64h4.922c3.393 0 5.977 2.672 5.977 6.153zm-2.707 0c0-2.109-1.336-3.445-3.27-3.445h-2.109v6.894h2.109c1.934-.004 3.27-1.34 3.27-3.449zm12.019 3.445v2.707h-7.734V139.64h7.646v2.707h-4.834v2.039h4.395v2.672h-4.395v2.181h4.922zm-70.342-42.406c.085.803.171 1.582.253 2.365.005.079.031.157.045.237.025.152-.006.25-.125.377-.424.447-.868.896-1.212 1.4-.458.684-.345 1.008.393 1.42.675.381 1.421.564 2.178.678.837.117 1.68.193 2.534.291-2.693-6.774-2.209-13.176 2.067-19.094 2.966-4.109 7.052-6.582 12.057-7.428 10.776-1.82 20.829 5.813 21.987 16.774.444-.307.876-.588 1.29-.895.771-.572 1.512-1.176 2.073-1.963.145-.201.256-.42.361-.644.131-.289.074-.545-.171-.764a3.139 3.139 0 0 0-1.62-.742c-.615-.086-.9-.393-1.088-.963-.202-.617-.523-1.195-.814-1.836.296.031.578.057.854.098 1.165.175 2.314.418 3.365.979.996.526 1.736 1.264 1.936 2.424.14.824-.071 1.59-.472 2.309-.575 1.019-1.398 1.816-2.298 2.541-2.004 1.615-4.253 2.828-6.568 3.935-2.861 1.371-5.822 2.49-8.837 3.475a95.568 95.568 0 0 1-11.376 2.949c-2.317.447-4.641.832-6.989 1.023a67.628 67.628 0 0 1-5.073.225c-1.868.012-3.727-.154-5.515-.766-.828-.283-1.603-.664-2.187-1.341-.922-1.063-.999-2.239-.436-3.483.396-.879 1.02-1.597 1.726-2.234.407-.377.845-.715 1.275-1.063.125-.103.259-.191.387-.284zm18.602-2.334h5.531c-.119-2.082-.239-4.131-.358-6.207h-3.459c-.39 0-.78-.008-1.173.006-.077.006-.208.096-.21.154a83.255 83.255 0 0 0-.216 2.526 60.879 60.879 0 0 0-.114 2.015c-.013.494-.001.996-.001 1.506zm-13.745.008h4.495c.088-2.104.381-4.164.919-6.215h-.293c-1.034 0-2.064.006-3.092-.006-.194-.002-.291.057-.373.225-.566 1.178-1.011 2.398-1.27 3.678-.153.754-.255 1.521-.386 2.318zm32.899 0c0-.09.002-.154-.003-.219-.174-2.043-.732-3.98-1.617-5.824-.077-.154-.182-.174-.33-.174-1.022.006-2.036.004-3.061.004h-.356c.555 2.057.826 4.119.937 6.215 1.49-.002 2.944-.002 4.43-.002zm-32.856 2.468c.023.209.037.377.054.549a16.196 16.196 0 0 0 1.563 5.418c.077.158.162.226.35.226 1.036-.014 2.078-.004 3.118-.004.085 0 .17-.015.285-.021-.544-2.041-.82-4.09-.92-6.166-1.49-.002-2.945-.002-4.45-.002zm21.323-8.67c.117 2.078.23 4.139.347 6.201h4.308a51.773 51.773 0 0 0-.083-1.146 25.227 25.227 0 0 0-.868-4.848c-.048-.174-.131-.225-.308-.225-1.068.008-2.132.006-3.197.006-.068.001-.142.01-.199.012zm-9.779.004c-.042-.006-.088-.016-.131-.016-1.102-.002-2.204 0-3.308-.008-.188-.002-.225.094-.262.237a24.378 24.378 0 0 0-.845 4.552c-.046.469-.077.946-.111 1.426h4.313c.113-2.072.23-4.126.344-6.191zm-4.618 8.666c-.1 1.115.546 5.133.968 6.01 1.196-.2 2.4-.405 3.584-.61-.088-1.83-.179-3.619-.271-5.398-1.431-.002-2.849-.002-4.281-.002zm6.725.002c.08 1.648.156 3.252.239 4.914a582.92 582.92 0 0 0 4.999-1.307c.071-.021.165-.146.168-.229.048-1.016.085-2.032.123-3.051 0-.104-.012-.211-.017-.328l-5.512.001zM77.545 89.3l-.143.014c-1.261 1.984-1.58 4.263-2.016 6.521h4.157c-.043-.258-.077-.49-.114-.717-.291-1.597-.621-3.183-1.27-4.677-.167-.393-.412-.758-.614-1.141zm3.226 1.012c.601 1.81.957 3.662 1.244 5.529h3.086c-1.016-2.209-2.283-4.169-4.33-5.529zm-7.841 5.533c.291-1.871.655-3.729 1.242-5.537-2.053 1.365-3.314 3.332-4.325 5.537h3.083zm9.646 13.922c.063 0 .094.011.12 0 1.367-.465 2.73-.932 4.097-1.399.06-.021.134-.09.137-.142.037-.41.06-.826.085-1.237h-4.339c-.032.938-.066 1.851-.1 2.778zM64.281 95.863c.982 0 1.893.002 2.801-.011.063 0 .154-.104.188-.182.39-.803.732-1.625 1.147-2.412.373-.695.82-1.344 1.247-2.041-2.117 1.158-3.885 2.682-5.383 4.646zm21.008-4.637c.441.717.902 1.41 1.292 2.14.396.733.723 1.51 1.07 2.271.074.162.151.234.339.23.803-.013 1.606-.007 2.406-.007.068 0 .137-.012.253-.022-1.491-1.936-3.251-3.471-5.36-4.612zm4.176 16.08c.242-.1.479-.199.777-.317h-.766c-.012.092-.023.161-.031.235-.002.014.009.032.02.082zm-13.947 9.127c.436 1.982.746 3.98 1.928 5.765.137-.185.256-.308.341-.447.595-1.006.92-2.121 1.185-3.246.216-.92.378-1.854.566-2.779.003-.033-.008-.065-.017-.119-.12-.014-.236-.02-.35-.03 3.208-.896 6.38-1.906 9.535-3.123-.06.26-.105.467-.154.688.088.008.156.021.225.021 1.062 0 2.118-.002 3.177.002.168 0 .273-.045.333-.205.293-.742.589-1.486.9-2.226a.664.664 0 0 1 .273-.327c.797-.433 1.6-.839 2.4-1.255.063-.03.125-.061.239-.112a18.357 18.357 0 0 1-2.614 6.764c-2.289 3.586-5.42 6.168-9.409 7.656-8.042 2.983-16.253.076-20.8-5.267.387-.022.757-.047 1.119-.077.618-.048 1.233-.099 1.851-.136a.527.527 0 0 1 .328.105c.931.809 1.93 1.518 3.015 2.109.023.008.048.014.071.024a700.924 700.924 0 0 0-1.532-2.459c.382-.061.701-.109 1.02-.16.45-.063.899-.125 1.349-.209.177-.031.276.008.373.168.564.955 1.221 1.836 2.033 2.595.39.364.817.688 1.227 1.026l.065-.051c-.103-.332-.228-.66-.31-.998-.242-1.002-.47-2.004-.695-3.006-.014-.066.048-.209.091-.219.745-.165 1.491-.317 2.237-.472zm5.253 4.75c2.053-1.412 3.331-3.369 4.33-5.58h-3.066c-.177.945-.328 1.879-.533 2.8-.207.919-.475 1.817-.731 2.78zm9.893-5.593h-.242c-.808 0-1.62.002-2.431-.006-.188-.002-.271.063-.336.231a18.595 18.595 0 0 1-1.873 3.627 10.48 10.48 0 0 1-.256.39c-.085.125-.179.244-.271.367a15.818 15.818 0 0 0 5.409-4.609z" fill="#FFF"/><linearGradient id="b" gradientUnits="userSpaceOnUse" x1="1274.063" y1="-525.589" x2="1424.366" y2="-525.589" gradientTransform="rotate(90 388.22 -836.34)"><stop offset="0" stop-opacity="0"/><stop offset="1"/></linearGradient><path opacity=".2" fill="url(#b)" d="M152.618 124.656c0-41.504-33.648-75.152-75.15-75.152-41.504 0-75.149 33.648-75.149 75.152s33.645 75.149 75.149 75.149c41.502.001 75.15-33.645 75.15-75.149zm-138.826 0c0-35.168 28.509-63.681 63.676-63.681 35.171 0 63.678 28.513 63.678 63.681s-28.507 63.678-63.678 63.678c-35.167 0-63.676-28.51-63.676-63.678z"/><linearGradient id="c" gradientUnits="userSpaceOnUse" x1="-876.9" y1="-1638.937" x2="-815.65" y2="-1638.937" gradientTransform="rotate(-90 480.741 -1236)"><stop offset="0" stop-color="#fff" stop-opacity="0"/><stop offset="1" stop-color="#fff"/></linearGradient><path opacity=".5" fill="url(#c)" d="M77.804 60.392c-33.826 0-61.25 27.422-61.25 61.25h122.501c0-33.829-27.42-61.25-61.251-61.25z"/><g fill="#333"><circle cx="153.357" cy="6.445" r="6.445"/><path d="M78.678 39.205H76.48V17.307c0-6.662 5.42-12.082 12.08-12.082h64.8v2.197h-64.8c-5.449 0-9.882 4.434-9.882 9.885v21.898z"/><path d="M77.662 37.965l-5.952-5.952-1.551 1.55 5.951 5.952 1.552 1.55 1.551-1.55 5.951-5.952-1.552-1.55z"/></g></svg>