<svg xmlns="http://www.w3.org/2000/svg" width="339.389" height="153.122"><linearGradient id="a" gradientUnits="userSpaceOnUse" x1="1459.657" y1="-367.163" x2="1612.78" y2="-367.163" gradientTransform="rotate(90 631.094 -828.563)"><stop offset="0" stop-color="#4b48bf"/><stop offset="1" stop-color="#a14b8a"/></linearGradient><path fill="url(#a)" d="M339.386 56.166h-15.049l2.546 2.551H220.129l5.88-10.189a7.374 7.374 0 0 0 3.773 1.05 7.416 7.416 0 0 0 7.416-7.419 7.406 7.406 0 0 0-7.416-7.408 7.4 7.4 0 0 0-7.398 7.237h-32.526l-9.976-17.287-6.28-10.873a7.405 7.405 0 0 0 3.715-6.417c0-4.094-3.323-7.411-7.417-7.411a7.412 7.412 0 0 0-7.419 7.411 7.414 7.414 0 0 0 3.709 6.417l-6.273 10.873-9.984 17.287h-32.507a7.41 7.41 0 0 0-7.416-7.388 7.411 7.411 0 0 0-7.411 7.413 7.407 7.407 0 0 0 7.411 7.411 7.4 7.4 0 0 0 3.718-.999l5.945 10.292H12.501l2.551-2.551H0v15.049l2.551-2.547v15.84L0 81.957v15.055l15.052-.006-2.599-2.6 107.222-.004-5.882 10.194a7.308 7.308 0 0 0-3.781-1.047 7.408 7.408 0 0 0-7.411 7.41 7.414 7.414 0 0 0 7.411 7.418 7.413 7.413 0 0 0 7.411-7.246h12.555l19.958.004 9.984 17.285 6.273 10.873a7.41 7.41 0 0 0-3.709 6.416 7.415 7.415 0 0 0 7.419 7.412c4.093 0 7.417-3.32 7.417-7.412a7.403 7.403 0 0 0-3.715-6.416l6.277-10.873 9.979-17.291 19.965.006 12.552-.006a7.414 7.414 0 0 0 14.825-.023 7.412 7.412 0 0 0-7.416-7.415 7.407 7.407 0 0 0-3.717 1.008l-5.938-10.297H326.94l-2.6 2.606 15.049-.004v-15.05l-2.542 2.552-.006-15.84 2.548 2.547V56.166h-.003zm-6.372 12.502v21.916H213.507l3.311 5.734 5.941 10.293.407.696h-35.512l-1.102 1.91-9.984 17.293-6.272 10.869-.395.684-.396-.684-6.28-10.869-9.979-17.293-1.104-1.91H116.64l.464-.807 5.876-10.185 3.308-5.735H6.374l.002-6.076v-15.84l-.002-6.124h119.922l-3.313-5.737-5.936-10.289-.407-.703h35.505l1.104-1.913 9.979-17.287 6.28-10.873.396-.683.395.683 6.272 10.873 9.984 17.287 1.102 1.913h35.512l-.478.809-5.873 10.184-3.311 5.737h119.507v6.127zM236 73.882c0 3.765-3.029 6.799-6.938 6.799h-2.972v6.229h-4.539V67.084h7.511c3.908 0 6.938 3.029 6.938 6.798zm-4.533 0c0-1.442-1.022-2.545-2.406-2.551h-2.972v5.1h2.972c1.383 0 2.406-1.101 2.406-2.549zm7.786 3.116c0-5.834 4.618-10.31 10.313-10.31 5.688 0 10.306 4.476 10.306 10.31 0 5.836-4.615 10.313-10.306 10.313-5.694-.003-10.313-4.477-10.313-10.313zm16.088 0c0-3.539-2.551-5.891-5.776-5.891-3.231 0-5.777 2.352-5.777 5.891 0 3.541 2.546 5.893 5.777 5.893 3.226-.001 5.776-2.352 5.776-5.893zm20.674 5.554l-.003 4.356h-11.609V67.083h4.532v15.468l7.08.001zm8.485-15.468V86.91h-4.524V67.084h4.524zm4.539 9.91c0-5.83 4.333-10.306 10.309-10.306 3.599 0 6.771 1.778 8.498 4.589l-3.903 2.266c-.885-1.531-2.582-2.438-4.595-2.438-3.516 0-5.776 2.354-5.776 5.891 0 3.541 2.268 5.895 5.776 5.895 2.013 0 3.741-.904 4.595-2.438l3.903 2.266c-1.696 2.809-4.868 4.59-8.498 4.59-5.976-.001-10.309-4.475-10.309-10.315zm35.372 5.558v4.356h-12.465V67.083h12.324v4.364h-7.798v3.285l7.089-.002v4.305h-7.089v3.517h7.939zM15.678 76.693c0-5.836 4.333-10.31 10.309-10.31 3.599 0 6.776 1.782 8.496 4.586l-3.906 2.267c-.877-1.529-2.576-2.435-4.583-2.435-3.513 0-5.782 2.349-5.782 5.89 0 3.543 2.269 5.895 5.782 5.895 2.007 0 3.735-.908 4.583-2.438l3.909 2.268c-1.697 2.803-4.871 4.586-8.499 4.586-5.976 0-10.309-4.473-10.309-10.309zm27.613 3.402h-2.152v6.511h-4.533V66.78h7.929a6.78 6.78 0 0 1 6.801 6.792c0 2.442-1.475 4.649-3.653 5.758l4.216 7.275-4.871.006-3.737-6.516zm-2.152-3.972h3.396c1.252.006 2.269-1.102 2.269-2.545s-1.016-2.549-2.269-2.549h-3.396v5.094zm21.807 2.863v7.625l-4.535-.006.005-7.615-6.659-12.211h5.156l3.769 7.65 3.767-7.65h5.153l-6.656 12.207zm22.798-5.414c0 3.771-3.035 6.801-6.941 6.801h-2.978l.006 6.232-4.53.006V66.779h7.502c3.907 0 6.941 3.029 6.941 6.793zm-4.529.006c0-1.443-1.022-2.549-2.411-2.549h-2.972v5.094h2.972c1.386 0 2.405-1.102 2.411-2.545zm19.82-2.44h-5.099v15.474h-4.532V71.138h-5.096v-4.359h14.728l-.001 4.359zm-.002 5.555c0-5.836 4.621-10.31 10.312-10.31 5.688 0 10.309 4.474 10.309 10.312 0 5.836-4.621 10.307-10.309 10.307-5.692 0-10.312-4.473-10.312-10.309zm16.09.002c0-3.545-2.551-5.894-5.779-5.894-3.231 0-5.779 2.349-5.779 5.89 0 3.543 2.548 5.895 5.779 5.895 3.226 0 5.779-2.352 5.779-5.891zm9.333 12.754l4.83-12.754-4.83-12.756 7.359 12.756-7.359 12.754zm86.67-25.636l-4.832 12.751 4.832 12.76-7.362-12.76 7.362-12.751zm-43.82-33.705l.629-1.09.626 1.09 9.984 17.287 2.615 4.53c-3.945-2.087-8.446-3.277-13.228-3.277s-9.278 1.19-13.224 3.277l2.617-4.53 9.981-17.287zm-40.553 22.685l.632 1.084 9.979 17.291 2.292 3.965c.615-9.468 5.871-17.667 13.523-22.339h-25.167l-1.259-.001zm21.219 47.548h3.88c-7.137-4.924-11.896-13.03-12.236-22.272l-2.252 3.899-9.979 17.283-.632 1.09h21.219zm30.573 5.399l1.906-3.308a28.216 28.216 0 0 1-12.519 2.914c-4.489 0-8.74-1.051-12.518-2.914l1.911 3.308 9.979 17.286.629 1.089.626-1.089 9.986-17.286zm30.568-5.399l-.629-1.09-9.976-17.283-2.255-3.899c-.343 9.24-5.104 17.35-12.236 22.272h25.096zm0-47.548H184.69c7.653 4.672 12.908 12.874 13.521 22.343l2.297-3.969 9.976-17.291.629-1.083zM175.054 74.07h-10.343v-4.267h10.343c1.281 0 2.101.896 2.101 2.134 0 1.244-.86 2.133-2.101 2.133zm2.966 7.195c0 1.345-.896 2.31-2.277 2.31h-11.03V78.96h11.03c1.381-.001 2.277.962 2.277 2.305zm-8.086-27.513c-12.823 0-23.251 10.428-23.251 23.246 0 12.824 10.428 23.254 23.251 23.254 12.82 0 23.251-10.43 23.251-23.254 0-12.818-10.431-23.246-23.251-23.246zm5.809 34.98h-.827v4.475h-4.068v-4.475h-2.053v4.475h-4.062v-4.471h-8.109v-5.138h2.579V69.795h-2.579v-5.153h8.109v-4.467h4.062v4.467h2.053v-4.467h4.068v4.467h.14c4.199 0 7.61 2.726 7.61 6.888 0 1.996-.792 3.582-2.103 4.713 1.793 1.141 2.961 2.992 2.961 5.436-.001 4.268-3.474 7.053-7.781 7.053z"/></svg>