<svg xmlns="http://www.w3.org/2000/svg" width="265.485" height="154.946"><linearGradient id="a" gradientUnits="userSpaceOnUse" x1="-168" y1="157.228" x2="-13.054" y2="157.228" gradientTransform="translate(168 -79.755)"><stop offset="0" stop-color="#9b4b8d"/><stop offset="1" stop-color="#a14b8a"/></linearGradient><circle fill="url(#a)" cx="77.473" cy="77.473" r="77.473"/><path d="M35.294 93.584v2.373h4.57v2.707h-4.57v4.518h-2.813V90.877h7.471v2.707h-4.658zm13.532 6.89v2.707h-7.207V90.877h2.813v9.598l4.394-.001zm8.962 0v2.707h-7.734V90.877H57.7v2.707h-4.834v2.039h4.395v2.672h-4.395v2.18l4.922-.001zm8.048 2.707l-2.074-3.551-2.074 3.551h-3.199l3.674-6.311-3.498-5.994h3.199l1.898 3.252 1.898-3.252h3.199l-3.498 5.994 3.674 6.311h-3.199zm7.239-12.304v12.305h-2.813V90.877h2.813zm11.249 8.701c0 2.18-1.775 3.604-3.973 3.604h-5.168V90.877h4.816c2.145 0 3.885 1.389 3.885 3.516 0 1.021-.404 1.828-1.072 2.408.914.579 1.512 1.529 1.512 2.777zm-6.329-6.065v2.181h2.004c.633 0 1.072-.457 1.072-1.091 0-.633-.422-1.09-1.072-1.09h-2.004zm3.516 5.854c0-.688-.457-1.181-1.16-1.181h-2.355v2.355h2.355c.703.003 1.16-.489 1.16-1.174zm7.028-8.49v12.305h-2.813V90.877h2.813zm9.315 9.597v2.707h-7.207V90.877h2.813v9.598l4.394-.001zm4.04-9.597v12.305h-2.813V90.877h2.813zm10.369 2.707h-3.164v9.598h-2.812v-9.598h-3.164v-2.707h9.141l-.001 2.707zm7.117 4.869v4.729h-2.813v-4.729l-4.131-7.576h3.199l2.338 4.746 2.338-4.746h3.199l-4.13 7.576zm-18.757-52.409c-3.34-1.06-6.676-2.121-10.019-3.183-.851-.271-1.708-.528-2.682-.832.114.316.179.509.253.689.396.975.769 1.955 1.196 2.918.177.404.071.574-.29.766-.894.472-1.777.959-2.639 1.482-5.688 3.467-9.728 8.279-11.926 14.592-1.597 4.582-2.206 9.332-2.391 14.148h8.914c.1-2.537.382-5.049.874-7.543 1.272-6.412 4.689-11.254 10.491-14.367.41-.215.598-.24.783.264.424 1.152.92 2.279 1.426 3.519.166-.274.285-.461.387-.654 1.913-3.559 3.821-7.12 5.748-10.67.103-.19.077-.563.47-.504v-.496c-.2-.043-.405-.068-.595-.129zm-26.711 8.272c-.569-.627-1.096-1.287-1.688-1.894-2.412-2.479-5.227-4.407-8.299-5.971-.501-.257-.555-.5-.325-.951.179-.351.311-.72.458-1.082.302-.752.604-1.506.902-2.265-.293-.11-.481.021-.666.078-2.861.864-5.714 1.75-8.578 2.604-1.381.416-2.73.926-4.145 1.211v.494c.364-.074.353.266.45.441 1.973 3.621 3.935 7.248 5.902 10.869.105.19.148.438.421.553.47-1.152.948-2.293 1.398-3.437.148-.383.288-.51.708-.282 4.12 2.235 7.297 5.344 9.125 9.727.065.16.074.365.302.469.877-3.531 2.172-6.883 4.103-9.973.152-.236.106-.398-.068-.591zm-2.507-17.834c.484-.015.612.119.609.604-.025 3.197-.005 6.394-.02 9.588 0 .336.088.562.361.781a27.016 27.016 0 0 1 3.767 3.649c.282.336.418.302.678-.01a26.736 26.736 0 0 1 3.727-3.604c.313-.25.398-.514.396-.895-.014-3.175.003-6.351-.02-9.523-.002-.465.111-.586.572-.572 1.267.037 2.537.008 3.906.008-.222-.281-.367-.475-.518-.662-2.631-3.277-5.27-6.555-7.895-9.835-.114-.142-.37-.248-.262-.518h-.248c.12.193-.085.248-.157.342-2.5 3.042-5.005 6.075-7.499 9.12-.39.478-.845.914-1.178 1.539 1.318.004 2.548.026 3.781-.012z" fill="#FFF"/><linearGradient id="b" gradientUnits="userSpaceOnUse" x1="1295.54" y1="-274.787" x2="1445.84" y2="-274.787" gradientTransform="rotate(90 549.11 -746.428)"><stop offset="0" stop-opacity="0"/><stop offset="1"/></linearGradient><path opacity=".2" fill="url(#b)" d="M152.618 75.154C152.618 33.65 118.97.001 77.469.001c-41.504 0-75.15 33.647-75.15 75.153 0 41.504 33.646 75.147 75.15 75.147 41.501.003 75.149-33.643 75.149-75.147zm-138.826 0c0-35.17 28.51-63.68 63.677-63.68 35.171 0 63.678 28.51 63.678 63.68 0 35.168-28.507 63.676-63.678 63.676-35.167.002-63.677-28.508-63.677-63.676z"/><linearGradient id="c" gradientUnits="userSpaceOnUse" x1="-578.654" y1="-1709.236" x2="-517.401" y2="-1709.236" gradientTransform="rotate(-90 641.631 -1146.088)"><stop offset="0" stop-color="#fff" stop-opacity="0"/><stop offset="1" stop-color="#fff"/></linearGradient><path opacity=".5" fill="url(#c)" d="M78.482 12.945c-33.826 0-61.25 27.424-61.25 61.252h122.501c0-33.828-27.421-61.252-61.251-61.252z"/><g fill="#333"><circle cx="259.039" cy="72.216" r="6.446"/><path d="M167.666 70.998h92.833v2.197h-92.833z"/><path d="M167.831 72.216l5.95-5.948-1.552-1.552-5.95 5.95-1.552 1.55 1.552 1.553 5.95 5.951 1.552-1.551z"/></g></svg>