<svg xmlns="http://www.w3.org/2000/svg" width="404.43" height="226.553"><linearGradient id="a" gradientUnits="userSpaceOnUse" x1="28.338" y1="76.644" x2="236.43" y2="76.644" gradientTransform="matrix(1 0 0 -1 168 147.798)"><stop offset="0" stop-color="#4b48bf"/><stop offset="1" stop-color="#a14b8a"/></linearGradient><path fill="url(#a)" d="M196.338 71.152c0 10.269 8.324 18.591 18.59 18.591h170.911c10.271 0 18.591-8.322 18.591-18.591s-8.318-18.589-18.591-18.589H214.928c-10.265 0-18.59 8.321-18.59 18.589z"/><linearGradient id="b" gradientUnits="userSpaceOnUse" x1="28.338" y1="24.083" x2="236.43" y2="24.083" gradientTransform="matrix(1 0 0 -1 168 147.798)"><stop offset="0" stop-color="#4b48bf"/><stop offset="1" stop-color="#a14b8a"/></linearGradient><path fill="url(#b)" d="M196.338 123.717c0 10.265 8.324 18.589 18.59 18.589h170.911c10.271 0 18.591-8.324 18.591-18.589 0-10.266-8.318-18.593-18.591-18.593H214.928c-10.265 0-18.59 8.327-18.59 18.593z"/><linearGradient id="c" gradientUnits="userSpaceOnUse" x1="28.338" y1="-28.482" x2="236.43" y2="-28.482" gradientTransform="matrix(1 0 0 -1 168 147.798)"><stop offset="0" stop-color="#4b48bf"/><stop offset="1" stop-color="#a14b8a"/></linearGradient><path fill="url(#c)" d="M196.338 176.278c0 10.266 8.324 18.591 18.59 18.591h170.911c10.271 0 18.591-8.325 18.591-18.591 0-10.267-8.318-18.588-18.591-18.588H214.928c-10.265 0-18.59 8.322-18.59 18.588z"/><linearGradient id="d" gradientUnits="userSpaceOnUse" x1="28.338" y1="129.208" x2="236.43" y2="129.208" gradientTransform="matrix(1 0 0 -1 168 147.798)"><stop offset="0" stop-color="#4b48bf"/><stop offset="1" stop-color="#a14b8a"/></linearGradient><path fill="url(#d)" d="M196.338 18.589c0 10.266 8.324 18.59 18.59 18.59h170.911c10.271 0 18.591-8.324 18.591-18.59S396.109 0 385.839 0H214.928c-10.265 0-18.59 8.323-18.59 18.589z"/><circle fill="#333" cx="138.609" cy="18.589" r="6.447"/><circle fill="#333" cx="174.808" cy="71.152" r="6.447"/><circle fill="#333" cx="174.808" cy="123.716" r="6.447"/><circle fill="#333" cx="138.609" cy="176.278" r="6.447"/><path fill="none" d="M196.338 18.589h-51.282"/><path fill="#333" d="M145.056 17.489h51.282v2.197h-51.282v-2.197z"/><path fill="none" d="M196.608 71.152h-15.354"/><path fill="#333" d="M181.254 70.057h15.354v2.195h-15.354v-2.195z"/><path fill="none" d="M196.608 123.716h-15.354"/><path fill="#333" d="M181.254 122.617h15.354v2.198h-15.354v-2.198z"/><path fill="none" d="M196.338 176.278h-51.282"/><path fill="#333" d="M145.056 175.181h51.282v2.197h-51.282v-2.197z"/><linearGradient id="e" gradientUnits="userSpaceOnUse" x1="-165.278" y1="49.809" x2="-10.332" y2="49.809" gradientTransform="matrix(1 0 0 -1 168 147.798)"><stop offset="0" stop-color="#4b48bf"/><stop offset="1" stop-color="#4e48bd"/></linearGradient><circle fill="url(#e)" cx="80.195" cy="97.989" r="77.473"/><path fill="#FFF" d="M25.388 114.099h-3.164v9.598h-2.813v-9.598h-3.164v-2.708h9.141v2.708zm8.962 6.888v2.707h-7.732V111.39h7.646v2.707H29.43v2.039h4.396v2.672H29.43v2.18h4.92zm.964-3.444c0-3.621 2.688-6.398 6.396-6.398 2.232 0 4.201 1.107 5.273 2.848l-2.428 1.406c-.545-.949-1.6-1.513-2.848-1.513-2.18 0-3.586 1.46-3.586 3.656 0 2.197 1.406 3.656 3.586 3.656 1.248 0 2.32-.563 2.848-1.513l2.428 1.406c-1.057 1.74-3.023 2.848-5.273 2.848-3.707.001-6.396-2.775-6.396-6.396zm22.478-6.152v12.305h-2.813v-4.887h-3.867v4.887h-2.813v-12.305h2.813v4.711h3.867v-4.711h2.813zm11.774 0v12.305h-2.109l-4.746-6.68v6.68h-2.813v-12.305h2.107l4.746 6.68v-6.68h2.815zm1.579 6.152c0-3.621 2.864-6.398 6.397-6.398s6.398 2.777 6.398 6.398-2.865 6.397-6.398 6.397-6.397-2.776-6.397-6.397zm9.983 0c0-2.196-1.582-3.655-3.586-3.655s-3.586 1.459-3.586 3.655c0 2.197 1.582 3.656 3.586 3.656s3.586-1.459 3.586-3.656zm11.598 3.444v2.707H85.52V111.39h2.813v9.597h4.393zm-.003-3.444c0-3.621 2.865-6.398 6.398-6.398 3.533 0 6.398 2.777 6.398 6.398s-2.865 6.397-6.398 6.397c-3.533 0-6.398-2.776-6.398-6.397zm9.984 0c0-2.196-1.582-3.655-3.586-3.655s-3.586 1.459-3.586 3.655c0 2.197 1.582 3.656 3.586 3.656s3.586-1.459 3.586-3.656zm16.573.353c0 3.762-2.619 6.047-6.064 6.047-3.867 0-6.645-2.849-6.645-6.381 0-3.568 2.83-6.417 6.45-6.417 2.354 0 4.343 1.16 5.38 2.813l-2.393 1.371c-.51-.809-1.617-1.441-3.006-1.441-2.074 0-3.621 1.529-3.621 3.691 0 2.092 1.479 3.621 3.867 3.621 1.635 0 2.707-.721 3.146-1.898h-3.286v-2.461h6.17l.002 1.055zm4.389-6.505v12.305h-2.813v-12.305h2.813zm9.842 9.596v2.707h-7.732V111.39h7.646v2.707h-4.834v2.039h4.396v2.672h-4.396v2.18h4.92zm.964-.088l2.428-1.405c.438 1.021 1.193 1.705 2.584 1.705 1.336 0 1.67-.527 1.67-1.002 0-.757-.703-1.056-2.549-1.564-1.828-.51-3.621-1.389-3.621-3.743 0-2.374 2.004-3.745 4.131-3.745 2.021 0 3.604.967 4.5 2.777l-2.373 1.39c-.422-.879-1.002-1.425-2.127-1.425-.879 0-1.318.439-1.318.933 0 .563.299.949 2.215 1.529 1.863.563 3.955 1.213 3.955 3.813 0 2.373-1.896 3.778-4.568 3.778-2.589 0-4.241-1.229-4.927-3.041z"/><g fill="#FFF"><path d="M65.585 56.229c2.619 0 5.241.02 7.86-.012.617-.011.98.199 1.333.698 1.264 1.799 2.599 3.549 3.852 5.356.396.574.795.787 1.503.765 2.403-.071 4.399 1.685 4.658 4 .268 2.466-1.229 4.625-3.619 5.119-1.725.354-3.254-.107-4.436-1.438-1.198-1.351-1.467-2.945-.89-4.639.159-.481.132-.806-.168-1.21a178.786 178.786 0 0 1-2.995-4.149c-.246-.352-.507-.528-.965-.525-3.437.02-6.873.02-10.309-.006-.587-.003-.758.185-.755.763.017 3.904.012 7.812.003 11.715 0 .393.1.713.333 1.028 1.905 2.586 3.807 5.18 5.692 7.776.247.337.511.454.933.449 2.625-.037 4.638 1.785 4.828 4.332.183 2.433-1.657 4.588-4.187 4.91-3.388.427-6.03-3.066-4.746-6.317.202-.51.153-.841-.158-1.266-2.097-2.817-4.153-5.661-6.24-8.484a1.835 1.835 0 0 1-.389-1.157c.016-5.611.021-11.22-.009-16.832-.006-.741.239-.902.929-.894 2.65.038 5.298.017 7.942.018zm14.631 9.301c-1.23-.008-2.229.965-2.229 2.181 0 1.19.957 2.158 2.153 2.182a2.193 2.193 0 0 0 2.259-2.126v-.026c.02-1.246-.927-2.204-2.183-2.211zM67.837 88.728c1.216-.011 2.173-.972 2.155-2.161-.014-1.211-1.03-2.215-2.229-2.201-1.203.016-2.132.958-2.132 2.176.003 1.248.962 2.196 2.206 2.186zm26.945 9.348c-2.674.006-5.342-.008-8.013.017-.521.003-.854-.151-1.16-.586-1.364-1.944-2.773-3.855-4.145-5.788-.281-.396-.544-.581-1.085-.552-2.038.117-3.855-1.136-4.541-3.033-.692-1.932-.051-4.093 1.58-5.308 1.599-1.193 3.847-1.214 5.479-.054 1.649 1.176 2.364 3.331 1.658 5.272-.223.618-.146 1.035.233 1.538a138.438 138.438 0 0 1 2.906 4.028c.266.378.55.558 1.033.555 3.409-.017 6.817-.017 10.23 0 .575.005.774-.168.771-.757-.022-3.927-.014-7.857-.008-11.789 0-.362-.097-.664-.313-.957a1124.856 1124.856 0 0 1-5.834-7.95c-.27-.369-.563-.464-.993-.468-2.491-.029-4.447-1.916-4.55-4.359-.1-2.474 1.611-4.561 3.975-4.838 2.548-.302 4.774 1.307 5.204 3.782.159.945.08 1.888-.37 2.75-.216.416-.143.709.122 1.065 2.097 2.818 4.166 5.651 6.266 8.465.296.397.43.79.43 1.288-.011 5.611-.021 11.224.006 16.834.006.698-.219.869-.877.863-2.666-.032-5.334-.018-8.004-.018zm-14.585-9.348c1.224 0 2.218-.989 2.203-2.199a2.195 2.195 0 0 0-2.169-2.164c-1.23-.017-2.226.937-2.238 2.164-.014 1.213.97 2.199 2.204 2.199zm12.48-23.198c-1.236-.008-2.227.955-2.229 2.174a2.184 2.184 0 0 0 2.179 2.189h.034c1.198-.001 2.188-.969 2.194-2.134.006-1.241-.953-2.222-2.178-2.229z"/><path d="M79.146 79.091c-1.608 0-3.219-.026-4.82.013-.566.013-.896-.185-1.216-.638-1.295-1.836-2.647-3.633-3.945-5.472-.373-.531-.746-.774-1.44-.766-2.426.026-4.33-1.817-4.541-4.29-.191-2.303 1.479-4.444 3.792-4.864a4.628 4.628 0 0 1 5.271 3.202c.319 1.058.288 2.106-.165 3.112-.182.418-.146.714.12 1.076a152.021 152.021 0 0 1 2.972 4.166c.29.421.618.551 1.107.549 3.243-.019 6.48.001 9.72-.02.572-.006.945.148 1.29.632 1.301 1.836 2.664 3.627 3.971 5.46.35.487.688.698 1.327.678 2.438-.068 4.492 1.808 4.669 4.165.193 2.585-1.441 4.652-3.983 5.042-2.36.356-4.624-1.207-5.141-3.584-.192-.911-.171-1.831.216-2.693.199-.447.125-.769-.157-1.145-1.012-1.342-2-2.704-2.962-4.083-.294-.413-.614-.558-1.112-.552-1.66.028-3.316.012-4.973.012zm13.515 9.637c1.204-.005 2.209-.989 2.194-2.151-.016-1.221-1.021-2.223-2.229-2.212a2.19 2.19 0 0 0-2.181 2.161 2.19 2.19 0 0 0 2.178 2.202h.038zM67.809 69.893c1.221-.001 2.183-.938 2.186-2.137.003-1.238-.968-2.226-2.188-2.226-1.242 0-2.188.965-2.172 2.215a2.142 2.142 0 0 0 2.136 2.148h.038z"/></g><g fill="#FFF"><path d="M246.984 72.132c0 1.635-1.332 2.702-2.979 2.702h-3.876v-9.229h3.612c1.606 0 2.913 1.042 2.913 2.637 0 .765-.305 1.371-.807 1.807.689.434 1.137 1.146 1.137 2.083zm-4.746-4.549v1.635h1.503c.475 0 .805-.343.805-.817s-.313-.817-.805-.817l-1.503-.001zm2.636 4.391c0-.515-.343-.884-.87-.884h-1.768v1.767h1.768c.528-.001.87-.37.87-.883zm8.567.83v2.03h-5.405v-9.229h2.106v7.198h3.299v.001zm-.002-2.584c0-2.716 2.146-4.799 4.799-4.799 2.65 0 4.8 2.083 4.8 4.799s-2.147 4.799-4.8 4.799c-2.65 0-4.799-2.083-4.799-4.799zm7.489 0c0-1.646-1.187-2.742-2.688-2.742s-2.689 1.095-2.689 2.742c0 1.648 1.188 2.742 2.689 2.742 1.501 0 2.688-1.094 2.688-2.742zm2.897 0c0-2.716 2.018-4.799 4.799-4.799 1.674 0 3.149.831 3.955 2.136l-1.819 1.055c-.408-.712-1.197-1.134-2.136-1.134-1.636 0-2.688 1.095-2.688 2.742 0 1.648 1.056 2.742 2.688 2.742.938 0 1.739-.422 2.136-1.134l1.819 1.055c-.791 1.306-2.269 2.136-3.955 2.136-2.782 0-4.799-2.083-4.799-4.799zm14.802 4.614l-2.953-4.271v4.271h-2.107v-9.229h2.107v4.008l2.821-4.008h2.397l-3.109 4.496 3.242 4.732-2.398.001z"/><path d="M280.628 70.22c0-2.716 2.019-4.799 4.799-4.799 1.675 0 3.151.831 3.955 2.136l-1.817 1.055c-.407-.712-1.198-1.134-2.138-1.134-1.635 0-2.688 1.095-2.688 2.742 0 1.648 1.055 2.742 2.688 2.742.938 0 1.74-.422 2.138-1.134l1.817 1.055c-.791 1.306-2.269 2.136-3.955 2.136-2.782 0-4.799-2.083-4.799-4.799zm16.86-4.615v9.229h-2.109v-3.665h-2.9v3.665h-2.106v-9.229h2.106v3.533h2.9v-3.533h2.109zm6.985 7.779h-3.429l-.462 1.45h-2.307l3.138-9.229h2.688l3.139 9.229h-2.307l-.46-1.45zm-.634-1.978l-1.081-3.388-1.081 3.388h2.162zm6.299-5.801v9.229h-2.106v-9.229h2.106zm8.832 0v9.229h-1.582l-3.56-5.01v5.01h-2.109v-9.229h1.582l3.563 5.01v-5.01h2.106z"/></g><g fill="#FFF"><path d="M249.355 21.684h-2.109v-5.365l-2.387 3.915h-.237l-2.386-3.915v5.365h-2.109v-9.229h2.109l2.505 4.101 2.505-4.101h2.109v9.229zm.854-2.98v-6.249h2.109v6.064c0 .699.328 1.292 1.447 1.292 1.121 0 1.45-.593 1.45-1.292v-6.064h2.109v6.249c0 1.978-1.529 3.164-3.563 3.164-2.022 0-3.552-1.186-3.552-3.164zm13.378.949v2.03h-5.405v-9.229h2.109v7.198l3.296.001zm5.537-5.168h-2.373v7.198h-2.108v-7.198h-2.373v-2.03h6.854v2.03zm2.37-2.03v9.229h-2.109v-9.229h2.109zm8.963 7.198v2.03h-5.405v-9.229h2.109v7.198l3.296.001zm6.063 0v2.03h-5.801v-9.229h5.734v2.03h-3.625v1.529h3.296v2.004h-3.296v1.635l3.692.001z"/><path d="M286.254 12.455h2.307l2.047 6.79 2.043-6.79h2.308l-3.006 9.229h-2.688l-3.011-9.229zm14.631 7.198v2.03h-5.801v-9.229h5.734v2.03h-3.625v1.529h3.296v2.004h-3.296v1.635l3.692.001zm5.931 0v2.03h-5.405v-9.229h2.106v7.198l3.299.001zm2.106-7.198h2.31l2.044 6.79 2.044-6.79h2.307l-3.006 9.229h-2.689l-3.01-9.229zm14.632 7.198v2.03h-5.801v-9.229h5.735v2.03h-3.626v1.529h3.296v2.004h-3.296v1.635l3.692.001zm3.636-1.002h-1.004v3.032h-2.107v-9.229h3.689a3.154 3.154 0 0 1 3.163 3.147v.017c0 1.134-.686 2.162-1.698 2.677l1.965 3.388h-2.271l-1.737-3.032zm-1.002-1.845h1.581c.579 0 1.057-.514 1.057-1.187 0-.672-.478-1.187-1.057-1.187h-1.581v2.374zm7.446-4.351v9.229h-2.106v-9.229h2.106zm3.031 2.03v1.78h3.428v2.03h-3.428v3.388h-2.109v-9.229h5.604v2.03l-3.495.001zm6.195-2.03v9.229h-2.109v-9.229h2.109zm.526 4.614c0-2.716 2.02-4.799 4.8-4.799 1.677 0 3.15.831 3.954 2.136l-1.816 1.055c-.408-.712-1.199-1.134-2.138-1.134-1.636 0-2.688 1.095-2.688 2.742 0 1.648 1.055 2.742 2.688 2.742.938 0 1.739-.422 2.138-1.134l1.816 1.055c-.791 1.306-2.268 2.136-3.954 2.136-2.783 0-4.8-2.083-4.8-4.799zm14.487 3.164h-3.428l-.462 1.45h-2.31l3.141-9.229h2.688l3.138 9.229h-2.307l-.46-1.45zm-.633-1.977l-1.081-3.388-1.081 3.388h2.162zm9.068-3.771h-2.372v7.198h-2.107v-7.198h-2.373v-2.03h6.854l-.002 2.03zm2.371-2.03v9.229h-2.106v-9.229h2.106zm.527 4.614c0-2.716 2.147-4.799 4.799-4.799s4.799 2.083 4.799 4.799-2.146 4.799-4.799 4.799c-2.651 0-4.799-2.083-4.799-4.799zm7.488 0c0-1.647-1.188-2.742-2.689-2.742s-2.688 1.095-2.688 2.742c0 1.648 1.187 2.742 2.688 2.742s2.689-1.093 2.689-2.742zm9.884-4.614v9.229h-1.582l-3.562-5.01v5.01h-2.107v-9.229h1.582l3.56 5.01v-5.01h2.109z"/></g><path fill="#FFF" d="M248.302 122.533c0 2.61-1.938 4.614-4.479 4.614h-3.691v-9.229h3.691c2.541.001 4.479 2.005 4.479 4.615zm-2.031 0c0-1.582-1.002-2.584-2.451-2.584h-1.582v5.168h1.582c1.45 0 2.451-1.002 2.451-2.584zm9.016 2.584v2.03h-5.801v-9.229h5.732v2.03h-3.626v1.529h3.296v2.004h-3.296v1.635l3.695.001zm.722-2.584c0-2.716 2.019-4.8 4.8-4.8 1.676 0 3.15.832 3.955 2.137l-1.818 1.055c-.407-.712-1.198-1.134-2.137-1.134-1.636 0-2.688 1.095-2.688 2.742s1.055 2.741 2.688 2.741c.938 0 1.739-.422 2.137-1.133l1.818 1.055c-.791 1.306-2.269 2.136-3.955 2.136-2.784 0-4.8-2.083-4.8-4.799zm15.541 2.584v2.03h-5.801v-9.229h5.735v2.03h-3.627v1.529h3.297v2.004h-3.297v1.635l3.693.001zm8.436-7.198v9.229h-1.582l-3.563-5.01v5.01h-2.107v-9.229h1.582l3.561 5.01v-5.01h2.109zm7.775 2.03h-2.372v7.198h-2.107v-7.198h-2.373v-2.03h6.854l-.002 2.03zm4.031 4.166h-1.002v3.032h-2.108v-9.229h3.69a3.157 3.157 0 0 1 3.164 3.149v.015c0 1.134-.688 2.162-1.7 2.677l1.964 3.389h-2.269l-1.739-3.033zm-1.002-1.844h1.582c.58 0 1.055-.515 1.055-1.188 0-.672-.475-1.188-1.055-1.188h-1.582v2.376zm11.401 3.426h-3.43l-.461 1.45h-2.308l3.138-9.229h2.689l3.138 9.229h-2.308l-.458-1.45zm-.632-1.977l-1.08-3.388-1.08 3.388h2.16zm9.595 1.397v2.03h-5.405v-9.229h2.109v7.198l3.296.001zm3.03-7.198v9.229h-2.106v-9.229h2.106zm7.58 7.198v2.03h-6.328v-1.635l3.533-5.563h-3.468v-2.03h6.196v1.635l-3.533 5.563h3.6zm6.59.58h-3.43l-.462 1.45h-2.307l3.138-9.229h2.689l3.138 9.229h-2.308l-.458-1.45zm-.634-1.977l-1.081-3.388-1.081 3.388h2.162zm9.727-3.771h-2.373v7.198h-2.109v-7.198h-2.373v-2.03h6.855v2.03zm3.03-2.03v9.229h-2.106v-9.229h2.106zm1.186 4.614c0-2.716 2.146-4.8 4.799-4.8s4.799 2.084 4.799 4.8-2.146 4.799-4.799 4.799-4.799-2.083-4.799-4.799zm7.488 0c0-1.647-1.188-2.742-2.689-2.742s-2.688 1.095-2.688 2.742 1.187 2.741 2.688 2.741 2.689-1.091 2.689-2.741zm10.543-4.614v9.229h-1.582l-3.563-5.01v5.01h-2.106v-9.229h1.582l3.56 5.01v-5.01h2.109z"/><path opacity=".25" d="M201.614 17.736c0 7.811 6.332 14.14 14.144 14.14 7.809 0 14.139-6.329 14.139-14.14 0-7.809-6.33-14.139-14.139-14.139-7.813 0-14.144 6.33-14.144 14.139zm0 52.599c0 7.812 6.332 14.141 14.144 14.141 7.809 0 14.139-6.329 14.139-14.141 0-7.809-6.33-14.138-14.139-14.138-7.813 0-14.144 6.329-14.144 14.138zm0 52.564c0 7.812 6.332 14.141 14.144 14.141 7.809 0 14.139-6.329 14.139-14.141 0-7.81-6.33-14.142-14.139-14.142-7.813.001-14.144 6.333-14.144 14.142zm0 52.565c0 7.809 6.332 14.139 14.144 14.139 7.809 0 14.139-6.33 14.139-14.139 0-7.813-6.33-14.14-14.139-14.14-7.813 0-14.144 6.327-14.144 14.14z"/><path fill="#FFF" d="M226.533 12.844l-3.347-3.349-9.857 9.849-5.253-5.256-3.351 3.348 5.255 5.26-.005.007 3.354 3.348v-.006l.008.006 3.351-3.348-.006-.007zm-10.776 103.753l6.07 6.07-6.069 6.07-6.071-6.07zm0-4.889l-3.881 3.88h7.761zm0 21.921l3.88-3.882h-7.761zm7.077-14.841v7.763l3.883-3.883zm-14.154 7.763v-7.763l-3.884 3.88z"/><path fill="#333" d="M138.607 17.336v2.696c23.679 17.568 39.058 45.721 39.058 77.403 0 31.681-15.379 59.832-39.058 77.399v2.696c24.949-17.896 41.256-47.119 41.256-80.096s-16.305-62.202-41.256-80.098z"/><linearGradient id="f" gradientUnits="userSpaceOnUse" x1="920.69" y1="1203.629" x2="1070.99" y2="1203.629" gradientTransform="matrix(0 1 1 0 -1123.437 -900.173)"><stop offset="0" stop-opacity="0"/><stop offset="1"/></linearGradient><path opacity=".2" fill="url(#f)" d="M155.341 95.669c0-41.504-33.646-75.152-75.146-75.152-41.508 0-75.151 33.648-75.151 75.152 0 41.503 33.646 75.148 75.151 75.148 41.499 0 75.146-33.645 75.146-75.148zm-138.824 0c0-35.17 28.51-63.679 63.679-63.679 35.171 0 63.678 28.509 63.678 63.679 0 35.167-28.507 63.678-63.678 63.678-35.171 0-63.679-28.511-63.679-63.678z"/><linearGradient id="g" gradientUnits="userSpaceOnUse" x1="-1296.647" y1="1539.688" x2="-1235.396" y2="1539.688" gradientTransform="matrix(0 -1 -1 0 1619.907 -1203.023)"><stop offset="0" stop-color="#fff" stop-opacity="0"/><stop offset="1" stop-color="#fff"/></linearGradient><path opacity=".5" fill="url(#g)" d="M80.219 32.373c-33.823 0-61.25 27.423-61.25 61.251h122.502c0-33.829-27.422-61.251-61.252-61.251z"/><g fill="#333"><circle cx="78.479" cy="191.031" r="6.446"/><path d="M2.702 220.089h64.795c6.661 0 12.082-5.417 12.082-12.078v-23.355h-2.198v23.355c0 5.449-4.436 9.885-9.884 9.885H2.702v2.193z"/><path d="M3.104 219.05l5.949 5.951-1.552 1.552-5.95-5.95L0 219.05l1.551-1.552 5.95-5.952 1.552 1.553-5.949 5.951z"/></g><path d="M244.595 179.464h-3.483l-.469 1.475h-2.345l3.188-9.379h2.733l3.188 9.379h-2.345l-.467-1.475zm-.644-2.01l-1.099-3.443-1.099 3.443h2.198zm7.019.402h-1.019v3.082h-2.144v-9.379h3.751a3.208 3.208 0 0 1 3.216 3.215c0 1.152-.696 2.197-1.729 2.721l1.996 3.443h-2.304l-1.767-3.082zm-1.019-1.875h1.607c.59 0 1.072-.523 1.072-1.207 0-.682-.482-1.205-1.072-1.205h-1.607v2.412zm11.787-2.357h-2.411v7.314h-2.144v-7.314h-2.412v-2.064h6.967v2.064zm2.678-2.064v9.379h-2.144v-9.379h2.144zm3.348 2.064v1.809h3.483v2.063h-3.483v3.443h-2.144v-9.379h5.694v2.064h-3.55zm6.563-2.064v9.379h-2.144v-9.379h2.144zm.803 4.689c0-2.76 2.05-4.877 4.876-4.877 1.701 0 3.202.844 4.02 2.17l-1.849 1.072c-.416-.723-1.22-1.152-2.171-1.152-1.661 0-2.732 1.113-2.732 2.787s1.071 2.787 2.732 2.787c.951 0 1.769-.43 2.171-1.152l1.849 1.072c-.804 1.326-2.305 2.17-4.02 2.17-2.826 0-4.876-2.117-4.876-4.877zm11.64-4.689v9.379h-2.144v-9.379h2.144zm6.698 7.904h-3.483l-.469 1.475h-2.345l3.188-9.379h2.733l3.188 9.379h-2.345l-.467-1.475zm-.644-2.01l-1.099-3.443-1.099 3.443h2.198zm9.349 1.42v2.064h-5.493v-9.379h2.144v7.314h3.349zm5.624-7.314v9.379h-2.144v-9.379h2.144zm8.573 0v9.379h-1.607l-3.617-5.092v5.092h-2.144v-9.379h1.607l3.617 5.092v-5.092h2.144zm7.501 2.064h-2.411v7.314h-2.144v-7.314h-2.412v-2.064h6.967v2.064zm6.428 5.25v2.064h-5.895v-9.379h5.828v2.064h-3.685v1.553h3.35v2.037h-3.35v1.66h3.752zm6.296 0v2.064h-5.493v-9.379h2.144v7.314h3.349zm6.026 0v2.064h-5.493v-9.379h2.144v7.314h3.349zm2.678-7.314v9.379h-2.144v-9.379h2.144zm10.489 4.957c0 2.867-1.996 4.609-4.622 4.609-2.947 0-5.063-2.17-5.063-4.863 0-2.721 2.156-4.891 4.916-4.891 1.796 0 3.31.885 4.1 2.145l-1.821 1.045c-.389-.617-1.233-1.1-2.291-1.1-1.581 0-2.76 1.166-2.76 2.814 0 1.594 1.125 2.76 2.947 2.76 1.246 0 2.063-.551 2.397-1.447h-2.505v-1.875h4.702v.803zm6.695 2.357v2.064h-5.895v-9.379h5.828v2.064h-3.685v1.553h3.35v2.037h-3.35v1.66h3.752zm8.17-7.314v9.379h-1.607l-3.617-5.092v5.092h-2.144v-9.379h1.607l3.617 5.092v-5.092h2.144zm.803 4.689c0-2.76 2.05-4.877 4.876-4.877 1.701 0 3.202.844 4.02 2.17l-1.849 1.072c-.416-.723-1.22-1.152-2.171-1.152-1.661 0-2.732 1.113-2.732 2.787s1.071 2.787 2.732 2.787c.951 0 1.769-.43 2.171-1.152l1.849 1.072c-.804 1.326-2.305 2.17-4.02 2.17-2.826 0-4.876-2.117-4.876-4.877zm15.391 2.625v2.064h-5.895v-9.379h5.828v2.064h-3.685v1.553h3.35v2.037h-3.35v1.66h3.752zM225.655 66.392a3.148 3.148 0 0 0-1.952-1.093c-1.079-.156-2.021.16-2.819.903-1.369-1.047-2.713-2.084-4.063-3.11-.162-.12-.129-.241-.1-.393.262-1.224-.488-2.482-1.688-2.828-1.227-.356-2.527.284-2.975 1.469a2.43 2.43 0 0 0 1.225 3.058c.885.413 1.734.301 2.548-.245 1.378 1.059 2.759 2.116 4.131 3.183.074.055.082.22.077.331-.016.459-.174.956-.04 1.366.211.652-.039.945-.521 1.29-1.062.76-2.077 1.576-3.123 2.378a4.486 4.486 0 0 0-7.676 3.153 4.487 4.487 0 1 0 8.975 0c0-.854-.252-1.644-.666-2.323.085.125.173.245.252.376l-.021-.048c1.272-.971 2.528-1.938 3.781-2.897 1.693 1.354 3.652.828 4.632-.288a3.264 3.264 0 0 0 .023-4.282z" fill="#FFF"/><g fill="#FFF"><path d="M218.869 173.136c-.895.11-1.611.853-1.74 1.798-.034.251-.011.601-.381.547-.385-.056-.293-.395-.255-.669.239-1.615 1.584-2.515 3.601-2.244-.124-.433-.17-.808-.336-1.118-.231-.434-.656-.643-1.152-.688-.473-.042-.354.435-.558.629-.026.023-.038.068-.065.078-.175.066-.352.126-.527.188-.001-.179-.029-.365.004-.539.029-.163.159-.311.182-.473a.842.842 0 0 0-.805-.945c-.533-.03-.921.319-.926.884-.013 1.451-.006 2.902-.006 4.354.001 1.606.004 3.214.002 4.821 0 .434.213.722.604.871.362.139.682.032.927-.262.259-.312.3-.653.086-1.006-.133-.217-.377-.463-.041-.654.344-.194.466.156.621.373.037.055.074.12.087.186.067.319.286.338.552.307.692-.079 1.254-.7 1.266-1.415.013-.754-.523-1.345-1.308-1.502-.172-.034-.311-.228-.465-.346.191-.094.429-.309.567-.258.534.194 1.038.474 1.621.754.721-.503 1.028-1.444.677-2.358-.347-.906-1.25-1.438-2.232-1.313zm-4.21-3.383c-.292-.044-.689.076-.922.268-.318.265-.27.662-.068 1.043.088.16.132.506.05.566-.281.203-.468-.036-.609-.268-.062-.102-.077-.243-.157-.32-.12-.114-.28-.268-.418-.264-.865.026-1.476.852-1.296 1.782.146-.024.263-.049.38-.061 1.566-.175 2.932.882 3.063 2.398.018.19-.156.396-.24.595-.13-.166-.343-.316-.375-.499-.181-1.015-.843-1.739-1.752-1.857-.99-.129-1.892.395-2.238 1.301-.354.923-.066 1.823.685 2.385.546-.278 1.029-.556 1.541-.77.223-.092.566-.125.625.241.056.338-.23.343-.481.381-.638.105-1.064.476-1.229 1.108-.151.592.01 1.122.502 1.469.265.186.629.285.952.299.13.006.274-.322.411-.5.043-.054.066-.144.119-.167.17-.067.348-.114.523-.168-.002.18.063.402-.018.536-.237.386-.311.789.025 1.083.223.195.619.326.907.283.423-.064.627-.432.627-.888a5552.26 5552.26 0 0 1 0-9.126c.001-.432-.207-.789-.607-.85z"/><path d="M224.758 171.955v-1.777h-2.125v-2.036h-2.037v-2.123h-1.775v2.123h-.972v-2.123h-1.776v2.123h-.97v-2.123h-1.776v2.123h-.972v-2.123h-1.775v2.123h-2.037v2.036h-2.125v1.777h2.125v.97h-2.125v1.777h2.125v.971h-2.125v1.777h2.125v.97h-2.125v1.777h2.125v2.036h2.037v2.123h1.775v-2.123h.972v2.123h1.776v-2.123h.97v2.123h1.776v-2.123h.972v2.123h1.775v-2.123h2.037v-2.036h2.125v-1.777h-2.125v-.97h2.125v-1.777h-2.125v-.971h2.125v-1.777h-2.125v-.97h2.125zm-3.984 5.422a.501.501 0 0 0-.149.372c.142 1.408-.633 2.35-2.063 2.505-.143.015-.327.098-.404.209-.693 1.027-1.546 1.155-2.559.336-1.106.82-1.838.706-2.596-.36a.451.451 0 0 0-.319-.171c-1.247.005-2.383-1.12-2.136-2.546.021-.108-.077-.278-.172-.361-1.464-1.287-1.47-3.044-.021-4.346a.615.615 0 0 0 .173-.456c-.156-1.257.739-2.34 2.035-2.451.155-.014.362-.091.442-.207.685-1.007 1.581-1.139 2.521-.363.33-.16.635-.379.97-.452.652-.143 1.209.098 1.555.676.161.27.334.343.636.37 1.273.115 2.092 1.182 1.944 2.455a.563.563 0 0 0 .161.415c1.485 1.34 1.478 3.042-.018 4.375z"/></g></svg>