<svg xmlns="http://www.w3.org/2000/svg" width="266.252" height="154.943"><linearGradient id="a" gradientUnits="userSpaceOnUse" x1="-140.692" y1="-27.283" x2="14.252" y2="-27.283" gradientTransform="matrix(1 0 0 -1 252 50.189)"><stop offset="0" stop-color="#9b4b8d"/><stop offset="1" stop-color="#a14b8a"/></linearGradient><circle fill="url(#a)" cx="188.78" cy="77.472" r="77.472"/><g fill="#FFF"><path d="M193.933 38.366c1.109-.046 2.166.268 3.154.797 1.045.559 2.064 1.151 3.031 1.846.904.643 1.851 1.213 3.021 1.229.758.021 1.5-.219 2.104-.678.318-.233.458-.192.641.157 1.825 3.519 3.658 7.025 5.506 10.531.523.996 1.104 1.963 1.657 2.941.606 1.076.55 1.754-.308 2.646a660.383 660.383 0 0 1-4.875 5.028c-.521.53-.574.522-1.061-.007-4.611-5.094-9.229-10.178-13.843-15.273-1.426-1.582-1.698-1.617-3.593-.602-2.646 1.418-5.313 2.805-7.971 4.201-.672.354-1.379.597-2.15.556-.941-.048-1.639-.61-1.816-1.556-.209-1.053.026-2.018.908-2.682 3.872-2.918 7.707-5.896 12.026-8.162 1.115-.576 2.262-1.009 3.569-.972zm26.513 15.278c.049.442-.172.791-.523.989-1.113.615-2.199 1.296-3.404 1.724-.774.272-1.199.099-1.586-.646-.854-1.627-1.697-3.264-2.543-4.898-1.658-3.215-3.324-6.436-4.983-9.65-.806-1.559-.693-1.908.853-2.748a78.68 78.68 0 0 1 1.996-1.041c1.264-.641 1.742-.49 2.393.756 1.439 2.767 2.869 5.533 4.299 8.299 1.072 2.068 2.143 4.136 3.201 6.205.163.314.332.628.297 1.01zm-61.688.39c-.048-.242.056-.488.146-.732 1.914-5.107 3.826-10.215 5.742-15.314.455-1.209.945-1.428 2.17-1.004.813.285 1.634.543 2.438.855.988.383 1.186.787.822 1.791-.739 2.063-1.518 4.111-2.283 6.168-1.167 3.143-2.343 6.279-3.493 9.432-.207.568-.601.938-1.026 1.302-.146.122-.269.093-.414.043-1.092-.396-2.194-.761-3.271-1.192-.628-.257-.847-.695-.831-1.349z"/><path d="M165.873 55.866c-.022-.449.146-.812.285-1.179 1.754-4.662 3.514-9.323 5.276-13.983.133-.363.267-.742.531-1.045.606-.687 1.461-.718 2.106-.021.786.854 1.712 1.344 2.893 1.219.679-.069 1.31-.315 1.913-.625 1.188-.604 2.354-1.252 3.559-1.817 1.41-.666 2.885-.965 4.407-.355a3.7 3.7 0 0 1 .46.215c.28.15.699.318.668.613-.039.344-.455.498-.797.633-.282.108-.59.133-.886.07-1.349-.275-2.619-.039-3.823.57-.892.444-1.751.948-2.631 1.401-1.477.758-3.001 1.187-4.66.664a4.98 4.98 0 0 1-1.677-.896c-.376-.313-.558-.293-.737.205-1.419 3.847-2.851 7.69-4.294 11.528-.241.649-.518 1.287-.771 1.933-.23.573-.15 1.078.291 1.549 1.17 1.252 2.309 2.533 3.482 3.772.286.31.286.479-.004.771-.794.805-.773.816-1.533-.043a1389.439 1389.439 0 0 0-3.592-4.064c-.283-.332-.537-.675-.466-1.115zm27.148 19.109c.258-1.191.611-1.491 1.729-1.463.354.013.663-.11.933-.336 1.063-.896 1.262-2.477.377-3.539-1.218-1.461-2.438-2.918-3.746-4.297-.547-.573-.311-1.146-.313-1.733 0-.192.188-.151.305-.125.387.088.74.205 1.025.526a582.74 582.74 0 0 0 4.335 4.828c.269.293.538.588.84.84.765.65 1.609.777 2.278.373.809-.492 1.285-1.57 1.102-2.473-.117-.546-.339-1.035-.715-1.447-1.396-1.549-2.768-3.129-4.205-4.643-.494-.521-.488-1.059-.287-1.604.199-.525.637-.082.963-.084.107 0 .235.168.344.275 1.603 1.793 3.205 3.596 4.812 5.389.236.266.474.535.74.771 1.136 1.027 2.175.94 3.108-.272.422-.537.834-1.062 1.375-1.482.348-.271.404-.155.453.199.281 2.021-1.142 3.771-3.234 3.709-1.164-.033-1.854.328-2.312 1.334-.149.32-.396.602-.61.877-1.032 1.336-1.938 1.634-3.549 1.105-.441-.146-.586-.084-.721.377-.373 1.311-.992 2.451-2.447 2.844-.857.239-1.713.02-2.58.051zm-10.217-1.444c-1.23.006-2.24-1.205-2.173-2.523.04-.703.285-1.313.789-1.813 1.491-1.479 3.074-2.876 4.657-4.263 1.122-.973 2.568-.602 3.334.68.734 1.242.158 2.223-.604 3.074-1.427 1.605-3.076 2.98-4.721 4.355-.37.311-.827.518-1.282.49zm-.658-11.988c1.771.054 2.272.914 2.424 2.342.068.664-.484 1.367-.98 1.908-1.093 1.199-2.32 2.267-3.568 3.289-1.061.865-2.103.803-2.916-.072-.879-.938-.975-2.452-.151-3.344a33.052 33.052 0 0 1 4.168-3.799 1.612 1.612 0 0 1 1.023-.324z"/><path d="M188.603 76.467c-1.082-.014-1.664-.506-2.069-1.233-.407-.72-.481-1.452.021-2.175.823-1.178 1.733-2.271 2.877-3.155.904-.696 1.817-.625 2.596.218.367.396.588.864.731 1.377.091.321.021.604-.108.914-.599 1.418-1.651 2.455-2.758 3.45-.414.366-.894.628-1.29.604zm-17.198-12.185c-.022-.959.33-1.65 1.02-2.177.238-.178.483-.356.737-.521.94-.612 1.769-.578 2.604.09.771.609 1.062 1.638.729 2.591-.381 1.11-1.901 2.336-2.938 2.356-1.247.032-2.152-.988-2.152-2.339z"/></g><linearGradient id="b" gradientUnits="userSpaceOnUse" x1="744.59" y1="1440.367" x2="894.892" y2="1440.367" gradientTransform="matrix(0 1 1 0 -1251.586 -743.272)"><stop offset="0" stop-opacity="0"/><stop offset="1"/></linearGradient><path opacity=".2" fill="url(#b)" d="M263.929 76.469c0-41.504-33.646-75.151-75.147-75.151-41.507 0-75.15 33.647-75.15 75.151s33.646 75.15 75.15 75.15c41.498.001 75.147-33.646 75.147-75.15zm-138.827 0c0-35.17 28.508-63.678 63.68-63.678 35.171 0 63.678 28.508 63.678 63.678 0 35.168-28.507 63.679-63.678 63.679-35.172 0-63.68-28.511-63.68-63.679z"/><linearGradient id="c" gradientUnits="userSpaceOnUse" x1="-1586.977" y1="1260.618" x2="-1525.725" y2="1260.618" gradientTransform="matrix(0 -1 -1 0 1449.397 -1512.781)"><stop offset="0" stop-color="#fff" stop-opacity="0"/><stop offset="1" stop-color="#fff"/></linearGradient><path opacity=".5" fill="url(#c)" d="M188.78 12.944c-33.827 0-61.252 27.425-61.252 61.252h122.5c0-33.828-27.42-61.252-61.248-61.252z"/><g fill="#333"><path d="M12.889 72.219a6.445 6.445 0 0 1-6.447 6.443h-.001a6.44 6.44 0 0 1-6.44-6.44v-.003a6.444 6.444 0 1 1 12.888 0z"/><path d="M4.982 71.241h92.834v2.195H4.982v-2.195z"/><path d="M97.651 72.215l-5.949 5.953 1.552 1.551 5.949-5.951 1.552-1.553-1.552-1.55-5.949-5.95-1.552 1.552 5.949 5.948z"/></g><g fill="#FFF"><path d="M135.418 90.763v12.529h-2.147l-4.833-6.802v6.802h-2.864V90.763h2.148l4.833 6.802v-6.802h2.863zm.718 6.265c0-3.687 2.917-6.515 6.515-6.515s6.515 2.828 6.515 6.515c0 3.688-2.917 6.516-6.515 6.516s-6.515-2.829-6.515-6.516zm10.166 0c0-2.237-1.611-3.723-3.651-3.723S139 94.79 139 97.028s1.611 3.723 3.651 3.723 3.651-1.486 3.651-3.723zm6.623 0c0-3.687 2.738-6.515 6.515-6.515 2.273 0 4.278 1.127 5.37 2.899l-2.471 1.432c-.555-.967-1.628-1.539-2.899-1.539-2.219 0-3.651 1.485-3.651 3.723s1.433 3.723 3.651 3.723c1.271 0 2.363-.572 2.899-1.539l2.471 1.432c-1.074 1.772-3.079 2.9-5.37 2.9-3.777-.001-6.515-2.829-6.515-6.516z"/><path d="M164.542 97.028c0-3.687 2.917-6.515 6.515-6.515s6.516 2.828 6.516 6.515c0 3.688-2.918 6.516-6.516 6.516s-6.515-2.829-6.515-6.516zm10.166 0c0-2.237-1.61-3.723-3.651-3.723-2.04 0-3.651 1.485-3.651 3.723s1.611 3.723 3.651 3.723c2.041-.001 3.651-1.486 3.651-3.723zm7.805 2.148h-1.36v4.116h-2.863V90.763h5.012a4.285 4.285 0 0 1 4.295 4.296c0 1.539-.931 2.936-2.309 3.634l2.667 4.6h-3.079l-2.363-4.117zm-1.361-2.506h2.148c.787 0 1.432-.698 1.432-1.611s-.645-1.61-1.432-1.61h-2.148v3.221zm11.475 2.506h-1.36v4.116h-2.863V90.763h5.012a4.285 4.285 0 0 1 4.295 4.296c0 1.539-.931 2.936-2.309 3.634l2.667 4.6h-3.079l-2.363-4.117zm-1.36-2.506h2.148c.787 0 1.432-.698 1.432-1.611s-.645-1.61-1.432-1.61h-2.148v3.221zm7.07 2.577v-8.484h2.864v8.233c0 .949.447 1.754 1.969 1.754s1.969-.805 1.969-1.754v-8.233h2.863v8.484c0 2.685-2.076 4.296-4.832 4.296-2.757 0-4.833-1.611-4.833-4.296zm19.958-4.188c0 2.381-1.915 4.296-4.385 4.296h-1.88v3.938h-2.863v-12.53h4.743c2.47 0 4.385 1.915 4.385 4.296zm-2.863 0c0-.913-.645-1.61-1.521-1.61h-1.88v3.222h1.88c.876-.001 1.521-.699 1.521-1.612z"/><path d="M227.065 93.52h-3.222v9.772h-2.864V93.52h-3.222v-2.757h9.308v2.757zm3.223-2.757v12.529h-2.863V90.763h2.863zm.717 6.265c0-3.687 2.917-6.515 6.515-6.515s6.516 2.828 6.516 6.515c0 3.688-2.918 6.516-6.516 6.516s-6.515-2.829-6.515-6.516zm10.166 0c0-2.237-1.61-3.723-3.651-3.723-2.04 0-3.651 1.485-3.651 3.723s1.611 3.723 3.651 3.723c2.041-.001 3.651-1.486 3.651-3.723zm13.425-6.265v12.529h-2.147l-4.833-6.802v6.802h-2.863V90.763h2.147l4.833 6.802v-6.802h2.863z"/></g></svg>