<svg xmlns="http://www.w3.org/2000/svg" width="159.801" height="203.711"><linearGradient id="a" gradientUnits="userSpaceOnUse" x1="-372" y1="6.719" x2="-217.055" y2="6.719" gradientTransform="matrix(1 0 0 -1 372 132.956)"><stop offset="0" stop-color="#9b4b8d"/><stop offset="1" stop-color="#a14b8a"/></linearGradient><path fill="url(#a)" d="M0 126.236c0-42.783 34.685-77.472 77.471-77.472 42.787 0 77.474 34.688 77.474 77.472 0 42.787-34.688 77.475-77.474 77.475S0 169.023 0 126.236z"/><path fill="#FFF" d="M56.139 106.832c.085.803.171 1.582.253 2.365.005.078.031.156.045.236.025.152-.006.25-.125.377-.424.447-.868.896-1.212 1.4-.458.684-.345 1.008.393 1.42.675.381 1.421.564 2.178.678.837.117 1.68.193 2.534.291-2.693-6.773-2.209-13.176 2.067-19.094 2.966-4.109 7.052-6.582 12.057-7.428 10.776-1.82 20.83 5.813 21.987 16.773.444-.307.876-.588 1.29-.895.771-.572 1.512-1.176 2.073-1.963.146-.201.256-.42.36-.644.131-.289.074-.545-.17-.764a3.151 3.151 0 0 0-1.621-.742c-.615-.086-.899-.393-1.088-.963-.201-.617-.522-1.195-.813-1.836.296.031.577.057.854.098 1.164.175 2.313.418 3.364.979.996.526 1.735 1.264 1.937 2.424.14.824-.071 1.59-.473 2.309-.574 1.019-1.398 1.816-2.298 2.542-2.004 1.614-4.253 2.828-6.567 3.935-2.861 1.371-5.822 2.489-8.838 3.476a95.74 95.74 0 0 1-11.375 2.948c-2.317.447-4.641.832-6.989 1.022-1.688.139-3.38.215-5.073.226-1.868.013-3.727-.153-5.515-.767-.828-.282-1.603-.663-2.187-1.34-.922-1.063-.999-2.239-.436-3.483.396-.879 1.02-1.597 1.726-2.233.407-.378.845-.716 1.275-1.063.125-.102.259-.191.387-.284zm18.602-2.334h5.531c-.119-2.082-.239-4.131-.358-6.207h-3.459c-.39 0-.78-.008-1.173.006-.077.006-.208.096-.21.154a85.43 85.43 0 0 0-.216 2.526 61.66 61.66 0 0 0-.114 2.015c-.013.494-.001.996-.001 1.506zm-13.745.008h4.495c.088-2.104.381-4.164.919-6.215h-.293c-1.034 0-2.064.006-3.092-.006-.194-.002-.291.057-.373.225-.566 1.178-1.011 2.398-1.27 3.678-.153.753-.255 1.521-.386 2.318zm32.899 0c0-.09.002-.154-.003-.219-.175-2.043-.731-3.98-1.617-5.824-.077-.154-.183-.174-.33-.174-1.022.006-2.036.004-3.062.004h-.355c.555 2.057.826 4.119.938 6.215 1.49-.002 2.943-.002 4.429-.002zm-32.856 2.469c.023.209.037.377.054.549.2 1.883.729 3.717 1.563 5.418.077.158.162.226.35.226 1.036-.015 2.078-.004 3.118-.004.085 0 .17-.015.285-.021-.544-2.041-.82-4.091-.92-6.166-1.49-.002-2.945-.002-4.45-.002zm21.323-8.671c.117 2.078.23 4.139.348 6.201h4.308a54.66 54.66 0 0 0-.083-1.146 25.328 25.328 0 0 0-.868-4.849c-.048-.174-.131-.225-.308-.225-1.068.008-2.133.006-3.197.006-.069.002-.144.011-.2.013zm-9.779.004c-.042-.006-.088-.016-.131-.016-1.102-.002-2.204 0-3.308-.008-.188-.002-.225.094-.262.237a24.439 24.439 0 0 0-.845 4.552c-.046.469-.077.946-.111 1.426h4.313c.113-2.072.23-4.126.344-6.191zm-4.618 8.667c-.1 1.114.546 5.133.968 6.01 1.196-.2 2.4-.405 3.584-.61-.088-1.83-.179-3.619-.271-5.397-1.431-.003-2.849-.003-4.281-.003zm6.725.002c.08 1.647.156 3.252.239 4.914a622.25 622.25 0 0 0 4.999-1.308c.071-.021.165-.146.168-.229.048-1.016.085-2.031.123-3.051 0-.104-.012-.211-.017-.328l-5.512.002zM77.545 89.3l-.143.014c-1.261 1.984-1.58 4.263-2.016 6.521h4.157c-.043-.258-.077-.49-.114-.717-.291-1.597-.621-3.183-1.27-4.677-.167-.393-.412-.758-.614-1.141zm3.226 1.012c.601 1.81.957 3.662 1.244 5.529h3.086c-1.017-2.209-2.283-4.169-4.33-5.529zm-7.841 5.533c.291-1.871.655-3.729 1.242-5.537-2.053 1.365-3.314 3.332-4.325 5.537h3.083zm9.647 13.923c.063 0 .094.01.119 0l4.098-1.399c.06-.021.133-.091.137-.142.037-.41.061-.826.085-1.237h-4.339l-.1 2.778zM64.281 95.863c.982 0 1.893.002 2.801-.011.063 0 .154-.104.188-.182.39-.803.732-1.625 1.147-2.412.373-.695.82-1.344 1.247-2.041-2.117 1.158-3.885 2.682-5.383 4.646zm21.009-4.637c.44.717.901 1.41 1.291 2.14.396.733.724 1.51 1.07 2.271.074.162.15.234.34.23.803-.013 1.605-.007 2.405-.007.067 0 .138-.012.253-.022-1.49-1.936-3.251-3.471-5.359-4.612zm4.175 16.081c.242-.101.479-.199.777-.317h-.767l-.031.235c-.001.013.01.031.021.082zm-13.947 9.127c.436 1.981.746 3.979 1.928 5.765.137-.185.256-.308.341-.447.595-1.006.92-2.121 1.185-3.246.216-.92.378-1.854.566-2.778.003-.033-.008-.065-.017-.119-.12-.015-.236-.021-.35-.03 3.208-.896 6.38-1.906 9.535-3.123-.06.26-.104.467-.154.688.089.008.156.021.226.021 1.062 0 2.118-.002 3.177.002.168 0 .273-.045.334-.205.293-.742.588-1.485.899-2.226a.658.658 0 0 1 .272-.327c.797-.433 1.601-.839 2.4-1.255.063-.03.125-.062.239-.112a18.375 18.375 0 0 1-2.614 6.765c-2.289 3.586-5.42 6.168-9.408 7.655-8.042 2.983-16.253.076-20.801-5.267.387-.022.757-.047 1.119-.077.618-.048 1.233-.099 1.851-.136a.518.518 0 0 1 .328.104c.931.81 1.93 1.519 3.015 2.108.023.009.048.015.071.024-.509-.82-1.02-1.64-1.532-2.459.382-.061.701-.108 1.02-.159.45-.063.899-.125 1.349-.209.177-.031.276.008.373.168.564.955 1.221 1.836 2.033 2.594.39.365.817.688 1.227 1.027l.065-.052c-.103-.332-.228-.66-.31-.998-.242-1.002-.47-2.004-.695-3.006-.014-.065.048-.209.091-.22.745-.164 1.491-.316 2.237-.47zm5.253 4.75c2.054-1.412 3.331-3.369 4.33-5.58h-3.065c-.178.944-.328 1.879-.533 2.799-.208.919-.476 1.818-.732 2.781zm9.894-5.594h-.242c-.809 0-1.621.002-2.432-.006-.188-.002-.271.063-.336.23a18.537 18.537 0 0 1-1.873 3.627 9.385 9.385 0 0 1-.256.391c-.085.125-.179.244-.271.367a15.826 15.826 0 0 0 5.41-4.609z"/><linearGradient id="b" gradientUnits="userSpaceOnUse" x1="958.11" y1="1257.543" x2="1108.411" y2="1257.543" gradientTransform="matrix(0 1 1 0 -1180.075 -908.606)"><stop offset="0" stop-opacity="0"/><stop offset="1"/></linearGradient><path opacity=".2" fill="url(#b)" d="M152.618 124.656c0-41.504-33.647-75.152-75.15-75.152-41.504 0-75.149 33.648-75.149 75.152s33.645 75.148 75.149 75.148c41.502.003 75.15-33.644 75.15-75.148zm-138.826 0c0-35.168 28.509-63.681 63.676-63.681 35.171 0 63.678 28.513 63.678 63.681 0 35.168-28.507 63.678-63.678 63.678-35.167 0-63.676-28.51-63.676-63.678z"/><linearGradient id="c" gradientUnits="userSpaceOnUse" x1="-1600.145" y1="1739.693" x2="-1538.895" y2="1739.693" gradientTransform="scale(1 -1) rotate(90 169.498 1648)"><stop offset="0" stop-color="#fff" stop-opacity="0"/><stop offset="1" stop-color="#fff"/></linearGradient><path opacity=".5" fill="url(#c)" d="M77.804 60.392c-33.826 0-61.25 27.422-61.25 61.25h122.501c0-33.829-27.42-61.25-61.251-61.25z"/><g fill="#333"><circle cx="153.357" cy="6.445" r="6.445"/><path d="M78.678 39.205H76.48V17.307c0-6.662 5.42-12.082 12.08-12.082h64.8v2.197h-64.8c-5.449 0-9.882 4.434-9.882 9.885v21.898z"/><path d="M77.662 37.965l-5.952-5.952-1.551 1.55 5.951 5.952 1.552 1.55 1.551-1.55 5.952-5.952-1.553-1.55-5.95 5.952z"/></g><g fill="#FFF"><path d="M17.554 145.938c0-3.681 2.734-6.504 6.504-6.504 2.269 0 4.271 1.126 5.36 2.895l-2.466 1.43c-.554-.965-1.626-1.537-2.895-1.537-2.216 0-3.645 1.483-3.645 3.717s1.429 3.717 3.645 3.717c1.269 0 2.358-.572 2.895-1.537l2.466 1.43c-1.072 1.769-3.073 2.895-5.36 2.895-3.77-.003-6.504-2.826-6.504-6.506z"/><path d="M29.152 145.938c0-3.681 2.913-6.504 6.504-6.504s6.504 2.823 6.504 6.504-2.913 6.504-6.504 6.504-6.504-2.824-6.504-6.504zm10.149 0c0-2.233-1.608-3.717-3.645-3.717s-3.645 1.483-3.645 3.717 1.608 3.717 3.645 3.717 3.645-1.484 3.645-3.717zm16.083 6.253h-2.859v-7.272l-3.234 5.307h-.322l-3.234-5.307v7.272h-2.859v-12.508h2.859l3.395 5.558 3.395-5.558h2.859v12.508zm10.366-8.219c0 2.377-1.912 4.289-4.377 4.289h-1.876v3.931h-2.859v-12.508h4.735c2.465 0 4.377 1.912 4.377 4.288zm-2.859 0c0-.911-.643-1.607-1.519-1.607h-1.876v3.216h1.876c.876-.001 1.519-.697 1.519-1.609zm10.722 5.467v2.752h-7.326v-12.508h2.859v9.756h4.467zm8.22 0v2.752h-7.861v-12.508h7.773v2.752H76.83v2.072h4.467v2.716H76.83v2.216h5.003z"/><path d="M90.948 142.436h-3.217v9.756h-2.859v-9.756h-3.215v-2.752h9.291v2.752zm8.219 7.003v2.752h-7.861v-12.508h7.773v2.752h-4.914v2.072h4.467v2.716h-4.467v2.216h5.002zm10.544-9.755v12.508h-2.145l-4.824-6.79v6.79h-2.859v-12.508h2.145l4.824 6.79v-6.79h2.859zm9.114 9.755v2.752h-7.861v-12.508h7.773v2.752h-4.914v2.072h4.467v2.716h-4.467v2.216h5.002zm.092-.088l2.465-1.43c.447 1.036 1.217 1.733 2.627 1.733 1.359 0 1.697-.536 1.697-1.019 0-.769-.715-1.072-2.59-1.591-1.859-.518-3.682-1.411-3.682-3.806 0-2.412 2.037-3.806 4.199-3.806 2.055 0 3.664.982 4.574 2.823l-2.412 1.411c-.428-.893-1.018-1.447-2.162-1.447-.893 0-1.34.447-1.34.947 0 .572.305.965 2.252 1.555 1.893.571 4.02 1.232 4.02 3.877 0 2.412-1.93 3.842-4.645 3.842-2.627.001-4.306-1.25-5.003-3.089z"/><path d="M128.12 149.351l2.465-1.43c.447 1.036 1.217 1.733 2.627 1.733 1.359 0 1.697-.536 1.697-1.019 0-.769-.715-1.072-2.59-1.591-1.859-.518-3.682-1.411-3.682-3.806 0-2.412 2.037-3.806 4.199-3.806 2.055 0 3.664.982 4.574 2.823l-2.412 1.411c-.428-.893-1.018-1.447-2.162-1.447-.893 0-1.34.447-1.34.947 0 .572.305.965 2.252 1.555 1.893.571 4.02 1.232 4.02 3.877 0 2.412-1.93 3.842-4.645 3.842-2.626.001-4.306-1.25-5.003-3.089z"/></g></svg>