<svg xmlns="http://www.w3.org/2000/svg" width="868.048" height="351.663" viewBox="0 -366.437 868.048 351.663"><linearGradient id="a" gradientUnits="userSpaceOnUse" x1="-1249.8" y1="1030.134" x2="-1176.259" y2="1030.134" gradientTransform="rotate(90 152.524 1311.332)"><stop offset="0" stop-color="#a14b8a" stop-opacity=".7"/><stop offset="1" stop-color="#a14b8a" stop-opacity="0"/></linearGradient><path fill="url(#a)" d="M0-90.992h867.444v73.541H0z"/><linearGradient id="b" gradientUnits="userSpaceOnUse" x1="3817.159" y1="1801.716" x2="4026.599" y2="1801.716" gradientTransform="rotate(90 3209.776 -973.819)"><stop offset="0" stop-color="#a14b8a"/><stop offset="1" stop-color="#a14b8a" stop-opacity="0"/></linearGradient><path fill="url(#b)" d="M867.963-156.996v-201.356a8.085 8.085 0 0 0-8.084-8.085H8.603a8.087 8.087 0 0 0-8.086 8.085v201.356h867.446z"/><linearGradient id="c" gradientUnits="userSpaceOnUse" x1="49.651" y1="744.661" x2="616.047" y2="744.661" gradientTransform="translate(252 -1084.87)"><stop offset="0" stop-color="#a14b8a"/><stop offset="1" stop-color="#a14b8a" stop-opacity="0"/></linearGradient><path fill="url(#c)" d="M859.963-366.437H301.651l566.396 52.455v-44.37a8.084 8.084 0 0 0-8.084-8.085z"/><linearGradient id="d" gradientUnits="userSpaceOnUse" x1="3283.669" y1="744.663" x2="4082.326" y2="744.663" gradientTransform="matrix(-1 0 0 1 4082.759 -1084.871)"><stop offset="0" stop-color="#a14b8a"/><stop offset="1" stop-color="#a14b8a" stop-opacity="0"/></linearGradient><path fill="url(#d)" d="M8.517-366.437H799.09L.433-313.981v-44.37a8.085 8.085 0 0 1 8.084-8.086z"/><linearGradient id="e" gradientUnits="userSpaceOnUse" x1="3213.272" y1="150.747" x2="4065.302" y2="150.747" gradientTransform="matrix(-1 0 0 1 4073.43 -516.507)"><stop offset="0" stop-color="#fff" stop-opacity=".048"/><stop offset=".489" stop-color="#fff"/><stop offset="1" stop-color="#fff" stop-opacity="0"/></linearGradient><path fill="url(#e)" d="M8.128-366.435h852.03v1.349H8.128v-1.349z"/><path d="M38.794-308.717c0-3.709 2.935-6.554 6.554-6.554s6.554 2.845 6.554 6.554-2.935 6.554-6.554 6.554-6.554-2.845-6.554-6.554zm10.227 0c0-2.251-1.621-3.745-3.673-3.745-2.053 0-3.673 1.494-3.673 3.745s1.621 3.745 3.673 3.745c2.053 0 3.673-1.494 3.673-3.745zm7.379-3.529v2.431h4.681v2.773H56.4v4.627h-2.881v-12.604h7.652v2.772H56.4zm9.359 0v2.431h4.682v2.773h-4.682v4.627h-2.881v-12.604h7.652v2.772h-4.771zm9.36-2.773v12.604h-2.881v-12.604h2.881zm1.619 6.302c0-3.709 2.755-6.554 6.554-6.554 2.287 0 4.303 1.134 5.401 2.916l-2.485 1.441c-.558-.973-1.638-1.549-2.917-1.549-2.233 0-3.673 1.494-3.673 3.745s1.44 3.745 3.673 3.745c1.278 0 2.376-.576 2.917-1.549l2.485 1.44c-1.08 1.783-3.097 2.917-5.401 2.917-3.799.002-6.554-2.843-6.554-6.552zm21.224 3.529v2.772H90.04v-12.604h7.832v2.772h-4.951v2.089h4.501v2.736h-4.501v2.233h5.041zm5.868-1.369h-1.368v4.142h-2.881v-12.604h5.041a4.31 4.31 0 0 1 4.321 4.321c0 1.548-.936 2.952-2.322 3.655l2.683 4.627h-3.097l-2.377-4.141zm-1.369-2.52h2.16c.792 0 1.44-.702 1.44-1.62 0-.919-.648-1.621-1.44-1.621h-2.16v3.241zm16.938 2.52h-1.369v4.142h-2.881v-12.604h5.042a4.31 4.31 0 0 1 4.321 4.321c0 1.548-.937 2.952-2.323 3.655l2.683 4.627h-3.097l-2.376-4.141zm-1.368-2.52h2.161c.792 0 1.44-.702 1.44-1.62 0-.919-.648-1.621-1.44-1.621h-2.161v3.241zm16.111 3.889v2.772h-7.922v-12.604h7.832v2.772h-4.951v2.089h4.501v2.736h-4.501v2.233h5.041zm.718-9.831h3.025l2.179 8.822 2.431-8.822h2.34l2.431 8.822 2.178-8.822h3.025l-3.475 12.604h-3.277l-2.052-7.437-2.053 7.437h-3.277l-3.475-12.604zm25.526 10.623h-4.681l-.63 1.98h-3.151l4.285-12.604h3.673l4.285 12.604h-3.151l-.63-1.98zm-.865-2.701l-1.476-4.627-1.477 4.627h2.953zm9.972.54h-1.368v4.142h-2.881v-12.604h5.041a4.31 4.31 0 0 1 4.321 4.321c0 1.548-.936 2.952-2.322 3.655l2.683 4.627h-3.097l-2.377-4.141zm-1.368-2.52h2.16c.792 0 1.44-.702 1.44-1.62 0-.919-.648-1.621-1.44-1.621h-2.16v3.241zm19.352.36c0 3.565-2.647 6.302-6.122 6.302h-5.042v-12.604h5.042c3.475 0 6.122 2.737 6.122 6.302zm-2.773 0c0-2.161-1.368-3.529-3.349-3.529h-2.161v7.059h2.161c1.98-.001 3.349-1.37 3.349-3.53zm-145.91 21.6c0-3.709 2.755-6.554 6.554-6.554 2.287 0 4.303 1.134 5.401 2.916l-2.485 1.441c-.558-.973-1.638-1.549-2.917-1.549-2.233 0-3.673 1.494-3.673 3.745s1.44 3.745 3.673 3.745c1.278 0 2.376-.576 2.917-1.549l2.485 1.44c-1.08 1.783-3.097 2.917-5.401 2.917-3.799.002-6.554-2.843-6.554-6.552zm20.685 4.321h-4.681l-.63 1.98h-3.151l4.285-12.604h3.673l4.285 12.604h-3.151l-.63-1.98zm-.864-2.701l-1.477-4.627-1.476 4.627h2.953zm13.104 1.909v2.772h-7.382v-12.604h2.881v9.831h4.501zm-.003-3.529c0-3.709 2.755-6.554 6.554-6.554 2.287 0 4.303 1.134 5.401 2.916l-2.485 1.441c-.558-.973-1.638-1.549-2.917-1.549-2.233 0-3.673 1.494-3.673 3.745s1.44 3.745 3.673 3.745c1.278 0 2.376-.576 2.917-1.549l2.485 1.44c-1.08 1.783-3.097 2.917-5.401 2.917-3.799.002-6.554-2.843-6.554-6.552zm13.213 2.232v-8.534h2.881v8.282c0 .954.45 1.765 1.98 1.765 1.531 0 1.981-.811 1.981-1.765v-8.282h2.881v8.534c0 2.701-2.089 4.321-4.862 4.321-2.772.001-4.861-1.62-4.861-4.321zm19.172 1.297v2.772h-7.382v-12.604H99.6v9.831h4.501zm8.999.792h-4.681l-.63 1.98h-3.151l4.285-12.604h3.673l4.285 12.604h-3.151l-.63-1.98zm-.864-2.701l-1.477-4.627-1.476 4.627h2.953zm13.285-5.149h-3.241v9.831h-2.881v-9.831h-3.241v-2.772h9.363v2.772zm4.138-2.773v12.604h-2.881v-12.604h2.881zm1.619 6.302c0-3.709 2.935-6.554 6.554-6.554s6.554 2.845 6.554 6.554-2.935 6.554-6.554 6.554-6.554-2.845-6.554-6.554zm10.227 0c0-2.251-1.621-3.745-3.673-3.745-2.053 0-3.673 1.494-3.673 3.745s1.621 3.745 3.673 3.745 3.673-1.494 3.673-3.745zm14.4-6.302v12.604h-2.161l-4.861-6.842v6.842h-2.881v-12.604h2.16l4.862 6.842v-6.842h2.881zm14.58 9.831v2.772h-7.923v-12.604h7.833v2.772h-4.952v2.089h4.501v2.736h-4.501v2.233h5.042zm8.243 2.773l-2.125-3.637-2.125 3.637h-3.277l3.763-6.464-3.583-6.14h3.277l1.944 3.331 1.945-3.331h3.277l-3.583 6.14 3.763 6.464h-3.276zm11.916-1.981h-4.681l-.63 1.98h-3.151l4.285-12.604h3.673l4.285 12.604h-3.151l-.63-1.98zm-.864-2.701l-1.477-4.627-1.476 4.627h2.953zm18.325 4.682h-2.881v-7.328l-3.259 5.348h-.324l-3.259-5.348v7.328h-2.881v-12.604h2.881l3.421 5.6 3.421-5.6h2.881v12.604zm11.339-8.283c0 2.395-1.927 4.321-4.412 4.321h-1.891v3.961h-2.881v-12.604h4.771c2.487.001 4.413 1.928 4.413 4.322zm-2.881 0c0-.919-.648-1.621-1.531-1.621h-1.891v3.241h1.891c.883 0 1.531-.702 1.531-1.62zm11.701 5.51v2.772h-7.382v-12.604h2.881v9.831h4.501zm9.18 0v2.772h-7.922v-12.604h7.832v2.772h-4.951v2.089h4.501v2.736h-4.501v2.233h5.041zm-193.86 64.493h-1.369v4.142h-2.881v-12.604h5.042a4.31 4.31 0 0 1 4.321 4.321c0 1.548-.937 2.952-2.323 3.655l2.683 4.627H45.96l-2.376-4.141zm-1.369-2.52h2.161c.792 0 1.44-.702 1.44-1.62 0-.919-.648-1.621-1.44-1.621h-2.161v3.241zm12.223 4.502c.738 0 1.369-.289 1.729-.685l2.161 1.242c-.882 1.225-2.214 1.854-3.925 1.854-3.079 0-4.988-2.07-4.988-4.753 0-2.684 1.945-4.754 4.79-4.754 2.629 0 4.573 2.035 4.573 4.754 0 .378-.036.738-.108 1.08h-6.392c.342.937 1.17 1.262 2.16 1.262zm1.657-3.278c-.288-1.045-1.098-1.423-1.909-1.423-1.026 0-1.71.505-1.962 1.423h3.871zm13.896.937c0 2.683-1.945 4.753-4.303 4.753-1.207 0-2.089-.414-2.683-1.099v4.448h-2.701v-12.604h2.701v.847c.594-.685 1.477-1.099 2.683-1.099 2.358 0 4.303 2.07 4.303 4.754zm-2.7 0c0-1.351-.9-2.197-2.143-2.197-1.243 0-2.143.847-2.143 2.197s.9 2.196 2.143 2.196c1.242 0 2.143-.846 2.143-2.196zm3.777 0c0-2.684 2.125-4.754 4.771-4.754 2.647 0 4.771 2.07 4.771 4.754 0 2.683-2.125 4.753-4.771 4.753s-4.771-2.07-4.771-4.753zm6.842 0c0-1.278-.9-2.125-2.071-2.125s-2.07.847-2.07 2.125.9 2.124 2.07 2.124 2.071-.846 2.071-2.124zm9.63-4.682v3.061c-1.117-.18-2.701.271-2.701 2.053v4.069h-2.701v-9.003h2.701v1.603c.36-1.207 1.567-1.783 2.701-1.783zm4.949 2.773v3.188c0 .773.667.846 1.854.773v2.449c-3.529.36-4.555-.702-4.555-3.223v-3.188h-1.44v-2.593h1.44v-1.71l2.701-.811v2.521h1.854v2.593h-1.854zm7.776 4.25c.738 0 1.369-.289 1.729-.685l2.161 1.242c-.882 1.225-2.214 1.854-3.925 1.854-3.079 0-4.988-2.07-4.988-4.753 0-2.684 1.945-4.754 4.79-4.754 2.629 0 4.573 2.035 4.573 4.754 0 .378-.036.738-.108 1.08h-6.392c.342.937 1.17 1.262 2.16 1.262zm1.657-3.278c-.288-1.045-1.098-1.423-1.909-1.423-1.026 0-1.71.505-1.962 1.423h3.871zm13.357-7.166v12.604h-2.701v-.847c-.594.685-1.477 1.099-2.683 1.099-2.358 0-4.303-2.07-4.303-4.753 0-2.684 1.945-4.754 4.303-4.754 1.207 0 2.089.414 2.683 1.099v-4.447h2.701zm-2.701 8.103c0-1.351-.9-2.197-2.143-2.197-1.243 0-2.143.847-2.143 2.197s.9 2.196 2.143 2.196c1.243 0 2.143-.846 2.143-2.196zm8.907-6.914c0-.883.738-1.621 1.621-1.621s1.62.738 1.62 1.621c0 .882-.738 1.62-1.62 1.62s-1.621-.738-1.621-1.62zm.27 2.412h2.701v9.003h-2.701v-9.003zm11.577 6.302c0 2.071-1.801 2.953-3.745 2.953-1.801 0-3.169-.684-3.872-2.143l2.341-1.332c.234.684.738 1.063 1.531 1.063.648 0 .972-.198.972-.559 0-.99-4.429-.468-4.429-3.583 0-1.963 1.656-2.953 3.529-2.953 1.458 0 2.755.648 3.511 1.927l-2.305 1.242c-.252-.468-.612-.792-1.207-.792-.468 0-.756.18-.756.504 0 1.026 4.43.342 4.43 3.673zm7.884 0c0 2.071-1.801 2.953-3.745 2.953-1.801 0-3.169-.684-3.872-2.143l2.341-1.332c.234.684.738 1.063 1.531 1.063.648 0 .972-.198.972-.559 0-.99-4.429-.468-4.429-3.583 0-1.963 1.656-2.953 3.529-2.953 1.458 0 2.755.648 3.511 1.927l-2.305 1.242c-.252-.468-.612-.792-1.207-.792-.468 0-.756.18-.756.504 0 1.026 4.43.342 4.43 3.673zm9.864-6.302v9.003h-2.701v-.847c-.486.667-1.387 1.099-2.575 1.099-1.819 0-3.367-1.296-3.367-3.727v-5.528h2.701v5.132c0 1.116.702 1.639 1.566 1.639.99 0 1.675-.576 1.675-1.854v-4.916h2.701zm6.55 6.843c.738 0 1.369-.289 1.729-.685l2.161 1.242c-.882 1.225-2.214 1.854-3.925 1.854-3.079 0-4.988-2.07-4.988-4.753 0-2.684 1.945-4.754 4.79-4.754 2.629 0 4.573 2.035 4.573 4.754 0 .378-.036.738-.108 1.08h-6.392c.342.937 1.17 1.262 2.16 1.262zm1.657-3.278c-.288-1.045-1.098-1.423-1.909-1.423-1.026 0-1.71.505-1.962 1.423h3.871zm10.837 2.737c0 2.071-1.801 2.953-3.745 2.953-1.801 0-3.169-.684-3.871-2.143l2.34-1.332c.234.684.738 1.063 1.531 1.063.648 0 .972-.198.972-.559 0-.99-4.429-.468-4.429-3.583 0-1.963 1.656-2.953 3.529-2.953 1.458 0 2.755.648 3.511 1.927l-2.305 1.242c-.252-.468-.612-.792-1.207-.792-.468 0-.756.18-.756.504 0 1.026 4.43.342 4.43 3.673zM42.215-191.057v12.604h-2.881v-12.604h2.881zm9.056 9.903c0 2.071-1.801 2.953-3.745 2.953-1.801 0-3.169-.684-3.871-2.143l2.34-1.332c.234.684.738 1.063 1.531 1.063.648 0 .972-.198.972-.559 0-.99-4.429-.468-4.429-3.583 0-1.963 1.656-2.953 3.529-2.953 1.458 0 2.755.648 3.511 1.927l-2.305 1.242c-.252-.468-.612-.792-1.207-.792-.468 0-.756.18-.756.504 0 1.026 4.43.342 4.43 3.673zm7.884 0c0 2.071-1.801 2.953-3.745 2.953-1.801 0-3.169-.684-3.871-2.143l2.34-1.332c.234.684.738 1.063 1.531 1.063.648 0 .972-.198.972-.559 0-.99-4.429-.468-4.429-3.583 0-1.963 1.656-2.953 3.529-2.953 1.458 0 2.755.648 3.511 1.927l-2.305 1.242c-.252-.468-.612-.792-1.207-.792-.468 0-.756.18-.756.504 0 1.026 4.43.342 4.43 3.673zm9.864-6.302v9.003h-2.701v-.847c-.486.667-1.387 1.099-2.575 1.099-1.819 0-3.367-1.296-3.367-3.727v-5.528h2.701v5.132c0 1.116.702 1.639 1.566 1.639.991 0 1.675-.576 1.675-1.854v-4.916h2.701zm6.55 6.843c.738 0 1.369-.289 1.729-.685l2.161 1.242c-.882 1.225-2.214 1.854-3.925 1.854-3.079 0-4.988-2.07-4.988-4.753 0-2.684 1.945-4.754 4.79-4.754 2.629 0 4.573 2.035 4.573 4.754 0 .378-.036.738-.108 1.08h-6.392c.342.937 1.17 1.262 2.16 1.262zm1.657-3.278c-.288-1.045-1.099-1.423-1.909-1.423-1.026 0-1.71.505-1.962 1.423h3.871zm13.357-7.166v12.604h-2.701v-.847c-.594.685-1.477 1.099-2.683 1.099-2.358 0-4.303-2.07-4.303-4.753 0-2.684 1.945-4.754 4.303-4.754 1.207 0 2.089.414 2.683 1.099v-4.447h2.701zm-2.701 8.103c0-1.351-.9-2.197-2.143-2.197-1.243 0-2.143.847-2.143 2.197s.9 2.196 2.143 2.196c1.243 0 2.143-.846 2.143-2.196zm17.91-4.502l-3.331 9.003H99.4l-3.331-9.003h2.989l1.873 5.708 1.873-5.708h2.988zm5.201 6.843c.738 0 1.369-.289 1.729-.685l2.161 1.242c-.882 1.225-2.214 1.854-3.925 1.854-3.079 0-4.988-2.07-4.988-4.753 0-2.684 1.945-4.754 4.79-4.754 2.629 0 4.573 2.035 4.573 4.754 0 .378-.036.738-.108 1.08h-6.392c.342.937 1.17 1.262 2.16 1.262zm1.657-3.278c-.288-1.045-1.099-1.423-1.909-1.423-1.026 0-1.71.505-1.962 1.423h3.871zm9.612-3.745v3.061c-1.117-.18-2.701.271-2.701 2.053v4.069h-2.701v-9.003h2.701v1.603c.36-1.207 1.566-1.783 2.701-1.783zm10.224-3.421v12.604h-2.701v-.847c-.594.685-1.477 1.099-2.683 1.099-2.358 0-4.303-2.07-4.303-4.753 0-2.684 1.945-4.754 4.303-4.754 1.207 0 2.089.414 2.683 1.099v-4.447h2.701zm-2.7 8.103c0-1.351-.9-2.197-2.143-2.197-1.243 0-2.143.847-2.143 2.197s.9 2.196 2.143 2.196c1.242 0 2.143-.846 2.143-2.196zm4.407-6.914c0-.883.738-1.621 1.621-1.621s1.62.738 1.62 1.621c0 .882-.738 1.62-1.62 1.62s-1.621-.738-1.621-1.62zm.27 2.412h2.701v9.003h-2.701v-9.003zm4.23 4.502c0-2.684 2.035-4.754 4.771-4.754 1.747 0 3.295.918 4.069 2.305l-2.359 1.368c-.306-.63-.954-1.008-1.747-1.008-1.17 0-2.034.846-2.034 2.089 0 1.242.864 2.088 2.034 2.088.792 0 1.458-.378 1.747-1.008l2.359 1.351c-.774 1.404-2.305 2.322-4.069 2.322-2.736 0-4.771-2.07-4.771-4.753zm13.339-1.909v3.188c0 .773.667.846 1.855.773v2.449c-3.529.36-4.556-.702-4.556-3.223v-3.188h-1.44v-2.593h1.44v-1.71l2.701-.811v2.521h1.855v2.593h-1.855zm10.28 3.709c0 2.071-1.801 2.953-3.745 2.953-1.801 0-3.169-.684-3.872-2.143l2.341-1.332c.234.684.738 1.063 1.531 1.063.648 0 .972-.198.972-.559 0-.99-4.429-.468-4.429-3.583 0-1.963 1.656-2.953 3.529-2.953 1.458 0 2.755.648 3.511 1.927l-2.305 1.242c-.252-.468-.612-.792-1.207-.792-.468 0-.756.18-.756.504 0 1.026 4.43.342 4.43 3.673zM38.254-154.557h3.151l2.791 9.272 2.791-9.272h3.151l-4.105 12.604H42.36l-4.106-12.604zm16.364 10.444c.738 0 1.369-.289 1.729-.685l2.161 1.242c-.882 1.225-2.214 1.854-3.925 1.854-3.079 0-4.988-2.07-4.988-4.753 0-2.684 1.945-4.754 4.79-4.754 2.629 0 4.573 2.035 4.573 4.754 0 .378-.036.738-.108 1.08h-6.392c.341.937 1.169 1.262 2.16 1.262zm1.656-3.278c-.288-1.045-1.098-1.423-1.909-1.423-1.026 0-1.71.505-1.962 1.423h3.871zm9.612-3.745v3.061c-1.117-.18-2.701.271-2.701 2.053v4.069h-2.701v-9.003h2.701v1.603c.36-1.207 1.566-1.783 2.701-1.783zm10.225-3.421v12.604H73.41v-.847c-.594.685-1.477 1.099-2.683 1.099-2.358 0-4.303-2.07-4.303-4.753 0-2.684 1.945-4.754 4.303-4.754 1.207 0 2.089.414 2.683 1.099v-4.447h2.701zm-2.701 8.103c0-1.351-.9-2.197-2.143-2.197-1.243 0-2.143.847-2.143 2.197s.9 2.196 2.143 2.196c1.243 0 2.143-.846 2.143-2.196zm4.408-6.914c0-.883.738-1.621 1.621-1.621s1.621.738 1.621 1.621c0 .882-.738 1.62-1.621 1.62s-1.621-.738-1.621-1.62zm.27 2.412h2.701v9.003h-2.701v-9.003zm4.229 4.502c0-2.684 2.035-4.754 4.771-4.754 1.747 0 3.295.918 4.069 2.305l-2.359 1.368c-.306-.63-.954-1.008-1.747-1.008-1.17 0-2.035.846-2.035 2.089 0 1.242.864 2.088 2.035 2.088.792 0 1.458-.378 1.747-1.008l2.359 1.351c-.774 1.404-2.305 2.322-4.069 2.322-2.736 0-4.771-2.07-4.771-4.753zm13.34-1.909v3.188c0 .773.667.846 1.854.773v2.449c-3.529.36-4.555-.702-4.555-3.223v-3.188h-1.44v-2.593h1.44v-1.71l2.701-.811v2.521h1.854v2.593h-1.854zm17.3-2.593v9.003h-2.701v-.847c-.594.685-1.477 1.099-2.683 1.099-2.358 0-4.303-2.07-4.303-4.753 0-2.684 1.945-4.754 4.303-4.754 1.207 0 2.089.414 2.683 1.099v-.847h2.701zm-2.701 4.502c0-1.351-.9-2.197-2.143-2.197-1.243 0-2.143.847-2.143 2.197s.9 2.196 2.143 2.196c1.242 0 2.143-.846 2.143-2.196zm14.364 0c0 2.683-1.945 4.753-4.303 4.753-1.207 0-2.089-.414-2.683-1.099v4.448h-2.701v-12.604h2.701v.847c.594-.685 1.477-1.099 2.683-1.099 2.358 0 4.303 2.07 4.303 4.754zm-2.701 0c0-1.351-.9-2.197-2.143-2.197-1.243 0-2.143.847-2.143 2.197s.9 2.196 2.143 2.196c1.243 0 2.143-.846 2.143-2.196zm13.915 0c0 2.683-1.945 4.753-4.303 4.753-1.207 0-2.089-.414-2.683-1.099v4.448h-2.701v-12.604h2.701v.847c.594-.685 1.477-1.099 2.683-1.099 2.358 0 4.303 2.07 4.303 4.754zm-2.701 0c0-1.351-.9-2.197-2.143-2.197-1.243 0-2.143.847-2.143 2.197s.9 2.196 2.143 2.196c1.243 0 2.143-.846 2.143-2.196zm9.63-4.682v3.061c-1.117-.18-2.701.271-2.701 2.053v4.069h-2.701v-9.003h2.701v1.603c.36-1.207 1.566-1.783 2.701-1.783zm.537 4.682c0-2.684 2.125-4.754 4.771-4.754 2.647 0 4.771 2.07 4.771 4.754 0 2.683-2.125 4.753-4.771 4.753s-4.771-2.07-4.771-4.753zm6.843 0c0-1.278-.9-2.125-2.071-2.125s-2.07.847-2.07 2.125.9 2.124 2.07 2.124 2.071-.846 2.071-2.124zm12.601-4.502l-3.331 9.003h-3.061l-3.331-9.003h2.989l1.873 5.708 1.873-5.708h2.988zm9.864 0v9.003h-2.701v-.847c-.594.685-1.477 1.099-2.683 1.099-2.358 0-4.303-2.07-4.303-4.753 0-2.684 1.945-4.754 4.303-4.754 1.207 0 2.089.414 2.683 1.099v-.847h2.701zm-2.701 4.502c0-1.351-.9-2.197-2.143-2.197-1.243 0-2.143.847-2.143 2.197s.9 2.196 2.143 2.196c1.243 0 2.143-.846 2.143-2.196zm4.677-8.643h2.701v13.144h-2.701v-13.144zM38.705-108.316l2.485-1.44c.45 1.045 1.224 1.747 2.646 1.747 1.369 0 1.71-.54 1.71-1.026 0-.774-.72-1.08-2.61-1.603-1.873-.522-3.709-1.423-3.709-3.835 0-2.431 2.053-3.835 4.231-3.835 2.071 0 3.691.99 4.609 2.845l-2.431 1.422c-.432-.9-1.026-1.458-2.179-1.458-.9 0-1.351.45-1.351.954 0 .576.306.973 2.269 1.566 1.908.576 4.051 1.242 4.051 3.907 0 2.431-1.944 3.871-4.681 3.871-2.646 0-4.338-1.26-5.04-3.115zm19.586-6.14v9.003H55.59v-.847c-.486.667-1.387 1.099-2.575 1.099-1.819 0-3.367-1.296-3.367-3.727v-5.528h2.701v5.132c0 1.116.702 1.639 1.566 1.639.99 0 1.675-.576 1.675-1.854v-4.916h2.701zm11.665 4.502c0 2.683-1.945 4.753-4.303 4.753-1.207 0-2.089-.414-2.683-1.099v4.448h-2.701v-12.604h2.701v.847c.594-.685 1.477-1.099 2.683-1.099 2.358 0 4.303 2.07 4.303 4.754zm-2.701 0c0-1.351-.9-2.197-2.143-2.197-1.242 0-2.143.847-2.143 2.197s.9 2.196 2.143 2.196c1.242 0 2.143-.846 2.143-2.196zm8.8 2.341c.738 0 1.369-.289 1.729-.685l2.161 1.242c-.882 1.225-2.214 1.854-3.925 1.854-3.079 0-4.988-2.07-4.988-4.753 0-2.684 1.945-4.754 4.79-4.754 2.629 0 4.573 2.035 4.573 4.754 0 .378-.036.738-.108 1.08h-6.392c.342.937 1.17 1.262 2.16 1.262zm1.657-3.278c-.288-1.045-1.098-1.423-1.909-1.423-1.026 0-1.71.505-1.962 1.423h3.871zm9.612-3.745v3.061c-1.117-.18-2.701.271-2.701 2.053v4.069h-2.701v-9.003h2.701v1.603c.36-1.207 1.566-1.783 2.701-1.783zm.988-2.232c0-.883.738-1.621 1.621-1.621s1.62.738 1.62 1.621c0 .882-.738 1.62-1.62 1.62s-1.621-.738-1.621-1.62zm.27 2.412h2.701v9.003h-2.701v-9.003zm4.23 4.502c0-2.684 2.125-4.754 4.771-4.754s4.771 2.07 4.771 4.754c0 2.683-2.125 4.753-4.771 4.753s-4.771-2.07-4.771-4.753zm6.842 0c0-1.278-.9-2.125-2.071-2.125s-2.071.847-2.071 2.125.9 2.124 2.071 2.124 2.071-.846 2.071-2.124zm9.629-4.682v3.061c-1.117-.18-2.701.271-2.701 2.053v4.069h-2.701v-9.003h2.701v1.603c.36-1.207 1.567-1.783 2.701-1.783zm14.491.18l-3.331 9.003h-3.061l-3.331-9.003h2.989l1.873 5.708 1.873-5.708h2.988zm5.201 6.843c.738 0 1.369-.289 1.729-.685l2.161 1.242c-.882 1.225-2.214 1.854-3.925 1.854-3.079 0-4.988-2.07-4.988-4.753 0-2.684 1.945-4.754 4.79-4.754 2.629 0 4.573 2.035 4.573 4.754 0 .378-.036.738-.108 1.08h-6.392c.341.937 1.169 1.262 2.16 1.262zm1.656-3.278c-.288-1.045-1.099-1.423-1.909-1.423-1.026 0-1.71.505-1.962 1.423h3.871zm9.612-3.745v3.061c-1.117-.18-2.701.271-2.701 2.053v4.069h-2.701v-9.003h2.701v1.603c.36-1.207 1.567-1.783 2.701-1.783zm10.225-3.421v12.604h-2.701v-.847c-.594.685-1.477 1.099-2.683 1.099-2.358 0-4.303-2.07-4.303-4.753 0-2.684 1.945-4.754 4.303-4.754 1.207 0 2.089.414 2.683 1.099v-4.447h2.701zm-2.7 8.103c0-1.351-.9-2.197-2.143-2.197-1.243 0-2.143.847-2.143 2.197s.9 2.196 2.143 2.196c1.242 0 2.143-.846 2.143-2.196zm4.407-6.914c0-.883.738-1.621 1.621-1.621s1.62.738 1.62 1.621c0 .882-.738 1.62-1.62 1.62s-1.621-.738-1.621-1.62zm.27 2.412h2.701v9.003h-2.701v-9.003zm4.23 4.502c0-2.684 2.035-4.754 4.771-4.754 1.747 0 3.295.918 4.069 2.305l-2.359 1.368c-.306-.63-.954-1.008-1.747-1.008-1.17 0-2.035.846-2.035 2.089 0 1.242.864 2.088 2.035 2.088.792 0 1.458-.378 1.747-1.008l2.359 1.351c-.774 1.404-2.305 2.322-4.069 2.322-2.737 0-4.771-2.07-4.771-4.753zm13.339-1.909v3.188c0 .773.667.846 1.855.773v2.449c-3.529.36-4.556-.702-4.556-3.223v-3.188h-1.44v-2.593h1.44v-1.71l2.701-.811v2.521h1.855v2.593h-1.855zm17.299-2.593v9.003h-2.701v-.847c-.594.685-1.477 1.099-2.683 1.099-2.358 0-4.303-2.07-4.303-4.753 0-2.684 1.945-4.754 4.303-4.754 1.207 0 2.089.414 2.683 1.099v-.847h2.701zm-2.7 4.502c0-1.351-.9-2.197-2.143-2.197-1.243 0-2.143.847-2.143 2.197s.9 2.196 2.143 2.196c1.242 0 2.143-.846 2.143-2.196zm14.365 0c0 2.683-1.945 4.753-4.303 4.753-1.207 0-2.089-.414-2.683-1.099v4.448h-2.701v-12.604h2.701v.847c.594-.685 1.477-1.099 2.683-1.099 2.358 0 4.303 2.07 4.303 4.754zm-2.701 0c0-1.351-.9-2.197-2.143-2.197-1.243 0-2.143.847-2.143 2.197s.9 2.196 2.143 2.196c1.242 0 2.143-.846 2.143-2.196zm13.914 0c0 2.683-1.945 4.753-4.303 4.753-1.207 0-2.089-.414-2.683-1.099v4.448h-2.701v-12.604h2.701v.847c.594-.685 1.477-1.099 2.683-1.099 2.359 0 4.303 2.07 4.303 4.754zm-2.7 0c0-1.351-.9-2.197-2.143-2.197-1.243 0-2.143.847-2.143 2.197s.9 2.196 2.143 2.196c1.242 0 2.143-.846 2.143-2.196zm9.629-4.682v3.061c-1.117-.18-2.701.271-2.701 2.053v4.069h-2.701v-9.003h2.701v1.603c.36-1.207 1.566-1.783 2.701-1.783zm.538 4.682c0-2.684 2.125-4.754 4.771-4.754 2.647 0 4.771 2.07 4.771 4.754 0 2.683-2.125 4.753-4.771 4.753s-4.771-2.07-4.771-4.753zm6.842 0c0-1.278-.9-2.125-2.071-2.125s-2.07.847-2.07 2.125.9 2.124 2.07 2.124 2.071-.846 2.071-2.124zm12.601-4.502l-3.331 9.003h-3.061l-3.331-9.003h2.989l1.873 5.708 1.873-5.708h2.988zm9.864 0v9.003h-2.701v-.847c-.594.685-1.477 1.099-2.683 1.099-2.358 0-4.303-2.07-4.303-4.753 0-2.684 1.945-4.754 4.303-4.754 1.207 0 2.089.414 2.683 1.099v-.847h2.701zm-2.701 4.502c0-1.351-.9-2.197-2.143-2.197-1.243 0-2.143.847-2.143 2.197s.9 2.196 2.143 2.196c1.243 0 2.143-.846 2.143-2.196zm4.678-8.643h2.701v13.144h-2.701v-13.144z" fill="#FFF"/><linearGradient id="f" gradientUnits="userSpaceOnUse" x1="3548.122" y1="3076.448" x2="4332.49" y2="3076.448" gradientTransform="rotate(180 2187.2 1436.89)"><stop offset="0" stop-color="#fff" stop-opacity=".048"/><stop offset=".489" stop-color="#fff"/><stop offset="1" stop-color="#fff" stop-opacity="0"/></linearGradient><path fill="url(#f)" d="M826.28-203.343v1.348H41.912v-1.348H826.28z"/><linearGradient id="g" gradientUnits="userSpaceOnUse" x1="3548.12" y1="3039.002" x2="4332.491" y2="3039.002" gradientTransform="rotate(180 2187.2 1436.89)"><stop offset="0" stop-color="#fff" stop-opacity=".048"/><stop offset=".489" stop-color="#fff"/><stop offset="1" stop-color="#fff" stop-opacity="0"/></linearGradient><path fill="url(#g)" d="M826.282-165.898v1.348H41.911v-1.348h784.371z"/><linearGradient id="h" gradientUnits="userSpaceOnUse" x1="3548.12" y1="3001.559" x2="4332.491" y2="3001.559" gradientTransform="rotate(180 2187.2 1436.89)"><stop offset="0" stop-color="#fff" stop-opacity=".048"/><stop offset=".489" stop-color="#fff"/><stop offset="1" stop-color="#fff" stop-opacity="0"/></linearGradient><path fill="url(#h)" d="M826.282-128.455v1.348H41.911v-1.348h784.371z"/><linearGradient id="i" gradientUnits="userSpaceOnUse" x1="3548.12" y1="3113.891" x2="4332.491" y2="3113.891" gradientTransform="rotate(180 2187.2 1436.89)"><stop offset="0" stop-color="#fff" stop-opacity=".048"/><stop offset=".489" stop-color="#fff"/><stop offset="1" stop-color="#fff" stop-opacity="0"/></linearGradient><path fill="url(#i)" d="M826.282-240.787v1.348H41.911v-1.348h784.371z"/><linearGradient id="j" gradientUnits="userSpaceOnUse" x1="3548.122" y1="2964.114" x2="4332.49" y2="2964.114" gradientTransform="rotate(180 2187.2 1436.89)"><stop offset="0" stop-color="#fff" stop-opacity=".048"/><stop offset=".489" stop-color="#fff"/><stop offset="1" stop-color="#fff" stop-opacity="0"/></linearGradient><path fill="url(#j)" d="M826.28-91.009v1.348H41.912v-1.348H826.28z"/><linearGradient id="k" gradientUnits="userSpaceOnUse" x1="3548.122" y1="2926.67" x2="4332.49" y2="2926.67" gradientTransform="rotate(180 2187.2 1436.89)"><stop offset="0" stop-color="#fff" stop-opacity=".048"/><stop offset=".489" stop-color="#fff"/><stop offset="1" stop-color="#fff" stop-opacity="0"/></linearGradient><path fill="url(#k)" d="M826.28-53.566v1.348H41.912v-1.348H826.28z"/><linearGradient id="l" gradientUnits="userSpaceOnUse" x1="3548.122" y1="2889.225" x2="4332.49" y2="2889.225" gradientTransform="rotate(180 2187.2 1436.89)"><stop offset="0" stop-color="#fff" stop-opacity=".048"/><stop offset=".489" stop-color="#fff"/><stop offset="1" stop-color="#fff" stop-opacity="0"/></linearGradient><path fill="url(#l)" d="M826.28-16.121v1.348H41.912v-1.348H826.28z"/><path d="M301.985-273.446h-4.917l-.953 2.493h-.785l3.81-9.806h.785l3.796 9.806h-.784l-.952-2.493zm-.266-.7l-2.185-5.701-2.186 5.701h4.371zm2.671-.309c0-2.073 1.569-3.656 3.684-3.656 1.373 0 2.549.701 3.054 1.793l-.574.337c-.406-.883-1.359-1.457-2.479-1.457-1.695 0-2.969 1.316-2.969 2.983s1.274 2.983 2.969 2.983c1.135 0 2.059-.588 2.521-1.456l.588.35c-.561 1.079-1.737 1.779-3.11 1.779-2.115 0-3.684-1.583-3.684-3.656zm9.829-2.816v4.553c0 1.232.659 1.261 2.087 1.135v.63c-1.835.28-2.802-.168-2.802-1.765v-4.553h-1.541v-.687h1.541v-1.751l.714-.21v1.961h2.087v.687h-2.086zm3.555-2.941a.56.56 0 1 1 1.121 0c0 .308-.252.561-.561.561s-.56-.253-.56-.561zm.21 2.255h.7v7.004h-.7v-7.004zm2.38 3.502c0-2.073 1.639-3.656 3.684-3.656 2.031 0 3.67 1.583 3.67 3.656s-1.639 3.656-3.67 3.656c-2.046 0-3.684-1.583-3.684-3.656zm6.639 0c0-1.667-1.289-2.983-2.956-2.983s-2.969 1.316-2.969 2.983 1.303 2.983 2.969 2.983c1.667 0 2.956-1.316 2.956-2.983zm8.316-.855v4.356h-.714v-4.356c0-1.289-.743-2.129-2.059-2.129-1.373 0-2.452.896-2.452 2.787v3.698h-.7v-7.004h.7v1.331c.532-1.037 1.429-1.485 2.507-1.485 1.668.001 2.718 1.108 2.718 2.802zm-42.902 14.855c0 2.073-1.625 3.656-3.628 3.656-1.359 0-2.438-.7-3.012-1.779v4.427h-.7v-9.806h.7v1.625c.574-1.078 1.653-1.779 3.012-1.779 2.003 0 3.628 1.583 3.628 3.656zm-.7 0c0-1.667-1.303-2.983-2.97-2.983s-2.97 1.316-2.97 2.983 1.303 2.983 2.97 2.983 2.97-1.316 2.97-2.983zm9.001.028c0 .112-.014.224-.014.336h-6.346c.168 1.583 1.373 2.619 2.97 2.619 1.148 0 2.017-.532 2.423-1.274l.616.364c-.574.952-1.667 1.583-3.054 1.583-2.157 0-3.684-1.541-3.684-3.656 0-2.059 1.484-3.656 3.628-3.656 2.131 0 3.461 1.765 3.461 3.684zm-6.359-.35h5.631c-.154-1.709-1.359-2.661-2.731-2.661-1.597 0-2.76 1.106-2.9 2.661zm11.034-3.278v.672c-1.205 0-2.339.742-2.339 2.535v3.895h-.7v-7.004h.7v1.373c.476-1.106 1.386-1.471 2.339-1.471zm15.179 2.661v4.44h-.7v-4.44c0-1.331-.771-2.045-1.863-2.045-1.176 0-2.101.784-2.101 2.577v3.908h-.7v-4.44c0-1.331-.714-2.045-1.793-2.045-1.148 0-2.171.784-2.171 2.577v3.908h-.7v-7.004h.7v1.205c.519-.967 1.359-1.359 2.255-1.359 1.022 0 1.821.505 2.185 1.429.504-.98 1.401-1.429 2.339-1.429 1.484.001 2.549.967 2.549 2.718zm1.492.939c0-2.073 1.639-3.656 3.684-3.656 2.031 0 3.67 1.583 3.67 3.656s-1.639 3.656-3.67 3.656c-2.045 0-3.684-1.583-3.684-3.656zm6.64 0c0-1.667-1.289-2.983-2.956-2.983s-2.969 1.316-2.969 2.983 1.303 2.983 2.969 2.983c1.667 0 2.956-1.316 2.956-2.983zm8.316-.855v4.356h-.714v-4.356c0-1.289-.743-2.129-2.059-2.129-1.373 0-2.452.896-2.452 2.787v3.698h-.7v-7.004h.7v1.331c.532-1.037 1.429-1.485 2.507-1.485 1.667.001 2.718 1.108 2.718 2.802zm3.469-1.961v4.553c0 1.232.659 1.261 2.087 1.135v.63c-1.835.28-2.802-.168-2.802-1.765v-4.553h-1.541v-.687h1.541v-1.751l.714-.21v1.961h2.087v.687h-2.086zm9.691 1.961v4.356h-.714v-4.356c0-1.289-.743-2.129-2.059-2.129-1.373 0-2.452.896-2.452 2.787v3.698h-.7v-9.806h.7v4.133c.532-1.037 1.429-1.485 2.507-1.485 1.667.001 2.718 1.108 2.718 2.802zm52.793-13.664h-3.096v4.021h-.742v-9.806h3.866a2.905 2.905 0 0 1 2.899 2.9c0 1.33-.911 2.451-2.157 2.787l2.438 4.118h-.854l-2.354-4.02zm-3.096-.7h3.124c1.19 0 2.157-.98 2.157-2.185 0-1.219-.966-2.199-2.157-2.199h-3.124v4.384zm13.961 1.247c0 .112-.014.224-.014.336h-6.346c.168 1.583 1.373 2.619 2.97 2.619 1.148 0 2.017-.532 2.423-1.274l.616.364c-.574.952-1.667 1.583-3.054 1.583-2.157 0-3.684-1.541-3.684-3.656 0-2.059 1.484-3.656 3.628-3.656 2.131 0 3.461 1.765 3.461 3.684zm-6.359-.35h5.631c-.154-1.709-1.359-2.661-2.731-2.661-1.597 0-2.76 1.106-2.9 2.661zm16.959-3.18l-2.213 7.004h-.771l-1.947-5.967-1.947 5.967h-.771l-2.213-7.004h.742l1.863 6.094 1.961-6.094h.729l1.961 6.094 1.863-6.094h.743zm8.133 0v7.004h-.715v-1.583c-.588 1.051-1.667 1.737-3.011 1.737-1.989 0-3.628-1.583-3.628-3.656s1.639-3.656 3.628-3.656c1.345 0 2.423.687 3.011 1.737v-1.583h.715zm-.715 3.502c0-1.667-1.289-2.983-2.956-2.983s-2.969 1.316-2.969 2.983 1.303 2.983 2.969 2.983c1.667 0 2.956-1.316 2.956-2.983zm5.906-3.6v.672c-1.204 0-2.339.742-2.339 2.535v3.895h-.7v-7.004h.7v1.373c.477-1.106 1.387-1.471 2.339-1.471zm7.87-2.704v9.806h-.7v-1.625c-.574 1.079-1.652 1.779-3.012 1.779-2.003 0-3.628-1.583-3.628-3.656s1.625-3.656 3.628-3.656c1.359 0 2.438.701 3.012 1.779v-4.427h.7zm-.7 6.304c0-1.667-1.303-2.983-2.97-2.983s-2.97 1.316-2.97 2.983 1.303 2.983 2.97 2.983 2.97-1.316 2.97-2.983zm-45.793 14c0 2.073-1.625 3.656-3.628 3.656-1.359 0-2.438-.7-3.012-1.779v4.427h-.7v-9.806h.7v1.625c.574-1.078 1.653-1.779 3.012-1.779 2.003 0 3.628 1.583 3.628 3.656zm-.7 0c0-1.667-1.303-2.983-2.97-2.983s-2.97 1.316-2.97 2.983 1.303 2.983 2.97 2.983 2.97-1.316 2.97-2.983zm9.001.028c0 .112-.014.224-.014.336h-6.346c.168 1.583 1.373 2.619 2.97 2.619 1.148 0 2.017-.532 2.423-1.274l.616.364c-.574.952-1.667 1.583-3.054 1.583-2.157 0-3.684-1.541-3.684-3.656 0-2.059 1.484-3.656 3.628-3.656 2.131 0 3.461 1.765 3.461 3.684zm-6.359-.35h5.631c-.154-1.709-1.359-2.661-2.731-2.661-1.597 0-2.76 1.106-2.9 2.661zm11.034-3.278v.672c-1.205 0-2.339.742-2.339 2.535v3.895h-.7v-7.004h.7v1.373c.476-1.106 1.386-1.471 2.339-1.471zm12.027.098v7.004h-.714v-1.583c-.588 1.051-1.667 1.737-3.011 1.737-1.989 0-3.628-1.583-3.628-3.656s1.639-3.656 3.628-3.656c1.345 0 2.423.687 3.011 1.737v-1.583h.714zm-.714 3.502c0-1.667-1.289-2.983-2.956-2.983s-2.969 1.316-2.969 2.983 1.303 2.983 2.969 2.983c1.667 0 2.956-1.316 2.956-2.983zm2.391 0c0-2.073 1.569-3.656 3.684-3.656 1.373 0 2.55.701 3.054 1.793l-.574.337c-.406-.883-1.359-1.457-2.479-1.457-1.695 0-2.969 1.316-2.969 2.983s1.274 2.983 2.969 2.983c1.135 0 2.059-.588 2.521-1.456l.588.35c-.56 1.079-1.737 1.779-3.11 1.779-2.115 0-3.684-1.583-3.684-3.656zm9.828-2.816v4.553c0 1.232.658 1.261 2.088 1.135v.63c-1.836.28-2.803-.168-2.803-1.765v-4.553h-1.54v-.687h1.54v-1.751l.715-.21v1.961h2.088v.687h-2.088zm3.556-2.941a.56.56 0 0 1 .56-.547.56.56 0 0 1 .561.547.563.563 0 0 1-.561.561.563.563 0 0 1-.56-.561zm.21 2.255h.7v7.004h-.7v-7.004zm2.379 3.502c0-2.073 1.639-3.656 3.684-3.656 2.031 0 3.67 1.583 3.67 3.656s-1.639 3.656-3.67 3.656c-2.045 0-3.684-1.583-3.684-3.656zm6.64 0c0-1.667-1.289-2.983-2.956-2.983s-2.97 1.316-2.97 2.983 1.303 2.983 2.97 2.983 2.956-1.316 2.956-2.983zm8.316-.855v4.356h-.714v-4.356c0-1.289-.743-2.129-2.06-2.129-1.373 0-2.452.896-2.452 2.787v3.698h-.699v-7.004h.699v1.331c.533-1.037 1.43-1.485 2.508-1.485 1.667.001 2.718 1.108 2.718 2.802zm43.081-19.449h.785l2.535 8.812 2.731-8.812h.882l2.746 8.812 2.521-8.812h.784l-2.844 9.806h-.896l-2.745-8.839-2.76 8.839h-.896l-2.843-9.806zm13.203 6.304c0-2.073 1.639-3.656 3.684-3.656 2.031 0 3.67 1.583 3.67 3.656s-1.639 3.656-3.67 3.656c-2.046 0-3.684-1.583-3.684-3.656zm6.638 0c0-1.667-1.289-2.983-2.955-2.983-1.667 0-2.97 1.316-2.97 2.983s1.303 2.983 2.97 2.983c1.666 0 2.955-1.316 2.955-2.983zm5.43-3.6v.672c-1.204 0-2.339.742-2.339 2.535v3.895h-.7v-7.004h.7v1.373c.477-1.106 1.387-1.471 2.339-1.471zm5.825 7.102l-3.712-3.446v3.446h-.7v-9.806h.7v5.981l3.544-3.18h.98l-3.769 3.362 3.908 3.642h-.951zm7.586-6.318v4.553c0 1.232.659 1.261 2.087 1.135v.63c-1.834.28-2.801-.168-2.801-1.765v-4.553h-1.541v-.687h1.541v-1.751l.714-.21v1.961h2.087v.687h-2.087zm3.556-2.941a.56.56 0 0 1 .561-.547.56.56 0 0 1 .561.547.563.563 0 0 1-.561.561.563.563 0 0 1-.561-.561zm.21 2.255h.7v7.004h-.7v-7.004zm12.886 2.563v4.44h-.701v-4.44c0-1.331-.77-2.045-1.863-2.045-1.176 0-2.101.784-2.101 2.577v3.908h-.7v-4.44c0-1.331-.715-2.045-1.793-2.045-1.148 0-2.172.784-2.172 2.577v3.908h-.699v-7.004h.699v1.205c.52-.967 1.359-1.359 2.256-1.359 1.022 0 1.82.505 2.186 1.429.504-.98 1.4-1.429 2.339-1.429 1.484.001 2.549.967 2.549 2.718zm8.58.967c0 .112-.014.224-.014.336h-6.346c.168 1.583 1.373 2.619 2.969 2.619 1.148 0 2.018-.532 2.424-1.274l.616.364c-.574.952-1.667 1.583-3.054 1.583-2.157 0-3.684-1.541-3.684-3.656 0-2.059 1.484-3.656 3.628-3.656 2.13 0 3.461 1.765 3.461 3.684zm-6.36-.35h5.631c-.154-1.709-1.359-2.661-2.731-2.661-1.597 0-2.76 1.106-2.9 2.661zm-50.591 14.322c0 2.073-1.625 3.656-3.628 3.656-1.358 0-2.438-.7-3.012-1.779v4.427h-.7v-9.806h.7v1.625c.574-1.078 1.653-1.779 3.012-1.779 2.003 0 3.628 1.583 3.628 3.656zm-.701 0c0-1.667-1.303-2.983-2.97-2.983s-2.97 1.316-2.97 2.983 1.303 2.983 2.97 2.983 2.97-1.316 2.97-2.983zm9.001.028c0 .112-.014.224-.014.336h-6.346c.169 1.583 1.373 2.619 2.971 2.619 1.148 0 2.017-.532 2.423-1.274l.616.364c-.574.952-1.667 1.583-3.054 1.583-2.157 0-3.684-1.541-3.684-3.656 0-2.059 1.484-3.656 3.628-3.656 2.13 0 3.46 1.765 3.46 3.684zm-6.359-.35h5.632c-.154-1.709-1.358-2.661-2.731-2.661-1.598 0-2.76 1.106-2.901 2.661zm11.034-3.278v.672c-1.204 0-2.339.742-2.339 2.535v3.895h-.701v-7.004h.701v1.373c.477-1.106 1.387-1.471 2.339-1.471zm12.027.098v7.004h-.714v-1.583c-.588 1.051-1.667 1.737-3.012 1.737-1.989 0-3.628-1.583-3.628-3.656s1.639-3.656 3.628-3.656c1.345 0 2.424.687 3.012 1.737v-1.583h.714zm-.713 3.502c0-1.667-1.289-2.983-2.956-2.983s-2.97 1.316-2.97 2.983 1.303 2.983 2.97 2.983 2.956-1.316 2.956-2.983zm2.39 0c0-2.073 1.568-3.656 3.684-3.656 1.373 0 2.55.701 3.054 1.793l-.574.337c-.406-.883-1.358-1.457-2.479-1.457-1.695 0-2.969 1.316-2.969 2.983s1.273 2.983 2.969 2.983c1.135 0 2.059-.588 2.521-1.456l.588.35c-.56 1.079-1.736 1.779-3.109 1.779-2.116 0-3.685-1.583-3.685-3.656zm9.828-2.816v4.553c0 1.232.658 1.261 2.088 1.135v.63c-1.836.28-2.803-.168-2.803-1.765v-4.553h-1.54v-.687h1.54v-1.751l.715-.21v1.961h2.088v.687h-2.088zm3.556-2.941a.56.56 0 0 1 .56-.547.56.56 0 0 1 .561.547.563.563 0 0 1-.561.561.563.563 0 0 1-.56-.561zm.21 2.255h.7v7.004h-.7v-7.004zm2.38 3.502c0-2.073 1.639-3.656 3.684-3.656 2.031 0 3.67 1.583 3.67 3.656s-1.639 3.656-3.67 3.656c-2.046 0-3.684-1.583-3.684-3.656zm6.639 0c0-1.667-1.289-2.983-2.956-2.983s-2.97 1.316-2.97 2.983 1.303 2.983 2.97 2.983 2.956-1.316 2.956-2.983zm8.316-.855v4.356h-.714v-4.356c0-1.289-.743-2.129-2.06-2.129-1.373 0-2.452.896-2.452 2.787v3.698h-.699v-7.004h.699v1.331c.533-1.037 1.43-1.485 2.508-1.485 1.667.001 2.718 1.108 2.718 2.802zm41.905-18.748h-3.081v9.104h-.757v-9.104h-3.081v-.701h6.919v.701zm-.339 5.603c0-2.073 1.639-3.656 3.684-3.656 2.031 0 3.67 1.583 3.67 3.656s-1.639 3.656-3.67 3.656c-2.045 0-3.684-1.583-3.684-3.656zm6.64 0c0-1.667-1.289-2.983-2.956-2.983s-2.97 1.316-2.97 2.983 1.303 2.983 2.97 2.983 2.956-1.316 2.956-2.983zm3.749-2.816v4.553c0 1.232.659 1.261 2.087 1.135v.63c-1.834.28-2.801-.168-2.801-1.765v-4.553H614.1v-.687h1.541v-1.751l.714-.21v1.961h2.087v.687h-2.087zm10.223-.686v7.004h-.714v-1.583c-.588 1.051-1.667 1.737-3.012 1.737-1.989 0-3.628-1.583-3.628-3.656s1.639-3.656 3.628-3.656c1.345 0 2.424.687 3.012 1.737v-1.583h.714zm-.714 3.502c0-1.667-1.289-2.983-2.956-2.983s-2.97 1.316-2.97 2.983 1.303 2.983 2.97 2.983 2.956-1.316 2.956-2.983zm2.867-6.724h.699v10.226h-.699v-10.226zm9.633 3.124v.672c-1.205 0-2.34.742-2.34 2.535v3.895h-.699v-7.004h.699v1.373c.476-1.106 1.387-1.471 2.34-1.471zm7.603 3.628c0 .112-.014.224-.014.336h-6.346c.168 1.583 1.373 2.619 2.97 2.619 1.148 0 2.017-.532 2.423-1.274l.617.364c-.574.952-1.668 1.583-3.055 1.583-2.156 0-3.684-1.541-3.684-3.656 0-2.059 1.484-3.656 3.629-3.656 2.13 0 3.46 1.765 3.46 3.684zm-6.359-.35h5.631c-.154-1.709-1.358-2.661-2.73-2.661-1.598 0-2.76 1.106-2.901 2.661zm16.959-3.18l-2.213 7.004h-.771l-1.946-5.967-1.947 5.967h-.771l-2.213-7.004h.742l1.863 6.094 1.961-6.094H652l1.961 6.094 1.863-6.094h.743zm8.133 0v7.004h-.715v-1.583c-.588 1.051-1.666 1.737-3.011 1.737-1.989 0-3.628-1.583-3.628-3.656s1.639-3.656 3.628-3.656c1.345 0 2.423.687 3.011 1.737v-1.583h.715zm-.715 3.502c0-1.667-1.288-2.983-2.955-2.983-1.666 0-2.969 1.316-2.969 2.983s1.303 2.983 2.969 2.983c1.667 0 2.955-1.316 2.955-2.983zm5.906-3.6v.672c-1.204 0-2.339.742-2.339 2.535v3.895h-.7v-7.004h.7v1.373c.477-1.106 1.387-1.471 2.339-1.471zm7.87-2.704v9.806h-.7v-1.625c-.574 1.079-1.652 1.779-3.012 1.779-2.003 0-3.628-1.583-3.628-3.656s1.625-3.656 3.628-3.656c1.359 0 2.438.701 3.012 1.779v-4.427h.7zm-.7 6.304c0-1.667-1.303-2.983-2.97-2.983s-2.97 1.316-2.97 2.983 1.303 2.983 2.97 2.983 2.97-1.316 2.97-2.983zm-55.474 10.498v7.004h-.715v-1.583c-.588 1.051-1.667 1.737-3.011 1.737-1.99 0-3.629-1.583-3.629-3.656s1.639-3.656 3.629-3.656c1.344 0 2.423.687 3.011 1.737v-1.583h.715zm-.714 3.502c0-1.667-1.288-2.983-2.956-2.983-1.666 0-2.969 1.316-2.969 2.983s1.303 2.983 2.969 2.983c1.667 0 2.956-1.316 2.956-2.983zm12.895-.939v4.44h-.699v-4.44c0-1.331-.771-2.045-1.863-2.045-1.177 0-2.102.784-2.102 2.577v3.908h-.7v-4.44c0-1.331-.714-2.045-1.793-2.045-1.148 0-2.171.784-2.171 2.577v3.908h-.701v-7.004h.701v1.205c.518-.967 1.358-1.359 2.255-1.359 1.022 0 1.821.505 2.185 1.429.505-.98 1.401-1.429 2.34-1.429 1.484.001 2.548.967 2.548 2.718zm1.493.939c0-2.073 1.639-3.656 3.684-3.656 2.031 0 3.67 1.583 3.67 3.656s-1.639 3.656-3.67 3.656c-2.045 0-3.684-1.583-3.684-3.656zm6.64 0c0-1.667-1.289-2.983-2.956-2.983s-2.97 1.316-2.97 2.983 1.303 2.983 2.97 2.983 2.956-1.316 2.956-2.983zm8.133-3.502v7.004h-.7v-1.331c-.532 1.037-1.429 1.485-2.507 1.485-1.667 0-2.718-1.106-2.718-2.802v-4.356h.714v4.356c0 1.289.743 2.129 2.06 2.129 1.373 0 2.451-.896 2.451-2.787v-3.698h.7zm8.078 2.647v4.356h-.714v-4.356c0-1.289-.743-2.129-2.06-2.129-1.373 0-2.451.896-2.451 2.787v3.698h-.7v-7.004h.7v1.331c.532-1.037 1.429-1.485 2.508-1.485 1.666.001 2.717 1.108 2.717 2.802zm3.47-1.961v4.553c0 1.232.659 1.261 2.087 1.135v.63c-1.834.28-2.801-.168-2.801-1.765v-4.553h-1.541v-.687h1.541v-1.751l.714-.21v1.961h2.087v.687h-2.087z" fill="#FFF"/><linearGradient id="m" gradientUnits="userSpaceOnUse" x1="2795.472" y1="1447.813" x2="2946.597" y2="1447.813" gradientTransform="rotate(90 2373.752 -662.506)"><stop offset="0" stop-color="#fff"/><stop offset="1" stop-color="#fff" stop-opacity="0"/></linearGradient><path fill="url(#m)" d="M262.759-240.787h1.348v151.125h-1.348v-151.125z"/><linearGradient id="n" gradientUnits="userSpaceOnUse" x1="2795.472" y1="1340.121" x2="2946.597" y2="1340.121" gradientTransform="rotate(90 2373.752 -662.506)"><stop offset="0" stop-color="#fff"/><stop offset="1" stop-color="#fff" stop-opacity="0"/></linearGradient><path fill="url(#n)" d="M370.452-240.787h1.348v151.125h-1.348v-151.125z"/><linearGradient id="o" gradientUnits="userSpaceOnUse" x1="2795.472" y1="1232.427" x2="2946.597" y2="1232.427" gradientTransform="rotate(90 2373.752 -662.506)"><stop offset="0" stop-color="#fff"/><stop offset="1" stop-color="#fff" stop-opacity="0"/></linearGradient><path fill="url(#o)" d="M478.145-240.787h1.348v151.125h-1.348v-151.125z"/><linearGradient id="p" gradientUnits="userSpaceOnUse" x1="2795.472" y1="1124.732" x2="2946.597" y2="1124.732" gradientTransform="rotate(90 2373.752 -662.506)"><stop offset="0" stop-color="#fff"/><stop offset="1" stop-color="#fff" stop-opacity="0"/></linearGradient><path fill="url(#p)" d="M585.84-240.787h1.348v151.125h-1.348v-151.125z"/><linearGradient id="q" gradientUnits="userSpaceOnUse" x1="2795.472" y1="1017.039" x2="2946.597" y2="1017.039" gradientTransform="rotate(90 2373.752 -662.506)"><stop offset="0" stop-color="#fff"/><stop offset="1" stop-color="#fff" stop-opacity="0"/></linearGradient><path fill="url(#q)" d="M693.534-240.787h1.348v151.125h-1.348v-151.125z"/><path d="M313.289-227.557v12.604h-.954v-11.56l-2.917.918-.234-.828 3.295-1.134h.81zm2.518 6.302c0-3.89 1.693-6.5 4.718-6.5s4.717 2.61 4.717 6.5c0 3.889-1.692 6.5-4.717 6.5s-4.718-2.611-4.718-6.5zm8.463 0c0-3.529-1.405-5.582-3.745-5.582-2.341 0-3.745 2.053-3.745 5.582s1.404 5.581 3.745 5.581c2.34 0 3.745-2.052 3.745-5.581zm-16.283 41.938l4.627-4.753c1.098-1.135 2.034-2.323 2.034-3.565 0-1.729-1.242-2.701-2.772-2.701-1.369 0-2.413.648-3.007 1.909l-.811-.486c.756-1.549 2.179-2.341 3.817-2.341 1.926 0 3.745 1.278 3.745 3.619 0 1.566-1.081 2.953-2.359 4.249l-3.907 4.016h6.554v.918h-7.922v-.865zm9.486-5.438c0-3.89 1.693-6.5 4.718-6.5s4.717 2.61 4.717 6.5c0 3.889-1.692 6.5-4.717 6.5s-4.718-2.611-4.718-6.5zm8.463 0c0-3.529-1.405-5.582-3.745-5.582-2.341 0-3.745 2.053-3.745 5.582s1.404 5.581 3.745 5.581c2.34 0 3.745-2.052 3.745-5.581zm-9.847 38.859c0 2.449-1.782 4.142-4.231 4.142-2.448 0-4.231-1.692-4.231-4.142 0-.99.288-1.836.774-2.521l4.231-6.14h1.081l-3.223 4.699a4.832 4.832 0 0 1 1.368-.198c2.449 0 4.231 1.693 4.231 4.16zm-.954 0c0-1.891-1.278-3.241-3.277-3.241s-3.259 1.351-3.259 3.241c0 1.873 1.26 3.223 3.259 3.223 1.998-.001 3.277-1.35 3.277-3.223zm2.517-2.359c0-3.89 1.693-6.5 4.718-6.5s4.717 2.61 4.717 6.5c0 3.889-1.692 6.5-4.717 6.5s-4.718-2.611-4.718-6.5zm8.463 0c0-3.529-1.405-5.582-3.745-5.582-2.341 0-3.745 2.053-3.745 5.582s1.404 5.581 3.745 5.581c2.34 0 3.745-2.052 3.745-5.581zm-17.479 30.198v12.604h-.954v-11.56l-2.917.918-.234-.828 3.295-1.134h.81zm2.339 11.74l4.627-4.753c1.099-1.135 2.035-2.323 2.035-3.565 0-1.729-1.242-2.701-2.772-2.701-1.369 0-2.413.648-3.007 1.909l-.81-.486c.756-1.549 2.179-2.341 3.817-2.341 1.926 0 3.745 1.278 3.745 3.619 0 1.566-1.081 2.953-2.359 4.249l-3.907 4.016h6.554v.918h-7.922v-.865zm9.485-5.438c0-3.89 1.693-6.5 4.718-6.5s4.717 2.61 4.717 6.5c0 3.889-1.692 6.5-4.717 6.5s-4.718-2.611-4.718-6.5zm8.463 0c0-3.529-1.405-5.582-3.745-5.582-2.341 0-3.745 2.053-3.745 5.582s1.404 5.581 3.745 5.581 3.745-2.052 3.745-5.581zm86.585-107.141c0 2.449-1.782 4.142-4.231 4.142-2.448 0-4.231-1.692-4.231-4.142 0-.99.288-1.836.774-2.521l4.231-6.14h1.081l-3.223 4.699a4.832 4.832 0 0 1 1.368-.198c2.449 0 4.231 1.693 4.231 4.16zm-.954 0c0-1.891-1.278-3.241-3.277-3.241s-3.259 1.351-3.259 3.241c0 1.873 1.26 3.223 3.259 3.223 1.998-.001 3.277-1.35 3.277-3.223zm3.148 6.463h-.829l.684-3.745h1.117l-.972 3.745zm2.483-8.822c0-3.89 1.693-6.5 4.718-6.5s4.717 2.61 4.717 6.5c0 3.889-1.692 6.5-4.717 6.5s-4.718-2.611-4.718-6.5zm8.463 0c0-3.529-1.405-5.582-3.745-5.582-2.341 0-3.745 2.053-3.745 5.582s1.404 5.581 3.745 5.581c2.34 0 3.745-2.052 3.745-5.581zm2.877 0c0-3.89 1.693-6.5 4.718-6.5s4.717 2.61 4.717 6.5c0 3.889-1.691 6.5-4.717 6.5-3.025 0-4.718-2.611-4.718-6.5zm8.463 0c0-3.529-1.405-5.582-3.745-5.582-2.341 0-3.745 2.053-3.745 5.582s1.404 5.581 3.745 5.581c2.34 0 3.745-2.052 3.745-5.581zm-32.861 30.198v12.604h-.954v-11.56l-2.917.918-.234-.828 3.295-1.134h.81zm2.519 6.302c0-3.89 1.693-6.5 4.718-6.5s4.717 2.61 4.717 6.5c0 3.889-1.692 6.5-4.717 6.5s-4.718-2.611-4.718-6.5zm8.463 0c0-3.529-1.405-5.582-3.745-5.582-2.341 0-3.745 2.053-3.745 5.582s1.404 5.581 3.745 5.581c2.34 0 3.745-2.052 3.745-5.581zm3.328 8.822h-.829l.684-3.745h1.117l-.972 3.745zm2.483-8.822c0-3.89 1.693-6.5 4.718-6.5s4.717 2.61 4.717 6.5c0 3.889-1.692 6.5-4.717 6.5s-4.718-2.611-4.718-6.5zm8.463 0c0-3.529-1.405-5.582-3.745-5.582-2.341 0-3.745 2.053-3.745 5.582s1.404 5.581 3.745 5.581c2.34 0 3.745-2.052 3.745-5.581zm2.877 0c0-3.89 1.692-6.5 4.717-6.5 3.025 0 4.718 2.61 4.718 6.5 0 3.889-1.692 6.5-4.718 6.5-3.024 0-4.717-2.611-4.717-6.5zm8.463 0c0-3.529-1.405-5.582-3.746-5.582-2.34 0-3.744 2.053-3.744 5.582s1.404 5.581 3.744 5.581c2.341 0 3.746-2.052 3.746-5.581zM415.4-145.59c0 2.431-1.927 3.835-4.195 3.835-1.801 0-3.403-.883-3.979-2.539l.811-.468c.414 1.351 1.621 2.088 3.169 2.088 1.873 0 3.241-1.098 3.241-2.916 0-1.819-1.368-2.917-3.241-2.917h-3.367l.432-6.05h6.662v.9h-5.816l-.288 4.23h2.377c2.267.001 4.194 1.406 4.194 3.837zm2.337 6.157h-.828l.685-3.745h1.116l-.973 3.745zm2.484-8.822c0-3.89 1.693-6.5 4.718-6.5s4.717 2.61 4.717 6.5c0 3.889-1.692 6.5-4.717 6.5s-4.718-2.611-4.718-6.5zm8.463 0c0-3.529-1.405-5.582-3.745-5.582-2.341 0-3.745 2.053-3.745 5.582s1.404 5.581 3.745 5.581c2.34 0 3.745-2.052 3.745-5.581zm2.877 0c0-3.89 1.693-6.5 4.717-6.5 3.025 0 4.718 2.61 4.718 6.5 0 3.889-1.692 6.5-4.718 6.5-3.025 0-4.717-2.611-4.717-6.5zm8.463 0c0-3.529-1.405-5.582-3.746-5.582-2.34 0-3.745 2.053-3.745 5.582s1.404 5.581 3.745 5.581 3.746-2.052 3.746-5.581zM415.813-108.1h-1.62v2.646h-.955v-2.646h-6.788v-.9l4.789-9.057h1.044l-4.77 9.057h5.726v-3.961h.955V-109h1.62v.9zm2.392 5.167h-.828l.685-3.745h1.116l-.973 3.745zm2.483-8.822c0-3.89 1.693-6.5 4.718-6.5s4.717 2.61 4.717 6.5c0 3.889-1.692 6.5-4.717 6.5s-4.718-2.611-4.718-6.5zm8.463 0c0-3.529-1.405-5.582-3.745-5.582-2.341 0-3.745 2.053-3.745 5.582s1.404 5.581 3.745 5.581 3.745-2.052 3.745-5.581zm2.877 0c0-3.89 1.693-6.5 4.718-6.5 3.024 0 4.717 2.61 4.717 6.5 0 3.889-1.692 6.5-4.717 6.5-3.025 0-4.718-2.611-4.718-6.5zm8.463 0c0-3.529-1.404-5.582-3.744-5.582-2.341 0-3.746 2.053-3.746 5.582s1.404 5.581 3.746 5.581c2.339 0 3.744-2.052 3.744-5.581zm67.758-108.647c-.351 1.191-1.4 2.144-3.376.841-1.597-1.051-2.185-.322-2.423.561l-.645-.309c.363-1.19 1.428-2.129 3.39-.841 1.61 1.051 2.185.322 2.409-.56l.645.308zm5.302-7.155v12.604h-.954v-11.56l-2.917.918-.234-.828 3.295-1.134h.81zm10.55 8.967c0 2.431-1.927 3.835-4.195 3.835-1.801 0-3.403-.883-3.979-2.539l.811-.468c.414 1.351 1.621 2.088 3.169 2.088 1.872 0 3.241-1.098 3.241-2.916 0-1.819-1.369-2.917-3.241-2.917h-3.367l.433-6.05h6.662v.9h-5.816l-.288 4.23h2.377c2.266.001 4.193 1.406 4.193 3.837zm19.837-2.071v5.708h-.9v-5.708c0-1.71-.99-2.629-2.395-2.629-1.513 0-2.701 1.009-2.701 3.313v5.023h-.9v-5.708c0-1.71-.918-2.629-2.305-2.629-1.477 0-2.791 1.009-2.791 3.313v5.023h-.9v-9.003h.9v1.549c.666-1.242 1.747-1.747 2.899-1.747 1.314 0 2.341.648 2.81 1.837.647-1.261 1.8-1.837 3.006-1.837 1.908.002 3.277 1.245 3.277 3.495zm2.264-6.193c0-.378.324-.702.721-.702s.72.324.72.702a.721.721 0 0 1-1.441 0zm.269 2.898h.9v9.003h-.9v-9.003zm11.289 3.403v5.6h-.918v-5.6c0-1.656-.955-2.737-2.647-2.737-1.765 0-3.151 1.152-3.151 3.583v4.754h-.9v-9.003h.9v1.711c.685-1.333 1.837-1.909 3.224-1.909 2.142 0 3.492 1.423 3.492 3.601zm2.266 4.97c0-.45.342-.811.811-.811.449 0 .81.36.81.811s-.36.81-.81.81a.796.796 0 0 1-.811-.81zm-54.748 31.681c-.35 1.191-1.4 2.144-3.375.841-1.598-1.051-2.186-.322-2.424.561l-.645-.309c.364-1.19 1.429-2.129 3.391-.841 1.61 1.051 2.185.322 2.408-.56l.645.308zm10.76 2.802h-1.621v2.646h-.955v-2.646h-6.787v-.9l4.789-9.057h1.045L507.737-182h5.725v-3.961h.955V-182h1.621v.9zm1.4-3.655c0-3.89 1.693-6.5 4.718-6.5s4.718 2.61 4.718 6.5c0 3.889-1.693 6.5-4.718 6.5s-4.718-2.611-4.718-6.5zm8.463 0c0-3.529-1.404-5.582-3.745-5.582s-3.745 2.053-3.745 5.582 1.404 5.581 3.745 5.581 3.745-2.052 3.745-5.581zm21.008.594v5.708h-.9v-5.708c0-1.71-.99-2.629-2.395-2.629-1.514 0-2.701 1.009-2.701 3.313v5.023h-.9v-5.708c0-1.71-.918-2.629-2.305-2.629-1.477 0-2.791 1.009-2.791 3.313v5.023h-.9v-9.003h.9v1.549c.666-1.242 1.746-1.747 2.898-1.747 1.314 0 2.342.648 2.809 1.837.648-1.261 1.801-1.837 3.008-1.837 1.908.002 3.277 1.245 3.277 3.495zm2.263-6.193c0-.378.324-.702.72-.702s.72.324.72.702c0 .396-.324.72-.72.72s-.72-.325-.72-.72zm.27 2.898h.9v9.003h-.9v-9.003zm11.289 3.403v5.6h-.919v-5.6c0-1.656-.954-2.737-2.647-2.737-1.764 0-3.15 1.152-3.15 3.583v4.754h-.9v-9.003h.9v1.711c.684-1.333 1.836-1.909 3.223-1.909 2.141 0 3.493 1.423 3.493 3.601zm2.265 4.97c0-.45.343-.811.811-.811.45 0 .81.36.81.811s-.359.81-.81.81a.796.796 0 0 1-.811-.81zm-54.747 31.681c-.351 1.191-1.4 2.144-3.376.841-1.597-1.051-2.185-.322-2.423.561l-.645-.309c.363-1.19 1.428-2.129 3.39-.841 1.61 1.051 2.185.322 2.409-.56l.645.308zm5.302-7.155v12.604h-.954v-11.56l-2.917.918-.234-.828 3.295-1.134h.81zm10.55 8.967c0 2.431-1.927 3.835-4.195 3.835-1.801 0-3.403-.883-3.979-2.539l.811-.468c.414 1.351 1.621 2.088 3.169 2.088 1.872 0 3.241-1.098 3.241-2.916 0-1.819-1.369-2.917-3.241-2.917h-3.367l.433-6.05h6.662v.9h-5.816l-.288 4.23h2.377c2.266.001 4.193 1.406 4.193 3.837zm19.837-2.071v5.708h-.9v-5.708c0-1.71-.99-2.629-2.395-2.629-1.513 0-2.701 1.009-2.701 3.313v5.023h-.9v-5.708c0-1.71-.918-2.629-2.305-2.629-1.477 0-2.791 1.009-2.791 3.313v5.023h-.9v-9.003h.9v1.549c.666-1.242 1.747-1.747 2.899-1.747 1.314 0 2.341.648 2.81 1.837.647-1.261 1.8-1.837 3.006-1.837 1.908.002 3.277 1.245 3.277 3.495zm2.264-6.193c0-.378.324-.702.721-.702s.72.324.72.702a.721.721 0 0 1-1.441 0zm.269 2.898h.9v9.003h-.9v-9.003zm11.289 3.403v5.6h-.918v-5.6c0-1.656-.955-2.737-2.647-2.737-1.765 0-3.151 1.152-3.151 3.583v4.754h-.9v-9.003h.9v1.711c.685-1.333 1.837-1.909 3.224-1.909 2.142 0 3.492 1.423 3.492 3.601zm2.266 4.97c0-.45.342-.811.811-.811.449 0 .81.36.81.811s-.36.81-.81.81a.796.796 0 0 1-.811-.81zm-51.777 31.681c-.351 1.191-1.4 2.144-3.376.841-1.597-1.051-2.185-.322-2.423.561l-.645-.309c.363-1.19 1.428-2.129 3.39-.841 1.61 1.051 2.185.322 2.409-.56l.645.308zm5.302-7.155v12.604h-.954v-11.56l-2.917.918-.234-.828 3.295-1.134h.81zm10.55 8.967c0 2.431-1.927 3.835-4.195 3.835-1.801 0-3.403-.883-3.979-2.539l.811-.468c.414 1.351 1.621 2.088 3.169 2.088 1.872 0 3.241-1.098 3.241-2.916 0-1.819-1.369-2.917-3.241-2.917h-3.367l.433-6.05h6.662v.9h-5.816l-.288 4.23h2.377c2.266.001 4.193 1.406 4.193 3.837zm19.837-2.071v5.708h-.9v-5.708c0-1.71-.99-2.629-2.395-2.629-1.513 0-2.701 1.009-2.701 3.313v5.023h-.9v-5.708c0-1.71-.918-2.629-2.305-2.629-1.477 0-2.791 1.009-2.791 3.313v5.023h-.9v-9.003h.9v1.549c.666-1.242 1.747-1.747 2.899-1.747 1.314 0 2.341.648 2.81 1.837.647-1.261 1.8-1.837 3.006-1.837 1.908.002 3.277 1.245 3.277 3.495zm2.264-6.193c0-.378.324-.702.721-.702s.72.324.72.702a.721.721 0 0 1-1.441 0zm.269 2.898h.9v9.003h-.9v-9.003zm11.289 3.403v5.6h-.918v-5.6c0-1.656-.955-2.737-2.647-2.737-1.765 0-3.151 1.152-3.151 3.583v4.754h-.9v-9.003h.9v1.711c.685-1.333 1.837-1.909 3.224-1.909 2.142 0 3.492 1.423 3.492 3.601zm2.266 4.97c0-.45.342-.811.811-.811.449 0 .81.36.81.811s-.36.81-.81.81a.796.796 0 0 1-.811-.81zm64.672-112.813c0 2.449-1.783 4.142-4.232 4.142-2.447 0-4.23-1.692-4.23-4.142 0-.99.288-1.836.773-2.521l4.232-6.14h1.08l-3.223 4.699a4.83 4.83 0 0 1 1.367-.198c2.45 0 4.233 1.693 4.233 4.16zm-.955 0c0-1.891-1.277-3.241-3.277-3.241-1.998 0-3.258 1.351-3.258 3.241 0 1.873 1.26 3.223 3.258 3.223 1.999-.001 3.277-1.35 3.277-3.223zm2.517-2.359c0-3.89 1.693-6.5 4.719-6.5 3.024 0 4.717 2.61 4.717 6.5 0 3.889-1.692 6.5-4.717 6.5-3.025 0-4.719-2.611-4.719-6.5zm8.463 0c0-3.529-1.404-5.582-3.744-5.582-2.342 0-3.746 2.053-3.746 5.582s1.404 5.581 3.746 5.581c2.34 0 3.744-2.052 3.744-5.581zm3.328 8.822h-.828l.684-3.745h1.117l-.973 3.745zm2.483-8.822c0-3.89 1.693-6.5 4.719-6.5 3.024 0 4.717 2.61 4.717 6.5 0 3.889-1.692 6.5-4.717 6.5-3.026 0-4.719-2.611-4.719-6.5zm8.463 0c0-3.529-1.404-5.582-3.744-5.582-2.342 0-3.746 2.053-3.746 5.582s1.404 5.581 3.746 5.581c2.339 0 3.744-2.052 3.744-5.581zm2.877 0c0-3.89 1.693-6.5 4.719-6.5 3.024 0 4.717 2.61 4.717 6.5 0 3.889-1.692 6.5-4.717 6.5-3.026 0-4.719-2.611-4.719-6.5zm8.462 0c0-3.529-1.404-5.582-3.744-5.582-2.342 0-3.746 2.053-3.746 5.582s1.404 5.581 3.746 5.581c2.34 0 3.744-2.052 3.744-5.581zm-49.412 41.938l4.627-4.753c1.1-1.135 2.035-2.323 2.035-3.565 0-1.729-1.242-2.701-2.772-2.701-1.368 0-2.413.648-3.007 1.909l-.811-.486c.756-1.549 2.179-2.341 3.817-2.341 1.927 0 3.745 1.278 3.745 3.619 0 1.566-1.08 2.953-2.359 4.249l-3.906 4.016h6.554v.918h-7.923v-.865zm9.487-5.438c0-3.89 1.693-6.5 4.718-6.5s4.718 2.61 4.718 6.5c0 3.889-1.693 6.5-4.718 6.5s-4.718-2.611-4.718-6.5zm8.463 0c0-3.529-1.404-5.582-3.745-5.582s-3.745 2.053-3.745 5.582 1.404 5.581 3.745 5.581 3.745-2.052 3.745-5.581zm2.876 0c0-3.89 1.693-6.5 4.718-6.5s4.718 2.61 4.718 6.5c0 3.889-1.693 6.5-4.718 6.5s-4.718-2.611-4.718-6.5zm8.463 0c0-3.529-1.404-5.582-3.745-5.582s-3.745 2.053-3.745 5.582 1.404 5.581 3.745 5.581 3.745-2.052 3.745-5.581zm3.329 8.822h-.829l.685-3.745h1.116l-.972 3.745zm2.482-8.822c0-3.89 1.693-6.5 4.718-6.5s4.718 2.61 4.718 6.5c0 3.889-1.693 6.5-4.718 6.5s-4.718-2.611-4.718-6.5zm8.463 0c0-3.529-1.404-5.582-3.745-5.582s-3.745 2.053-3.745 5.582 1.404 5.581 3.745 5.581 3.745-2.052 3.745-5.581zm2.877 0c0-3.89 1.693-6.5 4.718-6.5s4.718 2.61 4.718 6.5c0 3.889-1.693 6.5-4.718 6.5s-4.718-2.611-4.718-6.5zm8.463 0c0-3.529-1.404-5.582-3.745-5.582s-3.745 2.053-3.745 5.582 1.404 5.581 3.745 5.581 3.745-2.052 3.745-5.581zm-47.016 39.165c0 2.431-1.926 3.835-4.159 3.835-1.837 0-3.403-.847-4.015-2.395l.792-.469c.468 1.261 1.638 1.944 3.223 1.944 1.837 0 3.205-1.098 3.205-2.916 0-1.819-1.368-2.917-3.241-2.917v-.019l-.018.019h-.252l-.414-.631 3.187-4.519h-6.157v-.9h7.256v.9l-3.043 4.339c2.016.2 3.636 1.496 3.636 3.729zm1.797-2.665c0-3.89 1.693-6.5 4.719-6.5 3.024 0 4.717 2.61 4.717 6.5 0 3.889-1.692 6.5-4.717 6.5-3.026 0-4.719-2.611-4.719-6.5zm8.463 0c0-3.529-1.404-5.582-3.744-5.582-2.342 0-3.746 2.053-3.746 5.582s1.404 5.581 3.746 5.581c2.34 0 3.744-2.052 3.744-5.581zm2.877 0c0-3.89 1.693-6.5 4.719-6.5 3.024 0 4.717 2.61 4.717 6.5 0 3.889-1.692 6.5-4.717 6.5-3.026 0-4.719-2.611-4.719-6.5zm8.463 0c0-3.529-1.404-5.582-3.744-5.582-2.342 0-3.746 2.053-3.746 5.582s1.404 5.581 3.746 5.581c2.339 0 3.744-2.052 3.744-5.581zm3.328 8.822h-.828l.684-3.745h1.117l-.973 3.745zm2.483-8.822c0-3.89 1.692-6.5 4.718-6.5s4.717 2.61 4.717 6.5c0 3.889-1.691 6.5-4.717 6.5s-4.718-2.611-4.718-6.5zm8.463 0c0-3.529-1.405-5.582-3.745-5.582-2.341 0-3.745 2.053-3.745 5.582s1.404 5.581 3.745 5.581c2.34 0 3.745-2.052 3.745-5.581zm2.877 0c0-3.89 1.692-6.5 4.718-6.5s4.717 2.61 4.717 6.5c0 3.889-1.691 6.5-4.717 6.5s-4.718-2.611-4.718-6.5zm8.463 0c0-3.529-1.405-5.582-3.745-5.582-2.341 0-3.745 2.053-3.745 5.582s1.404 5.581 3.745 5.581c2.34 0 3.745-2.052 3.745-5.581zM620.233-108.1h-1.619v2.646h-.955v-2.646h-6.787v-.9l4.789-9.057h1.044L611.933-109h5.726v-3.961h.955V-109h1.619v.9zm9.576-.72c0 2.287-1.818 3.565-4.177 3.565s-4.177-1.278-4.177-3.565c0-1.477.899-2.61 2.25-3.15-1.08-.541-1.836-1.549-1.836-2.881 0-2.233 1.781-3.403 3.763-3.403 1.98 0 3.763 1.17 3.763 3.403 0 1.332-.756 2.34-1.836 2.881 1.35.539 2.25 1.673 2.25 3.15zm-.973 0c0-1.656-1.242-2.629-3.204-2.629-1.963 0-3.205.973-3.205 2.629 0 1.675 1.242 2.646 3.205 2.646 1.962 0 3.204-.972 3.204-2.646zm-3.204-3.565c1.585 0 2.809-.919 2.809-2.467 0-1.621-1.224-2.485-2.809-2.485s-2.81.864-2.81 2.485c.001 1.548 1.225 2.467 2.81 2.467zm5.903.63c0-3.89 1.692-6.5 4.718-6.5s4.717 2.61 4.717 6.5c0 3.889-1.691 6.5-4.717 6.5s-4.718-2.611-4.718-6.5zm8.463 0c0-3.529-1.405-5.582-3.745-5.582-2.341 0-3.745 2.053-3.745 5.582s1.404 5.581 3.745 5.581c2.339 0 3.745-2.052 3.745-5.581zm3.327 8.822h-.828l.684-3.745h1.117l-.973 3.745zm2.483-8.822c0-3.89 1.692-6.5 4.718-6.5s4.717 2.61 4.717 6.5c0 3.889-1.691 6.5-4.717 6.5s-4.718-2.611-4.718-6.5zm8.463 0c0-3.529-1.405-5.582-3.745-5.582-2.341 0-3.745 2.053-3.745 5.582s1.404 5.581 3.745 5.581c2.34 0 3.745-2.052 3.745-5.581zm2.877 0c0-3.89 1.692-6.5 4.718-6.5s4.717 2.61 4.717 6.5c0 3.889-1.691 6.5-4.717 6.5s-4.718-2.611-4.718-6.5zm8.463 0c0-3.529-1.405-5.582-3.745-5.582-2.341 0-3.745 2.053-3.745 5.582s1.404 5.581 3.745 5.581c2.34 0 3.745-2.052 3.745-5.581zm-336.799 42.66h-1.369v4.142h-2.881v-12.604h5.042a4.31 4.31 0 0 1 4.321 4.321c0 1.548-.937 2.952-2.323 3.655l2.683 4.627h-3.097l-2.376-4.141zm-1.369-2.52h2.161c.792 0 1.44-.702 1.44-1.62 0-.919-.648-1.621-1.44-1.621h-2.161v3.241zm12.223 4.502c.738 0 1.369-.289 1.729-.685l2.161 1.242c-.882 1.225-2.214 1.854-3.925 1.854-3.079 0-4.988-2.07-4.988-4.753 0-2.684 1.945-4.754 4.79-4.754 2.629 0 4.573 2.035 4.573 4.754 0 .378-.036.738-.108 1.08h-6.392c.341.937 1.169 1.262 2.16 1.262zm1.656-3.278c-.288-1.045-1.098-1.423-1.909-1.423-1.026 0-1.71.505-1.962 1.423h3.871zm16.634-3.565l-2.881 9.003h-2.521l-1.44-4.808-1.44 4.808h-2.521l-2.881-9.003h2.881l1.296 4.825 1.405-4.825h2.521l1.404 4.825 1.296-4.825h2.881zm9.953 0v9.003h-2.701v-.847c-.594.685-1.477 1.099-2.683 1.099-2.358 0-4.303-2.07-4.303-4.753 0-2.684 1.945-4.754 4.303-4.754 1.207 0 2.089.414 2.683 1.099v-.847h2.701zm-2.701 4.502c0-1.351-.9-2.197-2.143-2.197-1.243 0-2.143.847-2.143 2.197s.9 2.196 2.143 2.196c1.243 0 2.143-.846 2.143-2.196zm10.08-4.682v3.061c-1.117-.18-2.701.271-2.701 2.053v4.069h-2.701v-9.003h2.701v1.603c.36-1.207 1.566-1.783 2.701-1.783zm10.225-3.421v12.604h-2.701v-.847c-.594.685-1.477 1.099-2.683 1.099-2.358 0-4.303-2.07-4.303-4.753 0-2.684 1.945-4.754 4.303-4.754 1.207 0 2.089.414 2.683 1.099v-4.447h2.701zm-2.701 8.103c0-1.351-.9-2.197-2.143-2.197-1.243 0-2.143.847-2.143 2.197s.9 2.196 2.143 2.196c1.243 0 2.143-.846 2.143-2.196zm18.414-4.502v9.003h-2.701v-.847c-.594.685-1.477 1.099-2.683 1.099-2.358 0-4.303-2.07-4.303-4.753 0-2.684 1.945-4.754 4.303-4.754 1.207 0 2.089.414 2.683 1.099v-.847h2.701zm-2.701 4.502c0-1.351-.9-2.197-2.143-2.197-1.243 0-2.143.847-2.143 2.197s.9 2.196 2.143 2.196c1.243 0 2.143-.846 2.143-2.196zm18.182-1.026v5.527h-2.701v-5.294c0-.899-.432-1.476-1.296-1.476-.9 0-1.404.63-1.404 1.692v5.077h-2.701v-5.294c0-.899-.432-1.476-1.296-1.476-.9 0-1.405.63-1.405 1.692v5.077h-2.701v-9.003h2.701v.828c.414-.612 1.207-1.08 2.413-1.08 1.062 0 1.854.433 2.358 1.188.504-.721 1.333-1.188 2.611-1.188 2.071.002 3.421 1.479 3.421 3.73zm1.4 1.026c0-2.684 2.125-4.754 4.771-4.754 2.647 0 4.771 2.07 4.771 4.754 0 2.683-2.125 4.753-4.771 4.753s-4.771-2.07-4.771-4.753zm6.842 0c0-1.278-.9-2.125-2.071-2.125s-2.07.847-2.07 2.125.9 2.124 2.07 2.124 2.071-.846 2.071-2.124zm12.745-4.502v9.003h-2.701v-.847c-.486.667-1.386 1.099-2.574 1.099-1.819 0-3.367-1.296-3.367-3.727v-5.528h2.701v5.132c0 1.116.702 1.639 1.566 1.639.991 0 1.674-.576 1.674-1.854v-4.916h2.701zm10.619 3.476v5.527h-2.7v-5.132c0-1.116-.702-1.638-1.566-1.638-.99 0-1.675.576-1.675 1.854v4.915h-2.701v-9.003h2.701v.847c.486-.666 1.387-1.099 2.575-1.099 1.818.001 3.366 1.298 3.366 3.729zm5.273-.883v3.188c0 .773.666.846 1.854.773v2.449c-3.529.36-4.556-.702-4.556-3.223v-3.188h-1.44v-2.593h1.44v-1.71l2.701-.811v2.521h1.854v2.593h-1.853zm17.299-2.593v8.553c0 3.025-2.359 4.304-4.754 4.304-1.872 0-3.438-.702-4.267-2.179l2.305-1.333c.342.631.864 1.135 2.052 1.135 1.262 0 2.035-.648 2.035-1.927v-.828c-.594.738-1.459 1.17-2.629 1.17-2.557 0-4.43-2.088-4.43-4.573 0-2.484 1.873-4.573 4.43-4.573 1.17 0 2.035.433 2.629 1.171v-.919h2.629zm-2.629 4.321c0-1.242-.9-2.088-2.179-2.088s-2.179.846-2.179 2.088.9 2.089 2.179 2.089 2.179-.847 2.179-2.089zm10.008-4.501v3.061c-1.117-.18-2.701.271-2.701 2.053v4.069h-2.701v-9.003h2.701v1.603c.36-1.207 1.566-1.783 2.701-1.783zm10.225.18v9.003h-2.7v-.847c-.595.685-1.477 1.099-2.683 1.099-2.359 0-4.304-2.07-4.304-4.753 0-2.684 1.944-4.754 4.304-4.754 1.206 0 2.088.414 2.683 1.099v-.847h2.7zm-2.7 4.502c0-1.351-.9-2.197-2.143-2.197-1.243 0-2.143.847-2.143 2.197s.899 2.196 2.143 2.196c1.242 0 2.143-.846 2.143-2.196zm13.319-1.026v5.527h-2.7v-5.132c0-1.116-.702-1.638-1.566-1.638-.99 0-1.675.576-1.675 1.854v4.915h-2.701v-9.003h2.701v.847c.486-.666 1.387-1.099 2.575-1.099 1.818.001 3.366 1.298 3.366 3.729zm11.089-7.077v12.604h-2.7v-.847c-.595.685-1.477 1.099-2.684 1.099-2.358 0-4.303-2.07-4.303-4.753 0-2.684 1.944-4.754 4.303-4.754 1.207 0 2.089.414 2.684 1.099v-4.447h2.7zm-2.7 8.103c0-1.351-.9-2.197-2.143-2.197-1.243 0-2.144.847-2.144 2.197s.9 2.196 2.144 2.196c1.242 0 2.143-.846 2.143-2.196zm12.597-1.909v3.188c0 .773.666.846 1.854.773v2.449c-3.528.36-4.556-.702-4.556-3.223v-3.188h-1.439v-2.593h1.439v-1.71l2.701-.811v2.521h1.854v2.593h-1.853zm2.753 1.909c0-2.684 2.125-4.754 4.771-4.754 2.647 0 4.771 2.07 4.771 4.754 0 2.683-2.124 4.753-4.771 4.753-2.646 0-4.771-2.07-4.771-4.753zm6.843 0c0-1.278-.9-2.125-2.071-2.125s-2.07.847-2.07 2.125.899 2.124 2.07 2.124 2.071-.846 2.071-2.124zm7.469-1.909v3.188c0 .773.666.846 1.854.773v2.449c-3.528.36-4.556-.702-4.556-3.223v-3.188h-1.439v-2.593h1.439v-1.71l2.701-.811v2.521h1.854v2.593h-1.853zm12.439-2.593v9.003h-2.701v-.847c-.594.685-1.477 1.099-2.683 1.099-2.358 0-4.304-2.07-4.304-4.753 0-2.684 1.945-4.754 4.304-4.754 1.206 0 2.089.414 2.683 1.099v-.847h2.701zm-2.701 4.502c0-1.351-.9-2.197-2.143-2.197s-2.143.847-2.143 2.197.9 2.196 2.143 2.196 2.143-.846 2.143-2.196zm4.678-8.643h2.701v13.144h-2.701v-13.144zm58.896.54v12.604h-2.881v-9.561l-2.232.612-.701-2.467 3.295-1.188h2.519zm6.299 6.302c0-3.89 1.873-6.554 5.132-6.554s5.132 2.664 5.132 6.554c0 3.889-1.873 6.554-5.132 6.554s-5.132-2.665-5.132-6.554zm7.383 0c0-2.431-.738-3.745-2.251-3.745s-2.251 1.314-2.251 3.745.738 3.745 2.251 3.745 2.251-1.314 2.251-3.745zm13.68 4.285h-1.26v2.017h-2.917v-2.017h-5.726v-2.665l4.016-7.922h3.096l-4.015 7.922h2.629v-2.7h2.917v2.7h1.26v2.665zm.716-4.285c0-3.89 1.873-6.554 5.133-6.554 3.258 0 5.131 2.664 5.131 6.554 0 3.889-1.873 6.554-5.131 6.554-3.26 0-5.133-2.665-5.133-6.554zm7.383 0c0-2.431-.738-3.745-2.25-3.745-1.514 0-2.252 1.314-2.252 3.745s.738 3.745 2.252 3.745c1.512 0 2.25-1.314 2.25-3.745zm5.848 8.822h-2.16l.721-5.312h2.881l-1.442 5.312zm2.25-8.822c0-3.89 1.872-6.554 5.131-6.554 3.26 0 5.132 2.664 5.132 6.554 0 3.889-1.872 6.554-5.132 6.554-3.259 0-5.131-2.665-5.131-6.554zm7.382 0c0-2.431-.738-3.745-2.251-3.745-1.512 0-2.25 1.314-2.25 3.745s.738 3.745 2.25 3.745 2.251-1.314 2.251-3.745zm3.958 0c0-3.89 1.872-6.554 5.131-6.554 3.26 0 5.132 2.664 5.132 6.554 0 3.889-1.872 6.554-5.132 6.554-3.259 0-5.131-2.665-5.131-6.554zm7.381 0c0-2.431-.738-3.745-2.251-3.745-1.512 0-2.25 1.314-2.25 3.745s.738 3.745 2.25 3.745c1.513 0 2.251-1.314 2.251-3.745zM370.768-40.557h3.025l2.179 8.822 2.431-8.822h2.34l2.431 8.822 2.178-8.822h3.025l-3.475 12.604h-3.277l-2.052-7.437-2.053 7.437h-3.277l-3.475-12.604zm17.244 8.103c0-2.684 2.125-4.754 4.771-4.754s4.771 2.07 4.771 4.754c0 2.683-2.125 4.753-4.771 4.753s-4.771-2.07-4.771-4.753zm6.842 0c0-1.278-.9-2.125-2.071-2.125s-2.071.847-2.071 2.125.9 2.124 2.071 2.124 2.071-.846 2.071-2.124zm9.63-4.682v3.061c-1.117-.18-2.701.271-2.701 2.053v4.069h-2.701v-9.003h2.701v1.603c.36-1.207 1.566-1.783 2.701-1.783zm6.839 9.183l-2.881-3.979v3.979h-2.701v-12.604h2.701v7.544l2.701-3.943h3.151l-3.277 4.502 3.367 4.501h-3.061zm11.969-6.41v3.188c0 .773.667.846 1.854.773v2.449c-3.529.36-4.555-.702-4.555-3.223v-3.188h-1.44v-2.593h1.44v-1.71l2.701-.811v2.521h1.854v2.593h-1.854zm3.113-5.005c0-.883.738-1.621 1.621-1.621s1.62.738 1.62 1.621c0 .882-.738 1.62-1.62 1.62s-1.621-.738-1.621-1.62zm.27 2.412h2.701v9.003h-2.701v-9.003zm18.185 3.476v5.527h-2.701v-5.294c0-.899-.432-1.476-1.297-1.476-.9 0-1.404.63-1.404 1.692v5.077h-2.7v-5.294c0-.899-.433-1.476-1.296-1.476-.9 0-1.405.63-1.405 1.692v5.077h-2.701v-9.003h2.701v.828c.414-.612 1.206-1.08 2.413-1.08 1.063 0 1.854.433 2.358 1.188.505-.721 1.333-1.188 2.61-1.188 2.071.002 3.422 1.479 3.422 3.73zm6.423 3.367c.738 0 1.368-.289 1.729-.685l2.161 1.242c-.883 1.225-2.215 1.854-3.926 1.854-3.078 0-4.987-2.07-4.987-4.753 0-2.684 1.944-4.754 4.79-4.754 2.629 0 4.572 2.035 4.572 4.754 0 .378-.035.738-.107 1.08h-6.393c.342.937 1.17 1.262 2.161 1.262zm1.657-3.278c-.289-1.045-1.099-1.423-1.909-1.423-1.026 0-1.71.505-1.962 1.423h3.871zm17.945-3.565v8.553c0 3.025-2.358 4.304-4.753 4.304-1.872 0-3.438-.702-4.267-2.179l2.305-1.333c.342.631.863 1.135 2.052 1.135 1.261 0 2.034-.648 2.034-1.927v-.828c-.594.738-1.458 1.17-2.628 1.17-2.558 0-4.43-2.088-4.43-4.573 0-2.484 1.872-4.573 4.43-4.573 1.17 0 2.034.433 2.628 1.171v-.919h2.629zm-2.629 4.321c0-1.242-.899-2.088-2.178-2.088s-2.179.846-2.179 2.088.899 2.089 2.179 2.089c1.279 0 2.178-.847 2.178-2.089zm10.008-4.501v3.061c-1.116-.18-2.701.271-2.701 2.053v4.069h-2.7v-9.003h2.7v1.603c.361-1.207 1.567-1.783 2.701-1.783zm10.225.18v9.003h-2.7v-.847c-.595.685-1.477 1.099-2.683 1.099-2.359 0-4.304-2.07-4.304-4.753 0-2.684 1.944-4.754 4.304-4.754 1.206 0 2.088.414 2.683 1.099v-.847h2.7zm-2.7 4.502c0-1.351-.9-2.197-2.143-2.197-1.243 0-2.143.847-2.143 2.197s.899 2.196 2.143 2.196c1.242 0 2.143-.846 2.143-2.196zm13.32-1.026v5.527h-2.7v-5.132c0-1.116-.703-1.638-1.566-1.638-.99 0-1.676.576-1.676 1.854v4.915h-2.7v-9.003h2.7v.847c.486-.666 1.387-1.099 2.575-1.099 1.819.001 3.367 1.298 3.367 3.729zm11.089-7.077v12.604h-2.701v-.847c-.594.685-1.477 1.099-2.684 1.099-2.357 0-4.303-2.07-4.303-4.753 0-2.684 1.945-4.754 4.303-4.754 1.207 0 2.09.414 2.684 1.099v-4.447h2.701zm-2.701 8.103c0-1.351-.9-2.197-2.143-2.197s-2.143.847-2.143 2.197.9 2.196 2.143 2.196 2.143-.846 2.143-2.196zm12.597-1.909v3.188c0 .773.667.846 1.855.773v2.449c-3.529.36-4.556-.702-4.556-3.223v-3.188h-1.44v-2.593h1.44v-1.71l2.7-.811v2.521h1.855v2.593h-1.854zm2.754 1.909c0-2.684 2.124-4.754 4.771-4.754 2.646 0 4.771 2.07 4.771 4.754 0 2.683-2.125 4.753-4.771 4.753-2.647 0-4.771-2.07-4.771-4.753zm6.842 0c0-1.278-.9-2.125-2.07-2.125-1.171 0-2.071.847-2.071 2.125s.9 2.124 2.071 2.124c1.17 0 2.07-.846 2.07-2.124zm7.469-1.909v3.188c0 .773.666.846 1.854.773v2.449c-3.528.36-4.556-.702-4.556-3.223v-3.188h-1.439v-2.593h1.439v-1.71l2.701-.811v2.521h1.854v2.593h-1.853zm12.439-2.593v9.003h-2.7v-.847c-.595.685-1.477 1.099-2.683 1.099-2.359 0-4.304-2.07-4.304-4.753 0-2.684 1.944-4.754 4.304-4.754 1.206 0 2.088.414 2.683 1.099v-.847h2.7zm-2.7 4.502c0-1.351-.9-2.197-2.143-2.197-1.243 0-2.143.847-2.143 2.197s.899 2.196 2.143 2.196c1.243 0 2.143-.846 2.143-2.196zm4.678-8.643h2.7v13.144h-2.7v-13.144zm81.681 7.625c-.519 2.003-1.961 2.465-3.487 1.82-1.416-.588-1.752-.714-2.115.28l-1.682-.813c.519-2.003 1.961-2.465 3.488-1.82 1.414.588 1.736.7 2.115-.28l1.681.813zm10.279 1.324c0 2.611-1.908 4.447-4.682 4.447-2.791 0-4.681-1.836-4.681-4.447 0-.973.271-1.854.737-2.557l3.854-5.852h3.313l-2.737 3.979c2.503.198 4.196 1.981 4.196 4.43zm-2.881 0c0-1.099-.846-1.746-1.801-1.746-.972 0-1.8.63-1.8 1.746s.828 1.746 1.8 1.746c.955 0 1.801-.648 1.801-1.746zm3.778-2.107c0-3.89 1.872-6.554 5.132-6.554 3.259 0 5.131 2.664 5.131 6.554 0 3.889-1.872 6.554-5.131 6.554-3.26 0-5.132-2.665-5.132-6.554zm7.382 0c0-2.431-.738-3.745-2.25-3.745-1.513 0-2.251 1.314-2.251 3.745s.738 3.745 2.251 3.745c1.512 0 2.25-1.314 2.25-3.745zm59.263-184.911v-8.391h.954v8.391c0 2.053 1.279 3.492 3.655 3.492 2.396 0 3.673-1.439 3.673-3.492v-8.391h.955v8.391c0 2.664-1.855 4.411-4.628 4.411s-4.609-1.747-4.609-4.411zm11.429 1.44l.829-.486c.432 1.513 1.71 2.538 3.78 2.538 2.106 0 3.169-1.08 3.169-2.521 0-1.513-1.332-2.089-3.259-2.7-2.106-.685-3.997-1.278-3.997-3.476 0-2.07 1.674-3.385 3.816-3.385 2.071 0 3.439 1.188 4.052 2.646l-.81.45c-.469-1.134-1.441-2.179-3.242-2.179-1.746 0-2.844 1.026-2.844 2.431 0 1.513 1.277 1.98 3.078 2.575 2.232.738 4.178 1.44 4.178 3.619 0 2.089-1.639 3.457-4.142 3.457-2.357.002-4.032-1.186-4.608-2.969zm21.676-3.529c0 3.475-2.467 6.302-5.942 6.302h-4.734v-12.604h4.734c3.475 0 5.942 2.827 5.942 6.302zm-.936 0c0-2.989-2.034-5.401-5.006-5.401h-3.781v10.803h3.781c2.971-.001 5.006-2.413 5.006-5.402zm-32.169 38.589v-8.391h.954v8.391c0 2.053 1.279 3.492 3.655 3.492 2.396 0 3.673-1.439 3.673-3.492v-8.391h.955v8.391c0 2.664-1.855 4.411-4.628 4.411s-4.609-1.747-4.609-4.411zm11.429 1.44l.829-.486c.432 1.513 1.71 2.538 3.78 2.538 2.106 0 3.169-1.08 3.169-2.521 0-1.513-1.332-2.089-3.259-2.7-2.106-.685-3.997-1.278-3.997-3.476 0-2.07 1.674-3.385 3.816-3.385 2.071 0 3.439 1.188 4.052 2.646l-.81.45c-.469-1.134-1.441-2.179-3.242-2.179-1.746 0-2.844 1.026-2.844 2.431 0 1.513 1.277 1.98 3.078 2.575 2.232.738 4.178 1.44 4.178 3.619 0 2.089-1.639 3.457-4.142 3.457-2.357.002-4.032-1.186-4.608-2.969zm21.676-3.529c0 3.475-2.467 6.302-5.942 6.302h-4.734v-12.604h4.734c3.475 0 5.942 2.827 5.942 6.302zm-.936 0c0-2.989-2.034-5.401-5.006-5.401h-3.781v10.803h3.781c2.971-.001 5.006-2.413 5.006-5.402zm-32.169 38.589v-8.391h.954v8.391c0 2.053 1.279 3.492 3.655 3.492 2.396 0 3.673-1.439 3.673-3.492v-8.391h.955v8.391c0 2.664-1.855 4.411-4.628 4.411s-4.609-1.747-4.609-4.411zm11.429 1.44l.829-.486c.432 1.513 1.71 2.538 3.78 2.538 2.106 0 3.169-1.08 3.169-2.521 0-1.513-1.332-2.089-3.259-2.7-2.106-.685-3.997-1.278-3.997-3.476 0-2.07 1.674-3.385 3.816-3.385 2.071 0 3.439 1.188 4.052 2.646l-.81.45c-.469-1.134-1.441-2.179-3.242-2.179-1.746 0-2.844 1.026-2.844 2.431 0 1.513 1.277 1.98 3.078 2.575 2.232.738 4.178 1.44 4.178 3.619 0 2.089-1.639 3.457-4.142 3.457-2.357.002-4.032-1.186-4.608-2.969zm21.676-3.529c0 3.475-2.467 6.302-5.942 6.302h-4.734v-12.604h4.734c3.475 0 5.942 2.827 5.942 6.302zm-.936 0c0-2.989-2.034-5.401-5.006-5.401h-3.781v10.803h3.781c2.971-.001 5.006-2.413 5.006-5.402zm-32.169 38.589v-8.391h.954v8.391c0 2.053 1.279 3.492 3.655 3.492 2.396 0 3.673-1.439 3.673-3.492v-8.391h.955v8.391c0 2.664-1.855 4.411-4.628 4.411s-4.609-1.747-4.609-4.411zm11.429 1.44l.829-.486c.432 1.513 1.71 2.538 3.78 2.538 2.106 0 3.169-1.08 3.169-2.521 0-1.513-1.332-2.089-3.259-2.7-2.106-.685-3.997-1.278-3.997-3.476 0-2.07 1.674-3.385 3.816-3.385 2.071 0 3.439 1.188 4.052 2.646l-.81.45c-.469-1.134-1.441-2.179-3.242-2.179-1.746 0-2.844 1.026-2.844 2.431 0 1.513 1.277 1.98 3.078 2.575 2.232.738 4.178 1.44 4.178 3.619 0 2.089-1.639 3.457-4.142 3.457-2.357.002-4.032-1.186-4.608-2.969zm21.676-3.529c0 3.475-2.467 6.302-5.942 6.302h-4.734v-12.604h4.734c3.475 0 5.942 2.827 5.942 6.302zm-.936 0c0-2.989-2.034-5.401-5.006-5.401h-3.781v10.803h3.781c2.971-.001 5.006-2.413 5.006-5.402zm-32.794 42.589v-8.391h.954v8.391c0 2.053 1.279 3.492 3.655 3.492 2.396 0 3.673-1.439 3.673-3.492v-8.391h.955v8.391c0 2.664-1.855 4.411-4.628 4.411s-4.609-1.747-4.609-4.411zm11.429 1.44l.829-.486c.432 1.513 1.71 2.538 3.78 2.538 2.106 0 3.169-1.08 3.169-2.521 0-1.513-1.332-2.089-3.259-2.7-2.106-.685-3.997-1.278-3.997-3.476 0-2.07 1.674-3.385 3.816-3.385 2.071 0 3.439 1.188 4.052 2.646l-.81.45c-.469-1.134-1.441-2.179-3.242-2.179-1.746 0-2.844 1.026-2.844 2.431 0 1.513 1.277 1.98 3.078 2.575 2.232.738 4.178 1.44 4.178 3.619 0 2.089-1.639 3.457-4.142 3.457-2.357.002-4.032-1.186-4.608-2.969zm21.676-3.529c0 3.475-2.467 6.302-5.942 6.302h-4.734v-12.604h4.734c3.475 0 5.942 2.827 5.942 6.302zm-.936 0c0-2.989-2.034-5.401-5.006-5.401h-3.781v10.803h3.781c2.971-.001 5.006-2.413 5.006-5.402zm7.359 8.103l7.201-16.205h.721l-7.202 16.205h-.72zm27.795-7.509v5.708h-.9v-5.708c0-1.71-.99-2.629-2.395-2.629-1.512 0-2.701 1.009-2.701 3.313v5.023h-.899v-5.708c0-1.71-.919-2.629-2.305-2.629-1.477 0-2.791 1.009-2.791 3.313v5.023h-.9v-9.003h.9v1.549c.667-1.242 1.747-1.747 2.899-1.747 1.314 0 2.34.648 2.809 1.837.648-1.261 1.801-1.837 3.007-1.837 1.908.002 3.276 1.245 3.276 3.495zm1.922 1.207c0-2.665 2.107-4.7 4.736-4.7 2.61 0 4.717 2.035 4.717 4.7 0 2.664-2.106 4.699-4.717 4.699-2.629 0-4.736-2.035-4.736-4.699zm8.535 0c0-2.143-1.656-3.836-3.799-3.836s-3.818 1.693-3.818 3.836 1.676 3.835 3.818 3.835 3.799-1.693 3.799-3.835zm10.691-1.099v5.6h-.918v-5.6c0-1.656-.955-2.737-2.646-2.737-1.766 0-3.151 1.152-3.151 3.583v4.754h-.9v-9.003h.9v1.711c.685-1.333 1.837-1.909 3.224-1.909 2.142 0 3.491 1.423 3.491 3.601zm4.463-2.52v5.852c0 1.584.846 1.62 2.682 1.458v.811c-2.357.36-3.601-.216-3.601-2.269v-5.852h-1.98v-.883h1.98v-2.25l.919-.271v2.521h2.682v.883h-2.682zm12.457 2.52v5.6h-.918v-5.6c0-1.656-.955-2.737-2.647-2.737-1.765 0-3.151 1.152-3.151 3.583v4.754h-.9v-12.604h.9v5.312c.685-1.333 1.837-1.909 3.224-1.909 2.142 0 3.492 1.423 3.492 3.601zm-97.775 37v5.6h-.918v-5.6c0-1.656-.955-2.737-2.646-2.737-1.766 0-3.151 1.152-3.151 3.583v4.754h-.9v-12.604h.9v5.312c.685-1.333 1.837-1.909 3.224-1.909 2.141 0 3.491 1.423 3.491 3.601zm1.924 1.099c0-2.665 2.106-4.7 4.735-4.7 2.61 0 4.718 2.035 4.718 4.7 0 2.664-2.107 4.699-4.718 4.699-2.629 0-4.735-2.035-4.735-4.699zm8.534 0c0-2.143-1.656-3.836-3.799-3.836s-3.817 1.693-3.817 3.836 1.675 3.835 3.817 3.835 3.799-1.693 3.799-3.835zm10.458-4.502v9.003h-.9v-1.711c-.684 1.333-1.836 1.909-3.223 1.909-2.143 0-3.493-1.423-3.493-3.602v-5.6h.919v5.6c0 1.657.953 2.737 2.646 2.737 1.764 0 3.15-1.152 3.15-3.583v-4.754h.901zm6.677-.126v.864c-1.548 0-3.007.954-3.007 3.259v5.006h-.9v-9.003h.9v1.765c.612-1.422 1.783-1.891 3.007-1.891zm7.524 6.77c0 1.477-1.296 2.557-3.223 2.557-1.801 0-2.988-.847-3.421-1.999l.774-.45c.324.973 1.297 1.585 2.646 1.585 1.261 0 2.322-.559 2.322-1.692 0-2.449-5.455-1.045-5.455-4.285 0-1.423 1.225-2.558 3.061-2.558 1.459 0 2.575.703 3.062 1.801l-.757.433c-.377-.937-1.314-1.369-2.305-1.369-1.17 0-2.16.612-2.16 1.693.001 2.411 5.456.99 5.456 4.284zm6.371 4.16l7.201-16.205h.721l-7.202 16.205h-.72zm27.795-7.509v5.708h-.9v-5.708c0-1.71-.99-2.629-2.395-2.629-1.513 0-2.701 1.009-2.701 3.313v5.023h-.9v-5.708c0-1.71-.918-2.629-2.305-2.629-1.477 0-2.791 1.009-2.791 3.313v5.023h-.9v-9.003h.9v1.549c.666-1.242 1.747-1.747 2.899-1.747 1.314 0 2.341.648 2.81 1.837.647-1.261 1.8-1.837 3.006-1.837 1.908.002 3.277 1.245 3.277 3.495zm1.922 1.207c0-2.665 2.107-4.7 4.736-4.7 2.61 0 4.717 2.035 4.717 4.7 0 2.664-2.106 4.699-4.717 4.699-2.629 0-4.736-2.035-4.736-4.699zm8.535 0c0-2.143-1.656-3.836-3.799-3.836s-3.818 1.693-3.818 3.836 1.676 3.835 3.818 3.835 3.799-1.693 3.799-3.835zm10.691-1.099v5.6h-.918v-5.6c0-1.656-.955-2.737-2.647-2.737-1.765 0-3.151 1.152-3.151 3.583v4.754h-.9v-9.003h.9v1.711c.685-1.333 1.837-1.909 3.224-1.909 2.142 0 3.492 1.423 3.492 3.601zm4.462-2.52v5.852c0 1.584.847 1.62 2.683 1.458v.811c-2.358.36-3.602-.216-3.602-2.269v-5.852h-1.98v-.883h1.98v-2.25l.919-.271v2.521h2.683v.883h-2.683zm12.458 2.52v5.6h-.918v-5.6c0-1.656-.955-2.737-2.647-2.737-1.765 0-3.151 1.152-3.151 3.583v4.754h-.9v-12.604h.9v5.312c.685-1.333 1.837-1.909 3.224-1.909 2.142 0 3.492 1.423 3.492 3.601z" fill="#FFF"/><g fill="#FFF"><path d="M547.346-322.366l2.389-2.389-2.828-2.828-2.389 2.389a17.033 17.033 0 0 0-10.605-3.702c-9.447 0-17.133 7.687-17.133 17.135 0 9.447 7.686 17.134 17.133 17.134 9.449 0 17.135-7.687 17.135-17.134a17.036 17.036 0 0 0-3.702-10.605zm-13.433 24.738c-7.793 0-14.133-6.341-14.133-14.134 0-7.794 6.34-14.135 14.133-14.135 7.795 0 14.135 6.341 14.135 14.135-.001 7.793-6.34 14.134-14.135 14.134z"/><path d="M533.913-314.887c-.395 0-.77.081-1.119.216l-1.822-1.381-4.412-3.341 3.213 4.507 1.305 1.83a3.084 3.084 0 0 0-.289 1.294 3.125 3.125 0 1 0 3.124-3.125zm-1.561-14.9h3.125v-2.292h3.625v-4h-10.375v4h3.625z"/></g><g fill="#FFF"><path d="M333.745-308.008a2.01 2.01 0 0 0-1.004.271l-4.416-7.551 4.398-7.655c.299.18.648.283 1.021.284a2.009 2.009 0 0 0 0-4.015 2.005 2.005 0 0 0-2.004 1.96h-8.803l-2.701-4.68-1.699-2.943a2.007 2.007 0 1 0-2.006 0l-1.699 2.943-2.703 4.68h-8.799a2.008 2.008 0 1 0-2.008 2.013c.367 0 .711-.099 1.006-.271l4.416 7.684-4.398 7.523a1.98 1.98 0 0 0-1.023-.284 2.006 2.006 0 1 0 2.006 2.053h3.398l5.402.001 2.703 4.681 1.699 2.941c-.6.348-1.006.995-1.006 1.736a2.009 2.009 0 0 0 4.016 0c0-.741-.404-1.389-1.004-1.736l1.697-2.941 2.703-4.682 5.404.001 3.396-.001a2.008 2.008 0 1 0 2.008-2.012zm-11.404.979l-.297.517-2.703 4.682-1.699 2.941-.107.186-.105-.186-1.701-2.941-2.701-4.682-.297-.517h-9.611l.125-.22 1.592-2.756 3.25-5.282-3.25-5.416-1.607-2.784-.111-.19h9.613l.297-.517 2.701-4.681 1.701-2.943.107-.185.105.185 1.699 2.943 2.703 4.681.297.517h9.613l-.129.22-1.59 2.755-3.117 5.416 3.117 5.282 1.609 2.785.109.19h-9.613z"/><path d="M314.155-308.349l.516.894 2.703 4.68.17.295.17-.295 2.703-4.68.516-.894c-1.021.504-2.172.787-3.389.787s-2.365-.283-3.389-.787zm-4.277-6.596l-.609 1.055-2.701 4.68-.17.295h6.793a7.662 7.662 0 0 1-3.313-6.03zm-3.141-6.843h-.34l.17.295 2.701 4.68.621 1.073a7.66 7.66 0 0 1 3.66-6.048h-6.812zm19.084 7.897l-.611-1.056a7.665 7.665 0 0 1-3.313 6.03h6.795l-.172-.295-2.699-4.679zm-8.107-14.039l-.17-.294-.17.294-2.703 4.68-.707 1.227c1.068-.564 2.287-.886 3.58-.886s2.512.321 3.58.886l-.707-1.227-2.703-4.68zm7.486 12.19l.621-1.073 2.699-4.68.172-.295h-7.152a7.671 7.671 0 0 1 3.66 6.048z"/></g><g fill="#FFF"><path d="M414.739-311.626a9.44 9.44 0 0 1 4.643-8.133h-8.779a5.635 5.635 0 0 1-4.162 4.16v7.939a5.635 5.635 0 0 1 4.162 4.158h8.779a9.42 9.42 0 0 1-4.643-8.124zm18.881 0a9.439 9.439 0 0 1-4.643 8.131h8.781a5.635 5.635 0 0 1 4.16-4.16v-7.941a5.626 5.626 0 0 1-4.16-4.16h-8.781a9.432 9.432 0 0 1 4.643 8.13z"/><path d="M447.963-298.628h-47.568v-26h47.568v26zm-44.567-3h41.568v-20h-41.568v20z"/><path d="M424.567-312.062v-5.131c1.156.14 1.971.753 2.387 1.783l.813-.452c-.563-1.354-1.77-2.112-3.199-2.274v-1.623h-.848v1.623c-1.916.128-3.432 1.392-3.432 3.272 0 2.153 1.594 2.818 3.432 3.473v5.361c-1.682-.087-2.781-.848-3.197-2.109l-.826.466c.557 1.557 2.039 2.477 4.023 2.569v1.608h.848v-1.627c2.064-.197 3.51-1.516 3.506-3.418-.001-2.147-1.661-2.868-3.507-3.521zm-.847-.304c-1.424-.522-2.469-1.066-2.475-2.492 0-1.26.994-2.217 2.475-2.351v4.843zm.853 6.304v-5.04c1.482.524 2.531 1.12 2.531 2.563 0 1.305-.904 2.3-2.531 2.477z"/></g><g fill="#FFF"><path d="M625.508-315.759a9.44 9.44 0 0 1 4.643-8.133h-8.779a5.635 5.635 0 0 1-4.162 4.16v7.939a5.635 5.635 0 0 1 4.162 4.158h8.779a9.42 9.42 0 0 1-4.643-8.124zm18.881 0a9.439 9.439 0 0 1-4.643 8.131h8.781a5.635 5.635 0 0 1 4.16-4.16v-7.941a5.626 5.626 0 0 1-4.16-4.16h-8.781a9.431 9.431 0 0 1 4.643 8.13z"/><path d="M658.733-302.761h-47.568v-26h47.568v26zm-44.568-3h41.568v-20h-41.568v20z"/><path d="M659.733-324.628v23h-44.568v3h47.568v-26z"/><path d="M635.442-316.194v-5.131c1.158.14 1.971.753 2.387 1.783l.814-.452c-.564-1.354-1.771-2.112-3.201-2.274v-1.623h-.848v1.623c-1.914.128-3.432 1.392-3.432 3.272 0 2.153 1.594 2.818 3.432 3.473v5.361c-1.68-.087-2.779-.848-3.197-2.109l-.824.466c.555 1.557 2.037 2.477 4.021 2.569v1.608h.848v-1.627c2.066-.197 3.51-1.516 3.508-3.418 0-2.147-1.662-2.869-3.508-3.521zm-.848-.305c-1.424-.522-2.469-1.066-2.473-2.492 0-1.26.992-2.217 2.473-2.351v4.843zm.854 6.305v-5.04c1.484.524 2.531 1.12 2.531 2.563 0 1.304-.902 2.299-2.531 2.477z"/></g></svg>