<svg xmlns="http://www.w3.org/2000/svg" width="138.195" height="138.197" viewBox="0 0 138.195 138.197"><linearGradient id="a" gradientUnits="userSpaceOnUse" x1="-534.974" y1="-765.673" x2="-396.778" y2="-765.673" gradientTransform="matrix(-1 0 0 -.8257 -396.778 -563.117)"><stop offset="0" stop-color="#4b48bf"/><stop offset="1" stop-color="#a14b8a"/></linearGradient><ellipse opacity=".4" fill="url(#a)" cx="69.098" cy="69.099" rx="69.098" ry="57.051"/><linearGradient id="b" gradientUnits="userSpaceOnUse" x1="242.289" y1="175.667" x2="380.487" y2="175.667" gradientTransform="matrix(0 1 .8257 0 -75.95 -242.289)"><stop offset="0" stop-color="#4b48bf"/><stop offset="1" stop-color="#a14b8a"/></linearGradient><ellipse opacity=".4" fill="url(#b)" cx="69.098" cy="69.099" rx="57.051" ry="69.099"/><linearGradient id="c" gradientUnits="userSpaceOnUse" x1="-214.097" y1="568.105" x2="-99.819" y2="568.105" gradientTransform="translate(226.056 -499.007)"><stop offset="0" stop-color="#4b48bf"/><stop offset="1" stop-color="#a14b8a"/></linearGradient><circle opacity=".6" fill="url(#c)" cx="69.098" cy="69.098" r="57.139"/><linearGradient id="d" gradientUnits="userSpaceOnUse" x1="-202.017" y1="568.105" x2="-111.899" y2="568.105" gradientTransform="translate(226.056 -499.007)"><stop offset="0" stop-color="#4b48bf"/><stop offset="1" stop-color="#a14b8a"/></linearGradient><circle opacity=".8" fill="url(#d)" cx="69.098" cy="69.098" r="45.059"/><path d="M101.009 64.208l-.02-.005a33.963 33.963 0 0 0-3.122-.957 453.171 453.171 0 0 0-3.371-1.009c-1.803-.889-2.614-2.332-3.193-4.563-1.189-4.577-2.593-9.125-4.313-13.527-.855-2.191-2.379-4.253-4.023-5.967-2.014-2.098-4.522-2.105-6.841-.193-.936.772-1.76 1.678-2.67 2.483-1.289 1.141-2.55 1.812-3.755 1.915-1.204-.103-2.463-.774-3.754-1.915-.911-.805-1.734-1.71-2.669-2.483-2.318-1.912-4.828-1.905-6.841.193-1.644 1.713-3.168 3.776-4.023 5.967-1.72 4.402-3.124 8.95-4.313 13.527-.58 2.23-1.392 3.674-3.193 4.563a506.02 506.02 0 0 0-3.372 1.009 33.963 33.963 0 0 0-3.122.957l-.02.005C5.959 74.225 51.934 76.32 65.912 76.717c.409.012.818.023 1.227.032 1.414.036 2.321.049 2.536.053h.051c.215-.004 1.12-.017 2.535-.053.409-.009.818-.021 1.227-.032 13.979-.397 59.953-2.492 27.521-12.509zm-6.277 16.491H43.72s-1.637 25.564 16.306 17.507v-.007c1.409-.598 2.761-1.34 3.945-2.228 1.977-1.482 3.851-2.198 5.728-2.228 1.878.029 3.752.745 5.729 2.228 1.183.888 2.535 1.63 3.944 2.228l.001.007c17.942 8.058 16.305-17.507 16.305-17.507h-.946zM56.125 93.018c-3.253-1.044-3.979-3.665-3.973-7.408l11.517 3.118c-1.772 3.217-5.16 5.056-7.544 4.29zm27.15 0c-2.384.767-5.771-1.072-7.544-4.29l11.518-3.118c.005 3.743-.72 6.364-3.974 7.408z" fill-rule="evenodd" clip-rule="evenodd" fill="#FFF"/></svg>