<svg xmlns="http://www.w3.org/2000/svg" width="230" height="223.227" viewBox="258.898 -53.402 230 223.227"><linearGradient id="a" gradientUnits="userSpaceOnUse" x1="-4361.364" y1="-1509.486" x2="-4244.996" y2="-1509.486" gradientTransform="matrix(0 -1 -1 0 -1134.646 -4249.706)"><stop offset="0" stop-color="#706dcb" stop-opacity="0"/><stop offset="1" stop-color="#706dcb" stop-opacity=".7"/></linearGradient><circle fill="url(#a)" cx="374.838" cy="53.473" r="58.184"/><g fill="#FFF"><path d="M448.116 86.67a9.068 9.068 0 0 0-4.544 1.229l-19.957-34.135 19.88-34.601a9.027 9.027 0 0 0 4.619 1.285 9.077 9.077 0 0 0 9.073-9.078c0-5.013-4.06-9.07-9.073-9.07-4.937 0-8.945 3.944-9.058 8.858h-39.792l-12.213-21.15-7.677-13.304a9.061 9.061 0 0 0 4.54-7.852c0-5.011-4.066-9.069-9.074-9.069-5.011 0-9.073 4.059-9.073 9.069 0 3.359 1.832 6.284 4.542 7.852l-7.681 13.304-12.213 21.152h-39.777c-.021-4.995-4.075-9.039-9.073-9.039-5.013 0-9.07 4.062-9.074 9.071a9.064 9.064 0 0 0 9.074 9.067 9.055 9.055 0 0 0 4.547-1.223l19.955 34.729-19.877 34.008a8.983 8.983 0 0 0-4.626-1.279 9.069 9.069 0 0 0-9.074 9.07 9.07 9.07 0 0 0 9.074 9.074c4.938 0 8.952-3.948 9.063-8.865h15.358l24.428.003 12.215 21.155 7.682 13.301c-2.712 1.568-4.543 4.496-4.543 7.851a9.07 9.07 0 0 0 9.074 9.071c5.009 0 9.074-4.061 9.074-9.071 0-3.354-1.833-6.281-4.541-7.851l7.674-13.301 12.218-21.158 24.425.003 15.356-.003c.016 4.994 4.068 9.044 9.067 9.044a9.069 9.069 0 0 0 9.073-9.071 9.07 9.07 0 0 0-9.071-9.076zm-51.55 4.423l-1.349 2.339-12.214 21.159-7.688 13.299-.478.838-.479-.838-7.688-13.299-12.21-21.158-1.348-2.338h-43.445l.568-.989 7.19-12.461 14.699-23.879-14.696-24.476-7.268-12.592-.496-.86h43.447l1.348-2.338L366.67-7.653l7.687-13.305.484-.834.476.834L383-7.653 395.22 13.5l1.347 2.338h43.448l-.575.993-7.192 12.458-14.09 24.476 14.09 23.879 7.274 12.593.493.857-43.449-.001z"/><path d="M359.565 85.126l2.332 4.046 12.216 21.154.765 1.331.769-1.331 12.22-21.154 2.333-4.046a34.494 34.494 0 0 1-15.32 3.563 34.452 34.452 0 0 1-15.315-3.563zm-19.338-29.811l-2.756 4.768-12.209 21.152-.77 1.332h30.711c-8.735-6.026-14.558-15.946-14.976-27.252zm-14.198-30.933h-1.535l.769 1.33 12.209 21.153 2.806 4.854c.753-11.585 7.184-21.619 16.55-27.336h-6.369l-24.43-.001zm86.263 35.7l-2.756-4.77c-.418 11.306-6.251 21.228-14.976 27.254h30.714l-.771-1.334-12.211-21.15zM375.647-3.38l-.769-1.331-.766 1.331-12.215 21.155-3.201 5.544a34.522 34.522 0 0 1 16.182-4.005 34.544 34.544 0 0 1 16.189 4.005l-3.201-5.544L375.647-3.38zm33.841 55.104l2.805-4.856L424.5 25.712l.771-1.329h-32.334c9.36 5.718 15.801 15.754 16.551 27.341z"/></g><g fill="#FFF"><path d="M383.653 47.29c0-1.51-1.004-2.601-2.563-2.601h-12.628v5.208h12.628c1.513.001 2.563-1.09 2.563-2.607zm-1.719 8.572h-13.472v5.632h13.472c1.679 0 2.772-1.178 2.772-2.815s-1.092-2.817-2.772-2.817z"/><path d="M374.841 25.086c-15.651 0-28.383 12.733-28.383 28.382 0 15.65 12.73 28.381 28.383 28.381 15.646 0 28.379-12.731 28.379-28.381-.002-15.647-12.732-28.382-28.379-28.382zm7.093 42.705h-1.018v5.461h-4.963v-5.461h-2.508v5.461h-4.959v-5.456h-9.896v-6.272h3.147v-16.85h-3.147v-6.289h9.896V32.93h4.959v5.455h2.508V32.93h4.963v5.455h.173c5.127 0 9.286 3.32 9.286 8.406 0 2.433-.966 4.367-2.563 5.756 2.188 1.385 3.614 3.65 3.614 6.634.003 5.214-4.241 8.61-9.492 8.61z"/></g><linearGradient id="b" gradientUnits="userSpaceOnUse" x1="314.002" y1="-751.263" x2="365.691" y2="-751.263" gradientTransform="matrix(1 0 0 -1 0 -760.576)"><stop offset="0" stop-color="#fff" stop-opacity="0"/><stop offset="1" stop-color="#fff"/></linearGradient><path fill="url(#b)" d="M365.637-23.146a1.31 1.31 0 0 0-.951-.903l-14.629-3.528a1.313 1.313 0 1 0-.618 2.554l9.418 2.271C339.991-18.611 323.922-6.92 314.002 8.99h3.119c9.771-14.857 25.197-25.678 43.193-29.371l-7.355 7.788a1.312 1.312 0 1 0 1.91 1.802l10.463-11.08a1.31 1.31 0 0 0 .305-1.275z"/><linearGradient id="c" gradientUnits="userSpaceOnUse" x1="739.959" y1="2675.242" x2="791.648" y2="2675.242" gradientTransform="scale(1 -1) rotate(-61.608 -1648.024 1638.34)"><stop offset="0" stop-color="#fff" stop-opacity="0"/><stop offset="1" stop-color="#fff"/></linearGradient><path fill="url(#c)" d="M436.37 8.188c.331-.332.463-.813.341-1.267l-3.852-14.547a1.312 1.312 0 1 0-2.539.672l2.479 9.365c-12.614-14.627-30.537-23.202-49.252-24.365l1.483 2.745c17.715 1.53 34.568 9.954 46.377 24.027L421.06 2.054a1.311 1.311 0 0 0-1.607.93 1.3 1.3 0 0 0 .112.964c.166.308.451.548.816.646l14.727 3.936c.447.119.931-.009 1.262-.342z"/><linearGradient id="d" gradientUnits="userSpaceOnUse" x1="-1964.156" y1="4565.881" x2="-1912.469" y2="4565.881" gradientTransform="scale(-1 1) rotate(58.023 2874.082 3654.84)"><stop offset="0" stop-color="#fff" stop-opacity="0"/><stop offset="1" stop-color="#fff"/></linearGradient><path fill="url(#d)" d="M445.344 84.337c.451.125.936 0 1.271-.326l10.742-10.54a1.316 1.316 0 0 0-1.842-1.877l-6.913 6.786c6.479-18.196 5.073-38.019-3.171-54.859l-1.65 2.647c7.425 16.155 8.437 34.971 2.04 52.191l-2.71-10.362a1.318 1.318 0 0 0-1.606-.938 1.323 1.323 0 0 0-.781.575 1.292 1.292 0 0 0-.157 1.027l3.856 14.744c.117.454.47.808.921.932z"/><linearGradient id="e" gradientUnits="userSpaceOnUse" x1="-5085.632" y1="2941.342" x2="-5033.943" y2="2941.342" gradientTransform="scale(-1 1) rotate(-2.613 -64644.614 -100388.853)"><stop offset="0" stop-color="#fff" stop-opacity="0"/><stop offset="1" stop-color="#fff"/></linearGradient><path fill="url(#e)" d="M383.646 129.55c.113.455.461.814.909.945l14.452 4.192a1.314 1.314 0 1 0 .733-2.524l-9.304-2.699c19.036-3.275 35.618-14.221 46.257-29.662l-3.116-.142c-10.439 14.393-26.341 24.5-44.486 27.37l7.702-7.447a1.313 1.313 0 1 0-1.827-1.885l-10.958 10.59a1.323 1.323 0 0 0-.362 1.262z"/><linearGradient id="f" gradientUnits="userSpaceOnUse" x1="-5286.331" y1="-293.725" x2="-5234.644" y2="-293.725" gradientTransform="scale(-1 1) rotate(-62.09 -2459.568 -4178.22)"><stop offset="0" stop-color="#fff" stop-opacity="0"/><stop offset="1" stop-color="#fff"/></linearGradient><path fill="url(#f)" d="M313.708 98.879c-.335.327-.471.81-.353 1.264l3.729 14.579a1.315 1.315 0 1 0 2.547-.654l-2.399-9.383c12.487 14.733 30.343 23.458 49.045 24.778l-1.46-2.756c-17.701-1.681-34.484-10.244-46.174-24.417l10.326 2.853a1.314 1.314 0 1 0 .699-2.535L314.98 98.55a1.32 1.32 0 0 0-1.272.329z"/><linearGradient id="g" gradientUnits="userSpaceOnUse" x1="-5525.233" y1="-36.144" x2="-5473.541" y2="-36.144" gradientTransform="rotate(-164.763 -2600.431 -373.905)"><stop offset="0" stop-color="#fff" stop-opacity="0"/><stop offset="1" stop-color="#fff"/></linearGradient><path fill="url(#g)" d="M264.182 41.977a1.316 1.316 0 0 1 1.156-.621l15.042.439a1.315 1.315 0 0 1 1.274 1.353 1.311 1.311 0 0 1-1.353 1.273l-9.682-.281c17.11 8.952 29.541 24.456 34.937 42.413l-3.011-.819c-5.521-16.9-17.562-31.396-33.953-39.69l5.048 9.447a1.309 1.309 0 0 1-.541 1.778 1.307 1.307 0 0 1-.963.109 1.299 1.299 0 0 1-.813-.647l-7.187-13.44a1.33 1.33 0 0 1 .046-1.314z"/><path d="M362.104-51.704v1.364h2.628v1.556h-2.628v2.597h-1.615v-7.072h4.294v1.556h-2.679zm7.48 4.405h-2.627l-.354 1.111h-1.768l2.404-7.072h2.062l2.404 7.072h-1.769l-.352-1.111zm-.485-1.515l-.829-2.597-.827 2.597h1.656zm2.661-.91c0-2.082 1.545-3.678 3.679-3.678 1.281 0 2.413.637 3.03 1.637l-1.395.81c-.314-.546-.919-.87-1.637-.87-1.255 0-2.063.839-2.063 2.102 0 1.264.809 2.103 2.063 2.103.718 0 1.333-.323 1.637-.869l1.395.809c-.605 1-1.737 1.638-3.03 1.638-2.134-.004-3.679-1.601-3.679-3.682zm12.22-1.98h-1.818v5.517h-1.617v-5.517h-1.818v-1.556h5.255l-.002 1.556zm.154 3.91l1.395-.809c.253.585.688.979 1.485.979.768 0 .959-.303.959-.576 0-.434-.403-.606-1.464-.898-1.053-.293-2.082-.798-2.082-2.151 0-1.364 1.151-2.153 2.374-2.153 1.162 0 2.072.556 2.587 1.597l-1.363.799c-.243-.506-.575-.818-1.224-.818-.505 0-.759.252-.759.536 0 .323.173.545 1.273.879 1.071.323 2.273.697 2.273 2.192 0 1.363-1.092 2.173-2.628 2.173-1.482-.002-2.432-.709-2.826-1.75zM443.542-6.11c0-2.082 1.647-3.678 3.678-3.678 2.031 0 3.679 1.597 3.679 3.678s-1.647 3.678-3.679 3.678a3.647 3.647 0 0 1-3.678-3.678zm5.738 0c0-1.263-.909-2.102-2.062-2.102-1.151 0-2.062.838-2.062 2.102 0 1.263.91 2.102 2.062 2.102 1.153-.001 2.062-.839 2.062-2.102zm4.147-1.98v1.363h2.627v1.557h-2.627v2.597h-1.616v-7.073h4.293v1.557h-2.677zm5.257 0v1.363h2.627v1.557h-2.627v2.597h-1.616v-7.073h4.295v1.557h-2.679zm5.256-1.556v7.073h-1.616v-7.073h1.616zm.911 3.536c0-2.082 1.547-3.678 3.679-3.678 1.284 0 2.415.637 3.029 1.637l-1.394.81c-.313-.547-.92-.869-1.637-.869-1.252 0-2.062.838-2.062 2.102 0 1.263.81 2.102 2.062 2.102.717 0 1.335-.323 1.637-.868l1.394.808c-.604 1-1.735 1.637-3.029 1.637-2.133-.003-3.679-1.6-3.679-3.681zm11.917 1.98v1.557h-4.445v-7.073h4.395v1.557h-2.776v1.172h2.524v1.536h-2.524v1.252h2.826zm3.297-.767h-.77v2.324h-1.615v-7.073h2.828a2.418 2.418 0 0 1 2.425 2.425c0 .869-.524 1.657-1.303 2.052l1.505 2.597h-1.736l-1.334-2.325zm-.769-1.415h1.213c.444 0 .809-.394.809-.909s-.363-.908-.809-.908h-1.213v1.817zm4.146 2.132l1.395-.809c.254.586.688.979 1.486.979.767 0 .959-.304.959-.576 0-.435-.404-.606-1.464-.899-1.054-.293-2.082-.798-2.082-2.152 0-1.363 1.151-2.151 2.374-2.151 1.161 0 2.07.556 2.587 1.597l-1.364.798c-.243-.505-.575-.817-1.223-.817-.505 0-.759.252-.759.536 0 .322.173.545 1.272.879 1.072.322 2.274.696 2.274 2.191 0 1.364-1.093 2.172-2.628 2.172-1.483 0-2.434-.707-2.827-1.748zm-40.203 115.437h1.767l1.567 5.203 1.565-5.203h1.768l-2.304 7.072h-2.062l-2.301-7.072zm11.723 5.517v1.556h-4.446v-7.072h4.396v1.556h-2.778v1.172h2.525v1.535h-2.525v1.254h2.828zm3.296-.767h-.768v2.322h-1.617v-7.072h2.829a2.42 2.42 0 0 1 2.425 2.425c0 .869-.524 1.656-1.303 2.051l1.506 2.597h-1.738l-1.334-2.323zm-.767-1.416h1.212c.445 0 .81-.393.81-.908s-.363-.91-.81-.91h-1.212v1.818zm10.865.203c0 2-1.485 3.535-3.437 3.535h-2.829v-7.072h2.829c1.952 0 3.437 1.537 3.437 3.537zm-1.556 0c0-1.213-.769-1.98-1.88-1.98h-1.213v3.961h1.213c1.112-.001 1.88-.768 1.88-1.981zm4.085-3.537v7.072h-1.616v-7.072h1.616zm.911 3.537c0-2.082 1.546-3.677 3.678-3.677 1.284 0 2.415.636 3.03 1.636l-1.394.809c-.313-.547-.92-.869-1.638-.869-1.252 0-2.061.839-2.061 2.103 0 1.262.809 2.102 2.061 2.102.718 0 1.335-.323 1.638-.869l1.394.81c-.604 1-1.736 1.637-3.03 1.637-2.132-.004-3.678-1.6-3.678-3.682zm12.219-1.981h-1.817v5.517h-1.616v-5.517h-1.819v-1.556h5.254l-.002 1.556zM260.516-17.621v7.073h-1.617v-7.073h1.617zm6.771 0v7.073h-1.212l-2.729-3.84v3.84h-1.617v-7.073h1.213l2.729 3.839v-3.839h1.616zm5.964 1.556h-1.817v5.518h-1.617v-5.518H268v-1.556h5.253l-.002 1.556zm5.157 3.96v1.558h-4.446v-7.073h4.396v1.556h-2.777v1.172h2.525v1.536h-2.525v1.252h2.827zm3.297-.767h-.77v2.324h-1.615v-7.073h2.828a2.42 2.42 0 0 1 2.426 2.425c0 .869-.525 1.657-1.305 2.051l1.506 2.598h-1.737l-1.333-2.325zm-.769-1.415h1.213c.445 0 .81-.395.81-.909s-.362-.909-.81-.909h-1.213v1.818zm10.158-3.334v7.073h-1.213l-2.729-3.84v3.84h-1.615v-7.073h1.212l2.728 3.839v-3.839h1.617zm5.662 5.516v1.558h-4.445v-7.073h4.396v1.556h-2.778v1.172h2.526v1.536h-2.526v1.252h2.827zm5.661-3.96H300.6v5.518h-1.617v-5.518h-1.818v-1.556h5.254l-.002 1.556zm-29.163 11.27v-4.79h1.616v4.646c0 .536.253.99 1.112.99.856 0 1.11-.454 1.11-.99v-4.646h1.615v4.79c0 1.515-1.172 2.424-2.728 2.424-1.553 0-2.725-.909-2.725-2.424zm6.267.676l1.396-.809c.252.586.687.979 1.483.979.77 0 .961-.303.961-.576 0-.435-.403-.605-1.465-.898-1.051-.292-2.082-.799-2.082-2.152 0-1.364 1.152-2.152 2.375-2.152 1.162 0 2.07.557 2.586 1.598l-1.362.798c-.243-.505-.576-.818-1.224-.818-.506 0-.758.252-.758.535 0 .323.172.545 1.272.879 1.071.323 2.272.697 2.272 2.192 0 1.363-1.09 2.172-2.627 2.172-1.482 0-2.431-.707-2.827-1.748zm10.663.051v1.556h-4.445v-7.071h4.396v1.556h-2.776v1.172h2.524v1.536h-2.524v1.252h2.825zm3.296-.768h-.768v2.322h-1.615v-7.071h2.828a2.42 2.42 0 0 1 2.426 2.425c0 .869-.525 1.657-1.305 2.051l1.506 2.596h-1.738l-1.334-2.323zm-.767-1.414h1.213c.445 0 .809-.395.809-.91s-.362-.909-.809-.909h-1.213v1.819zm4.146 2.131l1.396-.809c.252.586.687.979 1.483.979.77 0 .962-.303.962-.576 0-.435-.404-.605-1.466-.898-1.051-.292-2.082-.799-2.082-2.152 0-1.364 1.152-2.152 2.375-2.152 1.162 0 2.07.557 2.586 1.598l-1.362.798c-.243-.505-.576-.818-1.224-.818-.506 0-.758.252-.758.535 0 .323.172.545 1.272.879 1.071.323 2.272.697 2.272 2.192 0 1.363-1.09 2.172-2.627 2.172-1.482 0-2.432-.707-2.827-1.748zm-31.28 121.339h-2.627l-.354 1.109h-1.769l2.405-7.072h2.061l2.404 7.072h-1.768l-.352-1.109zm-.485-1.516l-.83-2.599-.828 2.599h1.658zm5.601.303h-.77v2.322h-1.615v-7.072h2.828a2.42 2.42 0 0 1 2.426 2.425c0 .869-.524 1.656-1.305 2.051l1.508 2.597h-1.74l-1.332-2.323zm-.769-1.416h1.213c.445 0 .81-.393.81-.908s-.363-.91-.81-.91h-1.213v1.818zm4.198.203c0-2.082 1.545-3.677 3.678-3.677 1.283 0 2.414.636 3.031 1.636l-1.396.809c-.313-.547-.918-.869-1.637-.869-1.253 0-2.061.839-2.061 2.103 0 1.262.808 2.102 2.061 2.102.719 0 1.334-.323 1.637-.869l1.396.81c-.606 1-1.737 1.637-3.031 1.637-2.134-.004-3.678-1.6-3.678-3.682zm12.925-3.537v7.072h-1.615v-2.81h-2.224v2.81h-1.616v-7.072h1.616v2.708h2.224v-2.708h1.615zm2.834 0v7.072h-1.617v-7.072h1.617zm.608 0h1.768l1.566 5.203 1.565-5.203h1.769l-2.304 7.072h-2.063l-2.301-7.072zm11.722 5.517v1.556h-4.445v-7.072h4.396v1.556h-2.778v1.172h2.525v1.535h-2.525v1.254h2.827zm41.174 43.793h-2.639l-.355 1.116h-1.775l2.415-7.103h2.07l2.415 7.103h-1.776l-.355-1.116zm-.488-1.523l-.832-2.607-.832 2.607h1.664zm7.392 1.076v1.563h-4.161v-7.103h1.624v5.54h2.537zm7.338-1.786c0 2.172-1.512 3.49-3.501 3.49-2.232 0-3.835-1.644-3.835-3.683 0-2.061 1.634-3.704 3.724-3.704 1.359 0 2.507.67 3.105 1.624l-1.381.791c-.294-.467-.933-.832-1.734-.832-1.197 0-2.091.883-2.091 2.131 0 1.208.853 2.091 2.232 2.091.943 0 1.563-.416 1.816-1.097h-1.897v-1.42h3.562v.609zm.614-.203c0-2.09 1.653-3.693 3.693-3.693a3.662 3.662 0 0 1 3.693 3.693c0 2.091-1.654 3.693-3.693 3.693-2.04 0-3.693-1.602-3.693-3.693zm5.764 0c0-1.269-.914-2.11-2.07-2.11-1.157 0-2.07.842-2.07 2.11s.913 2.111 2.07 2.111c1.156 0 2.07-.842 2.07-2.111zm4.936 1.218h-.771v2.334h-1.624v-7.103h2.842a2.43 2.43 0 0 1 2.436 2.435c0 .873-.528 1.664-1.31 2.061l1.512 2.607h-1.745l-1.34-2.334zm-.771-1.421h1.218c.446 0 .812-.396.812-.913s-.365-.913-.812-.913h-1.218v1.826zm6.244-3.348v7.103h-1.624v-7.103h1.624zm5.988 1.563h-1.826v5.54h-1.624v-5.54h-1.826v-1.563h5.276v1.563zm6.193-1.563v7.103h-1.623v-2.821h-2.232v2.821h-1.624v-7.103h1.624v2.719h2.232v-2.719h1.623zm8.325 7.103h-1.624v-4.13l-1.836 3.014h-.183l-1.837-3.014v4.13h-1.624v-7.103h1.624l1.928 3.155 1.928-3.155h1.624v7.103zm3.456-3.552c0-2.09 1.653-3.693 3.693-3.693a3.662 3.662 0 0 1 3.693 3.693c0 2.091-1.654 3.693-3.693 3.693-2.04 0-3.693-1.602-3.693-3.693zm5.764 0c0-1.269-.914-2.11-2.07-2.11-1.157 0-2.07.842-2.07 2.11s.913 2.111 2.07 2.111c1.156 0 2.07-.842 2.07-2.111zm4.165-1.988v1.369h2.638v1.563h-2.638v2.607h-1.624v-7.103h4.313v1.563h-2.689zm-89.737 13.54h-1.624v-4.13l-1.836 3.014h-.183l-1.837-3.014v4.13h-1.624v-7.103h1.624l1.928 3.155 1.928-3.155h1.624v7.103zm1.171-2.293v-4.81h1.624v4.667c0 .538.254.995 1.116.995s1.116-.457 1.116-.995v-4.667h1.623v4.81c0 1.521-1.177 2.435-2.739 2.435s-2.74-.914-2.74-2.435zm10.812.73v1.563h-4.161v-7.103h1.624v5.54h2.537zm4.771-3.977h-1.826v5.54h-1.624v-5.54h-1.826v-1.563h5.276v1.563zm2.337-1.563v7.103h-1.624v-7.103h1.624zm1.219 3.338h3.856v1.461h-3.856v-1.461zm9.238 2.202v1.563h-4.161v-7.103h1.624v5.54h2.537zm5.177 0v1.563h-4.465v-7.103h4.414v1.563h-2.79v1.177h2.537v1.542h-2.537v1.259h2.841zm.309-5.54h1.775l1.573 5.226 1.572-5.226h1.776l-2.313 7.103h-2.07l-2.313-7.103zm11.773 5.54v1.563h-4.465v-7.103h4.414v1.563h-2.79v1.177h2.537v1.542h-2.537v1.259h2.841zm5.078 0v1.563h-4.161v-7.103h1.624v5.54h2.537zm2.642-5.54h1.775l1.573 5.226 1.572-5.226h1.776l-2.313 7.103h-2.07l-2.313-7.103zm11.774 5.54v1.563h-4.465v-7.103h4.414v1.563h-2.79v1.177h2.537v1.542h-2.537v1.259h2.841zm3.313-.771h-.771v2.334h-1.624v-7.103h2.842a2.43 2.43 0 0 1 2.436 2.435c0 .873-.528 1.664-1.31 2.061l1.512 2.607h-1.745l-1.34-2.334zm-.772-1.421h1.218c.446 0 .812-.396.812-.913s-.365-.913-.812-.913h-1.218v1.826zm6.243-3.348v7.103h-1.624v-7.103h1.624zm2.844 1.563v1.369h2.639v1.563h-2.639v2.607h-1.624v-7.103h4.313v1.563h-2.689zm5.279-1.563v7.103h-1.624v-7.103h1.624zm.915 3.551c0-2.09 1.552-3.693 3.693-3.693 1.289 0 2.425.64 3.044 1.644l-1.4.813c-.314-.548-.923-.873-1.644-.873-1.259 0-2.07.842-2.07 2.11s.812 2.111 2.07 2.111c.721 0 1.339-.325 1.644-.873l1.4.812c-.608 1.005-1.745 1.644-3.044 1.644-2.141-.002-3.693-1.604-3.693-3.695zm11.663 2.436h-2.639l-.355 1.116h-1.775l2.415-7.103h2.07l2.415 7.103h-1.776l-.355-1.116zm-.487-1.523l-.832-2.607-.832 2.607h1.664zm7.492-2.901h-1.826v5.54h-1.624v-5.54h-1.826v-1.563h5.276v1.563zm2.338-1.563v7.103h-1.624v-7.103h1.624zm.915 3.551c0-2.09 1.653-3.693 3.693-3.693a3.662 3.662 0 0 1 3.693 3.693c0 2.091-1.654 3.693-3.693 3.693s-3.693-1.602-3.693-3.693zm5.764 0c0-1.269-.914-2.11-2.07-2.11-1.157 0-2.07.842-2.07 2.11s.913 2.111 2.07 2.111c1.156 0 2.07-.842 2.07-2.111zm8.121-3.551v7.103h-1.218l-2.739-3.855v3.855h-1.624v-7.103h1.218l2.74 3.855v-3.855h1.623z" fill="#FFF"/></svg>