<svg xmlns="http://www.w3.org/2000/svg" width="230" height="179.494" viewBox="0.351 304.128 230 179.494"><linearGradient id="a" gradientUnits="userSpaceOnUse" x1="-5160.942" y1="1971.899" x2="-5067.371" y2="1971.899" gradientTransform="rotate(-90 -3278.676 -1445.416)"><stop offset="0" stop-color="#706dcb" stop-opacity="0"/><stop offset="1" stop-color="#706dcb" stop-opacity=".7"/></linearGradient><circle fill="url(#a)" cx="138.638" cy="390.065" r="46.786"/><g fill="#FFF"><path d="M197.561 416.758a7.295 7.295 0 0 0-3.654.987l-16.048-27.447 15.985-27.821a7.272 7.272 0 0 0 3.715 1.033 7.3 7.3 0 0 0 7.295-7.299 7.29 7.29 0 0 0-7.295-7.294 7.286 7.286 0 0 0-7.284 7.122h-31.996l-9.82-17.006-6.173-10.698a7.284 7.284 0 0 0 3.65-6.313 7.294 7.294 0 0 0-7.296-7.291 7.293 7.293 0 0 0-7.296 7.291 7.285 7.285 0 0 0 3.652 6.313l-6.176 10.698-9.82 17.008H87.015a7.296 7.296 0 0 0-14.59.025 7.287 7.287 0 0 0 7.295 7.291c1.328 0 2.582-.36 3.657-.983l16.046 27.925-15.983 27.346a7.236 7.236 0 0 0-3.72-1.028 7.291 7.291 0 0 0-7.296 7.293 7.293 7.293 0 0 0 14.583.167h12.35l19.643.004 9.821 17.01 6.177 10.695a7.286 7.286 0 0 0-3.653 6.313 7.297 7.297 0 0 0 14.593 0 7.296 7.296 0 0 0-3.651-6.313l6.17-10.695 9.825-17.014 19.64.004 12.348-.004a7.295 7.295 0 0 0 7.291 7.273 7.292 7.292 0 0 0 7.295-7.293 7.296 7.296 0 0 0-7.295-7.299zm-41.452 3.556l-1.085 1.881-9.821 17.014-6.182 10.694-.385.674-.385-.674-6.182-10.694-9.818-17.013-1.083-1.88H86.234l.457-.795 5.781-10.021 11.819-19.2-11.817-19.68-5.844-10.126-.399-.69h34.936l1.083-1.882 9.819-17.008 6.181-10.698.389-.672.384.672 6.178 10.698 9.825 17.008 1.083 1.882h34.936l-.461.798-5.783 10.017-11.33 19.681 11.33 19.201 5.848 10.125.396.689-34.936-.001z"/><path d="M126.357 415.516l1.875 3.254 9.823 17.01.614 1.071.619-1.071 9.825-17.01 1.876-3.254a27.728 27.728 0 0 1-12.318 2.865 27.697 27.697 0 0 1-12.314-2.865zm-15.55-23.971l-2.216 3.834-9.817 17.008-.619 1.071h24.695c-7.024-4.844-11.707-12.821-12.043-21.913zm-11.415-24.872h-1.234l.618 1.069 9.816 17.01 2.257 3.901c.605-9.315 5.776-17.383 13.308-21.98H99.392zm69.362 28.706l-2.216-3.836c-.336 9.092-5.025 17.069-12.042 21.915h24.697l-.621-1.073-9.818-17.006zm-29.465-51.028l-.619-1.071-.615 1.071-9.822 17.009-2.573 4.459a27.744 27.744 0 0 1 13.011-3.221 27.77 27.77 0 0 1 13.018 3.221l-2.574-4.459-9.826-17.009zm27.211 44.306l2.255-3.903 9.815-17.012.62-1.069h-25.999c7.526 4.599 12.705 12.668 13.309 21.984z"/></g><g fill="#FFF"><path d="M145.727 385.093c0-1.214-.808-2.092-2.063-2.092h-10.153v4.188h10.153c1.218.001 2.063-.876 2.063-2.096zm-1.384 6.893h-10.832v4.529h10.832c1.352 0 2.229-.948 2.229-2.264 0-1.316-.878-2.265-2.229-2.265z"/><path d="M138.64 367.239c-12.583 0-22.821 10.238-22.821 22.822s10.236 22.821 22.821 22.821c12.582 0 22.819-10.237 22.819-22.821-.001-12.582-10.236-22.822-22.819-22.822zm5.703 34.338h-.817v4.392h-3.991v-4.392h-2.016v4.392h-3.988v-4.388h-7.957v-5.043h2.53V382.99h-2.53v-5.057h7.957v-4.387h3.988v4.387h2.016v-4.387h3.991v4.387h.139c4.123 0 7.467 2.67 7.467 6.759 0 1.957-.777 3.512-2.061 4.628 1.759 1.114 2.905 2.936 2.905 5.335.002 4.191-3.411 6.922-7.633 6.922z"/></g><linearGradient id="b" gradientUnits="userSpaceOnUse" x1="89.72" y1="1892.157" x2="131.283" y2="1892.157" gradientTransform="translate(0 -1552.576)"><stop offset="0" stop-color="#fff" stop-opacity="0"/><stop offset="1" stop-color="#fff"/></linearGradient><path fill="url(#b)" d="M131.239 328.456a1.049 1.049 0 0 0-.765-.726l-11.764-2.837a1.056 1.056 0 0 0-.496 2.052l7.573 1.827c-15.17 3.329-28.091 12.73-36.068 25.523h2.508c7.856-11.947 20.261-20.648 34.731-23.617l-5.915 6.262a1.055 1.055 0 0 0 .768 1.781c.282 0 .563-.112.769-.332l8.413-8.909c.261-.273.353-.662.246-1.024z"/><linearGradient id="c" gradientUnits="userSpaceOnUse" x1="1085.767" y1="-1819.766" x2="1127.329" y2="-1819.766" gradientTransform="rotate(61.608 -1174.336 -1526.207)"><stop offset="0" stop-color="#fff" stop-opacity="0"/><stop offset="1" stop-color="#fff"/></linearGradient><path fill="url(#c)" d="M188.114 353.652c.267-.268.373-.653.274-1.02l-3.097-11.696a1.057 1.057 0 0 0-1.29-.752 1.06 1.06 0 0 0-.751 1.293l1.992 7.529c-10.143-11.761-24.555-18.655-39.603-19.591l1.193 2.207c14.243 1.229 27.795 8.004 37.291 19.319l-8.321-2.223a1.055 1.055 0 0 0-1.291.748c-.075.271-.033.547.09.776.134.247.361.439.656.518l11.842 3.166c.36.097.75-.007 1.015-.274z"/><linearGradient id="d" gradientUnits="userSpaceOnUse" x1="-1591.85" y1="-4335.37" x2="-1550.288" y2="-4335.37" gradientTransform="rotate(121.977 -1997.758 -1481.762)"><stop offset="0" stop-color="#fff" stop-opacity="0"/><stop offset="1" stop-color="#fff"/></linearGradient><path fill="url(#d)" d="M195.331 414.882c.362.101.752 0 1.022-.263l8.638-8.475a1.057 1.057 0 1 0-1.482-1.51l-5.559 5.457c5.21-14.632 4.079-30.571-2.549-44.112l-1.327 2.13c5.97 12.99 6.783 28.119 1.641 41.965l-2.18-8.331a1.061 1.061 0 0 0-1.292-.755 1.07 1.07 0 0 0-.628.463 1.041 1.041 0 0 0-.125.826l3.1 11.855c.095.364.378.65.741.75z"/><linearGradient id="e" gradientUnits="userSpaceOnUse" x1="-5246.239" y1="-3043.019" x2="-5204.679" y2="-3043.019" gradientTransform="rotate(-177.387 -2489.028 -1362.23)"><stop offset="0" stop-color="#fff" stop-opacity="0"/><stop offset="1" stop-color="#fff"/></linearGradient><path fill="url(#e)" d="M145.721 451.238c.091.365.371.654.73.76l11.62 3.37a1.055 1.055 0 0 0 1.31-.719 1.056 1.056 0 0 0-.719-1.311l-7.482-2.17c15.307-2.634 28.64-11.435 37.195-23.852l-2.506-.113c-8.394 11.572-21.18 19.7-35.771 22.008l6.194-5.988a1.056 1.056 0 1 0-1.47-1.515l-8.812 8.516a1.06 1.06 0 0 0-.289 1.014z"/><linearGradient id="f" gradientUnits="userSpaceOnUse" x1="-5991.361" y1="483.061" x2="-5949.8" y2="483.061" gradientTransform="rotate(-117.911 -2943.877 -1368.357)"><stop offset="0" stop-color="#fff" stop-opacity="0"/><stop offset="1" stop-color="#fff"/></linearGradient><path fill="url(#f)" d="M89.484 426.575a1.053 1.053 0 0 0-.283 1.017l2.998 11.722a1.06 1.06 0 0 0 1.286.762c.566-.145.906-.721.762-1.288l-1.929-7.544c10.04 11.847 24.399 18.862 39.437 19.924l-1.175-2.216c-14.232-1.353-27.728-8.237-37.128-19.634l8.303 2.294a1.058 1.058 0 0 0 .563-2.038l-11.811-3.262a1.057 1.057 0 0 0-1.023.263z"/><linearGradient id="g" gradientUnits="userSpaceOnUse" x1="-5846.123" y1="1148.728" x2="-5804.557" y2="1148.728" gradientTransform="scale(-1 1) rotate(-15.237 -5756.032 -20753.589)"><stop offset="0" stop-color="#fff" stop-opacity="0"/><stop offset="1" stop-color="#fff"/></linearGradient><path fill="url(#g)" d="M49.661 380.821c.198-.318.554-.511.93-.5l12.095.354c.58.017 1.041.504 1.024 1.088a1.054 1.054 0 0 1-1.088 1.024l-7.785-.227c13.757 7.198 23.753 19.665 28.093 34.104l-2.422-.659c-4.439-13.589-14.122-25.245-27.301-31.914l4.06 7.597a1.052 1.052 0 0 1-.435 1.429 1.051 1.051 0 0 1-.774.088 1.04 1.04 0 0 1-.654-.521l-5.778-10.806a1.062 1.062 0 0 1 .035-1.057z"/><path d="M128.398 305.493v1.097h2.114v1.251h-2.114v2.088H127.1v-5.687h3.453v1.252l-2.155-.001zm6.015 3.541h-2.112l-.285.895h-1.422l1.934-5.687h1.658l1.934 5.687h-1.424l-.283-.895zm-.39-1.217l-.667-2.088-.664 2.088h1.331zm2.14-.732c0-1.674 1.242-2.957 2.959-2.957 1.028 0 1.939.512 2.436 1.316l-1.121.651c-.254-.439-.739-.7-1.316-.7-1.01 0-1.659.675-1.659 1.69s.65 1.69 1.659 1.69c.577 0 1.07-.26 1.316-.698l1.121.649c-.486.805-1.396 1.317-2.436 1.317-1.717 0-2.959-1.285-2.959-2.958zm9.826-1.592h-1.462v4.436h-1.301v-4.436h-1.462v-1.251h4.226l-.001 1.251zm.123 3.145l1.122-.651c.204.47.554.787 1.194.787.618 0 .771-.243.771-.463 0-.349-.323-.487-1.177-.723-.847-.235-1.675-.642-1.675-1.729 0-1.096.926-1.73 1.909-1.73.935 0 1.667.445 2.081 1.283l-1.096.644c-.195-.408-.464-.658-.985-.658-.406 0-.61.202-.61.432 0 .26.14.438 1.024.706.86.26 1.827.562 1.827 1.763 0 1.096-.878 1.747-2.112 1.747-1.193-.003-1.955-.571-2.273-1.408zm47.77 33.517a2.93 2.93 0 0 1 2.957-2.957 2.933 2.933 0 0 1 2.959 2.957 2.933 2.933 0 0 1-2.959 2.958 2.933 2.933 0 0 1-2.957-2.958zm4.614 0c0-1.015-.731-1.69-1.659-1.69-.925 0-1.657.674-1.657 1.69s.732 1.69 1.657 1.69c.928 0 1.659-.675 1.659-1.69zm3.333-1.591v1.094h2.113v1.253h-2.113V345h-1.298v-5.688h3.451v1.252h-2.153zm4.228 0v1.094h2.113v1.253h-2.113V345h-1.299v-5.688h3.453v1.252h-2.154zm4.227-1.252V345h-1.3v-5.688h1.3zm.733 2.843c0-1.675 1.244-2.957 2.958-2.957 1.032 0 1.941.511 2.436 1.315l-1.121.652c-.252-.44-.739-.699-1.316-.699-1.006 0-1.657.674-1.657 1.69s.651 1.69 1.657 1.69c.577 0 1.073-.26 1.316-.697l1.121.648c-.486.804-1.396 1.316-2.436 1.316-1.715 0-2.958-1.285-2.958-2.958zm9.582 1.592v1.252h-3.574v-5.688h3.534v1.252h-2.232v.942h2.028v1.234h-2.028v1.007h2.272v.001zm2.65-.617h-.619v1.869h-1.299v-5.688h2.274c1.082 0 1.949.868 1.949 1.949 0 .698-.42 1.332-1.047 1.65l1.21 2.088h-1.396l-1.072-1.868zm-.618-1.139h.976c.357 0 .65-.316.65-.73 0-.413-.292-.729-.65-.729h-.976v1.459zm3.334 1.715l1.121-.65c.205.472.555.788 1.196.788.616 0 .771-.245.771-.464 0-.35-.325-.487-1.177-.724-.848-.235-1.675-.641-1.675-1.729 0-1.096.925-1.729 1.909-1.729.934 0 1.664.447 2.08 1.284l-1.097.641c-.195-.405-.462-.656-.983-.656-.406 0-.611.202-.611.432 0 .258.141.438 1.023.707.862.258 1.828.559 1.828 1.761 0 1.097-.879 1.747-2.112 1.747-1.192-.001-1.957-.571-2.273-1.408zm-32.326 92.823h1.421l1.26 4.183 1.258-4.183H199l-1.853 5.687h-1.658l-1.85-5.687zm9.425 4.435v1.252h-3.575v-5.687h3.535v1.25h-2.233v.942h2.029v1.234h-2.029v1.009h2.273zm2.65-.616h-.616v1.867h-1.301v-5.687h2.275c1.08 0 1.949.87 1.949 1.948 0 .699-.422 1.332-1.048 1.649l1.212 2.09h-1.398l-1.073-1.867zm-.616-1.14h.975c.358 0 .651-.315.651-.73 0-.413-.291-.73-.651-.73h-.975v1.46zm8.737.164c0 1.608-1.194 2.843-2.764 2.843h-2.275v-5.687h2.275c1.57.001 2.764 1.236 2.764 2.844zm-1.252 0c0-.976-.617-1.593-1.511-1.593h-.976v3.186h.976c.894-.001 1.511-.617 1.511-1.593zm3.284-2.843v5.687h-1.299v-5.687h1.299zm.734 2.843c0-1.674 1.242-2.957 2.957-2.957 1.033 0 1.942.512 2.437 1.315l-1.12.65c-.252-.439-.74-.699-1.318-.699-1.007 0-1.656.676-1.656 1.692 0 1.014.649 1.688 1.656 1.688.578 0 1.074-.259 1.318-.697l1.12.65c-.485.805-1.396 1.316-2.437 1.316-1.715-.001-2.957-1.284-2.957-2.958zm9.824-1.592h-1.46v4.437h-1.3v-4.437h-1.462v-1.251h4.224l-.002 1.251zM46.713 332.9v5.688h-1.3V332.9h1.3zm5.444 0v5.688h-.974l-2.195-3.089v3.089h-1.3V332.9h.975l2.195 3.086V332.9h1.299zm4.796 1.25h-1.46v4.438h-1.301v-4.438h-1.46v-1.25h4.224l-.003 1.25zm4.147 3.184v1.253h-3.575V332.9h3.534v1.251h-2.232v.942h2.03v1.235h-2.03v1.007l2.273-.001zm2.651-.616h-.619v1.869h-1.299V332.9h2.274c1.082 0 1.95.868 1.95 1.949 0 .698-.422 1.333-1.049 1.649l1.21 2.089h-1.396l-1.071-1.869zm-.619-1.139h.975c.358 0 .652-.318.652-.73 0-.413-.291-.731-.652-.731h-.975v1.461zM71.3 332.9v5.688h-.975l-2.194-3.089v3.089h-1.298V332.9h.975L70 335.986V332.9h1.3zm4.553 4.434v1.253h-3.574V332.9h3.535v1.251h-2.233v.942h2.031v1.235h-2.031v1.007l2.272-.001zm4.552-3.184h-1.461v4.438h-1.3v-4.438h-1.461v-1.25h4.225l-.003 1.25zm-23.45 9.062v-3.852h1.3v3.735c0 .432.204.796.895.796.688 0 .892-.364.892-.796v-3.735h1.299v3.852c0 1.219-.942 1.948-2.194 1.948-1.249 0-2.192-.729-2.192-1.948zm5.04.544l1.122-.65c.203.471.552.786 1.193.786.619 0 .773-.243.773-.463 0-.35-.324-.486-1.178-.722-.845-.234-1.674-.643-1.674-1.73 0-1.097.926-1.73 1.91-1.73.935 0 1.664.449 2.079 1.285l-1.095.642c-.195-.406-.463-.658-.984-.658-.407 0-.609.202-.609.431 0 .26.138.438 1.023.706.86.261 1.826.562 1.826 1.763 0 1.096-.876 1.746-2.112 1.746-1.193-.002-1.956-.57-2.274-1.406zm8.573.04v1.252h-3.574v-5.686h3.535v1.251h-2.231v.942h2.029v1.235h-2.029v1.007h2.271v-.001zm2.652-.616h-.618v1.866h-1.298v-5.686h2.273c1.082 0 1.951.87 1.951 1.949 0 .699-.422 1.333-1.05 1.649l1.211 2.087h-1.397l-1.072-1.865zm-.617-1.138h.975c.358 0 .65-.318.65-.732 0-.413-.291-.73-.65-.73h-.975v1.462zm3.334 1.714l1.122-.65c.202.471.552.786 1.192.786.619 0 .773-.243.773-.463 0-.35-.325-.486-1.178-.722-.845-.234-1.674-.643-1.674-1.73 0-1.097.926-1.73 1.91-1.73.934 0 1.665.449 2.079 1.285l-1.095.642c-.196-.406-.463-.658-.984-.658-.407 0-.609.202-.609.431 0 .26.138.438 1.022.706.86.261 1.826.562 1.826 1.763 0 1.096-.876 1.746-2.112 1.746-1.191-.002-1.956-.57-2.272-1.406zm-25.153 97.567h-2.112l-.285.892h-1.422l1.934-5.687h1.657l1.933 5.687h-1.421l-.284-.892zm-.39-1.219l-.667-2.09-.666 2.09h1.333zm4.504.244h-.62v1.867H52.98v-5.687h2.274c1.081 0 1.951.87 1.951 1.948 0 .699-.422 1.332-1.05 1.649l1.213 2.09h-1.399l-1.071-1.867zm-.619-1.14h.975c.358 0 .652-.315.652-.73 0-.413-.292-.73-.652-.73h-.975v1.46zm3.376.164c0-1.674 1.242-2.957 2.957-2.957 1.032 0 1.941.512 2.437 1.315l-1.122.65c-.251-.439-.738-.699-1.316-.699-1.007 0-1.657.676-1.657 1.692 0 1.014.649 1.688 1.657 1.688.579 0 1.073-.259 1.316-.697l1.122.65c-.487.805-1.396 1.316-2.437 1.316-1.716-.001-2.957-1.284-2.957-2.958zm10.393-2.843v5.687h-1.299v-2.26h-1.788v2.26h-1.3v-5.687h1.3v2.177h1.788v-2.177h1.299zm2.279 0v5.687h-1.3v-5.687h1.3zm.489 0h1.421l1.259 4.183 1.259-4.183h1.422l-1.852 5.687h-1.66l-1.849-5.687zm9.425 4.435v1.252h-3.575v-5.687h3.535v1.25h-2.234v.942h2.03v1.234h-2.03v1.009h2.274zm33.108 35.214h-2.122l-.286.897h-1.427l1.941-5.711h1.664l1.942 5.711h-1.427l-.285-.897zm-.392-1.226l-.669-2.096-.669 2.096h1.338zm5.943.867v1.257h-3.347v-5.711h1.306v4.454h2.041zm5.9-1.437c0 1.747-1.216 2.806-2.814 2.806-1.794 0-3.084-1.322-3.084-2.961a2.963 2.963 0 0 1 2.995-2.979c1.092 0 2.016.538 2.496 1.306l-1.11.637c-.236-.376-.75-.67-1.394-.67-.963 0-1.682.71-1.682 1.714 0 .972.686 1.682 1.794 1.682.759 0 1.257-.335 1.461-.883h-1.525v-1.141h2.863v.489zm.494-.163c0-1.681 1.33-2.97 2.97-2.97a2.945 2.945 0 0 1 2.969 2.97 2.943 2.943 0 0 1-2.969 2.969 2.944 2.944 0 0 1-2.97-2.969zm4.635 0c0-1.021-.734-1.697-1.664-1.697s-1.664.677-1.664 1.697c0 1.019.734 1.697 1.664 1.697s1.664-.677 1.664-1.697zm3.969.979h-.621v1.877h-1.306v-5.711h2.285c1.086 0 1.96.872 1.96 1.956 0 .702-.426 1.339-1.055 1.658l1.217 2.097h-1.403l-1.077-1.877zm-.621-1.143h.979c.359 0 .653-.317.653-.734 0-.414-.293-.733-.653-.733h-.979v1.467zm5.022-2.69v5.711h-1.307v-5.711h1.307zm4.814 1.255h-1.468v4.455h-1.306v-4.455h-1.469v-1.256h4.242v1.256h.001zm4.981-1.255v5.711h-1.306v-2.27h-1.795v2.27h-1.306v-5.711h1.306v2.186h1.795v-2.186h1.306zm6.693 5.71h-1.306v-3.321l-1.477 2.424h-.146l-1.478-2.424v3.321h-1.307v-5.711h1.307l1.551 2.536 1.55-2.536h1.306v5.711zm2.779-2.856a2.944 2.944 0 0 1 2.97-2.97c1.64 0 2.969 1.29 2.969 2.97a2.943 2.943 0 0 1-2.969 2.969 2.944 2.944 0 0 1-2.97-2.969zm4.634 0c0-1.021-.734-1.697-1.663-1.697-.931 0-1.665.677-1.665 1.697 0 1.019.734 1.697 1.665 1.697.929 0 1.663-.677 1.663-1.697zm3.35-1.599v1.101h2.121v1.257h-2.121v2.097h-1.307v-5.711h3.469v1.256h-2.162zm-72.156 10.888h-1.306v-3.321l-1.476 2.423h-.147l-1.478-2.423v3.321h-1.306v-5.712h1.306l1.55 2.536 1.551-2.536h1.306v5.712zm.941-1.845v-3.867h1.306v3.753c0 .433.204.8.897.8.692 0 .897-.367.897-.8v-3.753h1.305v3.867c0 1.224-.946 1.959-2.202 1.959s-2.203-.735-2.203-1.959zm8.694.587v1.258h-3.346v-5.712h1.306v4.454h2.04zm3.836-3.197h-1.468v4.455h-1.306v-4.455h-1.468v-1.257h4.242v1.257zm1.879-1.257v5.712h-1.305v-5.712h1.305zm.98 2.684h3.101v1.175h-3.101v-1.175zm7.428 1.77v1.258h-3.345v-5.712h1.305v4.454h2.04zm4.163 0v1.258h-3.59v-5.712h3.549v1.257h-2.244v.946h2.041v1.24h-2.041v1.012l2.285-.001zm.248-4.454h1.428l1.265 4.202 1.265-4.202h1.428l-1.859 5.712h-1.665l-1.862-5.712zm9.467 4.454v1.258h-3.59v-5.712h3.549v1.257h-2.243v.946h2.04v1.24h-2.04v1.012l2.284-.001zm4.083 0v1.258h-3.345v-5.712h1.306v4.454h2.039zm2.125-4.454h1.427l1.266 4.202 1.263-4.202h1.429l-1.86 5.712H139.1l-1.862-5.712zm9.467 4.454v1.258h-3.59v-5.712h3.549v1.257h-2.243v.946h2.041v1.24h-2.041v1.012l2.284-.001zm2.664-.62h-.619v1.878h-1.307v-5.712h2.285c1.086 0 1.959.873 1.959 1.957 0 .703-.424 1.339-1.053 1.658l1.215 2.097h-1.402l-1.078-1.878zm-.62-1.141h.979c.358 0 .653-.318.653-.735 0-.414-.294-.733-.653-.733h-.979v1.468zm5.02-2.693v5.712h-1.306v-5.712h1.306zm2.287 1.257v1.101h2.121v1.257h-2.121v2.097h-1.306v-5.712h3.467v1.256h-2.161v.001zm4.244-1.257v5.712h-1.306v-5.712h1.306zm.736 2.855c0-1.68 1.247-2.969 2.969-2.969 1.037 0 1.95.515 2.447 1.322l-1.124.653c-.254-.44-.743-.702-1.323-.702-1.012 0-1.664.678-1.664 1.697 0 1.019.652 1.697 1.664 1.697.58 0 1.076-.262 1.323-.702l1.124.652c-.487.809-1.403 1.322-2.447 1.322-1.722 0-2.969-1.289-2.969-2.97zm9.378 1.959h-2.123l-.284.898h-1.428l1.942-5.712h1.664l1.941 5.712h-1.428l-.284-.898zm-.392-1.225l-.669-2.096-.669 2.096h1.338zm6.025-2.332h-1.469v4.455h-1.306v-4.455h-1.469v-1.257h4.243v1.257h.001zm1.88-1.257v5.712h-1.307v-5.712h1.307zm.735 2.855a2.944 2.944 0 0 1 2.97-2.969c1.64 0 2.969 1.29 2.969 2.969 0 1.682-1.329 2.971-2.969 2.971s-2.97-1.29-2.97-2.971zm4.634 0c0-1.02-.733-1.696-1.663-1.696s-1.664.678-1.664 1.696c0 1.02.734 1.698 1.664 1.698s1.663-.678 1.663-1.698zm6.531-2.855v5.712h-.979l-2.202-3.101v3.101h-1.307v-5.712h.979l2.203 3.1v-3.1h1.306z" fill="#FFF"/><path fill-rule="evenodd" clip-rule="evenodd" fill="#FFF" d="M43.863 372.77c-.177 6.913-1.203 13.667-3.791 20.132-3.599 8.99-9.699 15.812-17.96 20.755-8.261-4.943-14.36-11.765-17.961-20.755C1.563 386.437.539 379.683.363 372.77c-.047-1.781-.03-1.782 1.767-1.898 5.419-.353 10.533-1.79 15.333-4.336a43.255 43.255 0 0 0 4.65-2.882 43.315 43.315 0 0 0 4.65 2.882c4.798 2.546 9.912 3.983 15.331 4.336 1.796.116 1.813.117 1.769 1.898z"/><path d="M7.711 380.558H9.12l1.013 4.105 1.132-4.105h1.088l1.132 4.105 1.013-4.105h1.409l-1.618 5.865h-1.524l-.955-3.461-.957 3.461H9.328l-1.617-5.865zm11.883 4.943h-2.178l-.294.922h-1.467l1.994-5.865h1.711l1.994 5.865h-1.467l-.293-.922zm-.402-1.256l-.687-2.155-.688 2.155h1.375zm6.186-2.398h-1.509v4.576h-1.341v-4.576H21.02v-1.289h4.358v1.289zm0 1.643c0-1.727 1.282-3.051 3.05-3.051 1.065 0 2.004.527 2.515 1.357l-1.156.671c-.26-.453-.763-.722-1.358-.722-1.038 0-1.708.696-1.708 1.744 0 1.047.67 1.742 1.708 1.742.595 0 1.107-.269 1.358-.721l1.156.671c-.503.829-1.442 1.358-2.515 1.358-1.768.002-3.05-1.324-3.05-3.049zm10.719-2.932v5.865h-1.34v-2.33h-1.844v2.33h-1.341v-5.865h1.341v2.246h1.844v-2.246h1.34zm-17.844 10.614c0 1.66-1.231 2.934-2.849 2.934h-2.346v-5.865h2.346c1.618-.001 2.849 1.273 2.849 2.931zm-1.289 0c0-1.004-.637-1.642-1.56-1.642h-1.005v3.284h1.005c.923.001 1.56-.635 1.56-1.642zm1.793 0a3.024 3.024 0 0 1 3.05-3.05 3.024 3.024 0 0 1 3.051 3.05 3.025 3.025 0 0 1-3.051 3.052 3.026 3.026 0 0 1-3.05-3.052zm4.761 0c0-1.047-.754-1.743-1.71-1.743-.955 0-1.708.696-1.708 1.743 0 1.048.753 1.743 1.708 1.743.956 0 1.71-.695 1.71-1.743zm7.902.168c0 1.794-1.248 2.884-2.891 2.884-1.844 0-3.167-1.358-3.167-3.042a3.042 3.042 0 0 1 3.075-3.06c1.125 0 2.07.553 2.564 1.342l-1.139.653c-.244-.385-.771-.688-1.434-.688-.988 0-1.726.73-1.726 1.761 0 .997.703 1.726 1.843 1.726.779 0 1.291-.344 1.5-.904h-1.567v-1.173h2.941v.501z" fill="#8F8DCE"/></svg>