<svg xmlns="http://www.w3.org/2000/svg" width="31.156" height="25.575" viewBox="-160.26 -61.434 31.156 25.575"><linearGradient id="a" gradientUnits="userSpaceOnUse" x1="687.447" y1="1455.854" x2="713.022" y2="1455.854" gradientTransform="rotate(90 1030.027 281.145)"><stop offset="0" stop-color="#a14b8a"/><stop offset="1" stop-color="#4b48bf"/></linearGradient><path fill="url(#a)" d="M-160.26-38.681c3.402.155 6.514-.629 9.348-2.733-.455-.06-.805-.087-1.146-.157-2.213-.455-3.779-1.72-4.703-3.784-.164-.369-.146-.499.322-.438.791.099 1.58.025 2.51-.256-2.047-.491-3.529-1.52-4.48-3.247a6.155 6.155 0 0 1-.77-3.135c.916.423 1.801.769 2.811.757-.076-.225-.268-.285-.402-.393-2.344-1.861-3.08-5.094-1.777-7.754.186-.375.289-.44.604-.088 3.316 3.711 7.463 5.803 12.41 6.336.377.041.502-.01.445-.438-.369-2.826.977-5.423 3.436-6.693 2.479-1.278 5.383-.856 7.482 1.104.203.19.383.221.639.167a10.724 10.724 0 0 0 3.102-1.161c.141-.078.258-.222.445-.207-.186 1.07-.955 2.104-2.482 3.331.395.124.738-.047 1.082-.115.385-.075.762-.188 1.135-.307.354-.111.699-.253 1.148-.418-.111.198-.166.326-.242.439-.656.947-1.428 1.793-2.373 2.45-.381.266-.469.55-.465.974.041 3.588-.855 6.926-2.775 9.961-5.464 8.644-16.521 11.197-25.304 5.805z"/></svg>