<svg xmlns="http://www.w3.org/2000/svg" width="42.364" height="35.527" viewBox="-130.588 -87.605 42.364 35.527"><linearGradient id="a" gradientUnits="userSpaceOnUse" x1="661.276" y1="1420.579" x2="696.803" y2="1420.579" gradientTransform="rotate(90 1030.027 281.145)"><stop offset="0" stop-color="#a14b8a"/><stop offset="1" stop-color="#4b48bf"/></linearGradient><path fill="url(#a)" d="M-118.643-66.998c-.01-1.613 1.297-2.944 2.875-2.929 1.551.019 2.865 1.345 2.861 2.897a2.867 2.867 0 0 1-2.863 2.864c-1.605.004-2.863-1.236-2.873-2.832zm15.639 2.833c-1.604.002-2.859-1.241-2.871-2.834-.006-1.612 1.303-2.946 2.879-2.927 1.566.021 2.85 1.33 2.844 2.902a2.84 2.84 0 0 1-2.852 2.859zm-6.533 7.797c-1.525-.322-3.08-.551-4.57-1.001-.762-.229-1.426-.817-2.084-1.312-.381-.282-.391-.739-.076-1.106.316-.374.752-.424 1.107-.097 1.285 1.189 2.871 1.595 4.531 1.614a24.31 24.31 0 0 0 4.531-.356c.797-.142 1.541-.683 2.25-1.135.467-.295.857-.479 1.289-.046.371.369.273.862-.236 1.314-1.336 1.194-2.977 1.626-4.697 1.822-.666.078-1.34.092-2.006.138-.014.054-.025.109-.039.165zm-18.854-9.229c-.227 2.744.688 5.092 2.441 7.146 1.25 1.468 2.75 2.586 4.4 3.49l.262.141a24.711 24.711 0 0 0 4.282 1.717c4.48 1.213 8.887 1.346 13.342.417.115-.026.234-.055.361-.085.068-.014.137-.035.205-.049 1.766-.441 4.27-1.283 6.752-2.824.238-.151.475-.299.703-.463 3.26-2.328 5.365-5.326 5.047-9.576-.016-.189.164-.46.332-.59 2.203-1.709 2.691-4.596 1.119-6.773-1.566-2.166-4.441-2.602-6.779-1.053-.188.12-.555.12-.771.027-1.135-.514-2.223-1.137-3.371-1.608-2.59-1.058-5.324-1.497-8.178-1.677.834-2.624 1.646-5.204 2.484-7.84 2.082.494 4.072.986 6.074 1.43.48.105.676.28.748.786.32 2.265 2.613 3.765 4.822 3.203 1.766-.448 2.977-1.95 3.033-3.767.055-1.73-1.127-3.369-2.805-3.881a3.893 3.893 0 0 0-4.51 1.701c-.25.409-.465.497-.934.379-2.105-.527-4.223-1.003-6.336-1.498-1.018-.239-1.26-.104-1.574.889-.85 2.686-1.695 5.373-2.541 8.058-.096.318-.186.552-.629.564-4.346.125-8.445 1.161-12.178 3.444-.078-.045-.137-.078-.195-.119-2.328-1.627-5.164-1.273-6.799.853-1.639 2.122-1.238 4.95.924 6.799.181.154.293.511.269.759zm33.344-20.36a2.333 2.333 0 0 1 2.338 2.333 2.353 2.353 0 0 1-2.352 2.333 2.356 2.356 0 0 1-2.336-2.345 2.336 2.336 0 0 1 2.35-2.321zm4.408 13.642c1.146 1.349 1 3.324-.449 4.574-.801-2.046-2.098-3.663-3.748-5.005 1-1.036 3.131-.822 4.197.431zm-25.701-2.515c2.238-.635 4.525-.908 6.85-.896 3.988.017 7.807.771 11.338 2.707 1.803.99 3.385 2.253 4.555 3.972 1.887 2.767 1.887 5.94-.025 8.691-1.791 2.569-4.328 4.157-7.215 5.15-6.676 2.292-13.256 2.097-19.652-1.041-1.717-.84-3.221-1.993-4.424-3.505-2.594-3.266-2.514-7.096.25-10.232 2.231-2.539 5.138-3.942 8.323-4.846zm-11.943 2.645c.992-1.301 3.043-1.636 4.219-.643-1.646 1.345-2.975 2.937-3.777 4.928-1.29-1.002-1.47-2.939-.442-4.285z"/></svg>