<svg xmlns="http://www.w3.org/2000/svg" width="115.295" height="25.742" viewBox="-7.201 0.01 115.295 25.742"><linearGradient id="a" gradientUnits="userSpaceOnUse" x1="-377.637" y1="405.335" x2="-351.896" y2="405.335" gradientTransform="rotate(-90 -353.386 1.501)"><stop offset="0" stop-color="#4b48bf"/><stop offset="1" stop-color="#a14b8a"/></linearGradient><path fill-rule="evenodd" clip-rule="evenodd" fill="url(#a)" d="M11.518 25.746c-4.136.021-7.977-.071-11.811-.351-.841-.062-1.684-.143-2.512-.321-2.005-.432-3.25-1.651-3.704-3.644-.51-2.238-.603-4.526-.665-6.811-.083-3.077.013-6.147.445-9.2.451-3.183 1.947-4.62 5.156-4.93C3.734-.021 9.056-.019 14.378.032c2.747.026 5.492.113 8.232.333.765.062 1.533.131 2.289.264 2.387.419 3.735 1.845 4.131 4.378.551 3.543.646 7.109.48 10.686-.087 1.862-.193 3.723-.581 5.551-.48 2.271-1.935 3.608-4.24 3.926-2.306.318-4.628.4-6.952.48-2.17.077-4.341.119-6.219.096zm5.584-12.865L7.511 7.346v11.071c3.219-1.859 6.378-3.683 9.591-5.536zm73.114-3.446c.955-1.394 2.079-2.102 3.646-1.96 1.154.104 1.916.701 2.346 1.757.494 1.214.594 2.5.631 3.786.067 2.417.171 4.838-.181 7.248a7.65 7.65 0 0 1-.529 1.935c-.973 2.244-4.051 2.655-5.605.747-.131-.162-.251-.332-.406-.537-.034.102-.061.164-.077.229-.11.407-.096.985-.36 1.176-.298.212-.847.095-1.284.08-.551-.019-1.285.248-1.599-.108-.269-.308-.08-1.023-.08-1.56-.002-6.862.005-13.724-.015-20.586-.001-.516.127-.648.63-.62a25.7 25.7 0 0 0 2.42.002c.387-.014.476.112.473.481-.016 2.518-.009 5.036-.009 7.554l-.001.376zm0 6.606v4.095c0 .729.377 1.203 1.064 1.338.754.149 1.289-.129 1.541-.859.13-.378.213-.78.253-1.179.215-2.107.132-4.224.088-6.335-.015-.761-.046-1.541-.335-2.269-.31-.782-1.033-1.013-1.729-.535-.547.377-.885.894-.884 1.592.006 1.383.002 2.767.002 4.152zm-27.236 7.44c.037.278.109.444.457.43a28.65 28.65 0 0 1 2.134-.003c.317.01.38-.107.38-.399-.008-5.115-.01-10.231.001-15.346.001-.354-.141-.409-.443-.404-.884.015-1.77.036-2.652-.006-.486-.023-.599.122-.597.598.021 3.904.013 7.807.013 11.711-.001.777-.504 1.373-1.28 1.514-.55.1-.944-.123-1.115-.659-.124-.387-.146-.789-.146-1.195.004-3.808-.005-7.616.012-11.424.002-.422-.085-.565-.532-.544-.863.04-1.731.04-2.595 0-.468-.021-.568.132-.567.578.019 3.903.005 7.808.019 11.712.001.515.07 1.035.161 1.544.382 2.134 1.784 2.911 4.01 2.452 1.154-.236 1.878-1.054 2.496-2.136.093.602.177 1.089.244 1.577zm18.637.095c.031.277.142.338.4.332a32.305 32.305 0 0 1 2.134.002c.354.014.398-.128.397-.432-.009-5.096-.01-10.192.004-15.287 0-.378-.129-.442-.465-.434-.884.021-1.771.032-2.653-.003-.448-.018-.579.102-.577.567.021 3.903.012 7.807.012 11.709 0 .785-.379 1.288-1.131 1.506-.646.188-1.112-.057-1.276-.703a4.81 4.81 0 0 1-.134-1.199c.006-3.788-.003-7.576.012-11.363.001-.396-.094-.532-.505-.517-.864.032-1.732.036-2.596 0-.456-.02-.578.115-.576.571.02 3.884.008 7.768.014 11.651.002.596.047 1.192.183 1.774.274 1.188.871 2.088 2.151 2.355 1.59.329 3.041-.27 3.972-1.613.102-.146.132-.358.382-.443.088.52.194 1.02.252 1.527zm-27.405-7.722c.009 1.633.031 3.268-.362 4.871-.563 2.304-1.953 3.41-4.32 3.423-.519.002-1.045.021-1.554-.056-1.914-.292-3.021-1.346-3.463-3.281-.135-.596-.254-1.208-.279-1.816-.1-2.457-.248-4.917.152-7.36.494-3.009 2.283-4.399 5.318-4.177 2.475.182 3.773 1.402 4.254 3.975.274 1.465.261 2.943.254 4.421zm-3.71-.003c0-1.172.007-2.346-.004-3.518a4.889 4.889 0 0 0-.261-1.528c-.171-.506-.522-.826-1.059-.827-.513 0-.854.311-1.009.799-.086.273-.183.552-.201.834a60.16 60.16 0 0 0 .003 8.523c.074 1 .515 1.519 1.165 1.55.678.033 1.094-.46 1.266-1.516.234-1.433.059-2.878.1-4.317zm-11.505-3.526c-.572-3.349-1.386-6.646-2.054-9.975-.08-.393-.206-.539-.626-.521-.863.038-1.73.037-2.594.001-.458-.019-.534.086-.409.529a1134.59 1134.59 0 0 1 3.312 11.912c.293 1.085.734 2.136.712 3.302-.037 1.961-.003 3.922-.018 5.882-.003.34.063.469.436.456.903-.03 1.808-.031 2.709 0 .391.014.471-.115.469-.48-.018-2.057-.006-4.113-.013-6.17a3.454 3.454 0 0 1 .128-.965 2598.17 2598.17 0 0 0 2.045-7.25c.668-2.378 1.327-4.758 2.01-7.205-1.079 0-2.111.015-3.144-.008-.371-.008-.517.09-.602.481-.746 3.48-1.578 6.941-2.223 10.573-.067-.27-.113-.414-.138-.562zm59.45 3.526c-.003-1.633-.043-3.266.35-4.872.672-2.748 2.287-3.516 4.789-3.518.364 0 .729.039 1.091.093 1.678.251 2.657 1.259 3.055 2.874.338 1.374.372 2.774.353 4.18-.007.655-.025 1.31.008 1.962.02.396-.087.521-.501.515-1.653-.024-3.309.016-4.96-.025-.534-.013-.635.158-.614.642.04.959-.02 1.924.176 2.87.162.781.513 1.08 1.191 1.078.685-.003 1.072-.313 1.235-1.045a5.75 5.75 0 0 0 .158-1.194c.002-.369.092-.508.485-.473.764.07 1.532.104 2.299.133.315.011.418.129.433.449.129 2.788-1.403 4.487-4.188 4.622-.537.025-1.076.028-1.611-.053-1.836-.276-2.867-1.407-3.337-3.142-.453-1.675-.421-3.386-.412-5.096zm3.58-2.95c0 .597.007 1.097-.003 1.595-.004.245.038.397.34.39.651-.018 1.305-.009 1.956-.003.204.002.325-.041.321-.279-.017-1.206.067-2.418-.166-3.611-.144-.737-.52-1.056-1.15-1.054-.642.003-.969.313-1.142 1.062-.152.659-.087 1.334-.156 1.9zM68.61 23.433c-.002.369.083.492.468.479a28.982 28.982 0 0 1 2.536.002c.482.025.596-.11.594-.591-.02-5.997-.007-11.995-.021-17.992-.001-.434.084-.599.557-.577.882.042 1.769.003 2.652.018.28.004.415-.045.404-.371a34.795 34.795 0 0 1 0-2.191c.011-.323-.12-.373-.402-.373-3.325.008-6.65.011-9.976-.002-.341-.001-.415.116-.407.428.021.692.03 1.385-.002 2.076-.018.377.123.443.46.435.883-.021 1.768.016 2.651-.017.413-.015.506.116.503.513-.016 2.999-.01 5.997-.01 8.996 0 3.054.007 6.11-.007 9.167z"/></svg>