<svg xmlns="http://www.w3.org/2000/svg" width="25.764" height="25.755" viewBox="-158.032 -142.713 25.764 25.755"><linearGradient id="a" gradientUnits="userSpaceOnUse" x1="606.168" y1="1456.322" x2="631.923" y2="1456.322" gradientTransform="rotate(90 1030.027 281.145)"><stop offset="0" stop-color="#a14b8a"/><stop offset="1" stop-color="#4b48bf"/></linearGradient><path fill="url(#a)" d="M-132.269-129.883c.012 7.26-5.893 12.936-12.861 12.925-7.115-.009-12.898-5.762-12.902-12.856-.002-7.119 5.742-12.885 12.85-12.898 7.126-.016 12.9 5.72 12.913 12.829zm-24.634.034c-.004 6.513 5.371 11.75 11.746 11.745 6.467-.006 11.742-5.248 11.75-11.694.008-6.497-5.264-11.815-11.734-11.787-6.573.028-11.756 5.368-11.762 11.736zm2.537-.037c-.063-4.549 3.467-8.604 8.008-9.104 2.965-.326 5.609.455 7.746 2.613 1.818 1.837 2.729 4.072 2.713 6.661-.029 5.05-4.25 9.173-9.328 9.13-5.086-.041-9.167-4.191-9.139-9.3zm13.064-.532c1.035-.673 1.406-1.58 1.17-2.67-.219-1.02-1.059-1.451-1.947-1.768a4.212 4.212 0 0 0-.986-.219c-.416-.041-.602-.201-.564-.644.037-.432-.014-.87.016-1.304.029-.396-.139-.485-.504-.491-.9-.018-.898-.037-.898.884 0 .266-.004.531 0 .798.008.343.066.651-.482.655-.535.006-.594-.232-.564-.653.021-.36-.035-.731.014-1.085.074-.588-.25-.616-.689-.599-.395.016-.795-.07-.719.565.051.43-.008.871.014 1.305.02.351-.125.461-.465.451a49.2 49.2 0 0 0-1.959-.003c-.18.003-.383-.061-.484.196-.279.703.064 1.232.822 1.24.908.012 1.004.104 1.004.993.004 1.911.004 3.821 0 5.731 0 .916-.08.984-.99 1.014-.238.006-.549-.139-.689.217-.301.771.025 1.278.824 1.279h.291c1.633 0 1.654 0 1.631 1.659-.008.519.096.708.666.714.611.004.822-.183.742-.775-.037-.261.006-.531-.012-.797-.023-.402-.002-.679.553-.668.535.011.506.299.494.652-.008.342.035.684-.01 1.016-.074.565.26.576.656.551.359-.021.811.145.758-.524-.043-.554-.195-1.241.063-1.635.291-.448 1.057-.212 1.609-.328 1.482-.309 2.412-1.248 2.57-2.663.171-1.539-.318-2.348-1.935-3.094zm-4.756 2.676c0-1.571 0-1.579 1.578-1.559.408.004.824.019 1.217.112.613.15 1.131.438 1.164 1.187.037.784-.322 1.381-1.039 1.643-.863.317-1.768.158-2.654.183-.285.009-.266-.215-.266-.408-.002-.387 0-.773 0-1.158zm0-4.527c.07-.404-.236-1.14.125-1.291.639-.27 1.42-.154 2.121.048 1.063.308 1.379 1.45.648 2.284-.244.282-.553.459-.934.484-.168.012-.336.004-.504.004-1.456.003-1.456.003-1.456-1.529z"/></svg>