<svg xmlns="http://www.w3.org/2000/svg" width="25.752" height="25.752" viewBox="-95.271 -94.761 25.752 25.752"><linearGradient id="a" gradientUnits="userSpaceOnUse" x1="654.12" y1="1393.567" x2="679.872" y2="1393.567" gradientTransform="rotate(90 1030.027 281.145)"><stop offset="0" stop-color="#a14b8a"/><stop offset="1" stop-color="#4b48bf"/></linearGradient><path fill="url(#a)" d="M-95.271-72.877v-18.018c.023-.092.051-.182.072-.273.408-1.761 1.48-2.904 3.201-3.444.195-.062.396-.099.596-.149h18.016c.053.016.104.036.154.047 1.85.392 3.045 1.494 3.584 3.305.051.171.088.344.129.516v18.018c-.018.065-.039.129-.053.195-.402 1.82-1.494 3.001-3.279 3.539-.176.053-.357.09-.535.133h-4.977c-.008-.074-.018-.148-.018-.224-.002-3.077-.002-6.156-.002-9.233v-.268h.266c1.262 0 2.521-.004 3.783.004.182.001.248-.039.244-.236-.008-1.275-.004-2.551-.004-3.825 0-.073-.006-.146-.012-.245h-4.26c0-.664-.029-1.303.01-1.938.039-.605.422-.916 1.021-.916l2.961-.001c.086 0 .174-.01.264-.014v-4.281h-.217c-1.049 0-2.098.001-3.148-.001-.932 0-1.779.264-2.541.803-1.299.922-2.055 2.196-2.287 3.75-.115.773-.066 1.571-.092 2.359-.002.077 0 .156 0 .256h-3.137c-.006.068-.014.115-.014.16 0 1.311.002 2.619-.006 3.929 0 .177.076.2.221.198.893-.004 1.783-.002 2.674-.002h.262v9.725h-9.008c-.059-.016-.117-.037-.176-.049-1.83-.396-3.02-1.491-3.559-3.283-.052-.177-.088-.359-.133-.537z"/></svg>