<svg xmlns="http://www.w3.org/2000/svg" viewBox="0 0 509.287 509.287"><circle cx="254.644" cy="254.644" r="254.644" fill="#f0582f"/><path d="M444.185 253.287H420.45c0-91.55-74.596-166.146-166.146-166.146S88.159 161.738 88.159 253.287H64.424c0-104.434 85.107-189.542 189.542-189.542 105.112.001 190.219 85.108 190.219 189.542z" fill="#f1f3f7"/><g fill="#4f5565"><circle cx="254.644" cy="253.287" r="145.123"/><circle cx="254.644" cy="253.287" r="145.123"/><path d="M303.47 207.174s8.138 52.556 63.407 82.395v-31.534c0-62.05-50.183-112.233-112.233-112.233-62.05 0-112.233 50.183-112.233 112.233v36.62c134.611-17.633 161.059-87.481 161.059-87.481z"/></g><path d="M303.47 207.174s-26.448 69.849-161.399 87.82v38.315c0 62.05 50.183 112.233 112.233 112.233 62.05 0 112.233-50.183 112.233-112.233v-43.74c-54.929-29.839-63.067-82.395-63.067-82.395z" fill="#f6ceb0"/><path d="M76.63 230.23a25.034 25.034 0 0 0-25.091 25.091v74.935c0 13.902 11.189 25.091 25.091 25.091s25.091-11.189 25.091-25.091v-74.935c.34-13.901-11.189-25.091-25.091-25.091z" fill="#f1f3f7"/><path d="M50.861 255.322c-20.683 0-37.298 16.615-37.298 37.298s16.615 37.298 37.298 37.298h.678v-74.596h-.678z" fill="#6eb1e1"/><path d="M432.657 355.348a25.034 25.034 0 0 0 25.091-25.091v-74.935c0-13.902-11.189-25.091-25.091-25.091s-25.091 11.189-25.091 25.091v74.935c-.34 13.902 11.189 25.091 25.091 25.091z" fill="#f1f3f7"/><path d="M458.427 329.918c20.683 0 37.298-16.615 37.298-37.298s-16.615-37.298-37.298-37.298h-.678v74.596h.678z" fill="#6eb1e1"/></svg>