<svg xmlns="http://www.w3.org/2000/svg" width="752.107" height="259.544" viewBox="2.762 -376.53 752.107 259.544"><path fill-rule="evenodd" clip-rule="evenodd" fill="#FFF" d="M282.282-278.197c-.392 15.229-2.652 30.107-8.35 44.345-7.929 19.805-21.365 34.825-39.562 45.715-18.193-10.89-31.63-25.91-39.565-45.715-5.698-14.237-7.953-29.116-8.343-44.345-.1-3.92-.066-3.925 3.892-4.18 11.94-.775 23.202-3.943 33.775-9.552 3.556-1.888 6.957-4.029 10.241-6.349 3.291 2.32 6.681 4.461 10.243 6.349 10.568 5.609 21.833 8.777 33.771 9.552 3.957.256 3.994.26 3.898 4.18z"/><path d="M202.649-261.041h3.101l2.234 9.044 2.492-9.044h2.4l2.491 9.044 2.234-9.044h3.101l-3.562 12.921h-3.359l-2.104-7.625-2.104 7.625h-3.359l-3.565-12.921zm26.177 10.891h-4.799l-.646 2.03h-3.23l4.394-12.921h3.764l4.394 12.921h-3.23l-.647-2.03zm-.886-2.77l-1.513-4.744-1.514 4.744h3.027zm13.624-5.278h-3.322v10.078h-2.954v-10.078h-3.322v-2.843h9.599v2.843zm.002 3.617c0-3.802 2.824-6.719 6.718-6.719 2.344 0 4.412 1.162 5.538 2.99l-2.547 1.476c-.572-.996-1.68-1.586-2.99-1.586-2.289 0-3.766 1.531-3.766 3.839s1.477 3.839 3.766 3.839c1.31 0 2.438-.591 2.99-1.587l2.547 1.476c-1.107 1.828-3.175 2.99-5.538 2.99-3.894 0-6.718-2.915-6.718-6.718zm23.611-6.46v12.921h-2.954v-5.132h-4.06v5.132h-2.954v-12.921h2.954v4.946h4.06v-4.946h2.954zm-39.305 23.384c0 3.653-2.713 6.459-6.275 6.459h-5.169v-12.921h5.169c3.562 0 6.275 2.805 6.275 6.462zm-2.843 0c0-2.216-1.402-3.618-3.433-3.618h-2.216v7.236h2.216c2.03 0 3.433-1.405 3.433-3.618zm3.952 0c0-3.804 3.008-6.72 6.719-6.72 3.71 0 6.719 2.916 6.719 6.72 0 3.801-3.009 6.718-6.719 6.718-3.711-.001-6.719-2.918-6.719-6.718zm10.485 0c0-2.309-1.662-3.839-3.766-3.839-2.105 0-3.765 1.53-3.765 3.839 0 2.308 1.66 3.839 3.765 3.839 2.104-.001 3.766-1.532 3.766-3.839zm17.408.368c0 3.951-2.75 6.35-6.368 6.35-4.062 0-6.978-2.989-6.978-6.699 0-3.749 2.972-6.738 6.775-6.738 2.472 0 4.559 1.218 5.648 2.953l-2.511 1.439c-.535-.848-1.699-1.512-3.157-1.512-2.177 0-3.801 1.605-3.801 3.876 0 2.196 1.549 3.802 4.06 3.802 1.717 0 2.843-.758 3.305-1.994h-3.452v-2.584h6.479v1.107z" fill="#5252AA"/><path opacity=".3" fill="#FFF" d="M234.735-298.058c3.291 2.323 6.681 4.461 10.245 6.349 10.566 5.607 21.833 8.779 33.768 9.554 3.96.255 3.999.259 3.898 4.178-.391 15.231-2.651 30.106-8.351 44.347-7.924 19.804-21.364 34.825-39.56 45.714-18.192-10.889-31.628-25.91-39.563-45.714-5.699-14.24-7.956-29.116-8.346-44.347-.099-3.919-.064-3.923 3.895-4.178 11.939-.775 23.198-3.947 33.771-9.554 3.557-1.887 6.957-4.026 10.243-6.349m0-9.176l-4.325 3.054c-3.242 2.293-6.325 4.203-9.427 5.848-9.553 5.069-19.897 7.995-30.749 8.697-2.775.179-5.925.382-8.444 3.062-2.612 2.776-2.525 6.107-2.454 8.789.453 17.791 3.356 33.146 8.876 46.938 8.329 20.793 22.687 37.397 42.673 49.363l3.849 2.303 3.85-2.303c19.994-11.969 34.349-28.578 42.666-49.362 5.525-13.796 8.432-29.148 8.886-46.938.068-2.678.158-6.013-2.461-8.794-2.518-2.675-5.669-2.878-8.446-3.058-10.852-.705-21.195-3.628-30.733-8.693-3.088-1.634-6.17-3.546-9.439-5.852l-4.322-3.054z"/><path opacity=".2" fill="#FFF" d="M234.735-306.99l4.322 3.053c3.269 2.307 6.351 4.218 9.439 5.852 9.538 5.066 19.881 7.987 30.733 8.693 2.777.18 5.929.383 8.446 3.057 2.619 2.78 2.529 6.119 2.461 8.794-.455 17.791-3.361 33.144-8.886 46.939-8.316 20.785-22.672 37.394-42.666 49.36l-3.85 2.305-3.849-2.305c-19.986-11.965-34.344-28.57-42.673-49.365-5.521-13.787-8.424-29.143-8.876-46.935-.071-2.681-.158-6.015 2.454-8.787 2.519-2.682 5.669-2.885 8.444-3.064 10.852-.702 21.196-3.627 30.749-8.695 3.102-1.645 6.185-3.556 9.427-5.85l4.325-3.052m.002-10.089l-4.755 3.356-4.323 3.054c-2.946 2.085-5.736 3.817-8.536 5.299-8.518 4.52-17.741 7.129-27.421 7.756-3.435.22-9.176.592-13.917 5.644-4.932 5.244-4.774 11.357-4.687 14.645.479 18.781 3.576 35.07 9.463 49.781 9.014 22.504 24.52 40.461 46.092 53.373l3.851 2.305 4.23 2.531 4.231-2.531 3.85-2.303c21.577-12.914 37.084-30.871 46.086-53.373 5.893-14.711 8.991-30.999 9.473-49.787.085-3.298.239-9.41-4.7-14.657-4.739-5.036-10.479-5.408-13.908-5.628-9.689-.629-18.908-3.237-27.407-7.75-2.775-1.468-5.572-3.204-8.554-5.308l-4.315-3.051-4.753-3.356z"/><path opacity=".1" fill="#FFF" d="M234.737-316.837l4.753 3.359 4.315 3.048c2.982 2.104 5.779 3.839 8.554 5.311 8.5 4.511 17.718 7.117 27.407 7.747 3.429.221 9.169.592 13.908 5.629 4.938 5.246 4.785 11.362 4.7 14.656-.481 18.789-3.58 35.077-9.473 49.79-9.001 22.5-24.509 40.456-46.086 53.37l-3.85 2.305-4.231 2.529-4.23-2.529-3.851-2.308c-21.572-12.911-37.078-30.867-46.092-53.367-5.888-14.718-8.984-31.003-9.463-49.786-.088-3.285-.246-9.399 4.687-14.643 4.742-5.054 10.483-5.425 13.917-5.646 9.68-.627 18.903-3.234 27.421-7.753 2.799-1.485 5.59-3.217 8.536-5.3l4.323-3.055 4.755-3.357m.003-10.088l-4.756 3.358-4.752 3.355-4.326 3.053c-2.66 1.883-5.158 3.435-7.642 4.75-7.482 3.971-15.587 6.263-24.092 6.813-4.032.261-12.424.804-19.397 8.231-7.25 7.705-7.017 16.67-6.915 20.499.503 19.772 3.793 36.992 10.049 52.627 9.703 24.219 26.359 43.521 49.509 57.381l3.857 2.307 4.23 2.531 4.23 2.533 4.231-2.533 4.231-2.531 3.85-2.303c23.161-13.863 39.818-33.168 49.506-57.383 6.263-15.637 9.554-32.855 10.06-52.637.099-3.832.327-12.803-6.938-20.518-6.962-7.4-15.346-7.942-19.373-8.204-8.516-.552-16.615-2.842-24.076-6.804-2.467-1.304-4.973-2.861-7.67-4.764l-4.311-3.045-4.751-3.358-4.754-3.358z"/><linearGradient id="a" gradientUnits="userSpaceOnUse" x1="755.476" y1="1060.367" x2="1009.977" y2="1060.367" gradientTransform="rotate(-90 65.921 569.009)"><stop offset="0" stop-color="#706dcb" stop-opacity="0"/><stop offset="1" stop-color="#706dcb" stop-opacity=".7"/></linearGradient><path fill="url(#a)" d="M602.839-120.545c7.141 0 12.95-5.809 12.95-12.949v-228.602c0-7.142-5.81-12.952-12.95-12.952h-91.122c-7.139 0-12.947 5.81-12.947 12.952v228.602c0 7.141 5.809 12.949 12.947 12.949h91.122z"/><linearGradient id="b" gradientUnits="userSpaceOnUse" x1="-591.881" y1="80.88" x2="-479.256" y2="80.88" gradientTransform="rotate(90 57.946 418.268)"><stop offset="0" stop-color="#706dcb" stop-opacity="0"/><stop offset="1" stop-color="#706dcb" stop-opacity=".7"/></linearGradient><path fill="url(#b)" d="M395.333-118.934c-31.051 0-56.31-25.262-56.31-56.312 0-31.051 25.259-56.313 56.31-56.313s56.312 25.263 56.312 56.313-25.261 56.312-56.312 56.312z"/><linearGradient id="c" gradientUnits="userSpaceOnUse" x1="-677.094" y1="80.88" x2="-551.986" y2="80.88" gradientTransform="rotate(90 57.946 418.268)"><stop offset="0" stop-color="#706dcb" stop-opacity="0"/><stop offset="1" stop-color="#706dcb" stop-opacity=".7"/></linearGradient><path fill="url(#c)" d="M395.333-233.91c-26.65 0-49.193 17.867-56.31 42.247v-125.108h112.621v125.108c-7.122-24.38-29.66-42.247-56.311-42.247z"/><path d="M391.541-376.364h-40.025c-8.439 0-15.305 6.865-15.305 15.304v10.868h2.356v-10.868c0-7.14 5.808-12.949 12.948-12.949h38.146a6.014 6.014 0 0 1 1.88-2.355zm46.387 0h-39.164a5.984 5.984 0 0 1 1.881 2.355h37.283c7.141 0 12.948 5.809 12.948 12.949v10.868h2.354v-10.868c0-8.438-6.866-15.304-15.302-15.304z" fill="#FFF"/><linearGradient id="d" gradientUnits="userSpaceOnUse" x1="6358.429" y1="534.384" x2="6358.429" y2="577.882" gradientTransform="rotate(180 3215.886 195.836)"><stop offset=".091" stop-color="#706dcb" stop-opacity="0"/><stop offset="1" stop-color="#706dcb" stop-opacity=".7"/></linearGradient><path fill="url(#d)" d="M30.765-186.208h85.155v43.497H30.765z"/><path d="M58.888-164.785v-5.629h1.9v5.461c0 .629.297 1.164 1.306 1.164 1.009 0 1.307-.535 1.307-1.164v-5.461h1.9v5.629c0 1.781-1.378 2.85-3.207 2.85s-3.206-1.069-3.206-2.85zm7.365.795l1.639-.949c.297.688.808 1.15 1.746 1.15.902 0 1.128-.355 1.128-.676 0-.512-.475-.712-1.723-1.057-1.234-.346-2.445-.939-2.445-2.529 0-1.604 1.354-2.531 2.79-2.531 1.366 0 2.435.653 3.04 1.877l-1.603.939c-.285-.594-.677-.961-1.437-.961-.594 0-.891.293-.891.629 0 .378.202.639 1.497 1.031 1.258.38 2.671.821 2.671 2.578 0 1.603-1.281 2.553-3.087 2.553-1.745 0-2.861-.83-3.325-2.054zm12.531.058v1.83H73.56v-8.313h5.165v1.828H75.46v1.379h2.968v1.803H75.46v1.473h3.324zm3.873-.901h-.902v2.731h-1.9v-8.313h3.325a2.842 2.842 0 0 1 2.849 2.85c0 1.021-.618 1.947-1.532 2.412l1.771 3.051h-2.043l-1.568-2.731zm-.902-1.665h1.425c.522 0 .949-.46.949-1.066 0-.607-.427-1.068-.949-1.068h-1.425v2.134z" fill="#FFF"/><path d="M121.054-135.013H23.621L8.065-123.346v5.704h128.546v-5.704zm0-58.138H23.621v55.026h97.433v-55.026zm-7.922 47.897H31.548v-40.662h81.583v40.662z" fill-rule="evenodd" clip-rule="evenodd" fill="#FFF"/><linearGradient id="e" gradientUnits="userSpaceOnUse" x1="3293.429" y1="3345.035" x2="3379.891" y2="3345.035" gradientTransform="rotate(90 3541.906 -127.124)"><stop offset="0" stop-color="#706dcb" stop-opacity="0"/><stop offset="1" stop-color="#706dcb" stop-opacity=".7"/></linearGradient><path fill="url(#e)" d="M32.056-289.14h-.013c-4.796 0-9.245-1.051-13.236-3.136-5.435-2.839-9.577-7.047-12.315-12.51a27.33 27.33 0 0 1-2.866-10.624l-.07-.727.018-2.627c.133-1.588.367-3.675.948-5.781a27.711 27.711 0 0 1 5.957-10.996c2.423-2.748 5.354-4.996 8.712-6.68.221-.106.438-.21.654-.308.536-3.083 1.735-5.956 3.565-8.563 2.896-4.133 6.79-6.925 11.585-8.305 3.01-.868 6.05-1.049 8.995-.552 1.661.283 3.291.791 4.936 1.535 4.317-6.785 10.198-11.692 17.531-14.626 7.405-2.967 15.27-3.361 23.108-1.162 8.24 2.305 14.963 7.012 19.989 14.006 4.293 5.969 6.596 12.613 6.874 19.797 4.853 1.27 9.056 3.762 12.516 7.429 4.12 4.357 6.445 9.586 6.914 15.535.362 4.657-.48 9.147-2.512 13.347-2.041 4.254-5.07 7.764-8.989 10.429-3.381 2.298-7.087 3.722-11.032 4.235-1.33.178-2.726.266-4.159.266-16.063.011-32.125.015-48.193.015l-28.917.003z"/><path fill="#FFF" d="M31.937-288.03h-.011c-4.905 0-9.463-1.08-13.547-3.211-5.564-2.907-9.805-7.215-12.607-12.805a28.09 28.09 0 0 1-2.937-10.882l-.069-.703a.82.82 0 0 1-.003-.07l.019-2.626c.124-1.522.356-3.734.974-5.961a28.426 28.426 0 0 1 6.097-11.259c2.488-2.818 5.487-5.116 8.916-6.833.125-.061.244-.119.361-.173.578-3.042 1.792-5.895 3.61-8.49 2.99-4.258 7.011-7.139 11.952-8.563 3.088-.886 6.251-1.077 9.292-.568 1.543.265 3.043.71 4.569 1.355 4.356-6.644 10.252-11.489 17.536-14.408 7.507-3.004 15.59-3.413 23.54-1.185 8.39 2.348 15.237 7.146 20.353 14.258 4.261 5.922 6.607 12.54 6.979 19.673 4.775 1.341 8.929 3.859 12.356 7.489 4.226 4.47 6.612 9.833 7.092 15.94.372 4.785-.495 9.391-2.573 13.694-2.096 4.359-5.198 7.957-9.218 10.692-3.466 2.356-7.275 3.819-11.324 4.348-1.348.18-2.777.271-4.247.271-16.062.009-32.123.014-48.193.014l-28.917.003zM4.106-315.726l.067.692a26.779 26.779 0 0 0 2.799 10.387c2.673 5.332 6.719 9.44 12.027 12.215 3.89 2.03 8.238 3.06 12.925 3.06l.011.671v-.671l28.914-.004c16.071 0 32.131-.004 48.193-.015a30.95 30.95 0 0 0 4.071-.259c3.839-.502 7.454-1.89 10.744-4.127 3.821-2.601 6.771-6.02 8.763-10.164 1.975-4.085 2.797-8.462 2.443-13.006-.455-5.792-2.718-10.879-6.728-15.122-3.365-3.565-7.469-6-12.199-7.24a.674.674 0 0 1-.501-.624c-.277-7.055-2.548-13.594-6.75-19.435-4.933-6.86-11.535-11.487-19.623-13.75-7.667-2.15-15.445-1.759-22.678 1.139-7.192 2.88-12.983 7.713-17.213 14.364a.672.672 0 0 1-.845.251c-1.604-.725-3.166-1.21-4.772-1.487-2.836-.476-5.801-.294-8.694.537-4.637 1.336-8.414 4.043-11.223 8.042-1.772 2.531-2.933 5.322-3.45 8.296a.67.67 0 0 1-.384.498c-.212.097-.422.196-.642.303a27.973 27.973 0 0 0-8.502 6.516 27.078 27.078 0 0 0-5.81 10.728c-.587 2.119-.811 4.246-.927 5.663l-.016 2.542z"/><path d="M41.834-325.044v9.891h-2.261v-9.891h2.261zm9.467 0v9.891h-1.696l-3.815-5.37v5.37h-2.261v-9.891h1.696l3.815 5.369v-5.369h2.261zm8.335 2.177h-2.544v7.715h-2.261v-7.715h-2.543v-2.176h7.349v2.176zm7.204 5.538v2.176h-6.218v-9.891h6.147v2.176h-3.886v1.639h3.533v2.148h-3.533v1.752h3.957zm4.604-1.074h-1.073v3.25H68.11v-9.891h3.957a3.384 3.384 0 0 1 3.391 3.392c0 1.215-.734 2.317-1.823 2.868l2.106 3.632H73.31l-1.866-3.251zm-1.073-1.978h1.696c.622 0 1.13-.551 1.13-1.271 0-.722-.508-1.272-1.13-1.272h-1.696v2.543zm14.198-4.663v9.891h-1.696l-3.814-5.37v5.37h-2.261v-9.891h1.696l3.815 5.369v-5.369h2.26zm7.911 7.715v2.176h-6.218v-9.891h6.146v2.176h-3.886v1.639h3.534v2.148h-3.534v1.752h3.958zm7.912-5.538h-2.544v7.715h-2.261v-7.715h-2.544v-2.176h7.349v2.176zm186.549 68.444a1.345 1.345 0 0 1-.001-2.689l42.207-.011h.001a1.345 1.345 0 0 1 0 2.688l-42.207.012z" fill="#FFF"/><path fill="#FFF" d="M321.175-247.915a1.346 1.346 0 0 1-.852-2.385l6.755-5.521-6.516-5.801a1.344 1.344 0 1 1 1.789-2.008l7.691 6.85c.293.261.459.639.451 1.031a1.35 1.35 0 0 1-.494 1.013l-7.974 6.519c-.25.204-.55.302-.85.302zm-26.571.286c-.318 0-.637-.112-.894-.341l-7.69-6.851a1.34 1.34 0 0 1 .044-2.044l7.978-6.521a1.346 1.346 0 0 1 1.702 2.082l-6.759 5.523 6.515 5.802a1.346 1.346 0 0 1-.896 2.35z"/><g fill="#FFF"><path d="M357.372-282.001c0 1.892-1.541 3.126-3.446 3.126h-4.484v-10.674h4.178c1.86 0 3.371 1.205 3.371 3.049 0 .884-.35 1.585-.931 2.09.792.503 1.312 1.327 1.312 2.409zm-5.489-5.261v1.891h1.737c.55 0 .932-.396.932-.944 0-.551-.367-.947-.932-.947h-1.737zm3.048 5.078c0-.594-.396-1.021-1.005-1.021h-2.043v2.043h2.043c.61 0 1.005-.427 1.005-1.022zm9.911.962v2.348h-6.251v-10.674h2.439v8.326h3.812zm-.002-2.989c0-3.142 2.486-5.55 5.552-5.55 3.064 0 5.55 2.408 5.55 5.55 0 3.141-2.485 5.55-5.55 5.55-3.066 0-5.552-2.41-5.552-5.55zm8.662 0c0-1.907-1.373-3.173-3.11-3.173-1.739 0-3.111 1.266-3.111 3.173 0 1.906 1.372 3.171 3.111 3.171 1.737 0 3.11-1.265 3.11-3.171zm3.352 0c0-3.142 2.334-5.55 5.549-5.55 1.938 0 3.646.96 4.576 2.47l-2.105 1.219c-.473-.824-1.386-1.312-2.471-1.312-1.889 0-3.108 1.266-3.108 3.173 0 1.906 1.22 3.171 3.108 3.171 1.085 0 2.015-.489 2.471-1.312l2.105 1.22c-.914 1.51-2.622 2.47-4.576 2.47-3.215.001-5.549-2.409-5.549-5.549zm17.123 5.337l-3.415-4.94v4.94h-2.44v-10.674h2.44v4.634l3.263-4.634h2.773l-3.597 5.2 3.751 5.475h-2.775z"/><path d="M396.292-284.211c0-3.142 2.333-5.55 5.551-5.55 1.936 0 3.646.96 4.575 2.47l-2.104 1.219c-.474-.824-1.389-1.312-2.471-1.312-1.891 0-3.11 1.266-3.11 3.173 0 1.906 1.22 3.171 3.11 3.171 1.082 0 2.012-.489 2.471-1.312l2.104 1.22c-.915 1.51-2.623 2.47-4.575 2.47-3.218.001-5.551-2.409-5.551-5.549zm19.502-5.338v10.674h-2.44v-4.24H410v4.24h-2.44v-10.674H410v4.086h3.354v-4.086h2.44zm8.078 8.997h-3.963l-.534 1.678h-2.668l3.629-10.674h3.11l3.628 10.674h-2.667l-.535-1.678zm-.731-2.288l-1.25-3.917-1.251 3.917h2.501zm7.288-6.709v10.674h-2.441v-10.674h2.441zm10.214 0v10.674h-1.828l-4.117-5.795v5.795h-2.439v-10.674h1.829l4.116 5.794v-5.794h2.439zm-60.273 21.525c0 1.89-1.539 3.125-3.446 3.125h-4.483v-10.674h4.179c1.86 0 3.37 1.206 3.37 3.05 0 .884-.352 1.585-.931 2.089.794.502 1.311 1.326 1.311 2.41zm-5.489-5.262v1.891h1.738c.549 0 .931-.396.931-.945s-.367-.945-.931-.945h-1.738zm3.048 5.077c0-.594-.396-1.021-1.005-1.021h-2.043v2.043h2.043c.609 0 1.005-.427 1.005-1.022zm9.912 1.632h-3.965l-.534 1.678h-2.668l3.628-10.674h3.111l3.628 10.674h-2.668l-.532-1.678zm-.733-2.287l-1.25-3.919-1.252 3.919h2.502zm4.084 1.541l2.105-1.22c.381.884 1.036 1.479 2.241 1.479 1.157 0 1.447-.458 1.447-.869 0-.655-.608-.915-2.21-1.358-1.586-.441-3.141-1.204-3.141-3.247 0-2.059 1.737-3.248 3.583-3.248 1.754 0 3.126.838 3.903 2.41l-2.058 1.204c-.368-.762-.87-1.234-1.846-1.234-.763 0-1.144.381-1.144.807 0 .489.259.826 1.921 1.327 1.616.489 3.43 1.053 3.43 3.31 0 2.058-1.646 3.279-3.964 3.279-2.238-.002-3.671-1.07-4.267-2.64zm16.087.076v2.348h-6.71v-10.674h6.633v2.348h-4.192v1.77h3.812v2.317h-3.812v1.891h4.269zm10.825-2.99c0 3.019-2.24 5.337-5.183 5.337h-4.271v-10.674h4.271c2.942.001 5.183 2.319 5.183 5.337zm-2.349 0c0-1.829-1.159-2.989-2.834-2.989h-1.831v5.978h1.831c1.675.001 2.834-1.159 2.834-2.989zm-44.984 17.635h-3.963l-.533 1.678h-2.67l3.629-10.674h3.111l3.628 10.674h-2.668l-.534-1.678zm-.73-2.286l-1.251-3.918-1.251 3.918h2.502zm8.443.456h-1.156v3.508h-2.439v-10.674h4.269a3.65 3.65 0 0 1 3.659 3.66c0 1.312-.792 2.501-1.968 3.097l2.273 3.918h-2.623l-2.015-3.509zm-1.156-2.134h1.829c.671 0 1.22-.595 1.22-1.373 0-.777-.549-1.372-1.22-1.372h-1.829v2.745zm6.326.304c0-3.14 2.333-5.549 5.551-5.549 1.937 0 3.644.96 4.574 2.47l-2.104 1.22c-.473-.823-1.388-1.311-2.47-1.311-1.892 0-3.11 1.266-3.11 3.17 0 1.908 1.219 3.172 3.11 3.172 1.082 0 2.013-.487 2.47-1.311l2.104 1.22c-.915 1.51-2.623 2.469-4.574 2.469-3.218.001-5.551-2.408-5.551-5.55zm19.5-5.336v10.674h-2.439v-4.239h-3.354v4.239h-2.44v-10.674h2.44v4.088h3.354v-4.088h2.439zm4.27 0v10.674h-2.44v-10.674h2.44zm.912 0h2.669l2.363 7.854 2.365-7.854h2.668l-3.479 10.674h-3.11l-3.476-10.674zm17.688 8.325v2.349h-6.711v-10.674h6.634v2.349h-4.193v1.769h3.812v2.318h-3.812v1.89h4.27z"/></g><path d="M646.41-255.396c0-3.142 2.332-5.551 5.549-5.551 1.937 0 3.645.959 4.575 2.47l-2.105 1.22c-.472-.824-1.387-1.312-2.47-1.312-1.892 0-3.109 1.265-3.109 3.173 0 1.906 1.218 3.171 3.109 3.171 1.083 0 2.015-.488 2.47-1.311l2.105 1.22c-.914 1.509-2.624 2.47-4.575 2.47-3.217.001-5.549-2.409-5.549-5.55zm14.864 1.83h-1.158v3.506h-2.44v-10.674h4.27a3.65 3.65 0 0 1 3.659 3.659c0 1.312-.792 2.501-1.966 3.096l2.271 3.918h-2.623l-2.013-3.505zm-1.158-2.136h1.829c.671 0 1.22-.594 1.22-1.372s-.549-1.373-1.22-1.373h-1.829v2.745zm11.739 1.541v4.102h-2.441v-4.102l-3.583-6.572h2.776l2.027 4.117 2.028-4.117h2.775l-3.582 6.572zm12.274-2.913c0 2.028-1.632 3.66-3.737 3.66h-1.601v3.355h-2.439v-10.674h4.04c2.105 0 3.737 1.632 3.737 3.659zm-2.441 0c0-.778-.547-1.373-1.296-1.373h-1.601v2.745h1.601c.749 0 1.296-.594 1.296-1.372zm10.673-1.311h-2.744v8.326h-2.44v-8.326h-2.745v-2.348h7.93v2.348zm-.001 2.989c0-3.142 2.484-5.551 5.549-5.551 3.065 0 5.552 2.409 5.552 5.551 0 3.141-2.486 5.55-5.552 5.55-3.064.001-5.549-2.409-5.549-5.55zm8.661 0c0-1.908-1.371-3.173-3.111-3.173-1.737 0-3.109 1.265-3.109 3.173 0 1.906 1.372 3.171 3.109 3.171 1.739 0 3.111-1.265 3.111-3.171zm11.587-1.678c0 2.028-1.632 3.66-3.736 3.66h-1.602v3.355h-2.439v-10.674h4.041c2.105 0 3.736 1.632 3.736 3.659zm-2.44 0c0-.778-.55-1.373-1.296-1.373h-1.602v2.745h1.602c.746 0 1.296-.594 1.296-1.372zm3.124 1.678c0-3.142 2.485-5.551 5.55-5.551 3.066 0 5.552 2.409 5.552 5.551 0 3.141-2.485 5.55-5.552 5.55-3.065.001-5.55-2.409-5.55-5.55zm8.662 0c0-1.908-1.374-3.173-3.112-3.173-1.737 0-3.109 1.265-3.109 3.173 0 1.906 1.372 3.171 3.109 3.171 1.738 0 3.112-1.265 3.112-3.171zm10.062 2.989v2.348h-6.251v-10.674h2.439v8.326h3.812zm3.505-8.326v10.674h-2.44v-10.674h2.44zm1.372 5.337c0-3.142 2.334-5.551 5.552-5.551 1.936 0 3.643.959 4.573 2.47l-2.104 1.22c-.472-.824-1.387-1.312-2.469-1.312-1.893 0-3.111 1.265-3.111 3.173 0 1.906 1.219 3.171 3.111 3.171 1.082 0 2.012-.488 2.469-1.311l2.104 1.22c-.913 1.509-2.622 2.47-4.573 2.47-3.218.001-5.552-2.409-5.552-5.55zm17.976 2.989v2.348h-6.711v-10.674h6.634v2.348h-4.191v1.769h3.812v2.317h-3.812v1.892h4.268zm-98.725 10.985c0-3.139 2.334-5.549 5.55-5.549 1.938 0 3.646.96 4.575 2.47l-2.104 1.222c-.472-.827-1.389-1.313-2.472-1.313-1.89 0-3.109 1.267-3.109 3.171 0 1.906 1.22 3.173 3.109 3.173 1.083 0 2.014-.488 2.472-1.312l2.104 1.221c-.914 1.509-2.622 2.471-4.575 2.471-3.216-.001-5.55-2.412-5.55-5.554zm10.656 0c0-3.139 2.486-5.549 5.551-5.549s5.551 2.41 5.551 5.549c0 3.143-2.485 5.553-5.551 5.553-3.065 0-5.551-2.411-5.551-5.553zm8.661 0c0-1.904-1.372-3.171-3.11-3.171-1.737 0-3.109 1.267-3.109 3.171 0 1.906 1.372 3.173 3.109 3.173 1.738 0 3.11-1.267 3.11-3.173zm14.485 5.338h-2.44v-6.205l-2.761 4.528h-.273l-2.761-4.528v6.205h-2.44v-10.674h2.44l2.897 4.741 2.897-4.741h2.44v10.674zm12.501 0h-2.439v-6.205l-2.761 4.528h-.273l-2.76-4.528v6.205h-2.441v-10.674h2.441l2.896 4.741 2.898-4.741h2.439v10.674zm1.751-3.446v-7.229h2.439v7.015c0 .808.382 1.494 1.679 1.494 1.294 0 1.677-.687 1.677-1.494v-7.015h2.44v7.229c0 2.287-1.77 3.66-4.117 3.66-2.348.001-4.118-1.372-4.118-3.66zm18.373-7.228v10.674h-1.83l-4.116-5.794v5.794h-2.44v-10.674h1.829l4.117 5.795v-5.795h2.44zm4.268 0v10.674h-2.44v-10.674h2.44zm8.996 2.348h-2.744v8.326h-2.439v-8.326h-2.744v-2.348h7.928v2.348zm6.174 4.225v4.101h-2.44v-4.101l-3.583-6.573h2.775l2.027 4.117 2.028-4.117h2.775l-3.582 6.573zm-212.019-9.874h-2.439v-6.206l-2.761 4.529h-.274l-2.759-4.529v6.206h-2.441v-10.674h2.441l2.897 4.743 2.896-4.743h2.439v10.674zm1.752-3.448v-7.227h2.439v7.014c0 .807.382 1.494 1.678 1.494s1.678-.687 1.678-1.494v-7.014h2.438v7.227c0 2.289-1.769 3.661-4.116 3.661-2.348.001-4.117-1.372-4.117-3.661zm16.237 1.1v2.348h-6.252v-10.674h2.439v8.326h3.813zm7.167-5.978h-2.744v8.326h-2.44v-8.326h-2.745v-2.348h7.93v2.348zm3.505-2.348v10.674h-2.44v-10.674h2.44zm8.08 8.326v2.348h-6.251v-10.674h2.438v8.326h3.813zm7.776 0v2.348h-6.708v-10.674h6.633v2.348h-4.193v1.769h3.812v2.317h-3.812v1.892h4.268zm.457-8.326h2.669l2.362 7.853 2.363-7.853h2.669l-3.477 10.674h-3.11l-3.476-10.674zm17.685 8.326v2.348h-6.709v-10.674h6.634v2.348h-4.193v1.769h3.812v2.317h-3.812v1.892h4.268zm7.623 0v2.348h-6.252v-10.674h2.439v8.326h3.813zm-90.423 5.649h2.669l2.362 7.854 2.364-7.854h2.669l-3.477 10.674h-3.11l-3.477-10.674zm17.685 8.326v2.348h-6.709v-10.674h6.635v2.348h-4.194v1.77h3.813v2.318h-3.813v1.891h4.268zm4.971-1.16h-1.159v3.508h-2.44v-10.674h4.271a3.653 3.653 0 0 1 3.661 3.66c0 1.312-.794 2.501-1.968 3.096l2.272 3.918h-2.624l-2.013-3.508zm-1.159-2.135h1.83c.671 0 1.22-.594 1.22-1.371s-.549-1.373-1.22-1.373h-1.83v2.744zm9.376-5.031v10.674h-2.439v-10.674h2.439zm4.27 2.348v2.057h3.963v2.352h-3.963v3.918h-2.439v-10.674h6.479v2.348h-4.04zm7.927-2.348v10.674h-2.44v-10.674h2.44zm1.372 5.336c0-3.139 2.332-5.549 5.55-5.549 1.937 0 3.645.96 4.575 2.47l-2.106 1.222c-.471-.827-1.386-1.313-2.469-1.313-1.892 0-3.11 1.267-3.11 3.171 0 1.906 1.219 3.173 3.11 3.173 1.083 0 2.014-.488 2.469-1.312l2.106 1.221c-.915 1.509-2.623 2.471-4.575 2.471-3.218-.001-5.55-2.412-5.55-5.554zm17.517 3.661h-3.964l-.532 1.677h-2.67l3.628-10.674h3.113l3.629 10.674h-2.669l-.535-1.677zm-.73-2.288l-1.251-3.918-1.252 3.918h2.503zm11.25-4.361h-2.744v8.326h-2.44v-8.326H574.4v-2.348h7.929v2.348zm3.505-2.348v10.674h-2.439v-10.674h2.439zm1.373 5.336c0-3.139 2.485-5.549 5.551-5.549 3.064 0 5.551 2.41 5.551 5.549 0 3.143-2.486 5.553-5.551 5.553-3.066 0-5.551-2.411-5.551-5.553zm8.661 0c0-1.904-1.372-3.171-3.11-3.171s-3.11 1.267-3.11 3.171c0 1.906 1.372 3.173 3.11 3.173s3.11-1.267 3.11-3.173zm12.197-5.336v10.674h-1.83l-4.118-5.794v5.794h-2.438v-10.674h1.829l4.117 5.795v-5.795h2.44zm-146.775-52.561a1.345 1.345 0 0 1-1.346-1.344c0-.742.603-1.344 1.346-1.344l35.576-.008a1.345 1.345 0 0 1 0 2.689l-35.576.007z" fill="#FFF"/><path fill="#FFF" d="M468.95-292.521c-.318 0-.639-.112-.895-.34l-7.689-6.853a1.345 1.345 0 0 1 .043-2.045l7.976-6.516a1.344 1.344 0 0 1 1.702 2.082l-6.756 5.52 6.515 5.805a1.343 1.343 0 0 1-.896 2.347zm-7.647 86.027a1.344 1.344 0 0 1-.001-2.689l35.563-.01h.001a1.344 1.344 0 0 1 .001 2.687l-35.564.012z"/><path fill="#FFF" d="M468.965-199.701c-.318 0-.638-.111-.896-.34l-7.687-6.852a1.343 1.343 0 0 1 .045-2.045l7.968-6.515a1.345 1.345 0 0 1 1.702 2.083l-6.75 5.518 6.512 5.803a1.344 1.344 0 0 1-.894 2.348zm157.026-6.793a1.344 1.344 0 0 1-.001-2.689l29.791-.01a1.344 1.344 0 1 1 .001 2.687l-29.791.012z"/><path fill="#FFF" d="M633.652-199.701c-.318 0-.638-.111-.896-.34l-7.695-6.852a1.35 1.35 0 0 1 .045-2.045l7.979-6.515a1.345 1.345 0 0 1 1.701 2.083l-6.758 5.518 6.518 5.803c.556.493.604 1.344.109 1.898-.265.297-.634.45-1.003.45zm-7.65-99.618a1.344 1.344 0 0 1 0-2.688l29.797-.008a1.345 1.345 0 0 1 0 2.689l-29.797.007z"/><path fill="#FFF" d="M633.664-292.521c-.318 0-.637-.112-.895-.34l-7.688-6.853a1.35 1.35 0 0 1-.45-1.033c.01-.394.19-.763.495-1.012l7.968-6.516a1.344 1.344 0 1 1 1.704 2.082l-6.753 5.519 6.513 5.806a1.34 1.34 0 0 1 .109 1.897c-.266.299-.633.45-1.003.45z"/><path d="M523.539-335.492l-9.07 9.072m.002-9.072l9.073 9.072m-12.01-28.637l5.871 5.868m9.071-9.071l-9.071 9.071m-5.871 37.459l5.871 5.872m9.071-9.078l-9.071 9.078m-5.871 15.207l5.871 5.873m9.071-9.08l-9.071 9.08m6.134 94.175l-9.07 9.072m0-9.072l9.07 9.072m-12.005-28.64l5.868 5.872m9.074-9.074l-9.074 9.074m-5.868 58.534l5.868 5.869m9.074-9.073l-9.074 9.073m6.142-28.278l-9.073 9.076m.002-9.076l9.071 9.076" fill-rule="evenodd" clip-rule="evenodd" fill="none" stroke="#FFF" stroke-width="2" stroke-linecap="round" stroke-miterlimit="10"/><g fill="#FFF"><path d="M565.452-337.651v-.602c0-4.883-.015 4.205.01-.675.018-4.448 2.794-7.866 7.077-8.782 3.637-.773 7.615 1.115 9.362 4.418.727 1.388 1.031 2.857 1.021 4.43-.021 4.832-.005-4.3 0 .528v.683h-17.47zm14.318-17.242c-.019 3.041-2.552 5.523-5.616 5.501-3.067-.025-5.514-2.525-5.492-5.608.026-3.081 2.542-5.592 5.563-5.548 3.106.043 5.549 2.542 5.545 5.655z" fill-rule="evenodd" clip-rule="evenodd"/><path d="M553.567-328.691c0-2.178 1.723-3.848 3.849-3.848 2.124 0 3.848 1.67 3.848 3.848a3.817 3.817 0 0 1-3.848 3.849c-2.126-.001-3.849-1.672-3.849-3.849zm6.005 0c0-1.321-.952-2.199-2.156-2.199-1.206 0-2.157.878-2.157 2.199 0 1.322.951 2.2 2.157 2.2 1.204 0 2.156-.878 2.156-2.2zm4.333-2.071v1.427h2.749v1.628h-2.749v2.716h-1.691v-7.401h4.494v1.629h-2.803zm5.496 0v1.427h2.748v1.628h-2.748v2.716h-1.691v-7.401h4.493v1.629h-2.802zm5.497-1.63v7.401h-1.691v-7.401h1.691zm.951 3.701c0-2.178 1.617-3.848 3.849-3.848 1.344 0 2.526.667 3.173 1.713l-1.459.845c-.328-.57-.964-.909-1.714-.909-1.311 0-2.156.878-2.156 2.199 0 1.322.846 2.2 2.156 2.2.75 0 1.396-.338 1.714-.909l1.459.845c-.636 1.046-1.818 1.713-3.173 1.713-2.232-.001-3.849-1.672-3.849-3.849zm12.464 2.073v1.627h-4.651v-7.401h4.598v1.629h-2.907v1.227h2.644v1.606h-2.644v1.311h2.96zm3.444-.804h-.804v2.431h-1.689v-7.401h2.96a2.532 2.532 0 0 1 2.536 2.539c0 .909-.549 1.733-1.364 2.146l1.577 2.716h-1.818l-1.398-2.431zm-.804-1.48h1.271c.463 0 .846-.413.846-.952 0-.541-.383-.952-.846-.952h-1.271v1.904z"/></g><g fill="#FFF"><path d="M565.452-290.807v-.597c0-4.884-.015 4.202.01-.677.018-4.446 2.794-7.866 7.077-8.78 3.637-.774 7.615 1.109 9.362 4.415.727 1.39 1.031 2.86 1.021 4.432-.021 4.831-.005-4.3 0 .528v.68l-17.47-.001zm14.318-17.24c-.019 3.043-2.552 5.525-5.616 5.5-3.067-.022-5.514-2.523-5.492-5.606.026-3.087 2.542-5.59 5.563-5.551 3.106.045 5.549 2.546 5.545 5.657z" fill-rule="evenodd" clip-rule="evenodd"/><path d="M553.567-281.844c0-2.178 1.723-3.848 3.849-3.848 2.124 0 3.848 1.67 3.848 3.848 0 2.179-1.724 3.849-3.848 3.849-2.126 0-3.849-1.67-3.849-3.849zm6.005 0c0-1.32-.952-2.199-2.156-2.199-1.206 0-2.157.878-2.157 2.199 0 1.322.951 2.2 2.157 2.2 1.204-.001 2.156-.879 2.156-2.2zm4.333-2.073v1.427h2.749v1.629h-2.749v2.717h-1.691v-7.401h4.494v1.627h-2.803zm5.496 0v1.427h2.748v1.629h-2.748v2.717h-1.691v-7.401h4.493v1.627h-2.802zm5.497-1.627v7.401h-1.691v-7.401h1.691zm.951 3.7c0-2.178 1.617-3.848 3.849-3.848 1.344 0 2.526.667 3.173 1.713l-1.459.846c-.328-.571-.964-.91-1.714-.91-1.311 0-2.156.878-2.156 2.199 0 1.322.846 2.2 2.156 2.2.75 0 1.396-.339 1.714-.909l1.459.847c-.636 1.045-1.818 1.711-3.173 1.711-2.232 0-3.849-1.67-3.849-3.849zm12.464 2.072v1.628h-4.651v-7.401h4.598v1.627h-2.907v1.227h2.644v1.607h-2.644v1.311h2.96zm3.444-.802h-.804v2.431h-1.689v-7.401h2.96a2.53 2.53 0 0 1 2.536 2.537c0 .909-.549 1.734-1.364 2.147l1.577 2.717h-1.818l-1.398-2.431zm-.804-1.481h1.271c.463 0 .846-.412.846-.952 0-.539-.383-.951-.846-.951h-1.271v1.903z"/></g><g fill="#FFF"><path d="M565.452-196.45v-.604c0-4.881-.015 4.205.01-.674.018-4.448 2.794-7.868 7.077-8.781 3.637-.776 7.615 1.115 9.362 4.419.727 1.388 1.031 2.856 1.021 4.428-.021 4.832-.005-4.299 0 .531v.682l-17.47-.001zm14.318-17.244c-.019 3.043-2.552 5.526-5.616 5.502-3.067-.025-5.514-2.525-5.492-5.609.026-3.082 2.542-5.591 5.563-5.548 3.106.044 5.549 2.544 5.545 5.655z" fill-rule="evenodd" clip-rule="evenodd"/><path d="M553.567-187.492c0-2.178 1.723-3.846 3.849-3.846 2.124 0 3.848 1.668 3.848 3.846 0 2.18-1.724 3.85-3.848 3.85-2.126-.001-3.849-1.671-3.849-3.85zm6.005 0c0-1.32-.952-2.197-2.156-2.197-1.206 0-2.157.877-2.157 2.197 0 1.324.951 2.201 2.157 2.201 1.204 0 2.156-.877 2.156-2.201zm4.333-2.071v1.426h2.749v1.629h-2.749v2.719h-1.691v-7.402h4.494v1.629h-2.803zm5.496 0v1.426h2.748v1.629h-2.748v2.719h-1.691v-7.402h4.493v1.629h-2.802zm5.497-1.629v7.402h-1.691v-7.402h1.691zm.951 3.7c0-2.178 1.617-3.846 3.849-3.846 1.344 0 2.526.664 3.173 1.711l-1.459.846c-.328-.57-.964-.908-1.714-.908-1.311 0-2.156.877-2.156 2.197 0 1.324.846 2.201 2.156 2.201.75 0 1.396-.34 1.714-.91l1.459.846c-.636 1.046-1.818 1.713-3.173 1.713-2.232-.001-3.849-1.671-3.849-3.85zm12.464 2.072v1.631h-4.651v-7.402h4.598v1.629h-2.907v1.225h2.644v1.607h-2.644v1.311h2.96zm3.444-.803h-.804v2.434h-1.689v-7.402h2.96a2.53 2.53 0 0 1 2.536 2.537c0 .91-.549 1.735-1.364 2.146l1.577 2.719h-1.818l-1.398-2.434zm-.804-1.48h1.271c.463 0 .846-.413.846-.951 0-.539-.383-.951-.846-.951h-1.271v1.902z"/></g><g fill="#FFF"><path d="M565.452-149.607v-.599c0-4.883-.015 4.207.01-.674.018-4.447 2.794-7.869 7.077-8.783 3.637-.773 7.615 1.113 9.362 4.419.727 1.388 1.031 2.858 1.021 4.429-.021 4.831-.005-4.299 0 .527v.681h-17.47zm14.318-17.239c-.019 3.043-2.552 5.524-5.616 5.5-3.067-.022-5.514-2.521-5.492-5.605.026-3.086 2.542-5.59 5.563-5.548 3.106.043 5.549 2.54 5.545 5.653z" fill-rule="evenodd" clip-rule="evenodd"/><path d="M553.567-140.643c0-2.178 1.723-3.85 3.849-3.85 2.124 0 3.848 1.672 3.848 3.85s-1.724 3.849-3.848 3.849c-2.126 0-3.849-1.671-3.849-3.849zm6.005 0c0-1.322-.952-2.199-2.156-2.199-1.206 0-2.157.877-2.157 2.199 0 1.321.951 2.199 2.157 2.199 1.204 0 2.156-.878 2.156-2.199zm4.333-2.072v1.428h2.749v1.627h-2.749v2.719h-1.691v-7.402h4.494v1.629h-2.803zm5.496 0v1.428h2.748v1.627h-2.748v2.719h-1.691v-7.402h4.493v1.629h-2.802zm5.497-1.629v7.402h-1.691v-7.402h1.691zm.951 3.701c0-2.178 1.617-3.85 3.849-3.85 1.344 0 2.526.668 3.173 1.714l-1.459.846c-.328-.571-.964-.909-1.714-.909-1.311 0-2.156.877-2.156 2.199 0 1.321.846 2.199 2.156 2.199.75 0 1.396-.339 1.714-.91l1.459.846c-.636 1.047-1.818 1.714-3.173 1.714-2.232 0-3.849-1.671-3.849-3.849zm12.464 2.072v1.629h-4.651v-7.402h4.598v1.629h-2.907v1.226h2.644v1.606h-2.644v1.313h2.96zm3.444-.803h-.804v2.433h-1.689v-7.402h2.96a2.53 2.53 0 0 1 2.536 2.537c0 .91-.549 1.735-1.364 2.146l1.577 2.719h-1.818l-1.398-2.433zm-.804-1.48h1.271c.463 0 .846-.412.846-.953 0-.54-.383-.949-.846-.949h-1.271v1.902z"/></g><path fill="#FFF" d="M537.231-272.921a.336.336 0 0 1-.336-.336v-91.118a.335.335 0 0 1 .672 0v91.118c0 .185-.15.336-.336.336zm0 142.919a.335.335 0 0 1-.336-.336v-94.447a.335.335 0 1 1 .672 0v94.447c0 .185-.15.336-.336.336zm-135.64-75.639a3.467 3.467 0 0 0 2.228 6.117c.104 0 .212-.008.313-.016a.695.695 0 0 1 .069-.004c.086-.01.175-.025.26-.043a.819.819 0 0 0 .12-.025c.053-.014.108-.027.158-.038.08-.026.158-.049.231-.075.018-.007.034-.014.053-.02a3.523 3.523 0 0 0 1.119-.678 3.51 3.51 0 0 0 .854-1.191v.001c.127-.286.21-.595.252-.913l-.003-.003c.023-.15.035-.304.035-.46a3.464 3.464 0 0 0-3.463-3.465c-.51 0-.994.113-1.428.311v-.002a3.35 3.35 0 0 0-.801.5v.004zm5.795 4.16l6.215 2.07c.06-.314.15-.613.279-.901l-6.239-2.085a3.768 3.768 0 0 1-.255.916zm-13.01 2.334v3.736a4.21 4.21 0 0 1 .476-.03c.161 0 .314.013.475.03v-3.736c-.16.017-.313.031-.477.031a4.206 4.206 0 0 1-.474-.031zm3.332 9.519a.34.34 0 0 0 .028-.042c.047-.068.09-.144.135-.213.018-.039.039-.072.058-.109l.089-.182c.022-.059.048-.115.067-.171.021-.048.037-.097.053-.147.025-.078.049-.162.071-.245.007-.032.018-.058.027-.088.048-.241.079-.493.079-.751a3.456 3.456 0 0 0-2.285-3.249l-.11-.042c-.053-.02-.111-.032-.166-.048-.053-.013-.104-.028-.16-.04a3.88 3.88 0 0 0-.742-.082c-.207 0-.406.023-.604.054l-.137.028a2.307 2.307 0 0 0-.181.047c-.044.012-.097.025-.139.04-.056.017-.105.04-.162.058l-.148.055c-.036.018-.067.036-.103.049a3.554 3.554 0 0 0-.658.404c-.01.01-.024.017-.036.027a3.677 3.677 0 0 0-.188.164.197.197 0 0 1-.046.037l-.171.182c-.014.015-.031.031-.04.047a1.686 1.686 0 0 0-.191.242c-.052.066-.1.141-.146.211-.008.016-.018.031-.024.048-.046.072-.085.149-.126.225-.006.017-.015.031-.02.044a2.84 2.84 0 0 0-.11.246 2.958 2.958 0 0 0-.101.303c-.004.006-.004.014-.004.02-.086.297-.13.607-.13.932 0 .129.007.258.02.381.003.025.011.052.015.072.01.096.024.191.046.281.014.053.024.104.042.154.016.061.03.12.051.179.023.067.049.132.069.198.018.039.036.078.049.116.033.077.072.155.114.226a.422.422 0 0 0 .028.061 3.464 3.464 0 0 0 3.032 1.777 3.467 3.467 0 0 0 2.855-1.499zm-2.858-16.829c-.156 0-.315.014-.474.035v.008a3.457 3.457 0 0 0-2.852 4.385c.018.082.047.156.076.232.008.027.02.053.025.074.032.073.061.143.094.214.015.028.025.05.039.072.033.075.072.141.111.206.011.025.025.045.037.068.045.064.089.136.135.197l.039.055c.051.067.106.131.16.195.007.011.018.021.028.032a3.478 3.478 0 0 0 2.107 1.123c.158.021.317.036.474.036a3.492 3.492 0 0 0 2.392-.957l.003-.002c.063-.066.126-.129.189-.198.008-.013.021-.023.032-.034.055-.064.101-.128.149-.191.021-.02.031-.039.048-.061.04-.061.088-.127.129-.194.015-.021.028-.044.043-.069a1.92 1.92 0 0 0 .107-.2.56.56 0 0 0 .038-.083c.037-.066.065-.136.091-.207.014-.023.023-.057.034-.078.026-.078.049-.148.074-.229.007-.021.01-.041.016-.063.023-.086.045-.167.061-.253.003-.006.003-.013.003-.017a3.46 3.46 0 0 0-2.932-4.054v-.008a3.591 3.591 0 0 0-.476-.034zm-25.989 7.504c-.008.076-.012.15-.012.227 0 .041.002.08.004.121 0 .045.004.086.005.129a4.48 4.48 0 0 0 .09.554 3.47 3.47 0 0 0 3.368 2.644 3.465 3.465 0 0 0 3.308-2.428c0-.004.005-.006.005-.008.028-.094.053-.189.072-.286a1.746 1.746 0 0 0 .048-.267c.019-.152.03-.303.03-.459 0-.186-.019-.369-.045-.547l.007-.002a3.486 3.486 0 0 0-.272-.908l-.01.004a3.468 3.468 0 0 0-3.143-2.014 3.46 3.46 0 0 0-3.257 2.295l-.013-.004a3.675 3.675 0 0 0-.188.947l.003.002zm13.871-2.66c.197.455.495.862.858 1.19a3.441 3.441 0 0 0 1.112.678c.021.006.036.013.053.02.075.026.153.049.23.075.058.011.108.024.158.038.042.012.081.02.122.025.088.018.176.033.265.043.023 0 .046.002.068.004a3.466 3.466 0 0 0 3.78-3.449 3.455 3.455 0 0 0-1.238-2.652v-.004a3.325 3.325 0 0 0-.8-.5l-.004.002a3.443 3.443 0 0 0-1.428-.311 3.463 3.463 0 0 0-3.458 3.465c0 .156.009.31.028.46v.003c.043.319.128.627.254.913zm31.267 2.339a3.402 3.402 0 0 0-.048.547c0 .196.019.387.051.576.003.023.006.05.012.074.01.061.03.123.043.188.012.045.021.092.036.141.014.046.033.095.049.144.02.058.036.118.062.172.017.04.035.077.053.116.028.067.055.127.091.188l.05.095c.039.066.074.133.117.189.019.029.032.055.053.079a2.995 2.995 0 0 0 .194.254c.053.071.119.138.18.202a2.863 2.863 0 0 0 .265.239c.003.005.003.01.007.01a3.44 3.44 0 0 0 1.496.718c.009 0 .013.003.021.004.223.045.45.066.684.066.933 0 1.786-.369 2.408-.969.02-.027.046-.051.067-.072a2.241 2.241 0 0 0 .208-.233c.063-.071.124-.153.177-.233.026-.035.049-.072.071-.107.191-.303.335-.633.424-.985v-.003c.05-.195.081-.397.101-.602.004-.041.004-.08.005-.121.005-.043.005-.087.005-.129 0-.076-.006-.15-.01-.227l.001-.002a3.655 3.655 0 0 0-.192-.947l-.008.004a3.46 3.46 0 0 0-3.257-2.295 3.463 3.463 0 0 0-3.14 2.014l-.01-.001a3.32 3.32 0 0 0-.271.905l.005.001zm-5.049 4.951a3.49 3.49 0 0 0-1.266 1.927c0 .002 0 .008-.003.012a3.29 3.29 0 0 0-.085.559c-.002.041-.005.082-.005.122l-.002.128c0 .215.02.422.055.628.004.005.004.011.004.019.015.082.036.166.055.25a.293.293 0 0 1 .021.066c.025.074.049.15.077.224.012.028.018.057.028.081l.091.211c.016.024.025.053.038.08.033.069.069.135.114.199l.042.072c.041.067.085.13.128.193.015.021.028.035.04.056.052.065.102.132.158.196a5.981 5.981 0 0 0 .219.23h.001a3.46 3.46 0 0 0 1.922.922c.151.022.311.04.47.04.162 0 .317-.018.473-.04a3.434 3.434 0 0 0 1.848-.861 3.444 3.444 0 0 0 1.144-2.566 3.466 3.466 0 0 0-4.747-3.217v-.004a3.235 3.235 0 0 0-.82.47v.003zm-.223-.347c.252-.189.526-.354.814-.477l-3.176-4.93c-.239.21-.502.389-.786.533l3.148 4.874zm-13.877-12.194c.163 0 .316.012.477.031v-3.27h-.95v3.27c.157-.019.316-.031.473-.031zm-6.488.874l2.658-4.112h-1.124l-2.336 3.609c.29.137.563.303.802.503zm13.807-.502l-2.334-3.609h-1.128l2.658 4.114c.239-.203.514-.369.804-.505zm-26.954 14.916c0 1.018.441 1.932 1.139 2.566v.002c.23.215.492.395.778.536l.005-.004c.333.163.69.277 1.069.327v.006c.152.024.31.039.473.039.161 0 .316-.015.471-.039v-.006a3.461 3.461 0 0 0 2.991-3.428l-.002-.128c-.002-.04-.003-.081-.007-.122-.004-.052-.012-.106-.014-.164-.011-.07-.02-.143-.035-.212-.008-.051-.021-.106-.032-.155l-.03-.125a2.95 2.95 0 0 0-.072-.23c-.011-.033-.027-.068-.038-.104a4.172 4.172 0 0 0-.145-.325c-.027-.057-.057-.107-.085-.161l-.015-.022a6.754 6.754 0 0 0-.194-.293l-.022-.029a3.17 3.17 0 0 0-.237-.283v-.002a3.962 3.962 0 0 0-.429-.39 3.589 3.589 0 0 0-1.122-.571c-.024-.01-.056-.014-.084-.021a4.339 4.339 0 0 0-.224-.059 4.782 4.782 0 0 0-.252-.035c-.024-.004-.045-.012-.073-.014a3.42 3.42 0 0 0-2.553.775 3.45 3.45 0 0 0-1.261 2.671zm.915-7.834l6.211-2.07a3.864 3.864 0 0 1-.25-.916l-6.235 2.083c.125.289.217.588.274.903zm4.869 4.742l3.149-4.875a3.732 3.732 0 0 1-.781-.533l-3.184 4.934c.294.122.564.286.816.474zm25.154-23.469h-23.049a1.876 1.876 0 0 0-1.875 1.877v3.651c0 1.037.841 1.875 1.875 1.875h23.049a1.877 1.877 0 0 0 1.879-1.875v-3.651a1.878 1.878 0 0 0-1.879-1.877zm-40.503 16.759a.577.577 0 1 1 0 1.154.577.577 0 0 1 0-1.154m0-.612a1.189 1.189 0 1 0 1.19 1.19 1.194 1.194 0 0 0-1.19-1.19zm1.586 1.347c-.026.329-.162.63-.367.869l1.591.655c.032-.327.104-.642.214-.938l-1.438-.586zm-.395 4.477l2.087-.699a3.794 3.794 0 0 1-.351-.883l-2.051.686c.188.251.302.558.315.896zm-1.594-.521c.319 0 .575.261.575.579a.576.576 0 1 1-1.15 0c0-.318.254-.579.575-.579m0-.609a1.19 1.19 0 1 0 .003 2.379 1.19 1.19 0 0 0-.003-2.379zm2.764 4.462c.317 0 .579.256.579.574a.576.576 0 1 1-.579-.574m0-.614c-.652 0-1.188.533-1.188 1.188a1.19 1.19 0 0 0 1.188 1.189 1.19 1.19 0 0 0 1.19-1.189c0-.654-.534-1.188-1.19-1.188zm1.236.183l1.311-2.031a3.958 3.958 0 0 1-.783-.529l-1.314 2.036a1.6 1.6 0 0 1 .786.524zm3.068 1.97a.58.58 0 0 1 .577.578.577.577 0 0 1-1.155 0 .58.58 0 0 1 .578-.578m0-.61a1.19 1.19 0 0 0-1.189 1.188 1.187 1.187 0 1 0 1.189-1.188zm0-.41c.165 0 .321.027.473.072v-2.662a3.534 3.534 0 0 1-.473.033c-.158 0-.316-.012-.472-.033v2.662c.146-.044.306-.072.472-.072zm3.285 6.215l1.309-2.029a4.108 4.108 0 0 1-.78-.53l-1.32 2.046c.311.088.586.271.791.513zm-1.228.444c.321 0 .577.26.577.578a.576.576 0 1 1-1.15 0c0-.319.256-.578.573-.578m0-.61a1.188 1.188 0 1 0 .002 2.372 1.188 1.188 0 0 0-.002-2.372zm4.307 1.867c.316 0 .57.26.57.578a.575.575 0 1 1-1.15 0 .58.58 0 0 1 .58-.578m0-.61c-.658 0-1.192.536-1.192 1.188a1.19 1.19 0 0 0 2.38 0 1.195 1.195 0 0 0-1.188-1.188zm0-.409c.161 0 .323.027.471.072v-2.384c-.154.018-.31.032-.471.032a4.25 4.25 0 0 1-.473-.032v2.384c.145-.045.306-.072.473-.072zm13.117-.49l1.41-2.186a3.634 3.634 0 0 1-.806-.5l-1.396 2.159c.315.094.589.279.792.527zm-1.238.427c.317 0 .577.26.577.574 0 .32-.26.58-.577.58a.581.581 0 0 1-.577-.58.579.579 0 0 1 .577-.574m0-.609a1.188 1.188 0 1 0 0 2.375c.655 0 1.191-.534 1.191-1.191 0-.651-.536-1.184-1.191-1.184zm4.292 2.203c.316 0 .577.262.577.58a.58.58 0 0 1-.577.576.58.58 0 0 1-.577-.576.581.581 0 0 1 .577-.58m0-.611a1.19 1.19 0 0 0 0 2.379 1.19 1.19 0 0 0 0-2.379zm0-.408c.167 0 .324.029.477.075v-2.922a3.959 3.959 0 0 1-.951 0v2.922c.15-.046.312-.075.474-.075zm4.298-.575a.577.577 0 1 1 0 1.154.577.577 0 0 1 0-1.154m0-.609a1.188 1.188 0 1 0-.01 2.377 1.188 1.188 0 0 0 .01-2.377zm-.457-.345l-1.393-2.159a3.684 3.684 0 0 1-.801.502l1.408 2.184c.204-.248.477-.433.786-.527zm12.362 2.036a.58.58 0 0 1 .578.578.58.58 0 0 1-.578.578.578.578 0 0 1 0-1.156m0-.61c-.652 0-1.189.536-1.189 1.188a1.189 1.189 0 1 0 1.189-1.188zm0-.409c.167 0 .323.027.473.072v-2.389a3.672 3.672 0 0 1-.943 0v2.389c.148-.045.308-.072.47-.072zm4.301-.265a.578.578 0 1 1 .005 1.155.578.578 0 0 1-.005-1.155m0-.612a1.188 1.188 0 1 0 1.188 1.188 1.19 1.19 0 0 0-1.188-1.188zm-.449-.344l-1.308-2.023a3.937 3.937 0 0 1-.782.529l1.306 2.018c.2-.247.473-.432.784-.524zm2.509-4.648c.318 0 .58.256.58.574a.578.578 0 0 1-1.157 0c0-.318.259-.574.577-.574m0-.618a1.191 1.191 0 0 0 0 2.38 1.19 1.19 0 0 0 0-2.38zm0-.404c.168 0 .325.024.474.072v-2.658a3.538 3.538 0 0 1-.947 0v2.658a1.58 1.58 0 0 1 .473-.072zm4.306-.525c.315 0 .574.256.574.574a.577.577 0 0 1-.574.578.581.581 0 0 1-.579-.578c0-.318.262-.574.579-.574m0-.614c-.654 0-1.19.533-1.19 1.188 0 .656.536 1.189 1.19 1.189s1.19-.533 1.19-1.189c0-.654-.536-1.188-1.19-1.188zm-.45-.341l-1.309-2.031c-.242.209-.5.386-.786.529l1.309 2.026c.202-.249.472-.431.786-.524zm3.567-2.373a.58.58 0 0 1 .578.578.58.58 0 0 1-.578.576.575.575 0 0 1-.576-.576c0-.319.255-.578.576-.578m0-.612a1.19 1.19 0 0 0-1.189 1.189 1.19 1.19 0 1 0 1.189-1.189zm-49.605 23.793c-.06-.021-.119-.045-.179-.068-.32-.11-.653-.18-.987-.195v.006a3.435 3.435 0 0 0-2.604 1.008 3.446 3.446 0 0 0-.82 3.582c.018.052.031.104.052.148.006.008.006.014.01.021.168.412.417.796.751 1.132 1.354 1.352 3.55 1.357 4.896.01a3.462 3.462 0 0 0-.01-4.896 3.514 3.514 0 0 0-1.109-.748zm-6.338 8.885l2.643-2.648a3.872 3.872 0 0 1-.367-.32 2.688 2.688 0 0 1-.302-.343l-2.641 2.64c.122.094.238.192.348.305.116.114.217.241.319.366zm-6.984-13.323a3.879 3.879 0 0 1-.917-.236l-1.233 5.73c.315.021.628.077.93.18l1.22-5.674zm-12.16-4.745l.017.01a3.46 3.46 0 0 0 1.035 4.235c.025.02.051.037.074.054.05.037.103.072.15.106.063.035.123.073.184.108.044.024.089.045.13.067.067.031.134.063.2.09a.442.442 0 0 0 .086.031c.081.037.163.066.25.09a.468.468 0 0 0 .03.012 3.474 3.474 0 0 0 3.433-.876 3.474 3.474 0 0 0 .764-3.745 1.052 1.052 0 0 1-.042-.093c-.029-.061-.055-.126-.089-.185a2.461 2.461 0 0 0-.095-.176 1.005 1.005 0 0 1-.053-.094 4.872 4.872 0 0 0-.484-.61 3.706 3.706 0 0 0-.351-.302l-.002.002a3.495 3.495 0 0 0-.99-.521l.003-.008a3.555 3.555 0 0 0-.933-.176v.011a3.464 3.464 0 0 0-1.064.11l-.008-.013a3.528 3.528 0 0 0-.875.368l.007.014a3.575 3.575 0 0 0-.681.525c-.05.053-.1.112-.148.168l-.02-.006c-.216.25-.392.521-.528.804zm37.472 30.922a3.175 3.175 0 0 0-.496-.407l-.072-.053c-.056-.034-.115-.067-.173-.101-.043-.024-.082-.049-.125-.072-.03-.016-.058-.027-.084-.038a3.457 3.457 0 0 0-3.933.677 2.913 2.913 0 0 0-.354.421l-.018-.011a3.46 3.46 0 0 0-.446.834l.015.01a3.459 3.459 0 0 0 .803 3.644 3.436 3.436 0 0 0 2.628 1.007c.016 0 .026 0 .045-.002.066-.004.131-.012.197-.022.037-.005.074-.013.11-.013.058-.012.113-.022.163-.028.08-.019.154-.036.229-.057a3.169 3.169 0 0 0 .359-.119l.021-.013a3.47 3.47 0 0 0 1.131-5.657zm-25.28-14.37a3.463 3.463 0 0 0 .876-3.427 3.433 3.433 0 0 0-.871-1.462 3.387 3.387 0 0 0-1.351-.832l.005-.014a3.369 3.369 0 0 0-.926-.18l-.007.016a3.551 3.551 0 0 0-1.448.236l-.011-.01c-.289.11-.561.268-.821.464l.008.015a3.456 3.456 0 0 0-.591 4.928c.071.092.148.18.233.266a3.47 3.47 0 0 0 4.904 0zm12.662 12.66a3.423 3.423 0 0 0 .949-1.776c.002-.004.002-.012.002-.018.014-.082.026-.162.038-.24l.015-.14c.002-.052.002-.106.006-.165.002-.072.006-.144 0-.217a3.36 3.36 0 0 0-.176-.986 3.387 3.387 0 0 0-.83-1.346 3.46 3.46 0 0 0-4.896 0 3.453 3.453 0 0 0-1.005 2.75l-.008.002c.026.311.103.623.214.92h.006c.118.326.296.635.511.915.013.013.019.026.03.036a.333.333 0 0 1 .046.056c.064.067.125.142.193.209a3.47 3.47 0 0 0 4.905 0zm13.193-2.959c.401-.404.683-.883.845-1.394.011-.032.023-.065.035-.105.012-.053.024-.105.038-.156.014-.072.032-.145.042-.216.003-.024.011-.047.011-.069.033-.221.044-.443.033-.666h.004a3.415 3.415 0 0 0-.172-.93l-.008.002a3.314 3.314 0 0 0-.521-.988l.009-.01c-.098-.13-.2-.251-.315-.371a3.7 3.7 0 0 0-.35-.299l-.013.011a3.462 3.462 0 0 0-4.538.309 3.444 3.444 0 0 0-.979 2.907h-.006c.051.37.161.733.332 1.075.012.026.027.049.038.075.156.295.36.572.609.825a3.474 3.474 0 0 0 4.906 0zm-6.284-1.892l-5.673 1.222c.094.305.156.616.174.933l5.747-1.238a3.933 3.933 0 0 1-.248-.917zM368.3-155l-4.769 1.023.792.797 4.191-.902a4.204 4.204 0 0 1-.214-.918zm-10.109-9.42l-.904 4.202.797.797 1.028-4.788a3.94 3.94 0 0 1-.921-.211zm4.9 5.435a5.04 5.04 0 0 1-.306-.346l-2.303 2.311.667.665 2.308-2.308a4.074 4.074 0 0 1-.366-.322zm1.806-19.815a3.463 3.463 0 0 0 1.015-2.421v-.041c0-.078-.01-.154-.01-.234-.004-.035-.006-.074-.008-.111a1.724 1.724 0 0 0-.015-.1 3.446 3.446 0 0 0-.669-1.621l.003-.001a3.275 3.275 0 0 0-.316-.374 4.807 4.807 0 0 0-.352-.303l-.004.009a3.462 3.462 0 0 0-.99-.522l.004-.01a3.225 3.225 0 0 0-.929-.178l-.001.015a3.432 3.432 0 0 0-2.621 1.006 3.457 3.457 0 0 0-.25 4.624c.078.09.156.182.237.263a3.471 3.471 0 0 0 4.906-.001zm-1.517 19.526c.151.15.308.279.478.396.032.024.064.048.098.07.078.047.158.097.237.137a3.467 3.467 0 0 0 5.107-3.018v-.049c0-.073-.006-.148-.009-.225-.005-.04-.005-.079-.008-.119-.005-.029-.013-.059-.018-.085a3.412 3.412 0 0 0-.668-1.635l.004-.001a3.52 3.52 0 0 0-.315-.374 3.914 3.914 0 0 0-.35-.3l-.008.009a3.459 3.459 0 1 0-4.846 4.847c.092.12.188.238.298.347zm18.217 8.262l-5.856-2.924c-.12.29-.276.564-.464.824l5.876 2.939c.113-.292.258-.575.444-.839zm-23.564-20.642l-2.926-5.866a3.715 3.715 0 0 1-.837.447l2.933 5.883c.264-.187.536-.348.83-.464zm4.765 25.67a1.881 1.881 0 0 1-2.655 0l-10.028-10.029a1.878 1.878 0 0 1 0-2.658l2.581-2.578a1.872 1.872 0 0 1 2.652 0l10.03 10.027a1.881 1.881 0 0 1 0 2.657l-2.58 2.581zm25.632 2.943a.584.584 0 0 1 0 .818.584.584 0 0 1-.815 0 .573.573 0 0 1 0-.818.575.575 0 0 1 .815 0m.429-.432a1.19 1.19 0 0 0-1.681 0 1.187 1.187 0 1 0 1.681 0zm-.969-.75l-.663-1.575a3.844 3.844 0 0 1-.808.511l.589 1.42c.258-.213.565-.329.882-.356zm4.143-1.851a.58.58 0 0 1 0 .818.589.589 0 0 1-.816 0 .582.582 0 0 1 0-.818.583.583 0 0 1 .816 0m.433-.434a1.202 1.202 0 0 0-1.683 0 1.193 1.193 0 0 0 0 1.683c.465.464 1.22.464 1.683 0s.463-1.216 0-1.683zm-2.022-.23l-1.953-.979a3.742 3.742 0 0 1-.379.872l1.932.964c.043-.312.176-.613.4-.857zm.619-3.561a1.717 1.717 0 0 1-.028-.451l-2.593.562a3.474 3.474 0 0 1 .195.925l2.611-.563a1.72 1.72 0 0 1-.185-.473zm2.016-.857a.576.576 0 1 1-.813.816.576.576 0 0 1 .813-.816m.433-.432a1.193 1.193 0 0 0-1.681 0 1.185 1.185 0 0 0 0 1.678 1.184 1.184 0 0 0 1.681 0 1.18 1.18 0 0 0 0-1.678zm-.134-8.738a.574.574 0 0 1 0 .813.573.573 0 0 1-.817 0 .572.572 0 0 1 0-.813.579.579 0 0 1 .817 0m.431-.434a1.192 1.192 0 0 0-1.682 0 1.196 1.196 0 0 0 0 1.682 1.191 1.191 0 0 0 1.682 0 1.194 1.194 0 0 0 0-1.682zm-2.428.721l-2.345.506c.094.303.147.613.169.928l2.384-.514a1.56 1.56 0 0 1-.208-.92zm-.159-4.22a.573.573 0 0 1 0 .815.569.569 0 0 1-.813 0 .575.575 0 1 1 .813-.815m.435-.432a1.189 1.189 0 1 0-1.681 1.682 1.189 1.189 0 0 0 1.681-1.682zm-1.971 1.972a1.814 1.814 0 0 1-.272-.365l-1.679 1.678c.123.094.238.195.352.304.114.118.217.239.319.37l1.69-1.693a1.735 1.735 0 0 1-.41-.294zm-7.64-9.178a.563.563 0 0 1 .01.817.579.579 0 0 1-.817 0 .582.582 0 0 1 0-.817.597.597 0 0 1 .71-.086c.036.03.064.058.097.086m.432-.432a1.245 1.245 0 0 0-.198-.163 1.181 1.181 0 0 0-1.467.166 1.182 1.182 0 0 0 0 1.681 1.182 1.182 0 0 0 1.675 0 1.19 1.19 0 0 0 .227-1.369 1.407 1.407 0 0 0-.237-.315zm-2.173 1.73c.005-.004.011-.004.017-.004a1.595 1.595 0 0 1-.262-.933l-2.495.54c.102.3.161.612.187.926l2.539-.548c.004.006.009.014.014.019zm-.185-5.436a.785.785 0 0 1 .195.32.584.584 0 0 1-.164.475.589.589 0 0 1-.822 0 .586.586 0 0 1 0-.818.586.586 0 0 1 .493-.162.762.762 0 0 1 .298.185m.436-.43a1.395 1.395 0 0 0-.588-.351 1.185 1.185 0 0 0-1.062 2.007 1.186 1.186 0 0 0 2.009-1.03 1.401 1.401 0 0 0-.359-.626zm-1.542 2.234a1.561 1.561 0 0 1-.7-.712.241.241 0 0 1-.024.032c.003.012.008.018.009.029l-2.037 2.039c.124.1.251.202.366.32.11.111.211.228.304.346l2.04-2.033.02.002c.003-.007.015-.015.022-.023zm-3.029-3.73a.567.567 0 0 1 .088.115.564.564 0 0 1-.086.697.578.578 0 1 1-.152-.927 1.1 1.1 0 0 1 .15.115m.435-.432a1.622 1.622 0 0 0-.295-.219 1.194 1.194 0 0 0-1.386.212 1.19 1.19 0 0 0 1.681 1.685 1.195 1.195 0 0 0 .173-1.462 2.046 2.046 0 0 0-.173-.216zm-.8 2.429a1.595 1.595 0 0 1-.938-.273c-.003.007-.005.01-.005.014.01.005.017.015.026.019l-.551 2.561c.315.023.627.081.928.18l.54-2.501zm-8.829-9.651a1.55 1.55 0 0 1-.27-.364l-1.683 1.686c.121.095.236.192.348.305.117.119.221.241.318.366l1.698-1.697a1.675 1.675 0 0 1-.411-.296zm1.537-1.536a.567.567 0 0 1 0 .813.572.572 0 0 1-.814 0 .572.572 0 0 1 0-.813.577.577 0 0 1 .814 0m.436-.433a1.194 1.194 0 0 0-1.681 0 1.185 1.185 0 0 0 0 1.682 1.19 1.19 0 0 0 1.681 0 1.194 1.194 0 0 0 0-1.682zm-4.387-1.701a.569.569 0 0 1 0 .813.57.57 0 0 1-.815 0 .576.576 0 0 1 .815-.813m.435-.431a1.195 1.195 0 0 0-1.683 0 1.189 1.189 0 1 0 1.683 0zm-.662 2.421a1.568 1.568 0 0 1-.929-.174l-.509 2.356c.316.022.627.081.929.179l.509-2.361zm-5.193.518a.57.57 0 0 1 0 .815.576.576 0 1 1 0-.815m.431-.434a1.188 1.188 0 0 0-1.677 0 1.196 1.196 0 0 0 0 1.684 1.186 1.186 0 0 0 1.677 0 1.187 1.187 0 0 0 0-1.684zm-1.966 1.972c-.11-.111-.2-.236-.273-.363l-1.867 1.87c.117.094.233.193.342.306.118.115.22.238.322.37l1.884-1.888a1.655 1.655 0 0 1-.408-.295zm-2.825-1.495a1.611 1.611 0 0 1-.932-.176l-.508 2.36c.316.023.627.084.93.182l.51-2.366zm.225-1.995a.582.582 0 0 1 .003.82.583.583 0 0 1-.819 0 .582.582 0 0 1 0-.82.581.581 0 0 1 .816 0m.434-.429a1.195 1.195 0 0 0-1.683 0 1.19 1.19 0 0 0 0 1.678 1.193 1.193 0 0 0 1.683 0 1.184 1.184 0 0 0 0-1.678zm-5.122 1.183a.577.577 0 1 1-.818.814.577.577 0 0 1 .818-.814m.432-.431a1.188 1.188 0 1 0 0 1.68c.46-.462.46-1.216 0-1.68zm.248 2.005a1.606 1.606 0 0 1-.854.41l.979 1.956a3.76 3.76 0 0 1 .871-.374l-.996-1.992zm-2.892 3.478l1.455.603c.131-.285.293-.56.502-.813l-1.591-.666c-.027.312-.15.619-.366.876zm-.816-1.428a.581.581 0 0 1 0 .819.58.58 0 0 1-.815 0 .578.578 0 0 1 .815-.819m.432-.432a1.19 1.19 0 0 0-1.68 0 1.194 1.194 0 0 0 0 1.682 1.19 1.19 0 0 0 1.68-1.682zm67.314 11.802l.181-.068c.319-.11.648-.18.988-.195v.006a3.45 3.45 0 0 1 3.417 4.59.68.68 0 0 1-.052.148c-.002.008-.002.014-.002.021a3.593 3.593 0 0 1-.757 1.132 3.468 3.468 0 0 1-4.897.01 3.461 3.461 0 0 1 .014-4.896 3.499 3.499 0 0 1 1.108-.748zm6.339 8.885l-2.647-2.648c.127-.096.253-.203.367-.32.113-.108.21-.223.305-.343l2.639 2.64c-.12.094-.234.192-.343.305a3.324 3.324 0 0 0-.321.366zm6.981-13.323a3.94 3.94 0 0 0 .92-.236l1.227 5.73a3.615 3.615 0 0 0-.926.18l-1.221-5.674zm12.158-4.745l-.015.01a3.453 3.453 0 0 1-1.039 4.235c-.02.02-.048.037-.068.054-.05.037-.102.072-.15.106-.066.035-.123.073-.187.108-.043.024-.086.045-.128.067-.068.031-.132.063-.201.09a.476.476 0 0 1-.084.031 1.939 1.939 0 0 1-.251.09l-.028.012a3.47 3.47 0 0 1-4.199-4.621l.042-.093c.029-.061.055-.126.086-.185a2.18 2.18 0 0 1 .102-.176c.018-.031.033-.064.053-.094.046-.068.094-.141.145-.211.1-.136.213-.272.338-.399a4.26 4.26 0 0 1 .349-.302l.002.002c.305-.23.639-.402.99-.521l-.004-.008c.306-.1.615-.159.934-.176v.011c.357-.019.717.019 1.066.11l.009-.013c.306.079.599.208.872.368l-.006.014c.239.146.471.314.678.525.057.053.104.112.154.168l.014-.006c.217.25.396.521.526.804zm-37.47 30.922c.153-.156.322-.289.495-.407.022-.016.053-.034.07-.053.058-.034.12-.067.176-.101.047-.024.087-.049.129-.072.023-.016.055-.027.082-.038a3.457 3.457 0 0 1 4.289 1.098l.013-.011c.19.26.34.54.447.834l-.019.01a3.457 3.457 0 0 1-3.432 4.651c-.013 0-.022 0-.038-.002a2.245 2.245 0 0 1-.201-.022c-.035-.005-.072-.013-.111-.013a1.438 1.438 0 0 0-.164-.028c-.073-.019-.149-.036-.224-.057a2.995 2.995 0 0 1-.359-.119l-.019-.013a3.378 3.378 0 0 1-1.136-.754 3.476 3.476 0 0 1 .002-4.903zm25.279-14.37a3.466 3.466 0 0 1-.874-3.427 3.413 3.413 0 0 1 .871-1.462 3.357 3.357 0 0 1 1.35-.832l-.007-.014c.299-.104.615-.164.93-.18l.008.016a3.54 3.54 0 0 1 1.446.236l.007-.01c.291.11.568.268.82.464l-.006.015c.124.094.24.191.354.305a3.459 3.459 0 0 1 .24 4.623c-.071.092-.146.18-.234.266a3.471 3.471 0 0 1-4.905 0zm-12.661 12.66a3.443 3.443 0 0 1-.948-1.776c-.003-.004-.003-.012-.003-.018-.018-.082-.026-.162-.037-.24-.004-.049-.01-.093-.015-.14-.004-.052-.004-.106-.005-.165a1.21 1.21 0 0 1 0-.217c.01-.334.067-.667.171-.986.166-.49.441-.955.83-1.346a3.469 3.469 0 0 1 4.903 0 3.458 3.458 0 0 1 .999 2.75l.011.002a3.56 3.56 0 0 1-.216.92h-.003a3.59 3.59 0 0 1-.513.915c-.014.013-.023.026-.032.036-.012.018-.031.037-.046.056-.063.067-.128.142-.19.209a3.47 3.47 0 0 1-4.906 0zm-13.192-2.959a3.448 3.448 0 0 1-.846-1.394c-.015-.032-.023-.065-.033-.105-.018-.053-.026-.105-.039-.156-.016-.072-.034-.145-.042-.216-.003-.024-.01-.047-.013-.069a3.532 3.532 0 0 1-.031-.666h-.003c.015-.313.069-.629.169-.93l.008.002c.12-.354.291-.685.523-.988l-.011-.01c.097-.13.202-.251.317-.371.112-.11.231-.209.354-.299l.011.011a3.458 3.458 0 0 1 5.515 3.216h.003c-.046.37-.16.733-.333 1.075-.007.026-.019.049-.032.075a3.47 3.47 0 0 1-5.517.825zm6.281-1.892l5.675 1.222a3.73 3.73 0 0 0-.174.933l-5.746-1.238c.123-.298.202-.606.245-.917zM421.78-155l4.776 1.023-.799.797-4.189-.902a3.93 3.93 0 0 0 .212-.918zm10.116-9.42l.901 4.202-.8.797-1.027-4.788c.31-.03.621-.106.926-.211zm-4.903 5.435c.109-.109.206-.227.302-.346l2.305 2.311-.666.665-2.313-2.308c.126-.1.253-.204.372-.322zm-1.805-19.815a3.456 3.456 0 0 1-1.017-2.421v-.041c0-.078.007-.154.01-.234.003-.035.003-.074.011-.111a3.43 3.43 0 0 1 .683-1.721l-.006-.001c.099-.131.202-.256.319-.374.109-.108.228-.207.35-.303l.004.009c.306-.229.639-.406.989-.522l-.006-.01a3.27 3.27 0 0 1 .93-.178l.007.015a3.422 3.422 0 0 1 2.617 1.006 3.458 3.458 0 0 1 .245 4.624c-.075.09-.147.182-.231.263a3.47 3.47 0 0 1-4.905-.001zm1.512 19.526a3.27 3.27 0 0 1-.472.396c-.036.024-.072.048-.102.07-.079.047-.157.097-.237.137-.014.009-.022.017-.033.021a3.471 3.471 0 0 1-5.075-3.039v-.049c0-.073.011-.148.011-.225.006-.04.007-.079.009-.119a.557.557 0 0 1 .016-.085 3.357 3.357 0 0 1 .67-1.635l-.005-.001c.093-.133.2-.256.314-.374.112-.11.231-.207.353-.3l.005.009a3.463 3.463 0 0 1 4.54.309 3.464 3.464 0 0 1 .311 4.538c-.093.12-.189.238-.305.347zm-18.213 8.262l5.859-2.924c.116.29.275.564.463.824l-5.883 2.939a3.82 3.82 0 0 0-.439-.839zm23.564-20.642l2.926-5.866c.267.188.546.336.835.447l-2.937 5.883a3.857 3.857 0 0 0-.824-.464zm-4.765 25.67a1.882 1.882 0 0 0 2.656 0l10.029-10.029a1.878 1.878 0 0 0 0-2.658l-2.58-2.578a1.878 1.878 0 0 0-2.657 0l-10.028 10.027a1.876 1.876 0 0 0 0 2.657l2.58 2.581zm-25.636 2.943a.578.578 0 0 1 .818 0 .573.573 0 0 1 0 .818.587.587 0 0 1-.818 0 .582.582 0 0 1 0-.818m-.427-.432a1.179 1.179 0 0 0 0 1.68 1.19 1.19 0 0 0 1.68 0 1.186 1.186 0 0 0 0-1.68 1.19 1.19 0 0 0-1.68 0zm.969-.75l.66-1.575c.252.207.525.376.813.511l-.595 1.42a1.554 1.554 0 0 0-.878-.356zm-4.142-1.851a.586.586 0 0 1 .818 0 .582.582 0 0 1 0 .818.591.591 0 0 1-.818 0 .576.576 0 0 1 0-.818m-.435-.434a1.202 1.202 0 0 0 0 1.683 1.187 1.187 0 0 0 1.679 0 1.186 1.186 0 0 0 .004-1.683 1.202 1.202 0 0 0-1.683 0zm2.025-.23l1.954-.979c.086.306.211.594.375.872l-1.933.964a1.57 1.57 0 0 0-.396-.857zm-.622-3.561c.032-.149.046-.304.032-.451l2.592.562a4.545 4.545 0 0 0-.128.444 4.572 4.572 0 0 0-.07.481l-2.609-.563c.083-.144.144-.301.183-.473zm-2.019-.857a.578.578 0 1 1 .82.816.578.578 0 0 1-.82-.816m-.43-.432a1.189 1.189 0 0 0 0 1.678c.464.467 1.22.467 1.679 0a1.185 1.185 0 0 0 0-1.678 1.19 1.19 0 0 0-1.679 0zm.137-8.738a.575.575 0 0 1 .814 0c.23.227.23.592 0 .813a.57.57 0 0 1-.814 0 .57.57 0 0 1 0-.813m-.435-.434a1.194 1.194 0 0 0 0 1.682 1.197 1.197 0 0 0 1.687 0 1.201 1.201 0 0 0 0-1.682 1.198 1.198 0 0 0-1.687 0zm2.429.721l2.352.506a3.558 3.558 0 0 0-.171.928l-2.39-.514c.164-.282.238-.6.209-.92zm.161-4.22a.575.575 0 1 1 .813.815.569.569 0 0 1-.813 0 .571.571 0 0 1 0-.815m-.436-.432a1.195 1.195 0 0 0 0 1.683 1.19 1.19 0 1 0 0-1.683zm1.971 1.972a1.55 1.55 0 0 0 .271-.365l1.678 1.678a4.869 4.869 0 0 0-.347.304 3.854 3.854 0 0 0-.318.37l-1.692-1.693c.145-.075.284-.175.408-.294zm7.64-9.178c.03-.028.065-.057.1-.086a.589.589 0 0 1 .704.086.576.576 0 1 1-.815.817.568.568 0 0 1 .011-.817m-.432-.432a1.51 1.51 0 0 0-.236.314c-.221.441-.145.999.224 1.369a1.189 1.189 0 1 0 .212-1.847 1.363 1.363 0 0 0-.2.164zm2.172 1.73c-.006-.004-.01-.004-.016-.004.188-.282.275-.609.266-.933l2.492.54c-.101.3-.162.612-.186.926l-2.544-.548a.036.036 0 0 1-.012.019zm.186-5.436a.795.795 0 0 1 .3-.186.57.57 0 0 1 .485.162.578.578 0 1 1-.981.343.83.83 0 0 1 .196-.319m-.433-.43c-.181.179-.3.396-.36.626a1.2 1.2 0 0 0 .329 1.03 1.192 1.192 0 0 0 1.682 0 1.193 1.193 0 0 0 0-1.684 1.177 1.177 0 0 0-1.065-.323c-.211.063-.416.18-.586.351zm1.537 2.234c.146-.074.284-.17.402-.291.127-.123.225-.268.299-.421.011.013.016.024.025.032-.003.012-.003.018-.011.029l2.039 2.039c-.125.1-.247.202-.368.32a5.813 5.813 0 0 0-.303.346l-2.037-2.033c-.004 0-.014 0-.023.002a.1.1 0 0 0-.023-.023zm3.032-3.73a.776.776 0 0 1 .152-.115.577.577 0 1 1-.155.927.567.567 0 0 1 .003-.812m-.43-.432c-.07.069-.13.141-.179.216a1.19 1.19 0 0 0 1.856 1.462 1.2 1.2 0 0 0 0-1.685 1.194 1.194 0 0 0-1.386-.212 1.53 1.53 0 0 0-.291.219zm.795 2.429c.326.01.657-.083.934-.273.003.007.006.01.009.014-.01.005-.016.015-.023.019l.549 2.561a3.906 3.906 0 0 0-.929.18l-.54-2.501zm8.825-9.651c.109-.108.199-.23.272-.364l1.68 1.686a4.04 4.04 0 0 0-.344.305 3.977 3.977 0 0 0-.319.366l-1.697-1.697c.147-.076.283-.174.408-.296zm-1.536-1.536a.576.576 0 1 1 .815.815.576.576 0 0 1-.815-.815m-.434-.433a1.194 1.194 0 0 0 0 1.682 1.197 1.197 0 0 0 1.686 0 1.195 1.195 0 0 0-.005-1.682 1.194 1.194 0 0 0-1.681 0zm4.386-1.701a.578.578 0 0 1 .816 0 .578.578 0 0 1 0 .813.57.57 0 0 1-.816 0 .574.574 0 0 1 0-.813m-.431-.431a1.18 1.18 0 0 0 0 1.678 1.19 1.19 0 0 0 1.682 0 1.198 1.198 0 0 0 0-1.678 1.194 1.194 0 0 0-1.682 0zm.659 2.421c.315.039.642-.021.934-.174l.503 2.356a3.931 3.931 0 0 0-.93.179l-.507-2.361zm5.195.518a.572.572 0 0 1 .814.001.575.575 0 1 1-.814-.001m-.434-.434a1.188 1.188 0 1 0 1.679 1.686 1.188 1.188 0 0 0-1.679-1.686zm1.968 1.972a1.87 1.87 0 0 0 .272-.363l1.868 1.87a3.546 3.546 0 0 0-.664.676l-1.885-1.888a1.66 1.66 0 0 0 .409-.295zm2.825-1.495c.317.033.643-.021.93-.176l.513 2.36a3.974 3.974 0 0 0-.932.182l-.511-2.366zm-.225-1.995a.583.583 0 0 1 .819 0 .59.59 0 0 1 0 .82.586.586 0 0 1-.821 0 .587.587 0 0 1 .002-.82m-.433-.429a1.187 1.187 0 1 0 1.681 1.678 1.184 1.184 0 0 0 0-1.678 1.193 1.193 0 0 0-1.681 0zm5.12 1.183a.576.576 0 0 1 .816 0 .57.57 0 0 1 0 .814.574.574 0 0 1-.816 0 .579.579 0 0 1 0-.814m-.43-.431a1.188 1.188 0 1 0 1.683 0 1.191 1.191 0 0 0-1.683 0zm-.25 2.005c.248.228.545.364.853.41l-.975 1.956a3.862 3.862 0 0 0-.872-.374l.994-1.992zm2.887 3.478l-1.448.603a3.875 3.875 0 0 0-.503-.813l1.592-.666c.027.312.146.619.359.876zm.82-1.428a.58.58 0 0 1 .818 0 .583.583 0 0 1 0 .819.584.584 0 0 1-.818 0 .583.583 0 0 1 0-.819m-.429-.432a1.187 1.187 0 1 0 1.678 1.684 1.187 1.187 0 0 0-1.678-1.684z"/><g fill="#FFF"><path d="M175.935-271.854c-.191 0-.384-.04-.567-.126l-39.324-18.324a1.342 1.342 0 0 1-.65-1.785 1.342 1.342 0 0 1 1.786-.651l39.324 18.324c.672.313.964 1.114.651 1.787a1.347 1.347 0 0 1-1.22.775z"/><path d="M165.951-269.316a1.343 1.343 0 0 1-.33-2.646l8.457-2.151-3.453-8.012a1.345 1.345 0 0 1 2.469-1.064l4.076 9.458a1.343 1.343 0 0 1-.903 1.834l-9.984 2.539a1.27 1.27 0 0 1-.332.042zm-25.264-11.466a1.346 1.346 0 0 1-1.235-.812l-4.077-9.46a1.34 1.34 0 0 1 .903-1.834l9.985-2.539a1.344 1.344 0 0 1 .663 2.605l-8.458 2.151 3.454 8.013a1.344 1.344 0 0 1-1.235 1.876z"/></g><g fill="#FFF"><path d="M475.681-348.318h-7.154l1.211 1.212h-50.73l2.793-4.841a3.528 3.528 0 0 0 1.794.5 3.522 3.522 0 1 0 0-7.046 3.517 3.517 0 0 0-3.516 3.441h-15.454l-4.744-8.217-2.983-5.161a3.525 3.525 0 0 0-1.762-6.578 3.52 3.52 0 0 0-3.515 3.521c0 1.306.705 2.442 1.757 3.057l-2.982 5.161-4.743 8.217h-15.446a3.523 3.523 0 1 0-7.047.008 3.52 3.52 0 0 0 3.524 3.521c.645 0 1.247-.171 1.766-.474l2.823 4.892h-50.926l1.212-1.212h-7.154v7.149l1.208-1.207v7.525l-1.208-1.211v7.156l7.154-.006-1.234-1.235h50.948l-2.792 4.84a3.494 3.494 0 0 0-1.797-.497 3.526 3.526 0 0 0 0 7.05 3.518 3.518 0 0 0 3.517-3.445h5.969l9.484.003 4.743 8.217 2.982 5.164a3.51 3.51 0 0 0-1.757 3.046 3.519 3.519 0 0 0 3.515 3.525 3.526 3.526 0 0 0 3.526-3.525 3.51 3.51 0 0 0-1.764-3.046l2.98-5.164 4.747-8.22 9.482.003 5.966-.003a3.522 3.522 0 1 0 1.756-3.057l-2.822-4.891h50.755l-1.235 1.241 7.154-.006v-7.15l-1.212 1.211v-7.525l1.212 1.207v-7.15zm-3.032 5.943v10.414H415.86l1.57 2.723 2.823 4.893.19.332h-16.868l-.524.907-4.743 8.22-2.984 5.163-.191.325-.185-.325-2.981-5.163-4.743-8.22-.524-.907h-16.872l.224-.384 2.788-4.84 1.574-2.723h-56.985l.003-2.889v-7.525l-.003-2.917h56.987l-1.576-2.72-2.82-4.89-.191-.336h16.872l.524-.907 4.743-8.213 2.981-5.17.188-.324.188.324 2.984 5.17 4.743 8.213.524.907h16.868l-.222.387-2.792 4.839-1.57 2.72h56.788v2.916z"/><path d="M426.543-339.896c0 1.787-1.436 3.226-3.293 3.226h-1.413v2.963h-2.155v-9.422h3.568c1.857 0 3.293 1.44 3.293 3.233zm-2.149 0c0-.689-.485-1.212-1.144-1.214h-1.413v2.421h1.413c.658 0 1.144-.523 1.144-1.207zm3.699 1.478c0-2.774 2.192-4.901 4.899-4.901 2.706 0 4.897 2.127 4.897 4.901 0 2.771-2.191 4.898-4.897 4.898-2.707.001-4.899-2.127-4.899-4.898zm7.649 0c0-1.684-1.213-2.8-2.75-2.8-1.532 0-2.745 1.116-2.745 2.8 0 1.68 1.213 2.799 2.745 2.799 1.537 0 2.743-1.119 2.75-2.799zm9.819 2.64v2.071h-5.517v-9.422h2.154v7.351h3.363zm4.036-7.351v9.422h-2.151v-9.422h2.151zm2.156 4.711c0-2.774 2.057-4.901 4.899-4.901 1.709 0 3.215.851 4.037 2.184l-1.857 1.076c-.417-.728-1.227-1.158-2.18-1.158-1.67 0-2.748 1.116-2.748 2.8 0 1.68 1.078 2.799 2.748 2.799.953 0 1.779-.431 2.18-1.158l1.857 1.078c-.809 1.334-2.314 2.18-4.037 2.18-2.842-.001-4.899-2.129-4.899-4.9zm16.807 2.636v2.076h-5.921v-9.422h5.858v2.072h-3.705v1.563l3.368-.004v2.05h-3.368v1.669l3.768-.004zm-146.706-2.783c0-2.771 2.057-4.899 4.896-4.899 1.71 0 3.224.85 4.036 2.183l-1.851 1.074c-.418-.725-1.226-1.153-2.185-1.156-1.668 0-2.745 1.115-2.745 2.798 0 1.685 1.076 2.8 2.745 2.8.959 0 1.781-.431 2.185-1.157l1.857 1.077c-.814 1.335-2.319 2.181-4.042 2.181-2.84 0-4.896-2.128-4.896-4.901zm13.12 1.618h-1.024v3.094h-2.151v-9.422h3.765a3.22 3.22 0 0 1 3.231 3.229c0 1.161-.696 2.211-1.734 2.734l2.001 3.458h-2.314l-1.774-3.093zm-1.024-1.886h1.614c.592 0 1.079-.522 1.079-1.213 0-.684-.487-1.207-1.079-1.207h-1.614v2.42zm10.361 1.361v3.62h-2.15v-3.62l-3.164-5.803h2.45l1.789 3.639 1.791-3.639h2.449l-3.165 5.803zm10.833-2.574c0 1.792-1.437 3.23-3.296 3.23h-1.416l.003 2.962h-2.15v-9.422h3.563c1.859.001 3.296 1.44 3.296 3.23zm-2.15 0c0-.684-.484-1.207-1.146-1.207h-1.413v2.42h1.413c.662 0 1.146-.527 1.146-1.213zm9.42-1.158h-2.424v7.351h-2.156v-7.351h-2.42v-2.071h7.001v2.071zm-.002 2.639c0-2.771 2.192-4.899 4.9-4.899 2.702 0 4.898 2.128 4.898 4.901 0 2.776-2.196 4.898-4.898 4.898-2.708.001-4.9-2.127-4.9-4.9zm7.649.002c0-1.685-1.215-2.8-2.748-2.798-1.535 0-2.747 1.113-2.747 2.796 0 1.685 1.212 2.8 2.747 2.8 1.533.001 2.748-1.115 2.748-2.798zm7.926 0l-3.496-6.059 2.297 6.059-2.297 6.064zm34.19-.059l3.503 6.058-2.296-6.058 2.296-6.064zm-17.323-22.08l.3-.515.3.515 4.74 8.215 1.241 2.153a13.417 13.417 0 0 0-6.281-1.554c-2.272 0-4.414.564-6.289 1.554l1.246-2.153 4.743-8.215zm-19.268 10.782l.295.515 4.746 8.217 1.089 1.885a13.449 13.449 0 0 1 6.425-10.616h-12.555zm10.083 22.595h1.841a13.453 13.453 0 0 1-5.818-10.583l-1.064 1.849-4.746 8.216-.295.518h10.082zm14.525 2.566l.906-1.573c-1.795.885-3.811 1.386-5.946 1.386s-4.157-.501-5.95-1.386l.907 1.573 4.743 8.215.3.514.3-.514 4.74-8.215zm14.531-2.566l-.302-.518-4.744-8.216-1.064-1.849c-.162 4.388-2.432 8.241-5.82 10.583h11.93zm0-22.595h-12.556a13.485 13.485 0 0 1 6.426 10.616l1.084-1.885 4.744-8.217.302-.514zm-16.14 9.098c0-.588-.396-1.015-.995-1.015h-4.921v2.028h4.921c.585.001.995-.422.995-1.013zm-.668 3.333h-5.248v2.197h5.248c.652 0 1.074-.46 1.074-1.096 0-.639-.422-1.101-1.074-1.101z"/><path d="M395.154-349.468c-6.093 0-11.053 4.959-11.053 11.05 0 6.092 4.96 11.052 11.053 11.052s11.05-4.96 11.05-11.052c0-6.091-4.957-11.05-11.05-11.05zm2.763 16.625h-.399v2.126h-1.931v-2.126h-.976v2.126h-1.928v-2.122h-3.86v-2.44h1.228v-6.562h-1.228v-2.448h3.86v-2.124h1.928v2.124h.976v-2.124h1.931v2.124h.072c1.993 0 3.611 1.292 3.611 3.271 0 .948-.375 1.701-.997 2.239.851.544 1.405 1.423 1.405 2.586 0 2.029-1.651 3.35-3.692 3.35z"/></g><g fill-rule="evenodd" clip-rule="evenodd" fill="#FFF"><path d="M694.726-288.708v-.65c0-5.278-.02-10.55.008-15.827.017-4.805 3.021-8.505 7.653-9.495 3.927-.836 8.232 1.206 10.116 4.777.793 1.501 1.122 3.089 1.11 4.788-.024 5.223-.01 10.449-.004 15.671v.736h-18.883zm15.471-33.738c-.021 3.291-2.756 5.975-6.068 5.947-3.312-.023-5.96-2.727-5.936-6.062.03-3.332 2.748-6.044 6.014-5.997 3.356.045 6.002 2.749 5.99 6.112zm10.898 33.738v-.65c0-5.278-.017-10.55.007-15.827.02-4.805 3.022-8.505 7.654-9.495 3.927-.836 8.228 1.206 10.116 4.777.793 1.501 1.119 3.089 1.108 4.788-.026 5.223-.005 10.449 0 15.671v.736h-18.885zm15.468-33.738c-.017 3.291-2.755 5.975-6.064 5.947-3.315-.023-5.957-2.727-5.941-6.062.032-3.332 2.75-6.044 6.02-5.997 3.356.045 6 2.749 5.985 6.112zm-68.207 33.738v-.65c0-5.278-.018-10.55.006-15.827.02-4.805 3.028-8.505 7.653-9.495 3.933-.836 8.233 1.206 10.121 4.777.792 1.501 1.116 3.089 1.11 4.788-.027 5.223-.007 10.449-.003 15.671v.736h-18.887zm15.474-33.738c-.02 3.291-2.759 5.975-6.068 5.947-3.313-.023-5.962-2.727-5.937-6.062.029-3.332 2.746-6.044 6.015-5.997 3.358.045 5.999 2.749 5.99 6.112z"/><path d="M710.791-305.259v-.457c0-3.676-.015-7.354.003-11.033.014-3.352 2.109-5.932 5.338-6.622 2.739-.583 5.74.842 7.057 3.333.55 1.045.777 2.155.771 3.336-.015 3.644-.006 7.288 0 10.929v.514h-13.169zm10.788-23.526c-.013 2.295-1.922 4.167-4.235 4.148-2.307-.019-4.153-1.904-4.135-4.228.017-2.326 1.914-4.214 4.191-4.184a4.222 4.222 0 0 1 4.179 4.264zm-37.256 23.526v-.457c0-3.676-.012-7.354.003-11.033.015-3.352 2.108-5.932 5.338-6.622 2.742-.583 5.74.842 7.057 3.333.553 1.045.777 2.155.771 3.336-.014 3.644-.005 7.288 0 10.929v.514h-13.169zm10.787-23.526c-.011 2.295-1.92 4.167-4.231 4.148a4.174 4.174 0 0 1-4.137-4.228c.019-2.326 1.913-4.214 4.191-4.184a4.219 4.219 0 0 1 4.177 4.264z"/></g><g fill-rule="evenodd" clip-rule="evenodd" fill="#FFF"><path d="M694.728-179.18v-.651c0-5.275-.02-10.549.006-15.827.021-4.805 3.026-8.506 7.656-9.493 3.926-.838 8.229 1.204 10.113 4.776.796 1.502 1.124 3.092 1.114 4.785-.026 5.229-.01 10.449-.004 15.674v.736h-18.885zm15.469-33.736c-.019 3.288-2.754 5.973-6.066 5.946-3.311-.024-5.96-2.728-5.936-6.062.031-3.333 2.748-6.046 6.015-6 3.355.046 6 2.752 5.987 6.116zm10.898 33.736v-.651c0-5.275-.014-10.549.007-15.827.021-4.805 3.026-8.506 7.657-9.493 3.928-.838 8.229 1.204 10.115 4.776.792 1.502 1.119 3.092 1.108 4.785-.026 5.229-.003 10.449 0 15.674v.736h-18.887zm15.472-33.736c-.019 3.288-2.758 5.973-6.068 5.946-3.313-.024-5.955-2.728-5.938-6.062.029-3.333 2.746-6.046 6.019-6 3.354.046 6 2.752 5.987 6.116zm-68.206 33.736v-.651c0-5.275-.02-10.549.004-15.827.019-4.805 3.025-8.506 7.652-9.493 3.933-.838 8.238 1.204 10.122 4.776.79 1.502 1.116 3.092 1.109 4.785-.029 5.229-.009 10.449-.005 15.674v.736h-18.882zm15.474-33.736c-.021 3.288-2.762 5.973-6.071 5.946-3.313-.024-5.96-2.728-5.935-6.062.026-3.333 2.742-6.046 6.014-6 3.358.046 5.999 2.752 5.992 6.116z"/><path d="M710.791-195.731v-.456c0-3.678-.01-7.356.006-11.034.013-3.352 2.108-5.932 5.339-6.623 2.738-.581 5.739.846 7.053 3.334.553 1.045.78 2.153.773 3.338-.017 3.641-.008 7.288 0 10.928v.514l-13.171-.001zm10.79-23.525c-.015 2.295-1.922 4.165-4.235 4.148-2.309-.021-4.151-1.906-4.135-4.229.018-2.322 1.915-4.215 4.192-4.185a4.222 4.222 0 0 1 4.178 4.266zm-37.255 23.525v-.456c0-3.678-.011-7.356.003-11.034.015-3.352 2.108-5.932 5.339-6.623 2.739-.581 5.74.846 7.056 3.334.551 1.045.777 2.153.771 3.338-.016 3.641-.006 7.288 0 10.928v.514l-13.169-.001zm10.788-23.525c-.012 2.295-1.923 4.165-4.233 4.148a4.18 4.18 0 0 1-4.137-4.229c.02-2.322 1.916-4.215 4.192-4.185a4.219 4.219 0 0 1 4.178 4.266z"/></g><path fill="#FFF" d="M394.85-116.987c-32.439 0-58.833-26.391-58.833-58.832 0-32.439 26.393-58.83 58.833-58.83s58.833 26.391 58.833 58.83c0 32.442-26.393 58.832-58.833 58.832zm0-114.974c-30.958 0-56.144 25.186-56.144 56.143 0 30.959 25.186 56.146 56.144 56.146s56.146-25.187 56.146-56.146c-.001-30.958-25.188-56.143-56.146-56.143z"/><path fill="#FFF" d="M337.361-175.779a1.345 1.345 0 0 1-1.344-1.345v-150.242a1.344 1.344 0 0 1 2.689 0v150.242c0 .743-.602 1.345-1.345 1.345zm114.977-.058a1.344 1.344 0 0 1-1.343-1.345v-150.243a1.343 1.343 0 1 1 2.688 0v150.243c0 .742-.601 1.345-1.345 1.345zm150.501 58.85h-91.122c-8.53 0-15.47-6.94-15.47-15.471V-361.06c0-8.531 6.939-15.47 15.47-15.47h91.122c8.531 0 15.472 6.939 15.472 15.47v228.603c0 8.53-6.941 15.47-15.472 15.47zm-91.122-256.855c-7.049 0-12.781 5.734-12.781 12.782v228.603c0 7.048 5.732 12.784 12.781 12.784h91.122c7.047 0 12.782-5.736 12.782-12.784V-361.06c0-7.048-5.735-12.782-12.782-12.782h-91.122z"/><g fill="#FFF"><path d="M135.87-196.559a1.347 1.347 0 0 1-.46-2.611l40.76-14.847a1.34 1.34 0 0 1 1.723.803 1.344 1.344 0 0 1-.802 1.723l-40.761 14.848a1.306 1.306 0 0 1-.46.084z"/><path d="M145.437-192.752c-.166 0-.333-.031-.497-.1l-9.567-3.805a1.343 1.343 0 0 1-.658-1.934l5.261-8.855a1.343 1.343 0 1 1 2.311 1.373l-4.457 7.501 8.105 3.225a1.345 1.345 0 0 1-.498 2.595zm25.973-9.76a1.342 1.342 0 0 1-1.154-2.031l4.462-7.5-8.11-3.225a1.343 1.343 0 1 1 .994-2.496l9.574 3.805c.365.145.65.443.777.815a1.35 1.35 0 0 1-.118 1.121l-5.268 8.853c-.253.424-.7.658-1.157.658z"/></g></svg>