<svg xmlns="http://www.w3.org/2000/svg" width="768.772" height="264.484" viewBox="0 0 768.772 264.484"><linearGradient id="a" gradientUnits="userSpaceOnUse" x1="883.153" y1="1504.648" x2="1143.032" y2="1504.648" gradientTransform="rotate(-90 103.136 1041.241)"><stop offset="0" stop-color="#706dcb" stop-opacity="0"/><stop offset="1" stop-color="#706dcb" stop-opacity=".7"/></linearGradient><path fill="url(#a)" d="M613.066 261.224c7.29 0 13.223-5.932 13.223-13.223V14.568c0-7.292-5.933-13.223-13.223-13.223H520.02c-7.29 0-13.223 5.932-13.223 13.223V248c0 7.291 5.933 13.223 13.223 13.223h93.046z"/><linearGradient id="b" gradientUnits="userSpaceOnUse" x1="-647.474" y1="584.484" x2="-532.473" y2="584.484" gradientTransform="rotate(90 95.16 890.5)"><stop offset="0" stop-color="#706dcb" stop-opacity="0"/><stop offset="1" stop-color="#706dcb" stop-opacity=".7"/></linearGradient><path fill="url(#b)" d="M401.177 262.867c-31.707 0-57.5-25.795-57.5-57.501 0-31.706 25.793-57.5 57.5-57.5s57.5 25.794 57.5 57.5-25.793 57.501-57.5 57.501z"/><linearGradient id="c" gradientUnits="userSpaceOnUse" x1="-734.489" y1="584.484" x2="-606.737" y2="584.484" gradientTransform="rotate(90 95.16 890.5)"><stop offset="0" stop-color="#706dcb" stop-opacity="0"/><stop offset="1" stop-color="#706dcb" stop-opacity=".7"/></linearGradient><path fill="url(#c)" d="M401.177 145.461c-27.213 0-50.231 18.246-57.5 43.142V60.851h115v127.752c-7.269-24.895-30.287-43.142-57.5-43.142z"/><path d="M397.307 0h-40.872c-8.617 0-15.627 7.011-15.627 15.627v11.096h2.404V15.627c0-7.292 5.932-13.224 13.223-13.224h38.951A6.134 6.134 0 0 1 397.307 0zm47.365 0h-39.991a6.136 6.136 0 0 1 1.92 2.404h38.071c7.291 0 13.223 5.932 13.223 13.224v11.096h2.404V15.627c0-8.616-7.01-15.627-15.627-15.627z" fill="#FFF"/><linearGradient id="d" gradientUnits="userSpaceOnUse" x1="6433.815" y1="1097.548" x2="6433.815" y2="1141.966" gradientTransform="rotate(180 3253.1 668.068)"><stop offset=".091" stop-color="#706dcb" stop-opacity="0"/><stop offset="1" stop-color="#706dcb" stop-opacity=".7"/></linearGradient><path fill="url(#d)" d="M28.909 194.171h86.953v44.418H28.909z"/><text transform="translate(56.926 218.788)" fill="#FFF" font-family="'Gilroy-ExtraBold'" font-size="12.13">user</text><path d="M121.104 246.447h-99.49L5.729 258.365v5.823H136.99v-5.823zm0-59.363h-99.49v56.188h99.49v-56.188zm-8.09 48.907H29.707v-41.522h83.307v41.522z" fill-rule="evenodd" clip-rule="evenodd" fill="#FFF"/><linearGradient id="e" gradientUnits="userSpaceOnUse" x1="3234.79" y1="3855.517" x2="3323.079" y2="3855.517" gradientTransform="rotate(90 3579.121 345.108)"><stop offset="0" stop-color="#706dcb" stop-opacity="0"/><stop offset="1" stop-color="#706dcb" stop-opacity=".7"/></linearGradient><path fill="url(#e)" d="M30.226 89.066h-.012c-4.897 0-9.439-1.074-13.516-3.203-5.551-2.899-9.78-7.194-12.578-12.773a27.978 27.978 0 0 1-2.925-10.848l-.072-.742.018-2.683c.136-1.621.375-3.753.971-5.905a28.24 28.24 0 0 1 6.082-11.227c2.473-2.806 5.464-5.102 8.895-6.819.227-.109.449-.216.67-.315.546-3.147 1.77-6.084 3.638-8.747 2.958-4.219 6.934-7.071 11.832-8.479 3.072-.885 6.176-1.072 9.183-.564 1.698.29 3.362.809 5.042 1.568C51.86 11.401 57.865 6.391 65.356 3.393c7.56-3.029 15.59-3.43 23.596-1.186 8.414 2.353 15.278 7.162 20.41 14.301 4.386 6.095 6.735 12.881 7.02 20.217 4.954 1.297 9.245 3.84 12.782 7.586 4.206 4.448 6.581 9.788 7.057 15.862.37 4.756-.49 9.341-2.561 13.629-2.087 4.345-5.179 7.928-9.181 10.649-3.454 2.347-7.239 3.801-11.266 4.326-1.357.182-2.784.27-4.245.27-16.404.012-32.804.015-49.212.015l-29.53.004z"/><path fill="none" stroke="#FFF" stroke-width="2" stroke-linecap="round" stroke-linejoin="round" stroke-miterlimit="10" d="M30.104 89.514h-.012c-4.896 0-9.439-1.074-13.516-3.203-5.551-2.899-9.78-7.194-12.578-12.774A27.974 27.974 0 0 1 1.073 62.69L1 61.948l.018-2.683c.136-1.623.375-3.755.97-5.907A28.283 28.283 0 0 1 8.07 42.133c2.475-2.807 5.467-5.102 8.896-6.819.229-.11.45-.216.671-.317.546-3.146 1.771-6.082 3.638-8.747 2.958-4.217 6.933-7.068 11.832-8.479 3.072-.883 6.173-1.072 9.183-.565 1.698.292 3.36.81 5.04 1.57C51.734 11.85 57.739 6.838 65.23 3.84 72.79.812 80.82.408 88.828 2.653c8.412 2.354 15.278 7.165 20.41 14.301 4.386 6.098 6.734 12.884 7.02 20.22 4.954 1.297 9.246 3.84 12.782 7.585 4.206 4.449 6.581 9.788 7.057 15.861.37 4.758-.49 9.343-2.561 13.63-2.089 4.346-5.179 7.928-9.183 10.649-3.452 2.345-7.236 3.8-11.264 4.327-1.356.181-2.787.27-4.247.27-16.402.01-32.802.014-49.212.014l-29.526.004z"/><text transform="translate(37.035 62.505)" fill="#FFF" font-family="'Gilroy-ExtraBold'" font-size="14.425">internet</text><path d="M333.594 123.133l-43.097.012m35.246-7.007l7.851 6.995-8.143 6.657m-27.129.292l-7.854-6.995 8.145-6.657" clip-rule="evenodd" fill="none" stroke="#FFF" stroke-width="2" stroke-linecap="round" stroke-miterlimit="10"/><text transform="translate(352.447 99.549)"><tspan x="0" y="0" fill="#FFF" font-family="'Gilroy-ExtraBold'" font-size="15.568">blockchain</tspan><tspan x="24.263" y="14.271" fill="#FFF" font-family="'Gilroy-ExtraBold'" font-size="15.568">based</tspan><tspan x="16.175" y="28.542" fill="#FFF" font-family="'Gilroy-ExtraBold'" font-size="15.568">archive</tspan></text><text transform="translate(656.349 128.973)"><tspan x="0" y="0" fill="#FFF" font-family="'Gilroy-ExtraBold'" font-size="15.568">cryptopolice</tspan><tspan x="10.523" y="14.271" fill="#FFF" font-family="'Gilroy-ExtraBold'" font-size="15.568">community</tspan></text><text transform="translate(526.3 128.973)"><tspan x="0" y="0" fill="#FFF" font-family="'Gilroy-ExtraBold'" font-size="15.568">multilevel</tspan><tspan x="-8.656" y="14.271" fill="#FFF" font-family="'Gilroy-ExtraBold'" font-size="15.568">verification</tspan></text><path d="M504.854 77.292l-36.327.009m7.824 6.94l-7.854-6.997 8.143-6.654m28.214 101.484l-36.312.009m7.823 6.94l-7.851-6.998 8.14-6.651m190.474 6.7l-30.421.009m7.823 6.94l-7.856-6.998 8.144-6.651m22.327-88.082l-30.424.009m7.823 6.94l-7.852-6.997 8.141-6.654M532.094 41.735l-9.265 9.264m.002-9.264l9.267 9.264m-12.265-29.244l5.996 5.994m9.263-9.265l-9.263 9.265M519.833 66l5.996 5.995m9.263-9.269l-9.263 9.269m-5.996 15.528l5.996 5.997m9.263-9.27l-9.263 9.27m6.265 96.164l-9.265 9.264m0-9.264l9.265 9.264m-12.261-29.245l5.994 5.994m9.265-9.265l-9.265 9.265m-5.994 59.773l5.994 5.993m9.265-9.265l-9.265 9.265m6.271-28.874l-9.267 9.265m.002-9.265l9.265 9.265" clip-rule="evenodd" fill="none" stroke="#FFF" stroke-width="2" stroke-linecap="round" stroke-miterlimit="10"/><path d="M574.89 39.53v-.614c0-4.987-.014 4.293.01-.69.019-4.541 2.855-8.032 7.227-8.966 3.715-.791 7.778 1.139 9.561 4.51.744 1.418 1.055 2.918 1.045 4.522-.023 4.937-.005-4.389-.002.542v.696H574.89zm14.618-17.606c-.019 3.105-2.606 5.639-5.733 5.616-3.13-.023-5.63-2.578-5.606-5.726.025-3.146 2.594-5.709 5.682-5.665 3.166.044 5.664 2.596 5.657 5.775z" fill-rule="evenodd" clip-rule="evenodd" fill="#FFF"/><text transform="translate(562.374 52.459)" fill="#FFF" font-family="'Gilroy-ExtraBold'" font-size="10.794">OFFICER</text><path d="M574.89 87.364v-.611c0-4.987-.014 4.292.01-.69.019-4.541 2.855-8.032 7.227-8.967 3.715-.791 7.778 1.134 9.561 4.51.744 1.418 1.055 2.917 1.045 4.522-.023 4.936-.005-4.389-.002.54v.695l-17.841.001zm14.618-17.605c-.019 3.106-2.606 5.642-5.733 5.619-3.13-.025-5.63-2.578-5.606-5.727.025-3.151 2.594-5.709 5.682-5.667 3.166.045 5.664 2.599 5.657 5.775z" fill-rule="evenodd" clip-rule="evenodd" fill="#FFF"/><text transform="translate(562.374 100.295)" fill="#FFF" font-family="'Gilroy-ExtraBold'" font-size="10.794">OFFICER</text><path d="M574.89 183.714v-.615c0-4.986-.014 4.293.01-.689.019-4.542 2.855-8.035 7.227-8.968 3.715-.792 7.778 1.14 9.561 4.51.744 1.419 1.055 2.918 1.045 4.524-.023 4.934-.005-4.391-.002.541v.696l-17.841.001zm14.618-17.606c-.019 3.105-2.606 5.64-5.733 5.616-3.13-.026-5.63-2.578-5.606-5.728.025-3.146 2.594-5.708 5.682-5.663 3.166.043 5.664 2.595 5.657 5.775z" fill-rule="evenodd" clip-rule="evenodd" fill="#FFF"/><text transform="translate(562.374 196.642)" fill="#FFF" font-family="'Gilroy-ExtraBold'" font-size="10.794">OFFICER</text><path d="M574.89 231.546v-.61c0-4.985-.014 4.294.01-.689.019-4.541 2.855-8.034 7.227-8.968 3.715-.791 7.778 1.137 9.561 4.512.744 1.417 1.055 2.918 1.045 4.522-.023 4.934-.005-4.391-.002.539v.695l-17.841-.001zm14.618-17.603c-.019 3.107-2.606 5.642-5.733 5.618-3.13-.024-5.63-2.577-5.606-5.727.025-3.151 2.594-5.708 5.682-5.666 3.166.044 5.664 2.598 5.657 5.775z" fill-rule="evenodd" clip-rule="evenodd" fill="#FFF"/><text transform="translate(562.374 244.478)" fill="#FFF" font-family="'Gilroy-ExtraBold'" font-size="10.794">OFFICER</text><path clip-rule="evenodd" fill="none" stroke="#FFF" stroke-width=".5" stroke-linecap="round" stroke-linejoin="round" stroke-miterlimit="10" d="M546.075 12.243v93.042m0 49.495v96.442"/><g fill="#FFF"><path d="M407.565 174.33a3.539 3.539 0 0 0 2.277 6.248c.105 0 .214-.01.319-.019l.07-.004c.089-.01.179-.024.268-.042.042-.006.083-.015.122-.024l.16-.042c.083-.026.162-.048.24-.075l.052-.02a3.543 3.543 0 0 0 1.14-.691c.371-.336.669-.75.876-1.218v.001c.127-.292.214-.606.256-.934l-.002-.001c.023-.154.036-.311.036-.472a3.537 3.537 0 0 0-3.536-3.537c-.521 0-1.014.115-1.458.317l-.002-.003a3.389 3.389 0 0 0-.817.513v.003zm5.919 4.246l6.346 2.119c.061-.324.155-.631.284-.924l-6.37-2.128a3.731 3.731 0 0 1-.26.933zm-13.284 2.385v3.814c.16-.019.322-.03.486-.03.162 0 .322.012.484.03v-3.814c-.162.016-.322.032-.486.032-.162 0-.324-.016-.484-.032zm3.404 9.719a.3.3 0 0 1 .028-.041c.047-.07.091-.146.136-.219.019-.039.04-.074.059-.112l.089-.184c.025-.059.049-.118.07-.176.021-.049.038-.097.054-.148.026-.082.052-.168.073-.251.007-.032.016-.06.025-.089a3.526 3.526 0 0 0-2.251-4.087 2.805 2.805 0 0 0-.11-.042c-.056-.02-.115-.033-.171-.048-.054-.014-.105-.029-.162-.04-.049-.011-.101-.02-.152-.029a3.804 3.804 0 0 0-.606-.057c-.211 0-.418.025-.617.057l-.141.028c-.059.013-.122.03-.183.048-.047.013-.099.023-.143.039-.057.019-.108.04-.165.06l-.15.056c-.038.018-.07.036-.105.051-.242.114-.462.25-.671.411-.012.011-.026.019-.04.029a3.287 3.287 0 0 0-.19.169.34.34 0 0 1-.047.038l-.176.184-.04.047a2.036 2.036 0 0 0-.162.201l-.035.048a2.603 2.603 0 0 0-.146.214l-.026.048c-.049.075-.089.154-.129.232-.007.015-.017.029-.021.043-.042.081-.077.167-.112.252-.002.012-.007.023-.012.036a3.328 3.328 0 0 0-.089.272c-.005.006-.005.013-.005.019a3.443 3.443 0 0 0-.113 1.342l.014.074c.012.098.026.192.047.287.014.054.026.107.042.157.017.06.033.123.054.183.021.068.047.134.068.201.019.041.038.081.052.119.035.08.073.159.115.231.01.021.019.042.031.062a3.538 3.538 0 0 0 3.097 1.816 3.543 3.543 0 0 0 2.916-1.531zm-2.92-17.184c-.162 0-.324.014-.483.036v.007a3.533 3.533 0 0 0-3.055 3.499c0 .32.047.63.125.925.005.02.009.038.017.057.021.081.049.158.077.237.009.027.019.051.026.075.033.073.063.147.096.22.014.026.026.05.04.073.033.075.073.144.115.212.012.023.026.043.038.068.044.067.089.138.136.202.014.019.028.036.04.054.052.069.108.134.165.201l.028.033a3.55 3.55 0 0 0 2.153 1.146c.16.021.322.039.483.039.165 0 .324-.018.486-.039a3.556 3.556 0 0 0 1.956-.94l.002-.002a6.105 6.105 0 0 0 .225-.236c.056-.067.105-.132.155-.197a.375.375 0 0 0 .047-.06c.042-.064.089-.13.134-.198l.042-.072a2.12 2.12 0 0 0 .11-.203l.04-.083c.035-.071.065-.143.094-.213.012-.027.021-.057.03-.081a4.86 4.86 0 0 0 .078-.232c.007-.02.012-.043.017-.066a3.72 3.72 0 0 0 .061-.258c.002-.006.002-.012.002-.016a3.532 3.532 0 0 0-2.993-4.141v-.007a3.067 3.067 0 0 0-.487-.04zm-26.538 7.661a2.575 2.575 0 0 0-.012.232c0 .042.002.081.004.124 0 .043.002.088.005.132.005.058.012.114.019.17.007.034.012.064.016.098.012.1.033.197.054.296a3.546 3.546 0 0 0 3.439 2.701 3.537 3.537 0 0 0 3.378-2.479c0-.005.005-.007.005-.009.031-.094.052-.194.075-.292a.338.338 0 0 1 .012-.057c.017-.069.026-.145.035-.214.019-.155.033-.31.033-.47a3.99 3.99 0 0 0-.047-.559l.005-.001a3.414 3.414 0 0 0-.277-.928l-.01.003a3.539 3.539 0 0 0-3.209-2.055 3.533 3.533 0 0 0-3.325 2.342l-.012-.002a3.716 3.716 0 0 0-.195.966l.007.002zm14.165-2.714v-.001a3.551 3.551 0 0 0 2.012 1.909l.054.02c.077.027.157.049.237.075.056.013.108.027.162.042.04.009.082.019.122.024.089.019.178.033.27.042l.07.004c.105.009.211.019.317.019a3.54 3.54 0 0 0 2.278-6.248v-.004a3.4 3.4 0 0 0-.817-.513l-.002.003a3.518 3.518 0 0 0-1.458-.317 3.535 3.535 0 0 0-3.503 4.009v.001c.042.329.129.642.258.935zm31.926 2.388a3.348 3.348 0 0 0 .003 1.148c.004.025.007.049.014.074.01.063.028.125.042.19.012.047.023.096.038.145.014.05.033.099.052.146.019.062.038.121.061.178.016.041.038.08.052.118.033.066.059.129.094.193l.052.096c.04.067.077.134.12.196.019.026.035.053.054.079a2.69 2.69 0 0 0 .197.26c.057.07.122.138.184.204.014.012.023.024.037.037a2.666 2.666 0 0 0 .242.219c.434.358.955.615 1.528.734l.021.003a3.536 3.536 0 0 0 3.157-.924c.021-.026.047-.049.07-.072.055-.056.108-.114.157-.172.021-.022.036-.041.055-.064.063-.075.124-.156.181-.238.025-.039.049-.075.07-.114.197-.306.343-.645.435-1.005v-.002c.052-.199.084-.405.101-.614.005-.042.005-.082.007-.122.005-.046.005-.088.005-.133 0-.079-.007-.155-.012-.232l.003-.001a3.614 3.614 0 0 0-.197-.966l-.008.002a3.533 3.533 0 0 0-3.324-2.342 3.54 3.54 0 0 0-3.209 2.055l-.007-.002a3.38 3.38 0 0 0-.277.926h.002zm-5.156 5.053a3.564 3.564 0 0 0-1.289 1.966c-.002.005-.002.011-.005.014a3.535 3.535 0 0 0-.091.695l-.002.132c0 .219.019.433.056.642.002.003.002.009.002.016.017.084.038.173.059.256.01.025.014.046.019.067.023.08.051.155.077.231.012.027.021.054.031.081.03.073.061.143.094.216.014.025.026.054.038.081.035.07.073.138.115.205l.042.074c.042.067.087.133.134.197l.042.058c.052.068.104.134.16.198l.033.035c.061.068.125.135.192.202h.002a3.532 3.532 0 0 0 1.958.942c.155.021.319.038.481.038.165 0 .324-.016.484-.038.385-.053.753-.17 1.089-.335.293-.145.559-.329.798-.547a3.513 3.513 0 0 0 1.167-2.619 3.54 3.54 0 0 0-4.847-3.285v-.007a3.423 3.423 0 0 0-.84.482v.003zm-.228-.352c.258-.195.538-.362.833-.486l-3.247-5.034a3.863 3.863 0 0 1-.801.542l3.215 4.978zm-14.169-12.453c.165 0 .324.013.486.033v-3.337h-.97v3.337c.16-.02.322-.033.484-.033zm-6.623.895l2.712-4.199h-1.148l-2.383 3.685c.295.139.572.31.819.514zm14.096-.515l-2.383-3.685h-1.15l2.714 4.2c.244-.204.523-.375.819-.515zm-27.524 15.232a3.54 3.54 0 0 0 1.162 2.619v.004c.237.219.504.402.796.548l.004-.004c.338.166.705.283 1.092.335v.005c.157.023.317.039.481.039.165 0 .326-.015.484-.039v-.005a3.538 3.538 0 0 0 3.054-3.501l-.002-.132-.007-.123c-.004-.054-.012-.11-.014-.169-.012-.071-.021-.146-.035-.216-.009-.053-.023-.108-.033-.158-.009-.042-.021-.084-.033-.128a2.81 2.81 0 0 0-.075-.236c-.012-.034-.023-.07-.038-.105a5.546 5.546 0 0 0-.113-.261c-.012-.024-.021-.049-.035-.073-.028-.055-.059-.108-.087-.162a4.926 4.926 0 0 0-.214-.322c-.007-.01-.014-.022-.021-.029a3.596 3.596 0 0 0-.244-.29v-.002a3.836 3.836 0 0 0-.437-.398 3.648 3.648 0 0 0-1.146-.582c-.026-.009-.059-.014-.087-.022a3.089 3.089 0 0 0-.23-.059 3.94 3.94 0 0 0-.253-.038c-.026-.003-.049-.01-.075-.013a3.496 3.496 0 0 0-2.608.791 3.524 3.524 0 0 0-1.286 2.726zm.934-7.997l6.344-2.119a3.934 3.934 0 0 1-.258-.934l-6.368 2.126c.13.296.224.604.282.927zm4.973 4.842l3.217-4.981a3.965 3.965 0 0 1-.798-.542l-3.251 5.038c.297.124.576.291.832.485zm25.686-23.967h-23.538a1.915 1.915 0 0 0-1.914 1.917v3.727c0 1.06.857 1.917 1.914 1.917h23.538a1.917 1.917 0 0 0 1.918-1.917v-3.727a1.918 1.918 0 0 0-1.918-1.917zm-41.358 17.115a.59.59 0 0 1 0 1.178.59.59 0 0 1-.591-.589c0-.324.265-.589.591-.589m0-.625c-.671 0-1.216.547-1.216 1.214a1.216 1.216 0 0 0 2.43 0c0-.667-.547-1.214-1.214-1.214zm1.62 1.372c-.03.337-.167.645-.375.89l1.623.668c.033-.335.108-.653.218-.956l-1.466-.602zm-.406 4.573l2.132-.716a3.796 3.796 0 0 1-.359-.899l-2.094.702c.192.255.309.569.321.913zm-1.627-.531a.59.59 0 0 1 0 1.182.59.59 0 0 1 0-1.182m0-.623a1.215 1.215 0 1 0 .001 2.43 1.215 1.215 0 0 0-.001-2.43zm2.822 4.557c.326 0 .589.261.589.586s-.263.592-.589.592c-.324 0-.587-.267-.587-.592s.263-.586.587-.586m0-.626a1.213 1.213 0 1 0 .005 2.427 1.213 1.213 0 0 0-.005-2.427zm1.264.186l1.338-2.074a4.077 4.077 0 0 1-.801-.54l-1.343 2.079c.319.093.601.282.806.535zm3.131 2.011a.59.59 0 1 1-.589.59c0-.325.266-.59.589-.59m0-.623a1.214 1.214 0 1 0 0 2.428 1.214 1.214 0 0 0 0-2.428zm0-.417c.169 0 .331.025.484.073v-2.717a4.07 4.07 0 0 1-.484.032 4.02 4.02 0 0 1-.481-.032v2.717c.15-.048.315-.073.481-.073zm3.353 6.346l1.338-2.072a4.173 4.173 0 0 1-.798-.542l-1.348 2.088c.322.092.601.277.808.526zm-1.251.453a.589.589 0 1 1 0 1.177.589.589 0 0 1 0-1.177m0-.625c-.669 0-1.211.546-1.211 1.214a1.214 1.214 0 0 0 2.427 0c0-.668-.545-1.214-1.216-1.214zm4.395 1.908c.326 0 .587.264.587.59a.59.59 0 0 1-.587.591.59.59 0 1 1 0-1.181m0-.624c-.669 0-1.216.545-1.216 1.214a1.215 1.215 0 1 0 1.216-1.214zm0-.415c.165 0 .331.026.484.073v-2.434a4.259 4.259 0 0 1-.484.033c-.164 0-.324-.016-.481-.033v2.434c.15-.047.312-.073.481-.073zm13.394-.505l1.441-2.229a3.77 3.77 0 0 1-.821-.512l-1.425 2.206c.32.095.601.284.805.535zm-1.263.44a.59.59 0 1 1-.002 1.18.59.59 0 0 1 .002-1.18m0-.623c-.669 0-1.214.544-1.214 1.21a1.216 1.216 0 0 0 2.43 0 1.215 1.215 0 0 0-1.216-1.21zm4.384 2.252a.59.59 0 0 1 0 1.179.59.59 0 0 1 0-1.179m0-.626a1.214 1.214 0 0 0 0 2.429 1.214 1.214 0 0 0 0-2.429zm0-.416c.169 0 .331.027.486.075v-2.985c-.162.02-.322.032-.484.032-.164 0-.326-.012-.486-.032v2.985c.155-.048.317-.075.484-.075zm4.385-.587a.59.59 0 1 1-.591.588.59.59 0 0 1 .591-.588m0-.623c-.671 0-1.216.544-1.216 1.21a1.216 1.216 0 0 0 2.43 0c0-.666-.547-1.21-1.214-1.21zm-.46-.352l-1.425-2.205a3.854 3.854 0 0 1-.819.513l1.439 2.227c.209-.251.486-.44.805-.535zm12.62 2.079a.59.59 0 1 1-.002 1.18.59.59 0 0 1 .002-1.18m0-.624a1.215 1.215 0 1 0 1.214 1.214c0-.669-.545-1.214-1.214-1.214zm0-.415c.169 0 .331.026.484.073v-2.44a3.87 3.87 0 0 1-.484.033c-.162 0-.326-.013-.481-.033v2.44c.152-.047.315-.073.481-.073zm4.393-.273c.324 0 .592.263.592.589a.595.595 0 0 1-.592.592.59.59 0 0 1 0-1.181m0-.626a1.214 1.214 0 0 0 0 2.43 1.215 1.215 0 0 0 0-2.43zm-.458-.349l-1.336-2.067c-.244.21-.509.395-.801.541l1.334 2.06a1.63 1.63 0 0 1 .803-.534zm2.562-4.747a.588.588 0 1 1-.589.586c0-.325.262-.586.589-.586m0-.628a1.214 1.214 0 1 0-.003 2.429 1.214 1.214 0 0 0 .003-2.429zm0-.415a1.6 1.6 0 0 1 .483.073v-2.713a4.081 4.081 0 0 1-.483.033c-.164 0-.326-.014-.483-.033v2.713a1.61 1.61 0 0 1 .483-.073zm4.395-.536c.323 0 .587.261.587.586s-.264.592-.587.592c-.324 0-.592-.267-.592-.592s.268-.586.592-.586m0-.626c-.669 0-1.217.544-1.217 1.211a1.215 1.215 0 1 0 2.431 0c0-.666-.545-1.211-1.214-1.211zm-.46-.35l-1.336-2.074a4.05 4.05 0 0 1-.804.542l1.336 2.067c.207-.252.485-.441.804-.535zm3.644-2.424a.59.59 0 1 1-.59.59c0-.325.261-.59.59-.59m0-.624a1.215 1.215 0 0 0 0 2.43 1.214 1.214 0 1 0 0-2.43zm-50.653 24.298c-.061-.025-.122-.047-.183-.069a3.54 3.54 0 0 0-1.007-.201v.006a3.525 3.525 0 0 0-3.498 4.686c.019.053.033.104.054.152.005.007.005.013.007.021.174.419.43.812.77 1.153a3.538 3.538 0 0 0 4.999.012 3.534 3.534 0 0 0-.009-5 3.579 3.579 0 0 0-1.133-.76zm-6.473 9.072l2.7-2.705a3.804 3.804 0 0 1-.685-.677l-2.695 2.694c.125.096.242.198.354.312.119.119.223.246.326.376zm-7.131-13.607a3.896 3.896 0 0 1-.937-.243l-1.261 5.854c.324.021.641.081.951.183l1.247-5.794zm-12.417-4.844l.016.008a3.535 3.535 0 0 0 1.059 4.326l.075.054c.051.038.105.075.155.109.063.037.125.074.186.108.044.027.091.047.134.071.068.033.136.067.204.094a.822.822 0 0 0 .087.033c.082.036.169.066.256.09a3.532 3.532 0 0 0 3.534-.884 3.538 3.538 0 0 0 .74-3.918c-.03-.063-.056-.127-.091-.189a2.916 2.916 0 0 0-.099-.181c-.019-.031-.04-.063-.054-.093a3.826 3.826 0 0 0-.495-.624 3.328 3.328 0 0 0-.357-.307l-.002.002a3.463 3.463 0 0 0-1.009-.534l.002-.008a3.572 3.572 0 0 0-.951-.181v.012a3.538 3.538 0 0 0-1.089.113l-.007-.012c-.31.08-.61.209-.892.375l.005.014a3.51 3.51 0 0 0-.693.537c-.054.053-.103.112-.155.171l-.017-.006c-.223.254-.404.53-.542.82zm38.265 31.575a3.401 3.401 0 0 0-.507-.417c-.026-.017-.047-.035-.075-.053-.056-.035-.115-.069-.176-.105-.045-.022-.084-.048-.127-.071l-.087-.04a3.533 3.533 0 0 0-4.379 1.118l-.016-.009a3.588 3.588 0 0 0-.456.851l.017.01a3.536 3.536 0 0 0 .817 3.722 3.51 3.51 0 0 0 2.686 1.026c.014 0 .028 0 .044-.002.068-.002.134-.011.202-.02.038-.004.077-.012.113-.015.059-.011.115-.019.167-.028.08-.019.157-.036.235-.059.017-.003.033-.008.052-.013.103-.031.209-.067.312-.108.005-.002.012-.007.021-.01.418-.17.815-.427 1.158-.77a3.546 3.546 0 0 0-.001-5.007zm-25.815-14.674c.949-.95 1.245-2.3.895-3.5a3.5 3.5 0 0 0-.89-1.491 3.497 3.497 0 0 0-1.378-.85l.004-.014a3.551 3.551 0 0 0-.946-.182l-.007.018a3.53 3.53 0 0 0-1.479.24l-.01-.013a3.424 3.424 0 0 0-.838.477l.007.016a3.533 3.533 0 0 0-.366 5.302 3.546 3.546 0 0 0 5.008-.003zm12.93 12.929a3.51 3.51 0 0 0 .97-1.815c.002-.005.002-.012.002-.018.014-.083.026-.165.038-.248.005-.047.012-.091.014-.14.004-.055.004-.11.007-.169.002-.073.005-.148 0-.222a3.501 3.501 0 0 0-1.026-2.381 3.533 3.533 0 0 0-5.001 0 3.515 3.515 0 0 0-1.023 2.808l-.01.001a3.6 3.6 0 0 0 .219.94h.007c.122.331.301.647.521.935.012.012.019.024.028.035a.431.431 0 0 1 .049.058c.066.07.127.146.197.215a3.54 3.54 0 0 0 5.008.001zm13.469-3.023a3.5 3.5 0 0 0 .864-1.423c.012-.033.023-.069.035-.107l.04-.16c.014-.074.033-.148.044-.221.002-.022.009-.048.009-.07.033-.224.045-.453.033-.68h.004a3.486 3.486 0 0 0-.176-.951l-.007.001a3.461 3.461 0 0 0-.533-1.007l.01-.011a4.247 4.247 0 0 0-.324-.379 3.724 3.724 0 0 0-.357-.305l-.012.012a3.533 3.533 0 0 0-4.634.314 3.512 3.512 0 0 0-1 2.968h-.004c.051.379.164.751.34 1.1l.035.075c.162.301.369.587.625.843a3.538 3.538 0 0 0 5.008.001zm-6.414-1.93l-5.795 1.247c.099.31.16.629.179.951l5.867-1.263a4.007 4.007 0 0 1-.251-.935zm-13.493 2.86l-4.872 1.046.813.813 4.278-.92a4.238 4.238 0 0 1-.219-.939zm-10.323-9.617l-.923 4.29.815.813 1.049-4.891a4.026 4.026 0 0 1-.941-.212zm5.005 5.549a4.501 4.501 0 0 1-.313-.352l-2.353 2.356.681.682 2.357-2.358a4.18 4.18 0 0 1-.372-.328zm1.843-20.233a3.531 3.531 0 0 0 1.036-2.471v-.044c0-.08-.007-.159-.01-.236a4.51 4.51 0 0 0-.007-.116c-.002-.035-.012-.068-.017-.103a3.487 3.487 0 0 0-.683-1.653l.005-.002a3.252 3.252 0 0 0-.681-.689l-.004.007a3.54 3.54 0 0 0-1.012-.534l.005-.009a3.415 3.415 0 0 0-.949-.183l-.002.015a3.511 3.511 0 0 0-2.676 1.028 3.533 3.533 0 0 0-.011 4.992 3.542 3.542 0 0 0 5.006-.002zm-1.549 19.938c.152.152.314.285.488.404l.101.072c.08.048.16.097.239.141.012.007.023.017.038.02a3.541 3.541 0 0 0 5.18-3.102v-.052c0-.075-.007-.151-.009-.228-.007-.042-.007-.081-.009-.121-.005-.032-.012-.063-.017-.09a3.496 3.496 0 0 0-.683-1.667l.005-.002a3.994 3.994 0 0 0-.324-.38 3.943 3.943 0 0 0-.357-.307l-.007.007a3.532 3.532 0 1 0-4.949 4.952c.092.121.193.242.304.353zm18.602 8.437l-5.982-2.985a4.11 4.11 0 0 1-.474.84l6.003 3.001c.115-.301.265-.587.453-.856zm-24.064-21.079l-2.986-5.987c-.27.188-.556.34-.854.455l2.996 6.006c.267-.192.547-.354.844-.474zm4.868 26.213a1.918 1.918 0 0 1-2.711 0l-10.239-10.241a1.915 1.915 0 0 1 0-2.713l2.632-2.634a1.917 1.917 0 0 1 2.712 0l10.239 10.241c.751.75.749 1.962 0 2.711l-2.633 2.636zm26.173 3.004a.594.594 0 0 1 0 .834.592.592 0 0 1-.833 0 .59.59 0 1 1 .833-.834m.439-.441a1.215 1.215 0 0 0-1.716 0 1.213 1.213 0 1 0 1.716 0zm-.993-.765l-.674-1.609a3.906 3.906 0 0 1-.829.521l.606 1.45c.261-.216.576-.335.897-.362zm4.234-1.891a.59.59 0 0 1 0 .834.595.595 0 0 1-.833 0 .59.59 0 0 1 .833-.834m.441-.441a1.217 1.217 0 0 0-1.716 0 1.207 1.207 0 0 0 0 1.715 1.21 1.21 0 0 0 1.716 0 1.216 1.216 0 0 0 0-1.715zm-2.061-.236l-1.998-.998a3.905 3.905 0 0 1-.385.891l1.972.982c.044-.319.178-.625.411-.875zm.629-3.636a1.714 1.714 0 0 1-.031-.461l-2.646.573c.049.146.096.298.129.453.035.167.056.329.07.492l2.667-.575a1.73 1.73 0 0 1-.189-.482zm2.059-.878a.59.59 0 1 1-.833 0 .593.593 0 0 1 .833 0m.441-.439a1.217 1.217 0 0 0-1.716 0 1.213 1.213 0 0 0 1.716 1.715 1.207 1.207 0 0 0 0-1.715zm-.136-8.924a.593.593 0 0 1 0 .833.587.587 0 0 1-.833 0 .585.585 0 0 1 0-.833.59.59 0 0 1 .833 0m.442-.442a1.225 1.225 0 0 0-1.721 0 1.226 1.226 0 0 0 0 1.716 1.218 1.218 0 0 0 1.721 0 1.222 1.222 0 0 0 0-1.716zm-2.482.737l-2.395.515c.096.311.152.629.174.95l2.435-.523a1.609 1.609 0 0 1-.214-.942zm-.162-4.31a.588.588 0 1 1-.832.837.588.588 0 0 1 .832-.837m.444-.441a1.215 1.215 0 1 0-1.716 1.72 1.215 1.215 0 0 0 1.716-1.72zm-2.012 2.013a1.722 1.722 0 0 1-.277-.372l-1.714 1.714c.122.095.242.198.357.31.117.12.223.245.326.375l1.726-1.728a1.73 1.73 0 0 1-.418-.299zm-7.8-9.372a.86.86 0 0 1 .125.169.587.587 0 0 1-.948.667.59.59 0 0 1 0-.833.601.601 0 0 1 .721-.089c.036.029.067.058.102.086m.439-.441a1.28 1.28 0 0 0-.204-.167 1.21 1.21 0 0 0-1.498.17 1.213 1.213 0 1 0 1.944.318 1.487 1.487 0 0 0-.242-.321zm-2.219 1.768a.037.037 0 0 1 .017-.005 1.641 1.641 0 0 1-.268-.951l-2.547.549c.103.308.164.626.19.947l2.595-.56.013.02zm-.187-5.551c.091.092.16.204.199.33a.584.584 0 0 1-.169.48.59.59 0 1 1-.333-1 .797.797 0 0 1 .303.19m.443-.441a1.442 1.442 0 0 0-.601-.358 1.218 1.218 0 0 0-1.087.331 1.214 1.214 0 0 0 1.716 1.718c.284-.285.397-.681.338-1.05a1.412 1.412 0 0 0-.366-.641zm-1.573 2.282a1.557 1.557 0 0 1-.411-.297 1.617 1.617 0 0 1-.305-.428.164.164 0 0 1-.026.033l.012.029-2.083 2.083c.127.101.258.207.376.328.112.113.213.231.308.353l2.083-2.078a.206.206 0 0 0 .021.003c.006-.01.018-.016.025-.026zm-3.095-3.807a.58.58 0 0 1 .003.827.59.59 0 1 1-.154-.946.955.955 0 0 1 .151.119m.444-.441a1.44 1.44 0 0 0-.3-.224 1.214 1.214 0 0 0-1.414.217 1.213 1.213 0 1 0 1.893.226 1.946 1.946 0 0 0-.179-.219zm-.817 2.479a1.628 1.628 0 0 1-.956-.28l-.007.014c.012.005.019.014.028.019l-.563 2.614c.322.024.641.083.949.184l.549-2.551zm-9.013-9.855a1.54 1.54 0 0 1-.274-.372l-1.719 1.721c.122.096.24.196.354.309.12.122.226.247.324.378l1.735-1.736a1.618 1.618 0 0 1-.42-.3zm1.571-1.569a.583.583 0 0 1 0 .831.587.587 0 1 1 0-.831m.441-.443a1.218 1.218 0 0 0-1.714 0 1.213 1.213 0 1 0 1.714 0zm-4.478-1.736a.59.59 0 1 1-.833.833.59.59 0 0 1 .833-.833m.444-.442a1.221 1.221 0 0 0-1.718 0 1.217 1.217 0 0 0 0 1.716 1.217 1.217 0 0 0 1.718 0 1.217 1.217 0 0 0 0-1.716zm-.676 2.475a1.612 1.612 0 0 1-.948-.177l-.519 2.406c.324.021.639.083.949.183l.518-2.412zm-5.301.528a.59.59 0 1 1-.833.833.59.59 0 0 1 .833-.833m.439-.443a1.213 1.213 0 0 0-1.714 0 1.222 1.222 0 0 0 0 1.72 1.214 1.214 0 0 0 1.714-1.72zm-2.008 2.015a1.692 1.692 0 0 1-.277-.374l-1.909 1.91a3.804 3.804 0 0 1 .679.69l1.925-1.928a1.649 1.649 0 0 1-.418-.298zm-2.885-1.527a1.643 1.643 0 0 1-.951-.181l-.519 2.411c.321.023.641.084.948.186l.522-2.416zm.23-2.036c.23.229.23.604.002.835a.595.595 0 0 1-.836 0 .595.595 0 0 1 0-.835.592.592 0 0 1 .834 0m.444-.44a1.219 1.219 0 0 0-1.719 0 1.214 1.214 0 1 0 1.719 0zm-5.232 1.208a.593.593 0 0 1 0 .833.591.591 0 0 1-.835 0 .593.593 0 0 1 0-.833.593.593 0 0 1 .835 0m.442-.441a1.215 1.215 0 0 0-1.716 0 1.211 1.211 0 0 0 0 1.716 1.211 1.211 0 0 0 1.716 0 1.217 1.217 0 0 0 0-1.716zm.254 2.049a1.64 1.64 0 0 1-.871.418l.998 1.998c.282-.164.58-.293.89-.383l-1.017-2.033zm-2.951 3.55l1.483.617a3.83 3.83 0 0 1 .512-.832l-1.625-.68a1.609 1.609 0 0 1-.37.895zm-.836-1.457a.588.588 0 1 1-.831 0 .588.588 0 0 1 .831 0m.441-.441a1.215 1.215 0 0 0-1.716 0 1.213 1.213 0 1 0 1.716 0zm68.736 12.053a3.526 3.526 0 0 1 1.193-.27v.006a3.528 3.528 0 0 1 2.66 1.027c.99.992 1.263 2.42.831 3.659a1.18 1.18 0 0 1-.052.152.05.05 0 0 0-.005.021 3.605 3.605 0 0 1-.772 1.153 3.54 3.54 0 0 1-5.001.012 3.54 3.54 0 0 1 1.146-5.76zm6.473 9.072l-2.702-2.705a3.774 3.774 0 0 0 .686-.677l2.695 2.694c-.122.096-.24.198-.353.312-.12.119-.225.246-.326.376zm7.13-13.607c.317-.043.632-.121.938-.243l1.256 5.854a3.788 3.788 0 0 0-.948.183l-1.246-5.794zm12.416-4.844l-.017.008a3.528 3.528 0 0 1-1.058 4.326c-.023.019-.052.037-.073.054a5.64 5.64 0 0 1-.155.109c-.065.037-.124.074-.188.108-.042.027-.089.047-.132.071-.07.033-.136.067-.204.094-.03.013-.059.023-.087.033a2.108 2.108 0 0 1-.256.09l-.03.011a3.528 3.528 0 0 1-3.503-.895 3.539 3.539 0 0 1-.784-3.821c.014-.031.028-.063.045-.097.027-.063.056-.127.087-.189.032-.061.067-.121.103-.181a4.557 4.557 0 0 1 .202-.309 3.86 3.86 0 0 1 .348-.408c.112-.113.232-.213.354-.307l.002.002c.313-.237.65-.415 1.01-.534l-.002-.008c.31-.103.627-.164.951-.181v.012a3.54 3.54 0 0 1 1.089.113l.01-.012c.31.08.61.209.892.375l-.009.014c.249.146.483.32.694.537.057.053.105.112.157.171l.015-.006c.222.254.402.53.539.82zm-38.261 31.575c.155-.16.326-.297.505-.417.021-.017.049-.035.07-.053.059-.035.122-.069.178-.105.047-.022.089-.048.131-.071.026-.015.057-.028.085-.04a3.529 3.529 0 0 1 4.379 1.118l.014-.009c.195.266.348.552.456.851l-.017.01a3.536 3.536 0 0 1-.817 3.722 3.514 3.514 0 0 1-2.688 1.026c-.012 0-.025 0-.04-.002-.068-.002-.136-.011-.207-.02-.036-.004-.073-.012-.11-.015-.057-.011-.113-.019-.167-.028-.078-.019-.155-.036-.232-.059a3.38 3.38 0 0 1-.364-.121c-.007-.002-.012-.007-.021-.01a3.54 3.54 0 0 1-1.155-5.777zm25.813-14.674a3.538 3.538 0 0 1-.897-3.5c.165-.548.46-1.063.893-1.491a3.483 3.483 0 0 1 1.376-.85l-.005-.014c.306-.104.627-.165.948-.182l.005.018a3.518 3.518 0 0 1 1.479.24l.007-.013c.298.115.58.275.841.477l-.008.016c.125.095.244.196.359.31a3.534 3.534 0 0 1 .007 4.992 3.542 3.542 0 0 1-5.005-.003zm-12.93 12.929a3.51 3.51 0 0 1-.97-1.815c-.002-.005-.002-.012-.002-.018a3.034 3.034 0 0 1-.038-.248c-.005-.047-.012-.091-.014-.14-.005-.055-.005-.11-.007-.169a1.371 1.371 0 0 1 0-.222 3.487 3.487 0 0 1 1.024-2.381 3.537 3.537 0 0 1 6.026 2.808l.01.001a3.604 3.604 0 0 1-.221.94h-.005a3.701 3.701 0 0 1-.523.935c-.012.012-.021.024-.03.035-.012.019-.033.038-.05.058-.061.07-.127.146-.192.215a3.54 3.54 0 0 1-5.008.001zm-13.472-3.023a3.533 3.533 0 0 1-.897-1.53c-.017-.053-.028-.107-.04-.16-.016-.074-.035-.148-.044-.221-.002-.022-.009-.048-.012-.07-.031-.224-.042-.453-.031-.68h-.004c.014-.322.07-.642.173-.951l.007.001a3.56 3.56 0 0 1 .533-1.007l-.009-.011c.099-.131.207-.257.324-.379.115-.113.235-.212.359-.305l.012.012a3.532 3.532 0 0 1 5.635 3.282h.002c-.05.379-.165.751-.341 1.1a.505.505 0 0 1-.035.075c-.16.301-.366.587-.625.843a3.537 3.537 0 0 1-5.007.001zm6.414-1.93l5.794 1.247c-.098.31-.159.629-.178.951l-5.867-1.263a3.91 3.91 0 0 0 .251-.935zm13.494 2.86l4.874 1.046-.813.813-4.28-.92c.11-.307.183-.622.219-.939zm10.325-9.617l.923 4.29-.816.813-1.05-4.891c.316-.029.633-.106.943-.212zm-5.005 5.549c.112-.111.211-.232.31-.352l2.353 2.356-.681.682-2.36-2.358c.129-.1.256-.208.378-.328zm-1.844-20.233a3.537 3.537 0 0 1-1.037-2.471v-.044c0-.08.007-.159.012-.236.002-.039.002-.077.009-.116a3.512 3.512 0 0 1 .698-1.756l-.005-.002c.1-.134.205-.262.324-.38.113-.114.232-.214.357-.309l.004.007a3.557 3.557 0 0 1 1.01-.534l-.004-.009a3.43 3.43 0 0 1 .95-.183l.005.015a3.511 3.511 0 0 1 2.674 1.028 3.537 3.537 0 0 1 .012 4.992 3.546 3.546 0 0 1-5.009-.002zm1.548 19.938c-.15.152-.315.285-.484.404a1.037 1.037 0 0 0-.103.072c-.08.048-.162.097-.242.141-.014.007-.023.017-.035.02a3.546 3.546 0 0 1-4.145-.636 3.534 3.534 0 0 1-1.035-2.466v-.052c0-.075.007-.151.01-.228.005-.042.007-.081.009-.121.003-.032.01-.063.015-.09.08-.595.303-1.17.684-1.667l-.005-.002c.099-.133.206-.258.323-.38.115-.113.235-.211.359-.307l.005.007a3.536 3.536 0 0 1 4.954 4.952 3.406 3.406 0 0 1-.31.353zm-18.6 8.437l5.982-2.985c.12.294.282.576.474.84l-6.006 3.001a3.81 3.81 0 0 0-.45-.856zm24.061-21.079l2.988-5.987c.271.188.557.34.853.455l-2.998 6.006a3.99 3.99 0 0 0-.843-.474zm-4.865 26.213a1.92 1.92 0 0 0 2.712 0l10.241-10.241a1.913 1.913 0 0 0 0-2.713l-2.634-2.634a1.921 1.921 0 0 0-2.715 0L431.171 229.9a1.914 1.914 0 0 0 0 2.711l2.634 2.636z"/><path d="M407.629 238.251a.59.59 0 1 1 .833.833.59.59 0 0 1-.833-.833m-.44-.441a1.213 1.213 0 1 0 1.715 1.716 1.213 1.213 0 0 0-1.715-1.716zm.994-.765l.674-1.609c.256.211.536.385.829.521l-.606 1.45a1.609 1.609 0 0 0-.897-.362zm-4.231-1.891a.59.59 0 0 1 .833.834.595.595 0 0 1-.833 0 .59.59 0 0 1 0-.834m-.444-.441a1.22 1.22 0 0 0 0 1.715 1.207 1.207 0 0 0 1.714 0c.479-.473.479-1.24.005-1.715a1.22 1.22 0 0 0-1.719 0zm2.066-.236l1.996-.998c.089.309.216.605.382.891l-1.972.982a1.598 1.598 0 0 0-.406-.875zm-.634-3.636c.033-.154.044-.31.033-.461l2.644.573a5.282 5.282 0 0 0-.129.453 5.063 5.063 0 0 0-.07.492l-2.665-.575c.084-.146.147-.306.187-.482zm-2.061-.878a.596.596 0 0 1 .836 0c.23.231.23.604 0 .836a.595.595 0 0 1-.836 0 .596.596 0 0 1 0-.836m-.439-.439a1.216 1.216 0 0 0 0 1.715 1.212 1.212 0 1 0 0-1.715zm.139-8.924a.59.59 0 0 1 .833 0 .585.585 0 0 1 0 .833.587.587 0 0 1-.833 0 .584.584 0 0 1 0-.833m-.444-.442a1.217 1.217 0 0 0 0 1.716 1.218 1.218 0 0 0 1.721 0 1.222 1.222 0 0 0 0-1.716 1.227 1.227 0 0 0-1.721 0zm2.481.737l2.397.515a4.024 4.024 0 0 0-.174.95l-2.437-.523c.167-.29.243-.617.214-.942zm.162-4.31a.59.59 0 0 1 .831 0 .59.59 0 0 1 0 .834.587.587 0 0 1-.831 0 .59.59 0 0 1 0-.834m-.443-.441a1.22 1.22 0 0 0 0 1.719 1.22 1.22 0 0 0 1.718 0 1.22 1.22 0 0 0 0-1.719 1.216 1.216 0 0 0-1.718 0zm2.012 2.013c.113-.115.205-.238.277-.372l1.711 1.714c-.117.095-.24.198-.352.31-.12.12-.223.245-.327.375l-1.728-1.728c.151-.078.292-.176.419-.299zm7.802-9.372c.03-.028.065-.057.103-.087a.59.59 0 1 1-.229.255.933.933 0 0 1 .126-.168m-.441-.441a1.508 1.508 0 0 0-.24.322 1.216 1.216 0 0 0 .228 1.398 1.213 1.213 0 1 0 .216-1.886 1.41 1.41 0 0 0-.204.166zm2.218 1.768a.03.03 0 0 0-.014-.005c.19-.289.279-.62.27-.951l2.542.549a3.995 3.995 0 0 0-.188.947l-2.599-.56a.044.044 0 0 1-.011.02zm.188-5.551a.772.772 0 0 1 .305-.19.581.581 0 0 1 .498.166.587.587 0 0 1 0 .834.587.587 0 0 1-1-.48.805.805 0 0 1 .197-.33m-.442-.441a1.437 1.437 0 0 0-.369.641c-.059.37.057.765.338 1.05a1.215 1.215 0 0 0 1.716-1.718 1.215 1.215 0 0 0-1.087-.331 1.444 1.444 0 0 0-.598.358zm1.571 2.282c.148-.075.289-.171.411-.297.129-.125.228-.273.305-.428.009.011.016.024.026.033-.005.011-.005.018-.012.029l2.083 2.083a4.523 4.523 0 0 0-.376.328c-.11.113-.213.231-.308.353l-2.08-2.078-.023.003c-.007-.01-.017-.016-.026-.026zm3.095-3.807a.906.906 0 0 1 .155-.119.59.59 0 1 1-.157.946.58.58 0 0 1 .002-.827m-.44-.441c-.07.07-.129.142-.181.22a1.215 1.215 0 0 0 1.893 1.492 1.22 1.22 0 0 0 0-1.718 1.216 1.216 0 0 0-1.416-.217c-.105.06-.204.133-.296.223zm.813 2.479a1.62 1.62 0 0 0 .956-.28l.007.014c-.012.005-.017.014-.026.019l.563 2.614a4.04 4.04 0 0 0-.951.184l-.549-2.551zm9.014-9.855c.11-.111.202-.237.276-.372l1.717 1.721a4.065 4.065 0 0 0-.353.309 3.817 3.817 0 0 0-.326.378l-1.735-1.736c.153-.074.294-.176.421-.3zm-1.572-1.569a.592.592 0 0 1 .834 0 .588.588 0 1 1-.834 0m-.441-.443a1.214 1.214 0 1 0 1.717 0 1.222 1.222 0 0 0-1.717 0zm4.477-1.736a.59.59 0 0 1 .834.833.59.59 0 0 1-.834-.833m-.441-.442a1.213 1.213 0 0 0 0 1.716 1.219 1.219 0 0 0 1.719 0 1.22 1.22 0 0 0 0-1.716 1.224 1.224 0 0 0-1.719 0zm.674 2.475c.322.039.655-.022.953-.177l.515 2.406a3.898 3.898 0 0 0-.948.183l-.52-2.412zm5.304.528a.59.59 0 1 1 0 .834.59.59 0 0 1 0-.834m-.442-.443a1.218 1.218 0 0 0 0 1.72c.475.47 1.24.472 1.714 0a1.216 1.216 0 0 0 0-1.72 1.213 1.213 0 0 0-1.714 0zm2.01 2.015c.11-.115.202-.241.277-.374l1.909 1.91a3.657 3.657 0 0 0-.679.69l-1.926-1.928c.151-.075.292-.175.419-.298zm2.886-1.527c.324.034.655-.023.948-.181l.524 2.411a3.94 3.94 0 0 0-.954.186l-.518-2.416zm-.23-2.036a.59.59 0 0 1 .833 0 .595.595 0 0 1 0 .835.595.595 0 0 1-.836 0 .592.592 0 0 1 .003-.835m-.444-.44a1.214 1.214 0 0 0 0 1.714 1.214 1.214 0 0 0 1.717 0 1.214 1.214 0 0 0 0-1.714 1.216 1.216 0 0 0-1.717 0zm5.228 1.208a.59.59 0 1 1 .839.833.59.59 0 0 1-.839-.833m-.438-.441a1.215 1.215 0 0 0 0 1.716 1.211 1.211 0 0 0 1.716 0 1.211 1.211 0 0 0 0-1.716 1.215 1.215 0 0 0-1.716 0zm-.256 2.049c.253.231.556.371.871.418l-.996 1.998a4.054 4.054 0 0 0-.89-.383l1.015-2.033zm2.951 3.55l-1.481.617a4.078 4.078 0 0 0-.512-.832l1.622-.68c.03.321.152.635.371.895zm.836-1.457a.59.59 0 1 1 .833.838.59.59 0 0 1-.833-.838m-.441-.441a1.213 1.213 0 1 0 1.716 1.717 1.213 1.213 0 0 0-1.716-1.717z"/></g><path d="M177.144 105.345L136.99 86.632m35.993 9.055l4.161 9.658-10.193 2.592M141.15 96.228l-4.162-9.659 10.195-2.592" clip-rule="evenodd" fill="none" stroke="#FFF" stroke-width="2" stroke-linecap="round" stroke-miterlimit="10"/><g fill="#FFF"><path d="M483.221 28.638h-7.304l1.234 1.237H425.35l2.853-4.943a3.598 3.598 0 0 0 1.831.512 3.603 3.603 0 0 0 3.597-3.599 3.595 3.595 0 0 0-7.187-.085h-15.78l-4.844-8.389-3.045-5.273a3.599 3.599 0 0 0-1.801-6.714 3.595 3.595 0 0 0-3.592 3.596c0 1.333.721 2.494 1.796 3.118l-3.045 5.273-4.844 8.389h-15.773a3.599 3.599 0 0 0-7.197.009 3.596 3.596 0 0 0 5.401 3.113l2.883 4.993h-52l1.237-1.237h-7.304v7.301l1.232-1.234v7.687l-1.232-1.237v7.305l7.304-.004-1.261-1.262h52.023l-2.85 4.943a3.56 3.56 0 0 0-1.833-.508 3.6 3.6 0 1 0 0 7.198 3.592 3.592 0 0 0 3.59-3.516h6.095l9.685.003 4.844 8.389 3.045 5.273a3.596 3.596 0 1 0 3.597 0l3.042-5.273 4.846-8.392 9.683.003 6.092-.003a3.596 3.596 0 0 0 7.192-.011 3.595 3.595 0 0 0-5.4-3.11l-2.881-4.996h51.827l-1.261 1.267 7.304-.004v-7.301l-1.237 1.237v-7.687l1.237 1.234v-7.302zm-3.095 6.067V45.34h-57.99l1.606 2.782 2.883 4.995.195.339h-17.227l-.535.925-4.841 8.394-3.05 5.273-.192.331-.188-.331-3.047-5.273-4.841-8.394-.538-.925h-17.229l.228-.393 2.85-4.941 1.606-2.782h-58.189l.002-2.948v-7.687l-.002-2.976h58.191l-1.608-2.78-2.881-4.994-.197-.342h17.229l.538-.927 4.841-8.387 3.047-5.278.19-.332.19.332 3.05 5.278 4.841 8.387.535.927h17.227l-.228.396-2.851 4.939-1.606 2.78h57.991v2.977z"/><path d="M433.047 37.237c0 1.827-1.468 3.296-3.364 3.296h-1.442v3.024h-2.202v-9.622h3.645c1.895.001 3.363 1.473 3.363 3.302zm-2.195 0c0-.702-.495-1.237-1.169-1.24h-1.442v2.474h1.442c.673 0 1.169-.536 1.169-1.234zm3.775 1.51c0-2.832 2.242-5.003 5.006-5.003 2.761 0 5.001 2.172 5.001 5.003 0 2.83-2.24 5.003-5.001 5.003-2.764 0-5.006-2.173-5.006-5.003zm7.811 0c0-1.719-1.237-2.86-2.806-2.86-1.566 0-2.804 1.141-2.804 2.86 0 1.716 1.237 2.858 2.804 2.858 1.569 0 2.802-1.142 2.806-2.858zm10.028 2.696v2.114h-5.633v-9.622h2.2v7.507h3.433zm4.123-7.507v9.622h-2.2v-9.622h2.2zm2.199 4.811c0-2.832 2.102-5.003 5.001-5.003 1.747 0 3.285.868 4.126 2.228l-1.897 1.099c-.425-.743-1.254-1.184-2.229-1.184-1.702 0-2.803 1.141-2.803 2.86-.003 1.716 1.101 2.858 2.803 2.858.975 0 1.817-.44 2.229-1.181l1.897 1.1c-.827 1.362-2.364 2.226-4.126 2.226-2.899 0-5.001-2.173-5.001-5.003zm17.161 2.692v2.118h-6.046v-9.622h5.982v2.118h-3.782v1.596l3.439-.004v2.092h-3.439v1.706l3.846-.004zm-149.805-2.84c0-2.832 2.101-5.003 4.999-5.003 1.749 0 3.292.866 4.123 2.228l-1.89 1.097c-.427-.741-1.251-1.179-2.233-1.181-1.702 0-2.801 1.141-2.801 2.86s1.099 2.858 2.801 2.858c.981 0 1.82-.441 2.233-1.181l1.897 1.1c-.831 1.362-2.369 2.224-4.13 2.224-2.898-.001-4.999-2.172-4.999-5.002zm13.399 1.649h-1.047v3.161h-2.195v-9.622h3.846a3.287 3.287 0 0 1 3.296 3.298c0 1.185-.711 2.256-1.77 2.793l2.045 3.531h-2.362l-1.813-3.161zm-1.047-1.926h1.65c.604 0 1.099-.531 1.099-1.236 0-.699-.496-1.234-1.099-1.234h-1.65v2.47zm10.582 1.389v3.698h-2.198v-3.698l-3.229-5.924h2.499l1.829 3.714 1.829-3.714h2.5l-3.23 5.924zm11.061-2.626c0 1.83-1.467 3.3-3.364 3.3h-1.446l.002 3.024h-2.195v-9.622h3.64c1.895.001 3.363 1.47 3.363 3.298zm-2.196 0c0-.699-.495-1.234-1.169-1.234h-1.444v2.47h1.444c.674.001 1.169-.535 1.169-1.236zm9.62-1.181h-2.475v7.505h-2.202v-7.505h-2.473v-2.117h7.149v2.117zm-.003 2.695c0-2.832 2.24-5.003 5.003-5.003 2.761 0 5.003 2.172 5.003 5.006 0 2.832-2.242 4.999-5.003 4.999-2.763-.001-5.003-2.172-5.003-5.002zm7.812.002c0-1.721-1.242-2.862-2.808-2.86-1.566 0-2.803 1.139-2.803 2.857s1.237 2.858 2.803 2.858 2.808-1.139 2.808-2.855zm8.093 0l-3.569-6.19 2.345 6.19-2.345 6.189zm34.912-.063l3.576 6.187-2.346-6.187 2.346-6.192zm-17.689-22.547l.305-.526.305.526 4.841 8.391 1.27 2.196c-1.916-1.011-4.099-1.586-6.417-1.586s-4.505.575-6.419 1.586l1.272-2.196 4.843-8.391zm-19.677 11.011l.305.525 4.844 8.391 1.113 1.924a13.73 13.73 0 0 1 6.56-10.84h-12.822zm10.298 23.073h1.881a13.743 13.743 0 0 1-5.94-10.807l-1.089 1.889-4.844 8.389-.305.529h10.297zm14.831 2.62l.927-1.606a13.73 13.73 0 0 1-6.074 1.413c-2.179 0-4.243-.512-6.076-1.413l.93 1.606 4.841 8.386.305.528.305-.528 4.842-8.386zm14.837-2.62l-.306-.529-4.843-8.389-1.089-1.889c-.167 4.482-2.482 8.416-5.942 10.807h12.18zm0-23.073h-12.82a13.757 13.757 0 0 1 6.56 10.84l1.111-1.924 4.843-8.391.306-.525zm-16.48 9.29c0-.6-.401-1.035-1.017-1.035h-5.024v2.071h5.024c.599.001 1.017-.433 1.017-1.036zm-.681 3.405h-5.36v2.24h5.36c.665 0 1.099-.469 1.099-1.117 0-.653-.435-1.123-1.099-1.123z"/><path d="M400.994 27.464c-6.222 0-11.284 5.063-11.284 11.283 0 6.222 5.062 11.286 11.284 11.286s11.284-5.064 11.284-11.286c-.001-6.22-5.063-11.283-11.284-11.283zm2.822 16.976h-.409v2.172h-1.97V44.44h-.996v2.172h-1.972v-2.168h-3.939v-2.493h1.253v-6.7h-1.253v-2.5h3.939v-2.168h1.972v2.168h.996v-2.168h1.97v2.168h.073c2.036 0 3.688 1.319 3.688 3.34 0 .969-.382 1.737-1.017 2.288.867.553 1.435 1.452 1.435 2.64 0 2.07-1.688 3.421-3.77 3.421z"/></g><g fill-rule="evenodd" clip-rule="evenodd" fill="#FFF"><path d="M706.896 89.507v-.665c0-5.388-.021-10.773.005-16.16.021-4.907 3.088-8.686 7.816-9.694 4.01-.856 8.405 1.23 10.33 4.876.811 1.533 1.146 3.155 1.134 4.888-.025 5.334-.009 10.668-.002 16.003v.751l-19.283.001zm15.796-34.45c-.021 3.36-2.813 6.1-6.196 6.073-3.381-.025-6.085-2.785-6.062-6.19.032-3.402 2.806-6.173 6.142-6.125 3.428.046 6.128 2.807 6.116 6.242zm11.126 34.45v-.665c0-5.388-.016-10.773.008-16.16.021-4.907 3.09-8.686 7.818-9.694 4.01-.856 8.402 1.23 10.328 4.876.81 1.533 1.144 3.155 1.132 4.888-.026 5.334-.005 10.668 0 16.003v.751l-19.286.001zm15.797-34.45c-.017 3.36-2.813 6.1-6.193 6.073-3.384-.025-6.084-2.785-6.063-6.19.03-3.402 2.806-6.173 6.145-6.125a6.171 6.171 0 0 1 6.111 6.242zm-69.646 34.45v-.665c0-5.388-.02-10.773.007-16.16.019-4.907 3.09-8.686 7.813-9.694 4.015-.856 8.41 1.23 10.335 4.876.808 1.533 1.142 3.155 1.135 4.888-.028 5.334-.01 10.668-.005 16.003v.751l-19.285.001zm15.801-34.45c-.021 3.36-2.817 6.1-6.198 6.073-3.384-.025-6.086-2.785-6.061-6.19.028-3.402 2.804-6.173 6.141-6.125 3.429.046 6.126 2.807 6.118 6.242z"/><path d="M723.298 72.607v-.465c0-3.757-.012-7.512.005-11.268.014-3.423 2.153-6.058 5.452-6.762 2.796-.596 5.859.859 7.203 3.402.563 1.068.796 2.2.788 3.408-.016 3.72-.007 7.441 0 11.159v.525l-13.448.001zm11.016-24.023c-.015 2.343-1.963 4.253-4.322 4.236-2.357-.019-4.243-1.944-4.225-4.318.02-2.374 1.956-4.304 4.28-4.271 2.393.031 4.274 1.956 4.267 4.353zm-38.043 24.023v-.465c0-3.757-.012-7.512.005-11.268.015-3.423 2.153-6.058 5.452-6.762 2.796-.596 5.86.859 7.203 3.402.563 1.068.796 2.2.789 3.408-.017 3.72-.008 7.441 0 11.159v.525l-13.449.001zm11.017-24.023c-.015 2.343-1.963 4.253-4.322 4.236a4.263 4.263 0 0 1-4.224-4.318c.019-2.374 1.955-4.304 4.279-4.271 2.393.031 4.274 1.956 4.267 4.353z"/></g><g fill-rule="evenodd" clip-rule="evenodd" fill="#FFF"><path d="M706.898 201.349v-.665c0-5.388-.021-10.773.005-16.16.021-4.907 3.087-8.686 7.815-9.694 4.011-.856 8.405 1.23 10.331 4.876.81 1.533 1.146 3.155 1.134 4.888-.026 5.334-.01 10.668-.003 16.003v.751l-19.282.001zm15.796-34.451c-.021 3.36-2.813 6.1-6.195 6.073-3.381-.025-6.086-2.785-6.063-6.19.033-3.402 2.806-6.172 6.142-6.124 3.429.046 6.128 2.806 6.116 6.241zm11.127 34.451v-.665c0-5.388-.017-10.773.007-16.16.021-4.907 3.09-8.686 7.818-9.694 4.01-.856 8.403 1.23 10.328 4.876.811 1.533 1.144 3.155 1.132 4.888-.025 5.334-.005 10.668 0 16.003v.751l-19.285.001zm15.796-34.451c-.017 3.36-2.813 6.1-6.193 6.073-3.383-.025-6.083-2.785-6.063-6.19.031-3.402 2.806-6.172 6.145-6.124a6.17 6.17 0 0 1 6.111 6.241zm-69.646 34.451v-.665c0-5.388-.019-10.773.007-16.16.019-4.907 3.09-8.686 7.813-9.694 4.016-.856 8.41 1.23 10.336 4.876.808 1.533 1.141 3.155 1.134 4.888-.028 5.334-.01 10.668-.005 16.003v.751l-19.285.001zm15.8-34.451c-.021 3.36-2.817 6.1-6.198 6.073-3.383-.025-6.086-2.785-6.06-6.19.028-3.402 2.804-6.172 6.14-6.124 3.43.046 6.128 2.806 6.118 6.241z"/><path d="M723.301 184.449v-.465c0-3.757-.012-7.512.004-11.268.015-3.423 2.153-6.058 5.452-6.762 2.796-.596 5.86.859 7.203 3.402.563 1.068.796 2.2.789 3.408-.017 3.72-.007 7.441 0 11.159v.525l-13.448.001zm11.015-24.024c-.014 2.343-1.963 4.253-4.322 4.235-2.357-.019-4.242-1.944-4.224-4.317.019-2.374 1.955-4.304 4.28-4.271 2.393.031 4.273 1.956 4.266 4.353zm-38.042 24.024v-.465c0-3.757-.012-7.512.005-11.268.014-3.423 2.152-6.058 5.451-6.762 2.797-.596 5.86.859 7.203 3.402.563 1.068.796 2.2.789 3.408-.017 3.72-.007 7.441 0 11.159v.525l-13.448.001zm11.016-24.024c-.014 2.343-1.963 4.253-4.322 4.235-2.357-.019-4.242-1.944-4.224-4.317.019-2.374 1.956-4.304 4.28-4.271a4.305 4.305 0 0 1 4.266 4.353z"/></g><circle fill="none" stroke="#FFF" stroke-width="2" stroke-linecap="round" stroke-linejoin="round" stroke-miterlimit="10" cx="400.684" cy="204.781" r="58.703"/><path fill="none" stroke="#FFF" stroke-width="2" stroke-linecap="round" stroke-linejoin="round" stroke-miterlimit="10" d="M341.981 50.033v153.416M459.387 49.973v153.416m168.104 45.67c0 7.968-6.459 14.425-14.425 14.425H520.02c-7.966 0-14.425-6.458-14.425-14.425V15.627c0-7.967 6.459-14.425 14.425-14.425h93.046c7.966 0 14.425 6.458 14.425 14.425v233.432z"/><path d="M136.231 182.228l41.625-15.162m-31.854 19.048l-9.771-3.886 5.374-9.041m26.523-9.964l9.774 3.887-5.376 9.041" clip-rule="evenodd" fill="none" stroke="#FFF" stroke-width="2" stroke-linecap="round" stroke-miterlimit="10"/><path fill-rule="evenodd" clip-rule="evenodd" fill="#FFF" d="M285.736 100.242c-.398 15.55-2.706 30.743-8.527 45.282-8.093 20.221-21.815 35.56-40.396 46.68-18.578-11.121-32.297-26.459-40.399-46.68-5.818-14.539-8.123-29.732-8.521-45.282-.102-4.003-.066-4.008 3.976-4.269 12.192-.791 23.69-4.028 34.486-9.755 3.632-1.926 7.103-4.111 10.458-6.482 3.36 2.372 6.822 4.556 10.46 6.482 10.79 5.728 22.294 8.964 34.482 9.755 4.043.261 4.082.265 3.981 4.269z"/><text transform="translate(202.915 130.952)"><tspan x="0" y="0" fill="#5252AA" font-family="'Gilroy-ExtraBold'" font-size="18.851">Watch</tspan><tspan x="12.404" y="17.28" fill="#5252AA" font-family="'Gilroy-ExtraBold'" font-size="18.851">Dog</tspan></text><path opacity=".3" fill="#FFF" d="M237.187 79.959c3.36 2.372 6.822 4.557 10.461 6.484 10.79 5.726 22.293 8.964 34.482 9.755 4.042.26 4.081.265 3.979 4.267-.398 15.551-2.705 30.742-8.526 45.282-8.093 20.222-21.816 35.561-40.396 46.68-18.578-11.12-32.297-26.458-40.399-46.68-5.818-14.54-8.123-29.731-8.52-45.282-.103-4.002-.066-4.007 3.976-4.267 12.191-.792 23.689-4.029 34.485-9.755 3.632-1.926 7.103-4.112 10.458-6.484m0-9.369l-4.416 3.118c-3.31 2.341-6.46 4.293-9.626 5.972-9.755 5.176-20.318 8.164-31.396 8.881-2.835.183-6.052.389-8.623 3.127-2.667 2.833-2.58 6.236-2.509 8.972.464 18.169 3.429 33.848 9.065 47.929 8.505 21.233 23.167 38.189 43.574 50.406l3.931 2.353 3.932-2.353c20.416-12.22 35.074-29.179 43.567-50.404 5.642-14.087 8.608-29.765 9.074-47.931.069-2.734.159-6.141-2.514-8.979-2.571-2.733-5.788-2.938-8.625-3.122-11.08-.72-21.642-3.705-31.382-8.877-3.152-1.668-6.3-3.62-9.639-5.975l-4.413-3.117z"/><path opacity=".2" fill="#FFF" d="M237.187 70.839l4.413 3.118c3.339 2.354 6.487 4.307 9.639 5.975 9.74 5.172 20.302 8.158 31.382 8.877 2.837.183 6.054.388 8.625 3.121 2.673 2.839 2.583 6.246 2.514 8.979-.466 18.166-3.432 33.843-9.074 47.93-8.493 21.225-23.151 38.185-43.567 50.404l-3.932 2.353-3.931-2.353c-20.408-12.217-35.069-29.173-43.574-50.406-5.636-14.082-8.601-29.76-9.065-47.929-.071-2.736-.158-6.139 2.509-8.973 2.571-2.739 5.788-2.944 8.623-3.127 11.079-.717 21.641-3.705 31.396-8.881 3.166-1.679 6.317-3.631 9.626-5.972l4.416-3.116m.001-10.302l-4.855 3.428-4.416 3.118c-3.006 2.127-5.855 3.896-8.715 5.412-8.697 4.615-18.117 7.278-27.998 7.918-3.509.227-9.371.606-14.214 5.765-5.037 5.354-4.874 11.597-4.786 14.953.489 19.18 3.651 35.811 9.664 50.835 9.205 22.978 25.039 41.313 47.064 54.499l3.934 2.354 4.32 2.585 4.321-2.585 3.932-2.353c22.032-13.187 37.865-31.522 47.059-54.499 6.017-15.023 9.181-31.654 9.673-50.841.085-3.367.244-9.608-4.801-14.965-4.84-5.145-10.7-5.522-14.201-5.749-9.894-.642-19.308-3.305-27.985-7.912-2.835-1.5-5.689-3.272-8.735-5.42l-4.407-3.113-4.854-3.43z"/><path opacity=".1" fill="#FFF" d="M237.188 60.785l4.854 3.43 4.407 3.113c3.046 2.148 5.9 3.92 8.735 5.42 8.677 4.608 18.091 7.27 27.985 7.913 3.501.227 9.361.604 14.201 5.749 5.044 5.356 4.886 11.599 4.801 14.965-.492 19.187-3.657 35.817-9.673 50.84-9.194 22.976-25.027 41.312-47.059 54.499l-3.932 2.353-4.321 2.585-4.32-2.585-3.934-2.354c-22.025-13.186-37.859-31.521-47.064-54.499-6.013-15.025-9.175-31.656-9.664-50.836-.088-3.355-.251-9.599 4.786-14.952 4.843-5.16 10.705-5.539 14.214-5.765 9.881-.64 19.301-3.304 27.998-7.918 2.86-1.516 5.709-3.285 8.715-5.412l4.416-3.118 4.855-3.428m.002-10.303l-4.855 3.429-4.855 3.428-4.416 3.117c-2.717 1.923-5.267 3.508-7.802 4.851-7.642 4.055-15.917 6.395-24.602 6.957-4.117.266-12.686.819-19.806 8.403-7.405 7.87-7.165 17.023-7.062 20.932.515 20.191 3.873 37.773 10.263 53.741 9.906 24.728 26.915 44.44 50.554 58.592l3.935 2.355 4.322 2.585 4.32 2.585 4.32-2.585 4.32-2.585 3.932-2.353c23.649-14.154 40.658-33.868 50.551-58.593 6.395-15.966 9.755-33.549 10.272-53.75.1-3.913.333-13.072-7.086-20.95-7.109-7.558-15.668-8.111-19.781-8.377-8.695-.564-16.966-2.902-24.584-6.947-2.521-1.333-5.08-2.923-7.833-4.865l-4.4-3.108-4.854-3.43-4.853-3.432z"/></svg>