<svg xmlns="http://www.w3.org/2000/svg" width="133.158" height="157.102" viewBox="0 0 133.158 157.102"><path d="M22.42 79.286c0-3.206 2.382-5.666 5.665-5.666 1.977 0 3.72.98 4.67 2.521l-2.148 1.245c-.482-.84-1.416-1.338-2.521-1.338-1.93 0-3.175 1.292-3.175 3.237s1.245 3.237 3.175 3.237c1.105 0 2.055-.498 2.521-1.339l2.148 1.245c-.935 1.541-2.678 2.521-4.67 2.521-3.283.002-5.665-2.457-5.665-5.663zm15.176 1.867h-1.183v3.58h-2.49V73.838h4.358a3.726 3.726 0 0 1 3.735 3.735c0 1.338-.81 2.552-2.008 3.159l2.319 4H39.65l-2.054-3.579zm-1.183-2.179h1.868c.685 0 1.245-.607 1.245-1.4 0-.794-.561-1.401-1.245-1.401h-1.868v2.801zm11.986 1.572v4.187h-2.49v-4.187l-3.657-6.708h2.833l2.069 4.202 2.07-4.202h2.833l-3.658 6.708zm12.531-2.972c0 2.07-1.665 3.735-3.813 3.735h-1.635v3.424h-2.49V73.838h4.125c2.148 0 3.813 1.665 3.813 3.736zm-2.491 0c0-.794-.56-1.401-1.322-1.401h-1.635v2.801h1.635c.763 0 1.322-.607 1.322-1.4zm10.897-1.339h-2.802v8.498h-2.49v-8.498h-2.802v-2.396h8.094v2.396zm.001 3.051c0-3.206 2.537-5.666 5.665-5.666 3.129 0 5.666 2.459 5.666 5.666s-2.537 5.665-5.666 5.665c-3.128 0-5.665-2.459-5.665-5.665zm8.841 0c0-1.946-1.401-3.237-3.176-3.237-1.773 0-3.175 1.292-3.175 3.237s1.401 3.237 3.175 3.237c1.774 0 3.176-1.292 3.176-3.237zm11.829-1.712c0 2.07-1.665 3.735-3.813 3.735H84.56v3.424h-2.49V73.838h4.125c2.147 0 3.812 1.665 3.812 3.736zm-2.49 0c0-.794-.56-1.401-1.322-1.401H84.56v2.801h1.635c.762 0 1.322-.607 1.322-1.4zm3.192 1.712c0-3.206 2.537-5.666 5.665-5.666 3.129 0 5.666 2.459 5.666 5.666s-2.537 5.665-5.666 5.665c-3.128 0-5.665-2.459-5.665-5.665zm8.841 0c0-1.946-1.401-3.237-3.176-3.237s-3.175 1.292-3.175 3.237 1.4 3.237 3.175 3.237 3.176-1.292 3.176-3.237zm10.274 3.05v2.397h-6.382V73.838h2.49v8.498h3.892zm3.58-8.498v10.895h-2.49V73.838h2.49zm1.402 5.448c0-3.206 2.382-5.666 5.665-5.666 1.977 0 3.72.98 4.67 2.521l-2.148 1.245c-.482-.84-1.416-1.338-2.521-1.338-1.93 0-3.175 1.292-3.175 3.237s1.245 3.237 3.175 3.237c1.105 0 2.055-.498 2.521-1.339l2.148 1.245c-.935 1.541-2.678 2.521-4.67 2.521-3.283.002-5.665-2.457-5.665-5.663zm18.352 3.05v2.397h-6.849V73.838h6.771v2.396h-4.28v1.806h3.892v2.366H128.8v1.93h4.358zm-100.8 11.219c0-3.207 2.382-5.666 5.665-5.666 1.977 0 3.72.98 4.67 2.521l-2.148 1.245c-.482-.84-1.416-1.338-2.521-1.338-1.93 0-3.175 1.292-3.175 3.237s1.245 3.237 3.175 3.237c1.105 0 2.055-.498 2.521-1.338l2.148 1.245c-.935 1.541-2.678 2.521-4.67 2.521-3.283.001-5.665-2.458-5.665-5.664zm10.881 0c0-3.207 2.537-5.666 5.665-5.666 3.129 0 5.666 2.459 5.666 5.666 0 3.206-2.537 5.665-5.666 5.665-3.128 0-5.665-2.459-5.665-5.665zm8.841 0c0-1.946-1.401-3.237-3.176-3.237-1.773 0-3.175 1.292-3.175 3.237s1.401 3.237 3.175 3.237c1.775 0 3.176-1.292 3.176-3.237zm14.787 5.447h-2.49v-6.334l-2.816 4.623h-.28l-2.817-4.623v6.334h-2.49V88.107h2.49l2.957 4.841 2.957-4.841h2.49v10.895zm12.764 0h-2.49v-6.334l-2.816 4.623h-.28l-2.817-4.623v6.334h-2.49V88.107h2.49l2.957 4.841 2.957-4.841h2.49v10.895zm1.793-3.518v-7.377h2.49v7.16c0 .825.389 1.525 1.712 1.525 1.322 0 1.712-.701 1.712-1.525v-7.16h2.49v7.377c0 2.334-1.806 3.735-4.202 3.735-2.397.001-4.202-1.4-4.202-3.735zm18.756-7.377v10.895h-1.868l-4.202-5.915v5.915h-2.49V88.107h1.868l4.202 5.915v-5.915h2.49zm4.358 0v10.895h-2.49V88.107h2.49zm9.185 2.397h-2.802v8.498h-2.49v-8.498h-2.802v-2.397h8.094v2.397zm6.303 4.311v4.187h-2.49v-4.187l-3.657-6.708h2.833l2.069 4.203 2.07-4.203h2.833l-3.658 6.708z" fill="#FFF"/><path d="M31.992 127.83l-30.418.01m7.822 6.938l-7.855-6.997 8.145-6.651m22.323-88.071l-30.42.008m7.821 6.939L1.561 33.01l8.138-6.653" clip-rule="evenodd" fill="none" stroke="#FFF" stroke-width="2" stroke-linecap="round" stroke-miterlimit="10"/><path d="M71.756 45.272v-.665c0-5.388-.021-10.772.005-16.159.021-4.906 3.087-8.685 7.815-9.693 4.01-.855 8.404 1.23 10.329 4.876.811 1.533 1.146 3.155 1.134 4.888-.025 5.333-.009 10.667-.002 16.001v.751l-19.281.001zm15.795-34.446c-.021 3.359-2.813 6.099-6.195 6.072-3.381-.024-6.085-2.784-6.062-6.189.033-3.402 2.806-6.172 6.142-6.124 3.427.045 6.127 2.806 6.115 6.241zm11.125 34.446v-.665c0-5.388-.016-10.772.008-16.159.021-4.906 3.089-8.685 7.817-9.693 4.01-.855 8.401 1.23 10.327 4.876.81 1.533 1.143 3.155 1.131 4.888-.025 5.333-.004 10.667 0 16.001v.751l-19.283.001zm15.795-34.446c-.017 3.359-2.813 6.099-6.192 6.072-3.384-.024-6.083-2.784-6.062-6.189.03-3.402 2.805-6.172 6.144-6.124 3.424.045 6.126 2.806 6.11 6.241zm-69.64 34.446v-.665c0-5.388-.019-10.772.008-16.159.019-4.906 3.089-8.685 7.813-9.693 4.015-.855 8.409 1.23 10.334 4.876.808 1.533 1.141 3.155 1.134 4.888-.028 5.333-.009 10.667-.005 16.001v.751l-19.284.001zm15.8-34.446c-.021 3.359-2.817 6.099-6.197 6.072-3.384-.024-6.086-2.784-6.06-6.189.028-3.402 2.803-6.172 6.139-6.124 3.429.045 6.128 2.806 6.118 6.241z" fill-rule="evenodd" clip-rule="evenodd" fill="#FFF"/><path d="M88.156 28.374v-.464c0-3.756-.012-7.511.005-11.267.015-3.422 2.153-6.057 5.451-6.761 2.796-.596 5.859.859 7.202 3.401.563 1.068.796 2.2.789 3.408-.017 3.72-.007 7.441 0 11.158v.524l-13.447.001zM99.172 4.353c-.015 2.343-1.963 4.253-4.322 4.235-2.357-.019-4.242-1.944-4.224-4.317S92.582-.032 94.906 0c2.392.031 4.273 1.956 4.266 4.353zM61.133 28.374v-.464c0-3.756-.012-7.511.005-11.267.015-3.422 2.153-6.057 5.451-6.761 2.796-.596 5.859.859 7.202 3.401.563 1.068.796 2.2.789 3.408-.017 3.72-.007 7.441 0 11.158v.524l-13.447.001zM72.148 4.353c-.015 2.343-1.963 4.253-4.322 4.235-2.357-.019-4.242-1.944-4.224-4.317.02-2.374 1.956-4.303 4.28-4.271 2.392.031 4.273 1.956 4.266 4.353z" fill-rule="evenodd" clip-rule="evenodd" fill="#FFF"/><g fill-rule="evenodd" clip-rule="evenodd" fill="#FFF"><path d="M71.759 157.102v-.665c0-5.388-.021-10.772.005-16.159.021-4.906 3.087-8.685 7.814-9.693 4.01-.856 8.404 1.23 10.33 4.876.81 1.533 1.146 3.155 1.134 4.888-.026 5.333-.01 10.667-.003 16.001v.751l-19.28.001zm15.794-34.447c-.021 3.359-2.813 6.099-6.195 6.072-3.38-.024-6.085-2.784-6.062-6.189.033-3.402 2.806-6.172 6.142-6.124 3.427.045 6.126 2.806 6.115 6.241zm11.126 34.447v-.665c0-5.388-.017-10.772.007-16.159.021-4.906 3.09-8.685 7.817-9.693 4.01-.856 8.402 1.23 10.327 4.876.811 1.533 1.144 3.155 1.132 4.888-.026 5.333-.005 10.667 0 16.001v.751l-19.283.001zm15.795-34.447c-.017 3.359-2.813 6.099-6.193 6.072-3.383-.024-6.083-2.784-6.062-6.189.03-3.402 2.806-6.172 6.144-6.124 3.424.045 6.126 2.806 6.111 6.241zm-69.64 34.447v-.665c0-5.388-.02-10.772.007-16.159.019-4.906 3.09-8.685 7.813-9.693 4.015-.856 8.409 1.23 10.335 4.876.807 1.533 1.141 3.155 1.134 4.888-.028 5.333-.01 10.667-.005 16.001v.751l-19.284.001zm15.799-34.447c-.021 3.359-2.816 6.099-6.197 6.072-3.383-.024-6.085-2.784-6.06-6.189.028-3.402 2.804-6.172 6.14-6.124 3.429.045 6.127 2.806 6.117 6.241z"/><path d="M88.159 140.203v-.464c0-3.756-.012-7.511.005-11.267.014-3.423 2.152-6.057 5.45-6.761 2.797-.597 5.86.859 7.203 3.401.563 1.068.796 2.2.788 3.408-.016 3.72-.007 7.441 0 11.158v.524l-13.446.001zm11.015-24.02c-.014 2.343-1.963 4.252-4.322 4.235a4.262 4.262 0 0 1-4.223-4.317c.019-2.374 1.955-4.303 4.279-4.271 2.393.031 4.273 1.956 4.266 4.353zm-38.038 24.02v-.464c0-3.756-.012-7.511.005-11.267.014-3.423 2.152-6.057 5.451-6.761 2.796-.597 5.859.859 7.202 3.401.563 1.068.796 2.2.789 3.408-.017 3.72-.008 7.441 0 11.158v.524l-13.447.001zm11.014-24.02c-.014 2.343-1.963 4.252-4.322 4.235a4.262 4.262 0 0 1-4.223-4.317c.019-2.374 1.955-4.303 4.279-4.271 2.393.031 4.273 1.956 4.266 4.353z"/></g></svg>