<svg xmlns="http://www.w3.org/2000/svg" width="161.519" height="264.255"><linearGradient id="a" gradientUnits="userSpaceOnUse" x1="1121.041" y1="1419.19" x2="1380.893" y2="1419.19" gradientTransform="rotate(-90 31.211 1350.824)"><stop offset="0" stop-color="#706dcb" stop-opacity="0"/><stop offset="1" stop-color="#706dcb" stop-opacity=".7"/></linearGradient><path fill="url(#a)" d="M146.095 260.994c7.291 0 13.222-5.931 13.222-13.222V14.365c0-7.291-5.931-13.222-13.222-13.222H53.061c-7.291 0-13.222 5.931-13.222 13.222v233.408c0 7.291 5.931 13.222 13.222 13.222h93.034z"/><path d="M71.711 128.756h-2.49v-6.334l-2.816 4.623h-.28l-2.817-4.623v6.334h-2.49v-10.895h2.49l2.957 4.841 2.957-4.841h2.49v10.895zm1.793-3.517v-7.377h2.49v7.16c0 .825.389 1.525 1.712 1.525 1.322 0 1.712-.701 1.712-1.525v-7.16h2.49v7.377c0 2.334-1.806 3.735-4.202 3.735-2.397 0-4.202-1.401-4.202-3.735zm16.576 1.12v2.397h-6.382v-10.895h2.49v8.498h3.892zm7.316-6.101h-2.802v8.498h-2.49v-8.498h-2.802v-2.397h8.094v2.397zm3.581-2.397v10.895h-2.49v-10.895h2.49zm8.251 8.498v2.397h-6.382v-10.895h2.49v8.498h3.892zm7.938 0v2.397h-6.849v-10.895h6.771v2.397h-4.28v1.806h3.892v2.366h-3.892v1.93h4.358zm.468-8.498h2.724l2.412 8.016 2.413-8.016h2.724l-3.549 10.895h-3.175l-3.549-10.895zm18.055 8.498v2.397h-6.849v-10.895h6.771v2.397h-4.28v1.806h3.892v2.366h-3.892v1.93h4.358zm7.784 0v2.397h-6.382v-10.895h2.49v8.498h3.892zm-92.323 5.772h2.724l2.412 8.015 2.413-8.015h2.724l-3.549 10.895h-3.175l-3.549-10.895zm18.056 8.497v2.397h-6.849V132.13h6.771v2.396h-4.28v1.806h3.892v2.366h-3.892v1.93h4.358zm5.075-1.182h-1.184v3.58h-2.49v-10.895h4.358a3.726 3.726 0 0 1 3.735 3.735c0 1.338-.81 2.552-2.008 3.159l2.318 4h-2.677l-2.052-3.579zm-1.183-2.179h1.868c.685 0 1.245-.607 1.245-1.4 0-.794-.561-1.401-1.245-1.401h-1.868v2.801zm9.573-5.136v10.895h-2.49v-10.895h2.49zm4.358 2.396v2.101h4.047v2.397h-4.047v4h-2.49V132.13h6.615v2.396h-4.125zm8.095-2.396v10.895h-2.49v-10.895h2.49zm1.401 5.447c0-3.206 2.382-5.666 5.665-5.666 1.977 0 3.72.98 4.67 2.521l-2.148 1.245c-.482-.84-1.416-1.338-2.521-1.338-1.93 0-3.175 1.292-3.175 3.237s1.245 3.237 3.175 3.237c1.105 0 2.055-.498 2.521-1.339l2.148 1.245c-.935 1.541-2.678 2.521-4.67 2.521-3.283.002-5.665-2.457-5.665-5.663zm17.886 3.735h-4.047l-.545 1.712h-2.724l3.704-10.895h3.175l3.705 10.895h-2.725l-.543-1.712zm-.747-2.334l-1.276-4-1.276 4h2.552zm11.487-4.452h-2.802v8.498h-2.49v-8.498h-2.802v-2.396h8.094v2.396zm3.58-2.396v10.895h-2.49v-10.895h2.49zm1.402 5.447c0-3.206 2.537-5.666 5.665-5.666 3.129 0 5.666 2.459 5.666 5.666s-2.537 5.665-5.666 5.665c-3.128 0-5.665-2.459-5.665-5.665zm8.841 0c0-1.946-1.401-3.237-3.176-3.237s-3.175 1.292-3.175 3.237 1.4 3.237 3.175 3.237 3.176-1.292 3.176-3.237zm12.453-5.447v10.895h-1.868l-4.202-5.914v5.914h-2.49v-10.895h1.868l4.202 5.914v-5.914h2.49z" fill="#FFF"/><path d="M37.894 77.083l-36.323.008m7.823 6.939L1.54 77.034l8.142-6.653m28.212 101.473l-36.309.01m7.822 6.938l-7.85-6.997 8.139-6.651M65.13 41.529l-9.264 9.263m.003-9.263l9.266 9.263M52.871 21.551l5.996 5.993m9.261-9.263l-9.261 9.263m-5.996 38.247l5.996 5.994m9.261-9.267l-9.261 9.267m-5.996 15.527l5.996 5.996m9.261-9.268l-9.261 9.268m6.263 96.154l-9.264 9.263m0-9.263l9.264 9.263m-12.259-29.242l5.993 5.994m9.264-9.264l-9.264 9.264m-5.993 59.766l5.993 5.992m9.264-9.263l-9.264 9.263m6.271-28.871l-9.266 9.265m.002-9.265l9.264 9.265" clip-rule="evenodd" fill="none" stroke="#FFF" stroke-width="2" stroke-linecap="round" stroke-miterlimit="10"/><path d="M107.922 39.323v-.614c0-4.986-.014 4.292.01-.69.019-4.541 2.854-8.031 7.226-8.966 3.714-.791 7.778 1.139 9.56 4.51.744 1.418 1.055 2.918 1.045 4.521-.023 4.936-.005-4.389-.002.542v.696l-17.839.001zm14.617-17.603c-.02 3.105-2.606 5.639-5.733 5.616-3.129-.023-5.63-2.578-5.606-5.726.026-3.146 2.595-5.708 5.682-5.664 3.166.043 5.664 2.595 5.657 5.774z" fill-rule="evenodd" clip-rule="evenodd" fill="#FFF"/><path d="M95.786 48.475c0-2.222 1.759-3.927 3.927-3.927 2.169 0 3.928 1.705 3.928 3.927 0 2.223-1.759 3.927-3.928 3.927-2.168-.001-3.927-1.705-3.927-3.927zm6.128 0c0-1.349-.971-2.244-2.201-2.244-1.229 0-2.2.895-2.2 2.244s.971 2.244 2.2 2.244c1.23 0 2.201-.896 2.201-2.244zm4.427-2.115v1.456h2.806v1.662h-2.806v2.772h-1.726v-7.552h4.585v1.662h-2.859zm5.611 0v1.456h2.806v1.662h-2.806v2.772h-1.726v-7.552h4.585v1.662h-2.859zm5.612-1.661v7.552h-1.726v-7.552h1.726zm.972 3.776c0-2.222 1.651-3.927 3.927-3.927 1.37 0 2.579.68 3.237 1.748l-1.489.863c-.334-.583-.981-.928-1.748-.928-1.337 0-2.2.895-2.2 2.244s.863 2.244 2.2 2.244c.767 0 1.425-.345 1.748-.928l1.489.863c-.647 1.068-1.856 1.748-3.237 1.748-2.275-.001-3.927-1.705-3.927-3.927zm12.723 2.114v1.661h-4.746v-7.552h4.692v1.662h-2.967v1.251h2.697v1.64h-2.697v1.338h3.021zm3.519-.82h-.82v2.481h-1.726v-7.552h3.021a2.582 2.582 0 0 1 2.589 2.589c0 .928-.561 1.769-1.392 2.19l1.607 2.772h-1.855l-1.424-2.48zm-.82-1.51h1.295c.475 0 .863-.42.863-.971s-.389-.971-.863-.971h-1.295v1.942z" fill="#FFF"/><path d="M107.922 87.152v-.61c0-4.986-.014 4.292.01-.69.019-4.541 2.854-8.031 7.226-8.966 3.714-.791 7.778 1.134 9.56 4.51.744 1.418 1.055 2.917 1.045 4.521-.023 4.935-.005-4.389-.002.54v.695h-17.839zm14.617-17.602c-.02 3.106-2.606 5.642-5.733 5.618-3.129-.025-5.63-2.578-5.606-5.726.026-3.15 2.595-5.708 5.682-5.667 3.166.046 5.664 2.599 5.657 5.775z" fill-rule="evenodd" clip-rule="evenodd" fill="#FFF"/><path d="M95.786 96.306c0-2.222 1.759-3.927 3.927-3.927 2.169 0 3.928 1.705 3.928 3.927 0 2.223-1.759 3.927-3.928 3.927-2.168-.001-3.927-1.705-3.927-3.927zm6.128 0c0-1.349-.971-2.244-2.201-2.244-1.229 0-2.2.895-2.2 2.244s.971 2.244 2.2 2.244c1.23 0 2.201-.896 2.201-2.244zm4.427-2.115v1.456h2.806v1.662h-2.806v2.772h-1.726V92.53h4.585v1.662h-2.859zm5.611 0v1.456h2.806v1.662h-2.806v2.772h-1.726V92.53h4.585v1.662h-2.859zm5.612-1.661v7.552h-1.726V92.53h1.726zm.972 3.776c0-2.222 1.651-3.927 3.927-3.927 1.37 0 2.579.68 3.237 1.748l-1.489.863c-.334-.583-.981-.928-1.748-.928-1.337 0-2.2.895-2.2 2.244s.863 2.244 2.2 2.244c.767 0 1.425-.345 1.748-.928l1.489.863c-.647 1.068-1.856 1.748-3.237 1.748-2.275-.001-3.927-1.705-3.927-3.927zm12.723 2.114v1.661h-4.746V92.53h4.692v1.662h-2.967v1.251h2.697v1.64h-2.697v1.338h3.021zm3.519-.82h-.82v2.481h-1.726V92.53h3.021a2.582 2.582 0 0 1 2.589 2.589c0 .928-.561 1.769-1.392 2.19l1.607 2.772h-1.855l-1.424-2.481zm-.82-1.51h1.295c.475 0 .863-.42.863-.971s-.389-.971-.863-.971h-1.295v1.942z" fill="#FFF"/><path d="M107.922 183.492v-.615c0-4.985-.014 4.292.01-.689.019-4.542 2.854-8.034 7.226-8.967 3.714-.791 7.778 1.14 9.56 4.51.744 1.419 1.055 2.918 1.045 4.524-.023 4.934-.005-4.39-.002.541v.696h-17.839zm14.617-17.603c-.02 3.105-2.606 5.639-5.733 5.616-3.129-.026-5.63-2.578-5.606-5.727.026-3.146 2.595-5.707 5.682-5.662 3.166.041 5.664 2.593 5.657 5.773z" fill-rule="evenodd" clip-rule="evenodd" fill="#FFF"/><path d="M95.786 192.643c0-2.222 1.759-3.927 3.927-3.927 2.169 0 3.928 1.705 3.928 3.927s-1.759 3.927-3.928 3.927c-2.168 0-3.927-1.705-3.927-3.927zm6.128 0c0-1.349-.971-2.244-2.201-2.244-1.229 0-2.2.895-2.2 2.244s.971 2.244 2.2 2.244c1.23 0 2.201-.895 2.201-2.244zm4.427-2.114v1.456h2.806v1.662h-2.806v2.772h-1.726v-7.552h4.585v1.662h-2.859zm5.611 0v1.456h2.806v1.662h-2.806v2.772h-1.726v-7.552h4.585v1.662h-2.859zm5.612-1.662v7.552h-1.726v-7.552h1.726zm.972 3.776c0-2.222 1.651-3.927 3.927-3.927 1.37 0 2.579.68 3.237 1.748l-1.489.863c-.334-.583-.981-.928-1.748-.928-1.337 0-2.2.895-2.2 2.244s.863 2.244 2.2 2.244c.767 0 1.425-.345 1.748-.928l1.489.863c-.647 1.068-1.856 1.748-3.237 1.748-2.275 0-3.927-1.705-3.927-3.927zm12.723 2.115v1.661h-4.746v-7.552h4.692v1.662h-2.967v1.251h2.697v1.64h-2.697v1.338h3.021zm3.519-.82h-.82v2.481h-1.726v-7.552h3.021a2.582 2.582 0 0 1 2.589 2.589c0 .928-.561 1.769-1.392 2.19l1.607 2.772h-1.855l-1.424-2.48zm-.82-1.511h1.295c.475 0 .863-.42.863-.971s-.389-.971-.863-.971h-1.295v1.942z" fill="#FFF"/><g fill="#FFF"><path d="M107.922 231.32v-.61c0-4.985-.014 4.294.01-.689.019-4.541 2.854-8.034 7.226-8.967 3.714-.791 7.778 1.136 9.56 4.511.744 1.417 1.055 2.918 1.045 4.521-.023 4.934-.005-4.39-.002.539v.695h-17.839zm14.617-17.601c-.02 3.107-2.606 5.641-5.733 5.617-3.129-.023-5.63-2.577-5.606-5.726.026-3.15 2.595-5.707 5.682-5.665 3.166.044 5.664 2.597 5.657 5.774z" fill-rule="evenodd" clip-rule="evenodd"/><path d="M95.786 240.474c0-2.222 1.759-3.927 3.927-3.927 2.169 0 3.928 1.705 3.928 3.927s-1.759 3.927-3.928 3.927c-2.168 0-3.927-1.705-3.927-3.927zm6.128 0c0-1.349-.971-2.244-2.201-2.244-1.229 0-2.2.895-2.2 2.244s.971 2.244 2.2 2.244c1.23 0 2.201-.895 2.201-2.244zm4.427-2.114v1.456h2.806v1.662h-2.806v2.772h-1.726v-7.552h4.585v1.662h-2.859zm5.611 0v1.456h2.806v1.662h-2.806v2.772h-1.726v-7.552h4.585v1.662h-2.859zm5.612-1.662v7.552h-1.726v-7.552h1.726zm.972 3.776c0-2.222 1.651-3.927 3.927-3.927 1.37 0 2.579.68 3.237 1.748l-1.489.863c-.334-.583-.981-.928-1.748-.928-1.337 0-2.2.895-2.2 2.244s.863 2.244 2.2 2.244c.767 0 1.425-.345 1.748-.928l1.489.863c-.647 1.068-1.856 1.748-3.237 1.748-2.275 0-3.927-1.705-3.927-3.927zm12.723 2.115v1.661h-4.746v-7.552h4.692v1.662h-2.967v1.251h2.697v1.64h-2.697v1.338h3.021zm3.519-.82h-.82v2.481h-1.726v-7.552h3.021a2.582 2.582 0 0 1 2.589 2.589c0 .928-.561 1.769-1.392 2.19l1.607 2.772h-1.855l-1.424-2.48zm-.82-1.511h1.295c.475 0 .863-.42.863-.971s-.389-.971-.863-.971h-1.295v1.942z"/></g><path clip-rule="evenodd" fill="none" stroke="#FFF" stroke-width=".5" stroke-linecap="round" stroke-linejoin="round" stroke-miterlimit="10" d="M79.11 12.04v93.032m0 49.49v96.431"/><path fill="none" stroke="#FFF" stroke-width="2" stroke-linecap="round" stroke-linejoin="round" stroke-miterlimit="10" d="M160.519 248.831c0 7.967-6.457 14.424-14.424 14.424H53.06c-7.966 0-14.424-6.457-14.424-14.424V15.424C38.636 7.458 45.094 1 53.06 1h93.035c7.967 0 14.424 6.458 14.424 14.424v233.407z"/></svg>