<svg xmlns="http://www.w3.org/2000/svg" width="194.272" height="264.457" viewBox="0 0 194.272 264.457"><linearGradient id="a" gradientUnits="userSpaceOnUse" x1="-1018.358" y1="1175.303" x2="-903.369" y2="1175.303" gradientTransform="rotate(90 60.666 1226.874)"><stop offset="0" stop-color="#706dcb" stop-opacity="0"/><stop offset="1" stop-color="#706dcb" stop-opacity=".7"/></linearGradient><path fill="url(#a)" d="M112.237 262.839c-31.702 0-57.493-25.792-57.493-57.495 0-31.702 25.791-57.494 57.493-57.494 31.704 0 57.495 25.792 57.495 57.494 0 31.703-25.791 57.495-57.495 57.495z"/><linearGradient id="b" gradientUnits="userSpaceOnUse" x1="-1105.364" y1="1175.303" x2="-977.625" y2="1175.303" gradientTransform="rotate(90 60.666 1226.874)"><stop offset="0" stop-color="#706dcb" stop-opacity="0"/><stop offset="1" stop-color="#706dcb" stop-opacity=".7"/></linearGradient><path fill="url(#b)" d="M112.237 145.446c-27.209 0-50.225 18.244-57.493 43.137V60.844h114.988v127.739c-7.269-24.893-30.284-43.137-57.495-43.137z"/><path d="M108.368 0H67.5c-8.617 0-15.626 7.01-15.626 15.626v11.095h2.404V15.626c0-7.291 5.93-13.222 13.222-13.222h38.947A6.137 6.137 0 0 1 108.368 0zm47.359 0h-39.986a6.143 6.143 0 0 1 1.92 2.404h38.066c7.291 0 13.222 5.932 13.222 13.222v11.095h2.404V15.626C171.353 7.01 164.344 0 155.727 0z" fill="#FFF"/><path d="M44.661 123.121l-43.093.011m35.242-7.006l7.851 6.995-8.142 6.655m-27.126.292l-7.853-6.993 8.144-6.657" clip-rule="evenodd" fill="none" stroke="#FFF" stroke-width="2" stroke-linecap="round" stroke-miterlimit="10"/><g fill="#FFF"><path d="M73.474 96.348c0 1.93-1.572 3.19-3.518 3.19H65.38V88.643h4.265c1.899 0 3.439 1.23 3.439 3.113 0 .902-.357 1.618-.949 2.132.81.513 1.339 1.354 1.339 2.46zm-5.603-5.37v1.93h1.774c.561 0 .949-.404.949-.965s-.373-.965-.949-.965h-1.774zm3.113 5.182c0-.606-.405-1.043-1.027-1.043h-2.086v2.086h2.086c.622 0 1.027-.435 1.027-1.043zm10.118.981v2.397H74.72V88.643h2.49v8.498h3.892zm0-3.05c0-3.207 2.537-5.666 5.665-5.666 3.129 0 5.666 2.459 5.666 5.666 0 3.206-2.537 5.665-5.666 5.665-3.128 0-5.665-2.459-5.665-5.665zm8.841 0c0-1.946-1.401-3.237-3.176-3.237-1.773 0-3.175 1.291-3.175 3.237 0 1.945 1.401 3.237 3.175 3.237 1.775 0 3.176-1.292 3.176-3.237zm3.426 0c0-3.207 2.382-5.666 5.665-5.666 1.977 0 3.72.98 4.67 2.521l-2.148 1.245c-.482-.84-1.416-1.338-2.521-1.338-1.93 0-3.175 1.291-3.175 3.237 0 1.945 1.245 3.237 3.175 3.237 1.105 0 2.055-.498 2.521-1.339l2.148 1.245c-.935 1.541-2.678 2.521-4.67 2.521-3.284.002-5.665-2.457-5.665-5.663zm17.479 5.447l-3.486-5.043v5.043h-2.49V88.643h2.49v4.731l3.331-4.731h2.832l-3.673 5.308 3.829 5.588h-2.833z"/><path d="M113.215 94.091c0-3.207 2.382-5.666 5.665-5.666 1.977 0 3.72.98 4.67 2.521l-2.148 1.245c-.482-.84-1.416-1.338-2.521-1.338-1.93 0-3.175 1.291-3.175 3.237 0 1.945 1.245 3.237 3.175 3.237 1.105 0 2.055-.498 2.521-1.339l2.148 1.245c-.935 1.541-2.678 2.521-4.67 2.521-3.283.002-5.665-2.457-5.665-5.663zm19.91-5.448v10.896h-2.49v-4.327h-3.425v4.327h-2.49V88.643h2.49v4.172h3.425v-4.172h2.49zm8.25 9.183h-4.047l-.545 1.712h-2.724l3.704-10.896h3.175l3.704 10.896h-2.724l-.543-1.712zm-.748-2.335l-1.276-4-1.276 4h2.552zm7.441-6.848v10.896h-2.49V88.643h2.49zm10.429 0v10.896h-1.868l-4.202-5.915v5.915h-2.49V88.643h1.868l4.202 5.915v-5.915h2.49zm-61.541 21.973c0 1.93-1.572 3.19-3.518 3.19h-4.576v-10.895h4.265c1.898 0 3.439 1.229 3.439 3.112 0 .903-.357 1.619-.949 2.133.809.515 1.339 1.355 1.339 2.46zm-5.604-5.369v1.93h1.774c.561 0 .949-.405.949-.965 0-.561-.373-.965-.949-.965h-1.774zm3.113 5.183c0-.607-.405-1.043-1.027-1.043h-2.086v2.086h2.086c.622 0 1.027-.437 1.027-1.043zm10.118 1.665h-4.047l-.545 1.712h-2.724l3.704-10.895h3.175l3.704 10.895h-2.724l-.543-1.712zm-.747-2.335l-1.276-3.999-1.276 3.999h2.552zm4.172 1.572l2.148-1.245c.389.903 1.059 1.51 2.288 1.51 1.183 0 1.479-.467 1.479-.887 0-.67-.623-.935-2.257-1.386-1.619-.451-3.206-1.229-3.206-3.314 0-2.102 1.773-3.315 3.657-3.315 1.79 0 3.19.855 3.984 2.459L114 106.383c-.373-.778-.887-1.261-1.883-1.261-.778 0-1.167.39-1.167.825 0 .498.265.84 1.961 1.354 1.649.498 3.502 1.074 3.502 3.378 0 2.101-1.682 3.346-4.047 3.346-2.287-.001-3.75-1.089-4.358-2.693zm16.422.078v2.396h-6.849v-10.895h6.771v2.396h-4.28v1.806h3.892v2.366h-3.892v1.93h4.358zm11.052-3.051c0 3.082-2.288 5.447-5.292 5.447h-4.358v-10.895h4.358c3.004.001 5.292 2.366 5.292 5.448zm-2.398 0c0-1.867-1.183-3.051-2.895-3.051h-1.868v6.102h1.868c1.713 0 2.895-1.182 2.895-3.051zm-45.927 18.005H83.11l-.545 1.712h-2.724l3.704-10.896h3.175l3.705 10.896H87.7l-.543-1.712zm-.747-2.335l-1.276-4-1.276 4h2.552zm8.623.467H93.85v3.58h-2.49V117.18h4.358a3.727 3.727 0 0 1 3.735 3.735c0 1.339-.81 2.553-2.008 3.16l2.319 4h-2.678l-2.053-3.579zm-1.183-2.179h1.868c.685 0 1.245-.607 1.245-1.401 0-.793-.561-1.4-1.245-1.4H93.85v2.801zm6.461.312c0-3.207 2.382-5.666 5.665-5.666 1.977 0 3.72.98 4.67 2.521l-2.148 1.245c-.482-.84-1.416-1.338-2.521-1.338-1.93 0-3.175 1.291-3.175 3.237 0 1.945 1.245 3.237 3.175 3.237 1.105 0 2.055-.498 2.521-1.339l2.148 1.245c-.935 1.541-2.678 2.521-4.67 2.521-3.283.002-5.665-2.457-5.665-5.663zm19.907-5.448v10.896h-2.49v-4.327h-3.424v4.327h-2.49v-10.896h2.49v4.172h3.424v-4.172h2.49zm4.36 0v10.896h-2.49v-10.896h2.49zm.934 0h2.724l2.412 8.016 2.413-8.016h2.724l-3.549 10.896h-3.175l-3.549-10.896zm18.057 8.498v2.397h-6.849V117.18h6.771v2.397h-4.28v1.806h3.892v2.365h-3.892v1.93h4.358z"/></g><path d="M118.625 174.311a3.536 3.536 0 0 0 1.916 6.227c.117.011.236.02.361.02.105 0 .214-.009.319-.019.021-.001.044-.002.07-.005.089-.009.179-.023.268-.042.042-.006.082-.016.122-.025l.159-.041c.083-.026.162-.048.24-.075l.052-.02a3.542 3.542 0 0 0 1.141-.691c.371-.335.669-.75.875-1.217v.001c.127-.292.214-.606.257-.933l-.003-.001c.023-.154.035-.311.035-.472a3.536 3.536 0 0 0-3.535-3.537c-.521 0-1.015.115-1.458.317l-.002-.003a3.389 3.389 0 0 0-.817.513v.003zm5.917 4.246l6.346 2.119c.062-.324.155-.632.284-.924l-6.369-2.128c-.049.325-.134.64-.261.933zm-13.282 2.385v3.814c.159-.019.321-.031.485-.031.162 0 .322.012.484.031v-3.814a4.629 4.629 0 0 1-.486.032c-.161 0-.324-.016-.483-.032zm3.405 9.718a.288.288 0 0 1 .027-.041c.048-.071.092-.147.137-.22.019-.039.04-.074.059-.111.03-.06.059-.122.089-.185.026-.059.05-.117.07-.176.021-.049.038-.098.055-.148.025-.083.052-.168.072-.251.007-.032.017-.06.026-.089.052-.247.082-.505.082-.768a3.525 3.525 0 0 0-2.334-3.318c-.035-.014-.072-.029-.11-.042-.056-.02-.115-.033-.171-.048-.054-.014-.105-.029-.162-.04l-.152-.029a3.924 3.924 0 0 0-.606-.056 4.02 4.02 0 0 0-.617.056l-.141.028c-.059.013-.122.031-.184.048-.047.013-.098.023-.143.039-.057.019-.108.04-.164.06l-.15.056c-.038.018-.07.035-.105.05a3.62 3.62 0 0 0-.712.44 3.287 3.287 0 0 0-.19.169.29.29 0 0 1-.047.038l-.176.184-.04.047a2.064 2.064 0 0 0-.162.201l-.035.048a2.603 2.603 0 0 0-.146.214c-.009.016-.019.033-.025.048-.05.075-.09.154-.129.232-.008.015-.017.029-.021.043-.042.081-.077.167-.113.252-.002.012-.007.023-.012.037a3.608 3.608 0 0 0-.089.272c-.005.006-.005.013-.005.019a3.443 3.443 0 0 0-.113 1.342l.014.074c.012.097.026.192.047.286.015.054.026.107.043.158.017.06.032.123.054.183.021.068.047.134.068.201.019.041.037.081.052.118.035.08.072.159.114.231l.031.063a3.538 3.538 0 0 0 3.096 1.815 3.545 3.545 0 0 0 2.918-1.53zm-2.921-17.182c-.162 0-.324.014-.483.036v.007a3.533 3.533 0 0 0-3.055 3.498c0 .32.047.63.125.925.005.02.009.038.017.057.021.081.049.158.077.237.009.027.019.051.025.075.033.073.063.146.097.22.014.025.025.05.04.073.032.075.072.144.114.212.013.023.026.043.038.068.045.067.089.137.136.202a.829.829 0 0 1 .04.054c.052.069.108.134.165.201.009.011.019.021.027.033a3.554 3.554 0 0 0 2.153 1.146 3.7 3.7 0 0 0 .483.039c.164 0 .324-.018.486-.039a3.557 3.557 0 0 0 1.955-.94l.003-.002c.065-.066.129-.133.192-.202.009-.012.021-.023.032-.034.057-.067.106-.131.155-.197a.375.375 0 0 0 .047-.06c.042-.064.089-.13.134-.198l.042-.072c.043-.067.078-.135.11-.203l.04-.083c.035-.071.066-.143.094-.213.012-.027.021-.056.031-.081.027-.078.054-.153.077-.232.007-.02.012-.043.017-.066.023-.085.045-.171.061-.258.003-.006.003-.012.003-.017a3.531 3.531 0 0 0-2.993-4.14v-.007a3.141 3.141 0 0 0-.485-.039zm-26.536 7.66a2.556 2.556 0 0 0-.012.232c0 .041.003.081.005.123 0 .043.002.088.005.133.005.058.012.114.019.17.007.034.012.065.017.098.012.1.033.197.054.296a3.546 3.546 0 0 0 3.439 2.701 3.537 3.537 0 0 0 3.378-2.479c0-.005.005-.007.005-.009.03-.094.052-.194.075-.291.002-.02.007-.039.012-.058.017-.069.025-.145.035-.214.019-.155.033-.31.033-.469a3.99 3.99 0 0 0-.047-.559l.004-.001a3.43 3.43 0 0 0-.276-.927l-.01.003a3.53 3.53 0 0 0-6.533.287l-.012-.002a3.667 3.667 0 0 0-.195.966h.004zm14.164-2.714v-.001c.202.467.505.882.876 1.217a3.376 3.376 0 0 0 1.136.691l.055.02c.077.027.157.049.237.075.056.013.107.027.161.041.04.009.083.019.122.025.09.019.179.033.271.042l.07.005c.105.009.211.019.317.019a3.539 3.539 0 0 0 2.276-6.247v-.003a3.394 3.394 0 0 0-.816-.513l-.003.003a3.51 3.51 0 0 0-1.457-.317 3.535 3.535 0 0 0-3.503 4.009v.001c.042.327.129.641.258.933zm31.922 2.388c-.03.184-.049.37-.049.559 0 .199.019.396.052.589.004.024.007.049.014.074.01.063.028.125.042.19.012.047.023.097.038.145.014.051.032.099.052.147.019.061.037.121.061.177.017.041.038.08.052.118.033.066.059.129.094.193l.052.096c.04.067.077.134.12.196.019.026.035.053.054.079a2.622 2.622 0 0 0 .197.26c.057.07.122.138.183.204.015.012.023.024.038.036.072.074.15.144.234.211l.007.008a3.525 3.525 0 0 0 2.248.805c.953 0 1.822-.379 2.458-.992.021-.026.047-.049.071-.072.054-.056.107-.114.157-.172.021-.022.035-.041.054-.065.063-.075.124-.156.181-.238.025-.039.049-.075.07-.114.197-.306.343-.645.435-1.005v-.002c.052-.199.084-.405.101-.614.005-.042.005-.082.007-.122.005-.045.005-.088.005-.132 0-.079-.007-.155-.012-.232l.003-.001a3.63 3.63 0 0 0-.197-.966l-.008.002a3.533 3.533 0 0 0-3.324-2.342 3.541 3.541 0 0 0-3.209 2.055l-.007-.002a3.39 3.39 0 0 0-.277.926l.003.001zm-5.155 5.053a3.557 3.557 0 0 0-1.289 1.966c-.002.005-.002.011-.005.014a3.535 3.535 0 0 0-.091.695c0 .042-.003.084-.003.131 0 .22.02.433.057.642.002.004.002.01.002.017.017.084.038.172.06.256.009.024.014.046.019.067.023.08.052.155.077.231a.884.884 0 0 1 .03.081l.094.216c.015.024.026.054.038.081.035.07.073.137.115.204l.042.074a3.251 3.251 0 0 0 .176.255c.052.068.104.134.16.198l.032.035c.062.068.125.135.193.202h.002a3.532 3.532 0 0 0 1.958.942c.155.021.319.038.481.038.164 0 .323-.016.483-.038.385-.053.754-.17 1.089-.335a3.44 3.44 0 0 0 .799-.547 3.51 3.51 0 0 0 1.166-2.619 3.54 3.54 0 0 0-3.537-3.537c-.463 0-.899.09-1.308.252v-.007a3.43 3.43 0 0 0-.841.482v.004zm-.227-.352a3.91 3.91 0 0 1 .833-.486l-3.246-5.033a3.89 3.89 0 0 1-.801.542l3.214 4.977zm-14.168-12.452c.164 0 .324.013.486.033v-3.337h-.97v3.337c.159-.02.322-.033.484-.033zm-6.623.895l2.712-4.199h-1.147l-2.383 3.685c.294.139.572.309.818.514zm14.095-.515l-2.383-3.685h-1.15l2.714 4.2c.244-.205.523-.375.819-.515zm-27.521 15.23a3.54 3.54 0 0 0 1.162 2.619v.004c.237.219.505.402.796.548l.005-.004a3.54 3.54 0 0 0 1.092.335v.005c.157.023.316.039.481.039.164 0 .326-.015.483-.039v-.005a3.538 3.538 0 0 0 3.054-3.501l-.002-.131-.007-.123c-.005-.054-.012-.11-.015-.169-.012-.071-.021-.146-.035-.216-.009-.053-.023-.108-.032-.158a4.052 4.052 0 0 0-.108-.364c-.012-.034-.023-.07-.037-.105a4.666 4.666 0 0 0-.113-.261c-.012-.024-.021-.049-.035-.073-.028-.055-.059-.108-.087-.162-.007-.008-.012-.017-.017-.026a4.491 4.491 0 0 0-.197-.297c-.007-.011-.014-.022-.021-.03a3.596 3.596 0 0 0-.244-.29v-.002a3.931 3.931 0 0 0-.437-.398 3.654 3.654 0 0 0-1.146-.582c-.026-.01-.06-.014-.087-.022a3.22 3.22 0 0 0-.23-.059 3.295 3.295 0 0 0-.254-.038c-.025-.003-.049-.011-.075-.013a3.496 3.496 0 0 0-2.607.791 3.527 3.527 0 0 0-1.287 2.727zm.934-7.995l6.344-2.119a3.976 3.976 0 0 1-.259-.933l-6.366 2.126c.129.294.223.602.281.926zm4.973 4.841l3.216-4.98a3.965 3.965 0 0 1-.798-.542l-3.252 5.037c.299.124.578.291.834.485zm25.683-23.965H99.75a1.915 1.915 0 0 0-1.913 1.917v3.727c0 1.06.856 1.917 1.913 1.917h23.536a1.917 1.917 0 0 0 1.918-1.917v-3.727a1.92 1.92 0 0 0-1.919-1.917zm-41.354 17.113a.59.59 0 0 1 0 1.178.591.591 0 0 1-.592-.589c0-.324.266-.589.592-.589m0-.624c-.671 0-1.216.547-1.216 1.213 0 .669.545 1.214 1.216 1.214.667 0 1.214-.544 1.214-1.214 0-.667-.547-1.213-1.214-1.213zm1.62 1.372c-.03.337-.167.645-.376.89l1.623.668c.032-.334.107-.653.218-.956l-1.465-.602zm-.406 4.571l2.132-.716a3.796 3.796 0 0 1-.359-.899l-2.094.702c.192.256.309.57.321.913zm-1.627-.53a.592.592 0 0 1 0 1.181.59.59 0 0 1 0-1.181m0-.623a1.215 1.215 0 1 0 .001 2.43 1.215 1.215 0 0 0-.001-2.43zm2.822 4.556c.326 0 .589.261.589.586s-.263.591-.589.591c-.324 0-.587-.266-.587-.591s.263-.586.587-.586m0-.625c-.667 0-1.212.545-1.212 1.211a1.215 1.215 0 0 0 2.428 0c0-.666-.545-1.211-1.216-1.211zm1.263.185l1.338-2.074a4.1 4.1 0 0 1-.8-.54l-1.343 2.079c.319.094.601.283.805.535zm3.132 2.011a.59.59 0 1 1-.589.59.59.59 0 0 1 .589-.59m0-.622a1.214 1.214 0 1 0 0 2.428 1.214 1.214 0 0 0 0-2.428zm0-.417a1.6 1.6 0 0 1 .483.073v-2.717a4.053 4.053 0 0 1-.483.032 4.02 4.02 0 0 1-.481-.032v2.717c.15-.048.314-.073.481-.073zm3.352 6.345l1.338-2.072a4.173 4.173 0 0 1-.798-.542l-1.348 2.088c.322.091.601.277.808.526zm-1.252.453a.589.589 0 1 1 .002 1.178.589.589 0 0 1-.002-1.178m0-.625a1.21 1.21 0 1 0 0 2.424c.672 0 1.217-.542 1.217-1.211 0-.667-.545-1.213-1.217-1.213zM95.231 196c.326 0 .587.264.587.59a.59.59 0 0 1-.587.591.591.591 0 0 1 0-1.181m0-.624c-.669 0-1.217.544-1.217 1.213a1.215 1.215 0 1 0 1.217-1.213zm0-.415c.164 0 .331.026.483.073V192.6a4.241 4.241 0 0 1-.483.033c-.165 0-.324-.016-.481-.033v2.434c.15-.047.312-.073.481-.073zm13.393-.505l1.441-2.229a3.757 3.757 0 0 1-.821-.512l-1.425 2.206c.319.095.6.284.805.535zm-1.263.439a.59.59 0 1 1-.002 1.18.59.59 0 0 1 .002-1.18m0-.622c-.669 0-1.214.543-1.214 1.21a1.216 1.216 0 0 0 2.43 0c0-.667-.547-1.21-1.216-1.21zm4.383 2.251a.59.59 0 0 1 0 1.179.591.591 0 0 1-.589-.589.59.59 0 0 1 .589-.59m0-.626a1.214 1.214 0 0 0 0 2.428 1.214 1.214 0 0 0 0-2.428zm0-.415c.169 0 .331.027.486.075v-2.985c-.162.02-.322.032-.484.032-.164 0-.326-.012-.485-.032v2.985c.155-.048.316-.075.483-.075zm4.385-.588a.589.589 0 1 1-.592.588.591.591 0 0 1 .592-.588m0-.622c-.672 0-1.217.543-1.217 1.21a1.217 1.217 0 0 0 2.431 0c0-.667-.548-1.21-1.214-1.21zm-.461-.352l-1.425-2.205a3.79 3.79 0 0 1-.819.513l1.439 2.227c.21-.251.486-.44.805-.535zm12.62 2.079a.59.59 0 0 1 0 1.181.592.592 0 0 1-.59-.591.59.59 0 0 1 .59-.59m0-.624c-.669 0-1.214.544-1.214 1.213a1.215 1.215 0 0 0 2.428 0 1.216 1.216 0 0 0-1.214-1.213zm0-.415c.169 0 .331.026.483.073v-2.44c-.16.02-.319.033-.483.033-.162 0-.326-.013-.481-.033v2.44c.151-.047.314-.073.481-.073zm4.391-.273c.324 0 .592.263.592.589a.595.595 0 0 1-.592.592.59.59 0 0 1 0-1.181m0-.626a1.215 1.215 0 0 0 0 2.43 1.215 1.215 0 1 0 0-2.43zm-.457-.349l-1.336-2.067a3.94 3.94 0 0 1-.801.541l1.334 2.06c.205-.251.484-.44.803-.534zm2.561-4.747a.587.587 0 1 1 0 1.176.59.59 0 0 1 0-1.176m0-.628a1.215 1.215 0 1 0-.002 2.43 1.215 1.215 0 0 0 .002-2.43zm0-.414c.17 0 .331.024.484.073v-2.712c-.16.019-.322.033-.484.033-.164 0-.326-.014-.483-.033v2.712c.153-.049.317-.073.483-.073zm4.395-.537c.323 0 .587.261.587.586s-.264.591-.587.591c-.324 0-.592-.266-.592-.591s.268-.586.592-.586m0-.625c-.669 0-1.217.545-1.217 1.211a1.215 1.215 0 1 0 2.431 0c0-.666-.545-1.211-1.214-1.211zm-.461-.35l-1.335-2.074a4.064 4.064 0 0 1-.804.542l1.336 2.067c.208-.252.484-.441.803-.535zm3.644-2.424c.324 0 .59.265.59.59a.589.589 0 1 1-.59-.59m0-.624a1.215 1.215 0 0 0 0 2.43 1.215 1.215 0 0 0 0-2.43z" fill="#FFF"/><g fill="#FFF"><path d="M91.714 207.659c-.062-.025-.123-.047-.184-.069a3.506 3.506 0 0 0-1.007-.201v.006a3.517 3.517 0 0 0-2.662 1.027 3.53 3.53 0 0 0-.836 3.659c.019.053.032.104.054.153.005.007.005.013.007.021.174.419.43.811.771 1.153a3.539 3.539 0 0 0 4.998.012 3.533 3.533 0 0 0-.01-5 3.563 3.563 0 0 0-1.131-.761zm-6.472 9.071l2.699-2.704a3.688 3.688 0 0 1-.686-.678l-2.694 2.694a3.576 3.576 0 0 1 .681.688zm-7.13-13.605a3.896 3.896 0 0 1-.937-.243l-1.261 5.854c.324.021.641.081.951.183l1.247-5.794zm-12.416-4.844l.016.008a3.536 3.536 0 0 0 1.059 4.326l.074.054c.052.038.106.075.155.109.063.036.125.074.186.108.045.027.092.047.134.07.068.033.137.067.204.094a.822.822 0 0 0 .087.033c.082.035.169.066.256.09l.03.011c1.2.353 2.553.056 3.503-.895a3.538 3.538 0 0 0 .782-3.821l-.043-.097c-.03-.063-.056-.127-.091-.189a2.916 2.916 0 0 0-.154-.274 3.74 3.74 0 0 0-.495-.624 3.318 3.318 0 0 0-.356-.307l-.003.002a3.463 3.463 0 0 0-1.009-.534l.002-.008a3.588 3.588 0 0 0-.951-.181v.012a3.54 3.54 0 0 0-1.089.113l-.007-.012c-.311.08-.61.209-.893.375l.005.014c-.242.146-.479.32-.692.537-.054.053-.104.112-.155.171l-.017-.006a3.721 3.721 0 0 0-.538.821zm38.261 31.573a3.303 3.303 0 0 0-.507-.417c-.026-.017-.047-.035-.075-.053l-.176-.105c-.045-.022-.085-.048-.127-.071l-.087-.04a3.533 3.533 0 0 0-4.378 1.118l-.017-.01a3.572 3.572 0 0 0-.456.851l.017.011a3.534 3.534 0 0 0 .817 3.721 3.508 3.508 0 0 0 2.686 1.026c.014 0 .028 0 .045-.002.067-.002.134-.011.201-.02l.113-.016.166-.028c.08-.019.157-.037.235-.059l.052-.013c.103-.03.209-.067.312-.108l.021-.011a3.54 3.54 0 0 0 1.158-5.774zm-25.812-14.673a3.545 3.545 0 0 0 .895-3.5 3.51 3.51 0 0 0-.89-1.491 3.5 3.5 0 0 0-1.379-.85l.005-.014a3.591 3.591 0 0 0-.946-.182l-.007.018a3.545 3.545 0 0 0-1.479.239l-.01-.013a3.392 3.392 0 0 0-.838.477l.007.015a3.532 3.532 0 0 0-.366 5.302 3.544 3.544 0 0 0 5.008-.001zm12.928 12.927a3.51 3.51 0 0 0 .97-1.815c.002-.004.002-.012.002-.018.015-.083.026-.164.038-.248.005-.047.012-.091.014-.14.005-.055.005-.11.008-.169a3.43 3.43 0 0 0-.179-1.229 3.531 3.531 0 0 0-5.848-1.374 3.515 3.515 0 0 0-1.023 2.808l-.01.001c.028.319.105.637.219.94h.007c.122.331.3.646.521.934.012.012.02.025.028.035a.531.531 0 0 1 .05.058c.065.07.127.146.197.215a3.537 3.537 0 0 0 5.006.002zm13.469-3.023c.41-.412.699-.902.863-1.423.012-.033.023-.069.035-.107.015-.053.026-.106.04-.16.015-.074.033-.148.045-.22.002-.022.01-.048.01-.071.032-.224.044-.453.032-.68h.005a3.455 3.455 0 0 0-.176-.951l-.007.001a3.461 3.461 0 0 0-.533-1.007l.009-.011a4.076 4.076 0 0 0-.323-.379 3.724 3.724 0 0 0-.357-.305l-.012.012a3.534 3.534 0 0 0-4.634.314 3.51 3.51 0 0 0-1 2.967h-.005c.052.379.164.751.341 1.1l.035.075a3.537 3.537 0 0 0 5.632.845zm-6.415-1.929l-5.794 1.247c.099.31.16.629.179.951l5.866-1.263a4.02 4.02 0 0 1-.251-.935zm-13.491 2.859l-4.872 1.045.813.813 4.277-.92a4.257 4.257 0 0 1-.218-.938zm-10.323-9.616l-.922 4.289.814.813 1.049-4.89a3.998 3.998 0 0 1-.941-.212zm5.006 5.549a4.501 4.501 0 0 1-.313-.352l-2.353 2.355.681.682 2.357-2.358a4.05 4.05 0 0 1-.372-.327zm1.843-20.231a3.524 3.524 0 0 0 1.035-2.471v-.044c0-.08-.007-.158-.01-.236a4.253 4.253 0 0 0-.007-.116c-.002-.035-.012-.068-.017-.104a3.484 3.484 0 0 0-.683-1.652l.005-.002a3.252 3.252 0 0 0-.681-.689l-.004.007a3.558 3.558 0 0 0-1.013-.534l.005-.009a3.415 3.415 0 0 0-.948-.183l-.002.015a3.519 3.519 0 0 0-2.677 1.028 3.532 3.532 0 0 0-.012 4.991 3.545 3.545 0 0 0 5.009-.001zm-1.55 19.936c.152.152.314.285.488.403l.102.072c.079.048.159.098.239.141.012.007.023.016.037.02a3.541 3.541 0 0 0 5.179-3.102v-.052c0-.075-.007-.151-.009-.228-.008-.042-.008-.081-.01-.121-.005-.032-.012-.062-.017-.09a3.486 3.486 0 0 0-.683-1.667l.005-.002a3.994 3.994 0 0 0-.324-.38 3.943 3.943 0 0 0-.357-.307l-.007.007a3.532 3.532 0 0 0-4.948 4.951c.094.123.194.244.305.355zm18.6 8.436l-5.982-2.985a4.064 4.064 0 0 1-.474.84l6.003 3c.116-.299.265-.586.453-.855zm-24.06-21.077l-2.986-5.986c-.271.188-.557.34-.854.456l2.995 6.005c.267-.193.546-.355.845-.475zm4.866 26.21a1.92 1.92 0 0 1-2.712 0l-10.237-10.24a1.914 1.914 0 0 1 0-2.712l2.632-2.634a1.916 1.916 0 0 1 2.711 0l10.238 10.24c.751.75.749 1.961 0 2.71l-2.632 2.636zm26.171 3.004a.594.594 0 0 1 0 .834.592.592 0 0 1-.833 0 .59.59 0 1 1 .833-.834m.439-.441a1.216 1.216 0 0 0-1.717 0 1.213 1.213 0 1 0 1.717 0zm-.993-.764l-.674-1.609a3.906 3.906 0 0 1-.829.521l.606 1.449c.261-.216.576-.335.897-.361zm4.233-1.892a.59.59 0 0 1 0 .834.595.595 0 0 1-.833 0 .59.59 0 0 1 .833-.834m.441-.441a1.217 1.217 0 0 0-1.716 0 1.207 1.207 0 0 0 0 1.715 1.211 1.211 0 0 0 1.716 0 1.216 1.216 0 0 0 0-1.715zm-2.061-.236l-1.997-.998c-.09.309-.219.605-.386.891l1.973.982c.043-.318.177-.625.41-.875zm.629-3.635c-.03-.154-.042-.31-.03-.461l-2.646.573a3.743 3.743 0 0 1 .2.945l2.666-.575a1.732 1.732 0 0 1-.19-.482zm2.059-.878a.59.59 0 1 1-.833 0 .593.593 0 0 1 .833 0m.441-.439a1.214 1.214 0 1 0-1.714 1.715 1.214 1.214 0 0 0 1.714-1.715zm-.135-8.923a.588.588 0 1 1-.834.833.585.585 0 0 1 0-.833.592.592 0 0 1 .834 0m.44-.442a1.225 1.225 0 0 0-1.721 0 1.226 1.226 0 0 0 0 1.716 1.22 1.22 0 0 0 1.721 0 1.22 1.22 0 0 0 0-1.716zm-2.481.736l-2.395.516c.097.311.153.629.174.95l2.435-.524a1.607 1.607 0 0 1-.214-.942zm-.161-4.308a.592.592 0 0 1 0 .834.587.587 0 0 1-.831 0 .588.588 0 1 1 .831-.834m.443-.442a1.215 1.215 0 0 0-1.716 1.718 1.214 1.214 0 1 0 1.716-1.718zm-2.012 2.013a1.722 1.722 0 0 1-.277-.372l-1.714 1.714c.122.095.242.198.357.31.117.12.223.245.326.375l1.726-1.728a1.743 1.743 0 0 1-.418-.299zm-7.799-9.37a.793.793 0 0 1 .124.169.587.587 0 0 1-.948.667.59.59 0 0 1 0-.833.6.6 0 0 1 .721-.089c.038.028.068.057.103.086m.439-.442a1.228 1.228 0 0 0-.204-.167 1.208 1.208 0 0 0-1.497.17 1.208 1.208 0 0 0 0 1.716 1.211 1.211 0 0 0 1.713 0c.381-.379.453-.947.23-1.398a1.48 1.48 0 0 0-.242-.321zm-2.218 1.768c.004-.003.012-.004.017-.004a1.642 1.642 0 0 1-.269-.951l-2.547.549c.104.308.164.626.19.947l2.594-.56.015.019zm-.188-5.551c.092.093.16.204.2.33a.59.59 0 0 1-1.005.48.59.59 0 0 1 .502-1c.113.04.219.104.303.19m.444-.44a1.462 1.462 0 0 0-.602-.358 1.219 1.219 0 0 0-1.087.331 1.213 1.213 0 0 0 .003 1.718 1.213 1.213 0 0 0 1.714 0c.283-.285.396-.681.338-1.05a1.421 1.421 0 0 0-.366-.641zm-1.573 2.282a1.59 1.59 0 0 1-.716-.726.172.172 0 0 1-.026.033.268.268 0 0 1 .012.03l-2.082 2.082c.127.101.259.207.376.328.112.113.214.231.308.352l2.082-2.078a.26.26 0 0 0 .021.003c.006-.008.018-.015.025-.024zm-3.094-3.807a.579.579 0 0 1 .002.827.59.59 0 1 1-.155-.946c.058.036.106.076.153.119m.443-.441a1.445 1.445 0 0 0-.301-.224 1.211 1.211 0 0 0-1.413 1.936 1.213 1.213 0 0 0 1.893-1.492 1.977 1.977 0 0 0-.179-.22zm-.817 2.479a1.63 1.63 0 0 1-.955-.279l-.007.014c.012.004.019.014.028.019l-.563 2.614c.321.024.641.083.948.184l.549-2.552zm-9.012-9.854a1.565 1.565 0 0 1-.275-.372l-1.718 1.721c.122.096.239.196.354.309.119.122.225.247.323.378l1.735-1.736a1.613 1.613 0 0 1-.419-.3zm1.571-1.569a.583.583 0 0 1 0 .831.588.588 0 1 1 0-.831m.441-.443a1.213 1.213 0 1 0-1.715 1.717 1.213 1.213 0 0 0 1.715-1.717zm-4.478-1.736a.59.59 0 1 1-.833.833.59.59 0 0 1 .833-.833m.445-.442a1.222 1.222 0 0 0-1.719 0 1.217 1.217 0 0 0 0 1.716 1.219 1.219 0 0 0 1.719 0 1.219 1.219 0 0 0 0-1.716zm-.677 2.475a1.614 1.614 0 0 1-.948-.177l-.519 2.406c.324.021.639.082.948.183l.519-2.412zm-5.301.528a.59.59 0 1 1-.833.833.59.59 0 0 1 .833-.833m.44-.443a1.213 1.213 0 0 0-1.714 0 1.222 1.222 0 0 0 0 1.72 1.214 1.214 0 0 0 1.714-1.72zm-2.008 2.015a1.682 1.682 0 0 1-.276-.373l-1.909 1.91a3.95 3.95 0 0 1 .679.69l1.925-1.928a1.665 1.665 0 0 1-.419-.299zm-2.885-1.527a1.645 1.645 0 0 1-.951-.181l-.519 2.411c.321.023.641.084.948.186l.522-2.416zm.231-2.036a.595.595 0 0 1 .002.835.595.595 0 0 1-.836 0 .595.595 0 0 1 0-.835.594.594 0 0 1 .834 0m.443-.44a1.219 1.219 0 0 0-1.719 0 1.214 1.214 0 1 0 1.719 0zm-5.231 1.208a.593.593 0 0 1 0 .833.593.593 0 0 1-.836 0 .593.593 0 0 1 0-.833.595.595 0 0 1 .836 0m.442-.441a1.215 1.215 0 0 0-1.716 0 1.213 1.213 0 1 0 1.716 0zm.254 2.049a1.64 1.64 0 0 1-.871.418l.997 1.998c.282-.164.58-.293.89-.382l-1.016-2.034zm-2.951 3.55l1.483.617a3.83 3.83 0 0 1 .512-.832l-1.624-.68a1.628 1.628 0 0 1-.371.895zm-.836-1.457a.588.588 0 1 1-.831 0 .588.588 0 0 1 .831 0m.441-.442a1.215 1.215 0 0 0-1.716 0 1.213 1.213 0 1 0 1.716 0zm68.729 12.052a2.82 2.82 0 0 1 .184-.069 3.485 3.485 0 0 1 1.009-.201v.006a3.523 3.523 0 0 1 2.66 1.027c.99.992 1.263 2.42.831 3.659a.984.984 0 0 1-.052.153c-.002.007-.005.013-.005.021a3.616 3.616 0 0 1-.772 1.153 3.541 3.541 0 0 1-5 .012 3.54 3.54 0 0 1 1.145-5.761zm6.472 9.071l-2.702-2.704a3.65 3.65 0 0 0 .686-.678l2.694 2.694a3.797 3.797 0 0 0-.678.688zm7.129-13.605c.317-.043.632-.121.938-.243l1.256 5.854a3.788 3.788 0 0 0-.948.183l-1.246-5.794zm12.415-4.844l-.017.008a3.528 3.528 0 0 1-1.058 4.326c-.023.019-.052.036-.073.054a5.64 5.64 0 0 1-.155.109c-.065.036-.124.074-.188.108-.042.027-.089.047-.131.07-.071.033-.137.067-.205.094-.03.013-.059.023-.087.033a2.294 2.294 0 0 1-.256.09l-.03.011a3.532 3.532 0 0 1-3.503-.895 3.54 3.54 0 0 1-.784-3.821c.015-.032.028-.063.045-.097.028-.063.057-.127.087-.189.033-.061.068-.121.104-.181l.054-.093c.047-.074.097-.144.148-.216.103-.139.218-.279.347-.408.113-.113.232-.213.354-.307l.003.002c.313-.237.65-.415 1.009-.534l-.002-.008c.31-.103.627-.164.951-.181v.012a3.54 3.54 0 0 1 1.089.113l.01-.012c.31.08.61.209.892.375l-.009.014c.249.146.483.32.694.537.057.053.105.112.157.171l.015-.006c.222.256.402.532.539.821zm-38.257 31.573c.154-.16.326-.297.505-.417.021-.017.049-.035.07-.053.059-.035.122-.069.179-.105.047-.022.089-.048.131-.071.026-.015.057-.028.085-.04a3.527 3.527 0 0 1 4.378 1.118l.014-.01c.195.267.348.552.456.851l-.017.011a3.534 3.534 0 0 1-.817 3.721 3.513 3.513 0 0 1-2.688 1.026c-.012 0-.026 0-.04-.002-.068-.002-.136-.011-.207-.02-.035-.005-.072-.012-.109-.016l-.167-.028c-.077-.019-.155-.037-.232-.059l-.052-.013a3.214 3.214 0 0 1-.313-.108c-.007-.002-.012-.007-.021-.011a3.416 3.416 0 0 1-1.155-.77 3.536 3.536 0 0 1 0-5.004zm25.81-14.673a3.535 3.535 0 0 1-.896-3.5c.164-.548.46-1.063.892-1.491a3.483 3.483 0 0 1 1.376-.85l-.005-.014c.305-.104.627-.164.948-.182l.005.018a3.535 3.535 0 0 1 1.479.239l.008-.013c.298.115.579.274.84.477l-.007.015c.124.095.244.196.359.31a3.535 3.535 0 0 1 .246 4.723c-.072.091-.15.182-.239.269a3.541 3.541 0 0 1-5.006-.001zm-12.929 12.927a3.5 3.5 0 0 1-.969-1.815c-.003-.004-.003-.012-.003-.018a2.602 2.602 0 0 1-.037-.248c-.005-.047-.012-.091-.015-.14-.005-.055-.005-.11-.007-.169a1.371 1.371 0 0 1 0-.222 3.513 3.513 0 0 1 1.024-2.381 3.537 3.537 0 0 1 6.026 2.808l.01.001a3.613 3.613 0 0 1-.221.94h-.005a3.696 3.696 0 0 1-.523.934c-.012.012-.021.025-.03.035-.012.019-.033.038-.05.058-.061.07-.127.146-.192.215a3.54 3.54 0 0 1-5.008.002zm-13.471-3.023a3.53 3.53 0 0 1-.896-1.53c-.017-.053-.028-.106-.04-.16-.017-.074-.035-.148-.044-.22-.003-.022-.01-.048-.012-.071a3.592 3.592 0 0 1-.031-.68h-.004c.014-.321.07-.642.173-.951l.008.001c.122-.358.298-.697.532-1.007l-.009-.011c.099-.131.206-.257.323-.379.115-.113.235-.212.359-.305l.012.012a3.53 3.53 0 0 1 5.635 3.281h.002a3.418 3.418 0 0 1-.34 1.1.63.63 0 0 1-.035.075c-.16.301-.367.587-.625.843a3.537 3.537 0 0 1-5.008.002zm6.415-1.929l5.794 1.247c-.099.31-.159.629-.179.951l-5.866-1.263c.124-.303.206-.618.251-.935zm13.492 2.859l4.873 1.045-.813.813-4.279-.92c.11-.306.184-.62.219-.938zm10.324-9.616l.923 4.289-.817.813-1.049-4.89c.316-.029.633-.105.943-.212zm-5.005 5.549c.112-.111.211-.232.31-.352l2.353 2.355-.681.682-2.359-2.358c.128-.1.255-.208.377-.327zm-1.843-20.231a3.536 3.536 0 0 1-1.038-2.471v-.044c0-.08.007-.158.012-.236.003-.039.003-.078.01-.116.002-.035.007-.068.012-.104a3.509 3.509 0 0 1 .686-1.652l-.005-.002a3.158 3.158 0 0 1 .68-.689l.005.007a3.569 3.569 0 0 1 1.01-.534l-.005-.009a3.43 3.43 0 0 1 .95-.183l.005.015a3.515 3.515 0 0 1 2.674 1.028 3.536 3.536 0 0 1 .012 4.991 3.544 3.544 0 0 1-5.008-.001zm1.547 19.936a3.453 3.453 0 0 1-.587.475c-.08.048-.162.098-.242.141-.014.007-.023.016-.035.02a3.545 3.545 0 0 1-4.144-.636 3.536 3.536 0 0 1-1.035-2.466v-.052c0-.075.007-.151.01-.228.005-.042.007-.081.009-.121.003-.032.01-.062.015-.09.08-.595.303-1.17.683-1.667l-.004-.002c.099-.133.206-.258.323-.38.115-.113.235-.211.359-.307l.005.007a3.536 3.536 0 0 1 4.953 4.951 3.127 3.127 0 0 1-.31.355zm-18.598 8.436l5.981-2.985c.12.294.282.576.475.84l-6.006 3a3.846 3.846 0 0 0-.45-.855zm24.059-21.077l2.988-5.986c.27.188.557.34.852.456l-2.997 6.005a3.95 3.95 0 0 0-.843-.475zm-4.864 26.21a1.918 1.918 0 0 0 2.711 0l10.24-10.24a1.914 1.914 0 0 0 0-2.712l-2.634-2.634a1.92 1.92 0 0 0-2.714 0l-10.238 10.24a1.913 1.913 0 0 0 0 2.71l2.635 2.636z"/><path d="M118.688 238.226a.59.59 0 1 1 .833.833.59.59 0 0 1-.833-.833m-.439-.441a1.213 1.213 0 1 0 1.715 1.716 1.213 1.213 0 0 0-1.715-1.716zm.993-.764l.674-1.609c.256.211.535.385.829.521l-.605 1.449a1.603 1.603 0 0 0-.898-.361zm-4.231-1.892a.592.592 0 0 1 .834 0 .592.592 0 0 1 0 .834.596.596 0 0 1-.834 0 .592.592 0 0 1 0-.834m-.443-.441a1.22 1.22 0 0 0 0 1.715 1.209 1.209 0 0 0 1.714 0c.479-.473.479-1.24.005-1.715a1.22 1.22 0 0 0-1.719 0zm2.066-.236l1.995-.998c.089.309.216.605.383.891l-1.973.982a1.6 1.6 0 0 0-.405-.875zm-.634-3.635c.033-.154.045-.31.033-.461l2.644.573a5.282 5.282 0 0 0-.129.453 4.773 4.773 0 0 0-.07.492l-2.665-.575c.084-.146.147-.306.187-.482zm-2.061-.878a.596.596 0 0 1 .836 0 .595.595 0 0 1 0 .836.595.595 0 0 1-.836 0 .596.596 0 0 1 0-.836m-.439-.439a1.216 1.216 0 0 0 0 1.715 1.21 1.21 0 0 0 1.714 0 1.21 1.21 0 0 0 0-1.715 1.214 1.214 0 0 0-1.714 0zm.138-8.923a.59.59 0 0 1 .833 0 .585.585 0 0 1 0 .833.587.587 0 0 1-.833 0 .585.585 0 0 1 0-.833m-.443-.442a1.215 1.215 0 1 0 1.721 0 1.227 1.227 0 0 0-1.721 0zm2.481.736l2.396.516a4.024 4.024 0 0 0-.174.95l-2.437-.524c.168-.289.244-.617.215-.942zm.162-4.308a.59.59 0 0 1 .831 0 .592.592 0 0 1 0 .834.587.587 0 0 1-.831 0 .59.59 0 0 1 0-.834m-.444-.442a1.22 1.22 0 0 0 0 1.718 1.22 1.22 0 0 0 1.719 0 1.22 1.22 0 0 0 0-1.718 1.219 1.219 0 0 0-1.719 0zm2.012 2.013c.113-.115.205-.238.277-.372l1.711 1.714a4.764 4.764 0 0 0-.352.31c-.12.12-.223.245-.326.375l-1.729-1.728a1.71 1.71 0 0 0 .419-.299zm7.802-9.37c.03-.028.065-.058.103-.087a.59.59 0 1 1-.229.255.858.858 0 0 1 .126-.168m-.442-.442a1.404 1.404 0 0 0-.239.321 1.214 1.214 0 1 0 .444-.488c-.074.05-.141.105-.205.167zm2.218 1.768a.023.023 0 0 0-.014-.004c.19-.289.279-.62.271-.951l2.542.549a3.995 3.995 0 0 0-.188.947l-2.6-.56a.047.047 0 0 1-.011.019zm.188-5.551a.772.772 0 0 1 .305-.19.583.583 0 0 1 .498.166.587.587 0 0 1 0 .834.587.587 0 0 1-1-.48.822.822 0 0 1 .197-.33m-.441-.44a1.423 1.423 0 0 0-.369.641c-.059.37.057.765.339 1.05a1.215 1.215 0 0 0 1.716-1.718 1.215 1.215 0 0 0-1.087-.331 1.442 1.442 0 0 0-.599.358zm1.57 2.282a1.571 1.571 0 0 0 .716-.726c.01.011.017.025.026.033-.005.011-.005.018-.012.03l2.082 2.082a4.523 4.523 0 0 0-.376.328c-.11.113-.213.231-.307.352l-2.08-2.078-.023.003c-.007-.008-.016-.015-.026-.024zm3.095-3.807a.938.938 0 0 1 .154-.119.59.59 0 1 1-.157.946.58.58 0 0 1 .003-.827m-.439-.441a1.47 1.47 0 0 0-.181.219 1.215 1.215 0 0 0 .179 1.492 1.211 1.211 0 0 0 1.713 0 1.219 1.219 0 0 0 0-1.719 1.216 1.216 0 0 0-1.415-.217 1.475 1.475 0 0 0-.296.225zm.812 2.479a1.62 1.62 0 0 0 .955-.279l.007.014c-.012.004-.016.014-.025.019l.563 2.614a4.04 4.04 0 0 0-.951.184l-.549-2.552zm9.012-9.854a1.69 1.69 0 0 0 .277-.372l1.717 1.721a3.79 3.79 0 0 0-.353.309c-.12.122-.228.247-.326.378l-1.735-1.736c.152-.074.294-.176.42-.3zm-1.571-1.569a.592.592 0 0 1 .834 0 .588.588 0 1 1-.834 0m-.441-.443a1.214 1.214 0 1 0 1.717 0 1.222 1.222 0 0 0-1.717 0zm4.478-1.736a.59.59 0 1 1 .833.833.59.59 0 0 1-.833-.833m-.442-.442a1.211 1.211 0 0 0 0 1.716 1.217 1.217 0 0 0 1.718 0 1.22 1.22 0 0 0 0-1.716 1.223 1.223 0 0 0-1.718 0zm.674 2.475c.321.039.654-.022.953-.177l.514 2.406a3.86 3.86 0 0 0-.948.183l-.519-2.412zm5.303.528a.588.588 0 1 1 0 .833.59.59 0 0 1 0-.833m-.442-.443a1.218 1.218 0 0 0 0 1.72c.475.469 1.24.472 1.714 0a1.216 1.216 0 0 0 0-1.72 1.213 1.213 0 0 0-1.714 0zm2.01 2.015c.11-.115.202-.24.277-.373l1.908 1.91a3.783 3.783 0 0 0-.679.69l-1.925-1.928c.152-.076.292-.176.419-.299zm2.886-1.527c.323.034.654-.023.948-.181l.523 2.411a3.923 3.923 0 0 0-.953.186l-.518-2.416zm-.231-2.036a.59.59 0 0 1 .833 0 .595.595 0 0 1 0 .835.593.593 0 0 1-.835 0 .591.591 0 0 1 .002-.835m-.443-.44a1.213 1.213 0 1 0 1.716 1.714 1.213 1.213 0 0 0-1.716-1.714zm5.228 1.208a.59.59 0 1 1 .839.833.59.59 0 0 1-.839-.833m-.439-.441a1.213 1.213 0 1 0 1.716 1.717 1.213 1.213 0 0 0-1.716-1.717zm-.256 2.049c.253.231.556.371.87.418l-.995 1.998a4.003 4.003 0 0 0-.89-.382l1.015-2.034zm2.95 3.55l-1.481.617a3.992 3.992 0 0 0-.512-.832l1.623-.68c.031.321.153.634.37.895zm.836-1.457a.592.592 0 0 1 .834 0 .595.595 0 0 1 0 .836.592.592 0 0 1-.834 0 .595.595 0 0 1 0-.836m-.441-.442a1.213 1.213 0 1 0 1.716 1.717 1.213 1.213 0 0 0-1.716-1.717z"/></g><g fill="#FFF"><path d="M194.272 28.635h-7.304l1.234 1.237h-51.795l2.853-4.943a3.598 3.598 0 0 0 1.831.512 3.603 3.603 0 0 0 3.597-3.599 3.595 3.595 0 0 0-7.187-.085h-15.779l-4.843-8.388-3.045-5.272a3.598 3.598 0 0 0-1.801-6.714 3.596 3.596 0 0 0-3.592 3.596 3.6 3.6 0 0 0 1.796 3.118l-3.045 5.272-4.843 8.388H86.58a3.597 3.597 0 1 0-7.196.009 3.596 3.596 0 0 0 5.4 3.113l2.883 4.992H35.671l1.237-1.237h-7.303v7.3l1.232-1.234v7.686l-1.232-1.237v7.304l7.303-.004-1.261-1.262h52.019l-2.85 4.943a3.562 3.562 0 0 0-1.834-.508 3.599 3.599 0 1 0 0 7.197 3.591 3.591 0 0 0 3.59-3.516h6.095l9.684.004 4.843 8.388 3.045 5.273a3.596 3.596 0 1 0 3.597 0l3.043-5.273 4.845-8.392 9.682.004 6.092-.004a3.595 3.595 0 0 0 7.192-.011 3.595 3.595 0 0 0-5.4-3.11l-2.881-4.996h51.821l-1.261 1.267 7.304-.004v-7.3l-1.237 1.237V34.7l1.237 1.234v-7.299zm-3.095 6.066v10.634h-57.983l1.605 2.782 2.883 4.995.195.339h-17.225l-.535.925-4.841 8.393-3.05 5.273-.192.331-.188-.331-3.047-5.273-4.841-8.393-.538-.925H86.193l.228-.393 2.85-4.94 1.606-2.782H32.695l.003-2.948v-7.686l-.003-2.976h58.186l-1.608-2.779-2.88-4.994-.197-.341h17.227l.538-.928 4.841-8.385 3.047-5.278.19-.332.189.332 3.05 5.278 4.841 8.385.535.928h17.225l-.228.396-2.851 4.939-1.605 2.779h57.984v2.975z"/><path d="M144.103 37.233c0 1.826-1.467 3.296-3.364 3.296h-1.441v3.023h-2.202v-9.62h3.644c1.896.001 3.363 1.472 3.363 3.301zm-2.195 0c0-.702-.495-1.237-1.169-1.24h-1.441v2.473h1.441c.674.001 1.169-.534 1.169-1.233zm3.775 1.51c0-2.831 2.242-5.003 5.005-5.003 2.761 0 5.001 2.172 5.001 5.003 0 2.83-2.24 5.003-5.001 5.003-2.763 0-5.005-2.173-5.005-5.003zm7.811 0c0-1.718-1.237-2.859-2.806-2.859-1.565 0-2.803 1.141-2.803 2.859 0 1.716 1.237 2.858 2.803 2.858 1.568 0 2.801-1.142 2.806-2.858zm10.026 2.696v2.114h-5.632v-9.62h2.2v7.506h3.432zm4.123-7.506v9.62h-2.2v-9.62h2.2zm2.199 4.81c0-2.831 2.102-5.003 5-5.003 1.747 0 3.285.868 4.125 2.228l-1.896 1.099c-.425-.743-1.254-1.183-2.229-1.183-1.701 0-2.803 1.141-2.803 2.859-.002 1.716 1.102 2.858 2.803 2.858.975 0 1.817-.44 2.229-1.181l1.896 1.1c-.826 1.361-2.364 2.226-4.125 2.226-2.898 0-5-2.173-5-5.003zm17.159 2.693v2.117h-6.046v-9.62h5.982v2.117h-3.782v1.597l3.439-.005v2.092h-3.439v1.706l3.846-.004zm-149.79-2.841c0-2.831 2.102-5.003 4.998-5.003 1.749 0 3.292.866 4.123 2.228l-1.89 1.096c-.428-.74-1.252-1.178-2.233-1.181-1.701 0-2.8 1.141-2.8 2.859s1.099 2.858 2.8 2.858c.981 0 1.819-.441 2.233-1.181l1.896 1.1c-.831 1.361-2.369 2.223-4.13 2.223-2.895.001-4.997-2.169-4.997-4.999zm13.399 1.649h-1.047v3.161h-2.195v-9.621h3.846a3.287 3.287 0 0 1 3.296 3.297c0 1.185-.712 2.256-1.771 2.792l2.045 3.531h-2.361l-1.813-3.16zm-1.047-1.926h1.65c.603 0 1.099-.531 1.099-1.236 0-.698-.496-1.233-1.099-1.233h-1.65v2.469zm10.58 1.39v3.698h-2.197v-3.698l-3.228-5.923h2.497l1.829 3.714 1.829-3.714h2.5l-3.23 5.923zm11.06-2.626c0 1.83-1.467 3.3-3.364 3.3h-1.446l.003 3.024H64.2v-9.621h3.639c1.897 0 3.364 1.469 3.364 3.297zm-2.196 0c0-.698-.495-1.233-1.169-1.233h-1.443v2.47h1.443c.674-.001 1.169-.537 1.169-1.237zm9.619-1.181h-2.475v7.504H73.95v-7.504h-2.473v-2.116h7.149v2.116zm-.002 2.694c0-2.831 2.239-5.003 5.003-5.003 2.761 0 5.003 2.172 5.003 5.005 0 2.831-2.242 4.998-5.003 4.998-2.764 0-5.003-2.17-5.003-5zm7.81.002c0-1.721-1.242-2.862-2.808-2.859-1.566 0-2.803 1.139-2.803 2.857s1.236 2.858 2.803 2.858c1.566 0 2.808-1.14 2.808-2.856zm8.092 0l-3.568-6.189 2.345 6.189-2.345 6.188zm34.909-.063l3.575 6.187-2.344-6.187 2.344-6.191zM111.749 15.99l.305-.526.306.526 4.841 8.39 1.27 2.196a13.706 13.706 0 0 0-6.416-1.586c-2.316 0-4.505.575-6.418 1.586l1.272-2.196 4.84-8.39zM92.073 27l.306.524 4.843 8.391 1.113 1.924A13.73 13.73 0 0 1 104.894 27H92.073zm10.297 23.07h1.881a13.737 13.737 0 0 1-5.939-10.806l-1.09 1.889-4.843 8.388-.306.529h10.297zm14.83 2.62l.927-1.606a13.726 13.726 0 0 1-6.073 1.413 13.74 13.74 0 0 1-6.075-1.413l.93 1.606 4.841 8.385.305.528.306-.528 4.839-8.385zm14.834-2.62l-.305-.529-4.843-8.388-1.09-1.889c-.167 4.482-2.481 8.415-5.941 10.806h12.179zm0-23.07h-12.817a13.752 13.752 0 0 1 6.559 10.839l1.111-1.924 4.843-8.391.304-.524zm-16.478 9.288c0-.6-.401-1.034-1.017-1.034h-5.023v2.071h5.023c.599 0 1.017-.433 1.017-1.037zm-.681 3.405h-5.359v2.24h5.359c.664 0 1.099-.47 1.099-1.118 0-.652-.434-1.122-1.099-1.122z"/><path d="M112.053 27.461c-6.221 0-11.282 5.063-11.282 11.282 0 6.221 5.062 11.285 11.282 11.285 6.222 0 11.283-5.063 11.283-11.285 0-6.219-5.061-11.282-11.283-11.282zm2.822 16.975h-.408v2.171h-1.97v-2.171h-.996v2.171h-1.972v-2.168h-3.939v-2.492h1.254v-6.699h-1.254v-2.5h3.939V30.58h1.972v2.168h.996V30.58h1.97v2.168h.072c2.035 0 3.688 1.319 3.688 3.339 0 .97-.383 1.737-1.017 2.288.866.553 1.435 1.452 1.435 2.64.001 2.069-1.687 3.421-3.77 3.421z"/></g><circle fill="none" stroke="#FFF" stroke-width="2" stroke-linecap="round" stroke-linejoin="round" stroke-miterlimit="10" cx="111.744" cy="204.76" r="58.697"/><path fill="none" stroke="#FFF" stroke-width="2" stroke-linecap="round" stroke-linejoin="round" stroke-miterlimit="10" d="M53.047 50.027v153.4M170.441 49.968v153.4"/></svg>