<svg xmlns="http://www.w3.org/2000/svg" width="98.253" height="112.681" viewBox="10.042 -127.47 98.253 112.681"><path fill="#FFF" d="M107.898-106.966c-.398 15.548-2.707 30.739-8.525 45.277C91.281-41.47 77.559-26.133 58.98-15.014 40.404-26.133 26.686-41.47 18.584-61.689c-5.817-14.538-8.121-29.729-8.519-45.277-.103-4.003-.067-4.008 3.976-4.268 12.191-.792 23.687-4.027 34.481-9.754 3.632-1.926 7.103-4.111 10.457-6.482 3.359 2.371 6.822 4.557 10.461 6.482 10.788 5.727 22.292 8.963 34.477 9.754 4.042.261 4.081.265 3.981 4.268z"/><path d="M26.593-89.451h3.166l2.28 9.233 2.544-9.233h2.45l2.544 9.233 2.28-9.233h3.166l-3.637 13.19h-3.431l-2.147-7.782-2.148 7.782h-3.43l-3.637-13.19zm26.726 11.119H48.42l-.66 2.071h-3.298l4.485-13.19h3.844l4.485 13.19h-3.298l-.659-2.071zm-.904-2.827l-1.545-4.844-1.545 4.844h3.09zm13.91-5.391h-3.392v10.289h-3.016V-86.55h-3.392v-2.901h9.799v2.901h.001zm.002 3.694c0-3.882 2.883-6.859 6.858-6.859 2.394 0 4.504 1.188 5.655 3.054l-2.602 1.508c-.584-1.019-1.715-1.62-3.053-1.62-2.338 0-3.844 1.563-3.844 3.919s1.506 3.92 3.844 3.92c1.338 0 2.486-.603 3.053-1.62l2.602 1.507c-1.133 1.866-3.243 3.054-5.655 3.054-3.975-.003-6.858-2.981-6.858-6.863zm24.107-6.595v13.19h-3.016v-5.237h-4.146v5.237h-3.014v-13.19h3.014v5.051h4.146v-5.051h3.016zM50.302-65.577c0 3.73-2.771 6.596-6.406 6.596H38.62v-13.192h5.276c3.636-.001 6.406 2.865 6.406 6.596zm-2.902 0c0-2.262-1.432-3.693-3.506-3.693h-2.26v7.388h2.26c2.074-.002 3.506-1.434 3.506-3.695zm4.035 0c0-3.883 3.072-6.859 6.859-6.859s6.859 2.978 6.859 6.859-3.072 6.858-6.859 6.858-6.859-2.977-6.859-6.858zm10.705 0c0-2.355-1.696-3.919-3.844-3.919-2.148 0-3.846 1.563-3.846 3.919 0 2.354 1.695 3.92 3.844 3.92s3.846-1.565 3.846-3.92zm17.774.377c0 4.032-2.809 6.481-6.501 6.481-4.146 0-7.123-3.053-7.123-6.84 0-3.826 3.034-6.879 6.916-6.879 2.524 0 4.654 1.244 5.767 3.016l-2.564 1.471c-.546-.867-1.733-1.545-3.223-1.545-2.224 0-3.881 1.639-3.881 3.957 0 2.241 1.582 3.882 4.146 3.882 1.753 0 2.902-.772 3.375-2.035H73.3v-2.639h6.614v1.131z" fill="#5252AA"/><path opacity=".3" fill="#FFF" d="M59.353-127.245c3.361 2.37 6.822 4.557 10.461 6.482 10.79 5.727 22.292 8.963 34.479 9.754 4.039.262 4.08.267 3.979 4.268-.398 15.549-2.707 30.737-8.525 45.276-8.092 20.221-21.814 35.558-40.393 46.676-18.575-11.118-32.293-26.455-40.395-46.676-5.817-14.539-8.123-29.728-8.52-45.276-.103-4.001-.067-4.006 3.975-4.268 12.191-.791 23.688-4.027 34.481-9.754 3.634-1.926 7.105-4.112 10.458-6.482"/></svg>