<svg xmlns="http://www.w3.org/2000/svg" width="178.507" height="108.702" viewBox="-398.374 9.859 178.507 108.702"><linearGradient id="a" gradientUnits="userSpaceOnUse" x1="3446.63" y1="3359.837" x2="3534.909" y2="3359.837" gradientTransform="rotate(90 3233.192 -203.026)"><stop offset="0" stop-color="#706dcb" stop-opacity="0"/><stop offset="1" stop-color="#706dcb" stop-opacity=".7"/></linearGradient><path fill="url(#a)" d="M-368.151 98.691h-.012c-4.896 0-9.439-1.074-13.514-3.202-5.551-2.899-9.78-7.193-12.577-12.772a27.946 27.946 0 0 1-2.924-10.847l-.073-.742.018-2.682c.136-1.621.375-3.753.971-5.904a28.27 28.27 0 0 1 6.081-11.227c2.473-2.805 5.465-5.102 8.895-6.818.227-.109.448-.216.669-.315.547-3.147 1.77-6.083 3.638-8.746 2.958-4.218 6.933-7.07 11.831-8.478 3.072-.885 6.174-1.072 9.181-.565 1.697.29 3.362.809 5.042 1.568 4.405-6.927 10.411-11.937 17.899-14.934 7.56-3.029 15.588-3.43 23.594-1.186 8.414 2.352 15.277 7.161 20.408 14.299 4.385 6.095 6.735 12.88 7.019 20.215 4.954 1.297 9.245 3.84 12.78 7.585 4.205 4.447 6.581 9.787 7.056 15.86.37 4.755-.49 9.34-2.56 13.628-2.087 4.345-5.179 7.927-9.182 10.647-3.454 2.347-7.238 3.801-11.264 4.325a31.906 31.906 0 0 1-4.245.271c-16.403.012-32.801.016-49.207.016l-29.524.004z"/><path fill="none" stroke="#FFF" stroke-width="2" stroke-linecap="round" stroke-linejoin="round" stroke-miterlimit="10" d="M-368.272 99.139h-.012c-4.897 0-9.44-1.074-13.515-3.202-5.55-2.899-9.779-7.192-12.576-12.773a27.951 27.951 0 0 1-2.925-10.846l-.073-.741.017-2.683c.136-1.622.375-3.755.97-5.907a28.308 28.308 0 0 1 6.081-11.224c2.476-2.807 5.467-5.101 8.894-6.818.23-.11.451-.216.671-.317.547-3.146 1.77-6.082 3.639-8.746 2.958-4.216 6.933-7.067 11.83-8.479 3.073-.883 6.174-1.072 9.183-.564 1.697.292 3.359.81 5.039 1.569 4.405-6.925 10.409-11.937 17.9-14.935 7.56-3.027 15.588-3.431 23.595-1.187 8.41 2.354 15.277 7.164 20.408 14.299 4.385 6.097 6.733 12.882 7.018 20.218 4.954 1.297 9.245 3.839 12.78 7.584 4.206 4.448 6.581 9.787 7.057 15.858.369 4.758-.491 9.343-2.561 13.63-2.089 4.345-5.179 7.927-9.182 10.647-3.452 2.346-7.236 3.8-11.264 4.326a32.105 32.105 0 0 1-4.247.271c-16.4.011-32.798.015-49.206.015l-29.521.005z"/><path d="M-358.171 62.038v10.094h-2.307V62.038h2.307zm9.662 0v10.094h-1.73l-3.893-5.479v5.479h-2.307V62.038h1.73l3.893 5.479v-5.479h2.307zm8.511 2.221h-2.596v7.873h-2.307v-7.873h-2.596v-2.221h7.499v2.221zm7.356 5.652v2.221h-6.345V62.038h6.272v2.221h-3.965v1.673h3.605v2.191h-3.605v1.788h4.038zm4.703-1.096h-1.096v3.316h-2.307V62.038h4.038a3.452 3.452 0 0 1 3.46 3.461c0 1.239-.75 2.364-1.86 2.927l2.148 3.706h-2.48l-1.903-3.317zm-1.096-2.019h1.73c.634 0 1.153-.562 1.153-1.297s-.519-1.298-1.153-1.298h-1.73v2.595zm14.494-4.758v10.094h-1.73l-3.893-5.479v5.479h-2.307V62.038h1.73l3.893 5.479v-5.479h2.307zm8.078 7.873v2.221h-6.345V62.038h6.272v2.221h-3.965v1.673h3.605v2.191h-3.605v1.788h4.038zm8.077-5.652h-2.596v7.873h-2.307v-7.873h-2.596v-2.221h7.499v2.221z" fill="#FFF"/><path d="M-221.249 114.969l-40.148-18.711m35.988 9.053l4.16 9.658-10.191 2.591m-25.798-11.708l-4.162-9.658 10.193-2.592" fill-rule="evenodd" clip-rule="evenodd" fill="none" stroke="#FFF" stroke-width="2" stroke-linecap="round" stroke-miterlimit="10"/></svg>