<svg xmlns="http://www.w3.org/2000/svg" width="173.613" height="101.955" viewBox="140.939 94.169 173.613 101.955"><linearGradient id="a" gradientUnits="userSpaceOnUse" x1="5606.755" y1="69.344" x2="5606.755" y2="113.756" gradientTransform="rotate(180 2907.172 119.934)"><stop offset=".091" stop-color="#706dcb" stop-opacity="0"/><stop offset="1" stop-color="#706dcb" stop-opacity=".7"/></linearGradient><path fill="url(#a)" d="M164.117 126.114h86.943v44.412h-86.943z"/><path d="M192.828 147.985v-5.75h1.941v5.58c0 .643.303 1.189 1.334 1.189s1.334-.547 1.334-1.189v-5.58h1.941v5.75c0 1.82-1.406 2.912-3.275 2.912-1.867 0-3.275-1.092-3.275-2.912zm7.52.813l1.676-.971c.303.705.824 1.178 1.783 1.178.922 0 1.152-.363 1.152-.691 0-.521-.486-.729-1.76-1.08-1.262-.352-2.498-.959-2.498-2.584 0-1.637 1.383-2.584 2.85-2.584 1.395 0 2.486.668 3.105 1.918l-1.637.957c-.291-.605-.691-.982-1.469-.982-.605 0-.91.303-.91.643 0 .389.207.656 1.529 1.057 1.285.387 2.729.836 2.729 2.631 0 1.639-1.309 2.609-3.154 2.609-1.783-.002-2.922-.851-3.396-2.101zm12.797.06v1.869h-5.336v-8.492h5.275v1.869h-3.336v1.406h3.033v1.844h-3.033v1.504h3.397zm3.955-.922h-.922v2.791h-1.941v-8.492h3.396a2.904 2.904 0 0 1 2.91 2.912c0 1.043-.631 1.988-1.564 2.463l1.809 3.117H218.7l-1.6-2.791zm-.922-1.697h1.455c.533 0 .971-.473.971-1.092s-.438-1.092-.971-1.092h-1.455v2.184z" fill="#FFF"/><path d="M256.303 178.384h-99.479l-15.885 11.918v5.822h131.249v-5.822zm0-59.356h-99.479v56.182h99.479v-56.182zm-8.09 48.9h-83.297v-41.516h83.297v41.516z" fill-rule="evenodd" clip-rule="evenodd" fill="#FFF"/><path d="M271.428 114.171l41.619-15.159m-31.85 19.045l-9.769-3.886 5.373-9.039m26.519-9.963l9.774 3.886-5.375 9.041" fill-rule="evenodd" clip-rule="evenodd" fill="none" stroke="#FFF" stroke-width="2" stroke-linecap="round" stroke-miterlimit="10"/></svg>