<svg xmlns="http://www.w3.org/2000/svg" width="146.833" height="170.956" viewBox="0 0 146.833 170.956"><path opacity=".1" fill="#FFF" d="M73.417 10.301l4.855 3.431 4.405 3.112c3.046 2.148 5.899 3.92 8.734 5.42 8.677 4.606 18.089 7.27 27.982 7.911 3.501.227 9.361.604 14.2 5.748 5.044 5.356 4.885 11.598 4.801 14.964-.493 19.185-3.658 35.813-9.672 50.835-9.193 22.974-25.026 41.308-47.056 54.493l-3.93 2.352-4.321 2.585-4.32-2.585-3.933-2.354c-22.023-13.184-37.855-31.518-47.059-54.492-6.014-15.023-9.173-31.653-9.664-50.83-.087-3.355-.251-9.599 4.786-14.951 4.843-5.159 10.704-5.538 14.212-5.765 9.88-.64 19.298-3.303 27.995-7.917 2.86-1.516 5.708-3.284 8.714-5.411l4.416-3.118 4.855-3.428M73.42 0l-4.855 3.429-4.855 3.427-4.415 3.116c-2.716 1.923-5.266 3.507-7.801 4.85-7.64 4.055-15.916 6.395-24.599 6.956-4.116.266-12.684.819-19.803 8.402C-.313 38.05-.072 47.202.03 51.11c.515 20.19 3.872 37.77 10.262 53.737 9.905 24.725 26.912 44.436 50.549 58.586l3.935 2.354 4.321 2.584 4.319 2.585 4.32-2.585 4.321-2.584 3.931-2.353c23.646-14.152 40.652-33.864 50.545-58.587 6.395-15.965 9.754-33.546 10.272-53.745.1-3.912.333-13.07-7.086-20.947-7.109-7.558-15.666-8.11-19.779-8.377-8.694-.564-16.964-2.901-24.582-6.946-2.521-1.333-5.078-2.923-7.832-4.864L83.127 6.86l-4.854-3.43L73.42 0z"/></svg>