<svg xmlns="http://www.w3.org/2000/svg" width="146.833" height="170.956" viewBox="0 0 146.833 170.956"><path opacity=".3" fill="#FFF" d="M73.416 20.105L69 23.224c-3.309 2.341-6.459 4.293-9.625 5.971-9.754 5.176-20.315 8.163-31.393 8.88-2.835.184-6.051.389-8.622 3.127-2.666 2.834-2.58 6.235-2.509 8.972.464 18.167 3.429 33.845 9.064 47.924 8.504 21.231 23.164 38.186 43.569 50.401l3.931 2.353 3.931-2.353c20.414-12.219 35.071-29.176 43.563-50.398 5.641-14.086 8.607-29.762 9.073-47.926.069-2.733.16-6.14-2.514-8.979-2.571-2.732-5.787-2.938-8.624-3.121-11.08-.719-21.639-3.704-31.379-8.876-3.15-1.668-6.298-3.62-9.637-5.975l-4.412-3.119z"/></svg>