<svg xmlns="http://www.w3.org/2000/svg" width="146.833" height="170.956" viewBox="0 0 146.833 170.956"><path opacity=".2" fill="#FFF" d="M73.416 20.354l4.413 3.118c3.338 2.354 6.486 4.307 9.637 5.975 9.74 5.172 20.3 8.157 31.379 8.876 2.837.183 6.053.389 8.624 3.121 2.674 2.838 2.583 6.245 2.514 8.979-.466 18.163-3.432 33.839-9.073 47.925-8.491 21.222-23.149 38.18-43.563 50.398l-3.931 2.352-3.931-2.352C49.08 136.53 34.42 119.576 25.916 98.345c-5.636-14.08-8.601-29.757-9.064-47.924-.071-2.736-.157-6.138 2.509-8.971 2.57-2.738 5.787-2.944 8.622-3.127 11.078-.717 21.639-3.705 31.393-8.88 3.166-1.679 6.316-3.631 9.625-5.971l4.415-3.118m.001-10.301l-4.854 3.428-4.416 3.118c-3.006 2.127-5.854 3.896-8.714 5.411-8.697 4.614-18.115 7.277-27.995 7.917-3.509.227-9.37.606-14.212 5.765-5.037 5.351-4.872 11.595-4.786 14.95.491 19.178 3.65 35.807 9.664 50.831 9.204 22.975 25.036 41.309 47.059 54.493l3.933 2.354 4.32 2.585 4.321-2.585 3.93-2.352c22.03-13.186 37.862-31.519 47.056-54.493 6.014-15.021 9.179-31.65 9.672-50.835.084-3.366.243-9.607-4.801-14.964-4.838-5.144-10.698-5.521-14.2-5.748-9.893-.642-19.305-3.304-27.982-7.911-2.835-1.5-5.688-3.271-8.734-5.419l-4.405-3.113-4.856-3.432z"/></svg>