<svg xmlns="http://www.w3.org/2000/svg" width="170.639" height="38.163" viewBox="15.899 0 170.639 38.163"><g fill-rule="evenodd" clip-rule="evenodd" fill="#EAEAEA"><path d="M43.118 0c5.649.224 11.302.43 16.949.686 1.188.053 2.376.234 3.548.449 3.146.577 5.143 2.49 5.64 5.603.499 3.104.737 6.26.915 9.403.273 4.861.014 9.711-.693 14.533-.373 2.56-1.412 4.735-3.859 5.848-1.162.527-2.495.821-3.774.925-3.596.286-7.201.506-10.807.593-4.604.112-9.213.183-13.814.062-4.626-.122-9.251-.417-13.861-.796-3.725-.306-5.972-2.537-6.585-6.258-.898-5.466-1.05-10.974-.71-16.489.163-2.631.409-5.273.875-7.865.598-3.328 2.873-5.366 6.253-5.665 3.988-.353 7.989-.58 11.989-.748C37.823.17 40.469.26 43.113.26c0-.088.003-.174.005-.26zm-5.507 27.403l14.28-8.247-14.28-8.236v16.483zM154.886 1.707h5.06v12.314c.277-.328.42-.483.546-.648 1.359-1.754 3.137-2.476 5.327-2.126 1.335.213 2.371.943 2.814 2.207.448 1.272.848 2.611.957 3.946.341 4.194.449 8.401-.117 12.589a12.009 12.009 0 0 1-.761 2.869c-1.371 3.381-5.911 4.018-8.258 1.193-.198-.237-.379-.489-.649-.84-.21.783-.398 1.475-.592 2.196h-4.327v-33.7zm5.063 22.193v5.961c.001 1.126.569 1.834 1.621 2.027 1.154.211 1.924-.22 2.295-1.368.182-.561.331-1.158.346-1.742.077-3.118.156-6.239.125-9.357-.01-1.118-.214-2.267-.535-3.339-.341-1.145-1.467-1.454-2.477-.795-.88.575-1.386 1.385-1.379 2.482.014 2.044.004 4.087.004 6.131zm-50.473-12.243h5.395v1.031c0 5.543-.005 11.087.008 16.629.002.536.05 1.084.178 1.602.247.996.968 1.354 1.953 1.048 1.112-.349 1.647-1.08 1.647-2.259V11.672h5.315v23.704h-4.126l-.511-2.834c-.321.459-.546.794-.782 1.118-1.556 2.13-4.069 2.595-6.247 1.882-1.881-.614-2.42-2.269-2.674-4.02a16.563 16.563 0 0 1-.15-2.378c-.013-5.457-.006-10.917-.006-16.374v-1.113zm42.032 23.757h-4.144l-.492-2.861c-.247.34-.418.565-.576.8-1.471 2.164-3.524 2.808-6.03 2.322-1.34-.259-2.275-1.116-2.643-2.398-.324-1.132-.565-2.332-.576-3.505-.059-5.771-.028-11.543-.025-17.315 0-.248.033-.496.055-.791h5.248c.018.321.044.647.044.973.002 5.516-.003 11.033.011 16.547.001.592.065 1.197.202 1.771.219.91.909 1.276 1.822 1.054 1.108-.269 1.764-1.105 1.764-2.258V11.69h5.341l-.001 23.724zM106.9 23.598c-.241 2.366-.313 4.767-.764 7.092-.679 3.492-2.843 5.102-6.403 5.112-.71.003-1.43.029-2.128-.069-2.89-.409-4.646-1.936-5.19-4.863-.883-4.729-.914-9.508-.033-14.234.694-3.729 2.92-5.417 6.71-5.458.709-.008 1.428.012 2.123.127 2.312.384 3.834 1.732 4.614 3.929.713 2.01.849 4.104.873 6.212.008.71.002 1.42.002 2.132l.196.02zm-5.527.006c-.042 0-.084-.002-.125-.003 0-1.789.045-3.58-.021-5.365-.029-.779-.238-1.564-.456-2.321-.2-.703-.776-1.062-1.486-1.069-.723-.006-1.231.411-1.477 1.086-.153.423-.315.87-.332 1.31-.086 2.267-.168 4.535-.17 6.804a81.42 81.42 0 0 0 .187 5.951c.105 1.452.827 2.212 1.802 2.204.956-.009 1.64-.687 1.771-2.142.19-2.144.212-4.302.307-6.455zM87.052 35.4h-5.234c-.017-.296-.044-.569-.045-.845-.004-1.762-.144-3.539.028-5.286.39-3.979-.954-7.621-1.972-11.333-1.314-4.79-2.655-9.573-3.981-14.361-.059-.212-.082-.435-.135-.72 1.639 0 3.228-.02 4.816.025.195.005.507.322.553.539 1.048 4.915 2.065 9.836 3.09 14.755.057.271.122.539.212.933.806-3.776 1.576-7.409 2.357-11.04.329-1.526.656-3.054 1.033-4.568.063-.248.376-.609.583-.616 1.587-.051 3.179-.028 4.863-.028-.729 2.616-1.435 5.15-2.146 7.685-1.279 4.564-2.565 9.127-3.836 13.695a5.255 5.255 0 0 0-.179 1.339c-.014 3.24-.007 6.482-.007 9.826zm99.485-10.054h-9.253c.151 1.893.223 3.7.465 5.483.13.943.81 1.339 1.717 1.329.898-.01 1.507-.439 1.767-1.319.129-.433.178-.889.242-1.338.059-.42.091-.845.145-1.369 1.522.089 3.032.177 4.521.262.599 4.272-1.8 7.199-5.968 7.386-.765.035-1.541.044-2.299-.051-2.541-.313-4.273-1.7-4.922-4.18-.399-1.525-.684-3.12-.721-4.69-.075-3.373-.327-6.769.364-10.113.489-2.361 1.479-4.386 4.007-5.164 1.862-.572 3.759-.57 5.633-.066 2.461.662 3.517 2.564 3.764 4.86.313 2.927.366 5.882.538 8.97zm-5.113-3.243c-.117-1.984-.166-3.878-.366-5.756-.116-1.089-.754-1.555-1.692-1.555-.959 0-1.501.431-1.69 1.554-.168 1-.216 2.025-.263 3.042-.042.895-.009 1.793-.009 2.715h4.02z"/><path d="M133.337 35.41h-5.268V7.165h-5.282V2.929h15.764V7.11h-5.214v28.3z"/></g></svg>