<svg xmlns="http://www.w3.org/2000/svg" width="230" height="223.196" viewBox="258.899 -53.402 230 223.196"><linearGradient id="a" gradientUnits="userSpaceOnUse" x1="-3886.961" y1="1827.082" x2="-3770.593" y2="1827.082" gradientTransform="rotate(-90 -2613.774 -1161.53)"><stop offset="0" stop-color="#706dcb" stop-opacity="0"/><stop offset="1" stop-color="#706dcb" stop-opacity=".7"/></linearGradient><circle fill="url(#a)" cx="374.838" cy="53.473" r="58.184"/><g fill="#FFF"><path d="M448.116 86.67a9.058 9.058 0 0 0-4.544 1.23l-19.957-34.135 19.88-34.601a9.017 9.017 0 0 0 4.619 1.285c5.015-.004 9.074-4.066 9.074-9.078s-4.06-9.07-9.074-9.07c-4.936 0-8.945 3.944-9.057 8.858h-39.792l-12.213-21.15-7.677-13.304a9.061 9.061 0 0 0 4.54-7.851c0-5.011-4.066-9.07-9.074-9.07-5.011 0-9.073 4.059-9.073 9.07 0 3.359 1.832 6.284 4.542 7.851l-7.681 13.304-12.214 21.151h-39.777c-.021-4.995-4.075-9.039-9.074-9.039-5.012 0-9.07 4.062-9.074 9.072a9.065 9.065 0 0 0 9.074 9.067 9.052 9.052 0 0 0 4.547-1.223l19.955 34.73-19.876 34.006a8.98 8.98 0 0 0-4.626-1.28c-5.012 0-9.074 4.057-9.074 9.071s4.061 9.074 9.074 9.074c4.939 0 8.953-3.948 9.063-8.865h15.358l24.428.003 12.215 21.155 7.682 13.301c-2.712 1.568-4.543 4.496-4.543 7.85a9.07 9.07 0 0 0 9.074 9.072c5.009 0 9.074-4.061 9.074-9.072 0-3.354-1.833-6.281-4.541-7.85l7.674-13.301 12.218-21.158 24.424.003 15.357-.003c.016 4.994 4.068 9.044 9.067 9.044a9.07 9.07 0 0 0 9.074-9.072 9.071 9.071 0 0 0-9.072-9.075zm-51.55 4.423l-1.348 2.339-12.214 21.159-7.688 13.299-.477.838-.48-.838-7.688-13.299-12.211-21.158-1.348-2.338h-43.445l.568-.989 7.191-12.461 14.699-23.879-14.697-24.476-7.268-12.592-.496-.86h43.447l1.348-2.338L366.67-7.653l7.686-13.305.485-.834.475.834L383-7.653 395.22 13.5l1.346 2.338h43.449l-.576.993-7.192 12.458-14.09 24.476 14.09 23.879 7.274 12.593.494.857-43.449-.001z"/><path d="M359.565 85.126l2.332 4.046 12.216 21.154.765 1.331.768-1.331 12.22-21.154 2.333-4.046a34.495 34.495 0 0 1-15.32 3.564 34.465 34.465 0 0 1-15.314-3.564zm-19.338-29.811l-2.756 4.767-12.209 21.153-.77 1.332h30.711c-8.735-6.026-14.558-15.946-14.976-27.252zm-14.198-30.933h-1.535l.769 1.33 12.209 21.153 2.805 4.854c.753-11.585 7.184-21.619 16.55-27.336h-30.798v-.001zm86.263 35.7l-2.756-4.769c-.418 11.305-6.251 21.227-14.975 27.254h30.713l-.771-1.334-12.211-21.151zM375.647-3.38l-.768-1.331-.766 1.331-12.215 21.156-3.201 5.544a34.522 34.522 0 0 1 16.182-4.005 34.547 34.547 0 0 1 16.189 4.005l-3.201-5.544-12.22-21.156zm33.841 55.104l2.805-4.857L424.5 25.712l.771-1.329h-32.333c9.359 5.718 15.8 15.754 16.55 27.341z"/></g><g fill="#FFF"><path d="M383.653 47.29c0-1.51-1.004-2.6-2.563-2.6h-12.628v5.208h12.628c1.513 0 2.563-1.091 2.563-2.608zm-1.719 8.572h-13.472v5.631h13.472c1.678 0 2.772-1.177 2.772-2.815s-1.092-2.816-2.772-2.816z"/><path d="M374.841 25.086c-15.652 0-28.383 12.734-28.383 28.382 0 15.65 12.73 28.381 28.383 28.381 15.646 0 28.379-12.732 28.379-28.381-.002-15.647-12.732-28.382-28.379-28.382zm7.093 42.705h-1.018v5.461h-4.963v-5.461h-2.508v5.461h-4.959v-5.456h-9.896v-6.272h3.147v-16.85h-3.147v-6.288h9.896v-5.455h4.959v5.455h2.508v-5.455h4.963v5.455h.173c5.127 0 9.286 3.32 9.286 8.406 0 2.433-.966 4.367-2.563 5.756 2.189 1.385 3.615 3.65 3.615 6.634.002 5.213-4.242 8.609-9.493 8.609z"/></g><linearGradient id="b" gradientUnits="userSpaceOnUse" x1="314.002" y1="975.459" x2="365.691" y2="975.459" gradientTransform="translate(0 -984.771)"><stop offset="0" stop-color="#fff" stop-opacity="0"/><stop offset="1" stop-color="#fff"/></linearGradient><path fill="url(#b)" d="M365.637-23.146a1.313 1.313 0 0 0-.951-.904l-14.629-3.528a1.312 1.312 0 0 0-1.585.969 1.313 1.313 0 0 0 .966 1.585l9.418 2.271C339.991-18.611 323.922-6.92 314.002 8.99h3.119c9.771-14.857 25.197-25.677 43.193-29.371l-7.355 7.788a1.313 1.313 0 1 0 1.91 1.803l10.463-11.08c.323-.341.438-.827.305-1.276z"/><linearGradient id="c" gradientUnits="userSpaceOnUse" x1="590.12" y1="-2134.556" x2="641.807" y2="-2134.556" gradientTransform="rotate(61.608 -1269.514 -1242.313)"><stop offset="0" stop-color="#fff" stop-opacity="0"/><stop offset="1" stop-color="#fff"/></linearGradient><path fill="url(#c)" d="M436.37 8.188c.331-.332.463-.814.341-1.267l-3.852-14.547a1.31 1.31 0 0 0-1.604-.933 1.315 1.315 0 0 0-.935 1.606l2.479 9.365c-12.614-14.627-30.537-23.202-49.252-24.365l1.483 2.745c17.715 1.53 34.569 9.954 46.377 24.028L421.06 2.054a1.312 1.312 0 0 0-1.496 1.893c.166.308.452.548.817.646l14.726 3.936c.448.12.932-.008 1.263-.341z"/><linearGradient id="d" gradientUnits="userSpaceOnUse" x1="-1913.588" y1="-3745.854" x2="-1861.901" y2="-3745.854" gradientTransform="rotate(121.977 -1774.205 -1197.894)"><stop offset="0" stop-color="#fff" stop-opacity="0"/><stop offset="1" stop-color="#fff"/></linearGradient><path fill="url(#d)" d="M445.344 84.337c.451.125.935 0 1.271-.326l10.742-10.54a1.315 1.315 0 0 0-1.842-1.877l-6.913 6.786c6.479-18.196 5.073-38.018-3.171-54.859l-1.651 2.647c7.425 16.155 8.437 34.971 2.04 52.192l-2.71-10.363a1.318 1.318 0 0 0-1.606-.938 1.32 1.32 0 0 0-.781.575 1.297 1.297 0 0 0-.158 1.027l3.857 14.744c.118.454.471.808.922.932z"/><linearGradient id="e" gradientUnits="userSpaceOnUse" x1="-4691.892" y1="-2158.336" x2="-4640.204" y2="-2158.336" gradientTransform="rotate(-177.387 -2101.633 -1078.409)"><stop offset="0" stop-color="#fff" stop-opacity="0"/><stop offset="1" stop-color="#fff"/></linearGradient><path fill="url(#e)" d="M383.646 129.55c.114.455.461.814.91.945l14.452 4.193a1.315 1.315 0 1 0 .733-2.524l-9.303-2.699c19.036-3.275 35.618-14.221 46.256-29.662l-3.116-.142c-10.439 14.393-26.341 24.5-44.486 27.37l7.702-7.447a1.313 1.313 0 1 0-1.826-1.886l-10.958 10.59a1.319 1.319 0 0 0-.364 1.262z"/><linearGradient id="f" gradientUnits="userSpaceOnUse" x1="-4755.789" y1="766.376" x2="-4704.102" y2="766.376" gradientTransform="rotate(-117.911 -2391.99 -1084.475)"><stop offset="0" stop-color="#fff" stop-opacity="0"/><stop offset="1" stop-color="#fff"/></linearGradient><path fill="url(#f)" d="M313.708 98.879c-.335.327-.471.81-.353 1.264l3.729 14.579a1.314 1.314 0 1 0 2.547-.653l-2.4-9.383c12.488 14.733 30.343 23.458 49.045 24.778l-1.46-2.756c-17.701-1.68-34.484-10.244-46.173-24.417l10.326 2.853a1.314 1.314 0 1 0 .699-2.535L314.98 98.55a1.32 1.32 0 0 0-1.272.329z"/><linearGradient id="g" gradientUnits="userSpaceOnUse" x1="-5076.303" y1="320.373" x2="-5024.611" y2="320.373" gradientTransform="scale(-1 1) rotate(-15.237 -3633.422 -17621.176)"><stop offset="0" stop-color="#fff" stop-opacity="0"/><stop offset="1" stop-color="#fff"/></linearGradient><path fill="url(#g)" d="M264.182 41.977a1.314 1.314 0 0 1 1.156-.621l15.042.439a1.315 1.315 0 0 1 1.274 1.353 1.312 1.312 0 0 1-1.352 1.273l-9.682-.281c17.111 8.952 29.541 24.456 34.936 42.413l-3.01-.819c-5.521-16.901-17.562-31.397-33.953-39.691l5.048 9.447a1.312 1.312 0 0 1-.541 1.779 1.31 1.31 0 0 1-.964.109 1.304 1.304 0 0 1-.813-.647l-7.186-13.441a1.326 1.326 0 0 1 .045-1.313z"/><path d="M362.104-51.704v1.364h2.627v1.556h-2.627v2.597h-1.616v-7.073h4.294v1.556h-2.678zm7.48 4.405h-2.627l-.354 1.112h-1.768l2.404-7.073h2.062l2.404 7.073h-1.768l-.353-1.112zm-.485-1.515l-.829-2.597-.828 2.597h1.657zm2.661-.91c0-2.082 1.545-3.678 3.678-3.678 1.282 0 2.414.637 3.031 1.637l-1.395.809c-.314-.546-.919-.87-1.637-.87-1.254 0-2.063.839-2.063 2.102s.809 2.102 2.063 2.102c.718 0 1.333-.323 1.637-.869l1.395.809c-.606 1-1.738 1.637-3.031 1.637-2.133-.001-3.678-1.598-3.678-3.679zm12.22-1.98h-1.818v5.517h-1.617v-5.517h-1.818v-1.556h5.254v1.556zm.154 3.91l1.394-.808c.253.585.688.979 1.486.979.767 0 .959-.303.959-.576 0-.434-.404-.606-1.464-.898-1.053-.293-2.082-.798-2.082-2.152 0-1.364 1.151-2.153 2.374-2.153 1.162 0 2.072.556 2.587 1.597l-1.364.798c-.243-.505-.575-.818-1.223-.818-.505 0-.759.252-.759.536 0 .323.173.545 1.273.879 1.072.323 2.274.697 2.274 2.192 0 1.364-1.092 2.173-2.628 2.173-1.483-.001-2.433-.708-2.827-1.749zM443.542-6.11c0-2.082 1.647-3.678 3.678-3.678s3.678 1.597 3.678 3.678-1.647 3.678-3.678 3.678-3.678-1.597-3.678-3.678zm5.738 0c0-1.263-.909-2.102-2.061-2.102s-2.062.838-2.062 2.102c0 1.263.91 2.101 2.062 2.101s2.061-.838 2.061-2.101zm4.147-1.98v1.364h2.627v1.556h-2.627v2.597h-1.616v-7.073h4.293v1.556h-2.677zm5.257 0v1.364h2.627v1.556h-2.627v2.597h-1.617v-7.073h4.295v1.556h-2.678zm5.256-1.556v7.073h-1.616v-7.073h1.616zm.911 3.536c0-2.082 1.546-3.678 3.678-3.678 1.284 0 2.415.637 3.03 1.637l-1.394.809c-.313-.546-.92-.869-1.637-.869-1.252 0-2.061.838-2.061 2.102 0 1.263.809 2.101 2.061 2.101.717 0 1.335-.323 1.637-.868l1.394.808c-.605 1-1.736 1.637-3.03 1.637-2.132-.001-3.678-1.598-3.678-3.679zm11.917 1.98v1.557h-4.446v-7.073h4.395v1.556h-2.777v1.172h2.525v1.536h-2.525v1.252h2.828zm3.297-.767h-.769v2.324h-1.615v-7.073h2.828a2.418 2.418 0 0 1 2.425 2.425c0 .869-.525 1.657-1.303 2.051l1.505 2.597h-1.737l-1.334-2.324zm-.769-1.415h1.213c.444 0 .808-.394.808-.909s-.363-.909-.808-.909h-1.213v1.818zm4.146 2.132l1.395-.809c.254.586.688.979 1.486.979.767 0 .959-.303.959-.576 0-.434-.404-.606-1.464-.899-1.053-.293-2.082-.798-2.082-2.152 0-1.364 1.152-2.152 2.374-2.152 1.162 0 2.071.556 2.587 1.597l-1.364.798c-.243-.505-.575-.818-1.223-.818-.505 0-.758.252-.758.536 0 .323.172.545 1.272.879 1.072.323 2.274.697 2.274 2.192 0 1.364-1.092 2.172-2.627 2.172-1.485.001-2.436-.706-2.829-1.747zm-40.203 115.437h1.767l1.567 5.203 1.566-5.203h1.767l-2.303 7.072h-2.062l-2.302-7.072zm11.723 5.517v1.555h-4.446v-7.072h4.396v1.556h-2.778v1.172h2.525v1.535h-2.525v1.254h2.828zm3.296-.767h-.768v2.322h-1.617v-7.072h2.829a2.42 2.42 0 0 1 2.425 2.425c0 .869-.524 1.656-1.303 2.051l1.506 2.596h-1.738l-1.334-2.322zm-.767-1.416h1.212c.445 0 .81-.393.81-.908s-.364-.91-.81-.91h-1.212v1.818zm10.865.203c0 2-1.485 3.535-3.436 3.535h-2.829v-7.072h2.829c1.951 0 3.436 1.537 3.436 3.537zm-1.556 0c0-1.213-.769-1.98-1.88-1.98h-1.213v3.961h1.213c1.112-.001 1.88-.768 1.88-1.981zm4.085-3.537v7.072h-1.616v-7.072h1.616zm.911 3.537c0-2.082 1.546-3.677 3.678-3.677 1.284 0 2.415.636 3.03 1.636l-1.394.809c-.313-.547-.92-.869-1.637-.869-1.252 0-2.061.838-2.061 2.102 0 1.262.809 2.102 2.061 2.102.717 0 1.335-.324 1.637-.869l1.394.809c-.605 1-1.736 1.637-3.03 1.637-2.132-.002-3.678-1.598-3.678-3.68zm12.219-1.981h-1.818v5.516h-1.616v-5.516h-1.819v-1.556h5.254v1.556zM260.516-17.621v7.073h-1.617v-7.073h1.617zm6.771 0v7.073h-1.212l-2.729-3.839v3.839h-1.617v-7.073h1.213l2.729 3.839v-3.839h1.616zm5.964 1.556h-1.818v5.517h-1.616v-5.517h-1.818v-1.556h5.253v1.556zm5.157 3.96v1.557h-4.446v-7.073h4.396v1.556h-2.778v1.172h2.525v1.536h-2.525v1.252h2.828zm3.297-.767h-.769v2.324h-1.615v-7.073h2.828a2.419 2.419 0 0 1 2.425 2.425c0 .869-.525 1.657-1.304 2.051l1.506 2.597h-1.738l-1.333-2.324zm-.769-1.415h1.213c.445 0 .809-.394.809-.909s-.363-.909-.809-.909h-1.213v1.818zm10.158-3.334v7.073h-1.213l-2.728-3.839v3.839h-1.616v-7.073h1.212l2.728 3.839v-3.839h1.617zm5.662 5.516v1.557h-4.445v-7.073h4.395v1.556h-2.778v1.172h2.526v1.536h-2.526v1.252h2.828zm5.661-3.96h-1.818v5.517h-1.617v-5.517h-1.818v-1.556h5.254v1.556zm-29.163 11.27v-4.79h1.616v4.647c0 .536.253.99 1.112.99.857 0 1.111-.454 1.111-.99v-4.647h1.615v4.79c0 1.515-1.172 2.424-2.727 2.424s-2.727-.909-2.727-2.424zm6.268.676l1.395-.809c.252.586.687.98 1.484.98.769 0 .961-.303.961-.576 0-.435-.404-.606-1.465-.899-1.051-.292-2.082-.798-2.082-2.152 0-1.364 1.152-2.152 2.375-2.152 1.161 0 2.07.556 2.586 1.597l-1.363.798c-.243-.505-.576-.818-1.223-.818-.506 0-.758.252-.758.535 0 .323.171.545 1.272.879 1.071.323 2.273.697 2.273 2.192 0 1.364-1.091 2.172-2.627 2.172-1.484.001-2.433-.706-2.828-1.747zm10.662.051v1.556h-4.445v-7.072h4.395v1.556h-2.777v1.172h2.525v1.536h-2.525v1.252h2.827zm3.297-.768h-.768v2.323h-1.616v-7.072h2.829a2.419 2.419 0 0 1 2.425 2.425c0 .869-.525 1.657-1.304 2.051l1.506 2.596h-1.738l-1.334-2.323zm-.768-1.414h1.213c.445 0 .809-.394.809-.91 0-.515-.363-.909-.809-.909h-1.213v1.819zm4.147 2.131l1.395-.809c.252.586.687.98 1.484.98.769 0 .961-.303.961-.576 0-.435-.404-.606-1.466-.899-1.05-.292-2.081-.798-2.081-2.152 0-1.364 1.151-2.152 2.375-2.152 1.161 0 2.07.556 2.586 1.597l-1.363.798c-.243-.505-.576-.818-1.223-.818-.506 0-.759.252-.759.535 0 .323.172.545 1.273.879 1.071.323 2.272.697 2.272 2.192 0 1.364-1.09 2.172-2.626 2.172-1.484.001-2.434-.706-2.828-1.747zM265.579 117.22h-2.627l-.354 1.109h-1.769l2.405-7.072h2.061l2.404 7.072h-1.768l-.352-1.109zm-.485-1.516l-.83-2.598-.828 2.598h1.658zm5.601.303h-.769v2.322h-1.615v-7.072h2.828a2.42 2.42 0 0 1 2.426 2.425c0 .869-.525 1.656-1.305 2.051l1.507 2.596h-1.739l-1.333-2.322zm-.769-1.416h1.213c.445 0 .809-.393.809-.908s-.363-.91-.809-.91h-1.213v1.818zm4.198.203c0-2.082 1.545-3.677 3.678-3.677 1.283 0 2.414.636 3.031 1.636l-1.395.809c-.313-.547-.919-.869-1.637-.869-1.253 0-2.061.838-2.061 2.102 0 1.262.808 2.102 2.061 2.102.718 0 1.334-.324 1.637-.869l1.395.809c-.606 1-1.738 1.637-3.031 1.637-2.134-.002-3.678-1.598-3.678-3.68zm12.925-3.537v7.072h-1.616v-2.809h-2.223v2.809h-1.616v-7.072h1.616v2.708h2.223v-2.708h1.616zm2.834 0v7.072h-1.617v-7.072h1.617zm.608 0h1.768l1.566 5.203 1.566-5.203h1.768l-2.304 7.072h-2.062l-2.302-7.072zm11.722 5.517v1.555h-4.445v-7.072h4.396v1.556h-2.778v1.172h2.525v1.535h-2.525v1.254h2.827zm38.276 43.731h-2.627l-.354 1.113h-1.768l2.405-7.074h2.061l2.404 7.074h-1.768l-.353-1.113zm-.486-1.516l-.829-2.596-.828 2.596h1.657zm7.361 1.071v1.559h-4.143v-7.074h1.616v5.516h2.527zm7.306-1.778c0 2.162-1.506 3.477-3.486 3.477-2.223 0-3.818-1.639-3.818-3.668 0-2.051 1.627-3.689 3.707-3.689 1.354 0 2.496.67 3.092 1.619l-1.373.787c-.293-.465-.93-.828-1.729-.828-1.192 0-2.08.879-2.08 2.121 0 1.203.848 2.082 2.223 2.082.939 0 1.555-.414 1.808-1.092h-1.89v-1.414h3.547v.605zm.612-.201a3.647 3.647 0 0 1 3.678-3.68c2.03 0 3.678 1.598 3.678 3.68s-1.647 3.678-3.678 3.678c-2.032 0-3.678-1.596-3.678-3.678zm5.738 0c0-1.264-.909-2.102-2.061-2.102s-2.063.838-2.063 2.102c0 1.262.91 2.102 2.063 2.102 1.152 0 2.061-.84 2.061-2.102zm4.914 1.213h-.767v2.324h-1.616v-7.074h2.828a2.419 2.419 0 0 1 2.425 2.426c0 .869-.525 1.656-1.304 2.051l1.506 2.598h-1.738l-1.334-2.325zm-.767-1.414h1.212c.445 0 .809-.396.809-.91 0-.516-.363-.91-.809-.91h-1.212v1.82zm7.783 1.019v2.719h-1.616v-2.719l-2.374-4.355h1.838l1.344 2.729 1.344-2.729h1.839l-2.375 4.355zm7.732-2.798h-1.818v5.518h-1.616v-5.518h-1.818v-1.557h5.253v1.557zm6.167-1.557v7.074h-1.616v-2.809h-2.223v2.809h-1.617v-7.074h1.617v2.707h2.223v-2.707h1.616zm8.29 7.074h-1.618v-4.113l-1.828 3h-.183l-1.828-3v4.113h-1.617v-7.074h1.617l1.919 3.143 1.92-3.143h1.618v7.074zm3.441-3.537a3.647 3.647 0 0 1 3.678-3.68c2.03 0 3.677 1.598 3.677 3.68s-1.646 3.678-3.677 3.678c-2.032 0-3.678-1.596-3.678-3.678zm5.738 0c0-1.264-.909-2.102-2.061-2.102s-2.062.838-2.062 2.102c0 1.262.909 2.102 2.062 2.102 1.152 0 2.061-.84 2.061-2.102zm4.146-1.98v1.363h2.628v1.557h-2.628v2.598h-1.616v-7.074h4.295v1.557h-2.679zm-89.753 13.552h-1.617v-4.113l-1.828 3.002h-.182l-1.829-3.002v4.113h-1.616v-7.074h1.616l1.919 3.145 1.92-3.145h1.617v7.074zm1.166-2.283v-4.791h1.617v4.648c0 .537.252.99 1.111.99.858 0 1.111-.453 1.111-.99v-4.648h1.616v4.791c0 1.514-1.173 2.424-2.728 2.424-1.555 0-2.727-.91-2.727-2.424zm10.764.727v1.557h-4.143v-7.074h1.617v5.518h2.526zm4.752-3.961h-1.818v5.518h-1.617v-5.518h-1.818v-1.557h5.254v1.557zm2.326-1.557v7.074h-1.616v-7.074h1.616zm1.215 3.324h3.839v1.457h-3.839v-1.457zm9.197 2.194v1.557h-4.143v-7.074h1.616v5.518h2.527zm5.156 0v1.557h-4.446v-7.074h4.395v1.557h-2.777v1.172h2.525v1.537h-2.525v1.252h2.828zm.305-5.518h1.768l1.566 5.205 1.566-5.205h1.768l-2.303 7.074h-2.062l-2.303-7.074zm11.725 5.518v1.557h-4.446v-7.074h4.396v1.557h-2.779v1.172h2.526v1.537h-2.526v1.252h2.829zm5.055 0v1.557h-4.143v-7.074h1.617v5.518h2.526zm2.63-5.518h1.769l1.566 5.205 1.565-5.205h1.769l-2.304 7.074h-2.062l-2.303-7.074zm11.725 5.518v1.557h-4.445v-7.074h4.395v1.557h-2.778v1.172h2.525v1.537h-2.525v1.252h2.828zm3.297-.768h-.769v2.324h-1.616v-7.074h2.829a2.419 2.419 0 0 1 2.424 2.426c0 .869-.525 1.658-1.303 2.051l1.505 2.598h-1.737l-1.333-2.325zm-.769-1.414h1.213c.444 0 .808-.395.808-.91s-.363-.908-.808-.908h-1.213v1.818zm6.218-3.336v7.074h-1.617v-7.074h1.617zm2.83 1.557v1.365h2.626v1.555h-2.626v2.598h-1.617v-7.074h4.294v1.557h-2.677zm5.258-1.557v7.074h-1.617v-7.074h1.617zm.909 3.537c0-2.082 1.547-3.678 3.679-3.678 1.282 0 2.415.637 3.03 1.637l-1.395.809c-.313-.545-.919-.869-1.636-.869-1.253 0-2.062.84-2.062 2.102 0 1.264.809 2.102 2.062 2.102.717 0 1.333-.324 1.636-.867l1.395.807c-.605 1.002-1.737 1.637-3.03 1.637-2.132-.002-3.679-1.598-3.679-3.68zm11.614 2.426h-2.628l-.354 1.111h-1.768l2.405-7.074h2.06l2.406 7.074h-1.77l-.351-1.111zm-.485-1.518l-.828-2.596-.83 2.596h1.658zm7.46-2.888h-1.818v5.518h-1.617v-5.518h-1.818v-1.557h5.254v1.557zm2.327-1.557v7.074h-1.616v-7.074h1.616zm.911 3.537c0-2.082 1.646-3.678 3.678-3.678 2.03 0 3.677 1.596 3.677 3.678s-1.646 3.678-3.677 3.678-3.678-1.596-3.678-3.678zm5.74 0c0-1.262-.91-2.102-2.062-2.102-1.152 0-2.062.84-2.062 2.102 0 1.264.909 2.102 2.062 2.102 1.151 0 2.062-.838 2.062-2.102zm8.087-3.537v7.074h-1.213l-2.728-3.84v3.84h-1.616v-7.074h1.212l2.729 3.842v-3.842h1.616z" fill="#FFF"/></svg>