<svg xmlns="http://www.w3.org/2000/svg" width="229.702" height="194.793" viewBox="65.308 294.159 229.702 194.793"><linearGradient id="a" gradientUnits="userSpaceOnUse" x1="-3368.001" y1="1223.694" x2="-3233.541" y2="1223.694" gradientTransform="rotate(-90 -1968.092 -941.443)"><stop offset="0" stop-color="#706dcb" stop-opacity="0"/><stop offset="1" stop-color="#706dcb" stop-opacity=".7"/></linearGradient><circle fill="url(#a)" cx="197.044" cy="391.235" r="67.23"/><g fill="#FFF"><path d="M262.735 420.543c-1.481 0-2.876.41-4.071 1.104l-17.891-30.602 17.82-31.02a8.079 8.079 0 0 0 4.142 1.152 8.138 8.138 0 0 0 8.134-8.139 8.128 8.128 0 0 0-8.134-8.13c-4.425 0-8.019 3.536-8.12 7.94h-35.673l-10.948-18.963-6.884-11.927a8.118 8.118 0 0 0 4.073-7.038c0-4.492-3.646-8.131-8.139-8.131s-8.133 3.639-8.133 8.131a8.128 8.128 0 0 0 4.071 7.038l-6.886 11.927-10.951 18.963h-35.658c-.019-4.478-3.653-8.104-8.134-8.104-4.493 0-8.131 3.642-8.134 8.134a8.128 8.128 0 0 0 8.134 8.128 8.112 8.112 0 0 0 4.077-1.097l17.888 31.134-17.818 30.489a8.056 8.056 0 0 0-4.147-1.146 8.13 8.13 0 0 0-8.134 8.131 8.132 8.132 0 0 0 8.134 8.135 8.125 8.125 0 0 0 8.124-7.946h13.771l21.898.003 10.951 18.965 6.886 11.924c-2.429 1.407-4.071 4.029-4.071 7.036 0 4.494 3.641 8.136 8.133 8.136s8.139-3.643 8.139-8.136c0-3.007-1.645-5.629-4.073-7.036l6.882-11.924 10.951-18.968 21.896.003 13.766-.003a8.132 8.132 0 0 0 16.264-.027 8.134 8.134 0 0 0-8.135-8.136zm-46.213 3.967l-1.208 2.098-10.951 18.968-6.89 11.921-.431.751-.431-.751-6.891-11.921-10.947-18.968-1.208-2.098H138.62l.508-.887 6.448-11.171 13.176-21.407-13.176-21.941-6.515-11.287-.446-.771h38.95l1.208-2.098 10.947-18.963 6.891-11.926.435-.748.428.748 6.89 11.926 10.951 18.963 1.208 2.098h38.952l-.519.891-6.445 11.168-12.631 21.941 12.631 21.407 6.52 11.29.443.768h-38.952z"/><path d="M183.351 419.162l2.092 3.625 10.951 18.964.688 1.193.688-1.193 10.955-18.964 2.091-3.625a30.965 30.965 0 0 1-13.733 3.194 30.96 30.96 0 0 1-13.732-3.194zm-17.336-26.726l-2.471 4.271L152.6 415.67l-.69 1.195h27.531c-7.83-5.403-13.05-14.294-13.426-24.429zm-12.726-27.731h-1.379l.691 1.19 10.945 18.965 2.515 4.351c.672-10.388 6.438-19.381 14.834-24.507h-5.708l-21.898.001zm77.332 32.003l-2.471-4.275c-.375 10.137-5.604 19.03-13.425 24.434h27.532l-.692-1.195-10.944-18.964zm-32.852-56.891l-.688-1.192-.688 1.192-10.951 18.965-2.869 4.971a30.943 30.943 0 0 1 14.508-3.591 30.96 30.96 0 0 1 14.51 3.591l-2.868-4.971-10.954-18.965zm30.337 49.398l2.515-4.355 10.943-18.963.691-1.191h-28.983c8.39 5.125 14.162 14.123 14.834 24.509z"/></g><g fill="#FFF"><path d="M204.946 385.241c0-1.354-.901-2.332-2.297-2.332h-11.321v4.669h11.321c1.356.001 2.297-.978 2.297-2.337zm-1.543 7.683h-12.075v5.051h12.075c1.505 0 2.486-1.058 2.486-2.525.001-1.471-.979-2.526-2.486-2.526z"/><path d="M197.046 365.335c-14.032 0-25.444 11.416-25.444 25.442 0 14.031 11.413 25.445 25.444 25.445 14.027 0 25.439-11.414 25.439-25.445.001-14.026-11.411-25.442-25.439-25.442zm6.357 38.285h-.909v4.895h-4.449v-4.895h-2.248v4.895h-4.445v-4.891h-8.872V398h2.821v-15.105h-2.821v-5.637h8.872v-4.891h4.445v4.891h2.248v-4.891h4.449v4.891h.154c4.596 0 8.325 2.975 8.325 7.535 0 2.182-.866 3.915-2.298 5.159 1.959 1.241 3.24 3.274 3.24 5.948.001 4.675-3.803 7.72-8.512 7.72z"/></g><linearGradient id="b" gradientUnits="userSpaceOnUse" x1="117.674" y1="734.207" x2="185.079" y2="734.207" gradientTransform="translate(0 -416.182)"><stop offset="0" stop-color="#fff" stop-opacity="0"/><stop offset="1" stop-color="#fff"/></linearGradient><path fill="url(#b)" d="M185.007 299.987a1.715 1.715 0 0 0-1.24-1.178l-19.077-4.603a1.712 1.712 0 0 0-2.067 1.265 1.712 1.712 0 0 0 1.264 2.067l12.279 2.963c-24.601 5.397-45.554 20.644-58.492 41.39h4.069c12.742-19.373 32.857-33.482 56.323-38.3l-9.592 10.156a1.715 1.715 0 0 0 2.492 2.353l13.644-14.449a1.707 1.707 0 0 0 .397-1.664z"/><linearGradient id="c" gradientUnits="userSpaceOnUse" x1="531.433" y1="-1813.621" x2="598.837" y2="-1813.621" gradientTransform="rotate(61.608 -1384.965 -1022.219)"><stop offset="0" stop-color="#fff" stop-opacity="0"/><stop offset="1" stop-color="#fff"/></linearGradient><path fill="url(#c)" d="M270.367 337.979a1.713 1.713 0 0 0 .445-1.651l-5.023-18.97a1.713 1.713 0 1 0-3.313.877l3.232 12.211c-16.447-19.073-39.824-30.256-64.227-31.771l1.934 3.58c23.103 1.996 45.08 12.98 60.478 31.333l-13.496-3.608a1.713 1.713 0 0 0-1.951 2.469c.218.4.593.715 1.066.843l19.198 5.132a1.727 1.727 0 0 0 1.657-.445z"/><linearGradient id="d" gradientUnits="userSpaceOnUse" x1="-1423.217" y1="-3273.882" x2="-1355.817" y2="-3273.882" gradientTransform="rotate(121.977 -1570.484 -977.823)"><stop offset="0" stop-color="#fff" stop-opacity="0"/><stop offset="1" stop-color="#fff"/></linearGradient><path fill="url(#d)" d="M278.833 429.719c.59.162 1.221 0 1.656-.429l14.008-13.743a1.715 1.715 0 0 0-2.402-2.447l-9.017 8.848c8.448-23.727 6.613-49.574-4.134-71.535l-2.155 3.451c9.687 21.066 11.002 45.603 2.662 68.06l-3.535-13.515a1.715 1.715 0 0 0-3.317.867l5.029 19.227a1.73 1.73 0 0 0 1.205 1.216z"/><linearGradient id="e" gradientUnits="userSpaceOnUse" x1="-3797.494" y1="-2091.485" x2="-3730.091" y2="-2091.485" gradientTransform="rotate(-177.387 -1733.838 -858.373)"><stop offset="0" stop-color="#fff" stop-opacity="0"/><stop offset="1" stop-color="#fff"/></linearGradient><path fill="url(#e)" d="M202.634 482.182a1.713 1.713 0 0 0 1.187 1.233l18.847 5.468a1.713 1.713 0 0 0 .955-3.291l-12.131-3.521c24.821-4.27 46.448-18.543 60.318-38.678l-4.064-.186c-13.611 18.771-34.351 31.949-58.011 35.689l10.044-9.709a1.71 1.71 0 0 0 .041-2.422 1.711 1.711 0 0 0-2.422-.042l-14.29 13.812a1.72 1.72 0 0 0-.474 1.647z"/><linearGradient id="f" gradientUnits="userSpaceOnUse" x1="-4008.699" y1="291.739" x2="-3941.298" y2="291.739" gradientTransform="rotate(-117.911 -1859.479 -864.392)"><stop offset="0" stop-color="#fff" stop-opacity="0"/><stop offset="1" stop-color="#fff"/></linearGradient><path fill="url(#f)" d="M120.786 442.632a1.711 1.711 0 0 0-.46 1.647l4.862 19.012a1.714 1.714 0 1 0 3.321-.85l-3.131-12.237c16.289 19.212 39.568 30.59 63.958 32.312l-1.904-3.596c-23.083-2.189-44.968-13.359-60.211-31.841l13.466 3.72a1.71 1.71 0 0 0 2.107-1.193 1.706 1.706 0 0 0-.136-1.258 1.72 1.72 0 0 0-1.059-.853l-19.154-5.293a1.726 1.726 0 0 0-1.659.43z"/><linearGradient id="g" gradientUnits="userSpaceOnUse" x1="-4145.474" y1="243.168" x2="-4078.066" y2="243.168" gradientTransform="scale(-1 1) rotate(-15.237 -1507.89 -14699.211)"><stop offset="0" stop-color="#fff" stop-opacity="0"/><stop offset="1" stop-color="#fff"/></linearGradient><path fill="url(#g)" d="M65.565 375.991a1.716 1.716 0 0 1 1.506-.809l19.616.572a1.714 1.714 0 0 1-.1 3.426l-12.626-.367c22.317 11.674 38.527 31.891 45.558 55.308l-3.926-1.069c-7.202-22.039-22.901-40.941-44.277-51.757l6.584 12.319a1.714 1.714 0 0 1-3.023 1.617l-9.368-17.528a1.722 1.722 0 0 1 .056-1.712z"/></svg>