<svg xmlns="http://www.w3.org/2000/svg" width="441.986" height="374.817" viewBox="125.665 424 441.986 374.817"><linearGradient id="a" gradientUnits="userSpaceOnUse" x1="-3193.594" y1="-753.904" x2="-2934.868" y2="-753.904" gradientTransform="matrix(0 -1 -1 0 -374.757 -2453.438)"><stop offset="0" stop-color="#706dcb" stop-opacity="0"/><stop offset="1" stop-color="#706dcb" stop-opacity=".7"/></linearGradient><circle fill="url(#a)" cx="379.147" cy="610.793" r="129.363"/><g fill="#FFF"><path d="M505.549 667.188c-2.853 0-5.535.789-7.836 2.124L463.29 610.43l34.288-59.687a15.561 15.561 0 0 0 7.971 2.216c8.65-.007 15.65-7.013 15.65-15.658s-7-15.645-15.65-15.645c-8.515 0-15.429 6.804-15.624 15.28h-68.642l-21.066-36.488-13.246-22.948c4.676-2.702 7.836-7.749 7.836-13.542 0-8.644-7.017-15.645-15.658-15.645-8.645 0-15.651 7.001-15.651 15.645 0 5.793 3.16 10.84 7.835 13.542l-13.25 22.949-21.071 36.488h-68.613c-.036-8.616-7.029-15.595-15.651-15.595-8.646 0-15.645 7.008-15.651 15.651 0 8.646 7.005 15.64 15.651 15.64 2.852 0 5.534-.773 7.844-2.111l34.42 59.908-34.284 58.66a15.511 15.511 0 0 0-7.98-2.209c-8.646 0-15.651 6.997-15.651 15.646 0 8.652 7.005 15.654 15.651 15.654 8.523 0 15.444-6.811 15.631-15.292h26.497l42.136.005 21.071 36.493 13.25 22.941c-4.675 2.708-7.835 7.755-7.835 13.54 0 8.646 7.007 15.652 15.651 15.652 8.642 0 15.658-7.007 15.658-15.652 0-5.785-3.162-10.832-7.836-13.54l13.241-22.941 21.072-36.498 42.135.005 26.486-.005c.027 8.615 7.022 15.602 15.645 15.602 8.65 0 15.65-7.005 15.65-15.65s-7-15.653-15.651-15.653zm-88.921 7.631l-2.323 4.035-21.071 36.498-13.257 22.938-.828 1.443-.829-1.443-13.259-22.938-21.063-36.498-2.325-4.035h-74.938l.978-1.704 12.406-21.496 25.354-41.19-25.354-42.22-12.535-21.72-.859-1.483h74.948l2.325-4.035 21.063-36.488 13.259-22.95.834-1.439.823 1.439 13.257 22.95 21.071 36.488 2.323 4.035h74.949l-.995 1.713-12.403 21.49-24.305 42.22 24.305 41.19 12.546 21.725.853 1.476h-74.95z"/><path d="M352.8 664.528l4.025 6.976 21.071 36.49 1.321 2.296 1.323-2.296 21.079-36.49 4.024-6.976a59.562 59.562 0 0 1-26.427 6.146 59.536 59.536 0 0 1-26.416-6.146zm-33.357-51.426l-4.753 8.221-21.06 36.487-1.33 2.301h52.977c-15.067-10.396-25.111-27.507-25.834-47.009zm-24.489-53.358h-2.652l1.33 2.292 21.06 36.49 4.839 8.372c1.294-19.985 12.391-37.292 28.543-47.155h-10.982l-42.138.001zm148.802 61.579l-4.754-8.226c-.721 19.502-10.782 36.617-25.833 47.013h52.978l-1.332-2.301-21.059-36.486zm-63.214-109.469l-1.323-2.295-1.32 2.295-21.072 36.492-5.522 9.565a59.56 59.56 0 0 1 27.916-6.91 59.587 59.587 0 0 1 27.923 6.91l-5.521-9.565-21.081-36.492zm58.374 95.053l4.84-8.38 21.057-36.49 1.332-2.292h-55.77c16.141 9.862 27.248 27.176 28.541 47.162z"/></g><g fill="#FFF"><path d="M394.353 599.26c0-2.604-1.733-4.486-4.42-4.486h-21.784v8.984h21.784c2.609 0 4.42-1.882 4.42-4.498zm-2.968 14.784h-23.237v9.716h23.237c2.896 0 4.783-2.032 4.783-4.858 0-2.828-1.887-4.858-4.783-4.858z"/><path d="M379.151 560.958c-26.999 0-48.959 21.967-48.959 48.957 0 26.998 21.961 48.959 48.959 48.959 26.991 0 48.952-21.962 48.952-48.959.001-26.99-21.96-48.957-48.952-48.957zm12.234 73.665h-1.752v9.418h-8.56v-9.418h-4.324v9.418h-8.556v-9.41h-17.071v-10.82h5.431v-29.063h-5.431V583.9h17.071v-9.41h8.556v9.41h4.324v-9.41h8.56v9.41h.299c8.842 0 16.019 5.725 16.019 14.498 0 4.196-1.667 7.533-4.42 9.927 3.771 2.39 6.234 6.3 6.234 11.445 0 8.993-7.32 14.853-16.38 14.853z"/></g><linearGradient id="b" gradientUnits="userSpaceOnUse" x1="226.426" y1="-94.106" x2="356.124" y2="-94.106" gradientTransform="matrix(1 0 0 -1 0 375.818)"><stop offset="0" stop-color="#fff" stop-opacity="0"/><stop offset="1" stop-color="#fff"/></linearGradient><path fill="url(#b)" d="M355.988 435.216a3.301 3.301 0 0 0-2.389-2.267l-36.706-8.856a3.298 3.298 0 0 0-1.547 6.412l23.628 5.701c-47.336 10.388-87.654 39.722-112.549 79.643h7.829c24.517-37.278 63.224-64.428 108.375-73.697l-18.456 19.542a3.298 3.298 0 0 0 2.398 5.56c.876 0 1.75-.347 2.397-1.034l26.254-27.801c.81-.856 1.1-2.076.766-3.203z"/><linearGradient id="c" gradientUnits="userSpaceOnUse" x1="558.49" y1="2432.419" x2="688.187" y2="2432.419" gradientTransform="scale(1 -1) rotate(-61.608 -1891.165 1120.135)"><stop offset="0" stop-color="#fff" stop-opacity="0"/><stop offset="1" stop-color="#fff"/></linearGradient><path fill="url(#c)" d="M520.231 508.319a3.305 3.305 0 0 0 .858-3.18l-9.666-36.5a3.297 3.297 0 1 0-6.375 1.687l6.22 23.496c-31.647-36.701-76.626-58.218-123.581-61.135l3.722 6.888c44.452 3.84 86.741 24.977 116.368 60.291l-25.968-6.942a3.294 3.294 0 0 0-4.035 2.334 3.275 3.275 0 0 0 .282 2.418 3.3 3.3 0 0 0 2.051 1.619l36.941 9.875a3.303 3.303 0 0 0 3.183-.851z"/><linearGradient id="d" gradientUnits="userSpaceOnUse" x1="-1416.699" y1="3812.917" x2="-1287.008" y2="3812.917" gradientTransform="scale(-1 1) rotate(58.023 1939.747 2942.992)"><stop offset="0" stop-color="#fff" stop-opacity="0"/><stop offset="1" stop-color="#fff"/></linearGradient><path fill="url(#d)" d="M536.527 684.843c1.133.313 2.347 0 3.186-.823l26.951-26.445a3.3 3.3 0 0 0 .043-4.666 3.3 3.3 0 0 0-4.662-.042l-17.348 17.024c16.255-45.656 12.724-95.391-7.955-137.648l-4.146 6.641c18.639 40.537 21.171 87.747 5.122 130.958l-6.804-26.004a3.295 3.295 0 0 0-5.985-.911 3.282 3.282 0 0 0-.395 2.579l9.679 36.996a3.3 3.3 0 0 0 2.314 2.341z"/><linearGradient id="e" gradientUnits="userSpaceOnUse" x1="-3731.305" y1="2572.88" x2="-3601.612" y2="2572.88" gradientTransform="scale(-1 1) rotate(-2.613 -41928.854 -68701.123)"><stop offset="0" stop-color="#fff" stop-opacity="0"/><stop offset="1" stop-color="#fff"/></linearGradient><path fill="url(#e)" d="M389.906 785.792a3.296 3.296 0 0 0 2.281 2.373l36.264 10.521a3.297 3.297 0 1 0 1.837-6.334l-23.343-6.773c47.761-8.217 89.375-35.682 116.064-74.425l-7.82-.355c-26.192 36.118-66.097 61.477-111.624 68.676l19.326-18.682a3.296 3.296 0 1 0-4.581-4.741l-27.496 26.574a3.302 3.302 0 0 0-.908 3.166z"/><linearGradient id="f" gradientUnits="userSpaceOnUse" x1="-3863.79" y1="211.929" x2="-3734.1" y2="211.929" gradientTransform="scale(-1 1) rotate(-62.09 -1598.693 -2430.697)"><stop offset="0" stop-color="#fff" stop-opacity="0"/><stop offset="1" stop-color="#fff"/></linearGradient><path fill="url(#f)" d="M232.413 709.691a3.296 3.296 0 0 0-.885 3.172l9.356 36.58a3.299 3.299 0 0 0 6.39-1.634l-6.024-23.549c31.342 36.968 76.136 58.861 123.065 62.172l-3.665-6.917c-44.417-4.214-86.527-25.705-115.857-61.268l25.91 7.158a3.295 3.295 0 0 0 3.792-4.719 3.299 3.299 0 0 0-2.037-1.639l-36.856-10.185a3.315 3.315 0 0 0-3.189.829z"/><linearGradient id="g" gradientUnits="userSpaceOnUse" x1="-3931.297" y1="297.838" x2="-3801.593" y2="297.838" gradientTransform="rotate(-164.763 -1821.22 194.315)"><stop offset="0" stop-color="#fff" stop-opacity="0"/><stop offset="1" stop-color="#fff"/></linearGradient><path fill="url(#g)" d="M126.159 581.463a3.303 3.303 0 0 1 2.899-1.559l37.744 1.102a3.297 3.297 0 1 1-.193 6.592l-24.295-.708c42.942 22.464 74.133 61.362 87.661 106.421l-7.553-2.057c-13.858-42.41-44.067-78.779-85.197-99.59l12.67 23.706a3.298 3.298 0 0 1-5.816 3.11l-18.026-33.727a3.303 3.303 0 0 1 .106-3.29z"/></svg>