<?xml version="1.0" standalone="no"?>
<!DOCTYPE svg PUBLIC "-//W3C//DTD SVG 20010904//EN"
 "http://www.w3.org/TR/2001/REC-SVG-20010904/DTD/svg10.dtd">
<svg version="1.0" xmlns="http://www.w3.org/2000/svg"
 width="290.000000pt" height="290.000000pt" viewBox="0 0 290.000000 290.000000"
 preserveAspectRatio="xMidYMid meet">
<metadata>
Created by potrace 1.11, written by Peter Selinger 2001-2013
</metadata>
<g transform="translate(0.000000,290.000000) scale(0.100000,-0.100000)"
fill="#000000" stroke="none">
<path d="M1400 2892 c-98 -44 -120 -166 -43 -237 l22 -20 -149 -255 c-82 -140
-152 -259 -157 -265 -6 -6 -123 -10 -312 -10 l-303 0 -13 38 c-15 45 -41 76
-73 88 -93 36 -184 -12 -199 -105 -17 -103 79 -183 187 -154 24 6 31 -4 140
-194 63 -110 128 -224 143 -252 16 -28 33 -56 38 -62 5 -6 -48 -108 -137 -265
-80 -140 -150 -259 -156 -266 -7 -8 -17 -9 -35 -2 -104 39 -215 -76 -174 -183
35 -91 166 -117 233 -46 15 17 31 42 35 57 3 14 9 28 14 31 9 6 606 6 612 0
19 -24 297 -515 297 -525 0 -8 -6 -18 -14 -22 -24 -13 -46 -65 -46 -108 0 -30
8 -50 30 -76 38 -47 78 -63 135 -55 108 17 153 153 76 232 l-28 29 148 255
c81 140 151 260 156 265 6 6 123 10 312 10 l303 0 13 -38 c17 -50 32 -67 79
-88 151 -67 272 145 136 241 -31 22 -86 30 -130 18 -24 -6 -32 6 -178 257
-150 258 -153 265 -138 292 7 15 71 124 140 242 69 117 126 216 126 219 0 3 7
14 16 23 13 14 21 16 36 8 26 -14 91 -6 123 15 89 59 83 195 -12 241 -42 20
-102 19 -137 -4 -32 -22 -66 -68 -66 -92 0 -9 -6 -19 -12 -21 -18 -6 -606 -4
-611 2 -3 5 -32 55 -74 130 -11 19 -41 71 -68 115 -26 44 -61 105 -78 135 -16
30 -43 75 -58 99 l-27 44 29 29 c46 46 51 136 11 184 -37 44 -116 66 -162 46z
m301 -712 c11 -19 25 -44 32 -55 6 -10 22 -36 35 -57 l22 -38 334 -2 334 -3
-105 -180 c-58 -99 -116 -199 -130 -223 -13 -24 -40 -69 -59 -100 -18 -31 -34
-62 -34 -69 0 -6 74 -139 164 -295 l164 -283 -337 -3 -336 -3 -130 -226 c-115
-200 -168 -294 -195 -342 -8 -15 -27 11 -83 111 -14 25 -36 63 -49 85 -14 21
-27 45 -31 53 -4 8 -46 83 -94 165 l-88 150 -336 5 -337 5 164 285 c90 157
164 288 164 292 0 3 -27 52 -60 108 -33 56 -60 103 -60 105 0 1 -36 65 -81
141 -44 77 -92 158 -105 181 l-23 43 337 2 337 3 145 250 c80 138 155 268 168
289 l23 39 115 -199 c64 -110 124 -215 135 -234z"/>
<path d="M1409 2427 c-19 -34 -86 -150 -148 -258 l-113 -196 -282 0 c-154 -1
-291 -2 -303 -2 -21 -1 -20 -6 26 -83 27 -46 58 -99 69 -118 11 -19 57 -99
102 -178 l83 -142 -63 -108 c-34 -59 -74 -127 -88 -152 -13 -25 -46 -82 -73
-126 -26 -45 -54 -95 -62 -110 l-15 -29 303 1 302 1 39 -66 c21 -36 47 -82 57
-101 11 -19 34 -60 52 -90 38 -64 72 -123 118 -202 17 -32 34 -58 37 -58 3 0
72 117 154 259 l149 258 302 -1 c330 -1 314 -4 275 54 -9 14 -74 125 -144 247
l-127 222 29 53 c16 29 53 94 82 143 146 250 187 325 176 326 -6 0 -142 1
-302 1 l-292 1 -23 43 c-71 128 -275 474 -279 474 -3 0 -21 -28 -41 -63z"/>
</g>
</svg>
