<?xml version="1.0" standalone="no"?>
<!DOCTYPE svg PUBLIC "-//W3C//DTD SVG 20010904//EN"
 "http://www.w3.org/TR/2001/REC-SVG-20010904/DTD/svg10.dtd">
<svg version="1.0" xmlns="http://www.w3.org/2000/svg"
 width="290.000000pt" height="290.000000pt" viewBox="0 0 290.000000 290.000000"
 preserveAspectRatio="xMidYMid meet">
<metadata>
Created by potrace 1.11, written by Peter Selinger 2001-2013
</metadata>
<g transform="translate(0.000000,290.000000) scale(0.100000,-0.100000)"
fill="#000000" stroke="none">
<path d="M632 2267 c-347 -347 -632 -639 -632 -648 0 -11 794 -1587 815 -1617
1 -1 406 62 901 140 l899 143 143 899 c78 495 141 900 140 901 -28 20 -1606
815 -1617 815 -9 0 -301 -285 -649 -633z m336 -442 c151 -36 230 -120 240
-255 8 -114 -27 -192 -110 -245 -26 -16 -47 -33 -47 -36 -1 -3 29 -50 65 -104
55 -83 144 -243 144 -260 0 -3 -53 -5 -117 -5 l-118 1 -63 112 c-34 62 -79
135 -100 162 -36 48 -40 50 -90 53 l-52 3 0 -165 0 -166 -105 0 -105 0 0 450
0 450 23 5 c50 11 79 12 222 13 102 1 170 -3 213 -13z m604 -303 c3 -305 3
-308 28 -356 31 -60 75 -86 145 -86 66 0 122 32 149 85 20 38 21 58 24 353 l3
312 100 0 99 0 0 -297 c0 -333 -7 -398 -53 -475 -68 -112 -162 -152 -345 -146
-105 3 -123 7 -175 33 -66 33 -110 78 -141 144 -20 44 -21 65 -24 394 l-3 347
95 0 94 0 4 -308z m948 -147 l0 -455 -100 0 -100 0 0 455 0 455 100 0 100 0 0
-455z"/>
<path d="M720 1539 l0 -121 93 4 c104 5 142 19 163 59 17 33 18 92 3 121 -19
36 -86 58 -176 58 l-83 0 0 -121z"/>
</g>
</svg>
